<svg id="Instagram" xmlns="http://www.w3.org/2000/svg" width="21.249" height="21.249" viewBox="0 0 21.249 21.249">
  <path id="Path_3" data-name="Path 3" d="M10.624,1.889a32.577,32.577,0,0,1,4.25.118,5.475,5.475,0,0,1,2.007.354,4.146,4.146,0,0,1,2.007,2.007,5.475,5.475,0,0,1,.354,2.007c0,1.062.118,1.417.118,4.25a32.577,32.577,0,0,1-.118,4.25,5.475,5.475,0,0,1-.354,2.007,4.146,4.146,0,0,1-2.007,2.007,5.475,5.475,0,0,1-2.007.354c-1.062,0-1.417.118-4.25.118a32.577,32.577,0,0,1-4.25-.118,5.475,5.475,0,0,1-2.007-.354,4.146,4.146,0,0,1-2.007-2.007,5.475,5.475,0,0,1-.354-2.007c0-1.062-.118-1.417-.118-4.25a32.577,32.577,0,0,1,.118-4.25,5.475,5.475,0,0,1,.354-2.007,4.24,4.24,0,0,1,.826-1.18,2,2,0,0,1,1.18-.826,5.475,5.475,0,0,1,2.007-.354,32.577,32.577,0,0,1,4.25-.118m0-1.889A34.88,34.88,0,0,0,6.257.118,7.288,7.288,0,0,0,3.66.59a4.621,4.621,0,0,0-1.889,1.18A4.621,4.621,0,0,0,.59,3.66a5.379,5.379,0,0,0-.472,2.6A34.88,34.88,0,0,0,0,10.624a34.88,34.88,0,0,0,.118,4.368,7.288,7.288,0,0,0,.472,2.6,4.621,4.621,0,0,0,1.18,1.889,4.621,4.621,0,0,0,1.889,1.18,7.288,7.288,0,0,0,2.6.472,34.88,34.88,0,0,0,4.368.118,34.881,34.881,0,0,0,4.368-.118,7.288,7.288,0,0,0,2.6-.472,4.953,4.953,0,0,0,3.069-3.069,7.288,7.288,0,0,0,.472-2.6c0-1.18.118-1.535.118-4.368a34.88,34.88,0,0,0-.118-4.368,7.288,7.288,0,0,0-.472-2.6,4.621,4.621,0,0,0-1.18-1.889A4.621,4.621,0,0,0,17.589.59a7.288,7.288,0,0,0-2.6-.472A34.88,34.88,0,0,0,10.624,0m0,5.194a5.343,5.343,0,0,0-5.43,5.43,5.43,5.43,0,1,0,5.43-5.43m0,8.972a3.478,3.478,0,0,1-3.541-3.541,3.478,3.478,0,0,1,3.541-3.541,3.478,3.478,0,0,1,3.541,3.541,3.478,3.478,0,0,1-3.541,3.541M16.291,3.66a1.3,1.3,0,1,0,1.3,1.3,1.31,1.31,0,0,0-1.3-1.3" fill="#7a8b9b" fill-rule="evenodd"/>
</svg>
