<?xml version="1.0" standalone="no"?>
<!DOCTYPE svg PUBLIC "-//W3C//DTD SVG 1.1//EN" "http://www.w3.org/Graphics/SVG/1.1/DTD/svg11.dtd" >
<svg xmlns="http://www.w3.org/2000/svg">
<metadata>Generated by IcoMoon</metadata>
<defs>
<font id="niafam" horiz-adv-x="1024">
<font-face units-per-em="1024" ascent="960" descent="-64" />
<missing-glyph horiz-adv-x="1024" />
<glyph unicode="&#x20;" horiz-adv-x="512" d="" />
<glyph unicode="&#xe900;" glyph-name="accessibility" d="M680.843-66.345c7.817 0 16.415 2.345 24.232 6.253 30.485 14.070 42.992 48.464 28.14 78.95 0 0-111.78 255.609-132.104 349.411-7.817 32.831-12.507 119.597-14.070 160.244 0 14.070 7.817 26.577 20.324 30.485l250.137 75.041c30.485 7.817 48.464 42.992 40.647 73.478s-42.992 48.464-73.478 40.647c0 0-231.377-75.041-315.017-75.041-81.295 0-311.108 73.478-311.108 73.478-30.485 7.817-64.879-6.253-75.041-36.739-10.162-32.831 7.817-67.224 40.647-75.041l250.137-75.041c12.507-3.908 22.669-16.415 20.324-30.485-2.345-40.647-6.253-128.195-14.070-160.244-20.324-93.802-132.104-349.411-132.104-349.411-14.070-30.485 0-64.879 28.14-78.95 7.817-3.908 16.415-6.253 24.232-6.253 22.669 0 44.556 12.507 53.154 34.394l119.597 243.884 114.125-245.447c10.162-21.105 30.485-33.612 53.154-33.612zM628.47 845.875c0-63.030-51.096-114.125-114.125-114.125s-114.125 51.096-114.125 114.125c0 63.030 51.096 114.125 114.125 114.125s114.125-51.096 114.125-114.125z" />
<glyph unicode="&#xe901;" glyph-name="add" d="M1007.484 960h-990.968c-9.121 0-16.516-7.395-16.516-16.516v-990.968c0-9.121 7.395-16.516 16.516-16.516h990.968c9.121 0 16.516 7.395 16.516 16.516v990.968c0 9.121-7.395 16.516-16.516 16.516zM990.968-30.968h-957.935v957.935h957.935v-957.935zM198.194 431.484h297.29v-297.29c0-9.121 7.395-16.516 16.516-16.516s16.516 7.395 16.516 16.516v297.29h297.29c9.121 0 16.516 7.395 16.516 16.516s-7.395 16.516-16.516 16.516h-297.29v297.29c0 9.121-7.395 16.516-16.516 16.516s-16.516-7.395-16.516-16.516v-297.29h-297.29c-9.121 0-16.516-7.395-16.516-16.516s7.395-16.516 16.516-16.516z" />
<glyph unicode="&#xe902;" glyph-name="aparat" d="M441.941 930.027l-94.263 24.576c-12.245 3.394-26.304 5.344-40.821 5.344-73.109 0-134.658-49.479-152.992-116.779l-0.258-1.111-23.529-88.869c76.018 94.064 185.067 158.8 309.269 176.533l2.592 0.304zM28.473 370.597l-23.079-87.070c-3.371-12.203-5.307-26.215-5.307-40.679 0-73.095 49.463-134.638 116.743-152.983l1.111-0.258 89.918-23.977c-93.657 74.107-158.926 180.505-178.999 302.146l-0.384 2.821zM906.059 806.393l-100.855 26.825c100.297-77.689 168.903-192.126 185.577-322.789l0.251-2.411 27.723 104.903c3.294 12.069 5.186 25.925 5.186 40.224 0 73.104-49.477 134.654-116.77 152.99l-1.111 0.258zM579.813-32.978l96.661-26.075c12.203-3.371 26.215-5.307 40.679-5.307 73.095 0 134.638 49.463 152.983 116.743l0.258 1.111 27.275 102.505c-75.614-99.959-187.2-169.257-315.168-188.64l-2.688-0.336zM512.075 891.963c-0.046 0-0.096 0-0.151 0-245.234 0-444.039-198.802-444.039-444.039s198.802-444.039 444.039-444.039c245.234 0 444.039 198.802 444.039 444.039v0c0 245.184-198.718 443.952-443.881 444.039h-0.009zM260.608 670.469c11.671 58.944 62.96 102.773 124.487 102.773 70.021 0 126.782-56.761 126.782-126.782s-56.761-126.782-126.782-126.782c-8.464 0-16.736 0.83-24.736 2.411l0.805-0.133c-58.983 11.639-102.85 62.949-102.85 124.503 0 8.494 0.834 16.791 2.427 24.816l-0.133-0.807zM445.088 286.825c-11.739-58.862-62.99-102.601-124.455-102.601-70.021 0-126.782 56.761-126.782 126.782s56.761 126.782 126.782 126.782c8.507 0 16.818-0.839 24.855-2.434l-0.807 0.135c58.926-11.687 102.734-62.967 102.734-124.48 0-8.553-0.848-16.912-2.462-24.99l0.135 0.809zM498.887 389.479c-26.183 5.2-45.646 27.989-45.646 55.321 0 31.12 25.227 56.347 56.347 56.347s56.347-25.227 56.347-56.347c0-3.664-0.35-7.248-1.017-10.718l0.057 0.354c-5.063-26.347-27.931-45.984-55.385-45.984-3.785 0-7.486 0.373-11.061 1.086l0.359-0.059zM763.392 225.68c-11.671-58.944-62.96-102.773-124.489-102.773-70.021 0-126.782 56.761-126.782 126.782s56.761 126.782 126.782 126.782c8.464 0 16.736-0.83 24.736-2.411l-0.805 0.133c58.983-11.639 102.85-62.949 102.85-124.503 0-8.494-0.834-16.791-2.427-24.816l0.133 0.807zM679.47 460.663c-58.944 11.671-102.773 62.96-102.773 124.489 0 70.021 56.761 126.782 126.782 126.782s126.782-56.761 126.782-126.782c0-8.464-0.83-16.736-2.411-24.736l0.133 0.805c-11.582-59.054-62.923-102.994-124.53-102.994-8.482 0-16.77 0.832-24.786 2.423l0.807-0.133z" />
<glyph unicode="&#xe903;" glyph-name="email1" horiz-adv-x="1229" d="M116.739 655.729c15.395-10.89 61.772-43.181 139.167-96.909s136.658-95.082 177.865-124.098c4.523-3.199 14.141-10.091 28.852-20.753s26.913-19.268 36.645-25.855c9.731-6.55 21.477-13.937 35.314-22.086s26.799-14.279 39.040-18.353c12.241-4.074 23.531-6.131 33.946-6.131h1.369c10.415 0 21.705 2.019 33.946 6.131s25.241 10.205 39.040 18.353c13.797 8.149 25.545 15.536 35.273 22.086 9.735 6.55 21.934 15.193 36.646 25.855s24.33 17.554 28.856 20.753c41.622 29.015 147.531 102.659 317.679 221.007 33.034 23.114 60.628 50.988 82.794 83.621 22.159 32.634 33.26 66.866 33.26 102.66 0 29.929-10.759 55.518-32.236 76.842s-46.947 31.948-76.37 31.948h-999.221c-34.858 0-61.657-11.766-80.436-35.337s-28.168-53.044-28.168-88.38c0-28.559 12.468-59.516 37.329-92.835s51.356-59.479 79.41-78.518zM1148.539 582.999c-148.405-100.641-261.113-178.816-338.057-234.601-25.812-19.040-46.715-33.89-62.799-44.552-16.077-10.662-37.444-21.514-64.13-32.636-26.682-11.114-51.581-16.678-74.655-16.678h-1.369c-23.074 0-47.973 5.564-74.658 16.678-26.685 11.122-48.086 21.974-64.128 32.636s-36.987 25.513-62.798 44.552c-61.088 44.856-173.569 123.070-337.37 234.601-25.811 17.212-48.657 36.936-68.576 59.136v-539.879c0-29.928 10.644-55.555 31.893-76.841s46.833-31.983 76.711-31.983h999.221c29.88 0 55.426 10.656 76.711 31.983s31.894 46.913 31.894 76.841v539.879c-19.463-21.742-42.080-41.467-67.891-59.136z" />
<glyph unicode="&#xe904;" glyph-name="bale" d="M583.006 955.018h-1.246c-7.474 1.246-14.948 2.492-23.668 2.492h-7.474c-6.23 0-11.212 1.246-17.44 1.246h-47.338c-3.738 0-7.474 0-11.212-1.246-3.738 0-6.228 0-9.966-1.246-3.738 0-7.474-1.246-9.966-1.246-3.738 0-6.228-1.246-9.966-1.246s-7.474-1.246-9.966-1.246c-3.738 0-6.228-1.246-9.966-1.246s-7.474-1.246-9.966-2.49c-2.49 0-6.228-1.246-8.72-1.246-3.738-1.246-6.228-1.246-9.966-2.49-2.49-1.246-6.228-1.246-8.72-2.492-3.738-1.246-6.228-1.246-9.966-2.49-2.49-1.246-6.228-1.246-8.72-2.49-3.738-1.246-6.228-2.49-9.966-2.49-2.49-1.246-6.228-1.246-8.72-2.49-3.738-1.246-6.228-2.49-9.966-3.738-2.49-1.246-6.228-2.49-8.72-2.49-3.738-1.246-6.228-2.49-9.966-3.738-2.49-1.246-4.984-2.49-8.72-3.738s-6.228-2.49-9.966-3.738l-7.474-3.738c-3.738-1.246-6.228-3.738-9.966-4.982l-7.474-3.738c-3.738-1.246-6.228-3.738-9.966-4.982l-7.474-3.736c-3.738-1.246-6.23-3.736-9.966-6.228l-7.474-3.736c-3.736-2.49-7.474-4.984-9.966-6.228s-21.178-14.948-21.178-14.948-93.43 71.008-130.802 89.692-80.972-7.474-80.972-49.83v-455.942c0-270.326 210.53-492.068 477.12-509.51h58.55c4.982 0 8.72 0 13.702 1.246 3.736 0 8.72 0 12.456 1.246 4.982 0 8.72 1.246 13.702 1.246 3.736 0 8.72 1.246 12.456 1.246 3.736 1.246 8.72 1.246 12.456 2.49s8.72 1.246 12.456 2.49c3.736 1.246 8.72 2.49 12.456 2.49 3.736 1.246 7.474 1.246 12.456 2.49l12.456 3.736 11.212 3.736 12.456 3.736 11.212 3.736c3.736 1.246 7.474 2.49 12.456 4.982 3.736 1.246 7.474 2.49 11.212 4.982 3.736 1.246 7.474 3.736 11.212 4.982s7.474 3.736 11.212 4.982c3.736 1.246 7.474 3.736 11.212 6.23 3.736 1.246 7.474 3.736 11.212 4.982 3.736 2.49 7.474 3.736 11.212 6.23s7.474 3.736 9.966 6.23c3.736 2.49 7.474 4.982 11.212 6.23 3.736 2.49 6.23 3.736 9.966 6.23s7.474 4.982 9.966 7.474c3.736 2.49 6.23 4.982 9.966 7.474s6.23 4.982 9.966 7.474c3.736 2.49 6.23 4.982 9.966 7.474s6.23 4.982 9.966 8.72c2.49 2.49 6.23 4.982 8.72 7.474 3.736 2.49 6.23 6.23 8.72 8.72s6.23 4.982 8.72 8.72l8.72 8.72c2.49 2.49 4.982 4.982 7.474 8.72s3.736 6.23 6.23 9.966c2.49 2.49 4.982 6.23 7.474 8.72 2.49 3.736 4.982 6.23 7.474 9.966s4.982 6.23 7.474 9.966 4.982 7.474 7.474 9.966 4.982 6.23 7.474 9.966l7.474 11.212c2.49 3.736 3.736 6.23 6.23 9.966s3.736 7.474 6.23 11.212 3.736 6.23 6.23 9.966 3.736 7.474 6.23 11.212c1.246 3.736 3.736 7.474 4.982 9.966 2.49 3.736 3.736 7.474 4.982 12.456 1.246 3.736 3.736 7.474 4.982 11.212s3.736 8.72 4.982 12.456l3.736 11.212c1.246 3.736 2.49 8.72 4.982 12.456l3.736 11.212 3.736 13.702 3.736 11.212 3.736 13.702c1.246 3.736 1.246 7.474 2.49 11.212 1.246 4.982 1.246 9.966 2.49 13.702s1.246 7.474 2.49 11.212c1.246 4.982 1.246 9.966 2.49 14.948 0 3.736 1.246 7.474 1.246 9.966 0 6.23 1.246 11.212 1.246 17.44 0 2.49 0 6.23 1.246 8.72 0 8.72 0 16.196 1.246 24.914v1.246c0 257.87-191.844 470.892-439.748 505.772zM805.996 512.778l-296.488-295.24c-18.686-19.932-44.846-29.898-69.762-29.898s-51.074 9.966-71.008 28.652l-158.21 159.456c-38.618 38.618-38.618 102.152 0 140.77s102.152 38.618 140.77 0l88.448-88.448 225.48 225.48c38.618 38.618 102.15 38.618 140.77 0s38.618-102.152 0-140.77z" />
<glyph unicode="&#xe905;" glyph-name="bisphon" horiz-adv-x="1100" d="M181.378 955.854c-86.024-18.24-151.112-79.806-174.742-165.208l-5.598-20.314-0.622-227.808c-0.622-248.538-0.828-242.112 11.4-278.388 27.156-81.88 100.12-141.164 186.144-151.734 11.608-1.452 63.016-2.28 135.36-2.28h116.496v4.976c0 9.744-8.29 31.508-16.168 41.664-7.878 10.572-24.252 21.972-37.726 26.326-4.768 1.658-40.006 2.902-104.68 3.73-108.826 1.452-105.094 1.036-136.81 17.206-12.438 6.426-20.936 12.852-34.202 26.118-26.534 26.74-38.97 51.616-43.738 86.646-1.244 10.572-1.866 90.586-1.45 229.674 0.828 237.138-0.206 221.176 14.924 252.89 18.656 39.384 52.444 67.784 95.56 80.22l16.582 4.768h347.206c326.27 0 348.036-0.206 360.68-3.73 43.53-11.814 78.148-40.006 97.424-79.184 16.584-33.372 15.548-16.376 15.548-266.364 0-250.61 1.036-232.37-15.962-266.986-14.51-29.642-44.152-57.212-75.66-70.478-24.044-10.158-30.678-10.778-131.42-10.778-59.076 0-98.876-0.828-106.546-2.28-24.874-4.56-25.912-5.39-139.298-118.568-58.454-58.456-106.338-106.96-106.338-108.204 0-3.938 22.388-17.206 33.372-19.692 15.754-3.732 35.862-1.658 50.578 5.182 10.778 4.976 23.424 16.582 93.486 86.438l80.842 80.428h88.096c51.408 0 95.56 1.036 106.546 2.28 50.578 6.22 96.802 28.812 132.664 65.088 28.192 28.398 47.884 62.6 58.662 102.192l5.596 20.106 0.622 227.808c0.622 245.636 0.622 242.526-10.364 276.936-13.058 41.456-42.91 83.33-78.148 110.070-19.070 14.304-55.346 31.922-80.014 38.762l-20.73 5.598-354.462 0.416c-341.194 0.414-355.084 0.206-373.118-3.524zM224.7 758.102c-0.622-1.45-0.83-57.626-0.414-124.788 0.83-119.19 1.036-122.508 5.39-137.224 19.692-65.088 71.514-106.338 137.432-109.654 28.19-1.452 47.882 2.486 74.416 15.34 16.79 8.084 22.18 12.23 38.348 28.398 13.266 13.266 20.936 23.216 26.326 33.372 28.192 54.516 23.010 115.666-13.888 164.378-18.862 25.082-51.406 46.018-82.916 53.48-31.3 7.254-71.722 2.902-98.668-10.572l-10.156-5.182v11.194c0 35.446-15.962 63.014-44.152 75.868-15.754 7.048-30.056 9.534-31.716 5.39zM404.832 603.88c14.716-6.632 30.886-23.010 37.934-38.348 7.67-16.79 8.084-39.798 1.036-57.834-13.266-34.202-51.406-53.48-87.268-44.36-24.046 6.218-41.872 21.764-51.406 45.604-6.84 16.998-6.012 42.702 2.28 58.454 9.95 19.486 20.108 28.812 40.628 37.52 9.95 4.146 14.302 4.768 29.228 4.146 12.024-0.622 20.728-2.28 27.57-5.182zM706.228 684.1c-57.212-6.632-106.546-47.262-124.372-102.4-1.866-5.596-15.132-66.748-29.434-135.774-14.51-69.028-26.74-127.688-27.362-130.384l-1.244-4.976 18.656 1.036c22.802 1.036 37.104 7.254 50.994 22.18 13.474 14.302 16.79 22.386 24.46 57.626l6.634 31.3 9.534-7.254c46.226-35.24 114.836-39.178 166.038-9.534 7.462 4.352 21.144 15.548 30.472 24.874 13.682 13.682 18.656 20.522 26.326 36.274 16.168 32.96 20.52 59.906 14.924 92.45-6.010 34.202-19.486 59.906-44.36 83.744-24.044 23.010-52.65 36.69-86.024 41.044-16.582 2.072-15.754 2.072-35.24-0.206zM757.014 601.808c15.548-7.462 27.568-19.9 35.032-35.238 6.84-14.51 7.876-41.044 2.072-56.796-15.962-42.080-63.014-60.736-103.23-41.044-43.946 21.764-54.932 79.806-21.972 116.288 16.376 18.034 32.75 25.082 57.626 24.252 14.096-0.622 18.862-1.658 30.472-7.462z" />
<glyph unicode="&#xe906;" glyph-name="calendar" d="M904 880h-48v80h-80v-80h-528v80h-80v-80h-48c-66.168 0-120-53.832-120-120v-704c0-66.168 53.832-120 120-120h784c66.168 0 120 53.832 120 120v704c0 66.168-53.832 120-120 120zM944 56c0-22.056-17.944-40-40-40h-784c-22.056 0-40 17.944-40 40v528h864v-528zM944 664h-864v96c0 22.056 17.944 40 40 40h48v-80h80v80h528v-80h80v80h48c22.056 0 40-17.944 40-40v-96zM152 500h80v-80h-80v80zM312 500h80v-80h-80v80zM472 500h80v-80h-80v80zM632 500h80v-80h-80v80zM792 500h80v-80h-80v80zM152 340h80v-80h-80v80zM312 340h80v-80h-80v80zM472 340h80v-80h-80v80zM632 340h80v-80h-80v80zM152 180h80v-80h-80v80zM312 180h80v-80h-80v80zM472 180h80v-80h-80v80zM632 180h80v-80h-80v80zM792 340h80v-80h-80v80z" />
<glyph unicode="&#xe907;" glyph-name="Callsums" d="M145.252 781.127c0.096 0-2.304-2.496-5.328-5.472-11.616-11.28-35.664-34.752-35.904-83.856-0.384-68.688 44.784-196.224 262.272-413.661 216.48-216.384 343.827-262.080 412.659-262.080h1.005c49.107 0.237 72.531 24.333 83.859 35.904 3.456 3.552 6.24 6.144 8.205 7.776 47.808 48.096 72.288 83.904 72.051 106.848-0.339 23.424-29.472 51.117-69.747 89.421-12.813 12.192-26.733 25.44-41.421 40.128-38.067 37.969-56.928 31.489-98.4 16.896-57.363-20.109-136.083-47.469-258.387 74.881-122.496 122.4-95.088 201.024-75.024 258.384 14.496 41.472 21.12 60.384-16.992 98.496-14.928 14.88-28.32 28.992-40.656 41.952-38.064 40.032-65.52 68.976-88.8 69.312h-0.384c-22.992 0-58.704-24.576-109.248-75.12 0.144 0.144 0.192 0.192 0.24 0.192zM778.995-55.942c-119.616 0-275.567 95.232-463.583 283.149-188.736 188.689-284.112 345.121-283.392 464.977 0.432 79.2 41.952 119.76 57.552 134.976 0.816 1.008 3.6 3.744 4.56 4.704 68.832 68.88 115.248 96.72 161.424 96.192 53.616-0.72 91.776-40.848 140.064-91.68 11.952-12.576 24.912-26.256 39.36-40.656 70.080-70.080 50.112-127.248 34.080-173.136-17.472-50.064-32.592-93.264 57.936-183.792 90.624-90.528 133.823-75.408 183.699-57.792 45.933 16.032 102.957 36.096 173.133-33.984 14.208-14.208 27.699-27.021 40.128-38.881 51.072-48.525 91.392-86.88 92.064-140.64 0.576-45.837-27.264-92.544-96-161.325l-30.432 20.64 25.728-25.152c-15.213-15.603-55.725-57.171-134.976-57.6h-1.344z" />
<glyph unicode="&#xe908;" glyph-name="camerasums" d="M263.209 820.986c20.37 38.426 42.529 64.113 75.411 77.697 60.256 24.868 276.061 24.868 336.268-0.005 32.866-13.577 55.031-39.259 75.418-77.677l22.916-45.612c0.525-0.904 1.007-1.699 1.438-2.383l1.95-2.762c10.441-11.809 27.913-18.943 39.45-18.943 109.056 0 197.487-91.765 197.487-204.929v-304.815c0-144.346-112.798-261.423-251.866-261.423h-509.815c-139.104 0-251.866 117.060-251.866 261.423v304.815c0 113.164 88.431 204.929 197.489 204.929 11.493 0 28.992 7.145 39.45 18.943 0.209 0.236 0.482 0.588 0.811 1.054l2.606 4.149 22.853 45.539zM683.721 782.928c-12.668 23.872-24.115 37.135-36.945 42.435l-6.046 2.086c-52.156 15.301-233.567 14.605-274.010-2.086-12.823-5.297-24.258-18.553-36.91-42.42l-19.504-39.14-4.8-9.017c-4.007-6.918-8.016-12.758-12.593-17.934-25.666-28.957-63.636-44.458-95.423-44.458l-8.316-0.291c-63.203-4.436-113.158-59.053-113.158-125.739v-304.815c0-100.791 78.732-182.524 175.85-182.524h509.815c97.088 0 175.851 81.754 175.851 182.524v304.815c0 69.585-54.396 126.029-121.472 126.029l-8.828 0.383c-29.824 2.547-63.326 17.755-86.626 44.11-4.518 5.107-8.503 10.906-12.489 17.766-0.572 0.984-1.28 2.28-2.099 3.813l-5.884 11.453-16.414 33.010zM785.715 628.042c27.989 0 50.679-23.55 50.679-52.6 0-26.975-19.563-49.208-44.766-52.246l-5.914-0.354c-28.442 0-51.132 23.549-51.132 52.6 0 26.975 19.563 49.207 44.766 52.246l6.366 0.354zM307.646 384.585c0 114.153 89.131 206.665 199.11 206.665 109.982 0 199.113-92.512 199.113-206.665 0-114.155-89.131-206.665-199.113-206.665-109.98 0-199.11 92.51-199.11 206.665zM629.854 384.58c0 70.579-55.1 127.765-123.098 127.765s-123.094-57.186-123.094-127.765c0-70.579 55.096-127.765 123.094-127.765s123.098 57.186 123.098 127.765z" />
<glyph unicode="&#xe909;" d="M985.685 708.472l-473.959-474.002-473.959 474.002c-8.842 8.542-22.935 8.295-31.476-0.547-8.331-8.627-8.331-22.302 0-30.927l489.719-489.719c8.692-8.69 22.782-8.69 31.476 0l489.719 489.719c8.842 8.542 9.086 22.632 0.547 31.476-8.542 8.842-22.632 9.086-31.476 0.547-0.186-0.179-0.367-0.361-0.547-0.547l-0.044-0.002z" />
<glyph unicode="&#xe90a;" d="M511.727 180.733c-5.908-0.010-11.578 2.327-15.76 6.501l-489.719 489.719c-8.542 8.842-8.295 22.935 0.547 31.476 8.627 8.331 22.302 8.331 30.927 0l474.002-473.959 473.959 474.002c8.542 8.842 22.632 9.086 31.476 0.547 8.842-8.542 9.086-22.632 0.547-31.476-0.179-0.186-0.361-0.367-0.547-0.547l-489.716-489.719c-4.165-4.178-9.819-6.53-15.716-6.544z" />
<glyph unicode="&#xe90b;" glyph-name="eita" horiz-adv-x="994" d="M489.438 857.6c-98.496-21.26-213.478-104.136-287.24-206.97-109.342-153.166-142.752-347.986-80.272-472.514 37.75-75.932 107.608-128.868 201.33-153.6 45.992-12.15 136.244-11.28 181.37 1.736 101.532 29.072 185.274 98.496 292.448 242.982 84.176 113.682 88.514 119.322 119.322 150.998l29.938 30.372-1.302 34.278-1.302 33.844-23.864-18.658c-13.018-10.414-59.878-55.972-104.136-101.098-89.384-91.552-139.716-133.206-192.216-159.24-58.142-28.636-108.476-36.014-165.75-23.864-16.488 3.472-30.808 6.508-31.24 6.508-3.036 0-18.658-60.312-21.262-82.008-2.604-25.6-3.036-26.468-14.32-23.432-21.262 4.774-53.802 23.864-74.198 42.956-26.468 24.732-45.558 61.18-52.502 99.362-4.338 26.902-7.376 32.976-25.6 52.936-31.676 34.712-41.22 57.274-41.22 99.362 0 31.674 1.736 37.75 16.922 68.556 48.598 98.496 183.54 181.802 304.596 188.312 51.2 2.604 79.404-3.036 115.85-22.13 27.336-14.32 57.708-45.56 62.48-63.348 7.376-29.072-38.182-67.688-107.606-90.25-55.538-18.658-105.002-25.166-142.752-18.658-51.634 8.678-71.594 28.202-71.594 69.858v24.732l-10.846-5.642c-14.32-7.376-38.182-31.24-45.992-45.992-18.658-36.448-15.186-78.536 9.112-107.174l15.186-17.356-8.678-10.846c-32.976-42.088-41.22-102.4-19.96-149.26 11.282-24.732 47.296-66.386 57.274-66.386 2.604 0 6.074 9.112 7.376 19.958 0.868 10.846 9.112 34.278 17.79 51.634 26.902 54.236 64.652 82.442 193.954 142.752 78.968 36.88 98.496 49.464 128.868 82.442 39.052 42.956 57.274 95.892 57.274 166.182 0 22.13-2.168 50.332-4.774 62.916-25.166 121.058-149.694 194.386-282.468 165.748z" />
<glyph unicode="&#xe90c;" glyph-name="email" d="M810.665 532.251v214.414c0 47.063-38.27 85.335-85.335 85.335h-640c-47.063 0-85.333-38.27-85.333-85.335v-426.665c0-47.063 38.27-85.335 85.335-85.335h478.43c27.952-98.345 118.382-170.665 225.57-170.665 41.25 0 81.813 10.855 117.353 31.417 10.187 5.895 13.687 18.937 7.769 29.145-5.895 10.208-18.958 13.73-29.145 7.769-29.042-16.791-62.231-25.666-95.979-25.666-105.877 0-192 86.126-192 192s86.126 192 192 192 192-86.126 192-192v-21.335c0-23.52-19.145-42.665-42.665-42.665s-42.665 19.145-42.665 42.665v85.335c0 11.792-9.543 21.335-21.335 21.335-5.737 0-10.894-2.322-14.725-6-18.857 16.802-43.429 27.335-70.61 27.335-58.811 0-106.665-47.854-106.665-106.665s47.854-106.667 106.667-106.667c31.792 0 60.059 14.263 79.621 36.405 15.454-21.954 40.88-36.405 69.714-36.405 47.063 0 85.333 38.27 85.333 85.335v21.335c0 122.194-93.913 222.757-213.335 233.584zM85.335 789.335h640c0.889 0 1.632-0.455 2.507-0.507l-304.967-250.327c-10.855-6.834-26.583-5.415-33.646-1.083l-306.377 251.415c0.866 0.053 1.602 0.503 2.482 0.503zM768 532.251c-119.422-10.827-213.335-111.39-213.335-233.586 0-7.2 0.441-14.297 1.081-21.335h-470.411c-23.52 0-42.665 19.145-42.665 42.665v426.667c0 6.041 1.335 11.749 3.609 16.96l317.767-260.585c12.416-8.105 26.688-12.377 41.291-12.377 14.041 0 27.769 3.959 39.854 11.458 1.209 0.647 2.354 1.417 3.438 2.313l315.76 259.195c2.279-5.216 3.614-10.921 3.614-16.967v-214.411zM789.335 234.665c-35.291 0-64 28.709-64 64s28.709 64 64 64 64-28.709 64-64c0-35.291-28.709-64-64-64z" />
<glyph unicode="&#xe90d;" glyph-name="envelope" d="M938.666 832h-853.332c-47.064 0-85.334-38.27-85.334-85.334v-597.334c0-47.062 38.27-85.332 85.334-85.332h853.334c47.062 0 85.332 38.27 85.332 85.334v597.332c0 47.064-38.27 85.334-85.334 85.334zM85.334 789.334h853.334c3.144 0 5.914-1.146 8.864-1.794-73.878-67.614-318.846-291.718-404.572-368.956-6.708-6.042-17.52-13.25-30.958-13.25s-24.25 7.208-30.98 13.27c-85.718 77.226-330.7 301.342-404.566 368.932 2.956 0.648 5.732 1.798 8.878 1.798zM42.666 149.334v597.332c0 4.18 1.26 7.972 2.388 11.792 56.544-51.752 227.472-208.12 338.304-308.906-110.472-94.894-281.444-256.99-338.438-311.338-1.006 3.628-2.254 7.176-2.254 11.12zM938.666 106.666h-853.332c-3.408 0-6.438 1.188-9.62 1.948 58.894 56.144 230.954 219.172 339.484 312.018 14.148-12.834 27.072-24.536 37.26-33.716 17.584-15.876 38.166-24.25 59.542-24.25s41.958 8.376 59.52 24.23c10.192 9.184 23.126 20.896 37.282 33.736 108.536-92.836 280.572-255.852 339.484-312.018-3.182-0.76-6.208-1.948-9.62-1.948zM981.334 149.334c0-3.942-1.248-7.492-2.252-11.12-57.016 54.376-227.968 216.454-338.438 311.336 110.836 100.786 281.738 257.14 338.302 308.912 1.128-3.82 2.388-7.614 2.388-11.794v-597.334z" />
<glyph unicode="&#xe90e;" glyph-name="envelope-2" d="M98.284 602.281c12.953-9.141 52-36.289 117.142-81.429 65.144-45.141 115.048-79.898 149.715-104.274 3.809-2.672 11.901-8.48 24.28-17.433 12.381-8.959 22.669-16.198 30.855-21.72 8.192-5.52 18.095-11.713 29.72-18.568 11.62-6.849 22.574-12.001 32.86-15.411 10.288-3.439 19.81-5.142 28.571-5.142h1.151c8.76 0 18.287 1.705 28.575 5.142 10.282 3.41 21.246 8.568 32.856 15.411 11.616 6.863 21.52 13.050 29.712 18.568 8.192 5.522 18.471 12.761 30.857 21.72 12.377 8.961 20.479 14.761 24.288 17.433 35.042 24.376 124.193 86.283 267.425 185.716 27.808 19.42 51.041 42.853 69.705 70.283 18.678 27.418 28.006 56.181 28.006 86.273 0 25.146-9.053 46.672-27.15 64.575-18.095 17.907-39.527 26.856-64.281 26.856h-841.144c-29.331 0-51.904-9.903-67.713-29.71-15.808-19.81-23.711-44.573-23.711-74.284 0-24 10.48-50.007 31.429-78.005 20.947-28 43.24-50.003 66.855-66zM966.85 541.144c-124.939-84.564-219.809-150.284-284.562-197.146-21.714-15.994-39.329-28.479-52.857-37.425-13.528-8.953-31.519-18.095-53.999-27.424-22.472-9.343-43.416-14-62.848-14h-1.157c-19.428 0-40.383 4.657-62.856 14-22.472 9.329-40.476 18.471-53.999 27.424-13.52 8.947-31.141 21.432-52.853 37.425-51.432 37.712-146.097 103.436-283.999 197.146-21.72 14.467-40.958 31.049-57.72 49.712v-453.701c0-25.158 8.949-46.672 26.856-64.577 17.903-17.911 39.431-26.864 64.575-26.864h841.146c25.138 0 46.664 8.953 64.569 26.864 17.911 17.911 26.856 39.417 26.856 64.577v453.701c-16.384-18.277-35.426-34.859-57.152-49.712z" />
<glyph unicode="&#xe90f;" glyph-name="facebook" d="M682.539 789.973h93.483v162.816c-16.128 2.219-71.595 7.211-136.192 7.211-134.784 0-227.115-84.779-227.115-240.597v-143.403h-148.736v-182.016h148.736v-457.984h182.357v457.941h142.72l22.656 182.016h-165.419v125.397c0.043 52.608 14.208 88.619 87.509 88.619z" />
<glyph unicode="&#xe910;" glyph-name="fax" d="M0 688v-600c0-16.582 13.418-30 30-30h60v660h-60c-16.582 0-30-13.418-30-30zM334 778h-124c-33.076 0-60-26.924-60-60v-660c0-33.076 26.924-60 60-60h124c33.076 0 60 26.924 60 60v660c0 33.076-26.924 60-60 60zM904 868c0 16.572-13.432 30-30 30h-240c-16.568 0-30-13.428-30-30v-270h300zM994 718h-30v-150c0-16.582-13.418-30-30-30h-360c-16.582 0-30 13.418-30 30v150h-90v-660h540c16.582 0 30 13.418 30 30v600c0 16.582-13.418 30-30 30zM634 148c-16.568 0-30 13.432-30 30s13.432 30 30 30 30-13.432 30-30-13.432-30-30-30zM634 268c-16.568 0-30 13.432-30 30s13.432 30 30 30 30-13.432 30-30-13.432-30-30-30zM634 388c-16.568 0-30 13.432-30 30s13.432 30 30 30 30-13.432 30-30-13.432-30-30-30zM754 148c-16.568 0-30 13.432-30 30s13.432 30 30 30 30-13.432 30-30-13.432-30-30-30zM754 268c-16.568 0-30 13.432-30 30s13.432 30 30 30 30-13.432 30-30-13.432-30-30-30zM754 388c-16.568 0-30 13.432-30 30s13.432 30 30 30 30-13.432 30-30-13.432-30-30-30zM874 148c-16.568 0-30 13.432-30 30s13.432 30 30 30 30-13.432 30-30-13.432-30-30-30zM874 268c-16.568 0-30 13.432-30 30s13.432 30 30 30 30-13.432 30-30-13.432-30-30-30zM874 388c-16.568 0-30 13.432-30 30s13.432 30 30 30 30-13.432 30-30-13.432-30-30-30z" />
<glyph unicode="&#xe911;" glyph-name="gap" d="M1024-14.727v-7.856c-8.635-5.179-18.631-9.351-29.234-11.982l-0.757-0.16c-10.706-1.141-23.129-1.79-35.703-1.79s-24.997 0.649-37.237 1.918l1.531-0.128c-33.856 2.368-65.193 10.809-93.717 24.242l1.6-0.677c-12.247 9.056-27.646 14.496-44.315 14.496-8.414 0-16.503-1.385-24.053-3.941l0.528 0.155c-11.424-5.712-23.566-9.998-34.277-15.71-39.961-19.984-86.334-34.965-135.161-42.507l-2.656-0.338c-13.664-0.491-26.633-2.546-39.022-5.993l1.175 0.279h-80.693s-4.286 0-6.427 0c-26.834 2.231-51.216 6.023-75.001 11.392l3.591-0.681c-70.866 17.024-133.033 46.658-187.047 86.67l1.385-0.981c-109.429 79.913-184.587 201.125-202.537 340.263l-0.263 2.501c-0.823 12.816-2.857 24.761-6.007 36.249l0.295-1.257v82.834c0.656 3.328 1.031 7.154 1.031 11.067s-0.375 7.739-1.090 11.445l0.062-0.377c12.437 90.231 47.285 170.585 98.704 237.547l-0.873-1.184c51.381 70.037 118.711 125.458 196.814 161.515l3.129 1.296c39.061 18.293 84.416 32.475 131.915 40.288l3.047 0.414c13.408 0.489 26.13 2.544 38.265 5.989l-1.134-0.274h82.121s4.286 0 7.141 0c41.705-4.267 79.936-13.342 116.055-26.759l-3.23 1.051c59.36-20.862 110.734-49.675 156.021-85.797l-1.063 0.818c59.509-45.264 107.646-102.304 141.52-167.904l1.296-2.761c24.786-45.909 42.416-99.447 49.742-156.215l0.245-2.313c0.951-14.487 2.983-27.918 6.046-40.953l-0.331 1.678v-74.978s0-4.286 0-6.427c-3.282-32.809-9.074-62.654-17.312-91.465l0.889 3.632c-14.496-42.766-28.741-77.465-44.777-111.147l2.647 6.176c-9.2-20.782-15.977-44.894-19.15-70.128l-0.13-1.28c-0.715-5.193-1.125-11.193-1.125-17.289 0-38.891 16.626-73.902 43.159-98.306l0.096-0.087c12.734-10.302 23.975-21.543 33.945-33.854l0.331-0.423zM69.266 446.571c-0.078-2.891-0.121-6.295-0.121-9.707 0-33.323 4.213-65.664 12.13-96.519l-0.585 2.683c20.825-76.016 57.625-141.728 106.766-196.071l-0.368 0.411c29.077-32.096 62.192-59.758 98.731-82.421l1.954-1.129c36.35-22.45 78.64-39.746 123.737-49.504l2.656-0.482c26.523-5.6 56.999-8.807 88.222-8.807 16.21 0 32.222 0.864 47.984 2.549l-1.959-0.169c55.221 4.386 106.169 18.409 152.603 40.402l-2.647-1.127c14.997 6.427 29.991 14.281 45.703 19.993 12.361 5.351 26.757 8.464 41.879 8.464 17.527 0 34.080-4.183 48.711-11.605l-0.615 0.283c12.391-6.777 26.825-12.846 41.911-17.422l1.648-0.43s7.856-4.286 11.424 0 0 7.141 0 10.711c-9.906 23.79-15.659 51.424-15.659 80.402 0 32.761 7.353 63.801 20.498 91.566l-0.553-1.303c8.569 17.851 17.138 34.99 24.279 52.841 24.014 50.907 38.032 110.578 38.032 173.525 0 19.641-1.365 38.965-4.005 57.879l0.249-2.183c-8.201 47.131-22.615 89.317-42.583 128.181l1.168-2.501c-21.115 43.44-46.626 80.818-76.752 113.922l0.345-0.384c-24.827 27.017-52.722 50.599-83.301 70.393l-1.675 1.015c-65.12 44.407-145.451 71.040-231.984 71.408h-0.094c-12.139 0-24.279 0-35.705 0-23.643-0.238-46.546-2.825-68.661-7.543l2.249 0.402c-104.432-22.969-192.32-81.989-251.966-163.070l-0.821-1.17c-57.886-72.414-92.889-165.319-92.889-266.4 0-2.496 0.021-4.983 0.064-7.47l-0.005 0.375zM511.287 501.557h169.952c28.983-0.763 52.187-24.441 52.187-53.538 0-24.256-16.126-44.747-38.242-51.335l-0.379-0.096c-2.786-0.336-6.011-0.526-9.282-0.526s-6.496 0.192-9.669 0.562l0.384-0.037h-328.48c-1.767-0.194-3.815-0.304-5.89-0.304-19.376 0-36.501 9.648-46.83 24.4l-0.121 0.185c-3.899 7.243-6.19 15.851-6.19 24.994 0 29.495 23.842 53.422 53.305 53.557h0.014zM397.031 230.203c-19.993 0-40.704 0-60.697 0-27.157 2.841-48.142 25.611-48.142 53.282 0 9.538 2.494 18.494 6.864 26.249l-0.139-0.267c7.945 16.629 24.631 27.913 43.95 27.913 0.866 0 1.728-0.023 2.585-0.069l-0.121 0.005h117.111c0.007 0 0.014 0 0.021 0 28.288 0 51.312-22.533 52.107-50.626l0.002-0.073c0.064-0.967 0.098-2.098 0.098-3.237 0-26.953-20.181-49.193-46.256-52.437l-0.258-0.025h-67.125zM619.826 559.397h-55.698c-0.651-0.032-1.417-0.048-2.183-0.048-20.537 0-38.139 12.565-45.541 30.427l-0.121 0.327c-3.243 6.802-5.138 14.784-5.138 23.207 0 13.173 4.631 25.264 12.357 34.734l-0.080-0.098c9.632 11.833 24.201 19.333 40.519 19.333 0.818 0 1.632-0.018 2.441-0.057l-0.114 0.005h111.397c0.827 0.046 1.794 0.073 2.768 0.073 21.73 0 40.398-13.118 48.514-31.863l0.133-0.343c3.435-6.491 5.454-14.19 5.454-22.359 0-12.578-4.784-24.041-12.631-32.665l0.034 0.039c-9.088-12.471-23.577-20.53-39.961-20.709h-0.027z" />
<glyph unicode="&#xe912;" glyph-name="ico-1" horiz-adv-x="1144" d="M66.323 952.665c-32.277-11.054-56.817-38.468-63.892-71.85-1.769-8.401-2.432-92.853-2.432-291.824 0-245.397 0.442-281.875 3.316-293.37 9.285-35.151 39.573-63.892 75.83-71.63 7.738-1.548 53.501-2.431 137.51-2.431h126.014v-63.892l-125.129-1.327-14.591-7.294c-16.14-7.959-27.415-19.235-35.373-35.595-4.422-9.063-5.085-14.147-5.748-45.763-0.663-35.151-0.663-35.814 4.643-42.004l5.527-6.411 523.293-2.211 1.104-26.088c1.106-25.423 1.327-26.53 7.297-31.613 13.264-11.497 32.72-3.98 36.035 13.706 2.211 12.38-0.663 68.536-4.642 84.452-4.863 20.339-16.36 41.562-44.217 81.358-40.014 57.26-53.501 82.904-63.669 121.372-4.202 16.581-4.644 24.317-5.307 128.887-0.442 61.018-0.442 110.982 0.442 110.982 0.663 0 5.969-2.211 11.718-4.863 14.149-6.632 30.509-23.436 37.583-38.91 5.748-12.159 5.969-13.928 7.076-64.554 0.663-28.519 2.211-53.724 3.094-55.934 2.431-5.305 12.822-10.391 21.223-10.391 4.644 0 9.065 1.99 13.487 6.411l6.411 6.413v171.777c0 185.705-0.221 182.168 11.939 190.127 12.822 8.401 29.403 6.19 40.014-5.526 4.2-4.644 4.421-8.845 5.528-138.617l1.104-133.752 7.517-6.632c6.411-5.748 8.622-6.632 16.581-5.528 11.939 1.769 17.908 8.845 19.898 23.656 1.769 13.928 9.949 23.213 21.885 25.423 10.613 1.99 17.245 0.221 25.646-6.853 8.18-6.853 11.274-17.022 11.274-36.699 0-18.571 5.086-25.644 19.235-27.634 8.18-1.106 10.17-0.442 15.916 5.305 3.98 4.2 7.076 9.949 7.959 15.256 1.769 12.38 5.748 18.791 14.149 24.54 14.37 9.726 32.278 4.421 40.016-11.276 3.757-7.959 4.421-13.706 4.421-39.793v-30.509l6.411-6.411c14.37-14.149 37.804-2.873 37.804 18.35 0 12.601 15.256 26.086 29.182 26.086 8.18 0 19.898-7.515 24.319-15.695 3.538-6.632 3.98-13.043 3.98-56.153-0.221-78.705-1.327-83.348-48.636-180.18-39.354-80.914-40.458-84.231-39.354-137.067l0.665-35.816 6.19-5.305c6.632-5.748 18.35-7.076 26.086-3.096 8.845 4.863 10.834 13.487 10.834 46.869 0 21.444 1.104 36.035 3.315 44.879 1.99 7.294 17.245 40.9 34.268 75.166 47.973 96.832 51.511 111.202 50.405 199.855l-0.663 56.597-7.517 13.926c-14.147 26.088-36.035 39.131-65.438 39.131-9.728-0.221-19.898-1.325-22.55-2.873l-5.086-2.873v220.636c0 240.312 0.221 236.332-12.601 259.767-6.632 12.159-22.108 28.74-34.268 36.257-4.421 2.874-14.147 7.075-21.444 9.727-13.043 4.2-18.129 4.422-185.926 4.422h-172.662l-5.307-5.306c-10.391-10.391-9.505-24.761 1.99-33.162 5.969-4.643 8.624-4.643 177.748-5.748 190.348-1.327 177.305-0.221 191.896-15.918 16.36-17.244 15.254 0 15.918-221.299l0.663-198.75-7.297 1.99c-9.284 2.211-34.045 2.211-43.11 0l-7.074-1.769-0.663 184.159c-0.665 199.412-0.221 190.127-12.601 196.759-4.202 2.432-79.368 2.874-403.026 2.874h-397.941l-6.411-7.295-6.411-7.074v-256.672c0-171.777 0.663-257.998 2.211-260.873 6.19-11.274-1.99-10.832 244.291-10.832h228.816v-11.495c0-6.413 0.663-18.35 1.548-26.75l1.327-14.814-248.493 0.444c-229.7 0.663-248.934 0.883-255.346 4.421-11.496 6.411-20.781 15.033-25.866 24.761l-4.864 9.063-0.663 281.654c-0.663 313.489-1.548 294.476 14.37 310.836 17.023 17.465 5.748 16.581 192.559 16.581 183.274 0 177.969-0.442 185.043 13.486 3.096 5.969 3.317 8.622 1.327 15.476-4.865 16.139 6.411 15.254-185.264 15.254-171.999-0.221-171.999-0.221-186.37-5.085zM883.871 658.41l0.442-158.734-8.18 1.769c-10.611 2.431-34.93 2.431-44.215 0.221l-7.074-1.769-1.327 198.086-5.969 11.055c-7.738 15.033-20.339 26.971-34.93 34.045-16.139 7.738-44.438 8.18-59.912 1.106-12.159-5.748-25.202-16.802-31.836-27.636-11.274-17.906-12.157-25.202-12.157-114.296v-82.683l-4.865 3.536c-7.738 5.307-25.865 14.591-35.814 18.35-14.591 5.086-38.91 7.076-46.869 3.98-14.37-5.969-14.149-4.2-14.149-97.716v-84.673h-431.102v455.42l737.296-1.105 0.663-158.955zM590.28 218.686c0-4.865 17.464-39.575 25.644-50.628l7.517-10.611h-236.554v64.112h101.695c82.020 0 101.697-0.663 101.697-2.873zM666.773 97.091c6.19-8.843 13.485-20.117 16.139-25.202l4.642-9.505h-481.951v14.591c0 17.906 4.421 26.53 16.581 32.055 8.401 3.98 19.454 4.2 221.078 3.98h212.235l11.276-15.918zM228.374 732.25c-7.076-2.875-12.38-14.37-10.832-23.213 0.883-3.759 3.978-9.507 7.074-12.38 5.307-4.865 7.738-5.307 33.382-5.969 15.256-0.444 31.172-0.221 35.593 0.663 17.687 3.317 24.319 23.877 11.718 36.699l-6.411 6.411-32.941-0.221c-17.908 0-34.93-0.885-37.583-1.99zM376.276 728.933c-7.959-6.632-9.949-15.254-5.969-24.761 5.969-14.149 4.863-13.928 126.014-13.928 117.172 0 119.161 0.223 124.91 10.834 4.421 8.622 2.652 20.117-4.2 26.971l-6.413 6.411h-227.709l-6.632-5.528zM232.133 611.32c-11.497-4.2-17.908-18.35-13.266-29.624 4.644-11.276 11.497-13.045 47.532-13.045h32.499l6.411 6.413c4.644 4.863 6.411 8.622 6.411 14.591 0 19.454-7.957 23.213-46.867 22.992-16.139 0-30.951-0.665-32.72-1.327zM380.918 610.657c-7.076-2.875-12.601-12.601-12.38-21.667 0.221-5.969 1.99-9.505 7.074-14.149l6.855-6.19h129.994l6.853 5.748c5.748 4.865 6.853 7.297 6.853 15.256 0 7.074-1.546 11.495-5.305 15.916l-5.307 6.19-64.996 0.444c-35.595 0.221-66.988-0.444-69.64-1.548zM223.953 483.758c-5.086-4.421-6.19-7.074-6.19-15.695 0-19.456 12.822-24.54 56.816-22.771 24.319 1.104 24.54 1.104 30.951 7.957 8.18 9.286 8.401 19.677 0.442 28.961l-5.746 6.855h-34.93c-34.047 0-35.372-0.221-41.341-5.307zM376.055 485.306c-10.17-8.622-9.507-28.299 1.325-35.372 5.307-3.538 12.601-3.98 70.303-3.98s64.998 0.442 70.305 3.98c10.832 7.074 11.495 26.75 1.325 35.372-4.2 3.317-11.053 3.759-71.63 3.759-60.575 0-67.427-0.442-71.628-3.759zM501.627 951.339c-16.804-17.023 1.104-43.995 22.992-34.709 4.421 1.769 9.063 5.306 10.391 7.959 12.159 22.55-15.476 44.437-33.382 26.751z" />
<glyph unicode="&#xe913;" glyph-name="handshake" d="M512.201 267.12c-12.21 9.248-27.207 12.304-41.193 9.696-2.199 13.255-9.255 24.974-20.007 33.118-11.143 8.439-24.898 12.030-38.745 10.121-3.431-0.473-6.761-1.273-9.966-2.375-3.035 10.409-9.31 19.97-18.601 27.006-15.303 11.591-34.974 13.445-51.559 6.624-3.303 9.938-9.504 18.649-18.032 25.111-11.141 8.439-24.903 12.027-38.743 10.121-11.225-1.55-21.415-6.569-29.367-14.352l-54.903 3.65 33.653 273.365 60.299-4.098c0.343-0.023 0.681-0.034 1.019-0.034 5.595 0 10.766 3.129 13.344 8.16l22.599 44.094c5.726 11.161 18.651 16.837 30.738 13.49l33.559-9.28c7.977-2.201 16.247 2.475 18.457 10.459s-2.475 16.247-10.459 18.455l-33.554 9.278c-25.719 7.12-53.239-4.951-65.431-28.713l-18.094-35.305-48.805 3.317 1.157 9.392c3.696 30.018-17.719 57.445-47.737 61.141l-115.575 14.219c-8.235 1.008-15.707-4.834-16.72-13.054s4.834-15.707 13.054-16.72l115.577-14.229c6.587-0.809 12.466-4.137 16.551-9.369s5.888-11.742 5.077-18.329l-39.689-322.4c-1.673-13.598-14.103-23.291-27.701-21.627l-115.577 14.229c-8.231 1.003-15.707-4.832-16.72-13.054s4.834-15.707 13.054-16.72l115.575-14.229c2.265-0.279 4.514-0.414 6.741-0.414 20.261 0 38.537 11.255 48.009 28.414l41.074-2.729c-4.91-9.504-6.793-20.263-5.301-31.077 1.913-13.842 9.099-26.114 20.24-34.551 9.186-6.958 20.151-10.619 31.479-10.619 2.409 0 4.837 0.167 7.266 0.501 0.155 0.023 0.309 0.053 0.462 0.075 0.021-0.155 0.032-0.311 0.053-0.466 1.911-13.842 9.099-26.114 20.24-34.551 9.431-7.141 20.519-10.59 31.525-10.59 2.581 0 5.154 0.21 7.703 0.585 1.728-13.456 8.631-26.238 20.274-35.056 9.431-7.143 20.519-10.59 31.525-10.59 2.571 0 5.138 0.208 7.678 0.583 0.023-0.167 0.034-0.334 0.057-0.501 1.911-13.842 9.099-26.114 20.242-34.551 9.186-6.955 20.151-10.619 31.477-10.619 2.411 0 4.839 0.167 7.266 0.501 13.845 1.913 26.114 9.099 34.551 20.24l31.029 40.969c17.419 22.997 12.88 55.877-10.119 73.291zM274.144 297.511c-5.902-0.816-11.774 0.718-16.526 4.318s-7.817 8.834-8.633 14.738c-0.816 5.906 0.718 11.774 4.318 16.528l11.426 15.088c3.598 4.752 8.834 7.817 14.738 8.633 5.906 0.809 11.774-0.718 16.528-4.318s7.817-8.834 8.633-14.738-0.718-11.771-4.315-16.526l-11.429-15.088c-3.6-4.752-8.834-7.819-14.741-8.635zM317.118 256.768c-4.752 3.598-7.817 8.834-8.633 14.738s0.718 11.774 4.318 16.528l11.426 15.086c0 0 0.002 0.002 0.002 0.005l10.089 13.323c4.384 5.787 11.063 8.834 17.817 8.834 4.695 0 9.424-1.472 13.447-4.519 9.81-7.431 11.749-21.454 4.318-31.266l-21.518-28.414c-7.431-9.81-21.456-11.746-31.266-4.315zM376.617 211.71c-4.752 3.598-7.817 8.834-8.633 14.741-0.816 5.902 0.715 11.769 4.313 16.519 0.002 0.002 0.002 0.005 0.005 0.007l21.518 28.416c0 0 0 0 0 0l7.808 10.311c3.598 4.752 8.834 7.817 14.741 8.633 5.909 0.811 11.774-0.718 16.528-4.318 9.806-7.426 11.744-21.445 4.325-31.255l-29.335-38.734c-0.002-0.002-0.005-0.005-0.005-0.007-7.433-9.806-21.449-11.744-31.262-4.313zM498.409 211.936l-31.029-40.969c-3.598-4.752-8.834-7.817-14.738-8.633-5.911-0.814-11.776 0.718-16.528 4.315s-7.817 8.834-8.633 14.738c-0.816 5.906 0.718 11.774 4.318 16.528l29.328 38.725c0.007 0.007 0.009 0.014 0.016 0.021l1.687 2.226c3.598 4.752 8.834 7.817 14.741 8.633 5.906 0.809 11.774-0.718 16.528-4.318 9.803-7.426 11.742-21.454 4.313-31.264zM1023.886 349.218c-1.013 8.219-8.489 14.057-16.72 13.054l-115.575-14.229c-13.618-1.673-26.025 8.030-27.701 21.627l-1.458 11.849-38.229 310.549c-0.811 6.587 0.992 13.097 5.077 18.329s9.961 8.56 16.551 9.369l115.577 14.229c8.222 1.013 14.066 8.498 13.054 16.72s-8.489 14.057-16.72 13.054l-115.577-14.229c-28.247-3.479-48.866-27.968-48.123-55.858l-29.145-3.589-90.251 50.791c-12.779 7.2-27.269 10.293-41.897 8.949-0.030-0.002-0.059-0.009-0.089-0.011l-27.166-2.512c-8.249-0.761-14.318-8.069-13.554-16.318s8.055-14.306 16.318-13.554l27.241 2.521c8.523 0.789 16.971-1.015 24.427-5.211l93.575-52.661c2.928-1.931 6.491-2.816 10.096-2.375l33.851 4.167 33.417-271.433-53.993-0.043c-3.6-0.002-7.077-1.301-9.794-3.65l-4.178-3.253-135.554 116.832c30.978 8.905 60.507 30.448 88.119 64.354 5.23 6.423 4.263 15.872-2.16 21.104s-15.874 4.263-21.104-2.16c-30.859-37.899-63.307-57.408-96.443-57.979-48.274-0.907-83.744 39.12-84.071 39.495-2.951 3.413-7.273 5.301-11.783 5.191-4.507-0.128-8.718-2.281-11.465-5.854l-40.295-52.439c-21.23-27.632-57.397-37.929-89.998-25.611l-4.302 1.625c-3.778 1.429-5.319 4.379-5.897 6.014s-1.253 4.896 0.777 8.389l105.168 181.013c6.802 11.707 18.914 19.442 32.398 20.69l62.265 5.758c8.249 0.763 14.318 8.071 13.554 16.318s-8.071 14.313-16.318 13.554l-62.265-5.758c-23.129-2.139-43.906-15.408-55.577-35.493l-105.168-181.013c-5.92-10.192-7.051-22.407-3.102-33.513s12.539-19.863 23.563-24.025l4.302-1.625c12.688-4.791 25.762-7.106 38.663-7.106 32.905 0.002 64.647 15.070 85.726 42.505l30.062 39.125c16.11-13.883 46.165-34.448 84.528-36.974l195.888-168.832c3.522-3.033 5.653-7.257 5.995-11.895s-1.136-9.129-4.167-12.649l-7.634-8.855c-9.591-11.109-26.448-12.343-37.577-2.757-0.622 0.535-1.285 0.997-1.961 1.413l-50.853 43.847c-6.27 5.408-15.744 4.709-21.157-1.566s-4.709-15.746 1.566-21.157l41.323-35.632-18.85-21.877c-5.792-6.718-14.507-10.112-23.305-9.079-5.266 0.619-10.197 2.798-14.256 6.299-0.071 0.062-0.151 0.114-0.222 0.174l-47.25 40.741c-6.274 5.408-15.744 4.709-21.157-1.566s-4.709-15.746 1.566-21.157l36.107-31.134-18.962-22.023c-5.794-6.72-14.53-10.114-23.33-9.079-8.231 0.971-15.682-4.919-16.649-13.145s4.919-15.682 13.145-16.649c2.222-0.261 4.439-0.391 6.647-0.391 16.379 0 32.057 7.095 42.914 19.68l20.272 23.543c5.538-2.64 11.493-4.366 17.669-5.093 18.72-2.201 37.225 5.010 49.534 19.287l20.306 23.566c22.457-10.651 50.192-5.543 67.193 14.153l7.643 8.866c8.263 9.593 12.297 21.831 11.36 34.457s-6.741 24.135-16.327 32.393l-12.313 10.61 45.001 0.039c4.919-25.92 27.728-44.599 53.831-44.599 2.224 0 4.478 0.137 6.741 0.414l115.577 14.229c8.222 1.015 14.069 8.498 13.056 16.722zM928.002 457.504c-24.261 0-43.998-19.737-43.998-43.995s19.737-43.998 43.998-43.998 43.995 19.737 43.995 43.998-19.737 43.995-43.995 43.995zM928.002 399.511c-7.719 0-13.998 6.281-13.998 13.998s6.281 13.995 13.998 13.995 13.995-6.279 13.995-13.995-6.279-13.998-13.995-13.998zM138.377 413.509c0 24.261-19.737 43.995-43.995 43.995s-43.995-19.737-43.995-43.995 19.735-43.998 43.995-43.998 43.995 19.737 43.995 43.998zM80.386 413.509c0 7.719 6.279 13.995 13.995 13.995s13.995-6.279 13.995-13.995-6.279-13.998-13.995-13.998-13.995 6.281-13.995 13.998z" />
<glyph unicode="&#xe914;" glyph-name="instagram" d="M512.171 710.912c-145.195 0-262.741-117.675-262.741-262.741 0-145.195 117.675-262.741 262.741-262.741 145.195 0 262.741 117.675 262.741 262.741 0 145.195-117.675 262.741-262.741 262.741zM512.171 277.632c-94.251 0-170.539 76.331-170.539 170.539s76.331 170.539 170.539 170.539 170.539-76.331 170.539-170.539c0.043-94.208-76.288-170.539-170.539-170.539zM723.115 956.757c-94.208 4.395-327.552 4.181-421.845 0-82.859-3.883-155.947-23.893-214.869-82.816-98.475-98.475-85.888-231.168-85.888-425.771 0-199.168-11.093-328.789 85.888-425.771 98.859-98.816 233.472-85.888 425.771-85.888 197.291 0 265.387-0.128 335.147 26.88 94.848 36.821 166.443 121.6 173.44 273.877 4.437 94.251 4.181 327.552 0 421.845-8.448 179.755-104.917 288.768-297.643 297.643zM872.235 87.552c-64.555-64.555-154.112-58.795-361.301-58.795-213.333 0-298.88-3.157-361.301 59.435-71.893 71.552-58.88 186.453-58.88 360.661 0 235.733-24.192 405.504 212.395 417.621 54.357 1.92 70.357 2.56 207.189 2.56l1.92-1.28c227.371 0 405.76 23.808 416.469-212.736 2.432-53.973 2.987-70.187 2.987-206.805-0.043-210.859 3.968-296.917-59.477-360.661zM846.72 721.28c0-33.909-27.489-61.397-61.397-61.397s-61.397 27.489-61.397 61.397c0 33.909 27.489 61.397 61.397 61.397s61.397-27.489 61.397-61.397z" />
<glyph unicode="&#xe915;" glyph-name="instagram-2" d="M243 957c-114-16-205.8-98-233.8-209-2.8-10.4-5.8-27-7-37-3-24.8-3-501.2 0-526 13.8-116.6 96.8-211.4 209.8-239.8 10.4-2.8 27.2-5.8 37-7 24.8-3 501.2-3 526 0 105 12.4 192.8 81 231 180.2 6.2 16.2 13.4 46.6 15.8 66.6 3 24.8 3 501.2 0 526-12.4 105-81 192.8-180.2 231-16.2 6.2-46.6 13.4-66.6 15.8-27.4 3.4-508.2 2.6-532-0.8zM835.2 826.6c25.8-8.6 46.6-29.4 55.4-55.4 4.2-12.4 4.4-36.8 0.4-50-16.4-54.2-81-77.4-128-46-27.6 18.2-42.2 50.8-37.2 82.6 5.2 32 27 58.2 56.8 68.4 13.6 4.6 39.4 5 52.6 0.4zM556 725c59.4-9.8 111.8-36.6 154-79 53.8-53.6 82-121.8 82-198s-28.2-144.4-82-198c-53.6-53.8-121.8-82-198-82s-144.4 28.2-198 82c-53.8 53.6-82 121.8-82 198s28.2 144.4 82 198c41.4 41.6 94 68.8 152 79 20.6 3.4 69.2 3.6 90 0zM797.8 767c-11.6-6.2-16-23.2-9-34 13.6-20.8 45.2-11.6 45.2 13 0 18-20.4 29.6-36.2 21zM473.2 664.8c-104.2-18.8-181.2-110.8-181.2-216.8 0-135.8 123.8-240.2 257.2-217 146.6 25.6 226.2 185.8 158.2 318-44 85-140.4 132.8-234.2 115.8z" />
<glyph unicode="&#xe916;" glyph-name="left-arrow" d="M331.295 447.762l444.985 444.985c15.384 15.386 15.384 40.33 0 55.716-15.388 15.381-40.33 15.381-55.716 0l-472.843-472.843c-15.381-15.386-15.381-40.33 0-55.716l472.843-472.843c15.654-15.118 40.598-14.684 55.716 0.97 14.746 15.27 14.746 39.478 0 54.746l-444.985 444.985z" />
<glyph unicode="&#xe917;" glyph-name="left-arrow-2" d="M334.018 797.137c14.436 14.436 37.164 14.436 51.6 0 13.949-13.949 13.949-37.164 0-51.080l-261.641-261.641h863.38c20.126 0 36.643-15.997 36.643-36.123s-16.517-36.643-36.643-36.643h-863.38l261.641-261.153c13.949-14.436 13.949-37.684 0-51.6-14.436-14.436-37.164-14.436-51.6 0l-323.581 323.581c-13.949 13.949-13.949 37.164 0 51.080l323.581 323.581z" />
<glyph unicode="&#xe918;" glyph-name="linkedin" d="M1023.744-64v0.043h0.256v375.552c0 183.723-39.552 325.248-254.336 325.248-103.253 0-172.544-56.661-200.832-110.379h-2.987v93.227h-203.648v-683.648h212.053v338.517c0 89.131 16.896 175.317 127.275 175.317 108.757 0 110.379-101.717 110.379-181.035v-332.843zM16.896 619.648h212.309v-683.648h-212.309zM122.965 960c-67.883 0-122.965-55.083-122.965-122.965s55.083-124.117 122.965-124.117 122.965 56.235 122.965 124.117c-0.043 67.883-55.125 122.965-122.965 122.965z" />
<glyph unicode="&#xe919;" glyph-name="Locationsums" d="M496.054 619.631c-50.534 0-91.642-41.108-91.642-91.695 0-50.534 41.108-91.59 91.642-91.59s91.643 41.056 91.643 91.59c0 50.587-41.108 91.695-91.643 91.695zM496.052 357.801c-93.842 0-170.193 76.299-170.193 170.141 0 93.894 76.351 170.246 170.193 170.246s170.193-76.351 170.193-170.246c0-93.842-76.351-170.141-170.193-170.141zM496.003 881.436c-194.91 0-353.478-160.086-353.478-356.778 0-250.264 294.513-494.085 353.478-507.071 58.966 13.037 353.476 256.858 353.476 507.071 0 196.691-158.565 356.778-353.476 356.778zM495.998-61.158c-93.947 0-432.029 290.739-432.029 585.83 0 240.051 193.811 435.328 432.029 435.328 238.216 0 432.028-195.277 432.028-435.328 0-295.091-338.081-585.83-432.028-585.83z" />
<glyph unicode="&#xe91a;" glyph-name="Messagesums" d="M498.192 369.777c-30.926 0-61.76 10.216-87.555 30.649l-207.33 167.159c-14.932 12.019-17.243 33.885-5.27 48.77 12.066 14.839 33.885 17.197 48.77 5.224l207.146-166.974c26.026-20.617 62.685-20.617 88.896 0.185l205.064 166.696c14.884 12.158 36.707 9.847 48.821-5.039 12.065-14.839 9.8-36.659-5.042-48.77l-205.435-166.974c-25.98-20.617-57.045-30.926-88.064-30.926zM269.926 67.68h453.958c0.090 0.090 0.458 0 0.735 0 52.748 0 99.533 18.86 135.403 54.688 41.653 41.466 64.536 101.057 64.536 167.761v317.49c0 129.114-84.414 222.817-200.674 222.817h-453.865c-116.263 0-200.674-93.703-200.674-222.817v-317.49c0-66.705 22.929-126.295 64.534-167.761 35.873-35.828 82.701-54.688 135.401-54.688h0.647zM269.137-1.675c-71.329 0-135.031 25.889-184.216 74.891-54.78 54.639-84.92 131.656-84.92 216.901v317.489c0 166.558 116.078 292.158 270.016 292.158h453.862c153.937 0 270.017-125.6 270.017-292.158v-317.489c0-85.245-30.142-162.262-84.92-216.901-49.14-48.953-112.887-74.891-184.356-74.891h-455.482z" />
<glyph unicode="&#xe91b;" glyph-name="miniarrowsums" d="M717.696 945.487c17.591-17.591 19.19-45.118 4.797-64.515l-4.797-5.557-427.397-427.42 427.397-427.419c17.591-17.591 19.19-45.117 4.797-64.515l-4.797-5.557c-17.591-17.591-45.117-19.19-64.515-4.797l-5.557 4.797-462.457 462.455c-17.591 17.591-19.19 45.117-4.798 64.515l4.798 5.557 462.457 462.456c19.35 19.35 50.722 19.35 70.072 0z" />
<glyph unicode="&#xe91c;" glyph-name="minus" d="M1007.484 960h-990.968c-9.121 0-16.516-7.395-16.516-16.516v-990.968c0-9.121 7.395-16.516 16.516-16.516h990.968c9.121 0 16.516 7.395 16.516 16.516v990.968c0 9.121-7.395 16.516-16.516 16.516zM990.968-30.968h-957.935v957.935h957.935v-957.935zM198.194 431.484h627.613c9.121 0 16.516 7.395 16.516 16.516s-7.395 16.516-16.516 16.516h-627.613c-9.121 0-16.516-7.395-16.516-16.516s7.395-16.516 16.516-16.516z" />
<glyph unicode="&#xe91d;" glyph-name="mobile-app" d="M766.848 562.978l-23.015-25.157 104.665-95.95c24.64-22.67 38.686-54.608 38.695-88.080v-417.792h34.133v417.792c-0.043 43.051-18.098 84.105-49.801 113.241zM631.193 960h-443.733c-47.104-0.059-85.273-38.229-85.333-85.333v-853.333c0.059-47.104 38.229-85.273 85.333-85.333h426.667v30.533c-0.080 76.88 22.677 152.073 65.399 215.995 4.523 6.775 3.614 15.792-2.133 21.538l-119.467 119.467c-11.042 11.056-16.896 26.256-16.123 41.861 0.777 15.611 8.112 30.153 20.185 40.059 23.257 17.778 56.149 15.241 76.407-5.883l168.464-168.469 24.133 24.133-114.466 114.501v504.935c-0.059 47.104-38.229 85.273-85.333 85.333zM682.393 403.865l-19.865 19.865c-32.743 33.451-85.401 36.937-122.265 8.080-19.499-16.025-31.33-39.552-32.562-64.773-1.23-25.216 8.242-49.778 26.096-67.639l109.739-109.744c-40.926-65.95-62.873-141.913-63.419-219.525h-392.654c-28.272 0-51.2 22.928-51.2 51.2v51.2h426.667v34.133h-426.667v716.8h546.133zM682.393 857.6h-546.133v17.067c0 28.272 22.928 51.2 51.2 51.2h443.733c28.272 0 51.2-22.928 51.2-51.2zM204.528 652.8h68.267c18.855 0 34.133 15.28 34.133 34.133v68.267c0 18.855-15.28 34.133-34.133 34.133h-68.267c-18.855 0-34.133-15.28-34.133-34.133v-68.267c0-18.855 15.28-34.133 34.133-34.133zM204.528 755.2h68.267v-68.267h-68.267zM375.193 652.8h68.267c18.855 0 34.133 15.28 34.133 34.133v68.267c0 18.855-15.28 34.133-34.133 34.133h-68.267c-18.855 0-34.133-15.28-34.133-34.133v-68.267c0-18.855 15.28-34.133 34.133-34.133zM375.193 755.2h68.267v-68.267h-68.267zM545.861 652.8h68.267c18.855 0 34.133 15.28 34.133 34.133v68.267c0 18.855-15.28 34.133-34.133 34.133h-68.267c-18.855 0-34.133-15.28-34.133-34.133v-68.267c0-18.855 15.28-34.133 34.133-34.133zM545.861 755.2h68.267v-68.267h-68.267zM204.528 482.133h68.267c18.855 0 34.133 15.28 34.133 34.133v68.267c0 18.855-15.28 34.133-34.133 34.133h-68.267c-18.855 0-34.133-15.28-34.133-34.133v-68.267c0-18.855 15.28-34.133 34.133-34.133zM204.528 584.533h68.267v-68.267h-68.267zM204.528 311.467h68.267c18.855 0 34.133 15.28 34.133 34.133v68.267c0 18.855-15.28 34.133-34.133 34.133h-68.267c-18.855 0-34.133-15.28-34.133-34.133v-68.267c0-18.855 15.28-34.133 34.133-34.133zM204.528 413.867h68.267v-68.267h-68.267zM375.193 482.133h68.267c18.855 0 34.133 15.28 34.133 34.133v68.267c0 18.855-15.28 34.133-34.133 34.133h-68.267c-18.855 0-34.133-15.28-34.133-34.133v-68.267c0-18.855 15.28-34.133 34.133-34.133zM375.193 584.533h68.267v-68.267h-68.267zM545.861 482.133h68.267c18.855 0 34.133 15.28 34.133 34.133v68.267c0 18.855-15.28 34.133-34.133 34.133h-68.267c-18.855 0-34.133-15.28-34.133-34.133v-68.267c0-18.855 15.28-34.133 34.133-34.133zM545.861 584.533h68.267v-68.267h-68.267zM375.193 311.467h68.267c18.855 0 34.133 15.28 34.133 34.133v68.267c0 18.855-15.28 34.133-34.133 34.133h-68.267c-18.855 0-34.133-15.28-34.133-34.133v-68.267c0-18.855 15.28-34.133 34.133-34.133zM375.193 413.867h68.267v-68.267h-68.267zM204.528 140.8h68.267c18.855 0 34.133 15.28 34.133 34.133v68.267c0 18.855-15.28 34.133-34.133 34.133h-68.267c-18.855 0-34.133-15.28-34.133-34.133v-68.267c0-18.855 15.28-34.133 34.133-34.133zM204.528 243.2h68.267v-68.267h-68.267zM375.193 140.8h68.267c18.855 0 34.133 15.28 34.133 34.133v68.267c0 18.855-15.28 34.133-34.133 34.133h-68.267c-18.855 0-34.133-15.28-34.133-34.133v-68.267c0-18.855 15.28-34.133 34.133-34.133zM375.193 243.2h68.267v-68.267h-68.267zM392.261 38.4h34.133v-34.133h-34.133z" />
<glyph unicode="&#xe91e;" glyph-name="phone-call" d="M943.159 285.776c-63.166 0-125.035 9.863-183.726 29.264-28.617 9.863-61.065 2.263-79.925-16.923l-116.251-87.794c-133.337 71.141-218.706 156.457-288.983 288.93l85.422 113.502c21.504 21.557 29.211 52.978 19.995 82.459-19.458 58.962-29.374 120.887-29.374 183.943 0 44.571-36.27 80.841-80.841 80.841h-188.633c-44.571 0-80.841-36.27-80.841-80.841 0-520.030 423.127-943.159 943.159-943.159 44.571 0 80.841 36.27 80.841 80.841v188.091c0 44.571-36.27 80.841-80.841 80.841zM970.105 16.841c0-14.875-12.126-26.949-26.949-26.949-490.336 0-889.264 398.928-889.264 889.264 0 14.875 12.126 26.949 26.949 26.949h188.633c14.823 0 26.949-12.073 26.949-26.949 0-68.825 10.779-136.409 31.904-200.489 3.125-10.078 0.594-20.48-9.269-30.72l-98.089-129.886c-6.197-8.247-7.168-19.294-2.478-28.457 79.925-156.994 176.992-254.114 335.12-335.12 9.106-4.743 20.263-3.771 28.51 2.478l132.69 100.569c7.223 7.113 17.838 9.591 27.433 6.414 64.459-21.289 132.043-32.066 200.921-32.066 14.823 0 26.949-12.073 26.949-26.949v-188.091z" />
<glyph unicode="&#xe91f;" glyph-name="photo-camera" d="M323 860.2c-23-7.4-45-24.6-56.2-43.6-10.6-18-13.2-29.6-14.2-61l-1-29.6h-77c-85.6 0-90.6-0.6-114.8-13.2s-45.2-37.8-54.4-64.6l-4.4-13.2-0.6-249c-0.4-175 0.2-252.8 1.6-262 6.4-37.4 34.2-70.6 71.2-85.4l13.8-5.6h850l13.8 5.6c37 14.8 64.8 48 71.2 85.4 1.4 9.2 2 87 1.6 262l-0.6 249-4.4 13.2c-9.2 26.8-30.2 52-54.4 64.6s-29.2 13.2-114.8 13.2h-77l-1 29.6c-1 31.4-3.6 43-14.2 61-11.4 19.4-33.6 36.4-57.2 43.8-10.2 3.2-25.4 3.6-189 3.4-159.6-0.2-179-0.6-188-3.6zM555.2 625c171.6-30 260.4-224 171.2-374-66.6-112.2-211-153.8-327.2-94.4-73.8 37.6-121.8 104.6-134.2 187.4-13.6 88.8 25.2 180.8 99.2 236 28.6 21.4 67.8 38.4 102.8 44.6 22 4 66.2 4.2 88.2 0.4zM489 542.8c-75.8-12.2-133.4-72.6-140.8-147.2-7.8-80.8 42-153.2 121.4-176 22-6.4 62.8-6.4 84.8 0 67 19.2 114.6 74.8 121.2 141.4 5 51.6-11.4 98.6-47.4 134.4-19.8 19.8-47.8 36-75.2 43.4-12 3.4-52.6 5.8-64 4z" />
<glyph unicode="&#xe920;" glyph-name="pin" d="M815.158 784.646c-62.146 107.248-172.53 172.77-295.28 175.274-5.24 0.108-10.514 0.108-15.756 0-122.748-2.504-233.132-68.026-295.28-175.274-63.524-109.624-65.262-241.304-4.65-352.246l253.926-464.774c0.114-0.206 0.228-0.412 0.346-0.616 11.172-19.418 31.186-31.010 53.54-31.010 22.352 0 42.366 11.594 53.536 31.010 0.118 0.204 0.232 0.41 0.346 0.616l253.926 464.774c60.608 110.942 58.87 242.622-4.654 352.246zM512 496c-79.402 0-144 64.598-144 144s64.598 144 144 144 144-64.598 144-144-64.596-144-144-144z" />
<glyph unicode="&#xe921;" glyph-name="play" d="M512 960c-282.766 0-512-229.23-512-512s229.234-512 512-512 512 229.23 512 512-229.234 512-512 512zM688.96 420.86l-256-160c-5.18-3.234-11.070-4.86-16.96-4.86-5.336 0-10.68 1.328-15.516 4.016-10.172 5.64-16.484 16.344-16.484 27.984v320c0 11.64 6.312 22.344 16.484 27.984 10.172 5.672 22.61 5.328 32.476-0.844l256-160c9.352-5.86 15.040-16.11 15.040-27.14s-5.688-21.282-15.040-27.14z" />
<glyph unicode="&#xe922;" glyph-name="play-button" d="M217.828 937.422c-92.319 52.956-167.166 9.574-167.166-96.819v-785.131c0-106.499 74.847-149.825 167.166-96.919l686.243 393.556c92.351 52.974 92.351 138.801 0 191.763l-686.243 393.55z" />
<glyph unicode="&#xe923;" glyph-name="Playsums" d="M522.24 862.943c-216.913 0-393.366-183.147-393.366-408.291 0-225.141 176.453-408.285 393.366-408.285s393.368 183.144 393.368 408.285c0 225.144-176.456 408.291-393.368 408.291zM522.24-23.622c-254.092 0-460.8 214.548-460.8 478.282 0 263.73 206.708 478.28 460.8 478.28s460.8-214.55 460.8-478.28c0-263.733-206.709-478.282-460.8-478.282zM472.060 555.617c-7.959-46.71-8.094-158.276-0.135-202.603 39.469 14.463 124.977 72.79 147.993 101.675-22.925 28.041-107.352 85.156-147.857 100.928v0zM458.301 279.613c-12.138 0-23.647 3.592-33.042 13.3-7.238 7.418-26.569 27.251-26.659 157.856-0.045 138.677 20.050 159.302 26.659 166.161 23.512 24.17 61.813 7.606 78.135 0.513 23.376-10.126 187.421-97.337 187.421-162.57 0-61.125-147.636-146.608-185.356-162.943-14.701-6.345-31.465-12.317-47.157-12.317v0z" />
<glyph unicode="&#xe924;" glyph-name="right-arrow" d="M776.279 476.096l-472.843 472.843c-15.654 15.118-40.598 14.684-55.716-0.97-14.749-15.27-14.749-39.478 0-54.746l444.985-444.985-444.985-444.985c-15.384-15.386-15.384-40.33 0-55.716 15.388-15.384 40.33-15.384 55.716 0l472.843 472.843c15.384 15.388 15.384 40.33 0 55.716z" />
<glyph unicode="&#xe925;" glyph-name="right-arrow-2" d="M689.55 797.181c-13.95 14.438-37.168 14.438-51.606 0-13.95-13.95-13.95-37.168 0-51.086l261.674-261.674h-863.49c-20.129-0.033-36.128-16.032-36.128-36.16s15.999-36.648 36.128-36.648h863.49l-261.674-261.187c-13.95-14.438-13.95-37.689 0-51.606 14.438-14.438 37.689-14.438 51.606 0l323.622 323.622c14.438 13.95 14.438 37.168 0 51.086l-323.622 323.654z" />
<glyph unicode="&#xe926;" glyph-name="rss" d="M69.4 958c-14.6-2.6-33.2-12.4-44.2-23.2-31.4-31.6-31.4-83.8 0.2-115.6 19.2-19.2 31.4-23 82.6-25.4 120.2-5.4 221.2-31.2 323-82.2 151.4-76 274.4-200.4 349-352.6 48.2-98.6 72.8-197.2 78-313 1.2-27.8 2.8-45.8 4.8-51.2 10-28.2 29.4-47.2 56.2-54.8 12.4-3.6 35-3.2 47.2 0.6 13.2 4 30.4 16.2 39.6 27.8 17 21.2 20.2 42.2 16.4 103.6-4 64-11 110.2-25.2 169.2-49.6 203.8-167 386.2-333 517-153.4 120.8-337.4 189.8-534 199.8-43.6 2.2-47 2.2-60.6 0zM58.6 651.2c-39-12.8-64.2-53.4-57-91.8 5.2-27.6 22.4-50 47.6-61.8 11.8-5.4 15.6-6.2 43.4-7.8 38.6-2.2 60.8-5 88.4-10.8 142.4-31 260.4-123.2 324.2-254 29.8-61.4 44.4-120.2 47.8-194 1.8-37.4 8.2-54.2 27.2-72 40.4-37.8 104.4-25.6 129.2 24.6l7.6 15.2-0.2 38.2c-0.6 146.6-61.2 297.2-166.2 411.4-100.8 109.8-231.4 178.4-382.6 200.8-30 4.4-98.4 5.6-109.4 2zM139 266c-53.4-9.6-97.6-44.2-120.8-94.4-11.4-24.6-14.8-40.4-14.8-68.6 0.2-27.8 4.4-47 15.8-71 27.8-58.8 91.4-97 155.8-93.2 42.2 2.2 74.4 16 105.2 44.8 34.4 32.2 51.8 72.4 51.8 119.4 0 56.6-26.8 106.8-73.6 137.6-27 18-50.8 25.4-84.4 26.4-13.8 0.4-29.4 0-35-1z" />
<glyph unicode="&#xe927;" glyph-name="rubika" d="M359.614 744.897c-34.523-20.138-63.867-40.277-65.018-44.88s21.289-20.714 59.264-42.003c32.797-18.988 61.566-37.975 63.292-41.427 5.178-14.385-3.452-22.44-59.264-53.511l-55.812-32.221-1.151-65.594c-1.726-77.677-4.603-92.061-16.686-92.061-5.178 0-36.249 15.535-69.621 34.523-33.948 18.412-63.292 32.797-66.169 31.071-5.754-3.452-6.329-140.969 0-150.175 5.178-8.055 130.612-82.28 138.667-82.28 4.028 0 6.329 23.591 6.329 67.895 0 36.824 2.302 70.772 5.178 75.375 4.028 6.329 18.988 0.575 75.95-31.646 38.551-21.865 72.498-39.126 75.375-37.975 2.877 0.575 35.098 18.412 71.923 39.701 52.935 29.92 67.32 36.249 71.347 29.92 2.877-4.603 5.178-38.551 5.178-75.375 0-50.634 1.726-67.895 7.48-67.895 3.452 0.575 36.824 17.837 73.074 39.126l66.169 38.551 1.726 74.224c0.575 40.852-0.575 76.526-3.452 79.403s-31.071-10.357-65.594-29.92c-33.372-18.988-65.018-34.523-70.197-34.523-8.055 0-9.206 9.206-9.206 76.526v75.95l-71.923 42.003c-42.578 25.317-70.197 44.304-68.47 48.907 1.151 4.028 27.043 21.289 56.963 38.551 36.249 20.714 54.661 34.523 53.511 40.277-1.726 6.905-132.913 86.307-142.695 86.307-1.726 0-31.071-16.686-66.169-36.824zM658.812 744.322c-34.523-20.138-63.292-40.277-63.292-43.729 0-4.028 32.797-26.468 73.074-49.483l73.074-42.578v-69.046c0-38.551 1.151-70.772 2.877-72.498s32.221 13.234 67.895 33.372l65.018 37.4v154.202l-71.923 44.88c-39.126 24.741-74.224 44.88-77.677 44.88-2.877 0-33.948-16.686-69.046-37.4zM203.11 647.658l-59.264-35.098v-146.722l16.111-10.932c26.468-18.412 109.323-64.443 116.227-64.443 3.452 0 5.754 25.317 5.754 70.772v70.772l60.415 34.523c39.701 22.44 59.84 36.824 59.264 42.578-2.302 10.932-112.775 74.8-128.31 74.224-6.329 0-37.975-16.111-70.197-35.674zM308.98 328.896c-5.178-5.178-5.178-123.707 0.575-132.338 2.302-3.452 33.372-23.591 69.621-45.455l66.169-38.551 23.015 12.658c13.234 6.329 44.304 24.741 69.621 39.701l46.031 27.618 1.726 70.197c1.151 62.717 0.575 70.197-8.055 70.197-5.178 0-36.824-15.535-69.621-34.523-33.372-18.988-60.99-34.523-62.141-34.523s-28.769 15.535-62.141 34.523c-59.84 34.523-67.895 37.975-74.8 30.495z" />
<glyph unicode="&#xe928;" glyph-name="search" d="M1011.488 8.835l-291.197 291.197c56.405 69.673 90.367 158.206 90.367 254.632 0 223.486-181.844 405.33-405.33 405.33s-405.328-181.842-405.328-405.328 181.844-405.33 405.33-405.33c96.425 0 184.958 33.962 254.632 90.367l291.197-291.197c8.32-8.32 19.242-12.502 30.166-12.502s21.846 4.182 30.166 12.502c16.682 16.682 16.682 43.648-0.002 60.329zM405.33 234.669c-176.468 0-319.997 143.529-319.997 319.997s143.529 319.997 319.997 319.997 319.997-143.529 319.997-319.997-143.531-319.997-319.997-319.997z" />
<glyph unicode="&#xe929;" glyph-name="sitemap" d="M396.4 880.8c-5.8-2.8-13.6-8.8-17.4-13.2-13.2-15.6-13.2-15.2-12.6-130.8 0.6-102 0.6-104 5-111.8 2.4-4.6 8.4-12 13.2-16.4 13-12 23.6-14.6 60.8-14.6h30.6v-110h-152.2c-111.6 0-154.6-0.6-160.6-2.4-19.4-5.6-37.8-21.8-47-41.6l-5.2-11-0.6-63.4-0.6-63.2-34.4-0.8c-39-0.8-43.6-2.2-58.2-15.6-6-5.6-10.4-12-13.2-19.4-4-10.8-4.2-14-3.6-114.4 0.6-102 0.6-103.2 5-111.4 7-13 13.8-20 25-25.6l10.4-5.2h105c101.4 0 105.6 0.2 114.2 4.2 11 5 21 14.2 26.6 24.8 4.4 7.8 4.4 9.6 5 113.6l0.6 105.8-4.8 10.2c-5.8 12.6-15.4 22.4-27.4 28.2-7.8 3.6-13.4 4.2-43.6 4.8l-34.4 0.8 0.4 54.2 0.6 54.4 293 1v-110h-30.6c-37.2 0-47.8-2.6-60.8-14.6-4.8-4.4-10.8-11.8-13.2-16.4-4.4-7.8-4.4-9.8-5-111.8-0.6-115.6-0.6-115.2 12.6-130.8 3.8-4.4 11.6-10.4 17.4-13.2l10.4-5.2h210.4l10.4 5.2c5.8 2.8 13.6 8.8 17.4 13.2 13.2 15.6 13.2 15.2 12.6 130.8-0.6 102-0.6 104-5 111.8-2.4 4.6-8.4 12-13.2 16.4-13 12-23.6 14.6-60.8 14.6h-30.6v110l293-1 0.6-54.4 0.4-54.2-34.4-0.8c-30.2-0.6-35.8-1.2-43.6-4.8-12-5.8-21.6-15.6-27.4-28.2l-4.8-10.2 0.6-105.8c0.6-104 0.6-105.8 5-113.6 5.6-10.6 15.6-19.8 26.6-24.8 8.6-4 12.8-4.2 114.2-4.2h105l10.4 5.2c11.2 5.6 18 12.6 25 25.6 4.4 8.2 4.4 9.4 5 111.4 0.6 100.4 0.4 103.6-3.6 114.4-2.8 7.4-7.2 13.8-13.2 19.4-14.6 13.4-19.2 14.8-58.2 15.6l-34.4 0.8-0.6 63.2-0.6 63.4-5.2 11c-9.2 19.8-27.6 36-47 41.6-6 1.8-49 2.4-160.6 2.4h-152.2v110h30.6c37.2 0 47.8 2.6 60.8 14.6 4.8 4.4 10.8 11.8 13.2 16.4 4.4 7.8 4.4 9.8 5 111.8 0.6 115.6 0.6 115.2-12.6 130.8-3.8 4.4-11.6 10.4-17.4 13.2l-10.4 5.2h-210.4l-10.4-5.2z" />
<glyph unicode="&#xe92a;" glyph-name="sms" d="M974.453 728.775h-379.872v148.645c0 45.536-37.047 82.581-82.581 82.581h-429.419c-45.536 0-82.581-37.047-82.581-82.581v-858.839c0-45.536 37.047-82.581 82.581-82.581h429.419c45.536 0 82.581 37.047 82.581 82.581v247.742h-33.033v-165.161h-528.517v693.678h528.517v-66.064h-148.645c-27.319 0-49.547-22.231-49.547-49.547v-240.903l-138.967-138.967h750.064c27.319 0 49.547 22.231 49.547 49.547v330.322c0 27.319-22.231 49.547-49.547 49.547zM561.547 68.128v-49.547c0-27.319-22.231-49.547-49.547-49.547h-429.419c-27.319 0-49.547 22.231-49.547 49.547v49.547h528.517zM33.031 827.872v49.547c0 27.319 22.231 49.547 49.547 49.547h429.419c27.319 0 49.547-22.231 49.547-49.547v-49.547h-528.517zM990.967 348.903c0-9.118-7.399-16.517-16.517-16.517h-670.325l92.258 92.258v254.581c0 9.118 7.399 16.517 16.517 16.517h561.547c9.118 0 16.517-7.399 16.517-16.517v-330.322zM858.839 530.581c-18.217 0-33.033 14.816-33.033 33.033s14.816 33.031 33.033 33.031c18.217 0 33.033-14.816 33.033-33.031h33.033c0 36.434-29.63 66.064-66.064 66.064s-66.064-29.63-66.064-66.064 29.63-66.064 66.064-66.064c18.217 0 33.033-14.816 33.033-33.033s-14.816-33.031-33.033-33.031c-18.217 0-33.033 14.816-33.033 33.031h-33.033c0-36.434 29.63-66.064 66.064-66.064s66.064 29.63 66.064 66.064-29.63 66.064-66.064 66.064zM528.517 530.581c-18.217 0-33.031 14.816-33.031 33.033s14.816 33.031 33.031 33.031c18.217 0 33.033-14.816 33.033-33.031h33.033c0 36.434-29.63 66.064-66.064 66.064s-66.064-29.63-66.064-66.064 29.63-66.064 66.064-66.064c18.217 0 33.033-14.816 33.033-33.033s-14.816-33.031-33.033-33.031c-18.217 0-33.031 14.816-33.031 33.031h-33.031c0-36.434 29.63-66.064 66.064-66.064s66.064 29.63 66.064 66.064-29.63 66.064-66.064 66.064zM713.81 629.678l-20.133-80.549-20.133 80.549h-45.931v-214.711h33.033v130.098l33.033-132.128 33.033 132.128v-130.098h33.033v214.711zM231.225 35.097h132.128v-33.033h-132.128v33.033zM495.483 266.322h33.031v-33.033h-33.031v33.033zM429.419 266.322h33.031v-33.033h-33.031v33.033zM363.355 266.322h33.031v-33.033h-33.031v33.033zM297.289 266.322h33.031v-33.033h-33.031v33.033z" />
<glyph unicode="&#xe92b;" glyph-name="soroush" horiz-adv-x="1020" d="M487.024 959.376c-55.362-3.226-113.326-16.13-165.984-36.942-20.812-8.22-55.466-25.496-75.656-37.672-30.908-18.628-63.792-44.228-91.576-71.284-85.228-83.148-138.094-192-151.206-311.466-3.642-32.676-3.122-82.42 1.146-114.888 6.14-47.558 20.812-101.36 39.024-143.922 19.772-46.206 52.656-88.038 87.312-111.246 17.17-11.552 32.676-17.692 57.028-22.894 11.656-2.498 15.61-2.81 32.99-2.81 16.546-0.104 21.646 0.312 31.532 2.288 22.894 4.578 44.332 13.424 62.856 25.912 48.494 32.572 74.406 76.072 76.488 128.312 1.456 34.236-3.538 55.778-29.034 126.958-36.526 101.672-49.326 149.958-56.714 213.854-2.602 22.478-2.602 75.344 0 96.26 5.62 45.372 17.484 85.646 36.32 123.212 15.088 30.18 28.202 47.35 51.824 68.058 53.384 46.726 138.928 67.33 227.278 54.738 6.14-0.834 11.448-1.352 11.654-1.144 0.624 0.624-27.576 6.66-42.354 8.95-23.206 3.746-42.668 5.308-69.62 5.724-14.57 0.208-29.554 0.208-33.3 0zM634.59 943.662c0.728-0.312 1.664-0.208 1.976 0.104 0.416 0.312-0.208 0.624-1.352 0.52-1.144 0-1.456-0.312-0.624-0.624zM670.908 911.506c-41.938-7.598-74.822-37.152-85.958-77.424-8.326-29.972-2.706-65.666 14.048-89.184 11.342-15.922 22.374-26.224 57.652-54.010 31.428-24.664 41.314-33.3 65.352-57.028 61.19-60.358 92.514-109.476 113.12-177.014 24.872-81.484 23.934-166.504-2.602-243.512-13.842-40.064-35.902-80.13-62.23-113.326-34.654-43.5-59.836-63.48-111.454-88.976-96.572-47.558-200.222-59.836-299.29-35.382-53.906 13.32-110.204 39.336-159.22 73.574-11.758 8.222-7.492 3.746 6.14-6.556 65.248-48.808 146.732-83.876 227.59-97.716 44.54-7.702 94.388-8.846 138.302-3.122 61.606 7.804 124.774 28.306 180.448 58.486l14.36 7.804 92.618-24.664c50.888-13.634 92.722-24.558 92.93-24.35 0.208 0.104-4.996 43.602-11.552 96.572-6.452 52.97-11.862 97.716-11.966 99.382-0.208 2.394 1.976 6.452 8.636 16.65 43.706 66.602 70.452 142.776 79.61 226.342 2.602 24.038 2.602 76.904 0 100.942-10.408 95.116-42.668 178.784-98.028 253.398-28.098 38.088-69.202 79.194-108.54 108.852-24.35 18.42-53.906 35.278-77.216 43.914-20.5 7.598-43.082 9.886-62.75 6.348z" />
<glyph unicode="&#xe92c;" glyph-name="telegram" d="M18.086 466.278l235.95-88.064 91.326-293.706c5.844-18.812 28.846-25.764 44.114-13.28l131.524 107.22c13.786 11.232 33.424 11.794 47.832 1.336l237.22-172.226c16.332-11.872 39.472-2.922 43.568 16.814l173.776 835.894c4.472 21.558-16.712 39.542-37.24 31.604l-968.346-373.56c-23.896-9.216-23.69-43.048 0.276-52.028zM330.646 425.092l461.134 284.012c8.288 5.088 16.814-6.118 9.698-12.718l-380.57-353.758c-13.378-12.452-22.006-29.116-24.45-47.202l-12.964-96.072c-1.716-12.826-19.736-14.1-23.276-1.686l-49.858 175.188c-5.712 19.982 2.61 41.326 20.286 52.234z" />
<glyph unicode="&#xe92d;" glyph-name="twitter" d="M1024 765.504c-38.080-16.704-78.656-27.776-120.96-33.152 43.52 25.984 76.736 66.816 92.352 116.032-40.576-24.192-85.376-41.28-133.12-50.816-38.528 41.024-93.44 66.432-153.344 66.432-116.224 0-209.792-94.336-209.792-209.984 0-16.64 1.408-32.64 4.864-47.872-174.528 8.512-328.96 92.16-432.704 219.584-18.112-31.424-28.736-67.392-28.736-106.112 0-72.704 37.44-137.152 93.248-174.464-33.728 0.64-66.816 10.432-94.848 25.856 0-0.64 0-1.472 0-2.304 0-102.016 72.768-186.752 168.192-206.272-17.088-4.672-35.712-6.912-55.040-6.912-13.44 0-27.008 0.768-39.744 3.584 27.2-83.136 104.384-144.256 196.16-146.24-71.424-55.872-162.112-89.536-260.288-89.536-17.216 0-33.728 0.768-50.24 2.88 92.992-59.968 203.2-94.208 322.048-94.208 386.304 0 597.504 320 597.504 597.376 0 9.28-0.32 18.24-0.768 27.136 41.664 29.568 76.672 66.496 105.216 108.992z" />
<glyph unicode="&#xe92e;" glyph-name="up-arrow-2" d="M911.101 569.764l-383.954 383.954c-1.962 1.962-4.352 3.542-6.954 4.65-5.206 2.176-11.094 2.176-16.298 0-2.646-1.066-4.992-2.646-6.954-4.65l-384.040-383.954c-8.32-8.32-8.32-21.846 0-30.166s21.846-8.32 30.166 0l347.601 347.561v-929.825c0-11.776 9.558-21.334 21.334-21.334s21.334 9.558 21.334 21.334v929.825l347.559-347.559c4.182-4.182 9.642-6.272 15.104-6.272s10.922 2.090 15.104 6.23c8.32 8.36 8.32 21.844 0 30.206z" />
<glyph unicode="&#xe92f;" glyph-name="video-camera" d="M579.221 748.814h-467.186c-61.619 0-112.035-50.416-112.035-112.035v-377.558c0-61.619 50.416-112.035 112.035-112.035h467.186c61.619 0 112.035 50.416 112.035 112.035v377.558c0 62.74-50.416 112.035-112.035 112.035zM941.094 687.195c-6.722-1.12-13.444-4.481-19.046-7.842l-174.775-100.832v-259.921l175.895-100.832c32.49-19.046 72.823-7.842 91.869 24.648 5.602 10.083 8.963 21.287 8.963 33.611v346.188c0 41.453-39.212 75.063-82.906 64.98z" />
<glyph unicode="&#xe930;" glyph-name="voting" d="M739.163 644.158l62.258 64.949 9.557-9.694c7.39-7.497 17.65-12.146 28.997-12.165h0.194c0.034 0 0.073 0 0.114 0 11.237 0 21.413 4.544 28.791 11.893v0l45.314 44.891c7.497 7.454 12.137 17.774 12.137 29.177 0 11.275-4.535 21.49-11.883 28.921l0.005-0.005-63.241 63.911c-2.786 2.814-6.651 4.558-10.923 4.558-8.489 0-15.369-6.88-15.369-15.369 0-4.217 1.698-8.039 4.448-10.816v0l63.351-63.897c1.854-1.872 2.999-4.448 2.999-7.291 0-2.878-1.173-5.481-3.065-7.358l-45.317-44.894c-1.863-1.856-4.434-3.003-7.273-3.003-0.007 0-0.011 0-0.018 0v0c-0.009 0-0.021 0-0.032 0-2.887 0-5.495 1.186-7.367 3.097l-0.002 0.002-19.824 20.016c-0.258 0.313-0.533 0.629-0.832 0.928l-123.698 124.736c-1.854 1.872-2.999 4.448-2.999 7.291 0 2.878 1.173 5.481 3.065 7.358l45.317 44.894c1.874 1.847 4.448 2.987 7.291 2.987 2.875 0 5.479-1.168 7.36-3.056v0l41.847-42.242c2.786-2.814 6.651-4.558 10.923-4.558 8.489 0 15.369 6.88 15.369 15.369 0 4.217-1.698 8.039-4.448 10.816v0l-41.874 42.242c-7.451 7.502-17.771 12.144-29.177 12.144-11.275 0-21.493-4.537-28.921-11.888l0.005 0.005-45.314-44.88c-7.504-7.451-12.146-17.774-12.146-29.179 0-6.393 1.458-12.446 4.062-17.842l-0.107 0.247-66.165 8.192c-3.817 0.485-8.233 0.761-12.713 0.761-30.462 0-57.941-12.763-77.383-33.237l-0.043-0.046-105.296-111.328h-79.749c-25.136-0.032-45.504-20.4-45.534-45.531v-172.226c0-8.482 6.878-15.36 15.36-15.36s15.36 6.878 15.36 15.36v0 172.224c0.009 8.178 6.635 14.807 14.814 14.814h166.571c-4.528-8.151-7.195-17.874-7.195-28.222 0-32.553 26.389-58.942 58.942-58.942 0.005 0 0.009 0 0.016 0h106.672c20.656 0.041 40.201 4.741 57.662 13.102l-0.807-0.35v-280.057h-396.656v105.991c0 8.482-6.878 15.36-15.36 15.36s-15.36-6.878-15.36-15.36v0-25.6h-84.432c-0.007 0-0.014 0-0.023 0-17.502 0-32.549-10.507-39.177-25.559l-0.107-0.274-49.835-115.44c-1.726-3.863-2.731-8.37-2.731-13.113 0-0.073 0-0.149 0-0.224v0.011c0-0.165 0-0.329 0-0.491v-278.078c0.032-25.851 20.978-46.8 46.827-46.832h717.104c25.851 0.032 46.8 20.978 46.832 46.827v278.341c0 0.176 0 0.341 0 0.505 0 0.005 0 0.011 0 0.016 0 4.578-0.939 8.937-2.635 12.894l0.080-0.213-48.293 115.33c-6.599 15.557-21.744 26.27-39.39 26.27-0.030 0-0.057 0-0.087 0h-85.984v219.559q4.752 4.096 9.134 8.629zM815.977 385.195c0.007 0 0.014 0 0.018 0 4.978 0 9.25-3.024 11.079-7.335l0.030-0.080 48.304-115.344c0.112-0.254 0.176-0.549 0.176-0.859 0-1.214-0.983-2.199-2.199-2.199-0.005 0-0.009 0-0.011 0h-64.169c-8.482 0-15.36-6.878-15.36-15.36s6.878-15.36 15.36-15.36v0h64.171c0.752 0 1.488 0 2.224 0.082v-245.911c-0.016-8.885-7.214-16.082-16.096-16.096h-717.115c-8.885 0.016-16.082 7.214-16.096 16.096v245.979c0.736 0 1.474-0.082 2.224-0.082h615.765c8.482 0 15.36 6.878 15.36 15.36s-6.878 15.36-15.36 15.36v0h-615.765c-0.002 0-0.007 0-0.009 0-1.214 0-2.199 0.985-2.199 2.199 0 0.32 0.069 0.626 0.192 0.901l-0.007-0.014 49.835 115.424c1.899 4.325 6.144 7.291 11.083 7.291 0.007 0 0.011 0 0.018 0h84.432v-50.121h-11.593c-8.482 0-15.36-6.878-15.36-15.36s6.878-15.36 15.36-15.36v0h480.665c8.482 0 15.36 6.878 15.36 15.36s-6.878 15.36-15.36 15.36v0h-10.923v50.066zM535.769 633.685c-15.593 0-28.235 12.64-28.235 28.235s12.64 28.235 28.235 28.235h64.171c8.482 0 15.36 6.878 15.36 15.36s-6.878 15.36-15.36 15.36v0h-160.48l85.25 90.112c13.849 14.576 33.376 23.641 55.019 23.641 3.225 0 6.402-0.201 9.522-0.592l-0.373 0.039 100.939-12.425 54.448-54.859 35.499-35.881-62.805-65.536c-18.866-19.52-45.273-31.653-74.512-31.689h-106.681zM469.198 397.209c0.025 0 0.055 0 0.082 0 4.235 0 8.071 1.721 10.839 4.505l126.976 126.976c2.779 2.779 4.498 6.619 4.498 10.862 0 8.482-6.878 15.36-15.36 15.36-4.242 0-8.082-1.719-10.862-4.498v0l-116.135-116.135-46.489 46.489c-2.779 2.779-6.619 4.498-10.862 4.498-8.482 0-15.36-6.878-15.36-15.36 0-4.242 1.719-8.082 4.498-10.862v0l57.344-57.344c2.777-2.784 6.615-4.505 10.857-4.505 0.023 0 0.046 0 0.071 0h-0.005zM257.625 164.72c-20.775-0.023-37.611-16.855-37.641-37.625v-48.309c0.023-20.779 16.862-37.618 37.639-37.641h486.649c20.779 0.023 37.618 16.862 37.641 37.641v48.306c-0.032 20.775-16.866 37.605-37.639 37.63h-0.002zM751.179 127.093v-48.304c-0.009-3.813-3.095-6.901-6.907-6.91h-486.647c-3.813 0.007-6.901 3.095-6.91 6.907v48.306c0.009 3.813 3.097 6.901 6.907 6.91h486.647c3.813-0.009 6.901-3.095 6.91-6.907v0z" />
<glyph unicode="&#xe931;" glyph-name="whatsapp" d="M512.128 960h-0.256c-282.304 0-511.872-229.632-511.872-512 0-112 36.096-215.808 97.472-300.096l-63.808-190.208 196.8 62.912c80.96-53.632 177.536-84.608 281.664-84.608 282.304 0 511.872 229.696 511.872 512s-229.568 512-511.872 512zM810.048 236.992c-12.352-34.88-61.376-63.808-100.48-72.256-26.752-5.696-61.696-10.24-179.328 38.528-150.464 62.336-247.36 215.232-254.912 225.152-7.232 9.92-60.8 80.96-60.8 154.432s37.312 109.248 52.352 124.608c12.352 12.608 32.768 18.368 52.352 18.368 6.336 0 12.032-0.32 17.152-0.576 15.040-0.64 22.592-1.536 32.512-25.28 12.352-29.76 42.432-103.232 46.016-110.784 3.648-7.552 7.296-17.792 2.176-27.712-4.8-10.24-9.024-14.784-16.576-23.488s-14.72-15.36-22.272-24.704c-6.912-8.128-14.72-16.832-6.016-31.872 8.704-14.72 38.784-63.808 83.072-103.232 57.152-50.88 103.488-67.136 120.064-74.048 12.352-5.12 27.072-3.904 36.096 5.696 11.456 12.352 25.6 32.832 40 52.992 10.24 14.464 23.168 16.256 36.736 11.136 13.824-4.8 86.976-40.96 102.016-48.448 15.040-7.552 24.96-11.136 28.608-17.472 3.584-6.336 3.584-36.096-8.768-71.040z" />
<glyph unicode="&#xe932;" glyph-name="world-wide-web-on-grid" d="M894.761 267.518c-8.521-18.192-13.259-26.293-21.52-40.347-35.397 9.737-101.502 23.291-148.519 29.653 2.921 16.231 3.392 16.944 7.321 41.499l0.213 1.541-23.225 77.109-4.009-32.848c-3.36-27.785-7.856-56.041-13.195-82.821-60.521 7.71-115.296 9.593-163.643 11.767v41.255l-18.112 57.877c-18.016-68.798-14.592-45.865-15.045-98.905l-63.799-1.817c-39.342-1.899-75.696-5.177-103.077-8.667l-0.487 2.517c-5.079 26.114-9.317 53.088-12.562 80.144l-3.751 31.422-23.842-73.877 0.245-1.655c2.937-18.777 4.512-26.96 7.497-43.072-48.885-7.776-94.231-16.585-145.241-31.111-7.385 12.336-13.406 23.193-21.538 40.347l-1.883 3.975h-36.48l4.35-9.803c161.584-360.722 673.145-359.977 834.341 0.032l4.334 9.803h-36.469l-1.899-4.011zM528.181 24.363v214.8c44.971-0.779 99.781-4.384 156.455-11.166-15.287-63.605-39.746-131.298-63.687-189.497-33.431-8.944-62.224-12.626-92.768-14.135zM664.64 52.699c5.161 16.231 35.202 87.966 53.008 170.997 41.467-5.712 85.758-13.991 135.973-25.854-49.856-67.662-112.649-114.37-188.978-145.143zM355.593 53.803c-73.701 30.302-135.664 76.087-186.155 144.411 37.248 10.224 87.17 20.791 132.745 27.314 13.097-59.351 31.339-115.621 53.413-171.726zM495.024 239.456v-215.077c-31.762 1.623-62.048 5.406-98.272 15.63-22.965 56.318-46.937 127.355-61.591 189.984 48.949 6.215 110.93 9.463 159.863 9.463zM956.128 552.738c-48.917 207.125-231.712 351.829-444.501 351.829-211.118 0-393.573-143.291-443.737-348.437l-0.389-1.721 20.304-78.162 5.033 33.662c9.154 61.25 30.238 115.993 62.453 166.485 36.777-9.543 86.050-19.605 130.551-26.327-4.478-31.017-7.061-60.473-9.154-89.961h33.109c1.915 27.266 4.821 58.8 8.731 85.305 58.64-8.034 118.329-12.075 176.482-13.291v-72.027h33.191v71.769c57.712 0.341 117.307 3.751 173.854 11.36 3.653-25.71 6.087-50.978 7.968-76.67l0.421-6.443h33.125l-0.519 7.433c-2.402 33.92-5.893 64.286-8.343 80.517 39.762 6.071 94.715 17.705 132.987 28.711 32.201-51.383 53.817-105.575 62.955-168.482l4.658-32.185 21.259 74.821-0.437 1.817zM847.518 705.463c-39.829-10.501-83.145-19.216-117.893-24.409-10.322 56.805-17.577 90.642-35.543 148.942 58.965-29.328 106.923-65.733 153.438-124.533zM696.873 676.427c-55.669-7.191-115.573-10.695-168.69-10.695v205.273c42.83-1.785 83.728-9.495 123.865-23.68l1.202-0.405 0.405-1.184c18.402-50.167 35.152-118.85 43.218-169.307zM325.65 828.222c-13.177-42.569-23.646-82.967-34.585-144.738-39.552 6.103-76.377 12.935-115.216 22.121 44.208 56.594 92.313 93.241 149.801 122.617zM366.613 845.767c37.328 13.941 81.312 23.257 128.409 25.221v-204.999c-64.839 1.655-114.418 5.552-171.223 12.855 9.918 56.416 23.566 113.737 42.814 166.921zM141.522 413.765c7.872 24.183 14.882 47.456 20.448 74.478h0.974c5.552-26.519 12.059-48.898 19.977-74.041l34.439-107.506h37.232l72.626 225.271h-40.494l-32.119-113.072c-7.465-26.567-13.488-50.313-17.253-73.115h-1.365c-5.095 22.805-11.637 46.546-19.977 73.504l-34.976 112.667h-34.407l-36.825-114.955c-7.417-24.215-14.882-48.395-19.977-71.216h-1.445c-4.139 23.291-10.224 46.546-16.734 71.671l-29.783 114.517h-41.872l67.936-225.271h37.248l36.338 107.070zM585.749 345.808h-1.397c-5.095 22.789-11.637 46.546-20.011 73.504l-34.944 112.667h-34.359l-36.809-114.955c-7.433-24.215-14.93-48.414-20.027-71.216h-1.381c-4.171 23.291-10.24 46.546-16.766 71.687l-29.831 114.485h-41.888l67.968-225.271h37.232l36.306 107.067c7.92 24.183 14.93 47.456 20.514 74.478h0.891c5.616-26.519 12.139-48.898 20.027-74.041l34.375-107.506h37.296l72.645 225.271h-40.526l-32.119-113.072c-7.431-26.549-13.47-50.309-17.202-73.097zM983.426 531.979l-32.119-113.072c-7.481-26.567-13.504-50.313-17.202-73.115h-1.397c-5.095 22.805-11.621 46.546-20.027 73.504l-34.912 112.667h-34.391l-36.791-114.955c-7.433-24.215-14.914-48.395-20.011-71.216h-1.429c-4.155 23.289-10.24 46.546-16.75 71.671l-29.783 114.501h-41.856l67.904-225.271h37.264l36.306 107.067c7.888 24.183 14.898 47.456 20.514 74.478h0.939c5.584-26.519 12.091-48.898 19.993-74.057l34.391-107.49h37.248l72.677 225.271-40.574 0.018z" />
<glyph unicode="&#xe933;" glyph-name="ico-2" horiz-adv-x="944" d="M198.917 949.166c-10.341-4.866-21.087-16.626-24.128-26.358-0.811-2.23-8.718-86.779-17.842-187.751l-16.423-183.493-53.73-1.014c-45.62-0.811-54.744-1.622-60.015-4.461-7.907-4.257-16.626-14.394-18.653-21.492-0.811-3.042-1.419-105.432-1.419-227.491v-222.017l5.88-12.772c9.529-20.681 25.75-32.035 55.96-39.336 6.285-1.622 83.129-2.634 245.334-3.040l236.209-0.811 16.625-16.424c15.41-15.408 17.033-16.422 26.765-17.436 12.774-1.217 18.653 0.406 26.154 6.69l5.881 4.867 11.963-4.867c11.152-4.459 11.963-5.271 13.382-12.977 1.823-11.354 6.487-19.464 14.191-24.937 6.489-4.461 8.112-4.664 44.606-4.664 35.077 0 38.322 0.406 43.389 4.259 8.921 6.487 13.382 13.786 14.396 23.721 1.014 8.923 1.217 9.126 13.382 13.991l12.571 5.273 6.285-5.070c9.529-7.096 19.261-9.326 29.602-6.487 6.895 1.825 13.382 6.893 31.427 24.737 24.534 24.126 28.995 30.818 28.995 43.996 0 8.923-2.231 14.599-8.517 21.695-4.054 4.259-4.054 4.461 1.014 17.235 5.273 12.774 5.273 12.774 14.396 13.788 11.76 1.418 19.261 6.893 25.142 18.247 4.054 8.11 4.459 11.76 4.459 39.536 0 27.779-0.406 31.427-4.459 39.538-5.881 11.354-13.382 16.828-25.142 18.247-9.124 1.014-9.124 1.014-14.396 13.788-5.068 12.774-5.068 12.977-1.014 17.233 6.287 7.096 8.517 12.774 8.517 21.695 0 11.354-4.259 19.667-16.221 31.427l-10.138 9.935v94.688c0 97.931-0.406 102.187-8.718 113.542-7.704 10.746-18.653 14.802-41.362 15.613-19.466 0.811-20.884 1.217-20.884 5.068 0 2.231 5.473 65.287 12.164 139.9 10.342 113.746 11.963 136.86 9.937 143.146-1.825 5.069-12.977 17.842-38.119 43.187l-35.685 35.888-11.152 1.217c-6.082 0.608-87.793 7.907-181.465 16.22-93.672 8.516-199.917 18.045-236.209 21.289-103.203 9.327-100.567 9.124-112.935 3.244zM445.466 901.316c124.492-11.151 230.33-20.681 235.197-21.492l8.921-1.217-1.42-10.34c-0.608-5.88-1.825-21.492-2.434-34.874-1.012-22.1-0.809-24.939 3.042-30.819 6.895-10.949 13.991-13.179 53.527-16.829 19.87-2.028 36.497-4.055 37.105-4.663s-3.447-52.92-9.124-116.382c-5.678-63.259-10.34-117.192-10.34-119.625v-4.662h-109.893c-108.068 0-109.893 0-118.814-4.259-10.543-5.271-12.368-7.907-46.026-68.126l-24.128-43.187h-299.469l1.217 13.788c0.811 7.501 10.543 117.395 22.1 244.118 18.248 205.187 21.087 230.937 24.33 234.587 2.231 2.433 5.273 4.258 6.895 4.258 1.823 0 105.026-9.124 229.314-20.276zM755.682 846.572c16.019-16.829 28.79-31.022 28.182-31.427-0.406-0.406-13.989 0.608-30.007 2.028-16.219 1.622-31.021 3.041-33.252 3.041-3.445 0-3.648 1.217-2.434 17.842 2.434 30.413 3.65 38.929 6.084 38.929 1.217 0 15.408-13.787 31.427-30.413zM136.469 506.553c-2.028-21.289-7.096-76.641-7.096-79.075 0-1.825-3.244-2.636-9.124-2.636-17.437 0-31.021-9.935-35.482-25.951-1.217-4.867-2.028-66.504-2.028-176.6v-168.896l-7.502 1.42c-21.695 3.853-34.063 14.802-36.090 31.832-1.825 15.41-0.406 425.785 1.622 429.030 1.217 1.825 13.382 2.434 49.269 2.434h47.647l-1.217-11.557zM827.051 505.944c3.65-2.028 3.853-5.070 3.853-82.117v-80.087h-10.746c-8.921 0-12.571-1.217-19.261-6.084l-8.312-5.879-11.963 5.271c-11.76 5.070-12.166 5.273-13.179 14.193-1.014 9.935-5.475 17.235-14.396 23.723-5.068 3.853-8.921 4.259-39.739 4.865-30.616 0.608-35.28 0.203-43.389-3.243-10.543-4.867-15.207-11.152-18.45-25.142-2.231-9.935-2.434-10.34-14.193-15.005-11.557-4.865-11.963-4.865-16.019-1.012-10.138 9.124-25.749 11.555-36.9 5.676-3.245-1.825-16.424-13.991-29.604-27.168-19.261-19.466-23.721-25.345-24.937-31.632-1.825-9.529 1.42-21.492 7.907-29.196l4.664-5.676-5.475-12.368c-5.473-12.166-5.879-12.368-14.802-13.382-5.068-0.608-11.961-3.042-15.205-5.271-10.949-7.909-12.571-14.599-12.571-52.515 0-29.399 0.608-35.075 3.853-41.159 5.068-9.529 15.205-16.219 24.735-16.219 7.706 0 8.112-0.406 13.585-12.571l5.678-12.774-5.678-7.907c-3.042-4.259-6.082-10.949-6.893-14.599l-1.217-6.893h-413.214l0.405 169.908 0.608 169.705 180.857 1.014c177.614 1.014 181.061 1.014 184.71 5.070 2.231 2.231 15.41 25.142 29.804 50.688 14.193 25.751 27.576 49.676 29.806 53.324l4.054 6.489h138.686c91.847 0 140.306-0.811 142.94-2.028zM735.609 337.454c0-10.138 2.434-17.639 6.893-20.478 1.217-0.811 6.895-3.040 12.368-4.865 5.678-1.825 16.424-6.489 23.925-10.138 7.501-3.853 16.017-6.895 18.856-6.895 3.042 0 8.515 3.245 14.193 8.515l9.124 8.517 18.044-18.046 18.046-17.842-8.112-9.124c-9.732-11.152-9.935-16.627-2.026-32.644 3.445-6.489 7.907-17.844 10.34-25.345 5.271-15.814 10.138-19.464 26.357-19.464h10.138v-50.688h-8.921c-13.179 0-20.681-3.447-24.331-11.152-1.823-3.65-3.243-7.706-3.243-9.126 0-1.418-3.65-10.138-8.112-19.667-10.543-22.709-10.543-27.371 0.406-37.509l8.517-7.909-37.105-37.103-9.124 8.515c-10.543 9.732-16.424 10.746-26.562 4.461-3.445-2.231-12.774-6.287-20.478-9.124-23.723-8.72-24.534-9.328-26.965-14.396-1.217-2.839-2.231-9.529-2.231-15.005v-10.138h-52.716v11.76c0 14.396-3.042 19.261-14.599 22.506-4.867 1.42-16.625 6.285-26.359 10.746-20.275 9.529-24.532 9.326-34.467-1.42-3.447-3.851-7.301-7.096-8.517-7.096s-10.34 8.11-20.072 17.842l-17.639 17.844 7.907 7.704c11.354 11.152 11.76 15.003 3.447 32.238-3.65 8.11-8.515 19.87-10.543 26.357-4.867 16.019-8.515 18.655-23.317 18.249l-11.963-0.203v51.905l12.166 0.811c14.193 1.014 18.653 4.259 22.1 16.422 1.42 4.664 6.285 16.424 10.746 26.156 9.124 20.478 8.921 23.114-2.636 35.077l-7.907 8.312 18.044 17.842 18.046 18.046 9.732-8.314c5.271-4.662 11.557-8.515 13.989-8.515 2.434 0 12.166 3.65 21.492 7.909 9.328 4.459 20.884 8.921 25.548 10.138 11.354 3.040 14.802 8.515 14.802 22.911v11.758h52.716v-10.34zM294.617 761.212c-10.34-5.88-12.368-18.248-4.257-25.952 4.459-4.259 12.571-5.273 182.682-20.478 157.539-14.193 178.829-15.613 183.696-13.179 9.124 4.865 10.746 15.814 3.447 24.128-5.273 5.879 16.219 3.648-230.735 25.546-63.056 5.475-118.206 10.544-122.667 11.152-4.459 0.406-9.935 0-12.166-1.217zM282.656 665.917c-7.098-5.676-7.301-16.219-0.203-23.114 2.634-2.837 6.082-5.068 7.501-5.068s81.506-6.895 177.817-15.613c157.945-13.989 175.584-15.205 180.451-12.571 10.34 5.881 10.949 21.695 0.608 26.765-3.042 1.622-11.76 3.447-19.667 4.056-85.968 7.704-123.073 10.949-219.787 19.667-61.84 5.676-114.355 10.138-116.786 10.138-2.434 0-6.895-1.825-9.935-4.259zM676.81 264.057c-48.863-16.625-79.478-66.909-71.166-116.381 6.69-38.727 35.888-72.385 72.991-83.94 18.653-5.678 45.823-5.678 63.259 0.203 43.389 14.597 72.79 54.945 72.79 99.956 0 47.243-31.023 88.199-76.844 101.581-16.627 4.867-44.606 4.259-61.030-1.42zM740.069 230.4c15.207-7.299 27.17-19.058 34.469-34.266 6.084-12.166 6.692-15.205 6.692-31.832 0-15.611-0.811-19.87-5.475-29.804-24.128-51.702-94.077-57.989-126.113-11.152-26.156 38.322-10.543 90.024 32.846 108.271 15.408 6.489 42.781 5.881 57.581-1.217z" />
<glyph unicode="&#xe934;" glyph-name="ico-3" d="M426.631 891.733h-239.034v-221.867h34.148v187.734h204.886v-34.133h34.148v102.4h221.96v-85.333h119.517v-170.667h34.148v204.801h-119.517v85.333h-290.257v-68.267zM494.928 857.6h51.22v34.133h-51.22v-34.133zM597.371 857.6h51.22v34.133h-51.22v-34.133zM52.072 855.68c-19.635-5.12-36.922-19.2-45.886-37.547l-5.336-10.667-0.64-245.334c-0.64-270.293-0.64-266.24 12.592-299.52 13.019-32.639 21.983-43.946 87.504-110.080 44.392-44.587 62.533-64.639 65.734-71.467 4.055-8.96 4.482-13.867 4.482-77.226v-67.84h34.362l-1.281 146.133-7.043 14.721c-6.189 13.226-13.446 21.332-70.43 78.932-68.295 69.333-74.485 77.013-85.369 109.013l-5.762 17.068v250.026c0 249.174 0 250.027 4.482 255.787 8.323 11.307 15.153 14.72 28.599 14.72s20.275-3.413 28.599-14.72c4.482-5.76 4.482-8.107 5.549-207.786 1.281-220.375 0.427-206.721 14.513-234.027 6.829-13.228 17.287-24.533 91.984-99.84 46.313-46.508 84.943-84.693 85.584-84.693 1.921 0 23.476 21.119 23.476 22.825 0 1.067-25.61 27.095-56.771 58.241s-58.478 60.16-60.825 64.426c-7.683 14.934-4.482 35.201 7.469 48.214 11.739 13.013 34.361 17.066 49.943 9.173 4.268-2.347 30.091-26.454 56.984-53.973 53.144-53.76 60.613-63.574 71.070-94.507l5.763-17.066 1.28-282.667h33.935v134.187c0 147.839-0.641 156.799-13.019 187.732-12.806 32-22.624 44.587-77.474 99.84-43.751 43.948-53.354 52.48-64.027 57.387-41.191 18.774-90.705-1.067-105.431-42.24-1.921-5.546-4.268-10.24-5.336-10.24-2.561 0-14.94 18.561-19.635 29.44-4.055 9.814-4.268 15.788-5.336 212.693l-1.067 202.668-7.256 13.44c-12.165 22.4-30.733 34.133-55.49 35.627-7.683 0.427-16.86 0.213-20.489-0.853zM939.702 855.68c-10.459-2.56-28.598-13.44-34.148-20.053-2.988-3.627-7.897-11.307-11.098-17.28l-5.763-10.88-1.067-202.667c-1.067-196.905-1.28-202.879-5.335-212.693-4.696-10.879-17.074-29.44-19.634-29.44-1.067 0-3.416 4.694-5.337 10.24-14.725 41.173-64.24 61.014-105.431 42.24-10.67-4.907-20.275-13.439-64.027-57.387-54.85-55.253-64.668-67.84-77.472-99.84-12.38-30.933-13.019-39.893-13.019-187.732v-134.187h33.933l1.282 282.667 5.761 17.066c10.459 30.933 17.928 40.747 71.070 94.507 26.892 27.519 52.716 51.626 56.986 53.973 15.579 7.893 37.988 3.84 50.153-9.173 11.311-12.161 14.299-32.213 7.256-47.573-2.56-5.548-24.543-28.801-60.826-65.067-31.16-31.146-56.771-57.174-56.771-58.241 0-1.706 21.555-22.825 23.476-22.825 0.641 0 39.27 38.185 85.584 84.906 88.144 88.533 90.491 91.306 101.376 120.959 3.842 10.027 4.055 22.827 5.122 212.695 1.067 199.679 1.067 202.026 5.55 207.786 8.323 11.307 15.153 14.72 28.598 14.72s20.275-3.413 28.598-14.72c4.481-5.76 4.481-6.613 4.481-255.787v-250.026l-5.761-17.068c-10.885-32-17.074-39.68-85.371-109.013-56.984-57.6-64.24-65.706-70.429-78.932l-7.043-14.721-1.28-146.133h34.361v67.84c0 63.359 0.426 68.266 4.481 77.226 3.201 6.828 21.342 26.88 65.735 71.467 65.522 66.134 74.486 77.441 87.503 110.080 13.232 33.28 13.232 29.44 12.593 299.733l-0.641 245.12-5.761 10.88c-8.538 16-14.94 22.827-29.239 30.507-13.873 7.253-35.002 10.453-48.447 6.827zM308.181 804.48c-19.634-5.12-36.921-19.2-45.885-37.547-4.483-9.173-5.335-14.506-5.976-37.333-0.854-25.174-0.428-27.734 5.976-47.786 3.627-11.52 5.976-21.76 4.909-22.614-0.854-0.854-14.727-9.173-30.519-18.774-47.594-28.373-48.875-30.933-49.089-89.813 0-26.239 0.854-44.587 2.561-50.133 3.415-11.733 21.128-29.44 32.867-32.854 6.189-1.706 30.519-2.56 80.675-2.56h71.711v-11.946c0-6.613 1.067-16.001 2.56-20.906 3.414-11.735 21.129-29.44 32.868-32.854 6.402-1.921 35-2.56 101.589-2.56 106.924 0 106.498 0 121.864 17.066 10.459 11.733 14.299 21.973 14.299 39.254v11.946h72.139c84.089 0 86.436 0.428 101.376 17.068 5.122 5.546 10.457 14.080 11.737 18.772 1.708 5.333 2.562 23.894 2.562 49.707-0.213 58.88-1.495 61.44-49.089 89.813-15.792 9.601-29.665 17.92-30.519 18.774-1.067 0.854 1.28 11.094 4.909 22.614 6.402 20.052 6.83 22.399 5.976 47.786s-1.067 27.306-8.11 40.106c-7.684 14.72-16.861 23.253-32.014 30.72-14.086 6.827-41.83 6.613-56.558-0.427-13.658-6.613-26.464-19.413-33.079-33.067-4.483-9.173-5.337-14.506-5.976-37.333-0.854-25.174-0.428-27.734 5.976-47.786 3.627-11.52 5.976-21.76 4.909-22.614-3.629-3.201-35.002-21.334-36.923-21.334s-33.294 18.133-36.921 21.334c-1.067 0.854 1.28 11.094 4.909 22.614 6.402 20.052 6.828 22.399 5.974 47.786-0.852 25.387-1.067 27.306-8.11 40.106-7.682 14.72-16.859 23.253-32.012 30.72-14.086 6.827-41.83 6.613-56.558-0.427-13.66-6.613-26.464-19.413-33.081-33.067-4.481-9.173-5.335-14.506-5.976-37.333-0.852-25.174-0.426-27.734 5.976-47.786 3.629-11.52 5.976-21.76 4.909-22.614-3.627-3.201-35-21.334-36.921-21.334s-33.294 18.133-36.923 21.334c-1.067 0.854 1.28 11.094 4.909 22.614 6.402 20.052 6.83 22.399 5.976 47.786s-1.067 27.306-8.11 40.106c-11.739 22.187-30.306 34.133-55.278 35.627-7.682 0.427-16.859 0.213-20.488-0.853zM342.968 766.506c12.165-9.173 14.301-14.292 14.94-37.547 0.641-20.906 0.213-22.825-8.964-50.559-5.548-15.786-9.816-29.866-9.816-31.146 0-1.495 10.67-9.175 23.476-16.855 13.019-7.68 23.476-14.506 23.476-14.932 0-0.641-2.134-5.12-4.696-10.027-4.694-8.534-4.907-12.161-5.548-57.6l-0.641-48.64h-142.993l-5.122 5.333c-5.335 5.12-5.335 5.546-5.335 44.374 0 35.84 0.426 39.467 4.268 43.52 2.134 2.56 21.983 15.36 43.751 28.373 21.77 13.013 39.483 24.959 39.483 26.454 0 1.28-4.268 15.36-9.603 31.146-8.538 25.174-9.605 30.933-9.605 47.147 0 26.026 5.122 36.693 20.275 43.733 8.538 4.053 25.397 2.56 32.653-2.773zM530.782 766.506c12.165-9.173 14.299-14.292 14.94-37.547 0.639-20.906 0.213-22.825-8.964-50.559-5.55-15.786-9.818-29.866-9.818-31.146 0-1.495 17.715-13.441 39.483-26.454 21.77-13.013 41.617-25.813 43.751-28.373 4.055-4.268 4.27-7.893 4.27-77.654v-73.386l-5.337-5.12-5.122-5.333h-183.97l-5.122 5.333-5.337 5.12v73.386c0 69.761 0.213 73.386 4.268 77.654 2.136 2.56 21.983 15.36 43.753 28.373 21.768 13.013 39.483 24.959 39.483 26.454 0 1.28-4.27 15.36-9.605 31.146-8.536 25.174-9.603 30.933-9.603 47.147 0 26.026 5.122 36.693 20.275 43.733 8.536 4.053 25.397 2.56 32.653-2.773zM718.594 766.506c12.165-9.173 14.301-14.292 14.94-37.547 0.641-20.906 0.213-22.825-8.964-50.559-5.548-15.786-9.816-29.866-9.816-31.146 0-1.495 17.713-13.441 39.483-26.454 21.768-13.013 41.617-25.813 43.751-28.373 3.842-4.053 4.268-7.68 4.268-43.52 0-38.828 0-39.254-5.335-44.374l-5.122-5.333h-142.993l-0.641 48.64c-0.641 45.439-0.854 49.066-5.335 57.6-2.775 4.907-4.909 9.386-4.909 10.027 0 0.426 10.67 7.252 23.476 14.932 13.019 7.68 23.476 15.36 23.476 16.855 0 1.28-4.268 15.36-9.603 31.146-8.538 25.174-9.605 30.933-9.605 47.147 0 26.026 5.122 36.693 20.275 43.733 8.538 4.053 25.397 2.56 32.653-2.773z" />
<glyph unicode="&#xe935;" glyph-name="ico-4" d="M29.935 947.606c-10.395-5.884-9.807 24.909-10.003-498.954 0-532.494-0.785-495.228 11.179-500.328 4.119-1.57 69.038-2.158 252.026-1.765l246.732 0.588 5.297 5.491 5.491 5.295v172.203l-4.512 4.903c-6.668 7.062-14.318 7.845-27.457 2.747-8.435-3.138-15.3-4.315-27.851-4.315-14.709 0-18.241 0.783-29.812 6.275-15.886 7.453-28.636 20.006-36.284 35.501-4.903 10.003-5.491 13.141-5.491 31.772 0 18.83 0.392 21.574 5.688 31.971 18.239 35.695 55.308 50.011 94.927 36.478 12.945-4.51 19.613-3.53 26.084 3.335l4.708 5.1 1.177 144.743 470.516 0.98 5.295 5.491 5.491 5.297 0.588 246.732c0.394 182.989-0.195 247.908-1.765 252.027-5.1 11.964 32.166 11.179-500.326 11.179-400.498-0.196-487.776-0.588-491.699-2.746zM503.392 766.382l4.512-4.903c6.668-7.060 14.318-7.845 27.457-2.745 8.435 3.137 15.298 4.314 27.851 4.314 14.709 0 18.241-0.784 29.812-6.276 15.886-7.453 28.634-20.006 36.284-35.501 4.903-10.001 5.491-13.139 5.491-31.772 0-18.828-0.392-21.574-5.688-31.969-18.239-35.695-55.308-50.013-94.927-36.481-12.945 4.512-19.613 3.53-26.086-3.335l-4.706-5.098-1.177-144.745h-109.245l0.197 19.221c0 40.992-17.653 73.746-52.172 96.497-15.298 10.198-32.36 15.689-52.758 17.063-21.966 1.568-37.657-1.568-57.661-11.376-26.674-13.139-47.072-36.087-57.075-64.723-4.119-11.963-5.099-18.436-5.295-35.499l-0.196-21.183h-108.852v443.255h443.058l1.177-144.744zM984.891 467.872h-443.253v109.442l19.221-0.197c40.99 0 73.744 17.653 96.495 52.172 10.2 15.298 15.691 32.36 17.065 52.758 1.568 21.966-1.57 37.657-11.376 57.663-13.141 26.673-36.087 47.070-64.723 57.073-11.963 4.119-18.436 5.099-35.499 5.295l-21.183 0.196v108.852h443.253v-443.255zM312.754 555.347c35.695-18.241 50.013-55.505 36.481-94.929-4.512-12.945-3.53-19.613 3.335-26.084l5.098-4.708 144.745-1.177v-109.245h-19.418c-31.577 0-55.111-9.021-77.471-29.81-22.751-21.38-33.931-44.719-35.892-74.923-1.373-21.769 1.568-37.657 11.18-57.466 12.945-27.066 37.657-48.443 67.076-58.053 11.376-3.727 18.436-4.708 34.519-4.708h20.006v-108.851h-443.254v443.057l144.744 1.177 4.903 4.512c7.060 6.668 7.845 14.318 2.745 27.459-6.080 15.886-6.080 40.599 0.197 54.326 6.865 14.906 13.73 23.929 24.321 31.577 16.083 11.768 25.301 14.709 46.678 13.926 16.083-0.394 20.398-1.373 30.007-6.080zM752.477 369.612c-64.526-6.865-122.972-47.857-152-106.695-13.926-28.242-17.848-43.737-19.026-76.688-0.783-21.183-0.392-31.184 2.158-44.128 14.709-74.138 66.879-129.642 141.605-151.217 13.338-3.923 20.006-4.512 47.857-4.512s34.519 0.588 47.855 4.512c53.543 15.495 96.103 48.64 121.209 94.535 17.651 32.36 24.122 61.191 22.554 100.81-1.177 32.951-5.1 48.445-19.024 76.688-29.812 60.408-87.082 99.83-155.14 106.89-10.983 0.982-20.398 1.767-21.181 1.767-0.588-0.197-8.238-0.982-16.868-1.962zM753.457 314.107c0-8.826 0.982-19.024 2.158-22.359 5.688-16.28 29.224-16.28 34.91 0 1.177 3.335 2.158 13.533 2.158 22.751v16.474l7.453-1.177c18.828-3.333 47.267-15.101 60.603-25.104 6.082-4.706 6.082-4.706 2.55-9.415-5.491-7.256-6.275-12.945-3.138-20.592 5.297-12.75 20.203-15.3 31.186-5.297 3.138 2.747 3.923 2.941 5.491 0.394 14.318-22.948 18.239-30.598 22.163-43.149 2.55-8.041 5.1-17.848 5.885-21.968l1.371-7.060-20.986-0.785c-20.004-0.588-20.986-0.785-25.496-6.080-5.1-5.885-6.277-16.28-2.55-23.339 3.333-6.277 13.924-9.415 32.166-9.415 9.218 0 16.671-0.785 16.671-1.57 0-0.98-1.767-8.433-3.727-16.474-3.923-14.709-11.573-32.36-21.38-48.052l-5.098-8.041-5.885 4.118c-13.73 9.808-31.577 1.767-31.577-14.121 0-5.491 1.373-9.218 4.903-12.945 4.512-4.903 4.512-4.903 0.785-7.845-12.945-9.806-43.345-22.359-65.899-27.262l-5.491-1.177v16.671c0 21.183-3.138 29.419-12.748 33.342-6.082 2.747-7.65 2.747-13.73 0-9.612-3.923-12.75-12.159-12.75-33.342v-16.671l-5.295 1.177c-22.751 4.708-53.152 17.456-65.899 27.066-3.53 2.747-3.53 3.138 0.785 8.826 13.924 18.83-7.65 40.010-26.871 26.281l-5.883-4.118-5.1 8.041c-9.806 15.691-17.456 33.342-21.378 48.052-1.962 8.041-3.727 15.495-3.727 16.474 0 0.785 7.453 1.57 16.671 1.57 18.239 0 28.831 3.138 32.166 9.415 3.727 7.060 2.548 17.454-2.55 23.339-4.512 5.295-5.491 5.491-25.498 6.080l-20.986 0.785 1.373 7.060c3.727 20.594 13.73 45.11 24.124 59.231 2.745 3.727 5.098 7.256 5.491 7.65 0.392 0.392 2.156-0.588 3.921-2.353 10.397-9.218 24.909-7.258 30.989 4.51 3.727 7.062 2.747 13.533-2.941 21.771l-3.923 5.295 7.453 4.903c11.376 7.453 25.498 14.123 39.619 18.633 28.439 9.023 27.457 9.415 27.457-10.198zM763.854 261.544c-8.826-4.315-10.395-12.159-10.395-50.993 0-40.010 0.98-43.737 11.766-49.034 7.062-3.727 37.462-4.903 50.798-2.353 8.826 1.765 15.886 9.61 15.886 17.848 0 13.924-8.433 20.201-27.457 20.201h-11.768v24.713c0 18.241-0.785 26.477-2.941 31.186-4.708 9.61-15.691 13.336-25.889 8.433z" />
<glyph unicode="&#xe936;" glyph-name="ico-5" horiz-adv-x="1065" d="M64.485 942.567c-30.16-7.8-53.248-30.4-61.152-59.8-2.912-10.4-3.328-51.2-3.328-354 0-374-0.624-353.2 11.856-375.4 7.488-13.4 22.88-26.599 39.728-34.2l13.936-6.4 367.121-0.999v-46h-275.393l-11.648-10.801v-48.8c0-29.6 0.832-50.201 2.080-52.599 5.824-10.402-14.976-9.802 384.801-9.802s378.974-0.6 384.799 9.802c1.249 2.398 2.081 22.999 2.081 52.599v48.8l-11.649 10.801h-275.39v46l367.118 0.999 13.937 6.4c25.793 11.6 43.889 33.401 49.504 59.199 1.456 7.201 2.081 114.201 1.663 356.401l-0.623 345.999-4.368 10.2c-9.777 23-27.664 40.4-50.129 49.2l-12.063 4.6-460.72 0.4c-400.608 0.4-462.176 0-472.16-2.6zM998.613 900.167c8.112-4 12.896-8.2 17.471-15.4 5.618-8.8 6.24-11.4 6.865-30.4l0.831-20.6h-296.192c-277.264 0-296.192-0.4-300.351-3.6-10.609-8.2-11.856-19.4-3.121-28.8l6.033-6.6 593.215-1v-530.001h-981.76v530.001h78.832c52.208 0 80.912 0.8 85.28 2.2 13.312 4.4 16.847 22 6.656 32l-6.031 5.8h-165.153l0.832 20.6c0.624 19 1.248 21.6 6.864 30.4 4.576 7.2 9.36 11.4 17.472 15.4l11.024 5.6h910.207l11.024-5.6zM1023.365 205.167c0-16.4-0.625-20.001-5.616-29.6-3.953-7-8.944-12.8-14.768-16.8l-9.153-6.001h-922.688l-9.152 6.001c-5.824 4-10.816 9.8-14.56 16.8-5.2 9.599-5.824 13.199-5.824 29.6v18.6h981.76v-18.6zM590.725 65.767h-116.48v46h116.48v-46zM877.765-16.232h-690.559v41.998h690.559v-41.998zM306.389 831.367c-6.24-3-11.647-14.4-9.984-21.4 1.456-6.4 8.112-13 15.184-15.2 7.281-2 18.721 2.6 22.258 9 9.984 18.6-8.112 36.6-27.458 27.6zM213.83 710.367c-2.912-1.8-6.447-5.401-7.696-7.999-1.456-3-2.288-23.001-2.288-53.801 0-52.001 1.040-57.999 10.193-62.8 2.703-1.401 106.912-2.001 318.448-2.001s315.744 0.6 318.448 2.001c9.153 4.801 10.191 10.799 10.191 62.8 0 33.8-0.831 50.6-2.494 54.2-5.409 11.6 13.312 11-326.56 11-287.457-0.201-313.041-0.399-318.241-3.4zM819.526 623.768h-574.079v50h574.079v-50zM214.454 502.966c-10.192-5.399-10.401-7-10.609-88.599v-76.601l6.031-6.4 6.033-6.599 79.247-0.6c69.263-0.401 80.081-0.201 85.697 2.599 12.063 6.199 12.478 9.2 11.856 92.4l-0.625 75-6.863 5.8-6.656 5.8h-79.665c-61.985-0.199-80.497-0.799-84.447-2.8zM351.525 363.766h-106.078v102.001h106.078v-102.001zM450.118 503.767c-11.231-4.2-11.231-4.801-11.231-88.601 0-49.4 0.831-79 2.079-81.601 5.409-9.398 9.361-9.8 91.521-9.8s86.112 0.401 91.519 9.8c1.249 2.601 2.081 32 2.081 81.201 0 49.199-0.831 78.6-2.081 81.199-5.407 9.4-9.359 9.8-91.935 9.601-42.641 0-79.665-0.801-81.953-1.8zM584.485 363.766h-103.999v102.001h103.999v-102.001zM679.75 499.966l-6.865-5.8-0.623-75c-0.625-83.2-0.209-86.2 11.856-92.4 5.616-2.8 16.431-3 85.697-2.599l79.247 0.6 6.031 6.599 6.031 6.4v76.001c0 54.6-0.623 77.199-2.494 80.998-4.993 10.801-7.281 11-92.977 11h-79.247l-6.656-5.8zM819.526 363.766h-106.080v102.001h106.080v-102.001z" />
</font>
</defs>
</svg>
