<svg xmlns="http://www.w3.org/2000/svg" width="122.085" height="85.848" viewBox="0 0 122.085 85.848">
  <path id="arrow-1" d="M49.787,48.866a.38.38,0,0,1,0-.536.376.376,0,0,1,.533,0,.38.38,0,0,1,0,.536.376.376,0,0,1-.533,0ZM22.226,44.895c-5.367-4.372-9.954-9.934-14.738-14.923-3.381-3.525-10.529-8.851-6.064-14.2C3.231,13.6,6.319,12.638,8.81,11.4l9.138-4.517q4.571-2.256,9.158-4.474C30.062.983,32.574-.78,35.913.377c1.953.675,3.686,2.792,2.912,5-1.712,4.935-7.494,6.4-11.9,8.53-5.045,2.434-10.1,4.791-15.127,7.213-.052.025-.134.07-.238.131l.382.514a2.238,2.238,0,0,1,3.27-1.094c21.233,10.492,44,10.019,63.57,5.99,5.518-1.14,14.359-3.157,22.344-6.737,10.515-4.711,15.629,4.709,4.881,9.036a121.185,121.185,0,0,1-46.466,8.3c-14.661-.177-30.628-2.545-44.564-11.438q.74.981,1.483,1.959C19.884,32.287,23.7,36.7,26.519,41.6c1.209,2.132-.539,3.955-2.445,3.956A2.908,2.908,0,0,1,22.226,44.895Z" transform="translate(0.001 40.124) rotate(-21)" fill="#ffec00"/>
</svg>
