<svg xmlns="http://www.w3.org/2000/svg" width="218" height="78.309" viewBox="0 0 218 78.309">
  <g id="child-logo" transform="translate(-982)">
    <g id="Group_54958" data-name="Group 54958" transform="translate(-342 -9.35)">
      <g id="clipboard" transform="translate(1284.292 -25.528)">
        <g id="_ffffffff" data-name="#ffffffff" transform="translate(41.781 53.357)">
          <path id="Path_6078" data-name="Path 6078" d="M99.13,74.319a3.3,3.3,0,0,1,5.9-1.754,3.346,3.346,0,0,1,.672,2.1c0,1.8-.007,3.6.005,5.4a1.118,1.118,0,0,0,1.513,1.036c2.213-.8,4.4-1.66,6.606-2.484a21.73,21.73,0,0,1,3.528-1.159,7.375,7.375,0,0,1,4.993.809,7,7,0,0,1,2.92,3.122,4.32,4.32,0,0,1,.453,1.976c-.006,1.8.006,3.594-.006,5.392a7.138,7.138,0,0,1-6.3,7.024c-.608.059-1.217.041-1.826.044q-9.851,0-19.7,0c-1.024.062-2.049.015-3.074.03q-14.2,0-28.393,0a7.069,7.069,0,0,1-6.64-4.862,6.993,6.993,0,0,1-.363-2.246q-.007-2.2,0-4.4a7.228,7.228,0,0,1,2.2-5.124,8.157,8.157,0,0,1,2.2-1.408,2.532,2.532,0,0,1,1.927-.244,18.358,18.358,0,0,0-.583,3.268,9.334,9.334,0,0,0,9.4,9.519,7.821,7.821,0,0,0,2.466-.322c3.47-1.178,6.952-2.32,10.425-3.491a1.154,1.154,0,0,0-.075-2.155,1.337,1.337,0,0,0-.943.083c-3.155,1.076-6.319,2.131-9.479,3.2a7.686,7.686,0,0,1-3.068.4,7.084,7.084,0,0,1-4.6-2.294,7.227,7.227,0,0,1-.534-8.988,7.492,7.492,0,0,1,4.137-2.768c2.3-.743,4.614-1.47,6.914-2.223a3.133,3.133,0,0,1,2.948.388A3,3,0,0,1,83.8,75.523a2.893,2.893,0,0,1-1.414,1.683c-.786.373-1.61.656-2.406,1a1.122,1.122,0,0,0-.244,1.712,1.19,1.19,0,0,0,1.26.292c2.04-.786,4.089-1.557,6.126-2.352a7.417,7.417,0,0,1,3.16-.606,7.519,7.519,0,0,1,3.921,1.41,6.634,6.634,0,0,1,2.542,3.58c.128.563-.039,1.259.438,1.694a1.129,1.129,0,0,0,1.61,0,1.771,1.771,0,0,0,.335-1.465c-.007-2.717,0-5.436,0-8.153m19.144,9.049c-2.43.913-4.849,1.854-7.274,2.782a1.163,1.163,0,0,0-.625,1.654,1.132,1.132,0,0,0,1.348.494q3.62-1.393,7.243-2.779a1.21,1.21,0,0,0,.791-1.183A1.119,1.119,0,0,0,118.274,83.368Z" transform="translate(-59.41 -71.278)" fill="#fff" stroke="#fff" stroke-width="2"/>
          <path id="Path_6079" data-name="Path 6079" d="M706.8,73.9a3.371,3.371,0,0,1,2.7.467,3.265,3.265,0,0,1,1.427,2.656c.014,1.837,0,3.675.009,5.511a1.126,1.126,0,0,0,.706,1.055,1.334,1.334,0,0,0,1.037-.072c2.061-.773,4.119-1.555,6.18-2.332a16.609,16.609,0,0,1,4.4-1.32,7.14,7.14,0,0,1,7.2,3.928,4.506,4.506,0,0,1,.5,2.022c0,1.8,0,3.6,0,5.4a7.118,7.118,0,0,1-7.15,7.1q-10.673.01-21.346,0a1.134,1.134,0,0,0-1.141.757c-.279.956-.51,1.928-.807,2.88a2.884,2.884,0,0,1-3.46,1.766,2.851,2.851,0,0,1-2.077-2.6,5.311,5.311,0,0,1,.249-1.436,1.177,1.177,0,0,0-1.137-1.369c-1.1-.008-2.192,0-3.287,0a7.076,7.076,0,0,1-7.079-7.1c-.007-1.87,0-3.741,0-5.611a3.031,3.031,0,0,1,1.938-2.841c2.25-.828,4.5-1.656,6.753-2.471a7.036,7.036,0,0,1,5.917.407,7.145,7.145,0,0,1,3.571,4.785,1.465,1.465,0,0,0,.569,1.093,1.237,1.237,0,0,0,1.9-.984c.014-2.934,0-5.868.008-8.8A3.273,3.273,0,0,1,706.8,73.9M694.471,85.9c-1.2.445-2.383.916-3.571,1.379a1.147,1.147,0,0,0-.707,1.29,1.108,1.108,0,0,0,1.488.822c1.193-.468,2.394-.917,3.593-1.367a1.121,1.121,0,0,0,.773-1.228,1.174,1.174,0,0,0-1.576-.9m28.933,0q-3.259,1.26-6.524,2.5a6.924,6.924,0,0,0-.914.381,1.151,1.151,0,0,0-.281,1.641,1.122,1.122,0,0,0,1.236.386c2.437-.935,4.878-1.862,7.311-2.805a1.184,1.184,0,0,0,.669-1.53A1.139,1.139,0,0,0,723.4,85.9Z" transform="translate(-614.999 -73.53)" fill="#fff" stroke="#fff" stroke-width="2"/>
        </g>
        <g id="QalamOnline_4_" data-name="QalamOnline (4)" transform="translate(39.708 51.184)">
          <path id="Path_6069" data-name="Path 6069" d="M-10.8,14.035a1.2,1.2,0,0,0,1.135,1.177,1.166,1.166,0,0,0,1.135-1.177V5.5A3.246,3.246,0,0,1-5.253,2.269,3.246,3.246,0,0,1-1.976,5.5v5.5a1.054,1.054,0,0,0,.5.924,1.231,1.231,0,0,0,1.261.042l8.194-3.11a7.635,7.635,0,0,1,7.228.714c1.3.882,2.773,2.815,2.773,4.5v5.547a7.066,7.066,0,0,1-7.1,7.1H-9.665A1.157,1.157,0,0,0-10.8,27.86a1.157,1.157,0,0,0,1.135,1.135H10.883a9.379,9.379,0,0,0,9.371-9.371V14.077c0-2.479-1.849-5-3.74-6.345a9.74,9.74,0,0,0-9.16-1.008L.293,9.371V5.5A5.533,5.533,0,0,0-5.253,0,5.533,5.533,0,0,0-10.8,5.5v8.53m22.1,2.4a1.152,1.152,0,0,0,.672-1.471,1.113,1.113,0,0,0-1.471-.63L3.277,17.1A1.152,1.152,0,0,0,2.6,18.573a1.113,1.113,0,0,0,1.471.63L11.3,16.43" transform="translate(99.899 0.252)" fill="#08de6f"/>
          <path id="Path_6070" data-name="Path 6070" d="M21.725-29.415l-.462,1.765a4.895,4.895,0,0,1-1.849,2.689,4.928,4.928,0,0,1-3.068,1.051,5.079,5.079,0,0,1-3.614-1.513,5.079,5.079,0,0,1-1.513-3.614v-.378H9.329a9.341,9.341,0,0,1-6.6-2.731A9.366,9.366,0,0,1,0-38.785v-5.589a5.173,5.173,0,0,1,3.362-4.874l6.555-2.479a10.124,10.124,0,0,1,3.53-.672,9.441,9.441,0,0,1,6.639,2.731,9.675,9.675,0,0,1,2.605,5.127v.21A1.157,1.157,0,0,1,21.557-43.2a1.125,1.125,0,0,1-1.093-.966,6.91,6.91,0,0,0-2.017-3.866,6.911,6.911,0,0,0-5-2.1,7.537,7.537,0,0,0-2.731.546l-6.6,2.437a3.014,3.014,0,0,0-1.849,2.773v5.589a7.222,7.222,0,0,0,2.059,5.042,7.2,7.2,0,0,0,5,2.059h3.32a1.035,1.035,0,0,1,.8.378,1.094,1.094,0,0,1,.294,1.008l-.126.5a2.379,2.379,0,0,0-.126.756,2.857,2.857,0,0,0,.84,2.017,2.857,2.857,0,0,0,2.017.84,2.846,2.846,0,0,0,1.723-.588,2.824,2.824,0,0,0,1.008-1.471l.714-2.605a1.133,1.133,0,0,1,1.093-.84h.672a1.13,1.13,0,0,1,1.135,1.135,1.051,1.051,0,0,1-.966,1.135m-8.7-14.665a1.132,1.132,0,0,1,1.471.63,1.1,1.1,0,0,1-.63,1.471l-3.614,1.387a1.1,1.1,0,0,1-1.471-.63,1.169,1.169,0,0,1,.63-1.471l3.614-1.387" transform="translate(68.509 58.661)" fill="#08de6f"/>
          <path id="Path_6071" data-name="Path 6071" d="M-10.8,14.035a1.2,1.2,0,0,0,1.135,1.177,1.166,1.166,0,0,0,1.135-1.177V5.5A3.246,3.246,0,0,1-5.253,2.269,3.246,3.246,0,0,1-1.976,5.5v5.5a1.054,1.054,0,0,0,.5.924,1.231,1.231,0,0,0,1.261.042l8.194-3.11a7.635,7.635,0,0,1,7.228.714c1.3.882,2.773,2.815,2.773,4.5v5.547a7.066,7.066,0,0,1-7.1,7.1H-9.665A1.157,1.157,0,0,0-10.8,27.86a1.157,1.157,0,0,0,1.135,1.135H10.883a9.379,9.379,0,0,0,9.371-9.371V14.077c0-2.479-1.849-5-3.74-6.345a9.74,9.74,0,0,0-9.16-1.008L.293,9.371V5.5A5.533,5.533,0,0,0-5.253,0,5.533,5.533,0,0,0-10.8,5.5v8.53m22.1,2.4a1.152,1.152,0,0,0,.672-1.471,1.113,1.113,0,0,0-1.471-.63L3.277,17.1A1.152,1.152,0,0,0,2.6,18.573a1.113,1.113,0,0,0,1.471.63L11.3,16.43" transform="translate(50.403 0)" fill="#08de6f"/>
          <path id="Path_6072" data-name="Path 6072" d="M60.737,28.423a1.114,1.114,0,1,0,0-2.227H29.371a7.053,7.053,0,0,1-5.042-2.1,6.878,6.878,0,0,1-1.723-2.857,6.664,6.664,0,0,1-.336-2.227V14.85a7.054,7.054,0,0,1,.294-2.1,7.3,7.3,0,0,1,1.765-3.025,7.417,7.417,0,0,1,2.983-1.765c.966-.294,1.278.039,1.278.039A17.047,17.047,0,0,0,28,11.34a9.379,9.379,0,0,0,13.068,8.614l9.126-3.045a1.143,1.143,0,1,0-.8-2.143l-9.126,3.087a7.769,7.769,0,0,1-2.9.588,7.1,7.1,0,0,1-2.4-13.783L42.584,2.2a3.127,3.127,0,0,1,2.143-.042A2.922,2.922,0,0,1,46.45,3.673a3.027,3.027,0,0,1-.21,2.983,2.767,2.767,0,0,1-1.471,1.135l-1.807.714a1.1,1.1,0,0,0-.63,1.471,1.169,1.169,0,0,0,1.471.63l6.345-2.437a6.993,6.993,0,0,1,3.824-.42,7.555,7.555,0,0,1,2.857,1.219A7.087,7.087,0,0,1,58.8,11.027a4.693,4.693,0,0,1,.8,2.479,1.135,1.135,0,0,0,2.269,0,6.341,6.341,0,0,0-.966-3.32,9.242,9.242,0,0,0-2.773-3.068,9.091,9.091,0,0,0-8.824-1.051l-.462.168a5.3,5.3,0,0,0-.126-3.025A5.274,5.274,0,0,0,41.828.1L34.172,2.516C30.565,3.953,29.827,5.48,29.827,5.48s-.449-.307-2.15,0a9.442,9.442,0,0,0-4.945,2.647,9.283,9.283,0,0,0-2.4,4.118A9.053,9.053,0,0,0,20,14.85v4.16a10,10,0,0,0,.294,2.479,9.556,9.556,0,0,0,2.437,4.244,9.285,9.285,0,0,0,6.093,2.689,3.614,3.614,0,0,0,.672.042l29.876-.04,1.365,0" transform="translate(-20 0.571)" fill="#08de6f"/>
        </g>
      </g>
      <text id="مهد_مجازی_بچـه_ها" data-name="مهد مجازی بچـه‌ها" transform="translate(1444 75.35)" fill="#29c07b" font-size="16" font-family="Borna-Regular, Borna"><tspan x="-119.52" y="0">مهد مجازی بچـه‌ها</tspan></text>
    </g>
    <g id="logo-pic" transform="translate(1118.851)">
      <path id="Union_191" data-name="Union 191" d="M45.514,73.465a24.046,24.046,0,0,1-18.66-1.023q-1.131-.558-2.177-1.137c-.069.43-.138.953-.234,1.476-.237,1.264-.642,2.53-1.615,2.514-4.28-.083-12.081-5.316-12.618-6.2-.662-1.088,1.982-4.926,5.5-4.6-5.326-5.7-7.225-12.419-7.079-19.728a30.226,30.226,0,0,1,.249-3.4C5.018,39.015.061,33.324,0,31.25c-.123-4.363,3.642-3.143,3.642-3.143s-3.139-5.973-.907-9.249,5.372.639,5.372.639c-.409-2.873,6.019-9.438,11.3-7.931,4.4,1.252,4.7,4.22,4.776,5.354C30.19,11.3,38.9,6.029,48.656,9.291l.015-.047a10.373,10.373,0,0,1,2.047.667c.773-2.816,1.009-5.744,2.02-7.371,1.884-3.042,5.1-3.119,6.746-1.459a8.45,8.45,0,0,1,2.346,5.29c.167-.088.337-.169.51-.246,5.091-2.1,11,3.211,12.454,9.844s-5.1,13.365-9.6,8.507a7.832,7.832,0,0,0-2.954-2.1c3.788,10.663-.7,23.516-2.536,27.988a25.256,25.256,0,0,0,9.928-2.075c5.65-2.278,8.168-2.083,10.089,0,4.194,4.559-1.547,14.765-8.158,14.038,0,0,2.668,3.016.6,5.837s-9.624-1.6-9.624-1.6.18,3.237-2.827,3.143a3.788,3.788,0,0,1-2.054-1.32,2.447,2.447,0,0,1-.173,1.259,41.093,41.093,0,0,1-6.122,7.692.659.659,0,0,1-.413.123C49.682,77.465,46.937,75.161,45.514,73.465ZM57.627,55.054a4,4,0,0,1-.77-.475c-.014.157-.027.314-.038.472.115-.005.231-.008.353-.008C57.32,55.043,57.471,55.047,57.627,55.054ZM14.351,29.018c.46-.65.933-1.312,1.417-2a.034.034,0,0,1,0-.009s.611-1,1.737-2.527A13.328,13.328,0,0,0,14.351,29.018Z" transform="translate(0 0.844)" opacity="0.1"/>
      <path id="Union_190" data-name="Union 190" d="M45.008,72.649a23.779,23.779,0,0,1-18.452-1.012q-1.118-.552-2.153-1.124c-.068.426-.137.942-.232,1.459-.234,1.25-.635,2.5-1.6,2.486C18.342,74.376,10.628,69.2,10.1,68.33c-.655-1.076,1.96-4.871,5.435-4.553-5.266-5.64-7.145-12.281-7-19.509a29.891,29.891,0,0,1,.246-3.359C4.963,38.582.06,32.954,0,30.9c-.122-4.315,3.6-3.108,3.6-3.108s-3.1-5.906-.9-9.146,5.312.632,5.312.632c-.4-2.841,5.952-9.333,11.178-7.843,4.351,1.238,4.645,4.173,4.723,5.295,5.934-5.56,14.552-10.77,24.2-7.544l.015-.047a10.258,10.258,0,0,1,2.024.66c.764-2.784,1-5.68,2-7.289C54.015-.5,57.2-.572,58.822,1.069A8.356,8.356,0,0,1,61.142,6.3c.165-.087.333-.167.5-.244,5.035-2.076,10.878,3.175,12.316,9.735S68.915,29.009,64.469,24.2a7.745,7.745,0,0,0-2.921-2.072c3.746,10.545-.7,23.254-2.507,27.677a24.975,24.975,0,0,0,9.818-2.052c5.588-2.253,8.078-2.06,9.977,0,4.147,4.509-1.53,14.6-8.067,13.882,0,0,2.639,2.983.6,5.772s-9.517-1.584-9.517-1.584.178,3.2-2.8,3.108a3.746,3.746,0,0,1-2.031-1.305,2.42,2.42,0,0,1-.171,1.245A40.637,40.637,0,0,1,50.8,76.483a.652.652,0,0,1-.408.122C49.13,76.6,46.415,74.326,45.008,72.649ZM56.987,54.443a3.952,3.952,0,0,1-.762-.47c-.013.155-.027.311-.037.467.114-.005.229-.008.349-.008C56.683,54.432,56.833,54.436,56.987,54.443ZM14.192,28.7c.455-.643.922-1.3,1.4-1.981a.033.033,0,0,1,0-.009s.6-.985,1.718-2.5A13.18,13.18,0,0,0,14.192,28.7Z" fill="#fff"/>
      <g id="Group_54984" data-name="Group 54984" transform="translate(3.617 2.818)">
        <path id="Fill-419" d="M0,4.865c5.4,2.425,11.27,3.5,13.5,7s5.253,2.416,6.283-1.3C21.208,5.419,16.867-.51,11.943.035,8.472.505,5.014,2.649,1.192,2.348Z" transform="matrix(0.961, -0.276, 0.276, 0.961, 45.221, 10.134)" fill="#ff003b" fill-rule="evenodd"/>
        <path id="Fill-421" d="M0,9.71C4.829,9.825,11.561,6.2,9.3.565,9.045-.224,7.592-.148,6.682.554c-2.51,2.168-2.668,6.182-6,7.064Z" transform="matrix(0.961, -0.276, 0.276, 0.961, 44.341, 3.179)" fill="#ff003b" fill-rule="evenodd"/>
        <path id="Fill-423" d="M1.568.018A80.154,80.154,0,0,0,10.193.006a1.387,1.387,0,0,1,.746.362c.518.577.587,1.5.052,1.67a64.15,64.15,0,0,1-9.106.851,2.035,2.035,0,0,1-1.778-1.2C-.288.714.455-.136,1.568.018" transform="translate(39.954 61.044) rotate(45)" fill="#34ff97" fill-rule="evenodd"/>
        <path id="Fill-425" d="M4.319,7.82C3.854,7.664,1.607,6.6.35,3.123S1.566-.366,2.374.427s2.2,4.862,2.647,5.988-.238,1.561-.7,1.405" transform="translate(50.495 62.181) rotate(60)" fill="#34ff97" fill-rule="evenodd"/>
        <path id="Fill-427" d="M.685,2.218C2.048,3.212,6.032,7.16,7.2,8.378a1.632,1.632,0,0,0,.824.3c.807,0,1.524-.549,1.24-1.038A70.276,70.276,0,0,0,2.988.6,2.352,2.352,0,0,0,.781.1c-1,.346-1.048,1.424-.1,2.119" transform="translate(17.016 56.463) rotate(45)" fill="#34ff97" fill-rule="evenodd"/>
        <path id="Fill-429" d="M9.033.493C8.59.262,6.423-.721,2.549.975S.05,4.637,1.279,4.643,6.987,2.6,8.269,2.088,9.477.724,9.033.493" transform="translate(12.252 61.248) rotate(45)" fill="#34ff97" fill-rule="evenodd"/>
        <path id="Union_189" data-name="Union 189" d="M24.16,55.521C11.58,49.348,8.012,41.1,8.213,31.18a28.678,28.678,0,0,1,.616-5.6C5.228,24.742.035,19.467,0,18.256c-.052-1.9,4.037-1.189,4.037-1.189s-4.4-7.051-2.6-8.837,4.636,4.155,4.636,4.155C4.848,7.141,10.782-.354,15.189,1.15c5.58,1.9-1.7,6.931-2.878,16.42.579-.9,1.206-1.809,1.874-2.758C16.172,11.992,39.326-3.814,47.407.858h0c8.083,4.675,5.026,33.1,4.109,36.49a13.815,13.815,0,0,0-.382,2.583,10.51,10.51,0,0,1,1.668.094,23.79,23.79,0,0,0,11.925-1.806c4.534-1.75,7.3-3.5,8.291.277,1.177,4.506-6.732,9.876-11.873,8.266,0,0,5.718,3.259,3.8,4.928s-8.623-3.236-8.623-3.236.406,4.13-1.483,3.938c-.78-.079-3.1-2.439-4.794-5.084a15.25,15.25,0,0,1-2.966,5.015C44.05,55.82,39.007,57.7,33.727,57.7A21.82,21.82,0,0,1,24.16,55.521Z" transform="translate(0 10.178)" fill="#08de6f"/>
        <path id="Fill-433" d="M43.391,23.819S34.869-4.729,14.619.682,1.059,34.28,1.059,34.28s7.4,13.1,24.746,8.463S43.391,23.819,43.391,23.819" transform="translate(37.676 0) rotate(45)" fill="#08de6f" fill-rule="evenodd"/>
        <path id="Fill-435" d="M41.731,23.97S32.924-4.521,13.683.621,1.122,34.468,1.122,34.468,7.916,45.3,24.4,40.9,41.731,23.97,41.731,23.97" transform="translate(37.371 2.306) rotate(45)" fill="#fff" fill-rule="evenodd"/>
        <path id="Fill-437" d="M5.133,5.7C2.231,6.408,0,2.1,0,2.1A13.234,13.234,0,0,1,3.959.476,11.833,11.833,0,0,1,8.512.066S7.885,5.035,5.133,5.7" transform="translate(45.287 7.59) rotate(45)" fill="#fa0" fill-rule="evenodd"/>
        <path id="Fill-439" d="M20.669,14.746c2.534,9.482.19,18.345-5.235,19.795S3.555,29.479,1.021,20,.832,1.652,6.257.2,18.135,5.264,20.669,14.746" transform="translate(39.608 12.508) rotate(45)" fill="#ffec00" fill-rule="evenodd"/>
        <path id="Fill-441" d="M0,7.978S6.057,11.84,11.076,9.663C16.448,7.334,16.269,0,16.269,0s2.157,6.077,2,10.44c-.131,3.536-1.955,6.911-5.123,8.027C5.54,21.144.236,8.192,0,7.978" transform="translate(32.771 21.764) rotate(45)" fill="#ff003b" fill-rule="evenodd"/>
        <path id="Fill-447" d="M.022,1.412C.306.623,2.611-.289,3.323.087c.744.391.4,3.111-.595,3.473C1.779,3.907-.232,2.118.022,1.412" transform="translate(30.714 36.84) rotate(45)" fill="#ff6090" fill-rule="evenodd"/>
        <path id="Fill-449" d="M.045,6.129c.319,3.222,2.241,5.706,4.293,5.547S7.8,8.776,7.477,5.554,5.237-.151,3.185.007-.273,2.907.045,6.129" transform="translate(25.495 15.767) rotate(45)" fill="#08de6f" fill-rule="evenodd"/>
        <path id="Fill-451" d="M3.3,9.3C4.885,9.154,6,6.954,5.786,4.388S4.108-.139,2.518.008-.188,2.356.026,4.923,1.705,9.45,3.3,9.3" transform="translate(25.113 17.698) rotate(45)" fill="#fff" fill-rule="evenodd"/>
        <path id="Fill-453" d="M5.619,3.249C6.2,5.41,5.466,7.49,3.969,7.9S.786,6.877.2,4.716.354.474,1.85.069s3.184,1.019,3.769,3.18" transform="translate(24.982 18.706) rotate(45)" fill="#41250b" fill-rule="evenodd"/>
        <path id="Fill-455" d="M2.306.867A1.173,1.173,0,1,1,.867.041,1.173,1.173,0,0,1,2.306.867" transform="translate(24.505 19.847) rotate(45)" fill="#fff" fill-rule="evenodd"/>
        <path id="Fill-457" d="M1.362.512A.693.693,0,1,1,.512.024a.692.692,0,0,1,.849.487" transform="translate(23.488 24.406) rotate(45)" fill="#fff" fill-rule="evenodd"/>
        <path id="Fill-459" d="M7.5,3.946C8.854,6.889,8.448,10,6.6,10.9S2.147,10.142.8,7.2-.146,1.142,1.706.244,6.154,1,7.5,3.946" transform="translate(49.987 30.007) rotate(45)" fill="#08de6f" fill-rule="evenodd"/>
        <path id="Fill-461" d="M5.311,8.592C3.863,9.267,1.79,7.929.681,5.605S-.154.849,1.294.175s3.521.663,4.63,2.987.835,4.756-.613,5.43" transform="translate(49.401 31.818) rotate(45)" fill="#fff" fill-rule="evenodd"/>
        <path id="Fill-463" d="M.2,4.716C.786,6.877,2.473,8.3,3.969,7.9S6.2,5.41,5.619,3.249,3.347-.336,1.85.069-.385,2.554.2,4.716" transform="translate(48.757 32.353) rotate(45)" fill="#41250b" fill-rule="evenodd"/>
        <path id="Fill-465" d="M.041,1.48A1.173,1.173,0,1,0,.867.041,1.174,1.174,0,0,0,.041,1.48" transform="translate(49.646 34.277) rotate(45)" fill="#fff" fill-rule="evenodd"/>
        <path id="Fill-467" d="M.024.874A.693.693,0,1,0,.512.024.692.692,0,0,0,.024.874" transform="translate(46.809 37.791) rotate(45)" fill="#fff" fill-rule="evenodd"/>
      </g>
    </g>
  </g>
</svg>
