<svg id="close-menu" xmlns="http://www.w3.org/2000/svg" width="44" height="44" viewBox="0 0 44 44">
  <rect id="Rectangle_179" data-name="Rectangle 179" width="32" height="32" transform="translate(5.099 4)" fill="none"/>
  <g id="Group_44146" data-name="Group 44146" transform="translate(-1884.926 -357.631)">
    <path id="Union_90" data-name="Union 90" d="M4.487,33.644c-1.01-1.371-6.7-5.434-3.526-8.561l7.3-6.765L2.333,12.7C-.931,9.65-.459,6.727,1.835,4.712S6.717-.553,9.981,2.492l7.8,7.006,8.707-8.069c3.182-3.117,3.411-.352,4.905.916a5.968,5.968,0,0,1,0,8.518l-5.273,6.129,5.8,5.208c3.266,3.045,1.688,8.572,0,10.579s-4.523,3.6-7.795.556l-6.648-6.3L11.115,34.42a4.39,4.39,0,0,1-3.037,1.494C6.4,35.914,5.145,34.531,4.487,33.644Z" transform="translate(1890.725 361.467)" opacity="0.3"/>
    <path id="Union_89" data-name="Union 89" d="M4.487,33.644c-1.01-1.371-6.7-5.434-3.526-8.561l7.3-6.765L2.333,12.7C-.931,9.65-.459,6.727,1.835,4.712S6.717-.553,9.981,2.492l7.8,7.006,8.707-8.069c3.182-3.117,3.411-.352,4.905.916a5.968,5.968,0,0,1,0,8.518l-5.273,6.129,5.8,5.208c3.266,3.045,1.688,8.572,0,10.579s-4.523,3.6-7.795.556l-6.648-6.3L11.115,34.42a4.39,4.39,0,0,1-3.037,1.494C6.4,35.914,5.145,34.531,4.487,33.644Z" transform="translate(1889.247 359.032)" fill="#fff"/>
    <path id="Union_88" data-name="Union 88" d="M2.51,26.051c-.815-1.112-3.9-3.127-1.306-5.665L8.688,13.6,2.24,7.618C-.354,5.071-.468,3.161.746,2.124s1.729-2.334,4.325.2L13.094,9.6l8.01-7.27C23.692-.21,23.2-.463,24.411.567s1.1,2.953-1.484,5.492l-6,7.014L25,20.386c2.6,2.538.452,4.049-.366,5.156s-1.729,1.38-4.316-1.167l-7.278-6.749L6.826,24.89c-1.461,1.431-2.381,1.97-3.057,1.97A1.594,1.594,0,0,1,2.51,26.051Z" transform="translate(1893.642 363.739)"/>
  </g>
  <rect id="Rectangle_5596" data-name="Rectangle 5596" width="44" height="44" fill="none"/>
</svg>
