<svg id="contact-logo" xmlns="http://www.w3.org/2000/svg" width="209.227" height="310.126" viewBox="0 0 209.227 310.126">
  <ellipse id="Ellipse_596" data-name="Ellipse 596" cx="95.5" cy="13" rx="95.5" ry="13" transform="translate(6.694 284.126)" opacity="0.2"/>
  <g id="Group_55069" data-name="Group 55069" transform="translate(0 0)">
    <path id="Union_194" data-name="Union 194" d="M108.514.119c-1.56.022-2.894.057-3.694.057-6.893,0-10.636,3.2-12.253,5.108a12.477,12.477,0,0,0-2.978,7.525l-.044.336.013.879c.009.318.1,5.488.517,11.895-1.736.345-3.433.72-5.086,1.144a106.753,106.753,0,0,0-15.832,5.523C64.734,24.2,59.825,16.358,59.538,15.9l-.376-.6-.46-.552a11.982,11.982,0,0,0-5.24-3.614,47.711,47.711,0,0,0-4.427-2.019C46.8,8.205,44.175,7.26,41.422,6.35c-7.127-2.324-12.43-3.508-15.757-3.508A15.2,15.2,0,0,0,15.6,6.681a14.277,14.277,0,0,0-4.918,9.491A14.541,14.541,0,0,0,15.71,28.354a27.676,27.676,0,0,0,10.9,5.687,90.748,90.748,0,0,0,12.262,2.881C40.441,40.4,42.2,44.429,43.64,47.9A80.844,80.844,0,0,0,26.611,66.111a52.557,52.557,0,0,0-6.884,14.882,41.191,41.191,0,0,0-1.1,16.835c.84,5.771,1.865,11.427,3.1,17.127a71.33,71.33,0,0,0-7.918,8.024C8.865,128.86,2.551,138.289.6,149.822a41.4,41.4,0,0,0,1.63,20.48,51.888,51.888,0,0,0,13.419,20.29,42.229,42.229,0,0,0,15.014,9.337,46.035,46.035,0,0,0,15.655,2.8,38.781,38.781,0,0,0,7.812-.769A104.048,104.048,0,0,0,74.305,222.72c8.5,6.553,16.172,11.188,23.454,14.179A50.741,50.741,0,0,0,117.28,241c.521,0,1.056,0,1.573-.027a126.155,126.155,0,0,0,.163,23.277c.981,8.912,3.19,16.349,6.553,22.12,4.723,8.108,11.837,13.172,20.573,14.634a40.418,40.418,0,0,0,6.623.57c12.284,0,21.563-6.672,24.824-17.847,2.063-7.07,1.547-15.439-1.467-23.564a43.9,43.9,0,0,0-5.3-10.066,24.149,24.149,0,0,0,5.713-3.588,18.813,18.813,0,0,0,6.818-13.468,18.18,18.18,0,0,0-3.963-12.1,18.784,18.784,0,0,0-4.5-4.087c.049-.057.1-.106.146-.163,5.66-6.738,10.362-15.182,14.36-25.822,10.238-27.236,6.752-54.062,4.251-67.34a43.868,43.868,0,0,0,4.626-3.535,33.483,33.483,0,0,0,7.816-9.867,28.128,28.128,0,0,0,3-15.107,37.353,37.353,0,0,0-8.7-21.4,20.8,20.8,0,0,0,2.563-4.865,15.027,15.027,0,0,0,.663-8.2,17,17,0,0,0-2.788-6.447c-3.46-5.006-9.005-8.117-13.039-9.84a42.408,42.408,0,0,0-16.313-3.473,30.388,30.388,0,0,0-6.6.7,57.376,57.376,0,0,0-6.964-5.112A73.2,73.2,0,0,0,143.094,29.4c-2.3-.791-4.684-1.5-7.114-2.125a14.612,14.612,0,0,0,6.526-9.725,14.142,14.142,0,0,0-2.068-10.057,14.921,14.921,0,0,0-7.092-5.841C130.739.636,127.143,0,117.294,0,114.143,0,111.024.071,108.514.119Zm-3.694,10.53c2.267,0,7.4-.177,12.474-.177,5.2,0,10.331.186,12.24.941a4.227,4.227,0,0,1,2.709,3.765,4.227,4.227,0,0,0-2.709-3.765c-1.909-.756-7.043-.941-12.24-.941-5.073,0-10.207.177-12.474.177-3.4,0-4.737,1.423-4.759,2.642C100.083,12.072,101.422,10.649,104.82,10.649Zm-79.641,2.7a3.085,3.085,0,0,1,.486-.035c3.261,0,12.2,2.7,18.275,5.051-6.4-2.47-16-5.333-18.761-5.015-1.953.221-4.061,1.913-4.074,4.039C21.118,15.262,23.226,13.57,25.179,13.349Zm74.86.486c.013-.075.022-.155.044-.239-.022.084-.031.164-.044.239Zm10.375,20.741c-1-4.816-2.063-11.1-2.775-15.717.711,4.617,1.772,10.9,2.775,15.717,19.866.124,40.876,6.124,51.91,19.155C151.29,40.7,130.28,34.7,110.414,34.576Zm4.273-14.131a44.975,44.975,0,0,0,5.872.256q-.477.013-.941.013A43.2,43.2,0,0,1,114.687,20.445ZM50.674,21.47a1.551,1.551,0,0,0-1.228-.557,1.551,1.551,0,0,1,1.228.557s9.42,15.014,13.609,25.2A101.966,101.966,0,0,1,87.609,37.2a84.413,84.413,0,0,1,13.777-2.28A84.413,84.413,0,0,0,87.609,37.2a101.966,101.966,0,0,0-23.326,9.465C60.095,36.485,50.674,21.47,50.674,21.47Zm-7.238,5.448a22.294,22.294,0,0,0,2.364.053c-.2.013-.424.013-.65.013C44.634,26.985,44.064,26.962,43.437,26.918Zm12.8,24.7C40.816,62.082,28.754,76.522,28.7,91.947,28.754,76.522,40.816,62.082,56.237,51.618Zm132.116,4.8c3.734,2.545,5.9,5.7,4.79,8.665C194.252,62.126,192.083,58.971,188.354,56.421Zm10.291,39.4c-1.44-18.368-18.77-24.448-18.77-24.448s17.33,6.08,18.77,24.448c.035.455.053.906.057,1.348C198.7,96.728,198.68,96.277,198.644,95.822Zm-16.773,22.19a.053.053,0,0,0-.009-.027.053.053,0,0,1,.009.027c.561,3.38,3.955,16.2,3.964,32.813C185.826,134.215,182.433,121.393,181.871,118.012ZM33.5,119.36c-4.343,2.024-23.021,17.931-23.021,37.58C10.478,137.291,29.156,121.384,33.5,119.36ZM39.8,154.78a18.651,18.651,0,0,1,4.286,1.794A18.651,18.651,0,0,0,39.8,154.78Zm6.906,15.982a28.262,28.262,0,0,0,2.925,1.949A28.262,28.262,0,0,1,46.711,170.762Zm-23.759,12.31a33.933,33.933,0,0,0,29.309,8.577,28.458,28.458,0,0,1-5.956.6A33.949,33.949,0,0,1,22.952,183.072ZM81.1,214.718c18.077,13.861,29.8,16.495,39.326,15.664q-1.524.139-3.142.141C108.3,230.524,97.238,227.095,81.1,214.718Zm85.111,9.646a8.293,8.293,0,0,1,6.685,7.777,8.293,8.293,0,0,0-6.685-7.777,13.285,13.285,0,0,0-3.111-.353A13.03,13.03,0,0,1,166.208,224.364Zm-18.978-.146Zm9.915.685a23.439,23.439,0,0,1-5.307.9A23.439,23.439,0,0,0,157.145,224.9Zm-26.383,4.485a153.7,153.7,0,0,0-1.882,23.083,153.7,153.7,0,0,1,1.882-23.083Zm25.292,20.719a34.788,34.788,0,0,1-13.795-16.667c3.354,5.121,8.934,10.127,17.741,8.9a19.07,19.07,0,0,1-2.642.19c-7.3,0-12.1-4.5-15.1-9.089a34.788,34.788,0,0,0,13.795,16.667c14.356,9.146,19.5,40.991-3.287,40.991a30.018,30.018,0,0,1-4.9-.433,29.967,29.967,0,0,0,4.9.433C175.553,291.1,170.405,259.253,156.054,250.107Z" transform="translate(209.227 306.429) rotate(180)" opacity="0.1"/>
    <path id="Union_193" data-name="Union 193" d="M94.336.172c-3.681,0-4.944,1.675-4.732,2.952-.018.08-.035.155-.049.239,0,0,.2,11.3,1.352,21.081A84.4,84.4,0,0,0,77.13,26.733,101.375,101.375,0,0,0,53.808,36.2c-4.193-10.189-13.618-25.2-13.618-25.2a1.574,1.574,0,0,0-1.224-.561C35.838,8.214,18.579,2.421,14.7,2.868c-3.91.446-8.44,6.778,4.454,10.662,8.183,2.457,13.229,3.071,16.168,2.965,2.47,5.143,8.793,19.208,10.432,24.651-16.861,11.444-29.72,27.647-27.232,44.7,1.255,8.63,2.832,16.225,4.5,23.034-6.186,2.881-41.345,33.847-10.556,63.716,10.879,10.569,28.1,11.069,35.238,6.226a95.52,95.52,0,0,0,22.526,25.124c18.3,14.117,30.108,16.8,39.714,15.96a56.465,56.465,0,0,0,10.331-.99c-1.935,12.266-7.317,57.19,17.109,61.273,28.328,4.741,23.489-30.807,8.192-40.563a34.7,34.7,0,0,1-13.79-16.667c3.34,5.121,8.93,10.136,17.727,8.9,16.994-2.386,15.151-15.88,6.217-17.979-3.327-.782-6.31-.119-9.071.539-3.628.875-6.858,1.741-9.915-.685a41.009,41.009,0,0,0,5.669-3.022c9.65-4.834,19.11-13.808,26.7-34.01,11.97-31.845,3.208-63.549,2.276-69.165a.056.056,0,0,0,0-.027c1.785-.711,17.917-7.52,16.782-22.164C186.729,66.977,169.395,60.9,169.395,60.9s10.044,2.324,13.265-6.288c3.186-8.475-20.524-18.558-30.82-11.36C140.811,30.219,119.8,24.218,99.93,24.095c-1-4.812-2.059-11.1-2.77-15.713a36.392,36.392,0,0,0,13.433,1.834c14.056-.4,12.248-7.812,8.462-9.283C117.145.181,112.01,0,106.81,0,101.737,0,96.6.172,94.336.172ZM30.712,135.559c.526,1.759,1.03,3.464,1.493,5.134.283,1.03.725,2.894,1.41,5.4a18.545,18.545,0,0,0-4.29-1.785A43.637,43.637,0,0,1,30.712,135.559Zm5.519,24.731a10.71,10.71,0,0,0,2.289.411c.208.508.415,1.016.632,1.533A30.743,30.743,0,0,1,36.231,160.29Z" transform="translate(197.277 289.671) rotate(180)" fill="#08de6f"/>
    <path id="Union_193_-_Outline" data-name="Union 193 - Outline" d="M86.467,285.671c-5.2,0-10.335-.181-12.244-.932-3.787-1.471-5.594-8.881,8.462-9.283a36.393,36.393,0,0,1,13.433,1.834c-.711-4.613-1.772-10.9-2.77-15.713-19.866-.124-40.881-6.124-51.91-19.159-10.3,7.2-34.006-2.885-30.82-11.36,3.221-8.612,13.265-6.288,13.265-6.288S6.548,218.694,5.108,200.321c-1.136-14.643,15-21.452,16.782-22.164a.056.056,0,0,1,0-.027c-.932-5.616-9.694-37.32,2.276-69.165,7.591-20.2,17.051-29.176,26.7-34.01a41.01,41.01,0,0,1,5.669-3.022c-3.058-2.426-6.288-1.56-9.915-.685-2.762.658-5.744,1.321-9.071.539-8.934-2.1-10.777-15.593,6.217-17.979,8.8-1.233,14.387,3.782,17.727,8.9A34.7,34.7,0,0,0,47.7,46.045C32.4,36.289,27.563.741,55.891,5.482,80.317,9.565,74.935,54.489,73,66.755a56.463,56.463,0,0,1,10.331-.99c9.606-.84,21.413,1.843,39.714,15.96A95.52,95.52,0,0,1,145.57,106.85c7.136-4.843,24.36-4.343,35.238,6.226,30.789,29.87-4.37,60.835-10.556,63.716,1.67,6.809,3.248,14.4,4.5,23.034,2.488,17.051-10.37,33.254-27.232,44.7,1.639,5.444,7.962,19.508,10.432,24.651,2.938-.106,7.984.508,16.168,2.965,12.893,3.884,8.364,10.216,4.454,10.662-3.88.446-21.139-5.347-24.267-7.565a1.574,1.574,0,0,1-1.224-.561s-9.425-15.014-13.618-25.2a101.376,101.376,0,0,1-23.321,9.465,84.408,84.408,0,0,1-13.777,2.289c1.153,9.783,1.352,21.081,1.352,21.081-.013.084-.031.159-.049.239.212,1.277-1.052,2.952-4.732,2.952-2.267,0-7.4.172-12.474.172m73.194-146.093c.685,2.505,1.127,4.37,1.41,5.4.464,1.67.968,3.376,1.493,5.134a43.634,43.634,0,0,0,1.387-8.749,18.544,18.544,0,0,1-4.29-1.785m-5.536-16.141c.216.517.424,1.025.632,1.533a10.708,10.708,0,0,1,2.289.411,30.742,30.742,0,0,0-2.921-1.944M86.467,294.72c3.132,0,6.241-.063,8.74-.113,1.565-.032,2.917-.059,3.734-.059,6.315,0,9.7-2.882,11.157-4.6a11.051,11.051,0,0,0,2.638-6.711l.047-.3-.014-.79c-.006-.34-.114-6.143-.6-13.092q3.212-.577,6.237-1.357a105.522,105.522,0,0,0,16.839-5.993c4.538,8.775,9.877,17.3,10.176,17.781l.326.519.393.47a10.6,10.6,0,0,0,4.755,3.247,82.082,82.082,0,0,0,11.881,4.711c6.986,2.283,12.14,3.441,15.317,3.441a13.127,13.127,0,0,0,1.518-.084,14.077,14.077,0,0,0,7.6-3.4,12.914,12.914,0,0,0,4.442-8.546,13.156,13.156,0,0,0-4.574-10.995,26.254,26.254,0,0,0-10.344-5.372,87.168,87.168,0,0,0-12.826-2.957c-1.795-3.945-3.915-8.783-5.521-12.724a80.1,80.1,0,0,0,17.567-18.543,50.809,50.809,0,0,0,6.7-14.474,39.647,39.647,0,0,0,1.06-16.26c-.873-6-1.948-11.89-3.262-17.849a70.037,70.037,0,0,0,8.407-8.429c4.834-5.741,10.994-14.939,12.888-26.162a39.929,39.929,0,0,0-1.569-19.77c-2.394-7-6.789-13.642-13.064-19.73A40.731,40.731,0,0,0,172.6,97.561a44.619,44.619,0,0,0-15.166-2.709,37.138,37.138,0,0,0-8.413.929,102.758,102.758,0,0,0-20.448-21.219c-8.393-6.474-15.954-11.049-23.118-13.988a49.369,49.369,0,0,0-18.978-4c-1.033,0-2.085.037-3.135.11a127.92,127.92,0,0,0-.018-24.631c-.961-8.706-3.1-15.96-6.366-21.559C72.454,2.765,65.684-2.055,57.382-3.443A38.87,38.87,0,0,0,51-4,24.833,24.833,0,0,0,35.644.752a22.983,22.983,0,0,0-8.107,12.067C25.559,19.6,26.07,27.65,28.976,35.486a40.86,40.86,0,0,0,6.207,11.176,23.6,23.6,0,0,0-7.032,4.062,17.354,17.354,0,0,0-6.323,12.447,16.732,16.732,0,0,0,3.65,11.158,17.708,17.708,0,0,0,5.58,4.612q-.629.7-1.243,1.432C24.249,86.988,19.629,95.3,15.69,105.783,5.338,133.323,9.207,160.5,11.681,173.3a41.781,41.781,0,0,0-5.257,3.917,32.043,32.043,0,0,0-7.487,9.449,26.622,26.622,0,0,0-2.852,14.35A35.954,35.954,0,0,0,5.2,222.466a19.516,19.516,0,0,0-3.057,5.421A14.2,14.2,0,0,0,4.1,241.23c3.272,4.726,8.566,7.688,12.43,9.341a41.085,41.085,0,0,0,15.751,3.353,28.974,28.974,0,0,0,6.994-.821,55.03,55.03,0,0,0,7.335,5.461,71.119,71.119,0,0,0,14.52,6.829,90.726,90.726,0,0,0,10.7,2.951q-.862.35-1.655.764a13.617,13.617,0,0,0-7.519,9.74,12.747,12.747,0,0,0,1.866,9.041,13.493,13.493,0,0,0,6.427,5.284C73.324,294.1,76.893,294.72,86.467,294.72Z" transform="translate(4 4)" fill="#fff"/>
    <g id="下载中心-呱呱" transform="translate(9.048 9.045)">
      <g id="编组-4备份" transform="translate(0 0)">
        <g id="编组" transform="translate(0 0)">
          <path id="Fill-1" d="M119.1,119.994s-18.149,6.732-16.939,22.227c1.433,18.374,18.772,24.452,18.772,24.452s-10.044-2.319-13.27,6.29c-4.192,11.184,38.418,25.163,35.258-1.436-1.7-14.329-18.39-47.849-23.821-51.534" transform="translate(-102.1 53.05)" fill="#08de6f" fill-rule="evenodd"/>
          <path id="Fill-3" d="M119.155,64.783S130.9,5.17,102.578.432,79.088,31.243,94.387,40.995a34.8,34.8,0,0,1,16.027,25.794Z" transform="translate(-51.742 0)" fill="#ff003b" fill-rule="evenodd"/>
          <path id="Fill-5" d="M123.329,52.412s-5.016-20.926-22.011-18.54S86.166,49.748,95.107,51.85s15.452-6.228,21.544,3.084Z" transform="translate(-62.612 14.891)" fill="#ff003b" fill-rule="evenodd"/>
          <path id="Fill-7" d="M32.914,166.711c1.336,5.053,8.57,21.088,10.887,25.858a4.442,4.442,0,0,1-.159,2.688c-1.091,2.274-3.811,3.637-4.987,2.241,0,0-10.092-16.091-14.03-26.258a6.566,6.566,0,0,1,1.4-6.83c2.453-2.4,5.96-1.23,6.895,2.3" transform="translate(109.369 72.13)" fill="#34ff97" fill-rule="evenodd"/>
          <path id="Fill-9" d="M9.852,183.834c1.331-.87,6.445-1.583,19.344,2.293s8.364,10.209,4.458,10.659-21.363-5.422-24.335-7.609c-4.017-2.956-.8-4.473.533-5.343" transform="translate(139.871 80.971)" fill="#34ff97" fill-rule="evenodd"/>
          <path id="Fill-11" d="M62.4,175.713c1.618,4.629,4.281,21.288,4.939,26.352a3.563,3.563,0,0,0,1.58,1.892c2.127.971,5.11.192,5.33-1.618,0,0-.331-18.58-2.556-28.717a5.318,5.318,0,0,0-4.834-4.15,4.551,4.551,0,0,0-4.459,6.241" transform="translate(24.42 74.922)" fill="#34ff97" fill-rule="evenodd"/>
          <g id="Group_54893" data-name="Group 54893" transform="translate(66.468 270.386)">
            <path id="Fill-13" d="M31.766,6.415c-1.08-1.2-6.541-6.661-20.586-6.26S-1.064,7.973,2.717,9.445s20.124.758,24.716.758,5.415-2.583,4.333-3.788" transform="translate(-0.017 -0.134)" fill="#34ff97" fill-rule="evenodd"/>
          </g>
          <path id="Fill-15" d="M30.23,209.3c-8.8-24.738-10.415-34.784-13.631-54.1-.934-5.611-9.7-37.316,2.273-69.161s28.564-35.8,43.272-39.6h0C75.762,42.92,88.433,36.167,117.765,58.8s36.362,57.252,38.024,63.242c3.79,13.654,10.054,29.935,13.681,54.862,3.929,27-30.6,51.868-58.615,59.1s-71.11.043-80.626-26.7" transform="translate(0.23 17.885)" fill="#08de6f" fill-rule="evenodd"/>
          <path id="Fill-17" d="M160.012,121.282s-3.659-28.815-24.725-51.958c-14.549-15.99-41.819-30-67.045-23.468-59.921,15.505-43.5,102.957-43.5,102.957s23.5,42.008,79.43,27.627,55.84-55.158,55.84-55.158" transform="translate(-6.398 22.446)" fill="#fff" fill-rule="evenodd"/>
          <path id="Fill-19" d="M94.833,60.1c-8.965,1.827-22.205-8.622-22.205-8.622s5.687-4.115,17.672-7.316,20.276-1.72,20.276-1.72S103.8,58.278,94.833,60.1" transform="translate(-27.09 18.614)" fill="#fa0" fill-rule="evenodd"/>
          <path id="Fill-21" d="M113.863,108.019c8.76,34.09,2.325,65.262-14.376,69.622s-37.34-19.737-46.1-53.827S51.061,58.553,67.761,54.192s37.341,19.738,46.1,53.827" transform="translate(-0.897 23.733)" fill="#ffec00" fill-rule="evenodd"/>
          <path id="Fill-23" d="M56.839,109.083s15.64,6.664,26.507,3.546c10.284-2.952,19.031-15.792,19.031-15.792S101,124.351,86.285,128.312C72.571,132,56.839,109.083,56.839,109.083" transform="translate(3.878 42.812)" fill="#ff003b" fill-rule="evenodd"/>
          <path id="Fill-25" d="M36.6,97.846q1.009-.543,2.021-1.082a1.147,1.147,0,0,1-.241-.457c-2.151-5.988-2.255-12.413-.293-16.679,1.665-3.62,4.231-5.222,7.217-3.489,2.356,1.368,4.622,4.733,6,8.913l3.119-1.692c.208-.114-.611-2.768-.692-3.047a18.238,18.238,0,0,0-1.49-3.579,14.933,14.933,0,0,0-4.059-5.02c-2.563-1.873-5.259-1.3-7.437.073a12.558,12.558,0,0,0-4.929,6.878A27.386,27.386,0,0,0,35.1,91q.05.336.106.672a50.558,50.558,0,0,0,1.4,6.176" transform="translate(79.11 31.179)" fill="#08de6f" fill-rule="evenodd"/>
          <path id="Fill-27" d="M121.652,107.69q-1.19.154-2.378.313a1.313,1.313,0,0,0,.04-.552c-.427-6.611-2.988-12.324-6.628-14.847-3.09-2.141-6.2-1.946-8.337,1.447-1.682,2.675-3.112,7.76-1.49,14.1q-1.84.229-3.681.463c-.245.03-1.114-5.324-1.151-5.621a19.433,19.433,0,0,1-.06-4.078,18.7,18.7,0,0,1,1.8-6.952,8.2,8.2,0,0,1,7.13-4.585,10.247,10.247,0,0,1,7.555,2.964,22.321,22.321,0,0,1,5.8,10.388q.092.327.177.657a48.134,48.134,0,0,1,1.225,6.3" transform="translate(-74.596 38.624)" fill="#08de6f" fill-rule="evenodd"/>
          <g id="Group_54894" data-name="Group 54894" transform="translate(137.246 98.857)">
            <path id="Fill-29" d="M27.813,73.085c-5.591,2.379-15.722-3.773-10.335-18.021,8.407-22.239,1.949-26.885-5.629-31.847C7.344,20.256,2.4,15.478.574,11.124-4.325-.575,23.3-5.463,38.512,9.3c31.032,30.114-4.94,61.332-10.7,63.783" transform="translate(0 -0.132)" fill="#08de6f" fill-rule="evenodd"/>
          </g>
          <path id="Fill-31" d="M30.673,87.919s-11.961-8.345-14.439-2.947c-2.375,5.175,5.219,11.822,11.789,14.307,1.7.662,3.775.877,4.9.072,4.014-2.862,3.453-5.491-2.253-11.433" transform="translate(129.934 36.763)" fill="#08de6f" fill-rule="evenodd"/>
        </g>
      </g>
    </g>
  </g>
</svg>
