<svg xmlns="http://www.w3.org/2000/svg" width="23.725" height="23.729" viewBox="0 0 23.725 23.729">
  <path id="Eita" d="M8.072,23.11h0A11.893,11.893,0,0,1,.884,16.372h0A11.884,11.884,0,0,1,7.318.9L7.344.89l.11-.045L7.493.829,7.577.8C7.6.789,7.621.78,7.646.771a0,0,0,0,0,0,0c.145-.056.292-.108.44-.158h0a11.932,11.932,0,0,1,7.543,0h0A11.893,11.893,0,0,1,20.9,4.178l.029.037c.02.022.037.044.058.065a.389.389,0,0,0,.041.054c.015.02.031.038.047.058s.036.041.052.062.025.034.039.051.039.047.059.072.024.03.034.044.042.055.062.082.021.024.029.037c.025.033.05.068.077.1a.068.068,0,0,0,.011.016A11.871,11.871,0,0,1,16.7,22.7l-.011,0-.126.056c-.008,0-.018.008-.028.013-.035.015-.068.03-.105.045l-.048.02-.078.031-.075.03c-.016.008-.035.013-.051.02-.032.013-.064.027-.1.038a.011.011,0,0,0-.008,0c-.138.053-.281.1-.422.15h0a11.9,11.9,0,0,1-7.575,0ZM13.313,2.738a7.159,7.159,0,0,0-2.247.685,12,12,0,0,0-4.451,3.73,13.518,13.518,0,0,0-2.474,5.583,8.473,8.473,0,0,0,.39,4.728,5.9,5.9,0,0,0,2.3,2.723,8.016,8.016,0,0,0,6.9.744A9.727,9.727,0,0,0,17.19,18.6a32.314,32.314,0,0,0,3.159-3.915,23.87,23.87,0,0,1,1.537-1.98,5.608,5.608,0,0,1,.65-.641c0-.067,0-.135,0-.2a10.836,10.836,0,0,0-.084-1.342,10.718,10.718,0,0,0-1.482,1.32,43.515,43.515,0,0,1-3.406,3.367A8.4,8.4,0,0,1,14.826,16.8a5.353,5.353,0,0,1-2.67.17c-.244-.048-.479-.123-.723-.186a4.049,4.049,0,0,0-.38,1.061,6.232,6.232,0,0,0-.169,1.308,3.473,3.473,0,0,1-2.02-1.087A3.616,3.616,0,0,1,7.8,15.344,3.959,3.959,0,0,1,6.468,13.55a3.071,3.071,0,0,1,.053-1.978A5.6,5.6,0,0,1,7.9,9.534a9.516,9.516,0,0,1,3.595-2.163,6.658,6.658,0,0,1,3.446-.284,3.608,3.608,0,0,1,2.109,1.3,1.7,1.7,0,0,1,.307.527.82.82,0,0,1-.206.683,3.19,3.19,0,0,1-.954.754,8.2,8.2,0,0,1-2.4.839,5.966,5.966,0,0,1-2.1.068,1.846,1.846,0,0,1-1.251-.717,1.757,1.757,0,0,1-.115-1.379,2.381,2.381,0,0,0-1.285,1.12,2.253,2.253,0,0,0-.263,1.63,2.175,2.175,0,0,0,.763,1.141,3.649,3.649,0,0,0-.881,1.8A3.106,3.106,0,0,0,9,16.789a3.506,3.506,0,0,0,1.272,1.346,4.2,4.2,0,0,1,.826-2.289,5.773,5.773,0,0,1,1.733-1.43c1.277-.74,2.685-1.225,3.963-1.979a4.663,4.663,0,0,0,1.936-2.316,6.515,6.515,0,0,0,.394-2.39,5.629,5.629,0,0,0-.316-1.9,4.537,4.537,0,0,0-1.991-2.395,5.423,5.423,0,0,0-2.774-.743A5.536,5.536,0,0,0,13.313,2.738Z" fill="#ff8100"/>
</svg>
