<svg id="g-button" xmlns="http://www.w3.org/2000/svg" width="268.078" height="61.613" viewBox="0 0 268.078 61.613">
  <path id="Path_100453" data-name="Path 100453" d="M2.546,53.293c1.856,5.364,36.041,3.689,52.6,3.865,59.9.633,134.414,1.026,193.682-1.775,6.378-.3,11.886-.266,15.223-1.493,3.2-1.178,3.205-17.3,2.9-23.692s-1.706-24.938-1.706-24.938a5.682,5.682,0,0,0-4.21-2.879c-2.18-.4-14.9-1.391-50.733-1.854S178.472-.05,116.335.018,14.1-.06,5.446,1.412C3.027,1.824-.365,3.38.032,11.882S1.183,49.354,2.546,53.293Z" transform="translate(1 4)" opacity="0.3"/>
  <path id="Path_100449" data-name="Path 100449" d="M1.681,53.293c1.855,5.364,36.023,3.689,52.573,3.865,59.869.633,134.345,1.026,193.583-1.775,6.375-.3,11.88-.266,15.215-1.493,3.2-1.178,3.2-17.3,2.9-23.692s-1.705-24.938-1.705-24.938a5.679,5.679,0,0,0-4.208-2.879C257.861,1.98,246.87.99,211.06.526S177.517-.05,115.412.018,14.091-.06,5.443,1.412C3.026,1.824-.365,3.38.032,11.882S.319,49.354,1.681,53.293Z" transform="translate(0 0)"/>
  <path id="Path_99970" data-name="Path 99970" d="M1,45.062c1.8,4.644,2.555,4.778,18.615,4.929,58.1.548,165.331.621,222.814-1.8,6.186-.261,11.528-.23,14.764-1.292,1-2.245,1.106-15.043.812-20.58S256.773,3.7,256.773,3.7a5.451,5.451,0,0,0-4.083-2.492C250.576.861,238.19.594,203.441.192s-31.2-.059-91.469,0S13.575.435,5.183,1.71C2.837,2.066-.353,3.1.032,10.464S-.318,41.652,1,45.062Z" transform="translate(3.078 3.387)" fill="#bfffde"/>
</svg>
