<svg id="google-play" xmlns="http://www.w3.org/2000/svg" width="157.501" height="36.761" viewBox="0 0 157.501 36.761">
  <g id="Group_55040" data-name="Group 55040">
    <g id="DESKTOP">
      <g id="_x21_-design-to-developers-_x28_Desktop_x29_">
        <g id="splash-screen">
          <path id="googlePlayBadge" d="M637.042,753.648a4.054,4.054,0,0,1,2.862,1.1l.11.11h.11v-.991h2.421v10.346c0,4.293-2.531,6.054-5.5,6.054a5.634,5.634,0,0,1-5.063-3.192l-.11-.22,2.2-.88a3.151,3.151,0,0,0,2.862,2.091c1.871,0,2.972-1.1,3.082-3.082v-1.1h-.11a4.054,4.054,0,0,1-3.082,1.321,5.714,5.714,0,0,1-5.5-5.723A6.082,6.082,0,0,1,637.042,753.648Zm57.233.33,2.972,7.374h.11l2.862-7.374h2.862l-6.934,16.069H693.5l2.531-5.723-4.513-10.346h2.752ZM563.189,752l5.283,5.283-19.481,11.006a2.505,2.505,0,0,1-2.091.33l-.22-.11Zm-17.17-17.39,16.51,16.73-16.51,16.73a2.36,2.36,0,0,1-.44-1.321V736.258A2.653,2.653,0,0,1,546.019,734.607Zm107.532,19.041a5.177,5.177,0,0,1,4.843,3.522l.11.11.22.66-7.7,3.192a2.843,2.843,0,0,0,2.752,1.761,3.29,3.29,0,0,0,2.752-1.431l.11-.22,1.981,1.321a5.725,5.725,0,0,1-4.843,2.531,5.725,5.725,0,0,1-.22-11.447Zm-56.573-6.384a8.841,8.841,0,0,1,5.943,2.2l.22.22-1.761,1.761a6.217,6.217,0,0,0-4.4-1.761,6.494,6.494,0,1,0,4.513,11.227,4.983,4.983,0,0,0,1.321-2.752v-.33h-5.833v-2.421h8.255a6.77,6.77,0,0,1,.11,1.541,8.4,8.4,0,0,1-2.091,5.723,8.2,8.2,0,0,1-6.274,2.531,8.972,8.972,0,1,1,0-17.941Zm14.969,6.384a5.733,5.733,0,0,1,5.833,5.833,5.8,5.8,0,0,1-5.833,5.833,5.733,5.733,0,0,1-5.833-5.833A5.8,5.8,0,0,1,611.947,753.648Zm12.657,0a5.733,5.733,0,0,1,5.833,5.833,5.8,5.8,0,0,1-5.833,5.833,5.733,5.733,0,0,1-5.833-5.833A5.8,5.8,0,0,1,624.6,753.648Zm61.636,0c2.862,0,5.063,1.541,5.173,4.4v6.824h-2.421v-1.321h-.11a3.543,3.543,0,0,1-3.192,1.651c-2.2,0-4.182-1.431-4.182-3.742,0-2.531,2.421-3.852,4.953-3.852a6.666,6.666,0,0,1,2.531.55l.11.11v-.22a2.391,2.391,0,0,0-2.642-2.2,2.236,2.236,0,0,0-2.2,1.1l-.11.22-2.2-.991C682.5,754.419,684.369,753.648,686.24,753.648Zm-6.274-5.723v16.95h-2.531v-16.95Zm-33.019,0v16.95h-2.531v-16.95Zm23.444,0a5.288,5.288,0,1,1,.33,10.566h-3.742v6.384h-2.531v-16.95h5.943Zm-58.444,8.035a3.529,3.529,0,1,0,3.3,3.522A3.366,3.366,0,0,0,611.947,755.959Zm25.315,0a3.539,3.539,0,0,0,0,7.044c1.761,0,3.082-1.431,3.082-3.522A3.264,3.264,0,0,0,637.262,755.959Zm-12.657,0a3.529,3.529,0,1,0,3.3,3.522A3.366,3.366,0,0,0,624.6,755.959Zm61.966,3.742c-1.211,0-2.642.55-2.642,1.761,0,.991,1.211,1.431,1.981,1.431a2.977,2.977,0,0,0,2.972-2.642A4.474,4.474,0,0,0,686.571,759.7Zm-32.909-3.742a3.12,3.12,0,0,0-2.972,3.082v.22l5.173-2.091A2.3,2.3,0,0,0,653.662,755.959Zm-84.309-10.126,6.164,3.522c1.871.991,1.871,2.752.22,3.852l-.22.11-6.164,3.522-5.5-5.5Zm101.149,4.4h-3.632v5.833H670.5a2.933,2.933,0,0,0,2.972-2.862A3.023,3.023,0,0,0,670.5,750.236ZM548.771,734.167l.22.11,19.481,11.006-5.283,5.283-16.51-16.62A2.843,2.843,0,0,1,548.771,734.167Zm43.7-.66a4.416,4.416,0,0,1,1.651.33,3.957,3.957,0,0,1,1.321.88l-.77.77a2.771,2.771,0,0,0-2.2-.991,3.073,3.073,0,0,0-2.2.88,3,3,0,0,0-.991,2.311,2.843,2.843,0,0,0,.991,2.311,3.272,3.272,0,0,0,2.2.88,3.552,3.552,0,0,0,2.311-.88,2.24,2.24,0,0,0,.66-1.651h-2.972v-.991h3.962c0,.22.11.44.11.66a3.836,3.836,0,0,1-.991,2.752,4.253,4.253,0,0,1-5.943,0,4.323,4.323,0,0,1-1.211-3.082,4.519,4.519,0,0,1,1.211-3.082A3.581,3.581,0,0,1,592.466,733.506Zm36.651,0a4.065,4.065,0,0,1,2.972,1.211,4.456,4.456,0,0,1,1.211,2.972,4.2,4.2,0,0,1-7.154,2.972,4.253,4.253,0,0,1-1.211-2.972,4.065,4.065,0,0,1,1.211-2.972A3.68,3.68,0,0,1,629.117,733.506Zm6.934.11L640.014,740h0v-6.274h1.1v8.145h-1.1l-4.182-6.6h0v6.6h-1.1v-8.145h1.321Zm-14.528,0v.991h-2.311v7.154h-1.1v-7.154H615.8v-.991Zm-6.934,0v8.145h-1.1v-8.145Zm-5.173,0v.991H607.1v7.154H606v-7.154h-2.311v-.991Zm-6.714,0v.991H598.96v2.531h3.3v.991h-3.3v2.531H602.7v.991h-4.733v-8.145H602.7Zm26.415.881a3.073,3.073,0,0,0-2.2.88,3.552,3.552,0,0,0-.88,2.311,3.153,3.153,0,0,0,.88,2.311,2.683,2.683,0,0,0,2.2.88,3.073,3.073,0,0,0,2.2-.88,3.552,3.552,0,0,0,.88-2.311,3.153,3.153,0,0,0-.88-2.311A2.683,2.683,0,0,0,629.117,734.5Z" transform="translate(-545.579 -733.506)" fill-rule="evenodd"/>
        </g>
      </g>
    </g>
  </g>
</svg>
