<svg xmlns="http://www.w3.org/2000/svg" width="244.122" height="57.613" viewBox="0 0 244.122 57.613">
  <g id="green-border" transform="translate(0 0)">
    <path id="Path_100449" data-name="Path 100449" d="M1.542,53.293c1.7,5.364,33.051,3.689,48.235,3.865,54.929.633,123.259,1.026,177.609-1.775,5.849-.3,10.9-.266,13.959-1.493,2.937-1.178,2.939-17.3,2.661-23.692s-1.565-24.938-1.565-24.938a5.309,5.309,0,0,0-3.86-2.879c-2-.4-12.083-1.391-44.939-1.854S162.869-.05,105.888.018,12.929-.06,4.994,1.412C2.776,1.824-.335,3.38.029,11.882S.293,49.354,1.542,53.293Z" fill="#34ff97"/>
    <path id="Path_99970" data-name="Path 99970" d="M.918,45.062c1.647,4.644,2.338,4.778,17.032,4.929,53.155.548,151.269.621,203.863-1.8,5.66-.261,10.547-.23,13.508-1.292.912-2.245,1.012-15.043.743-20.58S234.935,3.7,234.935,3.7A5.023,5.023,0,0,0,231.2,1.208C229.264.861,217.932.594,186.138.192s-28.55-.059-83.69,0S12.421.435,4.742,1.71C2.6,2.066-.323,3.1.029,10.464S-.291,41.652.918,45.062Z" transform="translate(3 3.387)" fill="#fff"/>
  </g>
</svg>
