<svg xmlns="http://www.w3.org/2000/svg" width="200.455" height="57.613" viewBox="0 0 200.455 57.613">
  <g id="green-sm" transform="translate(0 0)">
    <path id="Path_100449" data-name="Path 100449" d="M1.266,53.293c1.4,5.364,27.139,3.689,39.607,3.865,45.1.633,101.212,1.026,145.839-1.775,4.8-.3,8.95-.266,11.462-1.493,2.412-1.178,2.413-17.3,2.185-23.692s-1.285-24.938-1.285-24.938a4.713,4.713,0,0,0-3.17-2.879c-1.642-.4-9.922-1.391-36.9-1.854S133.736-.05,86.948.018,10.616-.06,4.1,1.412C2.279,1.824-.275,3.38.024,11.882S.24,49.354,1.266,53.293Z" fill="#34ff97"/>
    <path id="Path_99970" data-name="Path 99970" d="M.749,45.062c1.342,4.644,1.906,4.778,13.883,4.929,43.327.548,123.3.621,166.174-1.8,4.613-.261,8.6-.23,11.011-1.292.743-2.245.825-15.043.606-20.58S191.5,3.7,191.5,3.7a4.318,4.318,0,0,0-3.045-2.492C186.879.861,177.641.594,151.725.192s-23.272-.059-68.217,0S10.124.435,3.866,1.71C2.116,2.066-.263,3.1.024,10.464S-.237,41.652.749,45.062Z" transform="translate(3 3.387)" fill="#fff"/>
  </g>
</svg>
