<svg id="header-bg" xmlns="http://www.w3.org/2000/svg" xmlns:xlink="http://www.w3.org/1999/xlink" width="1174.2" height="164.032" viewBox="0 0 1174.2 164.032">
  <defs>
    <clipPath id="clip-path">
      <path id="Path_105784" data-name="Path 105784" d="M331,550H1505.2V662.7a34.152,34.152,0,0,1-4.4,6.7c-26.4,29.6-60.524,47.2-99.709,44.327-50.173-3.673-7.526-46.727-81.532-47.528S1185.5,703,1066.81,703s-269.6-69.232-417.066-62.4S418,666.2,412.4,640.6c-7.57-31.074,22.6-24.8,20.2-52S331,550,331,550Z" transform="translate(-331 -550)" fill="#fff"/>
    </clipPath>
  </defs>
  <g id="Mask_Group_30" data-name="Mask Group 30" transform="translate(0 0)" clip-path="url(#clip-path)">
    <path id="Path_105718" data-name="Path 105718" d="M331,550H1505.083l.117,112.974a63.9,63.9,0,0,1-4.516,6.426c-26.4,29.6-60.518,47.2-99.7,44.327-50.168-3.673-7.525-46.727-81.523-47.528S1185.417,703,1066.737,703s-269.577-69.232-417.024-62.4-231.722,25.6-237.321,0c-7.569-31.074,22.6-24.8,20.2-52S331,550,331,550Z" transform="translate(-331 -550)" fill="#fff"/>
  </g>
</svg>
