<svg id="ico-9" xmlns="http://www.w3.org/2000/svg" width="71.923" height="59.936" viewBox="0 0 71.923 59.936">
  <rect id="Rectangle_5578" data-name="Rectangle 5578" width="71.923" height="59.936" transform="translate(0 0)" fill="none"/>
  <g id="Group_54773" data-name="Group 54773" transform="translate(10.552 3.371)">
    <path id="Path_99980" data-name="Path 99980" d="M10.052.45A.883.883,0,0,0,9.788.164C9.1-.3,7.363.354,6.641.548,5.336.9,2.472,1.491,2.622,3.238c.157,1.829.382,4.943.539,6.772A2.36,2.36,0,0,0,.7,10.652a2.812,2.812,0,0,0-.619,2.519A2.487,2.487,0,0,0,3.305,15a2.626,2.626,0,0,0,1.3-1.832,7.77,7.77,0,0,0,.043-2.317c-.175-2.152-.417-5.59-.592-7.742L8.877,1.551a49.824,49.824,0,0,1,.566,7.064,2.139,2.139,0,0,0-2.733.941,2.983,2.983,0,0,0,.266,3.034,2.86,2.86,0,0,0,1.8,1.249,1.973,1.973,0,0,0,1.977-.786,3.271,3.271,0,0,0,.346-1.86,85.086,85.086,0,0,0-.808-9.92A2.318,2.318,0,0,0,10.052.45Z" transform="translate(37.562 17.797) rotate(3)" fill="#08de6f"/>
    <path id="Path_99980_-_Outline" data-name="Path 99980 - Outline" d="M10.384,1.288a10.481,10.481,0,0,0-2.455.548c-1.305.352-4.169.944-4.019,2.69.157,1.829.382,4.943.539,6.772a2.36,2.36,0,0,0-2.466.643,2.812,2.812,0,0,0-.619,2.519,2.487,2.487,0,0,0,3.229,1.826,2.626,2.626,0,0,0,1.3-1.832,7.77,7.77,0,0,0,.043-2.317c-.175-2.152-.417-5.59-.592-7.742l4.819-1.556A49.824,49.824,0,0,1,10.731,9.9,2.139,2.139,0,0,0,8,10.843a2.983,2.983,0,0,0,.266,3.034,2.86,2.86,0,0,0,1.8,1.249,1.973,1.973,0,0,0,1.977-.786,3.271,3.271,0,0,0,.346-1.86,85.085,85.085,0,0,0-.808-9.92,2.318,2.318,0,0,0-.244-.823.883.883,0,0,0-.264-.286,1.244,1.244,0,0,0-.692-.164m0-1.288V0A2.482,2.482,0,0,1,11.8.383a2.167,2.167,0,0,1,.652.7,3.461,3.461,0,0,1,.409,1.284,86.866,86.866,0,0,1,.823,10.093,4.48,4.48,0,0,1-.552,2.583,3.22,3.22,0,0,1-2.7,1.4,3.352,3.352,0,0,1-.581-.051A4.144,4.144,0,0,1,7.2,14.6l-.016-.023q-.015.077-.032.154a3.865,3.865,0,0,1-2,2.711,3.082,3.082,0,0,1-1.359.311,3.964,3.964,0,0,1-3.686-3,4.1,4.1,0,0,1,.927-3.689A3.74,3.74,0,0,1,3.047,9.954C3,9.335,2.946,8.668,2.9,8.013,2.8,6.8,2.705,5.545,2.627,4.636a2.714,2.714,0,0,1,.592-1.942A4.139,4.139,0,0,1,4.573,1.619a12.582,12.582,0,0,1,2.7-.942L7.594.592c.1-.026.229-.066.381-.112A8.776,8.776,0,0,1,10.384,0ZM9.41,8.457c-.051-1.226-.158-2.671-.3-3.924l-2.394.773c.069.887.144,1.891.217,2.871.043.582.088,1.173.131,1.741A3.578,3.578,0,0,1,9.41,8.457Z" transform="translate(36.343 16.443) rotate(3)"/>
    <g id="_2" data-name="2" transform="matrix(0.966, -0.259, 0.259, 0.966, 0, 8.768)">
      <g id="Group_44051" data-name="Group 44051" transform="translate(0 0)">
        <path id="Path_99981" data-name="Path 99981" d="M31.41,42.363a1.748,1.748,0,0,1-.948.771,18.107,18.107,0,0,1-10.8,1.475,23.766,23.766,0,0,1-4.208-1.192c-.932-.3-1.837-.695-2.748-1.062a10.3,10.3,0,0,1-2.5-1.409c-.549-.426-1.169-.761-1.7-1.2a21.175,21.175,0,0,1-2.12-1.928c-.682-.737-1.247-1.58-1.882-2.362a16.529,16.529,0,0,1-3.058-5.739A29.974,29.974,0,0,1,.125,24.5,19.908,19.908,0,0,1,1,16.051c.059-.182.142-.358.189-.543.7-2.753,2.37-4.947,4.1-7.109.3-.375.62-.735.891-1.129a8.805,8.805,0,0,1,2.349-2.2c.533-.368,1.09-.7,1.595-1.108a10.88,10.88,0,0,1,3.014-1.652C14.568,1.775,16,1.237,17.453.737A15.275,15.275,0,0,1,21.767.028a17.209,17.209,0,0,1,6.865.9,18.29,18.29,0,0,1,1.777.777,7.975,7.975,0,0,1,.931.645,7.97,7.97,0,0,1-1.633,1.042,20.592,20.592,0,0,0-6.757,5.39,29.336,29.336,0,0,0-4.314,7.191,15.338,15.338,0,0,0-.919,4.418,3.962,3.962,0,0,0,.024.545,5.381,5.381,0,0,0,.566.043,3.085,3.085,0,0,1,1.976.755,1.5,1.5,0,0,1,.347,1.776,2,2,0,0,1-1.612,1.176c-.45.051-.9.115-1.453.187.21.907.382,1.79.621,2.655a23.248,23.248,0,0,0,4.519,8.592A9.746,9.746,0,0,0,24.777,38.1a3.98,3.98,0,0,1,.517.389,21.847,21.847,0,0,0,5.69,3.6A4.191,4.191,0,0,1,31.41,42.363ZM29.838,2.457c0-.061,0-.121,0-.181-.516-.17-1.044-.309-1.544-.515A16.081,16.081,0,0,0,21.154.826a12.146,12.146,0,0,0-3.521.668q-2.093.762-4.182,1.536a10.4,10.4,0,0,0-2.892,1.577c-.5.4-1.065.736-1.6,1.1A8.294,8.294,0,0,0,6.771,7.766c-.286.413-.624.791-.943,1.18a24.056,24.056,0,0,0-3.035,4.363A18.933,18.933,0,0,0,.738,20.6,20.1,20.1,0,0,0,4.022,33.455c.507.755,1.081,1.468,1.643,2.184a21.569,21.569,0,0,0,1.824,2.22,30.044,30.044,0,0,0,4.472,3.247,2.62,2.62,0,0,0,.519.245c1.543.589,3.089,1.172,4.633,1.761a16.838,16.838,0,0,0,7.368.825,20.631,20.631,0,0,0,4.928-1.259,6.118,6.118,0,0,0,.677-.329c-.313-.168-.494-.286-.69-.367a14.206,14.206,0,0,1-4.07-2.538,6.371,6.371,0,0,0-.744-.567,12.087,12.087,0,0,1-2.818-2.751,21.143,21.143,0,0,1-2.286-3.567c-.1-.2-.23-.4-.315-.543-.89.183-1.683.368-2.484.506-2.55.439-4.079-.569-5.469-2.788a1.473,1.473,0,0,1-.1-.5l.157-.1a1.989,1.989,0,0,1,.515.389,5.82,5.82,0,0,0,1.788,1.645,3.98,3.98,0,0,0,1.188.46,6.593,6.593,0,0,0,2.983-.226c.319-.069.628-.184,1.01-.3a27.085,27.085,0,0,1-1.916-6.789c.3-.026.537-.038.769-.067a15.015,15.015,0,0,0,1.7-.244,1.2,1.2,0,0,0,.878-1.04.981.981,0,0,0-.608-1.038,2.768,2.768,0,0,0-1.427-.42c-.278,0-.556-.018-.877-.03a9.244,9.244,0,0,1-.077-.926,14.308,14.308,0,0,1,.869-4.859,29.74,29.74,0,0,1,2.5-4.772,21.216,21.216,0,0,1,7.714-7.584C28.8,3.04,29.32,2.749,29.838,2.457Z" transform="translate(0.965 0.966)" fill="#ffec00" fill-rule="evenodd"/>
        <path id="Path_99981_-_Outline" data-name="Path 99981 - Outline" d="M23.855,46.769a25.276,25.276,0,0,1-3.355-.236,18.581,18.581,0,0,1-3.55-.952c-.272-.093-.554-.189-.829-.28-.775-.253-1.528-.561-2.256-.859l-.553-.225a11.193,11.193,0,0,1-2.727-1.541c-.223-.173-.469-.335-.729-.507a11.491,11.491,0,0,1-1-.711,22.042,22.042,0,0,1-2.215-2.017c-.46-.5-.862-1.028-1.251-1.542-.229-.3-.445-.587-.671-.866a17.565,17.565,0,0,1-3.234-6.072c-.094-.315-.194-.636-.29-.947A24.017,24.017,0,0,1,.13,25.571a20.958,20.958,0,0,1,.916-8.852c.032-.1.065-.185.1-.263a2.3,2.3,0,0,0,.077-.219c.73-2.87,2.369-5.083,4.277-7.474.1-.119.191-.236.284-.348.206-.249.4-.485.565-.725a9.752,9.752,0,0,1,2.6-2.445c.179-.124.36-.244.535-.359.359-.238.7-.462,1.006-.709a11.812,11.812,0,0,1,3.278-1.8C15.3,1.8,16.694,1.276,18.1.79A16.435,16.435,0,0,1,22.687.029C23.1.01,23.51,0,23.9,0a17.123,17.123,0,0,1,6.032.99,19.107,19.107,0,0,1,1.871.817,4.778,4.778,0,0,1,.764.5c.095.072.193.146.294.218l1.016.716-.945.807a8.87,8.87,0,0,1-1.819,1.167,19.474,19.474,0,0,0-6.445,5.136,28.512,28.512,0,0,0-4.174,6.955,13.231,13.231,0,0,0-.8,3.689,4.243,4.243,0,0,1,2.146.937,2.47,2.47,0,0,1,.618,2.984,2.963,2.963,0,0,1-2.361,1.694l-.39.047c.12.546.238,1.065.379,1.577a22.408,22.408,0,0,0,4.336,8.238,8.716,8.716,0,0,0,1.863,1.792,4.792,4.792,0,0,1,.64.487,20.981,20.981,0,0,0,5.447,3.429,2.856,2.856,0,0,1,.412.252c.043.03.083.058.123.084l.711.464-.369.765a2.519,2.519,0,0,1-1.3,1.173l-.087.043A17.51,17.51,0,0,1,23.855,46.769ZM23.663,2.713c-.466,0-.954.014-1.492.043a11.136,11.136,0,0,0-3.243.611c-1.259.458-2.723.992-4.175,1.534a9.455,9.455,0,0,0-2.628,1.427c-.369.294-.754.548-1.126.793-.182.12-.354.233-.523.35A7.433,7.433,0,0,0,8.53,9.281c-.235.339-.491.645-.738.94-.087.1-.17.2-.251.3a23.06,23.06,0,0,0-2.919,4.184,18.025,18.025,0,0,0-1.955,6.921A19.243,19.243,0,0,0,5.788,33.882c.422.628.889,1.222,1.384,1.85l.218.277c.15.191.3.384.439.572a13.7,13.7,0,0,0,1.3,1.552,21.457,21.457,0,0,0,3.383,2.513c.312.2.634.411.951.622a2.008,2.008,0,0,0,.328.147c.783.3,1.581.6,2.353.894.747.283,1.52.577,2.28.867a14,14,0,0,0,5.061.838c.59,0,1.208-.024,1.892-.074a13.794,13.794,0,0,0,3.26-.735,15.244,15.244,0,0,1-2.985-2.073,5.406,5.406,0,0,0-.631-.481,13.072,13.072,0,0,1-3.048-2.962,22.3,22.3,0,0,1-2.332-3.617L19.5,34.1c-.581.124-1.13.242-1.693.339a7.528,7.528,0,0,1-1.271.115,5.11,5.11,0,0,1-3.006-.912,7.974,7.974,0,0,1-2.175-2.431,1.641,1.641,0,0,1-.222-.759c0-.028-.006-.066-.008-.079l-.116-.635.548-.353.149-.1.559-.363.538.393c.022.016.066.043.108.069a1.912,1.912,0,0,1,.64.564,4.8,4.8,0,0,0,1.5,1.366,3.158,3.158,0,0,0,.9.337,2.688,2.688,0,0,0,.643.073,7.957,7.957,0,0,0,1.651-.248l.183-.04a26.646,26.646,0,0,1-1.585-6.032l-.134-1,1.008-.086.293-.023c.165-.012.307-.023.436-.04.164-.021.327-.039.485-.056a8.589,8.589,0,0,0,1.11-.168c.068-.017.117-.089.147-.214a1.225,1.225,0,0,0-.144-.1,1.8,1.8,0,0,0-.94-.281c-.207,0-.408-.011-.622-.02l-.279-.011-.852-.031-.075-.85c-.01-.108-.021-.213-.033-.314A5.222,5.222,0,0,1,17.2,21.5a15.229,15.229,0,0,1,.932-5.183,30.454,30.454,0,0,1,2.577-4.929,22.278,22.278,0,0,1,7.95-7.858A13.587,13.587,0,0,0,23.663,2.713Z"/>
        <path id="Path_99982" data-name="Path 99982" d="M29.151,1.676c-.518.293-1.038.583-1.554.878a21.215,21.215,0,0,0-7.714,7.584,29.739,29.739,0,0,0-2.5,4.772,14.308,14.308,0,0,0-.869,4.859,9.245,9.245,0,0,0,.077.926c.322.012.6.027.877.03a2.768,2.768,0,0,1,1.427.42.981.981,0,0,1,.608,1.038,1.2,1.2,0,0,1-.878,1.04,15.02,15.02,0,0,1-1.7.244c-.232.03-.466.041-.769.067a27.084,27.084,0,0,0,1.916,6.789c-.382.114-.691.229-1.01.3a6.594,6.594,0,0,1-2.983.226,3.979,3.979,0,0,1-1.188-.46A5.82,5.82,0,0,1,11.1,28.742a1.989,1.989,0,0,0-.515-.389l-.157.1a1.472,1.472,0,0,0,.1.5c1.39,2.22,2.918,3.228,5.469,2.788.8-.138,1.593-.323,2.484-.506.085.146.212.338.315.543a21.145,21.145,0,0,0,2.286,3.567A12.087,12.087,0,0,0,23.9,38.1a6.372,6.372,0,0,1,.744.567A14.207,14.207,0,0,0,28.71,41.2c.2.081.377.2.69.367a6.12,6.12,0,0,1-.677.329,20.63,20.63,0,0,1-4.928,1.259,16.838,16.838,0,0,1-7.368-.825c-1.544-.589-3.09-1.172-4.633-1.761a2.621,2.621,0,0,1-.519-.245A30.043,30.043,0,0,1,6.8,37.077a21.567,21.567,0,0,1-1.824-2.22c-.562-.717-1.136-1.429-1.643-2.184A20.1,20.1,0,0,1,.052,19.819a18.933,18.933,0,0,1,2.056-7.291A24.056,24.056,0,0,1,5.142,8.165c.319-.39.657-.767.943-1.18A8.294,8.294,0,0,1,8.275,4.931c.532-.368,1.092-.7,1.6-1.1a10.4,10.4,0,0,1,2.892-1.577q2.087-.778,4.182-1.536A12.146,12.146,0,0,1,20.468.045,16.081,16.081,0,0,1,27.61.979c.5.206,1.029.345,1.544.515C29.153,1.555,29.152,1.615,29.151,1.676Z" transform="translate(1.651 1.747)" fill="#ffec00" fill-rule="evenodd"/>
        <path id="Path_99983" data-name="Path 99983" d="M0,.944A3.03,3.03,0,0,1,.249.326.83.83,0,0,1,1.068.005a.552.552,0,0,1,.554.467,1.29,1.29,0,0,1-.139,1.193.838.838,0,0,1-.841.374.615.615,0,0,1-.575-.522C.035,1.367.03,1.214,0,.944Z" transform="translate(11.834 20.587)" fill-rule="evenodd"/>
        <g id="Group_44050" data-name="Group 44050" transform="translate(4.52 4.472)">
          <path id="Path_99984" data-name="Path 99984" d="M.221.626C.051.62,0,.52,0,.379.005.126.17.021.393,0A.2.2,0,0,1,.619.238C.6.477.419.571.221.626Z" transform="translate(6.653 4.546)" fill-rule="evenodd"/>
          <path id="Path_99985" data-name="Path 99985" d="M.633.222C.572.418.474.58.261.614.1.639.007.547,0,.383A.341.341,0,0,1,.338,0,.273.273,0,0,1,.633.222Z" transform="translate(8.621 3.683)" fill-rule="evenodd"/>
          <path id="Path_99986" data-name="Path 99986" d="M.637.246A.41.41,0,0,1,.263.584C.107.6-.01.519,0,.354A.352.352,0,0,1,.371,0C.532-.005.605.1.637.246Z" transform="translate(7.685 4.268)" fill-rule="evenodd"/>
          <path id="Path_99987" data-name="Path 99987" d="M0,.356C.007.155.072.005.287,0c.2,0,.284.131.277.309A.329.329,0,0,1,.237.636C.035.654,0,.5,0,.356Z" transform="translate(6.872 30.02)" fill-rule="evenodd"/>
          <path id="Path_99988" data-name="Path 99988" d="M.287,0C.476,0,.594.058.6.248S.509.581.3.582A.289.289,0,0,1,0,.28C-.015.07.137.022.287,0Z" transform="translate(5.586 29.13)" fill-rule="evenodd"/>
          <path id="Path_99989" data-name="Path 99989" d="M.187.65C.05.627-.018.549,0,.435A.517.517,0,0,1,.427,0,.167.167,0,0,1,.611.225.644.644,0,0,1,.187.65Z" transform="translate(12.514 9.251)" fill-rule="evenodd"/>
          <path id="Path_99990" data-name="Path 99990" d="M.5.255c0,.236-.062.4-.277.4A.22.22,0,0,1,0,.374C.031.189.123.009.328,0,.515-.008.493.172.5.255Z" transform="translate(0.489 20.572)" fill-rule="evenodd"/>
          <path id="Path_99991" data-name="Path 99991" d="M.4,0c.091,0,.268-.005.263.2S.491.468.306.47C.139.472-.006.41,0,.232.007.034.173-.008.4,0Z" transform="translate(18.593 0.632)" fill-rule="evenodd"/>
          <path id="Path_99992" data-name="Path 99992" d="M.559.234a.3.3,0,0,1-.3.311A.239.239,0,0,1,0,.3c-.017-.2.12-.281.29-.3A.237.237,0,0,1,.559.234Z" transform="translate(5.671 30.515)" fill-rule="evenodd"/>
          <path id="Path_99993" data-name="Path 99993" d="M.3,0c.185.02.34.075.316.262S.4.475.24.483A.207.207,0,0,1,0,.229C.02.039.165.007.3,0Z" transform="translate(9.046 2.926)" fill-rule="evenodd"/>
          <path id="Path_99994" data-name="Path 99994" d="M.269.546C.115.535,0,.468,0,.305A.3.3,0,0,1,.3,0,.214.214,0,0,1,.556.237C.562.436.44.513.269.546Z" transform="translate(7.036 3.59)" fill-rule="evenodd"/>
          <path id="Path_99995" data-name="Path 99995" d="M.518.233C.519.425.472.543.3.546A.269.269,0,0,1,0,.257.226.226,0,0,1,.245,0,.25.25,0,0,1,.518.233Z" transform="translate(3.901 28.342)" fill-rule="evenodd"/>
          <path id="Path_99996" data-name="Path 99996" d="M.509.249c0,.168-.063.3-.238.311A.255.255,0,0,1,0,.282.251.251,0,0,1,.264,0C.433-.006.5.1.509.249Z" transform="translate(4.862 27.637)" fill-rule="evenodd"/>
          <path id="Path_99997" data-name="Path 99997" d="M.286,0c.16,0,.308.033.3.233S.416.47.273.483A.228.228,0,0,1,0,.25C-.008.055.116,0,.286,0Z" transform="translate(17.402 0.366)" fill-rule="evenodd"/>
          <path id="Path_99998" data-name="Path 99998" d="M.564.219a.257.257,0,0,1-.256.27C.143.5.014.433,0,.259-.011.1.094.013.248,0A.278.278,0,0,1,.564.219Z" transform="translate(19.87 0.113)" fill-rule="evenodd"/>
          <path id="Path_99999" data-name="Path 99999" d="M.542.3C.521.48.4.52.255.507S-.007.415,0,.255C.007.113.077-.011.248,0A.3.3,0,0,1,.542.3Z" transform="translate(4.128 29.83)" fill-rule="evenodd"/>
          <path id="Path_100000" data-name="Path 100000" d="M.521.227A.325.325,0,0,1,.2.529C.069.541,0,.451,0,.315,0,.1.127.016.315,0,.454-.01.513.078.521.227Z" transform="translate(10.133 22.283)" fill-rule="evenodd"/>
          <path id="Path_100001" data-name="Path 100001" d="M.551.19C.5.325.481.5.281.517A.227.227,0,0,1,0,.3C0,.088.183.033.351,0,.466-.017.539.055.551.19Z" transform="translate(0.019 18.855)" fill-rule="evenodd"/>
          <path id="Path_100002" data-name="Path 100002" d="M.259.5C.114.49,0,.428,0,.282A.262.262,0,0,1,.272,0,.2.2,0,0,1,.5.227.257.257,0,0,1,.259.5Z" transform="translate(15.075 32.719)" fill-rule="evenodd"/>
          <path id="Path_100003" data-name="Path 100003" d="M.228,0c.2,0,.288.083.28.252A.227.227,0,0,1,.265.483.235.235,0,0,1,0,.238.212.212,0,0,1,.228,0Z" transform="translate(18.359 1.59)" fill-rule="evenodd"/>
          <path id="Path_100004" data-name="Path 100004" d="M.23.53A.2.2,0,0,1,0,.324.266.266,0,0,1,.231,0C.379-.021.465.061.464.216A.3.3,0,0,1,.23.53Z" transform="translate(1.743 16.505)" fill-rule="evenodd"/>
          <path id="Path_100005" data-name="Path 100005" d="M.5.181A.285.285,0,0,1,.231.492.189.189,0,0,1,0,.307.265.265,0,0,1,.245,0,.2.2,0,0,1,.5.181Z" transform="translate(11.296 9.618)" fill-rule="evenodd"/>
          <path id="Path_100006" data-name="Path 100006" d="M.475.234A.259.259,0,0,1,.232.5C.076.518,0,.41,0,.273A.238.238,0,0,1,.238,0C.389-.008.467.076.475.234Z" transform="translate(0.973 17.554)" fill-rule="evenodd"/>
          <path id="Path_100007" data-name="Path 100007" d="M.244,0a.247.247,0,0,1,.25.247C.5.407.393.454.255.46.094.466,0,.391,0,.225,0,.074.086,0,.244,0Z" transform="translate(2.673 30.013)" fill-rule="evenodd"/>
          <path id="Path_100008" data-name="Path 100008" d="M.185.506A.178.178,0,0,1,0,.287.354.354,0,0,1,.332,0c.106-.015.145.1.133.19C.445.349.4.5.185.506Z" transform="translate(11.821 10.591)" fill-rule="evenodd"/>
          <path id="Path_100009" data-name="Path 100009" d="M.464.246c0,.16-.085.22-.231.215A.216.216,0,0,1,0,.233.2.2,0,0,1,.217,0,.222.222,0,0,1,.464.246Z" transform="translate(15.198 33.939)" fill-rule="evenodd"/>
          <path id="Path_100010" data-name="Path 100010" d="M.461.226A.218.218,0,0,1,.236.459.2.2,0,0,1,0,.266C0,.134.053.011.2,0A.229.229,0,0,1,.461.226Z" transform="translate(8.044 3.26)" fill-rule="evenodd"/>
          <path id="Path_100011" data-name="Path 100011" d="M.426.21C.417.38.362.5.191.5A.179.179,0,0,1,0,.277.269.269,0,0,1,.245,0C.394-.01.418.11.426.21Z" transform="translate(0.36 16.631)" fill-rule="evenodd"/>
          <path id="Path_100012" data-name="Path 100012" d="M.447.244A.2.2,0,0,1,.2.448C.049.44-.01.342,0,.2A.2.2,0,0,1,.226,0C.376,0,.45.084.447.244Z" transform="translate(13.774 33.333)" fill-rule="evenodd"/>
          <path id="Path_100013" data-name="Path 100013" d="M.488.2a.2.2,0,0,1-.21.214A.23.23,0,0,1,0,.2C-.007.061.11,0,.226,0A.233.233,0,0,1,.488.2Z" transform="translate(18.315 0)" fill-rule="evenodd"/>
          <path id="Path_100014" data-name="Path 100014" d="M.435.223a.224.224,0,0,1-.25.236C.07.455-.015.4,0,.273S.082.012.246,0C.393-.01.438.083.435.223Z" transform="translate(9.278 21.106)" fill-rule="evenodd"/>
          <path id="Path_100015" data-name="Path 100015" d="M.432.218C.418.362.35.454.2.45A.186.186,0,0,1,0,.234.226.226,0,0,1,.235,0C.374,0,.427.093.432.218Z" transform="translate(10.327 9.696)" fill-rule="evenodd"/>
          <path id="Path_100016" data-name="Path 100016" d="M.185,0c.15.027.232.1.226.233S.342.479.183.47C.039.461,0,.357,0,.232A.237.237,0,0,1,.185,0Z" transform="translate(4.711 31.136)" fill-rule="evenodd"/>
          <path id="Path_100017" data-name="Path 100017" d="M.447.207C.408.336.353.443.2.446A.179.179,0,0,1,0,.235C.011.1.078-.005.231,0A.215.215,0,0,1,.447.207Z" transform="translate(10.35 10.708)" fill-rule="evenodd"/>
          <path id="Path_100018" data-name="Path 100018" d="M.253,0A.176.176,0,0,1,.439.193.21.21,0,0,1,.227.436C.1.443.005.392,0,.253-.006.082.126.039.253,0Z" transform="translate(0 17.842)" fill-rule="evenodd"/>
          <path id="Path_100019" data-name="Path 100019" d="M.2.415C.077.41,0,.352,0,.232A.21.21,0,0,1,.2,0c.126-.016.18.073.187.185A.192.192,0,0,1,.2.415Z" transform="translate(14.327 34.713)" fill-rule="evenodd"/>
          <path id="Path_100020" data-name="Path 100020" d="M.38.214c0,.12-.056.2-.176.2C.066.419.006.331,0,.2,0,.093.036,0,.163,0A.234.234,0,0,1,.38.214Z" transform="translate(16.151 35.393)" fill-rule="evenodd"/>
          <path id="Path_100021" data-name="Path 100021" d="M.389.191a.175.175,0,0,1-.2.2C.065.394-.005.34,0,.212A.2.2,0,0,1,.21,0C.337,0,.39.07.389.191Z" transform="translate(1.408 18.839)" fill-rule="evenodd"/>
          <path id="Path_100022" data-name="Path 100022" d="M.183.392A.17.17,0,0,1,0,.2.207.207,0,0,1,.227,0,.152.152,0,0,1,.388.173C.38.293.326.388.183.392Z" transform="translate(8.955 22.803)" fill-rule="evenodd"/>
        </g>
      </g>
    </g>
    <path id="Path_100027" data-name="Path 100027" d="M9.455.222,7.644.1A4.912,4.912,0,0,0,6.052.061c-.914.265-.88,1.5-1.05,2.258a28.183,28.183,0,0,1-.9,3.123c-.006-.016-.01-.032-.016-.048C3.5,3.963,1.841,4.031.855,5.007a2.592,2.592,0,0,0-.4,3.361,2.193,2.193,0,0,0,3.112.461,4.636,4.636,0,0,0,1.178-1.97,27.9,27.9,0,0,0,.979-2.891q.205-.735.37-1.481c.059-.265.087-1.183.287-1.346s1.12.046,1.393.065l1.682.118C10.163,1.375,10.16.271,9.455.222Z" transform="matrix(0.985, -0.174, 0.174, 0.985, 29.792, 13.119)" fill="#08de6f"/>
    <path id="Path_100027_-_Outline" data-name="Path 100027 - Outline" d="M7.836,1.288a1.79,1.79,0,0,0-.5.061c-.914.265-.88,1.5-1.05,2.258a28.184,28.184,0,0,1-.9,3.123c-.006-.016-.01-.032-.016-.048-.587-1.43-2.245-1.362-3.232-.387a2.592,2.592,0,0,0-.4,3.361,2.193,2.193,0,0,0,3.112.461,4.636,4.636,0,0,0,1.178-1.97,27.9,27.9,0,0,0,.979-2.891q.205-.735.37-1.481c.059-.265.087-1.183.287-1.346s1.12.046,1.393.065l1.682.118c.708.05.705-1.054,0-1.1L8.932,1.383c-.334-.023-.727-.1-1.1-.1M7.836,0a7.2,7.2,0,0,1,.846.063c.125.015.243.028.339.035l.962.067.85.06a1.821,1.821,0,0,1,1.334.707,1.913,1.913,0,0,1,.393,1.234A1.757,1.757,0,0,1,10.789,3.9c-.045,0-.091,0-.136,0L8.971,3.78c-.087-.006-.179-.018-.283-.034-.014.111-.028.213-.049.307-.114.516-.244,1.037-.387,1.549A29.3,29.3,0,0,1,7.228,8.626l-.035.087a5.571,5.571,0,0,1-1.521,2.4,3.272,3.272,0,0,1-2.1.753A3.627,3.627,0,0,1,.721,10.441,3.554,3.554,0,0,1,.042,7.728a4.188,4.188,0,0,1,1.2-2.349A3.674,3.674,0,0,1,3.785,4.294a3.067,3.067,0,0,1,.968.153q.153-.561.28-1.124c.024-.107.047-.256.071-.414a5.672,5.672,0,0,1,.335-1.37A2.359,2.359,0,0,1,6.982.111,3.036,3.036,0,0,1,7.836,0Z" transform="matrix(0.985, -0.174, 0.174, 0.985, 28.3, 12.074)"/>
  </g>
</svg>
