<svg id="ico-web" xmlns="http://www.w3.org/2000/svg" width="44" height="44" viewBox="0 0 44 44">
  <rect id="Rectangle_5596" data-name="Rectangle 5596" width="44" height="44" fill="none"/>
  <rect id="Rectangle_179" data-name="Rectangle 179" width="24" height="24" transform="translate(11 9)" fill="none"/>
  <rect id="Rectangle_179-2" data-name="Rectangle 179" width="24" height="24" transform="translate(11 9)" fill="none"/>
  <g id="Group_65550" data-name="Group 65550" transform="translate(-2041.141 -371)">
    <circle id="Ellipse_595" data-name="Ellipse 595" cx="19.5" cy="19.5" r="19.5" transform="translate(2044.141 374)" opacity="0.3"/>
    <circle id="Ellipse_594" data-name="Ellipse 594" cx="19.5" cy="19.5" r="19.5" transform="translate(2043.141 371)" fill="#fff"/>
    <g id="Group_65548" data-name="Group 65548" transform="translate(2045.908 373.849)">
      <g id="Group_65548-2" data-name="Group 65548" transform="translate(0 0)">
        <path id="Path_105794" data-name="Path 105794" d="M326.768,285.529c0,1.063,0,2.068,0,3.072a1.614,1.614,0,0,1-1.287,1.785,1.634,1.634,0,0,1-1.99-1.649c-.039-.93-.074-1.86-.113-2.79-.009-.22,0-.426-.338-.424-1.94.014-3.879.011-5.819.015a.543.543,0,0,0-.125.044,32.315,32.315,0,0,0,0,6.483c.923,0,1.833-.005,2.742,0a3.68,3.68,0,0,1,.782.074,1.6,1.6,0,0,1,1.244,1.636,1.577,1.577,0,0,1-1.462,1.541c-.727.046-1.458.02-2.187.026-.168,0-.335,0-.593,0,.169.639.3,1.221.476,1.791a21.247,21.247,0,0,0,1.857,4.351.72.72,0,0,0,.767.443,9.53,9.53,0,0,1,1.163-.008,1.63,1.63,0,0,1,.114,3.254c-6.063.325-11.136-1.671-14.873-6.561a15.321,15.321,0,0,1-3.207-11.174c.706-6.819,4.345-11.523,10.689-14.025a16.373,16.373,0,0,1,22,15.65c-.007.48-.052.961-.1,1.438a1.627,1.627,0,0,1-1.8,1.488,1.554,1.554,0,0,1-1.456-1.718,13.666,13.666,0,0,0-.24-4.345c-.05-.222-.071-.409-.383-.408C330.654,285.534,328.684,285.529,326.768,285.529Zm-13.061,6.536v-6.506a.272.272,0,0,0-.095-.025c-1.925,0-3.849,0-5.774-.011-.3,0-.344.162-.4.394a13.05,13.05,0,0,0,0,5.767c.069.316.2.389.5.387,1.63-.012,3.259-.006,4.889-.005Zm17.782-9.818c-.887-2.248-5.284-5.789-7.185-5.8a27.327,27.327,0,0,1,1.807,5.607c.017.083.2.187.3.188C328.089,282.251,329.762,282.247,331.489,282.247Zm-15.415-5.81c-2.155.257-6.7,3.985-7.069,5.81,1.677,0,3.348.007,5.019-.015.113,0,.284-.2.324-.336.292-1.009.529-2.034.841-3.037C315.441,278.041,315.774,277.247,316.074,276.437Zm-7.2,18.909a13.3,13.3,0,0,0,7.268,5.895,27.922,27.922,0,0,1-1.821-5.639c-.022-.108-.26-.239-.4-.244-.713-.025-1.427-.012-2.141-.012Zm13.9-13.12a21.242,21.242,0,0,0-2.574-6.481,21.228,21.228,0,0,0-2.541,6.481Z" transform="translate(-303.829 -272.372)"/>
        <path id="Path_105795" data-name="Path 105795" d="M531.13,505.818a.88.88,0,0,1-.83-.625q-1.836-4.065-3.687-8.123-.192-.423-.387-.845a.83.83,0,0,1,1.128-1.125l3.6,1.634c1.79.814,3.579,1.632,5.373,2.44a.857.857,0,0,1,.027,1.642c-.849.415-1.7.822-2.533,1.271a1.578,1.578,0,0,0-.6.6c-.449.831-.854,1.685-1.271,2.533A.88.88,0,0,1,531.13,505.818Z" transform="translate(-505.42 -474.262)" fill="#7e3dfe"/>
      </g>
    </g>
  </g>
</svg>
