<svg id="ico-admin" xmlns="http://www.w3.org/2000/svg" width="44" height="44" viewBox="0 0 44 44">
  <rect id="Rectangle_5595" data-name="Rectangle 5595" width="44" height="44" fill="none"/>
  <g id="Group_44141" data-name="Group 44141" transform="translate(-139 -1394.73)">
    <g id="Group_55093" data-name="Group 55093" transform="translate(142.143 1396.094)">
      <ellipse id="Ellipse_541" data-name="Ellipse 541" cx="18.803" cy="19.803" rx="18.803" ry="19.803" transform="translate(0.001 2.28)" opacity="0.3"/>
      <ellipse id="Ellipse_530" data-name="Ellipse 530" cx="19.803" cy="19.803" rx="19.803" ry="19.803" transform="translate(-1.143 -0.361)" fill="#fff"/>
      <path id="Path_99715" data-name="Path 99715" d="M245.759,105.266c20.552-7.436,27.646,24.43,7.355,31.193-18.347,6.116-25.54-24.918-7.355-31.193Z" transform="translate(-231.838 -101.441)" fill="#ffe700"/>
      <path id="Path_99716" data-name="Path 99716" d="M241.354,184.983c-4.786-3.084-6.479-12.848-6.589-12.817-3.675,1.049,2.139,15.007,8.889,16.266,4.027.751,8.875.984,12.662-.614,7.352-3.1,5.18-5.792,5.284-5.865C260.591,182.663,248.979,189.9,241.354,184.983Z" transform="translate(-230.601 -154.627)" fill="#ffb01f"/>
      <path id="Path_99717" data-name="Path 99717" d="M270.589,115.415c-1.753-4.786-7.137-6.891-11.837-7.41a19.7,19.7,0,0,0-15.424,5.621c-.984,1.005.557,2.548,1.542,1.542a17.774,17.774,0,0,1,13.363-5.028c3.76.236,8.836,1.985,10.254,5.855C268.966,117.3,271.073,116.738,270.589,115.415Z" transform="translate(-237.941 -104.383)" fill="#fff"/>
      <path id="Path_99719" data-name="Path 99719" d="M270.977,151.62a2.505,2.505,0,0,1,.695-1.433,3.086,3.086,0,0,1,1.607-.937,1.421,1.421,0,0,1,.642.022,2.424,2.424,0,0,1,.71.164,1.055,1.055,0,0,1,.671.912c.036.449.187.887.263,1.334a.8.8,0,0,1-.073.41,3.909,3.909,0,0,1-.381.757.958.958,0,0,1-.462.328,6.554,6.554,0,0,1-1.354.339,2.22,2.22,0,0,1-.954-.191A2.1,2.1,0,0,1,271.18,152a3.1,3.1,0,0,0-.2-.381" transform="translate(-259.808 -136.684)" fill-rule="evenodd"/>
      <path id="Path_99720" data-name="Path 99720" d="M321.391,156.809a3.68,3.68,0,0,1,2.351.515,3.178,3.178,0,0,1,.84.978c.059.1-.147.475-.316.565a1.23,1.23,0,0,1-1.223.136,1.82,1.82,0,0,0-1.606-.237c-.295.122-.571.289-.869.4a3.036,3.036,0,0,1-.947.262.61.61,0,0,1-.624-.585,1.355,1.355,0,0,1,.763-1.413c.466-.233.957-.418,1.44-.618a.54.54,0,0,1,.192,0" transform="translate(-297.346 -142.611)" fill-rule="evenodd"/>
      <path id="Path_99721" data-name="Path 99721" d="M264.01,119.817a.639.639,0,0,0-.057.285c0,.183-.038.492-.063.862a18.107,18.107,0,0,1-.534,3.215,18.628,18.628,0,0,1-1.913,4.679,18.13,18.13,0,0,1-4.259,5,16.2,16.2,0,0,1-3.21,2.024,14.794,14.794,0,0,1-3.891,1.228,15.19,15.19,0,0,1-8.621-1.134,16.418,16.418,0,0,1-7-6,17.247,17.247,0,0,1-2.049-4.307,16.082,16.082,0,0,1-.744-4.742,18.089,18.089,0,0,1,2.316-9.1,15.124,15.124,0,0,1,6.589-6.187c.332-.173.682-.3,1.022-.451.349-.122.692-.263,1.047-.361l.527-.159.531-.131c.352-.095.71-.149,1.063-.221s.71-.107,1.063-.154c.354-.03.706-.074,1.057-.09l.525-.025.275-.011h.759l.527.023a17.122,17.122,0,0,1,3.981.677,15.672,15.672,0,0,1,3.493,1.485,15.287,15.287,0,0,1,2.836,2.074,15.007,15.007,0,0,1,2.086,2.4,12.583,12.583,0,0,1,1.336,2.458,14.847,14.847,0,0,1,.722,2.251c.092.344.141.678.2.987s.085.606.127.877l.078.757c.021.231.024.443.04.631.032.376.074.666.081.86a.686.686,0,0,0,.057.3Zm-1.308-.007a1.42,1.42,0,0,0,.01-.275c-.011-.181,0-.45-.034-.8-.016-.174-.025-.369-.058-.582s-.069-.443-.109-.693c-.056-.247-.111-.513-.185-.792s-.153-.576-.266-.88a13.5,13.5,0,0,0-.829-1.964,17.025,17.025,0,0,0-1.288-2.135,15.279,15.279,0,0,0-1.841-2.153,15.677,15.677,0,0,0-2.481-1.946,15.46,15.46,0,0,0-6.73-2.315,17.076,17.076,0,0,0-8,1.064,12.06,12.06,0,0,0-1.907.971,11.259,11.259,0,0,0-1.735,1.313,11.7,11.7,0,0,0-1.481,1.634,12.225,12.225,0,0,0-1.184,1.886,14.353,14.353,0,0,0-.86,2.072,15.647,15.647,0,0,0-.558,2.183,19.269,19.269,0,0,0-.282,2.242c-.033.378-.038.747-.055,1.12v.582c0,.091,0,.207,0,.278l.01.281a16.954,16.954,0,0,0,.732,4.405,15.344,15.344,0,0,0,.808,2.073,15.581,15.581,0,0,0,1.1,1.919,15.244,15.244,0,0,0,2.931,3.206,14.633,14.633,0,0,0,3.619,2.166,15.591,15.591,0,0,0,1.95.654,14.724,14.724,0,0,0,1.982.355c.166.024.327.036.487.047s.317.027.483.035l.518.012.236,0,.243,0a13,13,0,0,0,1.9-.186,14.769,14.769,0,0,0,6.454-2.877,16.6,16.6,0,0,0,4.056-4.51,16.233,16.233,0,0,0,1.871-4.322,15.261,15.261,0,0,0,.5-3c.024-.356.011-.6.014-.8a1.532,1.532,0,0,0-.017-.285Z" transform="translate(-229.07 -101.35)"/>
      <g id="Group_55094" data-name="Group 55094" transform="translate(-7.645 17.226)">
        <g id="Group_55092" data-name="Group 55092" transform="translate(6.936 -16.986)">
          <path id="Path_105626" data-name="Path 105626" d="M334.8,543.25c-2.987.025-5.938.547-8.92.654a30.248,30.248,0,0,0-4.91.594.956.956,0,0,0-.2.383,6.538,6.538,0,0,0-.877.534c-1.355-.2-2.652.251-4.012.286-.036,0-.07,0-.1.008a.931.931,0,0,0-.214-.231,1.034,1.034,0,0,0-1.014-1.269c-2.175,0-4.347-.029-6.516.169-2.238.2-4.491.08-6.719.4-1.272.183-.842,2,.324,2.067a1.115,1.115,0,0,0-.109.683,9.018,9.018,0,0,0,1.637,4.374,8.159,8.159,0,0,0,3.73,2.344,6.52,6.52,0,0,0,4.476-.042,7.059,7.059,0,0,0,1.567-.968,11.694,11.694,0,0,0,2.782-4.562,1.289,1.289,0,0,0,.185-.2,2.473,2.473,0,0,1,.271-.276,2.55,2.55,0,0,1,.242-.145.915.915,0,0,0,.344-.319c.5-.08,1.015-.189,1.52-.248a.988.988,0,0,0,.459.194,3.128,3.128,0,0,1,2.03,1.254,15.4,15.4,0,0,0,1.026,1.583c.012.028.025.056.037.084a1.029,1.029,0,0,0,.241.341,5.956,5.956,0,0,0,.549.688,7.223,7.223,0,0,0,5.423,1.833,6.4,6.4,0,0,0,5.135-2.493c1.116-1.517,1.146-3.636,1.74-5.367a1.148,1.148,0,0,0,.056-.246A1.069,1.069,0,0,0,334.8,543.25ZM312.613,549.8a1.163,1.163,0,0,0-.1.162c-.217.42-.364.869-.578,1.289a3.1,3.1,0,0,1-1.341.99,4.2,4.2,0,0,1-3.124-.049,7.5,7.5,0,0,1-2.591-1.542,6.959,6.959,0,0,1-1.29-3.684,1.085,1.085,0,0,0-.077-.276c1.506-.075,3.024-.018,4.525-.177a46.824,46.824,0,0,1,5.173-.175,1.133,1.133,0,0,0,0,.449A5.864,5.864,0,0,1,312.613,549.8Zm18.983-.309c-.8,1.589-2.749,1.91-4.357,1.846a5.544,5.544,0,0,1-2.291-.609,3.331,3.331,0,0,1-1.342-1.353,4.348,4.348,0,0,1-.446-3.1,24.888,24.888,0,0,1,3.7-.28c1.966-.11,3.918-.378,5.88-.52A22.625,22.625,0,0,1,331.6,549.489Z" transform="translate(-298.818 -532.779)"/>
          <path id="Path_105627" data-name="Path 105627" d="M315.946,557.3l9.6-.547s1.127,6.265-4.473,6.383S315.946,557.3,315.946,557.3Z" transform="translate(-310.93 -543.4)"/>
          <path id="Path_105628" data-name="Path 105628" d="M405.5,554.5h9.593s.15,5.655-3.837,6.076C404.369,561.3,405.5,554.5,405.5,554.5Z" transform="translate(-381.344 -541.631)"/>
          <path id="Path_105634" data-name="Path 105634" d="M312.657,555.438c.392,1.651.732,3.2,2.08,4.184a5.439,5.439,0,0,0,4.368,1.013,4.6,4.6,0,0,0,1.871-1.034,5.337,5.337,0,0,1,.643-.5,3.11,3.11,0,0,1-.922,1.311,5.139,5.139,0,0,1-1.792.916,3.914,3.914,0,0,1-.734.215,4.4,4.4,0,0,1-3.8-.873,7.112,7.112,0,0,1-2.154-2.688,8.013,8.013,0,0,1-.478-1.877,10.068,10.068,0,0,1-.06-1.35,8.032,8.032,0,0,1,2.534-.368c.968-.068,1.934-.161,2.9-.24.594-.048,1.189-.113,1.784-.13.833-.025,1.668-.02,2.5-.013.339,0,.679.043,1.03.068a.668.668,0,0,1-.6.8c-.871.135-1.748.236-2.624.336-.809.093-1.619.222-2.431.236-.987.016-1.976-.085-2.966-.108a10.188,10.188,0,0,0-1.152.113" transform="translate(-307.582 -541.23)" fill-rule="evenodd"/>
          <path id="Path_105635" data-name="Path 105635" d="M406.1,551.314a21.032,21.032,0,0,1,2.4-.285q3.166-.028,6.324-.213a1.148,1.148,0,0,1,1.4,1.027,8.124,8.124,0,0,1,.106,2.286,4.309,4.309,0,0,1-.655,1.61,4.809,4.809,0,0,1-4.146,2.375c-.845.053-1.553-.3-2.35-.3,0-.064,0-.128.005-.193a6.144,6.144,0,0,1,1.167-.121,4.7,4.7,0,0,0,4.72-3.591,2.934,2.934,0,0,0,.085-1.856c-.375-.208-.725.026-1.084.046-1.224.068-2.449.142-3.675.159-1.154.016-2.309-.044-3.464-.06-.553-.007-.817-.253-.838-.882" transform="translate(-381.874 -538.729)" fill-rule="evenodd"/>
        </g>
      </g>
      <path id="Path_105775" data-name="Path 105775" d="M445.9,196.6a1.074,1.074,0,0,1,.789.431.28.28,0,0,0,.14.112c.642.231,1.3.447,1.929.688.356.136.671.318,1.017.466a12.246,12.246,0,0,0,1.179.465,7.905,7.905,0,0,0,1.277.295,9.816,9.816,0,0,0,1.687.125,16.067,16.067,0,0,0,2.385-.242,6.668,6.668,0,0,0,2.31-.9c.385-.244.692-.546,1.1-.764s.543-.552.89-.79c.071-.049.081-.144.1-.219a.785.785,0,0,1,.485-.618l.413.4c-.01.014-.085.074-.064.095.256.269.042.52-.1.752a10.3,10.3,0,0,1-.731.943c-.1.121-.2.239-.3.358-.01.012-.018.033-.032.035-.389.063-.4.352-.664.486-.11.055-.226.1-.334.16-.2.109-.394.231-.608.33a4.473,4.473,0,0,1-1.547.416,3.079,3.079,0,0,0-.577.12,2.67,2.67,0,0,1-.961.085,8.7,8.7,0,0,0-1.092.04,8.17,8.17,0,0,1-1.08.047,14.145,14.145,0,0,1-1.717-.25,12.052,12.052,0,0,1-1.62-.461,17.514,17.514,0,0,1-1.719-.747c-.576-.284-1.073-.645-1.675-.9-.552-.233-.657-.585-.877-.953" transform="translate(-435.407 -172.819)" fill-rule="evenodd"/>
    </g>
  </g>
</svg>
