<svg id="ico11" xmlns="http://www.w3.org/2000/svg" width="133.284" height="111.07" viewBox="0 0 133.284 111.07">
  <rect id="Rectangle_5578" data-name="Rectangle 5578" width="133.284" height="111.07" transform="translate(0 0)" fill="none"/>
  <g id="Group_54773" data-name="Group 54773" transform="translate(19.554 6.247)">
    <path id="Path_99980" data-name="Path 99980" d="M18.628.834A1.636,1.636,0,0,0,18.139.3c-1.284-.864-4.5.352-5.832.711C9.888,1.667,4.581,2.764,4.859,6c.292,3.389.708,9.16,1,12.549a4.374,4.374,0,0,0-4.57,1.191A5.212,5.212,0,0,0,.141,24.408c.6,2.561,3.618,4.535,5.984,3.385a4.866,4.866,0,0,0,2.414-3.4,14.4,14.4,0,0,0,.08-4.293c-.324-3.989-.773-10.36-1.1-14.348l8.929-2.883A92.331,92.331,0,0,1,17.5,15.964a3.964,3.964,0,0,0-5.065,1.744,5.529,5.529,0,0,0,.494,5.623,5.3,5.3,0,0,0,3.345,2.314,3.657,3.657,0,0,0,3.664-1.457,6.062,6.062,0,0,0,.641-3.446,157.675,157.675,0,0,0-1.5-18.382A4.3,4.3,0,0,0,18.628.834Z" transform="translate(69.608 32.98) rotate(3)" fill="#08de6f"/>
    <path id="Path_99980_-_Outline" data-name="Path 99980 - Outline" d="M19.244,2.387A19.423,19.423,0,0,0,14.694,3.4c-2.419.652-7.726,1.749-7.448,4.985.292,3.389.708,9.16,1,12.549a4.374,4.374,0,0,0-4.57,1.191,5.212,5.212,0,0,0-1.147,4.669c.6,2.561,3.618,4.535,5.984,3.385a4.866,4.866,0,0,0,2.414-3.4,14.4,14.4,0,0,0,.08-4.293c-.324-3.989-.773-10.36-1.1-14.348L18.838,5.26a92.33,92.33,0,0,1,1.049,13.091,3.964,3.964,0,0,0-5.065,1.744,5.529,5.529,0,0,0,.494,5.623,5.3,5.3,0,0,0,3.345,2.314,3.657,3.657,0,0,0,3.664-1.457,6.062,6.062,0,0,0,.641-3.446,157.675,157.675,0,0,0-1.5-18.382,4.3,4.3,0,0,0-.452-1.525,1.636,1.636,0,0,0-.489-.53,2.305,2.305,0,0,0-1.282-.3m0-2.387V0a4.6,4.6,0,0,1,2.614.71A4.017,4.017,0,0,1,23.067,2a6.414,6.414,0,0,1,.758,2.379,160.974,160.974,0,0,1,1.525,18.7,8.3,8.3,0,0,1-1.024,4.788,5.967,5.967,0,0,1-5,2.6,6.212,6.212,0,0,1-1.077-.094,7.679,7.679,0,0,1-4.9-3.321l-.029-.043q-.027.142-.059.285a7.162,7.162,0,0,1-3.7,5.024,5.711,5.711,0,0,1-2.519.576A7.346,7.346,0,0,1,.205,27.341a7.6,7.6,0,0,1,1.718-6.835,6.93,6.93,0,0,1,3.723-2.059c-.091-1.148-.187-2.384-.28-3.6-.174-2.248-.353-4.573-.5-6.258a5.029,5.029,0,0,1,1.1-3.6A7.671,7.671,0,0,1,8.474,3a23.316,23.316,0,0,1,5-1.746c.213-.055.413-.107.6-.157s.424-.122.706-.208A16.263,16.263,0,0,1,19.243,0ZM17.438,15.673c-.095-2.272-.294-4.951-.565-7.271L12.436,9.834c.128,1.644.266,3.5.4,5.32.081,1.079.162,2.173.242,3.227a6.63,6.63,0,0,1,4.358-2.709Z" transform="translate(67.349 30.472) rotate(3)"/>
    <g id="_2" data-name="2" transform="matrix(0.966, -0.259, 0.259, 0.966, 0, 16.248)">
      <g id="Group_44051" data-name="Group 44051" transform="translate(0 0)">
        <path id="Path_99981" data-name="Path 99981" d="M58.208,78.5a3.238,3.238,0,0,1-1.757,1.429c-6.36,3.174-13.077,3.667-20.01,2.733a44.041,44.041,0,0,1-7.8-2.209c-1.728-.565-3.4-1.287-5.093-1.968a19.09,19.09,0,0,1-4.626-2.61c-1.017-.789-2.166-1.409-3.158-2.226a39.24,39.24,0,0,1-3.929-3.572c-1.263-1.366-2.31-2.929-3.488-4.376A30.631,30.631,0,0,1,2.684,55.069,55.545,55.545,0,0,1,.231,45.4a36.892,36.892,0,0,1,1.62-15.652c.11-.337.264-.663.351-1.006,1.3-5.1,4.392-9.167,7.589-13.173.555-.695,1.149-1.362,1.651-2.093A16.317,16.317,0,0,1,15.8,9.4c.987-.682,2.02-1.306,2.955-2.053a20.162,20.162,0,0,1,5.586-3.061c2.659-1,5.321-1.994,8-2.921A28.307,28.307,0,0,1,40.337.052,31.891,31.891,0,0,1,53.059,1.723a33.893,33.893,0,0,1,3.293,1.439,14.779,14.779,0,0,1,1.726,1.2,14.769,14.769,0,0,1-3.026,1.931A38.16,38.16,0,0,0,42.53,16.277,54.363,54.363,0,0,0,34.536,29.6a28.424,28.424,0,0,0-1.7,8.187,7.343,7.343,0,0,0,.044,1.01,9.97,9.97,0,0,0,1.048.08,5.717,5.717,0,0,1,3.661,1.4,2.782,2.782,0,0,1,.644,3.291,3.709,3.709,0,0,1-2.987,2.179c-.833.095-1.664.213-2.692.347.39,1.681.708,3.318,1.152,4.92a43.081,43.081,0,0,0,8.375,15.922,18.06,18.06,0,0,0,3.838,3.672,7.375,7.375,0,0,1,.958.722,40.486,40.486,0,0,0,10.545,6.662A7.766,7.766,0,0,1,58.208,78.5ZM55.294,4.553c0-.112,0-.224.006-.336-.955-.315-1.934-.572-2.862-.955C48.176,1.5,43.711,1.287,39.2,1.53a22.509,22.509,0,0,0-6.525,1.239Q28.8,4.181,24.927,5.616a19.273,19.273,0,0,0-5.36,2.922c-.936.746-1.973,1.364-2.96,2.047a15.371,15.371,0,0,0-4.059,3.806c-.53.766-1.157,1.465-1.747,2.187a44.578,44.578,0,0,0-5.624,8.085,35.086,35.086,0,0,0-3.81,13.512A37.245,37.245,0,0,0,7.452,62c.94,1.4,2,2.72,3.045,4.048a39.969,39.969,0,0,0,3.38,4.114c2.462,2.395,5.443,4.122,8.288,6.017a4.856,4.856,0,0,0,.962.455c2.86,1.092,5.725,2.172,8.586,3.264a31.2,31.2,0,0,0,13.654,1.529c3.193-.234,6.142-1.348,9.132-2.333a11.337,11.337,0,0,0,1.255-.61c-.58-.311-.915-.53-1.279-.68a26.326,26.326,0,0,1-7.541-4.7,11.806,11.806,0,0,0-1.378-1.051,22.4,22.4,0,0,1-5.221-5.1A39.181,39.181,0,0,1,36.1,60.335c-.191-.379-.426-.736-.584-1.006-1.65.339-3.119.683-4.6.938-4.726.814-7.559-1.054-10.134-5.167a2.729,2.729,0,0,1-.183-.923l.292-.189a3.686,3.686,0,0,1,.954.722,10.786,10.786,0,0,0,3.314,3.048,7.375,7.375,0,0,0,2.2.852c1.876.456,3.706-.027,5.529-.418.591-.128,1.164-.34,1.871-.552a50.192,50.192,0,0,1-3.55-12.582c.561-.048.995-.07,1.425-.125a27.824,27.824,0,0,0,3.156-.452,2.232,2.232,0,0,0,1.627-1.926,1.818,1.818,0,0,0-1.126-1.924,5.13,5.13,0,0,0-2.645-.778c-.515-.006-1.03-.034-1.626-.056a17.131,17.131,0,0,1-.143-1.716,26.515,26.515,0,0,1,1.61-9.005,55.111,55.111,0,0,1,4.633-8.843A39.315,39.315,0,0,1,52.413,6.18C53.371,5.634,54.333,5.1,55.294,4.553Z" transform="translate(1.788 1.79)" fill="#ffec00" fill-rule="evenodd"/>
        <path id="Path_99981_-_Outline" data-name="Path 99981 - Outline" d="M44.207,86.668a46.838,46.838,0,0,1-6.218-.438,34.432,34.432,0,0,1-6.579-1.764c-.5-.173-1.027-.351-1.537-.518-1.436-.47-2.831-1.04-4.181-1.592q-.512-.209-1.024-.417a20.743,20.743,0,0,1-5.054-2.857c-.414-.321-.869-.621-1.35-.939a21.292,21.292,0,0,1-1.847-1.318,40.846,40.846,0,0,1-4.105-3.739c-.852-.921-1.6-1.905-2.318-2.858-.424-.56-.824-1.088-1.244-1.6A32.55,32.55,0,0,1,2.757,57.372c-.174-.583-.359-1.179-.537-1.755A44.508,44.508,0,0,1,.24,47.386a38.838,38.838,0,0,1,1.7-16.4c.058-.179.121-.343.176-.487a4.257,4.257,0,0,0,.142-.406c1.352-5.319,4.389-9.419,7.926-13.85.176-.221.355-.437.527-.646.381-.462.742-.9,1.048-1.344a18.072,18.072,0,0,1,4.81-4.531c.333-.23.667-.452.991-.666.665-.44,1.293-.856,1.865-1.313A21.889,21.889,0,0,1,25.5,4.4c2.86-1.073,5.44-2.036,8.049-2.937a30.456,30.456,0,0,1,8.5-1.41C42.81.018,43.566,0,44.29,0A31.731,31.731,0,0,1,55.468,1.835a35.409,35.409,0,0,1,3.468,1.515,8.854,8.854,0,0,1,1.416.932c.176.133.358.271.545.4l1.882,1.328-1.751,1.5a16.438,16.438,0,0,1-3.371,2.163,36.088,36.088,0,0,0-11.944,9.517,52.837,52.837,0,0,0-7.735,12.888,24.519,24.519,0,0,0-1.49,6.836,7.862,7.862,0,0,1,3.976,1.736,4.578,4.578,0,0,1,1.146,5.53,5.491,5.491,0,0,1-4.375,3.139c-.239.027-.477.056-.722.088.223,1.011.44,1.974.7,2.923A41.525,41.525,0,0,0,45.25,67.594a16.152,16.152,0,0,0,3.452,3.32,8.88,8.88,0,0,1,1.186.9,38.881,38.881,0,0,0,10.095,6.354,5.293,5.293,0,0,1,.763.467c.08.056.155.108.228.156l1.318.86-.684,1.417A4.668,4.668,0,0,1,59.2,83.245l-.162.08A32.448,32.448,0,0,1,44.207,86.668ZM43.851,5.028c-.863,0-1.767.026-2.765.08a20.637,20.637,0,0,0-6.009,1.133C32.744,7.09,30.03,8.08,27.34,9.083a17.522,17.522,0,0,0-4.87,2.645c-.685.546-1.4,1.015-2.086,1.469-.337.222-.655.432-.969.649A13.775,13.775,0,0,0,15.808,17.2c-.435.629-.909,1.194-1.367,1.742-.162.193-.314.375-.465.56a42.734,42.734,0,0,0-5.409,7.754A33.4,33.4,0,0,0,4.942,40.08a35.66,35.66,0,0,0,5.784,22.707c.782,1.164,1.648,2.264,2.564,3.428l.4.513c.277.354.549.712.813,1.059a25.379,25.379,0,0,0,2.408,2.876,39.762,39.762,0,0,0,6.269,4.658c.578.374,1.176.762,1.763,1.153a3.72,3.72,0,0,0,.608.272c1.452.554,2.93,1.115,4.36,1.658,1.385.525,2.817,1.069,4.225,1.606a25.95,25.95,0,0,0,9.379,1.553c1.093,0,2.239-.045,3.506-.138a25.561,25.561,0,0,0,6.041-1.362,28.249,28.249,0,0,1-5.531-3.841,10.018,10.018,0,0,0-1.17-.892,24.224,24.224,0,0,1-5.648-5.489,41.323,41.323,0,0,1-4.321-6.7l-.253.054c-1.077.23-2.093.448-3.137.628a13.95,13.95,0,0,1-2.355.213,9.469,9.469,0,0,1-5.57-1.689,14.776,14.776,0,0,1-4.03-4.5,3.04,3.04,0,0,1-.412-1.406c0-.051-.011-.122-.015-.146l-.215-1.177,1.016-.654.277-.179,1.035-.673,1,.729c.041.03.123.08.2.128a3.544,3.544,0,0,1,1.185,1.045A8.9,8.9,0,0,0,27.9,58.037a5.853,5.853,0,0,0,1.664.624,4.98,4.98,0,0,0,1.191.134,14.745,14.745,0,0,0,3.059-.459l.34-.074a49.38,49.38,0,0,1-2.938-11.178l-.247-1.859,1.869-.16c.194-.017.373-.03.542-.043.3-.023.568-.043.809-.074.3-.039.606-.072.9-.1a15.917,15.917,0,0,0,2.056-.311c.126-.031.217-.164.272-.4a2.269,2.269,0,0,0-.267-.183,3.343,3.343,0,0,0-1.743-.521c-.383,0-.757-.02-1.152-.036l-.517-.02-1.58-.057-.139-1.574c-.018-.2-.04-.394-.061-.581a9.677,9.677,0,0,1-.088-1.33A28.221,28.221,0,0,1,33.6,30.228a56.436,56.436,0,0,1,4.775-9.133A41.284,41.284,0,0,1,53.108,6.534,25.179,25.179,0,0,0,43.851,5.028Z"/>
        <path id="Path_99982" data-name="Path 99982" d="M54.021,3.1c-.96.542-1.923,1.081-2.881,1.627a39.315,39.315,0,0,0-14.3,14.054,55.111,55.111,0,0,0-4.633,8.843,26.515,26.515,0,0,0-1.61,9.005,17.132,17.132,0,0,0,.143,1.716c.6.022,1.111.049,1.626.056a5.13,5.13,0,0,1,2.645.778,1.818,1.818,0,0,1,1.126,1.924,2.232,2.232,0,0,1-1.627,1.926,27.833,27.833,0,0,1-3.156.452c-.43.055-.864.076-1.425.125a50.19,50.19,0,0,0,3.55,12.582c-.708.212-1.281.424-1.871.552-1.823.392-3.653.875-5.529.418a7.374,7.374,0,0,1-2.2-.852,10.785,10.785,0,0,1-3.314-3.048,3.685,3.685,0,0,0-.954-.722l-.292.189a2.728,2.728,0,0,0,.183.923c2.575,4.114,5.408,5.981,10.134,5.167,1.484-.255,2.953-.6,4.6-.938.157.27.393.627.583,1.006A39.184,39.184,0,0,0,39.062,65.5a22.4,22.4,0,0,0,5.221,5.1,11.809,11.809,0,0,1,1.378,1.051,26.328,26.328,0,0,0,7.541,4.7c.364.149.7.369,1.279.68a11.339,11.339,0,0,1-1.255.61c-2.99.984-5.939,2.1-9.132,2.333a31.2,31.2,0,0,1-13.654-1.529c-2.861-1.092-5.726-2.172-8.586-3.264a4.857,4.857,0,0,1-.962-.455c-2.845-1.895-5.826-3.623-8.288-6.017A39.966,39.966,0,0,1,9.225,64.6c-1.042-1.328-2.1-2.648-3.045-4.048A37.245,37.245,0,0,1,.1,36.728a35.085,35.085,0,0,1,3.81-13.512,44.58,44.58,0,0,1,5.624-8.085c.59-.722,1.217-1.421,1.747-2.187a15.371,15.371,0,0,1,4.059-3.806c.986-.683,2.024-1.3,2.96-2.047a19.273,19.273,0,0,1,5.36-2.922q3.867-1.442,7.75-2.847A22.509,22.509,0,0,1,37.93.082C42.439-.161,46.9.054,51.165,1.815c.928.382,1.907.64,2.862.955C54.025,2.881,54.023,2.993,54.021,3.1Z" transform="translate(3.06 3.238)" fill="#ffec00" fill-rule="evenodd"/>
        <path id="Path_99983" data-name="Path 99983" d="M0,1.75A5.616,5.616,0,0,1,.461.6,1.539,1.539,0,0,1,1.979.01,1.024,1.024,0,0,1,3.006.876a2.39,2.39,0,0,1-.258,2.212A1.554,1.554,0,0,1,1.19,3.78,1.139,1.139,0,0,1,.123,2.813C.064,2.534.056,2.25,0,1.75Z" transform="translate(21.93 38.15)" fill-rule="evenodd"/>
        <g id="Group_44050" data-name="Group 44050" transform="translate(8.377 8.287)">
          <path id="Path_99984" data-name="Path 99984" d="M.41,1.16C.094,1.149-.005.964,0,.7.01.233.315.039.728,0a.38.38,0,0,1,.419.439C1.116.883.777,1.057.41,1.16Z" transform="translate(12.328 8.425)" fill-rule="evenodd"/>
          <path id="Path_99985" data-name="Path 99985" d="M1.172.412c-.113.363-.294.663-.688.725C.185,1.185.013,1.013,0,.71A.631.631,0,0,1,.626,0,.505.505,0,0,1,1.172.412Z" transform="translate(15.975 6.826)" fill-rule="evenodd"/>
          <path id="Path_99986" data-name="Path 99986" d="M1.181.455a.76.76,0,0,1-.693.627C.2,1.1-.018.963,0,.656A.653.653,0,0,1,.688,0C.986-.01,1.122.192,1.181.455Z" transform="translate(14.242 7.91)" fill-rule="evenodd"/>
          <path id="Path_99987" data-name="Path 99987" d="M0,.66C.012.286.133.01.531,0c.368-.009.526.243.513.572a.609.609,0,0,1-.6.606C.065,1.212.009.933,0,.66Z" transform="translate(12.735 55.631)" fill-rule="evenodd"/>
          <path id="Path_99988" data-name="Path 99988" d="M.533,0c.349-.008.567.108.57.458s-.159.617-.545.621A.536.536,0,0,1,0,.52C-.029.131.255.04.533,0Z" transform="translate(10.351 53.983)" fill-rule="evenodd"/>
          <path id="Path_99989" data-name="Path 99989" d="M.346,1.205c-.254-.043-.38-.187-.338-.4a.959.959,0,0,1,.784-.8.31.31,0,0,1,.341.411A1.194,1.194,0,0,1,.346,1.205Z" transform="translate(23.191 17.143)" fill-rule="evenodd"/>
          <path id="Path_99990" data-name="Path 99990" d="M.925.473C.919.91.811,1.206.413,1.208A.408.408,0,0,1,.007.693C.058.35.228.017.608,0,.955-.014.913.319.925.473Z" transform="translate(0.907 38.123)" fill-rule="evenodd"/>
          <path id="Path_99991" data-name="Path 99991" d="M.746,0c.168.009.5-.01.488.378C1.225.783.91.868.567.872.258.875-.011.76,0,.431.013.064.32-.014.746,0Z" transform="translate(34.456 1.172)" fill-rule="evenodd"/>
          <path id="Path_99992" data-name="Path 99992" d="M1.036.434a.552.552,0,0,1-.548.576A.443.443,0,0,1,0,.552C-.029.174.225.032.54,0A.439.439,0,0,1,1.036.434Z" transform="translate(10.51 56.549)" fill-rule="evenodd"/>
          <path id="Path_99993" data-name="Path 99993" d="M.548,0c.343.038.63.139.585.485C1.085.846.74.88.445.9A.384.384,0,0,1,0,.424C.038.072.305.012.548,0Z" transform="translate(16.764 5.423)" fill-rule="evenodd"/>
          <path id="Path_99994" data-name="Path 99994" d="M.5,1.011C.213.992-.006.867,0,.565A.547.547,0,0,1,.554,0,.4.4,0,0,1,1.031.44C1.042.808.815.951.5,1.011Z" transform="translate(13.039 6.653)" fill-rule="evenodd"/>
          <path id="Path_99995" data-name="Path 99995" d="M.959.432c0,.355-.085.574-.408.58A.5.5,0,0,1,0,.476.419.419,0,0,1,.453,0,.463.463,0,0,1,.959.432Z" transform="translate(7.228 52.522)" fill-rule="evenodd"/>
          <path id="Path_99996" data-name="Path 99996" d="M.944.461c0,.311-.116.561-.44.577A.473.473,0,0,1,0,.522.465.465,0,0,1,.49,0C.8-.012.931.177.944.461Z" transform="translate(9.011 51.215)" fill-rule="evenodd"/>
          <path id="Path_99997" data-name="Path 99997" d="M.529,0c.3,0,.57.06.555.432C1.07.781.77.87.506.9A.423.423,0,0,1,0,.464C-.014.1.215,0,.529,0Z" transform="translate(32.248 0.677)" fill-rule="evenodd"/>
          <path id="Path_99998" data-name="Path 99998" d="M1.046.405A.476.476,0,0,1,.572.9C.266.931.026.8,0,.479-.021.187.175.025.459,0A.515.515,0,0,1,1.046.405Z" transform="translate(36.822 0.209)" fill-rule="evenodd"/>
          <path id="Path_99999" data-name="Path 99999" d="M1,.56C.966.889.748.964.472.94S-.013.769,0,.473C.012.209.142-.02.459,0A.549.549,0,0,1,1,.56Z" transform="translate(7.65 55.28)" fill-rule="evenodd"/>
          <path id="Path_100000" data-name="Path 100000" d="M.965.42a.6.6,0,0,1-.6.561C.127,1,0,.836,0,.584,0,.192.235.029.583,0,.841-.019.95.145.965.42Z" transform="translate(18.778 41.294)" fill-rule="evenodd"/>
          <path id="Path_100001" data-name="Path 100001" d="M1.021.353C.93.6.891.921.52.959A.42.42,0,0,1,0,.552C0,.164.34.061.65.006.863-.031,1,.1,1.021.353Z" transform="translate(0.035 34.941)" fill-rule="evenodd"/>
          <path id="Path_100002" data-name="Path 100002" d="M.479.921C.212.908,0,.793,0,.523A.485.485,0,0,1,.5,0,.365.365,0,0,1,.928.42.477.477,0,0,1,.479.921Z" transform="translate(27.935 60.633)" fill-rule="evenodd"/>
          <path id="Path_100003" data-name="Path 100003" d="M.423,0C.792.006.956.153.941.467A.421.421,0,0,1,.492.9.436.436,0,0,1,0,.441.392.392,0,0,1,.423,0Z" transform="translate(34.021 2.947)" fill-rule="evenodd"/>
          <path id="Path_100004" data-name="Path 100004" d="M.426.982A.369.369,0,0,1,0,.6.493.493,0,0,1,.428.008C.7-.038.862.113.859.4A.546.546,0,0,1,.426.982Z" transform="translate(3.23 30.585)" fill-rule="evenodd"/>
          <path id="Path_100005" data-name="Path 100005" d="M.919.335A.528.528,0,0,1,.428.911.35.35,0,0,1,0,.569.49.49,0,0,1,.454.007.367.367,0,0,1,.919.335Z" transform="translate(20.932 17.823)" fill-rule="evenodd"/>
          <path id="Path_100006" data-name="Path 100006" d="M.88.433a.48.48,0,0,1-.45.5C.141.96.007.761,0,.505A.442.442,0,0,1,.442,0C.721-.015.865.14.88.433Z" transform="translate(1.804 32.53)" fill-rule="evenodd"/>
          <path id="Path_100007" data-name="Path 100007" d="M.452,0A.458.458,0,0,1,.916.457C.933.754.728.842.473.852.175.863,0,.725,0,.416,0,.137.159.009.452,0Z" transform="translate(4.953 55.619)" fill-rule="evenodd"/>
          <path id="Path_100008" data-name="Path 100008" d="M.343.938A.329.329,0,0,1,.007.532.657.657,0,0,1,.615,0c.2-.028.269.183.247.352C.825.647.747.933.343.938Z" transform="translate(21.906 19.626)" fill-rule="evenodd"/>
          <path id="Path_100009" data-name="Path 100009" d="M.86.456C.867.753.7.865.433.854A.4.4,0,0,1,0,.432.366.366,0,0,1,.4,0,.412.412,0,0,1,.86.456Z" transform="translate(28.163 62.894)" fill-rule="evenodd"/>
          <path id="Path_100010" data-name="Path 100010" d="M.854.418A.4.4,0,0,1,.437.851.38.38,0,0,1,0,.493C-.009.248.1.02.377,0A.425.425,0,0,1,.854.418Z" transform="translate(14.906 6.042)" fill-rule="evenodd"/>
          <path id="Path_100011" data-name="Path 100011" d="M.79.39C.772.7.671.918.355.922A.332.332,0,0,1,0,.513.5.5,0,0,1,.454,0C.73-.018.775.2.79.39Z" transform="translate(0.668 30.82)" fill-rule="evenodd"/>
          <path id="Path_100012" data-name="Path 100012" d="M.829.452A.378.378,0,0,1,.379.83C.091.815-.018.634,0,.366A.367.367,0,0,1,.419,0C.7,0,.834.156.829.452Z" transform="translate(25.524 61.77)" fill-rule="evenodd"/>
          <path id="Path_100013" data-name="Path 100013" d="M.9.376a.372.372,0,0,1-.389.4A.426.426,0,0,1,0,.364C-.013.113.2.006.419,0A.431.431,0,0,1,.9.376Z" transform="translate(33.941 0)" fill-rule="evenodd"/>
          <path id="Path_100014" data-name="Path 100014" d="M.805.413A.415.415,0,0,1,.342.85C.13.844-.028.734,0,.505.04.251.153.023.456,0,.728-.018.811.154.805.413Z" transform="translate(17.193 39.112)" fill-rule="evenodd"/>
          <path id="Path_100015" data-name="Path 100015" d="M.8.4C.775.672.649.841.37.835A.345.345,0,0,1,0,.433.419.419,0,0,1,.436,0C.693,0,.792.172.8.4Z" transform="translate(19.137 17.968)" fill-rule="evenodd"/>
          <path id="Path_100016" data-name="Path 100016" d="M.344,0C.622.049.773.189.763.432S.634.887.339.87C.073.855-.009.662,0,.429A.439.439,0,0,1,.344,0Z" transform="translate(8.73 57.7)" fill-rule="evenodd"/>
          <path id="Path_100017" data-name="Path 100017" d="M.828.383C.756.623.654.821.373.826A.332.332,0,0,1,0,.436C.021.193.145-.01.429,0A.4.4,0,0,1,.828.383Z" transform="translate(19.181 19.843)" fill-rule="evenodd"/>
          <path id="Path_100018" data-name="Path 100018" d="M.469,0A.327.327,0,0,1,.814.358.389.389,0,0,1,.42.809C.188.822.01.727,0,.469-.011.151.234.072.469,0Z" transform="translate(0 33.064)" fill-rule="evenodd"/>
          <path id="Path_100019" data-name="Path 100019" d="M.368.77C.143.76.007.652,0,.43A.389.389,0,0,1,.362,0C.6-.027.7.139.708.346A.357.357,0,0,1,.368.77Z" transform="translate(26.55 64.328)" fill-rule="evenodd"/>
          <path id="Path_100020" data-name="Path 100020" d="M.7.4C.7.617.6.76.377.768.121.777.01.613,0,.377-.007.172.067-.008.3,0A.434.434,0,0,1,.7.4Z" transform="translate(29.93 65.588)" fill-rule="evenodd"/>
          <path id="Path_100021" data-name="Path 100021" d="M.721.354A.324.324,0,0,1,.345.732C.12.729-.009.63,0,.393A.366.366,0,0,1,.389,0C.624-.006.723.13.721.354Z" transform="translate(2.608 34.911)" fill-rule="evenodd"/>
          <path id="Path_100022" data-name="Path 100022" d="M.34.726A.316.316,0,0,1,0,.369.384.384,0,0,1,.42,0a.281.281,0,0,1,.3.321C.7.542.6.72.34.726Z" transform="translate(16.594 42.257)" fill-rule="evenodd"/>
        </g>
      </g>
    </g>
    <path id="Path_100027" data-name="Path 100027" d="M17.522.411,14.165.176a9.1,9.1,0,0,0-2.95-.064C9.522.6,9.585,2.9,9.269,4.3A52.228,52.228,0,0,1,7.6,10.084c-.011-.029-.018-.06-.03-.089-1.087-2.65-4.161-2.525-5.99-.717a4.8,4.8,0,0,0-.743,6.229,4.063,4.063,0,0,0,5.768.854,8.59,8.59,0,0,0,2.184-3.65,51.693,51.693,0,0,0,1.814-5.357q.38-1.362.685-2.744c.109-.492.161-2.193.532-2.494S13.9,2.2,14.4,2.237l3.118.218C18.834,2.547,18.829.5,17.522.411Z" transform="matrix(0.985, -0.174, 0.174, 0.985, 55.208, 24.311)" fill="#08de6f"/>
    <path id="Path_100027_-_Outline" data-name="Path 100027 - Outline" d="M14.521,2.387A3.318,3.318,0,0,0,13.6,2.5c-1.693.49-1.63,2.789-1.946,4.184A52.229,52.229,0,0,1,9.99,12.47c-.011-.029-.018-.06-.03-.089C8.872,9.731,5.8,9.856,3.97,11.664a4.8,4.8,0,0,0-.743,6.229,4.063,4.063,0,0,0,5.768.854,8.59,8.59,0,0,0,2.184-3.65A51.693,51.693,0,0,0,12.992,9.74q.38-1.362.685-2.744c.109-.492.161-2.193.532-2.494s2.075.086,2.581.121l3.118.218c1.312.092,1.307-1.953,0-2.044l-3.357-.235c-.619-.043-1.348-.176-2.031-.176m0-2.387A13.345,13.345,0,0,1,16.09.117c.231.027.45.052.628.065L18.5.307l1.575.11a3.374,3.374,0,0,1,2.472,1.311,3.546,3.546,0,0,1,.728,2.287,3.257,3.257,0,0,1-3.282,3.217c-.083,0-.168,0-.252-.009L16.624,7c-.162-.011-.331-.034-.525-.062-.025.206-.052.394-.091.568-.211.957-.452,1.923-.717,2.871a54.288,54.288,0,0,1-1.9,5.6l-.064.161a10.323,10.323,0,0,1-2.819,4.444,6.064,6.064,0,0,1-3.9,1.395,6.721,6.721,0,0,1-5.279-2.636A6.587,6.587,0,0,1,.077,14.322,7.762,7.762,0,0,1,2.292,9.968,6.808,6.808,0,0,1,7.014,7.957a5.684,5.684,0,0,1,1.794.283q.283-1.039.52-2.084c.045-.2.087-.475.131-.767a10.51,10.51,0,0,1,.62-2.539A4.372,4.372,0,0,1,12.938.207,5.626,5.626,0,0,1,14.521,0Z" transform="matrix(0.985, -0.174, 0.174, 0.985, 52.443, 22.375)"/>
  </g>
</svg>
