<svg id="ico10" xmlns="http://www.w3.org/2000/svg" width="122.893" height="102.411" viewBox="0 0 122.893 102.411">
  <rect id="Rectangle_5578" data-name="Rectangle 5578" width="122.893" height="102.411" transform="translate(0 0)" fill="none"/>
  <g id="Group_44018" data-name="Group 44018" transform="matrix(0.99, -0.139, 0.139, 0.99, 8.638, 22.973)">
    <g id="Group_44007" data-name="Group 44007" transform="translate(7.683 7.629)">
      <path id="Path_99834" data-name="Path 99834" d="M12.28,2.81a2.532,2.532,0,0,0-1.6-2.636A4.941,4.941,0,0,0,8.4.093L1.7.91a1.425,1.425,0,0,0-.68.2,1.351,1.351,0,0,0-.421.7A11.9,11.9,0,0,0,0,4.843C-.051,5.7.822,5.9,1.625,6.207c2.677,1.034,5.72.383,8.359-.743a5.477,5.477,0,0,0,1.784-1.083C12.261,3.885,12.186,3.5,12.28,2.81Z" transform="translate(38.038 0)" fill="#ffd347"/>
      <g id="Group_43990" data-name="Group 43990" transform="translate(0 1.147)">
        <path id="Path_99835" data-name="Path 99835" d="M3.282,52.571C-.764,41.35-.336,27.837.723,15.995a20.348,20.348,0,0,1,1.9-7.95A13.929,13.929,0,0,1,9.936,1.973,28.638,28.638,0,0,1,19.452.326C25.214.141,31.978.23,37.179,2.933a15.579,15.579,0,0,0,5.459,2.138c2.953.292,5.509-1.339,8.069-2.532A21.675,21.675,0,0,1,59.228.646l12.1-.577c3.416-.163,7.187-.214,9.814,1.975,2.532,2.11,3.218,5.656,3.745,8.909C86,17.894,87.546,24,87.35,31.151c-.111,4.036-.387,8.066-.783,12.084-.447,4.54-1.521,9.773-5.593,11.829-3.766,1.9-8.494.021-11.418-3.02s-4.6-7.034-6.77-10.649-5.228-7.11-9.358-7.968c-2.738-.569-5.556.1-8.326.485-5.232.721-10.72.431-15.58,2.5a17.292,17.292,0,0,0-9.378,9.934c-1.47,4.092-1.566,9.049-4.858,11.889a7.466,7.466,0,0,1-8.213.892,7.468,7.468,0,0,1-3.755-7.36" transform="translate(0 0)" fill="#ffec00"/>
      </g>
      <path id="Path_99838" data-name="Path 99838" d="M2.075,1.569c.338-.138.055-.727-.309-.7s-.606.378-.792.692C.238,2.8-.453,4.422.379,5.6a2.6,2.6,0,0,0,1.064.83,3.819,3.819,0,0,0,4.192-.726,3.521,3.521,0,0,0,.538-4.17A3.268,3.268,0,0,0,2.234.229" transform="translate(68.723 23.541)" fill="#08de6f"/>
      <path id="Path_99839" data-name="Path 99839" d="M2.737.723C1.159.4-.294,2.213.051,3.786A3.713,3.713,0,0,0,3.672,6.417,3.256,3.256,0,0,0,5.6,5.889a2.851,2.851,0,0,0,.952-1.211A3.462,3.462,0,0,0,5.7.837,3.463,3.463,0,0,0,1.784.422" transform="translate(64.249 7.353)" fill="#08de6f"/>
      <path id="Path_99840" data-name="Path 99840" d="M3.294.368a2.572,2.572,0,0,0-3.2,1.8A3.435,3.435,0,0,0,1.606,5.745a3.864,3.864,0,0,0,4.221.033A3.391,3.391,0,0,0,7.06,1.825,3.025,3.025,0,0,0,3.365.162" transform="translate(73.241 14.046)" fill="#08de6f"/>
      <path id="Path_99841" data-name="Path 99841" d="M3.337.453A3.13,3.13,0,0,0,.02,3.794,3.386,3.386,0,0,0,2.984,6.583,4.184,4.184,0,0,0,6.753,4.767a3.237,3.237,0,0,0,.554-1.255A2.981,2.981,0,0,0,5.839.564,4.645,4.645,0,0,0,2.448.137" transform="translate(58.24 17.929)" fill="#08de6f"/>
      <g id="Group_43993" data-name="Group 43993" transform="translate(68.187 22.838)">
        <path id="Path_99846" data-name="Path 99846" d="M3.255,2.179C3.3,1.366,2.666.732,1.837,1.1.935,1.507.394,3,.148,3.865-.569,6.387,1.42,8.194,3.906,7.971A4.127,4.127,0,0,0,7.625,3.139C7.216.9,4.686-.75,2.542.351c-.572.293-.451,1.37.3,1.2a3.2,3.2,0,0,1,3.2.771,2.863,2.863,0,0,1-.567,4.011c-1.051.772-3.009.907-3.925-.168a2.2,2.2,0,0,1-.18-2.326c.094-.247.922-1.535.913-1.558.167.443.94.41.969-.106Z" transform="translate(0 0)" fill="#023349"/>
      </g>
      <g id="Group_43994" data-name="Group 43994" transform="translate(63.749 6.601)">
        <path id="Path_99847" data-name="Path 99847" d="M3.3,1.085A2.948,2.948,0,0,0,.049,4.594c.4,2.19,2.952,3.378,4.99,3A3.7,3.7,0,0,0,7.548,2.5,3.928,3.928,0,0,0,1.854.581c-.721.458-.064,1.55.7,1.275,1.3-.467,2.826-.495,3.712.755A2.512,2.512,0,0,1,4.858,6.594a3.458,3.458,0,0,1-3.5-1.424A2.182,2.182,0,0,1,3.177,1.863.394.394,0,0,0,3.3,1.085Z" transform="translate(0 0)" fill="#023349"/>
      </g>
      <g id="Group_43995" data-name="Group 43995" transform="translate(72.652 13.449)">
        <path id="Path_99848" data-name="Path 99848" d="M4.057.581A3.017,3.017,0,0,0,.011,3.755,4.334,4.334,0,0,0,4.746,7.528,4.074,4.074,0,0,0,8.415,3.07,3.522,3.522,0,0,0,3.742.215c-.6.227-.382,1.273.279,1.124A2.586,2.586,0,0,1,7.187,2.918a2.77,2.77,0,0,1-2.2,3.456A3.317,3.317,0,0,1,1.616,4.921a2.259,2.259,0,0,1,2.2-3.541.423.423,0,0,0,.239-.8Z" transform="translate(0 0)" fill="#023349"/>
      </g>
      <g id="Group_43996" data-name="Group 43996" transform="translate(57.636 17.137)">
        <path id="Path_99849" data-name="Path 99849" d="M3.994.9C1.953.3-.013,2.277,0,4.3A3.97,3.97,0,0,0,4.64,7.921C6.8,7.57,8.969,5.409,8.451,3.094,7.938.8,4.8-.908,2.759.528a.5.5,0,0,0,.215.89c1.414.374,3.14-.074,4.044,1.414,1.038,1.709-.74,3.577-2.391,3.893a2.771,2.771,0,0,1-3.4-2.482C1.214,2.758,2.675,1.849,3.978,1.589A.348.348,0,0,0,3.994.9Z" transform="translate(0 0)" fill="#023349"/>
      </g>
      <path id="Path_99850" data-name="Path 99850" d="M18.724,11.459a26.925,26.925,0,0,1-.431-6.274l-.98-.637c-1.829.2-3.656.43-5.481.666C11.459,3.477,11.076,1.741,10.723,0a26.9,26.9,0,0,1-6.24.771L3.9,1.785q.37,2.222.774,4.437Q2.334,6.58,0,6.972q.647,3.7.93,7.441c1.718-.319,3.441-.608,5.163-.908.375,1.814.76,3.627,1.167,5.435q3.654-.847,7.379-1.332c-.429-1.769-.827-3.544-1.235-5.317C15.177,12.01,16.948,11.719,18.724,11.459Z" transform="translate(10.512 11.917)" fill="#08de6f"/>
      <g id="Group_43997" data-name="Group 43997" transform="translate(9.638 11.036)">
        <path id="Path_99851" data-name="Path 99851" d="M20.462,12.241c-.145-.867-.276-1.726-.353-2.6-.088-.991.227-2.524-.084-3.439a1.628,1.628,0,0,0-.563-.973c-1.535-1.542-5.057-.227-6.855,0L13.569,6c-.374-1.737-.75-3.473-1.108-5.213A.88.88,0,0,0,11.5.017,30.092,30.092,0,0,1,6.833.727C5.9.787,5.278.606,4.624,1.2c-1.557,1.407-.233,4.379.059,6l.766-.961Q3.11,6.6.776,6.989a.881.881,0,0,0-.765.961c.415,2.472.724,4.944.93,7.441a.876.876,0,0,0,.962.765c1.719-.313,3.441-.609,5.163-.907L6.1,14.484q.565,2.722,1.167,5.435c.094.419.465.877.962.765,2.446-.548,4.9-.991,7.379-1.332a.875.875,0,0,0,.766-.961c-.423-1.77-.829-3.544-1.236-5.317l-.765.961c1.772-.282,3.545-.566,5.32-.831,1.1-.165.914-1.894-.2-1.728-1.775.266-3.548.55-5.32.832a.876.876,0,0,0-.766.962c.407,1.774.813,3.548,1.236,5.317l.765-.962c-2.483.341-4.934.784-7.379,1.332L9,19.722q-.605-2.714-1.168-5.435a.883.883,0,0,0-.961-.765c-1.722.3-3.444.594-5.163.907l.962.765c-.206-2.5-.515-4.969-.93-7.441l-.766.962q2.335-.389,4.674-.75A.879.879,0,0,0,6.411,7c-.225-1.251-1.242-4.124-.16-4.623A21.455,21.455,0,0,1,8.6,2.313c1.044-.128,2.071-.338,3.1-.568L10.734.979c.358,1.74.734,3.476,1.107,5.214a.889.889,0,0,0,.962.765c1.209-.155,4.949-1.136,5.517-.181.225.379-.037,1.5-.011,2.012a31.215,31.215,0,0,0,.426,3.649C18.919,13.535,20.647,13.348,20.462,12.241Z" transform="translate(0 0)" fill="#023349"/>
      </g>
      <g id="Group_44003" data-name="Group 44003" transform="translate(17.99 3.436)">
        <path id="Path_99857" data-name="Path 99857" d="M.9,3.428c.821-.27,1.588-.584,2.393-.9.746-.289,1.787-.326,2.279-1.011A.891.891,0,0,0,5.444.279C4.509-.3,3.46.146,2.513.547A5.214,5.214,0,0,0,.139,2.387.671.671,0,0,0,.9,3.428Z" transform="translate(0 0)" fill="#f9ec00"/>
      </g>
      <g id="Group_44004" data-name="Group 44004" transform="translate(4.559 37.194)">
        <path id="Path_99858" data-name="Path 99858" d="M.125.322a21.932,21.932,0,0,0,.1,5.441c.2,1.507.191,3.449,1.168,4.662a.329.329,0,0,0,.561-.057C2.417,8.963,1.9,7.4,1.73,5.949A54.32,54.32,0,0,0,.906.339C.816-.063.18-.154.125.322Z" transform="translate(0 0)" fill="#f9ec00"/>
      </g>
      <g id="Group_44005" data-name="Group 44005" transform="translate(3.1 31.354)">
        <path id="Path_99859" data-name="Path 99859" d="M1.531,3.843l.094-.062-.436.17.029-.007a1.145,1.145,0,0,0,.962-.923A6.591,6.591,0,0,0,2.522.9,1.032,1.032,0,0,0,.911.2C.058.8.014,2.028,0,2.974a1.055,1.055,0,0,0,.64.878L.6,3.817a.8.8,0,0,0,.929.026Z" transform="translate(0 0)" fill="#f9ec00"/>
      </g>
      <g id="Group_44006" data-name="Group 44006" transform="translate(81.361 33.054)">
        <path id="Path_99860" data-name="Path 99860" d="M1.157.421C.535,2.341.665,4.4.513,6.4.367,8.33-.237,10.449.1,12.352a.5.5,0,0,0,.864.254c1.362-1.483,1.611-3.918,1.787-5.853a16.66,16.66,0,0,0-.245-6.3A.741.741,0,0,0,1.157.421Z" transform="translate(0 0)" fill="#f9ec00"/>
      </g>
    </g>
    <g id="Group_44018-2" data-name="Group 44018" transform="translate(0 0)">
      <path id="Path_99837" data-name="Path 99837" d="M5.42,53.988A94.407,94.407,0,0,1,2.951,25.279C3.215,20.7,3,14.953,5.135,10.8c2.309-4.492,7.281-6.389,12.027-6.981a50.37,50.37,0,0,1,14.567.239,23.158,23.158,0,0,1,6.659,2.23c2.027,1.036,3.973,2.032,6.3,2.072,3.8.066,6.828-2.475,10.326-3.531,4.783-1.443,10.212-1.1,15.162-1.327,4.683-.217,10.9-1.128,13.181,4.1,1.8,4.117,2.057,9.3,2.777,13.7a70.826,70.826,0,0,1,.791,15.685c-.247,4.325-.27,8.987-1.557,13.158-1.583,5.127-6.1,7.207-10.839,4.31-3.888-2.376-5.822-6.865-7.951-10.689-1.921-3.452-4.239-6.89-7.711-8.949-3.817-2.263-7.84-1.729-12.036-1.145-9.364,1.3-19.1.82-24.967,9.652-2.56,3.856-2.66,8.278-4.478,12.4-1.136,2.576-3.393,4.458-6.349,4.006A5.571,5.571,0,0,1,6.5,53.745c.149-2.275-3.357-2.869-3.541-.557-.676,8.527,9.692,14.1,15.812,7.341,3.161-3.49,3.071-8.387,4.828-12.521,2.276-5.354,7.13-8.515,12.747-9.45,2.454-.408,4.941-.533,7.415-.758,3.188-.289,6.562-1.337,9.766-1.029,5.707.548,8.718,6.287,11.2,10.742,2.322,4.173,4.878,8.383,9.374,10.475,3.672,1.709,8.073,1.591,11.136-1.272C88.151,54,89.084,49.8,89.543,46a99.337,99.337,0,0,0,.823-17.193c-.318-5.767-1.556-11.484-2.569-17.159-.677-3.788-1.79-7.83-5.314-9.934C78.159-.868,72.37.169,67.61.4,62.195.669,56.586.473,51.546,2.757c-2.12.961-4.195,2.366-6.593,2.43C41.935,5.267,39.3,3,36.52,2.066,31.607.409,26.314.326,21.182.492c-5.223.168-10.73.987-14.9,4.4C1.742,8.6,1.019,13.885.6,19.411-.276,30.967-.888,43.756,3.979,54.552a.775.775,0,0,0,1.442-.564Z" transform="translate(6.267 7.078)"/>
      <g id="Group_44000" data-name="Group 44000" transform="translate(44.275 6.076)">
        <path id="Path_99854" data-name="Path 99854" d="M2.886,6.623C3,6.086,2.974,4.8,3.337,4.346c.608-.757,2.061-.606,2.915-.7,1.351-.141,5.357-1.241,5.9.667.583,2.071,3.792.852,3.142-1.23C13.944-1.223,9.3.088,5.9.562,4.435.766,2.2.63,1.148,1.856.142,3.031-.027,5.094,0,6.561c.036,1.714,2.554,1.585,2.882.061Z" transform="translate(0 0)"/>
      </g>
      <g id="Group_44008" data-name="Group 44008" transform="translate(88.329 3.55)">
        <path id="Path_99861" data-name="Path 99861" d="M.5.984a3.264,3.264,0,0,1,2.118.576c.564.4.806,1,1.287,1.456a.443.443,0,0,0,.715-.273C4.672.787,2-.252.4.052A.469.469,0,0,0,.5.984Z" transform="translate(0 0)"/>
      </g>
      <g id="Group_44009" data-name="Group 44009" transform="translate(90.574 0)">
        <path id="Path_99862" data-name="Path 99862" d="M.428,1.064a3.34,3.34,0,0,1,3.1,2.886.484.484,0,0,0,.955.02A3.611,3.611,0,0,0,.45.027C-.109.1-.182,1.033.428,1.064Z" transform="translate(0 0)"/>
      </g>
      <g id="Group_44010" data-name="Group 44010" transform="translate(3.788 10.916)">
        <path id="Path_99863" data-name="Path 99863" d="M3.356.113C1.585,1.5-.61,4.367.158,6.777c.116.366.59.3.75.019.538-.932.655-2.065,1.137-3.038A10.13,10.13,0,0,1,4.161.964C4.648.5,3.877-.3,3.356.113Z" transform="translate(0 0)"/>
      </g>
      <g id="Group_44011" data-name="Group 44011" transform="translate(0 10.351)">
        <path id="Path_99864" data-name="Path 99864" d="M2.666.073C1.13.924-.539,3.168.167,5.022a.5.5,0,0,0,.913.024c.262-.717.269-1.476.591-2.191A5.38,5.38,0,0,1,3.241.863a.489.489,0,0,0-.576-.79Z" transform="translate(0 0)"/>
      </g>
      <path id="Union_67" data-name="Union 67" d="M.894,11.652a3.474,3.474,0,0,1-.608-.665,1.124,1.124,0,0,1-.008-1.5,1.105,1.105,0,0,1,1.56-.02c.273.183.505.43.773.628,1.863,1.393,3.878,1.978,6.108.963a8.231,8.231,0,0,0,3.163-2.225,3.037,3.037,0,0,1,.513-.5.979.979,0,0,1,1.528,1,2.056,2.056,0,0,1-.35.83c-.62.73-1.285,1.413-1.933,2.118l-.108-.09c-.348.185-.69.368-1.038.558A8.563,8.563,0,0,1,6.42,13.81,8.332,8.332,0,0,1,.894,11.652ZM.629,2.7A1.852,1.852,0,0,1,1.092.221a1.445,1.445,0,0,1,2,.488,1.792,1.792,0,0,1-.35,2.483,1.365,1.365,0,0,1-.783.238A1.607,1.607,0,0,1,.629,2.7Zm10.809-.075a1.549,1.549,0,0,1,.45-2.143,1.438,1.438,0,0,1,2,.508,1.489,1.489,0,0,1-.43,2.123,1.356,1.356,0,0,1-.723.2A1.584,1.584,0,0,1,11.438,2.629Z" transform="matrix(0.995, -0.105, 0.105, 0.995, 42.938, 21.609)" stroke="rgba(0,0,0,0)" stroke-miterlimit="10" stroke-width="1"/>
    </g>
  </g>
</svg>
