<svg id="l1" xmlns="http://www.w3.org/2000/svg" width="96" height="80" viewBox="0 0 96 80">
  <rect id="Rectangle_5578" data-name="Rectangle 5578" width="96" height="80" fill="none"/>
  <g id="Group_44018" data-name="Group 44018" transform="matrix(0.966, 0.259, -0.259, 0.966, 18.643, 3.58)">
    <g id="Group_44007" data-name="Group 44007" transform="translate(6.002 5.959)">
      <path id="Path_99834" data-name="Path 99834" d="M9.593,2.195A1.978,1.978,0,0,0,8.346.135,3.86,3.86,0,0,0,6.565.073L1.325.711A1.114,1.114,0,0,0,.794.869a1.055,1.055,0,0,0-.329.547A9.3,9.3,0,0,0,0,3.783c-.042.671.64.823,1.267,1.066,2.091.808,4.468.3,6.53-.58a4.278,4.278,0,0,0,1.394-.846C9.578,3.034,9.52,2.737,9.593,2.195Z" transform="translate(29.714)" fill="#ffd347"/>
      <g id="Group_43990" data-name="Group 43990" transform="translate(0 0.896)">
        <path id="Path_99835" data-name="Path 99835" d="M2.564,41.067C-.6,32.3-.262,21.746.565,12.494a15.9,15.9,0,0,1,1.484-6.21A10.881,10.881,0,0,1,7.762,1.541,22.371,22.371,0,0,1,15.2.254C19.7.11,24.981.18,29.043,2.291a12.17,12.17,0,0,0,4.265,1.67c2.307.228,4.3-1.046,6.3-1.978A16.932,16.932,0,0,1,46.267.5L55.716.054C58.384-.073,61.33-.113,63.382,1.6,65.36,3.245,65.9,6.015,66.307,8.556c.877,5.422,2.081,10.194,1.928,15.778-.087,3.153-.3,6.3-.611,9.44-.349,3.546-1.188,7.634-4.369,9.241-2.942,1.485-6.635.016-8.919-2.359s-3.59-5.495-5.289-8.318-4.084-5.554-7.31-6.224c-2.138-.444-4.34.081-6.5.379-4.087.563-8.374.337-12.171,1.953a13.508,13.508,0,0,0-7.326,7.76c-1.149,3.2-1.223,7.069-3.8,9.287a5.833,5.833,0,0,1-6.416.7,5.834,5.834,0,0,1-2.933-5.749" fill="#ffec00"/>
      </g>
      <path id="Path_99838" data-name="Path 99838" d="M1.621,1.226c.264-.108.043-.568-.241-.545s-.474.295-.619.54C.186,2.191-.354,3.454.3,4.376a2.03,2.03,0,0,0,.831.649A2.983,2.983,0,0,0,4.4,4.457,2.75,2.75,0,0,0,4.823,1.2,2.553,2.553,0,0,0,1.745.179" transform="translate(53.684 18.39)" fill="#08de6f"/>
      <path id="Path_99839" data-name="Path 99839" d="M2.138.565A2,2,0,0,0,.04,2.957,2.9,2.9,0,0,0,2.869,5.012a2.544,2.544,0,0,0,1.5-.412,2.227,2.227,0,0,0,.744-.946,2.7,2.7,0,0,0-.664-3A2.7,2.7,0,0,0,1.394.33" transform="translate(50.189 5.744)" fill="#08de6f"/>
      <path id="Path_99840" data-name="Path 99840" d="M2.573.288A2.009,2.009,0,0,0,.07,1.694,2.683,2.683,0,0,0,1.255,4.488a3.018,3.018,0,0,0,3.3.026,2.649,2.649,0,0,0,.963-3.088A2.363,2.363,0,0,0,2.629.127" transform="translate(57.214 10.972)" fill="#08de6f"/>
      <path id="Path_99841" data-name="Path 99841" d="M2.606.354A2.445,2.445,0,0,0,.015,2.964,2.645,2.645,0,0,0,2.331,5.142,3.268,3.268,0,0,0,5.275,3.724a2.528,2.528,0,0,0,.432-.98A2.329,2.329,0,0,0,4.561.44,3.629,3.629,0,0,0,1.912.107" transform="translate(45.495 14.005)" fill="#08de6f"/>
      <g id="Group_43993" data-name="Group 43993" transform="translate(53.266 17.84)">
        <path id="Path_99846" data-name="Path 99846" d="M2.542,1.7c.036-.635-.46-1.13-1.108-.841C.73,1.177.308,2.343.116,3.019c-.56,1.97.993,3.382,2.935,3.208A3.224,3.224,0,0,0,5.957,2.452,2.875,2.875,0,0,0,1.985.274c-.447.229-.352,1.07.233.939a2.5,2.5,0,0,1,2.5.6,2.237,2.237,0,0,1-.443,3.133,2.442,2.442,0,0,1-3.066-.131A1.717,1.717,0,0,1,1.072,3c.073-.193.72-1.2.714-1.217.13.346.735.321.757-.082Z" fill="#023349"/>
      </g>
      <g id="Group_43994" data-name="Group 43994" transform="translate(49.798 5.157)">
        <path id="Path_99847" data-name="Path 99847" d="M2.577.848A2.3,2.3,0,0,0,.038,3.589a3.348,3.348,0,0,0,3.9,2.345A2.894,2.894,0,0,0,5.9,1.954,3.068,3.068,0,0,0,1.448.454c-.563.358-.05,1.211.546,1a2.375,2.375,0,0,1,2.9.59,1.962,1.962,0,0,1-1.1,3.111A2.7,2.7,0,0,1,1.057,4.039,1.7,1.7,0,0,1,2.482,1.456a.308.308,0,0,0,.1-.608Z" fill="#023349"/>
      </g>
      <g id="Group_43995" data-name="Group 43995" transform="translate(56.753 10.506)">
        <path id="Path_99848" data-name="Path 99848" d="M3.169.454A2.357,2.357,0,0,0,.009,2.933a3.385,3.385,0,0,0,3.7,2.948A3.183,3.183,0,0,0,6.573,2.4,2.751,2.751,0,0,0,2.923.168c-.468.178-.3.994.218.878A2.02,2.02,0,0,1,5.614,2.279,2.164,2.164,0,0,1,3.9,4.979,2.592,2.592,0,0,1,1.263,3.844a1.764,1.764,0,0,1,1.72-2.766A.33.33,0,0,0,3.169.454Z" fill="#023349"/>
      </g>
      <g id="Group_43996" data-name="Group 43996" transform="translate(45.024 13.387)">
        <path id="Path_99849" data-name="Path 99849" d="M3.12.705C1.526.232-.01,1.779,0,3.357A3.1,3.1,0,0,0,3.625,6.188C5.314,5.913,7.007,4.225,6.6,2.417,6.2.624,3.751-.709,2.155.412a.392.392,0,0,0,.168.7c1.1.292,2.453-.058,3.159,1.1C6.292,3.547,4.9,5.006,3.614,5.253A2.165,2.165,0,0,1,.961,3.315c-.012-1.16,1.129-1.87,2.147-2.073A.272.272,0,0,0,3.12.705Z" fill="#023349"/>
      </g>
      <path id="Path_99850" data-name="Path 99850" d="M14.626,8.951a21.033,21.033,0,0,1-.337-4.9l-.766-.5c-1.429.159-2.856.336-4.282.52C8.951,2.716,8.652,1.36,8.377,0A21.015,21.015,0,0,1,3.5.6l-.456.792q.289,1.735.6,3.466Q1.823,5.14,0,5.446q.506,2.886.727,5.813c1.342-.25,2.688-.475,4.033-.709.293,1.417.594,2.833.912,4.245q2.854-.661,5.765-1.041c-.335-1.382-.646-2.769-.965-4.154C11.856,9.381,13.239,9.154,14.626,8.951Z" transform="translate(8.212 9.309)" fill="#08de6f"/>
      <g id="Group_43997" data-name="Group 43997" transform="translate(7.529 8.621)">
        <path id="Path_99851" data-name="Path 99851" d="M15.984,9.562c-.114-.677-.215-1.348-.276-2.032a13.744,13.744,0,0,0-.065-2.687,1.272,1.272,0,0,0-.44-.76c-1.2-1.2-3.95-.178-5.355,0l.751.6c-.292-1.357-.586-2.713-.865-4.072a.687.687,0,0,0-.751-.6A23.507,23.507,0,0,1,5.337.568C4.612.615,4.123.474,3.612.936c-1.217,1.1-.182,3.421.046,4.689l.6-.751q-1.828.283-3.651.586a.688.688,0,0,0-.6.751c.324,1.931.565,3.862.726,5.813a.684.684,0,0,0,.751.6c1.343-.245,2.688-.476,4.033-.709l-.751-.6q.442,2.126.912,4.245c.073.327.363.685.751.6,1.91-.428,3.825-.774,5.765-1.041a.683.683,0,0,0,.6-.751c-.331-1.382-.647-2.768-.966-4.154l-.6.751c1.385-.22,2.769-.442,4.156-.649.861-.129.714-1.479-.153-1.35-1.387.208-2.771.43-4.156.65a.685.685,0,0,0-.6.751c.318,1.385.635,2.771.966,4.154l.6-.751c-1.939.267-3.855.613-5.765,1.041l.751.6q-.473-2.12-.912-4.245a.69.69,0,0,0-.751-.6c-1.345.233-2.69.464-4.033.709l.751.6c-.161-1.951-.4-3.882-.727-5.813l-.6.751q1.824-.3,3.651-.586a.687.687,0,0,0,.6-.751c-.176-.977-.97-3.221-.125-3.611a16.76,16.76,0,0,1,1.833-.053c.816-.1,1.618-.264,2.42-.444l-.751-.6c.28,1.359.573,2.716.865,4.073a.694.694,0,0,0,.751.6c.944-.121,3.866-.887,4.31-.141.175.3-.029,1.173-.009,1.571a24.384,24.384,0,0,0,.332,2.85C14.779,10.573,16.129,10.427,15.984,9.562Z" fill="#023349"/>
      </g>
      <g id="Group_44003" data-name="Group 44003" transform="translate(14.053 2.684)">
        <path id="Path_99857" data-name="Path 99857" d="M.7,2.678c.642-.211,1.24-.456,1.869-.7.583-.226,1.4-.255,1.78-.79a.7.7,0,0,0-.1-.97,2.446,2.446,0,0,0-2.29.209A4.073,4.073,0,0,0,.109,1.865.524.524,0,0,0,.7,2.678Z" fill="#f9ec00"/>
      </g>
      <g id="Group_44004" data-name="Group 44004" transform="translate(3.561 29.055)">
        <path id="Path_99858" data-name="Path 99858" d="M.1.252A17.132,17.132,0,0,0,.177,4.5C.33,5.679.326,7.2,1.089,8.144A.257.257,0,0,0,1.527,8.1c.361-1.1-.046-2.32-.175-3.452A42.433,42.433,0,0,0,.707.265C.638-.049.14-.12.1.252Z" fill="#f9ec00"/>
      </g>
      <g id="Group_44005" data-name="Group 44005" transform="translate(2.422 24.492)">
        <path id="Path_99859" data-name="Path 99859" d="M1.2,3l.074-.048-.341.133.023-.005A.894.894,0,0,0,1.7,2.36,5.148,5.148,0,0,0,1.97.705.806.806,0,0,0,.712.153C.045.623.011,1.584,0,2.324a.824.824,0,0,0,.5.686L.47,2.982A.622.622,0,0,0,1.2,3Z" fill="#f9ec00"/>
      </g>
      <g id="Group_44006" data-name="Group 44006" transform="translate(63.557 25.821)">
        <path id="Path_99860" data-name="Path 99860" d="M.9.329A19.85,19.85,0,0,0,.4,5C.287,6.507-.185,8.162.079,9.649a.387.387,0,0,0,.675.2c1.064-1.158,1.258-3.061,1.4-4.572A13.014,13.014,0,0,0,1.959.356.578.578,0,0,0,.9.329Z" fill="#f9ec00"/>
      </g>
    </g>
    <g id="Group_44018-2" data-name="Group 44018">
      <path id="Path_99837" data-name="Path 99837" d="M4.234,42.173A73.748,73.748,0,0,1,2.305,19.747c.207-3.576.039-8.066,1.706-11.31,1.8-3.509,5.688-4.991,9.4-5.454a39.347,39.347,0,0,1,11.379.186,18.09,18.09,0,0,1,5.2,1.742,11.167,11.167,0,0,0,4.919,1.618c2.969.051,5.334-1.934,8.066-2.758,3.736-1.127,7.978-.857,11.844-1.037,3.658-.17,8.517-.881,10.3,3.2,1.4,3.216,1.607,7.269,2.17,10.705A55.326,55.326,0,0,1,67.9,28.894c-.193,3.379-.211,7.02-1.217,10.279-1.237,4.005-4.762,5.63-8.467,3.367-3.037-1.856-4.548-5.362-6.211-8.35-1.5-2.7-3.311-5.383-6.023-6.991-2.982-1.767-6.124-1.35-9.4-.894-7.315,1.017-14.923.641-19.5,7.54-2,3.012-2.078,6.466-3.5,9.684-.888,2.012-2.65,3.482-4.959,3.129a4.352,4.352,0,0,1-3.538-4.674c.116-1.778-2.623-2.242-2.766-.435-.528,6.661,7.571,11.012,12.352,5.734,2.469-2.726,2.4-6.552,3.772-9.781A12.646,12.646,0,0,1,28.4,30.12c1.917-.319,3.86-.417,5.792-.592,2.49-.226,5.126-1.044,7.629-.8,4.458.428,6.81,4.911,8.747,8.392,1.814,3.26,3.81,6.548,7.323,8.183a7.768,7.768,0,0,0,8.7-.993c2.275-2.125,3-5.4,3.362-8.371A77.6,77.6,0,0,0,70.592,22.5,111.783,111.783,0,0,0,68.585,9.1c-.529-2.959-1.4-6.116-4.151-7.76C61.055-.678,56.533.132,52.815.315,48.585.522,44.2.37,40.266,2.154,38.61,2.9,36.989,4,35.116,4.052c-2.358.062-4.416-1.706-6.588-2.438C24.691.319,20.556.255,16.547.384,12.467.515,8.164,1.155,4.9,3.821,1.361,6.719.8,10.847.469,15.163-.215,24.19-.694,34.181,3.108,42.614a.605.605,0,0,0,1.126-.441Z" transform="translate(4.895 5.529)"/>
      <g id="Group_44000" data-name="Group 44000" transform="translate(34.586 4.746)">
        <path id="Path_99854" data-name="Path 99854" d="M2.254,5.174c.09-.419.069-1.425.352-1.778.475-.592,1.61-.474,2.277-.543,1.056-.11,4.185-.969,4.605.521.456,1.618,2.962.666,2.454-.961C10.892-.955,7.267.069,4.61.439,3.464.6,1.718.492.9,1.45A5.829,5.829,0,0,0,0,5.126c.028,1.339,2,1.238,2.252.048Z"/>
      </g>
      <g id="Group_44008" data-name="Group 44008" transform="translate(69 2.773)">
        <path id="Path_99861" data-name="Path 99861" d="M.394.768a2.55,2.55,0,0,1,1.655.45c.44.312.629.781,1.005,1.138a.346.346,0,0,0,.559-.213C3.65.615,1.566-.2.311.041A.366.366,0,0,0,.394.768Z"/>
      </g>
      <g id="Group_44009" data-name="Group 44009" transform="translate(70.754)">
        <path id="Path_99862" data-name="Path 99862" d="M.335.831A2.609,2.609,0,0,1,2.753,3.085.378.378,0,0,0,3.5,3.1,2.821,2.821,0,0,0,.352.021C-.085.079-.142.807.335.831Z"/>
      </g>
      <g id="Group_44010" data-name="Group 44010" transform="translate(2.959 8.527)">
        <path id="Path_99863" data-name="Path 99863" d="M2.621.088C1.238,1.172-.477,3.411.123,5.294c.091.286.461.231.586.015.42-.728.512-1.613.889-2.373A7.913,7.913,0,0,1,3.25.753C3.631.39,3.029-.231,2.621.088Z"/>
      </g>
      <g id="Group_44011" data-name="Group 44011" transform="translate(0 8.086)">
        <path id="Path_99864" data-name="Path 99864" d="M2.082.057C.883.722-.421,2.475.13,3.923a.391.391,0,0,0,.714.019c.2-.56.21-1.153.462-1.712A4.2,4.2,0,0,1,2.532.674a.382.382,0,0,0-.45-.617Z"/>
      </g>
      <path id="Union_67" data-name="Union 67" d="M.7,9.1a2.714,2.714,0,0,1-.475-.52A.878.878,0,0,1,.218,7.415.863.863,0,0,1,1.437,7.4c.213.143.395.336.6.49a4.445,4.445,0,0,0,4.771.752A6.43,6.43,0,0,0,9.283,6.9a2.372,2.372,0,0,1,.4-.391.764.764,0,0,1,1.193.777,1.606,1.606,0,0,1-.273.648c-.484.57-1,1.1-1.51,1.654l-.084-.07c-.271.145-.539.287-.811.436a6.689,6.689,0,0,1-3.184.83A6.509,6.509,0,0,1,.7,9.1ZM.492,2.112A1.447,1.447,0,0,1,.853.172,1.129,1.129,0,0,1,2.412.553a1.4,1.4,0,0,1-.273,1.939,1.066,1.066,0,0,1-.611.186A1.255,1.255,0,0,1,.492,2.112Zm8.443-.059A1.21,1.21,0,0,1,9.287.38a1.123,1.123,0,0,1,1.564.4,1.163,1.163,0,0,1-.336,1.658,1.059,1.059,0,0,1-.564.158A1.237,1.237,0,0,1,8.935,2.053Z" transform="matrix(0.995, -0.105, 0.105, 0.995, 33.542, 16.88)" stroke="rgba(0,0,0,0)" stroke-miterlimit="10" stroke-width="1"/>
    </g>
  </g>
</svg>
