<svg id="l2" xmlns="http://www.w3.org/2000/svg" width="96" height="80" viewBox="0 0 96 80">
  <rect id="Rectangle_5578" data-name="Rectangle 5578" width="96" height="80" fill="none"/>
  <g id="Group_44021" data-name="Group 44021" transform="translate(20.324 3.624)">
    <g id="Group_44021-2" data-name="Group 44021" transform="translate(1.425 1.437)">
      <path id="Path_99886" data-name="Path 99886" d="M381.108,122.813c.128-.5.227-.842.3-1.187.548-2.566,1.07-5.137,1.637-7.7,1.546-6.973,3.394-13.87,5.414-20.719,1.331-4.513,2.744-9,4.11-13.5.261-.859.456-1.738.715-2.6.059-.194.232-.462.4-.5a5.758,5.758,0,0,1,2.382-.191c4.715.9,9.44,1.752,14.154,2.661,4.552.876,9.1,1.8,13.643,2.705.429.085.858.174,1.326.27-.116.425-.194.77-.305,1.1-2,6.012-3.93,12.047-6.031,18.024-1.426,4.058-3.139,8.013-4.636,12.047-1.462,3.94-3.242,7.76-4.414,11.819a2.636,2.636,0,0,1-.365.043c-3.476-.074-6.956-.093-10.429-.248-3.024-.134-6.043-.391-9.059-.653-2.048-.178-4.091-.424-6.127-.711A26.97,26.97,0,0,1,381.108,122.813Z" transform="translate(-381.108 -57.568)" fill="#ffec00"/>
      <path id="Path_99887" data-name="Path 99887" d="M368.278,129.536q8.657-21.044,15.452-42.645l5.593.833c-.085.223-.172.46-.265.7-.394.987-.832,1.96-1.179,2.963q-4.006,11.563-8.941,22.759c-2.152,4.862-4.317,9.719-6.459,14.587a1.119,1.119,0,0,1-1.046.7c-.9.07-1.793.114-2.69.162A3.359,3.359,0,0,1,368.278,129.536Z" transform="translate(-337.956 -62.119)" fill="#08de6f"/>
      <path id="Path_99888" data-name="Path 99888" d="M396.752,63.964c-.157-.219-.191-.323-.258-.353-5.593-2.5-11.6-3.478-17.586-4.8l2.63-1.961c1.624.753,3.182,1.492,4.755,2.2.968.435,1.956.825,2.941,1.219a1.556,1.556,0,0,0,.475.035c.019-.072.039-.145.057-.218a48.3,48.3,0,0,0-7.294-4.048l1.94-1.722c1.743,1.2,3.471,2.36,5.164,3.568a23.734,23.734,0,0,0,4.7,2.747,3.655,3.655,0,0,0,.665.142.573.573,0,0,0-.14-.419,51.758,51.758,0,0,0-9.459-7.165l.908-1.274c.486.361.916.69,1.355,1.007,1.381,1,2.762,1.993,4.152,2.976a5.739,5.739,0,0,0,.99.549.473.473,0,0,0,.439-.055.591.591,0,0,0,.059-.508,1.948,1.948,0,0,0-.51-.579c-1.907-1.547-3.822-3.084-5.8-4.676l.428-1.229c4.246,3.255,8.042,6.931,12.006,10.423a6.829,6.829,0,0,1-.775-.316c-.83-.332-1.663-.657-2.5-.965-.106-.039-.253.036-.428.066.089.13.107.182.144.205,2.3,1.484,4.6,2.987,6.926,4.434a7.25,7.25,0,0,1,1.576,1.66c-1.48-.738-2.9-1.534-4.355-2.278a9.245,9.245,0,0,0-1.6-.553c-.122-.036-.28.053-.462.093a2.843,2.843,0,0,0,1.223,1.345c1.519.959,3.053,1.894,4.582,2.836.21.13.428.245.642.366l-.037.055L376,60.58a1.692,1.692,0,0,1,2.067-.436,1.169,1.169,0,0,0,.274.069c2.723.612,5.44,1.247,8.169,1.828,3,.64,6.018,1.233,9.031,1.834A10.7,10.7,0,0,0,396.752,63.964Z" transform="translate(-357.365 -45.925)" fill="#fcf7ef"/>
      <path id="Path_99889" data-name="Path 99889" d="M366.809,60.595l-.029-.161c.375-.285.754-.563,1.124-.854a1.625,1.625,0,0,1,1.464-.32c.505.12,1.026.172,1.535.278,3.842.8,7.689,1.571,11.521,2.415,4.918,1.082,9.821,2.227,14.734,3.333a28.944,28.944,0,0,0,3.06.58,3.494,3.494,0,0,0,2.275-.324c.6-.364.7-.607.33-1.214a10.25,10.25,0,0,0-1.126-1.443c-1.539-1.731-2.984-3.566-4.667-5.146-3.137-2.945-6.408-5.749-9.639-8.593-1.74-1.531-3.516-3.022-5.271-4.535-.19-.164-.355-.356-.574-.579l.812-.749c.576.474,1.1.916,1.633,1.343,3.284,2.633,6.593,5.236,9.849,7.9a61.67,61.67,0,0,1,9.3,9.635,7.535,7.535,0,0,1,1.289,4.27.64.64,0,0,1-.671.745,6.785,6.785,0,0,1-1.412.006c-2.313-.35-4.631-.683-6.929-1.118-5.365-1.014-10.72-2.088-16.08-3.128q-5.186-1.005-10.377-1.982C368.243,60.822,367.525,60.715,366.809,60.595Z" transform="translate(-352.21 -43.282)" fill="#fc0"/>
    </g>
    <g id="Group_44022" data-name="Group 44022">
      <path id="Path_99894" data-name="Path 99894" d="M390.677,111.5l7.068-.195c.119,0,.236-.012.355-.018a3.226,3.226,0,0,0,3-1.906c.723-1.515,1.5-3.007,2.185-4.538,2.393-5.33,4.836-10.639,7.111-16.018,2.311-5.466,4.5-10.986,6.391-16.617.565-1.679,1.22-3.334,1.934-4.955a4.771,4.771,0,0,0,.218-3.247c-.207-.8-.473-1.585-.7-2.38a4.8,4.8,0,0,0-1.194-1.886c-.795-.874-1.489-1.838-2.269-2.727a66.184,66.184,0,0,0-7.027-6.814c-3.27-2.77-6.61-5.448-10.085-7.958-.421-.3-.823-.637-1.228-.965a1.78,1.78,0,0,0-2.648.127,4.07,4.07,0,0,0-.609.779,1.323,1.323,0,0,0,.282,1.847,1.1,1.1,0,0,1,.38,1.306l21.489,18.852-39.27-3.578c-2.25,7.3-4.6,14.568-6.69,21.912-2.078,7.3-3.9,14.67-5.277,22.141a24.121,24.121,0,0,0-.308,2.6,1.625,1.625,0,0,0,1.391,1.988,44.76,44.76,0,0,0,4.8.885c2.818.335,5.647.576,8.475.812,1.745.145,3.495.226,5.244.3C385.8,111.351,387.9,111.409,390.677,111.5Zm-25.482-4.07c.128-.5.227-.842.3-1.187.548-2.566,1.07-5.137,1.637-7.7,1.546-6.973,3.394-13.87,5.414-20.719,1.331-4.513,2.744-9,4.11-13.5.261-.859.456-1.738.715-2.6.059-.194.232-.462.4-.5a5.758,5.758,0,0,1,2.382-.191c4.715.9,9.44,1.752,14.154,2.661,4.552.876,9.1,1.8,13.643,2.705.429.085.858.174,1.326.27-.116.425-.194.77-.305,1.1-2,6.012-3.93,12.047-6.031,18.024-1.426,4.058-3.139,8.013-4.636,12.047-1.462,3.94-3.242,7.76-4.414,11.819a2.636,2.636,0,0,1-.365.043c-3.476-.074-6.956-.093-10.429-.248-3.024-.134-6.043-.391-9.059-.653-2.048-.178-4.091-.424-6.127-.711A26.974,26.974,0,0,1,365.2,107.434Zm30.323,2.172q8.657-21.044,15.452-42.645l5.593.833c-.085.223-.172.46-.265.7-.394.987-.832,1.96-1.179,2.963q-4.006,11.563-8.941,22.759c-2.152,4.862-4.317,9.719-6.459,14.587a1.119,1.119,0,0,1-1.046.7c-.9.07-1.793.114-2.69.162A3.359,3.359,0,0,1,395.518,109.606ZM395.2,45.664C399.442,48.92,395.032,46.137,395.2,45.664ZM379.8,59.5l-.029-.161c.375-.285.754-.563,1.124-.854a1.625,1.625,0,0,1,1.464-.32c.505.12,1.026.172,1.535.278,3.842.8,7.689,1.571,11.521,2.415,4.918,1.082,9.821,2.227,14.733,3.333,1.013.228,4.626.684,5.335.256.6-.364.7-.607.33-1.214a10.25,10.25,0,0,0-1.126-1.443c-1.539-1.731-11.074-10.9-14.306-13.739-1.74-1.531-3.516-3.022-5.271-4.535-.19-.164-.355-.356-.574-.579l.812-.749c.576.474,1.1.916,1.633,1.343,3.284,2.633,6.593,5.236,9.849,7.9a61.672,61.672,0,0,1,9.3,9.635,7.535,7.535,0,0,1,1.289,4.27.64.64,0,0,1-.671.745,6.786,6.786,0,0,1-1.412.006c-2.313-.35-4.631-.683-6.929-1.118-5.365-1.014-10.72-2.088-16.08-3.128q-5.186-1.005-10.377-1.982C381.229,59.729,380.51,59.622,379.8,59.5Z" transform="translate(-363.771 -39.754)" stroke="#000" stroke-width="0.5"/>
      <g id="Path_99890" data-name="Path 99890" transform="translate(-363.771 -40.752)">
        <path d="M 390.6801452636719 110.7536163330078 C 389.8002319335938 110.7233581542969 388.9874572753906 110.6969146728516 388.2205200195312 110.6719665527344 C 386.5751037597656 110.6184387207031 385.154052734375 110.5722122192383 383.7283020019531 110.5098495483398 C 381.8767395019531 110.4286727905273 380.2063293457031 110.3500366210938 378.513916015625 110.2094955444336 C 375.5126342773438 109.9593658447266 372.80517578125 109.7258224487305 370.0650024414062 109.4004287719727 C 368.7021484375 109.2388381958008 367.2453002929688 108.9702377319336 365.3411254882812 108.5295104980469 C 364.9652404785156 108.4424667358398 364.7213439941406 108.3305892944336 364.6036071777344 108.0586929321289 L 365.0135498046875 108.1614303588867 C 365.2997741699219 108.2331466674805 365.5879821777344 108.3135681152344 365.86669921875 108.3913497924805 C 366.4924926757812 108.5659561157227 367.1395568847656 108.7465286254883 367.8049926757812 108.840087890625 C 370.0384521484375 109.1547927856445 372.0555725097656 109.3889007568359 373.9713745117188 109.5557556152344 C 377.2051391601562 109.8371658325195 380.1211547851562 110.0807189941406 383.0618591308594 110.2111053466797 C 385.5351257324219 110.3211364746094 388.0480041503906 110.3632125854492 390.4781494140625 110.4039001464844 C 391.4717102050781 110.4205322265625 392.4991149902344 110.4377365112305 393.5084228515625 110.4593353271484 C 393.5173645019531 110.4595565795898 393.5287780761719 110.4597015380859 393.5401916503906 110.4597015380859 C 393.6728820800781 110.4597015380859 393.7891235351562 110.4407806396484 393.8825073242188 110.4255676269531 C 393.9141845703125 110.4204177856445 393.9468383789062 110.4149169921875 393.9810180664062 110.4107055664062 L 394.4724426269531 110.3500900268555 L 394.50732421875 110.2292022705078 L 395.4202575683594 110.3496780395508 C 395.4987182617188 110.3600387573242 395.562744140625 110.3705673217773 395.6192626953125 110.3798599243164 C 395.7301025390625 110.3980865478516 395.8348083496094 110.4152984619141 395.9566955566406 110.4152984619141 C 395.9784851074219 110.4152984619141 396.0000915527344 110.4147415161133 396.0216369628906 110.4136123657227 L 396.4635314941406 110.3898315429688 C 397.2055969238281 110.3501052856445 397.9729309082031 110.3090362548828 398.7310485839844 110.2499084472656 C 399.2989501953125 110.205680847168 399.7468872070312 109.9996185302734 400.0693969726562 109.6354522705078 C 399.6094665527344 110.2090682983398 398.9586486816406 110.5006637573242 398.0657348632812 110.5423355102539 C 398.0201110839844 110.5445175170898 397.9755249023438 110.5470962524414 397.9309387207031 110.5496978759766 C 397.8592224121094 110.5538711547852 397.7914428710938 110.5578155517578 397.7277221679688 110.5593414306641 C 395.1581420898438 110.6306991577148 392.5908508300781 110.701416015625 390.6801452636719 110.7536163330078 Z M 394.6402282714844 109.769401550293 C 395.3971862792969 107.174072265625 396.4260559082031 104.6206893920898 397.4214782714844 102.1503524780273 C 397.9527587890625 100.8317794799805 398.5021667480469 99.46832275390625 399.0066528320312 98.10840606689453 C 399.6472778320312 96.38201904296875 400.3407287597656 94.63720703125 401.0113830566406 92.94985198974609 C 401.9050903320312 90.70125579833984 402.8292236328125 88.37610626220703 403.6469116210938 86.04904937744141 C 405.1447143554688 81.78781127929688 406.5787048339844 77.42835235595703 407.9655151367188 73.21241760253906 C 408.5263061523438 71.50762939453125 409.1061706542969 69.74479675292969 409.6820068359375 68.01355743408203 C 409.764404296875 67.76676177978516 409.828369140625 67.52024078369141 409.8961181640625 67.25924682617188 C 409.9278869628906 67.1368408203125 409.9612426757812 67.00827789306641 409.998779296875 66.87113952636719 L 410.2103881835938 66.09812164306641 L 409.425048828125 65.93820953369141 C 409.2731018066406 65.90727233886719 409.1253967285156 65.87699127197266 408.9805297851562 65.8472900390625 C 408.9386291503906 65.83869934082031 408.8969421386719 65.83015441894531 408.8554992675781 65.8216552734375 C 410.6500549316406 66.14752197265625 412.4686279296875 66.42071533203125 414.2331237792969 66.685791015625 C 414.5603332519531 66.73494720458984 414.8875427246094 66.78409576416016 415.2146301269531 66.83358001708984 C 415.4139099121094 66.86360168457031 415.6263427734375 66.87815093994141 415.8645629882812 66.87815093994141 C 416.1198120117188 66.87815093994141 416.3678283691406 66.86171722412109 416.6077270507812 66.84583282470703 C 416.6670227050781 66.84191131591797 416.7261962890625 66.83798217773438 416.78515625 66.8343505859375 C 417.338623046875 66.79972076416016 417.6629028320312 66.55116271972656 417.8376159667969 66.34873962402344 C 418.0082397460938 66.15103149414062 418.2022705078125 65.80467224121094 418.1577453613281 65.27735900878906 C 418.0101928710938 63.53977966308594 417.7994384765625 61.98922729492188 416.7101135253906 60.60638046264648 C 413.6526184082031 56.72702026367188 410.5747985839844 53.53738784790039 407.3006896972656 50.85509872436523 C 405.0986938476562 49.05151748657227 402.837158203125 47.24943923950195 400.6500549316406 45.50668716430664 C 399.9243469238281 44.92843627929688 399.1816711425781 44.33664321899414 398.4405517578125 43.74431610107422 C 401.2184143066406 45.80045700073242 404.117431640625 48.11157989501953 407.2613830566406 50.775390625 C 409.9781799316406 53.07619857788086 412.2510070800781 55.27959823608398 414.2098388671875 57.5116081237793 C 414.556396484375 57.90637969970703 414.8963012695312 58.32997894287109 415.2250061035156 58.73962783813477 C 415.6266479492188 59.24016952514648 416.0419616699219 59.75774765014648 416.4880981445312 60.24818801879883 C 417.0033264160156 60.81438064575195 417.35498046875 61.27769088745117 417.5162048339844 61.83755874633789 C 417.6066589355469 62.15158081054688 417.703369140625 62.46611785888672 417.796875 62.77029800415039 C 417.9410400390625 63.23928833007812 418.0901184082031 63.72423934936523 418.2130126953125 64.19832611083984 C 418.4748229980469 65.20793151855469 418.4180603027344 66.08380126953125 418.0344848632812 66.95479583740234 C 417.2756958007812 68.67631530761719 416.6166381835938 70.36479187011719 416.0758056640625 71.97309875488281 C 414.3970336914062 76.96617889404297 412.3727722167969 82.22949981689453 409.7053527832031 88.53711700439453 C 407.959228515625 92.66585540771484 406.0811157226562 96.82559204101562 404.2648315429688 100.8483657836914 C 403.7186889648438 102.057975769043 403.1539611816406 103.3087692260742 402.60107421875 104.5404586791992 C 402.1762084960938 105.4867782592773 401.7067260742188 106.4396820068359 401.2527160644531 107.361198425293 C 400.9789123535156 107.9169692993164 400.69580078125 108.4916610717773 400.4236450195312 109.0623016357422 C 400.4195556640625 109.0708770751953 400.4154357910156 109.0794067382812 400.4112854003906 109.0879058837891 C 401.8041076660156 105.9222030639648 403.2304992675781 102.7075958251953 404.6099853515625 99.59870910644531 C 405.3616943359375 97.90457153320312 406.1134033203125 96.21044158935547 406.8636169433594 94.51561737060547 C 410.099365234375 87.20281219482422 413.115234375 79.52596282958984 415.8275451660156 71.69822692871094 C 416.0548706054688 71.04232025146484 416.3307189941406 70.37850189208984 416.5974731445312 69.73654174804688 C 416.7288513183594 69.42037200927734 416.8647155761719 69.09342956542969 416.9947204589844 68.76787567138672 C 417.0634155273438 68.595458984375 417.1272888183594 68.42543792724609 417.1890563964844 68.26103210449219 C 417.2145080566406 68.19332122802734 417.2396240234375 68.12644958496094 417.2645263671875 68.06089019775391 L 417.5954284667969 67.19008636474609 L 416.674072265625 67.05266571044922 C 414.7926330566406 66.77202606201172 412.9781799316406 66.50163269042969 411.080810546875 66.21929931640625 L 410.4472045898438 66.12500762939453 L 410.2550048828125 66.73607635498047 C 405.7534484863281 81.04663848876953 400.5619812011719 95.37420654296875 394.8247680664062 109.32080078125 L 394.6402282714844 109.769401550293 Z M 364.564208984375 106.882438659668 C 364.6331787109375 106.0619506835938 364.7163391113281 105.4078903198242 364.8274536132812 104.8037796020508 C 366.0826416015625 97.97335052490234 367.8033142089844 90.75370788574219 370.0877685546875 82.73218536376953 C 371.5965881347656 77.43316650390625 373.2688598632812 72.08000946044922 374.8860473632812 66.90310668945312 C 375.5069580078125 64.91548156738281 376.1490173339844 62.86018753051758 376.7731018066406 60.83586883544922 C 376.8165283203125 60.69516754150391 376.9239196777344 60.53229904174805 377.0402526855469 60.43080902099609 L 377.1928100585938 60.2977409362793 C 378.1509399414062 59.46197891235352 379.1416931152344 58.59777069091797 380.1597900390625 57.82585906982422 C 380.4150695800781 57.63235855102539 380.7627258300781 57.49227905273438 381.1307678222656 57.34399032592773 C 381.3003540039062 57.27565765380859 381.4755859375 57.20504760742188 381.6502685546875 57.12580871582031 C 381.6642456054688 57.12160110473633 381.6938781738281 57.11444091796875 381.7160949707031 57.10906982421875 C 381.8118896484375 57.08592987060547 381.9430847167969 57.05423736572266 382.0843200683594 56.98329925537109 C 382.4457397460938 56.80218887329102 382.8052978515625 56.62065124511719 383.1627197265625 56.43673706054688 L 382.2492370605469 57.26638793945312 L 383.6693725585938 57.57690811157227 C 385.2237854003906 57.91679000854492 386.7763061523438 58.25628662109375 388.3279113769531 58.59560394287109 C 387.9314270019531 58.51381683349609 387.536376953125 58.43244552612305 387.1432495117188 58.35146713256836 C 386.1093139648438 58.13850021362305 385.0753784179688 57.92552947998047 384.0418701171875 57.71067047119141 C 383.7990417480469 57.65998840332031 383.5580444335938 57.62154769897461 383.324951171875 57.58437728881836 C 383.0452575683594 57.53976821899414 382.7810668945312 57.49762725830078 382.5275573730469 57.43746948242188 C 382.319580078125 57.38816070556641 382.1136779785156 57.36317825317383 381.9154052734375 57.36317825317383 C 381.3793334960938 57.36317825317383 380.8786926269531 57.54280090332031 380.4273986816406 57.89706039428711 C 380.18212890625 58.08966827392578 379.9257507324219 58.28239059448242 379.6777954101562 58.46875762939453 C 379.5559997558594 58.56028747558594 379.4342346191406 58.65184020996094 379.3128662109375 58.74396896362305 L 378.9466857910156 59.02193069458008 L 379.0281982421875 59.47435760498047 L 379.0571899414062 59.6351203918457 L 379.1507873535156 60.15456008911133 L 379.583740234375 60.22711181640625 C 379.5491943359375 60.22635650634766 379.5144348144531 60.22597885131836 379.4794006347656 60.22597885131836 C 378.8151550292969 60.22597885131836 378.2003784179688 60.36344909667969 377.6058044433594 60.49637985229492 C 377.0584106445312 60.61906814575195 376.7499389648438 61.19179916381836 376.6538696289062 61.51089859008789 C 376.5221252441406 61.94797897338867 376.4061584472656 62.390869140625 376.2939758300781 62.81917953491211 C 376.1824035644531 63.2452278137207 376.0670166015625 63.6857795715332 375.9391784667969 64.10697937011719 C 375.4386901855469 65.75704193115234 374.9231567382812 67.43339538574219 374.4245910644531 69.05458068847656 C 373.5628051757812 71.85688018798828 372.671630859375 74.75458526611328 371.8276062011719 77.61627197265625 C 369.5996398925781 85.17037200927734 367.8244934082031 91.96388244628906 366.4007263183594 98.38503265380859 C 366.0367736816406 100.0280456542969 365.6861572265625 101.7002868652344 365.3471069335938 103.3174667358398 C 365.1564636230469 104.226692199707 364.9593505859375 105.1668701171875 364.7622985839844 106.0901565551758 C 364.7172546386719 106.3024368286133 364.6609802246094 106.5156097412109 364.5897827148438 106.7854995727539 C 364.5814208984375 106.8171768188477 364.5729064941406 106.8494567871094 364.564208984375 106.882438659668 Z M 413.9685668945312 64.07257080078125 C 413.7743835449219 64.07257080078125 413.55859375 64.05818939208984 413.2894592285156 64.02732849121094 C 412.3375244140625 63.91851806640625 411.3615112304688 63.69831848144531 410.4176635742188 63.48537063598633 L 410.3088684082031 63.46083068847656 C 408.4090881347656 63.03334045410156 406.4786071777344 62.59256744384766 404.6116638183594 62.16632080078125 C 404.2910766601562 62.0931282043457 403.9692993164062 62.0196533203125 403.6465454101562 61.94599533081055 L 411.9797973632812 63.76860809326172 L 412.4723205566406 63.87631988525391 L 412.7579956054688 63.46092987060547 L 412.7955017089844 63.40638732910156 L 413.2588195800781 62.73271942138672 L 412.5477600097656 62.32912826538086 C 412.4788818359375 62.2900276184082 412.4096069335938 62.25154876708984 412.3402709960938 62.21305847167969 C 412.1954345703125 62.13262939453125 412.05859375 62.05665969848633 411.9285278320312 61.97649765014648 C 411.7032775878906 61.83782577514648 411.4781188964844 61.69937133789062 411.2529296875 61.56097793579102 C 411.4377746582031 61.65556716918945 411.6233215332031 61.74945831298828 411.809326171875 61.84220886230469 L 412.7110900878906 60.6801872253418 C 412.6197204589844 60.57462310791016 412.5314331054688 60.46464920043945 412.44091796875 60.34983062744141 C 412.5646667480469 60.49351119995117 412.6879272460938 60.63702774047852 412.8106079101562 60.77989959716797 C 413.2372436523438 61.27669906616211 413.6784057617188 61.79039764404297 414.1220703125 62.28957748413086 C 414.5133666992188 62.7297477722168 414.8877868652344 63.16296768188477 415.1683959960938 63.62408065795898 C 415.19140625 63.66194915771484 415.2097473144531 63.69416427612305 415.2243041992188 63.72126770019531 C 415.1907958984375 63.74445724487305 415.147216796875 63.77284240722656 415.0909423828125 63.80687713623047 C 414.7909851074219 63.98809051513672 414.4342651367188 64.07257080078125 413.9685668945312 64.07257080078125 Z M 411.5328063964844 59.30875015258789 C 411.3638305664062 59.15376663208008 411.1763305664062 59.0063591003418 410.9635009765625 58.87413787841797 C 409.7025756835938 58.09064102172852 408.435302734375 57.27978897094727 407.1882629394531 56.4755744934082 L 407.6979370117188 55.52471923828125 C 408.3051147460938 56.07762908935547 408.90771484375 56.6335563659668 409.5027770996094 57.19219970703125 C 410.2072143554688 57.85381317138672 410.8801574707031 58.57406997680664 411.5328063964844 59.30875015258789 Z M 396.0648803710938 57.90114212036133 C 395.540283203125 57.7921028137207 395.0166931152344 57.68210983276367 394.4952392578125 57.57109832763672 C 392.5986328125 57.16761779785156 390.6735229492188 56.72966003417969 388.8118286132812 56.30611801147461 C 388.4808654785156 56.23082733154297 388.1453857421875 56.15450668334961 387.8080139160156 56.07790374755859 C 388.4649658203125 56.21853637695312 389.1204528808594 56.3563117980957 389.7625122070312 56.49126815795898 C 391.9122924804688 56.94313812255859 394.0110473632812 57.38429260253906 396.0648803710938 57.90114212036133 Z M 407.6690979003906 55.49846649169922 C 407.2726745605469 55.14890670776367 406.8790588378906 54.79257202148438 406.4884643554688 54.43209075927734 C 406.88330078125 54.78617858886719 407.2771301269531 55.14168930053711 407.6690979003906 55.49846649169922 Z M 398.431884765625 53.95550918579102 C 398.229248046875 53.81509017944336 398.0321960449219 53.67585754394531 397.8408203125 53.53913879394531 C 396.6679992675781 52.70174789428711 395.4563293457031 51.87364959716797 394.2845764160156 51.07281875610352 C 394.0133972167969 50.88748550415039 393.737548828125 50.69894409179688 393.4602966308594 50.5090217590332 C 395.27490234375 51.63777160644531 396.9251403808594 52.78128433227539 398.431884765625 53.95550918579102 Z M 394.012451171875 47.27048492431641 C 394.2632141113281 46.93349075317383 394.5244445800781 46.5802116394043 394.7584533691406 46.22983551025391 L 394.6753540039062 46.46855163574219 C 394.5423889160156 46.64064407348633 394.285888671875 46.94710540771484 394.012451171875 47.27048492431641 Z M 393.8185729980469 42.57500457763672 C 393.8206176757812 42.57143020629883 393.8226623535156 42.5678596496582 393.8247680664062 42.56425857543945 C 393.9435424804688 42.36068725585938 394.11083984375 42.14775848388672 394.3213500976562 41.93256759643555 C 394.5368957519531 41.7123908996582 394.75 41.5758171081543 394.95703125 41.5247917175293 L 394.8345642089844 41.63765716552734 L 394.7388305664062 41.72588729858398 C 394.5163269042969 41.93093872070312 394.2901306152344 42.13938903808594 394.0221557617188 42.38694000244141 L 393.8185729980469 42.57500457763672 Z" stroke="none"/>
        <path d="M 390.6774291992188 111.5039672851562 C 387.90478515625 111.4085311889648 385.799560546875 111.3511581420898 383.6955261230469 111.2591323852539 C 381.946533203125 111.1824493408203 380.1963500976562 111.1017913818359 378.4518432617188 110.9569320678711 C 375.62353515625 110.7212066650391 372.7940979003906 110.4797821044922 369.9765625 110.1452026367188 C 368.3621826171875 109.9537811279297 366.7574462890625 109.6271514892578 365.1719970703125 109.2601852416992 C 364.0853271484375 109.0085525512695 363.7007446289062 108.3848190307617 363.7814025878906 107.2720184326172 C 363.8450317382812 106.4012069702148 363.9319458007812 105.5264205932617 364.08984375 104.6680908203125 C 365.4628295898438 97.19657135009766 367.2879638671875 89.82501983642578 369.366455078125 82.52675628662109 C 371.4574584960938 75.18305206298828 373.8063659667969 67.91317749023438 376.056396484375 60.61491012573242 C 376.1416015625 60.33884048461914 376.3290710449219 60.05595016479492 376.5471801757812 59.86565780639648 C 377.5810546875 58.96416854858398 378.6143188476562 58.05641937255859 379.7066650390625 57.22821807861328 C 380.1810302734375 56.8686408996582 380.7944946289062 56.69141006469727 381.3483581542969 56.4391975402832 C 381.4744567871094 56.38182067871094 381.6244201660156 56.375 381.7476806640625 56.31308746337891 C 384.0772705078125 55.14574813842773 386.3795776367188 53.93410873413086 388.3779907226562 52.22882843017578 C 389.961669921875 50.87688064575195 391.59765625 49.57888793945312 392.7257995605469 47.77988815307617 C 393.2063598632812 47.01416015625 394.5583190917969 45.46825790405273 394.7685241699219 44.57812881469727 C 394.8912048339844 44.05608749389648 393.9448547363281 44.41704940795898 393.4580078125 44.03418731689453 C 392.8450927734375 43.55133819580078 392.7792053222656 42.87083053588867 393.17626953125 42.18745803833008 C 393.3410034179688 41.90514755249023 393.5557250976562 41.64270782470703 393.7852172851562 41.40810775756836 C 394.60205078125 40.57368850708008 395.5154113769531 40.53950119018555 396.4334716796875 41.28086090087891 C 396.8385009765625 41.60805892944336 397.2401123046875 41.94094085693359 397.6615905761719 42.24541091918945 C 401.1358032226562 44.75559997558594 404.4765014648438 47.43280792236328 407.7462158203125 50.20317077636719 C 410.2427673339844 52.31744766235352 412.6149291992188 54.55725860595703 414.7735290527344 57.01689910888672 C 415.553466796875 57.90531921386719 416.2481689453125 58.86986923217773 417.0428771972656 59.7435188293457 C 417.559814453125 60.31156921386719 418.0216369628906 60.8824577331543 418.2369079589844 61.63000869750977 C 418.4658508300781 62.42470932006836 418.731689453125 63.21031951904297 418.9390258789062 64.0101318359375 C 419.2241821289062 65.10985565185547 419.1991882324219 66.17098236083984 418.7208862304688 67.257080078125 C 418.0062866210938 68.87828826904297 417.3513488769531 70.53301239013672 416.7866821289062 72.212158203125 C 414.8934020996094 77.84320068359375 412.70751953125 83.36348724365234 410.3961181640625 88.82923889160156 C 408.12109375 94.20864105224609 405.6779174804688 99.51760864257812 403.2852783203125 104.8476104736328 C 402.5979614257812 106.3784790039062 401.8231201171875 107.8701782226562 401.1005859375 109.3851623535156 C 400.4961547851562 110.6524810791016 399.4639892578125 111.227897644043 398.1007080078125 111.2915191650391 C 397.9819641113281 111.2971954345703 397.8643798828125 111.3062896728516 397.7456665039062 111.3091278076172 C 395.16845703125 111.3806991577148 392.5906066894531 111.4517059326172 390.6774291992188 111.5039672851562 Z M 379.4794006347656 60.97598266601562 C 378.8978271484375 60.97598266601562 378.3341674804688 61.10204315185547 377.7690734863281 61.22839736938477 C 377.6043395996094 61.26531982421875 377.4305114746094 61.53287887573242 377.3720092773438 61.72714996337891 C 377.1129760742188 62.58659744262695 376.9175415039062 63.46593856811523 376.6568298339844 64.32482147216797 C 375.291259765625 68.82715606689453 373.8779296875 73.31587219238281 372.5469665527344 77.82843780517578 C 370.5269775390625 84.67737579345703 368.6791381835938 91.57403564453125 367.1329345703125 98.54738616943359 C 366.5654296875 101.1092910766602 366.0433959960938 103.6808319091797 365.4957885742188 106.246696472168 C 365.4224853515625 106.5920715332031 365.3236694335938 106.9323272705078 365.1958618164062 107.4339218139648 C 366.1320190429688 107.6685104370117 367.0084838867188 107.9707183837891 367.909423828125 108.0973892211914 C 369.9453125 108.3842620849609 371.9885864257812 108.6302261352539 374.0364379882812 108.8085861206055 C 377.0521850585938 109.0710296630859 380.0713806152344 109.3277816772461 383.0950927734375 109.4618453979492 C 386.5681457519531 109.6163482666016 390.0480346679688 109.6351013183594 393.5244750976562 109.7095108032227 C 393.6400451660156 109.7123718261719 393.7556762695312 109.6828155517578 393.8891906738281 109.6663513183594 C 395.0610656738281 105.6070785522461 396.8419189453125 101.7875213623047 398.303466796875 97.84755706787109 C 399.80029296875 93.8138427734375 401.5135498046875 89.85797119140625 402.9393310546875 85.80040740966797 C 405.0399780273438 79.82398986816406 406.9707641601562 73.78849029541016 408.9703369140625 67.77684783935547 C 409.0816650390625 67.44339752197266 409.158935546875 67.09860229492188 409.275390625 66.67312622070312 C 408.8067321777344 66.57769775390625 408.37841796875 66.48851013183594 407.948974609375 66.40331268310547 C 403.4017333984375 65.49897766113281 398.85791015625 64.57476043701172 394.3055725097656 63.69826889038086 C 389.59130859375 62.78995895385742 384.8668518066406 61.93732070922852 380.1514892578125 61.03754043579102 C 379.9241333007812 60.99419784545898 379.7005004882812 60.97598266601562 379.4794006347656 60.97598266601562 Z M 410.9704284667969 66.96112823486328 C 406.4305725097656 81.39350128173828 401.2897338867188 95.57650756835938 395.5183715820312 109.6061325073242 C 395.7636413574219 109.6384963989258 395.8734130859375 109.670280456543 395.982421875 109.6646423339844 C 396.87939453125 109.6157913208008 397.7769165039062 109.5720520019531 398.6727294921875 109.5021820068359 C 399.1396484375 109.4658203125 399.5026245117188 109.2914352416992 399.7190551757812 108.798942565918 C 401.860595703125 103.9313354492188 404.0254516601562 99.07453155517578 406.1777954101562 94.21205139160156 C 409.4787292480469 86.75189208984375 412.4479370117188 79.16107177734375 415.118896484375 71.45268249511719 C 415.466552734375 70.44950866699219 415.9039611816406 69.47701263427734 416.2981872558594 68.48974609375 C 416.3919067382812 68.25457000732422 416.4788208007812 68.01712799072266 416.5634460449219 67.79445648193359 C 414.6820678710938 67.51383972167969 412.8677062988281 67.24344635009766 410.9704284667969 66.96112823486328 Z M 381.9154052734375 58.11317443847656 C 381.5446472167969 58.11317443847656 381.2081604003906 58.23764801025391 380.8905029296875 58.48700714111328 C 380.5201416015625 58.77784729003906 380.1412353515625 59.05675888061523 379.7663269042969 59.34135055541992 L 379.7952880859375 59.50210952758789 C 380.510498046875 59.62196731567383 381.228515625 59.72932815551758 381.9408264160156 59.86394882202148 C 385.4008178710938 60.52003860473633 388.8602294921875 61.17557907104492 392.3173828125 61.84586715698242 C 397.6780700683594 62.88596725463867 403.0325317382812 63.96014022827148 408.3977355957031 64.97409820556641 C 410.696044921875 65.40864562988281 413.013671875 65.74209594726562 415.3268127441406 66.09201812744141 C 415.7868957519531 66.16130828857422 416.2691955566406 66.11473083496094 416.7389831542969 66.08576965332031 C 417.1837463378906 66.05793762207031 417.4490356445312 65.79776763916016 417.410400390625 65.34049224853516 C 417.2820434570312 63.82891845703125 417.1138916015625 62.33097839355469 416.1209411621094 61.07048797607422 C 413.3442993164062 57.54745864868164 410.2978515625 54.28004837036133 406.8253784179688 51.43526840209961 C 403.5693054199219 48.76828765869141 400.2598266601562 46.16606903076172 396.9759521484375 43.53260040283203 C 396.4419860839844 43.1048583984375 395.9188232421875 42.66349029541016 395.3428344726562 42.18917083740234 C 395.0888977050781 42.42319869995117 394.8372802734375 42.65496826171875 394.5310668945312 42.93784713745117 C 394.7503356933594 43.16109848022461 394.9151000976562 43.35366058349609 395.1053771972656 43.51725769042969 C 396.8612060546875 45.03054046630859 398.6369323730469 46.52109909057617 400.3768615722656 48.05254745483398 C 403.6085205078125 50.89619827270508 406.8787841796875 53.70008087158203 410.01611328125 56.6453971862793 C 411.6986694335938 58.22570037841797 413.1437683105469 60.05991744995117 414.6826477050781 61.79133987426758 C 415.087646484375 62.24691009521484 415.4938049316406 62.71611022949219 415.80908203125 63.23418045043945 C 416.1783142089844 63.8414192199707 416.0811767578125 64.08454132080078 415.4790344238281 64.44866180419922 C 414.7701110839844 64.87696838378906 413.9668273925781 64.85993957519531 413.2040100097656 64.77244567871094 C 412.1752624511719 64.65486145019531 411.15673828125 64.42082214355469 410.1439208984375 64.19246673583984 C 405.2314453125 63.0870475769043 400.3280029296875 61.94186782836914 395.4104309082031 60.85973739624023 C 391.578369140625 60.01617813110352 387.73095703125 59.24364852905273 383.8892211914062 58.44496917724609 C 383.3802490234375 58.33874893188477 382.859375 58.28704833984375 382.3543701171875 58.16719818115234 C 382.2024841308594 58.13118743896484 382.0564880371094 58.11317443847656 381.9154052734375 58.11317443847656 Z M 385.1566772460938 56.21614456176758 C 384.696533203125 56.21614456176758 384.2669982910156 56.44694137573242 383.82958984375 56.84421920776367 C 393.3040771484375 58.91587829589844 402.7218017578125 60.97618865966797 412.1400451660156 63.03593063354492 L 412.1775512695312 62.98138809204102 C 411.96337890625 62.85982894897461 411.7452392578125 62.7445182800293 411.5350646972656 62.61499786376953 C 410.0053100585938 61.67317962646484 408.4715576171875 60.73759841918945 406.9526062011719 59.77873992919922 C 406.4561157226562 59.46517944335938 406 59.08913803100586 405.7296142578125 58.43360900878906 C 405.911865234375 58.39327239990234 406.0702514648438 58.30406951904297 406.1919860839844 58.34045028686523 C 406.7322082519531 58.5012092590332 407.2922973632812 58.63810729980469 407.7893676757812 58.89315795898438 C 409.2401428222656 59.63673782348633 410.6642456054688 60.43313980102539 412.1440124511719 61.17102813720703 C 411.6464233398438 60.59616088867188 411.2652587890625 59.94461059570312 410.5676879882812 59.51118850708008 C 408.2392578125 58.06438064575195 405.946044921875 56.56132888793945 403.6414489746094 55.07701873779297 C 403.6051025390625 55.05373001098633 403.5869140625 55.00204086303711 403.4977416992188 54.8719596862793 C 403.672119140625 54.84185028076172 403.8198852539062 54.76628494262695 403.9254760742188 54.80548858642578 C 404.7644653320312 55.11393737792969 405.5972290039062 55.43886947631836 406.4271545410156 55.77059936523438 C 406.6828002929688 55.87284851074219 406.9230651855469 56.01202774047852 407.2025756835938 56.08700942993164 C 403.2381591796875 52.59579086303711 399.7645568847656 48.63438034057617 395.5183715820312 45.37891006469727 C 395.3542175292969 45.85094833374023 395.6302795410156 46.00661087036133 395.5183715820312 46.32812881469727 C 396.6620788574219 47.24898910522461 397.5339965820312 48.34066772460938 398.4351196289062 49.39687347412109 C 397.8336181640625 48.91883850097656 397.2402954101562 48.45281600952148 396.685546875 48.05254745483398 C 396.2464599609375 47.73613739013672 395.8284912109375 47.18940734863281 395.3428344726562 46.82812881469727 C 395.0326538085938 47.26268768310547 393.490966796875 49.00914001464844 393.174560546875 49.4533576965332 C 396.6038818359375 51.53353881835938 399.7957763671875 53.84548950195312 402.6331787109375 56.61869812011719 C 402.7121276855469 56.69594955444336 402.760986328125 56.80444717407227 402.7729187011719 57.03791809082031 C 402.55078125 56.99247741699219 402.3145141601562 56.98110961914062 402.1082763671875 56.89590835571289 C 400.4149169921875 56.19720840454102 398.890869140625 55.21107864379883 397.4048461914062 54.14939880371094 C 395.7126159667969 52.94115829467773 393.984619140625 51.78347778320312 392.2412719726562 50.58148956298828 C 391.5630187988281 51.18362808227539 390.9534912109375 51.72440719604492 390.3013916015625 52.30324935913086 C 392.8178405761719 53.598388671875 395.3820190429688 54.67370986938477 397.595703125 56.35113906860352 C 397.5769653320312 56.42385864257812 397.5576477050781 56.4965705871582 397.538330078125 56.56871032714844 C 397.4617919921875 56.5643424987793 397.3813171386719 56.56930923461914 397.3027648925781 56.56930541992188 C 397.2180786132812 56.56930541992188 397.1356506347656 56.56353378295898 397.0628662109375 56.5340576171875 C 396.077880859375 56.13982772827148 395.0900268554688 55.74958038330078 394.1220703125 55.31502914428711 C 392.5491333007812 54.60894775390625 390.9909973144531 53.86991882324219 389.366943359375 53.11725997924805 C 388.5364379882812 53.73585891723633 387.6582641601562 54.39138793945312 386.7374267578125 55.07815933227539 C 392.720703125 56.39715957641602 398.7306518554688 57.37533950805664 404.3236694335938 59.87530899047852 C 404.3912963867188 59.90541839599609 404.4253540039062 60.00936889648438 404.5821533203125 60.22806930541992 C 404.082275390625 60.19340896606445 403.7181396484375 60.20817947387695 403.3699340820312 60.13887786865234 C 400.3575439453125 59.53789901733398 397.343505859375 58.94427871704102 394.3390808105469 58.30466079711914 C 391.6101684570312 57.72411727905273 388.8931884765625 57.08847808837891 386.1705017089844 56.47668838500977 C 386.0784912109375 56.45623779296875 385.9779663085938 56.44942092895508 385.8961181640625 56.4079475402832 C 385.6380310058594 56.27716064453125 385.393310546875 56.21614456176758 385.1566772460938 56.21614456176758 Z M 401.0198059082031 52.66628646850586 C 401.0143127441406 52.66629028320312 401.013427734375 52.66304397583008 401.0181884765625 52.65599822998047 C 401.1062622070312 52.5264778137207 401.1448974609375 52.27824783325195 401.0767211914062 52.14759826660156 C 400.9608459472656 51.92548751831055 400.7659912109375 51.72951889038086 400.5671691894531 51.56875991821289 C 399.7634887695312 50.91686630249023 399.091552734375 50.1662712097168 398.4351196289062 49.39687347412109 C 399.3308715820312 50.10877227783203 400.2447814941406 50.84733963012695 401.0767211914062 51.43526840209961 C 401.3834533691406 51.65225982666016 401.2403259277344 52.07658767700195 401.583984375 52.22882843017578 C 401.6958923339844 52.27827453613281 401.0801391601562 52.6662712097168 401.0198059082031 52.66628646850586 Z" stroke="none" fill="#000"/>
      </g>
      <path id="Path_99891" data-name="Path 99891" d="M6.891,6.687c.724-.185,1.454-.352,2.169-.565a1.536,1.536,0,0,0,.579-.394.718.718,0,0,0,.158-.85.7.7,0,0,0-.733-.45,2.373,2.373,0,0,0-.552.106A6.449,6.449,0,0,1,5.5,4.648,4.454,4.454,0,0,1,1.9,1.417c-.09-.243-.136-.5-.235-.741C1.445.141,1.076-.081.633.026A.88.88,0,0,0,0,1.009,2.926,2.926,0,0,0,.119,1.7a6.424,6.424,0,0,0,5.824,4.8l.917.077Z" transform="matrix(0.951, -0.309, 0.309, 0.951, 16.703, 44.881)"/>
      <path id="Path_99892" data-name="Path 99892" d="M0,1.431A1.2,1.2,0,0,0,1.175,2.65,1.4,1.4,0,0,0,2.458,1.171,1.131,1.131,0,0,0,1.363,0,1.454,1.454,0,0,0,0,1.431Z" transform="matrix(0.951, -0.309, 0.309, 0.951, 16.506, 39.302)"/>
      <path id="Path_99893" data-name="Path 99893" d="M1.206,0A1.21,1.21,0,0,0,0,1.209,1.2,1.2,0,0,0,1.119,2.39,1.166,1.166,0,0,0,2.3,1.182,1.127,1.127,0,0,0,1.206,0Z" transform="matrix(0.951, -0.309, 0.309, 0.951, 26.746, 40.639)"/>
    </g>
  </g>
</svg>
