<svg id="l3" xmlns="http://www.w3.org/2000/svg" width="96" height="80" viewBox="0 0 96 80">
  <rect id="Rectangle_5578" data-name="Rectangle 5578" width="96" height="80" fill="none"/>
  <g id="_6512616" data-name="6512616" transform="translate(-23.49 -17.318)">
    <g id="_2e2f27ff" data-name="#2e2f27ff" transform="translate(32.527 28.16)">
      <path id="Path_107363" data-name="Path 107363" d="M41.228,28.766c9.159-1.637,19.158.058,26.711,5.68,1.135.835,2.115,1.857,3.235,2.709a29.915,29.915,0,0,1,13.8-7.712,38.219,38.219,0,0,1,16.589-.65,1.6,1.6,0,0,1,1.31,1.379c2.744,10.335,4.377,20.928,7.138,31.26a5.4,5.4,0,0,1-.045,2.424c.107,1,1.124,2.376-.168,3a15.29,15.29,0,0,1,.653,3.5c-3.861-.444-7.743-1.111-11.642-.832,1.028,5.133,2.341,10.2,3.473,15.31a13.978,13.978,0,0,1,.144,1.613c-4.783.017-9.569.031-14.355,0a9,9,0,0,1-3.308-1.76q-5.544-4.44-11.092-8.874c-.5-.444-1.052.175-1.537.327-.994.722-2.039-.241-2.988-.557-3.38,2.812-6.845,5.529-10.294,8.259a9.221,9.221,0,0,1-4.817,2.616c-4.6.024-9.194.007-13.791,0a5.36,5.36,0,0,1,.306-2.685c.77-3.414,1.588-6.815,2.372-10.222a18.568,18.568,0,0,0,.753-4.078c-3.669-.138-7.292.523-10.927.846a9.576,9.576,0,0,1,.75-3.4l-.815-.65c.131-.829.33-1.647.5-2.465-.368-.856-.9-1.716-.505-2.678,2.445-9.692,4.188-19.546,6.574-29.252.248-1.193.533-2.854,1.974-3.112m.406.863c-.959.069-1.1,1.176-1.358,1.908-2.152,8.926-3.909,17.934-5.982,26.877-.275,1.4-.921,2.757-.736,4.212a31.262,31.262,0,0,0,5.659-.4,66.291,66.291,0,0,1,12.188.457,66.714,66.714,0,0,1,17.239,5.15,3.5,3.5,0,0,0,2.335.688c-.447-5.2.034-10.438-.275-15.651-.1-3.493.079-6.993-.086-10.483a22.359,22.359,0,0,0,.048-2.919c-.069-.595.069-1.313-.444-1.75a26,26,0,0,0-6.935-5.078,35.306,35.306,0,0,0-21.654-3.008M71.763,37.99a3.815,3.815,0,0,0-.168,1.492c.065,9.747.038,19.5.22,29.242a27.159,27.159,0,0,0,3.191-1.368,68.043,68.043,0,0,1,11.27-3.724,68.763,68.763,0,0,1,13.471-1.547c3.2-.086,6.368.564,9.562.67a33.989,33.989,0,0,0-.829-3.641c-2.28-9.266-3.858-18.7-6.3-27.925a5.036,5.036,0,0,0-.605-1.468A38,38,0,0,0,89.8,29.405c-6.691.884-13.357,3.6-18.037,8.585M34.269,63.722c-.165.578-.323,1.155-.481,1.733,2.077-.007,4.088-.629,6.165-.65a60.006,60.006,0,0,1,24.129,3.741c1.406.45,2.7,1.2,4.122,1.575l.065.175c.657.306,1.3.626,1.939.973l.237-.213-.227.461a3.226,3.226,0,0,0,1.943-.141A57.406,57.406,0,0,1,87.049,66.1a59.506,59.506,0,0,1,17.865-1.162,29.961,29.961,0,0,0,4.463.444,14.671,14.671,0,0,0-.4-1.444,16.127,16.127,0,0,0-4.831-.67,48.227,48.227,0,0,0-6.144-.172,53.272,53.272,0,0,0-7.475.732,44.818,44.818,0,0,0-8.32,1.846l.158.058a27.924,27.924,0,0,0-4.721,1.478,32.912,32.912,0,0,0-5.36,2.479l-.144-.034-.282.217c-1.282.189-2.269-.739-3.38-1.186A58.8,58.8,0,0,0,47.6,63.323a40.054,40.054,0,0,0-8.369-.162,27.9,27.9,0,0,0-4.961.56m.275,2.713a17,17,0,0,0-.7,2.837,75.75,75.75,0,0,1,8.816-.732A62.211,62.211,0,0,1,62.05,71.585c.069.055.206.168.272.223,2.4.426,4.449,1.819,6.749,2.537a8.443,8.443,0,0,0,2.173,1.08c1.437-.5,2.754-1.313,4.188-1.843a62.227,62.227,0,0,1,27.385-4.972c2.2.062,4.363.588,6.567.578a21.133,21.133,0,0,0-.791-2.826,47.727,47.727,0,0,0-13.725-.419,54.538,54.538,0,0,0-19.9,5.15,26.341,26.341,0,0,0-3.758,1.564,61.75,61.75,0,0,0-25.292-6.952,46.3,46.3,0,0,0-11.37.729m10.27,3.146.045.148c-1.231,4.8-2.29,9.655-3.39,14.492a4.774,4.774,0,0,0,1.241-.529Q49.3,79.008,55.872,74.3a26.445,26.445,0,0,0,3.294-2.524,48.71,48.71,0,0,0-14.351-2.2M83.46,71.791c1.344,1.355,3.074,2.228,4.518,3.462l.162-.052c4.236,3.167,8.551,6.24,12.886,9.269a15.61,15.61,0,0,0-.657-3.758c-.426-1.478-.588-3.033-1.152-4.466a43.571,43.571,0,0,0-1.485-6.7A52.426,52.426,0,0,0,83.46,71.791M58.622,73.517C53.754,76.9,48.954,80.38,44.14,83.839A7.764,7.764,0,0,0,42.3,85.3c3.916.083,7.836.031,11.755.058,2.115.048,3.607-1.678,5.116-2.9,2-1.537,3.892-3.218,5.914-4.731a15.184,15.184,0,0,0,3.1-2.826,72.655,72.655,0,0,0-7.585-2.757,11.941,11.941,0,0,0-1.984,1.379m16.514,1.245c-.756-.11-.729.622-.179.846,3.373,2.83,6.832,5.556,10.3,8.269a5.19,5.19,0,0,0,3.473,1.447c3.827-.038,7.664.1,11.487-.072-.278-.124-.413-.578-.743-.578a37.147,37.147,0,0,0-3.706-2.788c-4.563-3.2-9.032-6.56-13.67-9.644A32.71,32.71,0,0,0,75.136,74.762Z" transform="translate(-32.54 -28.171)" fill="#2e2f27"/>
      <path id="Path_107364" data-name="Path 107364" d="M71.71,52.271a27.856,27.856,0,0,1,18.67,5.357c-1.331-.595-2.527-1.447-3.854-2.053a29.368,29.368,0,0,0-8.235-2.7C76.128,52.381,73.9,52.536,71.71,52.271Z" transform="translate(-58.242 -43.934)" fill="#2e2f27"/>
      <path id="Path_107365" data-name="Path 107365" d="M173.686,53a35.2,35.2,0,0,1,7.289-.547c-3.823.382-7.726.619-11.363,1.977-2.713.846-5.1,2.4-7.612,3.682A28.119,28.119,0,0,1,173.686,53Z" transform="translate(-117.489 -44.102)" fill="#2e2f27"/>
      <path id="Path_107366" data-name="Path 107366" d="M70.07,59.987A30.117,30.117,0,0,1,89.262,65.44c-3.493-1.846-7.045-3.737-10.975-4.456C75.606,60.258,72.807,60.324,70.07,59.987Z" transform="translate(-57.166 -49.016)" fill="#2e2f27"/>
      <path id="Path_107367" data-name="Path 107367" d="M163.8,65.86a28.546,28.546,0,0,1,18.752-5.312,24.8,24.8,0,0,1-3.194.22A34.427,34.427,0,0,0,163.8,65.86Z" transform="translate(-118.67 -49.381)" fill="#2e2f27"/>
      <path id="Path_107368" data-name="Path 107368" d="M68.89,67.864c2.823-.385,5.649.175,8.434.609a28.145,28.145,0,0,1,10.923,4.82A35.014,35.014,0,0,0,73.779,68.27C72.153,68.071,70.52,68,68.89,67.864Z" transform="translate(-56.392 -54.132)" fill="#2e2f27"/>
      <path id="Path_107369" data-name="Path 107369" d="M163.85,73.693a30.782,30.782,0,0,1,19.381-5.322c-1.729.3-3.493.206-5.23.413a34.284,34.284,0,0,0-10.476,3.053C166.267,72.393,165.132,73.194,163.85,73.693Z" transform="translate(-118.703 -54.511)" fill="#2e2f27"/>
      <path id="Path_107370" data-name="Path 107370" d="M67.38,75.9a28.012,28.012,0,0,1,9.514.763A29.457,29.457,0,0,1,87.222,81.3,38.435,38.435,0,0,0,67.772,75.9l-.285.382C67.459,76.19,67.407,76,67.38,75.9Z" transform="translate(-55.401 -59.391)" fill="#2e2f27"/>
      <path id="Path_107371" data-name="Path 107371" d="M163.72,81.718a31.916,31.916,0,0,1,19.343-5.453l.505.031c-.168.017-.5.055-.67.076a39.658,39.658,0,0,0-12.436,2.221A57.569,57.569,0,0,0,163.72,81.718Z" transform="translate(-118.617 -59.71)" fill="#2e2f27"/>
      <path id="Path_107372" data-name="Path 107372" d="M65.91,83.895a32.151,32.151,0,0,1,19.522,4.934l.113.234A38.852,38.852,0,0,0,65.91,83.895Z" transform="translate(-54.437 -64.686)" fill="#2e2f27"/>
      <path id="Path_107373" data-name="Path 107373" d="M163.82,89.716a32.724,32.724,0,0,1,18.247-5.487c.722,0,1.441.041,2.163.093-.808.052-1.619.076-2.427.1a44.147,44.147,0,0,0-4.81.529A41.657,41.657,0,0,0,163.82,89.716Z" transform="translate(-118.683 -64.955)" fill="#2e2f27"/>
      <path id="Path_107374" data-name="Path 107374" d="M63.84,91.832a33.814,33.814,0,0,1,19.223,4.329c.433.251.86.519,1.282.794q-.8-.315-1.575-.691A40.244,40.244,0,0,0,63.84,91.832Z" transform="translate(-53.078 -69.876)" fill="#2e2f27"/>
      <path id="Path_107375" data-name="Path 107375" d="M164.72,97.582a33.257,33.257,0,0,1,16.565-5.388,30.642,30.642,0,0,1,3.933.1,49,49,0,0,0-5.364.292A41.527,41.527,0,0,0,164.72,97.582Z" transform="translate(-119.274 -70.166)" fill="#2e2f27"/>
      <path id="Path_107376" data-name="Path 107376" d="M62.58,99.742a34.546,34.546,0,0,1,17.679,3.369,22.8,22.8,0,0,1,3.263,1.826c-1.172-.481-2.286-1.09-3.438-1.613a41.128,41.128,0,0,0-11.016-3.16C66.919,99.859,64.743,99.89,62.58,99.742Z" transform="translate(-52.252 -75.052)" fill="#2e2f27"/>
      <path id="Path_107377" data-name="Path 107377" d="M168.925,103.381a36.119,36.119,0,0,1,11.092-3.057,44.431,44.431,0,0,1,6.051-.055c-2.159.206-4.339.127-6.495.4a41.384,41.384,0,0,0-14.623,4.975A16.124,16.124,0,0,1,168.925,103.381Z" transform="translate(-119.425 -75.429)" fill="#2e2f27"/>
      <path id="Path_107378" data-name="Path 107378" d="M61.02,107.653A35.075,35.075,0,0,1,76.991,110.1a31.765,31.765,0,0,1,5.446,2.733c-2.008-.849-3.93-1.9-6-2.606A44.374,44.374,0,0,0,61.02,107.653Z" transform="translate(-51.228 -80.223)" fill="#2e2f27"/>
      <path id="Path_107379" data-name="Path 107379" d="M178.364,108.318a29.781,29.781,0,0,1,8.231-.378,61.733,61.733,0,0,0-8.723.815,45.021,45.021,0,0,0-12.752,4.528A36.519,36.519,0,0,1,178.364,108.318Z" transform="translate(-119.536 -80.411)" fill="#2e2f27"/>
    </g>
    <path id="Union_326" data-name="Union 326" d="M0,10.391A3.834,3.834,0,0,1,.168,8.9C4.85,3.91,11.515,1.2,18.206.309A38.043,38.043,0,0,1,29.981.631c-.674,2.053-.755,4.316-1.826,6.229-.054-.186-.162-.553-.217-.738a4.981,4.981,0,0,1-2.879-.516,4.412,4.412,0,0,1-1.938-2.818A30.711,30.711,0,0,0,3.563,8.973,4.038,4.038,0,0,1,3.8,11.418c-.267.693-.979,1.029-1.548,1.434.569,6.006.738,12.035.711,18.059a4.487,4.487,0,0,1,2.618,4.611,30.416,30.416,0,0,1,11.275-4.482,34.621,34.621,0,0,1-2.178,3.5A67.873,67.873,0,0,0,3.41,38.264,27.9,27.9,0,0,1,.222,39.633C.038,29.889.064,20.135,0,10.391ZM3.541,30.5c.06-5.768-.119-11.541-.6-17.293a4.161,4.161,0,0,0,1.3-1.287c.5-.887.234-1.922.25-2.879A30.644,30.644,0,0,1,22.654,3.352a4.761,4.761,0,0,0,4.9,3.361c.141.533.294,1.053.451,1.58-.843,2.457-1.673,4.916-2.619,7.338A31.963,31.963,0,0,0,6.044,21.084a57.293,57.293,0,0,1,6.746-3.121A39.523,39.523,0,0,1,25.229,15.74c-.3.869-.6,1.736-.9,2.613A32.7,32.7,0,0,0,6.082,23.838a41.671,41.671,0,0,1,13.172-4.764,44.478,44.478,0,0,1,4.813-.525q-.579,1.271-1.108,2.557A33.273,33.273,0,0,0,6.393,26.494a41.562,41.562,0,0,1,15.132-5,50.152,50.152,0,0,1,5.365-.291,31.841,31.841,0,0,0-3.932-.1q.53-1.286,1.108-2.557c.8-.027,1.618-.051,2.428-.1-.723-.051-1.445-.088-2.167-.092.3-.877.6-1.744.9-2.613.162-.023.5-.061.668-.076l-.506-.033c.946-2.416,1.776-4.881,2.619-7.332a175.732,175.732,0,0,1,3.654,19.65A5.064,5.064,0,0,0,26.7,30.389a31.492,31.492,0,0,0-9.038.049c.489-1.031,1.032-2.037,1.619-3.014A61.732,61.732,0,0,1,28,26.607a29.752,29.752,0,0,0-8.229.381l1.32-2.672c2.151-.271,4.334-.189,6.491-.4a45.35,45.35,0,0,0-6.052.057c.3-.766.6-1.527.892-2.3-.293.766-.593,1.533-.892,2.3a36.04,36.04,0,0,0-11.09,3.057,16.18,16.18,0,0,0-3.977,2.26,41.439,41.439,0,0,1,14.627-4.975q-.661,1.336-1.32,2.666A36.47,36.47,0,0,0,6.528,31.953a44.839,44.839,0,0,1,12.753-4.529,34.04,34.04,0,0,0-1.619,3.014A33.31,33.31,0,0,0,7.517,33.729a10.4,10.4,0,0,0-1.438.967A5.268,5.268,0,0,0,3.541,30.5ZM6.094,18.26c1.282-.5,2.416-1.3,3.677-1.857a34.142,34.142,0,0,1,10.472-3.051c1.738-.207,3.5-.115,5.23-.414-.635-.039-1.265-.061-1.9-.061A30.594,30.594,0,0,0,6.094,18.26Zm-.016-2.705a34.349,34.349,0,0,1,15.555-5.088,24.933,24.933,0,0,0,3.193-.223c-.608-.039-1.216-.057-1.825-.057A28.18,28.18,0,0,0,6.078,15.555ZM17.141,7.969A28.154,28.154,0,0,0,5.458,13.084c2.509-1.281,4.9-2.834,7.61-3.682,3.639-1.359,7.538-1.6,11.361-1.979A35.579,35.579,0,0,0,17.141,7.969Zm-.282,23.07a41.284,41.284,0,0,1,10.06-.443,5.453,5.453,0,0,1,2.448-2.2,16.576,16.576,0,0,1,2.38-.385,131.511,131.511,0,0,0-3.591-21.15c1.071-1.912,1.152-4.176,1.826-6.229a4.867,4.867,0,0,1,.6,1.465c2.445,9.229,4.02,18.662,6.3,27.93a33.259,33.259,0,0,1,.831,3.639c-3.193-.109-6.359-.756-9.564-.674a68.659,68.659,0,0,0-13.47,1.549A34.621,34.621,0,0,0,16.858,31.039Z" transform="translate(71.582 29.08)" fill="#ffec00"/>
    <path id="Union_327" data-name="Union 327" d="M35.118,38.729A66.719,66.719,0,0,0,17.879,33.58a38.19,38.19,0,0,1,3.53-2.389A31.518,31.518,0,0,1,31.25,35.3a4.972,4.972,0,0,1,2.722-4.58c.006-3.98-.016-7.957.2-11.926l.006-.008c.119-2.014.3-4.029.509-6.043-.6-.436-1.374-.809-1.574-1.58a3.784,3.784,0,0,1,.233-2.342,30.742,30.742,0,0,0-19.52-6.186,5,5,0,0,1-1.988,2.834,4.975,4.975,0,0,1-2.9.506,130.181,130.181,0,0,0-3.8,21.709c1.944.211,4.008.967,4.866,2.889a32.642,32.642,0,0,1,11.4.621,38.786,38.786,0,0,0-3.525,2.389,66.071,66.071,0,0,0-12.187-.461,31.088,31.088,0,0,1-5.66.406c-.18-1.451.462-2.814.733-4.215C2.845,20.371,4.6,11.365,6.75,2.436,7,1.709,7.146.6,8.107.529a35.29,35.29,0,0,1,21.655,3.01A26.035,26.035,0,0,1,36.7,8.611c.517.439.375,1.156.446,1.754a22.917,22.917,0,0,1-.05,2.918c-.143.291-.278.586-.411.885.133-.3.269-.594.411-.885.163,3.492-.017,6.99.082,10.486.309,5.209-.169,10.447.276,15.648a1.924,1.924,0,0,1-.362.033A4.165,4.165,0,0,1,35.118,38.729Zm-12.78-7.859a32.093,32.093,0,0,0-12.16-.646,5.267,5.267,0,0,0-4.942-2.541c1.1-7.1,2.068-14.246,4.138-21.15A4.583,4.583,0,0,0,14.2,3.225,29.881,29.881,0,0,1,32.483,8.992,3.481,3.481,0,0,0,33.994,13.1c-.239,2.455-.386,4.928-.561,7.387-.032,3.291-.146,6.578-.064,9.869A5.252,5.252,0,0,0,30.778,34.3,37.84,37.84,0,0,0,22.338,30.869Zm7.887.811a32.319,32.319,0,0,0-5.443-2.732l0,0A35.076,35.076,0,0,0,8.809,26.5a44.4,44.4,0,0,1,15.408,2.574c-.368.352-.735.707-1.1,1.059.369-.352.739-.7,1.11-1.059C26.292,29.779,28.215,30.832,30.225,31.68Zm.059-2.729a23.219,23.219,0,0,0-3.264-1.824l0,0A34.631,34.631,0,0,0,9.347,23.76c2.155.146,4.334.119,6.485.424A41.123,41.123,0,0,1,26.847,27.34C28,27.865,29.111,28.475,30.283,28.951Zm0-2.8c-.423-.277-.852-.545-1.286-.795.456-.461.912-.924,1.369-1.379-.457.455-.913.918-1.369,1.379A33.777,33.777,0,0,0,9.775,21.027,40.231,40.231,0,0,1,28.7,25.459C29.226,25.709,29.746,25.938,30.283,26.15Zm-19.8-7.871a38.941,38.941,0,0,1,19.632,5.16l-.105-.229a32.021,32.021,0,0,0-17.3-5.008Q11.6,18.2,10.486,18.279Zm20.5,4.959c.513-.516.962-1.092,1.431-1.652-.472.561-.923,1.137-1.437,1.652-.111.008-.223.01-.333.01C30.758,23.248,30.87,23.246,30.985,23.238Zm-.153-2.264a29.45,29.45,0,0,0-10.324-4.629,28.15,28.15,0,0,0-9.517-.766c.028.1.076.289.109.381l.282-.381A38.42,38.42,0,0,1,30.832,20.975ZM11.514,12.8c1.629.137,3.259.207,4.888.406A35.072,35.072,0,0,1,30.865,18.23a28.182,28.182,0,0,0-10.917-4.822A43.044,43.044,0,0,0,13.5,12.67,15,15,0,0,0,11.514,12.8Zm.407-2.76c2.731.338,5.529.273,8.218,1,3.927.723,7.473,2.607,10.971,4.459A29.953,29.953,0,0,0,13.648,9.992Q12.784,9.992,11.921,10.039Zm.565-2.633c2.183.266,4.415.113,6.576.613a29.132,29.132,0,0,1,8.229,2.693c1.331.6,2.532,1.457,3.856,2.049A27.75,27.75,0,0,0,14.565,7.33C13.87,7.33,13.175,7.352,12.486,7.406Z" transform="translate(33.513 29.09)" fill="#ffec00"/>
    <g id="_28291fff" data-name="#28291fff" transform="translate(38.654 31.693)">
      <path id="Path_107385" data-name="Path 107385" d="M59.038,38.472a30.729,30.729,0,0,1,19.519,6.192A3.775,3.775,0,0,0,78.323,47c.2.777.976,1.152,1.578,1.585-.206,2.011-.385,4.026-.512,6.048-.213,3.971-.193,7.949-.2,11.927a4.977,4.977,0,0,0-2.723,4.58,31.645,31.645,0,0,0-9.844-4.105,32.766,32.766,0,0,0-11.4-.622c-.856-1.915-2.919-2.675-4.865-2.888a130.144,130.144,0,0,1,3.8-21.705,4.191,4.191,0,0,0,4.882-3.345m-4.446,3.906c-2.07,6.9-3.043,14.049-4.136,21.145a5.262,5.262,0,0,1,4.937,2.544,32.222,32.222,0,0,1,12.164.646A37.992,37.992,0,0,1,76,70.145a5.253,5.253,0,0,1,2.589-3.951c-.083-3.287.031-6.577.065-9.864.172-2.465.316-4.93.557-7.389a3.481,3.481,0,0,1-1.509-4.1A29.884,29.884,0,0,0,59.42,39.067,4.6,4.6,0,0,1,54.592,42.378Z" transform="translate(-50.36 -38.447)" fill="#28291f"/>
    </g>
    <g id="_25251bff" data-name="#25251bff" transform="translate(73.834 31.844)">
      <path id="Path_107386" data-name="Path 107386" d="M153.993,45.1a30.727,30.727,0,0,1,19.557-6.185,4.392,4.392,0,0,0,1.936,2.816,4.96,4.96,0,0,0,2.881.516c.055.186.162.554.217.739a130.739,130.739,0,0,1,3.589,21.148,17.331,17.331,0,0,0-2.379.389,5.452,5.452,0,0,0-2.448,2.2,41.223,41.223,0,0,0-10.06.444,30.327,30.327,0,0,0-11.274,4.483,4.486,4.486,0,0,0-2.617-4.611c.027-6.027-.144-12.058-.715-18.061.574-.4,1.282-.739,1.551-1.434a4.068,4.068,0,0,0-.237-2.445m.928.072c-.017.956.248,1.994-.251,2.874a4.13,4.13,0,0,1-1.3,1.289c.485,5.752.664,11.525.6,17.294a5.26,5.26,0,0,1,2.534,4.195,10.163,10.163,0,0,1,1.444-.966,33.22,33.22,0,0,1,10.146-3.294,31.205,31.205,0,0,1,9.036-.048,5.064,5.064,0,0,1,4.965-2.441,176.209,176.209,0,0,0-3.655-19.653c-.158-.526-.309-1.052-.454-1.582a4.762,4.762,0,0,1-4.9-3.363A30.65,30.65,0,0,0,154.922,45.17Z" transform="translate(-152.68 -38.887)" fill="#25251b"/>
    </g>
    <path id="Union_331" data-name="Union 331" d="M34.482,7.273,34.418,7.1C32.985,6.727,31.7,5.979,30.3,5.527A60.006,60.006,0,0,0,6.161,1.785c-2.072.023-4.084.646-6.161.65C.157,1.861.314,1.281.477.7A28.464,28.464,0,0,1,5.44.141,40.486,40.486,0,0,1,13.809.3,58.84,58.84,0,0,1,34.694,5.668c1.112.451,2.1,1.379,3.378,1.188-.487.375-.965.766-1.415,1.178l-.238.219C35.784,7.9,35.139,7.584,34.482,7.273Zm-.966-1.451c.508.146.676.633.833,1.088-.157-.455-.325-.943-.833-1.094a61.01,61.01,0,0,0-7.639-2.633A60.415,60.415,0,0,1,33.517,5.822ZM24.6,2.832C19.729,1.586,14.662,1.451,9.665,1.156,14.662,1.457,19.729,1.588,24.6,2.832ZM9.665,1.156Z" transform="translate(33.777 63.008)" fill="#34ff97"/>
    <path id="Union_330" data-name="Union 330" d="M0,8.479l.227-.457A18.039,18.039,0,0,1,1.643,6.84l.282-.217.146.033s0,0,0,0A32.516,32.516,0,0,1,7.43,4.184,27.741,27.741,0,0,1,12.148,2.7l-.158-.059A44.313,44.313,0,0,1,20.315.8,53.974,53.974,0,0,1,27.79.061a48.462,48.462,0,0,1,6.139.174,16.1,16.1,0,0,1,4.827.672,13.488,13.488,0,0,1,.4,1.443A30.148,30.148,0,0,1,34.694,1.9,59.587,59.587,0,0,0,16.823,3.066,57.668,57.668,0,0,0,1.94,8.338a1.69,1.69,0,0,1-.905.223C.688,8.561.336,8.5,0,8.479ZM5.771,5.924a10.17,10.17,0,0,0-1.14.422,10.17,10.17,0,0,1,1.145-.422c.425-.17.853-.33,1.282-.488C6.626,5.594,6.2,5.754,5.771,5.924ZM13.06,3.045q-.437.22-.88.424.447-.205.886-.424c-.172-.064-.466-.172-.7-.26C12.6,2.875,12.892,2.982,13.06,3.045ZM22.328,1.58h0Z" transform="translate(70.209 63.023)" fill="#34ff97"/>
    <path id="Union_332" data-name="Union 332" d="M35.223,8.734l0-.006c-2.3-.719-4.354-2.109-6.748-2.539-.066-.053-.2-.168-.272-.221A4.39,4.39,0,0,0,27,5.176,55.3,55.3,0,0,0,8.135,1.992h0A55.4,55.4,0,0,1,27,5.182a4.47,4.47,0,0,1,1.2.793A62.118,62.118,0,0,0,8.813,2.924,77.008,77.008,0,0,0,0,3.656,17.137,17.137,0,0,1,.7.82,46.433,46.433,0,0,1,12.067.094,61.8,61.8,0,0,1,37.359,7.047a26.246,26.246,0,0,1,3.76-1.566A54.449,54.449,0,0,1,61.019.332,47.588,47.588,0,0,1,74.747.75a21.489,21.489,0,0,1,.792,2.824c-2.208.012-4.367-.512-6.569-.574A62.21,62.21,0,0,0,41.585,7.969C40.147,8.5,38.835,9.32,37.4,9.814A8.474,8.474,0,0,1,35.223,8.734Zm3.771-1.547h0c.2-.162.393-.326.588-.488C39.388,6.863,39.191,7.025,38.993,7.188ZM1.106,2.258a34.1,34.1,0,0,0,3.841-.123C6,2.059,7.062,1.98,8.119,1.992,7.055,1.977,6,2.053,4.937,2.129a32.693,32.693,0,0,1-3.812.125A.057.057,0,0,0,1.106,2.258Zm72.458-.293h.01C69.963.615,66.063.424,62.228.35,66.058.424,69.957.615,73.564,1.965Zm-6.942-.613c-.261-.016-.516-.027-.776-.039C66.106,1.324,66.361,1.336,66.622,1.352ZM14.189,1.346a.107.107,0,0,0-.025,0A.107.107,0,0,1,14.189,1.346ZM13.614,1.3c.181.012.362.027.544.043-.18-.016-.359-.031-.539-.043-.845-.043-1.693-.074-2.542-.084Q12.349,1.232,13.614,1.3ZM64,1.277h0Z" transform="translate(33.837 65.605)" fill="#34ff97"/>
    <path id="Union_323" data-name="Union 323" d="M46.667,5.654c.163-.051.478-.148.635-.2,4.156,1.877,7.634,4.953,11.034,7.932,0,0,0-.006,0-.008-3.4-2.971-6.878-6.047-11.033-7.924-.157.053-.472.15-.635.2l-.157.053C45.062,4.471,43.337,3.6,41.991,2.24A52.437,52.437,0,0,1,56.265,0a43.258,43.258,0,0,1,1.481,6.7,37.068,37.068,0,0,0-2.122-3.852A36.563,36.563,0,0,1,57.746,6.7c.563,1.432.727,2.982,1.155,4.465a15.587,15.587,0,0,1,.656,3.76C55.223,11.893,50.9,8.822,46.667,5.654ZM3.392.18c.012.037.024.074.036.111C3.416.254,3.4.217,3.392.18L3.348.033a48.784,48.784,0,0,1,14.35,2.2A26.239,26.239,0,0,1,14.4,4.752Q7.836,9.466,1.242,14.143A4.674,4.674,0,0,1,0,14.67C1.1,9.838,2.159,4.986,3.392.18ZM3.022,7.422a33.732,33.732,0,0,0,.714-5A33.806,33.806,0,0,1,3.022,7.422Z" transform="translate(41.457 69.537)" fill="#34ff97"/>
    <g id="_f0bcabff" data-name="#f0bcabff" transform="translate(42.292 72.127)">
      <path id="Path_107401" data-name="Path 107401" d="M77.258,157.429a11.944,11.944,0,0,1,1.984-1.379,72.657,72.657,0,0,1,7.585,2.757,15.184,15.184,0,0,1-3.1,2.826c-2.022,1.513-3.909,3.194-5.914,4.731-1.509,1.224-3,2.95-5.116,2.9-3.92-.028-7.839.024-11.755-.058a7.764,7.764,0,0,1,1.836-1.458c.223.072.667.21.887.282,3.5-2.434,6.938-4.958,10.26-7.629A11.558,11.558,0,0,0,77.258,157.429Z" transform="translate(-60.94 -156.05)" fill="#ffec00"/>
    </g>
    <g id="_f1baa6ff" data-name="#f1baa6ff" transform="translate(74.543 72.228)">
      <path id="Union_333" data-name="Union 333" d="M18.353,13.084c-1.395-.006-2.789-.016-4.179,0A5.18,5.18,0,0,1,10.7,11.635C7.231,8.928,3.776,6.2.4,3.369c-.551-.223-.578-.959.179-.85,0,0,0,0,0,0A32.755,32.755,0,0,1,7.545,0c4.634,3.086,9.105,6.439,13.668,9.645a37.026,37.026,0,0,1,3.7,2.791,11.69,11.69,0,0,1-2.738.377,11.69,11.69,0,0,0,2.738-.377c.33,0,.466.453.747.578-1.535.064-3.071.082-4.608.082C20.153,13.1,19.254,13.09,18.353,13.084Zm3.039-.287q.3.018.6.018-.3,0-.6-.018c-1-.037-2.011-.025-3.012-.012.5-.006,1-.012,1.5-.012S20.89,12.779,21.392,12.8ZM6.815,7.234c1.7,1.406,3.567,2.59,5.2,4.088a4.485,4.485,0,0,0,2.519,1.41c.769.051,1.542.066,2.316.066-.774,0-1.547-.016-2.316-.066a4.5,4.5,0,0,1-2.519-1.41c-1.629-1.5-3.493-2.682-5.2-4.088-.063-.053-.127-.1-.191-.152C6.688,7.131,6.752,7.182,6.815,7.234ZM17.038,12.8l.575,0Z" fill="#ffec00"/>
    </g>
    <g id="_f9ddd3ff" data-name="#f9ddd3ff" transform="translate(44.128 73.506)">
      <path id="Path_107404" data-name="Path 107404" d="M66.28,170.382c4.814-3.459,9.613-6.938,14.482-10.322a11.558,11.558,0,0,1-3.335,2.974c-3.321,2.671-6.76,5.2-10.26,7.629C66.947,170.591,66.5,170.454,66.28,170.382Z" transform="translate(-66.28 -160.06)" fill="#f9ddd3"/>
    </g>
    <path id="Path_107406" data-name="Path 107406" d="M41.228,28.766c9.159-1.637,19.158.058,26.711,5.68,1.135.835,2.115,1.857,3.235,2.709a29.915,29.915,0,0,1,13.8-7.712,38.219,38.219,0,0,1,16.589-.65,1.6,1.6,0,0,1,1.31,1.379c2.744,10.335,4.377,20.928,7.138,31.26a5.4,5.4,0,0,1-.045,2.424c.107,1,1.124,2.376-.168,3a15.29,15.29,0,0,1,.653,3.5c-3.861-.444-7.743-1.111-11.642-.832,1.028,5.133,2.341,10.2,3.473,15.31a13.978,13.978,0,0,1,.144,1.613c-4.783.017-9.569.031-14.355,0a9,9,0,0,1-3.308-1.76q-5.544-4.44-11.092-8.874c-.5-.444-1.052.175-1.537.327-.994.722-2.039-.241-2.988-.557-3.38,2.812-6.845,5.529-10.294,8.259a9.221,9.221,0,0,1-4.817,2.616c-4.6.024-9.194.007-13.791,0a5.36,5.36,0,0,1,.306-2.685c.77-3.414,1.588-6.815,2.372-10.222a18.568,18.568,0,0,0,.753-4.078c-3.669-.138-7.292.523-10.927.846a9.576,9.576,0,0,1,.75-3.4l-.815-.65c.131-.829.33-1.647.5-2.465-.368-.856-.9-1.716-.505-2.678,2.445-9.692,4.188-19.546,6.574-29.252.248-1.193.533-2.854,1.974-3.112m.406.863c-.959.069-1.1,1.176-1.358,1.908-2.152,8.926-3.909,17.934-5.982,26.877-.275,1.4-.921,2.757-.736,4.212a31.262,31.262,0,0,0,5.659-.4,66.291,66.291,0,0,1,12.188.457,66.714,66.714,0,0,1,17.239,5.15,3.5,3.5,0,0,0,2.335.688c-.447-5.2.034-10.438-.275-15.651-.1-3.493.079-6.993-.086-10.483a22.359,22.359,0,0,0,.048-2.919c-.069-.595.069-1.313-.444-1.75a26,26,0,0,0-6.935-5.078,35.306,35.306,0,0,0-21.654-3.008M71.763,37.99a3.815,3.815,0,0,0-.168,1.492c.065,9.747.038,19.5.22,29.242a27.159,27.159,0,0,0,3.191-1.368,68.043,68.043,0,0,1,11.27-3.724,68.763,68.763,0,0,1,13.471-1.547c3.2-.086,6.368.564,9.562.67a33.989,33.989,0,0,0-.829-3.641c-2.28-9.266-3.858-18.7-6.3-27.925a5.036,5.036,0,0,0-.605-1.468A38,38,0,0,0,89.8,29.405c-6.691.884-13.357,3.6-18.037,8.585M34.269,63.722c-.165.578-.323,1.155-.481,1.733,2.077-.007,4.088-.629,6.165-.65a60.006,60.006,0,0,1,24.129,3.741c1.406.45,2.7,1.2,4.122,1.575l.065.175c.657.306,1.3.626,1.939.973l.237-.213-.227.461a3.226,3.226,0,0,0,1.943-.141A57.406,57.406,0,0,1,87.049,66.1a59.506,59.506,0,0,1,17.865-1.162,29.961,29.961,0,0,0,4.463.444,14.671,14.671,0,0,0-.4-1.444,16.127,16.127,0,0,0-4.831-.67,48.227,48.227,0,0,0-6.144-.172,53.272,53.272,0,0,0-7.475.732,44.818,44.818,0,0,0-8.32,1.846l.158.058a27.924,27.924,0,0,0-4.721,1.478,32.912,32.912,0,0,0-5.36,2.479l-.144-.034-.282.217c-1.282.189-2.269-.739-3.38-1.186A58.8,58.8,0,0,0,47.6,63.323a40.054,40.054,0,0,0-8.369-.162,27.9,27.9,0,0,0-4.961.56m.275,2.713a17,17,0,0,0-.7,2.837,75.75,75.75,0,0,1,8.816-.732A62.211,62.211,0,0,1,62.05,71.585c.069.055.206.168.272.223,2.4.426,4.449,1.819,6.749,2.537a8.443,8.443,0,0,0,2.173,1.08c1.437-.5,2.754-1.313,4.188-1.843a62.227,62.227,0,0,1,27.385-4.972c2.2.062,4.363.588,6.567.578a21.133,21.133,0,0,0-.791-2.826,47.727,47.727,0,0,0-13.725-.419,54.538,54.538,0,0,0-19.9,5.15,26.341,26.341,0,0,0-3.758,1.564,61.75,61.75,0,0,0-25.292-6.952,46.3,46.3,0,0,0-11.37.729m10.27,3.146.045.148c-1.231,4.8-2.29,9.655-3.39,14.492a4.774,4.774,0,0,0,1.241-.529Q49.3,79.008,55.872,74.3a26.445,26.445,0,0,0,3.294-2.524,48.71,48.71,0,0,0-14.351-2.2M83.46,71.791c1.344,1.355,3.074,2.228,4.518,3.462l.162-.052c4.236,3.167,8.551,6.24,12.886,9.269a15.61,15.61,0,0,0-.657-3.758c-.426-1.478-.588-3.033-1.152-4.466a43.571,43.571,0,0,0-1.485-6.7A52.426,52.426,0,0,0,83.46,71.791M58.622,73.517C53.754,76.9,48.954,80.38,44.14,83.839A7.764,7.764,0,0,0,42.3,85.3c3.916.083,7.836.031,11.755.058,2.115.048,3.607-1.678,5.116-2.9,2-1.537,3.892-3.218,5.914-4.731a15.184,15.184,0,0,0,3.1-2.826,72.655,72.655,0,0,0-7.585-2.757,11.941,11.941,0,0,0-1.984,1.379m16.514,1.245c-.756-.11-.729.622-.179.846,3.373,2.83,6.832,5.556,10.3,8.269a5.19,5.19,0,0,0,3.473,1.447c3.827-.038,7.664.1,11.487-.072-.278-.124-.413-.578-.743-.578a37.147,37.147,0,0,0-3.706-2.788c-4.563-3.2-9.032-6.56-13.67-9.644A32.71,32.71,0,0,0,75.136,74.762Z" transform="translate(-0.013 -0.011)"/>
    <path id="Path_107406_-_Outline" data-name="Path 107406 - Outline" d="M47.923,27.671a36.525,36.525,0,0,1,10.663,1.557,31.406,31.406,0,0,1,9.633,4.814c.61.449,1.18.953,1.73,1.441.382.338.773.685,1.175,1.009a30.435,30.435,0,0,1,13.713-7.534,37.87,37.87,0,0,1,9.821-1.279,39.682,39.682,0,0,1,6.971.62c.88.137.97-.26,1.115.659,1.362,5.133,3.061,11.511,4.13,16.613,1.083,5.17,2.665,11.223,4.05,16.409.254.7-.313.684-.406,1.3-.03.194-.058.379-.075.56a4.774,4.774,0,0,0,.2.751,3.972,3.972,0,0,1,.274,1.36,1.452,1.452,0,0,1-.591,1.136c.061.278.138.558.217.849a7.484,7.484,0,0,1,.379,2.443l-.031.515-.513-.059c-.732-.084-1.477-.178-2.2-.268a60.517,60.517,0,0,0-7.474-.627c-.451,0-.894.011-1.325.031.6,2.945,1.3,5.911,1.98,8.786.461,1.952.937,3.971,1.379,5.965l0,.018a10.9,10.9,0,0,1,.133,1.348c.006.107.012.214.019.32l.033.518-.519,0c-2.507.009-5.179.018-7.866.018-2.378,0-6.148.033-8.139.018h-.062l-.06-.016c-1.184-.316-3.692-3.373-4.617-4.115-2.723-2.183-5.539-4.44-8.314-6.648l-.021-.017c-.038-.034-.055-.034-.067-.034a1.384,1.384,0,0,0-.462.2,3.184,3.184,0,0,1-.46.231,1.787,1.787,0,0,1-1.012.312,3.8,3.8,0,0,1-1.647-.527c-.16-.08-.315-.157-.462-.222-2.834,2.352-5.766,4.67-8.6,6.914L59.157,84.2S57.3,86.67,55.639,86.9l-.032,0h-.032s-4.929.039-7.018.039c-1.626,0-3.279,0-4.878,0l-3.447,0h-.379l-.094-.367a4.938,4.938,0,0,1,.216-2.588c.03-.111.06-.222.089-.333.453-2.007.93-4.041,1.391-6.009.323-1.377.657-2.8.979-4.2.085-.412.19-.821.291-1.217a12.492,12.492,0,0,0,.44-2.282c-.17,0-.342,0-.515,0a57.742,57.742,0,0,0-6.626.515c-1.062.124-2.159.252-3.243.348l-.523.046-.009-.525a9.211,9.211,0,0,1,.66-3.241l-.764-.609.044-.281c.1-.612.23-1.22.359-1.808q.058-.264.115-.528c-.033-.073-.066-.146-.1-.223a6.461,6.461,0,0,1-.417-3.811c1.27-5.038,2.427-9.058,3.49-14.058.978-4.6,2.982-11.883,4.124-16.529h0c.249-1.213-.34-.649,1.371-.955A38.726,38.726,0,0,1,47.923,27.671Zm54.454,2.565v-.005a1.189,1.189,0,0,0-.344-.688A5.72,5.72,0,0,1,102.377,30.236Zm-1.124-.087a35.694,35.694,0,0,0-6.469-.578h0a40.549,40.549,0,0,0-4.936.308c-7.2.951-13.478,3.925-17.687,8.378a2.1,2.1,0,0,0-.081.765c0,.151,0,.307-.009.466.02,2.985.031,6.019.043,8.954.024,6.423.049,13.058.165,19.593.532-.2,1.051-.449,1.592-.707.3-.143.611-.291.924-.43l.007,0a68.764,68.764,0,0,1,11.351-3.75l.007,0a69.372,69.372,0,0,1,13.567-1.558c.193-.005.4-.008.6-.008a47.21,47.21,0,0,1,4.961.349c1.128.12,2.289.243,3.438.3-.1-.59-.261-1.174-.423-1.784-.107-.4-.217-.815-.312-1.231-1.024-4.161-1.92-8.422-2.787-12.542-1.065-5.06-2.165-10.292-3.509-15.371l0-.015A4.471,4.471,0,0,0,101.252,30.149ZM70.166,39.484c-.017-.156-.021-.312-.026-.463-.014-.468-.034-.764-.246-.945l-.019-.016-.017-.018a25.456,25.456,0,0,0-6.805-4.981,33.847,33.847,0,0,0-15.162-3.484A37.058,37.058,0,0,0,41.7,30.1l-.047.006c-.4.028-.561.367-.8,1.165-.039.131-.08.266-.124.394-1.192,4.946-2.282,10-3.335,14.895-.844,3.919-1.717,7.971-2.639,11.946-.088.446-.212.886-.331,1.311A8.2,8.2,0,0,0,34,62.16c.172.009.348.014.531.014a22.129,22.129,0,0,0,2.809-.244c.594-.077,1.208-.157,1.82-.2,1.021-.1,2.075-.147,3.223-.147,2.471,0,4.967.23,7.38.453.548.051,1.114.1,1.671.151l.041.005a66.985,66.985,0,0,1,17.365,5.19l.031.016.048.027a4.115,4.115,0,0,0,1.519.622c-.2-2.669-.171-5.371-.144-7.989.024-2.354.05-4.788-.092-7.169V52.87c-.045-1.572-.033-3.167-.022-4.71.014-1.892.027-3.849-.063-5.764l0-.04,0-.04a16.98,16.98,0,0,0,.055-2.311C70.172,39.832,70.168,39.658,70.166,39.484ZM71.1,38.7a2.163,2.163,0,0,1,.211-.941l.031-.062.047-.05q.56-.6,1.163-1.157-.539.486-1.047,1l-.3.3-.341-.26c-.222-.169-.438-.344-.651-.522q.168.169.332.34A1.82,1.82,0,0,1,71.1,38.7Zm.008,4.088q0-.266,0-.532-.007.068-.014.136Q71.1,42.587,71.113,42.785Zm-38.088,19.2c0-.162.014-.322.031-.481A1.4,1.4,0,0,0,33.024,61.981Zm70.8.777c-1.144-.112-2.3-.2-3.448-.2.647.023,1.291.067,1.921.11C102.8,62.7,103.311,62.734,103.822,62.758Zm-8.285,0h.009c.678-.035,1.376-.072,2.062-.128Q96.568,62.681,95.536,62.761Zm-61.06.39c-.343,0-.665-.018-.981-.051l-.1-.011.06.13c.057.125.117.254.172.384l.061.142-.032.151c-.048.23-.1.46-.149.69l0,.022c.095-.344.191-.689.289-1.033l.075-.264.265-.073Q34.3,63.192,34.476,63.151Zm75.06.09-.256-.009c-.386-.013-.772-.034-1.158-.06a8.929,8.929,0,0,1,1.014.3l.215.078.078.216.034.1V63.85l0-.047C109.482,63.613,109.508,63.425,109.536,63.241ZM71.509,70.379a4.729,4.729,0,0,1-2.3-.782,8.67,8.67,0,0,0-.925-.464l-.014-.006c-7.5-3.3-14.276-5.042-20.709-5.326l-.04,0a38.309,38.309,0,0,0-4.838-.3h0c-1.127,0-2.28.048-3.428.143-.458.041-.926.069-1.378.1a18.31,18.31,0,0,0-3.23.381c-.077.273-.153.547-.228.82.79-.048,1.574-.17,2.395-.3a21.759,21.759,0,0,1,3.108-.33c1.038-.056,2.094-.085,3.14-.085a59.905,59.905,0,0,1,10.761.984,61.784,61.784,0,0,1,10.4,2.868c.646.208,1.267.476,1.868.735a15.729,15.729,0,0,0,2.219.829l.245.064.084.226c.656.309,1.242.605,1.785.9l-.038.069.2.15.072.007a5.784,5.784,0,0,0,.582.041,1.206,1.206,0,0,0,.652-.15l.022-.012a57.339,57.339,0,0,1,15.014-5.317,59.052,59.052,0,0,1,12.819-1.389c1.718,0,3.464.073,5.19.217.547.048,1.091.132,1.616.213a16.641,16.641,0,0,0,2.186.241c-.05-.2-.1-.394-.162-.584a15.836,15.836,0,0,0-4.227-.556l-.238-.01c-.631-.023-1.271-.067-1.89-.109-.906-.061-1.842-.125-2.756-.125-.516,0-.985.02-1.433.06-.813.076-1.641.119-2.442.161a27.648,27.648,0,0,0-4.963.56L90.6,64.3l-.033,0a44.336,44.336,0,0,0-8.139,1.8l-.012.1a13.148,13.148,0,0,0-3.027.887c-.521.2-1.06.4-1.606.573a31.627,31.627,0,0,0-5.113,2.356l-.328.175-.1-.023-.2.152-.126.019A2.838,2.838,0,0,1,71.509,70.379Zm23.3-4.934q.346-.049.7-.09-1.2.086-2.393.22Q93.96,65.5,94.807,65.445Zm14.512,1.573q-.008-.044-.016-.089l-.063-.363.331-.16a.544.544,0,0,0,.375-.578l-.551.034c-.225.014-.463.018-.7.012l.247.037.1.275Q109.187,66.6,109.319,67.018Zm-75.386-.376q.066-.2.145-.4l.1-.243.255-.055.238-.05c-.3.022-.592.035-.89.036l-.554,0-.022.125Zm74.284.148a57.3,57.3,0,0,0-8.426-.7,34.467,34.467,0,0,0-4.867.325l-.039,0a54.3,54.3,0,0,0-19.724,5.1l-.04.019-.043.011a15.9,15.9,0,0,0-2.663,1.068c-.334.157-.678.32-1.024.472l-.215.095-.208-.108a61.439,61.439,0,0,0-25.087-6.9c-1.03-.038-1.964-.057-2.855-.057h0a40.635,40.635,0,0,0-8.13.721,13.3,13.3,0,0,0-.453,1.859c.567-.062,1.136-.129,1.691-.194a52.118,52.118,0,0,1,6.08-.476c.146,0,.293,0,.436,0,.24,0,.484-.005.725-.005a63.252,63.252,0,0,1,18.809,3.074l.088.027.072.057.181.148A17.9,17.9,0,0,1,66.5,72.773a24.028,24.028,0,0,0,2.7,1.1l.106.033.081.075a3.977,3.977,0,0,0,1.287.676c.19.074.386.149.577.234.66-.242,1.293-.548,1.96-.871.65-.315,1.323-.64,2.022-.9a64.085,64.085,0,0,1,12.039-3.776,61.864,61.864,0,0,1,12.563-1.3c.993,0,2,.025,2.984.075,1.043.03,2.083.162,3.089.29.934.119,1.9.241,2.847.277C108.606,68.031,108.424,67.4,108.217,66.791ZM33.259,69.619l.1-.459c.043-.205.084-.417.124-.622l.021-.108A7.631,7.631,0,0,0,33.259,69.619Zm38.066-.253-.008-.427-.263.048a2.612,2.612,0,0,1-.912,0,3.021,3.021,0,0,0,1.366.414c.05,0,.1,0,.151-.006l.276-.212Zm-24.307-.227q-1.451-.1-2.875-.122v.061l.659,0Q45.917,69.086,47.019,69.139Zm51.516,1.542q-.111-.536-.219-1.071l-.109-.544.553-.04.057,0q-.405.007-.811.02l.085,0,.1.371q.109.405.219.811Zm-54.2-.953-.194-.643.007.368a7.88,7.88,0,0,1-.168,1.683Q44.16,70.43,44.339,69.728Zm64.968-.062q-.246,0-.491-.008c.373.047.75.093,1.125.138q-.006-.066-.013-.133Zm-34.525.955q1.053-.5,2.127-.948-1.154.47-2.255.984Zm25.1,10.2c-.171-.6-.3-1.2-.426-1.794a16.37,16.37,0,0,0-.705-2.608l-.024-.062-.007-.066a37.246,37.246,0,0,0-1.251-5.808l-.12-.442A52.1,52.1,0,0,0,84.408,72c.582.494,1.217.931,1.878,1.387.6.411,1.209.834,1.786,1.306l.145-.046.2.151c3.509,2.624,7.36,5.4,12.059,8.69a14.215,14.215,0,0,0-.333-1.547C100.052,81.576,99.956,81.2,99.881,80.817ZM58.189,71.983a48.075,48.075,0,0,0-12.926-1.921c-.966,3.787-1.841,7.666-2.688,11.419q-.22.977-.441,1.954.155-.076.294-.162c4.152-2.95,8.618-6.128,13.147-9.38.257-.185.521-.369.776-.546C57,72.9,57.616,72.465,58.189,71.983Zm2.294-.369q-.851-.248-1.7-.473.258.078.515.159l.773.244-.576.57q-.2.2-.4.378c.212-.142.429-.274.642-.4s.4-.242.587-.368ZM84,72.933a11.18,11.18,0,0,1-.9-.809l-.568-.572.515-.16q-.8.227-1.587.474.263-.061.528-.115l.2-.04.169.112Q83.181,72.372,84,72.933ZM67.391,75.114c-.666-.253-1.326-.522-1.97-.784a36.2,36.2,0,0,0-4.739-1.678c-.147.094-.3.183-.44.271a6.531,6.531,0,0,0-1.286.926l-.032.032-.037.026c-4.022,2.8-8.065,5.7-11.975,8.519l-2.5,1.8-.027.018c-.314.2-.6.383-.86.576,1.774.026,3.524.028,5.07.028h2.18c.972,0,2.121,0,3.275.009h.083c1.5,0,2.711-1.055,3.88-2.076.275-.24.56-.489.842-.718l.01-.008c.922-.707,1.837-1.459,2.722-2.187,1.029-.846,2.093-1.721,3.182-2.537.322-.279.663-.541.993-.794A10.979,10.979,0,0,0,67.391,75.114ZM95.469,82.27C93.84,81.126,92.2,79.944,90.609,78.8,87.8,76.782,84.9,74.7,81.985,72.75A32.984,32.984,0,0,0,75.326,75.2l-.065.029c3.459,2.9,6.977,5.67,10.285,8.256l.016.013a4.77,4.77,0,0,0,3.022,1.333l.116,0h.013c.484,0,.994-.007,1.558-.007.871,0,1.756.006,2.612.011s1.739.011,2.607.011c1.3,0,2.4-.013,3.4-.041a20.58,20.58,0,0,0-2.166-1.637C96.311,82.876,95.883,82.58,95.469,82.27Zm-21.24-6.641a.931.931,0,0,1-.16-.707.8.8,0,0,1,.116-.287c-.183.087-.364.174-.543.261s-.379.183-.571.274a1.165,1.165,0,0,1,.2-.017,1.05,1.05,0,0,1,.705.271Zm-4.923-.518a3.164,3.164,0,0,1-.478-.328l-.241.369a5.471,5.471,0,0,1-.5.649l.733-.608.209-.174.258.086Zm1.717.745-.005,0c-.214-.1-.445-.194-.691-.289l-.11-.043A4.347,4.347,0,0,0,71.023,75.856Zm28.838.763q-.122-.522-.243-1.047.037.274.067.548Q99.779,76.367,99.86,76.619ZM71.334,75.9a.817.817,0,0,0,.5-.169l.054-.04q-.247.1-.5.185l-.068.024Zm17.4.351-.7-.518-.021.007ZM40.8,84.9l.183-.8q.322-1.417.641-2.835l.344-1.522c-.32,1.368-.64,2.754-.95,4.125l0,.014c-.03.117-.062.234-.093.351a5.22,5.22,0,0,0-.272,1.724l3.034,0c1.6,0,3.251,0,4.876,0,2.073,0,3.8,0,5.431-.012a5.859,5.859,0,0,0,.8-.172,4.225,4.225,0,0,1-.743.049c-1.151-.008-2.3-.009-3.265-.009H48.6c-1.906,0-4.122,0-6.314-.05l-1.037-.022.677-.786a5.842,5.842,0,0,1,.711-.689,5.641,5.641,0,0,1-1.044.4Zm60.992.017q-.163-.736-.331-1.475a5.935,5.935,0,0,1,.044,1.039l-.045.881-.723-.505-1.43-1q.2.169.388.347a1.232,1.232,0,0,1,.59.449,1.08,1.08,0,0,0,.131.143l-.008,0-.177.935c-1.378.061-2.839.088-4.736.088-.871,0-1.757-.006-2.613-.011s-1.738-.011-2.606-.011c-.559,0-1.063,0-1.542.007l-.145,0a4.606,4.606,0,0,1-1.832-.4,7.426,7.426,0,0,0,1.373.54c1.971.014,4.073.021,6.423.021,2.5,0,4.992-.008,7.347-.016A8.679,8.679,0,0,0,101.789,84.921Z" transform="translate(0 0)"/>
  </g>
</svg>
