<svg xmlns="http://www.w3.org/2000/svg" width="96" height="83.761" viewBox="0 0 96 83.761">
  <g id="l4" transform="translate(0 1.377)">
    <rect id="Rectangle_5578" data-name="Rectangle 5578" width="96" height="80" fill="none"/>
    <g id="Group_44054" data-name="Group 44054" transform="translate(11.191 0.673)">
      <g id="Path_99980" data-name="Path 99980" transform="translate(56.499 25.586) rotate(3)" fill="#08de6f">
        <path d="M 3.896255493164062 24.57308006286621 C 2.853445291519165 24.57308006286621 1.786895394325256 24.16667938232422 0.8930754065513611 23.42875862121582 C 0.01079539954662323 22.70035934448242 -0.6099945902824402 21.72564888000488 -0.8549246191978455 20.68418884277344 C -1.26268458366394 18.95308876037598 -0.8026546239852905 17.10585975646973 0.3457154035568237 15.86370944976807 C 1.219845414161682 14.91828918457031 2.511525392532349 14.35388946533203 3.800975322723389 14.35388946533203 C 3.802911520004272 14.35388946533203 3.804865121841431 14.35389041900635 3.806800842285156 14.3538932800293 C 3.708414554595947 13.14243125915527 3.599911451339722 11.73776817321777 3.494035482406616 10.3671293258667 C 3.348325490951538 8.480789184570312 3.197655439376831 6.530229091644287 3.075695514678955 5.113629341125488 C 2.985845327377319 4.067869186401367 3.345525503158569 2.574549198150635 5.569175243377686 1.398159146308899 C 6.858025550842285 0.7163091897964478 8.410765647888184 0.3131191730499268 9.544525146484375 0.01871918514370918 C 9.726465225219727 -0.02853081561625004 9.897175788879395 -0.07283081859350204 10.05326557159424 -0.1149108186364174 C 10.2194652557373 -0.1595708131790161 10.43073558807373 -0.2236808091402054 10.67536544799805 -0.297920823097229 C 11.65173530578613 -0.5942108035087585 12.98892498016357 -1.000000834465027 14.12665557861328 -1.000000834465027 C 14.80030536651611 -1.000000834465027 15.33443546295166 -0.8609508275985718 15.75957584381104 -0.5749108195304871 C 16.04655456542969 -0.3807908296585083 16.28528594970703 -0.1243308186531067 16.47119522094727 0.1887391805648804 C 16.77292633056641 0.6950891613960266 16.89326477050781 1.274179220199585 16.97825622558594 1.824349164962769 C 17.62361526489258 6.014569282531738 18.15612602233887 12.54969882965088 18.24450492858887 17.36385917663574 C 18.26565551757812 18.53226852416992 18.22921562194824 19.7608585357666 17.54703521728516 20.81394958496094 C 16.85743713378906 21.87829399108887 15.57213592529297 22.53946876525879 14.19278144836426 22.53946876525879 C 14.19269752502441 22.53946876525879 14.19270992279053 22.53946876525879 14.19262504577637 22.53946876525879 C 13.94704532623291 22.53945922851562 13.70178508758545 22.51812934875488 13.46365547180176 22.4760799407959 C 12.12943553924561 22.24057960510254 10.86994552612305 21.37990951538086 10.00820541381836 20.11475944519043 C 8.791195869445801 18.32663917541504 8.608975410461426 16.06772994995117 9.543785095214844 14.359619140625 C 10.29225540161133 12.99207878112793 11.84198570251465 12.07326889038086 13.40008544921875 12.07326889038086 C 13.48304080963135 12.07326889038086 13.56527805328369 12.07579135894775 13.64682102203369 12.08082866668701 C 13.57894039154053 9.601716995239258 13.33254623413086 6.23952054977417 12.97926139831543 3.719390869140625 C 11.10731410980225 4.323666095733643 9.235329627990723 4.928024768829346 7.363300323486328 5.532722949981689 C 7.485952377319336 7.083566188812256 7.625689029693604 8.955353736877441 7.761505603790283 10.7745189666748 C 7.920345306396484 12.90220928192139 8.08460521697998 15.10233879089355 8.219895362854004 16.76702880859375 C 8.317635536193848 17.96896934509277 8.428415298461914 19.33131980895996 8.131985664367676 20.66322898864746 C 7.770905494689941 22.28962898254395 6.837095260620117 23.57570838928223 5.570125579833984 24.19121932983398 C 5.049405574798584 24.44451904296875 4.486075401306152 24.57308006286621 3.896255493164062 24.57308006286621 Z" stroke="none"/>
        <path d="M 14.12665176391602 -1.9073486328125e-06 C 12.86458778381348 -9.918212890625e-05 11.15092658996582 0.6256122589111328 10.31352519989014 0.8506298065185547 C 8.28648567199707 1.397018432617188 3.839035034179688 2.316179275512695 4.072005271911621 5.027849197387695 C 4.31651496887207 7.86786937713623 4.66501522064209 12.70451927185059 4.909465789794922 15.54451942443848 C 3.595193862915039 15.06770706176758 2.028606414794922 15.51658916473389 1.079995155334473 16.54255867004395 C 0.1307163238525391 17.56935882568359 -0.2020454406738281 19.0943489074707 0.1185150146484375 20.45524978637695 C 0.6232147216796875 22.60124969482422 3.150731086730957 24.25608825683594 5.133155822753906 23.29173851013184 C 6.216535568237305 22.76542854309082 6.894815444946289 21.62181854248047 7.155865669250488 20.44596862792969 C 7.417585372924805 19.27003860473633 7.320785522460938 18.04829978942871 7.223185539245605 16.8480396270752 C 6.951515197753906 13.5053596496582 6.575115203857422 8.166149139404297 6.303325653076172 4.824258804321289 C 8.797835350036621 4.018348693847656 11.2922248840332 3.213150024414062 13.78660583496094 2.407968521118164 C 14.30430507659912 5.369148254394531 14.66856575012207 10.37278938293457 14.66569519042969 13.37849903106689 C 13.19938564300537 12.6026496887207 11.21763610839844 13.38417911529541 10.42100524902344 14.83970928192139 C 9.624435424804688 16.29521942138672 9.901165008544922 18.18019866943359 10.83469581604004 19.55180931091309 C 11.49155521392822 20.51616859436035 12.48814582824707 21.28843879699707 13.63755512237549 21.49131965637207 C 14.78684329986572 21.69426918029785 16.07316589355469 21.24968910217285 16.70774459838867 20.27024841308594 C 17.2483959197998 19.43565940856934 17.26267623901367 18.37666893005371 17.24467468261719 17.3822193145752 C 17.16227531433105 12.89375877380371 16.67332458496094 6.413858413696289 15.98997497558594 1.977008819580078 C 15.92253494262695 1.54041862487793 15.83226585388184 1.070018768310547 15.61137580871582 0.6993293762207031 C 15.50749588012695 0.5243988037109375 15.37413501739502 0.3716583251953125 15.20133590698242 0.2547798156738281 C 14.92924118041992 0.07170677185058594 14.55366325378418 3.24249267578125e-05 14.12665176391602 -1.9073486328125e-06 M 14.12635517120361 -2 L 14.12635517120361 0 L 14.12681579589844 -2 C 14.99352550506592 -1.999940872192383 15.7306957244873 -1.799610137939453 16.31780624389648 -1.404590606689453 C 16.72977447509766 -1.125940322875977 17.06929588317871 -0.7625808715820312 17.33101463317871 -0.3218612670898438 C 17.71945571899414 0.3300094604492188 17.86612510681152 1.021699905395508 17.9665355682373 1.671689987182617 C 18.61790466308594 5.900909423828125 19.15524482727051 12.49233913421631 19.24433517456055 17.34550857543945 C 19.26204490661621 18.32370948791504 19.29166603088379 19.96006965637207 18.38631439208984 21.35762977600098 C 17.51433563232422 22.7034797668457 15.90745544433594 23.53946876525879 14.19266510009766 23.53946876525879 C 13.88900566101074 23.53946876525879 13.58523559570312 23.51301956176758 13.289794921875 23.46084976196289 C 11.69169521331787 23.17877960205078 10.19431495666504 22.16434860229492 9.18171501159668 20.67770957946777 C 9.173618316650391 20.66581344604492 9.165485382080078 20.65378379821777 9.157466888427734 20.6418514251709 C 9.142257690429688 20.72126197814941 9.125822067260742 20.80082321166992 9.108095169067383 20.88046836853027 C 8.680595397949219 22.80607986450195 7.550235748291016 24.34103012084961 6.007095336914062 25.09068870544434 C 5.349385261535645 25.41061973571777 4.638885498046875 25.57306861877441 3.896255493164062 25.57306861877441 C 1.300735473632812 25.57306861877441 -1.213825225830078 23.52617835998535 -1.828365325927734 20.91311836242676 C -2.311254501342773 18.86307907104492 -1.759614944458008 16.66787910461426 -0.3885650634765625 15.18486881256104 C 0.4285507202148438 14.30110931396484 1.546430587768555 13.69188117980957 2.731850624084473 13.45905494689941 C 2.655542373657227 12.49662780761719 2.575533866882324 11.46083641052246 2.496955871582031 10.44356918334961 C 2.351425170898438 8.559598922729492 2.200945854187012 6.611478805541992 2.079375267028809 5.199399948120117 C 1.98558521270752 4.107688903808594 2.303695678710938 3.064729690551758 2.999285697937012 2.182918548583984 C 3.506235122680664 1.540248870849609 4.19389533996582 0.9944190979003906 5.101545333862305 0.5142288208007812 C 6.493635177612305 -0.2222309112548828 8.111725807189941 -0.6423912048339844 9.293195724487305 -0.9491806030273438 C 9.471944808959961 -0.9956016540527344 9.639656066894531 -1.03911018371582 9.793004989624023 -1.080450057983398 C 9.944435119628906 -1.12114143371582 10.14859580993652 -1.183101654052734 10.38499546051025 -1.254840850830078 C 11.42118549346924 -1.569320678710938 12.8402853012085 -2 14.12635517120361 -2 Z M 12.61352920532227 11.13423252105713 C 12.53401565551758 9.230179786682129 12.36746883392334 6.985408782958984 12.14043998718262 5.040988922119141 C 10.90093421936035 5.441133499145508 9.661399841308594 5.841337203979492 8.421858787536621 6.241678237915039 C 8.528746604919434 7.619541168212891 8.645107269287109 9.178128242492676 8.758725166320801 10.70006942749023 C 8.826212882995605 11.60401630401611 8.894685745239258 12.52117824554443 8.961474418640137 13.40445518493652 C 9.40092658996582 12.77551460266113 9.983329772949219 12.23901557922363 10.66976547241211 11.83464908599854 C 11.27920722961426 11.47563648223877 11.93988037109375 11.23861026763916 12.61352920532227 11.13423252105713 Z" stroke="none" fill="#000"/>
      </g>
      <g id="_2" data-name="2" transform="matrix(0.966, -0.259, 0.259, 0.966, 0, 12.625)">
        <g id="Group_44051" data-name="Group 44051" transform="translate(0)">
          <path id="Path_99981" data-name="Path 99981" d="M48.781,65.79a2.714,2.714,0,0,1-1.473,1.2c-5.33,2.66-10.959,3.073-16.769,2.291A36.908,36.908,0,0,1,24,67.426c-1.448-.474-2.853-1.079-4.268-1.65a16,16,0,0,1-3.877-2.188c-.852-.661-1.815-1.181-2.647-1.865A32.886,32.886,0,0,1,9.92,58.73C8.862,57.586,7.984,56.276,7,55.063A25.67,25.67,0,0,1,2.249,46.15,46.549,46.549,0,0,1,.194,38.045,30.917,30.917,0,0,1,1.552,24.927c.092-.283.221-.556.294-.843,1.087-4.276,3.681-7.682,6.36-11.04.465-.582.963-1.141,1.384-1.754a13.674,13.674,0,0,1,3.648-3.413c.827-.572,1.693-1.094,2.477-1.72A16.9,16.9,0,0,1,20.4,3.592c2.228-.836,4.459-1.671,6.708-2.448a23.722,23.722,0,0,1,6.7-1.1,26.726,26.726,0,0,1,10.662,1.4A28.4,28.4,0,0,1,47.225,2.65a12.386,12.386,0,0,1,1.446,1,12.377,12.377,0,0,1-2.536,1.619,31.98,31.98,0,0,0-10.494,8.37,45.558,45.558,0,0,0-6.7,11.168,23.82,23.82,0,0,0-1.428,6.861,6.153,6.153,0,0,0,.037.846,8.357,8.357,0,0,0,.878.067A4.791,4.791,0,0,1,31.5,33.756a2.331,2.331,0,0,1,.54,2.758,3.108,3.108,0,0,1-2.5,1.826c-.7.08-1.395.179-2.256.291.327,1.409.593,2.781.965,4.123A36.1,36.1,0,0,0,35.262,56.1a15.135,15.135,0,0,0,3.216,3.077,6.181,6.181,0,0,1,.8.6,33.929,33.929,0,0,0,8.837,5.583A6.507,6.507,0,0,1,48.781,65.79ZM46.339,3.816c0-.094,0-.188,0-.281-.8-.264-1.621-.48-2.4-.8A24.974,24.974,0,0,0,32.853,1.283a18.863,18.863,0,0,0-5.469,1.038Q24.134,3.5,20.89,4.707A16.151,16.151,0,0,0,16.4,7.155c-.784.625-1.654,1.143-2.48,1.716a12.881,12.881,0,0,0-3.4,3.189c-.444.642-.969,1.228-1.464,1.833a37.358,37.358,0,0,0-4.713,6.776A29.4,29.4,0,0,0,1.147,31.993a31.213,31.213,0,0,0,5.1,19.962c.788,1.173,1.678,2.279,2.552,3.392a33.494,33.494,0,0,0,2.833,3.447,46.658,46.658,0,0,0,6.945,5.043,4.069,4.069,0,0,0,.806.381c2.4.915,4.8,1.82,7.2,2.735a26.149,26.149,0,0,0,11.442,1.281,32.039,32.039,0,0,0,7.653-1.955,9.5,9.5,0,0,0,1.052-.511c-.486-.261-.767-.445-1.072-.57a22.063,22.063,0,0,1-6.32-3.942,9.894,9.894,0,0,0-1.155-.881A18.772,18.772,0,0,1,33.8,56.1a32.835,32.835,0,0,1-3.55-5.54c-.16-.318-.357-.617-.489-.843-1.383.284-2.614.572-3.857.786-3.961.682-6.334-.883-8.493-4.33a2.287,2.287,0,0,1-.153-.773l.245-.158a3.089,3.089,0,0,1,.8.6A9.039,9.039,0,0,0,21.082,48.4a6.181,6.181,0,0,0,1.845.714,10.24,10.24,0,0,0,4.633-.35c.5-.107.975-.285,1.568-.463a42.062,42.062,0,0,1-2.975-10.544c.47-.04.834-.058,1.194-.1a23.32,23.32,0,0,0,2.645-.378,1.871,1.871,0,0,0,1.363-1.614,1.524,1.524,0,0,0-.944-1.612,4.3,4.3,0,0,0-2.217-.652c-.432-.005-.863-.028-1.363-.047a14.357,14.357,0,0,1-.12-1.438,22.221,22.221,0,0,1,1.349-7.547,46.186,46.186,0,0,1,3.883-7.411A32.948,32.948,0,0,1,43.925,5.179C44.727,4.721,45.534,4.27,46.339,3.816Z" fill="#ffec00" stroke="#000" stroke-width="3" fill-rule="evenodd"/>
          <path id="Path_99982" data-name="Path 99982" d="M45.272,2.6c-.8.454-1.611.906-2.414,1.364a32.948,32.948,0,0,0-11.98,11.778A46.185,46.185,0,0,0,27,23.154,22.221,22.221,0,0,0,25.646,30.7a14.357,14.357,0,0,0,.12,1.438c.5.018.931.041,1.363.047a4.3,4.3,0,0,1,2.217.652,1.524,1.524,0,0,1,.944,1.612,1.871,1.871,0,0,1-1.363,1.614,23.323,23.323,0,0,1-2.645.378c-.36.046-.724.064-1.194.1a42.061,42.061,0,0,0,2.975,10.544c-.593.177-1.073.356-1.568.463a10.24,10.24,0,0,1-4.633.35,6.18,6.18,0,0,1-1.845-.714,9.039,9.039,0,0,1-2.777-2.554,3.088,3.088,0,0,0-.8-.6l-.245.158a2.286,2.286,0,0,0,.153.773c2.158,3.447,4.532,5.013,8.493,4.33,1.243-.214,2.475-.5,3.857-.786.132.226.329.525.489.843a32.838,32.838,0,0,0,3.55,5.54,18.771,18.771,0,0,0,4.376,4.272,9.9,9.9,0,0,1,1.155.881,22.064,22.064,0,0,0,6.32,3.942c.3.125.585.309,1.072.57a9.5,9.5,0,0,1-1.052.511,32.039,32.039,0,0,1-7.653,1.955A26.149,26.149,0,0,1,25.51,65.74c-2.4-.915-4.8-1.82-7.2-2.735a4.07,4.07,0,0,1-.806-.381,46.656,46.656,0,0,1-6.945-5.043,33.494,33.494,0,0,1-2.833-3.447c-.873-1.113-1.764-2.219-2.552-3.392A31.213,31.213,0,0,1,.08,30.779,29.4,29.4,0,0,1,3.273,19.456,37.36,37.36,0,0,1,7.986,12.68c.495-.605,1.02-1.191,1.464-1.833a12.881,12.881,0,0,1,3.4-3.189c.827-.572,1.7-1.091,2.48-1.716a16.151,16.151,0,0,1,4.492-2.449q3.241-1.209,6.495-2.386A18.863,18.863,0,0,1,31.787.069,24.974,24.974,0,0,1,42.878,1.521c.777.32,1.6.536,2.4.8C45.275,2.414,45.273,2.508,45.272,2.6Z" transform="translate(1.066 1.214)" fill="#ffec00" fill-rule="evenodd"/>
          <path id="Path_99983" data-name="Path 99983" d="M0,1.467A4.706,4.706,0,0,1,.386.507a1.29,1.29,0,0,1,1.272-.5.858.858,0,0,1,.861.726A2,2,0,0,1,2.3,2.587,1.3,1.3,0,0,1,1,3.168.954.954,0,0,1,.1,2.357C.054,2.124.047,1.885,0,1.467Z" transform="translate(16.88 30.472)" fill-rule="evenodd"/>
          <g id="Group_44050" data-name="Group 44050" transform="translate(5.522 5.445)">
            <path id="Path_99984" data-name="Path 99984" d="M.344.972C.079.963,0,.808,0,.588.008.195.264.033.61,0A.318.318,0,0,1,.962.37C.935.74.651.886.344.972Z" transform="translate(10.331 7.06)" fill-rule="evenodd"/>
            <path id="Path_99985" data-name="Path 99985" d="M.982.345C.888.65.736.9.405.953.155.993.011.849,0,.6A.529.529,0,0,1,.524,0,.424.424,0,0,1,.982.345Z" transform="translate(13.388 5.72)" fill-rule="evenodd"/>
            <path id="Path_99986" data-name="Path 99986" d="M.989.381A.637.637,0,0,1,.409.907C.165.925-.015.807,0,.55A.547.547,0,0,1,.577,0C.827-.008.94.161.989.381Z" transform="translate(11.935 6.629)" fill-rule="evenodd"/>
            <path id="Path_99987" data-name="Path 99987" d="M0,.553C.01.24.112.008.445,0c.309-.008.441.2.43.479A.51.51,0,0,1,.369.988C.054,1.016.007.782,0,.553Z" transform="translate(10.673 46.621)" fill-rule="evenodd"/>
            <path id="Path_99988" data-name="Path 99988" d="M.446,0c.292-.007.476.09.478.384S.791.9.467.9A.449.449,0,0,1,0,.436C-.024.109.213.034.446,0Z" transform="translate(8.675 45.239)" fill-rule="evenodd"/>
            <path id="Path_99989" data-name="Path 99989" d="M.29,1.01C.077.974-.028.853.007.676A.8.8,0,0,1,.664.005.26.26,0,0,1,.95.35,1,1,0,0,1,.29,1.01Z" transform="translate(19.435 14.366)" fill-rule="evenodd"/>
            <path id="Path_99990" data-name="Path 99990" d="M.776.4c-.006.367-.1.615-.43.616A.342.342,0,0,1,.006.58C.048.293.191.014.51,0,.8-.012.765.268.776.4Z" transform="translate(0.76 31.949)" fill-rule="evenodd"/>
            <path id="Path_99991" data-name="Path 99991" d="M.625,0c.141.008.417-.008.409.317S.762.727.475.731C.216.733-.01.637,0,.361.011.053.269-.012.625,0Z" transform="translate(28.875 0.982)" fill-rule="evenodd"/>
            <path id="Path_99992" data-name="Path 99992" d="M.868.364A.463.463,0,0,1,.409.846.371.371,0,0,1,0,.462C-.025.145.189.027.453,0A.368.368,0,0,1,.868.364Z" transform="translate(8.808 47.391)" fill-rule="evenodd"/>
            <path id="Path_99993" data-name="Path 99993" d="M.459,0c.287.032.528.117.49.406S.62.738.373.75A.322.322,0,0,1,0,.355C.031.06.256.01.459,0Z" transform="translate(14.049 4.544)" fill-rule="evenodd"/>
            <path id="Path_99994" data-name="Path 99994" d="M.418.848C.178.831-.005.727,0,.474A.459.459,0,0,1,.464,0a.332.332,0,0,1,.4.366C.873.677.683.8.418.848Z" transform="translate(10.928 5.575)" fill-rule="evenodd"/>
            <path id="Path_99995" data-name="Path 99995" d="M.8.362c0,.3-.071.481-.342.486A.418.418,0,0,1,0,.4.351.351,0,0,1,.38,0,.388.388,0,0,1,.8.362Z" transform="translate(6.058 44.016)" fill-rule="evenodd"/>
            <path id="Path_99996" data-name="Path 99996" d="M.791.387c0,.261-.1.47-.369.483A.4.4,0,0,1,0,.438.389.389,0,0,1,.41,0C.672-.01.78.148.791.387Z" transform="translate(7.551 42.92)" fill-rule="evenodd"/>
            <path id="Path_99997" data-name="Path 99997" d="M.444,0C.693,0,.921.051.909.362.9.654.646.729.424.751A.354.354,0,0,1,0,.389C-.012.085.18,0,.444,0Z" transform="translate(27.025 0.568)" fill-rule="evenodd"/>
            <path id="Path_99998" data-name="Path 99998" d="M.877.34a.4.4,0,0,1-.4.419C.223.78.022.673,0,.4-.018.157.147.021.385,0A.432.432,0,0,1,.877.34Z" transform="translate(30.858 0.175)" fill-rule="evenodd"/>
            <path id="Path_99999" data-name="Path 99999" d="M.841.47C.81.745.627.808.4.787S-.011.645,0,.4C.01.175.119-.017.385,0A.46.46,0,0,1,.841.47Z" transform="translate(6.411 46.327)" fill-rule="evenodd"/>
            <path id="Path_100000" data-name="Path 100000" d="M.809.352a.505.505,0,0,1-.5.47C.106.84,0,.7,0,.489,0,.161.2.025.489,0,.7-.016.8.121.809.352Z" transform="translate(15.737 34.606)" fill-rule="evenodd"/>
            <path id="Path_100001" data-name="Path 100001" d="M.856.3C.78.5.746.772.436.8A.352.352,0,0,1,0,.462C0,.137.285.051.544.005.723-.026.837.085.856.3Z" transform="translate(0.029 29.282)" fill-rule="evenodd"/>
            <path id="Path_100002" data-name="Path 100002" d="M.4.772C.177.761,0,.665,0,.438A.406.406,0,0,1,.423,0,.306.306,0,0,1,.778.352.4.4,0,0,1,.4.772Z" transform="translate(23.411 50.813)" fill-rule="evenodd"/>
            <path id="Path_100003" data-name="Path 100003" d="M.355,0C.663.005.8.128.789.391A.353.353,0,0,1,.412.75.365.365,0,0,1,0,.37.328.328,0,0,1,.355,0Z" transform="translate(28.511 2.47)" fill-rule="evenodd"/>
            <path id="Path_100004" data-name="Path 100004" d="M.357.823A.309.309,0,0,1,0,.5a.414.414,0,0,1,.356-.5C.589-.032.722.094.72.336A.458.458,0,0,1,.357.823Z" transform="translate(2.707 25.632)" fill-rule="evenodd"/>
            <path id="Path_100005" data-name="Path 100005" d="M.771.281A.443.443,0,0,1,.359.763.293.293,0,0,1,0,.476.411.411,0,0,1,.381.006.308.308,0,0,1,.771.281Z" transform="translate(17.542 14.936)" fill-rule="evenodd"/>
            <path id="Path_100006" data-name="Path 100006" d="M.738.363A.4.4,0,0,1,.361.778C.118.8.006.637,0,.423A.37.37,0,0,1,.37,0C.6-.013.725.117.738.363Z" transform="translate(1.512 27.262)" fill-rule="evenodd"/>
            <path id="Path_100007" data-name="Path 100007" d="M.379,0A.384.384,0,0,1,.768.383C.782.632.61.706.4.714.146.723,0,.607,0,.349,0,.115.133.007.379,0Z" transform="translate(4.151 46.611)" fill-rule="evenodd"/>
            <path id="Path_100008" data-name="Path 100008" d="M.287.786A.276.276,0,0,1,.006.446.55.55,0,0,1,.516,0C.679-.022.741.156.723.3.691.542.626.782.287.786Z" transform="translate(18.358 16.448)" fill-rule="evenodd"/>
            <path id="Path_100009" data-name="Path 100009" d="M.721.383C.726.631.589.725.363.716A.336.336,0,0,1,0,.362.307.307,0,0,1,.337,0,.345.345,0,0,1,.721.383Z" transform="translate(23.602 52.708)" fill-rule="evenodd"/>
            <path id="Path_100010" data-name="Path 100010" d="M.715.351A.338.338,0,0,1,.366.713.318.318,0,0,1,0,.413C-.008.208.082.017.316,0A.356.356,0,0,1,.715.351Z" transform="translate(12.492 5.063)" fill-rule="evenodd"/>
            <path id="Path_100011" data-name="Path 100011" d="M.662.327C.647.59.563.769.3.773A.278.278,0,0,1,0,.43.418.418,0,0,1,.381,0C.612-.015.649.172.662.327Z" transform="translate(0.559 25.828)" fill-rule="evenodd"/>
            <path id="Path_100012" data-name="Path 100012" d="M.695.379A.316.316,0,0,1,.317.7C.076.683-.015.531,0,.307A.308.308,0,0,1,.351,0C.585,0,.7.13.695.379Z" transform="translate(21.39 51.765)" fill-rule="evenodd"/>
            <path id="Path_100013" data-name="Path 100013" d="M.758.315A.312.312,0,0,1,.433.647.357.357,0,0,1,0,.305C-.011.095.17,0,.351,0A.361.361,0,0,1,.758.315Z" transform="translate(28.444)" fill-rule="evenodd"/>
            <path id="Path_100014" data-name="Path 100014" d="M.675.346A.348.348,0,0,1,.286.713C.109.707-.023.615,0,.424.033.21.128.019.382,0,.61-.015.68.129.675.346Z" transform="translate(14.408 32.777)" fill-rule="evenodd"/>
            <path id="Path_100015" data-name="Path 100015" d="M.671.339C.65.563.544.7.31.7A.289.289,0,0,1,0,.363.351.351,0,0,1,.366,0C.581,0,.663.144.671.339Z" transform="translate(16.038 15.058)" fill-rule="evenodd"/>
            <path id="Path_100016" data-name="Path 100016" d="M.288,0C.521.041.648.159.64.362S.531.743.284.729C.061.716-.007.555,0,.36A.368.368,0,0,1,.288,0Z" transform="translate(7.316 48.355)" fill-rule="evenodd"/>
            <path id="Path_100017" data-name="Path 100017" d="M.694.321C.634.522.548.688.313.692A.278.278,0,0,1,0,.365C.017.162.122-.008.359,0A.334.334,0,0,1,.694.321Z" transform="translate(16.074 16.629)" fill-rule="evenodd"/>
            <path id="Path_100018" data-name="Path 100018" d="M.393,0A.274.274,0,0,1,.682.3a.326.326,0,0,1-.33.378C.157.689.008.609,0,.393-.009.127.2.06.393,0Z" transform="translate(0 27.709)" fill-rule="evenodd"/>
            <path id="Path_100019" data-name="Path 100019" d="M.308.645C.12.637.006.546,0,.36A.326.326,0,0,1,.3,0c.2-.025.28.113.29.287A.3.3,0,0,1,.308.645Z" transform="translate(22.25 53.909)" fill-rule="evenodd"/>
            <path id="Path_100020" data-name="Path 100020" d="M.59.332C.587.517.5.637.316.643.1.651.009.514,0,.316-.006.144.056-.007.253,0A.363.363,0,0,1,.59.332Z" transform="translate(25.082 54.966)" fill-rule="evenodd"/>
            <path id="Path_100021" data-name="Path 100021" d="M.6.3A.272.272,0,0,1,.289.614C.1.611-.008.528,0,.329A.307.307,0,0,1,.326,0C.523-.005.606.109.6.3Z" transform="translate(2.186 29.257)" fill-rule="evenodd"/>
            <path id="Path_100022" data-name="Path 100022" d="M.285.608A.265.265,0,0,1,0,.309.321.321,0,0,1,.352,0,.235.235,0,0,1,.6.269C.59.454.506.6.285.608Z" transform="translate(13.907 35.413)" fill-rule="evenodd"/>
          </g>
        </g>
      </g>
      <g id="Path_100027" data-name="Path 100027" transform="matrix(0.985, -0.174, 0.174, 0.985, 44.431, 18.321)" fill="#08de6f">
        <path d="M 3.542903184890747 15.42424869537354 C 2.145442962646484 15.42424869537354 0.788023054599762 14.74417877197266 -0.08820691704750061 13.60505867004395 C -0.8283469080924988 12.642258644104 -1.132946968078613 11.41458892822266 -0.9460669159889221 10.14796829223633 C -0.7755669355392456 8.992348670959473 -0.2180369198322296 7.8972487449646 0.6238130927085876 7.064398765563965 C 1.521013021469116 6.177108764648438 2.70719313621521 5.668298721313477 3.87833309173584 5.668298721313477 C 4.679147720336914 5.668298721313477 5.408866882324219 5.907681465148926 6.008135795593262 6.345735549926758 C 6.305820941925049 5.363951206207275 6.56840181350708 4.371790885925293 6.792793273925781 3.379948616027832 C 6.838433265686035 3.178248643875122 6.876112937927246 2.929408550262451 6.916003227233887 2.665958642959595 C 7.098503112792969 1.460758566856384 7.374292850494385 -0.360541433095932 9.120673179626465 -0.8663814067840576 C 9.430852890014648 -0.9562814235687256 9.773893356323242 -1.000001430511475 10.16923332214355 -1.000001430511475 C 10.58392333984375 -1.000001430511475 11.00043296813965 -0.9513913989067078 11.36792278289795 -0.9085114002227783 C 11.57374286651611 -0.8844914436340332 11.76815319061279 -0.8618014454841614 11.9403829574585 -0.8498314023017883 C 12.43501281738281 -0.8150613903999329 12.92880344390869 -0.7805213928222656 13.42267322540283 -0.7459714412689209 L 14.75434303283691 -0.6526914238929749 C 15.78973293304443 -0.580471396446228 16.54303359985352 0.2719185948371887 16.506103515625 1.330008625984192 C 16.47110748291016 2.332656145095825 15.73470687866211 3.060378551483154 14.75521564483643 3.060378551483154 C 14.75509548187256 3.060378551483154 14.75509262084961 3.060378551483154 14.75497341156006 3.060378551483154 C 14.70864295959473 3.060368537902832 14.66136264801025 3.058698654174805 14.61446285247803 3.055418491363525 L 13.30899333953857 2.963938474655151 L 12.00150299072266 2.872318506240845 C 11.85082340240479 2.861748695373535 11.66483306884766 2.832828521728516 11.42936325073242 2.796208620071411 C 11.18868160247803 2.758782625198364 10.88199234008789 2.711084604263306 10.62514114379883 2.688995122909546 C 10.58420753479004 2.934436082839966 10.55044364929199 3.239797115325928 10.53031349182129 3.421868562698364 C 10.50027275085449 3.693618535995483 10.47654342651367 3.908258676528931 10.43900299072266 4.078428745269775 C 10.26594352722168 4.862378597259521 10.06823348999023 5.653948783874512 9.851343154907227 6.431308746337891 C 9.418272972106934 7.985268592834473 8.895052909851074 9.530628204345703 8.296302795410156 11.02416896820068 L 8.242142677307129 11.15950870513916 C 7.789213180541992 12.29218864440918 7.275853157043457 13.57600879669189 6.173192977905273 14.48305892944336 C 5.424912929534912 15.09875869750977 4.515343189239502 15.42424869537354 3.542903184890747 15.42424869537354 Z" stroke="none"/>
        <path d="M 10.16923236846924 -3.814697265625e-06 C 9.89933967590332 -3.814697265625e-06 9.638032913208008 0.02482509613037109 9.398882865905762 0.09413814544677734 C 7.979753017425537 0.5051784515380859 8.032793045043945 2.431028366088867 7.768143177032471 3.600608825683594 C 7.396683216094971 5.242518424987793 6.929702758789062 6.862208366394043 6.371663093566895 8.450468063354492 C 6.362382888793945 8.425958633422852 6.356523513793945 8.400328636169434 6.346632957458496 8.375818252563477 C 5.435312271118164 6.154997825622559 2.859392166137695 6.25994873046875 1.327102661132812 7.775298595428467 C -0.0395965576171875 9.127378463745117 -0.5223264694213867 11.39955902099609 0.7044229507446289 12.99535846710205 C 1.854812622070312 14.49089813232422 4.034252166748047 14.94801902770996 5.53791332244873 13.71077823638916 C 6.481343269348145 12.93471908569336 6.926773071289062 11.75286865234375 7.368113040924072 10.65206909179688 C 7.956433296203613 9.184537887573242 8.463703155517578 7.685508728027344 8.88813304901123 6.162558555603027 C 9.100412368774414 5.401698112487793 9.292192459106445 4.634398460388184 9.462482452392578 3.862998962402344 C 9.553422927856445 3.45076847076416 9.597732543945312 2.025198936462402 9.908523559570312 1.773338317871094 C 10.22218132019043 1.518548011779785 11.64778327941895 1.845057487487793 12.07161331176758 1.874778747558594 C 12.94270324707031 1.935998916625977 13.81318283081055 1.996638298034668 14.68428325653076 2.057858467102051 C 15.78389358520508 2.134785652160645 15.77925300598145 0.4212284088134766 14.68428325653076 0.3448381423950195 C 13.74617290496826 0.2789583206176758 12.80867290496826 0.2136783599853516 11.87104320526123 0.1477584838867188 C 11.35241222381592 0.1117143630981445 10.74160957336426 -3.814697265625e-06 10.16923236846924 -3.814697265625e-06 M 10.16923332214355 -2.000001907348633 C 10.64206314086914 -2.000001907348633 11.08925247192383 -1.947811126708984 11.48380279541016 -1.901771545410156 C 11.67767333984375 -1.879152297973633 11.86080360412598 -1.857782363891602 12.00969314575195 -1.847431182861328 C 12.50891304016113 -1.812332153320312 13.00648307800293 -1.777530670166016 13.5041332244873 -1.742721557617188 L 14.8243932723999 -1.650251388549805 C 15.65817260742188 -1.592081069946289 16.39414215087891 -1.201900482177734 16.89582252502441 -0.5516510009765625 C 17.31319236755371 -0.01069164276123047 17.52971267700195 0.6698684692382812 17.50550270080566 1.364658355712891 C 17.45195388793945 2.901468276977539 16.2695426940918 4.060379028320312 14.75510311126709 4.060379028320312 C 14.68545341491699 4.060379028320312 14.61453342437744 4.057878494262695 14.5443229675293 4.052958488464355 L 11.93140316009521 3.869858741760254 C 11.7956657409668 3.860342979431152 11.65404510498047 3.841739654541016 11.49167156219482 3.817497253417969 C 11.47065448760986 3.990358352661133 11.4476900100708 4.148042678833008 11.41552352905273 4.293848991394043 C 11.23855304718018 5.095528602600098 11.03637313842773 5.904988288879395 10.8145637512207 6.700028419494629 C 10.37180328369141 8.288748741149902 9.836772918701172 9.868978500366211 9.224493026733398 11.39627838134766 L 9.170642852783203 11.53083801269531 C 8.697723388671875 12.7135181427002 8.109163284301758 14.18539810180664 6.808463096618652 15.25534820556641 C 5.879173278808594 16.01998901367188 4.749882698059082 16.42424774169922 3.542902946472168 16.42424774169922 C 1.837113380432129 16.42424774169922 0.1833829879760742 15.59826850891113 -0.8808364868164062 14.214768409729 C -1.78776741027832 13.03499889373779 -2.162136077880859 11.53905868530273 -1.935356140136719 10.00200843811035 C -1.73344612121582 8.633448600769043 -1.074346542358398 7.337718486785889 -0.07948684692382812 6.353498458862305 C 1.003562927246094 5.282438278198242 2.446033477783203 4.668298721313477 3.87833309173584 4.668298721313477 C 4.407633781433105 4.668298721313477 4.912447929382324 4.749812126159668 5.382081031799316 4.905588150024414 C 5.54026985168457 4.324869155883789 5.685606956481934 3.742019653320312 5.817442893981934 3.15928840637207 C 5.85511302947998 2.992798805236816 5.890163421630859 2.761318206787109 5.927272796630859 2.516238212585449 C 6.021492958068848 1.894048690795898 6.13874340057373 1.119718551635742 6.446793556213379 0.388148307800293 C 7.049753189086914 -1.04375171661377 8.082372665405273 -1.60675048828125 8.842473030090332 -1.826900482177734 C 9.2442626953125 -1.943351745605469 9.678353309631348 -2.000001907348633 10.16923332214355 -2.000001907348633 Z" stroke="none" fill="#000"/>
      </g>
    </g>
  </g>
</svg>
