<svg id="l6" xmlns="http://www.w3.org/2000/svg" width="96" height="80" viewBox="0 0 96 80">
  <rect id="Rectangle_5578" data-name="Rectangle 5578" width="96" height="80" fill="none"/>
  <g id="_6161" data-name="6161" transform="translate(-26.136 -4.309)">
    <g id="_fefefeff" data-name="#fefefeff" transform="translate(33.59 13.846)">
      <path id="Path_107344" data-name="Path 107344" d="M265.416,20.614c3.621-1.207,7.25-2.458,10.972-3.3.591.539.163,1.535.289,2.254.472,7.374.178,14.774.111,22.156-.16,1.532-.013,3.077-.191,4.609a9.836,9.836,0,0,1-2.548-1.341c-3.523-2.332-6.969-4.779-10.464-7.155a36.351,36.351,0,0,1-3.964-2.915c.5-1.911,1.413-3.683,2.007-5.564.72-1.919,1.367-3.861,2.1-5.772-.472.036-.382-.513-.113-.635.818-.616.65-2.058,1.8-2.334m.227,1.759c-.9,1.831-1.514,3.784-2.35,5.644a.913.913,0,0,0,.2,1.23c.983-2.087,1.677-4.3,2.626-6.4.493-1.248,1.971-1.413,3-2.025-.106-.064-.315-.2-.418-.261-1.148.235-2.538.632-3.064,1.808m-3.433,8.6a7.588,7.588,0,0,0-.565,1.5l.475.134a14.6,14.6,0,0,0,.583-1.517Z" transform="translate(-202.927 -17.31)" fill="#ffec00"/>
      <path id="Path_107345" data-name="Path 107345" d="M329.675,18.87a32.08,32.08,0,0,1,4.506,3.42,36.641,36.641,0,0,1-3.3,2.1c-.294.155-.585.436-.947.32C329.856,22.765,329.618,20.817,329.675,18.87Z" transform="translate(-254.906 -18.468)" fill="#fc0"/>
      <path id="Path_107346" data-name="Path 107346" d="M343.69,36.825c.516-.273,1.032-.547,1.558-.8a10.867,10.867,0,0,1-.358,2.285A5.269,5.269,0,0,1,343.69,36.825Z" transform="translate(-265.313 -31.194)" fill="#34ff97"/>
      <path id="Path_107347" data-name="Path 107347" d="M96.574,81.275c3.725-.371,7.48-.276,11.215-.485-.005.34.085.771-.32.923a17.994,17.994,0,0,1-2.693.124c-2.149.2-4.313.15-6.466.24l-.142.106a5.374,5.374,0,0,0-1.849.209c-5.435,2.775-10.717,5.845-16.154,8.617-5.638,2.822-11.207,5.778-16.742,8.8a9.234,9.234,0,0,1-3.464.758,21.274,21.274,0,0,1-3.523.276c-.132-.307.348-.361.5-.531,5.989-3.495,12.221-6.546,18.416-9.647,4.555-2.249,9.218-4.269,13.933-6.154C91.746,83.511,94.08,82.193,96.574,81.275Z" transform="translate(-52.133 -64.417)" fill="#34ff97"/>
      <path id="Path_107348" data-name="Path 107348" d="M99.924,89c1.72.015,3.425-.242,5.146-.227,1.315.039,2.621-.284,3.939-.15.291.235.075.622,0,.9-2.04,5.447-4.186,10.854-6.038,16.368-.846,2.373-1.491,4.816-2.412,7.16-5.205-.23-10.392-.751-15.584-1.192-6.028-.377-12.051-.766-18.071-1.215-2.551-.271-5.148-.144-7.681-.611a8.124,8.124,0,0,1,1.924-1l-.052-.485c.028.111.085.328.113.436,5.767-2.806,11.328-6,17.062-8.878,6.869-3.446,13.565-7.225,20.32-10.885A3.026,3.026,0,0,1,99.924,89M96.6,93.129c-4.473,2.032-8.888,4.184-13.345,6.25-4.767,2.3-9.6,4.473-14.313,6.882-.01.15-.031.446-.041.593a8.479,8.479,0,0,0,1.965-.807c2.752-1.4,5.556-2.682,8.347-4,6.03-2.814,12.017-5.721,18.047-8.53.565-.3,1.272-.457,1.6-1.065-.833-.152-1.522.4-2.262.673M67.42,108.94l.163.428a18.263,18.263,0,0,0,3.461.3c2.775.023,5.538.451,8.313.31-.387-.794-1.393-.547-2.112-.689-3.278-.059-6.544-.441-9.825-.353m16.358,1.032c0,.116-.005.348-.005.464a12.708,12.708,0,0,0,2.639.049c.072-.111.222-.338.3-.449A12.946,12.946,0,0,0,83.778,109.972Z" transform="translate(-54.216 -70.207)" fill="#34ff97"/>
      <path id="Path_107349" data-name="Path 107349" d="M96.049,90.06c.183.088.364.181.544.279,5.527,3.763,10.82,7.88,16.569,11.31-1.137,1.37-2.388,2.639-3.627,3.915-4.568,4.906-8.917,10.005-13.369,15.012a41.1,41.1,0,0,1-3.4,3.652c-6.758-1.174-13.4-2.881-20.139-4.16-5.187-.993-10.384-1.947-15.558-3-.371-.126-.668.144-1,.24l.645-.4a23.972,23.972,0,0,1-3.9-.8c-3.371-.668-6.688-1.568-10.044-2.3a17.434,17.434,0,0,1-2.946-.776,6.532,6.532,0,0,1,3.41-.98c3.866.392,7.741.712,11.622.91,3.668.353,7.346.57,11.027.753,4.563.534,9.164.614,13.727,1.137,2.432.108,4.859.369,7.294.4.8-1.754,1.23-3.655,1.914-5.458,1.568-4.934,3.4-9.776,5.241-14.614.673-1.7,1.251-3.449,1.994-5.128m.64,2c.015.139.044.418.057.557,1.024.823,1.934,1.782,3.018,2.53.039-.15.113-.449.152-.6-1.109-.784-1.96-1.947-3.227-2.489m11.718,11.3a96.889,96.889,0,0,1-10.294,11.086c-.957,1.042-1.989,2.017-2.889,3.108a1.308,1.308,0,0,0,.6.273c4.478-4.612,9.286-8.953,13.139-14.129a1.664,1.664,0,0,0,.4-1.168,3.3,3.3,0,0,0-.96.831M91.264,121.806c.949,0,1.491-.859,2-1.524C92.306,120.13,91.741,121.133,91.264,121.806Z" transform="translate(-39.82 -71.296)" fill="#ffec00"/>
      <path id="Path_107350" data-name="Path 107350" d="M194.426,216.6q3.915.809,7.839,1.612a11.858,11.858,0,0,1,2.788.689,33.013,33.013,0,0,1-3.067,4.576,2.807,2.807,0,0,1-.838-.475c-2.231-2.076-4.542-4.068-6.747-6.167C194.408,216.775,194.421,216.657,194.426,216.6Z" transform="translate(-154.529 -165.197)" fill="#34ff97"/>
      <path id="Path_107351" data-name="Path 107351" d="M206.3,235.27l.4.134c.81.761,1.674,1.462,2.458,2.252,1.148,1.179,2.775,1.643,4.238,2.3-2.345-.25-4.712-.075-7.057-.31A35.83,35.83,0,0,1,206.3,235.27Z" transform="translate(-163.323 -179.051)" fill="#ffec00"/>
      <path id="Path_107352" data-name="Path 107352" d="M225.73,241.117c.549-.73,1.117-1.444,1.674-2.167A13.24,13.24,0,0,1,229.645,240a36.207,36.207,0,0,1,4.648,2.716,45.84,45.84,0,0,1-4.612-.008C228.32,242.3,227.063,241.609,225.73,241.117Z" transform="translate(-177.778 -181.782)" fill="#34ff97"/>
      <path id="Union_336" data-name="Union 336" d="M18601.316,19720.836a2.424,2.424,0,0,1-.406-.441.744.744,0,0,1,0-.99.735.735,0,0,1,1.029-.014c.184.123.336.287.51.42a3.788,3.788,0,0,0,4.049.639,5.566,5.566,0,0,0,2.094-1.475,1.78,1.78,0,0,1,.342-.332.592.592,0,0,1,.727-.016.606.606,0,0,1,.283.674,1.307,1.307,0,0,1-.232.549c-.412.48-.852.936-1.283,1.4l-.068-.059c-.229.123-.455.248-.684.371a5.7,5.7,0,0,1-2.7.7A5.517,5.517,0,0,1,18601.316,19720.836Zm-.209-5.723a1.455,1.455,0,0,1,.367-1.945,1.128,1.128,0,0,1,1.553.387,1.392,1.392,0,0,1-.271,1.939,1.09,1.09,0,0,1-.611.186A1.258,1.258,0,0,1,18601.107,19715.113Z" transform="matrix(0.94, 0.342, -0.342, 0.94, -10668.472, -24881.521)" stroke="rgba(0,0,0,0)" stroke-miterlimit="10" stroke-width="1"/>
    </g>
    <g id="_090909ff" data-name="#090909ff" transform="translate(31.399 12.616)">
      <path id="Path_107353" data-name="Path 107353" d="M104.341,13.409c1.006-.266,1.986-.629,3-.846.8-.142,1.385.506,1.963.939,1.566,1.3,3.3,2.4,4.79,3.789.591.526.325,1.372.325,2.061a9.559,9.559,0,0,1-.371,2.845c-.214.3-.64.186-.952.248-.7-.769-1.442-1.493-2.123-2.278a8.436,8.436,0,0,0-1.937,1.181c-.206.162-.472.346-.49.635-.072,1.279.168,2.551.113,3.83-.31,5.85-.152,11.713-.237,17.568.059.57-.389.993-.707,1.406-3.147,3.469-6.34,6.9-9.427,10.418-3.5,3.892-6.838,7.929-10.4,11.767a4.762,4.762,0,0,1-.846.712q-.847-.039-1.695-.034a13.846,13.846,0,0,0-1.483,2.283c2.992,1.656,6.067,3.185,8.9,5.115-.01.23-.018.462-.026.694a15.148,15.148,0,0,1-3.469.175c-4.238.059-8.463-.348-12.69-.5-.436-.17-1.122-.268-1.068-.877a43.312,43.312,0,0,0-.338-5.927c-1.029-1.065-2.174-2-3.255-3.01a3.737,3.737,0,0,0-2-1.228c-4.8-.859-9.551-1.986-14.377-2.69-.015-.121-.046-.366-.062-.49l-.005.462c-3.593-.8-7.222-1.462-10.8-2.332-3.835-.74-7.581-1.86-11.413-2.608a4.91,4.91,0,0,1-1.9-.635,1.012,1.012,0,0,1,.694-1.274,48.728,48.728,0,0,0,8.556-3.639c-1.839-.1-3.65.428-5.486.34-.668-.119-.4-1.127.121-1.31,5.716-3.572,11.79-6.508,17.774-9.592q6.9-3.5,14.052-6.487c3.18-1.246,6.3-2.633,9.417-4.037a9.657,9.657,0,0,1,4.016-.72c2.86-.064,5.721-.139,8.584-.113.31-.173.766-.224.867-.629,1.145-2.93,2.18-5.9,3.312-8.837a23.2,23.2,0,0,1,1.161-2.951c.475-.756,1.437-.856,2.2-1.15,2.486-.885,5.037-1.566,7.573-2.293-.01.137-.026.408-.034.544.041-.132.126-.392.168-.521m-8.336,3.668c-1.148.276-.98,1.718-1.8,2.334-.268.121-.359.671.113.635-.738,1.911-1.385,3.853-2.1,5.772-.593,1.88-1.509,3.652-2.007,5.564A36.35,36.35,0,0,0,94.174,34.3c3.495,2.376,6.941,4.823,10.464,7.155a9.837,9.837,0,0,0,2.548,1.341c.178-1.532.031-3.077.191-4.609.067-7.382.361-14.782-.111-22.156-.126-.72.3-1.715-.289-2.254-3.722.846-7.351,2.1-10.972,3.3m12.28-2.9c-.057,1.947.181,3.895.255,5.84.361.116.653-.165.947-.32a36.654,36.654,0,0,0,3.3-2.1,32.079,32.079,0,0,0-4.506-3.42m3.608,5.228a5.269,5.269,0,0,0,1.2,1.481,10.872,10.872,0,0,0,.359-2.285c-.526.258-1.042.531-1.558.8M77.958,30.631c-2.494.918-4.828,2.236-7.294,3.234-4.715,1.885-9.378,3.905-13.933,6.154-6.2,3.1-12.427,6.152-18.416,9.647-.147.17-.627.224-.5.531a21.275,21.275,0,0,0,3.523-.276,9.234,9.234,0,0,0,3.464-.758c5.535-3.02,11.1-5.976,16.742-8.8,5.437-2.773,10.72-5.842,16.154-8.617a5.374,5.374,0,0,1,1.849-.209l.142-.106c2.154-.09,4.318-.039,6.466-.24a17.992,17.992,0,0,0,2.693-.124c.4-.152.315-.583.32-.923-3.735.209-7.49.113-11.215.485m1.266,1.937a3.026,3.026,0,0,0-1.336.224c-6.755,3.66-13.451,7.439-20.32,10.885-5.734,2.873-11.295,6.072-17.062,8.878-.028-.108-.085-.325-.113-.436l.052.485a8.124,8.124,0,0,0-1.924,1c2.533.467,5.13.34,7.681.611,6.02.449,12.043.838,18.071,1.215,5.192.441,10.379.962,15.584,1.192.921-2.345,1.566-4.787,2.412-7.16,1.852-5.515,4-10.921,6.038-16.368.077-.281.294-.668,0-.9-1.318-.134-2.623.188-3.939.15-1.72-.015-3.425.242-5.146.227m10.521-.031c-.743,1.679-1.321,3.423-1.994,5.128-1.836,4.839-3.673,9.68-5.241,14.614-.684,1.8-1.109,3.7-1.914,5.458-2.435-.036-4.862-.3-7.294-.4-4.563-.524-9.164-.6-13.727-1.137-3.681-.183-7.359-.4-11.027-.753-3.882-.2-7.756-.518-11.622-.91a6.532,6.532,0,0,0-3.41.98,17.434,17.434,0,0,0,2.946.776c3.356.727,6.673,1.628,10.044,2.3a23.97,23.97,0,0,0,3.9.8l-.645.4c.333-.1.629-.366,1-.24,5.174,1.055,10.371,2.009,15.558,3,6.735,1.279,13.381,2.987,20.139,4.16a41.1,41.1,0,0,0,3.4-3.652c4.452-5.006,8.8-10.106,13.369-15.012,1.238-1.277,2.489-2.546,3.627-3.915-5.749-3.43-11.042-7.547-16.569-11.31-.181-.1-.361-.191-.544-.279M73.413,65.175c-.005.057-.018.175-.026.235,2.205,2.1,4.516,4.091,6.747,6.167a2.808,2.808,0,0,0,.838.475,33.014,33.014,0,0,0,3.067-4.576,11.859,11.859,0,0,0-2.788-.689q-3.919-.809-7.839-1.612m3.08,4.816a35.83,35.83,0,0,0,.036,4.372c2.345.235,4.712.059,7.057.31-1.462-.653-3.09-1.117-4.238-2.3-.784-.789-1.648-1.491-2.458-2.252l-.4-.134m4.975,3.116c1.333.493,2.59,1.181,3.951,1.594a45.842,45.842,0,0,0,4.612.008,36.206,36.206,0,0,0-4.648-2.716,13.239,13.239,0,0,0-2.241-1.052C82.585,71.662,82.017,72.377,81.468,73.107Z" transform="translate(-31.325 -12.543)" fill="#090909"/>
      <path id="Path_107354" data-name="Path 107354" d="M275.784,31.738c.526-1.176,1.916-1.573,3.064-1.808.1.064.312.2.418.261-1.034.611-2.512.776-3,2.025-.949,2.1-1.643,4.31-2.626,6.4a.913.913,0,0,1-.2-1.23C274.27,35.522,274.883,33.569,275.784,31.738Z" transform="translate(-210.877 -25.445)" fill="#090909"/>
      <path id="Path_107355" data-name="Path 107355" d="M268.035,70.3l.493.113a14.577,14.577,0,0,1-.583,1.517l-.475-.134A7.6,7.6,0,0,1,268.035,70.3Z" transform="translate(-206.561 -55.403)" fill="#090909"/>
      <path id="Path_107356" data-name="Path 107356" d="M260.3,97.83c1.266.542,2.118,1.7,3.227,2.489-.039.15-.113.449-.152.6-1.083-.748-1.994-1.708-3.018-2.53C260.344,98.248,260.315,97.969,260.3,97.83Z" transform="translate(-201.24 -75.832)" fill="#090909"/>
      <path id="Path_107357" data-name="Path 107357" d="M124.459,104.169c.74-.268,1.429-.825,2.262-.673-.33.609-1.037.763-1.6,1.065-6.03,2.809-12.017,5.716-18.047,8.53-2.791,1.313-5.595,2.6-8.347,4a8.48,8.48,0,0,1-1.965.807c.01-.147.031-.444.041-.593,4.71-2.409,9.546-4.583,14.313-6.882C115.571,108.352,119.987,106.2,124.459,104.169Z" transform="translate(-79.882 -80.017)" fill="#090909"/>
      <path id="Path_107358" data-name="Path 107358" d="M267.8,139.261a3.3,3.3,0,0,1,.96-.831,1.664,1.664,0,0,1-.4,1.168c-3.854,5.177-8.661,9.518-13.139,14.129a1.308,1.308,0,0,1-.6-.273c.9-1.091,1.932-2.066,2.889-3.108A96.889,96.889,0,0,0,267.8,139.261Z" transform="translate(-197.025 -105.96)" fill="#090909"/>
      <path id="Path_107359" data-name="Path 107359" d="M91.01,167.443c3.281-.088,6.546.294,9.825.353.72.142,1.726-.106,2.112.689-2.775.142-5.538-.286-8.313-.309a18.266,18.266,0,0,1-3.461-.3Z" transform="translate(-75.615 -127.479)" fill="#090909"/>
      <path id="Path_107360" data-name="Path 107360" d="M154.415,171.333a12.947,12.947,0,0,1,2.93.064c-.075.111-.224.338-.3.449a12.708,12.708,0,0,1-2.639-.049C154.41,171.681,154.415,171.449,154.415,171.333Z" transform="translate(-122.663 -130.338)" fill="#090909"/>
      <path id="Path_107361" data-name="Path 107361" d="M239.27,208.71c.477-.673,1.042-1.677,2-1.524C240.761,207.851,240.219,208.707,239.27,208.71Z" transform="translate(-185.635 -156.97)" fill="#090909"/>
    </g>
    <path id="Path_107362" data-name="Path 107362" d="M104.341,13.409c1.006-.266,1.986-.629,3-.846.8-.142,1.385.506,1.963.939,1.566,1.3,3.3,2.4,4.79,3.789.591.526.325,1.372.325,2.061a9.559,9.559,0,0,1-.371,2.845c-.214.3-.64.186-.952.248-.7-.769-1.442-1.493-2.123-2.278a8.436,8.436,0,0,0-1.937,1.181c-.206.162-.472.346-.49.635-.072,1.279.168,2.551.113,3.83-.31,5.85-.152,11.713-.237,17.568.059.57-.389.993-.707,1.406-3.147,3.469-6.34,6.9-9.427,10.418-3.5,3.892-6.838,7.929-10.4,11.767a4.762,4.762,0,0,1-.846.712q-.847-.039-1.695-.034a13.846,13.846,0,0,0-1.483,2.283c2.992,1.656,6.067,3.185,8.9,5.115-.01.23-.018.462-.026.694a15.148,15.148,0,0,1-3.469.175c-4.238.059-8.463-.348-12.69-.5-.436-.17-1.122-.268-1.068-.877a43.312,43.312,0,0,0-.338-5.927c-1.029-1.065-2.174-2-3.255-3.01a3.737,3.737,0,0,0-2-1.228c-4.8-.859-9.551-1.986-14.377-2.69-.015-.121-.046-.366-.062-.49l-.005.462c-3.593-.8-7.222-1.462-10.8-2.332-3.835-.74-7.581-1.86-11.413-2.608a4.91,4.91,0,0,1-1.9-.635,1.012,1.012,0,0,1,.694-1.274,48.728,48.728,0,0,0,8.556-3.639c-1.839-.1-3.65.428-5.486.34-.668-.119-.4-1.127.121-1.31,5.716-3.572,11.79-6.508,17.774-9.592q6.9-3.5,14.052-6.487c3.18-1.246,6.3-2.633,9.417-4.037a9.657,9.657,0,0,1,4.016-.72c2.86-.064,5.721-.139,8.584-.113.31-.173.766-.224.867-.629,1.145-2.93,2.18-5.9,3.312-8.837a23.2,23.2,0,0,1,1.161-2.951c.475-.756,1.437-.856,2.2-1.15,2.486-.885,5.037-1.566,7.573-2.293-.01.137-.026.408-.034.544.041-.132.126-.392.168-.521m-8.336,3.668c-1.148.276-.98,1.718-1.8,2.334-.268.121-.359.671.113.635-.738,1.911-1.385,3.853-2.1,5.772-.593,1.88-1.509,3.652-2.007,5.564A36.35,36.35,0,0,0,94.174,34.3c3.495,2.376,6.941,4.823,10.464,7.155a9.837,9.837,0,0,0,2.548,1.341c.178-1.532.031-3.077.191-4.609.067-7.382.361-14.782-.111-22.156-.126-.72.3-1.715-.289-2.254-3.722.846-7.351,2.1-10.972,3.3m12.28-2.9c-.057,1.947.181,3.895.255,5.84.361.116.653-.165.947-.32a36.654,36.654,0,0,0,3.3-2.1,32.079,32.079,0,0,0-4.506-3.42m3.608,5.228a5.269,5.269,0,0,0,1.2,1.481,10.872,10.872,0,0,0,.359-2.285c-.526.258-1.042.531-1.558.8M77.958,30.631c-2.494.918-4.828,2.236-7.294,3.234-4.715,1.885-9.378,3.905-13.933,6.154-6.2,3.1-12.427,6.152-18.416,9.647-.147.17-.627.224-.5.531a21.275,21.275,0,0,0,3.523-.276,9.234,9.234,0,0,0,3.464-.758c5.535-3.02,11.1-5.976,16.742-8.8,5.437-2.773,10.72-5.842,16.154-8.617a5.374,5.374,0,0,1,1.849-.209l.142-.106c2.154-.09,4.318-.039,6.466-.24a17.992,17.992,0,0,0,2.693-.124c.4-.152.315-.583.32-.923-3.735.209-7.49.113-11.215.485m1.266,1.937a3.026,3.026,0,0,0-1.336.224c-6.755,3.66-13.451,7.439-20.32,10.885-5.734,2.873-11.295,6.072-17.062,8.878-.028-.108-.085-.325-.113-.436l.052.485a8.124,8.124,0,0,0-1.924,1c2.533.467,5.13.34,7.681.611,6.02.449,12.043.838,18.071,1.215,5.192.441,10.379.962,15.584,1.192.921-2.345,1.566-4.787,2.412-7.16,1.852-5.515,4-10.921,6.038-16.368.077-.281.294-.668,0-.9-1.318-.134-2.623.188-3.939.15-1.72-.015-3.425.242-5.146.227m10.521-.031c-.743,1.679-1.321,3.423-1.994,5.128-1.836,4.839-3.673,9.68-5.241,14.614-.684,1.8-1.109,3.7-1.914,5.458-2.435-.036-4.862-.3-7.294-.4-4.563-.524-9.164-.6-13.727-1.137-3.681-.183-7.359-.4-11.027-.753-3.882-.2-7.756-.518-11.622-.91a6.532,6.532,0,0,0-3.41.98,17.434,17.434,0,0,0,2.946.776c3.356.727,6.673,1.628,10.044,2.3a23.97,23.97,0,0,0,3.9.8l-.645.4c.333-.1.629-.366,1-.24,5.174,1.055,10.371,2.009,15.558,3,6.735,1.279,13.381,2.987,20.139,4.16a41.1,41.1,0,0,0,3.4-3.652c4.452-5.006,8.8-10.106,13.369-15.012,1.238-1.277,2.489-2.546,3.627-3.915-5.749-3.43-11.042-7.547-16.569-11.31-.181-.1-.361-.191-.544-.279M73.413,65.175c-.005.057-.018.175-.026.235,2.205,2.1,4.516,4.091,6.747,6.167a2.808,2.808,0,0,0,.838.475,33.014,33.014,0,0,0,3.067-4.576,11.859,11.859,0,0,0-2.788-.689q-3.919-.809-7.839-1.612m3.08,4.816a35.83,35.83,0,0,0,.036,4.372c2.345.235,4.712.059,7.057.31-1.462-.653-3.09-1.117-4.238-2.3-.784-.789-1.648-1.491-2.458-2.252l-.4-.134m4.975,3.116c1.333.493,2.59,1.181,3.951,1.594a45.842,45.842,0,0,0,4.612.008,36.206,36.206,0,0,0-4.648-2.716,13.239,13.239,0,0,0-2.241-1.052C82.585,71.662,82.017,72.377,81.468,73.107Z" transform="translate(0.074 0.074)" fill="#090909"/>
    <path id="Path_107362_-_Outline" data-name="Path 107362 - Outline" d="M107.641,12.043a2.9,2.9,0,0,1,1.793.843c.1.083.2.16.291.23l.022.018c.626.52,1.3,1.019,1.946,1.5a32.864,32.864,0,0,1,2.865,2.305,2.249,2.249,0,0,1,.538,2.031c-.014.163-.027.317-.027.453v.036l0,.036c-.036.283-.045.578-.055.89a9.832,9.832,0,0,1-.476,2.881l-.023.05-.032.045c-.316.446-3.264-2.078-3.584-2.432a8.581,8.581,0,0,0-1.171.758l-.268.193-.04.032a1.363,1.363,0,0,0-.221.2,15.272,15.272,0,0,0,.055,1.879,17.184,17.184,0,0,1,.06,1.922v.006c-.2,3.835-.2,7.748-.206,11.532,0,1.961,0,3.988-.03,5.984a2.232,2.232,0,0,1-.673,1.586c-.055.067-.106.13-.153.191l-.03.036c-.964,1.063-1.949,2.14-2.9,3.181-2.154,2.356-4.382,4.792-6.52,7.23l0,.005c-1.474,1.639-2.945,3.333-4.367,4.972-1.951,2.247-3.968,4.571-6.029,6.794a4.99,4.99,0,0,1-.889.759l-.21.152-.2-.009c-.448-.02-.914-.032-1.386-.033a13.762,13.762,0,0,0-.991,1.481c.566.31,1.138.619,1.695.919a76.033,76.033,0,0,1,6.752,3.95l.264.18-.014.32c-.01.227-.018.461-.026.687l-.014.426-.412.109a7.388,7.388,0,0,1-1.918.207c-.224,0-.45,0-.667-.009s-.431-.009-.643-.009c-.135,0-.256,0-.37.005h-.01c-.28,0-.569.006-.86.006-2.482,0-4.992-.145-7.42-.284-1.456-.084-2.962-.171-4.44-.225l-.1,0-.091-.035c-.06-.023-.133-.048-.211-.073-.417-.138-1.278-.422-1.223-1.345-.029-.61-.037-1.226-.046-1.821a24.364,24.364,0,0,0-.251-3.824c-.613-.623-1.279-1.216-1.925-1.791-.388-.345-.789-.7-1.178-1.065-.108-.092-.214-.188-.317-.281a2.486,2.486,0,0,0-1.342-.8l-.03,0-.029-.005c-1.87-.335-3.761-.715-5.589-1.084-2.678-.54-5.442-1.1-8.188-1.516v.032l-.43-.1-.151-.022-.431-.063-.006-.046c-1.366-.3-2.756-.589-4.1-.867-2.091-.431-4.254-.878-6.369-1.391-1.948-.376-3.9-.856-5.783-1.319-1.837-.452-3.736-.919-5.619-1.286l-.146-.029a5.037,5.037,0,0,1-1.971-.7l-.173-.12-.054-.2a1.584,1.584,0,0,1,1.075-1.969A57.492,57.492,0,0,0,38,51.975l-.016,0a19.917,19.917,0,0,1-2.357.186c-.154,0-.306,0-.452-.011l-.037,0-.036-.006a1.022,1.022,0,0,1-.868-.962,1.475,1.475,0,0,1,.831-1.428c4.623-2.886,9.546-5.393,14.307-7.817,1.136-.579,2.311-1.177,3.462-1.77,4.7-2.384,9.44-4.572,14.095-6.507l.011,0c3.2-1.255,6.4-2.677,9.391-4.026a10.254,10.254,0,0,1,4.243-.77l.793-.018c2.164-.049,4.4-.1,6.606-.1.36,0,.716,0,1.06,0,.065-.029.128-.055.187-.079a1.391,1.391,0,0,0,.257-.122l.007-.027.014-.035c.606-1.551,1.192-3.143,1.758-4.682.5-1.363,1.02-2.772,1.553-4.152l0-.008c.133-.329.246-.665.367-1.02a11.081,11.081,0,0,1,.828-2l.012-.02a3.174,3.174,0,0,1,1.946-1.2c.191-.058.372-.113.537-.176l.013,0c2.041-.726,4.151-1.324,6.191-1.9q.708-.2,1.416-.4l.792-.227,0,.066c.181-.054.362-.109.539-.164.6-.183,1.215-.372,1.848-.507l.019,0A1.852,1.852,0,0,1,107.641,12.043Zm1.117,1.772-.047-.038a1.984,1.984,0,0,0-1.07-.586.7.7,0,0,0-.114.01q-.134.029-.266.061l.178.162a1.458,1.458,0,0,1,.357.494l.018-.627.824.457Zm-1.988,2.351a3.93,3.93,0,0,1,0-.943,2.9,2.9,0,0,0,.006-.725c-3.238.763-6.459,1.84-9.578,2.882l-.94.314-.047.014c-.342.082-.475.329-.717.916a4.359,4.359,0,0,1-.44.869l.2-.015-.328.848c-.408,1.058-.8,2.147-1.172,3.2-.3.837-.607,1.7-.925,2.552-.264.835-.591,1.652-.908,2.443-.358.9-.728,1.818-1,2.751a19.89,19.89,0,0,0,2.292,1.692c.448.3.912.609,1.358.937,1.344.914,2.7,1.853,4.016,2.761,2.1,1.45,4.267,2.95,6.428,4.38.137.085.273.173.409.26a11.292,11.292,0,0,0,1.321.767c.029-.515.033-1.036.037-1.578.005-.74.011-1.5.088-2.267.015-1.68.043-3.387.069-5.038C107.037,27.6,107.13,21.823,106.769,16.166Zm5.163,1.476-.426-.358a29.5,29.5,0,0,0-2.579-2.015c.015.9.077,1.815.138,2.7.031.449.062.908.087,1.368.039-.023.078-.047.12-.069.351-.22.71-.432,1.058-.636C110.889,18.306,111.426,17.991,111.933,17.642Zm1.926.228a.494.494,0,0,0-.07-.077l-.01-.009-.061-.056-.5.392q-.118.093-.238.182l.29-.144Zm.075,2.889c-.049-.084.315-2.512.272-2.6L111.3,19.4l-.382.226-.275.162q.106-.045.215-.085l.37-.135,2.71,1.273C113.968,20.879,113.9,20.719,113.934,20.759Zm-5.147-.07a1.135,1.135,0,0,1-.348-.055l-.326-.1q.016.563.027,1.125a1.75,1.75,0,0,1,.571-.647l.069-.053.271-.2.267-.192A1.283,1.283,0,0,1,108.786,20.689ZM90.2,32.156q-.158-.141-.311-.289l-.241-.233.084-.324a20.223,20.223,0,0,1,.7-2.117,1.4,1.4,0,0,1-.6.461l-.009.573c0,.046,0,.095,0,.144a1.2,1.2,0,0,1-.694,1.308l-.033.012-.034.008c-.126.03-.252.054-.376.072l.057.046a1.027,1.027,0,0,1,.308,1.129q.12-.286.245-.568l.239-.541.533.255ZM41.359,49.424c.225-.028.453-.052.674-.075a6.542,6.542,0,0,0,2.565-.612l.006,0c6.332-3.455,11.658-6.254,16.76-8.807,2.722-1.388,5.457-2.879,8.1-4.322,1.748-.953,3.535-1.927,5.335-2.881L74.226,33c-1.062.5-2.16,1.023-3.274,1.474-5.19,2.075-9.734,4.082-13.895,6.137l-1.971.985c-5.081,2.537-10.324,5.154-15.34,8.025l.354-.048C40.51,49.512,40.933,49.454,41.359,49.424ZM87.893,32.808l-.2,0c-.479,0-.955.044-1.46.09a14.964,14.964,0,0,1-1.8.092c-.047,0-.094,0-.14,0-.789,0-1.6.057-2.382.113-.85.06-1.729.122-2.608.115l-.084,0a2.372,2.372,0,0,0-.989.155c-1.762.955-3.55,1.934-5.279,2.881-4.9,2.684-9.968,5.459-15.052,8.01-2.6,1.3-5.2,2.693-7.722,4.039-2.946,1.574-5.989,3.2-9.049,4.7l.006.058-.413.157-.167.065-.142.069c.935.09,1.878.131,2.8.171,1.019.044,2.074.09,3.112.2,6.247.466,12.37.859,18.055,1.214h.013c1.119.1,2.256.2,3.355.292,3.864.341,7.855.693,11.794.879.463-1.223.865-2.49,1.254-3.72.316-1,.643-2.029,1-3.035,1.363-4.057,2.908-8.118,4.4-12.046.538-1.413,1.094-2.875,1.633-4.315.017-.059.037-.116.056-.171Zm18.166,11.534c-3.608-2.193-7.082-4.669-10.448-7.068-1.8-1.282-3.657-2.606-5.509-3.869-.365.873-.7,1.77-1.022,2.643-.231.623-.47,1.267-.719,1.9-1.8,4.743-3.661,9.647-5.229,14.581l-.01.03c-.27.713-.506,1.463-.734,2.188a28.016,28.016,0,0,1-1.195,3.306l-.156.34-.374-.006c-1.467-.022-2.947-.125-4.379-.225-.962-.067-1.957-.137-2.933-.18l-.04,0c-2.242-.257-4.537-.41-6.758-.557-2.279-.151-4.636-.308-6.952-.578-3.28-.163-7.153-.381-11.021-.753-3.6-.184-7.4-.483-11.638-.912l-.017,0a2.341,2.341,0,0,0-.3-.02,3.863,3.863,0,0,0-1.42.33c.141.03.284.059.429.088.34.068.692.139,1.04.232,1.432.311,2.878.657,4.276.993,1.879.451,3.821.917,5.745,1.3l.027.006c.222.055.444.112.666.169a18.414,18.414,0,0,0,3.142.616l1.748.135-.368.228c3.419.689,6.888,1.345,10.252,1.982,1.424.27,2.9.548,4.345.825,3,.571,6.036,1.236,8.969,1.88,3.562.782,7.242,1.59,10.894,2.232a21.673,21.673,0,0,0,2.03-2.161c.36-.419.731-.852,1.117-1.266,1.43-1.609,2.874-3.254,4.271-4.846,2.949-3.361,6-6.837,9.1-10.17l.008-.008.328-.338C104.173,46.4,105.152,45.39,106.059,44.343Zm1.674-.334a.744.744,0,0,0,.195-.5l0-.034v-.034c.02-1.352.026-2.721.029-4.074-.012.369-.014.743-.017,1.127a22.387,22.387,0,0,1-.106,2.433l-.077.662-.643-.174a5.442,5.442,0,0,1-.966-.37q.54.333,1.082.657Zm-50.6-.646.249-.125q1.661-.834,3.321-1.7C59.533,42.132,58.347,42.738,57.136,43.363ZM37.822,50.84l-.324-.032-.134-.312a.77.77,0,0,1,.147-.856.954.954,0,0,1,.114-.1q-1.008.6-2,1.216l-.055.034-.061.021a.362.362,0,0,0-.126.2c.079,0,.159,0,.241,0A18.559,18.559,0,0,0,37.822,50.84Zm2.534,1.33-.028-.058c1.331-.648,2.661-1.322,3.982-2.006a10.347,10.347,0,0,1-2.159.383c-.23.024-.447.047-.665.075l-.034,0c-.286.019-.57.053-.863.092l.128.006,1.955.107-1.7.965q-.438.248-.881.481l.049-.009.175-.068.013.034ZM37.715,54.1,37.18,54l1.075-.786q.226-.165.477-.318c-.887.422-1.771.8-2.63,1.146a3.671,3.671,0,0,1,.963-.009Zm-3.892,2.2c-.16-.057-.318-.12-.475-.194l-1.139-.532,1.1-.488q-.511.178-.988.337l-.022.007a.419.419,0,0,0-.32.378A4.981,4.981,0,0,0,33.3,56.2l.145.029ZM64.3,56.076l-2.273-.143c1.466.13,2.936.229,4.376.325C65.707,56.2,65,56.136,64.3,56.076Zm24.69,8.994c1.278-1.416,2.538-2.858,3.773-4.28-.8.906-1.6,1.817-2.4,2.716l-.009.01c-.371.4-.737.824-1.091,1.236Zm-16.02-.509q-1.016-.221-2.041-.44a5.2,5.2,0,0,1,1.133.845c.1.094.2.183.3.267l.02.018c.154.144.311.288.469.431l.036-.274c.007-.052.019-.164.023-.212Zm10.316,3.283A10.757,10.757,0,0,0,82,67.569c-.259-.044-.526-.09-.791-.147l-3.745-.77-2.452-.5c.877.811,1.768,1.612,2.637,2.4.972.875,1.978,1.78,2.953,2.688a1.208,1.208,0,0,0,.274.185A32.448,32.448,0,0,0,83.289,67.845Zm3.723-.719a3.16,3.16,0,0,0,.521-.456l.014-.015.192-.207C87.505,66.681,87.264,66.909,87.012,67.126Zm-1.666.023q-.62-.113-1.24-.231.13.053.259.116l.542.263-.289.528-.035.063q.187-.257.393-.519l.171-.219Zm-8.167,2.516-.3-.27q-.543-.489-1.1-.987l.031.168c.083.443.142.888.184,1.333l.025-.637.729.249.393.133Zm6.8,1.013-.311-.171-.483-.267.129-.256q-.126.191-.257.383l.327.1C83.585,70.526,83.783,70.6,83.976,70.678Zm-4.963,2.174c-.454-.457-.951-.9-1.431-1.323-.157-.139-.316-.28-.476-.423-.023.916-.024,1.86.033,2.8.975.075,1.968.089,2.934.1l.518.008A6.539,6.539,0,0,1,79.013,72.853Zm6.173-.282c-.147-.077-.293-.155-.44-.234a12.172,12.172,0,0,0-1.329-.647l-.34.437c-.2.262-.413.53-.62.8.324.135.642.275.955.413a20.478,20.478,0,0,0,2.181.866c.811.039,1.6.058,2.358.058h.343c-.614-.364-1.248-.7-1.871-1.026C86.017,73.021,85.6,72.8,85.186,72.571Zm-4.064.213-.384-.168a3.854,3.854,0,0,1-.689-.359,5.542,5.542,0,0,0,.958.68l.077-.1Zm11.05,2.575c-.679-.451-1.375-.884-2.08-1.3q.183.131.363.268l1.234.947-1.553.081c-.7.037-1.438.055-2.184.055-.8,0-1.632-.021-2.486-.063l-.071,0-.068-.021a15.767,15.767,0,0,1-1.573-.584l-.145.537c1.624.083,3.264.146,4.886.146.283,0,.565,0,.838-.006.125,0,.256-.006.4-.006.224,0,.449,0,.666.009s.432.009.644.009A7.78,7.78,0,0,0,92.171,75.36Z" transform="translate(0)"/>
  </g>
</svg>
