<svg id="l7" xmlns="http://www.w3.org/2000/svg" width="96" height="80" viewBox="0 0 96 80">
  <rect id="Rectangle_5578" data-name="Rectangle 5578" width="96" height="80" fill="none"/>
  <g id="Group_66166" data-name="Group 66166" transform="translate(23.533 3.352)">
    <path id="Path_99967" data-name="Path 99967" d="M202.045,289.774l9.039,20.515-24.247,1.149,5.739-22.524Z" transform="translate(-174.16 -260.064)" fill="#08de6f"/>
    <ellipse id="Ellipse_545" data-name="Ellipse 545" cx="14.347" cy="12.554" rx="14.347" ry="12.554" transform="translate(10.202 5.5)" fill="#ffec00"/>
    <g id="Group_44043" data-name="Group 44043" transform="translate(0 5.295)">
      <path id="Path_99947" data-name="Path 99947" d="M185.193,58.077c-.383,0-.764-.016-1.146-.027-.8-.025-1.6-.09-2.392-.186a18.77,18.77,0,0,1-2.208-.412c-.406-.1-.81-.2-1.213-.31s-.8-.234-1.2-.361c-.357-.114-.7-.262-1.052-.4a9.148,9.148,0,0,1-1.286-.639,7.334,7.334,0,0,1-1.273-.944,9.236,9.236,0,0,1-1.845-2.474,11.6,11.6,0,0,1-.619-1.425,8.583,8.583,0,0,1-.423-1.6c-.047-.287-.066-.579-.09-.869-.014-.191-.032-.382-.039-.574-.008-.24-.017-.481-.025-.722a9.236,9.236,0,0,1,.039-1.122,10.308,10.308,0,0,1,.141-1.031c.04-.209.071-.421.124-.627q.087-.339.173-.678a9.573,9.573,0,0,1,.452-1.312,20.565,20.565,0,0,1,1.159-2.26c.171-.3.353-.6.541-.889.217-.335.426-.674.658-1,.361-.5.717-1.007,1.115-1.484a8.258,8.258,0,0,1,2.232-1.905c.234-.133.477-.247.719-.365.165-.08.33-.159.5-.23L178.8,34c.2-.084.415-.142.621-.212.447-.152.912-.257,1.372-.364.209-.049.415-.087.627-.122s.434-.08.653-.1l.814-.081c.091-.009.186-.006.277-.009l.477-.012a5.836,5.836,0,0,1,.615.027c.256.019.51.04.764.081a.718.718,0,0,1,.453.269c.173.03.345.064.516.1.367.079.726.18,1.087.284l2.151.625a18.131,18.131,0,0,1,2.112.727,16.124,16.124,0,0,1,2.026,1.074c.631.386,1.253.783,1.847,1.224s1.2.924,1.758,1.431c.3.271.591.547.866.843.132.143.253.3.377.445a4.7,4.7,0,0,1,.308.41,9.848,9.848,0,0,1,.633,1.07c.092.188.176.376.257.57s.141.376.206.566c.06.173.1.353.145.529.025.092.035.189.053.282s.039.193.05.29a9.948,9.948,0,0,1,.075,1.191,16.221,16.221,0,0,1-.195,2.335,15.252,15.252,0,0,1-.49,2.19c-.072.235-.141.47-.225.7a9.862,9.862,0,0,1-.664,1.455,8.875,8.875,0,0,1-1.421,1.84,18.928,18.928,0,0,1-1.96,1.757,10.513,10.513,0,0,1-1.247.831,10.217,10.217,0,0,1-1.436.655c-.226.086-.456.16-.686.238-.186.061-.371.129-.56.183-.362.1-.721.215-1.089.3l-.672.152c-.2.045-.4.066-.6.1a18.19,18.19,0,0,1-2.241.195c-.358.009-.715.018-1.073.018Zm-4.056-1.731c.419.072.841.122,1.263.173.692.053,1.382.1,2.076.118.376.012.752.016,1.128.019.3,0,.6-.012.905-.02.4-.025.8-.048,1.195-.086.2-.019.394-.033.59-.064l.669-.1.865-.2c.144-.032.285-.081.427-.121l.451-.129c.586-.2,1.17-.388,1.736-.637a9.427,9.427,0,0,0,.908-.483,12.837,12.837,0,0,0,1.078-.782c.3-.253.594-.506.879-.773.134-.125.274-.247.4-.379l.475-.491c.22-.249.429-.505.623-.775a8.472,8.472,0,0,0,.484-.814,9.334,9.334,0,0,0,.405-.941,17.834,17.834,0,0,0,.5-1.816c.051-.264.1-.526.141-.792.043-.287.077-.575.111-.863.019-.226.039-.451.051-.676.013-.269.017-.536.019-.806-.007-.133-.014-.266-.021-.4-.007-.148-.033-.3-.051-.444-.023-.122-.046-.243-.069-.365s-.065-.253-.1-.378l-.134-.391c-.043-.127-.1-.252-.157-.376l-.188-.383c-.062-.126-.14-.248-.212-.371-.117-.177-.234-.352-.361-.523-.115-.154-.235-.3-.357-.449-.195-.209-.393-.411-.6-.61-.4-.36-.812-.708-1.23-1.048s-.824-.632-1.25-.931c-.723-.478-1.458-.938-2.221-1.35-.261-.131-.524-.257-.793-.373s-.548-.219-.826-.319l.023.008c-.7-.23-1.406-.432-2.112-.637-.691-.2-1.38-.417-2.079-.586-.374-.079-.751-.144-1.13-.192a.667.667,0,0,1-.434-.244c-.187-.012-.373-.02-.56-.028-.2-.009-.411.007-.615.015l-.876.087c-.131.013-.264.043-.395.064l-.386.063-.793.185c-.222.052-.441.122-.661.186l-.33.112c-.1.034-.2.062-.3.1l-.669.282c-.378.183-.758.362-1.12.577a7.683,7.683,0,0,0-.666.485,9.548,9.548,0,0,0-.718.691,20.007,20.007,0,0,0-1.4,1.822c-.316.49-.628.98-.929,1.479-.277.457-.528.925-.773,1.4-.206.432-.412.859-.578,1.309s-.269.905-.386,1.366l-.1.518c-.056.3-.095.6-.123.9a10.281,10.281,0,0,0-.027,1.064c.007.214.015.427.022.64.035.457.064.914.135,1.367.046.24.1.476.17.712a13.119,13.119,0,0,0,.493,1.292,10.588,10.588,0,0,0,.544,1.009,10.337,10.337,0,0,0,.645.905,7.654,7.654,0,0,0,.591.624,7.8,7.8,0,0,0,.644.51,9.02,9.02,0,0,0,.775.461c.5.249,1.018.446,1.539.647.418.134.834.265,1.257.38s.874.226,1.313.333h0C180.337,56.194,180.734,56.277,181.137,56.347Z" transform="translate(-160.504 -33.095)" stroke="#000" stroke-width="0.5"/>
      <path id="Path_99948" data-name="Path 99948" d="M165.713,48.038a6.8,6.8,0,0,1-1.583-.333A3.172,3.172,0,0,1,163,47.054a2.257,2.257,0,0,1-.653-1.193,5.958,5.958,0,0,1,.087-2.385c.07-.368.165-.732.268-1.092s.209-.715.325-1.069c.064-.193.127-.386.19-.58.069-.211.152-.418.238-.622.041-.1.091-.188.141-.282a1.387,1.387,0,0,1,.233-.294.836.836,0,0,1,.516-.221.808.808,0,0,1,.611.214,3.051,3.051,0,0,1,.543.845c.224.409.458.811.7,1.208.375.567.757,1.133,1.187,1.661a7.683,7.683,0,0,0,.531.565c.105.092.213.179.326.261.071.045.144.087.219.127.12.058.243.109.367.157.032.01.065.02.1.029.052.009.1.017.157.022l-.066-.006a.739.739,0,0,1,.485.219.7.7,0,0,1,.072.889.717.717,0,0,1-.087.929,8.632,8.632,0,0,1-.957.75,4.713,4.713,0,0,1-.447.264,6.156,6.156,0,0,1-1.054.46,3.347,3.347,0,0,1-.979.146A3.3,3.3,0,0,1,165.713,48.038ZM163.9,45.945c.021.022.042.045.064.066.038.034.078.065.119.1.069.045.139.087.212.127.094.044.188.083.283.121a5.984,5.984,0,0,0,.612.165c.225.043.45.08.677.1.106.005.211.007.316.006.052,0,.1-.009.154-.017.1-.019.191-.042.287-.069.135-.048.267-.1.4-.156.236-.113.466-.237.692-.37.174-.118.343-.242.508-.373-.093-.036-.185-.075-.275-.116a4.221,4.221,0,0,1-1.284-.958,8.835,8.835,0,0,1-.862-1.05c-.142-.2-.29-.4-.425-.6-.261-.395-.523-.788-.76-1.2-.05-.086-.1-.173-.148-.259-.229.687-.427,1.383-.6,2.085-.067.349-.132.695-.167,1.048-.012.162-.018.324-.017.487.008.128.02.254.037.382.016.08.034.16.054.24.016.043.033.085.052.126l-.017-.026.02.032.014.031-.012-.025C163.852,45.878,163.875,45.912,163.9,45.945Z" transform="translate(-158.245 -34.824)" stroke="#000" stroke-width="0.5"/>
      <path id="Path_99949" data-name="Path 99949" d="M213.252,51.234l-.483,0c-.153,0-.308-.025-.461-.038a6.346,6.346,0,0,1-.936-.174,5.322,5.322,0,0,1-.741-.243,8.451,8.451,0,0,1-.883-.412.712.712,0,0,1,.732-1.222l.087.048a8.4,8.4,0,0,0,.844.357c.206.062.409.116.617.167l.391.063h-.006l.376.031c.111.009.225.007.337.006h.142l.465-.03c.164-.01.328-.041.491-.062.21-.038.42-.077.629-.126s.411-.108.617-.169c.264-.1.523-.2.781-.311.213-.1.419-.215.622-.337q.166-.113.321-.237c.072-.065.141-.132.209-.2s.115-.138.169-.209.1-.15.141-.229c.05-.1.1-.208.136-.315.027-.088.051-.176.071-.266.025-.133.043-.266.057-.4.013-.2.017-.4.014-.6-.009-.167-.018-.334-.027-.5-.01-.183-.039-.368-.058-.552-.013-.126-.03-.253-.049-.378-.054.073-.108.147-.163.219-.108.142-.215.284-.327.423a9.8,9.8,0,0,1-.82.886c-.2.193-.413.38-.629.56-.281.233-.557.472-.85.691a8.944,8.944,0,0,1-1.99,1.141,5.5,5.5,0,0,1-1.041.3,3.727,3.727,0,0,1-1.093.057,1.455,1.455,0,0,1-.9-.349.792.792,0,0,1-.239-.565.717.717,0,0,1,.728-.7.7.7,0,0,1,.452.18l.109.015c.095.005.188.007.282.005.125-.009.249-.022.373-.042.163-.032.323-.071.482-.117.2-.067.4-.142.589-.227a8.7,8.7,0,0,0,.83-.453,9.168,9.168,0,0,0,.9-.652l.555-.461-.074.061c.323-.29.643-.576.941-.892a15.663,15.663,0,0,0,1.066-1.391c.095-.136.19-.274.28-.413.17-.265.336-.557.654-.656a.732.732,0,0,1,.767.174,1.4,1.4,0,0,1,.314.771c.04.2.078.408.111.612.058.347.122.7.16,1.045.043.4.087.8.093,1.208a7.223,7.223,0,0,1-.024.75,5.363,5.363,0,0,1-.114.7,3.545,3.545,0,0,1-.645,1.322,4.888,4.888,0,0,1-2.046,1.432,10.2,10.2,0,0,1-1.13.394c-.155.047-.318.077-.476.115-.091.022-.186.034-.279.051s-.208.043-.313.056c-.172.022-.346.055-.518.066-.2.012-.4.036-.595.037Z" transform="translate(-171.354 -35.701)" stroke="#000" stroke-width="0.5"/>
      <path id="Path_99950" data-name="Path 99950" d="M184.482,41.243a.72.72,0,0,1-.37-.937c.412-.962.885-1.9,1.343-2.841.224-.461.448-.922.654-1.391q.176-.405.352-.81c.1-.24.214-.477.337-.708a1.047,1.047,0,0,1,.515-.505.724.724,0,0,1,.83.248h0a.715.715,0,0,1-.1.942c-.018.03-.035.061-.052.091-.238.484-.432.988-.658,1.477q-.352.758-.715,1.509c-.412.846-.834,1.689-1.2,2.554a.718.718,0,0,1-.66.427A.7.7,0,0,1,184.482,41.243Z" transform="translate(-164.305 -33.348)" stroke="#000" stroke-width="0.5"/>
      <path id="Path_99951" data-name="Path 99951" d="M188.208,42.363a.717.717,0,0,1-.487-.881c.193-.611.413-1.212.63-1.815.191-.532.388-1.063.6-1.59.225-.565.458-1.128.67-1.7l.336-.9a2.046,2.046,0,0,1,.268-.576.738.738,0,0,1,.583-.272.717.717,0,0,1,.7.728.691.691,0,0,1-.122.38c-.072.17-.131.347-.2.521l-.264.71c-.141.38-.3.757-.445,1.133q-.507,1.277-.97,2.569l.03-.087c-.152.43-.3.861-.443,1.294a.73.73,0,0,1-.687.515A.7.7,0,0,1,188.208,42.363Z" transform="translate(-165.316 -33.521)" stroke="#000" stroke-width="0.5"/>
      <path id="Path_99952" data-name="Path 99952" d="M196.986,42.592a.713.713,0,0,1-.5-.22.743.743,0,0,1-.2-.508q-.05-1.438-.1-2.877a17.665,17.665,0,0,0-.152-2.039.713.713,0,0,1,1.152-.632.739.739,0,0,1,.264.482,21.162,21.162,0,0,1,.17,2.556q.042,1.271.086,2.542a.716.716,0,0,1-.714.7Z" transform="translate(-167.637 -33.948)" stroke="#000" stroke-width="0.5"/>
      <path id="Path_99953" data-name="Path 99953" d="M186.548,52.725a.718.718,0,0,1-.7-.728c.025-.727.066-1.453.1-2.178q.054-1.055.084-2.11a.712.712,0,1,1,1.423.032q-.028,1.057-.084,2.111c-.038.726-.079,1.451-.1,2.177a.72.72,0,0,1-.712.7Z" transform="translate(-164.805 -36.965)" stroke="#000" stroke-width="0.5"/>
      <path id="Path_99954" data-name="Path 99954" d="M190.768,52.75a.715.715,0,0,1-.7-.728c.116-1.4.188-2.8.306-4.192a.747.747,0,0,1,.219-.5.713.713,0,0,1,1.2.532c-.118,1.4-.191,2.8-.306,4.192a.744.744,0,0,1-.22.5.716.716,0,0,1-.491.2Z" transform="translate(-165.978 -36.999)" stroke="#000" stroke-width="0.5"/>
      <path id="Path_99955" data-name="Path 99955" d="M183.483,58.467a7.593,7.593,0,0,1-1.05-.9,6.677,6.677,0,0,1-.921-1.192,4.588,4.588,0,0,1-.726-2.395.712.712,0,1,1,1.424.033v.078c.007.107.02.212.035.317.027.134.061.265.1.4s.09.254.143.378a6.045,6.045,0,0,0,.313.57c.117.178.24.349.374.515a8.178,8.178,0,0,0,.584.6c.165.146.336.284.515.414a7.837,7.837,0,0,0,.709.426,8.552,8.552,0,0,0,.865.373c.273.092.549.17.83.236s.583.106.879.137a8.04,8.04,0,0,0,.845.016c.313-.017.622-.048.933-.095a8.679,8.679,0,0,0,.908-.215,8.474,8.474,0,0,0,.828-.313,7.7,7.7,0,0,0,.778-.419c.2-.132.4-.272.594-.425q.223-.195.427-.41a6.088,6.088,0,0,0,.387-.493,10.774,10.774,0,0,0,.547-.934c.147-.3.287-.593.406-.9.025-.075.049-.15.071-.227a.712.712,0,0,1,1.37.393,7.338,7.338,0,0,1-.4,1.027c-.079.171-.167.339-.257.505a9.763,9.763,0,0,1-.537.906,6.369,6.369,0,0,1-.892,1.047,6.929,6.929,0,0,1-1.306.927,8.321,8.321,0,0,1-2.851.962,8,8,0,0,1-1.253.1A8.287,8.287,0,0,1,183.483,58.467Z" transform="translate(-163.397 -38.709)" stroke="#000" stroke-width="0.5"/>
      <path id="Path_99956" data-name="Path 99956" d="M177.163,89.432c-.744-.009-1.487-.049-2.23-.089-.4-.021-.8-.045-1.195-.077a5.867,5.867,0,0,1-.957-.136,1.112,1.112,0,0,1-.451-.24.927.927,0,0,1-.312-.58,2.579,2.579,0,0,1,.1-.769c.036-.178.075-.354.113-.531.084-.388.173-.774.263-1.161.342-1.477.748-2.938,1.137-4.4.412-1.558.819-3.117,1.25-4.669.4-1.45.86-2.885,1.313-4.319.31-.98.623-1.959.929-2.939.285-.914.564-1.829.78-2.762.018-.093.037-.186.051-.281a.712.712,0,0,1,1.423.066,2.557,2.557,0,0,1-.09.545c-.04.174-.074.35-.121.523-.1.365-.2.731-.308,1.094-.215.722-.435,1.442-.664,2.16q-.746,2.338-1.467,4.683c-.451,1.478-.849,2.97-1.244,4.464s-.8,2.987-1.191,4.483c-.236.907-.45,1.819-.654,2.734h0l0,.019v.007h0v0l0,.012,0,.012c-.039.179-.078.359-.114.539l.171.019c1.476.111,2.956.18,4.436.18q2.415,0,4.828-.044,1.737-.035,3.475-.061c1.156-.018,2.31-.022,3.466-.051q1.249-.063,2.492-.191c.852-.086,1.7-.179,2.547-.316.352-.065.7-.131,1.054-.206s.716-.15,1.067-.252l.038-.014h0v-.064c0-.04-.008-.08-.014-.121-.045-.231-.114-.455-.18-.681-.149-.459-.3-.916-.458-1.373-.175-.514-.357-1.029-.505-1.551-.284-1-.541-2.006-.827-3.006l-.21-.646c-.074-.225-.165-.446-.248-.669-.159-.426-.352-.842-.537-1.256-.264-.567-.531-1.132-.812-1.692s-.591-1.092-.9-1.628-.623-1.084-.925-1.632-.6-1.087-.923-1.617c-.326-.509-.666-1-1.035-1.484s-.741-.941-1.089-1.428a.712.712,0,0,1,1.154-.835c.411.575.861,1.12,1.285,1.685a19.737,19.737,0,0,1,1.243,1.89c.393.672.756,1.364,1.139,2.042.362.643.746,1.273,1.092,1.923.336.632.646,1.276.947,1.925s.588,1.314.839,1.99c.236.636.432,1.289.606,1.944.19.718.383,1.435.585,2.15.231.724.474,1.444.719,2.163.123.365.235.732.344,1.1a2.89,2.89,0,0,1,.117,1.113,1.137,1.137,0,0,1-.071.262,1.167,1.167,0,0,1-.108.24,1.443,1.443,0,0,1-.391.419,2.223,2.223,0,0,1-.757.293c-.193.048-.387.092-.581.136q-.528.12-1.063.217c-.754.138-1.51.24-2.271.321-.725.077-1.45.151-2.178.2-.79.058-1.58.082-2.372.092q-2.275.029-4.549.066c-1.536.027-3.072.063-4.608.066h-.762C178.24,89.441,177.7,89.439,177.163,89.432Z" transform="translate(-160.957 -42.192)" stroke="#000" stroke-width="0.5"/>
      <path id="Path_99957" data-name="Path 99957" d="M174.25,95.511v0h0v0Z" transform="translate(-161.579 -50.448)" stroke="#000" stroke-width="0.5"/>
      <path id="Path_99958" data-name="Path 99958" d="M174.258,95.474v0Z" transform="translate(-161.582 -50.439)" stroke="#000" stroke-width="0.5"/>
      <path id="Path_99959" data-name="Path 99959" d="M174.256,95.477l0,.015V95.5Z" transform="translate(-161.58 -50.44)" stroke="#000" stroke-width="0.5"/>
      <path id="Path_99960" data-name="Path 99960" d="M190.6,109.144a1.668,1.668,0,0,1-.381-.1.992.992,0,0,1-.266-.162,1.207,1.207,0,0,1-.195-.2,2.2,2.2,0,0,1-.281-.488,2.434,2.434,0,0,1-.146-.612,4.271,4.271,0,0,1-.019-.854c.007-.144.02-.287.037-.43-.089.083-.183.163-.279.238a4.528,4.528,0,0,1-2.721.966,4,4,0,0,1-1.312-.228,3.9,3.9,0,0,1-1.341-.806,5.3,5.3,0,0,1-.886-1.035,6.181,6.181,0,0,1-.666-1.417c-.185-.539-.3-1.094-.435-1.647-.086-.364-.147-.737-.208-1.107-.141-.858-.259-1.718-.317-2.586a.712.712,0,0,1,1.416-.149c.061.917.193,1.823.34,2.729.136.693.277,1.384.474,2.063a7.8,7.8,0,0,0,.3.814q.121.25.264.488c.1.143.2.28.3.414s.217.238.334.349c.108.094.217.182.332.266.089.056.177.11.268.162s.163.073.248.106c.12.039.241.072.364.1s.235.04.352.052c.095.005.188.006.283.006.111-.008.221-.019.331-.036s.248-.056.371-.09c.146-.049.289-.1.43-.165.116-.056.227-.116.338-.182s.194-.138.289-.212a8.212,8.212,0,0,0,.624-.625c.268-.326.525-.658.776-1,.121-.163.243-.326.362-.49s.239-.339.371-.5a.707.707,0,0,1,1-.11.728.728,0,0,1,.83.346,6.082,6.082,0,0,1,.85,2.614,4.693,4.693,0,0,1-.106,1.282,3.791,3.791,0,0,1-.2.635,3.326,3.326,0,0,1-.365.627,2.9,2.9,0,0,1-.445.48,2.038,2.038,0,0,1-.51.339,1.908,1.908,0,0,1-.538.148,1.025,1.025,0,0,1-.126.008A1.412,1.412,0,0,1,190.6,109.144Zm.218-1.438.041-.022c.032-.022.065-.046.1-.071.061-.055.118-.111.173-.17s.1-.121.145-.184.078-.128.114-.194.064-.144.092-.217.049-.172.069-.259q.037-.2.059-.4.015-.226.012-.453c-.008-.113-.02-.225-.036-.339-.029-.147-.065-.291-.1-.436-.068-.21-.141-.416-.225-.619q-.078.237-.149.479c-.078.268-.142.539-.209.809-.033.178-.066.357-.1.536s-.042.339-.059.508-.017.354-.014.532c.007.1.017.2.032.307.007.037.017.073.026.109s.019.055.03.082h.005Z" transform="translate(-163.507 -51.11)" stroke="#000" stroke-width="0.5"/>
      <path id="Path_99961" data-name="Path 99961" d="M201.386,108.317a1.062,1.062,0,0,1-.5-.193,1.33,1.33,0,0,1-.382-.444,2.316,2.316,0,0,1-.188-.537,3.515,3.515,0,0,1-.053-.744,5.19,5.19,0,0,1,.047-.644c.023-.179.042-.36.071-.539.046-.276.09-.554.148-.828-.1.047-.2.09-.3.129a3.026,3.026,0,0,1-1.386.153,2.5,2.5,0,0,1-1.035-.386,3.23,3.23,0,0,1-.927-.937,7.6,7.6,0,0,1-.761-1.585c-.065-.165-.112-.339-.166-.507s-.1-.315-.144-.475c-.105-.381-.2-.762-.3-1.146-.077-.31-.147-.622-.22-.934-.08-.334-.167-.666-.24-1a.712.712,0,0,1,1.386-.329c.119.555.264,1.106.393,1.659s.269,1.073.416,1.606c.14.43.282.856.463,1.271.089.189.185.372.29.552.069.106.142.208.22.308.054.061.109.118.167.175s.113.093.172.136c.04.026.082.051.123.073s.075.035.113.05c.064.02.127.038.191.053.042.007.084.014.126.018s.113,0,.169,0,.119-.01.179-.019.124-.026.185-.043c.09-.03.176-.063.263-.1s.169-.087.252-.135a7.054,7.054,0,0,0,.581-.433c.11-.093.219-.186.323-.286a1.393,1.393,0,0,1,.305-.246.686.686,0,0,1,.357-.082.671.671,0,0,1,.148-.077.716.716,0,0,1,.918.413c.126.393.232.791.334,1.19.1.382.17.765.235,1.153a4.781,4.781,0,0,1,.045.8,4.124,4.124,0,0,1-.271,1.4,2.791,2.791,0,0,1-.619,1.025,1.485,1.485,0,0,1-.985.494A.787.787,0,0,1,201.386,108.317Zm.45-3.19c-.046.277-.084.554-.121.832-.016.2-.03.4-.031.6.044-.092.084-.185.12-.28.041-.121.079-.243.11-.368.022-.109.038-.217.051-.328.007-.137.01-.274.009-.412-.01-.165-.028-.329-.052-.492C201.89,104.831,201.86,104.978,201.836,105.127Z" transform="translate(-167.356 -50.814)" stroke="#000" stroke-width="0.5"/>
      <path id="Path_99962" data-name="Path 99962" d="M206.051,75.414a10.189,10.189,0,0,1-2.3-.359,14.58,14.58,0,0,1-2.224-.792c-.188-.086-.383-.163-.565-.263l-.58-.319c-.309-.17-.6-.369-.9-.56-.178-.116-.345-.251-.516-.376-.13-.1-.261-.191-.385-.295l-.569-.472c-.14-.116-.269-.246-.4-.37-.159-.149-.326-.292-.475-.451l-.586-.626c-.292-.311-.564-.642-.848-.962-.3-.342-.615-.679-.927-1.016a8.518,8.518,0,0,1-.866-1.022.712.712,0,1,1,1.154-.835c.076.113.163.219.249.324.557.633,1.14,1.241,1.7,1.874.322.368.646.731.981,1.088.28.3.582.576.882.856l.706.587c.105.087.222.163.332.245l.341.25c.228.147.456.292.683.44.11.071.234.129.349.192l.357.2.744.341c.225.1.464.181.7.269l.62.205c.2.066.414.113.62.17.256.056.512.11.772.151.29.044.577.073.868.1.362.013.721.019,1.084.017.244-.012.487-.026.73-.045.225-.019.448-.056.671-.093.306-.064.608-.139.909-.225a13.416,13.416,0,0,0,1.414-.519c.267-.13.526-.269.78-.422.193-.127.381-.258.563-.4a4.9,4.9,0,0,0,.368-.357c.461-.531.868-1.208,1.573-1.435a1.7,1.7,0,0,1,.528-.081.931.931,0,0,1,.8.515,1.631,1.631,0,0,1,.128,1.071.722.722,0,0,1-.811.6.739.739,0,0,1-.556-.44c-.211.253-.412.514-.634.757a5.343,5.343,0,0,1-.856.747,8.842,8.842,0,0,1-1.992,1.032c-.351.133-.711.247-1.072.349a11.2,11.2,0,0,1-1.191.261,9.019,9.019,0,0,1-1.124.1c-.186.008-.37.011-.555.011C206.5,75.426,206.274,75.421,206.051,75.414Z" transform="translate(-167.011 -42.357)" stroke="#000" stroke-width="0.5"/>
      <path id="Path_99963" data-name="Path 99963" d="M220.78,75.685a1.146,1.146,0,0,1-.531-.6,1.788,1.788,0,0,1-.126-.687.717.717,0,0,1,.728-.7.685.685,0,0,1,.3.074c.012-.042.025-.084.036-.126a.711.711,0,0,1,1.409.155,2.249,2.249,0,0,1-.186.674,5.586,5.586,0,0,1-.323.684,1.113,1.113,0,0,1-.931.605A.822.822,0,0,1,220.78,75.685Z" transform="translate(-174.334 -44.213)" stroke="#000" stroke-width="0.5"/>
      <path id="Path_99964" data-name="Path 99964" d="M164.1,79.657a5.025,5.025,0,0,1-1.968-1.422,11.563,11.563,0,0,1-.765-.945c-.138-.195-.271-.4-.394-.6a1.752,1.752,0,0,1-.354.358,1.513,1.513,0,0,1-1.091.321,1.236,1.236,0,0,1-.887-.619,2.36,2.36,0,0,1,.282-2.286,1.65,1.65,0,0,1,.866-.737,1.245,1.245,0,0,1,1.071.163,2.858,2.858,0,0,1,.869,1.2c.158.308.32.612.492.913.109.172.22.34.338.506s.235.31.357.463c.2.233.407.464.63.681.135.119.274.232.42.337.11.071.221.14.335.2s.22.1.334.144c.129.043.258.079.388.113s.253.045.381.059c.111.006.222.008.333.007s.237-.021.354-.039c.1-.02.2-.044.3-.07.144-.047.282-.1.419-.162.154-.075.3-.157.451-.246a8.223,8.223,0,0,0,.7-.514c.375-.321.713-.674,1.055-1.029a10.638,10.638,0,0,0,.736-.914,13.376,13.376,0,0,0,.689-1.159c.3-.593.589-1.187.863-1.792q.451-.993.9-1.986.873-1.919,1.626-3.889c.061-.174.123-.347.183-.52a4.349,4.349,0,0,1,.242-.663.711.711,0,0,1,1.245.687l.015-.03.02-.056c-.007.018-.012.036-.02.053l0-.006-.01.027c-.234.677-.466,1.354-.737,2.017-.3.729-.6,1.457-.918,2.177s-.656,1.453-.985,2.178q-.254.56-.513,1.118c-.171.37-.352.733-.535,1.1a11.855,11.855,0,0,1-1.314,2.105c-.2.249-.414.484-.635.713-.167.174-.332.352-.507.519a6.838,6.838,0,0,1-2.437,1.595,3.925,3.925,0,0,1-1.29.213A4.392,4.392,0,0,1,164.1,79.657Z" transform="translate(-157.187 -42.019)" stroke="#000" stroke-width="0.5"/>
      <path id="Path_99965" data-name="Path 99965" d="M221.085,75.458a1.2,1.2,0,0,1-.64-.719,1.974,1.974,0,0,1-.038-.973,2.722,2.722,0,0,1,.278-.84.84.84,0,0,1,.638-.5.721.721,0,0,1,.78.605.684.684,0,0,1,.341-.194.716.716,0,0,1,.858.528,2.024,2.024,0,0,1-.365,1.545,1.584,1.584,0,0,1-.807.591,1.648,1.648,0,0,1-.474.074A1.433,1.433,0,0,1,221.085,75.458Zm.816-1.774c-.03.087-.056.174-.079.263-.007.032-.012.066-.017.1.01-.016.019-.033.03-.05s.021-.048.031-.072c.013-.045.025-.09.037-.134,0-.027.007-.053.011-.079v-.028l0-.021Z" transform="translate(-174.401 -44.03)" stroke="#000" stroke-width="0.5"/>
      <path id="Path_99966" data-name="Path 99966" d="M179.327,113.453c-.236,0-.473,0-.709-.016l-.929-.046c-.268-.013-.536-.037-.8-.056-.5-.035-1-.082-1.5-.126-.284-.025-.569-.064-.853-.1-.209-.023-.414-.051-.622-.082-.248-.037-.5-.066-.744-.113l-.931-.178c-.242-.046-.482-.105-.723-.159-.206-.046-.413-.092-.618-.143l-.877-.218c-.271-.067-.54-.153-.809-.229-.209-.059-.413-.126-.619-.2-.232-.079-.469-.149-.7-.242-.269-.11-.539-.221-.809-.33-.1-.04-.194-.092-.29-.139l-.5-.235c-.219-.1-.43-.228-.643-.344l-.37-.2c-.069-.038-.134-.084-.2-.126l-.723-.464c-.086-.055-.165-.122-.247-.183l-.461-.347c-.061-.046-.126-.09-.185-.14l-.326-.28c-.182-.156-.367-.308-.543-.474l-.661-.62c-.066-.061-.127-.127-.191-.191l-.405-.408c-.154-.155-.3-.318-.448-.479l-.334-.366c-.13-.143-.251-.292-.373-.443a10.525,10.525,0,0,1-1.168-1.795c-.118-.23-.234-.463-.331-.7l-.167-.414c-.086-.213-.178-.424-.254-.642l-.321-.923c-.078-.226-.143-.457-.214-.685-.064-.209-.131-.415-.188-.625-.084-.318-.17-.637-.256-.955-.06-.223-.1-.453-.145-.679s-.1-.44-.13-.663c-.043-.326-.087-.651-.131-.978-.03-.219-.041-.443-.061-.663-.021-.239-.051-.478-.061-.717-.014-.315-.029-.63-.043-.944-.009-.193-.021-.387-.022-.581,0-.531-.007-1.061.01-1.591q.015-.486.031-.974c.007-.229.028-.457.043-.685s.025-.477.047-.715c.029-.307.056-.614.084-.921.017-.19.032-.381.055-.57q.061-.507.122-1.014c.062-.511.146-1.019.224-1.527.063-.409.141-.815.212-1.222s.158-.815.238-1.222c.15-.762.322-1.52.491-2.279v-.005l-.007.031.014-.061v.007c.09-.417.18-.832.269-1.248.041-.189.08-.379.127-.566l.082-.332c.012-.051.03-.1.045-.152a1.248,1.248,0,0,1,.06-.18.356.356,0,1,1,.653.283.392.392,0,0,0-.024.066c.005-.014.01-.029.016-.043-.1.342-.178.689-.256,1.036l0-.008c-.1.448-.193.9-.291,1.346l0-.019c-.071.335-.146.669-.22,1l.005-.026c-.1.451-.2.9-.285,1.354-.064.322-.127.643-.191.965-.045.227-.079.455-.12.682s-.083.453-.118.681q-.075.484-.148.97c-.079.519-.135,1.042-.2,1.564-.06.5-.093,1-.14,1.5-.024.368-.048.737-.071,1.105-.019.292-.025.584-.034.876s-.022.582-.022.873c0,.386,0,.773,0,1.158h0c.017.334.031.667.046,1,.012.267.033.531.056.8l.056.649c.007.082.013.164.024.245.047.346.092.692.139,1.037.081.379.156.759.237,1.138.012.055.029.108.043.162.037.136.073.272.11.408.051.19.1.38.153.57,0-.014-.009-.029-.014-.043.1.3.188.607.282.911.073.235.155.466.236.7s.158.464.25.692c.134.333.26.669.409,1l-.02-.043a11.4,11.4,0,0,0,.653,1.222,11.72,11.72,0,0,0,.855,1.166l-.031-.037c.2.243.422.473.635.707.155.171.315.335.478.5s.336.346.512.511c.212.2.423.4.635.595l.768.658c.037.032.079.06.118.09l.3.229.408.306c.291.188.584.375.876.562.035.022.072.04.108.059l.328.18.453.248.849.4c.128.06.264.108.4.162l.476.193.464.157c.152.052.305.112.461.156l.546.155c.169.047.337.1.507.143l1.081.269c.349.086.7.156,1.051.233l-.045-.009.529.1c.164.031.329.069.494.093l.6.091c.15.022.3.049.452.066.371.042.742.092,1.114.125l1.113.1,1.08.075c.165.012.33.017.495.025.18.009.361.024.541.027l.57.011c.162,0,.327.014.489.009l1.086-.035,1.18-.1c.185-.017.369-.051.552-.076l.575-.079.861-.157c.229-.042.455-.1.682-.149s.454-.1.679-.165l.843-.235,1.035-.344c.055-.018.108-.043.162-.064l.356-.142.5-.2.942-.45c.035-.017.07-.04.1-.059l.318-.181.445-.252.748-.5c.055-.037.106-.076.159-.117l.466-.359c.183-.142.367-.283.547-.43l.766-.626.582-.493c.171-.145.331-.3.494-.457.144-.137.288-.271.425-.417l.552-.59.535-.64c.137-.165.264-.335.393-.506s.271-.353.4-.536l.453-.648c.477-.723.962-1.442,1.409-2.184.235-.391.471-.781.7-1.178.215-.38.419-.764.625-1.149.3-.589.587-1.182.849-1.787.144-.333.28-.666.414-1,.112-.279.214-.563.317-.846.1-.323.212-.645.3-.972.11-.395.213-.791.313-1.188.171-.676.317-1.359.471-2.04.051-.234.1-.468.154-.7l-.009.045q.319-1.479.562-2.972c.165-1.017.288-2.039.414-3.061q.132-1.079.267-2.158c.088-.7.172-1.395.239-2.094l0,.032,0-.033v0c.136-1.691.246-3.386.3-5.083a.356.356,0,0,1,.712.017c-.03,1.011-.082,2.022-.148,3.032q-.051.782-.108,1.564c-.038.52-.092,1.038-.149,1.557s-.126,1.025-.191,1.537c-.06.478-.118.955-.177,1.433-.124,1-.232,2.012-.394,3.011-.107.658-.212,1.317-.343,1.971q-.206,1.034-.431,2.064l.006-.027c-.1.473-.21.944-.322,1.415-.119.5-.235,1.006-.374,1.5s-.275.989-.452,1.471c-.087.238-.17.477-.264.712s-.189.49-.293.731c-.211.487-.419.977-.656,1.452-.123.248-.248.5-.372.743s-.27.508-.4.762c-.233.437-.489.863-.744,1.287s-.508.83-.771,1.239c-.137.212-.273.427-.413.637-.153.231-.3.465-.461.692l-.51.73c-.147.209-.308.409-.461.614-.136.18-.277.352-.421.525-.16.191-.313.387-.484.568l-.646.69c-.05.053-.1.1-.157.151l-.409.386c-.173.163-.354.314-.534.467s-.344.291-.519.434l-.752.614c-.191.156-.391.3-.587.453-.17.131-.337.266-.516.385l-.436.29c-.1.066-.2.14-.3.2l-.752.427c-.194.109-.395.2-.594.3s-.412.206-.625.292l-.9.361c-.218.087-.447.153-.67.227-.207.069-.412.14-.622.2l-.889.248c-.073.021-.148.035-.222.052l-.553.128c-.207.048-.414.087-.623.126-.251.046-.5.1-.753.136l-.954.131c-.207.028-.416.045-.624.063l-.53.046c-.086.008-.172.017-.258.02l-.923.03c-.083,0-.165,0-.248,0C179.587,113.458,179.458,113.455,179.327,113.453Z" transform="translate(-156.7 -44.752)" stroke="#000" stroke-width="0.5"/>
    </g>
  </g>
</svg>
