<svg xmlns="http://www.w3.org/2000/svg" width="93.285" height="87.198" viewBox="0 0 93.285 87.198">
  <path id="m-arrow-2" d="M49.787.115a.378.378,0,1,0,.535,0,.373.373,0,0,0-.535,0ZM22.228,4.086c-5.366,4.371-9.954,9.934-14.738,14.92-3.38,3.527-10.529,8.852-6.062,14.2,1.8,2.172,4.9,3.133,7.386,4.369L17.947,42.1q4.578,2.259,9.16,4.477C30.063,48,32.574,49.76,35.914,48.6c1.955-.678,3.688-2.795,2.915-5.008-1.713-4.936-7.5-6.4-11.9-8.527-4.548-2.2-9.1-4.328-13.635-6.5,12.972-5.539,27.971-4.783,41.539-1.877a96.654,96.654,0,0,1,17.512,5.285c8.5,3.646,10.687-3.391,2.082-6.746a98.359,98.359,0,0,0-35.468-6.693c-7.937-.008-16.2.881-23.507,4q.505-.668,1.014-1.336c3.42-4.508,7.229-8.918,10.054-13.818,1.21-2.131-.537-3.955-2.443-3.955A2.909,2.909,0,0,0,22.228,4.086Z" transform="matrix(-0.799, -0.602, 0.602, -0.799, 63.81, 87.2)" fill="#34ff97"/>
</svg>
