<svg xmlns="http://www.w3.org/2000/svg" width="118.01" height="117.021" viewBox="0 0 118.01 117.021">
  <g id="m-arrow-1" transform="translate(-1298.549 -663.168)">
    <path id="m-arrow-1-2" data-name="m-arrow-1" d="M16123.15,20131.611a.38.38,0,0,1,.534-.541.392.392,0,0,1,0,.541.386.386,0,0,1-.269.109A.376.376,0,0,1,16123.15,20131.611Zm-27.561-3.971c-5.367-4.375-9.957-9.936-14.74-14.926-3.383-3.523-10.529-8.85-6.062-14.2,1.807-2.172,4.895-3.129,7.388-4.369l9.136-4.514q4.569-2.262,9.158-4.477c2.955-1.426,5.467-3.186,8.808-2.031,1.951.676,3.685,2.8,2.913,5.008-1.714,4.932-7.494,6.4-11.9,8.531-4.55,2.191-9.1,4.324-13.642,6.5,12.971,5.539,27.974,4.783,41.545,1.879,7.873-1.7,24.663-5.777,29.75-14.566-.659.016-1.322,0-1.987-.039-8.38-.539-19.811-6.449-20.456-15.98-.683-10.121,11.084-14.588,19.021-10.742,5.739,2.754,10.32,8.828,12.071,15.316a15.712,15.712,0,0,0,5.51-8.2c1.847-6.719-1.264-13.895-5.132-19.3-9.108-12.773-24.228-17.727-39.3-16.578-5.077.387-6.23-8.047-1.148-8.955,18.722-3.322,38.838,6.684,48.817,22.658,5.027,8.156,7.5,18.346,3.527,27.408a24.45,24.45,0,0,1-11.881,12.223c-1.949,9.33-10.9,14.975-19.2,18.217a98.5,98.5,0,0,1-35.467,6.691c-7.938.008-16.2-.879-23.508-4q.507.668,1.014,1.336c3.417,4.5,7.23,8.914,10.052,13.816,1.21,2.133-.54,3.955-2.444,3.957A2.9,2.9,0,0,1,16095.59,20127.641Zm49.139-55.707c-2.253,2.348.558,5.213,2.474,6.773a15.33,15.33,0,0,0,11.872,3.457c-.077-.309-.165-.621-.267-.937-1.091-3.4-6.08-10.848-10.735-10.848A4.536,4.536,0,0,0,16144.729,20071.934Z" transform="matrix(0.995, -0.105, 0.105, 0.995, -16779.98, -17561.125)" fill="#edddff"/>
  </g>
</svg>
