<svg id="mayket" xmlns="http://www.w3.org/2000/svg" width="162.398" height="36.416" viewBox="0 0 162.398 36.416">
  <g id="Group_55055" data-name="Group 55055" transform="translate(108.547 12.359)">
    <path id="Path_105762" data-name="Path 105762" d="M1046.183,67.458c.122.386.224.793.345,1.179a4.758,4.758,0,0,0,.142.508,4.967,4.967,0,0,1,.122.528,4.823,4.823,0,0,1,.1.528,4.208,4.208,0,0,1,.061.467.5.5,0,0,0,.02.163v.2a3.837,3.837,0,0,1-.163,1.077,4.39,4.39,0,0,1-.447,1,4.921,4.921,0,0,1-.691.914,6.814,6.814,0,0,1-.874.833,8.813,8.813,0,0,1-1,.711,7.742,7.742,0,0,1-1.057.589l-.549-1.118a12.16,12.16,0,0,0,1.3-.772,6.428,6.428,0,0,0,1.118-.955,5,5,0,0,0,.793-1.1,2.563,2.563,0,0,0,.3-1.2v-.1a.345.345,0,0,0-.02-.142h0c-.02-.122-.041-.284-.061-.427a4.174,4.174,0,0,0-.1-.488l-.122-.488c-.041-.163-.081-.325-.122-.467-.1-.366-.2-.711-.325-1.077Zm.3-2.6-1.036,1.036-1.057-1.057,1.036-1.036Z" transform="translate(-1042.2 -61.158)"/>
    <path id="Path_105763" data-name="Path 105763" d="M1075.724,62.579q.092-1.463.122-2.743c.02-.853.02-1.666,0-2.4s-.041-1.382-.081-1.971-.081-1.077-.122-1.483-.061-.732-.1-.955c-.02-.224-.041-.345-.041-.345l1.26-.183c0,.02.041.284.1.772.02.244.061.508.081.793s.041.589.061.914.041.63.061.914.02.569.041.833c.02.793.041,1.666.02,2.662,0,1-.041,2.073-.122,3.251Z" transform="translate(-1068.733 -52.155)"/>
    <path id="Path_105764" data-name="Path 105764" d="M1118.237,72.379a2.579,2.579,0,0,1-.406-.691c-1.118,1.179-2.906,1.768-5.324,1.768a9.575,9.575,0,0,1-3.211-.467,3.344,3.344,0,0,1-1.849-1.422,2.638,2.638,0,0,1-.285-.65,3.879,3.879,0,0,1-.122-.671,3.465,3.465,0,0,1,0-.65c.02-.2.061-.406.1-.61.061-.2.1-.386.163-.549s.1-.3.142-.427a1.981,1.981,0,0,1,.122-.284.315.315,0,0,0,.061-.122l1.1.61-.061.122a1.853,1.853,0,0,0-.122.325,4.422,4.422,0,0,0-.142.467,2.558,2.558,0,0,0-.081.549,1.968,1.968,0,0,0,.041.589,1.908,1.908,0,0,0,.2.569,2.437,2.437,0,0,0,1.382.975,8.264,8.264,0,0,0,2.561.325,10.13,10.13,0,0,0,2.4-.244,4.412,4.412,0,0,0,1.646-.772,3,3,0,0,0,.508-.508,3.384,3.384,0,0,0,.366-.569,3.615,3.615,0,0,0,.244-.589c.061-.2.122-.386.183-.589l1.219.325c-.02.081-.041.183-.061.284s-.061.224-.081.345a1.821,1.821,0,0,0-.061.63,2.951,2.951,0,0,0,.081.569,1.182,1.182,0,0,0,.264.528,1.825,1.825,0,0,0,1.524.569.63.63,0,1,1,0,1.26h-.061A2.747,2.747,0,0,1,1118.237,72.379Zm-5.487-5.223-1.036,1.036-1.057-1.036,1.036-1.036Zm2.621,0-1.036,1.036-1.057-1.057,1.036-1.036Z" transform="translate(-1093.852 -62.991)"/>
    <path id="Path_105765" data-name="Path 105765" d="M1171.8,60.615a.6.6,0,0,1,.183-.447.631.631,0,0,1,.447-.183,12.707,12.707,0,0,0,1.3-.061,6.664,6.664,0,0,0,1.057-.183,3.654,3.654,0,0,0,.793-.244,1.787,1.787,0,0,0,.488-.244.886.886,0,0,0,.142-.122c.041-.041.061-.081.1-.122h-.65a3.741,3.741,0,0,1-.671-.061,2.673,2.673,0,0,1-.61-.163,4.265,4.265,0,0,1-.528-.264,1.747,1.747,0,0,1-.406-.366,1.729,1.729,0,0,1-.183-.284,1.7,1.7,0,0,1-.142-.386,1.778,1.778,0,0,1-.061-.488,3.078,3.078,0,0,1,.041-.589,3.838,3.838,0,0,1,.264-.894,4.311,4.311,0,0,1,.427-.732,1.91,1.91,0,0,1,.65-.569,1.623,1.623,0,0,1,.732-.183,1.98,1.98,0,0,1,1.524.752,4.132,4.132,0,0,1,.528.752,6.128,6.128,0,0,1,.366.914,4.259,4.259,0,0,1,.183,1.016,4.419,4.419,0,0,1,0,1.036h0a4.48,4.48,0,0,1-.1.508c-.02.061-.041.122-.061.2a1.09,1.09,0,0,1-.122.285,2.751,2.751,0,0,1-.244.345,2.246,2.246,0,0,1-.386.366,3.067,3.067,0,0,1-.772.427,6.279,6.279,0,0,1-1.036.3,10.965,10.965,0,0,1-1.219.183c-.427.041-.874.061-1.3.061h-.1a.6.6,0,0,1-.447-.183A.444.444,0,0,1,1171.8,60.615Zm4.247-8.758-1.036,1.036-1.057-1.057,1.036-1.036Zm-.874,3.455a.328.328,0,0,0-.2.081,1.041,1.041,0,0,0-.244.264,2.1,2.1,0,0,0-.224.427,3.807,3.807,0,0,0-.163.569.866.866,0,0,0,.1.711.827.827,0,0,0,.366.244,2.315,2.315,0,0,0,.589.122c.224,0,.427.02.61.02a3.6,3.6,0,0,0,.488-.02,3.806,3.806,0,0,0-.244-1.179,2.521,2.521,0,0,0-.528-.914,1.514,1.514,0,0,0-.264-.224A.339.339,0,0,0,1175.173,55.311Z" transform="translate(-1145.464 -50.8)"/>
    <path id="Path_105766" data-name="Path 105766" d="M1213.325,64.432a4.07,4.07,0,0,1-1.2-.163,2.274,2.274,0,0,1-.854-.508,1.675,1.675,0,0,1-.325-.447,2.291,2.291,0,0,1-.162-.488,1.812,1.812,0,0,1-.061-.447V59.108c0-.366,0-.752-.02-1.138,0-.406-.02-.772-.041-1.158-.02-.366-.041-.711-.061-1.016a6,6,0,0,0-.1-.772l1.26-.224a6.959,6.959,0,0,1,.1.793c.02.325.061.65.081,1.036.02.366.041.752.041,1.158s.02.793.02,1.179v3.089a3.612,3.612,0,0,0,.02.488.526.526,0,0,0,.183.345,1.451,1.451,0,0,0,1.077.3h.061a.541.541,0,0,1,.244.061.715.715,0,0,1,.345.345.542.542,0,0,1,.061.244.6.6,0,0,1-.183.447A.639.639,0,0,1,1213.325,64.432Z" transform="translate(-1176.299 -53.987)"/>
    <path id="Path_105767" data-name="Path 105767" d="M1219.7,78.3a.624.624,0,0,1,.63-.63h1.2c.183,0,.345-.02.528-.02a2.378,2.378,0,0,0,.528-.081,3.139,3.139,0,0,0,.467-.142,1.47,1.47,0,0,0,.386-.224.9.9,0,0,0,.244-.3,1.729,1.729,0,0,0,.081-.772,6.3,6.3,0,0,0-.264-1.179c-.041-.142-.1-.284-.163-.447s-.122-.3-.183-.447c-.061-.163-.142-.325-.2-.488l1.138-.569.061.122c.041.081.081.2.142.325.061.142.122.3.2.488a5.028,5.028,0,0,1,.2.589,4.056,4.056,0,0,1,.142,2.865,2.365,2.365,0,0,1-1.605,1.362,2.214,2.214,0,0,1-.447.081,4.986,4.986,0,0,1-.549.041c-.183,0-.366.02-.528.02h-1.382a.6.6,0,0,1-.447-.183A.417.417,0,0,1,1219.7,78.3Zm3.069,2.825-1.036,1.036-1.057-1.036,1.036-1.036Zm2.642.02-1.036,1.036-1.057-1.057,1.036-1.036Z" transform="translate(-1183.63 -68.489)"/>
    <path id="Path_105768" data-name="Path 105768" d="M1251.583,81.8c.122.386.224.793.345,1.179a4.757,4.757,0,0,0,.142.508,4.967,4.967,0,0,1,.122.528,4.823,4.823,0,0,1,.1.528,4.208,4.208,0,0,1,.061.467.5.5,0,0,0,.02.163v.2a3.837,3.837,0,0,1-.163,1.077,4.39,4.39,0,0,1-.447,1,4.921,4.921,0,0,1-.691.914,6.814,6.814,0,0,1-.874.833,8.812,8.812,0,0,1-1,.711,7.743,7.743,0,0,1-1.057.589l-.549-1.118a12.159,12.159,0,0,0,1.3-.772,6.428,6.428,0,0,0,1.118-.955,5,5,0,0,0,.793-1.1,2.563,2.563,0,0,0,.3-1.2v-.1a.347.347,0,0,0-.02-.142h0c-.02-.122-.041-.285-.061-.427a4.174,4.174,0,0,0-.1-.488l-.122-.488c-.041-.163-.081-.325-.122-.467-.1-.366-.2-.711-.325-1.077Z" transform="translate(-1205.86 -75.5)"/>
    <path id="Path_105769" data-name="Path 105769" d="M1281.025,73.814a3.482,3.482,0,0,1-.732-.081c-.284-.061-.549-.122-.833-.2a5.366,5.366,0,0,1-.752-.264,1.845,1.845,0,0,1-.508-.3l.528-1.2a4.815,4.815,0,0,0,.569.3,3.66,3.66,0,0,0,.711.244c.244.061.508.122.772.163a3.3,3.3,0,0,0,.772.02,2.636,2.636,0,0,0,.691-.163,1.423,1.423,0,0,0,.528-.386c.122-.122.122-.386.041-.732a3.094,3.094,0,0,0-.224-.65,4.825,4.825,0,0,0-.386-.691,6.955,6.955,0,0,0-.488-.671,5.443,5.443,0,0,0-.569-.61,6.246,6.246,0,0,0-.589-.488,3.676,3.676,0,0,0-.589-.345l.508-1.158a4.873,4.873,0,0,1,.752.447,7.041,7.041,0,0,1,.752.61,8.183,8.183,0,0,1,.691.752,5.65,5.65,0,0,1,.589.833,8.858,8.858,0,0,1,.467.854,5.063,5.063,0,0,1,.285.833,2.587,2.587,0,0,1,.081.65,1.934,1.934,0,0,1-.061.508,1.718,1.718,0,0,1-.325.671,2.771,2.771,0,0,1-1.646.935,2.043,2.043,0,0,1-.508.081A2.318,2.318,0,0,1,1281.025,73.814Z" transform="translate(-1230.242 -63.389)"/>
  </g>
  <g id="mayket-2" data-name="mayket">
    <g id="XMLID_21_" transform="translate(45.742 6.406)">
      <g id="XMLID_22_">
        <path id="XMLID_26_" d="M694.009,51.217a1.564,1.564,0,0,0,1.147-.478,1.98,1.98,0,0,0,.239-.3,2.119,2.119,0,0,0,.223.3,1.529,1.529,0,0,0,1.131.478,1.5,1.5,0,0,0,1.131-.478,1.6,1.6,0,0,0-2.262-2.278.991.991,0,0,0-.223.3,1.425,1.425,0,0,0-.239-.3A1.549,1.549,0,0,0,694.009,48a1.529,1.529,0,0,0-1.131.478,1.592,1.592,0,0,0-.478,1.131,1.578,1.578,0,0,0,1.609,1.609Z" transform="translate(-686.204 -39.75)"/>
        <path id="XMLID_25_" d="M694,5.433a1.158,1.158,0,0,0-.94.414,1.4,1.4,0,0,0-.382.987,6.222,6.222,0,0,0,.207,1.226,5.877,5.877,0,0,1,.207,1.226c0,.972-.7,1.465-2.087,1.465h-1.625a5.1,5.1,0,0,1-3.552-1.625c-1.322-1.306-2.2-2.182-2.66-2.644-1.625-1.577-3.01-2.819-4.173-3.775a.683.683,0,0,1-.287-.526.481.481,0,0,1,.35-.43,53.211,53.211,0,0,1,7.47-2.278c.828-.175,1.226-.621,1.226-1.306,0-.908-.526-1.37-1.593-1.37a3.463,3.463,0,0,0-.637.08,30.769,30.769,0,0,0-8.537,3.026,2.614,2.614,0,0,0-1.21,2.421,2.61,2.61,0,0,0,.271,1.306,17.132,17.132,0,0,0,3.122,3.122c1.577,1.354,2.357,2.278,2.357,2.755,0,.653-.669,1.035-2.007,1.179-.287.032-1.37.032-3.265.032h-.86c-1.258,0-1.975-.51-2.182-1.529-.112-.573-.175-.924-.207-1.067a.962.962,0,0,0-.972-.621c-.43,0-.78.271-1.019.828a10.357,10.357,0,0,1-.764,1.561c-.828,1.051-3.026,1.577-6.578,1.577h-1.72c-2.421,0-4.077-.271-4.969-.844a1.935,1.935,0,0,1-.908-1.752,5.409,5.409,0,0,1,.143-1.019,5.577,5.577,0,0,0,.143-1.019.9.9,0,0,0-1.019-1.019c-.637,0-1.147.557-1.481,1.672a8.284,8.284,0,0,0-.366,2.437q0,4.874,8.314,4.874c5.32,0,8.633-.828,9.875-2.5a3.178,3.178,0,0,0,3.185,1.72h1a19.625,19.625,0,0,0,5.081-.446,3.79,3.79,0,0,0,2.787-2.851,6.941,6.941,0,0,0,5.814,3.3h1.258a4.889,4.889,0,0,0,3.663-1.37A5.08,5.08,0,0,0,695.8,8.921C695.787,6.6,695.2,5.433,694,5.433Z" transform="translate(-653.5 3.296)"/>
        <path id="XMLID_24_" d="M868.415,115.8a1.529,1.529,0,0,0-1.131.478,1.672,1.672,0,0,0-.414.7,1.581,1.581,0,0,0-.414-.7,1.529,1.529,0,0,0-1.131-.478,1.613,1.613,0,0,0-1.147.462,1.5,1.5,0,0,0-.478,1.131,1.631,1.631,0,0,0,1.625,1.625,1.5,1.5,0,0,0,1.131-.478.469.469,0,1,1,.8,0,1.529,1.529,0,0,0,1.131.478,1.631,1.631,0,0,0,1.625-1.625,1.6,1.6,0,0,0-1.593-1.593Z" transform="translate(-830.221 -96.751)"/>
        <path id="XMLID_23_" d="M943.148,7.19a2.765,2.765,0,0,0-2.469-1.37,3.733,3.733,0,0,0-2.66,1.433c-.175.207-.621.812-1.322,1.816a2.651,2.651,0,0,1-.924.924,2.6,2.6,0,0,1-1.242.239h-.366c-1.481,0-2.2-.908-2.2-2.708V-1.921c0-1.258-.478-1.879-1.433-1.879a1.261,1.261,0,0,0-1.115.605,2.332,2.332,0,0,0-.319,1.274l.319,8.935a13.592,13.592,0,0,0,.685,4.539c.621,1.322,1.863,1.975,3.727,1.975h1.019a3.582,3.582,0,0,0,2.628-1.083,3.882,3.882,0,0,0,3.138,1.449,2.869,2.869,0,0,0,2.421-1.21,4.177,4.177,0,0,0,.828-2.628A5.049,5.049,0,0,0,943.148,7.19Zm-2.6,3.982a2.44,2.44,0,0,1-1.019-.271c-.43-.223-.637-.478-.637-.749a1.369,1.369,0,0,1,.542-1.035,1.707,1.707,0,0,1,1.083-.494,1.015,1.015,0,0,1,.876.51,1.907,1.907,0,0,1,.271,1.019C941.667,10.837,941.316,11.172,940.552,11.172Z" transform="translate(-885.204 3.8)"/>
      </g>
    </g>
    <g id="XMLID_15_">
      <g id="XMLID_16_">
        <circle id="XMLID_20_" cx="18.208" cy="18.208" r="18.208" fill="#0091ea"/>
        <g id="XMLID_17_" transform="translate(6.726 9.876)">
          <path id="XMLID_19_" d="M500.658,31.278a6.47,6.47,0,0,0-11.319-3.983,6.477,6.477,0,0,0-11.319,3.8c0,.081-.02.163-.02.244v7.316a1.63,1.63,0,0,0,1.626,1.626h.041a1.63,1.63,0,0,0,1.626-1.626V31.582h0a3.211,3.211,0,1,1,6.422,0h0v5.974a1.63,1.63,0,0,0,1.626,1.626h.041a1.63,1.63,0,0,0,1.626-1.626V31.582a3.211,3.211,0,1,1,6.422,0h0v7.092a1.6,1.6,0,0,0,1.605,1.605h.041a1.6,1.6,0,0,0,1.605-1.605V31.44A.5.5,0,0,1,500.658,31.278Z" transform="translate(-478 -25.1)" fill="#fff"/>
          <path id="XMLID_18_" d="M519.955,102.666c-.081-.122-.3.122-.3.122a7.666,7.666,0,0,1-9.388,0s-.244-.244-.3-.122c-.1.142.041.366.041.366a6.325,6.325,0,0,0,9.917,0C519.894,103.052,520.056,102.829,519.955,102.666Z" transform="translate(-503.433 -86.877)" fill="#fff"/>
        </g>
      </g>
    </g>
  </g>
</svg>
