<svg id="morabi-text" xmlns="http://www.w3.org/2000/svg" width="108.209" height="60.559" viewBox="0 0 108.209 60.559">
  <g id="clipboard" transform="translate(0 0)">
    <g id="QalamOnline_4_" data-name="QalamOnline (4)" transform="translate(0 1.853)">
      <path id="Path_6069" data-name="Path 6069" d="M-10.8,12.64A1.077,1.077,0,0,0-9.778,13.7a1.05,1.05,0,0,0,1.022-1.06V4.957A2.923,2.923,0,0,1-5.8,2.044,2.923,2.923,0,0,1-2.853,4.957V9.915a.95.95,0,0,0,.454.833,1.109,1.109,0,0,0,1.135.038l7.38-2.8a6.877,6.877,0,0,1,6.509.643,5.741,5.741,0,0,1,2.5,4.049v5a6.364,6.364,0,0,1-6.4,6.4H-9.778A1.042,1.042,0,0,0-10.8,25.09a1.042,1.042,0,0,0,1.022,1.022H8.727a8.447,8.447,0,0,0,8.439-8.439v-5c0-2.233-1.665-4.5-3.368-5.714a8.772,8.772,0,0,0-8.25-.908L-.809,8.439V4.957A4.983,4.983,0,0,0-5.8,0a4.983,4.983,0,0,0-5,4.957V12.64M9.106,14.8a1.038,1.038,0,0,0,.605-1.325A1,1,0,0,0,8.387,12.9L1.878,15.4a1.038,1.038,0,0,0-.605,1.325,1,1,0,0,0,1.325.568l6.509-2.5" transform="translate(91.043 0.227)" fill="#08de6f"/>
      <path id="Path_6070" data-name="Path 6070" d="M19.565-31.7l-.416,1.589a4.408,4.408,0,0,1-1.665,2.422,4.438,4.438,0,0,1-2.763.946A4.574,4.574,0,0,1,11.467-28.1,4.574,4.574,0,0,1,10.1-31.359V-31.7H8.4A8.413,8.413,0,0,1,2.46-34.16,8.435,8.435,0,0,1,0-40.139v-5.033a4.659,4.659,0,0,1,3.027-4.39l5.9-2.233A9.117,9.117,0,0,1,12.11-52.4a8.5,8.5,0,0,1,5.979,2.46,8.713,8.713,0,0,1,2.346,4.617v.189a1.042,1.042,0,0,1-1.022,1.022,1.014,1.014,0,0,1-.984-.87,6.223,6.223,0,0,0-1.816-3.482,6.224,6.224,0,0,0-4.5-1.892,6.788,6.788,0,0,0-2.46.492L3.709-47.67a2.715,2.715,0,0,0-1.665,2.5v5.033A6.5,6.5,0,0,0,3.9-35.6a6.482,6.482,0,0,0,4.5,1.854h2.99a.932.932,0,0,1,.719.341.986.986,0,0,1,.265.908l-.114.454a2.143,2.143,0,0,0-.114.681,2.573,2.573,0,0,0,.757,1.816,2.573,2.573,0,0,0,1.816.757,2.563,2.563,0,0,0,1.552-.53,2.543,2.543,0,0,0,.908-1.325l.643-2.346a1.021,1.021,0,0,1,.984-.757h.605a1.018,1.018,0,0,1,1.022,1.022.947.947,0,0,1-.87,1.022M11.732-44.907a1.02,1.02,0,0,1,1.325.568.99.99,0,0,1-.568,1.325L9.234-41.766a.99.99,0,0,1-1.325-.568,1.053,1.053,0,0,1,.568-1.325l3.255-1.249" transform="translate(61.699 58.039)" fill="#08de6f"/>
      <path id="Path_6071" data-name="Path 6071" d="M-10.8,12.64A1.077,1.077,0,0,0-9.778,13.7a1.05,1.05,0,0,0,1.022-1.06V4.957A2.923,2.923,0,0,1-5.8,2.044,2.923,2.923,0,0,1-2.853,4.957V9.915a.95.95,0,0,0,.454.833,1.109,1.109,0,0,0,1.135.038l7.38-2.8a6.877,6.877,0,0,1,6.509.643,5.741,5.741,0,0,1,2.5,4.049v5a6.364,6.364,0,0,1-6.4,6.4H-9.778A1.042,1.042,0,0,0-10.8,25.09a1.042,1.042,0,0,0,1.022,1.022H8.727a8.447,8.447,0,0,0,8.439-8.439v-5c0-2.233-1.665-4.5-3.368-5.714a8.772,8.772,0,0,0-8.25-.908L-.809,8.439V4.957A4.983,4.983,0,0,0-5.8,0a4.983,4.983,0,0,0-5,4.957V12.64M9.106,14.8a1.038,1.038,0,0,0,.605-1.325A1,1,0,0,0,8.387,12.9L1.878,15.4a1.038,1.038,0,0,0-.605,1.325,1,1,0,0,0,1.325.568l6.509-2.5" transform="translate(46.466)" fill="#08de6f"/>
      <path id="Path_6072" data-name="Path 6072" d="M56.688,25.571a1,1,0,1,0,0-2.006H28.439A6.352,6.352,0,0,1,23.9,21.674,6.194,6.194,0,0,1,22.346,19.1a6,6,0,0,1-.3-2.006V13.348a6.353,6.353,0,0,1,.265-1.892A6.572,6.572,0,0,1,23.9,8.731a6.68,6.68,0,0,1,2.687-1.589c.87-.265,1.151.036,1.151.036a15.352,15.352,0,0,0-.535,3.009A8.446,8.446,0,0,0,38.97,17.944L47.189,15.2a1.03,1.03,0,1,0-.719-1.93l-8.219,2.78a7,7,0,0,1-2.611.53A6.393,6.393,0,0,1,33.483,4.169l6.857-2.212a2.816,2.816,0,0,1,1.93-.038,2.632,2.632,0,0,1,1.552,1.362,2.726,2.726,0,0,1-.189,2.687A2.492,2.492,0,0,1,42.307,6.99l-1.627.643a.99.99,0,0,0-.568,1.325,1.053,1.053,0,0,0,1.325.568l5.714-2.195a6.3,6.3,0,0,1,3.444-.378,6.8,6.8,0,0,1,2.573,1.1A6.383,6.383,0,0,1,54.947,9.9a4.226,4.226,0,0,1,.719,2.233,1.022,1.022,0,0,0,2.044,0,5.711,5.711,0,0,0-.87-2.99,8.324,8.324,0,0,0-2.5-2.763,8.187,8.187,0,0,0-7.947-.946l-.416.151a4.769,4.769,0,0,0-.114-2.725,4.75,4.75,0,0,0-6.206-2.8L32.764,2.239c-3.249,1.295-3.914,2.67-3.914,2.67s-.4-.277-1.936,0A8.5,8.5,0,0,0,22.46,7.293,8.361,8.361,0,0,0,20.3,11a8.153,8.153,0,0,0-.3,2.346v3.746a9,9,0,0,0,.265,2.233A8.606,8.606,0,0,0,22.46,23.15a8.362,8.362,0,0,0,5.487,2.422,3.255,3.255,0,0,0,.606.038l26.906-.036,1.229,0" transform="translate(-20 0.54)" fill="#08de6f"/>
    </g>
    <g id="_ffffffff" data-name="#ffffffff" transform="translate(1.867 1.958)">
      <path id="Path_6078" data-name="Path 6078" d="M95.181,74.017a2.972,2.972,0,0,1,5.314-1.58,3.013,3.013,0,0,1,.606,1.889c0,1.62-.006,3.24,0,4.86a1.006,1.006,0,0,0,1.363.933c1.993-.718,3.965-1.495,5.949-2.237a19.57,19.57,0,0,1,3.178-1.044,6.642,6.642,0,0,1,4.5.729,6.3,6.3,0,0,1,2.63,2.812,3.891,3.891,0,0,1,.408,1.779c0,1.619,0,3.237,0,4.856a6.429,6.429,0,0,1-5.677,6.326c-.547.054-1.1.037-1.644.04q-8.871,0-17.745,0c-.922.056-1.846.014-2.768.027q-12.785,0-25.57,0a6.366,6.366,0,0,1-5.98-4.379A6.3,6.3,0,0,1,59.413,87q-.006-1.98,0-3.961A6.509,6.509,0,0,1,61.4,78.422a7.346,7.346,0,0,1,1.981-1.268,2.281,2.281,0,0,1,1.736-.22,16.534,16.534,0,0,0-.525,2.943,8.406,8.406,0,0,0,8.464,8.573,7.044,7.044,0,0,0,2.221-.29c3.125-1.061,6.261-2.089,9.388-3.144a1.04,1.04,0,0,0-.067-1.941,1.2,1.2,0,0,0-.849.074c-2.842.969-5.691,1.919-8.537,2.879a6.922,6.922,0,0,1-2.763.363,6.38,6.38,0,0,1-4.14-2.066,6.509,6.509,0,0,1-.481-8.095,6.747,6.747,0,0,1,3.726-2.493c2.076-.669,4.155-1.324,6.227-2a2.822,2.822,0,0,1,2.655.35,2.7,2.7,0,0,1,.949,3.016,2.606,2.606,0,0,1-1.274,1.515c-.708.336-1.45.591-2.167.9a1.01,1.01,0,0,0-.22,1.542,1.072,1.072,0,0,0,1.135.263c1.838-.708,3.682-1.4,5.517-2.118a6.68,6.68,0,0,1,2.846-.546,6.772,6.772,0,0,1,3.532,1.27,5.974,5.974,0,0,1,2.29,3.224c.115.507-.035,1.134.394,1.525a1.017,1.017,0,0,0,1.45,0,1.6,1.6,0,0,0,.3-1.319c-.006-2.447,0-4.9,0-7.343m17.241,8.149c-2.189.823-4.367,1.67-6.551,2.506a1.047,1.047,0,0,0-.563,1.49,1.02,1.02,0,0,0,1.214.445q3.26-1.255,6.523-2.5a1.09,1.09,0,0,0,.713-1.065A1.007,1.007,0,0,0,112.423,82.166Z" transform="translate(-59.41 -71.278)" fill="#fff"/>
      <path id="Path_6079" data-name="Path 6079" d="M704.5,73.895a3.036,3.036,0,0,1,2.434.42,2.941,2.941,0,0,1,1.286,2.392c.013,1.654,0,3.31.008,4.963a1.014,1.014,0,0,0,.635.951,1.2,1.2,0,0,0,.934-.064c1.856-.7,3.71-1.4,5.565-2.1a14.959,14.959,0,0,1,3.961-1.188,6.43,6.43,0,0,1,6.482,3.537,4.06,4.06,0,0,1,.448,1.821c0,1.622,0,3.242,0,4.863a6.411,6.411,0,0,1-6.44,6.391q-9.612.009-19.224,0a1.021,1.021,0,0,0-1.028.682c-.251.861-.459,1.737-.727,2.594a2.6,2.6,0,0,1-3.116,1.591,2.568,2.568,0,0,1-1.87-2.34,4.777,4.777,0,0,1,.224-1.293,1.06,1.06,0,0,0-1.024-1.233c-.987-.007-1.974,0-2.961,0a6.373,6.373,0,0,1-6.375-6.39c-.006-1.684,0-3.369,0-5.053a2.729,2.729,0,0,1,1.745-2.558c2.026-.745,4.052-1.492,6.082-2.225a6.337,6.337,0,0,1,5.328.367,6.434,6.434,0,0,1,3.216,4.31,1.319,1.319,0,0,0,.513.984,1.114,1.114,0,0,0,1.707-.886c.013-2.642,0-5.285.007-7.926a2.948,2.948,0,0,1,2.194-2.606M693.4,84.7c-1.077.4-2.146.825-3.216,1.242a1.033,1.033,0,0,0-.636,1.162,1,1,0,0,0,1.34.74c1.074-.421,2.156-.826,3.236-1.231a1.009,1.009,0,0,0,.7-1.106A1.057,1.057,0,0,0,693.4,84.7m26.057,0q-2.935,1.134-5.876,2.252a6.234,6.234,0,0,0-.823.343,1.037,1.037,0,0,0-.253,1.478,1.011,1.011,0,0,0,1.113.348c2.195-.842,4.393-1.677,6.584-2.526a1.066,1.066,0,0,0,.6-1.378A1.026,1.026,0,0,0,719.458,84.7Z" transform="translate(-621.828 -73.558)" fill="#fff"/>
    </g>
    <g id="QalamOnline_4_2" data-name="QalamOnline (4)" transform="translate(0 0)">
      <path id="Path_6069-2" data-name="Path 6069" d="M-10.8,12.64A1.077,1.077,0,0,0-9.778,13.7a1.05,1.05,0,0,0,1.022-1.06V4.957A2.923,2.923,0,0,1-5.8,2.044,2.923,2.923,0,0,1-2.853,4.957V9.915a.95.95,0,0,0,.454.833,1.109,1.109,0,0,0,1.135.038l7.38-2.8a6.877,6.877,0,0,1,6.509.643,5.741,5.741,0,0,1,2.5,4.049v5a6.364,6.364,0,0,1-6.4,6.4H-9.778A1.042,1.042,0,0,0-10.8,25.09a1.042,1.042,0,0,0,1.022,1.022H8.727a8.447,8.447,0,0,0,8.439-8.439v-5c0-2.233-1.665-4.5-3.368-5.714a8.772,8.772,0,0,0-8.25-.908L-.809,8.439V4.957A4.983,4.983,0,0,0-5.8,0a4.983,4.983,0,0,0-5,4.957V12.64M9.106,14.8a1.038,1.038,0,0,0,.605-1.325A1,1,0,0,0,8.387,12.9L1.878,15.4a1.038,1.038,0,0,0-.605,1.325,1,1,0,0,0,1.325.568l6.509-2.5" transform="translate(91.043 0.227)" fill="#08de6f"/>
      <path id="Path_6070-2" data-name="Path 6070" d="M19.565-31.7l-.416,1.589a4.408,4.408,0,0,1-1.665,2.422,4.438,4.438,0,0,1-2.763.946A4.574,4.574,0,0,1,11.467-28.1,4.574,4.574,0,0,1,10.1-31.359V-31.7H8.4A8.413,8.413,0,0,1,2.46-34.16,8.435,8.435,0,0,1,0-40.139v-5.033a4.659,4.659,0,0,1,3.027-4.39l5.9-2.233A9.117,9.117,0,0,1,12.11-52.4a8.5,8.5,0,0,1,5.979,2.46,8.713,8.713,0,0,1,2.346,4.617v.189a1.042,1.042,0,0,1-1.022,1.022,1.014,1.014,0,0,1-.984-.87,6.223,6.223,0,0,0-1.816-3.482,6.224,6.224,0,0,0-4.5-1.892,6.788,6.788,0,0,0-2.46.492L3.709-47.67a2.715,2.715,0,0,0-1.665,2.5v5.033A6.5,6.5,0,0,0,3.9-35.6a6.482,6.482,0,0,0,4.5,1.854h2.99a.932.932,0,0,1,.719.341.986.986,0,0,1,.265.908l-.114.454a2.143,2.143,0,0,0-.114.681,2.573,2.573,0,0,0,.757,1.816,2.573,2.573,0,0,0,1.816.757,2.563,2.563,0,0,0,1.552-.53,2.543,2.543,0,0,0,.908-1.325l.643-2.346a1.021,1.021,0,0,1,.984-.757h.605a1.018,1.018,0,0,1,1.022,1.022.947.947,0,0,1-.87,1.022M11.732-44.907a1.02,1.02,0,0,1,1.325.568.99.99,0,0,1-.568,1.325L9.234-41.766a.99.99,0,0,1-1.325-.568,1.053,1.053,0,0,1,.568-1.325l3.255-1.249" transform="translate(61.699 58.039)" fill="#08de6f"/>
      <path id="Path_6071-2" data-name="Path 6071" d="M-10.8,12.64A1.077,1.077,0,0,0-9.778,13.7a1.05,1.05,0,0,0,1.022-1.06V4.957A2.923,2.923,0,0,1-5.8,2.044,2.923,2.923,0,0,1-2.853,4.957V9.915a.95.95,0,0,0,.454.833,1.109,1.109,0,0,0,1.135.038l7.38-2.8a6.877,6.877,0,0,1,6.509.643,5.741,5.741,0,0,1,2.5,4.049v5a6.364,6.364,0,0,1-6.4,6.4H-9.778A1.042,1.042,0,0,0-10.8,25.09a1.042,1.042,0,0,0,1.022,1.022H8.727a8.447,8.447,0,0,0,8.439-8.439v-5c0-2.233-1.665-4.5-3.368-5.714a8.772,8.772,0,0,0-8.25-.908L-.809,8.439V4.957A4.983,4.983,0,0,0-5.8,0a4.983,4.983,0,0,0-5,4.957V12.64M9.106,14.8a1.038,1.038,0,0,0,.605-1.325A1,1,0,0,0,8.387,12.9L1.878,15.4a1.038,1.038,0,0,0-.605,1.325,1,1,0,0,0,1.325.568l6.509-2.5" transform="translate(46.466)" fill="#08de6f"/>
      <path id="Path_6072-2" data-name="Path 6072" d="M56.688,25.571a1,1,0,1,0,0-2.006H28.439A6.352,6.352,0,0,1,23.9,21.674,6.194,6.194,0,0,1,22.346,19.1a6,6,0,0,1-.3-2.006V13.348a6.353,6.353,0,0,1,.265-1.892A6.572,6.572,0,0,1,23.9,8.731a6.68,6.68,0,0,1,2.687-1.589c.87-.265,1.151.036,1.151.036a15.352,15.352,0,0,0-.535,3.009A8.446,8.446,0,0,0,38.97,17.944L47.189,15.2a1.03,1.03,0,1,0-.719-1.93l-8.219,2.78a7,7,0,0,1-2.611.53A6.393,6.393,0,0,1,33.483,4.169l6.857-2.212a2.816,2.816,0,0,1,1.93-.038,2.632,2.632,0,0,1,1.552,1.362,2.726,2.726,0,0,1-.189,2.687A2.492,2.492,0,0,1,42.307,6.99l-1.627.643a.99.99,0,0,0-.568,1.325,1.053,1.053,0,0,0,1.325.568l5.714-2.195a6.3,6.3,0,0,1,3.444-.378,6.8,6.8,0,0,1,2.573,1.1A6.383,6.383,0,0,1,54.947,9.9a4.226,4.226,0,0,1,.719,2.233,1.022,1.022,0,0,0,2.044,0,5.711,5.711,0,0,0-.87-2.99,8.324,8.324,0,0,0-2.5-2.763,8.187,8.187,0,0,0-7.947-.946l-.416.151a4.769,4.769,0,0,0-.114-2.725,4.75,4.75,0,0,0-6.206-2.8L32.764,2.239c-3.249,1.295-3.914,2.67-3.914,2.67s-.4-.277-1.936,0A8.5,8.5,0,0,0,22.46,7.293,8.361,8.361,0,0,0,20.3,11a8.153,8.153,0,0,0-.3,2.346v3.746a9,9,0,0,0,.265,2.233A8.606,8.606,0,0,0,22.46,23.15a8.362,8.362,0,0,0,5.487,2.422,3.255,3.255,0,0,0,.606.038l26.906-.036,1.229,0" transform="translate(-20 0.54)" fill="#08de6f"/>
    </g>
  </g>
  <g id="Group_66467" data-name="Group 66467" transform="translate(0 29.316)">
    <path id="Union_192" data-name="Union 192" d="M45.641,29.573a8.313,8.313,0,0,1-4.885-1.837,8.577,8.577,0,0,1-3.219-6.85q0-4.748,0-9.5a4.767,4.767,0,0,1,1.584-3.466,4.831,4.831,0,0,1,5.808-.46,4.917,4.917,0,0,1,2.193,4.022,6.652,6.652,0,0,1,4.561-1.8q7.9,0,15.806,0a.662.662,0,0,1,.108,0c.1,0,.205.009.255-.095.9-1.345,1.774-2.706,2.675-4.049A4.671,4.671,0,0,1,73.8,3.459a4.8,4.8,0,0,1,5.608,4.773c.009,1.943,0,3.886,0,5.829-.008.724.023,1.449-.033,2.171a8.688,8.688,0,0,1-2.106,5.139,8.8,8.8,0,0,1-6.23,2.99q-2.676,0-5.351,0c-2.743,0-5.486,0-8.228.01a8.408,8.408,0,0,1-7.764,5.2q-.911,0-1.824,0Zm2.888-2.049c.174,0,.347,0,.521,0-.174,0-.347,0-.521,0s-.35,0-.524,0C48.179,27.52,48.354,27.522,48.529,27.524Zm-8.921-16.13c0,3.227,0,6.453,0,9.679a6.6,6.6,0,0,0,1.555,4.2,6.383,6.383,0,0,0,3.683,2.142,7.967,7.967,0,0,0,1.534.117,7.974,7.974,0,0,1-1.534-.117,6.383,6.383,0,0,1-3.683-2.142,6.6,6.6,0,0,1-1.555-4.2c-.007-3.226,0-6.452,0-9.679Zm9.664,16.133h0Zm-1.644,0c-.117,0-.234,0-.351,0C47.394,27.52,47.511,27.521,47.628,27.524Zm-.609,0h0Zm3.666-.1.01,0Zm.013,0,.087-.016Zm.107-.019.068-.013Zm.094-.019.033-.007Zm.17-.038-.115.027.115-.027Zm.765-.232,0,0Zm1.291-.629a5.946,5.946,0,0,1-1.28.625,5.941,5.941,0,0,0,1.28-.625l.058-.037Zm3.3-4.125a1.093,1.093,0,0,0-.545.4,1.094,1.094,0,0,1,.545-.4Zm-7.69-.764a1.058,1.058,0,0,1-1.017,1.14A1.057,1.057,0,0,0,48.732,21.589Zm21.425.722h0Zm-12.8,0h0Zm-.266-.012c.072,0,.144.01.216.011-.072,0-.144-.006-.216-.011-.089-.006-.178-.012-.266-.012C56.916,22.287,57,22.293,57.093,22.3Zm.314.011Zm10.626,0h0Zm-2.122,0h0Zm-5.93,0h0Zm12.732-.329a6.4,6.4,0,0,1-1.441.291,6.4,6.4,0,0,0,1.441-.291l.149-.049Zm-24.7-1.5c.258.348.68.622.722,1.09-.042-.469-.464-.742-.722-1.09a4.639,4.639,0,0,1-.884-2.775A4.634,4.634,0,0,0,48.008,20.484Zm-2.954-2.727q0-.018,0-.036Q45.054,17.739,45.054,17.757Zm2.07-.22c0-.271-.006-.545-.006-.819C47.119,16.992,47.125,17.266,47.125,17.537Zm30.007-.223Zm.221-2.857c0,.015,0,.03,0,.045,0-.015,0-.03,0-.045q0-.595,0-1.19Q77.357,13.862,77.354,14.456ZM48.2,13.334a4.518,4.518,0,0,1,3.364-1.57h0A4.517,4.517,0,0,0,48.2,13.334Zm20.98-2.015a1.227,1.227,0,0,1-1.045.463A1.227,1.227,0,0,0,69.185,11.319Zm-1.308.446-1.91,0Zm-16.294,0q4.357,0,8.714,0-4.357,0-8.714,0Zm20.768-5.2c-1,1.476-1.963,2.972-2.958,4.449.995-1.477,1.962-2.973,2.959-4.449a2.713,2.713,0,0,1,1.606-1.043A2.713,2.713,0,0,0,72.351,6.564ZM44.584,9.992l-.018-.027ZM77.343,8.831c0-.062,0-.125,0-.187C77.343,8.706,77.343,8.769,77.343,8.831ZM42.009,8.8a2.521,2.521,0,0,1,.323-.021A2.521,2.521,0,0,0,42.009,8.8Zm.336-.021h0ZM74,5.51a2.34,2.34,0,0,1,.59-.075h0A2.339,2.339,0,0,0,74,5.51ZM67.644,28.124c-.015-.06-.026-1.279-.037-1.4,0-.01,0-.045,0-.088a1.385,1.385,0,0,1,0-.149,1.056,1.056,0,0,1,.1-.468,1.638,1.638,0,0,1,1.073-.953,1.836,1.836,0,0,1,1.58.179,1.284,1.284,0,0,1,.285.228,1.426,1.426,0,0,1,.263.361,1.45,1.45,0,0,1,.112.267.95.95,0,0,1,.062.329,1.659,1.659,0,0,1,0,.228l0,.233,0,1.086a1.74,1.74,0,0,1-1.339,1.559,1.64,1.64,0,0,1-.351.038A1.784,1.784,0,0,1,67.644,28.124ZM82.1,29.435a4.652,4.652,0,0,1-3.033-1.649A4.593,4.593,0,0,1,78.037,24a1.3,1.3,0,0,1,.209-.565c.534-.717,1.083-1.425,1.606-2.151a4.066,4.066,0,0,0,.211-1.392q0-3.212,0-6.424a16.32,16.32,0,0,1,.117-2.679,8.554,8.554,0,0,1,8.454-7.153H98.719a9.358,9.358,0,0,1,2.852.337,9.131,9.131,0,0,1,4.992,3.523,9.266,9.266,0,0,1,1.643,5.481q0,2.323,0,4.646a6.94,6.94,0,0,1-6.721,6.817q-2.814,0-5.628,0c-.223,0-.447,0-.671,0a8.635,8.635,0,0,1-2.5-.221A7.051,7.051,0,0,1,89.294,22.1a14.9,14.9,0,0,1-1.7,3.657,14.709,14.709,0,0,1-1.65,2.3,4.707,4.707,0,0,1-3.307,1.408A4.161,4.161,0,0,1,82.1,29.435Zm1.644-2.3q.1-.044.193-.1Q83.84,27.089,83.74,27.133Zm-2.389-.081-.015-.009Zm-1.308-2.007a2.668,2.668,0,0,0,1.264,1.981,2.668,2.668,0,0,1-1.264-1.981c0-.088-.009-.178-.009-.269C80.034,24.867,80.038,24.957,80.043,25.045Zm2.285-14.422a11.253,11.253,0,0,0-.189,2.84q0,3.017,0,6.035a7.3,7.3,0,0,1-.321,2.365q-.712.962-1.436,1.915.721-.955,1.436-1.915a7.309,7.309,0,0,0,.321-2.365q0-3.017,0-6.035a11.226,11.226,0,0,1,.189-2.839,6.525,6.525,0,0,1,4.228-4.594A6.526,6.526,0,0,0,82.328,10.623Zm18.149,11.762a8.651,8.651,0,0,0,1.892-.121,4.311,4.311,0,0,0,.527-.145,4.311,4.311,0,0,1-.527.145,8.669,8.669,0,0,1-1.892.121l-.381,0Zm-10.818-4.6a4.853,4.853,0,0,0,4.8,4.593q1.054.008,2.109.007-1.055,0-2.109-.007a4.853,4.853,0,0,1-4.8-4.593c-.008-.321-.011-.642-.011-.963C89.648,17.144,89.651,17.465,89.659,17.786Zm7.257,4.6h0Zm2.887,0h0Zm-.655,0h0Zm.8,0h0Zm-12.6-1Zm.231-1.753c0-.011,0-.023,0-.035C87.575,19.6,87.575,19.616,87.575,19.627Zm0-.035q0-1.163,0-2.326Q87.574,18.43,87.575,19.593ZM96.4,15.935h0Zm0,0a.911.911,0,0,0,.206-.024A.911.911,0,0,1,96.4,15.935Zm.21-.025.027-.007Zm.038-.009a1.047,1.047,0,0,0,.785-1.029A1.048,1.048,0,0,1,96.65,15.9Zm-7-1.051c0,.26.006.52.006.78,0-.26,0-.52-.006-.78a1.044,1.044,0,0,0-1.03-.987A1.044,1.044,0,0,1,89.645,14.85Zm-2.069.091Zm9.847-3.665c.021,1.14,0,2.282.009,3.423-.005-1.141.012-2.283-.009-3.423a1.042,1.042,0,0,0-1.046-.942A1.042,1.042,0,0,1,97.424,11.276ZM88.353,13.9l-.033.008.033-.008a.891.891,0,0,1,.213-.038A.891.891,0,0,0,88.353,13.9Zm17.039-4.337a7.046,7.046,0,0,0-3.2-3.159A7.046,7.046,0,0,1,105.392,9.565Zm-3.2-3.159-.064-.032ZM87.348,5.824h0Zm.01,0a8.578,8.578,0,0,1,1.814-.116l-.329,0A7.26,7.26,0,0,0,87.358,5.822Zm2.369-.115h0Zm6.192,0h0Zm.016,0h0Zm-3.081,0h0Zm6.16,0c.067,0,.135,0,.2,0Q99.116,5.7,99.015,5.707Zm.212,0h0ZM5.6,25.934a9.148,9.148,0,0,1-4.031-3.083A8.646,8.646,0,0,1,0,17.815Q.009,11.44.038,5.065A5.119,5.119,0,0,1,1.284,1.713,4.9,4.9,0,0,1,5.217.005,4.877,4.877,0,0,1,8.623,1.468a5.019,5.019,0,0,1,1.491,3.493c.012.968.008,1.934,0,2.9A6.909,6.909,0,0,1,15.009,5.9c1.18,0,2.361,0,3.542,0a4.665,4.665,0,0,1,2.714-3.285,4.831,4.831,0,0,1,3.708-.084Q28.047,3.7,31.116,4.874a8.362,8.362,0,0,1,4.105,3.4,8.6,8.6,0,0,1,1.315,4.5c.007,1.683,0,3.366,0,5.049a8.447,8.447,0,0,1-1.94,5.456A9.166,9.166,0,0,1,31.287,25.8a8.75,8.75,0,0,1-1.55.481,9.678,9.678,0,0,1-2.2.158c-.157,0-.313,0-.469,0H9.568c-.2,0-.407.006-.612.006A8.842,8.842,0,0,1,5.6,25.934Zm21.8-1.546h0Zm.012,0a10.875,10.875,0,0,0,1.327-.063A10.876,10.876,0,0,1,27.413,24.387Zm-.327,0h0Zm-24.432-3.8a6.486,6.486,0,0,0,3.068,3.163,8.64,8.64,0,0,0,4.049.641,8.64,8.64,0,0,1-4.049-.641,6.487,6.487,0,0,1-3.068-3.163,6.814,6.814,0,0,1-.585-2.821A6.814,6.814,0,0,0,2.654,20.583Zm23.915,3.8h0Zm-8.959,0h0Zm9.059,0h0Zm.126,0h0Zm2-.069.075-.01Zm.158-.023ZM31.8,23.137l-.1.07.1-.07a6.618,6.618,0,0,0,2.674-5.227A6.618,6.618,0,0,1,31.8,23.137Zm-3.894-5h0Zm0,0a1.064,1.064,0,0,0,.962-1.38A1.065,1.065,0,0,1,27.905,18.136Zm-2.233,0h0Zm.018,0h0Zm-.705,0-.687,0Zm2.6,0h0Zm-12.874-.1h0Zm3.557-2.018a1.016,1.016,0,0,1,.968.9,1.067,1.067,0,0,1-.435.958,1.066,1.066,0,0,0,.435-.958,1.016,1.016,0,0,0-.968-.9l-.235,0Zm16.2,1.795q0-.724,0-1.447Q34.469,17.089,34.469,17.813Zm-10.43-1.72a1.042,1.042,0,0,0-.758.935,1.042,1.042,0,0,1,.758-.935Zm4.813.625.014.036-.014-.036c-.006-.017-.013-.034-.021-.051C28.839,16.683,28.846,16.7,28.852,16.718Zm-15.03-.044v0Zm15-.018-.012-.025ZM14.363,16.1a1.085,1.085,0,0,0-.527.54l-.006.014.006-.014a1.086,1.086,0,0,1,.527-.54l.01,0Zm9.711-.015a2.508,2.508,0,0,1,.579-.05A2.5,2.5,0,0,0,24.074,16.084Zm3.7-.044h0Zm.073,0h0Zm-.536,0-.644,0Zm-2.521,0h0Zm-8.98-.023h0Zm.033,0h0Zm-.323,0-.321,0Zm.944,0Zm-1.388,0h0Zm2.282,0h0Zm17.113-1.09q0-.482,0-.964Q34.469,14.437,34.469,14.919ZM9.55,13.759a1.081,1.081,0,0,1-.475.107A1.08,1.08,0,0,0,9.55,13.759Zm24.919.017c0-.167,0-.334,0-.5C34.47,13.442,34.469,13.609,34.469,13.776ZM24.211,12.395h0Zm.005,0a1.015,1.015,0,0,0,.993-.706A1.015,1.015,0,0,1,24.216,12.395Zm-.357-.063-.018-.007ZM8.046,12.171c0-.066,0-.131.005-.195C8.051,12.04,8.049,12.105,8.046,12.171ZM20.562,7.617a2.768,2.768,0,0,0,1.773,1.957c.741.284,1.486.562,2.227.849a1.049,1.049,0,0,1,.649,1.255,1.049,1.049,0,0,0-.649-1.255c-.74-.288-1.486-.566-2.227-.849a2.768,2.768,0,0,1-1.773-1.957,2.973,2.973,0,0,1-.068-.628A2.973,2.973,0,0,0,20.562,7.617Zm-6.834.5L13.8,8.1Zm.164-.043a5.43,5.43,0,0,1,1.239-.118A5.43,5.43,0,0,0,13.892,8.073Zm4.628-.117h0Zm-2.852,0h0Zm-.372,0h0Zm-.139,0h0Zm5.788-2.493a2.739,2.739,0,0,1,2.308-1.188h0A2.738,2.738,0,0,0,20.945,5.462ZM2.918,2.956a3.126,3.126,0,0,0-.812,2.1,3.127,3.127,0,0,1,.813-2.1,2.956,2.956,0,0,1,2.152-.9A2.957,2.957,0,0,0,2.918,2.956ZM24.456,4.541l-.024-.012ZM5.116,2.057h0Z" transform="translate(0 1.668)" fill="#7e3dfe"/>
    <g id="Mor" transform="translate(0 0)">
      <g id="_ffffffff-2" data-name="#ffffffff" transform="translate(2.068 2.057)">
        <path id="Path_6275" data-name="Path 6275" d="M214.928,29.469a2.965,2.965,0,0,1,2.2-.9,3.014,3.014,0,0,1,2.924,2.848c.022,2.328,0,4.658.009,6.986.015.51-.131,1.074.171,1.529a1.047,1.047,0,0,0,1.343.331,1.1,1.1,0,0,0,.569-.869,5.824,5.824,0,0,1,.378-2.044,4.807,4.807,0,0,1,3.217-2.723,5.4,5.4,0,0,1,1.568-.161c1.075,0,2.15,0,3.224,0a5.024,5.024,0,0,0,2.922,3.487c.8.29,1.6.592,2.4.882a1.017,1.017,0,1,0,.72-1.9c-.74-.288-1.485-.565-2.227-.849a2.768,2.768,0,0,1-1.773-1.957,2.733,2.733,0,0,1,3.894-3.077q2.319.884,4.64,1.76a11.861,11.861,0,0,1,2.755,1.3,6.568,6.568,0,0,1,2.505,4.071,12.386,12.386,0,0,1,.113,2.281c0,1.286,0,2.572,0,3.858a6.462,6.462,0,0,1-5.511,6.48,15.8,15.8,0,0,1-2.389.093q-8.4,0-16.8,0a8.644,8.644,0,0,1-4.049-.641,6.487,6.487,0,0,1-3.068-3.163,6.828,6.828,0,0,1-.585-2.867q.015-6.33.038-12.66a3.126,3.126,0,0,1,.812-2.1m11.445,13.143a1.085,1.085,0,0,0-.527.54,1.017,1.017,0,0,0,.875,1.4h3.563a1,1,0,0,0,.963-1.117,1.016,1.016,0,0,0-.969-.9c-1.024-.02-2.048,0-3.072-.009a2.229,2.229,0,0,0-.833.09m9.676-.006a1.042,1.042,0,0,0-.758.935,1.057,1.057,0,0,0,1.018,1.1c1.187,0,2.375,0,3.562,0a1.059,1.059,0,0,0,.991-1.417,1.113,1.113,0,0,0-1.08-.678c-.994-.013-1.99,0-2.984-.006A2.887,2.887,0,0,0,236.049,42.606Z" transform="translate(-214.078 -28.57)" fill="#fff"/>
        <path id="Path_6276" data-name="Path 6276" d="M628.255,62.836a2.772,2.772,0,0,1,3.288,2.006,6.379,6.379,0,0,1,.1,1.49c0,1.814.021,3.626.01,5.439a11.538,11.538,0,0,1-.221,2.857,6.638,6.638,0,0,1-4.42,4.667,7.7,7.7,0,0,1-2.555.33h-12.75a2.862,2.862,0,0,0-.985.042,1.077,1.077,0,0,0-.691.7,6.4,6.4,0,0,1-2.606,3.422,6.772,6.772,0,0,1-2.056.861,15.837,15.837,0,0,1-3.441.185,16.308,16.308,0,0,1-2.779-.115,6.384,6.384,0,0,1-3.682-2.142,6.6,6.6,0,0,1-1.556-4.2c-.007-3.226,0-6.452,0-9.679a2.715,2.715,0,0,1,2.38-2.6,2.685,2.685,0,0,1,2.6,1.194A2.951,2.951,0,0,1,599.351,69q0,3.018,0,6.037a6.667,6.667,0,0,0,1.537,4.281c.268.283.522.655.941.707a1.044,1.044,0,0,0,1.2-1.135c-.042-.468-.464-.742-.721-1.09a4.636,4.636,0,0,1-.885-2.775,8.013,8.013,0,0,1,.326-3.13,4.511,4.511,0,0,1,4.132-2.815q8.148-.007,16.294,0a1.336,1.336,0,0,0,1.316-.458c1.065-1.572,2.1-3.17,3.158-4.744A2.712,2.712,0,0,1,628.255,62.836Z" transform="translate(-556.366 -59.372)" fill="#fff"/>
        <path id="Path_6277" data-name="Path 6277" d="M1010.216,65.6a11.706,11.706,0,0,1,2.425-.127h9.288a6.622,6.622,0,0,1,3.178.7,7.018,7.018,0,0,1,3.937,6.07v5.246a4.845,4.845,0,0,1-3.761,4.541,13.4,13.4,0,0,1-2.566.122c-1.781,0-3.562.008-5.343-.006a4.852,4.852,0,0,1-4.8-4.593c-.026-.978,0-1.958-.014-2.936a1.035,1.035,0,0,0-2.068.091c0,1.551,0,3.1,0,4.652a5.463,5.463,0,0,1-.23,1.787,21.82,21.82,0,0,1-1.924,3.991,4.21,4.21,0,0,1-1.68,1.763,2.525,2.525,0,0,1-2.433-.108,2.668,2.668,0,0,1-1.264-1.981,1.572,1.572,0,0,1,.243-1.141c.513-.679,1.026-1.359,1.532-2.043a7.3,7.3,0,0,0,.321-2.365q0-3.017,0-6.035a11.242,11.242,0,0,1,.189-2.839,6.492,6.492,0,0,1,4.973-4.788m8.676,4.589a1.055,1.055,0,0,0-.616.95c-.006,1.192-.011,2.385,0,3.577a1.036,1.036,0,0,0,2.07-.1c-.008-1.193.012-2.386-.01-3.578A1.041,1.041,0,0,0,1018.893,70.188Z" transform="translate(-924.984 -61.822)" fill="#fff"/>
      </g>
      <g id="_000000ff" data-name="#000000ff" transform="translate(0 0)">
        <path id="Path_6278" data-name="Path 6278" d="M194.434,9.47a5.044,5.044,0,0,1,7.339-.245,5.018,5.018,0,0,1,1.491,3.493c.012.968.008,1.934,0,2.9a6.909,6.909,0,0,1,4.894-1.957c1.18,0,2.361,0,3.542,0a4.665,4.665,0,0,1,2.714-3.285,4.832,4.832,0,0,1,3.708-.084q3.073,1.162,6.142,2.336a8.362,8.362,0,0,1,4.105,3.4,8.6,8.6,0,0,1,1.315,4.5c.007,1.683,0,3.366,0,5.049a8.448,8.448,0,0,1-1.94,5.456,9.164,9.164,0,0,1-3.313,2.526,8.74,8.74,0,0,1-1.55.481,12.264,12.264,0,0,1-2.671.157h-17.5a10.033,10.033,0,0,1-3.97-.5,9.15,9.15,0,0,1-4.031-3.083,8.646,8.646,0,0,1-1.566-5.036q.009-6.375.038-12.749a5.12,5.12,0,0,1,1.246-3.352m1.635,1.243a3.126,3.126,0,0,0-.812,2.1q-.016,6.33-.038,12.66a6.828,6.828,0,0,0,.585,2.867,6.486,6.486,0,0,0,3.068,3.163,8.643,8.643,0,0,0,4.049.641q8.4,0,16.8,0a15.8,15.8,0,0,0,2.389-.093,6.462,6.462,0,0,0,5.511-6.48c0-1.287,0-2.573,0-3.858a12.387,12.387,0,0,0-.113-2.281A6.568,6.568,0,0,0,225,15.36a11.861,11.861,0,0,0-2.755-1.3q-2.32-.881-4.64-1.76a2.733,2.733,0,0,0-3.894,3.077,2.768,2.768,0,0,0,1.773,1.957c.741.284,1.486.561,2.227.849a1.017,1.017,0,1,1-.72,1.9c-.8-.29-1.6-.592-2.4-.882a5.024,5.024,0,0,1-2.922-3.487c-1.074,0-2.149,0-3.224,0a5.4,5.4,0,0,0-1.568.161,4.807,4.807,0,0,0-3.217,2.723,5.825,5.825,0,0,0-.378,2.044,1.1,1.1,0,0,1-.569.869,1.047,1.047,0,0,1-1.343-.331c-.3-.455-.156-1.019-.171-1.529-.007-2.328.013-4.658-.009-6.986a3.014,3.014,0,0,0-2.924-2.848A2.965,2.965,0,0,0,196.068,10.714Z" transform="translate(-193.15 -7.757)" fill="#7e3dfe"/>
        <path id="Path_6279" data-name="Path 6279" d="M609.205,42.113a4.8,4.8,0,0,1,5.608,4.774c.009,1.943,0,3.886,0,5.829-.008.723.023,1.449-.034,2.171a8.688,8.688,0,0,1-2.106,5.139,8.8,8.8,0,0,1-6.23,2.99c-4.526.008-9.053-.014-13.579.01a8.408,8.408,0,0,1-7.764,5.2c-1.352.006-2.705,0-4.057,0a8.31,8.31,0,0,1-4.885-1.837,8.577,8.577,0,0,1-3.219-6.85q0-4.748,0-9.5a4.766,4.766,0,0,1,1.584-3.466,4.831,4.831,0,0,1,5.808-.46,4.917,4.917,0,0,1,2.193,4.022,6.653,6.653,0,0,1,4.561-1.8q7.9,0,15.805,0c.122-.015.294.047.363-.1.9-1.345,1.774-2.706,2.674-4.049a4.671,4.671,0,0,1,3.273-2.083m.156,2.063a2.712,2.712,0,0,0-1.606,1.043c-1.062,1.574-2.092,3.171-3.158,4.744a1.336,1.336,0,0,1-1.316.458q-8.148-.013-16.294,0a4.511,4.511,0,0,0-4.132,2.815,8.014,8.014,0,0,0-.326,3.13,4.636,4.636,0,0,0,.884,2.775c.258.348.68.622.721,1.09a1.044,1.044,0,0,1-1.2,1.135c-.419-.051-.673-.424-.941-.707a6.668,6.668,0,0,1-1.537-4.281q-.006-3.018,0-6.037a2.952,2.952,0,0,0-.469-1.692,2.685,2.685,0,0,0-2.6-1.194,2.715,2.715,0,0,0-2.38,2.6c0,3.227,0,6.453,0,9.679a6.6,6.6,0,0,0,1.556,4.2,6.384,6.384,0,0,0,3.682,2.142,16.308,16.308,0,0,0,2.779.115,15.836,15.836,0,0,0,3.441-.185,6.771,6.771,0,0,0,2.056-.861,6.4,6.4,0,0,0,2.606-3.422,1.077,1.077,0,0,1,.691-.7,2.863,2.863,0,0,1,.985-.042h12.75a7.7,7.7,0,0,0,2.555-.33,6.638,6.638,0,0,0,4.42-4.667,11.532,11.532,0,0,0,.221-2.857c.011-1.813-.008-3.625-.01-5.439a6.376,6.376,0,0,0-.1-1.49A2.772,2.772,0,0,0,609.361,44.176Z" transform="translate(-535.404 -38.655)" fill="#7e3dfe"/>
        <path id="Path_6280" data-name="Path 6280" d="M989.029,45.242a8.546,8.546,0,0,1,3.6-.787h10.085a9.354,9.354,0,0,1,2.852.337,9.131,9.131,0,0,1,4.992,3.523A9.268,9.268,0,0,1,1012.2,53.8q0,2.323,0,4.646a6.94,6.94,0,0,1-6.722,6.817q-2.814,0-5.628,0a11.773,11.773,0,0,1-3.169-.22,7.051,7.051,0,0,1-3.395-2.111,14.9,14.9,0,0,1-1.7,3.657,14.725,14.725,0,0,1-1.649,2.3,4.615,4.615,0,0,1-6.876-.276,4.594,4.594,0,0,1-1.026-3.79,1.294,1.294,0,0,1,.209-.565c.534-.718,1.083-1.425,1.606-2.151a4.074,4.074,0,0,0,.212-1.392q0-3.213,0-6.424a16.27,16.27,0,0,1,.117-2.679,8.582,8.582,0,0,1,4.856-6.367m2.265,1.416a6.492,6.492,0,0,0-4.973,4.788,11.242,11.242,0,0,0-.189,2.839q0,3.017,0,6.035a7.306,7.306,0,0,1-.321,2.365c-.506.684-1.019,1.364-1.532,2.043a1.571,1.571,0,0,0-.243,1.141,2.668,2.668,0,0,0,1.264,1.981,2.525,2.525,0,0,0,2.433.108,4.21,4.21,0,0,0,1.68-1.763,21.829,21.829,0,0,0,1.924-3.991,5.461,5.461,0,0,0,.23-1.787c0-1.551,0-3.1,0-4.652a1.035,1.035,0,0,1,2.069-.091c.019.978-.012,1.958.014,2.936a4.852,4.852,0,0,0,4.8,4.593c1.781.014,3.562,0,5.343.006a13.405,13.405,0,0,0,2.566-.122,4.845,4.845,0,0,0,3.762-4.541V53.3a7.017,7.017,0,0,0-3.937-6.07,6.621,6.621,0,0,0-3.178-.7H993.72A11.707,11.707,0,0,0,991.294,46.658Z" transform="translate(-903.993 -40.824)" fill="#7e3dfe"/>
        <path id="Path_6281" data-name="Path 6281" d="M1158.6,112.408a1.041,1.041,0,0,1,1.447.853c.022,1.192,0,2.385.01,3.578a1.036,1.036,0,0,1-2.07.1c-.014-1.192-.009-2.385,0-3.577A1.056,1.056,0,0,1,1158.6,112.408Z" transform="translate(-1062.624 -101.985)" fill="#7e3dfe"/>
        <path id="Path_6282" data-name="Path 6282" d="M333,169.825a2.229,2.229,0,0,1,.833-.09c1.024.008,2.048-.011,3.072.009a1.016,1.016,0,0,1,.969.9,1,1,0,0,1-.963,1.117h-3.563a1.017,1.017,0,0,1-.875-1.4A1.085,1.085,0,0,1,333,169.825Z" transform="translate(-318.638 -153.726)" fill="#7e3dfe"/>
        <path id="Path_6283" data-name="Path 6283" d="M429.44,170.048a2.887,2.887,0,0,1,.749-.059c.994.006,1.989-.007,2.984.006a1.113,1.113,0,0,1,1.08.678,1.059,1.059,0,0,1-.991,1.417c-1.187,0-2.375,0-3.562,0a1.057,1.057,0,0,1-1.018-1.1A1.042,1.042,0,0,1,429.44,170.048Z" transform="translate(-405.402 -153.955)" fill="#7e3dfe"/>
      </g>
    </g>
  </g>
</svg>
