<svg xmlns="http://www.w3.org/2000/svg" xmlns:xlink="http://www.w3.org/1999/xlink" width="360" height="99" viewBox="0 0 360 99">
  <defs>
    <clipPath id="clip-path">
      <rect id="Rectangle_6699" data-name="Rectangle 6699" width="360" height="99" fill="#fff" stroke="#707070" stroke-width="1"/>
    </clipPath>
  </defs>
  <g id="p-border-phone" clip-path="url(#clip-path)">
    <g id="Path_109823" data-name="Path 109823" transform="translate(-651 -550)" fill="#fff" stroke-dasharray="10 10">
      <path d="M1011.066,549.57,651,550v64s59.133,22,123.133,24S879.529,622.959,939,622s72.066,11.733,72.066,11.733Z" stroke="none"/>
      <path d="M 1011.06640625 549.5701904296875 L 1021.06640625 549.5701904296875 L 1021.06640625 559.5701904296875 L 1011.06640625 559.5701904296875 L 1011.06640625 549.5701904296875 C 1011.06640625 549.5701904296875 1011.06640625 549.5701904296875 1011.06640625 549.5701904296875 Z M 1011.06640625 569.5701904296875 L 1021.06640625 569.5701904296875 L 1021.06640625 579.5701904296875 L 1011.06640625 579.5701904296875 L 1011.06640625 569.5701904296875 Z M 1011.06640625 589.5701904296875 L 1021.06640625 589.5701904296875 L 1021.06640625 599.5701904296875 L 1011.06640625 599.5701904296875 L 1011.06640625 589.5701904296875 Z M 1011.06640625 609.5701904296875 L 1021.06640625 609.5701904296875 L 1021.06640625 619.5701904296875 L 1011.06640625 619.5701904296875 L 1011.06640625 609.5701904296875 Z M 1011.06640625 629.5701904296875 L 1021.06640625 629.5701904296875 L 1021.06640625 658.0155029296875 L 1004.091430664062 640.9014282226562 C 1004.174743652344 641.0199584960938 1003.400634765625 640.4894409179688 1001.846496582031 639.7593383789062 L 1006.098388671875 630.708251953125 C 1006.346618652344 630.8250732421875 1006.584228515625 630.9398193359375 1006.811096191406 631.05224609375 C 1008.854919433594 632.0665283203125 1010.081115722656 632.930419921875 1011.06640625 633.7333374023438 C 1011.06640625 633.7333374023438 1011.06640625 633.7333374023438 1011.06640625 633.7333374023438 L 1011.06640625 629.5701904296875 Z M 986.9530029296875 625.1061401367188 C 990.7262573242188 625.7987670898438 993.9541015625 626.5567016601562 996.7000732421875 627.325927734375 L 994.0026245117188 636.9549560546875 C 991.507568359375 636.2559814453125 988.576416015625 635.57080078125 985.147705078125 634.9414672851562 L 986.9530029296875 625.1061401367188 Z M 967.1087646484375 622.6803588867188 C 970.6973876953125 622.940185546875 974.0111694335938 623.2604370117188 977.06591796875 623.6258544921875 L 975.878173828125 633.5547485351562 C 972.9658203125 633.206298828125 969.80810546875 632.9017333984375 966.3866577148438 632.6539916992188 L 967.1087646484375 622.6801147460938 Z M 947.1275634765625 621.9526977539062 C 947.4410400390625 621.9542236328125 947.75341796875 621.9561767578125 948.0640258789062 621.9585571289062 C 948.0716552734375 621.9585571289062 948.0843505859375 621.958740234375 948.0919799804688 621.958740234375 C 951.2510375976562 621.98291015625 954.2613525390625 622.0482177734375 957.125244140625 622.1493530273438 L 956.7723999023438 632.1430053710938 C 953.7135620117188 632.0349731445312 950.4850463867188 631.9693603515625 947.0780639648438 631.9525146484375 L 947.1275634765625 621.9526977539062 Z M 937.1187133789062 622.0357666015625 L 937.3379516601562 632.0333862304688 C 934.0546875 632.1053466796875 930.8276977539062 632.2273559570312 927.6494750976562 632.3929443359375 L 927.1292724609375 622.406494140625 C 928.33251953125 622.3438110351562 929.5423583984375 622.2871704101562 930.7595825195312 622.2369384765625 C 930.7595825195312 622.2369384765625 930.7599487304688 622.2369384765625 930.7599487304688 622.2369384765625 C 930.78564453125 622.23583984375 930.8109741210938 622.2348022460938 930.836669921875 622.2337646484375 C 930.836669921875 622.2337646484375 930.8385620117188 622.2337036132812 930.8385620117188 622.2337036132812 C 930.8658447265625 622.2326049804688 930.895263671875 622.2313232421875 930.9221801757812 622.2302856445312 C 930.9472045898438 622.229248046875 930.97802734375 622.227783203125 931.0026245117188 622.2269897460938 C 931.0294189453125 622.2259521484375 931.0592651367188 622.2245483398438 931.0859375 622.2236328125 C 931.11376953125 622.2224731445312 931.141845703125 622.2213134765625 931.169677734375 622.2202758789062 C 931.1982421875 622.2191772460938 931.2225952148438 622.2181396484375 931.2510986328125 622.217041015625 C 931.279296875 622.2159423828125 931.3045043945312 622.21484375 931.3326416015625 622.2138061523438 C 931.3590087890625 622.212646484375 931.39111328125 622.2113647460938 931.41748046875 622.21044921875 C 931.4454345703125 622.2094116210938 931.476318359375 622.2081298828125 931.5042114257812 622.20703125 C 931.5352783203125 622.205810546875 931.5632934570312 622.2047729492188 931.5941772460938 622.2035522460938 C 931.5978393554688 622.203369140625 931.6015014648438 622.2032470703125 931.6051025390625 622.203125 C 933.4285278320312 622.1325073242188 935.26171875 622.0764770507812 937.1187133789062 622.0357666015625 Z M 917.1519165039062 623.070068359375 L 917.9550170898438 633.0377807617188 C 914.6779174804688 633.3018188476562 911.4469604492188 633.607421875 908.25341796875 633.9468994140625 L 907.1962890625 624.0029907226562 C 908.78369140625 623.834228515625 910.3798217773438 623.6736450195312 911.9862060546875 623.5221557617188 C 911.9862060546875 623.5221557617188 911.987548828125 623.5220336914062 911.987548828125 623.5220336914062 C 912.01123046875 623.519775390625 912.034912109375 623.5175170898438 912.0586547851562 623.5153198242188 C 912.068115234375 623.514404296875 912.0712280273438 623.5140991210938 912.0807495117188 623.5132446289062 C 912.0987548828125 623.5115356445312 912.1165161132812 623.5098876953125 912.1345825195312 623.5081787109375 C 912.14404296875 623.5072631835938 912.1567993164062 623.506103515625 912.166259765625 623.5051879882812 C 912.17919921875 623.5039672851562 912.192138671875 623.5027465820312 912.205078125 623.5015258789062 C 912.2208862304688 623.5000610351562 912.2391967773438 623.4983520507812 912.2549438476562 623.4968872070312 C 912.2630615234375 623.49609375 912.2713623046875 623.495361328125 912.2794799804688 623.4945678710938 C 912.2984619140625 623.4927978515625 912.3225708007812 623.4905395507812 912.3414916992188 623.48876953125 C 912.3445434570312 623.488525390625 912.3472290039062 623.4882202148438 912.3502807617188 623.4879760742188 C 913.9402465820312 623.3394775390625 915.5411987304688 623.1998291015625 917.1519165039062 623.070068359375 Z M 897.2656860351562 625.1710205078125 L 898.5375366210938 635.08984375 C 895.2634887695312 635.5096435546875 892.020263671875 635.9580078125 888.7979125976562 636.4261474609375 L 887.3602294921875 626.530029296875 C 890.32958984375 626.0986328125 893.3165893554688 625.683837890625 896.328369140625 625.2921142578125 C 896.3314208984375 625.2916870117188 896.3279418945312 625.2921752929688 896.3309936523438 625.291748046875 C 896.3798828125 625.285400390625 896.4293212890625 625.2789916992188 896.4782104492188 625.2726440429688 C 896.4812622070312 625.272216796875 896.486083984375 625.2716064453125 896.4891357421875 625.271240234375 C 896.5355834960938 625.2651977539062 896.581787109375 625.2592163085938 896.6282958984375 625.253173828125 C 896.6405029296875 625.2515869140625 896.6512451171875 625.2501831054688 896.6634521484375 625.2486572265625 C 896.6995849609375 625.2439575195312 896.7359008789062 625.2392578125 896.7720336914062 625.2345581054688 C 896.7933959960938 625.2318115234375 896.8135986328125 625.2291870117188 896.8349609375 625.2264404296875 C 896.8587646484375 625.223388671875 896.8821411132812 625.2203979492188 896.9058837890625 625.21728515625 C 896.9395141601562 625.2129516601562 896.9672241210938 625.2094116210938 897.0008544921875 625.205078125 C 897.0057373046875 625.2044677734375 897.0103149414062 625.203857421875 897.0151977539062 625.2032470703125 C 897.1007080078125 625.1921997070312 897.18017578125 625.1820068359375 897.2656860351562 625.1710205078125 Z M 877.4728393554688 628.0274658203125 L 879.0199584960938 637.9070434570312 L 869.19384765625 639.4755859375 L 867.598876953125 629.6036376953125 C 868.518310546875 629.455078125 869.4379272460938 629.3067016601562 870.3577270507812 629.1587524414062 C 870.3755493164062 629.1558837890625 870.387451171875 629.1539916992188 870.4052734375 629.151123046875 C 870.4249267578125 629.14794921875 870.4444580078125 629.1448364257812 870.464111328125 629.1416625976562 C 871.9951171875 628.8954467773438 873.525390625 628.6506958007812 875.0591430664062 628.40771484375 C 875.072021484375 628.4057006835938 875.0845336914062 628.4036865234375 875.097412109375 628.4016723632812 C 875.130126953125 628.396484375 875.1568603515625 628.3922119140625 875.1895751953125 628.3870849609375 C 875.2275390625 628.3810424804688 875.2655639648438 628.3750610351562 875.3035278320312 628.3690185546875 C 875.3095092773438 628.3681030273438 875.310302734375 628.3679809570312 875.3162231445312 628.3670043945312 C 876.0345458984375 628.2533569335938 876.7535400390625 628.14013671875 877.4728393554688 628.0274658203125 Z M 857.72705078125 631.1959838867188 L 859.3063354492188 641.0704956054688 L 849.3497314453125 642.6277465820312 L 847.8485107421875 632.7410888671875 C 851.1580200195312 632.238525390625 854.4474487304688 631.720458984375 857.72705078125 631.1959838867188 Z M 837.95068359375 634.1791381835938 L 839.3158569335938 644.0855102539062 C 835.9815063476562 644.5450439453125 832.6176147460938 644.9808349609375 829.2142944335938 645.384521484375 L 828.0362548828125 635.4542236328125 C 831.3765258789062 635.0579223632812 834.6781005859375 634.630126953125 837.95068359375 634.1791381835938 Z M 818.091064453125 636.5209350585938 L 819.0396728515625 646.475830078125 C 815.6800537109375 646.7959594726562 812.275390625 647.0787963867188 808.81689453125 647.3170166015625 L 808.1296997070312 637.3406372070312 C 809.8695678710938 637.2208251953125 811.5870361328125 637.090087890625 813.3001708984375 636.947998046875 C 813.308837890625 636.9473266601562 813.3176879882812 636.9465942382812 813.3263549804688 636.9458618164062 C 813.342529296875 636.9445190429688 813.360595703125 636.9429931640625 813.3767700195312 636.941650390625 C 813.3905029296875 636.9404907226562 813.404296875 636.9393920898438 813.4180908203125 636.938232421875 C 813.4277954101562 636.9374389648438 813.4431762695312 636.9361572265625 813.452880859375 636.935302734375 C 813.4755249023438 636.9334106445312 813.497802734375 636.9315795898438 813.5204467773438 636.9296875 C 813.523681640625 636.929443359375 813.5252685546875 636.9292602539062 813.5285034179688 636.9290161132812 C 815.0592651367188 636.8012084960938 816.5798950195312 636.6649169921875 818.091064453125 636.5209350585938 Z M 798.1414794921875 637.8875732421875 L 798.5449829101562 647.8794555664062 C 795.1727905273438 648.015625 791.7453002929688 648.1055908203125 788.2553100585938 648.1431274414062 L 788.147705078125 638.1436767578125 C 788.887939453125 638.1357421875 789.6289672851562 638.1253051757812 790.3634643554688 638.112548828125 C 790.3634643554688 638.112548828125 790.363525390625 638.112548828125 790.363525390625 638.112548828125 C 790.3923950195312 638.112060546875 790.4171752929688 638.1116333007812 790.4461059570312 638.111083984375 C 790.4747314453125 638.110595703125 790.5003662109375 638.1100463867188 790.5291748046875 638.109619140625 C 790.5562744140625 638.1091918945312 790.58447265625 638.1087036132812 790.6113891601562 638.108154296875 C 790.6386108398438 638.107666015625 790.6705322265625 638.1071166992188 790.69775390625 638.1065673828125 C 790.7271728515625 638.1060180664062 790.7525634765625 638.1055297851562 790.7821044921875 638.10498046875 C 790.810546875 638.1045532226562 790.8392333984375 638.10400390625 790.8676147460938 638.1033935546875 C 790.8939819335938 638.1029052734375 790.9252319335938 638.102294921875 790.9513549804688 638.101806640625 C 790.9813842773438 638.101318359375 791.012939453125 638.1005859375 791.0430297851562 638.1000366210938 C 791.0465087890625 638.0999755859375 791.0487670898438 638.0999145507812 791.05224609375 638.099853515625 C 793.107177734375 638.0599365234375 795.1402587890625 638.0015258789062 797.1527709960938 637.9260864257812 C 797.1527709960938 637.9260864257812 797.1539916992188 637.926025390625 797.1539916992188 637.926025390625 C 797.1893310546875 637.9247436523438 797.2207641601562 637.9235229492188 797.255859375 637.9222412109375 C 797.2866821289062 637.9210815429688 797.3121948242188 637.920166015625 797.343017578125 637.9188842773438 C 797.3700561523438 637.9179077148438 797.40234375 637.9166870117188 797.4293823242188 637.9155883789062 C 797.4566650390625 637.9147338867188 797.483154296875 637.91357421875 797.5106201171875 637.9124755859375 C 797.5394287109375 637.9114990234375 797.5679931640625 637.9102172851562 797.5971069335938 637.9091186523438 C 797.62158203125 637.9083862304688 797.6529541015625 637.906982421875 797.6773681640625 637.906005859375 C 797.6793823242188 637.9059448242188 797.6817016601562 637.9058837890625 797.6836547851562 637.90576171875 C 797.8364868164062 637.8998413085938 797.9889526367188 637.8937377929688 798.1414794921875 637.8875732421875 Z M 768.1486206054688 637.755126953125 C 768.4127197265625 637.7684326171875 768.6768188476562 637.7814331054688 768.9410400390625 637.7941284179688 C 768.9410400390625 637.7941284179688 768.9429321289062 637.794189453125 768.9429321289062 637.794189453125 C 768.9716186523438 637.7955932617188 769.0003051757812 637.7969360351562 769.0289916992188 637.79833984375 C 769.0368041992188 637.7987060546875 769.0343017578125 637.798583984375 769.0421142578125 637.7989501953125 C 769.0675048828125 637.8001708984375 769.0927734375 637.8013305664062 769.1181640625 637.8025512695312 C 769.1469116210938 637.8038330078125 769.1749267578125 637.80517578125 769.203857421875 637.8065795898438 C 769.2361450195312 637.80810546875 769.2593994140625 637.8092041015625 769.2916870117188 637.8107299804688 C 769.3214721679688 637.8121337890625 769.3516845703125 637.8135375976562 769.3814697265625 637.81494140625 C 769.41162109375 637.8162231445312 769.4400634765625 637.8175659179688 769.4703369140625 637.8190307617188 C 769.4937133789062 637.8201293945312 769.5103149414062 637.8208618164062 769.53369140625 637.8219604492188 C 769.5429077148438 637.8223876953125 769.5521240234375 637.8228149414062 769.5614013671875 637.8232421875 C 769.584716796875 637.8243408203125 769.611083984375 637.8255004882812 769.6344604492188 637.8265991210938 C 769.6387329101562 637.8267822265625 769.6430053710938 637.8269653320312 769.647216796875 637.8271484375 C 769.6744995117188 637.8284301757812 769.7001953125 637.82958984375 769.7274780273438 637.830810546875 C 769.7322998046875 637.8310546875 769.737060546875 637.831298828125 769.7418823242188 637.8314819335938 C 769.7691650390625 637.8327026367188 769.7979736328125 637.8340454101562 769.8252563476562 637.8352661132812 C 769.8269653320312 637.8353271484375 769.8286743164062 637.8353881835938 769.8303833007812 637.8355102539062 C 770.3595581054688 637.859375 770.8868408203125 637.8818359375 771.4168701171875 637.903076171875 C 771.417236328125 637.903076171875 771.417236328125 637.903076171875 771.4176025390625 637.9031372070312 C 771.4487915039062 637.9043579101562 771.4791870117188 637.9055786132812 771.5103759765625 637.9067993164062 C 771.5106201171875 637.9067993164062 771.5108642578125 637.9068603515625 771.5111083984375 637.9068603515625 C 771.5422973632812 637.9080810546875 771.5725708007812 637.9093017578125 771.603759765625 637.9105224609375 C 771.6041259765625 637.9105224609375 771.6043701171875 637.9105224609375 771.604736328125 637.9105224609375 C 771.6359252929688 637.9118041992188 771.6658325195312 637.9129638671875 771.697021484375 637.9141845703125 C 771.697509765625 637.9141845703125 771.6980590820312 637.9142456054688 771.6985473632812 637.9142456054688 C 771.729736328125 637.9154663085938 771.7562866210938 637.91650390625 771.7874755859375 637.917724609375 C 771.7901611328125 637.9177856445312 771.7929077148438 637.9179077148438 771.7955932617188 637.9180297851562 C 771.8267822265625 637.9192504882812 771.849365234375 637.9201049804688 771.8805541992188 637.9213256835938 C 771.883544921875 637.9214477539062 771.8866577148438 637.9215698242188 771.8897094726562 637.9216918945312 C 771.9208984375 637.9228515625 771.9423217773438 637.9237060546875 771.9735107421875 637.9248657226562 C 771.9769287109375 637.9249877929688 771.9805908203125 637.9251708984375 771.9840087890625 637.92529296875 C 772.0112915039062 637.9263305664062 772.036376953125 637.9273071289062 772.0636596679688 637.9283447265625 C 772.0931396484375 637.9292602539062 772.1275024414062 637.9307861328125 772.156494140625 637.9318237304688 C 772.1862182617188 637.9329833984375 772.2196655273438 637.9341430664062 772.2494506835938 637.935302734375 C 772.2797241210938 637.9365234375 772.3124389648438 637.9376831054688 772.3424682617188 637.9387817382812 C 772.3732299804688 637.9400024414062 772.4010620117188 637.94091796875 772.431884765625 637.9420776367188 C 772.4650268554688 637.9432373046875 772.49365234375 637.9442749023438 772.5269775390625 637.945556640625 C 772.5594482421875 637.9468994140625 772.5870361328125 637.94775390625 772.6195068359375 637.9489135742188 C 772.6531372070312 637.9502563476562 772.6787109375 637.9510498046875 772.7119140625 637.9522705078125 C 772.741943359375 637.9532470703125 772.7721557617188 637.9544067382812 772.8023681640625 637.9555053710938 C 772.8308715820312 637.9564819335938 772.8653564453125 637.9577026367188 772.89404296875 637.958740234375 C 772.92333984375 637.9597778320312 772.959716796875 637.9610595703125 772.9891357421875 637.9620971679688 C 773.0180053710938 637.9630126953125 773.0531616210938 637.96435546875 773.0819091796875 637.96533203125 C 773.1113891601562 637.9663696289062 773.14599609375 637.967529296875 773.175537109375 637.9685668945312 C 773.2046508789062 637.969482421875 773.2413330078125 637.9707641601562 773.2704467773438 637.9718017578125 C 773.2988891601562 637.9727783203125 773.3370361328125 637.9740600585938 773.3652954101562 637.9750366210938 C 773.400634765625 637.9761962890625 773.4254760742188 637.97705078125 773.4607543945312 637.9782104492188 C 773.495361328125 637.9793701171875 773.5195922851562 637.980224609375 773.5542602539062 637.9813232421875 C 773.5882568359375 637.9825439453125 773.6178588867188 637.9833984375 773.6519775390625 637.9845581054688 C 773.6836547851562 637.9857177734375 773.7151489257812 637.986572265625 773.7468872070312 637.9876708984375 C 773.7778930664062 637.98876953125 773.8098754882812 637.9896850585938 773.8410034179688 637.99072265625 C 773.8715209960938 637.9915771484375 773.9085083007812 637.9928588867188 773.9388427734375 637.9938354492188 C 773.9705810546875 637.9950561523438 774.0042724609375 637.9959716796875 774.0361328125 637.9969482421875 C 774.0693359375 637.9982299804688 774.099853515625 637.9989624023438 774.13330078125 638 C 774.1704711914062 638.0011596679688 774.2073364257812 638.0023193359375 774.2445068359375 638.00341796875 C 774.2540893554688 638.0037231445312 774.2637329101562 638.0040283203125 774.2733154296875 638.0043334960938 C 774.3102416992188 638.0054931640625 774.3470458984375 638.006591796875 774.3839721679688 638.0077514648438 C 774.3862915039062 638.0078125 774.3887329101562 638.0078735351562 774.3909912109375 638.0079345703125 C 774.42724609375 638.009033203125 774.4638671875 638.0101318359375 774.5001220703125 638.01123046875 C 774.5072021484375 638.011474609375 774.5142822265625 638.0116577148438 774.5213623046875 638.0119018554688 C 774.6007080078125 638.0142822265625 774.6802368164062 638.0166625976562 774.7595825195312 638.0189819335938 C 774.7617797851562 638.01904296875 774.7637939453125 638.0191040039062 774.7660522460938 638.0191650390625 C 775.898193359375 638.0523681640625 777.0238647460938 638.0797119140625 778.14306640625 638.1012573242188 L 777.9505615234375 648.099365234375 L 773.8209838867188 647.9951171875 C 771.7568969726562 647.9306030273438 769.6976318359375 647.845947265625 767.6450805664062 647.742431640625 L 768.1486206054688 637.755126953125 Z M 748.2141723632812 636.15673828125 C 750.701171875 636.4268798828125 753.2118530273438 636.6741943359375 755.7353515625 636.8952026367188 C 755.739013671875 636.8955078125 755.7428588867188 636.8958740234375 755.7465209960938 636.8961791992188 C 755.7694091796875 636.898193359375 755.7885131835938 636.8998413085938 755.8114013671875 636.90185546875 C 755.818359375 636.9024658203125 755.825439453125 636.903076171875 755.8323974609375 636.9036865234375 C 755.8515014648438 636.9053344726562 755.8701171875 636.906982421875 755.8892211914062 636.9086303710938 C 755.8977661132812 636.909423828125 755.9066162109375 636.91015625 755.9151611328125 636.910888671875 C 755.9266357421875 636.9119262695312 755.9443969726562 636.9134521484375 755.9558715820312 636.9144287109375 C 755.97802734375 636.9163818359375 756.0005493164062 636.9183349609375 756.0227661132812 636.9202880859375 C 756.0265502929688 636.9205932617188 756.0286254882812 636.9207763671875 756.032470703125 636.9210815429688 C 756.7437744140625 636.9827880859375 757.4563598632812 637.0424194335938 758.170166015625 637.0999145507812 L 757.3672485351562 647.067626953125 C 753.9259643554688 646.7904052734375 750.5121459960938 646.4651489257812 747.13427734375 646.0982666015625 L 748.2142333984375 636.1566772460938 Z M 728.3964233398438 633.4869384765625 C 729.7872924804688 633.7093505859375 731.1889038085938 633.9263305664062 732.599853515625 634.13720703125 C 732.604248046875 634.1378784179688 732.6087646484375 634.1385498046875 732.6131591796875 634.1392211914062 C 732.6348266601562 634.1424560546875 732.6529541015625 634.1451416015625 732.6746215820312 634.1483764648438 C 732.6814575195312 634.1494140625 732.688720703125 634.1505126953125 732.6954956054688 634.1515502929688 C 732.7171630859375 634.15478515625 732.7333984375 634.1571655273438 732.7550659179688 634.160400390625 C 732.7622680664062 634.1614990234375 732.769287109375 634.1625366210938 732.7765502929688 634.1636352539062 C 732.787353515625 634.1652221679688 732.8070678710938 634.1681518554688 732.81787109375 634.1697387695312 C 732.8331298828125 634.1720581054688 732.84814453125 634.1742553710938 732.8634643554688 634.1765747070312 C 732.8706665039062 634.1776123046875 732.885986328125 634.1798706054688 732.8931884765625 634.1809692382812 C 732.9163208007812 634.1843872070312 732.9391479492188 634.1878051757812 732.9622802734375 634.1912231445312 C 732.9622802734375 634.1912231445312 732.9671020507812 634.1919555664062 732.9671020507812 634.1919555664062 C 734.7263793945312 634.4533081054688 736.5005493164062 634.7052001953125 738.2882080078125 634.9464721679688 L 736.9505004882812 644.8565673828125 C 733.5211181640625 644.3936767578125 730.1402587890625 643.8928833007812 726.8173828125 643.3615112304688 L 728.3964233398438 633.4869384765625 Z M 708.7252807617188 629.8770141601562 C 710.7340698242188 630.2919921875 712.7777709960938 630.7002563476562 714.8538208007812 631.099609375 C 714.857177734375 631.1002807617188 714.8616333007812 631.1011352539062 714.864990234375 631.101806640625 C 714.8754272460938 631.1038208007812 714.8859252929688 631.1058349609375 714.8964233398438 631.1078491210938 C 714.9132080078125 631.1110229492188 714.9326782226562 631.1148071289062 714.949462890625 631.1180419921875 C 714.9561157226562 631.1193237304688 714.9628295898438 631.12060546875 714.9694213867188 631.1218872070312 C 714.9929809570312 631.1264038085938 715.0082397460938 631.1293334960938 715.03173828125 631.1338500976562 C 715.0341796875 631.13427734375 715.0368041992188 631.1348266601562 715.0392456054688 631.13525390625 C 716.198974609375 631.3578491210938 717.3622436523438 631.5764770507812 718.54150390625 631.7930297851562 L 716.7348022460938 641.6284790039062 C 713.3082885742188 640.9990844726562 709.9600830078125 640.34326171875 706.7021484375 639.6702880859375 L 708.7252807617188 629.8770141601562 Z M 689.2295532226562 625.4168090820312 C 692.3318481445312 626.195068359375 695.5762329101562 626.9762573242188 698.9520874023438 627.7489013671875 L 696.7210693359375 637.496826171875 C 693.276123046875 636.7084350585938 689.962158203125 635.9104614257812 686.7962036132812 635.1162109375 L 689.2295532226562 625.416748046875 Z M 669.9373168945312 620.14599609375 C 670.0115966796875 620.16796875 670.0858764648438 620.1900024414062 670.1604614257812 620.2120361328125 C 670.1604614257812 620.2120361328125 670.1619873046875 620.2124633789062 670.1619873046875 620.2124633789062 C 670.229248046875 620.2323608398438 670.2963256835938 620.252197265625 670.3638916015625 620.2721557617188 C 670.3638916015625 620.2721557617188 670.3645629882812 620.2723388671875 670.3645629882812 620.2723388671875 C 670.4307250976562 620.2918701171875 670.4968872070312 620.3114013671875 670.5632934570312 620.3309936523438 C 670.5718383789062 620.33349609375 670.5789794921875 620.3356323242188 670.5875244140625 620.338134765625 C 670.614501953125 620.3460693359375 670.6412963867188 620.3539428710938 670.6683349609375 620.3619384765625 C 670.6704711914062 620.362548828125 670.6755981445312 620.3640747070312 670.677734375 620.3646850585938 C 670.725830078125 620.3788452148438 670.7736206054688 620.3929443359375 670.8218994140625 620.4071044921875 C 670.8218994140625 620.4071044921875 670.8255004882812 620.408203125 670.8255004882812 620.408203125 C 670.832763671875 620.4103393554688 670.8397216796875 620.412353515625 670.8470458984375 620.4144897460938 C 670.85986328125 620.4182739257812 670.8729858398438 620.422119140625 670.8858642578125 620.4259033203125 C 670.8978881835938 620.429443359375 670.910400390625 620.43310546875 670.9224243164062 620.4366455078125 C 670.9266967773438 620.4379272460938 670.9283447265625 620.4384155273438 670.9326782226562 620.439697265625 C 670.939208984375 620.4415893554688 670.9458618164062 620.4435424804688 670.9524536132812 620.4454956054688 C 670.9717407226562 620.451171875 670.989990234375 620.45654296875 671.0093383789062 620.4622192382812 C 671.0135498046875 620.4634399414062 671.017578125 620.464599609375 671.0217895507812 620.4658813476562 C 671.0260620117188 620.4671020507812 671.0296630859375 620.4681396484375 671.033935546875 620.4694213867188 C 671.0419921875 620.4718017578125 671.0498657226562 620.47412109375 671.0579223632812 620.4764404296875 C 671.0729370117188 620.4808959960938 671.0885009765625 620.4854736328125 671.1035766601562 620.4898681640625 C 671.111083984375 620.4920654296875 671.1187744140625 620.4943237304688 671.1263427734375 620.4965209960938 C 671.1327514648438 620.4984130859375 671.13818359375 620.5 671.1446533203125 620.5018920898438 C 671.1494140625 620.5032958984375 671.1541748046875 620.5046997070312 671.158935546875 620.506103515625 C 673.7501220703125 621.2659912109375 676.5523681640625 622.062744140625 679.5499877929688 622.8814086914062 C 679.551513671875 622.8817749023438 679.552734375 622.8821411132812 679.55419921875 622.882568359375 L 676.9197387695312 632.5292358398438 C 673.3695068359375 631.5597534179688 670.0836181640625 630.619140625 667.09619140625 629.73388671875 L 669.9373168945312 620.14599609375 Z M 641 614 L 651 614 C 651 614 651 614 651 614 L 651 614 C 651 614 651 614 651.0000610351562 614 C 651.0000610351562 614 651.0001831054688 614.0000610351562 651.0003662109375 614.0001220703125 C 651.0003662109375 614.0000610351562 651.00048828125 614.0001831054688 651.0006103515625 614.0001831054688 C 651.0006713867188 614.0003051757812 651.0007934570312 614.0003662109375 651.0008544921875 614.0003051757812 C 651.0010375976562 614.0003662109375 651.0011596679688 614.00048828125 651.0013427734375 614.00048828125 C 651.0015869140625 614.0006103515625 651.0017700195312 614.0006103515625 651.0020141601562 614.000732421875 C 651.0020141601562 614.000732421875 651.0023193359375 614.0007934570312 651.0025024414062 614.0009155273438 C 651.0030517578125 614.0010986328125 651.003662109375 614.0011596679688 651.0040283203125 614.0015258789062 C 651.004638671875 614.00146484375 651.0047607421875 614.001708984375 651.0050659179688 614.0018920898438 C 651.0050659179688 614.0018920898438 651.005126953125 614.0018920898438 651.005126953125 614.0018920898438 C 651.0055541992188 614.0020141601562 651.0060424804688 614.002197265625 651.0065307617188 614.00244140625 C 651.0071411132812 614.002685546875 651.0079345703125 614.0028076171875 651.0083618164062 614.0031127929688 C 651.0092163085938 614.00341796875 651.010009765625 614.0038452148438 651.0110473632812 614.0040893554688 C 651.0181274414062 614.0067138671875 651.0286865234375 614.0106201171875 651.0426635742188 614.0157470703125 C 651.0433349609375 614.0162353515625 651.0447387695312 614.0164794921875 651.045654296875 614.0169067382812 C 651.045654296875 614.0169067382812 651.0458374023438 614.0169677734375 651.0458374023438 614.0169677734375 C 651.0485229492188 614.0179443359375 651.0507202148438 614.0186157226562 651.0546264648438 614.0202026367188 C 651.51123046875 614.1885986328125 654.8154296875 615.3975830078125 660.3794555664062 617.1924438476562 L 657.3095092773438 626.7095336914062 C 651.0353393554688 624.6856689453125 647.5130615234375 623.3723754882812 647.5130615234375 623.3723754882812 L 641.0066528320312 620.9464111328125 L 641 614 Z M 641 593.9159545898438 L 651 593.9159545898438 C 651 593.9159545898438 651 603.9159545898438 651 603.9159545898438 L 641 603.9159545898438 L 641 593.9159545898438 Z M 641 573.9159545898438 L 651 573.9159545898438 C 651 573.9159545898438 651 583.9159545898438 651 583.9159545898438 L 641 583.9159545898438 L 641 573.9159545898438 Z M 641 553.9159545898438 L 651 553.9159545898438 C 651 553.9159545898438 651 563.9159545898438 651 563.9159545898438 L 641 563.9159545898438 L 641 553.9159545898438 Z M 667.072021484375 539.9808349609375 L 667.083984375 549.9807739257812 C 667.083984375 549.9807739257812 657.083984375 549.9927368164062 657.083984375 549.9927368164062 L 657.0720825195312 539.9927368164062 L 667.072021484375 539.9808349609375 Z M 687.072021484375 539.9569091796875 L 687.083984375 549.9569091796875 L 677.083984375 549.9688720703125 L 677.072021484375 539.9688720703125 L 687.072021484375 539.9569091796875 Z M 707.072021484375 539.9330444335938 L 707.083984375 549.9330444335938 C 707.083984375 549.9330444335938 706.3721313476562 549.9338989257812 705.3284301757812 549.9351196289062 L 705.3216552734375 549.9351196289062 C 705.3110961914062 549.9351806640625 705.3005981445312 549.9351806640625 705.2900390625 549.9351806640625 L 705.2744750976562 549.9351806640625 C 705.26171875 549.9352416992188 705.2489624023438 549.9352416992188 705.236083984375 549.9352416992188 L 705.2307739257812 549.9352416992188 C 705.2256469726562 549.9352416992188 705.2203369140625 549.9352416992188 705.2152099609375 549.935302734375 L 705.2068481445312 549.935302734375 C 705.2012329101562 549.935302734375 705.1957397460938 549.935302734375 705.1900634765625 549.935302734375 L 705.183349609375 549.935302734375 C 705.1787109375 549.935302734375 705.1738891601562 549.935302734375 705.169189453125 549.935302734375 L 705.160400390625 549.9353637695312 C 705.1470947265625 549.9353637695312 705.1334838867188 549.9353637695312 705.1200561523438 549.9353637695312 L 705.1128540039062 549.9354248046875 C 705.09521484375 549.9354248046875 705.0771484375 549.9354248046875 705.059326171875 549.9354858398438 L 704.9682006835938 549.935546875 C 704.9659423828125 549.935546875 704.9642333984375 549.935546875 704.9619140625 549.935546875 L 704.7677612304688 549.935791015625 C 704.7654418945312 549.935791015625 704.7633056640625 549.935791015625 704.760986328125 549.935791015625 L 697.083984375 549.9450073242188 L 697.072021484375 539.9450073242188 L 707.072021484375 539.9330444335938 Z M 727.072021484375 539.9091796875 L 727.0839233398438 549.9091796875 C 727.0839233398438 549.9091796875 717.083984375 549.9210815429688 717.083984375 549.9210815429688 L 717.072021484375 539.9210815429688 L 727.072021484375 539.9091796875 Z M 747.0719604492188 539.8853149414062 L 747.0839233398438 549.8853149414062 L 742.7893676757812 549.8904418945312 C 742.7872314453125 549.8904418945312 742.78515625 549.8904418945312 742.7830200195312 549.8904418945312 L 742.7285766601562 549.8905029296875 C 742.7276611328125 549.8905029296875 742.7269287109375 549.8905029296875 742.72607421875 549.8905029296875 L 742.7066040039062 549.8905029296875 C 742.7020874023438 549.8905029296875 742.6978149414062 549.8905029296875 742.6932983398438 549.8905639648438 L 742.6851196289062 549.8905639648438 C 740.0017700195312 549.8937377929688 737.0839233398438 549.897216796875 737.0839233398438 549.897216796875 L 737.0719604492188 539.8972778320312 L 747.0719604492188 539.8853149414062 Z M 767.0719604492188 539.8614501953125 L 767.0839233398438 549.8614501953125 L 757.0839233398438 549.8733520507812 L 757.0719604492188 539.8733520507812 L 767.0719604492188 539.8614501953125 Z M 787.0719604492188 539.8375244140625 L 787.0839233398438 549.8375244140625 C 787.0839233398438 549.8375244140625 777.0839233398438 549.8494873046875 777.0839233398438 549.8494873046875 L 777.0719604492188 539.8494873046875 L 787.0719604492188 539.8375244140625 Z M 807.0719604492188 539.813720703125 L 807.0838623046875 549.813720703125 L 801.6546020507812 549.8201904296875 C 801.6491088867188 549.8201904296875 801.6444702148438 549.8201904296875 801.6389770507812 549.8201904296875 L 801.635498046875 549.8201904296875 C 801.6172485351562 549.8201904296875 801.5989379882812 549.8202514648438 801.5806884765625 549.8202514648438 L 801.5768432617188 549.8202514648438 C 799.2569580078125 549.822998046875 797.0839233398438 549.8256225585938 797.0839233398438 549.8256225585938 L 797.0719604492188 539.8256225585938 L 807.0719604492188 539.813720703125 Z M 827.0718994140625 539.789794921875 L 827.0838623046875 549.789794921875 L 817.0838623046875 549.8017578125 L 817.0718994140625 539.8017578125 L 827.0718994140625 539.789794921875 Z M 847.0718994140625 539.7659301757812 L 847.0838623046875 549.7659301757812 C 847.0838623046875 549.7659301757812 839.9088134765625 549.7744750976562 837.7139892578125 549.777099609375 L 837.689453125 549.7771606445312 C 837.6151733398438 549.7772216796875 837.5466918945312 549.77734375 837.48486328125 549.7774047851562 L 837.46923828125 549.7774047851562 C 837.4646606445312 549.7774047851562 837.4602661132812 549.7774047851562 837.4557495117188 549.7774047851562 L 837.4378662109375 549.7774658203125 C 837.427978515625 549.7774658203125 837.4182739257812 549.7774658203125 837.40869140625 549.7774658203125 L 837.20263671875 549.7777099609375 C 837.1982421875 549.7777099609375 837.1940307617188 549.7777709960938 837.1898803710938 549.7777709960938 L 837.0879516601562 549.7778930664062 C 837.0852661132812 549.7778930664062 837.0838623046875 549.7778930664062 837.0838623046875 549.7778930664062 L 837.0718994140625 539.7778930664062 L 847.0718994140625 539.7659301757812 Z M 867.0718994140625 539.7420654296875 L 867.0838623046875 549.7420654296875 C 867.0838623046875 549.7420654296875 857.0838623046875 549.7539672851562 857.0838623046875 549.7539672851562 L 857.0718994140625 539.7539672851562 L 867.0718994140625 539.7420654296875 Z M 887.0718994140625 539.7182006835938 L 887.0838012695312 549.7182006835938 L 877.0838623046875 549.7301025390625 L 877.0718994140625 539.7301635742188 L 887.0718994140625 539.7182006835938 Z M 907.0718994140625 539.6943359375 L 907.0838012695312 549.6943359375 C 907.0838012695312 549.6943359375 905.8723754882812 549.6957397460938 904.2930297851562 549.6976318359375 L 904.28564453125 549.6976318359375 C 904.2620849609375 549.6976928710938 904.2383422851562 549.6976928710938 904.214599609375 549.69775390625 L 904.2037353515625 549.69775390625 C 904.1978759765625 549.69775390625 904.1919555664062 549.69775390625 904.18603515625 549.69775390625 L 904.1817016601562 549.6978149414062 C 904.1744384765625 549.6978149414062 904.1666870117188 549.6978149414062 904.159423828125 549.6978149414062 L 904.1547241210938 549.6978149414062 C 904.138427734375 549.6978149414062 904.1220703125 549.6978759765625 904.1057739257812 549.6978759765625 L 904.1008911132812 549.6978759765625 C 904.0975341796875 549.6978759765625 904.0941772460938 549.6978759765625 904.0908203125 549.6978759765625 L 904.0899047851562 549.6978759765625 C 904.0859985351562 549.6978759765625 904.0827026367188 549.6978759765625 904.0787353515625 549.6979370117188 L 904.0740356445312 549.6979370117188 C 904.0714721679688 549.6979370117188 904.0692749023438 549.6979370117188 904.0667114257812 549.6979370117188 L 904.0586547851562 549.6979370117188 C 904.0572509765625 549.6979370117188 904.0558471679688 549.6979370117188 904.054443359375 549.6979370117188 L 904.0438232421875 549.6979370117188 C 904.0330200195312 549.6979370117188 904.0218505859375 549.697998046875 904.0110473632812 549.697998046875 L 904.00634765625 549.697998046875 C 904.0035400390625 549.697998046875 904.0001220703125 549.697998046875 903.9972534179688 549.697998046875 L 903.9929809570312 549.697998046875 C 903.9895629882812 549.697998046875 903.9864501953125 549.697998046875 903.9830322265625 549.697998046875 L 903.9799194335938 549.697998046875 C 903.9762573242188 549.6980590820312 903.9720458984375 549.6980590820312 903.9683837890625 549.6980590820312 L 903.9672241210938 549.6980590820312 C 903.9464111328125 549.6980590820312 903.925048828125 549.6981201171875 903.9041137695312 549.6981201171875 L 903.8959350585938 549.6981201171875 C 903.8927612304688 549.6981201171875 903.8895874023438 549.6981201171875 903.8864135742188 549.6981201171875 L 903.8665161132812 549.6981811523438 C 903.8648071289062 549.6981811523438 903.8631591796875 549.6981811523438 903.8614501953125 549.6981811523438 L 903.81103515625 549.6982421875 C 903.809326171875 549.6982421875 903.8075561523438 549.6982421875 903.8058471679688 549.6982421875 L 897.0838012695312 549.7062377929688 L 897.0718994140625 539.7062377929688 L 907.0718994140625 539.6943359375 Z M 927.0718994140625 539.67041015625 L 927.0838012695312 549.67041015625 C 927.0838012695312 549.67041015625 917.0838012695312 549.682373046875 917.0838012695312 549.682373046875 L 917.0718994140625 539.682373046875 L 927.0718994140625 539.67041015625 Z M 947.0718994140625 539.6466064453125 L 947.0838012695312 549.6466064453125 L 937.0838012695312 549.6585083007812 L 937.0718994140625 539.6585693359375 L 947.0718994140625 539.6466064453125 Z M 967.0718994140625 539.6226806640625 L 967.083740234375 549.6226806640625 L 957.0838012695312 549.6346435546875 L 957.0718994140625 539.6346435546875 L 967.0718994140625 539.6226806640625 Z M 987.0718383789062 539.5988159179688 L 987.083740234375 549.5988159179688 C 987.083740234375 549.5988159179688 977.083740234375 549.6107788085938 977.083740234375 549.6107788085938 L 977.0718383789062 539.6107788085938 L 987.0718383789062 539.5988159179688 Z M 1007.071838378906 539.5750122070312 L 1007.083740234375 549.5750122070312 L 1001.968994140625 549.5810546875 C 1001.967468261719 549.5810546875 1001.96630859375 549.5810546875 1001.964782714844 549.5810546875 L 1001.917114257812 549.5811157226562 C 1001.911926269531 549.5811157226562 1001.906555175781 549.5811157226562 1001.9013671875 549.5811157226562 L 1001.899719238281 549.5811767578125 C 1001.896057128906 549.5811767578125 1001.892456054688 549.5811767578125 1001.888793945312 549.5811767578125 L 1001.882263183594 549.5811767578125 C 1001.880126953125 549.5811767578125 1001.878295898438 549.5811767578125 1001.876159667969 549.5811767578125 L 1001.86474609375 549.5811767578125 C 1001.84765625 549.5812377929688 1001.830749511719 549.5812377929688 1001.813720703125 549.5812377929688 L 1001.811706542969 549.5812377929688 C 999.405517578125 549.5841064453125 997.083740234375 549.5868530273438 997.083740234375 549.5868530273438 L 997.0718383789062 539.5869140625 L 1007.071838378906 539.5750122070312 Z" stroke="none" fill="#7e3dfe"/>
    </g>
  </g>
</svg>
