<svg id="p-button" xmlns="http://www.w3.org/2000/svg" width="268" height="61.613" viewBox="0 0 268 61.613">
  <path id="Path_100453" data-name="Path 100453" d="M2.545,53.293C4.4,58.657,38.576,56.982,55.13,57.157c59.882.633,134.374,1.026,193.625-1.775,6.376-.3,11.882-.266,15.218-1.493,3.2-1.178,3.2-17.3,2.9-23.692s-1.706-24.938-1.706-24.938a5.68,5.68,0,0,0-4.209-2.879c-2.179-.4-14.9-1.391-50.719-1.854S178.419-.05,116.3.018,14.095-.06,5.444,1.412C3.026,1.824-.365,3.38.032,11.882S1.183,49.354,2.545,53.293Z" transform="translate(1 4)" opacity="0.3"/>
  <path id="Path_100449" data-name="Path 100449" d="M1.68,53.293c1.854,5.364,36.012,3.689,52.558,3.865,59.852.633,134.306,1.026,193.526-1.775,6.373-.3,11.876-.266,15.21-1.493,3.2-1.178,3.2-17.3,2.9-23.692s-1.7-24.938-1.7-24.938a5.678,5.678,0,0,0-4.206-2.879C257.785,1.98,246.8.99,211,.526S177.465-.05,115.378.018,14.087-.06,5.442,1.412C3.025,1.824-.365,3.38.032,11.882S.319,49.354,1.68,53.293Z" transform="translate(0 0)"/>
  <path id="Path_99970" data-name="Path 99970" d="M1,45.062c1.8,4.644,2.555,4.778,18.61,4.929,58.078.548,165.281.621,222.746-1.8,6.184-.261,11.524-.23,14.76-1.292,1-2.245,1.106-15.043.812-20.58S256.7,3.7,256.7,3.7a5.449,5.449,0,0,0-4.082-2.492C250.5.861,238.118.594,203.379.192s-31.194-.059-91.441,0S13.571.435,5.181,1.71C2.836,2.066-.353,3.1.032,10.464S-.318,41.652,1,45.062Z" transform="translate(3 3.613)" fill="#edddff"/>
</svg>
