<svg xmlns="http://www.w3.org/2000/svg" width="248.455" height="57.613" viewBox="0 0 248.455 57.613">
  <g id="pink-border-sm" transform="translate(0 0)">
    <path id="Path_100449" data-name="Path 100449" d="M1.57,53.293c1.732,5.364,33.637,3.689,49.091,3.865,55.9.633,125.447,1.026,180.761-1.775,5.952-.3,11.093-.266,14.207-1.493,2.989-1.178,2.991-17.3,2.709-23.692s-1.592-24.938-1.592-24.938a5.379,5.379,0,0,0-3.929-2.879c-2.035-.4-12.3-1.391-45.736-1.854S165.759-.05,107.768.018,13.158-.06,5.083,1.412C2.825,1.824-.341,3.38.03,11.882S.3,49.354,1.57,53.293Z" fill="#ff6090"/>
    <path id="Path_99970" data-name="Path 99970" d="M.935,45.062c1.677,4.644,2.381,4.778,17.345,4.929,54.13.548,154.044.621,207.6-1.8,5.763-.261,10.741-.23,13.756-1.292.928-2.245,1.03-15.043.757-20.58S239.244,3.7,239.244,3.7a5.1,5.1,0,0,0-3.8-2.492C233.47.861,221.93.594,189.553.192s-29.074-.059-85.225,0S12.648.435,4.829,1.71C2.643,2.066-.329,3.1.03,10.464S-.3,41.652.935,45.062Z" transform="translate(3 3.387)" fill="#fff"/>
  </g>
</svg>
