<svg xmlns="http://www.w3.org/2000/svg" width="302.522" height="57.613" viewBox="0 0 302.522 57.613">
  <g id="pink-border" transform="translate(0 0)">
    <path id="Path_100449" data-name="Path 100449" d="M1.911,53.293c2.109,5.364,40.957,3.689,59.774,3.865,68.069.633,152.746,1.026,220.1-1.775,7.248-.3,13.507-.266,17.3-1.493,3.64-1.178,3.642-17.3,3.3-23.692s-1.939-24.938-1.939-24.938-1.155-2.292-4.784-2.879C293.18,1.98,280.683.99,239.968.526S201.831-.05,131.219.018,16.022-.06,6.189,1.412C3.44,1.824-.415,3.38.036,11.882S.363,49.354,1.911,53.293Z" fill="#ff6090"/>
    <path id="Path_99970" data-name="Path 99970" d="M1.145,45.062C3.2,49.707,4.062,49.84,22.389,49.992c66.3.548,188.671.621,254.269-1.8,7.059-.261,13.155-.23,16.848-1.292,1.137-2.245,1.262-15.043.927-20.58S293.023,3.7,293.023,3.7s-1.125-1.984-4.659-2.492C285.95.861,271.816.594,232.161.192s-35.609-.059-104.382,0S15.492.435,5.915,1.71C3.238,2.066-.4,3.1.036,10.464S-.363,41.652,1.145,45.062Z" transform="translate(3 3.387)" fill="#fff"/>
  </g>
</svg>
