<svg xmlns="http://www.w3.org/2000/svg" width="82.996" height="83.092" viewBox="0 0 82.996 83.092">
  <g id="slide-ico-3" transform="translate(0.718 1)">
    <g id="Group_66150" data-name="Group 66150" transform="translate(0.287 0)">
      <g id="Group_66148" data-name="Group 66148" transform="translate(0 0)">
        <path id="Path_107342" data-name="Path 107342" d="M319.056,98.362A41.322,41.322,0,0,1,308.041,62.1c12.328,15.241,33.472,24.605,53.012,22.288a5.92,5.92,0,0,0-.443,2.762,4.975,4.975,0,0,0,1.381,3.044c-6,4.56-12.242,8.116-19.7,9.674-8,1.675-15.321.572-23.088-1.5A.29.29,0,0,0,319.056,98.362Z" transform="translate(-306.101 -30.028)" fill="#ffec00"/>
        <path id="Path_107343" data-name="Path 107343" d="M305.772,104.727c.026-.1.034-.2.06-.316,3.7-15.4,16.523-25.05,31.085-27.856a.259.259,0,0,0,.128.222c.358.2.734.359,1.1.53a.391.391,0,0,0,.154.266c3.359,2.651,6.556,4.995,9.3,8.329a78.128,78.128,0,0,1,7.836,11.649c4.9,8.775,7.434,18.517,4.6,28.412a.317.317,0,0,0,.495.342l.026.035a4.9,4.9,0,0,0-1.834,1.83.315.315,0,0,0-.247-.1c-20.666.077-38.97-7.517-52.611-23.262C305.831,104.77,305.8,104.752,305.772,104.727Z" transform="translate(-303.465 -74.425)" fill="#f87d36"/>
        <path id="Path_107344" data-name="Path 107344" d="M297.622,122.123c-11.543-11.58-14.971-30.258-8.611-45.285,7.128-16.848,26.336-25.511,43.908-23.322a.583.583,0,0,1,.469.351c17.52,2.42,30.829,18.337,33.1,35.671a39.348,39.348,0,0,1-23.829,41.727C327.555,137.568,309.174,133.7,297.622,122.123Zm-9.83-36.87a41.323,41.323,0,0,0,11.015,36.262.29.29,0,0,1,.145.008c7.767,2.07,15.09,3.173,23.088,1.5,7.46-1.557,13.7-5.114,19.7-9.674a4.976,4.976,0,0,1-1.381-3.044,5.92,5.92,0,0,1,.443-2.762C321.264,109.859,300.12,100.494,287.791,85.253Zm.426-2.086c-.026.111-.034.213-.06.316.026.026.06.043.095.077,13.641,15.745,31.945,23.339,52.611,23.262a.315.315,0,0,1,.247.1,4.9,4.9,0,0,1,1.834-1.83,4.5,4.5,0,0,1,2.267-.548,4.61,4.61,0,0,1,2.506.82,32.474,32.474,0,0,0,9.933-11.947c2.4-4.918,3.121-10.135,4.681-15.3-5.32-12.222-16.046-20.62-29.166-23.476a.471.471,0,0,1-.247.026,47.714,47.714,0,0,0-12.251.393c.162.129.332.248.495.377h.034c8.432,3.284,14.579,13.752,18.586,21.389,4.528,8.638,7.034,18.678,3.274,28.061a.346.346,0,0,1-.136.171.317.317,0,0,1-.495-.342c2.831-9.895.3-19.636-4.6-28.412a78.127,78.127,0,0,0-7.836-11.649c-2.744-3.335-5.941-5.678-9.3-8.329a.391.391,0,0,1-.154-.266c-.366-.171-.742-.333-1.1-.53a.259.259,0,0,1-.128-.222C304.74,58.117,291.918,67.764,288.217,83.167Zm12.661,40.273c.734.633,1.5,1.24,2.285,1.812,11.774,8.6,27.751,10.418,40.906,4.2a.515.515,0,0,1,.068-.23c2.635-4.926,2.6-9.706,1.535-15.035a.693.693,0,0,0-.136.016,3.29,3.29,0,0,1-3.342-.461C332.389,124.014,314.451,128.178,300.878,123.44Zm45.484-17.319c-5.66-2.224-6.309,8.569-.878,7.039a.471.471,0,0,1,.53.23,4.237,4.237,0,0,0,2.659-2.84A3.917,3.917,0,0,0,346.362,106.122Zm-.707,22.536c.2-.1.408-.214.613-.325A37.616,37.616,0,0,0,361.453,112.7a8.57,8.57,0,0,1-4.1.727,18.924,18.924,0,0,1-7.886-1.736,4.751,4.751,0,0,1-3.282,2.429C348.358,118.7,347.753,124.149,345.656,128.657Zm4.16-17.832c.026.008.06.008.085.018a18.918,18.918,0,0,0,6.616,1.693c1.577.111,3.871.274,5.32-.615a39.731,39.731,0,0,0,2.813-26.9,43.563,43.563,0,0,0-1.585-5.088c-.938,9.921-6.19,20.688-14.655,26a5.1,5.1,0,0,1,1.56,4.106A4.068,4.068,0,0,1,349.816,110.825Z" transform="translate(-285.851 -53.181)" fill="#1d1d1b"/>
        <path id="Path_107344_-_Outline" data-name="Path 107344 - Outline" d="M327.365,135.273a43.667,43.667,0,0,1-8.36-.814,44.177,44.177,0,0,1-8.059-2.392,43.146,43.146,0,0,1-7.463-3.9,41.152,41.152,0,0,1-6.569-5.339c-11.761-11.8-15.389-30.87-8.824-46.382a38.2,38.2,0,0,1,16.076-17.972,45.233,45.233,0,0,1,11.23-4.691,46.656,46.656,0,0,1,12.1-1.6,45.02,45.02,0,0,1,5.54.341,1.548,1.548,0,0,1,.89.411,35.653,35.653,0,0,1,12.192,4.217A40.54,40.54,0,0,1,356.4,65.44a44.952,44.952,0,0,1,11.084,23.968,41.237,41.237,0,0,1-.414,13.384,40.391,40.391,0,0,1-4.529,12.191,40.086,40.086,0,0,1-19.493,17.206A40.506,40.506,0,0,1,327.365,135.273Zm-21.745-9.545a40.436,40.436,0,0,0,21.782,6.411,38.274,38.274,0,0,0,15.868-3.418c2.057-3.861,2.554-7.888,1.614-13.305a4.223,4.223,0,0,1-2.536-.4,38.22,38.22,0,0,1-13,8.264,45.444,45.444,0,0,1-16.4,3.112A39.919,39.919,0,0,1,305.62,125.728Zm41.917-10.986a16.155,16.155,0,0,1,.982,6.731,20.347,20.347,0,0,1-.909,4.9A36.612,36.612,0,0,0,359.4,114.329a20.277,20.277,0,0,1-2.031.1h-.212a19.679,19.679,0,0,1-7.3-1.491A5.8,5.8,0,0,1,347.537,114.742Zm-47.793,8.023q.429.388.868.762l.276-.477Q300.324,122.913,299.745,122.765Zm-.459-2.187a56.7,56.7,0,0,0,14.81,2.26,37.293,37.293,0,0,0,7.738-.8c6.234-1.3,11.969-4.051,18.485-8.878a6.033,6.033,0,0,1-.955-2.78,6.922,6.922,0,0,1,.073-1.7c-1.529.136-3.083.2-4.638.2a61.162,61.162,0,0,1-26.443-6.286,63.135,63.135,0,0,1-19.915-15.029A40.328,40.328,0,0,0,299.286,120.578Zm45.614-13.76a1.8,1.8,0,0,0-1.534.847,3.883,3.883,0,0,0-.621,2.174,3.26,3.26,0,0,0,.494,1.827,1.423,1.423,0,0,0,1.24.643,2.732,2.732,0,0,0,.734-.112l.016,0a1.467,1.467,0,0,1,.887.044,3.1,3.1,0,0,0,1.587-1.931A2.9,2.9,0,0,0,346,107.053,3.037,3.037,0,0,0,344.9,106.819Zm6.057,3.39a17.693,17.693,0,0,0,5.626,1.329h.008c.571.04,1.219.086,1.877.086h0a6.218,6.218,0,0,0,2.608-.428,38.833,38.833,0,0,0,2.6-25.937q-.124-.5-.261-1.006-.365,1.742-.891,3.473a40.1,40.1,0,0,1-3.087,7.413A31.583,31.583,0,0,1,349.9,106.15a6.012,6.012,0,0,1,1.068,3.984Q350.961,110.172,350.957,110.209ZM289.244,83.177c12.968,14.817,30.7,22.646,51.307,22.646h.091a6.012,6.012,0,0,1,.774-.853,1.367,1.367,0,0,1,.044-.521l0-.006c2.456-8.586.937-17.889-4.515-27.649a77.193,77.193,0,0,0-7.734-11.5,48.341,48.341,0,0,0-7.959-7.247q-.586-.459-1.179-.926a1.371,1.371,0,0,1-.293-.3c-.272-.125-.552-.256-.833-.41l-.012-.007C303.689,59.527,292.625,69.494,289.244,83.177Zm55.867,20.37h.12a5.514,5.514,0,0,1,2.415.618,31.507,31.507,0,0,0,9.1-11.184,49.513,49.513,0,0,0,3.26-10.035c.387-1.558.786-3.165,1.256-4.76a39.677,39.677,0,0,0-28.108-22.52,1.45,1.45,0,0,1-.366,0c-1.472-.144-2.974-.216-4.465-.216-1.453,0-2.914.069-4.37.2,7.287,4.109,12.71,13.094,16.707,20.713a45.175,45.175,0,0,1,4.848,14.066,28.5,28.5,0,0,1-.921,13.14Q344.85,103.547,345.112,103.547Z" transform="translate(-285.851 -53.181)"/>
        <path id="Path_107345" data-name="Path 107345" d="M305.7,65.662c-.784-.572-1.551-1.179-2.285-1.812,13.573,4.737,31.512.573,41.316-9.7a3.29,3.29,0,0,0,3.342.461.693.693,0,0,1,.136-.016c1.066,5.328,1.1,10.109-1.535,15.035a.516.516,0,0,0-.068.23C333.455,76.08,317.478,74.266,305.7,65.662Z" transform="translate(-288.391 6.409)" fill="#a9f833"/>
        <path id="Path_107346" data-name="Path 107346" d="M290.213,78.88c-.162-.129-.332-.248-.495-.377a47.715,47.715,0,0,1,12.251-.393.471.471,0,0,0,.247-.026c13.12,2.856,23.846,11.254,29.166,23.476-1.559,5.166-2.285,10.383-4.681,15.3a32.474,32.474,0,0,1-9.933,11.947,4.61,4.61,0,0,0-2.506-.82,4.5,4.5,0,0,0-2.267.548l-.026-.035a.346.346,0,0,0,.137-.171c3.76-9.382,1.254-19.422-3.274-28.061-4.006-7.637-10.154-18.1-18.586-21.389Z" transform="translate(-254.902 -76.621)" fill="#fe301c"/>
        <path id="Path_107347" data-name="Path 107347" d="M305.082,78.371c-5.431,1.53-4.782-9.263.878-7.039a3.917,3.917,0,0,1,2.311,4.43,4.237,4.237,0,0,1-2.659,2.84A.471.471,0,0,0,305.082,78.371Z" transform="translate(-245.448 -18.392)" fill="#f6f6f6"/>
        <path id="Path_107348" data-name="Path 107348" d="M291.085,74.624c-.205.111-.409.222-.613.325,2.1-4.508,2.7-9.956.528-14.54a4.751,4.751,0,0,0,3.282-2.429,18.924,18.924,0,0,0,7.886,1.736,8.57,8.57,0,0,0,4.1-.727A37.616,37.616,0,0,1,291.085,74.624Z" transform="translate(-230.666 0.526)" fill="#00d5ff"/>
        <path id="Path_107349" data-name="Path 107349" d="M288.228,102.593c-.026-.009-.059-.009-.085-.018a4.073,4.073,0,0,0,.153-.786,5.1,5.1,0,0,0-1.559-4.106c8.465-5.311,13.718-16.078,14.655-26a43.558,43.558,0,0,1,1.585,5.088,39.731,39.731,0,0,1-2.813,26.9c-1.449.889-3.743.727-5.32.615A18.918,18.918,0,0,1,288.228,102.593Z" transform="translate(-224.178 -44.931)" fill="#780dfc"/>
      </g>
      <g id="Group_66149" data-name="Group 66149" transform="translate(0 0)" opacity="0.5" style="mix-blend-mode: multiply;isolation: isolate">
        <path id="Path_107350" data-name="Path 107350" d="M308.794,127.877a40.019,40.019,0,0,0,6.743,5.417c-.629-.882-1.225-1.791-1.78-2.727-.582-.442-1.156-.9-1.706-1.372.376.131.755.252,1.135.37-.316-.572-.619-1.15-.907-1.739-.715-.174-1.432-.354-2.154-.548a.29.29,0,0,0-.145-.008,41.322,41.322,0,0,1-11.015-36.262,59,59,0,0,0,10.4,9.978q.222-.951.488-1.89a68.647,68.647,0,0,1-10.424-9.781c-.035-.034-.069-.051-.095-.077.026-.1.034-.2.06-.316,3.7-15.4,16.523-25.05,31.085-27.856a.259.259,0,0,0,.128.222c.358.2.734.359,1.1.53a.391.391,0,0,0,.154.266,62.935,62.935,0,0,1,8.625,7.554c.658-.16,1.318-.309,1.982-.439-2.9-3.524-6.261-6.511-10.1-8h-.034c-.162-.129-.332-.248-.495-.377a47.715,47.715,0,0,1,12.251-.393.47.47,0,0,0,.247-.026,42.171,42.171,0,0,1,18.494,9.063q1.079.223,2.152.488a36.39,36.39,0,0,0-20.424-10.329.583.583,0,0,0-.469-.351c-17.571-2.189-36.78,6.474-43.908,23.322C293.822,97.62,297.25,116.3,308.794,127.877Z" transform="translate(-297.023 -58.936)" fill="#1d1d1b"/>
        <path id="Path_107351" data-name="Path 107351" d="M299.4,114.487c3.835,1.493,7.193,4.48,10.1,8a51.636,51.636,0,0,1,20.368.263,42.171,42.171,0,0,0-18.494-9.063.471.471,0,0,1-.247.026,47.714,47.714,0,0,0-12.251.393c.162.129.332.248.495.377Z" transform="translate(-264.052 -112.228)" fill="#fe301c"/>
      </g>
      <path id="Path_107352" data-name="Path 107352" d="M7.68,9.34A37.813,37.813,0,0,0,8.911,3.957a16.547,16.547,0,0,1,.795-3.7.35.35,0,0,1,.683.1c.323,3.089-.544,6.4-1.444,9.337a34.565,34.565,0,0,1-2.879,6.752q-.547.974-1.17,1.9c-.453.667-1.061,1.2-1.541,1.839a31.19,31.19,0,0,1-3.2,3.646C.1,23.883,0,23.812.047,23.749A48.509,48.509,0,0,0,7.68,9.34Z" transform="matrix(-0.819, -0.574, 0.574, -0.819, 20.624, 25.566)" fill-rule="evenodd"/>
      <path id="Path_107353" data-name="Path 107353" d="M.412.152a.213.213,0,0,1,.408,0C1.162,1.242.783,2.336.707,3.443a.348.348,0,0,1-.7-.009A9,9,0,0,1,.412.152Z" transform="matrix(-0.819, -0.574, 0.574, -0.819, 7.99, 26.288)" fill-rule="evenodd"/>
      <path id="Path_107354" data-name="Path 107354" d="M7.663,5.8A16.533,16.533,0,0,0,8.908,2.443a7.161,7.161,0,0,1,.8-2.3c.151-.233.642-.19.683.06.316,1.923-.559,3.989-1.467,5.817a18.748,18.748,0,0,1-2.9,4.211q-.549.608-1.175,1.186c-.455.416-1.064.747-1.546,1.148A26.726,26.726,0,0,1,.1,14.838c-.054.032-.156-.012-.108-.051A29.675,29.675,0,0,0,7.663,5.8Z" transform="translate(21.104 54.593) rotate(120)" fill-rule="evenodd" opacity="0.3"/>
    </g>
  </g>
</svg>
