<svg xmlns="http://www.w3.org/2000/svg" width="48.173" height="51.867" viewBox="0 0 48.173 51.867">
  <g id="slide-ico-7" transform="translate(0 6.492) rotate(-9)">
    <ellipse id="Ellipse_543" data-name="Ellipse 543" cx="20.748" cy="20.748" rx="20.748" ry="20.748" transform="translate(0 4.443)" opacity="0.3"/>
    <g id="Group_43986" data-name="Group 43986" transform="translate(0 0)">
      <ellipse id="Ellipse_542" data-name="Ellipse 542" cx="20.748" cy="20.748" rx="20.748" ry="20.748" transform="translate(0 0)" fill="#fff"/>
      <path id="Path_99823" data-name="Path 99823" d="M12.215,1.2C35.539-6.764,43.59,27.349,20.562,34.589-.27,41.14-8.973,8.094,12.215,1.2Z" transform="translate(3.57 3.115)" fill="#ffe700"/>
      <path id="Path_99824" data-name="Path 99824" d="M0,.322C6.391.434,12.75-.08,19.14.011,16.671,10.5,2.022,11.818,0,.322Z" transform="translate(11.392 25.01)" fill="#df2e27"/>
      <path id="Path_99825" data-name="Path 99825" d="M0,3.9V2.334L1.4,1.089,2.879.311,4.668,0,5.913.623l1.4,1.9L5.9,3.2l-1.545.7-1.479.615Z" transform="translate(18.083 29.533)" fill="#d05395"/>
      <path id="Path_99826" data-name="Path 99826" d="M0,.832,20.08,0V3.069L.94,3.38Z" transform="translate(10.452 21.952)" fill="#fff"/>
      <path id="Path_99827" data-name="Path 99827" d="M21.946,13.245C12.915,16.118,9.648,14.59.6.527c-1.7-2.639.505,5.31,3.233,8.726,5.017,6.282,9.494,6.988,15.458,6.345C28.632,14.59,35.759,3.376,34.894.8,34.452-.52,28.992,11,21.946,13.245Z" transform="translate(3.455 21.424)" fill="#ffb01f"/>
      <path id="Path_99828" data-name="Path 99828" d="M29.859,6.635C27.2,1.222,21.166-.431,15.542.092,10.1.6,4.141,2.821.327,6.866-.7,7.96.943,9.614,1.978,8.516c3.346-3.548,8.537-5.51,13.3-6.063,4.9-.569,10.22.592,12.565,5.36C28.508,9.164,30.521,7.981,29.859,6.635Z" transform="translate(5.57 4.413)" fill="#fff"/>
      <path id="Path_99829" data-name="Path 99829" d="M2.826.78c.834-.069,1.667-.16,2.5-.2C6.2.535,7.075.556,7.947.518,9.415.454,10.881.343,12.349.3c1.4-.046,2.812-.014,4.216-.062.815-.028,1.627-.157,2.441-.221a8.249,8.249,0,0,1,1.025.011.311.311,0,0,1,.2.129,7.614,7.614,0,0,1,.659.977A1.34,1.34,0,0,1,21,1.856c-.074.609-.19,1.214-.308,1.816-.134.683-.272,1.366-.444,2.039a3.191,3.191,0,0,1-.358.787c-.614,1.057-1.2,2.132-1.883,3.146a4.136,4.136,0,0,1-1.128.963,14.978,14.978,0,0,1-1.759,1.085,7.986,7.986,0,0,1-1.9.741,15.4,15.4,0,0,1-3.17.415,7.141,7.141,0,0,1-3.008-.675c-.374-.174-.8-.245-1.175-.411a6.352,6.352,0,0,1-1.513-.775,9.874,9.874,0,0,1-1.82-1.855A18.4,18.4,0,0,1,1.3,6.724a4,4,0,0,1-.3-.545C.772,5.429.6,4.657.328,3.92A5.5,5.5,0,0,1,.035,1.407C.073,1.055.219.84.608.844c.739.007,1.477,0,2.216,0,0-.022,0-.044,0-.066M8.206,11.012l.023.17c.375.041.75.1,1.126.118a14,14,0,0,0,2.788-.027,8.044,8.044,0,0,0,2.592-.8,15.523,15.523,0,0,0,2.355-1.646,5.125,5.125,0,0,0,1.059-1.267,14.409,14.409,0,0,0,.814-1.667c.241-.527.478-1.056.685-1.6.159-.416.035-.6-.4-.577-.491.025-.978.122-1.469.165-.644.056-1.29.091-1.935.133-.123.008-.246,0-.369.016-.908.083-1.814.2-2.724.243-.648.031-1.3-.042-1.95-.055-1.036-.02-2.072-.009-3.107-.048a8.15,8.15,0,0,0-2.858.016.643.643,0,0,1-.167,0L1.6,4.3c.176.457.317.86.485,1.251.333.776.637,1.57,1.039,2.309a6,6,0,0,0,1.165,1.6,6.786,6.786,0,0,0,1.7.995,13.777,13.777,0,0,0,1.566.52,1.894,1.894,0,0,1,.387-1.743A5.055,5.055,0,0,1,9.362,8.031a4,4,0,0,1,2.907-.352,3.7,3.7,0,0,1,1.869.985c.184.225.42.407.6.632.1.128.248.4.2.444a.39.39,0,0,1-.638.019,3.392,3.392,0,0,0-1.514-.906,3.125,3.125,0,0,0-2.717.482c-.669.5-1.25,1.114-1.87,1.677M.564,1.138c0,.145-.029.238,0,.276a3.944,3.944,0,0,1,.595,1.523.6.6,0,0,0,.636.478c.385-.011.771-.016,1.156-.037.959-.053,1.917-.145,2.876-.162,1.265-.023,2.531.017,3.8.02,1.313,0,2.626.017,3.938-.02.974-.027,1.946-.124,2.919-.2.49-.036.979-.092,1.47-.124.436-.029.873-.035,1.309-.056a1.092,1.092,0,0,0,.452-.052c.162-.089.4-.253.4-.388.008-.445.252-.885.008-1.347-.109-.206-.174-.379-.44-.338-.369.056-.736.13-1.107.171-.977.109-1.953.232-2.933.3s-1.942.075-2.914.1c-1.249.033-2.5.058-3.746.09-.458.012-.916.053-1.373.05C6.9,1.421,6.2,1.4,5.495,1.365c-.428-.02-.854-.1-1.281-.105-.915,0-1.83.043-2.744.038a5.4,5.4,0,0,1-.905-.16" transform="translate(10.366 21.615)" fill-rule="evenodd"/>
      <path id="Path_99830" data-name="Path 99830" d="M3.016,5.4c-.355-.038-.713-.058-1.064-.117A2.152,2.152,0,0,1,.424,3.973,3.337,3.337,0,0,1,.117,1.479,2.566,2.566,0,0,1,1.912.135C2.39.088,2.868.007,3.347,0A1.579,1.579,0,0,1,4.773.719c.1.151.021.4.067.594.077.322.193.635.286.954a2.258,2.258,0,0,1-.718,2.417c-.393.373-.756.807-1.393.714" transform="translate(12.045 13.285)" fill-rule="evenodd"/>
      <path id="Path_99831" data-name="Path 99831" d="M.01,2.423A1.949,1.949,0,0,1,1,.431,2.724,2.724,0,0,1,3.893.4c.047.028.111.056.13.1.344.779.976,1.469.814,2.406a2.075,2.075,0,0,1-.361.913,2.477,2.477,0,0,1-3.3.9A2.253,2.253,0,0,1,.01,2.423" transform="translate(24.058 13.826)" fill-rule="evenodd"/>
      <path id="Path_99832" data-name="Path 99832" d="M31.882,6.625l.188.246c.123.168.31.387.546.743a16.7,16.7,0,0,1,1.713,3.123,17.474,17.474,0,0,1,.813,2.4,16.87,16.87,0,0,1,.511,2.945,18.749,18.749,0,0,1-.763,7.1,18.1,18.1,0,0,1-4.331,7.271c-.257.279-.548.528-.826.795-.142.13-.292.251-.439.377l-.222.187-.056.047-.072.058-.111.084c-.3.225-.582.452-.928.681-.166.112-.332.235-.5.337l-.51.308a17.237,17.237,0,0,1-2.161,1.072,16.474,16.474,0,0,1-2.329.779A17.957,17.957,0,0,1,12.4,34.858a17.514,17.514,0,0,1-2.4-.972A17.053,17.053,0,0,1,3.95,28.974,18.56,18.56,0,0,1,.089,19.54,16.506,16.506,0,0,1,2.04,9.913,18.363,18.363,0,0,1,4.868,6.071a22.452,22.452,0,0,1,1.674-1.6l.107-.1.027-.024.039-.032.054-.044L6.986,4.1c.145-.116.284-.232.434-.347.314-.222.622-.468.94-.665A18.491,18.491,0,0,1,16.275.142a17.606,17.606,0,0,1,7.185.57,14.057,14.057,0,0,1,2.8,1.154,16.465,16.465,0,0,1,2.16,1.38,18.788,18.788,0,0,1,2.63,2.411c.286.3.477.547.616.707l.206.247Zm-.977.769-.2-.224c-.132-.145-.313-.374-.584-.641A13.331,13.331,0,0,0,29.1,5.58a14.874,14.874,0,0,0-1.536-1.09,15.141,15.141,0,0,0-2.058-1.079c-.387-.169-.8-.324-1.221-.487-.432-.143-.876-.3-1.344-.428a17.9,17.9,0,0,0-10.174.084A16.4,16.4,0,0,0,9.075,4.222l-.226.132L8.633,4.5,8.2,4.779c-.147.1-.3.215-.446.323l-.224.164-.056.041-.015.011-.026.021-.106.085A21.872,21.872,0,0,0,5.662,6.86a17.9,17.9,0,0,0-2.875,3.49c-.213.321-.393.663-.584,1-.092.171-.173.348-.259.524l-.127.264-.113.271a12.6,12.6,0,0,0-.732,2.25,12.287,12.287,0,0,0-.309,2.377c-.022.4-.006.806,0,1.209.032.4.06.807.123,1.208A15.72,15.72,0,0,0,2.248,24.1a20.829,20.829,0,0,0,1.217,2.131c.109.174.231.338.346.508s.232.338.355.5.237.324.364.487l.4.493a16.643,16.643,0,0,0,7.864,5.4,16.165,16.165,0,0,0,9.22.109c.183-.047.363-.1.54-.164s.358-.113.534-.178c.349-.135.7-.26,1.035-.417a15.655,15.655,0,0,0,1.946-1.017c.307-.194.614-.385.894-.588.283-.186.583-.426.876-.653l.11-.085.086-.073.2-.173c.132-.116.269-.226.4-.345.25-.245.514-.472.746-.728A17.638,17.638,0,0,0,33.4,22.7a17.149,17.149,0,0,0,.884-6.518,15.58,15.58,0,0,0-.4-2.733,14.421,14.421,0,0,0-.715-2.235,14.284,14.284,0,0,0-1.559-2.881c-.2-.306-.4-.551-.522-.712l-.188-.246Z" transform="translate(2.907 2.91)"/>
    </g>
  </g>
</svg>
