<svg id="slide-ico-1" xmlns="http://www.w3.org/2000/svg" width="96" height="80" viewBox="0 0 96 80">
  <rect id="Rectangle_5578" data-name="Rectangle 5578" width="96" height="80" fill="none"/>
  <g id="Group_66186" data-name="Group 66186" transform="translate(-815.691 -71.908)">
    <g id="Group_66185" data-name="Group 66185" transform="translate(831.025 78.5)">
      <path id="Path_107427" data-name="Path 107427" d="M-4.373-21.15a3.042,3.042,0,0,1,2.043.846A5.905,5.905,0,0,1-.8-18.021a8.261,8.261,0,0,1,.575,3.1,7.582,7.582,0,0,1-.83,3.607,5.85,5.85,0,0,1-2.33,2.41,6.964,6.964,0,0,1-3.48.846,6.438,6.438,0,0,1-3.48-.862q.223,3.288.223,6.129a6.046,6.046,0,0,1-.83,3.368,2.457,2.457,0,0,1-2.107,1.261,1.309,1.309,0,0,1-.99-.335A1.566,1.566,0,0,1-14.365.4,72.87,72.87,0,0,0-14.8-8.54q-.431-3.32-1.133-6.481-.223-.894-.367-1.724a8.73,8.73,0,0,1-.144-1.469,2.7,2.7,0,0,1,.607-1.9,2.234,2.234,0,0,1,1.724-.654,2.091,2.091,0,0,1,1.868,1.022,10.551,10.551,0,0,1,1.1,3.607,6.461,6.461,0,0,0,1.181,3.192,3.077,3.077,0,0,0,2.458.958,2.125,2.125,0,0,0,1.868-.894A4.373,4.373,0,0,0-5.011-15.4,13.485,13.485,0,0,0-5.2-17.654q-.192-1.133-.223-1.293a8.612,8.612,0,0,1-.16-1.181.932.932,0,0,1,.319-.75A1.339,1.339,0,0,1-4.373-21.15Z" transform="translate(36.022 24.754)"/>
      <path id="Path_107427_-_Outline" data-name="Path 107427 - Outline" d="M-4.383-21.157a1.339,1.339,0,0,0-.894.271.932.932,0,0,0-.319.75,8.612,8.612,0,0,0,.16,1.181q.032.16.223,1.293a13.485,13.485,0,0,1,.192,2.251,4.373,4.373,0,0,1-.623,2.522,2.125,2.125,0,0,1-1.868.894,3.077,3.077,0,0,1-2.458-.958,6.461,6.461,0,0,1-1.181-3.192,10.551,10.551,0,0,0-1.1-3.607,2.091,2.091,0,0,0-1.868-1.022,2.234,2.234,0,0,0-1.724.654,2.7,2.7,0,0,0-.607,1.9,8.729,8.729,0,0,0,.144,1.469q.144.83.367,1.724.7,3.161,1.133,6.481A72.868,72.868,0,0,1-14.375.392a1.566,1.566,0,0,0,.319,1.1,1.309,1.309,0,0,0,.99.335A2.457,2.457,0,0,0-10.959.567a6.046,6.046,0,0,0,.83-3.368q0-2.841-.223-6.13a6.438,6.438,0,0,0,3.48.862,6.964,6.964,0,0,0,3.48-.846,5.85,5.85,0,0,0,2.33-2.41,7.582,7.582,0,0,0,.83-3.607,8.261,8.261,0,0,0-.575-3.1A5.905,5.905,0,0,0-2.34-20.311a3.042,3.042,0,0,0-2.043-.846m3.067-2.609A29.43,29.43,0,0,1,1.971-19.14a11.275,11.275,0,0,1,.789,4.208A10.569,10.569,0,0,1,1.58-9.922a8.822,8.822,0,0,1-3.5,3.614A9.945,9.945,0,0,1-6.873-5.076q-.15,0-.3,0,.033,1.174.033,2.279c0,1.993.265,5.39.265,5.39S-11.2,4.82-13.066,4.82a4.2,4.2,0,0,1-3.156-1.264A4.418,4.418,0,0,1-17.367.392a70.4,70.4,0,0,0-.406-8.554c-.273-2.1-.636-4.181-1.079-6.18-.162-.65-.3-1.289-.4-1.9a11.574,11.574,0,0,1-.187-1.979,6.664,6.664,0,0,0-.672-3.146s3.991-2.4,5.995-2.4a5.056,5.056,0,0,1,4.387,2.4A12.877,12.877,0,0,1-8.2-16.655l.007.045c.056.355.117.642.177.873a10.661,10.661,0,0,0-.144-1.426c-.163-.962-.2-1.167-.208-1.209l-.011-.057a10.1,10.1,0,0,1-.206-1.707,3.905,3.905,0,0,1,1.373-3.03C-6.686-23.614-1.316-23.766-1.316-23.766Z" transform="translate(36.032 24.761)"/>
      <path id="Path_107426" data-name="Path 107426" d="M-1.9-18.46q0,3.065-.048,4.5l-.048,3.927A58.5,58.5,0,0,0-1.658-3.3a17.257,17.257,0,0,0,1.293,5,3.37,3.37,0,0,1-1.413.766,6.892,6.892,0,0,1-2.035.287q-5.268,0-5.268-7.806,0-2.73.239-5.6.239-4.932.239-7.183,0-8.141-4.31-8.141a3.609,3.609,0,0,0-2.945,1.389,5.6,5.6,0,0,0-1.125,3.639q0,4.31,3.735,4.31a10.224,10.224,0,0,0,1.58-.12,8.145,8.145,0,0,1,1.1-.12.563.563,0,0,1,.479.287,1.362,1.362,0,0,1,.192.766,4.6,4.6,0,0,1-1.58,3.663,6.373,6.373,0,0,1-4.31,1.365,7.741,7.741,0,0,1-6.082-2.586,9.925,9.925,0,0,1-2.3-6.848A11.9,11.9,0,0,1-22.7-26.146a10.61,10.61,0,0,1,4.046-4.094,11.617,11.617,0,0,1,5.89-1.484,9.751,9.751,0,0,1,8,3.52Q-1.9-24.686-1.9-18.46Z" transform="translate(62.13 34.717)"/>
      <path id="Path_107426_-_Outline" data-name="Path 107426 - Outline" d="M-12.776-31.733a11.616,11.616,0,0,0-5.89,1.484,10.61,10.61,0,0,0-4.046,4.094,11.9,11.9,0,0,0-1.461,5.914,9.925,9.925,0,0,0,2.3,6.848,7.741,7.741,0,0,0,6.082,2.586,6.373,6.373,0,0,0,4.31-1.365A4.6,4.6,0,0,0-9.9-15.835a1.362,1.362,0,0,0-.192-.766.563.563,0,0,0-.479-.287,8.146,8.146,0,0,0-1.1.12,10.474,10.474,0,0,1-1.58.12q-3.735,0-3.735-4.31A5.6,5.6,0,0,1-15.865-24.6a3.609,3.609,0,0,1,2.945-1.389q4.31,0,4.31,8.141,0,2.251-.239,7.183-.239,2.873-.239,5.6,0,7.806,5.268,7.806a6.892,6.892,0,0,0,2.035-.287A3.37,3.37,0,0,0-.374,1.692a17.257,17.257,0,0,1-1.293-5A58.5,58.5,0,0,1-2-10.041l.048-3.927q.048-1.437.048-4.5,0-6.225-2.873-9.745a9.751,9.751,0,0,0-8-3.52m0-2.992A14.233,14.233,0,0,1-7.01-33.592a12.279,12.279,0,0,1,6.1,5.976c2.024,3.781,1.992,4.309,1.992,9.147,0,2.073-.016,3.568-.048,4.568L.99-10.022A55.767,55.767,0,0,0,1.3-3.662,14.377,14.377,0,0,0,2.36.477l.834,1.878L1.742,3.807A6.3,6.3,0,0,1-.906,5.317a9.907,9.907,0,0,1-2.915.42,7.366,7.366,0,0,1-6.431-3.27C-11.483.644-12.081-1.818-12.081-5.06c0-1.108.029-2.242.086-3.391a10.746,10.746,0,0,1-3.8.636A11.647,11.647,0,0,1-20.376-8.7a10.44,10.44,0,0,1-3.735-2.7,12.858,12.858,0,0,1-3.054-8.835,14.907,14.907,0,0,1,1.842-7.375,13.61,13.61,0,0,1,5.168-5.228A14.62,14.62,0,0,1-12.776-34.725Zm1.093,14.934a7.49,7.49,0,0,0-.649-2.761C-12.566-23-12.677-23-12.92-23a.647.647,0,0,0-.621.281A2.78,2.78,0,0,0-14-20.959a2.833,2.833,0,0,0,.191,1.251,1.759,1.759,0,0,0,.552.067,7.273,7.273,0,0,0,1.118-.084C-11.974-19.75-11.824-19.772-11.683-19.791Z" transform="translate(62.138 34.725)"/>
      <path id="Path_107428" data-name="Path 107428" d="M-15.662,1.513A2.326,2.326,0,0,1-17.433.832,2.289,2.289,0,0,1-18.08-.8a2.62,2.62,0,0,1,.255-1.124,2.138,2.138,0,0,1,.766-.885l.885-.647q3-2.213,4.989-3.933a19.082,19.082,0,0,0,3.473-3.967A8.362,8.362,0,0,0-6.23-16.024,4.311,4.311,0,0,0-7.217-19a3.767,3.767,0,0,0-2.963-1.107A3.4,3.4,0,0,0-13.074-18.8a5.307,5.307,0,0,0-.919,3.456,3.725,3.725,0,0,1-2.537-.766,2.449,2.449,0,0,1-.971-1.958,4.493,4.493,0,0,1,.988-2.877A6.417,6.417,0,0,1-13.7-22.886a11.707,11.707,0,0,1,4.206-.7,10.673,10.673,0,0,1,4.512.9,7.151,7.151,0,0,1,3.065,2.588,7.125,7.125,0,0,1,1.107,4,10.662,10.662,0,0,1-3.3,7.73,37.053,37.053,0,0,1-9.024,6.368q1.975-.034,5.772-.392t6.794-.766a.632.632,0,0,1,.766.443A5.24,5.24,0,0,1,.411-.9,4.011,4.011,0,0,1,.087.866a1.036,1.036,0,0,1-.971.647Z" transform="translate(22.083 49.073)"/>
      <path id="Path_107428_-_Outline" data-name="Path 107428 - Outline" d="M-.894,1.5A1.036,1.036,0,0,0,.076.858,4.01,4.01,0,0,0,.4-.913a5.241,5.241,0,0,0-.221-1.8.632.632,0,0,0-.766-.443q-3,.409-6.794.766T-13.153-2A37.053,37.053,0,0,0-4.129-8.371a10.662,10.662,0,0,0,3.3-7.73,7.125,7.125,0,0,0-1.107-4A7.151,7.151,0,0,0-5-22.69a10.673,10.673,0,0,0-4.512-.9,11.707,11.707,0,0,0-4.206.7,6.416,6.416,0,0,0-2.809,1.941,4.493,4.493,0,0,0-.988,2.877,19.655,19.655,0,0,0,.443,2.724s2.02.023,3.065,0a5.307,5.307,0,0,1,.919-3.456,3.4,3.4,0,0,1,2.894-1.311,3.767,3.767,0,0,1,2.963,1.107,4.311,4.311,0,0,1,.988,2.98,8.362,8.362,0,0,1-1.481,4.665A19.082,19.082,0,0,1-11.2-7.4q-1.992,1.72-4.989,3.933l-.885.647a2.138,2.138,0,0,0-.766.885,2.62,2.62,0,0,0-.255,1.124A18.3,18.3,0,0,1-18.445,1.5H-.894m0,2.992h-21.2s1.192-6.939,1.549-7.7a5.094,5.094,0,0,1,1.752-2.062l.837-.612c1.925-1.422,3.542-2.7,4.805-3.787a16.179,16.179,0,0,0,2.93-3.349,5.4,5.4,0,0,0,.988-3.019,1.729,1.729,0,0,0-.224-.983,1.606,1.606,0,0,0-.734-.112c-.415,0-.48.087-.5.119a2.674,2.674,0,0,0-.319,1.561l.1,3.02-3.021.066-.192,0a52.387,52.387,0,0,1-5.644-.655,34.888,34.888,0,0,1-.728-5.062,7.436,7.436,0,0,1,1.637-4.739,9.381,9.381,0,0,1,4.081-2.874,14.723,14.723,0,0,1,5.276-.9,13.68,13.68,0,0,1,5.764,1.177A10.13,10.13,0,0,1,.568-21.744a10.092,10.092,0,0,1,1.6,5.643A13.6,13.6,0,0,1-2-6.266q-.156.158-.317.315.659-.082,1.279-.167a3.873,3.873,0,0,1,.617-.05A3.609,3.609,0,0,1,2.95-3.844,7.671,7.671,0,0,1,3.391-.913,6.832,6.832,0,0,1,2.752,2.2,4.027,4.027,0,0,1-.894,4.5Z" transform="translate(22.094 49.081)"/>
      <path id="Path_107429" data-name="Path 107429" d="M-8.707-15.622Q-.7-11.642-.7-6.163A7.146,7.146,0,0,1-4.352.322,17.675,17.675,0,0,1-13.67,2.546,17.442,17.442,0,0,1-22.777.415a6.9,6.9,0,0,1-3.535-6.3,8.448,8.448,0,0,1,2.224-5.689,12.841,12.841,0,0,1,5.642-3.722,21.881,21.881,0,0,1-4.729-3.91,7.526,7.526,0,0,1-1.732-5.127A6.7,6.7,0,0,1-21.7-30.3a15.013,15.013,0,0,1,8.311-2.084A14.5,14.5,0,0,1-5.265-30.3,6.728,6.728,0,0,1-2.1-24.331,8.121,8.121,0,0,1-4-19.086,11.411,11.411,0,0,1-8.707-15.622Zm-9.084-8.662a3.936,3.936,0,0,0,1.217,2.833,23.293,23.293,0,0,0,3.933,2.973,10.493,10.493,0,0,0,2.575-2.786,5.731,5.731,0,0,0,.936-3.02,3.052,3.052,0,0,0-1.194-2.645,5.179,5.179,0,0,0-3.114-.866,5.068,5.068,0,0,0-3.161.913A3.078,3.078,0,0,0-17.79-24.284ZM-13.623-2.09a7.317,7.317,0,0,0,3.957-.96,3.18,3.18,0,0,0,1.522-2.88,3.969,3.969,0,0,0-.89-2.528,8.331,8.331,0,0,0-2.013-1.849q-1.124-.726-3.7-2.271a13.716,13.716,0,0,0-3.184,3.09,5.7,5.7,0,0,0-1.077,3.324Q-19.008-2.09-13.623-2.09Z" transform="translate(50.287 61.278)"/>
      <path id="Path_107429_-_Outline" data-name="Path 107429 - Outline" d="M-13.4-32.392a15.013,15.013,0,0,0-8.311,2.084,6.7,6.7,0,0,0-3.207,5.97,7.526,7.526,0,0,0,1.732,5.127,21.881,21.881,0,0,0,4.729,3.91A12.841,12.841,0,0,0-24.1-11.58,8.448,8.448,0,0,0-26.32-5.891a6.9,6.9,0,0,0,3.535,6.3,17.442,17.442,0,0,0,9.107,2.13A17.675,17.675,0,0,0-4.36.313,7.146,7.146,0,0,0-.708-6.172q0-5.478-8.007-9.458a11.411,11.411,0,0,0,4.706-3.465,8.121,8.121,0,0,0,1.9-5.244,6.728,6.728,0,0,0-3.161-5.97A14.5,14.5,0,0,0-13.4-32.392m.749,13.906a23.293,23.293,0,0,1-3.933-2.973A3.936,3.936,0,0,1-17.8-24.292a3.078,3.078,0,0,1,1.194-2.6,5.068,5.068,0,0,1,3.161-.913,5.179,5.179,0,0,1,3.114.866,3.052,3.052,0,0,1,1.194,2.645,5.731,5.731,0,0,1-.936,3.02,10.493,10.493,0,0,1-2.575,2.786M-13.631-2.1q-5.385,0-5.385-4.074A5.7,5.7,0,0,1-17.939-9.5a13.717,13.717,0,0,1,3.184-3.09q2.575,1.545,3.7,2.271A8.332,8.332,0,0,1-9.043-8.466a3.969,3.969,0,0,1,.89,2.528,3.18,3.18,0,0,1-1.522,2.88,7.317,7.317,0,0,1-3.957.96m.234-33.286a17.467,17.467,0,0,1,9.77,2.578A9.71,9.71,0,0,1,.879-24.339a11.078,11.078,0,0,1-2.563,7.127A14.748,14.748,0,0,1-3.092-15.7,16.625,16.625,0,0,1-.427-13.208a10.7,10.7,0,0,1,2.71,7.037A10.122,10.122,0,0,1-2.8,2.868,20.664,20.664,0,0,1-13.678,5.529a20.425,20.425,0,0,1-10.651-2.56,9.873,9.873,0,0,1-4.983-8.86,11.4,11.4,0,0,1,2.96-7.655,15.341,15.341,0,0,1,2.375-2.206,18.975,18.975,0,0,1-1.463-1.5,10.458,10.458,0,0,1-2.468-7.091,9.682,9.682,0,0,1,4.569-8.479A17.983,17.983,0,0,1-13.4-35.384Zm1.249,10.828a2.6,2.6,0,0,0-1.3-.255,2.354,2.354,0,0,0-1.343.3,1,1,0,0,0-.02.222.963.963,0,0,0,.361.738,12.371,12.371,0,0,0,1.47,1.228,6.007,6.007,0,0,0,.355-.514,2.809,2.809,0,0,0,.493-1.452A1.445,1.445,0,0,0-12.148-24.556Zm.971,18.9a.854.854,0,0,0,.032-.278.986.986,0,0,0-.244-.671A5.315,5.315,0,0,0-12.679-7.8c-.428-.276-1.033-.653-1.807-1.126a7.809,7.809,0,0,0-1,1.143,2.722,2.722,0,0,0-.54,1.614c0,.364.054.589.159.669a3.922,3.922,0,0,0,2.233.413,4.57,4.57,0,0,0,2.36-.5A.534.534,0,0,0-11.177-5.659Z" transform="translate(50.295 61.286)"/>
    </g>
    <g id="Group_66184" data-name="Group 66184" transform="translate(834.677 81.491)">
      <path id="Path_107427-2" data-name="Path 107427" d="M-4.373-21.15a3.042,3.042,0,0,1,2.043.846A5.905,5.905,0,0,1-.8-18.021a8.261,8.261,0,0,1,.575,3.1,7.582,7.582,0,0,1-.83,3.607,5.85,5.85,0,0,1-2.33,2.41,6.964,6.964,0,0,1-3.48.846,6.438,6.438,0,0,1-3.48-.862q.223,3.288.223,6.129c0,1.4.16,4.294.16,4.294s-2.245.335-3.1.335a1.309,1.309,0,0,1-.99-.335A1.566,1.566,0,0,1-14.365.4,72.87,72.87,0,0,0-14.8-8.54q-.431-3.32-1.133-6.481-.223-.894-.367-1.724a8.73,8.73,0,0,1-.144-1.469,2.7,2.7,0,0,1,.607-1.9,2.234,2.234,0,0,1,1.724-.654,2.091,2.091,0,0,1,1.868,1.022,10.551,10.551,0,0,1,1.1,3.607,6.461,6.461,0,0,0,1.181,3.192,3.077,3.077,0,0,0,2.458.958,2.125,2.125,0,0,0,1.868-.894A4.373,4.373,0,0,0-5.011-15.4,13.485,13.485,0,0,0-5.2-17.654q-.192-1.133-.223-1.293a8.612,8.612,0,0,1-.16-1.181.932.932,0,0,1,.319-.75A1.339,1.339,0,0,1-4.373-21.15Z" transform="translate(32.37 21.762)" fill="#ffec00"/>
      <path id="Path_107426-2" data-name="Path 107426" d="M-1.9-18.46q0,3.065-.048,4.5l-.048,3.927A58.5,58.5,0,0,0-1.658-3.3a17.257,17.257,0,0,0,1.293,5,3.37,3.37,0,0,1-1.413.766,6.892,6.892,0,0,1-2.035.287q-5.268,0-5.268-7.806,0-2.73.239-5.6.239-4.932.239-7.183,0-8.141-4.31-8.141a3.609,3.609,0,0,0-2.945,1.389,5.6,5.6,0,0,0-1.125,3.639q0,4.31,3.735,4.31a10.224,10.224,0,0,0,1.58-.12,8.145,8.145,0,0,1,1.1-.12.563.563,0,0,1,.479.287,1.362,1.362,0,0,1,.192.766,4.6,4.6,0,0,1-1.58,3.663,6.373,6.373,0,0,1-4.31,1.365,7.741,7.741,0,0,1-6.082-2.586,9.925,9.925,0,0,1-2.3-6.848A11.9,11.9,0,0,1-22.7-26.146a10.61,10.61,0,0,1,4.046-4.094,11.617,11.617,0,0,1,5.89-1.484c3.416,0,5.76,1.163,8.287,4.356S-1.9-22.611-1.9-18.46Z" transform="translate(58.478 31.725)" fill="#ff6090"/>
      <path id="Path_107428-2" data-name="Path 107428" d="M-15.663,1.513h-2.768s.436-3.076.606-3.439a2.138,2.138,0,0,1,.766-.885l.885-.647q3-2.213,4.989-3.933a19.082,19.082,0,0,0,3.473-3.967,8.362,8.362,0,0,0,1.481-4.665A4.311,4.311,0,0,0-7.218-19a3.767,3.767,0,0,0-2.963-1.107A3.4,3.4,0,0,0-13.075-18.8a5.307,5.307,0,0,0-.919,3.456c-1.044.023-3.065,0-3.065,0a19.655,19.655,0,0,1-.443-2.724,4.493,4.493,0,0,1,.988-2.877,6.417,6.417,0,0,1,2.809-1.941,11.707,11.707,0,0,1,4.206-.7,10.673,10.673,0,0,1,4.512.9,7.151,7.151,0,0,1,3.065,2.588,7.125,7.125,0,0,1,1.107,4,10.662,10.662,0,0,1-3.3,7.73,37.053,37.053,0,0,1-9.024,6.368q1.975-.034,5.772-.392t6.794-.766a.632.632,0,0,1,.766.443A5.24,5.24,0,0,1,.41-.9,4.011,4.011,0,0,1,.086.866a1.036,1.036,0,0,1-.971.647Z" transform="translate(18.432 46.081)" fill="#49fdff"/>
      <path id="Path_107429-2" data-name="Path 107429" d="M-8.707-15.622Q-.7-11.642-.7-6.163A7.146,7.146,0,0,1-4.352.322,17.675,17.675,0,0,1-13.67,2.546,17.442,17.442,0,0,1-22.777.415a6.9,6.9,0,0,1-3.535-6.3,8.448,8.448,0,0,1,2.224-5.689,12.841,12.841,0,0,1,5.642-3.722,21.881,21.881,0,0,1-4.729-3.91,7.526,7.526,0,0,1-1.732-5.127A6.7,6.7,0,0,1-21.7-30.3a15.013,15.013,0,0,1,8.311-2.084A14.5,14.5,0,0,1-5.265-30.3,6.728,6.728,0,0,1-2.1-24.331,8.121,8.121,0,0,1-4-19.086,11.411,11.411,0,0,1-8.707-15.622Zm-9.084-8.662a3.936,3.936,0,0,0,1.217,2.833,23.293,23.293,0,0,0,3.933,2.973,10.493,10.493,0,0,0,2.575-2.786,5.731,5.731,0,0,0,.936-3.02,3.052,3.052,0,0,0-1.194-2.645,5.179,5.179,0,0,0-3.114-.866,5.068,5.068,0,0,0-3.161.913A3.078,3.078,0,0,0-17.79-24.284ZM-13.623-2.09a7.317,7.317,0,0,0,3.957-.96,3.18,3.18,0,0,0,1.522-2.88,3.969,3.969,0,0,0-.89-2.528,8.331,8.331,0,0,0-2.013-1.849q-1.124-.726-3.7-2.271a13.716,13.716,0,0,0-3.184,3.09,5.7,5.7,0,0,0-1.077,3.324Q-19.008-2.09-13.623-2.09Z" transform="translate(46.635 58.286)" fill="#fa0"/>
    </g>
  </g>
</svg>
