<svg id="slide-ico-4" xmlns="http://www.w3.org/2000/svg" width="96" height="80" viewBox="0 0 96 80">
  <g id="Group_44172" data-name="Group 44172" transform="translate(-2712 -360)">
    <rect id="Rectangle_5604" data-name="Rectangle 5604" width="96" height="80" transform="translate(2712 360)" fill="none"/>
  </g>
  <g id="Group_44179" data-name="Group 44179" transform="translate(-2713 -360)">
    <path id="Union_129" data-name="Union 129" d="M18131.023,22378.207a10.321,10.321,0,0,1-2.145-2.051,12.408,12.408,0,0,1-1.5-9.754c.141-.568.41-1.09.59-1.646a1.2,1.2,0,0,0-.09-.826c-.83-2.229-1.764-4.42-2.785-6.57a5.2,5.2,0,0,0-1.3-1.584,32.72,32.72,0,0,1-6.5-8.852c-.264-.494-.455-1.021-.764-1.488-.191-.318-.613-.252-.934-.279a39.363,39.363,0,0,1-10.092-.916,17.324,17.324,0,0,1-5.312-2.3,9.276,9.276,0,0,1-2.066-1.809c-.416-.527-.758-1.111-1.129-1.674v-7.082c.3-.521.59-1.049.887-1.572a10.87,10.87,0,0,1,3.9-3.842,10.458,10.458,0,0,0,1.408-.713c.35-.557.484-1.225.832-1.785a10.682,10.682,0,0,1,8.053-5.072,14.172,14.172,0,0,1,2.977.018,28.415,28.415,0,0,1,1.742-3.516,19.6,19.6,0,0,1,3.869-4.623,24.207,24.207,0,0,1,8.424-4.8,30.465,30.465,0,0,1,20.348.58,23.611,23.611,0,0,1,10.418,7.676,21.257,21.257,0,0,1,3.629,7.611,29.936,29.936,0,0,1,.785,6.324c.051,1.016-.039,2.037.051,3.055a13.251,13.251,0,0,1,2.865,1.01,8.676,8.676,0,0,1,3.977,4.01,15.068,15.068,0,0,0,.668,1.59,5.016,5.016,0,0,0,1,.5,11.027,11.027,0,0,1,4.162,3.639s1.826.652,1.668,4.92-1.668,5.8-1.668,5.8a12.878,12.878,0,0,1-5.785,3.5,44.468,44.468,0,0,1-12.439,1.584,38.117,38.117,0,0,1-4.381.012,15.3,15.3,0,0,0-1.584-.023,22.63,22.63,0,0,0-1.258,2.6c-.561,1.33-1.129,2.656-1.617,4.01-.186.459.1.914.23,1.342a15.618,15.618,0,0,1,.461,5.262,10.26,10.26,0,0,1-1.527,5.414,9.235,9.235,0,0,1-2.23,2.314Zm8.367-2.67c-.984,0-1.971-.029-2.953-.031C18137.42,22375.508,18138.406,22375.537,18139.391,22375.537Zm-7.922-3.008a3.982,3.982,0,0,0,2.482,2.674,10.682,10.682,0,0,0,2.332.279,10.306,10.306,0,0,1-2.328-.285,3.956,3.956,0,0,1-2.482-2.668,7.212,7.212,0,0,1-.5-2.777A7.252,7.252,0,0,0,18131.469,22372.529Zm10.721,2.881a6.066,6.066,0,0,0,1.971-.33A6.367,6.367,0,0,1,18142.189,22375.41Zm3.355-1.307a3.691,3.691,0,0,0,.6-.895A3.788,3.788,0,0,1,18145.545,22374.1Zm-1.637-1.406a1.247,1.247,0,0,0,.494-.859A1.268,1.268,0,0,1,18143.908,22372.7Zm-4.424-.428h0Zm.115,0c.307,0,.615-.012.92-.039C18140.215,22372.258,18139.906,22372.268,18139.6,22372.27Zm-.92-.01c.131,0,.264,0,.4.008-.135,0-.268-.006-.4-.008Zm1.967-.041a4.372,4.372,0,0,0,2.141-.734A4.372,4.372,0,0,1,18140.646,22372.219Zm-5.91-.672c.035.025.07.051.107.074-.037-.023-.072-.049-.107-.074a4.789,4.789,0,0,1-1.434-2.721A4.789,4.789,0,0,0,18134.736,22371.547Zm2.859-5.139h.59c1.33.01,2.662.021,3.992.061a2.54,2.54,0,0,1,1.836.545,1.916,1.916,0,0,1,.428,1.443,3.7,3.7,0,0,1-1.494,2.9,3.686,3.686,0,0,0,1.494-2.9,10.354,10.354,0,0,1,.09,1.477,10.354,10.354,0,0,0-.09-1.477,1.926,1.926,0,0,0-.422-1.449,2.6,2.6,0,0,0-1.842-.545c-1.33-.033-2.662-.045-3.992-.055h-.59c-.119,0-.238,0-.357,0C18137.357,22366.406,18137.477,22366.406,18137.6,22366.408Zm3.7,4.043a8.33,8.33,0,0,1-2.98.578A8.306,8.306,0,0,0,18141.291,22370.451Zm-4.217.469q-.144-.026-.281-.059Q18136.931,22370.894,18137.074,22370.92Zm-6.1-1.572v0a5.873,5.873,0,0,1,1.066-3.678A5.86,5.86,0,0,0,18130.979,22369.348Zm15.676,0a5,5,0,0,0,.033-.615A5.411,5.411,0,0,1,18146.654,22369.344Zm-8.346-1.863a16.975,16.975,0,0,1,3.252.24c.512.131,1.105.439,1.2,1.018-.09-.578-.689-.893-1.2-1.018a16.975,16.975,0,0,0-3.252-.24,11.876,11.876,0,0,0-1.955.051,3.747,3.747,0,0,0-.529.133,4.014,4.014,0,0,1,.529-.129,7.175,7.175,0,0,1,1.082-.07C18137.727,22367.465,18138.018,22367.475,18138.309,22367.48Zm8.313-.107Zm-12.334-.578a1.148,1.148,0,0,0-.219.092,1.148,1.148,0,0,1,.219-.092Zm-1.977-1.449a3.284,3.284,0,0,0-.225.27,3.284,3.284,0,0,1,.225-.27Zm.016-.014c.16-.152.09-.385.057-.57C18132.416,22364.947,18132.48,22365.184,18132.326,22365.332Zm13.119-.508a.881.881,0,0,1,.031-.2A.881.881,0,0,0,18145.445,22364.824Zm.041-.236a80.974,80.974,0,0,1,4.223-10.07A80.236,80.236,0,0,0,18145.486,22364.588Zm-10.936-.164Zm8.658-.018a.085.085,0,0,0,.012-.014A.085.085,0,0,1,18143.209,22364.406Zm.014-.016.012-.016Zm-.719-.006s0,0,0,0a.982.982,0,0,1,.377-.092l-.008,0A1.026,1.026,0,0,0,18142.5,22364.385Zm.73-.01Zm-.076-.037-.01,0Zm-.039-.014-.033-.008Zm-.039-.01c-.021-.006-.045-.01-.068-.014h0C18143.033,22364.3,18143.057,22364.309,18143.08,22364.314Zm.143-.008a10.255,10.255,0,0,0,.438-1.061c.775-2.207,1.646-4.375,2.59-6.516-.943,2.141-1.82,4.313-2.6,6.516a9.518,9.518,0,0,1-.434,1.061Zm-5.172-.039a20.571,20.571,0,0,0-.084-4.027,8.667,8.667,0,0,0-.3-1.869,8.35,8.35,0,0,1,.3,1.869,20.573,20.573,0,0,1,.09,4.027Zm1.914-5.852a14.49,14.49,0,0,0,6.285-1.686A14.571,14.571,0,0,1,18139.965,22358.416Zm-2.453-.09c.039.01.111.033.15.045-.039-.012-.111-.039-.15-.051a17.168,17.168,0,0,1-5.959-1.668.007.007,0,0,0,0,.006A17.219,17.219,0,0,0,18137.512,22358.326Zm1.178-2.293h0Zm3.393-1.363a1.718,1.718,0,0,1-.859,1.086,1.745,1.745,0,0,0,.865-1.086,13.321,13.321,0,0,0,.359-2.062,11.7,11.7,0,0,0,.348-2.09,11.207,11.207,0,0,1-.354,2.09,5.289,5.289,0,0,1-2.055,1.473,3.2,3.2,0,0,1-2.326-.084,2.31,2.31,0,0,1-1.01-1.119,8.335,8.335,0,0,1-.68-2.926c-.18-1.988-.461-3.959-.652-5.941-.072-.826-.156-1.662-.156-2.492,0,.832.084,1.668.156,2.492.191,1.982.473,3.959.652,5.941a8.366,8.366,0,0,0,.68,2.932,2.3,2.3,0,0,0,1.01,1.113,3.168,3.168,0,0,0,2.326.084,5.335,5.335,0,0,0,2.055-1.467A12.7,12.7,0,0,1,18142.082,22354.67Zm-7.559.645a4.456,4.456,0,0,0-.057-.662c-.186-1.285-.416-2.561-.656-3.836-.191-1.387-.338-2.779-.449-4.172-.164-.742-.051-1.512-.164-2.264a9.246,9.246,0,0,1-.084-1.453,9.246,9.246,0,0,0,.084,1.453c.113.752,0,1.521.164,2.264.111,1.4.258,2.785.449,4.172.24,1.275.471,2.557.65,3.836a9.6,9.6,0,0,1-1.605-4.2c-.437-1.959-.725-3.953-1.18-5.908a10.488,10.488,0,0,0-.691-2.447,1.832,1.832,0,0,0-1.2-.922,18.3,18.3,0,0,0-2.141-.477,4.965,4.965,0,0,1,.844-.248,4.945,4.945,0,0,0-.844.242,2.665,2.665,0,0,0-.914.145v.006a2.5,2.5,0,0,1,.91-.145,21.226,21.226,0,0,1,2.145.477,1.832,1.832,0,0,1,1.2.922,10.838,10.838,0,0,1,.691,2.447c.455,1.955.742,3.949,1.18,5.908a9.582,9.582,0,0,0,1.605,4.207,4.246,4.246,0,0,1,.063.656Zm8.795-.072a3.967,3.967,0,0,0,1.055-.342l.012-.08c.154-.049.3-.1.451-.166a4.726,4.726,0,0,1-.457.166l-.01.08a3.83,3.83,0,0,1-1.051.342Zm-10.246-.463c-.609-.7-1.227-1.4-1.791-2.137.563.74,1.178,1.439,1.791,2.137Zm11.766-.125c.018-.008.035-.016.053-.021C18144.873,22354.639,18144.855,22354.646,18144.838,22354.654Zm4.586-5.646a22.277,22.277,0,0,1-1.045,2.826,4.759,4.759,0,0,1-1.691,1.8c-.328.2-.66.41-1,.6.34-.189.672-.4,1-.6a4.851,4.851,0,0,0,1.691-1.8,24.129,24.129,0,0,0,1.043-2.826,13.968,13.968,0,0,0,.439-1.408C18149.748,22348.076,18149.586,22348.543,18149.424,22349.008Zm11.85,4.27c.764-.066,1.531-.1,2.295-.166-.764.064-1.531.1-2.295.16-3.246.09-6.492.061-9.738-.006C18154.781,22353.332,18158.027,22353.367,18161.273,22353.277Zm-9.924-.012h0Zm-7.076-4.354c-.1,1.248-.3,2.488-.479,3.73.18-1.242.383-2.482.479-3.73Zm-16.326,2.572c-.359-1.381-.877-2.717-1.219-4.105-.635-2.105-.85-4.312-1.377-6.441.527,2.129.742,4.336,1.377,6.447.342,1.381.857,2.715,1.211,4.1Zm22.666-1.734a2.866,2.866,0,0,0-.4,1.123,2.807,2.807,0,0,1,.4-1.117,10.317,10.317,0,0,1,.295-1.354A10.232,10.232,0,0,0,18150.613,22349.75Zm8.109-9.43c-.369,1.051-.645,2.129-1.111,3.139a28.844,28.844,0,0,1-3.6,6.393c-.191.295-.506.6-.512.973.008-.365.32-.674.512-.973a28.673,28.673,0,0,0,3.6-6.387c.467-1.01.742-2.094,1.111-3.139.025-.068.049-.137.07-.207C18158.771,22340.188,18158.748,22340.254,18158.723,22340.32Zm-31.26,10.406Zm0,0c-.443-1.016-.937-2-1.3-3.049C18126.52,22348.723,18127.02,22349.711,18127.463,22350.727Zm46.186-.775s0,0,0,0S18173.648,22349.949,18173.648,22349.951Zm.027-.029a4.326,4.326,0,0,0,.941-1.441A4.335,4.335,0,0,1,18173.676,22349.922Zm-11.562-.295-.139,0Zm.359,0c.479-.006.955-.025,1.434-.059C18163.428,22349.6,18162.951,22349.617,18162.473,22349.623Zm-4.85-1.328a2.605,2.605,0,0,0,2.279,1.23c.414.039.828.064,1.242.082-.414-.018-.828-.043-1.242-.082a2.605,2.605,0,0,1-2.279-1.23,2.3,2.3,0,0,1-.125-.773A2.3,2.3,0,0,0,18157.623,22348.295Zm-14.621.885c0-.043,0-.088,0-.133C18143,22349.092,18143,22349.137,18143,22349.18Zm27.818-.98a15.377,15.377,0,0,1-3,.854,9.543,9.543,0,0,0,4.779-1.943A15.233,15.233,0,0,1,18170.82,22348.2Zm-7.773-.59a9.085,9.085,0,0,0,1.994-.051,8.849,8.849,0,0,1-1.994.045c-.459-.059-.943-.049-1.4-.135C18162.105,22347.555,18162.592,22347.547,18163.047,22347.609Zm2.01-.053.051,0Zm.117-.008.049,0Zm.113-.008.1-.006Zm.115-.006.117,0Zm2.734-.645a5.689,5.689,0,0,1-2.449.631,5.736,5.736,0,0,0,2.455-.631,1.389,1.389,0,0,0,.7-1.193A1.388,1.388,0,0,1,18168.137,22346.891Zm-16.141.326a29.57,29.57,0,0,0,2.561-11.07A29.6,29.6,0,0,1,18152,22347.217Zm-.545-.635c-.039.141-.08.281-.123.42.043-.137.082-.275.123-.414.254-1.031.49-2.07.7-3.113C18151.941,22344.516,18151.705,22345.553,18151.451,22346.582Zm12.08-9.654a3.768,3.768,0,0,1,2.465,2.725,3.543,3.543,0,0,0,.686,2.066c.82.982,2.18,1.1,3.264,1.645a4.217,4.217,0,0,1,2.656,3.586,4.2,4.2,0,0,0-2.652-3.59c-1.088-.551-2.441-.664-3.268-1.646a3.609,3.609,0,0,1-.686-2.061,3.755,3.755,0,0,0-2.465-2.73,6.521,6.521,0,0,0-3.6-.146,7.34,7.34,0,0,1,1.586-.18A6.065,6.065,0,0,1,18163.531,22336.928Zm-35.641,9.986c-.016-.068-.031-.137-.047-.2C18127.859,22346.777,18127.875,22346.846,18127.891,22346.914Zm-3.74-.242a5.292,5.292,0,0,0-.32-1.156c-.533-1.309-.967-2.652-1.377-4.006-.084-.309-.393-.3-.678-.3a1.613,1.613,0,0,1-.344-.012s0,0,0,.006a1.983,1.983,0,0,0,.33.012c.291-.006.605-.012.689.3.41,1.348.844,2.7,1.377,4.006a5.243,5.243,0,0,1,.32,1.15Zm3.672-.055c-.006-.021-.012-.043-.016-.062C18127.811,22346.574,18127.816,22346.6,18127.822,22346.617Zm32.613-.811a1.693,1.693,0,0,0-.037.348,1.693,1.693,0,0,1,.037-.348,12.451,12.451,0,0,0,.328-2.266A12.451,12.451,0,0,1,18160.436,22345.807Zm-32.662-.264a22.544,22.544,0,0,1-.656-2.246v0A21.514,21.514,0,0,0,18127.773,22345.543Zm16.865-.381c0,.023,0,.049,0,.074,0-.023,0-.047,0-.07a5.5,5.5,0,0,0,.1-.795A5.69,5.69,0,0,1,18144.639,22345.162Zm-1.752-.187a47.553,47.553,0,0,0-.113-4.924A49.247,49.247,0,0,1,18142.887,22344.975Zm-8.414-.2v-.016h0Zm28.271-4.98c.826.939.883,2.281,1.59,3.287a4.675,4.675,0,0,0,2.809,1.156,2.936,2.936,0,0,1,.3.07,2.936,2.936,0,0,0-.3-.07,4.675,4.675,0,0,1-2.809-1.156c-.707-1.006-.764-2.348-1.59-3.287-.207-.221-.471-.518-.791-.518C18162.273,22339.279,18162.537,22339.576,18162.744,22339.8Zm-1.982,3.59c0-.094,0-.186,0-.279C18160.766,22343.2,18160.766,22343.293,18160.762,22343.387Zm-10.131-.039a32.606,32.606,0,0,0,.135-3.383A32.606,32.606,0,0,1,18150.631,22343.348Zm0,0c.078-.012.23-.051.309-.068Zm-17.518-1.084v0c0-.7-.012-1.4-.012-2.1C18133.1,22340.867,18133.113,22341.564,18133.113,22342.264Zm39.438.084c-.041-.033-.084-.066-.125-.1C18172.467,22342.281,18172.51,22342.314,18172.551,22342.348Zm-11.643-1.932a4.736,4.736,0,0,0-.17,1.383,4.736,4.736,0,0,1,.17-1.383Zm-48.934.719a11.133,11.133,0,0,0,1.42.068,11.007,11.007,0,0,1-1.414-.068c-.8-.109-1.621,0-2.412-.152C18110.359,22341.139,18111.18,22341.031,18111.975,22341.135Zm9.457.066Zm3.021-.111Zm32.6-6.689c-.084.793-.072,1.59-.174,2.375-.145,1.428-.477,2.832-.566,4.264.09-1.432.422-2.836.566-4.264.1-.785.09-1.582.174-2.375q.05-.817.047-1.635Q18157.1,22333.583,18157.049,22334.4Zm2.252,5.428a8.645,8.645,0,0,0-.066-1.1,8.267,8.267,0,0,1,.168-.92,7.746,7.746,0,0,0-.168.914,2.367,2.367,0,0,0-.242.6,2.4,2.4,0,0,1,.242-.6A8.645,8.645,0,0,1,18159.3,22339.828Zm-27.732-.311c.389-.156.736-.439,1.133-.557C18132.3,22339.078,18131.957,22339.361,18131.568,22339.518Zm36.641-.029Zm-21.941-.719c.006.217.01.434.01.648,0-.215,0-.432-.01-.648Zm-45.25-1.393a7.323,7.323,0,0,0,2.531,1.939,7.339,7.339,0,0,1-2.531-1.945,4.257,4.257,0,0,1-.691-1.605A4.283,4.283,0,0,0,18101.018,22337.377Zm60.8,1.922a.482.482,0,0,1,.1-.018A.482.482,0,0,0,18161.818,22339.3Zm-28.705-.389c-.021,0-.043,0-.064,0C18133.07,22338.908,18133.092,22338.908,18133.113,22338.91Zm1.152-.141Zm16.5-.232c0-.3,0-.594,0-.891C18150.762,22337.943,18150.762,22338.24,18150.762,22338.537Zm-8.336-22.607a36.532,36.532,0,0,1,1.926,7.188c.242,1.213.539,2.416.736,3.635.145.875.4,1.723.5,2.605.18,1.488.42,2.977.5,4.477.064,1.439.193,2.875.186,4.316.008-1.441-.121-2.877-.186-4.316-.084-1.5-.324-2.988-.5-4.477-.1-.883-.355-1.73-.494-2.605-.2-1.219-.5-2.422-.736-3.635a37.363,37.363,0,0,0-1.926-7.187,10.867,10.867,0,0,0-.715-1.275A10.044,10.044,0,0,1,18142.426,22315.93Zm-2.377-2.012a4.953,4.953,0,0,1,.455,1.23,61.989,61.989,0,0,1,1.7,6.9c.111.955.342,1.9.477,2.859.141,1.357.332,2.707.477,4.064.1.646.051,1.3.158,1.949.1.578.033,1.174.1,1.752a50.587,50.587,0,0,1,.207,5.469v0a50.572,50.572,0,0,0-.207-5.465c-.062-.584-.006-1.174-.1-1.752-.107-.646-.057-1.309-.158-1.953-.145-1.354-.336-2.707-.477-4.066-.135-.955-.365-1.9-.477-2.859a61.89,61.89,0,0,0-1.7-6.9,4.869,4.869,0,0,0-.455-1.23Zm-28.967,24-.182-.023Zm33.787-.275v0Zm-19.158-.123-.465.059.465-.059.2-.031Zm8.734,0c.063-.086.125-.174.189-.262C18134.57,22337.35,18134.508,22337.438,18134.445,22337.523Zm-31.08-2.994a4.381,4.381,0,0,0,2.072,1.922,4.381,4.381,0,0,1-2.072-1.922Zm49.7,1.113c-.031.248-.045.5-.053.746.008-.248.021-.494.053-.742.031-.635.049-1.273.049-1.91C18153.117,22334.373,18153.1,22335.008,18153.068,22335.643Zm-31.979.521a23.534,23.534,0,0,1-3.055.154A23.534,23.534,0,0,0,18121.09,22336.164Zm-4.994.152c.207,0,.418,0,.627-.006h0C18116.512,22336.311,18116.3,22336.313,18116.1,22336.316Zm0,0c-.3-.006-.594-.006-.893-.006h-.006C18115.494,22336.311,18115.795,22336.311,18116.1,22336.316Zm-.9-.006c-.664,0-1.324,0-1.98-.057C18113.865,22336.314,18114.527,22336.314,18115.191,22336.311Zm13.244-2.18a6.754,6.754,0,0,1-2.584,1.174,23.234,23.234,0,0,1-4.762.859,23.1,23.1,0,0,0,4.756-.854,6.918,6.918,0,0,0,2.59-1.174,3.8,3.8,0,0,0,1.131-2.861A3.791,3.791,0,0,1,18128.436,22334.131Zm18.836-20.3a21.444,21.444,0,0,1,3.471,4.393,23.29,23.29,0,0,1,2.27,5.205,33.267,33.267,0,0,1,1.207,5.336,39.5,39.5,0,0,1,.338,7.379,39.009,39.009,0,0,0-.338-7.379,33.267,33.267,0,0,0-1.207-5.336,23.29,23.29,0,0,0-2.27-5.205,21.246,21.246,0,0,0-3.471-4.393c-.734-.77-1.594-1.4-2.354-2.145a2.147,2.147,0,0,1,.539-.439,2.01,2.01,0,0,1,1.191.119,1.967,1.967,0,0,0-1.191-.125,2.283,2.283,0,0,0-.539.439c-.145.152-.465.342-.455.559-.006-.213.313-.4.455-.553C18145.678,22312.43,18146.537,22313.064,18147.271,22313.834Zm-46.9,20.135a7.473,7.473,0,0,0-.045,1.8,7.671,7.671,0,0,1,.045-1.8,8.046,8.046,0,0,1,1.555-3.062A7.95,7.95,0,0,0,18100.371,22333.969Zm31.418,1.279a4.1,4.1,0,0,0,1.525-2.82A4.1,4.1,0,0,1,18131.789,22335.248Zm18.342-4.83c.168,1.533.449,3.057.494,4.6-.045-1.543-.32-3.07-.494-4.6a46.875,46.875,0,0,0-2.049-8.859A46.88,46.88,0,0,1,18150.131,22330.418Zm-16.711,4.6a4.246,4.246,0,0,0-.16-3.135c-.32-1.039-.967-1.943-1.309-2.982-.725-1.719-1.219-3.582-2.437-5.037a6.325,6.325,0,0,0-4.807-2.021,6.33,6.33,0,0,1,4.8,2.027c1.225,1.449,1.719,3.318,2.443,5.037.336,1.033.988,1.938,1.309,2.982A4.249,4.249,0,0,1,18133.42,22335.014Zm-25.816-.506a.589.589,0,0,1-.045-.223A.589.589,0,0,0,18107.6,22334.508Zm52.439,0h0a12.892,12.892,0,0,1,.129-1.623A12.98,12.98,0,0,0,18160.043,22334.508Zm-56.91-.721c-.043-.254-.061-.516-.082-.773a5.263,5.263,0,0,1,1.234-1.432c1.2-.809,2.725-.895,3.926-1.691a1.866,1.866,0,0,0,.725-.937,2.991,2.991,0,0,0,.127-.365,3.023,3.023,0,0,1-.127.359,1.835,1.835,0,0,1-.725.938c-1.2.8-2.729.883-3.926,1.691a5.263,5.263,0,0,0-1.234,1.432l-.006.01C18103.07,22333.271,18103.09,22333.533,18103.133,22333.787Zm40.982-20.16a21.912,21.912,0,0,1,6.666,11.029,34.89,34.89,0,0,1,1.045,6.5c.018.662.023,1.33.1,1.988.018.174.025.348.027.52,0-.172-.01-.346-.027-.52-.072-.658-.078-1.326-.1-1.988a34.89,34.89,0,0,0-1.045-6.5,21.912,21.912,0,0,0-6.666-11.029,3.034,3.034,0,0,0-.393-.236,2.614,2.614,0,0,0,.516.977,23.472,23.472,0,0,1,1.9,2.9,24.12,24.12,0,0,0-1.895-2.9,2.588,2.588,0,0,1-.521-.977A3.034,3.034,0,0,1,18144.115,22313.627Zm-7.918,14.9c.414,1.592,1.2,3.154,1.2,4.814,0-1.664-.787-3.223-1.2-4.814a8.1,8.1,0,0,1-.232-2.059A8.025,8.025,0,0,0,18136.2,22328.525Zm-24.369,3.23a2.83,2.83,0,0,1-.531.453,2.83,2.83,0,0,0,.531-.453c.041-.043.078-.086.115-.131C18111.906,22331.67,18111.869,22331.713,18111.828,22331.756Zm40.313-17.281a15.918,15.918,0,0,1,5.561,9.02,23.226,23.226,0,0,1,.482,4.672q.023.677.025,1.354,0-.68-.025-1.359a23.314,23.314,0,0,0-.482-4.672,15.965,15.965,0,0,0-5.561-9.02,11.836,11.836,0,0,0-2.348-1.551,15.52,15.52,0,0,0-3-1.488,15.863,15.863,0,0,1,3,1.488A11.863,11.863,0,0,1,18152.141,22314.475Zm-16.342,7.043c-.18.746-.242,1.516-.383,2.268-.291,1.359-.348,2.752-.584,4.117.008.461-.158.945-.162,1.41.006-.465.17-.949.162-1.41.236-1.365.293-2.758.584-4.117.141-.752.2-1.516.383-2.262l.053-.225Zm-29.092,6.588s0,0,0,0S18106.707,22328.1,18106.707,22328.105Zm.15-.578a1.6,1.6,0,0,1-.137.549,1.714,1.714,0,0,0,.143-.549,5.17,5.17,0,0,1,.713-2.295A5.153,5.153,0,0,0,18106.857,22327.527Zm21.842.273c.035.059.068.115.1.174-.031-.059-.064-.115-.1-.174Zm28.014.074a26.993,26.993,0,0,0-.865-4.021A27.75,27.75,0,0,1,18156.713,22327.875Zm-23.184-.455a2.961,2.961,0,0,0,.287-1.455,2.944,2.944,0,0,1-.289,1.449S18133.529,22327.418,18133.529,22327.42Zm-18.623-.338Zm12.445-.814c-.062-.051-.127-.1-.191-.148C18127.225,22326.166,18127.289,22326.217,18127.352,22326.268Zm6.492-.455c.277-1.643.469-3.3.791-4.936C18134.311,22322.514,18134.117,22324.17,18133.844,22325.813Zm-18.32-1.078c.578.236,1.1.58,1.656.844a1.617,1.617,0,0,0,1.5-.053,1.606,1.606,0,0,1-1.494.047c-.566-.264-1.084-.6-1.662-.838a5.349,5.349,0,0,0-2.674-.225,9.486,9.486,0,0,0-1.277.295,9.456,9.456,0,0,1,1.277-.289c.365-.031.74-.062,1.113-.062A3.834,3.834,0,0,1,18115.523,22324.734Zm9.1.7Zm.492-.012c-.055,0-.107,0-.162,0C18125.012,22325.422,18125.064,22325.424,18125.119,22325.426Zm-.244,0Zm-4.219-1.941a8.636,8.636,0,0,0-.781.846,9.079,9.079,0,0,1,.781-.84,5.657,5.657,0,0,1,3.928-1.654h-.057A5.671,5.671,0,0,0,18120.656,22323.482Zm-12.322.781a5.845,5.845,0,0,1,1.867-1.277A5.8,5.8,0,0,0,18108.334,22324.264Zm24.525-1.689a0,0,0,0,0,0,0Zm-5.6-12.064a18.323,18.323,0,0,0-8.666,9.822c-.3.725-.477,1.494-.736,2.234.26-.74.439-1.51.736-2.234a18.323,18.323,0,0,1,8.666-9.822Zm7.01,9.131a7.4,7.4,0,0,1-1.381,2.9,7.391,7.391,0,0,0,1.381-2.9c.018-.082.037-.166.055-.248C18134.3,22319.48,18134.283,22319.561,18134.266,22319.641Zm-4.758,1.438a6.248,6.248,0,0,0,.438-.779,24.377,24.377,0,0,1,2.859-4.758,17.267,17.267,0,0,1,2.021-2.318l0,0a17.309,17.309,0,0,0-2.018,2.32,24.333,24.333,0,0,0-2.859,4.752,5.923,5.923,0,0,1-.437.785Zm-8.777-.27c.451-.152.869-.391,1.309-.574-.437.184-.854.42-1.309.572Zm19.959-.156c-.379-2.025-.9-4.016-1.445-6C18139.785,22316.635,18140.311,22318.629,18140.689,22320.652Zm-11.963-.062c.008-.023.014-.047.02-.07C18128.74,22320.543,18128.734,22320.566,18128.727,22320.59Zm-6.5-.432c.557-.168,1.1-.389,1.658-.512-.568.123-1.107.344-1.658.512Zm5.33-.219a5.133,5.133,0,0,0,.5-.973,4.836,4.836,0,0,1-.5.973c-.045,0-.09.006-.133.006C18127.465,22319.945,18127.512,22319.943,18127.559,22319.939Zm7.279,0a49.843,49.843,0,0,1,1.617-6A48.094,48.094,0,0,0,18134.838,22319.939Zm2.977-6.043c-.264.725-.455,1.477-.7,2.207a5.351,5.351,0,0,0-.3,1.381,4.762,4.762,0,0,0-.488,1.607c-.064.2-.117.395-.162.594.045-.2.1-.395.162-.59a4.765,4.765,0,0,1,.488-1.605c.008.127.01.254.01.381,0-.129,0-.258-.01-.387a5.351,5.351,0,0,1,.3-1.381c.242-.73.434-1.482.7-2.207Zm-13.928,5.75a7.076,7.076,0,0,1,.932-.053h0A7.076,7.076,0,0,0,18123.887,22319.646Zm2.318-.021c.494-.062.691-.539.9-.928a14.727,14.727,0,0,1,1.883-2.734,10.629,10.629,0,0,1,3.088-2.539,10.629,10.629,0,0,0-3.088,2.539,14.727,14.727,0,0,0-1.883,2.734c-.207.389-.4.865-.9.928Zm4.471-4.584a23.7,23.7,0,0,0-2.549,3.785,24.127,24.127,0,0,1,2.555-3.785,7.732,7.732,0,0,1,.521-.609A7.463,7.463,0,0,0,18130.676,22315.041Zm-3.83-1.719a17.4,17.4,0,0,0-3.324,2.91,12.358,12.358,0,0,0-1.686,2.336c-.025.045-.051.09-.076.137.025-.047.051-.092.076-.137a12.549,12.549,0,0,1,1.686-2.336,17.4,17.4,0,0,1,3.324-2.91,6.419,6.419,0,0,1,1.273-.738h0A6.145,6.145,0,0,0,18126.846,22313.322Zm6.205.967.043-.039Zm.047-.043a4.345,4.345,0,0,1,1.432-1.074.173.173,0,0,1,.029,0,.173.173,0,0,0-.029,0l-.012,0A4.493,4.493,0,0,0,18133.1,22314.246Zm3.273-.709c.23.027.111.252.084.4.033-.146.146-.371-.078-.4a4.015,4.015,0,0,0-1.967-.389l.016,0a1.465,1.465,0,0,1,.34-.039A6.848,6.848,0,0,1,18136.371,22313.537Zm3.631.365-.018-.006Zm-.963-.006a.007.007,0,0,0,0,.006,4.451,4.451,0,0,1,.82-.033,4.838,4.838,0,0,0-.822.027c-.223-.006-.447-.012-.672-.012C18138.592,22313.885,18138.814,22313.891,18139.039,22313.9Zm.916-.008-.021-.006Zm-.047-.012-.037-.006Zm-4.773-.6a3.988,3.988,0,0,1,.018.432,3.988,3.988,0,0,0-.018-.432.146.146,0,0,0-.031-.008A.146.146,0,0,1,18135.135,22313.273Zm7.93-.135a10.828,10.828,0,0,0-1.723.527,10.893,10.893,0,0,1,1.719-.523.661.661,0,0,1,.561.1.578.578,0,0,0-.383-.123A.831.831,0,0,0,18143.064,22313.139Zm-9.658-.945a7.126,7.126,0,0,1-1.332,1.23,6.983,6.983,0,0,0,1.338-1.23,4.137,4.137,0,0,0-1.344-1.15,5.452,5.452,0,0,0-2.1.621,5.369,5.369,0,0,1,2.1-.615A3.937,3.937,0,0,1,18133.406,22312.193Zm10.3,1.162s0-.006,0-.01S18143.707,22313.352,18143.707,22313.355Zm-.018-.033a.059.059,0,0,0-.01-.014A.035.035,0,0,1,18143.689,22313.322Zm-.02-.029-.014-.018Zm-.023-.027a.223.223,0,0,0-.021-.021A.223.223,0,0,1,18143.646,22313.266Zm-7.131-1c-.061-.018-.123-.037-.184-.059C18136.393,22312.227,18136.453,22312.246,18136.516,22312.264Zm-6.945-.434.3-.127Zm10.1-.15c-.184,0-.367,0-.551-.008C18139.3,22311.678,18139.486,22311.68,18139.67,22311.68Zm.127,0,.252,0Zm.881-.031a18.152,18.152,0,0,0,2.758-.447l.006-.006A19.272,19.272,0,0,1,18140.678,22311.648Zm10.7-.3Zm-16.1-.129c.109.021.221.041.33.061-.109-.02-.221-.039-.33-.061a10.582,10.582,0,0,1-1.51-.412h0A10.091,10.091,0,0,0,18135.281,22311.217Zm-1.521-.422s0,0,0,0c.016-.045.029-.092.047-.141C18133.791,22310.705,18133.775,22310.752,18133.76,22310.795Zm8.07-.617a8.829,8.829,0,0,1,1.869.371.247.247,0,0,1,.137.227.247.247,0,0,0-.137-.227,8.756,8.756,0,0,0-1.869-.371,11.445,11.445,0,0,0-2.379-.2A11.445,11.445,0,0,1,18141.83,22310.178Zm-7.729.209s0,0-.008,0S18134.1,22310.385,18134.1,22310.387Zm3.461-.395c.109,0,.219,0,.33,0-.109,0-.217,0-.326,0-.084,0-.168,0-.252,0C18137.4,22309.988,18137.479,22309.99,18137.563,22309.992Zm-4.539-1.578q.659-.152,1.328-.26Q18133.684,22308.263,18133.023,22308.414Z" transform="translate(-15376 -21939.5)" opacity="0.3"/>
    <g id="_5415113" data-name="5415113" transform="translate(2720 347.094)">
      <g id="_ffffffff" data-name="#ffffffff" transform="translate(0 14.408)">
        <path id="Path_100364" data-name="Path 100364" d="M32.09,15.878a30.5,30.5,0,0,1,20.348.578,23.649,23.649,0,0,1,10.42,7.677,21.219,21.219,0,0,1,3.626,7.613,29.794,29.794,0,0,1,.79,6.324c.047,1.017-.039,2.037.05,3.053a13.4,13.4,0,0,1,2.863,1.013,8.677,8.677,0,0,1,3.978,4.011,14.785,14.785,0,0,0,.67,1.585,4.794,4.794,0,0,0,1,.5A11.007,11.007,0,0,1,80,51.873s2.385,1.379,2.3,5.289S80,62.6,80,62.6a12.927,12.927,0,0,1-5.787,3.5,44.626,44.626,0,0,1-12.439,1.584,37.973,37.973,0,0,1-4.379.009c-.528-.036-1.056-.036-1.584-.024a22.665,22.665,0,0,0-1.259,2.606c-.559,1.327-1.127,2.653-1.616,4.009-.185.458.1.91.228,1.34a15.62,15.62,0,0,1,.464,5.259A10.259,10.259,0,0,1,52.1,86.3a9.228,9.228,0,0,1-2.234,2.316H34.024a10.256,10.256,0,0,1-2.144-2.051,12.249,12.249,0,0,1-1.908-6.43,12.4,12.4,0,0,1,.406-3.326c.142-.568.411-1.091.593-1.642a1.232,1.232,0,0,0-.09-.829q-1.249-3.344-2.789-6.568A5.149,5.149,0,0,0,26.8,66.183a32.663,32.663,0,0,1-6.5-8.85,16.05,16.05,0,0,0-.76-1.489c-.192-.322-.618-.251-.935-.281a39.523,39.523,0,0,1-10.09-.915A17.245,17.245,0,0,1,3.2,52.344a9.232,9.232,0,0,1-2.064-1.8C.716,50.007.373,49.423,0,48.862V41.78c.3-.52.593-1.047.891-1.569a10.856,10.856,0,0,1,3.894-3.845,10.951,10.951,0,0,0,1.409-.711c.349-.559.487-1.226.835-1.788A10.7,10.7,0,0,1,15.083,28.8a14.433,14.433,0,0,1,2.973.019A28.525,28.525,0,0,1,19.8,25.3a19.532,19.532,0,0,1,3.866-4.622,24.151,24.151,0,0,1,8.422-4.8m3.933,2.944a23.228,23.228,0,0,0-5.767,2.1,18.3,18.3,0,0,0-8.666,9.821c-.3.726-.478,1.494-.734,2.235a.763.763,0,0,1-.886.474,24.212,24.212,0,0,0-3.123-.72A12.422,12.422,0,0,0,15.1,32.8a7.133,7.133,0,0,0-3.76,1.876A5.077,5.077,0,0,0,9.86,37.935c-.034.341-.134.753-.494.885A16.592,16.592,0,0,0,6.253,40.09a7.536,7.536,0,0,0-2.882,4.287,7.517,7.517,0,0,0-.046,1.8,4.325,4.325,0,0,0,.69,1.61A7.567,7.567,0,0,0,6.64,49.775a17.783,17.783,0,0,0,5.851,1.6c.817.178,1.661.057,2.486.17a13.8,13.8,0,0,0,1.622.072q2.761.022,5.521.022a30.151,30.151,0,0,0,8.7,12.892,5.839,5.839,0,0,1,.638,1.138,82.273,82.273,0,0,1,3.924,9.5c.035.192.106.434-.069.584a5.686,5.686,0,0,0-1.333,4,7.643,7.643,0,0,0,.492,3.184,3.969,3.969,0,0,0,2.482,2.67,13.419,13.419,0,0,0,2.484.306,52.97,52.97,0,0,0,5.754-.095,6.047,6.047,0,0,0,2.175-.409,3.894,3.894,0,0,0,1.775-1.795,10.164,10.164,0,0,0,.513-3.864,11.812,11.812,0,0,0-.031-1.971,3.249,3.249,0,0,0-1.02-2.209A.479.479,0,0,1,48.488,75a81,81,0,0,1,4.218-10.071,6.063,6.063,0,0,1,1.108-1.1c.185-.2.477-.131.719-.146,3.246.066,6.495.1,9.741.007,1.111-.092,2.229-.121,3.331-.28a20.635,20.635,0,0,0,7.626-2.012,4.908,4.908,0,0,0,2.384-2.5,3.752,3.752,0,0,0,.207-1.727,5.455,5.455,0,0,0-.544-2,5.911,5.911,0,0,0-1.726-2.406,10.555,10.555,0,0,0-2.2-1.262,16.548,16.548,0,0,1-1.631-.658,1.336,1.336,0,0,1-.513-.941,8.041,8.041,0,0,0-.876-2.53,4.556,4.556,0,0,0-2.123-1.788,10.034,10.034,0,0,0-5.169-.659,14.2,14.2,0,0,1,.161-1.856c.074-2.205.067-4.412.016-6.617a18.175,18.175,0,0,0-4.311-10.854,20.023,20.023,0,0,0-4.53-3.837,24.414,24.414,0,0,0-9.695-3.335A26.975,26.975,0,0,0,36.022,18.822Z" transform="translate(0 -14.408)" fill="#fff"/>
        <path id="Path_100365" data-name="Path 100365" d="M276.86,436.32a17.165,17.165,0,0,0,5.958,1.667l.15.05a8.46,8.46,0,0,1,.3,1.87,20.571,20.571,0,0,1,.089,4.025,19.2,19.2,0,0,0-3.5.159q-.865-2.636-1.946-5.193C277.618,438.015,277.13,437.211,276.86,436.32Z" transform="translate(-242.307 -383.663)" fill="#fff"/>
        <path id="Path_100366" data-name="Path 100366" d="M344.235,438.614a14.526,14.526,0,0,0,6.288-1.684c-.945,2.139-1.818,4.308-2.593,6.515a9.965,9.965,0,0,1-.437,1.063c-.977-.052-1.957-.039-2.935-.056a32.363,32.363,0,0,0-.139-3.89C344.426,439.905,344.222,439.27,344.235,438.614Z" transform="translate(-301.272 -384.197)" fill="#fff"/>
      </g>
      <g id="_68182bff" data-name="#68182bff" transform="translate(3.294 18.253)">
        <path id="Path_100367" data-name="Path 100367" d="M59.121,45.786a26.975,26.975,0,0,1,8.66-.4,24.414,24.414,0,0,1,9.695,3.335,20.023,20.023,0,0,1,4.53,3.837,18.175,18.175,0,0,1,4.311,10.854c.051,2.205.057,4.412-.016,6.617a14.2,14.2,0,0,0-.161,1.856,10.035,10.035,0,0,1,5.169.659,4.556,4.556,0,0,1,2.123,1.788,8.041,8.041,0,0,1,.876,2.53,1.336,1.336,0,0,0,.513.941,16.55,16.55,0,0,0,1.631.658,10.554,10.554,0,0,1,2.2,1.262,5.91,5.91,0,0,1,1.726,2.406,5.455,5.455,0,0,1,.544,2,3.752,3.752,0,0,1-.207,1.727,4.908,4.908,0,0,1-2.384,2.5A20.635,20.635,0,0,1,90.7,90.367c-1.1.159-2.22.187-3.331.28-3.246.09-6.495.059-9.741-.007-.242.015-.534-.051-.719.146a6.062,6.062,0,0,0-1.108,1.1,81,81,0,0,0-4.218,10.071.479.479,0,0,0,.115.577,3.249,3.249,0,0,1,1.02,2.209,11.814,11.814,0,0,1,.031,1.971,10.165,10.165,0,0,1-.513,3.864,3.894,3.894,0,0,1-1.775,1.795,6.047,6.047,0,0,1-2.175.409,52.972,52.972,0,0,1-5.754.095,13.421,13.421,0,0,1-2.484-.306,3.969,3.969,0,0,1-2.482-2.67,7.643,7.643,0,0,1-.492-3.184,5.686,5.686,0,0,1,1.333-4c.175-.15.1-.392.069-.584a82.273,82.273,0,0,0-3.924-9.5,5.838,5.838,0,0,0-.638-1.138,30.151,30.151,0,0,1-8.7-12.892q-2.761,0-5.521-.022a13.8,13.8,0,0,1-1.622-.072c-.825-.112-1.669.009-2.486-.17a17.783,17.783,0,0,1-5.851-1.6,7.567,7.567,0,0,1-2.625-1.992,4.325,4.325,0,0,1-.69-1.61,6.293,6.293,0,0,1,2.928-6.083,16.591,16.591,0,0,1,3.113-1.271c.361-.132.461-.544.494-.885a5.077,5.077,0,0,1,1.475-3.261,7.133,7.133,0,0,1,3.76-1.876,12.421,12.421,0,0,1,1.751-.067,24.211,24.211,0,0,1,3.123.72.763.763,0,0,0,.886-.474c.256-.741.434-1.509.734-2.235a18.3,18.3,0,0,1,8.666-9.821,23.229,23.229,0,0,1,5.767-2.1m1.08,1.973c-.235-.006-.281.238-.343.412a6.876,6.876,0,0,0,2.573,1.408,8.59,8.59,0,0,0,5.519-.086,3.7,3.7,0,0,0,1.59-.924c.252-.077.585-.442.256-.645a8.654,8.654,0,0,0-1.868-.373,22.97,22.97,0,0,0-4.266-.185,18.055,18.055,0,0,0-3.461.393M55.67,49.2a5.373,5.373,0,0,0-1.446.754,6.3,6.3,0,0,0-1.279.743,17.413,17.413,0,0,0-3.327,2.909,12.549,12.549,0,0,0-1.685,2.336,12.888,12.888,0,0,0-1.107,2.24c.519-.175.99-.462,1.5-.65.553-.17,1.092-.388,1.659-.512A16.489,16.489,0,0,1,52.3,57a3.316,3.316,0,0,0,1.35.312,6.887,6.887,0,0,0,.572-1.113,24.013,24.013,0,0,1,2.554-3.785c.429-.57.988-1.028,1.394-1.617a7,7,0,0,0,1.335-1.229,3.981,3.981,0,0,0-1.344-1.146,7.052,7.052,0,0,0-2.494.781m15.344-.142c-.183.195-.654.449-.359.744a20.348,20.348,0,0,1,3.466,3.649,26.344,26.344,0,0,1,3.492,6.821,31.218,31.218,0,0,1,1.1,4.542,22.335,22.335,0,0,1,.4,3.841,32.017,32.017,0,0,1,.061,4.363c-.109.835-.009,1.685-.191,2.512a48.978,48.978,0,0,1-1.43,8.427,24.088,24.088,0,0,0-.836,3.166,2.82,2.82,0,0,0-.407,1.122,10.8,10.8,0,0,0,1.333-1.379A25.066,25.066,0,0,0,81.731,80.2a10.158,10.158,0,0,0,.673-1.791,11.877,11.877,0,0,0,.705-2.14,36.2,36.2,0,0,0,1.172-10.737,23.25,23.25,0,0,0-.482-4.67,15.969,15.969,0,0,0-5.561-9.021,11.967,11.967,0,0,0-2.345-1.554,16.713,16.713,0,0,0-3.148-1.549,2.007,2.007,0,0,0-1.191-.122,2.343,2.343,0,0,0-.54.441m-10.5,1.464.119.02a4.592,4.592,0,0,0-1.478,1.121,20.23,20.23,0,0,0-3.289,4.186,9.787,9.787,0,0,0-1.036,2.117c.263.159.522.323.783.487a9.664,9.664,0,0,1,2.461,2.407c.26.6.663,1.119.884,1.732.266.72.451,1.466.671,2.2.346-.468.2-1.072.317-1.606.331-1.959.539-3.94,1-5.876a48.866,48.866,0,0,1,1.616-6c.031-.145.149-.368-.081-.4a4.019,4.019,0,0,0-1.963-.387m6.933.517a6.509,6.509,0,0,0,.373.988,10.7,10.7,0,0,0,.57,2q.723,2.694,1.213,5.444c.324,1.476.449,2.985.713,4.473.034,1.076.241,2.135.283,3.212.185.9.066,1.832.213,2.742.092,1.285.01,2.576.06,3.864.036.417.1.832.1,1.253,0,1.664.026,3.33-.1,4.991a14.488,14.488,0,0,1-.132,2.527,31.938,31.938,0,0,1-.364,3.747c-.1,1.252-.3,2.492-.478,3.734-.121.874-.4,1.717-.48,2.6a3.978,3.978,0,0,0,1.057-.339l.009-.082A10.523,10.523,0,0,0,72.789,91a4.786,4.786,0,0,0,1.691-1.8,23.518,23.518,0,0,0,1.043-2.827c.163-.464.326-.931.444-1.409.323-1.449.835-2.848,1.068-4.317.188-1.313.5-2.6.641-3.923.075-1.147.27-2.285.261-3.437-.007-.925.185-1.845.087-2.769-.075-.661-.081-1.328-.1-1.993a34.566,34.566,0,0,0-1.045-6.5A21.892,21.892,0,0,0,70.214,51a3.639,3.639,0,0,0-.394-.238c-.09-.258-.424-.3-.658-.25a10.606,10.606,0,0,0-1.72.527m-3.531.228c-.261.728-.454,1.476-.694,2.212a5.417,5.417,0,0,0-.3,1.38,4.787,4.787,0,0,0-.488,1.606c-.256.791-.327,1.624-.532,2.427-.177.746-.242,1.513-.384,2.265-.291,1.358-.344,2.751-.58,4.117.011.7-.381,1.456.006,2.115a8.48,8.48,0,0,1,.786,5.231,5.759,5.759,0,0,1-1.181,2.273c-.273.356-.156.831-.18,1.247.052,2-.037,4,.208,5.989-.026,1.068.121,2.125.2,3.189.362,1.9.5,3.832.87,5.727.191.71.292,1.563.951,2.013a4.4,4.4,0,0,0,2.194.347,8.025,8.025,0,0,0,2.344-.2,1.667,1.667,0,0,0,1.053-1.161,12.943,12.943,0,0,0,.359-2.061,18.8,18.8,0,0,0,.414-2.48,4.634,4.634,0,0,0,.14-1.086,35.415,35.415,0,0,0,.493-4.67c.152-2.072.119-4.152.129-6.229a51.95,51.95,0,0,0-.2-5.47c-.067-.58-.01-1.171-.1-1.75-.11-.645-.057-1.305-.157-1.952-.147-1.357-.334-2.708-.477-4.066-.136-.957-.364-1.9-.479-2.859a62.446,62.446,0,0,0-1.694-6.9,5.208,5.208,0,0,0-.457-1.231,2.626,2.626,0,0,0-1.007-.017c-.409-.012-.819-.017-1.228,0M46.756,60.856c-.634.575-1.092,1.317-1.745,1.875a1.6,1.6,0,0,1-1.73.216c-.563-.262-1.083-.605-1.657-.841a5.4,5.4,0,0,0-2.675-.222,4.427,4.427,0,0,0-3.059,1.476c-.628.869-.449,2.008-.857,2.962a1.849,1.849,0,0,1-.723.936c-1.2.8-2.729.884-3.926,1.694a5.3,5.3,0,0,0-1.237,1.432,3.346,3.346,0,0,0-.323,2.383,3.5,3.5,0,0,0,1.349,1.795,9,9,0,0,0,3.547,1.212,39.569,39.569,0,0,0,4.773.579c3.74.1,7.486.186,11.226,0a23.1,23.1,0,0,0,6.541-1.213,5.611,5.611,0,0,0,3.109-2.39,4.22,4.22,0,0,0-.009-3.5c-.321-1.042-.971-1.947-1.312-2.982-.721-1.719-1.219-3.586-2.439-5.04a6.341,6.341,0,0,0-4.8-2.023,5.632,5.632,0,0,0-4.05,1.647M85.707,74.227c-.1.628-.307,1.242-.376,1.872a9.589,9.589,0,0,0-.51,1.6c-.368,1.047-.645,2.128-1.113,3.136a28.522,28.522,0,0,1-3.6,6.39c-.22.339-.6.693-.492,1.133.223.255.58.2.884.217,2.333,0,4.665,0,7-.006a12.233,12.233,0,0,0,2.127-.106,15.8,15.8,0,0,0,1.684-.13c.553-.139,1.129-.121,1.686-.243A13.121,13.121,0,0,0,97.223,86.6a2.715,2.715,0,0,0,1.471-2.124,4.156,4.156,0,0,0-2.648-3.748c-1.086-.549-2.442-.66-3.266-1.641a3.61,3.61,0,0,1-.688-2.064A3.748,3.748,0,0,0,89.629,74.3a6.626,6.626,0,0,0-3.921-.07M57.669,76.889a13.8,13.8,0,0,1-3.084.931,5.126,5.126,0,0,0-.846.246,2.545,2.545,0,0,0-.91.144c.069.809.228,1.607.376,2.406a33,33,0,0,0,.785,3.671c.241,1.123.635,2.2.973,3.3a9.157,9.157,0,0,0,1.449,3.049A5.04,5.04,0,0,0,58.1,91.724a4.938,4.938,0,0,0,1.078.431,6.577,6.577,0,0,0,1.444.535,4.18,4.18,0,0,0-.059-.663c-.18-1.284-.411-2.562-.651-3.837-.192-1.387-.339-2.778-.452-4.173-.165-.744-.05-1.511-.166-2.261a14.493,14.493,0,0,1-.079-2.12c0-1.118-.027-2.235,0-3.352-.584-.032-1.032.4-1.545.607m-7.115,1.574c-1.008.007-2.014.1-3.024.114a23.355,23.355,0,0,0,1.3,3.054,19.9,19.9,0,0,0,1.424,2.415,2.2,2.2,0,0,0,.4.731,19.931,19.931,0,0,0,2.545,3.2,3.791,3.791,0,0,0,.847.876c-.357-1.38-.876-2.717-1.217-4.1-.635-2.109-.847-4.313-1.374-6.446-.3.036-.6.09-.9.155m7.1,15.564c.27.891.758,1.695,1.051,2.577q1.078,2.555,1.946,5.193a19.2,19.2,0,0,1,3.5-.158,20.568,20.568,0,0,0-.089-4.025,8.461,8.461,0,0,0-.3-1.87l-.15-.05a17.165,17.165,0,0,1-5.958-1.667m8.409,1.76c-.014.656.191,1.292.183,1.948a32.363,32.363,0,0,1,.139,3.89c.978.017,1.958,0,2.935.056a9.96,9.96,0,0,0,.437-1.063c.775-2.207,1.649-4.376,2.593-6.515a14.527,14.527,0,0,1-6.288,1.684m2.541,5.973c.135.146.618.175.73-.015a.825.825,0,0,0-.73.015m-8.217,2.409a1.8,1.8,0,0,0-.985,2.016,8.948,8.948,0,0,0,.237,3.2,1.954,1.954,0,0,0,1.771,1.173c1.866.2,3.748.134,5.62.158a8.651,8.651,0,0,0,2.381-.352,1.406,1.406,0,0,0,1.09-1.156,13.4,13.4,0,0,0,.041-3.382,1.918,1.918,0,0,0-.426-1.445,2.559,2.559,0,0,0-1.837-.544c-1.332-.035-2.663-.047-4-.06A11.29,11.29,0,0,0,60.386,104.169Z" transform="translate(-26.393 -45.216)"/>
      </g>
      <path id="Union_127" data-name="Union 127" d="M2.578,2.22A6.9,6.9,0,0,1,0,.813a10.655,10.655,0,0,0,1.528.422l.16.029-.16-.029A10.655,10.655,0,0,1,0,.813C.064.642.112.4.346.4A17.911,17.911,0,0,1,3.806.01c.371,0,.747,0,1.122,0A14.746,14.746,0,0,1,8.074.193,8.825,8.825,0,0,1,9.942.564c.329.206-.009.569-.256.645a18.449,18.449,0,0,1-2.765.452c-.081.007-.163.009-.244.013.081,0,.163-.007.244-.013a19.011,19.011,0,0,0,2.765-.448,3.709,3.709,0,0,1-1.592.921,8.758,8.758,0,0,1-2.917.5A8.208,8.208,0,0,1,2.578,2.22ZM5.9,1.693h0Zm.041,0c.2,0,.4,0,.6-.012C6.338,1.689,6.139,1.693,5.94,1.693ZM3.84,1.58c-.471-.049-.94-.114-1.407-.188C2.9,1.466,3.369,1.531,3.84,1.58Z" transform="translate(36.757 20.395)" fill="#ff003b"/>
      <path id="Union_128" data-name="Union 128" d="M7.668,6.94c-1.87-.025-3.751.042-5.616-.157A1.948,1.948,0,0,1,.281,5.609a9.013,9.013,0,0,1-.24-3.2A4.8,4.8,0,0,0,1.48,5.143c1.126.842,2.616.645,3.943.714l.385.005-.385-.005C4.1,5.788,2.606,5.985,1.48,5.143A4.821,4.821,0,0,1,.041,2.408,1.8,1.8,0,0,1,1.027.393,9.258,9.258,0,0,1,4.369,0h.554c1.331.013,2.664.025,3.994.06a2.557,2.557,0,0,1,1.84.546,1.9,1.9,0,0,1,.423,1.443,13.426,13.426,0,0,1-.039,3.383A1.416,1.416,0,0,1,10.05,6.591a9.117,9.117,0,0,1-2.267.352C7.745,6.942,7.707,6.942,7.668,6.94ZM6.2,5.866h0Zm.232,0c.153,0,.308-.007.463-.014C6.739,5.858,6.584,5.863,6.431,5.865Zm3.256-.9a4.193,4.193,0,0,1-2.2.842,4.189,4.189,0,0,0,2.2-.842ZM5.053,4.623c-.064,0-.128,0-.192,0C4.925,4.623,4.989,4.623,5.053,4.623Zm.482-.015a8.287,8.287,0,0,0,1.812-.329A8.287,8.287,0,0,1,5.535,4.607ZM4.194,4.572c-.19-.025-.38-.054-.567-.1C3.814,4.517,4,4.547,4.194,4.572ZM8.3,1.315c.511.128,1.109.441,1.2,1.016-.094-.575-.692-.888-1.2-1.016l-.1-.021ZM3.1,1.128a1.986,1.986,0,0,0-1.119.487,1.112,1.112,0,0,0-.186.652,1.112,1.112,0,0,1,.186-.652A1.986,1.986,0,0,1,3.1,1.128c.044-.008.089-.013.133-.018C3.187,1.114,3.142,1.12,3.1,1.128Zm1.95-.055c-.29,0-.579-.012-.87-.012C4.468,1.06,4.758,1.068,5.047,1.072Z" transform="translate(36.26 76.814)" fill="#ffec00"/>
      <path id="Union_126" data-name="Union 126" d="M6.372,39.562c.12.041.244.08.363.115-.119-.039-.243-.074-.363-.115a20.089,20.089,0,0,1-2.549-3.2,2.262,2.262,0,0,1-.4-.732A5.215,5.215,0,0,0,3.1,34.468c-.535-1.309-.97-2.652-1.377-4-.073-.262-.309-.3-.553-.3.247,0,.482.037.553.3.407,1.351.842,2.7,1.377,4a5.215,5.215,0,0,1,.321,1.158A20.094,20.094,0,0,1,2,33.211a22.846,22.846,0,0,1-1.3-3.053c1.009-.013,2.015-.107,3.023-.115.3-.065.595-.116.9-.155.526,2.135.74,4.336,1.373,6.445.342,1.39.859,2.724,1.219,4.1A3.706,3.706,0,0,1,6.372,39.562ZM1.107,7.523A12.421,12.421,0,0,1,2.792,5.188,17.462,17.462,0,0,1,6.119,2.274a6.382,6.382,0,0,1,1.274-.738s0,0,.005-.005A5.466,5.466,0,0,1,8.843.778,7.066,7.066,0,0,1,11.336,0a3.978,3.978,0,0,1,1.348,1.141,7.042,7.042,0,0,1-1.335,1.233A10.647,10.647,0,0,0,8.257,4.918,14.676,14.676,0,0,0,6.376,7.65c-.205.385-.4.865-.9.929A16.046,16.046,0,0,0,3.16,8.6c-.563.124-1.1.341-1.656.508l0,.005C.987,9.3.518,9.589,0,9.762A12.865,12.865,0,0,1,1.107,7.523ZM5.477,8.579c.5-.06.693-.539.9-.929A14.857,14.857,0,0,1,8.257,4.918a10.647,10.647,0,0,1,3.091-2.543c-.406.59-.966,1.047-1.393,1.617A23.919,23.919,0,0,0,7.4,7.775a6.633,6.633,0,0,1-.57,1.117,1.072,1.072,0,0,1-.144.008A4.236,4.236,0,0,1,5.477,8.579Z" transform="translate(23.728 21.457)" fill="#34ff97"/>
      <path id="Union_122" data-name="Union 122" d="M6.15,38.544a.016.016,0,0,0,.005-.007,24.028,24.028,0,0,1,.833-3.158,49,49,0,0,0,1.432-8.429c.18-.829.081-1.676.188-2.51a32.038,32.038,0,0,0-.06-4.366,22.3,22.3,0,0,0-.4-3.84,31.263,31.263,0,0,0-1.1-4.542,26.38,26.38,0,0,0-3.49-6.82A20.442,20.442,0,0,0,.095,1.221C-.2.927.271.674.454.477A2.5,2.5,0,0,1,.993.037,2.059,2.059,0,0,1,2.186.161,16.557,16.557,0,0,1,5.334,1.709,11.979,11.979,0,0,1,7.681,3.266a15.767,15.767,0,0,1,4.4,5.6,15.673,15.673,0,0,1,1.162,3.421,23.43,23.43,0,0,1,.484,4.67A36.2,36.2,0,0,1,12.551,27.69a12.088,12.088,0,0,1-.705,2.143c.094-1.432.419-2.84.569-4.264.1-.79.089-1.584.175-2.376a31.964,31.964,0,0,0-.342-6.525,32.276,32.276,0,0,1,.342,6.525c-.086.792-.076,1.586-.175,2.376-.15,1.425-.474,2.832-.569,4.264a10.016,10.016,0,0,1-.676,1.793,25.034,25.034,0,0,1-4.092,6.661,10.639,10.639,0,0,1-1.335,1.381A2.925,2.925,0,0,1,6.15,38.544Zm3.959-14.3q.011-.693.014-1.388Q10.121,23.554,10.109,24.248Zm1.275-11.6A28.8,28.8,0,0,0,8.9,6.707,29.1,29.1,0,0,1,11.384,12.646ZM2.811,2.627A21.409,21.409,0,0,1,6.283,7.016a23.068,23.068,0,0,1,2.266,5.207A23.068,23.068,0,0,0,6.283,7.016,21.409,21.409,0,0,0,2.811,2.627Z" transform="translate(47.46 21.616)" fill="#00ff9d"/>
      <path id="Union_125" data-name="Union 125" d="M6.347,41.677l0-.007a4.812,4.812,0,0,1-1.072-.425,5,5,0,0,1-1.689-1.09A9.137,9.137,0,0,1,2.134,37.11c-.337-1.1-.736-2.182-.975-3.3a32.92,32.92,0,0,1-.786-3.665.011.011,0,0,1,0,0c-.145-.8-.3-1.6-.372-2.409a2.44,2.44,0,0,1,.907-.141,20.411,20.411,0,0,1,2.146.475,1.837,1.837,0,0,1,1.2.923,10.61,10.61,0,0,1,.692,2.447c.457,1.959.74,3.947,1.179,5.91a9.548,9.548,0,0,0,1.609,4.2,3.832,3.832,0,0,1,.055.663A6.846,6.846,0,0,1,6.347,41.677Zm-.222-4.333c-.439-1.963-.723-3.956-1.175-5.91a11.106,11.106,0,0,0-.693-2.451,1.847,1.847,0,0,0-1.2-.919,20.429,20.429,0,0,0-2.146-.48,5.019,5.019,0,0,1,.847-.243,13.748,13.748,0,0,0,3.084-.933c.512-.2.961-.637,1.547-.607-.029,1.115,0,2.236,0,3.353a14.726,14.726,0,0,0,.077,2.121c.116.749,0,1.515.167,2.262q.166,2.091.454,4.17c.239,1.275.47,2.554.65,3.837A9.561,9.561,0,0,1,6.124,37.344Zm0-25.233C5.9,11.5,5.5,10.974,5.24,10.379A9.734,9.734,0,0,0,2.78,7.972a6.71,6.71,0,0,0,.437-.782A24.447,24.447,0,0,1,6.073,2.432,17.481,17.481,0,0,1,8.1.11l.3.052q.018.216.016.433,0-.216-.016-.433L8.1.11A17.481,17.481,0,0,0,6.073,2.432,24.447,24.447,0,0,0,3.217,7.189a6.71,6.71,0,0,1-.437.782c-.26-.164-.522-.33-.782-.488A9.835,9.835,0,0,1,3.033,5.366,20.209,20.209,0,0,1,6.322,1.185,4.482,4.482,0,0,1,7.8.064L7.682.042A4.056,4.056,0,0,1,9.645.427c.227.03.111.252.076.4a48.766,48.766,0,0,0-1.611,6c-.458,1.937-.667,3.917-1,5.876-.119.535.026,1.137-.317,1.608C6.573,13.579,6.39,12.834,6.124,12.111Z" transform="translate(29.731 23.518)" fill="#ffec00"/>
      <path id="Union_123" data-name="Union 123" d="M2.454,39.525c.175-1.243.381-2.485.475-3.734a32.423,32.423,0,0,0,.367-3.75,14.2,14.2,0,0,0,.129-2.524c.128-1.663.1-3.331.1-4.991a11.688,11.688,0,0,0-.1-1.252c-.047-1.288.034-2.578-.06-3.866-.145-.911-.026-1.839-.214-2.742-.043-1.077-.248-2.138-.283-3.212-.265-1.488-.388-3-.714-4.473Q1.668,6.234.945,3.536a10.6,10.6,0,0,1-.574-2,10.178,10.178,0,0,1,.715,1.274A37.049,37.049,0,0,1,3.01,9.994,37.049,37.049,0,0,0,1.086,2.809,10.178,10.178,0,0,0,.371,1.535,6.961,6.961,0,0,1,0,.547,10.468,10.468,0,0,1,1.719.021c.235-.055.569-.009.659.247A3.823,3.823,0,0,1,2.771.5,21.915,21.915,0,0,1,9.434,11.533a34.5,34.5,0,0,1,1.044,6.506c.026.662.03,1.329.107,1.992a27.094,27.094,0,0,1-.09,2.767c.009,1.156-.184,2.293-.26,3.44-.141,1.321-.454,2.607-.642,3.92-.23,1.471-.744,2.87-1.069,4.32a14.405,14.405,0,0,1-.441,1.408,24.2,24.2,0,0,1-1.044,2.826,4.818,4.818,0,0,1-1.693,1.8A10.583,10.583,0,0,1,3.036,41.7l-.009.086a4.1,4.1,0,0,1-1.056.339C2.049,41.24,2.331,40.4,2.454,39.525Zm6.835-9.3c.03-.3.054-.594.073-.89C9.344,29.634,9.32,29.932,9.289,30.228Zm.132-3.384c0-.535,0-1.07,0-1.6C9.417,25.774,9.422,26.309,9.422,26.844Zm-4.494-1.2ZM3.746,13.634c.146.871.4,1.723.5,2.6.18,1.489.42,2.973.5,4.474.062,1.39.188,2.775.192,4.163,0-1.389-.13-2.773-.192-4.163-.08-1.5-.32-2.985-.5-4.474-.1-.881-.354-1.733-.5-2.6ZM9.422,24.361c-.007-.767-.1-1.532-.132-2.3C9.319,22.827,9.415,23.592,9.422,24.361Zm-.637-7.067c.153,1.34.385,2.677.472,4.028-.087-1.351-.319-2.688-.468-4.028a45.6,45.6,0,0,0-2.5-10.085A45.53,45.53,0,0,1,8.785,17.294ZM5.054,4.572A30.322,30.322,0,0,0,2.9,1.244,30.74,30.74,0,0,1,5.054,4.572Z" transform="translate(44.344 23.53)" fill="#ffec00"/>
      <path id="Union_124" data-name="Union 124" d="M2.235,41.834c-.66-.454-.762-1.305-.955-2.015-.371-1.895-.5-3.828-.867-5.727C.335,33.028.191,31.971.216,30.9c-.247-1.985-.158-3.991-.209-5.988.022-.414-.093-.89.18-1.249a5.733,5.733,0,0,0,1.179-2.271,8.467,8.467,0,0,0-.787-5.23c-.385-.659,0-1.411,0-2.117.235-1.364.288-2.758.578-4.118.144-.753.209-1.519.384-2.263.205-.8.278-1.634.535-2.429a4.686,4.686,0,0,1,.487-1.6c.008.129.012.256.012.384,0-.128,0-.255-.012-.384a5.443,5.443,0,0,1,.3-1.381c.24-.736.432-1.484.693-2.211.41-.016.821-.012,1.227,0A2.607,2.607,0,0,1,5.788.061a5.127,5.127,0,0,1,.458,1.233,63.714,63.714,0,0,1,1.694,6.9c.115.961.342,1.9.479,2.86.141,1.357.33,2.707.475,4.065.1.649.047,1.309.157,1.954.094.577.035,1.168.1,1.749a51.694,51.694,0,0,1,.205,5.47c-.008,2.078.026,4.157-.128,6.226a35.709,35.709,0,0,1-.492,4.671A4.9,4.9,0,0,1,8.6,36.274a19.364,19.364,0,0,1-.416,2.48,5.3,5.3,0,0,1-2.057,1.47A3.189,3.189,0,0,1,3.8,40.139a1.79,1.79,0,0,1-.462-.327,1.836,1.836,0,0,0,.462.332,3.194,3.194,0,0,0,2.326.08,5.257,5.257,0,0,0,2.057-1.47,12.817,12.817,0,0,1-.359,2.061,1.663,1.663,0,0,1-1.051,1.16,8.119,8.119,0,0,1-2.344.205A4.407,4.407,0,0,1,2.235,41.834ZM1.456,30.154c.2,1.985.475,3.957.654,5.941a8.495,8.495,0,0,0,.68,2.93,8.518,8.518,0,0,1-.68-2.93c-.179-1.984-.457-3.961-.654-5.941-.072-.825-.155-1.66-.153-2.492C1.3,28.493,1.384,29.329,1.456,30.154Zm7.177,1.125c-.047-1.552.067-3.11-.077-4.659C8.7,28.166,8.581,29.728,8.632,31.279ZM1.94,14.673c.414,1.587,1.2,3.152,1.2,4.813,0-1.664-.787-3.226-1.2-4.813A8.065,8.065,0,0,1,1.7,12.706,8.019,8.019,0,0,0,1.94,14.673Z" transform="translate(37.26 24.264)" fill="#34ff97"/>
      <path id="Union_121" data-name="Union 121" d="M51.76,29.371c-.3-.013-.659.039-.88-.217-.107-.441.269-.8.49-1.133a28.79,28.79,0,0,0,3.6-6.389c.465-1.009.743-2.09,1.111-3.137a9.393,9.393,0,0,1,.512-1.6,8.5,8.5,0,0,1,.065,1.1,8.5,8.5,0,0,0-.065-1.1c.068-.628.269-1.243.377-1.872a6.626,6.626,0,0,1,3.918.072,3.753,3.753,0,0,1,2.466,2.727,3.584,3.584,0,0,0,.688,2.065c.82.982,2.18,1.094,3.265,1.641a4.165,4.165,0,0,1,2.65,3.748l0,0A2.7,2.7,0,0,1,68.483,27.4a13.075,13.075,0,0,1-4.227,1.483c-.556.123-1.132.106-1.688.243a15.091,15.091,0,0,1-1.683.132,8.538,8.538,0,0,1-1.616.1c-.17,0-.337,0-.509,0q-2.334.007-4.667,0Zm9.326-1.627a31.708,31.708,0,0,0,3.464-.411A31.8,31.8,0,0,1,61.086,27.745Zm-6.1-1.278a2.6,2.6,0,0,0,2.278,1.225,2.605,2.605,0,0,1-2.278-1.225,2.352,2.352,0,0,1-.122-.777A2.352,2.352,0,0,0,54.981,26.467Zm13.2-.1c-.12.051-.241.1-.364.146.123-.046.243-.1.364-.146l.06-.025ZM60.4,25.778a14.573,14.573,0,0,0,2.471-.076,6.25,6.25,0,0,0,2.32-.488,6.161,6.161,0,0,1-2.32.484c-.611.021-1.222.118-1.838.118a3.829,3.829,0,0,1-.628-.042,5.6,5.6,0,0,1-2.11-.384A5.672,5.672,0,0,0,60.4,25.778ZM58.3,25.389a1.2,1.2,0,0,1-.538-1.063A1.191,1.191,0,0,0,58.3,25.389ZM65.6,25a1.39,1.39,0,0,0,.609-1.077A1.393,1.393,0,0,1,65.6,25ZM59.174,17.47a1.615,1.615,0,0,0-.91,1.114,11.745,11.745,0,0,0-.145,2.974,11.255,11.255,0,0,1-.32,2.42,11.612,11.612,0,0,0,.326-2.42,11.5,11.5,0,0,1,.14-2.974,1.615,1.615,0,0,1,.91-1.114.738.738,0,0,1,.685.244.851.851,0,0,0-.548-.266A.49.49,0,0,0,59.174,17.47Zm.932.495c.825.941.88,2.283,1.585,3.287A4.677,4.677,0,0,0,64.5,22.409c.061.011.122.024.181.038-.06-.014-.12-.027-.181-.038a4.677,4.677,0,0,1-2.811-1.158c-.705-1-.761-2.346-1.585-3.287ZM9.754,17.15a39.665,39.665,0,0,1-4.773-.577,9,9,0,0,1-3.547-1.214A3.492,3.492,0,0,1,.083,13.564a3.332,3.332,0,0,1,.324-2.381A4.138,4.138,0,0,0,.723,12.7,4.419,4.419,0,0,0,2.8,14.62q.33.166.667.308c-.224-.094-.445-.2-.662-.308A4.407,4.407,0,0,1,.723,12.7a4.138,4.138,0,0,1-.316-1.518A5.224,5.224,0,0,1,1.642,9.752c1.2-.813,2.727-.894,3.928-1.694a1.839,1.839,0,0,0,.722-.935c.407-.957.231-2.093.859-2.961a4.4,4.4,0,0,1,3.056-1.479,5.415,5.415,0,0,1,2.676.222c.577.234,1.094.577,1.658.841a1.59,1.59,0,0,0,1.731-.217c.653-.557,1.111-1.3,1.744-1.873A5.651,5.651,0,0,1,22.067.007a6.352,6.352,0,0,1,4.8,2.023c1.217,1.457,1.718,3.325,2.435,5.042.343,1.035.992,1.936,1.317,2.979l0,.017a4.221,4.221,0,0,1,0,3.483,5.616,5.616,0,0,1-3.107,2.389,23.033,23.033,0,0,1-6.542,1.212c-1.578.078-3.15.109-4.728.109C14.083,17.261,11.917,17.205,9.754,17.15Zm5.825-.843q-.713.016-1.426.027c.476-.008.951-.016,1.426-.027Zm-7.141-.218c.936.12,1.877.188,2.82.221-.942-.034-1.883-.1-2.82-.221l-.181-.023Zm20.71-2.671c-1.667,1.483-3.94,1.941-6.077,2.275,2.138-.334,4.411-.792,6.077-2.275q.2-.176.381-.374Q29.343,13.242,29.148,13.418Zm-14.423,1.07a28.042,28.042,0,0,0,3.722-.15,23.5,23.5,0,0,1-2.987.15h-.735Zm-2.193,0h0Zm-6.607-.868a2.673,2.673,0,0,1-.919-.846A2.614,2.614,0,0,0,5.925,13.615Zm17.282-.137A6.849,6.849,0,0,0,25.793,12.3,6.916,6.916,0,0,1,23.207,13.478ZM10.147,6.529c-.359,1.114-.09,2.488-.961,3.4-1.031,1.147-2.757,1.026-3.944,1.916a.7.7,0,0,0-.235.927.708.708,0,0,1,.235-.927c1.187-.89,2.913-.769,3.944-1.916.871-.908.6-2.282.961-3.4a1.866,1.866,0,0,1,1.709-1.336h0A1.863,1.863,0,0,0,10.147,6.529Zm15.91-.561A7.338,7.338,0,0,1,26.913,9c.011.149.015.3.014.449,0-.152,0-.3-.014-.449a7.338,7.338,0,0,0-.855-3.031c-.041-.074-.087-.146-.133-.219C25.971,5.822,26.016,5.895,26.058,5.969Zm-7.236.381.023-.023Zm.107-.112a.017.017,0,0,0,.008-.008A.017.017,0,0,1,18.929,6.238Zm.066-.069.063-.071C19.037,6.123,19.016,6.144,18.995,6.168Zm.063-.071c.011-.012.021-.022.03-.034C19.078,6.076,19.069,6.086,19.058,6.1Zm.031-.036.023-.025Zm.03-.036a.016.016,0,0,0,.005-.007A.016.016,0,0,1,19.12,6.026ZM21.985,3.61c-1.24.189-1.966,1.291-2.688,2.2l-.118.149.118-.149c.722-.906,1.447-2.008,2.688-2.2.113-.009.226-.014.339-.014h0C22.21,3.6,22.1,3.6,21.985,3.61Z" transform="translate(5.642 32.238)" fill="#49fdff"/>
      <g id="_884a58ff" data-name="#884a58ff" transform="translate(45.504 74.704)">
        <path id="Path_100399" data-name="Path 100399" d="M364.6,497.624a.825.825,0,0,1,.73-.015C365.218,497.8,364.735,497.77,364.6,497.624Z" transform="translate(-364.6 -497.53)" fill="#884a58"/>
      </g>
    </g>
  </g>
</svg>
