<svg xmlns="http://www.w3.org/2000/svg" xmlns:xlink="http://www.w3.org/1999/xlink" width="122.893" height="102.41" viewBox="0 0 122.893 102.41">
  <defs>
    <clipPath id="clip-path">
      <path id="Path_107341" data-name="Path 107341" d="M69.723,7.423,55.984,0,15.105,1.705.055,7.262,0,18.517l70.407-6.143Z" fill="none"/>
    </clipPath>
    <clipPath id="clip-path-2">
      <path id="Path_107342" data-name="Path 107342" d="M55.855,11.093,44.849,18.516,12.1,16.811l-10.747-5.2L0,0,56.4,6.143Z" transform="translate(0 0)" fill="none"/>
    </clipPath>
  </defs>
  <g id="slide-ico-2" transform="translate(-912 -653.334)">
    <rect id="Rectangle_5578" data-name="Rectangle 5578" width="122.892" height="102.41" transform="translate(912 653.334)" fill="none"/>
    <g id="Group_66164" data-name="Group 66164" transform="translate(931.695 664.1) rotate(-8)">
      <g id="Mask_Group_51" data-name="Mask Group 51" transform="matrix(0.998, 0.07, -0.07, 0.998, 1.292, 30.08)" clip-path="url(#clip-path)">
        <path id="Path_107333_-_Outline" data-name="Path 107333 - Outline" d="M3.134,45.955c.261-4.811,1.149-14.832,2.219-22.442C6.571,14.851,7.167,9.109,8,5.931c3.6-.669,13.775-3.315,22.955-3.315,9.106,0,18.544-.278,21.422,3.315s9.133,37.232,9.133,37.232a206.453,206.453,0,0,0-30.556-2.616c-11.85,0-22.388,3.6-27.819,5.407M.148,47.577c.57,3.178,14.347-4.414,30.806-4.414a203.943,203.943,0,0,1,33.572,3.313l-9.331-43.9A134.2,134.2,0,0,0,30.953,0,132.638,132.638,0,0,0,6.8,2.573,178.535,178.535,0,0,0,2.366,24.024C.731,35.654-.422,44.4.148,47.577Z" transform="translate(1.581 -39.099)"/>
      </g>
      <g id="_5421635165" data-name="5421635165" transform="translate(2.143 0)">
        <g id="_030203ff" data-name="#030203ff" transform="translate(0 0)">
          <path id="Path_107294" data-name="Path 107294" d="M60.983,36.529c.358-.039.715-.074,1.073-.109,2.428,3.257,4.844,6.527,7.3,9.762.807.95.759,2.267.955,3.431.41,4.155,1.221,8.258,1.635,12.413a35.517,35.517,0,0,0,.876,5.232c.27-4.587-.536-9.156-.327-13.751,1.962-3.641,3.6-7.456,5.659-11.035.3-.837,1.229-.092,1.426.405,1.962,3.165,3.819,6.4,5.825,9.54a3.258,3.258,0,0,1,.641,1.67c.118,2.106.07,4.216.222,6.322,1.687-2.141,2.646-4.735,4.2-6.963.222-.366.689-.379,1.046-.545q1.164,2.165,2.35,4.325c.493-1.312.693-2.712,1.134-4.042a15.715,15.715,0,0,1,2.394-2.773c2.2-2.184,4.138-4.617,6.387-6.754.327-.371.85-.2,1.277-.24,1.129,4.29,2.3,8.576,3.287,12.892-1.029,4.979-2.568,9.853-3.584,14.837,1.709-3.867,3.453-7.721,5.162-11.593a4.138,4.138,0,0,1,1.556-1.57c2.638-1.875,5.171-3.889,7.748-5.842a6.31,6.31,0,0,1,2.189-1.081c.767,3.732.706,7.569,1.208,11.336a6.444,6.444,0,0,1-.157,2.956c-5.376,11.85-10.542,23.8-15.957,35.638,2.346.14-45.034-5.492-43.39-3.274.682.919-6.073-38.092-5.3-37.077-.375-3.924-1.116-7.813-1.452-11.741,1.3-4.2,3.178-8.21,4.613-12.369m-.6,6.091c-.894,1.918-1.509,3.946-2.346,5.886a2.418,2.418,0,0,0,0,1.74c.554-.846,1.086-1.709,1.657-2.546,1.164.6,1.744,2.145,3.026,2.411.589-.968,1.09-1.984,1.687-2.947,1.26.388,1.9,1.631,2.747,2.537.314-.841,1.09-1.635.946-2.564-1.186-1.735-2.537-3.353-3.771-5.049a35.434,35.434,0,0,1-3.946.532m15.077,8.5c-.61,1.439-1.757,2.729-1.7,4.377.942-.44,1.116-1.683,2.062-2.08,1.059.545,1.6,1.687,2.285,2.6,1.339-.506,1.434-2.59,2.912-2.7.711.741,1.243,1.639,1.927,2.407.763-.353.916-1.382,1.391-2.027-1.073-1.836-2.224-3.627-3.309-5.459-1.33,0-2.66-.026-3.981.1-.815.715-1.064,1.862-1.591,2.782m25.663-2.3c-1.055.863-1.883,1.953-2.847,2.908-.794.876-1.945,1.618-1.958,2.934.881-.344,1.666-1.748,2.677-1.125a19.672,19.672,0,0,1,1.208,3.152c1.273-.593,2.058-2.206,3.623-2.01.279.942.545,1.888.911,2.8.828,0,1.325-.916,1.988-1.33-.327-2.206-1.12-4.3-1.652-6.457-1.339-.161-2.616-.846-3.95-.872M64.366,49.892c-.048.288-.144.868-.192,1.155a5.231,5.231,0,0,0-1.055,1.4H61.707l.065-.589c-.6-.449-1.107-1.727-1.94-1.478a6.749,6.749,0,0,0-1.321,3.3c1.1,8.423,2.276,16.834,3.457,25.244a21.145,21.145,0,0,0,.628,4.02l-.083.628.576,0-.676.493c.227-.009.68-.031.907-.039a25.531,25.531,0,0,0,.227,5.027,10.611,10.611,0,0,1,.358,3.056c.327.414.667.82,1.012,1.221l-.724-.122c-.1,2.5.615,4.931.7,7.421l.3-.061c3,.262,6.03.022,9.043.148-.34-5.834-.414-11.68-.833-17.51-1.094-8.72-2.485-17.4-3.593-26.12-.34-2.311-.528-4.656-1.081-6.932-.475.584-.6,1.831-1.574,1.622-1.02-.5-1.439-2.115-2.786-1.879m30.9,8.332c-.676,1.713,1.012,3.1,1.578,4.591.4.859,1.1,1.648,1.081,2.646.087,3.994-.288,7.992-.044,11.985-.013,4.752-.366,9.526-.013,14.274,2.882-10.9,5.463-21.9,8.38-32.791-.916.58-2.385,1.373-2.825-.222l.118-.2c-.2-.593-.4-1.177-.6-1.766-1.168.567-2.04,1.574-3.209,2.145-.336-.6-.663-1.2-1-1.8a15.013,15.013,0,0,0-.493-1.674c-1.138.737-2.446,1.5-2.973,2.812m-21.307.724c.449,9.867.907,19.737,1.273,29.6l-.039.344.58-.009-.645.619,1.2.14-.824.035c.022,2.372,0,4.744.2,7.111a24.1,24.1,0,0,0-.017,3.928c1.059.052,2.119.092,3.178.07,1.652-.035,3.4.353,4.983-.248-.118-11.558.153-23.125.118-34.688-.214-1.291,1.055-2.21.95-3.475a52.24,52.24,0,0,0-.44-5.781c-.449.885-1.059,1.631-2.154,1.334-.131-.275-.4-.828-.528-1.107l0-.078c-.375-.405-.741-.828-1.094-1.256a20.538,20.538,0,0,1-2.18,2.978c-.436-.353-.872-.711-1.3-1.073-.44-.532-.7-1.356-1.417-1.556a7.434,7.434,0,0,0-1.844,3.109m37.857.746c-.5.3-.541.92-.746,1.4.9-.362,1.718-1.26,2.755-1.038a14.238,14.238,0,0,1,.759,3.518c1.26-.458,2.341-1.334,3.675-1.57.314,1.142.545,2.306.75,3.475.7-.432,1.386-.872,2.08-1.317a56.332,56.332,0,0,0-.6-6.636c-1.247-.48-2.459-1.038-3.667-1.6-1.652,1.282-3.366,2.476-5.01,3.763m-22.9-.549c-.894,1.883-2.115,3.588-3.039,5.454a3.778,3.778,0,0,0-.183,1.683c.671-.828,1.173-1.975,2.333-2.184.671,1.025,1.4,2.01,2.119,3a15.449,15.449,0,0,1,2.228-2.838c1.308.2,1.6,1.827,2.381,2.725.475-.671.964-1.343,1.465-2-.855-2-2.158-3.771-2.973-5.79-1.443-.1-2.886-.1-4.329-.052m20.871,4.521c-1.36,2.978-2.673,5.977-4.007,8.964-1.543,3.684-3.614,7.2-4.321,11.179-.379,2.132-1.352,4.168-1.43,6.339a66.449,66.449,0,0,0-2.01,7.155,7.129,7.129,0,0,0-.235,3.736c2.372-.092,4.757.144,7.12-.087,5.127-11.379,10.076-22.837,15.29-34.178a12.129,12.129,0,0,1-2.206.8c-.209-.528-.419-1.051-.632-1.574a6.673,6.673,0,0,0,.1-1.722c-1.286.039-2.289.929-3.366,1.513a2.806,2.806,0,0,1-.994-2.507l-.026.179L112.648,62c-.946.571-1.9,1.125-2.86,1.67M62.413,100.594l.17.009M85.691,68.889c-.044,9.609-.183,19.219-.126,28.828-.074,1.055-.022,2.115-.035,3.174,3.5-.065,6.993.1,10.49.057.035-11.009.148-22.018.122-33.027a1.25,1.25,0,0,0-.541,1.142,1.784,1.784,0,0,1-2.058-.894,6.447,6.447,0,0,0-.9-1.8c-.855.868-1.452,1.962-2.346,2.786-.732-.022-1.1-.737-1.613-1.147l.017-.344c-.318-.449-.637-.9-.95-1.356a22.2,22.2,0,0,0-2.062,2.581" transform="translate(-55.722 -35.748)" fill="#030203"/>
          <path id="Path_107294_-_Outline" data-name="Path 107294 - Outline" d="M97.46,101.844l-.145-.47a4.421,4.421,0,0,1-.162-.753l-.35-.039,0,1.144-.63.008c-.4.005-.814.007-1.257.007-1.251,0-2.519-.02-3.746-.04s-2.486-.04-3.726-.04c-.629,0-1.2.005-1.756.015l-.66.012.008-.66c0-.355,0-.718,0-1.07,0-.2,0-.407,0-.614l-.414-.04q.005.689.012,1.377l0,.447-.418.158a6.686,6.686,0,0,1-2.421.381c-.446,0-.893-.024-1.326-.048-.5-.027-.979-.053-1.45-.043-.2,0-.414.006-.628.006-.919,0-1.828-.039-2.6-.077l-.629-.031.021-.63c.015-.461-.013-.931-.043-1.429-.019-.314-.038-.634-.046-.957l-.205-.016c.041.848.082,1.631.125,2.377l.041.706-.707-.03c-.637-.027-1.324-.039-2.162-.039-.54,0-1.092.005-1.625.01s-1.09.01-1.636.01c-.974,0-2.252-.014-3.555-.123l-.948.2-.027-.757a25.714,25.714,0,0,0-.281-2.727c-.09.011-.163.023-.223.033a.663.663,0,0,1-.14.218.652.652,0,0,1-.6.187l-.434.3-.027-.647a.788.788,0,0,1-.1-.525.757.757,0,0,1,.064-.2c-.123-1.526-.919-6.707-1.834-12.514l-.339.013.306-.223c-.225-1.428-.457-2.891-.687-4.344-.742-4.683-1.509-9.526-2.054-13.186-.294-1.978-.5-3.446-.627-4.489-.071-.582-.117-1.019-.14-1.336a2.165,2.165,0,0,1,.025-.744c-.176-1.77-.428-3.563-.672-5.3-.285-2.027-.579-4.124-.757-6.206l-.011-.124.037-.119c.742-2.4,1.681-4.76,2.59-7.046.693-1.744,1.41-3.548,2.029-5.343l.132-.383.4-.044c.361-.04.727-.075,1.08-.11l.359-.035.216.29q.9,1.207,1.8,2.416C66.3,41.009,68.154,43.5,70,45.929a5.3,5.3,0,0,1,.982,2.95c.032.271.062.528.1.775l.006.044c.2,2.073.516,4.176.817,6.209l.069.468c-.022-.915-.02-1.833.022-2.75l.007-.146.069-.129c.841-1.561,1.638-3.187,2.408-4.759,1.014-2.07,2.063-4.209,3.235-6.249a1.1,1.1,0,0,1,1.027-.741,1.94,1.94,0,0,1,1.548,1.126c.813,1.313,1.621,2.657,2.4,3.957,1.1,1.825,2.23,3.712,3.394,5.535l.015.025.1.175a3.4,3.4,0,0,1,.625,1.8c.053.956.072,1.923.091,2.858.01.513.021,1.035.037,1.558.432-.7.829-1.443,1.239-2.2a32.491,32.491,0,0,1,1.878-3.192,1.7,1.7,0,0,1,1.049-.683,2.255,2.255,0,0,0,.263-.091l.547-.254.286.531c.524.975,1.047,1.938,1.619,2.988.061-.239.121-.481.181-.728.15-.615.305-1.251.512-1.874l.019-.056.028-.052a9.9,9.9,0,0,1,1.768-2.156c.251-.252.487-.49.713-.739l.023-.024c.988-.982,1.944-2.038,2.869-3.059,1.118-1.235,2.274-2.511,3.512-3.688a1.468,1.468,0,0,1,1.138-.436c.085,0,.165,0,.242.006a2.434,2.434,0,0,0,.291,0l.545-.056.139.529q.315,1.2.634,2.4c.912,3.438,1.854,6.994,2.659,10.517l.031.136-.028.136c-.511,2.473-1.156,4.953-1.779,7.352l-.2.78c.775-1.733,1.568-3.51,2.343-5.265a3.819,3.819,0,0,1,1.456-1.6c.1-.077.2-.15.3-.223l.021-.016c1.835-1.3,3.653-2.7,5.412-4.055.757-.582,1.539-1.184,2.314-1.771a6.89,6.89,0,0,1,2.4-1.19l.667-.2.14.681a52.685,52.685,0,0,1,.795,6.826c.108,1.5.22,3.05.42,4.554l0,.056c.009.194.024.391.041.6a5.292,5.292,0,0,1-.253,2.644c-2.47,5.444-4.934,11-7.318,16.369-2.764,6.227-5.62,12.664-8.5,18.97a.608.608,0,0,1,0,.1.647.647,0,0,1-.253.458l-.084.184-.316-.055c-.024,0-.058,0-.107,0l-.933-.055.04-.088-.2-.026-.041.092-.369.036c-.755.074-1.576.108-2.583.108-.56,0-1.126-.01-1.674-.02s-1.1-.02-1.652-.02c-.46,0-.868.007-1.249.022Zm-10.021-1.462c1.251,0,2.519.02,3.746.04s2.486.04,3.726.04l.611,0v-.019c-3.136-.345-6.3-.677-9.217-.969,0,.16,0,.319,0,.476s0,.292,0,.44C86.673,100.384,87.046,100.382,87.439,100.382Zm18.629.007.209.028c2.856-6.253,5.688-12.633,8.428-18.808,2.385-5.373,4.85-10.929,7.32-16.373a4.208,4.208,0,0,0,.144-2.018c-.016-.2-.033-.41-.043-.617-.2-1.533-.316-3.094-.425-4.6a58.187,58.187,0,0,0-.635-5.946,5.082,5.082,0,0,0-1.3.738l-.012.01c-.773.586-1.556,1.188-2.313,1.77-1.765,1.357-3.589,2.76-5.44,4.076-.1.081-.211.159-.314.235a2.765,2.765,0,0,0-1.028,1.055l-.01.024c-.875,1.983-1.774,3.993-2.643,5.937-.828,1.853-1.685,3.769-2.519,5.656l-1.213-.387c.518-2.541,1.18-5.087,1.82-7.55.608-2.339,1.236-4.756,1.736-7.153-.793-3.457-1.72-6.955-2.617-10.338q-.255-.961-.509-1.923l-.1,0c-.129,0-.188.014-.2.027l-.039.041c-1.209,1.148-2.354,2.413-3.462,3.636C99.969,48.934,99,50,98,51c-.242.265-.5.521-.741.768A9.052,9.052,0,0,0,95.73,53.59c-.181.556-.319,1.121-.465,1.718a19.859,19.859,0,0,1-.659,2.29l-.491,1.307-.67-1.225c-.775-1.417-1.44-2.637-2.094-3.851a.467.467,0,0,0-.193.1l-.022.034a31.379,31.379,0,0,0-1.811,3.081,26.351,26.351,0,0,1-2.411,3.912l-1.022,1.3L85.774,60.6c-.085-1.17-.109-2.352-.132-3.5-.019-.932-.038-1.9-.091-2.837v-.053a2.342,2.342,0,0,0-.447-1.147L85,52.9c-1.17-1.834-2.306-3.724-3.4-5.552-.787-1.31-1.6-2.664-2.418-3.982l-.03-.049-.021-.053a.9.9,0,0,0-.279-.315c-1.16,2.013-2.205,4.147-3.216,6.21-.755,1.54-1.534,3.131-2.361,4.673a63.475,63.475,0,0,0,.18,6.467,59.352,59.352,0,0,1,.153,7.148l-1.263.1a36.124,36.124,0,0,1-.89-5.318c-.2-2.048-.512-4.125-.81-6.134-.3-2.041-.615-4.152-.822-6.249-.045-.272-.078-.548-.109-.816a4.194,4.194,0,0,0-.7-2.285l-.022-.027c-1.854-2.438-3.712-4.936-5.509-7.352L61.9,37.239l-.3.031c-.6,1.694-1.266,3.379-1.916,5.013-.884,2.225-1.8,4.524-2.52,6.832.176,2.007.462,4.042.738,6.012.257,1.83.523,3.722.7,5.6l.213,2.228-.089-.117c.45,3.507,1.639,11.012,2.639,17.324.2,1.25.394,2.489.585,3.7L62,83.824l.088-.668a12.6,12.6,0,0,1-.469-2.749c-.04-.43-.079-.836-.138-1.242-1.131-8.052-2.33-16.631-3.459-25.253l0-.034v-.035a6.079,6.079,0,0,1,1.141-3.176c.093-.156.18-.3.264-.451l.127-.223.246-.073a1.378,1.378,0,0,1,.394-.058,2.271,2.271,0,0,1,1.659,1.13,3.261,3.261,0,0,0,.454.509l.292.219-.027.241h.348l.067-.11a4.359,4.359,0,0,1,.745-.993l.187-1.125c-.161.287-.327.576-.5.86l-.235.386-.442-.092a3.972,3.972,0,0,1-2.076-1.47,8.2,8.2,0,0,0-.65-.672c-.23.35-.457.7-.678,1.05-.2.312-.406.635-.613.951l-.86,1.314-.3-1.541c-.015-.077-.032-.155-.049-.233a2.613,2.613,0,0,1,.1-1.914c.36-.837.686-1.711,1-2.557.408-1.094.831-2.226,1.339-3.316l.161-.346.381-.023a35.039,35.039,0,0,0,3.874-.524l.393-.068.234.322c.5.688,1.033,1.379,1.547,2.046.75.973,1.525,1.979,2.235,3.018l.082.12.022.143a3.3,3.3,0,0,1-.61,2.154,5.474,5.474,0,0,0-.369.731l-.361.967-.706-.753c-.247-.263-.473-.548-.691-.822a5.433,5.433,0,0,0-1.33-1.34c-.2.344-.394.7-.584,1.038l-.17.308.341-.06a2.157,2.157,0,0,1,.37-.033,2.688,2.688,0,0,1,2.021,1.23,3.382,3.382,0,0,0,.71.7h0c.125,0,.3-.362.419-.626a3.718,3.718,0,0,1,.449-.783l.814-1,.3,1.253a44.812,44.812,0,0,1,.82,4.951c.085.671.173,1.364.273,2.04l0,.013c.541,4.258,1.16,8.581,1.758,12.761.626,4.375,1.274,8.9,1.834,13.36l0,.034c.147,2.052.253,4.125.342,6.18l.132-.127.078-.682c-.335-9.008-.752-18.169-1.156-27.029l-.118-2.585.01-.063a6.433,6.433,0,0,1,1.6-2.928c.131-.163.255-.317.373-.472l.263-.343.416.116a2.55,2.55,0,0,1,1.424,1.3c.1.155.188.3.281.422.231.2.48.4.76.631A20.741,20.741,0,0,0,80.294,55.3l.468-.767.572.692c.366.442.726.856,1.071,1.229l.184.2-.01.187c.088.185.2.424.3.633l.013.027h.033c.288,0,.646-.125,1.116-1.05l.849-1.674.35,1.844a26.485,26.485,0,0,1,.351,3.931c.025.632.05,1.286.1,1.921a3.684,3.684,0,0,1-.552,2,2.387,2.387,0,0,0-.406,1.416l.008.051V66c.015,5.095-.029,10.273-.072,15.281-.047,5.487-.1,11.155-.066,16.738l.437.043h.012q.006-.111.013-.218c-.038-6.45.013-13.006.063-19.346.024-3.1.049-6.31.064-9.465v-.205l.15-.207a22.448,22.448,0,0,1,2.094-2.613l.542-.555.441.638c.3.429.606.871.946,1.35l.128.181-.013.262c.087.085.168.172.248.258a2.336,2.336,0,0,0,.512.459,13,13,0,0,0,.961-1.174,13.519,13.519,0,0,1,1.127-1.359l.636-.646.4.816a5.462,5.462,0,0,0,.314.531,3.992,3.992,0,0,1,.61,1.279,1.386,1.386,0,0,0,.863.608,1.928,1.928,0,0,1,.748-1.1l1.023-.773,0,1.282c.017,7.049-.024,14.215-.064,21.144-.019,3.305-.039,6.717-.052,10.084l.3.033h0l.043,0a14.429,14.429,0,0,1,.345-1.834l.05-.212c.159-.608.313-1.232.461-1.835a45.189,45.189,0,0,1,1.533-5.289,16.588,16.588,0,0,1,.807-3.864,23.011,23.011,0,0,0,.628-2.456,34.07,34.07,0,0,1,3.006-8.3c.458-.986.931-2.006,1.354-3.015l.006-.014q.647-1.449,1.29-2.9c.884-1.992,1.8-4.051,2.719-6.068l.086-.188.18-.1c1.071-.609,2-1.152,2.846-1.661l.716-.432.648,2.27-.089.025.138.015a2.364,2.364,0,0,0,.452,1.669c.124-.075.25-.154.379-.235a5.775,5.775,0,0,1,2.871-1.123l.562-.017c-.06-.273-.124-.552-.194-.833a10.253,10.253,0,0,0-1.471.679,12.384,12.384,0,0,1-1.527.714l-.74.269-.112-.78q-.033-.228-.064-.457a13.5,13.5,0,0,0-.513-2.539,3.194,3.194,0,0,0-1.128.517,6.444,6.444,0,0,1-.936.5l-1.43.576.6-1.419c.043-.1.08-.223.12-.351a2.208,2.208,0,0,1,.847-1.328c.853-.667,1.735-1.317,2.588-1.946.791-.583,1.609-1.186,2.4-1.8l.309-.239.354.165c1.27.591,2.419,1.119,3.626,1.583l.339.13.062.358a53.555,53.555,0,0,1,.585,6.317l.04.765-.313.2c-.666.427-1.376.882-2.089,1.322l-.8.5-.163-.931c-.083-.476-.184-1.027-.306-1.613l.018.247a7.323,7.323,0,0,1-.072,1.7c.11.271.226.559.353.877a13.832,13.832,0,0,0,1.56-.613l1.56-.7-.715,1.555c-3.118,6.781-6.193,13.721-9.166,20.433-1.855,4.187-3.77,8.509-5.683,12.765h0Zm-26.847-.094c.439,0,.883.024,1.312.048s.845.046,1.256.046a6.138,6.138,0,0,0,1.549-.166q0-.521-.009-1.041c-2.524-.241-4.858-.449-6.953-.619.009.253.024.512.04.778.018.3.037.607.045.916.6.026,1.263.047,1.924.047.205,0,.408,0,.6-.006Zm19.2-.819c2.4.272,4.691.541,6.32.743,1.966-4.369,3.935-8.814,5.841-13.117,2.763-6.236,5.613-12.668,8.505-18.992-.262.087-.533.166-.81.231l-.537.126-.2-.513c-.243-.614-.444-1.112-.63-1.568l-.071-.174.034-.185a6.119,6.119,0,0,0,.1-.855,6.924,6.924,0,0,0-1.584.818c-.274.171-.557.349-.849.507l-.369.2-.331-.259a3.354,3.354,0,0,1-1.248-2.682l-.182-.639c-.608.36-1.261.739-1.977,1.147-.89,1.951-1.773,3.941-2.627,5.867q-.643,1.449-1.288,2.9c-.432,1.03-.909,2.058-1.371,3.053a33.109,33.109,0,0,0-2.907,7.984,24.319,24.319,0,0,1-.66,2.593,14.981,14.981,0,0,0-.761,3.657l0,.107-.039.1a43.4,43.4,0,0,0-1.522,5.233c-.149.6-.3,1.23-.463,1.845l-.044.187A13.336,13.336,0,0,0,98.421,99.476Zm-32.782.618c1.2.093,2.378.106,3.286.106.54,0,1.091-.005,1.624-.01s1.09-.01,1.637-.01,1.053.005,1.511.017c-.032-.586-.063-1.2-.094-1.848-3.319-.24-5.874-.362-7.6-.362q-.321,0-.605.006C65.5,98.681,65.587,99.384,65.639,100.094Zm20.689-1.906c2.913.29,6.067.621,9.2.966.013-3.324.032-6.689.051-9.95.036-6.329.074-12.855.067-19.307a2.166,2.166,0,0,1-.419.042A2.638,2.638,0,0,1,93.175,68.7l-.1-.134-.023-.166a2.182,2.182,0,0,0-.363-.8c-.155.193-.307.394-.463.6a11.562,11.562,0,0,1-1.35,1.574l-.192.177-.261-.008a2.3,2.3,0,0,1-1.625-.925,3.784,3.784,0,0,0-.368-.361l-.257-.2L88.195,68l-.367-.522c-.481.562-.924,1.169-1.356,1.766-.014,3.09-.039,6.228-.063,9.264-.05,6.343-.1,12.9-.063,19.352v.024l0,.024C86.338,98,86.333,98.092,86.328,98.188Zm-9.9-.906c2.079.169,4.392.374,6.894.613-.029-5.549.02-11.176.067-16.625.043-4.989.087-10.147.072-15.219A3.519,3.519,0,0,1,84,63.9a2.6,2.6,0,0,0,.418-1.323c-.051-.662-.077-1.329-.1-1.973-.03-.773-.059-1.52-.126-2.255a2,2,0,0,1-1.26.434,2.434,2.434,0,0,1-.635-.088l-.284-.077-.281-.59c-.13-.273-.284-.595-.374-.787l-.038-.082q-.2-.216-.4-.447a20.418,20.418,0,0,1-1.776,2.327l-.406.456-.475-.384c-.518-.42-.934-.763-1.31-1.081l-.043-.037-.036-.044a5.387,5.387,0,0,1-.415-.6,4.111,4.111,0,0,0-.359-.519l-.033.041a5.59,5.59,0,0,0-1.319,2.265l.112,2.453c.4,8.786.815,17.869,1.148,26.806l1.529-.023-1,.955-.041,1.107-.206.009q0,.253,0,.505c.013,1.952.026,3.971.186,5.941l.007.09-.018.089Q76.445,97.172,76.429,97.282Zm-1.309-.1.03,0q.019-.141.044-.277c-.157-1.989-.17-4-.183-5.948q0-.344,0-.687l-.454-.053q.062,1.505.118,2.989c.05,1.3.1,2.63.159,3.952l.291.022ZM66,96.706c1.73,0,4.265.119,7.542.355-.055-1.275-.1-2.559-.152-3.807-.124-3.229-.252-6.568-.487-9.841-.558-4.445-1.2-8.957-1.829-13.321-.6-4.183-1.219-8.509-1.76-12.776-.1-.686-.19-1.383-.275-2.058-.134-1.053-.271-2.13-.458-3.192a1.362,1.362,0,0,1-1.079.516,1.641,1.641,0,0,1-.343-.038l-.077-.017-.071-.035a3.911,3.911,0,0,1-1.2-1.056,2.667,2.667,0,0,0-.771-.719l-.14.84-.211.154a2.7,2.7,0,0,0-.62.8c-.089.148-.182.3-.286.452l-.191.276H61.133l.109-.977c-.142-.149-.273-.315-.4-.478a4.037,4.037,0,0,0-.519-.576l-.066.112a5.153,5.153,0,0,0-.962,2.463c1.127,8.6,2.323,17.167,3.452,25.2.064.435.105.876.145,1.3a10.874,10.874,0,0,0,.453,2.594l.05.144-.007.05,1.83-.014-1.089.794-.026.361a24.86,24.86,0,0,0,.217,4.849,10.871,10.871,0,0,1,.368,2.963c.246.307.523.639.858,1.029L66.7,94.4l-1.732-.3a22.372,22.372,0,0,0,.245,2.608C65.456,96.709,65.72,96.706,66,96.706Zm-3.894-11.84c.8,5.073,1.477,9.477,1.733,11.619l.045-.031a18.21,18.21,0,0,1-.192-3.128l.018-.466-.168-.211-.138-.174v-.222a10.058,10.058,0,0,0-.331-2.873l-.015-.051-.007-.053a28.294,28.294,0,0,1-.267-4.436l-.207.009Zm56.756-23.442.154.562c.248.9.441,1.806.593,2.6.325-.205.647-.411.961-.612v-.022a55.93,55.93,0,0,0-.509-5.812c-1.008-.4-2-.852-3.012-1.319-.7.538-1.417,1.065-2.112,1.578-.508.375-1.027.757-1.542,1.145a2.251,2.251,0,0,1,.706.036l.327.07.129.309a11.409,11.409,0,0,1,.686,2.844c.208-.1.418-.212.633-.325a8.264,8.264,0,0,1,2.414-.954ZM59.629,47.018l.5.26a5.336,5.336,0,0,1,1.479,1.281,4.6,4.6,0,0,0,.976.91c.177-.308.35-.621.519-.927.285-.517.58-1.051.9-1.569l.26-.42.472.145a5.1,5.1,0,0,1,2.4,1.968l.02.026a2.641,2.641,0,0,0,.459-1.184c-.664-.961-1.393-1.907-2.1-2.822-.44-.571-.893-1.159-1.332-1.753-1.057.182-2.141.358-3.24.446-.42.942-.787,1.926-1.144,2.881-.136.365-.274.734-.416,1.105Zm39,45.015-1.257-.116c-.241-3.238-.156-6.524-.073-9.7.039-1.51.08-3.072.084-4.6-.14-2.309-.075-4.642-.013-6.9.046-1.671.094-3.4.057-5.091v-.028a3.207,3.207,0,0,0-.6-1.58c-.145-.25-.3-.508-.423-.781l-.019-.044a7.645,7.645,0,0,0-.708-1.286c-.679-1.075-1.448-2.294-.868-3.767a6.8,6.8,0,0,1,2.971-2.953l.25-.161.679-.439.272.761A15.778,15.778,0,0,1,99.476,57q.23.413.457.824l.185.334c.324-.209.637-.451.962-.7a9.911,9.911,0,0,1,1.721-1.144l.652-.316.234.686q.1.293.2.586c.133.387.271.786.4,1.185l.091.275-.113.193c.115.234.245.234.337.234a3.614,3.614,0,0,0,1.442-.619l1.385-.877-.424,1.583c-1.536,5.739-3,11.6-4.424,17.274C101.31,81.608,99.992,86.872,98.629,92.032Zm.078-26.424c.037,1.719-.011,3.458-.057,5.141-.062,2.236-.126,4.548.012,6.806V77.6c0,1.551-.045,3.127-.085,4.651-.045,1.72-.09,3.472-.084,5.226.973-3.775,1.922-7.567,2.848-11.267C102.65,70.984,104,65.6,105.4,60.294a2.538,2.538,0,0,1-.8.142,1.669,1.669,0,0,1-1.657-1.41l-.072-.261.108-.183c-.084-.251-.171-.5-.255-.749-.29.194-.573.412-.865.638a10,10,0,0,1-1.71,1.139l-.545.266-.3-.529q-.252-.452-.5-.9t-.5-.9l-.044-.079-.02-.089c-.063-.275-.137-.552-.219-.83A4.914,4.914,0,0,0,96,58.61c-.318.806.075,1.524.761,2.61a8.818,8.818,0,0,1,.813,1.492c.1.215.227.431.36.66A4.283,4.283,0,0,1,98.707,65.608Zm-13.651,2.8.142-2.025c.009-.135.005-.286,0-.446a2.774,2.774,0,0,1,.255-1.491c.449-.9.967-1.774,1.468-2.616.542-.911,1.1-1.852,1.559-2.814l.167-.352.39-.013c.613-.02,1.185-.03,1.747-.03.933,0,1.8.027,2.646.084l.4.027.15.372a25.068,25.068,0,0,0,1.5,2.941,28.639,28.639,0,0,1,1.468,2.837l.147.344-.228.3c-.447.583-.922,1.23-1.45,1.977l-.471.665-.535-.615a6.42,6.42,0,0,1-.747-1.164,2.85,2.85,0,0,0-.982-1.263,12.043,12.043,0,0,0-1.4,1.8c-.154.226-.314.46-.477.689l-.516.723-.787-1.082c-.532-.731-1.08-1.483-1.6-2.252a3.6,3.6,0,0,0-1.1,1.184c-.15.214-.3.435-.473.643Zm3.417-4.869.232.354c.5.759,1.037,1.511,1.57,2.244A11.119,11.119,0,0,1,92.1,63.923l.225-.2.295.046a3.2,3.2,0,0,1,2.176,2c.042.078.084.154.126.229.245-.338.48-.655.707-.956-.371-.81-.82-1.6-1.255-2.372a29.759,29.759,0,0,1-1.416-2.717c-.694-.038-1.407-.057-2.168-.057-.429,0-.864.006-1.32.018-.444.887-.951,1.739-1.443,2.566-.286.48-.577.97-.855,1.465a2.57,2.57,0,0,1,.889-.336Zm15.977-5.271-.162-.4c-.317-.789-.562-1.6-.8-2.4a3.262,3.262,0,0,0-1.453.92,6.025,6.025,0,0,1-1.423,1.027l-.652.3-.226-.683q-.072-.218-.143-.437a17.328,17.328,0,0,0-.925-2.428.246.246,0,0,0-.052-.005c-.223,0-.568.286-.872.538a3.981,3.981,0,0,1-1.052.7l-.883.345.009-.948a3.972,3.972,0,0,1,1.585-2.814c.193-.187.376-.364.539-.544l.024-.025c.348-.345.689-.72,1.019-1.083a17.82,17.82,0,0,1,1.874-1.866l.182-.149.236,0a8.8,8.8,0,0,1,2.361.477,10.012,10.012,0,0,0,1.653.4l.439.053.106.429c.188.763.415,1.537.634,2.285A31.524,31.524,0,0,1,107.5,56.2l.061.415-.355.222a3.688,3.688,0,0,0-.547.472,2.607,2.607,0,0,1-1.777.956Zm-.739-4.1a2.735,2.735,0,0,1,.339.021l.415.052.215.727c.182.618.369,1.252.587,1.865a4.518,4.518,0,0,0,.5-.444c.131-.127.264-.256.406-.377a33.733,33.733,0,0,0-.931-3.684c-.184-.629-.374-1.275-.544-1.926a14.251,14.251,0,0,1-1.429-.376,8.942,8.942,0,0,0-1.785-.411A18.531,18.531,0,0,0,99.935,51.2c-.337.371-.686.755-1.053,1.12-.188.206-.389.4-.585.591l-.014.014a1.58,1.58,0,0,1,1.192.217l.147.091.081.152a15.325,15.325,0,0,1,.995,2.47c.163-.13.326-.274.493-.422A3.808,3.808,0,0,1,103.711,54.17ZM78.032,56.938l-.289-.384c-.181-.241-.351-.494-.515-.739a5.733,5.733,0,0,0-1.259-1.5,3.329,3.329,0,0,0-.511.647,3.223,3.223,0,0,1-1.279,1.263l-.875.409-.036-.965a6.455,6.455,0,0,1,1.116-3.42,13.191,13.191,0,0,0,.63-1.231l.015-.035.019-.033a9.4,9.4,0,0,0,.435-.909,5.38,5.38,0,0,1,1.29-2.035l.155-.136.206-.02c1-.1,1.985-.1,2.911-.1H81.54l.187.315c.5.837,1.016,1.682,1.519,2.5.594.966,1.209,1.965,1.793,2.964l.212.364-.25.339a4.046,4.046,0,0,0-.357.666,2.857,2.857,0,0,1-1.281,1.562l-.431.2-.316-.354c-.333-.373-.628-.77-.913-1.154-.254-.342-.5-.669-.758-.971a2.418,2.418,0,0,0-.833.978,3.454,3.454,0,0,1-1.632,1.616ZM76,52.861l.265.136A5.753,5.753,0,0,1,78.292,55.1l.135.2a4.548,4.548,0,0,0,.6-.827,2.778,2.778,0,0,1,2.092-1.648l.3-.023.209.218a13.877,13.877,0,0,1,1.1,1.359c.148.2.291.392.437.579a4.986,4.986,0,0,0,.314-.608c.08-.172.161-.347.254-.517-.518-.876-1.058-1.754-1.582-2.606-.443-.72-.9-1.461-1.342-2.2h-.767c-.825,0-1.7.006-2.568.078a5.069,5.069,0,0,0-.82,1.448,10.838,10.838,0,0,1-.479,1,14.705,14.705,0,0,1-.675,1.318q-.091.163-.179.324a2.137,2.137,0,0,1,.4-.22Z" transform="translate(-55.864 -35.895)"/>
        </g>
        <g id="_fbdfb4ff" data-name="#fbdfb4ff" transform="translate(2.148 6.34)">
          <path id="Path_107295" data-name="Path 107295" d="M62.326,49.952a35.435,35.435,0,0,0,3.946-.532c1.234,1.7,2.585,3.314,3.771,5.049.144.929-.632,1.722-.946,2.564-.85-.907-1.487-2.149-2.747-2.537-.6.964-1.1,1.979-1.687,2.947-1.282-.266-1.862-1.809-3.026-2.411-.571.837-1.1,1.7-1.657,2.546a2.418,2.418,0,0,1,0-1.74C60.817,53.9,61.432,51.87,62.326,49.952Z" transform="translate(-59.81 -49.42)" fill="#fbdfb4"/>
        </g>
        <g id="_fbdfb3ff" data-name="#fbdfb3ff" transform="translate(18.042 12.492)">
          <path id="Path_107296" data-name="Path 107296" d="M97.963,66.411c.528-.92.776-2.067,1.591-2.782,1.321-.126,2.651-.1,3.981-.1,1.086,1.831,2.237,3.623,3.309,5.459-.475.645-.628,1.674-1.391,2.027-.685-.767-1.216-1.666-1.927-2.407-1.478.113-1.574,2.2-2.912,2.7-.689-.916-1.225-2.058-2.285-2.6-.946.4-1.121,1.639-2.062,2.08C96.206,69.141,97.353,67.85,97.963,66.411Z" transform="translate(-96.265 -63.529)" fill="#fbdfb3"/>
        </g>
        <g id="_fcdfb4ff" data-name="#fcdfb4ff" transform="translate(29.97 13.072)">
          <path id="Path_107297" data-name="Path 107297" d="M152.8,64.86c1.334.026,2.612.711,3.95.872.532,2.158,1.325,4.251,1.652,6.457-.663.414-1.16,1.325-1.988,1.33-.366-.911-.632-1.857-.911-2.8-1.565-.2-2.35,1.417-3.623,2.01a19.679,19.679,0,0,0-1.208-3.152c-1.012-.623-1.8.78-2.677,1.125.013-1.317,1.164-2.058,1.958-2.934C150.921,66.813,151.75,65.723,152.8,64.86Z" transform="translate(-137.371 -64.86)" fill="#fcdfb4"/>
          <path id="Path_107299" data-name="Path 107299" d="M126.847,88.5c1.443-.048,2.886-.044,4.329.052.815,2.019,2.119,3.789,2.973,5.79-.5.654-.99,1.325-1.465,2-.78-.9-1.073-2.52-2.381-2.725a15.451,15.451,0,0,0-2.228,2.838c-.719-.99-1.447-1.975-2.119-3-1.16.209-1.661,1.356-2.333,2.184a3.778,3.778,0,0,1,.183-1.683C124.733,92.09,125.953,90.385,126.847,88.5Z" transform="translate(-123.621 -78.177)" fill="#fcdfb4"/>
        </g>
        <path id="Union_318" data-name="Union 318" d="M8.791,50.809c-1.738.02-3.484.033-5.215-.115a13.145,13.145,0,0,1,3.076-.352,37.079,37.079,0,0,1-1.266-7.533l-.553.174a50.8,50.8,0,0,0-1.309-8.951c-.457.029-1.365.088-1.816.123-.229.006-.68.027-.908.035l.672-.494a4.179,4.179,0,0,1,.615-.029c.537.008,1.086.016,1.416-.471a11.67,11.67,0,0,0,.08-2.055C2.961,23.887,1.523,16.734.723,9.5.535,7.191-.266,4.916.092,2.582H1.508A5.272,5.272,0,0,1,2.561,1.176a.4.4,0,0,1,.045-.035.4.4,0,0,0-.045.035C2.609.889,2.7.311,2.754.023,4.1-.213,4.52,1.4,5.543,1.906,6.516,2.113,6.637.867,7.117.279,7.668,2.555,7.854,4.9,8.2,7.213c1.109,8.719,2.5,17.4,3.59,26.117.416,5.832.494,11.682.83,17.512C11.344,50.785,10.064,50.8,8.791,50.809Zm1.4-.516q-1.263.059-2.533.061Q8.926,50.354,10.188,50.293ZM9.154,36.449c.6,4.607,1.439,9.178,1.877,13.8-.437-4.623-1.275-9.193-1.877-13.8ZM4.535,2.971c.771,5.658,1.629,11.309,2.332,16.98-.7-5.672-1.561-11.322-2.332-16.98a3.15,3.15,0,0,0-.07-.428A3.15,3.15,0,0,1,4.535,2.971Z" transform="translate(5.891 14.121)" fill="#caa0ff"/>
        <g id="_e95343ff" data-name="#e95343ff" transform="translate(2.788 14.605)">
          <path id="Path_107301" data-name="Path 107301" d="M62.6,68.409c.833-.249,1.343,1.029,1.94,1.478l-.065.589c-.358,2.333.445,4.608.628,6.919.8,7.233,2.241,14.388,2.864,21.643-.763-.061-1.526-.109-2.285-.148-.118.689-.231,1.382-.318,2.08a21.146,21.146,0,0,1-.628-4.02c-1.182-8.41-2.354-16.821-3.457-25.244A6.749,6.749,0,0,1,62.6,68.409Z" transform="translate(-61.279 -68.377)" fill="#caa0ff"/>
        </g>
        <path id="Union_321" data-name="Union 321" d="M1.035,20.705c-.242-3.99.129-7.994.045-11.984C1.1,7.721.4,6.934,0,6.076A20.024,20.024,0,0,0,1.887.342c.338.609.658,1.2.994,1.8C4.055,1.572,4.926.57,6.092,0c.2.592.408,1.172.6,1.766l-.113.2c.441,1.6,1.908.809,2.824.223-2.918,10.9-5.5,21.893-8.381,32.8C.672,30.236,1.021,25.461,1.035,20.705ZM4.92,7.105c.449-1.744.67-3.6,1.658-5.141C5.584,3.51,5.369,5.361,4.92,7.105Z" transform="translate(41.124 20.992)" fill="#49fdff"/>
        <g id="_7e68abff" data-name="#7e68abff" transform="translate(39.386 19.664)">
          <path id="Path_107305" data-name="Path 107305" d="M145.377,82.792c.528-1.312,1.835-2.075,2.973-2.812a15.013,15.013,0,0,1,.493,1.674,19.886,19.886,0,0,1-1.888,5.729C146.388,85.888,144.7,84.506,145.377,82.792Z" transform="translate(-145.219 -79.98)" fill="#49fdff"/>
        </g>
        <path id="Union_319" data-name="Union 319" d="M6.4,45.346c-.508-.027-1.008-.057-1.5-.041l-.027-.289h0c-.242-2.379-.156-4.77-.213-7.158-.037-2.066-.408-4.111-.424-6.187v-.477c-.893-.066-1.787-.123-2.674-.182-.043.258-.121.758-.158,1.016s-.092.773-.129,1.031C.908,23.2.449,13.326,0,3.455A7.382,7.382,0,0,1,1.844.352c.723.2.98,1.023,1.418,1.551-.295,3.127.234,6.254.113,9.387.121-3.133-.4-6.26-.113-9.379.428.357.863.715,1.3,1.072A20.663,20.663,0,0,0,6.744,0c.352.43.715.852,1.094,1.26l-.006.072c.129.279.4.836.527,1.107,1.1.3,1.7-.449,2.154-1.33a52.394,52.394,0,0,1,.443,5.779c.1,1.268-1.166,2.182-.951,3.477C10.033,21.93,9.77,33.5,9.885,45.055a6.332,6.332,0,0,1-2.219.334C7.244,45.389,6.822,45.369,6.4,45.346Zm2.539-11.83a94.455,94.455,0,0,1-.395-9.637A94.455,94.455,0,0,0,8.939,33.516ZM8.555,21.18ZM9.383,17.9c0-2.367-.029-4.736-.029-7.1C9.354,13.16,9.383,15.529,9.383,17.9Zm-.029-7.281a8.11,8.11,0,0,1,.58-2.625A8.065,8.065,0,0,0,9.354,10.615ZM7.939,9.09c.016.129.031.254.045.379-.014-.125-.029-.25-.045-.379-.125-1.611-.221-3.23-.223-4.848C7.719,5.863,7.813,7.48,7.939,9.09ZM10.3,5.7c0-.885-.1-1.779-.121-2.652q-.782.1-1.566.193.785-.094,1.566-.193C10.205,3.92,10.3,4.814,10.3,5.7Z" transform="translate(18.233 19.739)" fill="#34ff97"/>
        <g id="_fbdfb5ff" data-name="#fbdfb5ff" transform="translate(55.348 20.183)">
          <path id="Path_107308" data-name="Path 107308" d="M182.576,84.933c1.644-1.286,3.357-2.481,5.01-3.763,1.208.562,2.42,1.12,3.667,1.6a56.329,56.329,0,0,1,.6,6.636c-.693.445-1.382.885-2.08,1.317-.2-1.168-.436-2.333-.75-3.475-1.334.235-2.415,1.112-3.675,1.57a14.237,14.237,0,0,0-.759-3.518c-1.038-.222-1.857.676-2.755,1.038C182.035,85.853,182.079,85.233,182.576,84.933Z" transform="translate(-181.83 -81.17)" fill="#fbdfb5"/>
        </g>
        <g id="_59c6f1ff" data-name="#59c6f1ff" transform="translate(44.309 26.248)">
          <path id="Path_107312" data-name="Path 107312" d="M166.268,96.75c.959-.545,1.914-1.1,2.86-1.67l.419,1.465c-.48,2.485-2.136,4.552-3.082,6.88-2.546,6.479-5.677,12.709-8.384,19.118a16.662,16.662,0,0,1-1.33,2.873c-.074-.732-.153-1.461-.24-2.184.078-2.171,1.051-4.207,1.43-6.339.706-3.976,2.777-7.495,4.321-11.179C163.595,102.727,164.907,99.728,166.268,96.75Z" transform="translate(-156.51 -95.08)" fill="#ffec00"/>
        </g>
        <path id="Union_322" data-name="Union 322" d="M3.121,37.754c-.98-.016-1.967-.035-2.947.008A7.12,7.12,0,0,1,.41,34.02a65.27,65.27,0,0,1,2.01-7.15c.086.723.164,1.453.236,2.182a16.184,16.184,0,0,0,1.33-2.873C6.7,19.77,9.828,13.541,12.373,7.063c.943-2.33,2.6-4.4,3.082-6.877L15.477,0a2.82,2.82,0,0,0,.994,2.508c1.08-.586,2.08-1.473,3.367-1.508a6.954,6.954,0,0,1-.092,1.723c-1.781,3.26-3.217,6.686-4.7,10.1-1.924,4.377-4,8.7-5.793,13.137-1.844,3.859-3.611,7.766-5.213,11.732,1.6-3.967,3.369-7.873,5.213-11.732,1.789-4.441,3.869-8.76,5.793-13.137,1.48-3.4,2.916-6.836,4.7-10.1q.319.782.629,1.572a11.9,11.9,0,0,0,2.209-.8c-5.211,11.342-10.16,22.8-15.295,34.18-.832.076-1.664.1-2.5.1C4.234,37.775,3.678,37.764,3.121,37.754Z" transform="translate(41.891 27.53)" fill="#ffec00"/>
        <g id="_fdd436ff" data-name="#fdd436ff" transform="translate(29.829 30.56)">
          <path id="Path_107318" data-name="Path 107318" d="M123.439,107.551a22.2,22.2,0,0,1,2.062-2.581c.314.453.632.907.95,1.356l-.017.344c-.288,9.705-.153,19.424-.3,29.138-.924-.092-1.949-.405-2.773.2l-.048.375C123.256,126.77,123.4,117.16,123.439,107.551Z" transform="translate(-123.299 -104.97)" fill="#ff6090"/>
        </g>
        <path id="Union_320" data-name="Union 320" d="M0,34.176c.037-1.137.066-2.268.086-3.4.15-9.715.014-19.432.3-29.139C.9,2.053,1.268,2.768,2,2.787,2.9,1.961,3.49.865,4.348,0A6.29,6.29,0,0,1,5.24,1.8c-.146,1.742-.332,3.479-.324,5.232-.008-1.754.178-3.49.324-5.232A1.787,1.787,0,0,0,7.3,2.7c.156,10.473.086,20.949.021,31.424-.814.014-1.631.035-2.439.057q-1.181.041-2.361.041C1.68,34.217.84,34.2,0,34.176Zm4.883,0c-.053-2.512-.072-5.023-.072-7.533C4.811,29.152,4.83,31.666,4.883,34.176ZM4.922,8.223Z" transform="translate(32.577 30.62)" fill="#ff6090"/>
        <g id="_f5df7dff" data-name="#f5df7dff" transform="translate(29.808 32.173)">
          <path id="Path_107321" data-name="Path 107321" d="M133.322,109.812a1.25,1.25,0,0,1,.541-1.142c.026,11.009-.087,22.018-.122,33.027-3.5.044-6.993-.122-10.49-.057.031-.344.083-1.029.113-1.373.436.061,1.3.187,1.74.253q.36-.981.68-1.975c-.815-.161-1.635-.31-2.45-.453.824-.6,1.849-.288,2.773-.2-.022,1.134-.052,2.263-.087,3.4,1.626.052,3.257.057,4.883,0,.811-.022,1.622-.044,2.437-.061C133.4,130.762,133.474,120.285,133.322,109.812Z" transform="translate(-123.25 -108.67)" fill="#ff6090"/>
        </g>
        <g id="_f7fdf2ff" data-name="#f7fdf2ff" transform="translate(6.792 45.117)">
          <path id="Path_107323" data-name="Path 107323" d="M70.861,138.36c.759.039,1.522.087,2.285.148a11.5,11.5,0,0,1-.083,2.049c-.458.68-1.343.4-2.027.506l-.576,0,.083-.628C70.63,139.742,70.743,139.049,70.861,138.36Z" transform="translate(-70.46 -138.36)" fill="#f7fdf2"/>
        </g>
        <g id="_fefaf7ff" data-name="#fefaf7ff" transform="translate(7.553 48.152)">
          <path id="Path_107324" data-name="Path 107324" d="M72.251,145.442l1.822-.122a51.6,51.6,0,0,1,1.308,8.951c-.384.118-1.151.358-1.535.475-.344-.4-.685-.807-1.012-1.221a10.611,10.611,0,0,0-.358-3.056A25.531,25.531,0,0,1,72.251,145.442Z" transform="translate(-72.206 -145.32)" fill="#fefaf7"/>
        </g>
        <g id="_dde9aeff" data-name="#dde9aeff" transform="translate(19.405 50.759)">
          <path id="Path_107325" data-name="Path 107325" d="M99.778,151.3c.889.057,1.783.113,2.673.174v.48a5.314,5.314,0,0,1-.75,2.415c.044.131.131.388.17.519-.366.035-1.1.1-1.469.126-.1,2,.017,4.007-.1,6.008l-.344.562c-.192-2.367-.174-4.739-.2-7.111l.824-.035-1.2-.139.645-.619c.571-.022,1.147-.035,1.722-.039.1-.336.283-1,.379-1.33a1.915,1.915,0,0,0-2.516,0Z" transform="translate(-99.39 -151.3)" fill="#dde9ae"/>
        </g>
        <g id="_fdfcf6ff" data-name="#fdfcf6ff" transform="translate(19.47 51.296)">
          <path id="Path_107326" data-name="Path 107326" d="M99.706,153.006a1.915,1.915,0,0,1,2.516,0c-.1.331-.283.994-.379,1.33-.576,0-1.151.017-1.722.039l-.58.009.039-.344C99.61,153.782,99.675,153.264,99.706,153.006Z" transform="translate(-99.54 -152.532)" fill="#fdfcf6"/>
        </g>
        <g id="_adc84bff" data-name="#adc84bff" transform="translate(19.867 51.413)">
          <path id="Path_107327" data-name="Path 107327" d="M103.048,152.8c.013,2.071.388,4.116.427,6.187.052,2.385-.031,4.774.209,7.155l.035.288c-1.059.022-2.119-.017-3.178-.07a24.1,24.1,0,0,1,.017-3.928l.344-.562c0,.855.017,1.7.022,2.559.7-.074,2.128.532,2.1-.628a48.028,48.028,0,0,0-.554-8.066c-.039-.131-.126-.388-.17-.519A5.314,5.314,0,0,0,103.048,152.8Z" transform="translate(-100.449 -152.8)" fill="#adc84b"/>
        </g>
        <g id="_fbfef9ff" data-name="#fbfef9ff" transform="translate(20.32 54.347)">
          <path id="Path_107328" data-name="Path 107328" d="M101.586,159.656c.371-.031,1.1-.092,1.469-.126a48.029,48.029,0,0,1,.554,8.066c.031,1.16-1.4.554-2.1.628,0-.855-.022-1.7-.022-2.559C101.6,163.663,101.486,161.658,101.586,159.656Z" transform="translate(-101.49 -159.53)" fill="#fbfef9"/>
        </g>
        <g id="_ea5342ff" data-name="#ea5342ff" transform="translate(8.461 56.933)">
          <path id="Path_107329" data-name="Path 107329" d="M76.557,165.63c.14-.044.41-.126.545-.17a37.3,37.3,0,0,0,1.273,7.53,13.049,13.049,0,0,0-3.078.353l-.3.061c-.087-2.49-.8-4.922-.7-7.421l.724.122C75.406,165.988,76.173,165.748,76.557,165.63Z" transform="translate(-74.29 -165.46)" fill="#ea5342"/>
        </g>
        <g id="_fafcf7ff" data-name="#fafcf7ff" transform="translate(29.802 61.594)">
          <path id="Path_107332" data-name="Path 107332" d="M123.277,176.525l.048-.375c.815.144,1.635.292,2.45.453q-.32.994-.68,1.975c-.436-.065-1.3-.192-1.74-.253-.031.344-.083,1.029-.113,1.373C123.256,178.64,123.2,177.58,123.277,176.525Z" transform="translate(-123.237 -176.15)" fill="#fafcf7"/>
        </g>
      </g>
      <path id="Path_107333" data-name="Path 107333" d="M5.871-13.115a115.631,115.631,0,0,0,29.61,3.9,203.939,203.939,0,0,0,33.572-3.313l-9.33,43.9A134.2,134.2,0,0,1,35.482,33.95a132.635,132.635,0,0,1-24.154-2.573A178.539,178.539,0,0,1,6.895,9.926,136.033,136.033,0,0,1,5.871-13.115Z" transform="translate(-2.375 53.259)" fill="#ffec00"/>
      <path id="Path_107343" data-name="Path 107343" d="M9.336-15.717s8.749,4.239,25.207,4.239,24.889-3.557,24.889-3.557L57.811-5.558A48.768,48.768,0,0,1,38.1-1.653c-11.735,0-27.224-3.905-27.224-3.905s.866-1.13-.769-3.84S9.336-15.717,9.336-15.717Z" transform="translate(-1.437 91.189)" fill="#34ff97"/>
      <path id="Path_107333_-_Outline-2" data-name="Path 107333 - Outline" d="M7.932-11.723c.261,4.811,1.149,14.832,2.219,22.442,1.218,8.661,1.814,18.244,2.645,21.422,3.6.669,13.775,3.315,22.955,3.315,9.106,0,18.543.278,21.422-3.315S66.306-8.931,66.306-8.931A206.449,206.449,0,0,1,35.751-6.315c-11.85,0-22.388-3.6-27.819-5.408M4.945-13.346c.57-3.178,14.347,4.414,30.805,4.414a203.939,203.939,0,0,0,33.572-3.313L59.992,35.5a134.2,134.2,0,0,1-24.241,2.573A132.635,132.635,0,0,1,11.6,35.5S8.8,21.838,7.164,10.208,4.375-10.168,4.945-13.346Z" transform="translate(-2.644 52.976)"/>
      <path id="Union_314" data-name="Union 314" d="M10.079,4.513A40.042,40.042,0,0,1,1.02,3.487c-.81-.207-.662-1.448.2-1.314C4.232,2.644,7.185,3.2,10.23,3.5c.67.066.486,1.011-.14,1.011ZM.549,1.377c-.838-.222-.674-1.55.2-1.358A29.973,29.973,0,0,0,7,.811c.723,0,.9,1.108.139,1.15Q6.426,2,5.708,2A20.177,20.177,0,0,1,.549,1.377Z" transform="translate(8.337 45.052) rotate(11)" stroke="rgba(0,0,0,0)" stroke-miterlimit="10" stroke-width="1"/>
      <path id="Union_315" data-name="Union 315" d="M10.079,0A40.01,40.01,0,0,0,1.02,1.026c-.811.207-.662,1.448.2,1.314,3.014-.472,5.967-1.029,9.012-1.329C10.9.945,10.716,0,10.091,0ZM.549,3.136c-.838.222-.674,1.551.2,1.357A29.927,29.927,0,0,1,7,3.7c.723-.005.9-1.109.139-1.15q-.712-.038-1.431-.039A20.2,20.2,0,0,0,.549,3.136Z" transform="translate(56.608 71.409) rotate(177)" stroke="rgba(0,0,0,0)" stroke-miterlimit="10" stroke-width="1"/>
      <path id="Union_316" data-name="Union 316" d="M1,11.993a4.207,4.207,0,0,1-.684-.755A1.3,1.3,0,0,1,.314,9.534a1.234,1.234,0,0,1,1.751-.026c.306.214.565.5.863.72,2.093,1.585,4.35,2.252,6.85,1.1a9.264,9.264,0,0,0,3.543-2.536,3.436,3.436,0,0,1,.582-.568.993.993,0,0,1,1.234-.032,1.054,1.054,0,0,1,.474,1.165,2.251,2.251,0,0,1-.388.942c-.7.83-1.442,1.613-2.171,2.415l-.118-.1-1.165.635A9.5,9.5,0,0,1,7.2,14.454,9.244,9.244,0,0,1,1,11.993ZM.66,3.079A2.143,2.143,0,0,1,1.182.246,1.608,1.608,0,0,1,3.415.81a2.059,2.059,0,0,1-.388,2.828,1.545,1.545,0,0,1-.878.269A1.8,1.8,0,0,1,.66,3.079Zm12.118-.089A1.783,1.783,0,0,1,13.285.554a1.6,1.6,0,0,1,2.245.575,1.718,1.718,0,0,1-.482,2.418,1.515,1.515,0,0,1-.815.23A1.757,1.757,0,0,1,12.778,2.991Z" transform="translate(25.633 55.079) rotate(-2)" stroke="rgba(0,0,0,0)" stroke-miterlimit="10" stroke-width="1"/>
      <g id="Mask_Group_52" data-name="Mask Group 52" transform="translate(4.892 64.722) rotate(-1)" clip-path="url(#clip-path-2)">
        <path id="Path_107333_-_Outline-3" data-name="Path 107333 - Outline" d="M2.511,2.4c.209,4.81.921,14.831,1.778,22.441.975,8.661,1.453,14.4,2.119,17.581,2.88.669,11.035,3.315,18.389,3.315,7.295,0,14.855.278,17.161-3.315S49.275,5.192,49.275,5.192A133.473,133.473,0,0,1,24.8,7.807C15.3,7.807,6.862,4.211,2.511,2.4M.118.777C.575-2.4,11.611,5.191,24.8,5.191A132.3,132.3,0,0,0,51.691,1.878l-7.475,43.9A87.21,87.21,0,0,1,24.8,48.353a86.2,86.2,0,0,1-19.35-2.572S3.205,35.96,1.9,24.33-.338,3.955.118.777Z" transform="translate(1.267 9.26)"/>
      </g>
    </g>
  </g>
</svg>
