<svg xmlns="http://www.w3.org/2000/svg" width="123" height="103" viewBox="0 0 123 103">
  <g id="slide-ico-6" transform="translate(-1117 -498.166)">
    <rect id="Rectangle_5578" data-name="Rectangle 5578" width="123" height="103" transform="translate(1117 498.167)" fill="none"/>
    <g id="Group_66232" data-name="Group 66232" transform="translate(-324.758 -225.113)">
      <path id="Path_107441" data-name="Path 107441" d="M206.246,290.011l11.535,26.182-30.945,1.466,7.324-28.746Z" transform="translate(1301.375 472.086)" fill="#08de6f"/>
      <ellipse id="Ellipse_609" data-name="Ellipse 609" cx="18.31" cy="16.021" rx="18.31" ry="16.021" transform="translate(1485.053 731.199)" fill="#ffec00"/>
      <g id="Group_66232-2" data-name="Group 66232" transform="translate(1472.033 730.938)">
        <path id="Path_99947" data-name="Path 99947" d="M189.283,64.978c-.488,0-.975-.02-1.463-.035-1.02-.032-2.039-.115-3.053-.238a23.956,23.956,0,0,1-2.818-.525c-.518-.127-1.034-.255-1.548-.4s-1.018-.3-1.526-.461c-.455-.146-.9-.334-1.342-.506A11.675,11.675,0,0,1,175.893,62a9.361,9.361,0,0,1-1.624-1.205,11.787,11.787,0,0,1-2.355-3.158,14.8,14.8,0,0,1-.791-1.819,10.954,10.954,0,0,1-.54-2.042c-.06-.367-.084-.739-.114-1.109-.018-.244-.041-.487-.05-.733-.01-.307-.021-.614-.031-.921a11.79,11.79,0,0,1,.05-1.432,13.15,13.15,0,0,1,.18-1.316c.051-.266.09-.537.158-.8q.111-.433.22-.865a12.215,12.215,0,0,1,.577-1.674,26.241,26.241,0,0,1,1.479-2.884c.218-.383.451-.763.69-1.134.276-.428.544-.861.839-1.275.461-.643.915-1.285,1.423-1.893a10.539,10.539,0,0,1,2.848-2.432c.3-.17.609-.315.918-.465.211-.1.421-.2.638-.294l.718-.3c.254-.108.53-.181.792-.27.57-.194,1.164-.328,1.751-.464.266-.063.53-.111.8-.156s.554-.1.833-.131l1.038-.1c.116-.012.237-.008.353-.012l.609-.016a7.448,7.448,0,0,1,.785.035c.326.024.651.052.975.1a.916.916,0,0,1,.578.344c.22.039.44.081.659.128.468.1.927.23,1.387.363l2.746.8a23.138,23.138,0,0,1,2.7.928,20.578,20.578,0,0,1,2.585,1.371c.805.492,1.6,1,2.357,1.562.773.574,1.529,1.179,2.244,1.826.383.346.755.7,1.1,1.076.169.182.323.378.481.568a6,6,0,0,1,.393.523,12.569,12.569,0,0,1,.808,1.366c.118.24.225.48.328.727s.18.48.263.722c.076.22.125.451.185.675.031.117.045.241.067.36s.05.246.064.37a12.69,12.69,0,0,1,.1,1.519,20.7,20.7,0,0,1-.249,2.98,19.466,19.466,0,0,1-.626,2.795c-.092.3-.181.6-.287.894a12.584,12.584,0,0,1-.848,1.857,11.326,11.326,0,0,1-1.813,2.349,24.157,24.157,0,0,1-2.5,2.243,13.416,13.416,0,0,1-1.591,1.061,13.037,13.037,0,0,1-1.833.836c-.288.11-.581.2-.875.3-.237.078-.474.165-.714.233-.462.132-.92.275-1.389.38l-.858.194c-.252.057-.515.084-.771.123a23.213,23.213,0,0,1-2.86.249c-.457.012-.913.023-1.369.023Zm-5.176-2.209c.535.092,1.073.156,1.612.221.883.067,1.764.123,2.649.15.48.015.959.02,1.439.024.385,0,.771-.015,1.155-.026.509-.031,1.017-.061,1.525-.11.252-.025.5-.042.753-.081l.853-.131,1.1-.251c.183-.041.364-.1.545-.154l.576-.164c.748-.25,1.494-.495,2.215-.814a12.03,12.03,0,0,0,1.159-.616,16.381,16.381,0,0,0,1.376-1c.38-.323.758-.646,1.122-.986.171-.159.349-.315.511-.484.2-.208.4-.418.606-.627.281-.318.547-.645.8-.989a10.812,10.812,0,0,0,.617-1.038,11.913,11.913,0,0,0,.517-1.2,22.764,22.764,0,0,0,.635-2.318c.064-.337.13-.672.18-1.011.055-.367.1-.733.142-1.1.025-.288.05-.575.064-.863.017-.344.022-.684.024-1.028-.008-.17-.018-.339-.027-.509-.009-.189-.042-.378-.065-.567-.029-.156-.059-.311-.088-.466s-.083-.323-.128-.483-.114-.332-.171-.5-.132-.322-.2-.48l-.24-.488c-.079-.161-.179-.316-.27-.474-.149-.226-.3-.45-.461-.667-.146-.2-.3-.384-.456-.573-.249-.267-.5-.524-.764-.779-.512-.459-1.037-.9-1.57-1.338-.515-.419-1.051-.807-1.595-1.189-.922-.61-1.861-1.2-2.835-1.723-.334-.167-.669-.328-1.012-.475s-.7-.279-1.054-.407l.029.01c-.892-.294-1.794-.552-2.7-.814-.882-.257-1.761-.533-2.654-.748-.477-.1-.958-.184-1.442-.245a.852.852,0,0,1-.554-.311c-.239-.015-.476-.026-.715-.036-.26-.011-.524.009-.785.019l-1.118.111c-.168.017-.337.054-.5.081l-.492.08-1.012.236c-.284.066-.563.156-.843.237l-.421.143c-.127.043-.26.079-.384.132l-.853.36c-.483.234-.967.462-1.429.736a9.807,9.807,0,0,0-.85.619,12.189,12.189,0,0,0-.917.882,25.537,25.537,0,0,0-1.784,2.326c-.4.626-.8,1.25-1.186,1.888-.353.583-.674,1.18-.986,1.785-.263.551-.526,1.1-.737,1.67-.194.574-.344,1.155-.493,1.743l-.127.661c-.072.381-.121.764-.157,1.148a13.123,13.123,0,0,0-.034,1.358c.009.273.019.545.028.816.044.583.082,1.166.172,1.744.059.307.13.608.217.908a16.743,16.743,0,0,0,.629,1.649,13.514,13.514,0,0,0,.694,1.287,13.187,13.187,0,0,0,.823,1.155,9.765,9.765,0,0,0,.754.8,9.948,9.948,0,0,0,.822.651c.321.214.65.408.99.589.639.318,1.3.569,1.964.826.533.171,1.064.338,1.6.486.557.151,1.115.288,1.675.425h0C183.086,62.574,183.594,62.681,184.107,62.769Z" transform="translate(-157.776 -33.095)"/>
        <path id="Path_99947_-_Outline" data-name="Path 99947 - Outline" d="M189.515,65.23l-.232,0c-.453,0-.909-.018-1.35-.031l-.12,0c-.984-.031-2.019-.112-3.075-.239a24.014,24.014,0,0,1-2.847-.531c-.5-.122-1.029-.254-1.554-.4s-1.048-.308-1.536-.464c-.334-.107-.662-.237-.979-.363-.125-.05-.251-.1-.377-.148a11.761,11.761,0,0,1-1.677-.833,9.6,9.6,0,0,1-1.668-1.237,12.029,12.029,0,0,1-2.406-3.224,14.921,14.921,0,0,1-.8-1.85,11.139,11.139,0,0,1-.552-2.088c-.052-.321-.078-.645-.1-.959l-.014-.17c0-.056-.008-.11-.013-.164-.015-.189-.03-.384-.038-.579-.005-.153-.01-.306-.016-.458s-.011-.31-.016-.465a12.005,12.005,0,0,1,.051-1.462,13.3,13.3,0,0,1,.183-1.34c.014-.074.027-.149.041-.224.034-.194.07-.394.121-.592q.11-.431.22-.864a12.386,12.386,0,0,1,.589-1.71,26.612,26.612,0,0,1,1.492-2.911c.211-.37.445-.755.7-1.146l.2-.308c.206-.323.42-.657.648-.977l.1-.134c.423-.591.86-1.2,1.338-1.775a10.757,10.757,0,0,1,2.916-2.489c.259-.147.528-.277.788-.4l.144-.07c.205-.1.424-.2.65-.3l.359-.151.359-.151c.18-.076.368-.136.55-.193.087-.027.173-.054.258-.083A17.207,17.207,0,0,1,183.5,33.3l.107-.025c.241-.057.5-.107.816-.159l.261-.045c.19-.033.387-.068.586-.088l1.039-.1c.128-.013.251-.009.37-.013l.611-.016.111,0c.224,0,.446.017.661.034l.038,0c.3.022.646.05.995.106a1.16,1.16,0,0,1,.67.36c.2.036.4.075.579.114.471.1.933.231,1.4.367l1.467.426,1.279.372a23.5,23.5,0,0,1,2.724.938,20.707,20.707,0,0,1,2.617,1.387c.67.409,1.545.958,2.376,1.574.851.632,1.591,1.235,2.262,1.842.451.406.807.753,1.12,1.092.129.14.249.286.366.427l.124.15a6.232,6.232,0,0,1,.409.546,12.887,12.887,0,0,1,.824,1.393c.11.223.219.466.334.741.09.215.165.434.237.647l.031.091c.057.165.1.334.141.5.016.065.032.13.05.194a2.619,2.619,0,0,1,.052.266c.006.038.012.076.019.113l.01.05c.021.109.044.222.057.339a12.782,12.782,0,0,1,.1,1.548,20.824,20.824,0,0,1-.252,3.016,19.729,19.729,0,0,1-.634,2.831l-.046.15c-.076.248-.154.5-.244.755a12.756,12.756,0,0,1-.864,1.893,11.472,11.472,0,0,1-1.852,2.4,24.5,24.5,0,0,1-2.527,2.266,13.733,13.733,0,0,1-1.621,1.081,13.406,13.406,0,0,1-1.868.852c-.244.093-.494.176-.735.256l-.15.05-.209.071c-.168.057-.341.116-.516.166l-.31.09c-.355.1-.722.21-1.093.293l-.858.194c-.186.042-.375.068-.558.094l-.23.033a23.523,23.523,0,0,1-2.891.252C190.426,65.219,189.971,65.23,189.515,65.23Zm-2.109-31.884h-.1l-.609.016-.117,0c-.077,0-.15,0-.217.009l-1.04.1c-.181.018-.36.05-.55.083l-.268.046c-.3.05-.552.1-.782.152l-.108.025c-.539.125-1.1.254-1.619.433-.089.03-.179.059-.27.087-.178.056-.347.109-.506.176l-.359.151-.36.151c-.214.09-.426.192-.625.288l-.145.07c-.253.122-.514.249-.759.388A10.259,10.259,0,0,0,176.2,37.9c-.467.559-.9,1.162-1.316,1.745l-.1.134c-.221.309-.431.638-.634.956l-.2.31c-.247.383-.477.76-.683,1.122a26.2,26.2,0,0,0-1.465,2.856,11.891,11.891,0,0,0-.565,1.64q-.109.431-.22.865c-.047.18-.079.362-.113.555-.014.077-.027.154-.042.23a12.812,12.812,0,0,0-.176,1.291,11.517,11.517,0,0,0-.049,1.4q.008.232.016.464t.016.457c.007.184.022.374.036.558q.006.082.013.164l.014.17c.024.3.049.618.1.918a10.647,10.647,0,0,0,.528,2,14.447,14.447,0,0,0,.777,1.788,11.534,11.534,0,0,0,2.3,3.091,9.1,9.1,0,0,0,1.581,1.173,11.28,11.28,0,0,0,1.605.8c.127.049.254.1.381.15.309.123.629.25.947.351.482.154,1,.316,1.515.458s1.047.272,1.542.394a23.522,23.522,0,0,0,2.788.52c1.042.126,2.062.205,3.031.236l.12,0c.439.013.892.027,1.338.031l.229,0c.45,0,.9-.011,1.363-.023a23.024,23.024,0,0,0,2.829-.246l.237-.034c.18-.025.351-.049.517-.086l.857-.194c.357-.08.716-.185,1.064-.286l.313-.091c.163-.046.33-.1.492-.158l.212-.072.15-.05c.236-.079.481-.16.715-.249a12.94,12.94,0,0,0,1.8-.819,13.229,13.229,0,0,0,1.562-1.041,24,24,0,0,0,2.475-2.219,10.994,10.994,0,0,0,1.774-2.3,12.263,12.263,0,0,0,.831-1.82c.086-.239.163-.49.237-.732l.046-.151A19.227,19.227,0,0,0,207.6,51.4a20.328,20.328,0,0,0,.246-2.944,12.3,12.3,0,0,0-.094-1.489c-.011-.1-.03-.2-.05-.3l-.01-.053c-.008-.043-.015-.085-.021-.127-.012-.077-.024-.15-.042-.216s-.035-.134-.052-.2c-.04-.16-.078-.311-.128-.456l-.032-.093c-.073-.214-.142-.416-.225-.615-.111-.266-.216-.5-.322-.713a12.437,12.437,0,0,0-.792-1.338,5.727,5.727,0,0,0-.376-.5l-.126-.153c-.112-.136-.227-.276-.346-.405-.3-.327-.649-.664-1.089-1.06-.659-.6-1.387-1.189-2.225-1.811-.815-.6-1.678-1.146-2.338-1.549a20.228,20.228,0,0,0-2.554-1.355,23.04,23.04,0,0,0-2.666-.917l-1.28-.372-1.466-.426c-.462-.133-.914-.261-1.37-.359-.2-.044-.423-.086-.65-.126l-.095-.017-.059-.076a.664.664,0,0,0-.42-.25c-.329-.052-.665-.079-.954-.1l-.039,0C187.823,33.362,187.61,33.345,187.406,33.345Zm2.5,30.07h-.1c-.458,0-.95-.009-1.444-.024-.78-.024-1.6-.07-2.66-.151h-.011l-.092-.011c-.5-.061-1.022-.124-1.533-.212-.535-.092-1.057-.2-1.541-.309l0-.031-.007.029c-.566-.138-1.12-.274-1.682-.426-.517-.141-1.02-.3-1.615-.489l-.013,0-.073-.028c-.633-.244-1.287-.5-1.913-.807l-.006,0a11.693,11.693,0,0,1-1.011-.6l-.006,0a10.265,10.265,0,0,1-.842-.668l-.006-.005a9.962,9.962,0,0,1-.773-.817l0-.006a13.375,13.375,0,0,1-.838-1.177,13.867,13.867,0,0,1-.709-1.315l0-.006a17.06,17.06,0,0,1-.639-1.674l0-.007c-.087-.3-.159-.605-.222-.931v-.009c-.082-.525-.122-1.058-.16-1.574l-.015-.2q-.008-.27-.018-.54l-.01-.275a13.375,13.375,0,0,1,.035-1.384v-.006c.04-.433.093-.816.16-1.171l.13-.676c.138-.544.295-1.16.5-1.762l0-.006c.209-.57.472-1.118.725-1.648l.024-.051c.258-.5.6-1.155.994-1.8.4-.661.806-1.3,1.189-1.894l.006-.009.061-.086a24.917,24.917,0,0,1,1.741-2.262l0,0a12.5,12.5,0,0,1,.936-.9l.006,0a10.124,10.124,0,0,1,.871-.635l.008-.005c.419-.249.86-.462,1.286-.668l.173-.083.854-.361c.095-.04.19-.07.281-.1l.119-.039.109-.037.313-.106.01,0,.216-.064c.207-.062.422-.126.639-.176l1.011-.236.017,0,.162-.026.328-.054.166-.029c.115-.021.234-.042.355-.054l.559-.056.559-.056h.015l.188-.008c.146-.007.3-.014.447-.014.06,0,.116,0,.17,0,.212.009.463.02.72.036l.109.007.069.084a.6.6,0,0,0,.391.222c.476.06.968.143,1.463.249l.007,0c.693.167,1.385.373,2.054.571l.61.18.249.072c.8.231,1.623.47,2.428.735h0l.029.01h0c.334.121.689.251,1.042.4.305.131.621.28,1.025.481l.007,0c.863.466,1.77,1.017,2.854,1.734l.006,0c.486.341,1.058.751,1.609,1.2.575.469,1.092.909,1.579,1.346l.007.007c.27.261.522.519.773.788l.01.011c.16.194.315.384.464.583.164.22.315.446.469.679l.008.013.08.134c.068.113.138.231.2.354l.24.489,0,.01.049.111c.056.125.113.254.159.389l.1.294.074.218.032.11a4.053,4.053,0,0,1,.1.4c.024.129.048.257.072.386l.018.1c.007.058.015.116.023.174.018.132.037.269.043.409v.01c.009.166.018.333.026.5v.014c0,.282-.006.655-.024,1.039-.015.289-.04.579-.064.859l0,.022c-.042.36-.086.733-.143,1.11-.046.316-.107.632-.166.938l-.018.091a23.063,23.063,0,0,1-.642,2.344l0,0a12.075,12.075,0,0,1-.528,1.227l0,0a11,11,0,0,1-.632,1.062l0,.006c-.24.333-.505.662-.811,1.008l-.008.008-.242.25-.365.377c-.125.13-.258.252-.387.37l-.133.122c-.366.342-.752.671-1.125.989l-.011.009a16.572,16.572,0,0,1-1.4,1.013l-.005,0a12.23,12.23,0,0,1-1.183.629l0,0c-.7.31-1.432.554-2.14.79l-.107.036-.265.076-.31.088-.187.055c-.12.036-.244.074-.372.1l-.551.125-.553.125-.017,0-.732.112-.122.019c-.193.03-.387.048-.574.065l-.192.018c-.468.045-.943.074-1.4.1l-.141.009-.286.009C190.431,63.406,190.169,63.415,189.91,63.415Zm-4.166-.673c1.049.08,1.861.126,2.632.149.49.015.979.02,1.434.024h.1c.251,0,.509-.009.758-.017l.284-.009.129-.008c.454-.028.924-.057,1.383-.1l.195-.018c.188-.017.366-.033.544-.061l.123-.019.722-.111.545-.124.55-.125c.111-.025.222-.058.339-.094l.195-.057.31-.088.259-.074.092-.031c.7-.232,1.415-.472,2.093-.772a11.739,11.739,0,0,0,1.13-.6,16.081,16.081,0,0,0,1.349-.979l0,0c.369-.314.75-.639,1.109-.974l.136-.125c.123-.113.251-.23.366-.349l.365-.377.238-.247c.292-.33.545-.645.774-.962a10.513,10.513,0,0,0,.6-1.009,11.582,11.582,0,0,0,.5-1.171,22.614,22.614,0,0,0,.626-2.286l.015-.078c.058-.3.117-.612.162-.918.056-.369.1-.736.141-1.091v-.01c.024-.276.048-.561.063-.841.018-.371.022-.734.024-1.01-.008-.163-.017-.326-.026-.489v-.011c-.006-.12-.022-.24-.039-.368-.008-.058-.016-.116-.023-.174l-.014-.071c-.024-.129-.049-.258-.073-.388-.021-.111-.054-.225-.09-.345l-.031-.108-.068-.2-.1-.3c-.038-.113-.089-.226-.143-.346l-.049-.11-.237-.483c-.052-.105-.113-.209-.179-.318l-.079-.134c-.154-.232-.294-.442-.449-.649-.14-.188-.29-.371-.444-.558-.242-.26-.486-.508-.746-.76-.48-.43-.99-.864-1.558-1.327-.538-.438-1.1-.84-1.578-1.176-1.069-.707-1.962-1.25-2.81-1.708-.393-.2-.7-.341-.995-.468-.344-.148-.694-.277-1.024-.4-.8-.263-1.622-.5-2.418-.732l-.249-.072L192,36.313c-.662-.2-1.347-.4-2.026-.564-.481-.1-.958-.183-1.418-.241a1.092,1.092,0,0,1-.639-.316c-.217-.013-.428-.022-.609-.03-.047,0-.1,0-.149,0-.139,0-.283.007-.423.014l-.185.008-.551.055-.559.056c-.1.01-.2.029-.315.049l-.174.03-.33.054-.153.025-1,.234c-.2.047-.41.109-.61.169l-.215.063-.306.1-.109.037-.129.042c-.085.027-.165.052-.239.083l-.847.358-.156.076c-.415.2-.844.408-1.244.645a9.625,9.625,0,0,0-.821.6,12,12,0,0,0-.894.86,24.568,24.568,0,0,0-1.7,2.215l-.058.082c-.381.591-.785,1.223-1.179,1.877-.382.631-.722,1.275-.976,1.767l-.019.04c-.26.543-.5,1.055-.706,1.6-.2.58-.349,1.182-.485,1.714l-.126.653c-.064.338-.114.705-.153,1.121a12.867,12.867,0,0,0-.033,1.33l.009.274q.009.269.018.537l.014.184c.038.5.077,1.026.155,1.53.059.307.128.595.209.878a16.557,16.557,0,0,0,.617,1.618,13.17,13.17,0,0,0,.68,1.261,12.871,12.871,0,0,0,.8,1.127,9.471,9.471,0,0,0,.729.771,9.765,9.765,0,0,0,.8.63c.3.2.62.39.962.572.6.3,1.217.536,1.867.786l.066.026c.586.188,1.081.342,1.587.48.555.151,1.106.286,1.668.423h0c.477.1.989.213,1.512.3.5.086,1.012.148,1.508.208Z" transform="translate(-157.776 -33.095)"/>
        <path id="Path_99948" data-name="Path 99948" d="M166.668,50.449a8.681,8.681,0,0,1-2.021-.425,4.048,4.048,0,0,1-1.445-.832,2.88,2.88,0,0,1-.834-1.522,7.6,7.6,0,0,1,.111-3.044c.089-.47.21-.934.342-1.394s.266-.913.415-1.365c.081-.247.162-.493.242-.741.088-.269.193-.533.3-.794.053-.124.116-.24.18-.359a1.771,1.771,0,0,1,.3-.375,1.067,1.067,0,0,1,.659-.282,1.032,1.032,0,0,1,.78.274,3.894,3.894,0,0,1,.693,1.079c.286.522.584,1.035.9,1.541.479.724.966,1.446,1.515,2.119a9.8,9.8,0,0,0,.677.721c.135.118.272.228.416.334.091.058.184.111.279.162.153.074.31.139.469.2.041.013.083.026.125.037.066.012.133.022.2.028l-.084-.007a.943.943,0,0,1,.619.279.9.9,0,0,1,.092,1.135.915.915,0,0,1-.112,1.186,11.016,11.016,0,0,1-1.222.957,6.012,6.012,0,0,1-.57.337,7.857,7.857,0,0,1-1.345.587,4.272,4.272,0,0,1-1.249.186A4.214,4.214,0,0,1,166.668,50.449Zm-2.313-2.671c.027.029.053.057.082.085.049.043.1.083.152.122.088.058.178.111.27.162.12.056.24.106.361.155a7.636,7.636,0,0,0,.781.211c.287.055.574.1.864.133.135.006.269.009.4.007.066,0,.132-.012.2-.021.123-.024.244-.053.366-.088.172-.061.341-.127.509-.2.3-.144.594-.3.883-.473.222-.151.438-.309.648-.475-.119-.046-.236-.1-.351-.147a5.387,5.387,0,0,1-1.638-1.223,11.271,11.271,0,0,1-1.1-1.341c-.182-.255-.37-.508-.543-.768-.333-.5-.667-1.006-.969-1.529-.064-.11-.127-.22-.189-.331-.292.876-.545,1.765-.77,2.661-.086.445-.169.886-.214,1.338-.015.207-.023.414-.022.622.01.163.025.324.047.487.02.1.043.2.069.306.02.055.042.109.066.161l-.021-.033.025.041.018.04-.015-.032C164.293,47.692,164.323,47.735,164.355,47.778Z" transform="translate(-157.137 -33.584)"/>
        <path id="Path_99948_-_Outline" data-name="Path 99948 - Outline" d="M167.1,50.72a4.485,4.485,0,0,1-.456-.023,8.914,8.914,0,0,1-2.078-.438,4.3,4.3,0,0,1-1.533-.886,3.125,3.125,0,0,1-.907-1.651,7.858,7.858,0,0,1,.109-3.145c.079-.416.189-.866.347-1.416.148-.513.276-.943.417-1.374l.037-.113c.069-.209.137-.417.2-.626.079-.24.175-.491.311-.814.053-.124.114-.239.173-.349l.017-.031a2.007,2.007,0,0,1,.338-.431,1.321,1.321,0,0,1,.815-.357,1.273,1.273,0,0,1,.971.337,3.114,3.114,0,0,1,.628.923c.039.075.077.149.116.222.278.509.577,1.023.888,1.526.478.723.953,1.427,1.5,2.094a9.536,9.536,0,0,0,.654.7c.129.113.255.214.388.311.077.049.16.1.251.146.131.063.275.124.438.187l.1.029c.054.01.1.016.141.02l.031,0v0a1.151,1.151,0,0,1,1.012,1.172,1.134,1.134,0,0,1-.12.479,1.161,1.161,0,0,1-.234,1.373,11.2,11.2,0,0,1-1.25.979,6.211,6.211,0,0,1-.594.351,8.1,8.1,0,0,1-1.388.6A4.533,4.533,0,0,1,167.1,50.72ZM165,39.562l-.062,0a.824.824,0,0,0-.5.207,1.56,1.56,0,0,0-.258.321l-.016.029c-.056.105-.11.2-.153.307-.13.31-.222.549-.3.775q-.1.314-.205.628l-.037.113c-.139.424-.265.849-.412,1.356-.153.535-.26.971-.336,1.371a7.42,7.42,0,0,0-.112,2.944,2.635,2.635,0,0,0,.76,1.393,3.806,3.806,0,0,0,1.357.779,8.42,8.42,0,0,0,1.962.412,3.99,3.99,0,0,0,.406.02,4.033,4.033,0,0,0,1.177-.175,7.651,7.651,0,0,0,1.3-.569,5.723,5.723,0,0,0,.547-.323,10.708,10.708,0,0,0,1.195-.936.667.667,0,0,0,.074-.856l-.1-.141.1-.143a.648.648,0,0,0-.066-.823.693.693,0,0,0-.462-.2v0c-.042-.005-.087-.012-.137-.022l-.019,0c-.046-.012-.091-.026-.136-.04l-.016-.005c-.181-.069-.341-.137-.488-.208l-.009,0c-.107-.057-.2-.114-.3-.172l-.013-.009c-.148-.108-.29-.222-.433-.347l-.008-.007a10.023,10.023,0,0,1-.695-.739l0,0c-.559-.686-1.062-1.433-1.529-2.139l0-.006c-.316-.512-.62-1.034-.9-1.553-.042-.076-.082-.154-.122-.232a2.7,2.7,0,0,0-.52-.782A.8.8,0,0,0,165,39.562Zm2.185,9.341c-.108,0-.217,0-.333-.008h-.014c-.267-.028-.557-.072-.886-.136h-.007a7.764,7.764,0,0,1-.807-.218l-.013,0c-.111-.044-.242-.1-.374-.16l-.014-.007c-.1-.055-.195-.112-.287-.172l-.011-.008c-.066-.049-.12-.092-.17-.136l-.008-.007c-.031-.03-.06-.061-.089-.092l-.018-.021c-.039-.052-.074-.1-.1-.143l.008-.005-.011.005h0l-.012-.026-.018-.03,0,0c-.026-.057-.048-.112-.069-.169l-.008-.024c-.027-.1-.051-.212-.072-.319l0-.015c-.022-.159-.038-.324-.049-.505V46.68c0-.2.007-.413.023-.641v-.007c.045-.448.125-.881.217-1.36l0-.014c.245-.972.5-1.849.776-2.679l.179-.537.276.495c.061.109.124.219.187.327.28.483.594.96.9,1.421l.063.1c.118.178.248.357.373.531l.165.229a11.031,11.031,0,0,0,1.076,1.311,5.1,5.1,0,0,0,1.561,1.169c.123.055.233.1.339.143l.407.158-.342.271c-.211.167-.427.326-.663.486l-.013.009c-.311.184-.606.342-.9.483l-.009,0c-.179.077-.35.144-.524.2l-.014,0c-.133.038-.259.069-.387.094l-.013,0c-.077.011-.147.018-.215.023h-.1Zm-.3-.507c.131.006.252.008.374.007.052,0,.107-.01.166-.018.109-.021.217-.048.331-.08.159-.056.317-.118.482-.189.279-.133.558-.283.852-.456.1-.067.194-.135.287-.2A5.636,5.636,0,0,1,167.7,46.2a11.527,11.527,0,0,1-1.125-1.37l-.162-.226c-.128-.178-.261-.361-.385-.548l-.063-.1c-.276-.418-.56-.848-.822-1.289-.207.658-.4,1.351-.591,2.1-.089.463-.166.881-.209,1.3-.015.211-.022.4-.021.592.01.163.025.312.044.455.018.092.039.183.061.273.016.043.033.085.053.128.018.027.04.059.063.091s.04.042.06.063.075.063.125.1c.077.05.156.1.241.145.116.054.234.1.334.143a7.31,7.31,0,0,0,.746.2C166.367,48.328,166.632,48.369,166.885,48.4Z" transform="translate(-157.137 -33.584)"/>
        <path id="Path_99949" data-name="Path 99949" d="M214.314,53.655l-.616-.006c-.2,0-.393-.032-.588-.049a8.1,8.1,0,0,1-1.2-.222,6.792,6.792,0,0,1-.945-.311,10.79,10.79,0,0,1-1.127-.526.909.909,0,0,1,.934-1.56l.111.061a10.719,10.719,0,0,0,1.077.456c.263.079.522.148.788.213.166.027.332.054.5.08h-.007c.159.014.32.028.48.04.142.012.287.009.43.007h.181l.593-.038c.209-.013.418-.053.627-.079.268-.049.536-.1.8-.161s.525-.138.787-.216c.337-.123.667-.255,1-.4.272-.132.535-.275.793-.43q.211-.144.41-.3c.092-.083.181-.169.267-.258s.147-.176.216-.267.124-.192.18-.292c.064-.132.123-.265.174-.4.034-.112.065-.225.091-.339.031-.17.055-.339.073-.511.017-.257.022-.512.018-.769-.012-.213-.023-.427-.035-.64-.013-.234-.05-.47-.075-.7-.017-.161-.039-.322-.063-.483-.069.093-.138.187-.208.279-.138.181-.275.363-.417.54a12.516,12.516,0,0,1-1.047,1.131c-.256.247-.527.486-.8.714-.358.3-.711.6-1.084.882a11.414,11.414,0,0,1-2.539,1.457,7.023,7.023,0,0,1-1.329.384,4.757,4.757,0,0,1-1.4.073,1.857,1.857,0,0,1-1.15-.446,1.01,1.01,0,0,1-.305-.721.915.915,0,0,1,.93-.887.887.887,0,0,1,.577.23l.139.019c.121.006.24.008.36.006.159-.011.318-.029.475-.053.208-.041.412-.09.616-.149.256-.086.5-.182.752-.29a11.1,11.1,0,0,0,1.059-.579,11.7,11.7,0,0,0,1.148-.832c.237-.2.473-.393.709-.588l-.095.078c.412-.369.821-.735,1.2-1.138a19.993,19.993,0,0,0,1.36-1.775c.121-.174.242-.349.357-.527.217-.338.429-.71.835-.838a.935.935,0,0,1,.979.222,1.784,1.784,0,0,1,.4.984c.051.26.1.521.142.781.074.443.156.887.2,1.334.054.512.111,1.026.119,1.541a9.221,9.221,0,0,1-.03.957,6.845,6.845,0,0,1-.146.887,4.523,4.523,0,0,1-.823,1.687,6.239,6.239,0,0,1-2.611,1.827,13.019,13.019,0,0,1-1.442.5c-.2.06-.405.1-.607.147-.116.028-.238.043-.356.064s-.265.054-.4.071c-.219.028-.441.07-.661.084-.252.016-.507.046-.759.047Z" transform="translate(-160.843 -33.832)"/>
        <path id="Path_99949_-_Outline" data-name="Path 99949 - Outline" d="M214.343,53.906h-.036L213.7,53.9c-.145,0-.286-.017-.423-.031l-.183-.018a8.315,8.315,0,0,1-1.232-.228,6.951,6.951,0,0,1-.981-.322,10.915,10.915,0,0,1-1.153-.539,1.094,1.094,0,0,1-.526-.684,1.181,1.181,0,0,1,.119-.91,1.137,1.137,0,0,1,.654-.509,1.248,1.248,0,0,1-.306-.819A1.165,1.165,0,0,1,210.85,48.7a1.144,1.144,0,0,1,.678.243l.054.007c.107.006.216.007.328.006.151-.011.3-.027.443-.05.2-.038.386-.084.584-.142.249-.084.486-.175.722-.279a10.781,10.781,0,0,0,1.029-.563,11.319,11.319,0,0,0,1.121-.812l.416-.345.191-.159h0l.021-.019c.41-.367.8-.714,1.163-1.1a19.794,19.794,0,0,0,1.34-1.749l.012-.017c.114-.164.232-.334.341-.5l.043-.067a1.787,1.787,0,0,1,.927-.873,1.341,1.341,0,0,1,.4-.063,1.152,1.152,0,0,1,.829.347,1.942,1.942,0,0,1,.462,1.075l.007.037c.042.217.1.5.143.79.014.083.028.167.042.251.061.357.123.727.163,1.1l.008.074c.052.486.105.989.112,1.49a9.464,9.464,0,0,1-.031.983,7.1,7.1,0,0,1-.151.92,4.769,4.769,0,0,1-.866,1.781,6.529,6.529,0,0,1-2.712,1.907,13.254,13.254,0,0,1-1.469.513c-.145.044-.294.077-.437.108l-.185.042c-.087.021-.174.035-.259.049l-.111.019-.117.022c-.1.019-.194.038-.3.051-.071.009-.144.02-.216.03-.149.022-.3.045-.46.055-.082.005-.164.012-.246.018-.172.014-.35.028-.528.029Zm-4.037-2.8a.647.647,0,0,0-.562.314.687.687,0,0,0-.065.523.6.6,0,0,0,.283.376,10.422,10.422,0,0,0,1.1.513,6.459,6.459,0,0,0,.91.3,7.937,7.937,0,0,0,1.158.216l.195.019c.131.014.254.027.375.028l.649.006c.158,0,.317-.014.486-.027.085-.007.17-.014.255-.019.135-.009.273-.029.418-.05.076-.011.152-.022.227-.032s.17-.027.261-.045l.124-.024.119-.02c.079-.013.153-.025.223-.042l.192-.044c.14-.031.273-.06.4-.1a12.831,12.831,0,0,0,1.415-.493,6.079,6.079,0,0,0,2.51-1.747,4.277,4.277,0,0,0,.779-1.592,6.613,6.613,0,0,0,.141-.856,8.973,8.973,0,0,0,.029-.931c-.007-.479-.059-.97-.11-1.445l-.008-.074c-.038-.354-.1-.716-.159-1.066q-.022-.127-.043-.254c-.046-.282-.1-.562-.141-.775l-.007-.037a1.519,1.519,0,0,0-.325-.818.653.653,0,0,0-.476-.2.842.842,0,0,0-.251.04c-.291.091-.467.369-.654.664l-.045.07c-.114.176-.234.349-.35.517l-.012.018a20.2,20.2,0,0,1-1.378,1.8l-.006.006c-.361.382-.752.735-1.132,1.077l0,0-.293.243-.416.345a11.806,11.806,0,0,1-1.171.849l0,0a11.278,11.278,0,0,1-1.083.592l-.006,0c-.253.112-.506.209-.773.3l-.01,0c-.216.062-.424.113-.637.155l-.009,0c-.16.025-.328.044-.5.056h-.013c-.129,0-.254,0-.377-.007h-.016c-.049-.006-.1-.013-.149-.021l-.073-.012-.055-.05a.635.635,0,0,0-.415-.166h-.013a.666.666,0,0,0-.66.638.761.761,0,0,0,.233.546,1.649,1.649,0,0,0,1,.373,4.507,4.507,0,0,0,1.321-.07,6.78,6.78,0,0,0,1.281-.37,11.17,11.17,0,0,0,2.483-1.425c.286-.214.567-.45.839-.677l.236-.2c.289-.24.554-.476.789-.7a12.221,12.221,0,0,0,1.026-1.108c.107-.133.213-.272.316-.407l.1-.128c.054-.071.108-.143.161-.216l.4-.544.089.6c.029.193.049.35.064.494.008.075.017.151.027.227.02.159.04.323.049.489q.009.156.017.312t.018.328v.011c0,.273,0,.531-.019.789v.009c-.019.182-.043.356-.076.532l0,.011c-.028.118-.059.234-.1.355l-.005.015c-.053.141-.115.284-.184.425l-.006.012c-.054.1-.116.2-.19.308l-.009.013c-.081.107-.155.2-.226.281l-.009.01c-.093.1-.184.184-.279.27l-.011.01c-.136.109-.279.214-.425.314l-.011.007c-.262.158-.536.307-.814.441l-.01,0c-.342.147-.672.279-1.01.4l-.015,0c-.251.074-.522.152-.8.219s-.549.116-.816.164l-.013,0-.2.028c-.144.021-.293.043-.445.053l-.308.02-.284.018h-.372c-.108,0-.2,0-.276-.01-.159-.012-.32-.026-.481-.04l0-.086-.013.084-.341-.055-.178-.03c-.29-.07-.552-.141-.8-.216l-.014,0a10.97,10.97,0,0,1-1.1-.467l-.009,0-.111-.061A.728.728,0,0,0,210.306,51.11Zm2.984.435c.15.013.3.026.453.037.068.006.142.008.236.008h.348l.277-.018.308-.02c.132-.008.264-.028.4-.048l.2-.028c.258-.047.525-.1.783-.157s.524-.138.766-.21c.325-.119.643-.246.971-.387.26-.126.517-.265.762-.413.132-.09.261-.185.383-.282.083-.075.163-.152.245-.236.061-.071.126-.15.2-.243s.115-.18.162-.263c.06-.124.112-.244.159-.367.032-.105.059-.207.083-.31.029-.158.052-.316.068-.481.015-.242.021-.484.018-.74q-.009-.162-.018-.324t-.017-.311c-.008-.149-.027-.3-.046-.455l-.013-.1c-.085.111-.171.224-.26.334a12.713,12.713,0,0,1-1.068,1.153c-.243.235-.518.479-.816.727l-.234.2c-.277.232-.563.472-.86.694a11.668,11.668,0,0,1-2.595,1.488,7.281,7.281,0,0,1-1.376.4,5.809,5.809,0,0,1-.732.092c.226.067.463.131.724.195l.15.024.337.054Z" transform="translate(-160.843 -33.832)"/>
        <path id="Path_99950" data-name="Path 99950" d="M184.6,43.242a.919.919,0,0,1-.473-1.2c.525-1.228,1.13-2.423,1.714-3.626.286-.588.572-1.177.835-1.776q.225-.517.45-1.034c.134-.307.273-.609.43-.9a1.337,1.337,0,0,1,.658-.645.924.924,0,0,1,1.059.317h0a.912.912,0,0,1-.123,1.2c-.023.038-.045.077-.066.116-.3.617-.552,1.261-.84,1.885q-.449.967-.912,1.926c-.525,1.08-1.064,2.155-1.537,3.26a.917.917,0,0,1-.842.545A.9.9,0,0,1,184.6,43.242Z" transform="translate(-158.85 -33.167)"/>
        <path id="Path_99950_-_Outline" data-name="Path 99950 - Outline" d="M184.952,43.565a1.142,1.142,0,0,1-.451-.093,1.164,1.164,0,0,1-.6-1.524c.423-.988.9-1.968,1.366-2.915q.177-.361.353-.722l.012-.025c.276-.568.562-1.156.819-1.742l.013-.031q.218-.5.436-1c.164-.376.3-.66.439-.922a1.584,1.584,0,0,1,.792-.761,1.16,1.16,0,0,1,.4-.073,1.182,1.182,0,0,1,.855.375h.008l.076.1a1.164,1.164,0,0,1-.121,1.514l-.042.075c-.172.35-.33.718-.482,1.073-.113.263-.23.536-.353.8-.318.684-.617,1.315-.914,1.93l-.263.539c-.431.882-.877,1.795-1.269,2.71A1.16,1.16,0,0,1,184.952,43.565Zm3.578-9.309a.662.662,0,0,0-.23.042,1.131,1.131,0,0,0-.525.529c-.133.248-.263.521-.421.884q-.217.5-.436,1l-.014.031c-.261.6-.549,1.188-.827,1.76l-.012.025q-.176.362-.353.723c-.461.942-.938,1.915-1.356,2.892a.671.671,0,0,0,.342.868.643.643,0,0,0,.254.052.669.669,0,0,0,.612-.394c.4-.927.845-1.845,1.279-2.733l.262-.538c.3-.612.594-1.24.91-1.922.12-.259.235-.528.347-.789.156-.363.317-.738.5-1.1l0-.009c.021-.038.045-.082.072-.126l.018-.029.025-.023a.671.671,0,0,0,.112-.845l-.016-.021A.7.7,0,0,0,188.53,34.255Z" transform="translate(-158.85 -33.167)"/>
        <path id="Path_99951" data-name="Path 99951" d="M188.351,44.5a.915.915,0,0,1-.622-1.124c.247-.78.527-1.547.8-2.316.244-.679.5-1.357.762-2.029.286-.721.584-1.44.855-2.168l.428-1.154a2.611,2.611,0,0,1,.342-.735.942.942,0,0,1,.744-.347.915.915,0,0,1,.887.929.882.882,0,0,1-.156.485c-.092.217-.168.442-.251.664l-.337.907c-.181.486-.378.966-.568,1.447q-.647,1.629-1.238,3.279l.039-.111c-.194.549-.389,1.1-.565,1.652a.931.931,0,0,1-.877.658A.9.9,0,0,1,188.351,44.5Z" transform="translate(-159.136 -33.216)"/>
        <path id="Path_99951_-_Outline" data-name="Path 99951 - Outline" d="M188.6,44.785a1.152,1.152,0,0,1-.317-.045,1.176,1.176,0,0,1-.7-.577,1.106,1.106,0,0,1-.087-.863c.228-.719.487-1.438.738-2.133l.069-.193c.283-.786.526-1.433.765-2.036q.123-.311.249-.621c.2-.5.412-1.026.6-1.542l.428-1.153c.016-.043.031-.085.047-.128a2.3,2.3,0,0,1,.334-.676,1.191,1.191,0,0,1,.94-.442,1.115,1.115,0,0,1,.8.345,1.171,1.171,0,0,1,.336.839,1.134,1.134,0,0,1-.184.6c-.058.139-.109.28-.163.428-.025.068-.049.136-.075.2l-.223.6-.114.307c-.134.36-.278.721-.418,1.07l-.152.382c-.419,1.056-.835,2.157-1.235,3.272h0c-.178.5-.359,1.018-.522,1.532A1.174,1.174,0,0,1,188.6,44.785Zm3.066-9.909a.694.694,0,0,0-.549.253,1.863,1.863,0,0,0-.254.533c-.016.045-.032.09-.049.134l-.428,1.153c-.194.522-.405,1.047-.609,1.554q-.124.309-.248.619c-.237.6-.478,1.24-.759,2.021l-.07.193c-.249.691-.507,1.4-.732,2.114a.611.611,0,0,0,.052.476.673.673,0,0,0,.4.332.651.651,0,0,0,.179.025.685.685,0,0,0,.639-.484c.178-.56.376-1.119.567-1.659h0c.39-1.083.794-2.151,1.2-3.177l.153-.383c.139-.346.282-.7.414-1.058l.114-.307.223-.6c.025-.066.049-.133.073-.2.056-.156.115-.317.182-.475l.01-.023.014-.021a.628.628,0,0,0,.112-.348.669.669,0,0,0-.194-.479A.619.619,0,0,0,191.665,34.876Z" transform="translate(-159.136 -33.216)"/>
        <path id="Path_99952" data-name="Path 99952" d="M197.248,44.368a.91.91,0,0,1-.637-.281.949.949,0,0,1-.252-.649q-.064-1.835-.123-3.672a22.542,22.542,0,0,0-.194-2.6.909.909,0,0,1,1.471-.806.943.943,0,0,1,.337.615,27,27,0,0,1,.217,3.263q.054,1.623.11,3.244a.914.914,0,0,1-.911.888Z" transform="translate(-159.792 -33.336)"/>
        <path id="Path_99952_-_Outline" data-name="Path 99952 - Outline" d="M197.267,44.619h-.028a1.166,1.166,0,0,1-.808-.358,1.2,1.2,0,0,1-.32-.812q-.049-1.408-.094-2.815l-.036-1.063A20.512,20.512,0,0,0,195.8,37.2a1.076,1.076,0,0,1,.223-.825,1.185,1.185,0,0,1,.806-.461,1.165,1.165,0,0,1,.843.246,1.184,1.184,0,0,1,.429.773,23.209,23.209,0,0,1,.206,2.865q.006.214.013.427l.022.678c.028.841.057,1.71.087,2.565a1.064,1.064,0,0,1-.311.777A1.194,1.194,0,0,1,197.267,44.619Zm-.322-8.208a.664.664,0,0,0-.067,0,.692.692,0,0,0-.462.268.581.581,0,0,0-.125.443,20.88,20.88,0,0,1,.188,2.424l.008.206.028.859q.046,1.407.094,2.814a.7.7,0,0,0,.182.484.663.663,0,0,0,.462.2h.018a.7.7,0,0,0,.485-.217.569.569,0,0,0,.171-.412c-.031-.855-.059-1.725-.087-2.566l-.022-.678q-.007-.214-.013-.429a22.832,22.832,0,0,0-.2-2.8.691.691,0,0,0-.246-.459A.666.666,0,0,0,196.945,36.411Z" transform="translate(-159.792 -33.336)"/>
        <path id="Path_99953" data-name="Path 99953" d="M186.74,54.3a.917.917,0,0,1-.888-.929c.032-.928.085-1.854.134-2.78q.069-1.346.108-2.693a.908.908,0,1,1,1.816.041q-.036,1.349-.108,2.694c-.049.926-.1,1.852-.133,2.779a.918.918,0,0,1-.909.887Z" transform="translate(-158.992 -34.189)"/>
        <path id="Path_99953_-_Outline" data-name="Path 99953 - Outline" d="M186.76,54.553h-.026a1.17,1.17,0,0,1-.817-.367,1.132,1.132,0,0,1-.316-.82c.027-.787.07-1.584.111-2.355l.023-.429c.048-.942.084-1.821.108-2.687a1.155,1.155,0,0,1,2-.766,1.139,1.139,0,0,1,.318.822c-.024.9-.06,1.8-.108,2.7l-.019.352c-.042.794-.086,1.615-.114,2.423A1.173,1.173,0,0,1,186.76,54.553Zm-.017-.5h.017a.669.669,0,0,0,.659-.646c.028-.812.072-1.636.114-2.432l.019-.352c.048-.892.084-1.8.108-2.688a.643.643,0,0,0-.181-.464.666.666,0,0,0-.463-.21H187a.665.665,0,0,0-.659.645c-.024.87-.059,1.753-.108,2.7l-.023.43c-.041.769-.083,1.564-.111,2.346a.636.636,0,0,0,.179.459A.667.667,0,0,0,186.743,54.053Z" transform="translate(-158.992 -34.189)"/>
        <path id="Path_99954" data-name="Path 99954" d="M190.961,54.3a.913.913,0,0,1-.887-.93c.148-1.782.24-3.568.391-5.35a.953.953,0,0,1,.28-.637.91.91,0,0,1,1.537.679c-.151,1.782-.243,3.568-.391,5.35a.949.949,0,0,1-.281.637.913.913,0,0,1-.627.252Z" transform="translate(-159.323 -34.199)"/>
        <path id="Path_99954_-_Outline" data-name="Path 99954 - Outline" d="M190.983,54.552h-.032a1.2,1.2,0,0,1-.844-.4,1.062,1.062,0,0,1-.283-.8c.072-.868.132-1.753.19-2.608.061-.9.123-1.828.2-2.742a1.2,1.2,0,0,1,.356-.8,1.175,1.175,0,0,1,.828-.32,1.206,1.206,0,0,1,.849.4,1.059,1.059,0,0,1,.281.8c-.078.918-.141,1.853-.2,2.757-.057.849-.117,1.728-.188,2.592a1.2,1.2,0,0,1-.357.8A1.172,1.172,0,0,1,190.983,54.552Zm.39-7.168a.671.671,0,0,0-.457.182.7.7,0,0,0-.2.476c-.077.91-.14,1.837-.2,2.734-.058.857-.118,1.744-.19,2.616a.567.567,0,0,0,.156.424.7.7,0,0,0,.488.235h.021a.666.666,0,0,0,.45-.183.7.7,0,0,0,.2-.475c.071-.861.131-1.738.188-2.585.061-.906.125-1.844.2-2.766a.564.564,0,0,0-.155-.423.7.7,0,0,0-.489-.236Z" transform="translate(-159.323 -34.199)"/>
        <path id="Path_99955" data-name="Path 99955" d="M184.228,59.9a9.69,9.69,0,0,1-1.341-1.146,8.521,8.521,0,0,1-1.176-1.521,5.855,5.855,0,0,1-.926-3.056.909.909,0,1,1,1.817.042v.1c.009.136.025.27.044.4.035.171.077.338.126.5s.115.324.182.483a7.716,7.716,0,0,0,.4.727c.149.228.307.446.477.658a10.435,10.435,0,0,0,.745.766c.211.186.428.363.658.529a10,10,0,0,0,.9.544,10.914,10.914,0,0,0,1.1.475c.348.117.7.217,1.059.3s.744.135,1.122.175a10.261,10.261,0,0,0,1.078.02c.4-.021.794-.061,1.19-.121a11.076,11.076,0,0,0,1.158-.275,10.815,10.815,0,0,0,1.057-.4,9.821,9.821,0,0,0,.993-.535c.261-.169.513-.347.758-.542q.285-.249.545-.523a7.767,7.767,0,0,0,.494-.629,13.745,13.745,0,0,0,.7-1.192c.188-.378.367-.757.519-1.152.031-.1.063-.192.09-.29a.909.909,0,0,1,1.748.5,9.367,9.367,0,0,1-.512,1.311c-.1.218-.214.433-.328.645a12.458,12.458,0,0,1-.686,1.156,8.129,8.129,0,0,1-1.139,1.336,8.843,8.843,0,0,1-1.667,1.183,10.619,10.619,0,0,1-3.639,1.228,10.208,10.208,0,0,1-1.6.126A10.576,10.576,0,0,1,184.228,59.9Z" transform="translate(-158.593 -34.683)"/>
        <path id="Path_99955_-_Outline" data-name="Path 99955 - Outline" d="M190.184,61.982a10.836,10.836,0,0,1-6.1-1.879,9.854,9.854,0,0,1-1.375-1.175,8.662,8.662,0,0,1-1.211-1.566,6.133,6.133,0,0,1-.964-3.189,1.159,1.159,0,1,1,2.317.042v.091c.008.114.021.232.041.37.032.154.07.309.118.473s.112.312.172.455a7.43,7.43,0,0,0,.382.7c.148.226.3.432.458.632a10.15,10.15,0,0,0,.721.741c.217.192.425.358.634.51a9.68,9.68,0,0,0,.876.526,10.592,10.592,0,0,0,1.072.462c.339.114.686.213,1.03.293.366.075.733.133,1.091.17a10.047,10.047,0,0,0,1.045.019c.4-.021.775-.059,1.16-.118a10.889,10.889,0,0,0,1.126-.267,10.5,10.5,0,0,0,1.027-.388,9.622,9.622,0,0,0,.963-.519c.265-.171.5-.342.732-.523.182-.159.357-.327.519-.5a7.473,7.473,0,0,0,.473-.6c.256-.381.477-.784.681-1.165.151-.3.344-.7.505-1.121.031-.094.06-.183.085-.274a1.169,1.169,0,0,1,1.12-.839,1.164,1.164,0,0,1,1.109,1.477,9.716,9.716,0,0,1-.526,1.347c-.1.213-.2.417-.335.659a12.709,12.709,0,0,1-.7,1.179,8.326,8.326,0,0,1-1.174,1.377,9.166,9.166,0,0,1-1.713,1.218,10.84,10.84,0,0,1-3.724,1.258A10.492,10.492,0,0,1,190.184,61.982ZM181.7,53.537a.666.666,0,0,0-.66.638,5.628,5.628,0,0,0,.888,2.924,8.179,8.179,0,0,0,1.141,1.477,9.373,9.373,0,0,0,1.305,1.117,10.331,10.331,0,0,0,5.814,1.79,9.989,9.989,0,0,0,1.559-.123,10.344,10.344,0,0,0,3.553-1.2,8.7,8.7,0,0,0,1.62-1.149,7.831,7.831,0,0,0,1.1-1.3,12.26,12.26,0,0,0,.672-1.133c.126-.234.229-.43.321-.631a9.262,9.262,0,0,0,.5-1.276.668.668,0,0,0-.452-.813.639.639,0,0,0-.176-.025.666.666,0,0,0-.639.476c-.028.1-.061.2-.093.3l0,.013c-.169.439-.371.858-.528,1.173l0,.007a13.99,13.99,0,0,1-.71,1.214l0,0a7.971,7.971,0,0,1-.51.649l-.006.007c-.176.186-.365.368-.562.54l-.009.008c-.243.192-.5.374-.778.556l0,0a10.127,10.127,0,0,1-1.019.549l-.005,0a11,11,0,0,1-1.081.408l-.005,0a11.393,11.393,0,0,1-1.184.281h-.007c-.4.061-.8.1-1.215.123h-.006a10.542,10.542,0,0,1-1.1-.021H189.4c-.376-.039-.762-.1-1.147-.179h-.007c-.361-.085-.725-.188-1.081-.308l-.006,0a11.09,11.09,0,0,1-1.129-.486l-.007,0a10.174,10.174,0,0,1-.927-.557l-.006,0c-.224-.162-.445-.34-.677-.544l-.005,0a10.637,10.637,0,0,1-.763-.784l-.007-.008c-.172-.214-.333-.436-.492-.677l0-.006a7.919,7.919,0,0,1-.412-.75l0-.01c-.067-.157-.129-.321-.189-.5l0-.01c-.053-.182-.1-.354-.131-.525l0-.014c-.023-.158-.037-.292-.046-.423v-.116a.673.673,0,0,0-.643-.68Z" transform="translate(-158.593 -34.683)"/>
        <path id="Path_99956" data-name="Path 99956" d="M178.586,95.956c-.95-.012-1.9-.063-2.846-.113-.51-.027-1.017-.058-1.525-.1a7.487,7.487,0,0,1-1.222-.173,1.419,1.419,0,0,1-.576-.307,1.183,1.183,0,0,1-.4-.741,3.292,3.292,0,0,1,.122-.981c.046-.227.1-.452.144-.678.107-.5.221-.988.335-1.482.437-1.885.955-3.75,1.451-5.62.526-1.988,1.046-3.978,1.595-5.959.512-1.85,1.1-3.682,1.676-5.512.4-1.251.8-2.5,1.186-3.751.364-1.166.72-2.335,1-3.524.023-.119.047-.238.064-.358a.909.909,0,0,1,1.816.084,3.263,3.263,0,0,1-.114.7c-.051.222-.095.447-.155.667-.127.466-.253.932-.393,1.4-.275.921-.555,1.84-.848,2.757q-.952,2.984-1.872,5.977c-.576,1.886-1.084,3.791-1.588,5.7s-1.022,3.812-1.519,5.721c-.3,1.157-.574,2.321-.835,3.489v0l-.005.024,0,.008h0v0l0,.016,0,.015c-.05.229-.1.458-.146.687l.218.025c1.884.142,3.772.229,5.662.23q3.082,0,6.162-.056,2.217-.044,4.435-.078c1.475-.023,2.948-.028,4.424-.065q1.594-.08,3.18-.243c1.087-.11,2.172-.228,3.251-.4.45-.083.9-.167,1.345-.264s.914-.192,1.362-.322l.048-.018v-.083c0-.052-.01-.1-.018-.154-.058-.295-.146-.58-.23-.869-.19-.586-.386-1.169-.584-1.752-.223-.656-.456-1.313-.645-1.98-.362-1.276-.69-2.561-1.056-3.836-.089-.274-.179-.549-.268-.825s-.211-.569-.316-.853c-.2-.544-.449-1.074-.686-1.6-.336-.724-.678-1.445-1.037-2.159s-.754-1.393-1.149-2.078-.8-1.384-1.18-2.083-.766-1.387-1.178-2.064c-.416-.65-.85-1.283-1.321-1.893s-.945-1.2-1.389-1.823a.909.909,0,1,1,1.472-1.065c.524.734,1.1,1.43,1.64,2.151a25.188,25.188,0,0,1,1.586,2.412c.5.858.965,1.74,1.453,2.606.463.82.952,1.624,1.394,2.455.429.806.825,1.629,1.209,2.457s.75,1.677,1.071,2.539c.3.812.551,1.645.773,2.481.242.917.488,1.832.746,2.744.295.924.605,1.843.918,2.76.158.465.3.934.44,1.4a3.689,3.689,0,0,1,.149,1.42,1.451,1.451,0,0,1-.09.334,1.487,1.487,0,0,1-.137.306,1.841,1.841,0,0,1-.5.535,2.837,2.837,0,0,1-.966.374c-.247.061-.494.118-.742.173q-.674.153-1.356.277c-.962.176-1.927.306-2.9.41-.925.1-1.851.193-2.78.26-1.008.074-2.017.1-3.027.118q-2.9.037-5.806.084c-1.961.034-3.921.08-5.881.085-.323,0-.648,0-.972,0C179.96,95.968,179.273,95.965,178.586,95.956Z" transform="translate(-157.904 -35.667)"/>
        <path id="Path_99956_-_Outline" data-name="Path 99956 - Outline" d="M180.647,96.218c-.8,0-1.454,0-2.064-.012-.955-.012-1.921-.064-2.856-.114-.563-.03-1.064-.062-1.531-.1a7.706,7.706,0,0,1-1.262-.18,1.665,1.665,0,0,1-.679-.36,1.425,1.425,0,0,1-.484-.9,2.864,2.864,0,0,1,.094-.908c.011-.05.022-.1.032-.15.031-.154.064-.307.1-.46l.047-.22c.1-.477.214-.958.322-1.423l.015-.063c.347-1.5.751-3.006,1.142-4.465q.156-.582.311-1.164l.273-1.035c.427-1.616.868-3.288,1.322-4.926.478-1.728,1.028-3.464,1.559-5.144l.119-.376q.209-.662.419-1.323c.252-.8.514-1.618.766-2.427.349-1.12.714-2.313.989-3.5l.007-.038c.02-.1.038-.2.053-.294a1.159,1.159,0,0,1,2.315.109,3.039,3.039,0,0,1-.1.672l-.018.079c-.015.065-.029.131-.044.2-.034.157-.07.32-.114.481l-.025.09c-.117.43-.239.875-.37,1.312-.315,1.056-.584,1.933-.849,2.761-.744,2.333-1.339,4.231-1.871,5.974-.56,1.836-1.049,3.662-1.585,5.688q-.295,1.113-.593,2.225c-.306,1.145-.623,2.329-.926,3.5-.267,1.026-.532,2.132-.833,3.48h0l-.015.068c-.027.123-.058.265-.088.411,2.016.15,3.841.224,5.58.225h.319c2.091,0,4-.018,5.838-.056,1.612-.032,3.063-.058,4.436-.078.527-.008,1.063-.014,1.581-.02.93-.01,1.892-.021,2.837-.045,1.014-.051,2.078-.133,3.164-.242,1.205-.122,2.216-.236,3.233-.4.453-.084.9-.167,1.335-.262l.144-.031c.349-.075.709-.151,1.057-.246l0-.014c-.05-.252-.122-.5-.2-.755l-.024-.081c-.2-.616-.406-1.228-.582-1.746l-.115-.337c-.185-.539-.375-1.1-.534-1.656-.172-.606-.339-1.224-.5-1.822-.178-.66-.363-1.342-.554-2.009q-.129-.394-.257-.791l-.01-.029c-.06-.184-.133-.373-.2-.555-.037-.1-.074-.192-.11-.289-.17-.456-.376-.914-.575-1.356l-.1-.232c-.394-.848-.722-1.532-1.032-2.149-.348-.689-.742-1.372-1.124-2.033l-.018-.032c-.467-.806-.843-1.47-1.183-2.088-.423-.768-.778-1.407-1.171-2.052-.449-.7-.877-1.315-1.307-1.873q-.2-.256-.4-.509c-.333-.427-.678-.869-1-1.32a1.162,1.162,0,0,1,.261-1.617,1.142,1.142,0,0,1,.675-.217,1.159,1.159,0,0,1,.943.477c.316.442.656.879.986,1.3.215.275.437.56.651.844a25.364,25.364,0,0,1,1.6,2.436c.3.518.6,1.053.88,1.57.187.342.381.7.575,1.04.169.3.344.6.513.893.3.509.6,1.036.884,1.567.372.7.747,1.46,1.215,2.47.433.934.786,1.77,1.078,2.557.273.736.528,1.555.78,2.5.292,1.1.522,1.949.744,2.736.3.942.617,1.876.915,2.752.168.5.318.993.443,1.414a3.922,3.922,0,0,1,.158,1.515,1.657,1.657,0,0,1-.1.394,1.682,1.682,0,0,1-.162.357,2.077,2.077,0,0,1-.564.6,3.032,3.032,0,0,1-1.05.413c-.228.056-.473.113-.747.174-.442.1-.9.195-1.366.279-.889.163-1.843.3-2.917.413-.892.1-1.847.192-2.788.261-.883.065-1.849.1-3.041.119-1.9.024-3.862.05-5.8.084l-1.318.024c-1.5.028-3.044.057-4.567.061C181.3,96.218,180.972,96.218,180.647,96.218Zm-.15-30.155a.668.668,0,0,0-.659.609l0,.023c-.016.112-.038.222-.058.328l-.01.051c-.28,1.207-.647,2.412-1,3.542-.253.811-.514,1.634-.767,2.43q-.21.661-.419,1.322l-.119.377c-.53,1.675-1.078,3.408-1.554,5.127-.453,1.636-.894,3.305-1.321,4.92l-.274,1.036q-.155.583-.311,1.165c-.39,1.454-.793,2.958-1.138,4.448l-.015.063c-.107.463-.218.942-.32,1.415l-.047.22c-.033.151-.065.3-.1.455-.01.051-.022.1-.033.155a2.456,2.456,0,0,0-.086.751.939.939,0,0,0,.312.577,1.168,1.168,0,0,0,.471.253,7.263,7.263,0,0,0,1.182.167c.463.036.96.068,1.519.1.93.05,1.891.1,2.836.113.609.008,1.263.012,2.058.012.324,0,.648,0,.971,0,1.52,0,3.065-.033,4.56-.061l1.318-.024c1.944-.034,3.908-.059,5.807-.084,1.182-.016,2.139-.053,3.012-.117.934-.068,1.884-.165,2.772-.259,1.061-.114,2-.247,2.88-.407.457-.083.91-.176,1.346-.275.272-.061.513-.117.737-.172a2.63,2.63,0,0,0,.882-.336,1.6,1.6,0,0,0,.431-.465,1.988,1.988,0,0,0,.19-.531,3.432,3.432,0,0,0-.14-1.325c-.123-.415-.271-.906-.436-1.395-.3-.879-.617-1.817-.919-2.765l0-.008c-.224-.791-.454-1.639-.747-2.748-.248-.933-.5-1.737-.766-2.458-.288-.775-.636-1.6-1.063-2.521-.464-1-.835-1.755-1.2-2.445-.278-.522-.582-1.045-.875-1.551-.17-.294-.346-.6-.516-.9-.2-.347-.39-.7-.578-1.045-.282-.514-.573-1.045-.873-1.557a24.867,24.867,0,0,0-1.57-2.388c-.211-.281-.432-.564-.645-.837-.333-.427-.677-.868-1-1.318a.658.658,0,0,0-.537-.268.646.646,0,0,0-.382.122.67.67,0,0,0-.147.921c.316.443.657.881.987,1.3q.2.255.4.512c.44.571.876,1.2,1.334,1.911l0,0c.4.655.757,1.3,1.184,2.073.339.615.713,1.275,1.178,2.079l.018.032c.385.667.783,1.356,1.137,2.058.312.622.643,1.31,1.04,2.166l.105.234c.2.45.412.915.588,1.387.035.095.071.189.108.283.072.188.147.383.212.58l.01.03q.129.4.258.795l0,.009c.193.672.378,1.358.557,2.021.161.6.328,1.212.5,1.816.155.546.343,1.1.526,1.63l.115.338c.177.52.384,1.136.585,1.756l.027.091c.077.26.156.529.211.807l0,.013c.007.052.014.106.019.167v.275l-.228.089c-.41.119-.83.209-1.236.3l-.143.031c-.446.1-.894.18-1.352.265h-.005c-1.03.167-2.05.283-3.266.406-1.095.111-2.169.193-3.192.244h-.006c-.95.024-1.915.035-2.847.046-.517.006-1.053.012-1.579.02-1.372.021-2.823.046-4.434.078-1.84.038-3.753.056-5.848.056h-.32c-1.769,0-3.627-.076-5.68-.231h-.006l-.225-.026-.267-.034.053-.263c.048-.241.1-.491.146-.691l.015-.067h0c.3-1.355.568-2.466.837-3.5.3-1.168.621-2.352.927-3.5q.3-1.111.592-2.224c.537-2.031,1.027-3.862,1.59-5.706.533-1.745,1.128-3.645,1.873-5.98.264-.825.533-1.7.846-2.752.129-.431.25-.873.366-1.3l.025-.09c.04-.149.075-.3.108-.456.015-.067.029-.134.045-.2l.019-.08a2.631,2.631,0,0,0,.09-.56.666.666,0,0,0-.643-.68Z" transform="translate(-157.904 -35.667)"/>
        <path id="Path_99957" data-name="Path 99957" d="M174.25,95.512v0h0l0,.007Z" transform="translate(-158.079 -38.002)"/>
        <path id="Path_99958" data-name="Path 99958" d="M174.258,95.474v0Z" transform="translate(-158.08 -37.999)"/>
        <path id="Path_99959" data-name="Path 99959" d="M174.257,95.477l0,.019,0,.008Z" transform="translate(-158.08 -37.999)"/>
        <path id="Path_99959_-_Outline" data-name="Path 99959 - Outline" d="M174.014,95.419l.487.114-.006.028-.487-.111Z" transform="translate(-158.08 -37.999)"/>
        <path id="Path_99960" data-name="Path 99960" d="M193.2,112.253a2.129,2.129,0,0,1-.486-.132,1.266,1.266,0,0,1-.34-.207,1.541,1.541,0,0,1-.249-.253,2.811,2.811,0,0,1-.358-.623,3.105,3.105,0,0,1-.186-.781,5.451,5.451,0,0,1-.024-1.09c.009-.183.026-.366.047-.548-.114.106-.233.208-.356.3a5.779,5.779,0,0,1-3.473,1.233,5.11,5.11,0,0,1-1.674-.291,4.973,4.973,0,0,1-1.712-1.029,6.766,6.766,0,0,1-1.131-1.321,7.889,7.889,0,0,1-.849-1.809c-.236-.687-.389-1.4-.556-2.1-.11-.464-.188-.941-.265-1.412-.18-1.095-.331-2.192-.4-3.3a.909.909,0,0,1,1.808-.191c.077,1.17.246,2.327.434,3.483.173.885.353,1.766.6,2.632a9.948,9.948,0,0,0,.383,1.038q.155.319.337.623c.122.182.252.357.389.528s.276.3.426.446c.137.12.277.232.424.34.113.072.226.141.342.206.105.049.208.093.316.135.153.05.308.092.464.131s.3.051.45.066c.121.006.24.008.361.008.142-.01.282-.025.423-.046.159-.032.316-.071.474-.115.186-.063.369-.134.548-.211.148-.072.29-.148.431-.232.125-.087.248-.176.369-.271a10.481,10.481,0,0,0,.8-.8c.342-.416.67-.839.99-1.271.155-.208.31-.416.463-.625s.3-.433.474-.635a.9.9,0,0,1,1.279-.141.929.929,0,0,1,1.059.441,7.761,7.761,0,0,1,1.085,3.336,5.991,5.991,0,0,1-.135,1.636,4.838,4.838,0,0,1-.255.811,4.244,4.244,0,0,1-.466.8,3.693,3.693,0,0,1-.568.613,2.6,2.6,0,0,1-.65.433,2.435,2.435,0,0,1-.686.189,1.308,1.308,0,0,1-.161.01A1.8,1.8,0,0,1,193.2,112.253Zm.278-1.835c.018-.008.035-.018.053-.029.041-.029.083-.059.123-.09.077-.07.15-.142.221-.217s.126-.155.185-.235.1-.164.146-.248.081-.183.117-.277c.032-.11.063-.219.088-.331q.047-.254.076-.51.019-.289.016-.579c-.01-.145-.025-.287-.046-.432-.037-.188-.083-.371-.13-.557-.087-.268-.181-.531-.287-.79q-.1.3-.19.612c-.1.342-.182.687-.266,1.033-.042.228-.084.456-.125.684s-.053.433-.076.649-.021.451-.017.679c.009.132.021.261.041.392.009.047.021.093.033.139s.025.07.039.1h0l.005,0Z" transform="translate(-158.624 -38.189)"/>
        <path id="Path_99960_-_Outline" data-name="Path 99960 - Outline" d="M193.389,112.514a2.031,2.031,0,0,1-.215-.012,2.356,2.356,0,0,1-.544-.145,1.5,1.5,0,0,1-.411-.247,1.793,1.793,0,0,1-.29-.3,3.1,3.1,0,0,1-.39-.675,3.225,3.225,0,0,1-.2-.828l0-.017a5.489,5.489,0,0,1-.029-1.1,6.06,6.06,0,0,1-3.526,1.211,5.349,5.349,0,0,1-1.757-.3,5.161,5.161,0,0,1-1.8-1.079,7.018,7.018,0,0,1-1.173-1.371,8.061,8.061,0,0,1-.878-1.866,18.649,18.649,0,0,1-.491-1.819l-.072-.306c-.112-.475-.192-.96-.269-1.43-.216-1.318-.342-2.344-.407-3.324a1.172,1.172,0,0,1,1.033-1.264,1.109,1.109,0,0,1,.114-.006,1.161,1.161,0,0,1,1.16,1.046c.079,1.193.254,2.366.431,3.455.173.884.349,1.748.6,2.6a9.707,9.707,0,0,0,.371,1.006c.1.2.206.4.322.594.111.167.232.331.369.5.133.152.265.29.4.422.13.113.259.217.4.318.123.078.221.137.315.19s.189.084.286.123c.129.042.271.082.432.122s.289.048.417.062c.1.005.2.007.333.008s.264-.024.388-.042c.143-.029.288-.064.443-.108s.339-.122.518-.2c.137-.067.268-.137.4-.215s.237-.169.344-.253a10.257,10.257,0,0,0,.767-.769c.316-.384.636-.795.978-1.255l.017-.023q.223-.3.445-.6l.121-.168c.114-.159.232-.324.362-.479a1.179,1.179,0,0,1,.907-.432,1.136,1.136,0,0,0,.812.166,1.188,1.188,0,0,1,1.028.6,7.906,7.906,0,0,1,1.118,3.446,6.208,6.208,0,0,1-.141,1.7,5.076,5.076,0,0,1-.268.852,4.478,4.478,0,0,1-.493.849,3.9,3.9,0,0,1-.608.656,2.848,2.848,0,0,1-.712.473,2.681,2.681,0,0,1-.755.209A1.57,1.57,0,0,1,193.389,112.514Zm-1.458-4.54-.078.673c-.022.193-.037.367-.046.532a5.227,5.227,0,0,0,.021,1.04l0,.017a2.854,2.854,0,0,0,.165.7,2.526,2.526,0,0,0,.325.568,1.289,1.289,0,0,0,.208.213,1.1,1.1,0,0,0,.266.167,1.947,1.947,0,0,0,.432.119,1.209,1.209,0,0,0,.29,0,2.16,2.16,0,0,0,.614-.168,2.352,2.352,0,0,0,.587-.392,3.417,3.417,0,0,0,.532-.571,4.027,4.027,0,0,0,.439-.752,4.581,4.581,0,0,0,.242-.769,5.709,5.709,0,0,0,.13-1.568,7.416,7.416,0,0,0-1.053-3.227.687.687,0,0,0-.593-.351.637.637,0,0,0-.178.025l-.124.036-.1-.081a.67.67,0,0,0-.231-.122.638.638,0,0,0-.177-.025.681.681,0,0,0-.523.252c-.119.142-.226.292-.34.451l-.124.172q-.222.3-.447.6l-.017.023c-.349.47-.676.888-1,1.28l-.01.011a10.669,10.669,0,0,1-.815.816l-.01.008c-.118.093-.243.185-.381.28l-.014.009c-.148.088-.3.167-.45.242l-.01,0c-.2.084-.381.156-.567.218l-.012,0c-.172.048-.333.087-.492.12l-.012,0c-.142.021-.287.037-.442.048h-.018c-.145,0-.264,0-.375-.009h-.013c-.145-.015-.3-.038-.469-.069l-.015,0c-.18-.044-.337-.089-.482-.136l-.014-.005c-.112-.044-.22-.09-.33-.141l-.017-.009c-.106-.06-.215-.125-.353-.213l-.014-.01c-.152-.112-.3-.228-.44-.353l-.008-.008c-.151-.145-.3-.3-.441-.462l-.007-.008c-.149-.185-.281-.364-.4-.546l-.006-.01c-.126-.209-.243-.425-.348-.642l0-.008a10.192,10.192,0,0,1-.393-1.064l0-.005c-.255-.878-.434-1.757-.61-2.654v-.008c-.179-1.1-.356-2.291-.437-3.506a.662.662,0,0,0-.661-.579.6.6,0,0,0-.062,0,.674.674,0,0,0-.585.733c.064.964.188,1.975.4,3.277.076.461.154.937.262,1.4l.072.307a18.27,18.27,0,0,0,.477,1.771,7.581,7.581,0,0,0,.822,1.752,6.515,6.515,0,0,0,1.088,1.272,4.674,4.674,0,0,0,1.624.979,4.922,4.922,0,0,0,1.536.279h.056a5.558,5.558,0,0,0,3.323-1.18c.112-.088.227-.186.34-.291Zm1.484,2.727-.149-.141-.021-.051c-.015-.037-.03-.076-.044-.117l-.005-.018c-.013-.049-.026-.1-.037-.154l0-.011c-.018-.121-.032-.252-.043-.411v-.013c0-.228,0-.456.018-.7v-.009c.005-.053.01-.106.015-.159.015-.167.031-.339.063-.51l.012-.067c.037-.206.075-.412.113-.617l0-.014.033-.134c.073-.3.148-.606.236-.909.058-.2.121-.4.192-.62l.211-.642.258.624c.1.249.2.513.294.808l0,.015c.053.208.1.383.133.57l0,.012c.021.145.037.293.048.451v.014c0,.2,0,.4-.016.6v.011c-.02.178-.047.356-.078.527l0,.011c-.024.1-.052.209-.092.345l-.006.019c-.041.107-.085.207-.123.291l-.009.018c-.054.1-.1.184-.154.262l-.01.014c-.062.084-.128.168-.2.248l-.01.011c-.079.083-.156.159-.235.23l-.013.011c-.042.034-.088.067-.136.1l-.017.011c-.024.014-.048.027-.071.038l-.068-.127.045.135Zm.2-.931c.005.075.011.142.018.2l.057-.058c.057-.068.113-.138.165-.209s.083-.136.128-.218.07-.157.1-.246c.035-.119.06-.213.081-.3.029-.156.053-.318.071-.481.012-.184.017-.368.015-.546-.01-.141-.024-.272-.043-.4-.034-.17-.074-.334-.124-.529l-.025-.078c-.073.261-.139.529-.2.788l-.031.128c-.038.2-.075.406-.112.608l-.012.068c-.028.15-.042.3-.057.466,0,.053-.01.106-.015.159C193.616,109.348,193.61,109.56,193.613,109.771Z" transform="translate(-158.624 -38.189)"/>
        <path id="Path_99961" data-name="Path 99961" d="M203.143,111.492a1.355,1.355,0,0,1-.643-.247,1.7,1.7,0,0,1-.487-.567,2.957,2.957,0,0,1-.241-.686,4.488,4.488,0,0,1-.067-.949,6.626,6.626,0,0,1,.06-.822c.029-.229.053-.46.09-.687.059-.352.115-.707.189-1.057-.127.06-.257.114-.388.164a3.862,3.862,0,0,1-1.769.2,3.186,3.186,0,0,1-1.321-.493,4.122,4.122,0,0,1-1.183-1.2,9.7,9.7,0,0,1-.971-2.022c-.083-.21-.143-.432-.212-.647s-.127-.4-.183-.606c-.135-.486-.26-.973-.381-1.463-.1-.4-.187-.794-.281-1.191-.1-.427-.214-.85-.306-1.279a.909.909,0,0,1,1.769-.42c.152.709.336,1.412.5,2.117.161.688.343,1.369.531,2.05.179.548.36,1.093.591,1.622.113.241.236.475.37.7.088.135.181.265.281.393.069.077.139.151.214.223s.145.119.219.173c.052.033.1.064.158.093s.1.044.144.064c.081.026.162.049.243.068.053.009.107.018.161.023.071,0,.144.006.216,0s.152-.013.229-.024.159-.033.236-.054c.114-.038.225-.08.335-.126s.216-.111.322-.172a9,9,0,0,0,.742-.553c.14-.119.279-.238.412-.365a1.778,1.778,0,0,1,.39-.314.875.875,0,0,1,.456-.1.856.856,0,0,1,.189-.1.913.913,0,0,1,1.172.527c.16.5.3,1.009.426,1.518.123.487.217.977.3,1.471a6.1,6.1,0,0,1,.057,1.021,5.264,5.264,0,0,1-.346,1.788,3.563,3.563,0,0,1-.791,1.308,1.9,1.9,0,0,1-1.258.63A1,1,0,0,1,203.143,111.492Zm.574-4.072c-.059.353-.108.707-.155,1.062-.02.258-.039.512-.04.771.056-.117.107-.236.153-.358.053-.155.1-.311.141-.47.028-.139.049-.277.065-.418.009-.175.013-.349.011-.525-.013-.211-.036-.42-.066-.628C203.786,107.043,203.748,107.231,203.717,107.421Z" transform="translate(-159.713 -38.105)"/>
        <path id="Path_99961_-_Outline" data-name="Path 99961 - Outline" d="M203.315,111.756a1.241,1.241,0,0,1-.215-.018,1.609,1.609,0,0,1-.755-.3,1.926,1.926,0,0,1-.557-.654,3.2,3.2,0,0,1-.26-.743,4.732,4.732,0,0,1-.073-1,6.837,6.837,0,0,1,.062-.854c.009-.068.017-.137.026-.207.019-.16.039-.324.066-.488l.027-.16c.024-.147.049-.3.076-.447a4.13,4.13,0,0,1-1.849.2,3.394,3.394,0,0,1-1.427-.529,4.329,4.329,0,0,1-1.257-1.266,9.476,9.476,0,0,1-.962-1.98l-.037-.094c-.062-.156-.111-.316-.158-.471-.02-.064-.039-.127-.059-.19-.068-.206-.129-.408-.186-.617-.125-.452-.25-.933-.382-1.47-.063-.256-.124-.516-.182-.768q-.049-.213-.1-.425c-.033-.137-.067-.275-.1-.413-.07-.284-.143-.578-.206-.871a1.175,1.175,0,0,1,.862-1.39,1.122,1.122,0,0,1,.26-.03,1.157,1.157,0,0,1,1.136.895c.094.44.2.888.309,1.32.063.26.129.528.191.793.174.741.372,1.476.527,2.035.179.547.357,1.081.579,1.591.11.234.226.455.355.675.082.126.167.245.26.364.065.073.128.138.19.2s.126.1.192.152c.045.029.089.054.13.077s.072.033.115.051c.073.023.142.042.209.059.038.006.085.014.132.019s.121,0,.184,0,.128-.011.2-.021.136-.028.2-.047c.1-.032.2-.069.3-.114s.193-.1.294-.158a8.833,8.833,0,0,0,.713-.532c.145-.123.275-.234.4-.353l.008-.008a1.945,1.945,0,0,1,.437-.346,1.11,1.11,0,0,1,.5-.134,1.13,1.13,0,0,1,.574-.154,1.142,1.142,0,0,1,1.1.757c.177.554.323,1.11.43,1.533.112.44.208.914.3,1.492a6.319,6.319,0,0,1,.061,1.064,5.525,5.525,0,0,1-.362,1.873,3.775,3.775,0,0,1-.848,1.4A2.138,2.138,0,0,1,203.315,111.756Zm-.923-5.718-.1.492c-.062.292-.112.595-.16.888l-.026.159c-.025.152-.044.312-.063.466-.009.071-.017.141-.026.212a6.339,6.339,0,0,0-.058.792,4.25,4.25,0,0,0,.062.9,2.706,2.706,0,0,0,.221.628,1.438,1.438,0,0,0,.417.479,1.092,1.092,0,0,0,.527.2.762.762,0,0,0,.134.011,1.7,1.7,0,0,0,1.081-.557,3.291,3.291,0,0,0,.733-1.218,5.028,5.028,0,0,0,.331-1.7,5.879,5.879,0,0,0-.054-.979c-.093-.563-.187-1.024-.3-1.45s-.248-.963-.421-1.5a.643.643,0,0,0-.622-.409.628.628,0,0,0-.224.04.613.613,0,0,0-.134.07l-.069.048-.084,0a.633.633,0,0,0-.328.074,1.519,1.519,0,0,0-.326.265l-.009.009c-.136.13-.272.247-.424.376l0,0a9.27,9.27,0,0,1-.762.568l-.013.008c-.115.066-.225.125-.335.179l-.015.007c-.126.052-.241.1-.353.133l-.012,0c-.086.023-.172.043-.256.059l-.01,0c-.088.013-.17.021-.249.026h-.008c-.081,0-.163,0-.238,0H200.2c-.067-.007-.131-.017-.178-.025l-.016,0c-.084-.02-.17-.044-.261-.073l-.018-.006c-.059-.024-.112-.047-.16-.071l-.008,0c-.056-.03-.115-.065-.175-.1l-.012-.008c-.082-.059-.161-.122-.235-.186l-.011-.01c-.075-.072-.149-.15-.227-.237l-.01-.012c-.1-.134-.2-.268-.294-.41l-.006-.01c-.139-.237-.263-.473-.381-.724l0-.006c-.232-.533-.416-1.082-.6-1.644l0-.011c-.156-.564-.357-1.308-.533-2.06-.061-.263-.127-.53-.19-.788-.106-.436-.217-.887-.313-1.334a.663.663,0,0,0-.647-.5.624.624,0,0,0-.145.017.672.672,0,0,0-.488.8c.061.285.133.575.2.856.034.139.069.278.1.417s.067.286.1.428c.058.25.118.509.181.762.131.533.255,1.009.379,1.456.055.2.114.395.18.594.022.067.042.133.062.2.047.152.091.3.145.434l.037.094a9.1,9.1,0,0,0,.907,1.878,3.849,3.849,0,0,0,1.109,1.125,2.906,2.906,0,0,0,1.215.457,4.525,4.525,0,0,0,.462.024,3.383,3.383,0,0,0,1.194-.205c.13-.049.255-.1.369-.156Zm1.356,3.325-.475-.109c0-.265.02-.525.04-.79v-.013c.045-.34.095-.7.156-1.071.034-.205.075-.406.111-.576l.492.015c.033.228.056.441.068.649v.013c0,.182,0,.359-.011.541v.015c-.017.15-.039.294-.068.439l0,.013c-.039.152-.087.312-.147.489l0,.008C203.86,109.115,203.805,109.242,203.747,109.363Z" transform="translate(-159.713 -38.105)"/>
        <path id="Path_99962" data-name="Path 99962" d="M209.439,77.9a13,13,0,0,1-2.933-.458,18.606,18.606,0,0,1-2.839-1.011c-.24-.11-.489-.208-.721-.335l-.74-.407c-.394-.217-.768-.471-1.145-.715-.228-.147-.44-.321-.659-.48-.166-.123-.333-.244-.491-.376l-.726-.6c-.179-.147-.343-.314-.511-.473-.2-.19-.416-.373-.606-.576l-.748-.8c-.372-.4-.72-.819-1.082-1.227-.388-.437-.785-.866-1.183-1.3a10.869,10.869,0,0,1-1.1-1.3.909.909,0,1,1,1.472-1.065c.1.145.208.279.318.414.71.808,1.455,1.584,2.163,2.392.411.47.825.932,1.252,1.389.357.381.743.735,1.125,1.093l.9.749c.135.111.284.208.424.312l.435.319c.291.187.581.373.872.562.141.09.3.164.446.245l.455.25.949.435c.287.132.592.231.889.344l.791.262c.258.085.528.145.792.217.327.071.653.141.985.193.369.056.736.093,1.108.128.463.017.92.025,1.383.022.311-.015.621-.033.932-.058.287-.024.572-.071.856-.119.391-.082.776-.178,1.16-.287a17.123,17.123,0,0,0,1.8-.662c.341-.166.672-.343,1-.539.246-.162.487-.33.719-.512a6.263,6.263,0,0,0,.47-.455c.589-.678,1.108-1.541,2.008-1.831a2.169,2.169,0,0,1,.674-.1,1.188,1.188,0,0,1,1.02.658,2.081,2.081,0,0,1,.163,1.366.922.922,0,0,1-1.036.762.944.944,0,0,1-.709-.562c-.269.322-.525.656-.809.967a6.819,6.819,0,0,1-1.093.954A11.285,11.285,0,0,1,215.323,77c-.448.17-.908.315-1.368.445a14.289,14.289,0,0,1-1.52.334A11.512,11.512,0,0,1,211,77.9c-.237.01-.473.014-.709.014C210.008,77.918,209.724,77.911,209.439,77.9Z" transform="translate(-159.615 -35.714)"/>
        <path id="Path_99962_-_Outline" data-name="Path 99962 - Outline" d="M210.292,78.168c-.254,0-.527-.005-.86-.016a13.181,13.181,0,0,1-2.991-.467,18.778,18.778,0,0,1-2.877-1.025l-.212-.094c-.173-.076-.353-.155-.525-.249l-.74-.407c-.323-.177-.632-.38-.932-.575l-.228-.149c-.161-.1-.313-.22-.461-.331-.07-.053-.14-.106-.21-.157l-.084-.062c-.139-.1-.282-.209-.419-.323l-.726-.6c-.136-.112-.263-.234-.386-.352l-.137-.13-.174-.16c-.148-.135-.3-.276-.444-.427l-.367-.391-.382-.407c-.24-.256-.471-.524-.7-.784-.128-.148-.26-.3-.391-.449-.388-.436-.79-.872-1.18-1.293l-.119-.127a9.836,9.836,0,0,1-1.01-1.207,1.154,1.154,0,0,1,.947-1.827,1.124,1.124,0,0,1,.941.483c.083.124.178.241.279.365l.022.027c.347.395.71.79,1.06,1.171s.739.805,1.1,1.218c.467.534.863.973,1.247,1.382.314.335.659.657.993.968l.115.108.9.744c.079.065.165.126.256.191.053.037.105.075.157.113l.316.231.112.082.089.057c.26.167.518.333.777.5.083.053.176.1.275.153l.155.083.447.245.032.015.908.416c.194.089.4.162.609.24l.26.1.381.126.406.134c.165.054.334.1.514.143l.258.067c.3.064.631.137.964.188.368.056.738.093,1.085.126.481.017.921.024,1.36.022.335-.016.635-.035.918-.057.266-.022.533-.065.829-.115.376-.079.747-.171,1.136-.281a16.711,16.711,0,0,0,1.771-.65c.351-.171.668-.342.968-.524.272-.18.493-.337.693-.494a5.983,5.983,0,0,0,.443-.43c.117-.135.23-.276.35-.426a3.908,3.908,0,0,1,1.767-1.476,2.408,2.408,0,0,1,.741-.115h.01a1.437,1.437,0,0,1,1.238.787,2.309,2.309,0,0,1,.189,1.535,1.154,1.154,0,0,1-2.014.575l-.038.047c-.179.221-.365.449-.562.665a7.036,7.036,0,0,1-1.133.989,11.486,11.486,0,0,1-2.6,1.347c-.42.159-.874.307-1.389.452a14.427,14.427,0,0,1-1.546.339,11.584,11.584,0,0,1-1.466.132C210.79,78.163,210.554,78.168,210.292,78.168Zm-15.6-11.513a.654.654,0,0,0-.532,1.048,9.461,9.461,0,0,0,.961,1.145l.12.129c.391.423.8.86,1.187,1.3.134.151.267.3.4.454.221.256.449.52.682.769l.382.408.366.391c.129.138.268.265.416.4l.179.165.141.134c.122.117.236.227.359.328l.727.6c.127.106.258.2.4.306l.083.062c.071.052.143.106.215.161.147.111.285.216.43.31l.23.15c.292.191.593.388.9.556l.74.407c.152.084.314.155.485.229l.219.1a18.284,18.284,0,0,0,2.8,1,12.677,12.677,0,0,0,2.876.449c.326.011.595.015.843.015s.484,0,.7-.014a11.145,11.145,0,0,0,1.4-.126,13.946,13.946,0,0,0,1.493-.327c.5-.142.943-.285,1.348-.438a11,11,0,0,0,2.486-1.288,6.542,6.542,0,0,0,1.053-.919c.187-.205.368-.427.543-.642.086-.105.171-.211.258-.315l.263-.315.159.378a.7.7,0,0,0,.516.412.671.671,0,0,0,.753-.563,1.832,1.832,0,0,0-.136-1.2.932.932,0,0,0-.8-.529h-.007a1.914,1.914,0,0,0-.589.091,3.54,3.54,0,0,0-1.529,1.313c-.118.148-.241.3-.365.444l-.006.006a6.472,6.472,0,0,1-.489.473l-.01.008c-.213.168-.447.334-.736.524l-.008.005c-.315.191-.648.371-1.016.55l-.009,0a17.187,17.187,0,0,1-1.831.672l-.006,0c-.4.114-.787.209-1.177.291l-.01,0c-.31.052-.589.1-.877.121s-.6.042-.94.059h-.01c-.451,0-.9,0-1.393-.022H209.3c-.357-.034-.738-.071-1.122-.13-.351-.055-.7-.129-1-.2l-.013,0-.257-.067c-.18-.046-.366-.093-.547-.153l-.406-.134-.387-.128-.01,0-.258-.1c-.213-.077-.434-.158-.647-.255l-.908-.416-.058-.027-.454-.249-.146-.078c-.1-.054-.212-.11-.315-.176-.26-.169-.518-.335-.776-.5l-.108-.07-.118-.087-.315-.231c-.051-.038-.1-.073-.15-.108-.094-.067-.192-.136-.286-.213l-.913-.76-.12-.112c-.34-.317-.691-.645-1.016-.992-.387-.413-.787-.857-1.258-1.395-.357-.408-.731-.815-1.093-1.209s-.718-.782-1.07-1.183l-.031-.038c-.1-.127-.211-.259-.307-.4A.625.625,0,0,0,194.69,66.655Z" transform="translate(-159.615 -35.714)"/>
        <path id="Path_99963" data-name="Path 99963" d="M220.961,76.4a1.462,1.462,0,0,1-.677-.76,2.282,2.282,0,0,1-.161-.877.915.915,0,0,1,.93-.887.874.874,0,0,1,.381.095c.016-.053.031-.107.046-.16a.907.907,0,0,1,1.8.2,2.869,2.869,0,0,1-.238.861,7.129,7.129,0,0,1-.412.873,1.42,1.42,0,0,1-1.189.772A1.049,1.049,0,0,1,220.961,76.4Z" transform="translate(-161.686 -36.239)"/>
        <path id="Path_99963_-_Outline" data-name="Path 99963 - Outline" d="M221.44,76.768a1.3,1.3,0,0,1-.591-.14,1.706,1.706,0,0,1-.794-.886,2.491,2.491,0,0,1-.181-.971,1.094,1.094,0,0,1,.326-.785,1.179,1.179,0,0,1,.86-.356,1.135,1.135,0,0,1,.206.023,1.152,1.152,0,0,1,1.95-.451,1.128,1.128,0,0,1,.314.819,2.694,2.694,0,0,1-.216.839l-.038.1a7.384,7.384,0,0,1-.426.9A1.656,1.656,0,0,1,221.44,76.768Zm-.406-2.638a.681.681,0,0,0-.479.207.6.6,0,0,0-.182.427,2.018,2.018,0,0,0,.141.783,1.231,1.231,0,0,0,.559.634.8.8,0,0,0,.366.087,1.168,1.168,0,0,0,.968-.641,6.945,6.945,0,0,0,.4-.842l.039-.1a2.286,2.286,0,0,0,.184-.681.632.632,0,0,0-.178-.457.667.667,0,0,0-.465-.213h-.017a.665.665,0,0,0-.643.534l0,.016c-.015.055-.031.109-.047.164l-.085.289-.268-.136a.625.625,0,0,0-.273-.068Z" transform="translate(-161.686 -36.239)"/>
        <path id="Path_99964" data-name="Path 99964" d="M165.664,83.653a6.413,6.413,0,0,1-2.512-1.815,14.751,14.751,0,0,1-.976-1.206c-.176-.249-.346-.5-.5-.768a2.235,2.235,0,0,1-.451.457,1.931,1.931,0,0,1-1.392.41,1.577,1.577,0,0,1-1.132-.79,3.012,3.012,0,0,1,.359-2.917,2.106,2.106,0,0,1,1.106-.941,1.589,1.589,0,0,1,1.367.208,3.648,3.648,0,0,1,1.109,1.533c.2.393.408.781.628,1.165.139.219.281.434.431.646s.3.4.455.591c.261.3.52.592.8.869.172.152.35.3.536.43.14.091.282.179.427.26s.281.129.426.184c.164.054.329.1.5.144s.322.057.486.076c.142.007.283.01.425.009s.3-.027.451-.05c.13-.025.258-.056.385-.089.183-.06.359-.129.535-.206.2-.1.387-.2.576-.314a10.49,10.49,0,0,0,.895-.656c.479-.41.909-.86,1.346-1.313a13.58,13.58,0,0,0,.939-1.166,17.074,17.074,0,0,0,.879-1.479c.379-.757.752-1.515,1.1-2.287q.575-1.267,1.154-2.535,1.114-2.449,2.075-4.964c.078-.222.157-.442.234-.663a5.548,5.548,0,0,1,.309-.846.908.908,0,0,1,1.588.877l.019-.039.026-.071c-.008.023-.016.046-.025.068l0-.007-.013.034c-.3.864-.594,1.728-.941,2.574-.38.931-.763,1.859-1.172,2.778s-.837,1.854-1.257,2.78q-.325.715-.654,1.426c-.218.472-.45.935-.683,1.4a15.13,15.13,0,0,1-1.677,2.687c-.254.318-.529.618-.811.91-.214.222-.424.449-.647.662a8.727,8.727,0,0,1-3.111,2.035,5.01,5.01,0,0,1-1.647.272A5.605,5.605,0,0,1,165.664,83.653Z" transform="translate(-156.838 -35.619)"/>
        <path id="Path_99964_-_Outline" data-name="Path 99964 - Outline" d="M167.636,84.267a5.893,5.893,0,0,1-2.061-.38A6.621,6.621,0,0,1,162.964,82a15.08,15.08,0,0,1-.992-1.227c-.117-.166-.228-.33-.331-.49a2.041,2.041,0,0,1-.273.239,2.174,2.174,0,0,1-1.576.454,1.837,1.837,0,0,1-1.316-.92,3.308,3.308,0,0,1,.366-3.162,2.363,2.363,0,0,1,1.237-1.048,1.841,1.841,0,0,1,1.583.232,3.41,3.41,0,0,1,1.106,1.449l.092.181c.234.455.431.821.62,1.15.149.235.287.441.421.631s.268.357.415.539l.028.035c.248.283.5.576.783.846.171.15.337.284.508.408.145.095.277.175.4.244s.253.116.394.17.3.092.467.135c.149.03.3.053.452.07.115.006.231.009.352.009h.043c.14-.01.28-.025.418-.046s.258-.057.357-.083c.161-.053.325-.116.5-.193s.363-.187.548-.3a10.2,10.2,0,0,0,.867-.636c.454-.389.857-.808,1.284-1.251l.038-.04a13.3,13.3,0,0,0,.917-1.139,16.678,16.678,0,0,0,.863-1.452c.361-.722.743-1.5,1.1-2.275q.575-1.268,1.154-2.535c.749-1.647,1.445-3.311,2.068-4.946l.077-.218q.078-.221.156-.442c.029-.082.055-.165.082-.254a3.282,3.282,0,0,1,.244-.63,1.13,1.13,0,0,1,1-.567,1.153,1.153,0,0,1,.594.161,1.165,1.165,0,0,1,.492,1.379h0l-.007.018c-.005.015-.011.03-.016.045h0l-.012.031-.036.1c-.282.817-.574,1.662-.908,2.48-.344.844-.747,1.825-1.175,2.785-.321.721-.653,1.45-.974,2.156l-.284.625c-.252.555-.46,1.009-.655,1.428-.218.471-.449.934-.686,1.407a15.2,15.2,0,0,1-1.705,2.731c-.229.286-.492.581-.826.928l-.154.161c-.161.168-.327.342-.5.508a8.871,8.871,0,0,1-3.2,2.091A5.249,5.249,0,0,1,167.636,84.267ZM161.7,79.42l.189.315c.145.241.31.494.493.752a14.645,14.645,0,0,0,.96,1.186,6.129,6.129,0,0,0,2.412,1.746,5.388,5.388,0,0,0,1.884.348,4.75,4.75,0,0,0,1.564-.258,8.389,8.389,0,0,0,3.02-1.979c.165-.158.327-.328.484-.493l.156-.163c.324-.335.576-.619.8-.893a14.721,14.721,0,0,0,1.649-2.643c.235-.468.464-.927.679-1.392.194-.418.4-.871.653-1.425l.284-.625c.32-.705.652-1.434.972-2.153.424-.953.826-1.93,1.169-2.771.33-.805.619-1.643.9-2.454L180,66.4l0,0a.672.672,0,0,0-.244-.869.654.654,0,0,0-.337-.09.631.631,0,0,0-.562.308,2.865,2.865,0,0,0-.2.537c-.028.089-.056.182-.088.272q-.077.221-.156.443l-.08.226c-.627,1.646-1.327,3.321-2.081,4.978q-.578,1.267-1.154,2.535c-.357.787-.742,1.568-1.106,2.3l0,.006a17.157,17.157,0,0,1-.892,1.5l0,.005a13.8,13.8,0,0,1-.956,1.188l-.048.05c-.417.433-.849.881-1.322,1.286l-.005,0a10.694,10.694,0,0,1-.916.672l-.007,0c-.2.122-.4.228-.6.325l-.009,0c-.2.086-.378.156-.558.215l-.014,0c-.108.028-.252.064-.4.093l-.009,0c-.156.024-.315.042-.473.052H167.7c-.133,0-.259,0-.386-.01H167.3c-.174-.02-.34-.045-.508-.079l-.013,0c-.185-.047-.352-.1-.513-.149l-.011,0c-.159-.061-.3-.124-.446-.193L165.8,82c-.138-.077-.283-.165-.442-.269l-.01-.007c-.187-.135-.369-.281-.555-.445l-.009-.008c-.3-.287-.561-.59-.818-.883l-.039-.048c-.145-.181-.294-.367-.433-.563s-.283-.412-.438-.656l-.006-.009c-.194-.338-.4-.711-.634-1.175l-.094-.184A3,3,0,0,0,161.4,76.5a1.344,1.344,0,0,0-1.152-.184,1.844,1.844,0,0,0-.973.833,2.84,2.84,0,0,0-.353,2.672,1.322,1.322,0,0,0,.949.659,1.211,1.211,0,0,0,.182.014,1.849,1.849,0,0,0,1.028-.38,1.964,1.964,0,0,0,.4-.406Z" transform="translate(-156.838 -35.619)"/>
        <path id="Path_99965" data-name="Path 99965" d="M221.285,76.3a1.534,1.534,0,0,1-.817-.918,2.52,2.52,0,0,1-.049-1.242,3.475,3.475,0,0,1,.355-1.072,1.072,1.072,0,0,1,.815-.637.92.92,0,0,1,1,.772.873.873,0,0,1,.436-.248.914.914,0,0,1,1.095.674,2.584,2.584,0,0,1-.466,1.972,2.022,2.022,0,0,1-1.03.755,2.1,2.1,0,0,1-.605.094A1.829,1.829,0,0,1,221.285,76.3Zm1.041-2.264c-.038.111-.072.222-.1.335-.008.041-.015.084-.021.125.013-.02.025-.042.038-.064s.027-.062.04-.092c.017-.057.032-.114.047-.17.005-.034.009-.067.014-.1V74.03l0-.027Z" transform="translate(-161.705 -36.187)"/>
        <path id="Path_99965_-_Outline" data-name="Path 99965 - Outline" d="M222.011,76.7a2.085,2.085,0,0,1-.825-.17,1.772,1.772,0,0,1-.955-1.065,2.8,2.8,0,0,1-.059-1.365,3.722,3.722,0,0,1,.382-1.151,1.3,1.3,0,0,1,1.01-.766,1.178,1.178,0,0,1,1.148.62,1.149,1.149,0,0,1,.25-.09,1.115,1.115,0,0,1,.257-.03,1.157,1.157,0,0,1,1.141.9,2.818,2.818,0,0,1-.511,2.168,2.273,2.273,0,0,1-1.158.845A2.365,2.365,0,0,1,222.011,76.7Zm-.337-4.023c-.021,0-.042,0-.063,0a.817.817,0,0,0-.619.508,3.211,3.211,0,0,0-.327.993,2.256,2.256,0,0,0,.038,1.12,1.29,1.29,0,0,0,.679.77,1.588,1.588,0,0,0,.629.13,1.865,1.865,0,0,0,.534-.083,1.777,1.777,0,0,0,.9-.664,2.342,2.342,0,0,0,.422-1.776.662.662,0,0,0-.65-.494.632.632,0,0,0-.454.193l-.238.25.067.39,0,.088,0,.032c0,.025-.006.05-.011.076l-.005.024c-.015.058-.032.117-.049.177l-.01.028-.01.023c-.011.025-.021.05-.032.075l-.014.027-.013.023-.027.045-.458-.173v-.008c.007-.042.013-.085.022-.127l0-.014c.029-.112.064-.227.107-.353l.017-.043.241-.593-.012-.08A.667.667,0,0,0,221.675,72.673Z" transform="translate(-161.705 -36.187)"/>
        <path id="Path_99966" data-name="Path 99966" d="M185.577,124.069c-.3-.006-.6,0-.9-.02l-1.186-.059c-.342-.017-.684-.047-1.025-.071-.638-.044-1.274-.105-1.911-.161-.363-.031-.726-.081-1.088-.123-.266-.029-.529-.065-.793-.105-.316-.047-.636-.084-.949-.144l-1.189-.227c-.309-.059-.615-.135-.922-.2-.264-.059-.527-.118-.789-.182L173.7,122.5c-.346-.086-.689-.2-1.032-.292-.267-.076-.527-.16-.79-.25-.3-.1-.6-.19-.889-.309-.344-.14-.688-.282-1.033-.421-.125-.052-.248-.118-.37-.177l-.632-.3c-.28-.134-.548-.291-.82-.44l-.473-.26c-.088-.049-.171-.108-.255-.161l-.923-.592c-.11-.07-.211-.156-.315-.234l-.588-.442c-.078-.059-.161-.114-.236-.179l-.416-.357c-.232-.2-.469-.393-.693-.6l-.844-.791c-.084-.077-.162-.162-.243-.244l-.517-.521c-.2-.2-.383-.405-.571-.612l-.426-.467c-.166-.182-.321-.373-.476-.566a13.432,13.432,0,0,1-1.491-2.291c-.15-.293-.3-.592-.422-.9l-.213-.529c-.11-.272-.228-.542-.324-.819l-.409-1.178c-.1-.288-.182-.583-.274-.874-.082-.266-.168-.53-.24-.8-.108-.406-.217-.813-.326-1.219-.076-.285-.125-.579-.185-.867s-.128-.561-.166-.846c-.055-.416-.111-.831-.167-1.248-.038-.28-.053-.565-.077-.847-.027-.3-.065-.61-.078-.915-.018-.4-.037-.8-.055-1.2-.012-.247-.027-.494-.028-.742,0-.677-.009-1.354.013-2.031q.019-.621.04-1.243c.009-.292.036-.583.055-.874s.032-.609.06-.913c.037-.392.072-.783.108-1.176.022-.242.041-.486.07-.728q.077-.647.156-1.294c.079-.652.186-1.3.286-1.949.08-.522.181-1.04.271-1.56s.2-1.04.3-1.559c.192-.973.411-1.94.627-2.908v-.006l-.009.04.018-.078,0,.008c.114-.532.229-1.061.344-1.593.053-.241.1-.484.162-.722l.105-.424c.016-.065.038-.13.057-.194a1.591,1.591,0,0,1,.076-.229.454.454,0,1,1,.834.361.5.5,0,0,0-.03.084c.006-.018.013-.037.02-.055-.129.437-.228.879-.327,1.322l0-.01c-.123.572-.246,1.145-.371,1.717l.006-.024c-.091.428-.186.854-.281,1.282l.006-.033c-.123.575-.25,1.15-.364,1.728-.082.411-.162.821-.243,1.231-.057.289-.1.58-.153.87s-.106.578-.15.869q-.1.618-.189,1.237c-.1.662-.172,1.33-.252,2-.076.637-.119,1.278-.179,1.916-.03.47-.062.941-.091,1.411-.024.372-.031.745-.043,1.118s-.028.743-.028,1.114c0,.493,0,.986,0,1.478h0c.021.426.04.851.059,1.277.016.341.042.678.071,1.017l.072.828c.009.105.017.209.03.313.06.441.118.883.178,1.324.1.484.2.968.3,1.452.016.07.037.138.055.206.047.174.093.347.14.521.065.242.13.486.2.727-.006-.018-.011-.037-.017-.055.122.387.24.775.36,1.163.093.3.2.594.3.89s.2.592.319.884c.17.425.332.854.521,1.271l-.025-.054a14.551,14.551,0,0,0,.833,1.56,14.957,14.957,0,0,0,1.091,1.488l-.04-.047c.26.311.538.6.81.9.2.218.4.428.61.638s.429.441.653.652c.271.252.54.506.81.759l.98.84c.047.041.1.076.151.114l.388.292.521.391c.371.24.745.478,1.118.717.044.029.092.051.137.076l.418.229.578.317,1.084.516c.164.076.337.137.5.206l.608.247.592.2c.194.066.39.143.588.2l.7.2c.216.06.43.128.647.182l1.38.343c.445.11.895.2,1.342.3l-.057-.012.675.129c.209.04.419.088.63.119l.77.116c.192.029.383.063.577.085.474.053.947.118,1.422.159l1.421.125,1.378.1c.21.015.421.021.631.031.23.012.461.03.691.034l.728.014c.207,0,.417.018.625.011l1.386-.045,1.506-.132c.236-.021.471-.064.7-.1l.734-.1,1.1-.2c.292-.053.58-.123.87-.19s.58-.13.866-.21l1.075-.3,1.321-.439c.07-.023.138-.055.206-.082l.454-.182.639-.256,1.2-.574c.045-.022.089-.051.134-.076l.406-.231.568-.322.955-.635c.07-.047.135-.1.2-.149.2-.152.4-.306.6-.458.234-.182.468-.361.7-.548l.978-.8.743-.629c.218-.185.422-.387.63-.583.184-.175.368-.346.542-.532l.7-.753.683-.816c.175-.21.337-.428.5-.646s.346-.451.51-.684l.578-.827c.609-.922,1.227-1.84,1.8-2.787.3-.5.6-1,.887-1.5.275-.485.535-.975.8-1.466.379-.752.749-1.508,1.084-2.28.183-.425.357-.85.528-1.281.143-.357.273-.719.4-1.08.133-.413.27-.824.387-1.241.14-.5.272-1.009.4-1.516.218-.863.4-1.735.6-2.6.064-.3.131-.6.2-.895l-.012.057q.408-1.888.717-3.793c.21-1.3.368-2.6.529-3.907q.169-1.377.341-2.754c.112-.889.219-1.78.3-2.673l0,.041,0-.042v0c.174-2.158.314-4.321.377-6.487a.454.454,0,0,1,.909.021c-.038,1.291-.1,2.581-.189,3.87q-.065,1-.137,2c-.049.663-.117,1.325-.191,1.987s-.161,1.308-.243,1.962c-.076.61-.15,1.219-.226,1.829-.158,1.281-.3,2.568-.5,3.842-.136.839-.271,1.681-.438,2.515q-.263,1.32-.55,2.634l.007-.034c-.13.6-.268,1.205-.411,1.806-.152.64-.3,1.284-.477,1.919s-.351,1.262-.577,1.877c-.111.3-.217.609-.336.908s-.241.626-.374.932c-.269.622-.535,1.247-.838,1.853-.158.316-.316.633-.475.948s-.345.649-.517.973c-.3.557-.624,1.1-.95,1.642s-.648,1.06-.984,1.581c-.175.271-.348.545-.527.814-.2.295-.385.593-.589.884l-.651.932c-.187.267-.392.522-.589.783-.173.229-.353.449-.537.67-.2.243-.4.494-.617.725q-.412.441-.825.881c-.064.068-.134.129-.2.193l-.521.493c-.22.208-.451.4-.682.6s-.439.371-.662.554c-.319.26-.639.522-.959.783-.244.2-.5.386-.749.579-.217.168-.43.34-.659.491q-.278.185-.557.369c-.127.085-.251.179-.383.253l-.96.545c-.247.139-.5.255-.758.378s-.525.264-.8.372l-1.154.461c-.278.111-.57.2-.855.289-.264.088-.526.179-.794.252l-1.134.316c-.093.027-.189.045-.283.066l-.706.163c-.264.061-.528.112-.8.16-.32.059-.639.13-.961.174l-1.218.167c-.264.036-.531.057-.8.08l-.676.059c-.11.01-.219.022-.33.026l-1.178.039c-.106,0-.211,0-.317,0C185.909,124.076,185.744,124.072,185.577,124.069Z" transform="translate(-156.7 -36.391)"/>
        <path id="Path_99966_-_Outline" data-name="Path 99966 - Outline" d="M186.075,124.326c-.134,0-.269,0-.4,0l-.1,0-.252,0c-.216,0-.439-.005-.661-.017l-.593-.029-.592-.029c-.236-.011-.475-.03-.706-.047l-.325-.024c-.5-.035-1.01-.08-1.5-.125l-.415-.037c-.255-.022-.513-.053-.762-.084l-.332-.04c-.243-.027-.5-.061-.8-.106l-.29-.041c-.219-.03-.446-.062-.669-.1l-.788-.15-.4-.076c-.22-.042-.44-.093-.653-.141l-.277-.063c-.261-.058-.53-.119-.794-.184l-.021-.005-1.1-.273c-.234-.058-.468-.127-.693-.193l-.347-.1c-.3-.084-.586-.18-.8-.254l-.266-.088c-.21-.068-.426-.139-.638-.226l-.351-.143-.681-.277c-.1-.04-.187-.085-.274-.128l-.111-.055-.631-.3c-.212-.1-.417-.215-.615-.326l-.217-.12-.473-.26c-.07-.039-.134-.081-.2-.121l-.074-.048-.924-.593c-.086-.055-.164-.116-.24-.175l-.09-.069-.588-.442-.071-.052c-.058-.042-.118-.086-.178-.137l-.184-.158-.232-.2-.163-.139c-.178-.151-.362-.307-.538-.473l-.844-.791c-.062-.057-.122-.119-.18-.179l-.07-.072-.517-.52c-.177-.178-.347-.365-.511-.546l-.208-.228-.285-.313c-.175-.193-.34-.4-.485-.576a13.7,13.7,0,0,1-1.519-2.333c-.172-.336-.311-.62-.432-.919l-.213-.529c-.03-.073-.06-.147-.09-.22-.081-.2-.166-.4-.238-.61l-.409-1.178c-.068-.2-.128-.4-.187-.589-.03-.1-.059-.2-.09-.293l-.059-.19c-.063-.2-.128-.409-.184-.617q-.107-.4-.215-.8l-.111-.415c-.056-.21-.1-.424-.139-.63-.016-.084-.033-.167-.05-.251s-.032-.149-.048-.223c-.045-.207-.092-.422-.121-.64s-.055-.41-.082-.615-.057-.421-.085-.633-.043-.4-.058-.6c-.007-.086-.013-.171-.021-.257s-.018-.191-.028-.287c-.021-.208-.042-.424-.052-.64q-.018-.4-.037-.809l-.024-.518c-.01-.205-.021-.417-.022-.629,0-.155,0-.308,0-.462,0-.516,0-1.05.014-1.578q.01-.308.02-.618t.02-.625c.007-.211.022-.422.037-.626.006-.086.013-.171.018-.257s.011-.183.016-.275c.012-.21.024-.428.044-.644q.038-.4.074-.8l.034-.371q.008-.091.016-.183c.016-.181.032-.368.055-.552q.039-.325.078-.651t.077-.642c.063-.521.145-1.044.224-1.551q.032-.2.063-.406c.054-.352.118-.707.18-1.05.031-.172.062-.343.092-.515.064-.37.139-.742.212-1.1q.047-.231.093-.462c.17-.865.366-1.739.554-2.584l.066-.3h0l.015-.069q.085-.4.171-.791t.173-.8l.033-.154c.041-.189.083-.385.131-.577l.1-.423c.013-.053.028-.1.044-.152l.017-.054.006-.022a1.612,1.612,0,0,1,.083-.241.714.714,0,0,1,.648-.419.69.69,0,0,1,.277.058.711.711,0,0,1,.376.4.687.687,0,0,1-.01.53h0c-.124.419-.222.855-.316,1.277l0,.017h0l-.1.476q-.131.608-.263,1.217h0c-.087.406-.178.817-.266,1.215l-.015.069h0l-.059.276c-.1.463-.2.941-.3,1.413q-.08.4-.157.8l-.086.435c-.036.18-.067.365-.1.544-.018.107-.036.214-.055.321-.015.084-.03.169-.045.253-.036.2-.073.406-.1.609q-.093.6-.184,1.2l0,.033c-.077.5-.138,1.023-.2,1.524q-.027.232-.055.465c-.05.416-.086.843-.121,1.256-.018.217-.037.434-.057.651l-.03.46q-.031.473-.061.946c-.018.287-.027.581-.036.866q0,.122-.007.244l-.007.213c-.01.293-.02.6-.02.893v.5q0,.487,0,.974.024.479.045.958l.014.314c.013.291.035.6.07,1.007l.078.9c.007.081.013.158.023.234q.045.332.089.666t.087.648c.051.239.1.479.149.718s.1.483.151.725c.009.039.021.081.033.126l.019.067.058.217.082.3.088.327q.053.2.107.4.129.412.256.824l.085.276c.079.254.169.512.257.762l.042.12.06.174c.08.231.163.47.254.7q.064.16.127.32c.119.3.242.613.376.911a14.18,14.18,0,0,0,.807,1.507,14.607,14.607,0,0,0,1.071,1.46c.179.212.371.42.557.621l.206.225c.2.22.407.432.6.63l.172.174c.154.157.314.32.475.472q.308.287.615.577l.19.179.976.836c.024.02.052.041.083.063l.057.042.388.292.191.144.321.241.772.5.338.216c.02.013.045.026.072.04l.052.027.418.229.3.162.275.151,1.064.507.013.006c.1.045.2.086.31.128l.183.073.3.121.3.122.584.2.189.066c.134.048.26.093.388.129l.346.1.351.1.243.07c.13.038.265.078.4.111l1.38.343c.3.074.61.14.909.2l.387.083.311.059.34.065.207.041c.136.028.277.056.413.076l.771.116.181.028c.128.02.259.041.387.056l.461.054c.313.038.637.077.954.1l.706.062.715.063.029,0,1.344.093c.143.01.289.016.431.022l.2.009.214.012c.155.009.315.019.469.022l.729.014.211.006c.133,0,.269.009.4.005l1.4-.047,1.476-.129c.15-.013.3-.036.457-.061l.235-.035.37-.051.359-.049,1.093-.2c.234-.043.472-.1.7-.151l.327-.075c.236-.054.46-.105.685-.168l.419-.117.651-.181.448-.149.867-.288c.036-.012.074-.028.115-.045l.079-.032.453-.181.318-.127.312-.125,1.1-.526.095-.045c.018-.009.043-.023.068-.039l.05-.029.2-.115.2-.116.561-.318.373-.248.574-.382c.065-.043.128-.092.187-.138l.253-.195.345-.265.1-.078c.2-.151.4-.307.59-.465l.976-.8.741-.628c.159-.135.316-.284.467-.429l.153-.145.061-.058c.165-.156.32-.3.47-.463l.352-.376.347-.371.668-.8.01-.012c.16-.192.307-.388.463-.595l.132-.174c.135-.177.275-.36.4-.543l.576-.825.279-.422c.507-.765,1.031-1.556,1.511-2.354l.045-.074c.28-.465.569-.945.839-1.424.253-.447.5-.909.738-1.355l.055-.1c.336-.667.727-1.458,1.076-2.265.167-.388.339-.8.525-1.273.123-.308.239-.626.351-.934l.049-.135.074-.229c.106-.327.215-.665.309-1,.126-.455.253-.935.4-1.509.162-.639.308-1.3.45-1.93q.075-.334.15-.668c.046-.213.094-.429.141-.644l.055-.249h0c.266-1.239.5-2.491.7-3.723.2-1.211.349-2.45.5-3.648l.031-.249c.132-1.074.24-1.949.341-2.755.1-.785.213-1.715.3-2.666h0v-.01h0c.2-2.485.32-4.539.375-6.464a.71.71,0,0,1,.7-.686h.018a.71.71,0,0,1,.494.221.693.693,0,0,1,.193.5c-.036,1.214-.1,2.482-.189,3.879-.041.63-.086,1.283-.137,2s-.13,1.447-.192,2c-.052.468-.113.942-.172,1.4q-.036.282-.072.565-.07.555-.137,1.108-.044.36-.089.72-.055.445-.108.891c-.117.972-.237,1.977-.4,2.961l-.024.147c-.127.78-.257,1.587-.415,2.377-.185.93-.365,1.79-.549,2.628h0c-.118.545-.251,1.13-.407,1.786l-.066.277c-.128.543-.261,1.1-.414,1.652l-.013.047c-.17.61-.346,1.24-.57,1.848q-.05.136-.1.272c-.076.211-.155.429-.24.642-.041.1-.08.2-.12.3-.082.209-.166.424-.257.635l-.067.156c-.244.564-.5,1.148-.776,1.709-.158.316-.316.634-.475.949-.112.222-.232.443-.347.657q-.087.16-.172.321c-.29.544-.605,1.071-.957,1.654s-.671,1.1-.988,1.588l-.157.245c-.121.188-.245.382-.371.572l-.17.259c-.136.207-.276.422-.422.63l-.65.931c-.129.185-.267.364-.4.537-.065.084-.13.168-.193.253-.182.241-.369.469-.545.68l-.161.194c-.148.18-.3.367-.467.542q-.411.44-.825.881c-.051.055-.1.1-.156.151l-.056.052-.522.493c-.2.187-.406.363-.607.533l-.217.183c-.174.147-.354.3-.534.445l-.415.339-.545.445c-.168.137-.343.27-.513.4l-.242.184-.128.1c-.174.136-.355.276-.546.4l-.011.007-.546.362-.114.078c-.09.063-.183.127-.284.184l-.584.332-.375.213c-.2.114-.408.212-.608.307l-.165.079-.233.113c-.187.092-.38.186-.58.266l-.49.2-.664.265c-.209.084-.424.152-.632.218l-.238.077-.1.034c-.229.077-.465.156-.705.222l-1.134.316c-.074.021-.15.038-.222.053l-.072.016-.7.163c-.285.065-.567.119-.806.163l-.291.056c-.222.043-.451.088-.68.12l-.605.083-.613.084c-.241.033-.484.054-.719.074l-.089.008-.618.054-.116.01c-.092.009-.188.018-.286.021l-1.179.039C186.276,124.324,186.173,124.326,186.075,124.326ZM158.938,82.8l0,.02-.074.33c-.188.842-.382,1.712-.552,2.572q-.046.232-.093.464c-.072.357-.147.726-.21,1.089-.03.173-.061.346-.092.518-.061.34-.125.692-.178,1.037q-.031.2-.063.407c-.078.5-.159,1.022-.221,1.534q-.038.321-.077.642t-.078.651c-.022.177-.037.359-.053.536q-.008.093-.016.185l-.034.371q-.037.4-.074.805c-.019.207-.031.42-.043.626-.005.093-.011.186-.017.279s-.012.174-.019.261c-.015.2-.03.4-.036.605s-.013.417-.02.625-.013.412-.02.618c-.017.519-.015,1.048-.014,1.56q0,.231,0,.463c0,.2.011.406.021.605l.025.519q.019.405.037.811c.009.2.029.41.05.611.01.1.02.2.028.293s.014.175.021.262c.015.19.03.386.055.573q.042.317.085.632t.082.616c.026.2.069.393.114.6.017.076.033.152.049.229s.034.17.051.256c.039.2.079.4.131.6l.111.415q.108.4.215.8c.054.2.117.4.179.6l.059.19c.031.1.061.2.091.3.057.189.116.383.18.57l.409,1.177c.068.195.15.393.228.584.031.075.061.149.092.224l.213.529c.113.281.247.554.413.877a13.2,13.2,0,0,0,1.463,2.247c.141.175.3.372.467.555l.284.312.209.229c.161.177.327.359.5.53l.517.521.074.076c.055.057.108.111.162.161l.845.793c.167.158.346.31.519.456l.165.141.232.2.185.159c.044.038.093.073.145.111l.079.058.588.442.1.075c.07.054.136.106.2.148l.924.593.079.052c.057.037.11.072.163.1l.471.259.22.122c.192.107.39.217.587.311l.632.3.119.059c.083.041.161.081.239.113l.681.278.351.143c.2.08.394.145.6.213l.272.09c.211.072.49.164.777.246.117.033.235.068.352.1.22.065.448.132.672.188l1.1.273.021.005c.258.064.525.123.782.181l.28.064c.209.048.424.1.635.138l.4.076.789.151c.21.04.43.071.643.1l.3.042c.3.045.547.078.784.1l.337.04c.245.03.5.061.746.082l.416.037c.489.044.994.089,1.491.124l.328.024c.228.017.463.035.693.046l.593.029.593.029c.213.011.431.014.642.016l.255,0,.1,0c.128,0,.261,0,.39,0,.094,0,.193,0,.31,0l1.177-.039c.083,0,.166-.011.255-.019l.12-.011.616-.054.09-.008c.229-.02.466-.04.694-.071l.612-.084.606-.083c.215-.03.437-.073.652-.115l.3-.057c.234-.043.51-.095.784-.158l.705-.163.078-.017c.068-.015.132-.029.192-.046l1.136-.316c.228-.063.447-.136.68-.214l.1-.034.244-.079c.2-.063.405-.129.6-.206l.665-.266.49-.2c.182-.073.359-.159.545-.251l.238-.115.166-.079c.2-.1.391-.186.577-.29l.374-.213.586-.333c.081-.046.16-.1.244-.159l.123-.085.545-.362.012-.008c.176-.116.341-.245.515-.381l.129-.1.245-.187c.166-.126.337-.256.5-.388l.544-.444.415-.339c.177-.145.355-.3.528-.44l.216-.182c.2-.166.4-.337.587-.515l.521-.493.06-.056c.047-.043.091-.084.13-.125q.414-.44.825-.881c.154-.164.3-.344.445-.518l.163-.2c.171-.206.354-.428.529-.66.065-.086.13-.171.2-.257.13-.169.265-.344.387-.519l.65-.931c.142-.2.28-.413.413-.617l.172-.262c.124-.187.248-.379.367-.566l.158-.246c.314-.488.635-1,.98-1.575s.659-1.1.943-1.631c.057-.108.116-.216.174-.324.114-.211.231-.428.34-.644.158-.314.317-.631.474-.947.274-.549.523-1.127.764-1.685l.067-.156c.088-.2.17-.414.25-.619.04-.1.08-.205.121-.308.081-.205.159-.42.234-.627q.05-.138.1-.275c.217-.59.39-1.21.557-1.81l.013-.047c.151-.538.282-1.094.409-1.632l.066-.278c.154-.65.286-1.228.4-1.767h0l.007-.034h0c.182-.828.359-1.677.542-2.6.156-.782.286-1.584.412-2.359l.024-.147c.158-.974.278-1.974.394-2.94q.054-.446.108-.892.045-.36.089-.72.068-.555.137-1.11.036-.283.072-.566c.059-.456.119-.928.171-1.392.061-.545.137-1.262.19-1.977s.1-1.365.137-1.994c.091-1.391.153-2.653.188-3.861a.2.2,0,0,0-.056-.142.207.207,0,0,0-.144-.065h-.006a.209.209,0,0,0-.2.2c-.056,1.934-.176,4-.377,6.492v.011l0,.042h0c-.091.944-.2,1.864-.3,2.642-.1.8-.209,1.679-.341,2.753l-.031.25c-.148,1.2-.3,2.446-.5,3.667-.2,1.259-.446,2.54-.719,3.806h0l-.042.193q-.071.322-.141.645c-.051.225-.1.447-.15.669-.143.638-.29,1.3-.453,1.943-.146.579-.274,1.062-.4,1.521-.1.344-.207.687-.315,1.018l-.075.232,0,.009-.051.139c-.113.312-.231.634-.357.948-.187.473-.361.894-.53,1.287-.355.82-.75,1.62-1.09,2.294l0,.005-.057.106c-.24.449-.488.913-.744,1.365-.274.484-.565.968-.846,1.435l-.045.074c-.486.807-1.013,1.6-1.523,2.372l-.281.424,0,.005-.578.828c-.134.192-.277.379-.415.56l-.13.171c-.153.2-.31.413-.479.615l-.011.013-.672.8-.009.01-.353.377-.352.376c-.16.17-.328.33-.491.484l-.061.058-.152.144c-.157.149-.318.3-.489.449l-.742.629,0,0-.978.8c-.2.162-.4.32-.6.473l-.1.079-.344.265-.252.194c-.065.05-.137.106-.216.159l-.574.382-.4.263-.567.321-.2.116-.2.115-.043.025c-.031.018-.067.039-.1.058l-.1.046-1.108.529-.014.006-.32.129-.318.128-.454.182-.07.029c-.048.02-.1.041-.152.059l-.866.288-.467.155-.657.183-.419.117c-.236.066-.476.121-.708.174l-.326.075c-.236.055-.48.111-.725.156l-1.1.2-.011,0-.364.05-.371.051-.227.034c-.159.024-.323.049-.489.064l-1.476.129-.045,0-1.386.045c-.147,0-.293,0-.434-.005l-.2-.006-.728-.014c-.165,0-.331-.013-.491-.022l-.208-.012-.192-.009c-.145-.006-.3-.013-.444-.023l-1.345-.093-.034,0-.72-.063-.705-.062c-.325-.028-.653-.068-.97-.106l-.458-.054c-.139-.016-.276-.038-.409-.059l-.177-.027-.771-.116c-.148-.022-.3-.052-.438-.081l-.2-.04-.34-.065-.283-.054h0l-.057-.012h0l-.368-.079c-.3-.065-.617-.132-.925-.208l-1.381-.343c-.141-.035-.281-.076-.416-.116l-.238-.068-.352-.1-.347-.1c-.143-.041-.283-.091-.419-.139l-.181-.064-.592-.2-.013,0-.308-.125-.3-.122-.175-.07c-.112-.044-.228-.089-.342-.142l-.015-.007-1.07-.509-.013-.007-.281-.154-.3-.163-.418-.229-.042-.022c-.034-.018-.072-.037-.111-.063l-.337-.216-.781-.5-.014-.01-.329-.247-.192-.144-.388-.292-.049-.036c-.036-.026-.077-.055-.116-.089l-.988-.847-.194-.183q-.307-.288-.615-.576c-.169-.16-.332-.326-.49-.486l-.17-.173c-.2-.2-.411-.418-.618-.646l-.2-.222c-.2-.221-.414-.449-.612-.686h0a15.035,15.035,0,0,1-1.071-1.467,14.643,14.643,0,0,1-.824-1.536h0l-.025-.054h0c-.135-.3-.257-.611-.376-.911q-.063-.159-.126-.317c-.1-.24-.181-.485-.263-.722l-.06-.172-.042-.119c-.089-.254-.18-.516-.262-.779l-.085-.277q-.137-.443-.275-.885h0l-.1-.355-.087-.326-.082-.3-.058-.217-.017-.061c-.014-.05-.029-.1-.041-.156-.052-.245-.1-.488-.152-.731s-.1-.483-.151-.724l0-.019q-.045-.329-.088-.659t-.089-.666c-.012-.089-.019-.175-.026-.259l-.078-.895c-.036-.412-.058-.729-.072-1.027l-.014-.314q-.022-.481-.045-.962v-.012q0-.489,0-.979v-.5c0-.305.011-.613.021-.911l.007-.212q0-.121.007-.243c.009-.289.017-.588.036-.883q.03-.473.061-.947l.031-.471c.02-.216.039-.433.057-.65.035-.417.072-.849.123-1.273q.028-.232.055-.463c.059-.505.12-1.028.2-1.541l0-.033q.092-.6.184-1.205c.032-.209.07-.419.106-.622q.023-.126.045-.252c.019-.106.037-.211.054-.317.031-.183.063-.371.1-.558l.086-.435q.078-.4.158-.8c.094-.475.2-.956.3-1.421l.067-.31h0l.008-.038c.086-.389.176-.792.26-1.188h0q.136-.62.269-1.24l.1-.468h0l.007-.03c.092-.41.187-.833.307-1.249h0a.762.762,0,0,1,.044-.121.193.193,0,0,0,0-.146.209.209,0,0,0-.109-.117.212.212,0,0,0-.271.111,1.2,1.2,0,0,0-.057.169l-.007.026-.019.062c-.013.043-.026.083-.035.122l-.106.426c-.046.184-.087.376-.127.561l-.033.155q-.086.4-.173.8l-.169.785h0Z" transform="translate(-156.7 -36.391)"/>
      </g>
    </g>
  </g>
</svg>
