<svg xmlns="http://www.w3.org/2000/svg" width="96" height="96" viewBox="0 0 96 96">
  <g id="t11" transform="translate(-1224 -2064)">
    <rect id="Rectangle_6678" data-name="Rectangle 6678" width="96" height="96" transform="translate(1224 2064)" fill="none"/>
    <g id="user" transform="translate(1204.938 2053.913)">
      <g id="_000000ff" data-name="#000000ff" transform="translate(26.484 15.588)">
        <path id="Path_107618" data-name="Path 107618" d="M325.235,16.274a2.484,2.484,0,0,1,1.86-.652,2.581,2.581,0,0,1,1.374.972c.971,1.04,1.948,2.072,2.891,3.137a1.588,1.588,0,0,1,.111,2.04,17.9,17.9,0,0,1-1.74,1.635,3.5,3.5,0,0,1,.53,1.425c.52.564-.018,1.236-.393,1.7a5.35,5.35,0,0,1-2.237,1.734l-.26-.226c-.278.17-.61.539-.955.308a3.83,3.83,0,0,1-1.142-1.888,7.092,7.092,0,0,1-2.016,1.158,9.712,9.712,0,0,1,1.669,1.9c.129.205-.012.451-.085.649a12.368,12.368,0,0,1-3.573,3.846c-.281.118-.55-.118-.762-.271a5.243,5.243,0,0,1-1.667-3.045,1.639,1.639,0,0,1,.1-.934,13.35,13.35,0,0,1,2.618,3,11.978,11.978,0,0,1,2-3.241,2.456,2.456,0,0,1-1.676-1.312c-.154-.555.594-.656.8-1.063a5.515,5.515,0,0,1,1.963-2.113.751.751,0,0,1,.626-.118A5.837,5.837,0,0,1,327.5,27.68a7.625,7.625,0,0,1,1.727-2.755,5.789,5.789,0,0,1-1.285-1.151c-.168-.3.032-.64.186-.9.175-.325.573-.126.858-.133a17.029,17.029,0,0,1,1.4-1.825c-1.167-1.319-2.392-2.588-3.614-3.856-2.233,1.2-4.231,2.774-6.418,4.047a11.837,11.837,0,0,0-1.236,1.073c-.926.744-1.9,1.427-2.875,2.1q-7.45,5.065-15.181,9.7a20.3,20.3,0,0,1-2.284,1.271,6.9,6.9,0,0,1,1.5-1.522c2.4-1.987,4.956-3.784,7.49-5.6a91.727,91.727,0,0,1,11.53-7.2C321.271,19.377,323.13,17.662,325.235,16.274Z" transform="translate(-250.637 -15.588)"/>
        <path id="Path_107619" data-name="Path 107619" d="M92.347,96.107a4.856,4.856,0,0,1,1.879-.817c.591.313.039.888-.281,1.172a48.117,48.117,0,0,1-5.8,4.132c-2.762,1.747-5.553,3.453-8.43,5a7.02,7.02,0,0,0-1.441.822,10.062,10.062,0,0,0-2.8-3.863,10.416,10.416,0,0,0-9.095-1.738,9.212,9.212,0,0,0-4.816,2.9,10.464,10.464,0,0,0-2.247,9.164,7.679,7.679,0,0,0,2.109,3.9,16.529,16.529,0,0,0,3.556,2.42,30.861,30.861,0,0,0,3.112-4.339A4.906,4.906,0,0,1,64.265,112a4.238,4.238,0,0,1,.2-3.335,2.614,2.614,0,0,1-.126-1.752,4.429,4.429,0,0,1,3.106-2.762,7.219,7.219,0,0,1,5.248.635,5.044,5.044,0,0,1,2.732,3.9,5.314,5.314,0,0,1-1.264,3.847,14.415,14.415,0,0,1,1.821,3.3,12.527,12.527,0,0,0,2.277-6.811,11.256,11.256,0,0,1,.115-2.429,2.522,2.522,0,0,1,.826,1.821,12.252,12.252,0,0,1-2.659,9.054,40.185,40.185,0,0,1,1.533,9.063,19.7,19.7,0,0,1,12.559,9.312,11.8,11.8,0,0,1,1.6,4.919A18.409,18.409,0,0,1,89.3,156.9a22.142,22.142,0,0,1-13.542,8.81,22.474,22.474,0,0,1-13.991-1.528,20.046,20.046,0,0,1-6.945-5.317,22.511,22.511,0,0,1-26.188-11.579,19.843,19.843,0,0,1-1.825-12.46,18.926,18.926,0,0,1,8.1-12.159A21.759,21.759,0,0,1,53.68,120.3a11.529,11.529,0,0,1,4.42-6.312,11.9,11.9,0,0,1,.424-7.84,10.739,10.739,0,0,1,6.059-5.934,11.856,11.856,0,0,1,8.669.157,8.653,8.653,0,0,1,5.087,5.674,20.13,20.13,0,0,1,2.219-1.922c3.8-2.862,7.746-5.516,11.789-8.015m-26.88,11.126a5.94,5.94,0,0,1,1.975-1.524,26.872,26.872,0,0,0-1.833,2.392,3.94,3.94,0,0,0-.557,3.2,3.435,3.435,0,0,1,1.874-.157c1.7-1.614,4.577-1.241,6.22.286a3.512,3.512,0,0,0,.324-3.865,5.259,5.259,0,0,0-4.459-2.187,3.881,3.881,0,0,0-3.543,1.851m2.509,4.252a3.423,3.423,0,0,1,1.807,2.028,6.794,6.794,0,0,0,2.288-1.025,4.5,4.5,0,0,0-4.095-1m-2.535.548a3.789,3.789,0,0,0,2.806,1.554,4.026,4.026,0,0,0-2.806-1.554m4.275,2.834a16.779,16.779,0,0,1-3.313,4.945c3.036,1.04,6.314-.447,8.441-2.634a16.826,16.826,0,0,0-1.805-3.617,7.65,7.65,0,0,1-3.322,1.307m-12.088,1.519c-1.181,1.33-2.293,2.716-3.421,4.091a22.274,22.274,0,0,1,6.2,3.327,45.606,45.606,0,0,0,3.526-3.416,15.827,15.827,0,0,1-4.013-2.967,10.225,10.225,0,0,1-1.331-2.044,5.818,5.818,0,0,0-.957,1.008m12.094,5.207c.189,1.473.233,2.958.3,4.441a24.621,24.621,0,0,1,6.941.223,57.041,57.041,0,0,0-1.607-7.518,11.028,11.028,0,0,1-5.631,2.854M34.974,124.5a17.526,17.526,0,0,0-6.9,11.552,18.181,18.181,0,0,0,1.558,10.251,8.822,8.822,0,0,1,1.552-1.9,17.287,17.287,0,0,1,8.918-3.959,19.887,19.887,0,0,1,11.073,1.123,21.709,21.709,0,0,1,11.7-13.473,22.589,22.589,0,0,0-2.939-2.8c-.453.278-.9.559-1.344.85a1.658,1.658,0,0,1-.5,1.5,1.736,1.736,0,0,1-2.755-1.277,1.618,1.618,0,0,1,2.111-1.5,2.029,2.029,0,0,1,.948.771q.443-.406.886-.808a23.04,23.04,0,0,0-8.213-3.651,20.136,20.136,0,0,0-16.1,3.329m26.264-.088a29.3,29.3,0,0,1,3.029,3.062,24.388,24.388,0,0,1,4.655-1.273,10.213,10.213,0,0,1-.534-4.473,7.93,7.93,0,0,1-3.112-.713,46.524,46.524,0,0,1-4.038,3.4m-1.867,7.668a19.465,19.465,0,0,0-7.067,11.4,17.419,17.419,0,0,0,1.49,11.181,18.348,18.348,0,0,0,8.692,8.393,9.773,9.773,0,0,1,.072-3.264,18.532,18.532,0,0,1,4.523-8.506,19.143,19.143,0,0,1,9.01-5.909,11.6,11.6,0,0,1,8.363,1.063,16.894,16.894,0,0,1,6.473,6.089,19.455,19.455,0,0,0,1.14-11.984c-.461-.267-.585-.812-.792-1.261a19.111,19.111,0,0,0-13.117-11.247c.027.962.035,1.925.007,2.887l.534-.336a2.6,2.6,0,0,1,1.268.716,1.9,1.9,0,0,1,.027,2.493,1.968,1.968,0,0,1-3.2-.384,1.688,1.688,0,0,1,.831-2.028c-.168-1.2-.3-2.4-.458-3.594a21.9,21.9,0,0,0-17.8,4.293m18.888.861c.083.078.168.154.253.233a.676.676,0,0,0,.377-.868c-.217.2-.426.417-.629.635m-39.5,8.945a17.146,17.146,0,0,0-9.052,4.634,21.678,21.678,0,0,0,24.551,11.643,18.838,18.838,0,0,1-3.441-15.057,19.473,19.473,0,0,0-12.058-1.22m35.568,5.723a21.154,21.154,0,0,0-6.559,4.733,18.668,18.668,0,0,0-4.171,6.554,17.444,17.444,0,0,0-.905,4.247,21.72,21.72,0,0,0,13.911,1.22,22.392,22.392,0,0,0,8.241-4,21.308,21.308,0,0,0,5.661-6.927c-.872-.812-1.673-1.694-2.55-2.5a14.242,14.242,0,0,0-2.026-1.75,11.553,11.553,0,0,0-5.806-2.555A10.8,10.8,0,0,0,74.324,147.61Z" transform="translate(-26.484 -81.198)"/>
        <path id="Path_107620" data-name="Path 107620" d="M107.919,254.215a6.705,6.705,0,0,1,7.695,1.938,2.005,2.005,0,0,1,1.425,1.056,6.706,6.706,0,0,1,.658,5.953,7.155,7.155,0,0,1-6.572,4.436,6.3,6.3,0,0,1-5.085-2.431,7.886,7.886,0,0,1-1.39-7.33,6.07,6.07,0,0,1,3.269-3.621m.394.944a5.1,5.1,0,0,0-2.534,3.3,6.585,6.585,0,0,0,1.444,5.806,5.221,5.221,0,0,0,1.768,1.353,5.337,5.337,0,0,0,1.787.423,5.463,5.463,0,0,0,1.153-.069,5.765,5.765,0,0,0,4.286-3.075,6.2,6.2,0,0,0-.182-5.382,3.059,3.059,0,0,1-.461-1.245,9.884,9.884,0,0,0-3.358-1.565A5.65,5.65,0,0,0,108.313,255.159Z" transform="translate(-90.522 -211.601)"/>
        <path id="Path_107621" data-name="Path 107621" d="M221.557,304.753a6.667,6.667,0,0,1,7.813,1.918c.578,0,.967.493,1.3.905a6.521,6.521,0,0,1-.3,7.891,7.18,7.18,0,0,1-7.585,2.314c-3.414-1.109-5.288-5.064-4.664-8.478a6.313,6.313,0,0,1,3.441-4.551m.034,1.17-.012.009a5.393,5.393,0,0,0-2.219,4.912,6.265,6.265,0,0,0,3.071,5.122,5.748,5.748,0,0,0,7.016-1.738,5.939,5.939,0,0,0,.17-6.5,5.015,5.015,0,0,1-.373-1.01,11.105,11.105,0,0,0-2.569-1.319A5.739,5.739,0,0,0,221.591,305.924Z" transform="translate(-184.137 -253.156)"/>
      </g>
      <g id="_ffffffff" data-name="#ffffffff" transform="translate(27.907 34.844)">
        <path id="Path_107622" data-name="Path 107622" d="M218.015,124.865a10.416,10.416,0,0,1,9.095,1.738,10.062,10.062,0,0,1,2.8,3.863l.1.177a11.255,11.255,0,0,0-.115,2.429,12.527,12.527,0,0,1-2.277,6.811,14.415,14.415,0,0,0-1.821-3.3,5.314,5.314,0,0,0,1.264-3.847,5.044,5.044,0,0,0-2.732-3.9,7.219,7.219,0,0,0-5.248-.635,4.429,4.429,0,0,0-3.106,2.762,2.614,2.614,0,0,0,.126,1.752,4.238,4.238,0,0,0-.2,3.335,4.906,4.906,0,0,0,3.833,2.861,30.862,30.862,0,0,1-3.112,4.339,16.529,16.529,0,0,1-3.556-2.42,7.679,7.679,0,0,1-2.109-3.9,10.464,10.464,0,0,1,2.247-9.164A9.212,9.212,0,0,1,218.015,124.865Z" transform="translate(-179.536 -124.501)" fill="#fff"/>
        <path id="Path_107623" data-name="Path 107623" d="M244.39,154.221a3.881,3.881,0,0,1,3.543-1.851,5.259,5.259,0,0,1,4.459,2.187,3.512,3.512,0,0,1-.324,3.865c-1.643-1.528-4.517-1.9-6.22-.286a3.435,3.435,0,0,0-1.874.157,3.94,3.94,0,0,1,.557-3.2,26.878,26.878,0,0,1,1.833-2.392A5.94,5.94,0,0,0,244.39,154.221Z" transform="translate(-206.83 -147.443)" fill="#fff"/>
        <path id="Path_107624" data-name="Path 107624" d="M261.16,186.336a4.505,4.505,0,0,1,4.095,1,6.793,6.793,0,0,1-2.288,1.025A3.423,3.423,0,0,0,261.16,186.336Z" transform="translate(-221.09 -175.305)" fill="#fff"/>
        <path id="Path_107625" data-name="Path 107625" d="M246.82,189.99a4.026,4.026,0,0,1,2.806,1.554A3.789,3.789,0,0,1,246.82,189.99Z" transform="translate(-209.286 -178.411)" fill="#fff"/>
        <path id="Path_107626" data-name="Path 107626" d="M255.573,199.937a7.651,7.651,0,0,0,3.322-1.307,16.827,16.827,0,0,1,1.805,3.617c-2.127,2.187-5.4,3.674-8.441,2.634A16.78,16.78,0,0,0,255.573,199.937Z" transform="translate(-213.764 -185.523)" fill="#fff"/>
        <path id="Path_107627" data-name="Path 107627" d="M41.6,242.907a20.136,20.136,0,0,1,16.1-3.329,23.04,23.04,0,0,1,8.213,3.651q-.443.4-.886.808a2.029,2.029,0,0,0-.948-.771,1.618,1.618,0,0,0-2.111,1.5,1.736,1.736,0,0,0,2.755,1.277,1.658,1.658,0,0,0,.5-1.5c.442-.292.891-.573,1.344-.85a22.588,22.588,0,0,1,2.939,2.8,21.709,21.709,0,0,0-11.7,13.473,19.887,19.887,0,0,0-11.073-1.123,17.287,17.287,0,0,0-8.918,3.959,8.823,8.823,0,0,0-1.552,1.9A18.181,18.181,0,0,1,34.7,254.459a17.526,17.526,0,0,1,6.9-11.553m8.907-.69a6.07,6.07,0,0,0-3.269,3.621,7.886,7.886,0,0,0,1.39,7.33,6.3,6.3,0,0,0,5.085,2.431,7.155,7.155,0,0,0,6.572-4.436,6.706,6.706,0,0,0-.658-5.953,2.005,2.005,0,0,0-1.425-1.056A6.705,6.705,0,0,0,50.5,242.217Z" transform="translate(-34.529 -218.859)" fill="#fff"/>
        <path id="Path_107628" data-name="Path 107628" d="M114.508,259.118a5.65,5.65,0,0,1,3.9-.453,9.884,9.884,0,0,1,3.358,1.565,3.059,3.059,0,0,0,.461,1.245,6.2,6.2,0,0,1,.182,5.382,5.765,5.765,0,0,1-4.286,3.075,6.082,6.082,0,0,0,3.287-3,5.286,5.286,0,0,0-1.521-6.314,4.622,4.622,0,0,0-7.454,3.267,6.658,6.658,0,0,0,.98,4.344,6.585,6.585,0,0,1-1.445-5.806A5.1,5.1,0,0,1,114.508,259.118Z" transform="translate(-98.139 -234.816)" fill="#fff"/>
        <path id="Path_107629" data-name="Path 107629" d="M178,281.426a21.9,21.9,0,0,1,17.8-4.293c.157,1.2.29,2.4.458,3.594a1.688,1.688,0,0,0-.831,2.028,1.968,1.968,0,0,0,3.2.384,1.9,1.9,0,0,0-.027-2.493,2.605,2.605,0,0,0-1.268-.716l-.534.336c.028-.962.019-1.925-.007-2.887a19.111,19.111,0,0,1,13.117,11.247c.207.449.331.994.792,1.261a19.455,19.455,0,0,1-1.14,11.984,16.9,16.9,0,0,0-6.473-6.089,11.6,11.6,0,0,0-8.363-1.063,19.143,19.143,0,0,0-9.01,5.909,18.532,18.532,0,0,0-4.523,8.506,9.773,9.773,0,0,0-.072,3.264A18.348,18.348,0,0,1,172.428,304a17.419,17.419,0,0,1-1.49-11.181,19.465,19.465,0,0,1,7.067-11.4m4.533.714a6.313,6.313,0,0,0-3.441,4.551c-.624,3.414,1.25,7.369,4.664,8.478a7.18,7.18,0,0,0,7.585-2.314,6.521,6.521,0,0,0,.3-7.891c-.331-.412-.72-.9-1.3-.905A6.666,6.666,0,0,0,182.538,282.14Z" transform="translate(-146.54 -249.799)" fill="#fff"/>
        <path id="Path_107630" data-name="Path 107630" d="M148.13,277.07a2.578,2.578,0,0,1,1.317,2.3c.046.313-.348.24-.53.308A13.212,13.212,0,0,1,148.13,277.07Z" transform="translate(-128.045 -250.095)" fill="#fff"/>
        <path id="Path_107631" data-name="Path 107631" d="M319.32,305.295c.2-.217.412-.431.629-.635a.676.676,0,0,1-.377.868C319.488,305.449,319.4,305.373,319.32,305.295Z" transform="translate(-268.967 -272.807)" fill="#fff"/>
        <path id="Path_107632" data-name="Path 107632" d="M238.32,309.955a5.738,5.738,0,0,1,5.083-.522,11.1,11.1,0,0,1,2.569,1.319,5.018,5.018,0,0,0,.373,1.01,7.828,7.828,0,0,0-5.085-2.392A5.786,5.786,0,0,0,238.32,309.955Z" transform="translate(-202.289 -276.444)" fill="#fff"/>
        <path id="Path_107633" data-name="Path 107633" d="M225.583,319a5.393,5.393,0,0,1,2.219-4.912,4.028,4.028,0,0,0-1.459,2.131,8.225,8.225,0,0,0,1.37,5.859,4.006,4.006,0,0,0,2.877,2.134,6.28,6.28,0,0,0,5.08-1.828,5.748,5.748,0,0,1-7.016,1.738A6.265,6.265,0,0,1,225.583,319Z" transform="translate(-191.783 -280.57)" fill="#fff"/>
        <path id="Path_107634" data-name="Path 107634" d="M130.95,320.822a2.629,2.629,0,0,0,1.722-.062c.016.122.049.364.065.484A5.336,5.336,0,0,1,130.95,320.822Z" transform="translate(-113.902 -286.06)" fill="#fff"/>
        <path id="Path_107635" data-name="Path 107635" d="M260.76,327.62a2.472,2.472,0,0,1,1.925,1.752c.044.175.14.527-.108.582-.324.191-.481-.216-.624-.421C261.587,328.875,261.142,328.267,260.76,327.62Z" transform="translate(-220.761 -291.707)" fill="#fff"/>
        <path id="Path_107636" data-name="Path 107636" d="M53.742,356.875a19.473,19.473,0,0,1,12.058,1.22,18.838,18.838,0,0,0,3.441,15.057A21.678,21.678,0,0,1,44.69,361.509a17.146,17.146,0,0,1,9.052-4.634m-1.588.628a9.015,9.015,0,0,0-5.023,2.838,2.953,2.953,0,0,0-.331,3.35,18.961,18.961,0,0,0,8.435,7.84,19.493,19.493,0,0,0,13.128,1.243,14.683,14.683,0,0,1-3.531-14.493c-1.9-.969-4.079-.562-6.119-.534C56.52,357.838,54.338,356.97,52.155,357.5Z" transform="translate(-42.893 -315.442)" fill="#fff"/>
        <path id="Path_107637" data-name="Path 107637" d="M79.412,383.22a5.406,5.406,0,0,1,.449,2.072l-.35.327A1.765,1.765,0,0,1,79.412,383.22Z" transform="translate(-71.13 -337.477)" fill="#fff"/>
        <path id="Path_107638" data-name="Path 107638" d="M242.886,386.3a10.8,10.8,0,0,1,5.8-.974,11.553,11.553,0,0,1,5.806,2.555,13.708,13.708,0,0,0-4.809-1.841,12.546,12.546,0,0,0-9.556,2.428,21.08,21.08,0,0,0-4.013,4.466c-1.549,2.23-3.048,4.7-3.213,7.477-.012,1.524,1.632,2.208,2.9,2.428a23.082,23.082,0,0,0,17.552-4.332,17.8,17.8,0,0,0,5.154-6.268,11.942,11.942,0,0,0-1.989-2.608c.877.806,1.678,1.689,2.55,2.5a21.31,21.31,0,0,1-5.661,6.927,22.392,22.392,0,0,1-8.241,4,21.72,21.72,0,0,1-13.911-1.22,17.446,17.446,0,0,1,.905-4.247,18.669,18.669,0,0,1,4.171-6.554A21.154,21.154,0,0,1,242.886,386.3Z" transform="translate(-196.469 -339.148)" fill="#fff"/>
        <path id="Path_107639" data-name="Path 107639" d="M338.58,409.89a6.585,6.585,0,0,1,3.971,2.847c.131.219.435.743-.025.781-.608-.311-.98-.951-1.487-1.4C340.29,411.3,339.331,410.7,338.58,409.89Z" transform="translate(-284.822 -359.432)" fill="#fff"/>
      </g>
      <g id="_ffcb05ff" data-name="#ffcb05ff" transform="translate(31.438 59.711)">
        <path id="Path_107640" data-name="Path 107640" d="M117.107,265.925a4.847,4.847,0,0,1,5.492.15,5.286,5.286,0,0,1,1.521,6.314,6.082,6.082,0,0,1-3.287,3,5.463,5.463,0,0,1-1.153.069c-.016-.12-.049-.362-.065-.484a2.629,2.629,0,0,1-1.722.062,5.221,5.221,0,0,1-1.768-1.353,6.658,6.658,0,0,1-.979-4.344,4.845,4.845,0,0,1,1.963-3.418m3.823,1.328a13.21,13.21,0,0,0,.787,2.606c.182-.067.576.005.53-.308A2.578,2.578,0,0,0,120.93,267.253Z" transform="translate(-104.376 -265.144)" fill="#ffec00"/>
        <path id="Path_107641" data-name="Path 107641" d="M230.886,311.212a5.787,5.787,0,0,1,2.94-.585,7.829,7.829,0,0,1,5.085,2.392,5.939,5.939,0,0,1-.17,6.5,6.28,6.28,0,0,1-5.08,1.828,4.006,4.006,0,0,1-2.877-2.134,8.225,8.225,0,0,1-1.37-5.859,4.028,4.028,0,0,1,1.459-2.131l.012-.009m3.967,2.4c.382.647.827,1.255,1.193,1.913.143.205.3.612.624.421.248-.055.152-.407.108-.582A2.472,2.472,0,0,0,234.853,313.613Z" transform="translate(-198.386 -302.567)" fill="#ffec00"/>
        <path id="Path_107642" data-name="Path 107642" d="M60.234,361.581c2.184-.532,4.365.336,6.559.244,2.04-.028,4.22-.435,6.119.534a14.683,14.683,0,0,0,3.531,14.493,19.492,19.492,0,0,1-13.128-1.243,18.961,18.961,0,0,1-8.435-7.84,2.953,2.953,0,0,1,.331-3.35,9.015,9.015,0,0,1,5.023-2.838m-.98,3.683a1.765,1.765,0,0,0,.1,2.4l.35-.327A5.406,5.406,0,0,0,59.254,365.263Z" transform="translate(-54.505 -344.387)" fill="#34ff97"/>
        <path id="Path_107643" data-name="Path 107643" d="M247.786,391.455a12.546,12.546,0,0,1,9.556-2.428,13.708,13.708,0,0,1,4.809,1.841,14.244,14.244,0,0,1,2.026,1.75,11.945,11.945,0,0,1,1.989,2.608,17.8,17.8,0,0,1-5.154,6.268,23.082,23.082,0,0,1-17.552,4.332c-1.269-.219-2.914-.9-2.9-2.427.164-2.778,1.664-5.248,3.213-7.477a21.081,21.081,0,0,1,4.014-4.466m10.1,1.135c.751.813,1.71,1.406,2.459,2.228.507.449.879,1.089,1.487,1.4.46-.039.156-.562.025-.782A6.585,6.585,0,0,0,257.89,392.59Z" transform="translate(-207.664 -366.998)" fill="#34ff97"/>
      </g>
    </g>
  </g>
</svg>
