<svg xmlns="http://www.w3.org/2000/svg" width="96" height="96" viewBox="0 0 96 96">
  <g id="t12" transform="translate(-1224 -2064)">
    <rect id="Rectangle_6678" data-name="Rectangle 6678" width="96" height="96" transform="translate(1224 2064)" fill="none"/>
    <g id="_000000ff" data-name="#000000ff" transform="matrix(0.985, -0.174, 0.174, 0.985, 1186.655, 2066.025)">
      <path id="Path_107703" data-name="Path 107703" d="M42.839,53.424a40.07,40.07,0,0,1,8.49-2.077,10.294,10.294,0,0,1,5.673,1s-.089-5.255-2.55-8.573-7.3-4.7-7.3-4.7a53.56,53.56,0,0,0-3.123,7.573A30.063,30.063,0,0,0,42.839,53.424Z" fill="#34ff97"/>
      <path id="Path_107569" data-name="Path 107569" d="M60.691,28.745a76.077,76.077,0,0,1,19.233-.731,89.111,89.111,0,0,1,10.289,1.149c4.2.8,8.458,2.357,11.482,5.5,2.741,2.8,4.089,6.632,4.77,10.419.714,4.192,1.1,8.432,1.626,12.651.593,5.243.962,10.509,1.184,15.78.1,6.472.14,12.951-.285,19.412-.1.781.2,1.939-.791,2.217a5.377,5.377,0,0,0-2.18-.332,41.558,41.558,0,0,0-4.031-3.533c-.582,1.272-1.218,2.521-1.835,3.778-.177.33-.382.766-.824.753-.983-.123-1.96-.3-2.944-.425a39.6,39.6,0,0,0-5.318-4.952c-1.617,1.706-3.28,3.367-4.859,5.1a3.973,3.973,0,0,1-.889.707c-1.033-.2-2.07-.395-3.093-.653a39.515,39.515,0,0,0-4.346-4.684c-1.333,1.253-2.713,2.456-4,3.753a15.552,15.552,0,0,1-1.721,1.753c-.921-.224-1.855-.4-2.789-.569a60.754,60.754,0,0,0-4.145-5.027c-1.287.977-2.459,2.1-3.77,3.045a2.324,2.324,0,0,1-2.049.55,4.623,4.623,0,0,1-2.01-2.047c-.17-1.9-.218-5.728-.218-5.728l.39-27.327s-.291-4.1-.5-6.144c-3.753-1.251-7.768-.38-11.482.567a12.159,12.159,0,0,1-2.793.513c-.492.015-.77-.567-.688-1a49.32,49.32,0,0,1,2.754-13.293c.889-2.286,1.945-4.645,3.884-6.239,3.356-2.847,7.7-4.132,11.943-4.969m-14,9.321c11.4.427,12.051,16.153,12.413,21.514s.468,31.921.455,33.946c1.846-1.41,3.656-3.3,5.554-4.64a.777.777,0,0,1,.82.349,61.044,61.044,0,0,0,4.83,6.266c2.189-2.431,4.507-3.611,6.817-5.919a.8.8,0,0,1,1.206-.03c1.607,2.256,3.17,4.1,4.863,6.288,1.663-1.812,3.585-3.249,5.286-5.026a9.881,9.881,0,0,0,1.6-1.934,1.964,1.964,0,0,1,1.158-.037,7.11,7.11,0,0,0,.876,1.171c1.689,1.878,4.34,3.118,6.044,4.983.893-1.861,1.869-2.849,2.775-4.7.149-.321.39-.705.8-.669.4-.019.625.36.863.619,1.221,1.6,3.6,3.292,5.04,4.694.324-7.175-.129-16.644-.544-23.822-.14-2.521-.129-5.055-.442-7.565-.3-4.391-.867-8.758-1.477-13.114-.518-4.238-.99-8.685-3.3-12.394a15.626,15.626,0,0,0-8.872-6.431,46.97,46.97,0,0,0-9.9-1.721,43.777,43.777,0,0,0-4.755-.369,76.478,76.478,0,0,0-10.356-.032c-5.15.3-18.127.87-22.009,10.027m-.265,1.5a47.338,47.338,0,0,0-2.381,11.508c4.208-.981,8.614-2.288,12.927-1.119a17.73,17.73,0,0,0-3.8-7.848A16.383,16.383,0,0,0,49.8,41.032a4.032,4.032,0,0,0-1.816-.768,4.657,4.657,0,0,0-1.814.755m8.5,43.687C57.853,85.458,51.758,84.16,54.676,84.705Z" transform="translate(0 0)"/>
      <path id="Path_107700" data-name="Path 107700" d="M3.577,2.033C8.331,1.824,12.936.319,17.687.064a43.509,43.509,0,0,1,7.7.262,7.385,7.385,0,0,1,1.94.445c.4.205,0,.652-.482.707a17.249,17.249,0,0,1-2.9.105,68.345,68.345,0,0,0-7.449.124c-3.785.33-7.558,1.126-11.344,1.2A10.606,10.606,0,0,1,0,1.994C1.208,1.939,2.368,2.1,3.577,2.033Z" transform="translate(68.484 60.431) rotate(-2)"/>
      <path id="Path_107702" data-name="Path 107702" d="M.315,1.19S11.277.319,16.936.064A61.668,61.668,0,0,1,26.11.326,10.232,10.232,0,0,1,28.422.77c.479.205,0,.652-.574.707a24.448,24.448,0,0,1-3.457.105c-2.937-.051-5.891-.1-8.874.124C11.008,2.036,0,2.434,0,2.434Z" transform="translate(66.62 46.316) rotate(-2)"/>
      <path id="Path_107701" data-name="Path 107701" d="M2.239,2.033C5.213,1.824,8.1.319,11.069.064a17.139,17.139,0,0,1,4.82.262A3.256,3.256,0,0,1,17.1.77c.252.205,0,.652-.3.707a6.8,6.8,0,0,1-1.816.105,26.815,26.815,0,0,0-4.662.124c-2.369.33-4.73,1.126-7.1,1.2A4.555,4.555,0,0,1,0,1.994C.756,1.939,1.482,2.1,2.239,2.033Z" transform="translate(74.55 73.36) rotate(-2)"/>
    </g>
  </g>
</svg>
