<svg xmlns="http://www.w3.org/2000/svg" width="48.014" height="42.612" viewBox="0 0 48.014 42.612">
  <path id="t2" d="M73.72,65.228c2.484-.472,20.123,9.025,20.123,9.025s13.842,7.144,26.519,14.875c-4.754,3.774-10.8,5.019-16.178,7.555-7.5,3.5-15.272,6.346-22.76,9.84-1.71.8-3.6,1.592-5.528,1.194-1.26-.553-1.644-2.049-1.924-3.265-.059-.427-.17-1.282-.221-1.71-.1-.531-.28-1.6-.369-2.13-.1-1.238-.17-2.477-.317-3.707-.619-7.238.109-19.537-.658-26.768C72.35,68.456,72.04,66.267,73.72,65.228Z" transform="translate(-72.348 -65.211)" fill="#ffec00"/>
</svg>
