<svg xmlns="http://www.w3.org/2000/svg" width="44.269" height="45.942" viewBox="0 0 44.269 45.942">
  <path id="t5" d="M149.449,141.04a2.18,2.18,0,0,1,1-.712,4.922,4.922,0,0,1,1.351.029,7.224,7.224,0,0,1,2.371,1.547c.383.383.817.715,1.186,1.113a40.888,40.888,0,0,1,3.532,4.619,28.8,28.8,0,0,1,1.577,2.563,2.387,2.387,0,0,1-.877,1.971,7.791,7.791,0,0,1-2.221,1.493c-.953.414-1.8,1.021-2.734,1.472a19.494,19.494,0,0,0-2.827,1.925,9.231,9.231,0,0,0,1.618,4.45,18.347,18.347,0,0,0,2.391,3.119,48,48,0,0,0,6.662,5.868c1,.842,2.133,1.515,3.189,2.29q2.6,1.766,5.291,3.391a2.27,2.27,0,0,0,.824.407c-.051-.762-.242-1.512-.226-2.28a4.922,4.922,0,0,1,.3-2.42,2.616,2.616,0,0,1,1.639-1.2,14.142,14.142,0,0,1,3.394-.187c.958-.044,1.9.118,2.857.15a12.79,12.79,0,0,1,2.178.377,14.457,14.457,0,0,1,2.953,1.007,6.089,6.089,0,0,1,2.092,1.733,4.044,4.044,0,0,1,.322,3.228,15.474,15.474,0,0,1-1.331,3.709,12.847,12.847,0,0,1-2.164,3.246,7.386,7.386,0,0,1-5.369,2.28,13.58,13.58,0,0,1-1.51-.044,33.376,33.376,0,0,1-5.865-1.959c-1.287-.5-2.52-1.115-3.788-1.651-2.161-1.009-4.268-2.13-6.363-3.27a39.374,39.374,0,0,1-5.249-3.536c-.674-.643-1.454-1.169-2.086-1.859-.673-.649-1.287-1.354-1.93-2.03-1.639-1.994-3.26-4.011-4.705-6.152a22.466,22.466,0,0,1-3.4-7.133,10.538,10.538,0,0,1-.314-2.195,8.134,8.134,0,0,1,.179-2.512c.9-3.281,2.758-6.17,4.214-9.215.283-.613.61-1.2.915-1.8A8.772,8.772,0,0,1,149.449,141.04Z" transform="translate(-143.197 -140.296)" fill="#ffec00"/>
</svg>
