<svg xmlns="http://www.w3.org/2000/svg" width="96" height="96" viewBox="0 0 96 96">
  <g id="t6" transform="translate(-1224 -2064)">
    <rect id="Rectangle_6678" data-name="Rectangle 6678" width="96" height="96" transform="translate(1224 2064)" fill="none"/>
    <g id="_11" data-name="11" transform="matrix(0.996, 0.087, -0.087, 0.996, 1235.531, 2071.125)">
      <g id="_000000ff" data-name="#000000ff" transform="translate(0 0)">
        <path id="Path_107574" data-name="Path 107574" d="M33.963,25.533a153.793,153.793,0,0,1,22.154.02,103.807,103.807,0,0,1,12.254,1.265,25.122,25.122,0,0,1,8.319,2.865A9.944,9.944,0,0,1,80.8,34.16a12.185,12.185,0,0,1,.8,5.215c-.079,2.411-.268,4.816-.445,7.222.025.612.161,1.22.141,1.837-.01,3.86-.282,7.711-.5,11.563a9.373,9.373,0,0,0-.057,1.706,24.294,24.294,0,0,1,4.182.909c.24.106.6.267.523.594.04.344-.347.394-.565.542a31.734,31.734,0,0,1-.268,4.838c-.069.294-.107.736-.471.8a3.747,3.747,0,0,0-1.261.059,19.585,19.585,0,0,1-2.853.312c-.341,4.148-.829,8.283-1.263,12.423a5,5,0,0,1,1.9.772c.267.349-.131.694-.285.991a29.479,29.479,0,0,1-.07,4.422c-.075.377-.074.854-.406,1.114a10.045,10.045,0,0,0-2.093.3c-.341,2.053-.4,4.192-1.2,6.14a8.373,8.373,0,0,1-4.185,4.385c-2.712,1.334-5.774,1.631-8.741,1.907a109.823,109.823,0,0,1-15.619.191c-4.048-.216-8.057-.825-12.075-1.337-2.075-.267-4.142-.594-6.193-1a36.979,36.979,0,0,1-6.829-1.716,9.544,9.544,0,0,1-3.618-2.419,14.791,14.791,0,0,1-3.42-8.386,93.167,93.167,0,0,1,.039-9.558,4.393,4.393,0,0,1-3.365-2.1,2.336,2.336,0,0,1-.168-2.216c.143-.27.486-.185.671-.012a7.163,7.163,0,0,0,.746,1.619A3.47,3.47,0,0,0,16,76.522c.081-4.68.181-9.36.262-14.041a5.382,5.382,0,0,1-3.162-.9,3.36,3.36,0,0,1-1.5-2.905c.047-.3.159-.793.564-.746.537.144.475.81.71,1.214a3.807,3.807,0,0,0,3.392,1.951c.151-2.822.149-5.651.3-8.473.067-2.166.226-4.325.309-6.488a4.878,4.878,0,0,1-3.172-1.248,3.044,3.044,0,0,1-.991-2.835c.065-.243.28-.559.569-.421.433.166.414.746.619,1.1a3.5,3.5,0,0,0,3.073,1.988c.186-3.013.012-6.067.632-9.038a12.018,12.018,0,0,1,2.33-4.789,11.974,11.974,0,0,1,4.137-3.1,28.923,28.923,0,0,1,9.889-2.261m2.513.864a48.9,48.9,0,0,0-7.886,1.027,16.4,16.4,0,0,0-6.108,2.66A5.025,5.025,0,0,0,21.2,31.327c.809-.426,1.582-.924,2.426-1.28a34.336,34.336,0,0,1,12.214-2.419,137.961,137.961,0,0,1,21.8.715c4.17.508,8.448.973,12.311,2.738a11.508,11.508,0,0,1,5.762,5.148,12.9,12.9,0,0,1,.908,5.656c-.05,3.637.005,7.274-.089,10.909-.06,2.87-.206,5.737-.359,8.6a31.564,31.564,0,0,1,3.424.179c.386-4.435.736-8.872,1.159-13.3.022-.691.346-1.332.334-2.023,0-2.291.119-4.581.141-6.871a11.766,11.766,0,0,0-.914-5.081,9.733,9.733,0,0,0-4.16-4.234,25.523,25.523,0,0,0-8.29-2.614,102.037,102.037,0,0,0-11.078-.993A163.132,163.132,0,0,0,36.476,26.4M21.524,31.621c-.585.4-1.34.686-1.625,1.386a13.358,13.358,0,0,0-1.27,3.68c-.381,2.662-.245,5.361-.4,8.04a10.729,10.729,0,0,0,2.736-.664,2.163,2.163,0,0,1,3.181-1.887A1.958,1.958,0,0,1,24.7,45.02a2.332,2.332,0,0,1-3.4-.107,10.137,10.137,0,0,1-3.14,1.151c-.292,4.97-.411,9.949-.53,14.928a15.8,15.8,0,0,0,2.134-.512,3.316,3.316,0,0,1,.017-1.144,2.206,2.206,0,0,1,3.229-1.131,1.956,1.956,0,0,1,.317,2.9,2.407,2.407,0,0,1-2.969.075,12.578,12.578,0,0,1-2.7,1.127,4.247,4.247,0,0,0-.069,1.053Q17.5,70,17.4,76.636a10.107,10.107,0,0,0,2.775-.532,2.76,2.76,0,0,1,.025-1,2.191,2.191,0,0,1,3.38-1.032,1.929,1.929,0,0,1,.03,2.91A2.525,2.525,0,0,1,20.7,76.9a9.177,9.177,0,0,1-3.316,1.109c-.072,2.219-.166,4.44-.176,6.661a18.386,18.386,0,0,0,1.245,7.146A9.265,9.265,0,0,0,21.929,96.2,19.065,19.065,0,0,0,28,98.218c2.587.527,5.187,1,7.805,1.33,4.132.555,8.267,1.112,12.428,1.386a101.24,101.24,0,0,0,15.626-.2,4.085,4.085,0,0,0,1.775-.337,14.517,14.517,0,0,0,2.954-2.261,7.774,7.774,0,0,0,1.807-3.893,238.67,238.67,0,0,0,4.372-34.216c.361-6.317.344-12.647.45-18.971a8.56,8.56,0,0,0-1.667-5.708c-2-2.389-5-3.647-7.94-4.424a61.963,61.963,0,0,0-7.8-1.377,141.963,141.963,0,0,0-23.679-1.025c-4.328.248-8.8.886-12.6,3.1m-.436-.25h0m1.377,12.865c.325.153.745.461,1.074.138a.577.577,0,0,0-.463-1c-.2.285-.4.58-.611.859M21.071,59.948q.453-.058.9-.121-.2.307-.387.619c.47.141,1.075-.23.845-.762-.262-.646-1.214-.3-1.362.263m55.055,1.924c-.117,1.954-.29,3.907-.346,5.864,2.5.334,5,.755,7.512,1.032a10.9,10.9,0,0,1,.03-2.026,9.989,9.989,0,0,1,1.015-3.026,7.868,7.868,0,0,0-1.327-.143l-.045-.032a35.121,35.121,0,0,1-6.839-1.669m-.544,6.982q-.6,6.348-1.555,12.658a27.981,27.981,0,0,1,3.422.361c.466-4.07.961-8.136,1.371-12.212a12.155,12.155,0,0,1-3.238-.807M21.5,75.6c.377-.07.753-.144,1.134-.2-.154.277-.6.466-.52.82a.6.6,0,0,0,.691-.867c-.33-.52-1.05-.181-1.305.243m52.416,6.557c-.154,1.107-.386,2.206-.517,3.316-.619,3.082-1.146,6.187-1.889,9.243a8.652,8.652,0,0,1-1.845,3.833,13.456,13.456,0,0,1-2.025,1.713c2.466-.4,5.095-1.193,6.71-3.231s1.706-4.749,2.028-7.215a7.922,7.922,0,0,1-2.593-.512c-.416-.186-1.147-.5-.869-1.075.289-.5.889-.173,1.34-.237,1.548.366,3.123.606,4.689.884a10.132,10.132,0,0,1,.168-3.009,11.9,11.9,0,0,1,.669-1.931c-.126-.28-.564-.131-.8-.226l-.039-.037A21.413,21.413,0,0,1,73.917,82.153Z" transform="translate(-11.596 -25.141)"/>
        <path id="Path_107575" data-name="Path 107575" d="M432.947,29.965a.593.593,0,0,1,.961.384,2.666,2.666,0,0,1-.488,1.084,16.191,16.191,0,0,1-2.5,2.843,2.753,2.753,0,0,1-1.121.683,6.617,6.617,0,0,1,1.126-2.515A10.123,10.123,0,0,1,432.947,29.965Z" transform="translate(-359.647 -29.036)"/>
        <path id="Path_107576" data-name="Path 107576" d="M446.764,66.693a9.557,9.557,0,0,1,4.2-1.483c.334-.044.815.044.845.461.156.617-.619.785-1.042.956a22.025,22.025,0,0,1-4.855,1.022C445.955,67.172,446.415,66.941,446.764,66.693Z" transform="translate(-373.055 -58.48)"/>
        <path id="Path_107577" data-name="Path 107577" d="M452.074,112.1a15.192,15.192,0,0,1,3.625.2,17.221,17.221,0,0,1,4.048.965.574.574,0,0,1,.3.906c-.424.31-1,.136-1.48.112a26.86,26.86,0,0,1-5.841-1.579C452.483,112.545,451.938,112.493,452.074,112.1Z" transform="translate(-378.167 -97.473)"/>
        <path id="Path_107578" data-name="Path 107578" d="M102.7,164.03a17.6,17.6,0,0,1,2.905.564,84.242,84.242,0,0,0,24.991,2.14c3.429-.211,6.829-.723,10.226-1.218a8.6,8.6,0,0,1,2.035-.055c.013.314-.144.476-.475.485a3.561,3.561,0,0,1-.886.434,32.491,32.491,0,0,1-4.6,1.047,67.436,67.436,0,0,1-22.4-.047,57.73,57.73,0,0,1-9.973-2.555A7.8,7.8,0,0,1,102.7,164.03Z" transform="translate(-87.418 -140.732)"/>
        <path id="Path_107579" data-name="Path 107579" d="M94.985,168.584c.07-.3-.04-.713.272-.894a32.46,32.46,0,0,1,.263,4.234c.065,5.262-.121,10.526-.431,15.78a122.052,122.052,0,0,1-1.884,16.589,2.933,2.933,0,0,1-.525,1.345c-.354.042-.4-.372-.418-.631a20.073,20.073,0,0,1,.1-2.54c.683-7.656,1.424-15.307,1.922-22.978C94.547,175.856,94.713,172.218,94.985,168.584Z" transform="translate(-78.721 -143.778)"/>
        <path id="Path_107580" data-name="Path 107580" d="M322.01,176.41c.247-.314.391.354.322.537-.3,7.23-.921,14.441-1.527,21.65-.265,2.842-.547,5.683-.866,8.518-.2,1.61-.364,3.227-.7,4.816-.094.309-.129.691-.414.894-.493-.005-.381-.658-.434-.99,0-3.2.346-6.383.6-9.568q.949-10.49,2.285-20.943C321.492,179.681,321.711,178.039,322.01,176.41Z" transform="translate(-266.926 -150.966)"/>
        <path id="Path_107581" data-name="Path 107581" d="M182.132,215.678a4.771,4.771,0,0,1,5.219,2.459,5.4,5.4,0,0,1-2.7,7.27,4.685,4.685,0,0,1-6.015-3.375,5.265,5.265,0,0,1,3.5-6.354m-.055,1.634-.384-.077a3.6,3.6,0,0,0-1.62,1.76l-.48.04a4.392,4.392,0,0,0,1.179,4.477,3.278,3.278,0,0,0,3.865.362,4.087,4.087,0,0,0,1.206-5.4,3.409,3.409,0,0,0-3.731-1.441C182.1,217.1,182.085,217.241,182.077,217.312Z" transform="translate(-150.518 -183.618)"/>
        <path id="Path_107582" data-name="Path 107582" d="M139.877,295.705a14.975,14.975,0,0,1,10.075-1.459,9.8,9.8,0,0,1,6.015,3.825,9.36,9.36,0,0,1,1.691,4.449c.007.327.086.9-.4.874a2.514,2.514,0,0,1-.587-1.053,10.836,10.836,0,0,0-2.973-4.673,11.034,11.034,0,0,0-7.361-2.32A13.954,13.954,0,0,0,139,297.5a6.74,6.74,0,0,0-2.823,3.581,8.9,8.9,0,0,0-.29,2.149,3.661,3.661,0,0,1-.2-2.635A7.976,7.976,0,0,1,139.877,295.705Z" transform="translate(-114.744 -248.845)"/>
        <path id="Path_107583" data-name="Path 107583" d="M98.78,384.936a.392.392,0,0,1,.56-.143c1.85.443,3.69.936,5.564,1.277a74.81,74.81,0,0,0,9.647,1.406,80.287,80.287,0,0,0,19.363-.681c.086-.01.26-.03.347-.039a19.435,19.435,0,0,1,3.957-.344c.329-.04.176.441-.037.48a6.368,6.368,0,0,1-1.619.632,46.744,46.744,0,0,1-6.4,1.179,65.172,65.172,0,0,1-18.518-.3A56.236,56.236,0,0,1,98.78,384.936Z" transform="translate(-84.155 -324.406)"/>
      </g>
      <g id="_ffcb05ff" data-name="#ffcb05ff" transform="translate(15.943 25.033)">
        <path id="Path_107584" data-name="Path 107584" d="M108.763,174.37a94.8,94.8,0,0,0,14.695,3.439c5.606.679,11.216-.3,16.776-.928,1.382-.169,2.761-.357,4.143-.52q-1.8,17.661-3.578,35.326c-.087.008-.262.029-.347.039-4.484.25-8.969.426-13.453.664a47.58,47.58,0,0,1-5.91.017A74.811,74.811,0,0,1,111.442,211a14.816,14.816,0,0,1-3.246-1.461,2.966,2.966,0,0,1-1.54-2.2,16.791,16.791,0,0,1,.575-3.986c.656-4.341.7-8.74.931-13.116q.42-7.929.6-15.864M138.87,182.7c.029,3.979.2,7.958.557,11.92.079.433.022.995.473,1.231a6.15,6.15,0,0,0,.143-1.587q-.191-5.878-.81-11.732a13.3,13.3,0,0,0-.237-1.607,5.677,5.677,0,0,0-.126,1.775m-16.563-1.3a5.265,5.265,0,0,0-3.5,6.354,4.685,4.685,0,0,0,6.015,3.375,5.4,5.4,0,0,0,2.7-7.27,4.772,4.772,0,0,0-5.219-2.459m-6.482,14.8a7.976,7.976,0,0,0-4.2,4.89,3.661,3.661,0,0,0,.2,2.635,8.9,8.9,0,0,1,.29-2.149,6.74,6.74,0,0,1,2.823-3.581,13.954,13.954,0,0,1,7.342-2.154,11.034,11.034,0,0,1,7.361,2.32,10.836,10.836,0,0,1,2.973,4.673,2.514,2.514,0,0,0,.587,1.053c.485.029.406-.547.4-.874a9.36,9.36,0,0,0-1.691-4.449,9.8,9.8,0,0,0-6.015-3.825,14.976,14.976,0,0,0-10.075,1.459m23.508,4.222a17.448,17.448,0,0,0-.582,4.6c.46.287.565-.362.637-.674a22.788,22.788,0,0,0,.45-5.247C139.471,199.43,139.477,199.978,139.333,200.42Z" transform="translate(-106.635 -174.37)" fill="#34ff97"/>
        <path id="Path_107585" data-name="Path 107585" d="M186.566,224c.008-.07.027-.211.035-.282a3.409,3.409,0,0,1,3.731,1.441,4.087,4.087,0,0,1-1.206,5.4,3.278,3.278,0,0,1-3.865-.362,4.392,4.392,0,0,1-1.179-4.477l.48-.04a3.6,3.6,0,0,1,1.62-1.76Z" transform="translate(-170.95 -215.34)" fill="#ffec00"/>
        <path id="Path_107586" data-name="Path 107586" d="M394.566,244.11a35.122,35.122,0,0,0,6.839,1.669l.045.032c.138.092.277.183.418.275-.04.965,0,1.932-.106,2.894a10.9,10.9,0,0,0-.03,2.026c-2.513-.277-5.007-.7-7.512-1.032C394.275,248.017,394.448,246.064,394.566,244.11Z" transform="translate(-345.978 -232.411)" fill="#ffec00"/>
        <path id="Path_107587" data-name="Path 107587" d="M380.38,365.01a21.413,21.413,0,0,0,5.026,1.516l.039.037c.047.042.138.128.185.171a12.869,12.869,0,0,1-.052,1.986,10.132,10.132,0,0,0-.168,3.009c-1.565-.278-3.14-.518-4.689-.884a5.016,5.016,0,0,0-.891-.122c.013-.8.012-1.6.034-2.4C379.994,367.216,380.226,366.117,380.38,365.01Z" transform="translate(-334.002 -333.031)" fill="#ffec00"/>
      </g>
    </g>
  </g>
</svg>
