<svg xmlns="http://www.w3.org/2000/svg" width="96" height="96" viewBox="0 0 96 96">
  <g id="t8" transform="translate(-1224 -2064)">
    <rect id="Rectangle_6678" data-name="Rectangle 6678" width="96" height="96" transform="translate(1224 2064)" fill="none"/>
    <g id="EDIT" transform="translate(1188.254 2057.3)">
      <g id="_000000ff" data-name="#000000ff" transform="translate(46.355 10.999)">
        <path id="Path_107654" data-name="Path 107654" d="M311.011,11.766c.7-.383,1.445-.952,2.292-.708a16.4,16.4,0,0,1,4.539,1.978,23.726,23.726,0,0,1,10.47,13.441,11.611,11.611,0,0,1,.589,3.6.777.777,0,0,1-.291.64l-.464-.214a10.359,10.359,0,0,1-1.443,1.593c-1.643,1.571-3.36,3.061-4.985,4.65-.812.787-1.593,1.6-2.42,2.372.464.79,1.045,1.728.663,2.672-.285.758-1.439,1.279-2.042.576-.171-.408.439-.4.66-.56.6-.293.2-1.027-.082-1.413a113.931,113.931,0,0,0-12.626-15.023c-1.687-1.639-3.371-3.287-5.155-4.823-.378-.4-1.231-.487-1.136.282l.348.373c-.847.1-.94-1.265-.194-1.455.872-.26,1.619.416,2.276.885a16.869,16.869,0,0,1,2.559-3.346,32.858,32.858,0,0,1,6.442-5.517m2.522-.269c-2.74,2.419-5.686,4.591-8.47,6.959-.935.787-1.834,1.614-2.809,2.351a71.394,71.394,0,0,1,16.878,18.075,10.622,10.622,0,0,1,1.386-2.456,28.9,28.9,0,0,1,5.723-5.863,5.564,5.564,0,0,1,1.619-.926,33.2,33.2,0,0,0-3.5-8.1,12.4,12.4,0,0,0-1.791-2.4,3.689,3.689,0,0,0-.792-1.113,26.873,26.873,0,0,0-6.767-5.6A16.085,16.085,0,0,0,313.533,11.5Z" transform="translate(-254.127 -10.999)"/>
        <path id="Path_107655" data-name="Path 107655" d="M240.469,54.711c.114-.357.323-.9.8-.76.521.037.523.671.519,1.058a21.707,21.707,0,0,1-1.065,5.524c-.18.428-.26.99-.715,1.218a10.246,10.246,0,0,1-.136-3.193A18.2,18.2,0,0,1,240.469,54.711Z" transform="translate(-205.313 -46.273)"/>
        <path id="Path_107656" data-name="Path 107656" d="M200.132,55.728c-.03-.33.341-.524.63-.483a2.29,2.29,0,0,1,.808.988,36.183,36.183,0,0,1,2.01,4.841,20.3,20.3,0,0,1,1.136,4.314c-.466-.066-.628-.583-.878-.915a44.934,44.934,0,0,1-3.1-6.483A7.715,7.715,0,0,1,200.132,55.728Z" transform="translate(-172.703 -47.349)"/>
        <path id="Path_107657" data-name="Path 107657" d="M108.1,69.9a4.905,4.905,0,0,1,1.013-.191,2.08,2.08,0,0,1-.551,1.034c-.628.785-1.3,1.537-1.976,2.279C101.835,78.2,96.9,83.2,91.961,88.2c-8.344,8.422-16.716,16.815-25.293,25a10.985,10.985,0,0,1-1.268,1.086,23.286,23.286,0,0,1,1.8-2.171c4.38-4.83,8.884-9.549,13.384-14.267,7.318-7.657,14.689-15.264,22.2-22.733,1.718-1.652,3.389-3.36,5.215-4.894Z" transform="translate(-62.003 -59.239)"/>
        <path id="Path_107658" data-name="Path 107658" d="M173.977,100.919c-.232-.275-.007-.69.282-.815a3.528,3.528,0,0,1,1.529.408,32.371,32.371,0,0,1,5.324,3.084c.407.328.926.608,1.092,1.14a9.874,9.874,0,0,1-2.827-.851,29.353,29.353,0,0,1-4.421-2.171A3.667,3.667,0,0,1,173.977,100.919Z" transform="translate(-151.136 -84.209)"/>
        <path id="Path_107659" data-name="Path 107659" d="M131.634,131.558a16.216,16.216,0,0,1,2.035-1.648,16.824,16.824,0,0,1-1.8,2.051c-4.607,4.66-9.355,9.178-14.088,13.712-7.307,6.968-14.634,13.917-22.081,20.736a5.422,5.422,0,0,1-.845.665c3.178-3.323,6.5-6.5,9.778-9.729q8.165-7.989,16.423-15.879C124.566,138.15,128.039,134.786,131.634,131.558Z" transform="translate(-86.201 -108.701)"/>
        <path id="Path_107660" data-name="Path 107660" d="M172.154,133.176a8.1,8.1,0,0,1,1.644-1.316,5.9,5.9,0,0,1-1.209,1.564c-2.984,3.137-6.011,6.235-9.009,9.358-10.2,10.493-20.3,21.1-30.815,31.275l-.032.2c-.1-.105-.209-.209-.314-.31.408-.075.615-.5.91-.762q14.147-14.832,28.4-29.57C165.184,140.12,168.569,136.545,172.154,133.176Z" transform="translate(-117.07 -110.304)"/>
        <path id="Path_107661" data-name="Path 107661" d="M109.3,174.658c.243-.161.558-.526.858-.244a2.238,2.238,0,0,1-.483.985c-.854,1.163-1.807,2.249-2.743,3.346a16.571,16.571,0,0,1,5.57,2.964,11.862,11.862,0,0,1,5.363,6.8,19.165,19.165,0,0,1-.216,13.211,16.5,16.5,0,0,1-18.77,10.473A16.552,16.552,0,0,1,86.11,201.24c-.029-.009-.087-.03-.118-.039-3.237,3.333-6.451,6.692-9.7,10.017-2.146,2.19-4.243,4.432-6.476,6.537-.241.2-.173.646-.492.754a60.513,60.513,0,0,1-6.112,1.637q-5.955,1.346-11.95,2.522c-1.405.237-3.127.259-4.149-.9-.927-1.008-.838-2.488-.6-3.74.977-5.213,1.916-10.436,3.068-15.613.062-.676-.23-1.559.408-2.039a5.387,5.387,0,0,0,1.543,2.724,4.171,4.171,0,0,0,3.662.548c.653.255.751,1.038.728,1.648a4.084,4.084,0,0,0,2.322,3.845c1.152.455,2.349-.348,3.5.1a4.252,4.252,0,0,0-.358.826,5.268,5.268,0,0,0,2.8,4.072,16.438,16.438,0,0,0,2.39.482c.4.334.055.956.432,1.338.487,1.1,1.88.938,2.675,1.652,3.171-3.99,6.617-7.751,10.011-11.55q2.943-3.264,5.929-6.489a19.79,19.79,0,0,1-.485-4.557c-4.9,5-9.8,10.008-14.764,14.945-1.438,1.4-2.8,2.877-4.329,4.179.485-.687,1.1-1.263,1.65-1.9q8.652-9.291,17.5-18.4a17.729,17.729,0,0,1,4.99-11,16.421,16.421,0,0,1,10.841-4.819,18.112,18.112,0,0,1,4.473.36c1.25-1.259,2.458-2.563,3.8-3.724m-14.151,5.827a15.631,15.631,0,0,0-6.735,6.658A16.972,16.972,0,0,0,86.964,199.4a15.527,15.527,0,0,0,24.1,8.609,16.217,16.217,0,0,0,6.039-9.688,18.79,18.79,0,0,0-.856-10.555,13.5,13.5,0,0,0-3.35-4.853c-.5-.478-1.09-.86-1.545-1.384l.353-.2a19.394,19.394,0,0,0-5.647-2.206,16.448,16.448,0,0,0-10.917,1.364M49.957,203.27c-.5,4.434-1.177,8.845-1.81,13.263a4.432,4.432,0,0,1,2.984.487,6.363,6.363,0,0,1,3.175,3.442c4.24-.845,8.468-1.759,12.744-2.4a2.043,2.043,0,0,1-.71-2.408,4.185,4.185,0,0,1-4.709-1.618,5.575,5.575,0,0,1-.947-3.585,4.018,4.018,0,0,1-3.33,0,4.468,4.468,0,0,1-1.983-5.62,3.927,3.927,0,0,1-5.413-1.564m-1.926,13.792q-.118.441.309.282c.077-.3-.027-.391-.309-.282m1.707,2.338c-.278-.02-.389.469-.054.451.269.02.387-.483.054-.451m1.443,1.036C51.175,221.03,51.721,220.163,51.181,220.436Z" transform="translate(-46.355 -145.182)"/>
        <path id="Path_107662" data-name="Path 107662" d="M300.176,227.258a9.543,9.543,0,0,1,2.791-.667,16.954,16.954,0,0,1,3.569-.194,1.667,1.667,0,0,1,1.031.316,48.988,48.988,0,0,1,.524,9.105,10.987,10.987,0,0,1,3.091-.533,10,10,0,0,1,3.426.223c.375.1.337.512.351.815-.077.066-.232.2-.31.266a7.535,7.535,0,0,1,.364,4.266c-.086.451-.573.4-.92.433a14.556,14.556,0,0,1-6.128.4,66.233,66.233,0,0,1-.476,6.622c0,.335.21.824-.216.993a6.716,6.716,0,0,1-2.5.435,8.8,8.8,0,0,1-3.608-.631c-.7.284-.812-.544-.851-1.029-.2-2.117-.168-4.247-.227-6.371a11.446,11.446,0,0,1-4.254.032,3.968,3.968,0,0,1-1.858-.581c-.307.014-.722.052-.849-.3a7.36,7.36,0,0,1-.237-3.517,1.745,1.745,0,0,1,2.254-1.935,17.739,17.739,0,0,1,4.83.478q-.056-2.921-.1-5.841a11.345,11.345,0,0,1,.128-2.32,7.454,7.454,0,0,1,.653,2.506,90.577,90.577,0,0,1,1.011,13.4,20.147,20.147,0,0,1-.161,3.439,10.852,10.852,0,0,1-.21,1.677,18.839,18.839,0,0,1,5.957-.537,59.993,59.993,0,0,1-.535-6.451c-.141-3.765-.235-7.534-.136-11.3a22.225,22.225,0,0,1,.234-2.666,20.539,20.539,0,0,1-5.979-.075c-.244-.091-.738-.062-.656-.442m7.908,8.854c0,1.45-.037,2.9-.078,4.352a14.41,14.41,0,0,1,5.691.28,8.315,8.315,0,0,1,.457-4.024q-.42.043-.84.08a22.82,22.82,0,0,1-3.082-.162l.086-.005a8.942,8.942,0,0,1-2.233-.521m-8.752.474a19.066,19.066,0,0,1-4.766.328c-.268-.043-.537-.091-.8-.139a7.744,7.744,0,0,1,.54,4.122,12.318,12.318,0,0,1,5.768-.335c-.043-1.379-.057-2.757-.087-4.134C299.766,236.479,299.55,236.534,299.333,236.586Z" transform="translate(-248.836 -187.959)"/>
        <path id="Path_107663" data-name="Path 107663" d="M51.724,446a3.252,3.252,0,0,1-.314-3.332,3.979,3.979,0,0,0,.749,3.084,4.823,4.823,0,0,0,4.07,1.746c2.957-.014,5.59-1.612,8.49-1.958a17.937,17.937,0,0,1,8.447,1.3c3.672,1.329,7.116,3.284,10.928,4.215a12.994,12.994,0,0,0,6.558.1c3.012-.9,5.427-3.055,8.335-4.2a8.441,8.441,0,0,1,5.253-.439c2.713.633,4.965,2.435,7.641,3.164a6.188,6.188,0,0,0,5.126-.565c.2-.143.767-.5.721,0a3.423,3.423,0,0,1-2.162,1.721,8.931,8.931,0,0,1-5.8-.467c-2.354-.919-4.562-2.433-7.154-2.574-2.558-.068-4.769,1.407-6.883,2.656a16.245,16.245,0,0,1-5.97,2.5c-3.2.474-6.41-.407-9.38-1.545-3.787-1.43-7.3-3.6-11.285-4.475a12.975,12.975,0,0,0-6.266.061c-2.379.612-4.778,1.543-7.279,1.234A5.106,5.106,0,0,1,51.724,446Z" transform="translate(-50.234 -365.679)"/>
      </g>
      <g id="_ffcb05ff" data-name="#ffcb05ff" transform="translate(92.087 11.497)">
        <path id="Path_107664" data-name="Path 107664" d="M327.469,13.79a16.081,16.081,0,0,1,1.482.926c2.54,2.215,5.085,4.425,7.559,6.713a12.4,12.4,0,0,1,1.791,2.4,33.2,33.2,0,0,1,3.5,8.1,5.564,5.564,0,0,0-1.62.926,28.9,28.9,0,0,0-5.723,5.863,10.623,10.623,0,0,0-1.386,2.456A71.394,71.394,0,0,0,316.19,23.1c.976-.737,1.875-1.564,2.809-2.351,2.784-2.369,5.731-4.541,8.47-6.959m.612,3.956a7.148,7.148,0,0,0,1.3,1.036,17.8,17.8,0,0,1,6.319,8.8c.177.33.187.942.667.96a8.715,8.715,0,0,0-1.059-3.913,13.958,13.958,0,0,0-7.231-6.885m6.658,17.133c-.262.339.269.678.5.357a7.572,7.572,0,0,0,1.858-3.148A8.06,8.06,0,0,0,334.739,34.879Z" transform="translate(-313.795 -13.79)" fill="#ffec00"/>
        <path id="Path_107665" data-name="Path 107665" d="M337.73,238.237a45.107,45.107,0,0,1,5.718-1.1c.016.715.041,1.432.055,2.149-.1,3.767-.005,7.536.136,11.3-.016,2.067-.071,4.133-.1,6.2-1.443-.5-2.884.373-4.338.187a.934.934,0,0,1-.776-1.074,20.153,20.153,0,0,0,.161-3.439,20.919,20.919,0,0,0,.005-3.94c-.243-3.432-.4-6.876-.863-10.286m2.376,3.335a30.526,30.526,0,0,0-.1,4.994c.052.246.032.729.4.669.293-.237.219-.683.275-1.02a27.143,27.143,0,0,0-.3-5.768A2.284,2.284,0,0,0,340.106,241.572Z" transform="translate(-331.493 -197.304)" fill="#34ff97"/>
        <path id="Path_107666" data-name="Path 107666" d="M302.76,283.968a19.065,19.065,0,0,0,4.766-.328,1.419,1.419,0,0,1,.4.685,9.778,9.778,0,0,1,.087,2.982c-1.677-.011-3.353.005-5.03,0A12.128,12.128,0,0,0,302.76,283.968Z" transform="translate(-302.76 -235.51)" fill="#34ff97"/>
        <path id="Path_107667" data-name="Path 107667" d="M379.95,284.137c.631-.073,1.261-.177,1.9-.207a22.812,22.812,0,0,0,3.082.162,8.319,8.319,0,0,1,.219,3.428c-1.65.007-3.3-.013-4.949,0A11.641,11.641,0,0,0,379.95,284.137Z" transform="translate(-366.183 -235.749)" fill="#34ff97"/>
      </g>
      <g id="_ffffffff" data-name="#ffffffff" transform="translate(86.408 15.453)">
        <path id="Path_107668" data-name="Path 107668" d="M382.86,35.97a13.958,13.958,0,0,1,7.231,6.885,8.715,8.715,0,0,1,1.059,3.913c-.48-.018-.49-.63-.667-.96a17.8,17.8,0,0,0-6.319-8.8A7.148,7.148,0,0,1,382.86,35.97Z" transform="translate(-362.894 -35.97)" fill="#fff"/>
        <path id="Path_107669" data-name="Path 107669" d="M419.863,119.171a8.06,8.06,0,0,1,2.356-2.791,7.572,7.572,0,0,1-1.858,3.148C420.132,119.849,419.6,119.51,419.863,119.171Z" transform="translate(-393.239 -102.038)" fill="#fff"/>
        <path id="Path_107670" data-name="Path 107670" d="M279.658,200.891a16.448,16.448,0,0,1,10.917-1.364,19.394,19.394,0,0,1,5.647,2.206l-.353.2c.455.524,1.043.906,1.545,1.384a13.5,13.5,0,0,1,3.35,4.853,18.79,18.79,0,0,1,.856,10.555,16.217,16.217,0,0,1-6.039,9.688,15.527,15.527,0,0,1-24.1-8.609,16.972,16.972,0,0,1,1.448-12.258,15.631,15.631,0,0,1,6.735-6.658m2.549,4c-.082.38.412.351.656.442a20.539,20.539,0,0,0,5.979.075,22.225,22.225,0,0,0-.234,2.666c-.014-.717-.039-1.434-.055-2.149a45.106,45.106,0,0,0-5.718,1.1c.458,3.41.621,6.854.863,10.286a20.917,20.917,0,0,1-.005,3.94,90.577,90.577,0,0,0-1.011-13.4,7.454,7.454,0,0,0-.653-2.506,11.345,11.345,0,0,0-.128,2.32q.051,2.921.1,5.841a17.739,17.739,0,0,0-4.83-.478,1.745,1.745,0,0,0-2.254,1.935,7.36,7.36,0,0,0,.237,3.517c.127.357.542.319.849.3a3.968,3.968,0,0,0,1.858.581,11.447,11.447,0,0,0,4.254-.032c.059,2.124.029,4.254.227,6.371.039.485.15,1.313.851,1.029a8.8,8.8,0,0,0,3.608.631,6.716,6.716,0,0,0,2.5-.435c.426-.169.219-.658.216-.993a66.232,66.232,0,0,0,.476-6.622,14.557,14.557,0,0,0,6.128-.4c.348-.029.835.018.92-.433a7.535,7.535,0,0,0-.364-4.266c.078-.066.234-.2.31-.266-.014-.3.023-.719-.351-.815a10,10,0,0,0-3.426-.223,10.987,10.987,0,0,0-3.091.533,48.988,48.988,0,0,0-.524-9.105,1.667,1.667,0,0,0-1.031-.316,16.953,16.953,0,0,0-3.569.194A9.543,9.543,0,0,0,282.207,204.888Z" transform="translate(-270.918 -170.042)" fill="#fff"/>
        <path id="Path_107671" data-name="Path 107671" d="M350.306,256.805a2.285,2.285,0,0,1,.278-1.125,27.143,27.143,0,0,1,.3,5.768c-.055.337.018.783-.275,1.02-.373.061-.353-.423-.4-.669A30.529,30.529,0,0,1,350.306,256.805Z" transform="translate(-336.014 -216.493)" fill="#fff"/>
        <path id="Path_107672" data-name="Path 107672" d="M378.188,280.98a8.943,8.943,0,0,0,2.233.521l-.086.005c-.637.03-1.266.134-1.9.207a11.641,11.641,0,0,1,.25,3.382c1.65-.011,3.3.009,4.949,0a8.319,8.319,0,0,0-.219-3.428q.42-.037.84-.08a8.314,8.314,0,0,0-.457,4.024,14.41,14.41,0,0,0-5.691-.28C378.151,283.882,378.187,282.43,378.188,280.98Z" transform="translate(-358.992 -237.281)" fill="#fff"/>
        <path id="Path_107673" data-name="Path 107673" d="M303.828,282.909c.218-.052.433-.107.653-.159.03,1.377.045,2.756.087,4.134a12.318,12.318,0,0,0-5.768.335,7.744,7.744,0,0,0-.54-4.122c.266.048.535.1.8.139a12.129,12.129,0,0,1,.228,3.339c1.677.005,3.353-.011,5.03,0a9.777,9.777,0,0,0-.087-2.982A1.419,1.419,0,0,0,303.828,282.909Z" transform="translate(-293.383 -238.735)" fill="#fff"/>
        <path id="Path_107674" data-name="Path 107674" d="M345.882,312.55a60,60,0,0,0,.535,6.451,18.84,18.84,0,0,0-5.957.537,10.856,10.856,0,0,0,.21-1.677.934.934,0,0,0,.776,1.074c1.454.185,2.895-.683,4.338-.187C345.811,316.683,345.866,314.617,345.882,312.55Z" transform="translate(-328.057 -263.22)" fill="#fff"/>
      </g>
    </g>
  </g>
</svg>
