<svg xmlns="http://www.w3.org/2000/svg" width="96" height="96" viewBox="0 0 96 96">
  <g id="t9" transform="translate(-1224 -2064)">
    <rect id="Rectangle_6678" data-name="Rectangle 6678" width="96" height="96" transform="translate(1224 2064)" fill="none"/>
    <g id="message" transform="translate(1215.668 2035.91) rotate(3)">
      <g id="_000000ff" data-name="#000000ff" transform="translate(17.737 33.324)">
        <path id="Path_107675" data-name="Path 107675" d="M117.129,33.853a4.236,4.236,0,0,1,3.157-.348.5.5,0,0,1,.037.883,10.052,10.052,0,0,1-1.457.449,6.129,6.129,0,0,0-4.042,3.667,7.247,7.247,0,0,1-.722,1.864A5.442,5.442,0,0,1,117.129,33.853Z" transform="translate(-96.693 -33.324)"/>
        <path id="Path_107676" data-name="Path 107676" d="M371.18,35.043a7.275,7.275,0,0,1,4.882,1.655,8.038,8.038,0,0,1,3.07,4.416c.057.348.155.933-.316,1.027-.521.146-.731-.469-.976-.8a13.143,13.143,0,0,0-5.075-5.265A5.018,5.018,0,0,1,371.18,35.043Z" transform="translate(-308.137 -34.717)"/>
        <path id="Path_107677" data-name="Path 107677" d="M70.166,46.82a5.692,5.692,0,0,1,4.868-2.06,6.483,6.483,0,0,1,4.5,3.228,16.607,16.607,0,0,1,2.19,7.648,22.53,22.53,0,0,1-.612,6.9c2.321.289,4.789.128,6.955,1.142A3.885,3.885,0,0,1,90.1,67.425c-.052,4.281.114,8.563.007,12.844-.084.706.678,1.056,1.02,1.579a33.313,33.313,0,0,1,7.1,18.577,32.763,32.763,0,0,1-.7,9.3,16.294,16.294,0,0,1-1.327,3.84c-.136.2-.285.571-.592.392l-.241-.364c-1.288-.426-2.29-1.689-3.751-1.546-.869,0-1.78,1.052-1.131,1.841.815.9,2.164.614,3.245.628.187.278.537.706.153.985-.842.594-1.955.867-2.533,1.791A1.394,1.394,0,0,0,91.7,119.4a1.994,1.994,0,0,0,2.055-.951c.592-.674.6-1.634,1.036-2.39.194-.25.712-.342.826.043.576,1.334-.555,2.709-.157,4.07a.647.647,0,0,0,.8.524c.747-.191.974-1.051.974-1.727.153-1.19-.986-1.957-1.277-3.029.05-.307.346-.576.651-.376.986.467,1.5,1.495,2.217,2.267.437.487,1.01,1.058,1.728.936.373-.059.892-.407.66-.837a8.377,8.377,0,0,0-1.848-1.7,16.128,16.128,0,0,1-2.886-2.688,16.612,16.612,0,0,1,3.708,1.884c.992.608,2.242,1.211,2.51,2.46a2.2,2.2,0,0,1-2.139,2.447,3.285,3.285,0,0,1-2.5-1.058,2.555,2.555,0,0,1-.806,2.319,1.971,1.971,0,0,1-2.693-.03,2.969,2.969,0,0,1-.765-1.68,2.76,2.76,0,0,1-2.378.833,2.536,2.536,0,0,1-1.939-2.652,3.515,3.515,0,0,1,1.532-2.618,2.755,2.755,0,0,1-1.991-1.532,2.647,2.647,0,0,1,2.087-3.377,4.6,4.6,0,0,1,4.42,2.019,39.179,39.179,0,0,0-.58-21.313A38.237,38.237,0,0,0,90.1,81.281c-.062,2.752-.091,5.506-.141,8.26a71.254,71.254,0,0,1-.214,8.487,7.032,7.032,0,0,1-1.1,3.152,2.672,2.672,0,0,1-1.814.945,23.354,23.354,0,0,1-5.922-.159c-.036,3.644.021,7.3-.309,10.934a2.858,2.858,0,0,1-.551,1.8,1.647,1.647,0,0,1-2.342,0,36.675,36.675,0,0,1-7.955-12.629,35.254,35.254,0,0,1-5.046.658,125.083,125.083,0,0,1-19.974.023c-2.208-.175-4.407-.435-6.617-.585A8.179,8.179,0,0,1,33.5,100.77a8.364,8.364,0,0,1-2.834-5.7c-.243-2.074-.034-4.165-.095-6.245-.121-2.684-.235-5.369-.357-8.053a56.479,56.479,0,0,0-3.68,7.354,46.135,46.135,0,0,0-3.109,13,56.167,56.167,0,0,0,.114,10.187,4.564,4.564,0,0,1,3.707-3.138,2.694,2.694,0,0,1,2.531,1.134,2.212,2.212,0,0,1,.127,2.526c-.271.5-.812.731-1.216,1.1a3.884,3.884,0,0,1,1.9,1.939,2.57,2.57,0,0,1-1.268,3.312,2.748,2.748,0,0,1-2.449-.317,2.574,2.574,0,0,1-.874,2.328,2.088,2.088,0,0,1-2.7-.316,2.889,2.889,0,0,1-.724-1.645,3.288,3.288,0,0,1-2.451,1.587,2.163,2.163,0,0,1-2.374-2.089c.1-1.295,1.224-2.123,2.074-2.966a15.783,15.783,0,0,1,3.039-2.5,15.377,15.377,0,0,1-2.176,3.2,6.718,6.718,0,0,0-1.509,2.264c.139.619,1.008.655,1.443.33,1.29-.952,1.316-2.854,2.593-3.815a.43.43,0,0,1,.678.255c-.046,1.106-.988,2.1-.576,3.227.155.637.515,1.393,1.252,1.466a.614.614,0,0,0,.728-.567c.189-1.441-1.241-2.527-1.045-3.97-.012-.41.521-.553.8-.314.592.635.815,1.555,1.523,2.094a2.317,2.317,0,0,0,1.9.646,1.086,1.086,0,0,0,.762-1.324,2.378,2.378,0,0,0-1.634-1.609,11.5,11.5,0,0,1-1.891-.621c-.323-.252-.025-.656.1-.936a5.344,5.344,0,0,0,2.7-.922,1.017,1.017,0,0,0,.143-1.432,1.768,1.768,0,0,0-2.288-.18c-.847.435-1.357,1.281-2.114,1.828-.223.21-.482,0-.715-.068-.116.264-.153.7-.555.532a7.368,7.368,0,0,1-.82-2.631A37.935,37.935,0,0,1,24.944,88.83,32.312,32.312,0,0,1,30.2,80.28q-.308-6.429-.573-12.86c-.041-1.356-.15-2.879.749-4.01.86-1.088,2.358-1.222,3.641-1.325,1.919-.034,3.819-.332,5.731-.451a29.394,29.394,0,0,1-.772-9.434A8.1,8.1,0,0,1,41.6,46.858a5.088,5.088,0,0,1,5.071-.842A9.4,9.4,0,0,1,51,49.925a21.408,21.408,0,0,1,2.931,11.366c4.523.029,9.049.05,13.567.26a29.505,29.505,0,0,1,.2-8.59,12.219,12.219,0,0,1,2.467-6.141m1.3.621a11.349,11.349,0,0,0-2.6,5.681A30.634,30.634,0,0,0,69.9,68.7a18.727,18.727,0,0,1,1.379-5.57,5.711,5.711,0,0,1,1.249-1.985,1.881,1.881,0,0,1,2-.355,4.1,4.1,0,0,1,1.3,1.054,4.5,4.5,0,0,1,1.363.928A4.885,4.885,0,0,1,78.2,66.209a20.769,20.769,0,0,0,.933-15.566,7.324,7.324,0,0,0-3.18-4.108,3.938,3.938,0,0,0-4.481.906m-29.582,1.1c-1.495,1.684-1.793,4.036-1.844,6.2A31.4,31.4,0,0,0,45.1,71.84c.128.309.5.585.408.947l-.08-.148a26.544,26.544,0,0,1-5.217-9.505c-1.393.082-2.779.253-4.167.392a16.687,16.687,0,0,0-1.937.164,4.1,4.1,0,0,0-2.292.469c-.788.667-.637,1.809-.646,2.733.2,5.943.5,11.885.765,17.828.082,2.085.241,4.168.173,6.257a17.036,17.036,0,0,0,.489,5.859,5.9,5.9,0,0,0,1.853,2.788,6.374,6.374,0,0,0,3.309,1.029c1.316.111,2.635.191,3.946.351a134.849,134.849,0,0,0,19.774.829c2.683-.025,5.365-.177,8.05-.128l-.118-.166a8.1,8.1,0,0,1,1.773,2.378,51.443,51.443,0,0,0,5.966,8.016,16.106,16.106,0,0,0,1.777,1.8c.342-2.754.346-5.533.523-8.3a17.294,17.294,0,0,1,.647-4.02c.05-.289.371-.507.546-.175a1.609,1.609,0,0,1,.294.608,44.722,44.722,0,0,0,5.244-.039,3.113,3.113,0,0,0,2.123-.969,8.669,8.669,0,0,0,.806-2.579,49.245,49.245,0,0,0,.08-7.83c-.009-4.522-.012-9.042-.036-13.561.007-2.8-.255-5.588-.144-8.385.016-1.172.054-2.577-.924-3.412a6.456,6.456,0,0,0-3.849-1.018c-1.152-.2-2.326-.218-3.489-.309a20.774,20.774,0,0,1-3.17,6.207,8.3,8.3,0,0,1-3.211,2.686,4.213,4.213,0,0,1-3.33.043c-.285-.157-.7-.373-.608-.763a7.735,7.735,0,0,1,.812.045c-.212-.18-.425-.36-.644-.532l.021.078a31.171,31.171,0,0,1-2.922-8.6l-.549-.018c-3.658-.118-7.318-.205-10.977-.137a17.823,17.823,0,0,0-2.2.039l-.326.28.553.116c-.187.127-.532.182-.451.5a20.188,20.188,0,0,1-1.06,4.34,17.869,17.869,0,0,1-.826,2.95,4.061,4.061,0,0,1-3.2,2.633c-1.093.257-2.347.612-3.35-.112.025-.084.073-.25.1-.334.489-.043.979-.066,1.47-.095-2.092-1.529-2.572-4.506-1.914-6.881.466-1.175.3-2.527.961-3.635a2.105,2.105,0,0,1,2.165-1.124c.683.08,1.152.642,1.782.856a4.449,4.449,0,0,1,2.2,2.433,20.978,20.978,0,0,0-2.1-13.456c-.961-1.675-2.256-3.377-4.177-3.976a3.718,3.718,0,0,0-3.917,1.25m5.339,15.322c-.482.362-.378,1.027-.524,1.546.917-.426,2.412-.314,2.791.779.219,1.281.539,2.706-.073,3.928a1.983,1.983,0,0,1-2.107.933,1.214,1.214,0,0,0,1.181.312c.879-.321,1.158-1.34,1.3-2.171a7.753,7.753,0,0,0-1.509-6.047,4.259,4.259,0,0,0-1.063.719m29.313-.4a17.638,17.638,0,0,1,.576,3.435,5.784,5.784,0,0,0-.576-3.435m-2.8.749a6.512,6.512,0,0,0-1.084,3.928,2.454,2.454,0,0,0,.253,1.109,4.25,4.25,0,0,0,.778-1.659,5.954,5.954,0,0,0,.053-3.378M47.779,69.814a.934.934,0,0,0,.576-.958c-.029-.792.093-1.8-.669-2.3a3.549,3.549,0,0,0,.093,3.255m26.843-.5a2.65,2.65,0,0,1-1.4,1.325.866.866,0,0,0,1.348-.116,5.628,5.628,0,0,0,.9-3.032C74.957,67.973,74.973,68.742,74.621,69.318Z" transform="translate(-17.737 -42.688)"/>
        <path id="Path_107678" data-name="Path 107678" d="M72,92.9c-.078-.369-.164-.947.314-1.074.464-.243.781.276.97.615a19.147,19.147,0,0,1,1.55,4.634,5.13,5.13,0,0,1,.111,1.768,5.236,5.236,0,0,1-1.365-1.912A17.78,17.78,0,0,1,72,92.9Z" transform="translate(-62.269 -81.337)"/>
        <path id="Path_107679" data-name="Path 107679" d="M31.58,101.748a.617.617,0,0,1,.992-.366,14.318,14.318,0,0,1,4.32,3.492,11.8,11.8,0,0,1,2.461,3.963,5.155,5.155,0,0,1-1.611-1.234c-1.671-1.6-3.41-3.129-5.171-4.63C32.2,102.613,31.712,102.279,31.58,101.748Z" transform="translate(-29.111 -89.145)"/>
        <path id="Path_107680" data-name="Path 107680" d="M33.794,136.63c.036-.46.533-.574.91-.474a8.255,8.255,0,0,1,3.384,1.587,3.519,3.519,0,0,1,1.379,1.616,6.186,6.186,0,0,1-1.714-.439,31.5,31.5,0,0,1-3.371-1.436C34.083,137.312,33.627,137.046,33.794,136.63Z" transform="translate(-30.901 -117.786)"/>
        <path id="Path_107681" data-name="Path 107681" d="M172.342,244.221a2.288,2.288,0,0,1,2.7,2.734,2.171,2.171,0,0,1-2.631,1.495,2.218,2.218,0,0,1-1.268-3.305,2.094,2.094,0,0,1,1.2-.924m.153,1.568a1.179,1.179,0,0,0-.539,1,.994.994,0,0,0,1.395.187C173.942,246.506,173.132,245.329,172.5,245.789Z" transform="translate(-143.507 -206.54)"/>
        <path id="Path_107682" data-name="Path 107682" d="M317.552,244.328a2.675,2.675,0,0,1,3.109,2.932,2.436,2.436,0,0,1-2.1,2.089,2.316,2.316,0,0,1-2.572-1.3,7.249,7.249,0,0,1-.376-1.359,2.587,2.587,0,0,1,1.942-2.362m.123,1.545a1.912,1.912,0,0,0-1.052,1.363,1.371,1.371,0,0,0,2.255.519C319.641,247.022,318.68,245.454,317.675,245.873Z" transform="translate(-262.479 -206.631)"/>
        <path id="Path_107683" data-name="Path 107683" d="M268.784,255.226a2.389,2.389,0,0,1,2.813,2.742,2.259,2.259,0,0,1-3.4,1.584,2.881,2.881,0,0,1-1.29-2.108,2.328,2.328,0,0,1,1.875-2.217m-.4,2.231c-.036.592.5.956.879,1.313a1.809,1.809,0,0,0,.9-.951,1.125,1.125,0,0,0-.376-.919A.915.915,0,0,0,268.384,257.457Z" transform="translate(-222.464 -215.584)"/>
        <path id="Path_107684" data-name="Path 107684" d="M217.915,257.615a2.225,2.225,0,1,1,.633,4.21,2.146,2.146,0,0,1-1.78-2.524,2.029,2.029,0,0,1,1.147-1.686m.437,1.5c-.334.43-.12.99.059,1.438a1.21,1.21,0,0,0,1.129-.7C219.747,259.218,218.809,258.767,218.353,259.115Z" transform="translate(-181.228 -217.454)"/>
      </g>
      <g id="_ffffffff" data-name="#ffffffff" transform="translate(40.039 36.811)">
        <path id="Path_107685" data-name="Path 107685" d="M304.419,54.139a3.937,3.937,0,0,1,4.481-.906,7.324,7.324,0,0,1,3.18,4.108,20.769,20.769,0,0,1-.933,15.566,4.885,4.885,0,0,0-1.011-3.435,4.5,4.5,0,0,0-1.363-.928,4.1,4.1,0,0,0-1.3-1.054,1.881,1.881,0,0,0-2,.355,5.711,5.711,0,0,0-1.249,1.985,18.726,18.726,0,0,0-1.379,5.57,30.634,30.634,0,0,1-1.024-15.581A11.349,11.349,0,0,1,304.419,54.139Z" transform="translate(-272.99 -52.873)" fill="#fff"/>
        <path id="Path_107686" data-name="Path 107686" d="M144.613,59.664a3.718,3.718,0,0,1,3.917-1.25c1.921.6,3.216,2.3,4.177,3.976a20.978,20.978,0,0,1,2.1,13.456,4.449,4.449,0,0,0-2.2-2.433c-.63-.214-1.1-.776-1.782-.856a2.1,2.1,0,0,0-2.165,1.124c-.665,1.108-.5,2.46-.961,3.635-.658,2.376-.178,5.353,1.914,6.881-.491.029-.981.052-1.47.095l.107-.385c.1-.362-.28-.639-.408-.947a31.4,31.4,0,0,1-5.064-17.093C142.821,63.7,143.118,61.347,144.613,59.664Z" transform="translate(-142.766 -57.294)" fill="#fff"/>
        <path id="Path_107687" data-name="Path 107687" d="M180.634,148.749a4.26,4.26,0,0,1,1.063-.719,7.753,7.753,0,0,1,1.509,6.047c-.146.831-.425,1.85-1.3,2.171a1.214,1.214,0,0,1-1.181-.312,1.983,1.983,0,0,0,2.107-.933c.612-1.222.293-2.647.073-3.928-.38-1.093-1.875-1.206-2.791-.779C180.256,149.776,180.153,149.111,180.634,148.749Z" transform="translate(-173.449 -131.057)" fill="#fff"/>
        <path id="Path_107688" data-name="Path 107688" d="M347.39,149.84a5.784,5.784,0,0,1,.576,3.435A17.633,17.633,0,0,0,347.39,149.84Z" transform="translate(-310.891 -132.544)" fill="#fff"/>
        <path id="Path_107689" data-name="Path 107689" d="M326.705,154.04a5.954,5.954,0,0,1-.054,3.378,4.25,4.25,0,0,1-.778,1.659,2.453,2.453,0,0,1-.253-1.109A6.511,6.511,0,0,1,326.705,154.04Z" transform="translate(-293.002 -135.995)" fill="#fff"/>
        <path id="Path_107690" data-name="Path 107690" d="M184.062,170.405a3.549,3.549,0,0,1-.093-3.255c.762.5.64,1.505.669,2.3A.934.934,0,0,1,184.062,170.405Z" transform="translate(-176.322 -146.766)" fill="#fff"/>
        <path id="Path_107691" data-name="Path 107691" d="M330.2,174.223c.351-.576.335-1.345.846-1.823a5.629,5.629,0,0,1-.9,3.032.866.866,0,0,1-1.348.116A2.649,2.649,0,0,0,330.2,174.223Z" transform="translate(-295.617 -151.08)" fill="#fff"/>
        <path id="Path_107692" data-name="Path 107692" d="M381.247,204.935a14.354,14.354,0,0,1,.41-2.645,24.24,24.24,0,0,1,.066,2.989c-.062,3.278-.2,6.557-.512,9.821-.1.442-.02,1.049-.5,1.279a7.8,7.8,0,0,1-.128-1.821Q380.738,209.737,381.247,204.935Z" transform="translate(-338.154 -175.639)" fill="#fff"/>
        <path id="Path_107693" data-name="Path 107693" d="M381.409,293.341a8.92,8.92,0,0,1,.87-2.731,17.557,17.557,0,0,1-.512,4.9c-.082.293-.246.82-.622.5A8.816,8.816,0,0,1,381.409,293.341Z" transform="translate(-338.596 -248.205)" fill="#fff"/>
      </g>
      <g id="_ffcb05ff" data-name="#ffcb05ff" transform="translate(33.059 53.37)">
        <path id="Path_107694" data-name="Path 107694" d="M124.771,146.166a6.478,6.478,0,0,1,1.978-.435c3.658-.068,7.318.02,10.977.137a17,17,0,0,0,1.675,6.466,5.3,5.3,0,0,0,1.844,2.317l-.048-.169-.021-.078c.219.171.432.351.644.532a7.735,7.735,0,0,0-.812-.045c-.091.391.323.606.608.763a4.213,4.213,0,0,0,3.33-.043,8.3,8.3,0,0,0,3.211-2.686,20.775,20.775,0,0,0,3.17-6.207c1.163.091,2.337.112,3.489.309a6.243,6.243,0,0,1,1.9.812,2.167,2.167,0,0,1,.68,1.673q.808,14.734.191,29.5a7.4,7.4,0,0,1-.476,2.986,4.337,4.337,0,0,1-3.121,2.144,12.454,12.454,0,0,1-4.629-.449,93.269,93.269,0,0,1-.344,11.384,3.256,3.256,0,0,1-1.284-.169,51.444,51.444,0,0,1-5.966-8.016,8.1,8.1,0,0,0-1.773-2.378c-.376-.458-.658-1.167-1.324-1.241-.9.029-1.746.417-2.642.517-4.759.722-9.509-.755-14.277-.36a35.189,35.189,0,0,1-5.221.483,14.837,14.837,0,0,1-2.907-.581c-2.215-.576-4.486-.894-6.719-1.377a2.392,2.392,0,0,1-1.678-1.509c-1.25-2.884-1.332-6.088-1.366-9.181q-.115-11.146-.219-22.289a2.651,2.651,0,0,1,1.051-2.312,16.687,16.687,0,0,1,1.937-.164c1.388-.139,2.774-.31,4.167-.392a26.544,26.544,0,0,0,5.217,9.505l.08.148-.107.385c-.025.084-.073.25-.1.334,1,.724,2.256.369,3.35.112a4.061,4.061,0,0,0,3.2-2.633,17.87,17.87,0,0,0,.826-2.95,20.188,20.188,0,0,0,1.06-4.34c-.08-.321.264-.376.451-.5m28.935,12.279q-.5,4.8-.669,9.623a7.8,7.8,0,0,0,.128,1.821c.485-.23.408-.837.5-1.279.314-3.264.449-6.543.512-9.821a24.227,24.227,0,0,0-.066-2.989,14.35,14.35,0,0,0-.41,2.645m-36.559,4.9a2.094,2.094,0,0,0-1.2.924,2.218,2.218,0,0,0,1.268,3.305,2.171,2.171,0,0,0,2.631-1.495,2.288,2.288,0,0,0-2.7-2.734m26.238.016a2.587,2.587,0,0,0-1.942,2.362,7.251,7.251,0,0,0,.376,1.359,2.316,2.316,0,0,0,2.572,1.3,2.436,2.436,0,0,0,2.1-2.089,2.675,2.675,0,0,0-3.109-2.932m-8.754,1.944a2.328,2.328,0,0,0-1.875,2.217,2.881,2.881,0,0,0,1.29,2.108,2.259,2.259,0,0,0,3.4-1.584,2.389,2.389,0,0,0-2.813-2.742m-9.632.519a2.029,2.029,0,0,0-1.147,1.686,2.146,2.146,0,0,0,1.78,2.524,2.225,2.225,0,1,0-.633-4.21m28.427,8.462a8.814,8.814,0,0,0-.264,2.667c.376.319.54-.209.623-.5a17.56,17.56,0,0,0,.512-4.9A8.92,8.92,0,0,0,153.426,174.284Z" transform="translate(-103.633 -145.707)" fill="#ffec00"/>
        <path id="Path_107695" data-name="Path 107695" d="M177.772,252.888c.637-.46,1.447.717.856,1.191a.994.994,0,0,1-1.395-.187A1.179,1.179,0,0,1,177.772,252.888Z" transform="translate(-164.105 -233.684)" fill="#fff"/>
        <path id="Path_107696" data-name="Path 107696" d="M322.342,253.007c1-.419,1.966,1.149,1.2,1.882a1.371,1.371,0,0,1-2.255-.519A1.912,1.912,0,0,1,322.342,253.007Z" transform="translate(-282.467 -233.811)" fill="#fff"/>
        <path id="Path_107697" data-name="Path 107697" d="M275.172,264.742a.915.915,0,0,1,1.4-.557,1.125,1.125,0,0,1,.376.919,1.809,1.809,0,0,1-.9.951C275.668,265.7,275.136,265.335,275.172,264.742Z" transform="translate(-244.574 -242.915)" fill="#fff"/>
        <path id="Path_107698" data-name="Path 107698" d="M225.064,266.333c.457-.348,1.395.1,1.188.733a1.21,1.21,0,0,1-1.129.7C224.944,267.323,224.73,266.763,225.064,266.333Z" transform="translate(-203.26 -244.718)" fill="#fff"/>
      </g>
    </g>
  </g>
</svg>
