<svg id="touti-text" xmlns="http://www.w3.org/2000/svg" width="120.154" height="54.631" viewBox="0 0 120.154 54.631">
  <g id="Group_66465" data-name="Group 66465" transform="translate(-508 -646)">
    <path id="Path_6274" data-name="Path 6274" d="M10.86-39.083a3.711,3.711,0,0,1-2.8-.943,4.127,4.127,0,0,1-.9-2.933v-6.284q0-1.057.529-1.057.969,0,.969,2.643c0,.482-.023.887-.07,2.109-.07,1.386-.106,1.833-.106,2.678a2.529,2.529,0,0,0,.652,2,2.573,2.573,0,0,0,1.727.555Zm8.9-6.959a4.1,4.1,0,0,1,1.876.414,3.121,3.121,0,0,1,1.277,1.154,3.147,3.147,0,0,1,.458,1.691,3.148,3.148,0,0,1-.669,2,4.27,4.27,0,0,1-1.885,1.321A7.834,7.834,0,0,1,18-38.994a10.168,10.168,0,0,1-3.224-.476,12.367,12.367,0,0,1-3.206.388h-.7a.306.306,0,0,1-.282-.115,1.13,1.13,0,0,1-.07-.5,1.13,1.13,0,0,1,.07-.5.306.306,0,0,1,.282-.115h1.5q.529,0,.775-.018a3.274,3.274,0,0,1-1.216-2.625,2.989,2.989,0,0,1,.423-1.568,3.056,3.056,0,0,1,1.145-1.11,3.22,3.22,0,0,1,1.6-.405,3.119,3.119,0,0,1,1.594.414,2.879,2.879,0,0,1,1.1,1.119.846.846,0,0,1-.053-.3.966.966,0,0,1,.458-.828,1.65,1.65,0,0,0-.634-1.638.673.673,0,0,1-.37-.529.31.31,0,0,1,.132-.247.505.505,0,0,1,.326-.106,1.67,1.67,0,0,1,1.26.608,2.625,2.625,0,0,1,.661,1.506Zm-1.674,5.814a5.12,5.12,0,0,0,2.863-.678,2.139,2.139,0,0,0,1.013-1.876,1.849,1.849,0,0,0-.7-1.515,2.961,2.961,0,0,0-1.823-.6,1.331,1.331,0,0,1-.405.581.933.933,0,0,1-.6.211.663.663,0,0,1-.6-.3,3.185,3.185,0,0,1,.335,1.445,2.9,2.9,0,0,1-.4,1.489A3.591,3.591,0,0,1,16.638-40.3,12.33,12.33,0,0,0,18.083-40.228Zm-4.669-2.731a2.273,2.273,0,0,0,1.55,2.29,2.27,2.27,0,0,0,1.709-2.29,1.961,1.961,0,0,0-.449-1.33,1.437,1.437,0,0,0-1.136-.52,1.548,1.548,0,0,0-1.207.52A1.915,1.915,0,0,0,13.414-42.958Zm17.695-.352q0,3,2.643,3v1.233a4.293,4.293,0,0,1-2.052-.449,2.839,2.839,0,0,1-1.242-1.277,2.867,2.867,0,0,1-2.607,1.2,3.2,3.2,0,0,1-2.378-.89,3.221,3.221,0,0,1-.881-2.37,4.065,4.065,0,0,1,.352-1.718,2.876,2.876,0,0,1,.978-1.2,2.409,2.409,0,0,1,1.4-.432,2.161,2.161,0,0,1,1.2.308.887.887,0,0,1,.476.749.156.156,0,0,1-.176.176,3.02,3.02,0,0,1-.388-.044,4.4,4.4,0,0,0-.669-.044,1.5,1.5,0,0,0-1.251.537,2.511,2.511,0,0,0-.423,1.577,2.289,2.289,0,0,0,.484,1.568,1.842,1.842,0,0,0,1.453.546,1.94,1.94,0,0,0,1.357-.449,1.686,1.686,0,0,0,.493-1.313q0-.44-.088-1.621A11.676,11.676,0,0,1,29.7-45.6a2.077,2.077,0,0,1,.361-1.286,1.146,1.146,0,0,1,.96-.476.45.45,0,0,1,.326.1.512.512,0,0,1,.1.361,2.877,2.877,0,0,1-.07.581A16.717,16.717,0,0,0,31.109-43.311ZM42.79-41.672a3.152,3.152,0,0,0,1.3,1.039,5.23,5.23,0,0,0,1.991.317v1.233q-3.083,0-4.281-1.9a11.882,11.882,0,0,1-3.55,1.436,19.8,19.8,0,0,1-4.519.467.285.285,0,0,1-.264-.115,1.13,1.13,0,0,1-.07-.5,1.13,1.13,0,0,1,.07-.5.306.306,0,0,1,.282-.115,17.032,17.032,0,0,0,4.924-.608,11.609,11.609,0,0,0,3.85-2.105,18.242,18.242,0,0,1-1.727-.81q-1.128-.581-1.85-.863a3.863,3.863,0,0,0-1.409-.282,1.428,1.428,0,0,0-1.251.573,2.5,2.5,0,0,0-.335,1.63q.035.264-.247.264a.805.805,0,0,1-.449-.185,1.535,1.535,0,0,1-.44-.529,1.627,1.627,0,0,1-.185-.784,2.1,2.1,0,0,1,.731-1.647,2.788,2.788,0,0,1,1.912-.643,5.261,5.261,0,0,1,1.92.37,23.7,23.7,0,0,1,2.273,1.057q.159.088.846.432a8.531,8.531,0,0,0,1.251.52,2.2,2.2,0,0,1,.467-.326.988.988,0,0,1,.432-.1.761.761,0,0,1,.52.194.668.668,0,0,1,.22.529.787.787,0,0,1-.211.537,1,1,0,0,1-.581.308,2.109,2.109,0,0,1-.476.053A10.143,10.143,0,0,1,42.79-41.672Zm-7.8,5.638a.839.839,0,0,1,.167-.564,1.114,1.114,0,0,1,.643-.282,8.215,8.215,0,0,1,1.392-.088,10.15,10.15,0,0,1,1.313.062,1,1,0,0,1,.573.211.607.607,0,0,1,.141.432q0,.722-.617.617a9.6,9.6,0,0,0-1.409-.088,8.473,8.473,0,0,0-.916.07q-.141.018-.335.035t-.423.018a.663.663,0,0,1-.405-.1A.39.39,0,0,1,34.985-36.035ZM37.1-34.766a.717.717,0,0,1,.581.211,1.038,1.038,0,0,1,.176.669,1.038,1.038,0,0,1-.176.669A.717.717,0,0,1,37.1-33a.717.717,0,0,1-.581-.211,1.038,1.038,0,0,1-.176-.669,1.038,1.038,0,0,1,.176-.669A.717.717,0,0,1,37.1-34.766Zm8.985-5.55a6.536,6.536,0,0,0,2.519-.344,1.183,1.183,0,0,0,.74-1.154,8.651,8.651,0,0,0-.282-1.779q-.088-.405-.167-.8a3.542,3.542,0,0,1-.079-.678q0-.793.669-.793a.644.644,0,0,1,.581.414A4.465,4.465,0,0,1,50.4-44.1a19.274,19.274,0,0,1,.176,2.29,2.255,2.255,0,0,1-1.066,2.079,6.823,6.823,0,0,1-3.427.652A.306.306,0,0,1,45.8-39.2a1.13,1.13,0,0,1-.07-.5,1.13,1.13,0,0,1,.07-.5A.306.306,0,0,1,46.084-40.316Zm-.07,4.228a.72.72,0,0,1,.247-.59,1.115,1.115,0,0,1,.722-.2,1.115,1.115,0,0,1,.722.2.72.72,0,0,1,.247.59V-36q0,.793-.987.793a1.084,1.084,0,0,1-.7-.2.72.72,0,0,1-.247-.59Zm18.36-9.618a2.627,2.627,0,0,0-.9-.59,2.8,2.8,0,0,0-1.039-.2,2.614,2.614,0,0,0-1.216.291,2.488,2.488,0,0,0-.907.775,1.776,1.776,0,0,0-.344,1.048,1.646,1.646,0,0,0,.132.714,1.289,1.289,0,0,0,.458.493,4.865,4.865,0,0,0,1,.467,14.662,14.662,0,0,1,1.533.669,2.481,2.481,0,0,1,.863.749,2.055,2.055,0,0,1,.335,1.224,2.907,2.907,0,0,1-.7,1.929,4.582,4.582,0,0,1-1.964,1.3,8.255,8.255,0,0,1-2.881.467,5.922,5.922,0,0,1-3.832-1.11A3.793,3.793,0,0,1,53.539-40.6a5.5,5.5,0,0,1,.3-1.779,4.642,4.642,0,0,1,.758-1.445,1.244,1.244,0,0,1,.916-.564q.247,0,.247.211l-.035.141a12.815,12.815,0,0,0-.5,1.5,7.516,7.516,0,0,0-.185,1.85,2.766,2.766,0,0,0,1,2.273,4.31,4.31,0,0,0,2.792.81,5.612,5.612,0,0,0,2.881-.643,1.95,1.95,0,0,0,1.084-1.735,1.008,1.008,0,0,0-.476-.872,8.388,8.388,0,0,0-1.656-.766,4.078,4.078,0,0,1-1.683-1.013,2.238,2.238,0,0,1-.467-1.489A3.355,3.355,0,0,1,59.08-46a4.156,4.156,0,0,1,1.542-1.392,4.332,4.332,0,0,1,2.079-.52,2.673,2.673,0,0,1,1.533.4,1.124,1.124,0,0,1,.581.925,1.035,1.035,0,0,1-.106.484A1.353,1.353,0,0,1,64.374-45.706Zm4.875,5.919a5.854,5.854,0,0,1-.617,2.748,4.335,4.335,0,0,1-1.744,1.815,5.339,5.339,0,0,1-2.66.634q-.7,0-.7-.388a.226.226,0,0,1,.079-.176.881.881,0,0,1,.273-.141,6.676,6.676,0,0,0,3.074-1.788,4.077,4.077,0,0,0,.89-2.7q0-1.268-.088-2.22t-.106-1.075q-.07-.81-.07-.934,0-.529.352-.529.3,0,.608.661a7.447,7.447,0,0,1,.511,1.762A12.892,12.892,0,0,1,69.249-39.787Zm-.564-6.9q0,.793-.934.793t-.934-.793v-.088q0-.793.934-.793t.934.793Zm5.673,7.6a3.711,3.711,0,0,1-2.8-.943,4.127,4.127,0,0,1-.9-2.933v-6.284q0-1.057.529-1.057.969,0,.969,2.643c0,.482-.023.887-.07,2.109-.07,1.386-.106,1.833-.106,2.678a2.529,2.529,0,0,0,.652,2,2.573,2.573,0,0,0,1.727.555Zm9.038-2.59a3.152,3.152,0,0,0,1.3,1.039,5.23,5.23,0,0,0,1.991.317v1.233q-3.083,0-4.281-1.9a11.882,11.882,0,0,1-3.55,1.436,19.8,19.8,0,0,1-4.519.467.285.285,0,0,1-.264-.115,1.13,1.13,0,0,1-.07-.5,1.13,1.13,0,0,1,.07-.5.306.306,0,0,1,.282-.115,17.032,17.032,0,0,0,4.924-.608,11.609,11.609,0,0,0,3.85-2.105,18.242,18.242,0,0,1-1.727-.81q-1.128-.581-1.85-.863a3.863,3.863,0,0,0-1.409-.282,1.428,1.428,0,0,0-1.251.573,2.5,2.5,0,0,0-.335,1.63q.035.264-.247.264a.805.805,0,0,1-.449-.185,1.535,1.535,0,0,1-.44-.529,1.627,1.627,0,0,1-.185-.784,2.1,2.1,0,0,1,.731-1.647,2.788,2.788,0,0,1,1.912-.643,5.261,5.261,0,0,1,1.92.37,23.7,23.7,0,0,1,2.273,1.057q.159.088.846.432a8.529,8.529,0,0,0,1.251.52,2.2,2.2,0,0,1,.467-.326.988.988,0,0,1,.432-.1.761.761,0,0,1,.52.194.668.668,0,0,1,.22.529.787.787,0,0,1-.211.537,1,1,0,0,1-.581.308,2.109,2.109,0,0,1-.476.053A10.144,10.144,0,0,1,83.4-41.672Zm-6.29,5.585a.72.72,0,0,1,.247-.59,1.115,1.115,0,0,1,.722-.2,1.115,1.115,0,0,1,.722.2.72.72,0,0,1,.247.59V-36q0,.793-.987.793a1.084,1.084,0,0,1-.7-.2.72.72,0,0,1-.247-.59Zm15.222-9.69a3,3,0,0,1,2.317.925,3.555,3.555,0,0,1,.854,2.511,3.291,3.291,0,0,1-.9,2.475,3.492,3.492,0,0,1-2.537.872,3.447,3.447,0,0,1-1.656-.379,2.572,2.572,0,0,1-1.092-1.154,2.64,2.64,0,0,1-1.128,1.066,3.256,3.256,0,0,1-1.5.379.289.289,0,0,1-.282-.132,1.142,1.142,0,0,1-.07-.484,1.142,1.142,0,0,1,.07-.484.289.289,0,0,1,.282-.132,1.81,1.81,0,0,0,1.172-.44,2.954,2.954,0,0,0,.854-1.321,5.316,5.316,0,0,1,.625-1.374.929.929,0,0,1,.784-.388q.37,0,.37.264l-.035.141a5.867,5.867,0,0,0-.159,1.357,1.873,1.873,0,0,0,.476,1.357,1.821,1.821,0,0,0,1.374.493,1.78,1.78,0,0,0,1.383-.511A2.177,2.177,0,0,0,94-42.254a2.461,2.461,0,0,0-.529-1.709,2.037,2.037,0,0,0-1.586-.581,8.8,8.8,0,0,0-1.515.123,2.655,2.655,0,0,1-.476.053q-.211,0-.211-.176a.778.778,0,0,1,.361-.555,2.984,2.984,0,0,1,.969-.484A4.3,4.3,0,0,1,92.328-45.777Zm12.786,2.925a6.176,6.176,0,0,0,1.277,1.929,2.1,2.1,0,0,0,1.453.608v1.233a3.655,3.655,0,0,1-2.8-1.339,5.321,5.321,0,0,1-1.683,1.048,5.494,5.494,0,0,1-2.035.379,3.17,3.17,0,0,1-1.991-.573,1.848,1.848,0,0,1-.74-1.542,1.834,1.834,0,0,1,.247-1.013.673.673,0,0,1,.529-.379q.229,0,.282.282a2.762,2.762,0,0,0,.6,1.542,1.934,1.934,0,0,0,1.427.449,4.106,4.106,0,0,0,1.462-.273,4.41,4.41,0,0,0,1.3-.766,13.011,13.011,0,0,1-1.207-2.467,6.734,6.734,0,0,1-.5-2.22,1.724,1.724,0,0,1,.291-1.057.866.866,0,0,1,.714-.388.99.99,0,0,1,.229.035,19.8,19.8,0,0,0,.37,2.422A11.054,11.054,0,0,0,105.115-42.853Zm13.3,3.77h-2.484a1.909,1.909,0,0,1,.714.7,1.863,1.863,0,0,1,.273.969,2.3,2.3,0,0,1-.925,1.938,4.047,4.047,0,0,1-2.511.7A3.872,3.872,0,0,1,110.6-35.92a5.272,5.272,0,0,1-1.383-3.162h-1.374a.287.287,0,0,1-.273-.141,1.035,1.035,0,0,1-.079-.476,1.035,1.035,0,0,1,.079-.476.287.287,0,0,1,.273-.141h1.321a7.71,7.71,0,0,1,.6-2.9,5.289,5.289,0,0,1,1.5-2.07,3.173,3.173,0,0,1,2.044-.758,2.561,2.561,0,0,1,1.868.669,2.394,2.394,0,0,1,.687,1.8,3.27,3.27,0,0,1-.661,1.964,5.323,5.323,0,0,1-1.823,1.533,8.186,8.186,0,0,1-2.66.854,4.245,4.245,0,0,0,.916,2.387,2.463,2.463,0,0,0,1.938.837,2.149,2.149,0,0,0,1.348-.388,1.228,1.228,0,0,0,.5-1.022,1.285,1.285,0,0,0-.361-.978,1.464,1.464,0,0,0-1.048-.344,1.142,1.142,0,0,1-.484-.07.289.289,0,0,1-.132-.282q0-.317.432-.608a3.485,3.485,0,0,1,1.18-.458,7.557,7.557,0,0,1,1.647-.167h1.762Zm-5.2-5.726a1.729,1.729,0,0,0-1.233.555,4.11,4.11,0,0,0-.925,1.542,7.118,7.118,0,0,0-.4,2.255,5.747,5.747,0,0,0,2.7-1.119,2.5,2.5,0,0,0,1-2,1.282,1.282,0,0,0-.308-.89A1.068,1.068,0,0,0,113.219-44.808Zm10.835-.969a3,3,0,0,1,2.317.925,3.555,3.555,0,0,1,.854,2.511,3.291,3.291,0,0,1-.9,2.475,3.492,3.492,0,0,1-2.537.872,3.447,3.447,0,0,1-1.656-.379,2.572,2.572,0,0,1-1.092-1.154,2.64,2.64,0,0,1-1.128,1.066,3.256,3.256,0,0,1-1.5.379.289.289,0,0,1-.282-.132,1.142,1.142,0,0,1-.07-.484,1.142,1.142,0,0,1,.07-.484.289.289,0,0,1,.282-.132,1.81,1.81,0,0,0,1.172-.44,2.954,2.954,0,0,0,.854-1.321,5.316,5.316,0,0,1,.625-1.374.929.929,0,0,1,.784-.388q.37,0,.37.264l-.035.141a5.867,5.867,0,0,0-.159,1.357,1.873,1.873,0,0,0,.476,1.357,1.821,1.821,0,0,0,1.374.493,1.78,1.78,0,0,0,1.383-.511,2.177,2.177,0,0,0,.467-1.515,2.461,2.461,0,0,0-.529-1.709,2.037,2.037,0,0,0-1.586-.581,8.8,8.8,0,0,0-1.515.123,2.656,2.656,0,0,1-.476.053q-.211,0-.211-.176a.778.778,0,0,1,.361-.555,2.984,2.984,0,0,1,.969-.484A4.3,4.3,0,0,1,124.054-45.777Z" transform="translate(500.929 733.636)" fill="#29c07b"/>
    <g id="clipboard" transform="translate(508 646)">
      <g id="QalamOnline_4_" data-name="QalamOnline (4)" transform="translate(0 2.058)">
        <path id="Path_6069" data-name="Path 6069" d="M-10.8,14.035a1.2,1.2,0,0,0,1.135,1.177,1.166,1.166,0,0,0,1.135-1.177V5.5A3.246,3.246,0,0,1-5.253,2.269,3.246,3.246,0,0,1-1.976,5.5v5.5a1.054,1.054,0,0,0,.5.924,1.231,1.231,0,0,0,1.261.042l8.194-3.11a7.636,7.636,0,0,1,7.228.714c1.3.882,2.773,2.815,2.773,4.5v5.547a7.066,7.066,0,0,1-7.1,7.1H-9.665A1.157,1.157,0,0,0-10.8,27.86a1.157,1.157,0,0,0,1.135,1.135H10.883a9.379,9.379,0,0,0,9.371-9.371V14.077c0-2.479-1.849-5-3.74-6.345A9.74,9.74,0,0,0,7.353,6.723L.294,9.371V5.5A5.533,5.533,0,0,0-5.253,0,5.533,5.533,0,0,0-10.8,5.5v8.53m22.1,2.4a1.152,1.152,0,0,0,.672-1.471,1.113,1.113,0,0,0-1.471-.63L3.277,17.1A1.152,1.152,0,0,0,2.6,18.573a1.113,1.113,0,0,0,1.471.63L11.3,16.43" transform="translate(99.901 0.252)" fill="#08de6f"/>
        <path id="Path_6070" data-name="Path 6070" d="M21.725-29.414l-.462,1.765a4.895,4.895,0,0,1-1.849,2.689,4.928,4.928,0,0,1-3.068,1.051,5.079,5.079,0,0,1-3.614-1.513,5.079,5.079,0,0,1-1.513-3.614v-.378H9.329a9.341,9.341,0,0,1-6.6-2.731A9.366,9.366,0,0,1,0-38.785v-5.589a5.174,5.174,0,0,1,3.362-4.874l6.555-2.479a10.124,10.124,0,0,1,3.53-.672,9.441,9.441,0,0,1,6.639,2.731,9.675,9.675,0,0,1,2.605,5.127v.21A1.157,1.157,0,0,1,21.557-43.2a1.125,1.125,0,0,1-1.093-.966,6.91,6.91,0,0,0-2.017-3.866,6.911,6.911,0,0,0-5-2.1,7.537,7.537,0,0,0-2.731.546l-6.6,2.437a3.014,3.014,0,0,0-1.849,2.773v5.589a7.222,7.222,0,0,0,2.059,5.043,7.2,7.2,0,0,0,5,2.059h3.32a1.035,1.035,0,0,1,.8.378,1.094,1.094,0,0,1,.294,1.009l-.126.5a2.379,2.379,0,0,0-.126.756,2.857,2.857,0,0,0,.84,2.017,2.857,2.857,0,0,0,2.017.84,2.846,2.846,0,0,0,1.723-.588,2.824,2.824,0,0,0,1.009-1.471l.714-2.605a1.133,1.133,0,0,1,1.093-.84h.672a1.13,1.13,0,0,1,1.135,1.135,1.051,1.051,0,0,1-.966,1.135m-8.7-14.665a1.132,1.132,0,0,1,1.471.63,1.1,1.1,0,0,1-.63,1.471l-3.614,1.387a1.1,1.1,0,0,1-1.471-.63,1.169,1.169,0,0,1,.63-1.471l3.614-1.387" transform="translate(68.51 58.661)" fill="#08de6f"/>
        <path id="Path_6071" data-name="Path 6071" d="M-10.8,14.035a1.2,1.2,0,0,0,1.135,1.177,1.166,1.166,0,0,0,1.135-1.177V5.5A3.246,3.246,0,0,1-5.253,2.269,3.246,3.246,0,0,1-1.976,5.5v5.5a1.054,1.054,0,0,0,.5.924,1.231,1.231,0,0,0,1.261.042l8.194-3.11a7.636,7.636,0,0,1,7.228.714c1.3.882,2.773,2.815,2.773,4.5v5.547a7.066,7.066,0,0,1-7.1,7.1H-9.665A1.157,1.157,0,0,0-10.8,27.86a1.157,1.157,0,0,0,1.135,1.135H10.883a9.379,9.379,0,0,0,9.371-9.371V14.077c0-2.479-1.849-5-3.74-6.345A9.74,9.74,0,0,0,7.353,6.723L.294,9.371V5.5A5.533,5.533,0,0,0-5.253,0,5.533,5.533,0,0,0-10.8,5.5v8.53m22.1,2.4a1.152,1.152,0,0,0,.672-1.471,1.113,1.113,0,0,0-1.471-.63L3.277,17.1A1.152,1.152,0,0,0,2.6,18.573a1.113,1.113,0,0,0,1.471.63L11.3,16.43" transform="translate(50.403)" fill="#08de6f"/>
        <path id="Path_6072" data-name="Path 6072" d="M60.738,28.424a1.114,1.114,0,1,0,0-2.227H29.371a7.053,7.053,0,0,1-5.043-2.1,6.878,6.878,0,0,1-1.723-2.857,6.664,6.664,0,0,1-.336-2.227v-4.16a7.054,7.054,0,0,1,.294-2.1,7.3,7.3,0,0,1,1.765-3.026,7.417,7.417,0,0,1,2.984-1.765C28.278,7.665,28.59,8,28.59,8A17.048,17.048,0,0,0,28,11.34a9.379,9.379,0,0,0,13.069,8.614L50.19,16.91a1.143,1.143,0,1,0-.8-2.143l-9.126,3.087a7.769,7.769,0,0,1-2.9.588,7.1,7.1,0,0,1-2.4-13.783L42.585,2.2a3.127,3.127,0,0,1,2.143-.042,2.922,2.922,0,0,1,1.723,1.513,3.027,3.027,0,0,1-.21,2.984A2.767,2.767,0,0,1,44.77,7.791l-1.807.714a1.1,1.1,0,0,0-.63,1.471,1.169,1.169,0,0,0,1.471.63l6.345-2.437a6.993,6.993,0,0,1,3.824-.42A7.555,7.555,0,0,1,56.83,8.968,7.087,7.087,0,0,1,58.8,11.027a4.693,4.693,0,0,1,.8,2.479,1.135,1.135,0,0,0,2.269,0,6.341,6.341,0,0,0-.966-3.32,9.243,9.243,0,0,0-2.773-3.068,9.091,9.091,0,0,0-8.824-1.051l-.462.168a5.3,5.3,0,0,0-.126-3.026A5.274,5.274,0,0,0,41.828.1L34.173,2.516C30.565,3.953,29.827,5.48,29.827,5.48s-.449-.307-2.15,0a9.442,9.442,0,0,0-4.946,2.647,9.284,9.284,0,0,0-2.4,4.118A9.053,9.053,0,0,0,20,14.851v4.16a10,10,0,0,0,.294,2.479,9.556,9.556,0,0,0,2.437,4.244,9.286,9.286,0,0,0,6.093,2.689,3.615,3.615,0,0,0,.672.042l29.876-.04,1.365,0" transform="translate(-20 0.571)" fill="#08de6f"/>
      </g>
      <g id="_ffffffff" data-name="#ffffffff" transform="translate(2.073 2.174)">
        <path id="Path_6078" data-name="Path 6078" d="M99.13,74.319a3.3,3.3,0,0,1,5.9-1.754,3.346,3.346,0,0,1,.672,2.1c0,1.8-.007,3.6.005,5.4a1.118,1.118,0,0,0,1.513,1.036c2.213-.8,4.4-1.66,6.606-2.484a21.73,21.73,0,0,1,3.528-1.159,7.375,7.375,0,0,1,4.993.809,7,7,0,0,1,2.92,3.122,4.32,4.32,0,0,1,.453,1.976c-.005,1.8.006,3.595-.005,5.392a7.138,7.138,0,0,1-6.3,7.024c-.608.059-1.217.041-1.826.044q-9.851,0-19.7,0c-1.024.062-2.049.015-3.074.03q-14.2,0-28.393,0a7.069,7.069,0,0,1-6.64-4.862,6.994,6.994,0,0,1-.363-2.246q-.007-2.2,0-4.4a7.228,7.228,0,0,1,2.2-5.124,8.157,8.157,0,0,1,2.2-1.408,2.532,2.532,0,0,1,1.927-.244,18.36,18.36,0,0,0-.583,3.268,9.334,9.334,0,0,0,9.4,9.519,7.821,7.821,0,0,0,2.466-.322c3.47-1.178,6.952-2.32,10.425-3.491a1.154,1.154,0,0,0-.075-2.155,1.337,1.337,0,0,0-.943.083c-3.155,1.076-6.32,2.131-9.479,3.2a7.686,7.686,0,0,1-3.068.4,7.085,7.085,0,0,1-4.6-2.294,7.227,7.227,0,0,1-.534-8.989,7.492,7.492,0,0,1,4.137-2.768c2.3-.743,4.614-1.47,6.914-2.223a3.133,3.133,0,0,1,2.948.389A3,3,0,0,1,83.8,75.523a2.893,2.893,0,0,1-1.414,1.683c-.786.373-1.61.656-2.406,1a1.121,1.121,0,0,0-.244,1.713,1.19,1.19,0,0,0,1.26.292c2.04-.786,4.089-1.557,6.126-2.352a7.417,7.417,0,0,1,3.16-.606,7.519,7.519,0,0,1,3.921,1.41,6.634,6.634,0,0,1,2.542,3.58c.128.564-.039,1.259.438,1.694a1.129,1.129,0,0,0,1.61,0,1.771,1.771,0,0,0,.335-1.465c-.007-2.717,0-5.436,0-8.153m19.145,9.049c-2.43.913-4.849,1.854-7.274,2.782a1.163,1.163,0,0,0-.625,1.654,1.132,1.132,0,0,0,1.348.494q3.62-1.393,7.243-2.779a1.21,1.21,0,0,0,.791-1.183A1.119,1.119,0,0,0,118.275,83.368Z" transform="translate(-59.41 -71.278)" fill="#fff"/>
        <path id="Path_6079" data-name="Path 6079" d="M706.8,73.9a3.371,3.371,0,0,1,2.7.467,3.266,3.266,0,0,1,1.427,2.656c.014,1.837,0,3.675.009,5.511a1.126,1.126,0,0,0,.705,1.055,1.334,1.334,0,0,0,1.037-.072c2.061-.773,4.119-1.555,6.18-2.332a16.612,16.612,0,0,1,4.4-1.32,7.14,7.14,0,0,1,7.2,3.928,4.506,4.506,0,0,1,.5,2.022c0,1.8,0,3.6,0,5.4a7.118,7.118,0,0,1-7.151,7.1q-10.673.01-21.346,0a1.134,1.134,0,0,0-1.141.757c-.278.956-.51,1.928-.807,2.88a2.884,2.884,0,0,1-3.46,1.766,2.851,2.851,0,0,1-2.077-2.6,5.3,5.3,0,0,1,.249-1.436,1.177,1.177,0,0,0-1.137-1.369c-1.1-.008-2.192,0-3.287,0a7.076,7.076,0,0,1-7.079-7.1c-.007-1.87,0-3.741,0-5.611a3.031,3.031,0,0,1,1.938-2.841c2.25-.828,4.5-1.656,6.753-2.471a7.036,7.036,0,0,1,5.917.407,7.145,7.145,0,0,1,3.571,4.785,1.466,1.466,0,0,0,.569,1.093,1.237,1.237,0,0,0,1.9-.984c.014-2.934,0-5.868.008-8.8A3.273,3.273,0,0,1,706.8,73.9M694.471,85.9c-1.2.445-2.383.916-3.571,1.379a1.147,1.147,0,0,0-.707,1.29,1.108,1.108,0,0,0,1.488.822c1.193-.468,2.394-.917,3.593-1.367a1.121,1.121,0,0,0,.773-1.228,1.174,1.174,0,0,0-1.576-.9m28.933,0q-3.259,1.26-6.524,2.5a6.926,6.926,0,0,0-.913.381,1.151,1.151,0,0,0-.281,1.641,1.122,1.122,0,0,0,1.236.386c2.437-.936,4.878-1.862,7.311-2.805a1.184,1.184,0,0,0,.669-1.53A1.139,1.139,0,0,0,723.4,85.9Z" transform="translate(-614.997 -73.53)" fill="#fff"/>
      </g>
      <g id="QalamOnline_4_2" data-name="QalamOnline (4)" transform="translate(0 0)">
        <path id="Path_6069-2" data-name="Path 6069" d="M-10.8,14.035a1.2,1.2,0,0,0,1.135,1.177,1.166,1.166,0,0,0,1.135-1.177V5.5A3.246,3.246,0,0,1-5.253,2.269,3.246,3.246,0,0,1-1.976,5.5v5.5a1.054,1.054,0,0,0,.5.924,1.231,1.231,0,0,0,1.261.042l8.194-3.11a7.636,7.636,0,0,1,7.228.714c1.3.882,2.773,2.815,2.773,4.5v5.547a7.066,7.066,0,0,1-7.1,7.1H-9.665A1.157,1.157,0,0,0-10.8,27.86a1.157,1.157,0,0,0,1.135,1.135H10.883a9.379,9.379,0,0,0,9.371-9.371V14.077c0-2.479-1.849-5-3.74-6.345A9.74,9.74,0,0,0,7.353,6.723L.294,9.371V5.5A5.533,5.533,0,0,0-5.253,0,5.533,5.533,0,0,0-10.8,5.5v8.53m22.1,2.4a1.152,1.152,0,0,0,.672-1.471,1.113,1.113,0,0,0-1.471-.63L3.277,17.1A1.152,1.152,0,0,0,2.6,18.573a1.113,1.113,0,0,0,1.471.63L11.3,16.43" transform="translate(99.901 0.252)" fill="#08de6f"/>
        <path id="Path_6070-2" data-name="Path 6070" d="M21.725-29.414l-.462,1.765a4.895,4.895,0,0,1-1.849,2.689,4.928,4.928,0,0,1-3.068,1.051,5.079,5.079,0,0,1-3.614-1.513,5.079,5.079,0,0,1-1.513-3.614v-.378H9.329a9.341,9.341,0,0,1-6.6-2.731A9.366,9.366,0,0,1,0-38.785v-5.589a5.174,5.174,0,0,1,3.362-4.874l6.555-2.479a10.124,10.124,0,0,1,3.53-.672,9.441,9.441,0,0,1,6.639,2.731,9.675,9.675,0,0,1,2.605,5.127v.21A1.157,1.157,0,0,1,21.557-43.2a1.125,1.125,0,0,1-1.093-.966,6.91,6.91,0,0,0-2.017-3.866,6.911,6.911,0,0,0-5-2.1,7.537,7.537,0,0,0-2.731.546l-6.6,2.437a3.014,3.014,0,0,0-1.849,2.773v5.589a7.222,7.222,0,0,0,2.059,5.043,7.2,7.2,0,0,0,5,2.059h3.32a1.035,1.035,0,0,1,.8.378,1.094,1.094,0,0,1,.294,1.009l-.126.5a2.379,2.379,0,0,0-.126.756,2.857,2.857,0,0,0,.84,2.017,2.857,2.857,0,0,0,2.017.84,2.846,2.846,0,0,0,1.723-.588,2.824,2.824,0,0,0,1.009-1.471l.714-2.605a1.133,1.133,0,0,1,1.093-.84h.672a1.13,1.13,0,0,1,1.135,1.135,1.051,1.051,0,0,1-.966,1.135m-8.7-14.665a1.132,1.132,0,0,1,1.471.63,1.1,1.1,0,0,1-.63,1.471l-3.614,1.387a1.1,1.1,0,0,1-1.471-.63,1.169,1.169,0,0,1,.63-1.471l3.614-1.387" transform="translate(68.51 58.661)" fill="#08de6f"/>
        <path id="Path_6071-2" data-name="Path 6071" d="M-10.8,14.035a1.2,1.2,0,0,0,1.135,1.177,1.166,1.166,0,0,0,1.135-1.177V5.5A3.246,3.246,0,0,1-5.253,2.269,3.246,3.246,0,0,1-1.976,5.5v5.5a1.054,1.054,0,0,0,.5.924,1.231,1.231,0,0,0,1.261.042l8.194-3.11a7.636,7.636,0,0,1,7.228.714c1.3.882,2.773,2.815,2.773,4.5v5.547a7.066,7.066,0,0,1-7.1,7.1H-9.665A1.157,1.157,0,0,0-10.8,27.86a1.157,1.157,0,0,0,1.135,1.135H10.883a9.379,9.379,0,0,0,9.371-9.371V14.077c0-2.479-1.849-5-3.74-6.345A9.74,9.74,0,0,0,7.353,6.723L.294,9.371V5.5A5.533,5.533,0,0,0-5.253,0,5.533,5.533,0,0,0-10.8,5.5v8.53m22.1,2.4a1.152,1.152,0,0,0,.672-1.471,1.113,1.113,0,0,0-1.471-.63L3.277,17.1A1.152,1.152,0,0,0,2.6,18.573a1.113,1.113,0,0,0,1.471.63L11.3,16.43" transform="translate(50.403)" fill="#08de6f"/>
        <path id="Path_6072-2" data-name="Path 6072" d="M60.738,28.424a1.114,1.114,0,1,0,0-2.227H29.371a7.053,7.053,0,0,1-5.043-2.1,6.878,6.878,0,0,1-1.723-2.857,6.664,6.664,0,0,1-.336-2.227v-4.16a7.054,7.054,0,0,1,.294-2.1,7.3,7.3,0,0,1,1.765-3.026,7.417,7.417,0,0,1,2.984-1.765C28.278,7.665,28.59,8,28.59,8A17.048,17.048,0,0,0,28,11.34a9.379,9.379,0,0,0,13.069,8.614L50.19,16.91a1.143,1.143,0,1,0-.8-2.143l-9.126,3.087a7.769,7.769,0,0,1-2.9.588,7.1,7.1,0,0,1-2.4-13.783L42.585,2.2a3.127,3.127,0,0,1,2.143-.042,2.922,2.922,0,0,1,1.723,1.513,3.027,3.027,0,0,1-.21,2.984A2.767,2.767,0,0,1,44.77,7.791l-1.807.714a1.1,1.1,0,0,0-.63,1.471,1.169,1.169,0,0,0,1.471.63l6.345-2.437a6.993,6.993,0,0,1,3.824-.42A7.555,7.555,0,0,1,56.83,8.968,7.087,7.087,0,0,1,58.8,11.027a4.693,4.693,0,0,1,.8,2.479,1.135,1.135,0,0,0,2.269,0,6.341,6.341,0,0,0-.966-3.32,9.243,9.243,0,0,0-2.773-3.068,9.091,9.091,0,0,0-8.824-1.051l-.462.168a5.3,5.3,0,0,0-.126-3.026A5.274,5.274,0,0,0,41.828.1L34.173,2.516C30.565,3.953,29.827,5.48,29.827,5.48s-.449-.307-2.15,0a9.442,9.442,0,0,0-4.946,2.647,9.284,9.284,0,0,0-2.4,4.118A9.053,9.053,0,0,0,20,14.851v4.16a10,10,0,0,0,.294,2.479,9.556,9.556,0,0,0,2.437,4.244,9.286,9.286,0,0,0,6.093,2.689,3.615,3.615,0,0,0,.672.042l29.876-.04,1.365,0" transform="translate(-20 0.571)" fill="#08de6f"/>
      </g>
    </g>
  </g>
</svg>
