<svg xmlns="http://www.w3.org/2000/svg" width="1200" height="668" viewBox="0 0 1200 668">
  <path id="video-outline" d="M49.884-2.536C22.315-2.536-.033,17.011-.033,41.124V586.876c0,24.113,22.348,43.66,49.917,43.66H1110.116c27.568,0,49.917-19.547,49.917-43.66V41.124c0-24.113-22.349-43.66-49.917-43.66H49.884m0-17.464H1110.116C1148.65-20,1180,7.42,1180,41.124V586.876c0,33.7-31.35,61.124-69.884,61.124H49.884C11.35,648-20,620.58-20,586.876V41.124C-20,7.42,11.35-20,49.884-20Z" transform="translate(20 20)" fill="#ffec00"/>
</svg>
