<svg xmlns="http://www.w3.org/2000/svg" width="284.589" height="57.613" viewBox="0 0 284.589 57.613">
  <g id="yellow-border2" transform="translate(0 0)">
    <path id="Path_100449" data-name="Path 100449" d="M1.8,53.293c1.984,5.364,38.529,3.689,56.231,3.865,64.034.633,143.691,1.026,207.05-1.775,6.818-.3,12.706-.266,16.273-1.493,3.424-1.178,3.426-17.3,3.1-23.692s-1.824-24.938-1.824-24.938a6.024,6.024,0,0,0-4.5-2.879C275.8,1.98,264.044.99,225.743.526S189.866-.05,123.441.018,15.072-.06,5.822,1.412C3.236,1.824-.39,3.38.034,11.882S.341,49.354,1.8,53.293Z" fill="#ffec00"/>
    <path id="Path_99970" data-name="Path 99970" d="M1.076,45.062C3,49.707,3.814,49.84,21.026,49.992c62.261.548,177.186.621,238.791-1.8,6.629-.261,12.354-.23,15.823-1.292,1.068-2.245,1.185-15.043.87-20.58S275.185,3.7,275.185,3.7s-1.056-1.984-4.376-2.492C268.543.861,255.27.594,218.028.192S184.587.133,120,.192,14.549.435,5.555,1.71C3.04,2.066-.378,3.1.034,10.464S-.341,41.652,1.076,45.062Z" transform="translate(3 3.387)" fill="#fff"/>
  </g>
</svg>
