<svg xmlns="http://www.w3.org/2000/svg" width="487.656" height="57.613" viewBox="0 0 487.656 57.613">
  <g id="yellow-border1" transform="translate(0 0)">
    <path id="Path_100449" data-name="Path 100449" d="M3.081,53.293c3.4,5.364,66.021,3.689,96.354,3.865,109.725.633,246.221,1.026,354.79-1.775,11.683-.3,21.772-.266,27.885-1.493,5.867-1.178,5.871-17.3,5.317-23.692S484.3,5.259,484.3,5.259s-1.862-2.292-7.712-2.879C472.6,1.98,452.452.99,386.82.526S325.344-.05,211.521.018,25.826-.06,9.976,1.412C5.545,1.824-.668,3.38.058,11.882S.585,49.354,3.081,53.293Z" fill="#ffec00"/>
    <path id="Path_99970" data-name="Path 99970" d="M1.865,45.062c3.344,4.644,4.749,4.778,34.593,4.929,107.96.548,307.238.621,414.06-1.8,11.5-.261,21.422-.23,27.436-1.292,1.852-2.245,2.055-15.043,1.509-20.58s-2.3-22.615-2.3-22.615-1.832-1.984-7.588-2.492C465.651.861,442.634.594,378.058.192s-57.987-.059-169.979,0S25.227.435,9.632,1.71C5.272,2.066-.656,3.1.059,10.464S-.591,41.652,1.865,45.062Z" transform="translate(3 3.387)" fill="#fff"/>
  </g>
</svg>
