<svg width="24" height="25" viewBox="0 0 24 25" fill="none" xmlns="http://www.w3.org/2000/svg">
<path d="M9.15859 11.5853C9.05859 11.5753 8.93859 11.5753 8.82859 11.5853C6.44859 11.5053 4.55859 9.55533 4.55859 7.15533C4.55859 4.70533 6.53859 2.71533 8.99859 2.71533C11.4486 2.71533 13.4386 4.70533 13.4386 7.15533C13.4286 9.55533 11.5386 11.5053 9.15859 11.5853Z" stroke="#343A40" stroke-width="1.5" stroke-linecap="round" stroke-linejoin="round"/>
<path d="M16.4112 4.71533C18.3512 4.71533 19.9112 6.28533 19.9112 8.21533C19.9112 10.1053 18.4113 11.6453 16.5413 11.7153C16.4613 11.7053 16.3713 11.7053 16.2812 11.7153" stroke="#343A40" stroke-width="1.5" stroke-linecap="round" stroke-linejoin="round"/>
<path d="M4.15875 15.2753C1.73875 16.8953 1.73875 19.5353 4.15875 21.1453C6.90875 22.9853 11.4188 22.9853 14.1688 21.1453C16.5888 19.5253 16.5888 16.8853 14.1688 15.2753C11.4288 13.4453 6.91875 13.4453 4.15875 15.2753Z" stroke="#343A40" stroke-width="1.5" stroke-linecap="round" stroke-linejoin="round"/>
<path d="M18.3398 20.7153C19.0598 20.5653 19.7398 20.2753 20.2998 19.8453C21.8598 18.6753 21.8598 16.7453 20.2998 15.5753C19.7498 15.1553 19.0798 14.8753 18.3698 14.7153" stroke="#343A40" stroke-width="1.5" stroke-linecap="round" stroke-linejoin="round"/>
</svg>
