<svg width="24" height="25" viewBox="0 0 24 25" fill="none" xmlns="http://www.w3.org/2000/svg">
<path d="M21.97 19.0761C21.97 19.4361 21.89 19.8061 21.72 20.1661C21.55 20.5261 21.33 20.8661 21.04 21.1861C20.55 21.7261 20.01 22.1161 19.4 22.3661C18.8 22.6161 18.15 22.7461 17.45 22.7461C16.43 22.7461 15.34 22.5061 14.19 22.0161C13.04 21.5261 11.89 20.8661 10.75 20.0361C9.6 19.1961 8.51 18.2661 7.47 17.2361C6.44 16.1961 5.51 15.1061 4.68 13.9661C3.86 12.8261 3.2 11.6861 2.72 10.5561C2.24 9.41609 2 8.32609 2 7.28609C2 6.60609 2.12 5.95609 2.36 5.35609C2.6 4.74609 2.98 4.18609 3.51 3.68609C4.15 3.05609 4.85 2.74609 5.59 2.74609C5.87 2.74609 6.15 2.80609 6.4 2.92609C6.66 3.04609 6.89 3.22609 7.07 3.48609L9.39 6.75609C9.57 7.00609 9.7 7.23609 9.79 7.45609C9.88 7.66609 9.93 7.87609 9.93 8.06609C9.93 8.30609 9.86 8.54609 9.72 8.77609C9.59 9.00609 9.4 9.24609 9.16 9.48609L8.4 10.2761C8.29 10.3861 8.24 10.5161 8.24 10.6761C8.24 10.7561 8.25 10.8261 8.27 10.9061C8.3 10.9861 8.33 11.0461 8.35 11.1061C8.53 11.4361 8.84 11.8661 9.28 12.3861C9.73 12.9061 10.21 13.4361 10.73 13.9661C11.27 14.4961 11.79 14.9861 12.32 15.4361C12.84 15.8761 13.27 16.1761 13.61 16.3561C13.66 16.3761 13.72 16.4061 13.79 16.4361C13.87 16.4661 13.95 16.4761 14.04 16.4761C14.21 16.4761 14.34 16.4161 14.45 16.3061L15.21 15.5561C15.46 15.3061 15.7 15.1161 15.93 14.9961C16.16 14.8561 16.39 14.7861 16.64 14.7861C16.83 14.7861 17.03 14.8261 17.25 14.9161C17.47 15.0061 17.7 15.1361 17.95 15.3061L21.26 17.6561C21.52 17.8361 21.7 18.0461 21.81 18.2961C21.91 18.5461 21.97 18.7961 21.97 19.0761Z" fill="#48FDBC" stroke="black" stroke-width="2" stroke-miterlimit="10"/>
</svg>
