<svg width="24" height="25" viewBox="0 0 24 25" fill="none" xmlns="http://www.w3.org/2000/svg">
<path d="M6.71192 0.540847C7.0074 0.476341 7.32991 0.531117 7.5807 0.703373C7.82573 0.850764 7.99257 1.10555 8.06284 1.37979C8.11833 1.58015 8.09743 1.78989 8.11761 1.99494C8.18535 2.92757 8.54029 3.83786 9.13269 4.56256C9.81049 5.39826 10.782 5.99431 11.8399 6.19936C12.2424 6.30026 12.6629 6.25774 13.0683 6.33774C13.567 6.45702 13.909 6.96659 13.8964 7.46894C13.904 8.05742 13.3743 8.60338 12.7811 8.58969C12.0767 8.59762 11.3693 8.74429 10.7337 9.05204C9.8004 9.49241 9.02927 10.2593 8.57056 11.1825C8.2794 11.7883 8.11977 12.4568 8.10392 13.1289C8.12338 13.5343 7.92771 13.9466 7.58575 14.1696C7.27585 14.3696 6.86543 14.4215 6.52418 14.2723C6.10871 14.1091 5.79377 13.6889 5.79774 13.2359C5.8017 12.2882 5.51271 11.3393 4.96139 10.5667C4.37619 9.73638 3.51318 9.1043 2.54098 8.80771C2.06605 8.6578 1.56697 8.59041 1.06934 8.58969C0.547571 8.57527 0.100748 8.13598 0.0164282 7.63111C-0.0740174 7.13164 0.217498 6.59252 0.681617 6.38892C1.09529 6.22675 1.554 6.32153 1.97993 6.21378C2.96474 6.03864 3.88757 5.5334 4.56573 4.79789C5.26984 4.03426 5.7217 3.03136 5.78116 1.99061C5.80747 1.76322 5.77972 1.52718 5.85359 1.30699C5.97719 0.922838 6.31807 0.623732 6.71192 0.540847ZM6.962 4.54347C6.31843 5.77052 5.30695 6.81667 4.05837 7.43074C4.10125 7.47651 4.16683 7.49381 4.22016 7.52588C5.34263 8.1313 6.28059 9.07114 6.88741 10.1926C6.90542 10.233 6.93894 10.2618 6.9656 10.296C7.54287 9.18358 8.44048 8.23364 9.53303 7.61561C9.63392 7.55399 9.74923 7.51399 9.83536 7.43002C8.60551 6.80154 7.57278 5.78566 6.962 4.54347Z" fill="#48FDBC"/>
<path d="M18.2438 7.35169C18.5483 7.2634 18.8881 7.30628 19.1605 7.46809C19.4769 7.65404 19.691 8.00179 19.7187 8.36757C19.7302 8.48793 19.7252 8.60902 19.7313 8.7301C19.7893 9.42489 20.1003 10.0894 20.5774 10.5961C21.0055 11.0401 21.5626 11.3658 22.1683 11.4941C22.5459 11.5997 22.9603 11.493 23.3221 11.6718C23.8118 11.883 24.094 12.4603 23.9707 12.9774C23.9008 13.274 23.7167 13.5508 23.4508 13.7054C23.254 13.8207 23.0259 13.8754 22.7993 13.8791C22.049 13.8884 21.3049 14.1785 20.7486 14.682C20.1021 15.2585 19.7115 16.1162 19.7234 16.9844C19.7313 17.6146 19.144 18.1779 18.513 18.1318C17.9289 18.1264 17.432 17.597 17.414 17.0226C17.4129 16.3155 17.1834 15.602 16.7318 15.0531C16.16 14.331 15.2534 13.8845 14.3313 13.8798C14.0394 13.8718 13.7407 13.785 13.518 13.59C13.3428 13.4293 13.2268 13.2127 13.1493 12.9904C13.1018 12.6653 13.1533 12.3122 13.3508 12.0426C13.5126 11.8275 13.7461 11.6613 14.0106 11.6012C14.2783 11.5298 14.5594 11.5741 14.83 11.5215C15.5002 11.4015 16.1286 11.0584 16.5895 10.5572C17.0345 10.0782 17.3149 9.453 17.3902 8.8047C17.4197 8.5773 17.3902 8.34126 17.4673 8.12108C17.5743 7.75494 17.8687 7.44358 18.2438 7.35169ZM18.5595 10.9456C18.144 11.6808 17.5127 12.2769 16.7981 12.719C17.2763 13.017 17.7206 13.3767 18.0831 13.8099C18.268 14.0156 18.4056 14.2571 18.5757 14.4744C19.0114 13.7666 19.6063 13.1443 20.3345 12.7356C20.1753 12.5951 19.9864 12.4952 19.821 12.363C19.3133 11.9777 18.9004 11.4815 18.5595 10.9456Z" fill="#48FDBC"/>
<path d="M9.66743 15.6051C9.91535 15.5615 10.1788 15.6011 10.4004 15.7218C10.7304 15.8822 10.9557 16.2217 11.0079 16.5809C11.036 16.7622 11.022 16.9474 11.054 17.1283C11.2043 17.9676 11.903 18.6833 12.7437 18.8397C13.0175 18.9003 13.3069 18.8657 13.5746 18.9587C14.0935 19.1381 14.4477 19.7234 14.3288 20.2661C14.2243 20.794 13.7195 21.2095 13.1804 21.207C12.624 21.1983 12.0716 21.4275 11.6756 21.8167C11.2713 22.2067 11.0209 22.7598 11.0241 23.3245C11.036 23.7537 10.7841 24.1714 10.4101 24.3768C10.1175 24.5321 9.755 24.5624 9.44654 24.4348C9.15431 24.3184 8.90675 24.082 8.79217 23.7872C8.67758 23.5029 8.7255 23.1876 8.65271 22.8939C8.4884 22.1083 7.83474 21.4611 7.06037 21.2704C6.72489 21.1868 6.35698 21.2625 6.04241 21.0974C5.73936 20.9457 5.49901 20.6618 5.41794 20.3309C5.35307 20.0935 5.38226 19.838 5.4709 19.6109C5.63162 19.2073 6.04241 18.9205 6.47626 18.9053C6.7321 18.8934 6.98938 18.8624 7.23405 18.7824C7.9641 18.5424 8.53236 17.8844 8.67109 17.1294C8.72442 16.8919 8.6819 16.6418 8.7619 16.4098C8.88009 16 9.23827 15.6595 9.66743 15.6051ZM8.77451 20.056C9.17557 20.3338 9.53627 20.6773 9.81409 21.0791C9.83499 21.0809 9.87715 21.0852 9.89805 21.087C10.1622 20.7079 10.4995 20.3864 10.8645 20.105C10.9167 20.0812 10.916 20.008 10.8645 19.9839C10.4825 19.696 10.1384 19.3554 9.86814 18.9597C9.56906 19.3842 9.19359 19.7511 8.77451 20.056Z" fill="#48FDBC"/>
</svg>
