<svg width="33" height="33" viewBox="0 0 33 33" fill="none" xmlns="http://www.w3.org/2000/svg">
<path d="M16.2005 29.9904C23.5643 29.9904 29.5339 24.0209 29.5339 16.6571C29.5339 9.29327 23.5643 3.32373 16.2005 3.32373C8.83672 3.32373 2.86719 9.29327 2.86719 16.6571C2.86719 24.0209 8.83672 29.9904 16.2005 29.9904Z" fill="#48FDBC"/>
<path fill-rule="evenodd" clip-rule="evenodd" d="M9.20748 16.4897C13.1445 14.7962 15.7698 13.6797 17.0834 13.1403C20.834 11.6002 21.6133 11.3327 22.1212 11.3238C22.233 11.3219 22.4828 11.3492 22.6446 11.4788C22.7812 11.5883 22.8188 11.7362 22.8368 11.8399C22.8548 11.9437 22.8772 12.1801 22.8594 12.3648C22.6561 14.4731 21.7767 19.5895 21.3293 21.9508C21.14 22.95 20.7672 23.285 20.4063 23.3178C19.6221 23.389 19.0265 22.8061 18.2669 22.3145C17.0783 21.5452 16.4068 21.0664 15.253 20.3157C13.9196 19.4482 14.784 18.9714 15.5439 18.1922C15.7427 17.9883 19.1983 14.8852 19.2652 14.6037C19.2735 14.5685 19.2813 14.4373 19.2023 14.368C19.1234 14.2987 19.0068 14.3224 18.9227 14.3413C18.8035 14.368 16.9046 15.6071 13.2261 18.0586C12.6871 18.424 12.1989 18.602 11.7615 18.5927C11.2793 18.5824 10.3518 18.3235 9.6622 18.1022C8.81644 17.8308 8.14424 17.6873 8.20277 17.2263C8.23326 16.9862 8.56816 16.7407 9.20748 16.4897Z" fill="black"/>
</svg>
