<svg width="24" height="25" viewBox="0 0 24 25" fill="none" xmlns="http://www.w3.org/2000/svg">
<g clip-path="url(#clip0_10004_33915)">
<path d="M8.97968 1.04892C9.6511 0.870332 10.3479 0.964325 11.0278 1.02072C12.2261 1.18991 13.394 1.59408 14.4413 2.21588C15.9915 3.13412 17.2765 4.52016 18.0862 6.15781C18.8035 7.60531 19.1554 9.24151 19.0898 10.8647C19.0954 11.5415 18.8549 12.2225 19.039 12.8928C19.0954 13.1596 19.2414 13.3967 19.4354 13.5818C20.2422 14.3894 21.0455 15.1992 21.8559 16.0025C22.5703 16.7096 23.0161 17.7161 22.9977 18.7399C23.0231 19.661 22.674 20.5807 22.0851 21.2719C21.6626 21.731 21.2169 22.1663 20.7853 22.616C20.2979 23.1561 19.7175 23.6355 19.0193 23.8466C17.7477 24.313 16.2489 23.9413 15.2848 22.984C14.4131 22.0933 13.5456 21.1982 12.6725 20.3096C12.2409 19.8787 11.5878 19.8512 11.0243 19.9314C9.223 20.1773 7.35472 19.8671 5.72413 19.0457C2.9799 17.7016 0.977626 14.8898 0.584082 11.796C0.499449 10.9385 0.378142 10.0151 0.756169 9.20898C1.10528 8.41582 1.85146 7.83451 2.68228 7.6711C3.27823 7.51204 3.89958 7.62266 4.4765 7.80992C5.20293 8.08106 5.75939 8.64502 6.282 9.20536C6.69459 9.59073 7.03735 10.1431 7.63754 10.2205C7.86111 10.1858 8.10232 10.2125 8.30826 10.0976C8.54875 9.97683 8.72789 9.76571 8.9155 9.57555C9.10169 9.3825 9.30834 9.19813 9.42612 8.95086C9.52627 8.76215 9.51004 8.54018 9.55095 8.33556C9.50299 8.11287 9.47055 7.87717 9.32456 7.69569C8.66795 6.88084 7.7525 6.26988 7.30747 5.28801C7.00279 4.59174 6.87937 3.78484 7.09307 3.0423C7.30747 2.09152 8.06141 1.30125 8.97968 1.04892ZM9.52838 3.55782C9.45292 3.74725 9.4903 3.95476 9.51216 4.15142C9.69694 4.50642 10.0143 4.75442 10.2788 5.04291C10.7175 5.50998 11.2232 5.93078 11.5271 6.51137C12.1908 7.67183 12.1795 9.19669 11.5032 10.3492C11.2161 10.8763 10.7619 11.2703 10.355 11.6962C9.67367 12.3823 8.72296 12.7518 7.77295 12.7612C6.84269 12.7504 5.91455 12.3903 5.23678 11.7309C4.79669 11.2906 4.37282 10.8343 3.9285 10.3991C3.77052 10.2306 3.54694 10.1735 3.33183 10.1287C3.2331 10.1554 3.13436 10.1771 3.03562 10.2002C3.0067 10.2979 2.95945 10.3933 2.96439 10.4981C2.96509 11.1337 3.07582 11.7634 3.22886 12.378C3.67319 13.9968 4.70853 15.4378 6.09087 16.3452C7.37024 17.2071 8.9423 17.5874 10.4643 17.4269C10.7661 17.3987 11.0659 17.3379 11.3706 17.3401C12.4673 17.3119 13.6042 17.6792 14.3941 18.481C15.2672 19.3646 16.1262 20.2619 17.0001 21.1447C17.4479 21.6089 18.266 21.6074 18.7125 21.1418C19.1646 20.687 19.6082 20.2235 20.0581 19.7659C20.408 19.468 20.5871 18.9843 20.4982 18.5244C20.4489 18.134 20.1675 17.8484 19.8995 17.5953C19.2795 16.9772 18.6532 16.3648 18.0389 15.7408C17.7434 15.4393 17.4282 15.153 17.194 14.7965C16.5755 13.8703 16.3738 12.6968 16.5233 11.5957C16.5974 11.0917 16.6333 10.5798 16.5988 10.0715C16.5007 7.9379 15.3666 5.89535 13.6415 4.70309C12.5272 3.90921 11.1738 3.49708 9.82107 3.47322C9.7174 3.46816 9.61372 3.49853 9.52838 3.55782Z" fill="#48FDBC"/>
</g>
<defs>
<clipPath id="clip0_10004_33915">
<rect width="24" height="24" fill="white" transform="translate(0 0.514404)"/>
</clipPath>
</defs>
</svg>
