<svg width="24" height="25" viewBox="0 0 24 25" fill="none" xmlns="http://www.w3.org/2000/svg">
<path d="M21.97 18.8444C21.97 19.2044 21.89 19.5744 21.72 19.9344C21.55 20.2944 21.33 20.6344 21.04 20.9544C20.55 21.4944 20.01 21.8844 19.4 22.1344C18.8 22.3844 18.15 22.5144 17.45 22.5144C16.43 22.5144 15.34 22.2744 14.19 21.7844C13.04 21.2944 11.89 20.6344 10.75 19.8044C9.6 18.9644 8.51 18.0344 7.47 17.0044C6.44 15.9644 5.51 14.8744 4.68 13.7344C3.86 12.5944 3.2 11.4544 2.72 10.3244C2.24 9.1844 2 8.0944 2 7.0544C2 6.3744 2.12 5.7244 2.36 5.1244C2.6 4.5144 2.98 3.9544 3.51 3.4544C4.15 2.8244 4.85 2.5144 5.59 2.5144C5.87 2.5144 6.15 2.5744 6.4 2.6944C6.66 2.8144 6.89 2.9944 7.07 3.2544L9.39 6.5244C9.57 6.7744 9.7 7.0044 9.79 7.2244C9.88 7.4344 9.93 7.6444 9.93 7.8344C9.93 8.0744 9.86 8.3144 9.72 8.5444C9.59 8.7744 9.4 9.0144 9.16 9.2544L8.4 10.0444C8.29 10.1544 8.24 10.2844 8.24 10.4444C8.24 10.5244 8.25 10.5944 8.27 10.6744C8.3 10.7544 8.33 10.8144 8.35 10.8744C8.53 11.2044 8.84 11.6344 9.28 12.1544C9.73 12.6744 10.21 13.2044 10.73 13.7344C11.27 14.2644 11.79 14.7544 12.32 15.2044C12.84 15.6444 13.27 15.9444 13.61 16.1244C13.66 16.1444 13.72 16.1744 13.79 16.2044C13.87 16.2344 13.95 16.2444 14.04 16.2444C14.21 16.2444 14.34 16.1844 14.45 16.0744L15.21 15.3244C15.46 15.0744 15.7 14.8844 15.93 14.7644C16.16 14.6244 16.39 14.5544 16.64 14.5544C16.83 14.5544 17.03 14.5944 17.25 14.6844C17.47 14.7744 17.7 14.9044 17.95 15.0744L21.26 17.4244C21.52 17.6044 21.7 17.8144 21.81 18.0644C21.91 18.3144 21.97 18.5644 21.97 18.8444Z" stroke="#48FDBC" stroke-width="2" stroke-miterlimit="10"/>
</svg>
