<svg width="24" height="25" viewBox="0 0 24 25" fill="none" xmlns="http://www.w3.org/2000/svg">
<path d="M9.15859 10.9911C9.05859 10.9811 8.93859 10.9811 8.82859 10.9911C6.44859 10.9111 4.55859 8.96109 4.55859 6.56109C4.55859 4.11109 6.53859 2.12109 8.99859 2.12109C11.4486 2.12109 13.4386 4.11109 13.4386 6.56109C13.4286 8.96109 11.5386 10.9111 9.15859 10.9911Z" fill="#48FDBC" stroke="black" stroke-width="2" stroke-linecap="round" stroke-linejoin="round"/>
<path d="M16.4112 4.12109C18.3512 4.12109 19.9112 5.69109 19.9112 7.62109C19.9112 9.51109 18.4113 11.0511 16.5413 11.1211C16.4613 11.1111 16.3713 11.1111 16.2812 11.1211" stroke="black" stroke-width="2" stroke-linecap="round" stroke-linejoin="round"/>
<path d="M4.15875 14.6811C1.73875 16.3011 1.73875 18.9411 4.15875 20.5511C6.90875 22.3911 11.4188 22.3911 14.1688 20.5511C16.5888 18.9311 16.5888 16.2911 14.1688 14.6811C11.4288 12.8511 6.91875 12.8511 4.15875 14.6811Z" fill="#48FDBC" stroke="black" stroke-width="2" stroke-linecap="round" stroke-linejoin="round"/>
<path d="M18.3398 20.1211C19.0598 19.9711 19.7398 19.6811 20.2998 19.2511C21.8598 18.0811 21.8598 16.1511 20.2998 14.9811C19.7498 14.5611 19.0798 14.2811 18.3698 14.1211" stroke="black" stroke-width="2" stroke-linecap="round" stroke-linejoin="round"/>
</svg>
