<svg width="33" height="33" viewBox="0 0 33 33" fill="none" xmlns="http://www.w3.org/2000/svg">
<path fill-rule="evenodd" clip-rule="evenodd" d="M16.6023 5.72468C20.1647 5.72468 20.5866 5.7403 21.9876 5.8028C23.2896 5.86009 23.9927 6.07883 24.4614 6.26112C25.0812 6.50069 25.5291 6.79234 25.9926 7.25587C26.4613 7.7246 26.7478 8.16729 26.9874 8.78706C27.1696 9.25579 27.3884 9.9641 27.4457 11.2609C27.5082 12.6671 27.5238 13.089 27.5238 16.6461C27.5238 20.2085 27.5082 20.6303 27.4457 22.0313C27.3884 23.3334 27.1696 24.0365 26.9874 24.5052C26.7478 25.125 26.4561 25.5729 25.9926 26.0364C25.5239 26.5051 25.0812 26.7916 24.4614 27.0311C23.9927 27.2134 23.2844 27.4322 21.9876 27.4895C20.5814 27.5519 20.1595 27.5676 16.6023 27.5676C13.04 27.5676 12.6181 27.5519 11.2171 27.4895C9.91511 27.4322 9.21201 27.2134 8.74328 27.0311C8.12351 26.7916 7.67561 26.4999 7.21209 26.0364C6.74335 25.5677 6.45691 25.125 6.21733 24.5052C6.03505 24.0365 5.81631 23.3282 5.75902 22.0313C5.69652 20.6251 5.6809 20.2033 5.6809 16.6461C5.6809 13.0838 5.69652 12.6619 5.75902 11.2609C5.81631 9.95889 6.03505 9.25579 6.21733 8.78706C6.45691 8.16729 6.74856 7.71939 7.21209 7.25587C7.68082 6.78714 8.12351 6.50069 8.74328 6.26112C9.21201 6.07883 9.92031 5.86009 11.2171 5.8028C12.6181 5.7403 13.04 5.72468 16.6023 5.72468ZM16.6023 3.32373C12.9827 3.32373 12.5296 3.33935 11.1078 3.40185C9.69116 3.46435 8.71724 3.69351 7.87352 4.02162C6.99334 4.36536 6.24858 4.81846 5.50903 5.56323C4.76426 6.30278 4.31116 7.04754 3.96742 7.92251C3.63931 8.77143 3.41015 9.74015 3.34765 11.1568C3.28516 12.5838 3.26953 13.0369 3.26953 16.6565C3.26953 20.2762 3.28516 20.7293 3.34765 22.1511C3.41015 23.5677 3.63931 24.5417 3.96742 25.3854C4.31116 26.2655 4.76426 27.0103 5.50903 27.7499C6.24858 28.4894 6.99334 28.9477 7.86831 29.2863C8.71724 29.6144 9.68595 29.8435 11.1026 29.906C12.5244 29.9685 12.9775 29.9841 16.5971 29.9841C20.2168 29.9841 20.6699 29.9685 22.0917 29.906C23.5083 29.8435 24.4822 29.6144 25.326 29.2863C26.2009 28.9477 26.9457 28.4894 27.6852 27.7499C28.4248 27.0103 28.8831 26.2655 29.2216 25.3906C29.5498 24.5417 29.7789 23.5729 29.8414 22.1563C29.9039 20.7345 29.9195 20.2814 29.9195 16.6618C29.9195 13.0421 29.9039 12.589 29.8414 11.1672C29.7789 9.75056 29.5498 8.77664 29.2216 7.93293C28.8935 7.04754 28.4404 6.30278 27.6957 5.56323C26.9561 4.82367 26.2113 4.36536 25.3364 4.02683C24.4875 3.69872 23.5187 3.46956 22.1021 3.40706C20.6751 3.33935 20.222 3.32373 16.6023 3.32373ZM16.6023 9.80785C12.8212 9.80785 9.75365 12.8754 9.75365 16.6565C9.75365 20.4376 12.8212 23.5052 16.6023 23.5052C20.3834 23.5052 23.451 20.4376 23.451 16.6565C23.451 12.8754 20.3834 9.80785 16.6023 9.80785ZM16.6023 21.0991C14.1493 21.0991 12.1598 19.1096 12.1598 16.6565C12.1598 14.2035 14.1493 12.214 16.6023 12.214C19.0554 12.214 21.0449 14.2035 21.0449 16.6565C21.0449 19.1096 19.0554 21.0991 16.6023 21.0991ZM23.7226 11.1361C24.6028 11.1361 25.3215 10.4226 25.3215 9.53721C25.3215 8.65704 24.6028 7.93831 23.7226 7.93831C22.8424 7.93831 22.1237 8.65183 22.1237 9.53721C22.1237 10.4174 22.8372 11.1361 23.7226 11.1361Z" fill="#48FDBC"/>
</svg>
