<svg width="12" height="7" viewBox="0 0 12 7" fill="none" xmlns="http://www.w3.org/2000/svg">
<path d="M0.00109863 3.62502C0.0180986 3.57002 0.0300935 3.51401 0.0520935 3.46101C0.0932623 3.36429 0.157448 3.2791 0.239059 3.21285C0.320671 3.1466 0.417239 3.1013 0.520355 3.08089C0.623472 3.06049 0.730011 3.06559 0.830704 3.09576C0.931397 3.12594 1.02319 3.18026 1.0981 3.25401C1.6981 3.84935 2.29376 4.44502 2.88509 5.04102C2.89709 5.05302 2.90709 5.06701 2.93009 5.09401C2.94066 5.07424 2.95305 5.05549 2.96709 5.03801L7.00009 1.00401C7.10051 0.896475 7.23319 0.824519 7.3781 0.799011C7.38195 0.79707 7.38535 0.794349 7.38809 0.791016H7.5711C7.64708 0.811423 7.72131 0.837834 7.7931 0.87001C7.88068 0.917613 7.95601 0.984899 8.01317 1.06657C8.07033 1.14823 8.10775 1.24206 8.12248 1.34064C8.13722 1.43923 8.12887 1.53989 8.09808 1.6347C8.0673 1.72952 8.01493 1.81588 7.9451 1.88701L7.9191 1.91301L3.40109 6.43102C3.34112 6.49692 3.26813 6.54965 3.18673 6.58589C3.10533 6.62213 3.01729 6.64109 2.92819 6.64156C2.83909 6.64203 2.75086 6.624 2.66908 6.58862C2.5873 6.55324 2.51376 6.50128 2.45309 6.43601C1.70176 5.68801 0.951761 4.93834 0.203094 4.18701C0.0979935 4.0891 0.0277665 3.95953 0.00309753 3.81802C0.00151899 3.81392 -0.000864573 3.81018 -0.00390625 3.80701L0.00109863 3.62502Z" fill="#00B673"/>
<path d="M5.53182 5.96823C5.53539 5.80925 5.60193 5.65818 5.71682 5.54823L7.3088 3.99423L8.17883 3.14523L9.75182 1.61123L10.4088 0.969229C10.5272 0.851871 10.6874 0.786366 10.8541 0.787116C11.0209 0.787866 11.1805 0.854808 11.2978 0.973227C11.4152 1.09165 11.4807 1.25184 11.4799 1.41856C11.4792 1.58528 11.4122 1.74487 11.2938 1.86223C10.9008 2.25023 10.5028 2.63523 10.1068 3.02023L9.3348 3.77323L7.75381 5.31423L6.76983 6.27523C6.70483 6.33923 6.64182 6.40623 6.56982 6.46523C6.47975 6.54777 6.36701 6.60141 6.24615 6.61924C6.12529 6.63706 6.00187 6.61825 5.89181 6.56523C5.77979 6.51209 5.68591 6.42713 5.62188 6.32096C5.55786 6.21479 5.52654 6.0921 5.53182 5.96823Z" fill="#00B673"/>
</svg>
