<svg width="24" height="25" viewBox="0 0 24 25" fill="none" xmlns="http://www.w3.org/2000/svg">
<path d="M9 19.901V5.68102C9 4.33102 8.55294 3.79102 7.42353 3.79102H4.57647C3.44706 3.79102 3 4.33102 3 5.68102V19.901C3 21.251 3.44706 21.791 4.57647 21.791H7.42353C8.55294 21.791 9 21.251 9 19.901Z" fill="black"/>
<path d="M21 19.901V5.68102C21 4.33102 20.5529 3.79102 19.4235 3.79102H16.5765C15.4549 3.79102 15 4.33102 15 5.68102V19.901C15 21.251 15.4471 21.791 16.5765 21.791H19.4235C20.5529 21.791 21 21.251 21 19.901Z" fill="black"/>
</svg>
