<svg width="312" height="50" viewBox="0 0 312 50" fill="none" xmlns="http://www.w3.org/2000/svg">
<path d="M158.125 1.5L183.625 36L162.625 38.5L129.625 38L158.125 1.5Z" fill="white"/>
<path d="M121.125 49H171.125L167.862 38H130.125L121.125 49Z" fill="#48FDBC"/>
<path d="M171.625 49L190.625 45L184.125 36L168.125 38L171.625 49Z" fill="#48FDBC"/>
<path d="M158.024 1L162.383 16.6387M158.024 1L146.191 16.6387M158.024 1L169.748 16.6387M171.414 49L190.875 44.8194L184.258 35.9935M171.414 49H121.125L129.532 38.1613M171.414 49L168.144 38.1613M129.532 38.1613H168.144M129.532 38.1613L137.473 27.9419M168.144 38.1613L165.342 27.9419M168.144 38.1613L184.258 35.9935M165.342 27.9419H137.473M165.342 27.9419L162.383 16.6387M165.342 27.9419L177.642 27.1677M137.473 27.9419L146.191 16.6387M162.383 16.6387H146.191M162.383 16.6387H169.748M184.258 35.9935L177.642 27.1677M177.642 27.1677L169.748 16.6387" stroke="black" stroke-width="2" stroke-linejoin="round"/>
</svg>
