<svg width="52" height="61" viewBox="0 0 52 61" fill="none" xmlns="http://www.w3.org/2000/svg">
<path d="M28.1561 14.9158C28.7397 17.284 28.4977 19.6622 27.6133 21.7472C26.1885 23.4848 25.2291 22.7253 23.5822 23.9192C22.917 24.4014 22.5267 18.6354 20.3562 15.9432C18.9331 14.178 15.9541 17.4754 15.3988 17.6122C14.5265 17.8272 18.4641 28.3767 17.6042 28.3767C12.7235 28.3772 8.28735 25.064 7.06723 20.1128C5.63213 14.2893 9.18965 8.40498 15.0132 6.96988C20.8367 5.53478 26.721 9.09231 28.1561 14.9158Z" fill="#48FDBC"/>
<path d="M37.999 26.6983C37.999 26.6983 41.3023 24.2214 43.4988 25.6997C48.482 38.6332 48.789 42.5975 46.1434 46.699C46.1434 46.699 37.499 59.699 20.4988 54.1984C15.6182 54.1989 11.4994 35.6983 11.4994 35.6983C13.5966 32.9356 15.0515 32.7986 17.9991 34.1988L14.999 18.1992L16.4989 16.2003L19.999 16.1991L23.9992 25.6997L26.4993 23.1986L30.9986 25.6997L33.4987 23.6988L37.999 26.6983Z" fill="white"/>
<path d="M7.61148 7.32409C10.4714 4.4893 14.5328 2.96677 18.537 3.17745C22.3703 3.35322 26.118 5.13002 28.714 8.01507C30.8974 10.3598 32.222 13.446 32.5928 16.6293C32.6272 17.3196 32.787 18.033 32.6117 18.7141C32.3808 19.5157 31.2258 19.7355 30.6934 19.1031C30.3067 18.6186 30.4218 17.9577 30.3639 17.3827C30.2704 15.2865 29.5583 13.2496 28.4906 11.4597C26.9988 9.05538 24.7101 7.15825 22.0687 6.21033C20.0206 5.44056 17.7811 5.27614 15.6377 5.63134C12.4478 6.20931 9.51442 8.09314 7.66219 10.785C5.1383 14.3628 4.67591 19.3368 6.55768 23.3398C6.74722 23.7851 7.0236 24.1995 7.08209 24.6905C7.00664 25.0267 6.90172 25.3945 6.58101 25.5722C6.05594 25.9895 5.22242 25.7759 4.91399 25.1829C3.97271 23.393 3.39948 21.4124 3.19217 19.3997C2.77144 14.9609 4.43646 10.3865 7.61148 7.32409Z" fill="black"/>
<path d="M10.1421 13.3011C11.1647 11.5935 12.7615 10.2566 14.5968 9.53134C15.914 9.08918 17.3126 8.7891 18.709 8.98155C22.2388 9.25913 25.4625 11.8787 26.526 15.3036C26.8137 15.9368 26.8572 16.6424 26.9569 17.322C26.948 18.1607 25.9132 18.7009 25.2207 18.2445C24.8011 18.0208 24.6996 17.5282 24.6383 17.0959C24.3957 15.5231 23.6167 14.0297 22.4232 12.9817C21.279 11.923 19.7649 11.3176 18.2309 11.2145C16.5151 11.167 14.7534 11.7052 13.4616 12.8655C11.952 14.1458 11.0753 16.1377 11.0901 18.1357C11.0954 19.0696 11.3578 19.9727 11.6391 20.8548C11.914 21.6683 11.0012 22.5257 10.2154 22.2463C9.59697 22.0473 9.36187 21.3471 9.20239 20.7755C8.45183 18.2912 8.8027 15.499 10.1421 13.3011Z" fill="black"/>
<path d="M16.0873 15.138C17.8078 14.1842 20.1204 14.6293 21.4592 16.078C21.9777 16.6165 22.336 17.304 22.551 18.02C22.9922 19.7615 23.4007 21.5111 23.8506 23.2504C24.7744 22.3943 26.0212 21.8398 27.295 21.9719C28.6922 22.033 30.0273 22.8244 30.8034 24.0036C31.037 24.0231 31.1307 23.7121 31.3241 23.6171C32.0018 22.9933 32.9045 22.7425 33.7912 22.6051C35.7769 22.4036 37.7797 23.713 38.4699 25.6121C39.3416 24.7445 40.5882 24.3129 41.8042 24.3512C43.6862 24.4145 45.4598 25.7979 45.9665 27.649C46.5433 29.9409 47.0991 32.2394 47.6671 34.5335C48.0445 36.1083 48.5116 37.6745 48.6332 39.2961C48.9834 43.659 47.3142 48.1141 44.2113 51.129C42.3948 52.9404 40.0847 54.2111 37.6153 54.8521C35.6096 55.3558 33.5999 55.843 31.5926 56.3403C29.856 56.7912 28.0443 57.0674 26.2463 56.8861C22.1966 56.6042 18.308 54.4931 15.7743 51.267C14.4618 49.6226 13.5324 47.6811 12.9733 45.6497C12.2169 42.5965 11.4642 39.5424 10.7141 36.4876C10.4472 35.3397 10.7729 34.0539 11.6387 33.254C13.0195 31.9852 15.1375 31.916 16.8012 32.6535C15.9547 29.1805 15.0291 25.7271 14.1892 22.2539C13.9125 20.9692 13.5753 19.6602 13.6899 18.3385C13.9526 16.975 14.8797 15.7762 16.0873 15.138ZM15.9647 19.7796C17.8942 27.6417 19.8437 35.4988 21.7691 43.3605C21.9465 44.0858 21.3259 44.7739 20.6138 44.767C20.15 44.6826 19.7097 44.3748 19.5831 43.8938C19.1772 42.3274 18.8258 40.7449 18.4223 39.1779C18.1266 38.0263 17.8386 36.8525 17.2554 35.8082C16.4827 34.7836 15.0957 34.2726 13.8654 34.5542C13.2627 34.6675 12.7305 35.2987 12.9368 35.9358C13.685 38.9938 14.4392 42.0489 15.1962 45.1046C16.2644 49.4176 19.7653 53.0001 23.9962 54.1577C26.2054 54.804 28.5832 54.7735 30.7895 54.1717C32.9243 53.6416 35.0614 53.1257 37.1943 52.5879C41.105 51.5499 44.3967 48.4695 45.7001 44.587C46.5139 42.2916 46.5984 39.757 46.0366 37.3802C45.299 34.3602 44.5499 31.3417 43.8073 28.323C43.5778 27.4618 42.8353 26.7487 41.9523 26.6366C40.5528 26.3341 39.1303 27.7199 39.3541 29.146C39.5058 30.0155 39.7676 30.8619 39.9614 31.7237C40.1494 32.3788 39.5962 33.1085 38.9334 33.1286C38.3574 33.161 37.8116 32.7009 37.7079 32.129C37.2407 30.2601 36.7958 28.3844 36.3185 26.518C36.079 25.535 35.0885 24.8681 34.1162 24.8739C33.3831 24.9329 32.63 25.2726 32.2556 25.9393C31.9017 26.4576 31.822 27.1219 31.9715 27.7284C32.4274 29.6001 32.9005 31.4662 33.3489 33.3397C33.4764 33.8138 33.226 34.3255 32.8414 34.5947C32.2417 35.0006 31.2767 34.6154 31.1576 33.8784C30.5137 31.2867 29.88 28.6939 29.2398 26.1013C29.1101 25.6129 28.861 25.1472 28.4636 24.8302C27.6331 24.078 26.2565 24.0794 25.4626 24.8683C24.8243 25.4311 24.5986 26.3666 24.8127 27.1869C25.4404 29.7393 26.0718 32.2908 26.6995 34.8432C26.8765 35.3889 26.6296 36.0444 26.1105 36.2858C25.5076 36.5925 24.6806 36.1949 24.5408 35.5198C23.1584 29.9584 21.7981 24.3901 20.4219 18.8271C20.1465 17.6719 18.9544 16.8074 17.7896 16.9715C16.5197 17.1249 15.6394 18.5407 15.9647 19.7796Z" fill="black"/>
</svg>
