<svg width="49" height="61" viewBox="0 0 49 61" fill="none" xmlns="http://www.w3.org/2000/svg">
<path d="M18 55.1992L47.4997 54.2005C47.4997 54.2005 48.3746 15.8289 46.9997 14.8103C45.4997 13.6991 18.4997 14.8102 18.4997 14.8102C18.0236 19.4238 18.4997 26.1992 18.4997 26.1992C18.4997 26.1992 23.9957 29.0617 29.4997 29.6993C26.7075 43.6162 23 49.1992 18 55.1992Z" fill="white"/>
<path d="M25.445 0.740738C25.6115 0.324157 26.0256 0.0227406 26.4837 0.0597068C30.8066 0.058285 35.1308 0.0554415 39.4536 0.0611286C39.9915 0.0241624 40.4838 0.501879 40.434 1.04358C40.444 5.08853 40.434 9.13348 40.4383 13.177C41.8171 13.1884 43.1959 13.1557 44.5747 13.1941C46.7219 13.3377 48.5859 15.1149 48.8605 17.2447C48.9231 18.4845 48.889 19.73 48.8819 20.9726C48.714 21.257 48.4834 21.5655 48.1291 21.6096C47.5742 21.7375 46.9993 21.2342 47.015 20.6755C46.9908 19.6688 47.0349 18.6608 46.9965 17.6542C46.9453 16.2154 45.5793 14.9869 44.1478 15.058C36.6505 15.0595 29.1531 15.0566 21.6544 15.0595C20.4221 15.0282 19.298 15.9665 18.9579 17.1253C18.7573 18.0679 18.9466 19.0475 18.8441 20.0015C18.6406 20.8077 17.3785 20.9015 17.0669 20.1252C16.899 19.5238 17.0242 18.8812 16.9858 18.2641C16.9189 17.0073 17.3244 15.712 18.1725 14.7708C19.0689 13.7457 20.4349 13.1486 21.7952 13.1784C23.0104 13.177 24.2256 13.177 25.4393 13.1784C25.445 9.03254 25.4336 4.88664 25.445 0.740738ZM27.3233 1.92366C27.3233 5.67572 27.3233 9.42637 27.3233 13.177C31.0769 13.1784 34.832 13.1784 38.5856 13.177C38.5856 9.42637 38.5871 5.6743 38.5856 1.92366C34.8306 1.92508 31.0769 1.92366 27.3233 1.92366Z" fill="black"/>
<path d="M41.6544 10.6462C42.0842 10.2125 42.7515 10.4087 43.2951 10.376C43.9282 10.3519 44.3124 11.0244 44.2 11.5945C44.015 11.8803 43.7817 12.2059 43.4117 12.2343C42.9621 12.2627 42.5039 12.2826 42.0585 12.213C41.4026 12.0367 41.1749 11.1196 41.6544 10.6462Z" fill="black"/>
<path d="M15.7473 54.3332C21.7211 52.7402 24.708 45.1734 26.5002 31.2344C21.3229 30.0397 15.0304 26.3757 13.756 26.0571C12.4816 25.7385 6.98571 28.4467 1.41016 29.6413C3.40143 45.9698 11.6028 55.4383 15.7473 54.3332Z" fill="#48FDBC"/>
<path d="M20.4445 32.8942C20.6959 32.5641 21.1814 32.441 21.5508 32.6428C21.8476 32.7498 21.9819 33.0789 22.0182 33.3696C22.0162 33.732 21.7719 34.0247 21.5428 34.2801C20.6282 35.3824 19.7177 36.4877 18.8002 37.587C18.356 38.1149 17.9432 38.6711 17.4506 39.1566C16.2726 40.5728 15.1017 41.9951 13.9227 43.4093C13.6632 43.6859 13.4573 44.0624 13.0697 44.1745C12.7073 44.2926 12.3782 44.0331 12.137 43.7939C11.5889 43.2286 11.0186 42.6835 10.4674 42.1223C10.0384 41.7074 9.62152 41.2804 9.19352 40.8646C9.00073 40.6627 8.76957 40.4406 8.78774 40.1358C8.74736 39.6603 9.18747 39.2626 9.63464 39.2132C10.0101 39.2162 10.2898 39.5039 10.5381 39.7512C11.2972 40.5204 12.0784 41.2704 12.8295 42.0486C13.3503 41.3501 13.9408 40.7081 14.4809 40.0257C14.8362 39.6058 15.1743 39.1708 15.564 38.7831C17.1912 36.8198 18.8244 34.8626 20.4445 32.8942Z" fill="black"/>
<path d="M22.3544 10.3997C23.0231 10.4053 23.9722 10.1267 24.3678 10.8504C24.752 11.4447 24.2141 12.3205 23.5098 12.2494C22.9676 12.2281 22.2761 12.4001 21.899 11.8925C21.4437 11.4162 21.7468 10.5688 22.3544 10.3997Z" fill="black"/>
<path d="M25.1909 21.6303C25.309 21.6303 25.5423 21.6289 25.6604 21.6289C26.0332 21.7654 26.3548 22.0682 26.3562 22.4919C26.3747 23.1701 26.3776 23.8497 26.3548 24.5279C26.3278 25.0668 25.7558 25.4691 25.2392 25.3412C24.7996 25.2601 24.4822 24.8279 24.5022 24.3886C24.4979 23.7616 24.4879 23.1346 24.5093 22.509C24.5207 22.0981 24.8309 21.7825 25.1909 21.6303Z" fill="black"/>
<path d="M32.7297 21.627C32.8464 21.6284 33.0798 21.6312 33.1965 21.6312C33.6048 21.8004 33.9193 22.1957 33.8908 22.6535C33.8965 30.5728 33.888 38.4921 33.8951 46.4128C33.8823 46.7369 33.9378 47.0967 33.7528 47.3867C33.538 47.8061 32.9816 47.9796 32.5576 47.782C32.1791 47.6426 32.0041 47.226 32.0154 46.8478C32.014 38.7821 32.014 30.7178 32.0154 22.6521C31.9742 22.1758 32.2801 21.7634 32.7297 21.627Z" fill="black"/>
<path d="M39.9255 21.7752C40.4975 21.3615 41.4153 21.8236 41.3896 22.5359C41.401 30.6343 41.3911 38.7328 41.3939 46.8298C41.4793 47.4724 40.7863 48.0482 40.1716 47.8151C39.7362 47.7198 39.4673 47.2606 39.5128 46.834C39.5128 38.7783 39.5142 30.7211 39.5128 22.6653C39.4829 22.3212 39.6238 21.9615 39.9255 21.7752Z" fill="black"/>
<path d="M14.6047 22.7113C14.9533 22.4696 15.4144 22.5392 15.7473 22.7738C19.1011 24.6776 22.6499 26.2501 26.3466 27.3619C27.3967 27.7358 28.5024 27.9136 29.5567 28.2733C29.9423 28.3898 30.1729 28.815 30.1259 29.2045C29.9964 30.7727 29.7047 32.3225 29.4657 33.8765C28.5365 39.0276 26.9912 44.1616 24.1653 48.6118C22.1789 51.7283 19.4341 54.4539 16.0319 55.9823C15.6548 56.16 15.2465 56.4244 14.8153 56.2624C11.6038 54.9415 8.89884 52.5871 6.87545 49.7918C3.91436 45.6829 2.21113 40.8076 1.16244 35.8911C1.01161 35.3935 1.3645 34.8319 1.87105 34.7381C2.41176 34.6073 2.96101 35.048 3.00227 35.5926C3.82756 39.265 4.97586 42.8977 6.81284 46.199C8.67686 49.6056 11.4202 52.6581 14.996 54.2975C15.2806 54.3828 15.5182 54.1311 15.7658 54.033C18.5676 52.6311 20.8314 50.3307 22.5176 47.7189C25.1485 43.6427 26.5857 38.9266 27.5049 34.1992C27.734 32.7433 28.0428 31.2988 28.1623 29.8287C23.6104 28.6458 19.2036 26.8913 15.1141 24.5638C11.9168 26.4008 8.50753 27.8538 5.00005 28.9856C4.03389 29.2358 3.10472 29.6367 2.11153 29.7704C2.09303 30.0505 2.09445 30.3348 2.18125 30.6064C2.16133 31.2419 2.5384 31.9869 2.08876 32.54C1.6377 33.0988 0.657307 32.8528 0.49794 32.1647C0.338573 31.3713 0.238969 30.5652 0.187744 29.759C0.0383382 29.2713 0.0354924 28.5676 0.571932 28.3159C1.68608 27.9263 2.85714 27.7301 3.9727 27.3406C7.6794 26.2117 11.2438 24.6335 14.6047 22.7113Z" fill="black"/>
<path d="M47.0122 24.5043C46.9496 23.9057 47.5543 23.3854 48.1349 23.5304C48.6044 23.5844 48.9488 24.0522 48.8933 24.5171C48.8933 30.8653 48.8933 37.215 48.8933 43.5646C48.8734 46.4608 48.9331 49.3584 48.862 52.2531C48.6187 53.9109 47.459 55.4166 45.871 55.9895C45.0571 56.3621 44.1479 56.3137 43.2756 56.3109C43.3254 57.2649 43.2671 58.3255 42.5869 59.0677C41.8797 59.925 40.6247 60.2734 39.576 59.9065C38.8105 59.6819 38.1816 59.0819 37.87 58.3554C37.5398 57.7255 37.648 56.9933 37.6295 56.3123C34.5033 56.3094 31.3772 56.3123 28.2496 56.3109C28.234 56.8938 28.3122 57.4952 28.1315 58.0611C27.8626 58.9838 27.0814 59.7331 26.1451 59.9577C24.7037 60.3786 23.0304 59.4103 22.7202 57.936C22.5651 57.0758 22.6476 56.1943 22.6419 55.327C22.6405 54.8564 23.0361 54.4242 23.5156 54.4355C30.4352 54.4242 37.3577 54.4355 44.2788 54.4299C45.7245 54.437 47.0293 53.1304 47.0065 51.6801C47.0165 42.622 47.0051 33.5624 47.0122 24.5043ZM24.5017 56.3109C24.5301 56.8696 24.3494 57.5848 24.8617 57.9829C25.2942 58.3568 26.0199 58.1848 26.2647 57.68C26.434 57.2436 26.35 56.7658 26.3657 56.3109C25.7439 56.3109 25.122 56.3109 24.5017 56.3109ZM39.512 56.3109C39.5092 56.7161 39.5134 57.1213 39.5177 57.5279C39.7525 58.0525 40.4412 58.4137 40.9506 58.0284C41.5596 57.6701 41.3675 56.8952 41.3931 56.3109C40.7656 56.3109 40.1381 56.3109 39.512 56.3109Z" fill="black"/>
</svg>
