<svg width="30" height="49" viewBox="0 0 30 49" fill="none" xmlns="http://www.w3.org/2000/svg">
<path d="M3.70169 3.12252C4.0727 3.03811 4.46293 3.08031 4.84162 3.07019C11.4429 3.08031 18.0422 3.06512 24.6415 3.07694C25.0856 3.03304 25.4585 3.40783 25.2913 3.786C25.026 4.15066 24.4954 4.02067 24.0879 4.06118C18.3132 4.07131 12.5386 4.06287 6.76394 4.06625C5.73935 4.05443 4.70898 4.09833 3.68631 4.02235C3.20381 3.94807 3.21919 3.17486 3.70169 3.12252Z" fill="#48FDBC"/>
<path d="M4.98438 6.08803C11.6467 6.08594 18.3111 6.08803 24.9734 6.08594C24.8959 7.12509 24.8079 8.16424 24.8058 9.20968C24.3093 9.25159 23.8128 9.25997 23.3141 9.25578C17.2824 9.24321 11.2507 9.26625 5.22112 9.2453C5.20226 8.18729 5.04513 7.14185 4.98438 6.08803Z" fill="white"/>
<path d="M3.33203 11.2591C3.70388 11.0049 4.18555 11.0827 4.62098 11.0706C11.4472 11.0827 18.2735 11.062 25.0997 11.0827C25.4484 11.394 25.4176 11.9075 24.9186 12.0684C17.9575 12.0355 10.9925 12.0684 4.03142 12.0528C3.79636 12.0355 3.57094 11.9854 3.35515 11.8989C3.34937 11.7398 3.33781 11.4199 3.33203 11.2591Z" fill="#48FDBC"/>
<path d="M4.98047 14.5796C11.6449 14.5691 18.3093 14.5775 24.9737 14.5754C24.8669 15.6313 24.8815 16.6998 24.6972 17.7474C18.2045 17.7432 11.714 17.7516 5.2214 17.7432C5.19207 16.6852 5.04751 15.6355 4.98047 14.5796Z" fill="white"/>
<path d="M3.33203 20.5712C3.48134 20.3402 3.63447 20.0339 3.98477 20.0805C10.9333 20.0679 17.8818 20.059 24.8284 20.0859C25.3682 20.0411 25.5061 20.7754 25.0849 21.0208C24.7557 21.0781 24.4169 21.062 24.0857 21.0674C17.3899 21.0584 10.694 21.0799 3.99817 21.0584C3.64405 21.114 3.48708 20.8023 3.33203 20.5712Z" fill="#48FDBC"/>
<path d="M6.02715 35.7205C5.73175 31.501 5.2855 27.2899 4.99219 23.0726C11.6503 23.0684 18.3084 23.0746 24.9666 23.0684C24.6293 28.2557 24.1285 33.4369 23.6949 38.6159C23.6132 39.4539 23.6467 40.3024 23.5042 41.1362C23.3932 42.6845 23.2926 44.2369 23.0894 45.7768C23.0391 46.376 22.419 46.772 21.847 46.6882C17.2295 46.6798 12.612 46.6944 7.99652 46.6798C7.50627 46.7426 7.13125 46.4137 6.87775 46.0345C6.64101 42.5923 6.25342 39.1606 6.02715 35.7205Z" fill="white"/>
<path d="M1.31444 2.01563C1.82354 1.27817 2.67623 0.697832 3.60435 0.762779C11.2262 0.766969 18.8502 0.76278 26.472 0.764875C28.1816 0.716688 29.5329 2.64206 28.9253 4.2385C28.6844 5.12681 27.903 5.70924 27.0838 6.02559C26.9706 7.0836 26.9246 8.1479 26.7716 9.19962C27.639 9.47408 28.498 9.97061 28.8436 10.8631C29.5141 12.2815 28.6111 14.1335 27.088 14.4897C26.9853 15.5749 26.891 16.6602 26.7884 17.7454C27.6453 17.9717 28.5021 18.4493 28.8269 19.323C29.5245 20.7414 28.632 22.5703 27.1299 22.9831C26.8743 24.6361 26.7989 26.3121 26.6899 27.9798C26.3275 32.2915 25.942 36.6136 25.5816 40.9252C25.5167 41.9833 25.4685 43.0434 25.347 44.0993C25.2171 45.2411 25.3176 46.5107 24.5823 47.4807C23.96 48.3481 22.8957 48.7838 21.8461 48.7566C17.0903 48.7482 12.3345 48.765 7.57869 48.7461C6.18547 48.5764 4.91376 47.443 4.81111 46.0058C4.57227 42.9847 4.22658 39.972 4.06736 36.9446C3.68815 32.3124 3.25866 27.6718 2.90669 23.0334C2.07914 22.7254 1.38986 22.1136 1.0316 21.3007C0.941516 20.7141 0.941515 20.1191 1.02741 19.5304C1.41291 18.6421 2.19227 17.9759 3.14343 17.7664C3.10991 16.6706 3.01144 15.5791 2.9025 14.4897C2.14618 14.2781 1.50509 13.7271 1.1594 13.0231C0.449173 11.5377 1.43176 9.50341 3.1141 9.32533C3.14343 8.22122 3.00097 7.1255 2.91088 6.02769C2.07914 5.726 1.39195 5.13309 1.0337 4.31811C0.941515 3.55132 0.836762 2.68396 1.31444 2.01563ZM2.92764 2.90184C2.40178 2.96679 2.38502 3.92633 2.91088 4.01852C4.02546 4.11279 5.14841 4.05832 6.26508 4.07299C12.5587 4.0688 19.8139 4.03204 26.1075 4.01947C26.5516 3.96919 27.1299 4.13051 27.419 3.67797C27.6013 3.20868 27.1948 2.74357 26.7109 2.79804C19.5185 2.78338 11.3645 2.84947 4.17002 2.8369C3.75729 2.84947 3.33199 2.79709 2.92764 2.90184ZM4.45854 5.6907C4.51929 6.74452 4.6435 8.62785 4.66236 9.68585C10.692 9.70681 17.3291 9.68585 23.3608 9.69842C23.8595 9.70261 24.9432 9.68908 25.4398 9.64718C25.4418 8.60174 25.5628 6.7247 25.6403 5.68555C18.978 5.68764 11.1209 5.6886 4.45854 5.6907ZM2.5725 11.5503C2.57878 11.7451 2.59135 12.1327 2.59764 12.3255C2.83229 12.4302 3.07741 12.491 3.33301 12.5119C10.9025 12.5308 19.3635 12.4721 26.9329 12.5119C27.4756 12.3171 27.5091 11.6948 27.1299 11.3177C19.707 11.2926 11.3969 11.3366 3.9741 11.3219C3.50061 11.3366 2.97685 11.2423 2.5725 11.5503ZM4.38521 14.0515C4.45225 15.1074 4.63512 17.1275 4.66445 18.1855C11.1571 18.1939 18.8403 18.1825 25.3329 18.1867C25.5173 17.1391 25.4643 15.1002 25.5711 14.0443C18.9067 14.0464 11.0496 14.041 4.38521 14.0515ZM2.42901 20.4282C2.59871 20.6984 2.77051 21.063 3.1581 20.998C10.4866 21.0232 18.7789 20.9802 26.1075 20.9907C26.4699 20.9844 26.8408 21.0032 27.2011 20.9362C27.662 20.6492 27.5112 19.7902 26.9204 19.8426C19.3174 19.8111 10.7485 19.8394 3.14343 19.8541C2.76003 19.7996 2.59243 20.1579 2.42901 20.4282ZM5.43903 35.7262C5.6653 39.1663 6.05288 42.5981 6.28963 46.0403C6.54313 46.4195 6.91815 46.7484 7.40839 46.6855C12.0238 46.7002 17.8341 46.6825 22.4516 46.6909C23.0235 46.7747 23.6437 46.3787 23.694 45.7795C23.8972 44.2396 23.9977 42.6872 24.1088 41.1389C24.2512 40.3051 24.2177 39.4566 24.2994 38.6186C24.7331 33.4396 25.215 27.8657 25.5523 22.6783C18.8942 22.6846 11.0433 22.6814 4.38521 22.6855C4.67852 26.9029 5.14362 31.5068 5.43903 35.7262Z" fill="black"/>
</svg>
