<svg width="25" height="25" viewBox="0 0 25 25" fill="none" xmlns="http://www.w3.org/2000/svg">
<path d="M22.3042 7.57544L18.9342 21.1055C18.6942 22.1155 17.7942 22.8154 16.7542 22.8154H3.61415C2.10415 22.8154 1.02417 21.3354 1.47417 19.8854L5.68416 6.36548C5.97416 5.42548 6.84417 4.77539 7.82417 4.77539H20.1242C21.0742 4.77539 21.8642 5.3554 22.1942 6.1554C22.3842 6.5854 22.4242 7.07544 22.3042 7.57544Z" stroke="white" stroke-width="2" stroke-miterlimit="10"/>
<path d="M16.375 22.8154H21.155C22.445 22.8154 23.455 21.7254 23.365 20.4354L22.375 6.81543" stroke="white" stroke-width="2" stroke-miterlimit="10" stroke-linecap="round" stroke-linejoin="round"/>
<path d="M10.0547 7.19592L11.0947 2.87598" stroke="white" stroke-width="2" stroke-miterlimit="10" stroke-linecap="round" stroke-linejoin="round"/>
<path d="M16.7539 7.2052L17.6939 2.86523" stroke="white" stroke-width="2" stroke-miterlimit="10" stroke-linecap="round" stroke-linejoin="round"/>
<path d="M8.07422 12.8154H16.0742" stroke="white" stroke-width="1.5" stroke-miterlimit="10" stroke-linecap="round" stroke-linejoin="round"/>
<path d="M7.07422 16.8154H15.0742" stroke="white" stroke-width="1.5" stroke-miterlimit="10" stroke-linecap="round" stroke-linejoin="round"/>
</svg>
