<svg width="25" height="25" viewBox="0 0 25 25" fill="none" xmlns="http://www.w3.org/2000/svg">
<path d="M22.095 18.3608C22.095 18.7208 22.015 19.0908 21.845 19.4508C21.675 19.8108 21.455 20.1508 21.165 20.4708C20.675 21.0108 20.135 21.4008 19.525 21.6508C18.925 21.9008 18.275 22.0308 17.575 22.0308C16.555 22.0308 15.465 21.7908 14.315 21.3008C13.165 20.8108 12.015 20.1508 10.875 19.3208C9.725 18.4808 8.635 17.5508 7.595 16.5208C6.565 15.4808 5.635 14.3908 4.805 13.2508C3.985 12.1108 3.325 10.9708 2.845 9.84076C2.365 8.70076 2.125 7.61076 2.125 6.57076C2.125 5.89076 2.245 5.24076 2.485 4.64076C2.725 4.03076 3.105 3.47076 3.635 2.97076C4.275 2.34076 4.975 2.03076 5.715 2.03076C5.995 2.03076 6.275 2.09076 6.525 2.21076C6.785 2.33076 7.015 2.51076 7.195 2.77076L9.515 6.04076C9.695 6.29076 9.825 6.52076 9.915 6.74076C10.005 6.95076 10.055 7.16076 10.055 7.35076C10.055 7.59076 9.985 7.83076 9.845 8.06076C9.715 8.29076 9.525 8.53076 9.285 8.77076L8.525 9.56076C8.415 9.67076 8.365 9.80076 8.365 9.96076C8.365 10.0408 8.375 10.1108 8.395 10.1908C8.425 10.2708 8.455 10.3308 8.475 10.3908C8.655 10.7208 8.965 11.1508 9.405 11.6708C9.855 12.1908 10.335 12.7208 10.855 13.2508C11.395 13.7808 11.915 14.2708 12.445 14.7208C12.965 15.1608 13.395 15.4608 13.735 15.6408C13.785 15.6608 13.845 15.6908 13.915 15.7208C13.995 15.7508 14.075 15.7608 14.165 15.7608C14.335 15.7608 14.465 15.7008 14.575 15.5908L15.335 14.8408C15.585 14.5908 15.825 14.4008 16.055 14.2808C16.285 14.1408 16.515 14.0708 16.765 14.0708C16.955 14.0708 17.155 14.1108 17.375 14.2008C17.595 14.2908 17.825 14.4208 18.075 14.5908L21.385 16.9408C21.645 17.1208 21.825 17.3308 21.935 17.5808C22.035 17.8308 22.095 18.0808 22.095 18.3608Z" stroke="black" stroke-width="2" stroke-miterlimit="10"/>
</svg>
