<svg width="64" height="61" viewBox="0 0 64 61" fill="none" xmlns="http://www.w3.org/2000/svg">
<path d="M38.1949 55.1417L62.6017 54.8112V52.492L56.1822 42.2472L54.6715 38.0455L55.899 34.7407L56.1822 31.1999L54.6715 27.5647L53.444 26.3844L49.2423 29.5476L45.5126 23.6934L46.1264 20.0582L45.2294 16.9895L44.7572 12.5545L46.4096 10.2856L48.062 9.57744L48.8174 7.68901V6.23111L46.4096 5.23406L44.7572 4.10663L42.916 3.86495L41.4053 5.23406L42.3967 7.68901L41.6885 10.0495L40.4611 12.9294H39.1392L33.946 2.92073L31.7743 1.74609L29.461 4.10663L27.9502 6.23111L25.6841 3.25684L24.4566 2.17034L21.9073 5.90057L20.6326 8.58915L22.4738 11.6126L24.8343 12.5545L23.7957 14.4912L17.7527 23.6973L17.1862 21.8585H14.0703L12.2763 22.6614L10.2462 27.7587L9.01875 29.6447V33.9386L9.53807 38.9892L3.73115 48.2934L1.03906 53.2031L2.5509 55.1417H21.9537L29.4605 56.3662L38.1949 55.1417Z" fill="white"/>
<path d="M43.134 5.88957C43.4341 5.81976 43.7535 5.83741 44.0552 5.89117C44.3545 6.11103 44.6225 6.40471 44.7228 6.7698C44.791 7.01053 44.9523 7.22557 45.1537 7.37C45.4185 7.41815 45.6953 7.42697 45.9601 7.3684C46.1784 7.27211 46.3886 7.12768 46.6405 7.15576C47.1196 7.10521 47.5585 7.41333 47.7824 7.81935C47.8586 8.18043 47.873 8.57281 47.7479 8.92507C47.4413 9.37923 46.8532 9.38485 46.387 9.56458C46.1342 9.70099 45.8253 9.71865 45.6046 9.91443C45.1681 10.2298 45.2163 10.7479 44.9402 11.2028C44.8367 11.6546 44.5471 12.0357 44.4532 12.4891C44.3721 12.7972 44.1828 13.0596 44.0552 13.3469C43.995 13.4247 43.93 13.5996 43.8024 13.5226C43.3499 13.407 42.1477 12.8988 41.6583 12.9117C41.6511 12.2208 42.1782 11.7049 42.3163 11.0541C42.3917 10.8166 42.5417 10.6104 42.6188 10.3737C42.7399 9.85933 43.2351 9.4025 43.1685 8.87853C43.1228 8.27833 42.716 7.79688 42.4006 7.30982C42.3116 7.04984 42.3782 6.769 42.4255 6.50661C42.7152 6.35817 42.801 5.97382 43.134 5.88957Z" fill="#48FDBC"/>
<path d="M13.1669 25.2048C13.5021 25.048 13.7631 24.7345 14.1484 24.702C14.6136 24.6261 15.0989 24.6311 15.5542 24.7595C15.8144 24.8696 16.0412 25.0464 16.293 25.1764C16.4272 25.2348 16.4781 25.3807 16.5598 25.4916C16.6966 25.7101 16.9625 25.831 17.0518 26.0812C17.1827 26.4989 17.3253 26.9142 17.4262 27.3402C17.4645 27.5937 17.422 27.8747 17.5362 28.109C17.7397 28.3133 17.9757 28.5643 18.2933 28.5268C18.9237 28.4417 19.5824 28.4017 20.1953 28.6052C20.7615 28.9862 21.2276 29.5341 21.4569 30.1861C21.5711 30.6739 21.5695 31.1809 21.5144 31.677C21.5011 31.958 21.4794 32.3141 21.7537 32.4825C22.0781 32.6926 22.4191 32.8827 22.7777 33.0295C23.2046 33.328 23.4806 33.7766 23.7925 34.1869C23.9592 34.4287 23.9175 34.7447 24.0393 35.0057C24.1677 35.2642 24.1427 35.5627 24.1552 35.8437C24.1435 36.1714 24.1794 36.5232 24.0218 36.8243C23.9084 37.1128 23.9551 37.4605 23.7483 37.7115C23.6007 37.8982 23.4573 38.09 23.3364 38.296C23.042 38.6987 22.6176 38.9697 22.2299 39.2716C22.0022 39.3958 21.7212 39.3966 21.5136 39.5601C21.3502 39.6785 21.1717 39.7727 20.99 39.8586C20.4138 40.2455 20.3654 40.3939 19.9927 40.9776C19.9143 41.2044 19.3565 40.5246 19.2214 40.7223C18.802 40.3704 19.0279 39.755 18.7836 39.3123C18.6219 38.8086 18.6185 38.2266 18.8562 37.7455C18.9154 37.5754 18.9479 37.3961 19.0279 37.2343C19.3173 36.8366 19.6125 36.4347 19.9927 36.1162C20.192 35.9561 20.3938 35.7985 20.5864 35.6309C20.9483 35.4316 21.3193 35.2481 21.6829 35.053C22.0656 34.7595 21.9555 34.2092 21.8496 33.8056C21.5653 33.6739 21.3143 33.4095 20.9716 33.4996C20.5614 33.6472 20.1636 33.8398 19.7967 34.0783C19.4449 34.2359 19.5441 34.8487 19.2214 35.053C18.8512 35.2857 18.3342 35.4374 17.9281 35.62C17.8372 34.9713 17.5712 34.3618 17.4929 33.7106C17.4228 33.2953 17.432 32.8267 17.6838 32.4698C17.9198 32.0762 17.9556 31.4942 18.3242 31.2291C18.5593 30.9873 19.0455 30.9539 19.2214 30.6429C19.3081 30.4294 19.7309 30.592 19.6908 30.3469C19.6158 30.1543 19.5349 29.9625 19.4424 29.7782C19.2698 29.6907 19.083 29.6365 18.9095 29.5514C18.7019 29.4472 18.5168 29.639 18.3242 29.689C17.9056 29.8141 17.5971 30.1418 17.2202 30.346C17.0976 30.3977 17.0718 30.5387 17.0109 30.6429C16.9217 30.6512 16.8333 30.6612 16.7449 30.6721C16.7424 30.3219 16.539 30.0192 16.5248 29.6706C16.5039 29.2354 16.4055 28.806 16.2271 28.4091C16.0445 28.1306 15.7343 27.9004 15.3874 27.9396C15.0948 27.9221 15.6309 28.4941 15.3816 28.6C15.2749 29.0378 15.4758 29.2521 15.5542 29.689C15.6884 30.1801 15.8894 30.497 15.9178 31.0114C15.7635 30.9781 14.7762 31.0857 14.6353 31.0114C14.3877 30.8805 14.0958 30.9347 13.834 30.8564C13.568 30.7571 13.2745 30.7646 12.9968 30.7955C12.6233 30.9631 12.8543 30.6662 12.9176 31.1223C12.8693 31.4517 13.1536 31.6702 13.3654 31.8711C13.6422 32.1113 14.0308 31.9662 14.3602 32.0287C14.7029 32.0904 15.0939 32.0371 15.3816 32.2689C15.6084 32.4256 15.8594 32.554 16.0528 32.7542C16.3238 33.1494 16.9434 35.2165 17.0109 35.6909C17.176 36.1462 16.1212 35.6534 16.1779 36.1312C15.776 35.9903 15.3958 35.7985 15.0105 35.6192C14.5461 35.4983 14.0525 35.5442 13.5939 35.3999C13.1019 35.3299 13.1611 35.4141 12.7275 35.6909C13.247 35.7768 13.2295 36.1162 12.479 36.1162C12.3656 36.5106 12.3815 36.2037 12.6658 36.458C13.0911 36.5915 13.5438 36.5106 13.9799 36.5623C14.3068 36.5706 14.6061 36.7132 14.9255 36.7666C15.2382 36.9033 15.6559 37.1476 15.9178 37.3878C16.2229 37.6379 16.6057 37.8005 16.8341 38.1365C17.0885 38.5076 17.6688 39.0955 17.6838 39.5767C17.7047 40.0019 17.9975 41.0829 18.1059 41.4898C18.6687 41.2605 18.8632 41.8687 18.8465 42.028C18.5855 41.6761 16.7833 40.8749 16.4331 40.6297C15.9211 40.4171 15.4283 40.1394 14.8788 40.0318C14.0425 39.8909 13.1719 40.1102 12.3489 39.8743C11.9887 39.6399 11.5318 39.5549 11.2475 39.2164C11.1182 39.0663 10.9423 38.9712 10.7955 38.8428C10.2919 38.2966 9.9842 37.6037 9.76157 36.9025C9.7132 36.5014 9.0805 35.9961 9.50542 35.5708C9.61048 35.0989 9.52392 34.4944 9.76157 34.0783C10.0434 33.7539 11.0023 33.6747 10.8597 33.2044C10.7055 32.9351 10.5554 32.6641 10.3994 32.3973C10.2152 32.1063 10.2494 31.7461 10.1343 31.4309C10.0484 31.2174 9.58979 30.4361 9.67651 30.2226C9.79825 29.9133 9.74822 29.5397 9.96502 29.2696C10.0734 29.1253 10.1751 28.9769 10.2869 28.836C10.4803 28.6967 10.6721 28.5558 10.8597 28.4091C11.26 28.2798 11.2132 28.0822 11.5167 27.7578C11.8036 27.556 11.7343 27.1566 11.7035 26.8556C11.5792 26.4045 12.2789 26.6572 12.3114 26.1727C12.2614 25.5915 12.4882 26.2938 12.7275 25.7776C12.8793 25.59 13.0319 25.4041 13.1669 25.2048Z" fill="#48FDBC"/>
<path d="M50.6655 30.0234C50.9988 30.0358 50.9979 30.3832 51.1101 30.6184C51.3594 31.0295 51.5946 31.4662 51.6582 31.9497C50.7008 31.9957 49.7434 32.0196 48.7852 32.024C49.3262 31.2814 50.1245 30.7669 50.6655 30.0234Z" fill="#48FDBC"/>
<path d="M48.457 33.9384C49.25 33.8492 50.0633 33.9632 50.8395 33.7669C51.1188 33.7493 51.3991 33.7493 51.6793 33.7422C51.6607 34.0507 51.6616 34.3645 51.5732 34.6633C51.4265 35.0594 51.1896 35.413 51.0251 35.802C50.9535 35.9726 50.8324 36.1149 50.7263 36.2661C50.6468 36.0194 50.4443 35.8647 50.2419 35.7233C50.073 35.4811 49.8847 35.2503 49.6231 35.1036C49.4993 34.9347 49.3534 34.788 49.1855 34.6633C49.0007 34.3645 48.6736 34.2098 48.457 33.9384Z" fill="#48FDBC"/>
<path d="M47.0711 36.2283C47.1851 35.9242 47.1135 35.5812 47.2744 35.293C47.3708 35.5759 47.6033 35.7562 47.8314 35.9295C48.3264 36.4502 48.8241 36.9673 49.3554 37.4526C49.4182 37.694 49.1265 37.8098 48.9523 37.9C48.5943 37.9725 48.3052 38.2041 47.9719 38.334C47.651 38.3932 47.3266 38.4286 47.0039 38.4666C47.0357 37.7205 47.026 36.9735 47.0711 36.2283Z" fill="#48FDBC"/>
<path d="M44.7577 35.9822C44.9027 35.8116 45.083 35.6754 45.2678 35.5508C45.2589 36.4949 45.1917 37.4391 45.2085 38.385C44.908 38.3779 44.5897 38.3611 44.3378 38.1781C44.0054 37.95 43.543 37.9474 43.2849 37.6168C43.2195 37.4019 43.4502 37.3038 43.5704 37.1747C43.9674 36.7778 44.3678 36.3853 44.7577 35.9822Z" fill="#48FDBC"/>
<path d="M30.6501 42.9378C31.0549 42.8132 31.4872 42.8795 31.9045 42.8636C32.2943 42.8282 32.6435 43.0262 33.0245 43.0678C33.3684 43.0881 33.6071 43.3604 33.9103 43.4868C34.2657 43.6371 34.5353 43.9226 34.8227 44.1711C35.3044 44.6166 35.6961 45.1497 36.0347 45.7093C36.1496 46.0134 36.3379 46.2803 36.4784 46.5712C36.6579 47.1723 36.8815 47.7602 37.0964 48.3481C37.1795 48.7839 37.183 49.2321 37.2688 49.667C37.4005 50.0295 37.3386 50.422 37.3563 50.7995C37.3386 51.1938 37.4075 51.6057 37.2679 51.9858C37.1618 52.4871 37.2246 53.0308 37.0009 53.5037C36.84 53.9811 36.5925 54.424 36.4581 54.9102C36.1787 55.2108 36.0833 55.6289 35.7951 55.9215C35.3973 56.5147 34.843 56.9744 34.3329 57.4686C34.0191 57.61 33.7928 57.8929 33.4657 58.0069C33.0608 58.1449 32.7364 58.4516 32.3288 58.5807C31.9929 58.6505 31.6428 58.6611 31.3237 58.7946C30.6969 58.9069 30.0542 58.8786 29.4213 58.8512C29.0199 58.8468 28.6592 58.6461 28.2605 58.6196C27.8831 58.6037 27.5904 58.3508 27.2863 58.1599C27.1219 58.037 26.9071 58.0176 26.7409 57.9017C26.4085 57.6162 26.0036 57.412 25.757 57.0372C25.3415 56.7755 25.0966 56.33 24.8199 55.9401C24.6104 55.4786 24.2099 55.1091 24.1251 54.5964C24.0199 54.2109 23.8059 53.8564 23.7635 53.4542C23.6265 52.3898 23.6273 51.3087 23.7564 50.2443C23.7962 49.7935 24.0313 49.3956 24.141 48.9634C24.24 48.4055 24.6855 48.0015 24.8447 47.4649C25.7119 46.1106 26.7709 44.8076 28.1801 43.9854C28.4409 43.8006 28.6778 43.5584 29.0031 43.493C29.271 43.4347 29.484 43.2561 29.7254 43.1394C30.0268 43.043 30.3504 43.0395 30.6501 42.9378ZM29.4602 47.7496C28.9527 47.7461 28.5443 48.0678 28.0855 48.2314C27.9219 48.2844 27.8123 48.4232 27.6833 48.5275C27.335 48.8228 26.9142 49.0588 26.6817 49.4664C26.5747 49.6556 26.3537 49.7616 26.3024 49.9844C26.2379 50.1957 26.1168 50.3822 26.0125 50.5758C25.8012 50.9135 25.8542 51.3387 25.6659 51.6879C25.5572 52.2396 25.5872 52.8106 25.6173 53.3693C25.6155 53.6726 25.8012 53.9272 25.8348 54.2242C25.8869 54.6521 26.1751 54.9898 26.3369 55.3779C26.4969 55.5768 26.6604 55.7748 26.8178 55.9781C27.1193 56.3547 27.5445 56.5943 27.9264 56.878C28.2985 56.993 28.6442 57.1777 29.0137 57.3015C29.5583 57.4085 30.117 57.3917 30.6686 57.3651C31.1575 57.3572 31.5827 57.0946 32.0353 56.947C32.3562 56.8586 32.5649 56.5748 32.8654 56.444C33.2411 56.1142 33.5912 55.7527 33.8935 55.354C34.0907 54.9942 34.3179 54.6529 34.5079 54.2887C34.6335 53.9625 34.5972 53.5974 34.7219 53.2703C34.8253 53.021 34.7997 52.7435 34.8103 52.48C34.7988 52.1308 34.8448 51.764 34.7033 51.4342C34.5742 51.07 34.6494 50.6412 34.4125 50.3177C34.2206 50.0313 34.0438 49.736 33.8794 49.4345C33.7291 49.2595 33.5603 49.1004 33.4374 48.9041C33.1554 48.7211 32.9043 48.4975 32.6453 48.2862C32.3041 48.1306 31.9787 47.9308 31.6225 47.8141C30.9126 47.6753 30.1789 47.6753 29.4602 47.7496Z" fill="white"/>
<path d="M29.3429 50.9068C29.6465 50.8319 29.9658 50.8809 30.2517 50.998C30.5819 51.0375 30.8243 51.2751 31.051 51.4957C31.3315 51.7237 31.4187 52.0914 31.5977 52.3909C31.6951 52.843 31.6876 53.3168 31.61 53.7723C31.5276 54.0038 31.3907 54.2142 31.3043 54.4456C31.2627 54.5872 31.1293 54.6649 31.0422 54.7758C30.9468 54.8868 30.876 55.0304 30.7358 55.0931C30.5132 55.1952 30.3307 55.377 30.0917 55.443C29.6349 55.539 29.1529 55.5356 28.7015 55.409C28.325 55.2163 28.0064 54.9283 27.7566 54.5879C27.6204 54.3054 27.504 54.0126 27.4264 53.7097C27.4059 53.4768 27.4046 53.2413 27.4236 53.0078C27.4999 52.6551 27.6333 52.3181 27.7749 51.9872C28.0561 51.6584 28.3598 51.3411 28.7192 51.0967C28.9248 51.0266 29.1427 50.9939 29.3429 50.9068Z" fill="#48FDBC"/>
<path d="M31.236 0.713321C31.7549 0.556849 32.3234 0.595746 32.8538 0.672656C33.2781 0.914879 33.7484 1.16594 33.9615 1.63271C34.1162 1.99074 34.4406 2.24622 34.5714 2.61575C34.6917 2.99057 35.0126 3.25313 35.1293 3.63061C35.4687 4.15572 35.8082 4.68171 36.0867 5.2413C36.1715 5.54187 36.4606 5.72486 36.5437 6.02455C36.656 6.42855 37.0096 6.69729 37.1731 7.07477C37.2925 7.33291 37.4737 7.55745 37.5851 7.82089C37.7362 8.20191 38.0801 8.47065 38.2083 8.86581C38.2932 9.16638 38.5814 9.35026 38.6645 9.64906C38.7865 10.0725 39.164 10.3545 39.324 10.7594C39.6236 11.2315 39.8111 11.7663 40.1956 12.1836C40.3989 11.7265 40.7128 11.3137 40.8109 10.816C40.8993 10.4385 41.1645 10.13 41.2405 9.74807C41.2962 9.45457 41.4907 9.21765 41.5924 8.94095C41.6154 8.76149 41.6127 8.57938 41.5968 8.40081C41.3572 7.79967 40.795 7.3391 40.749 6.66547C40.7039 6.33396 40.5015 6.01217 40.6314 5.67271C40.8029 5.30053 40.7119 4.84879 40.9594 4.50933C41.1336 4.25119 41.2812 3.963 41.5349 3.77028C41.7762 3.56696 41.9822 3.29998 42.2925 3.19567C42.6585 3.06306 42.9953 2.82791 43.3931 2.7952C43.8891 2.75189 44.4204 2.74746 44.8686 2.99941C45.1161 3.15146 45.4264 3.17887 45.6465 3.37689C45.9736 3.65006 46.2344 4.00101 46.5686 4.2618C47.1175 4.24589 47.6815 4.1902 48.2208 4.33076C48.4913 4.47132 48.745 4.64635 49.0359 4.74802C49.4231 5.06892 49.7572 5.45435 50.072 5.84686C50.1745 6.13152 50.209 6.43827 50.3354 6.71674C50.4521 7.32407 50.4397 7.97648 50.1992 8.55375C50.1763 8.97012 49.8598 9.24682 49.5955 9.52794C49.3957 9.93902 48.9316 10.0504 48.5744 10.2776C48.2217 10.5313 47.7514 10.389 47.3677 10.5543C47.0945 10.709 46.8125 10.8991 46.6746 11.1917C46.5571 11.403 46.5411 11.6514 46.4589 11.8759C46.3228 12.1473 46.1787 12.4134 46.0408 12.6839C45.8932 12.9597 45.9126 13.2948 45.742 13.5609C45.5784 13.8349 45.4255 14.1302 45.4061 14.4555C45.4794 14.8206 45.8162 15.0381 45.9533 15.3714C46.1442 15.7586 46.4607 16.0918 46.5438 16.5259C46.6304 16.8839 46.7843 17.2207 46.8974 17.5699C47.0044 18.0526 47.0159 18.5485 47.0645 19.0383C47.2059 19.513 47.1971 20.0293 47.0618 20.504C47.0132 21.32 46.9478 22.1474 46.596 22.898C46.4324 23.1932 46.6799 23.4372 46.8408 23.66C47.1927 24.277 47.4915 24.9268 47.9414 25.482C48.0422 25.7719 48.1775 26.0442 48.3728 26.2838C48.547 26.6551 48.7618 27.0025 48.997 27.3384C49.1817 27.7194 49.3948 28.0881 49.6503 28.4275C50.5511 27.5868 51.3706 26.6595 52.2767 25.8223C52.5622 25.5898 52.9159 25.4033 53.296 25.4422C53.9413 25.4369 54.4196 25.9452 54.7679 26.4332C55.1312 26.7894 55.3337 27.2642 55.6484 27.6584C55.7934 28.2622 56.3185 28.6945 56.3927 29.3195C56.4917 29.7067 56.7216 30.055 56.7623 30.4581C56.8109 30.7994 56.8286 31.1495 56.9665 31.4704C57.0796 32.2483 57.0496 33.0413 57.0398 33.8254C57.0142 34.194 57.0451 34.5821 56.8825 34.9251C56.7914 35.2823 56.8073 35.6589 56.703 36.0143C56.5766 36.3767 56.4201 36.7294 56.3335 37.1043C56.1744 37.6338 55.735 38.0484 55.6555 38.6062C55.6846 39.0721 56.0294 39.4098 56.2699 39.7802C56.5625 40.4636 57.0451 41.0444 57.3263 41.733C57.5225 42.0407 57.8019 42.2979 57.9062 42.6586C58.2757 43.3101 58.6762 43.9475 59.0492 44.5999C59.2844 44.889 59.3533 45.2718 59.5876 45.5617C59.7149 45.7315 59.8696 45.8862 59.9465 46.0886C60.0703 46.4661 60.3532 46.7578 60.5096 47.1203C60.7687 47.4668 60.8739 47.9035 61.1647 48.2288C61.4326 48.5453 61.5042 48.9767 61.7835 49.287C62.1902 50.0535 62.7073 50.7598 63.068 51.5519C63.2519 51.8436 63.5153 52.0911 63.6205 52.4288C63.731 52.8054 64.0139 53.1334 63.9927 53.5427C64.0572 54.0616 63.7248 54.4948 63.5533 54.958C63.0945 55.4451 62.4837 55.888 61.7835 55.8633C53.868 55.8704 45.9515 55.8518 38.0359 55.873C37.784 56.2655 37.5815 56.6952 37.2686 57.0452C36.9751 57.6384 36.3748 57.9876 36 58.5224C35.5872 58.8442 35.1673 59.1563 34.735 59.4489C34.2178 59.6231 33.8386 60.0836 33.2843 60.157C32.8759 60.2313 32.5399 60.5274 32.12 60.5566C31.709 60.6229 31.2855 60.6167 30.8877 60.7493C30.4174 60.7741 29.9436 60.7794 29.4733 60.7466C28.8783 60.5451 28.2011 60.6724 27.6398 60.3621C27.4356 60.2755 27.2367 60.1694 27.0157 60.1331C26.5188 60.0509 26.1838 59.6345 25.7365 59.4401C24.688 58.8097 23.8623 57.8762 23.1763 56.8755C23.0411 56.5148 22.7025 56.2602 22.653 55.8651C16.0414 55.8633 9.43062 55.8633 2.81899 55.8651C2.45478 55.8571 2.0605 55.9048 1.72899 55.7201C1.48942 55.5901 1.25427 55.4504 0.992597 55.37C0.921875 55.1578 0.75391 55.0164 0.590365 54.8767C0.461297 54.6018 0.42682 54.2915 0.293333 54.0174C0.233219 53.6859 0.216422 53.3173 0.371127 53.0079C0.48163 52.7648 0.487818 52.4766 0.66816 52.268C0.878558 51.9966 0.987293 51.6642 1.20565 51.3981C1.44964 51.0913 1.54511 50.6988 1.79441 50.3956C1.97917 50.1958 1.98536 49.9005 2.1604 49.6954C2.36107 49.4435 2.47599 49.1394 2.66252 48.8786C2.94895 48.4976 3.09658 48.0344 3.39892 47.6639C3.5492 47.1636 3.91961 46.7826 4.22106 46.3688C4.4624 46.238 4.75855 46.0444 5.0326 46.2062C5.29162 46.368 5.63727 46.5677 5.62666 46.9178C5.64169 47.1574 5.63462 47.4014 5.58158 47.6374C5.46223 47.8894 5.23769 48.083 5.14221 48.3508C5.00519 48.7168 4.70551 48.9909 4.54815 49.348C4.4403 49.6318 4.18835 49.8351 4.10525 50.1321C3.98502 50.5379 3.58279 50.7801 3.47406 51.1894C3.35206 51.521 3.07094 51.7667 2.96044 52.1079C2.67755 52.5199 2.43798 52.9593 2.18338 53.388C2.12592 53.5595 2.16128 53.7434 2.15951 53.9202C2.55379 53.9812 2.95248 53.9609 3.34941 53.9626C8.41753 53.9626 13.4857 53.9626 18.5538 53.9626C19.7039 53.9556 20.8549 53.9777 22.005 53.9503C21.8759 53.5613 21.7875 53.1573 21.792 52.7453C21.784 51.5722 21.6753 50.3505 22.1226 49.2366C22.2295 48.8821 22.2623 48.502 22.4567 48.1784C22.6627 47.8469 22.6415 47.4182 22.9094 47.1229C23.0818 46.9125 23.1206 46.6332 23.2718 46.4104C23.392 46.1841 23.5936 46.0152 23.7121 45.7872C24.0462 45.2267 24.5059 44.7608 24.9179 44.2596C25.222 44.0023 25.4315 43.6434 25.7895 43.448C26.0813 43.1492 26.4446 42.9335 26.7363 42.6338C26.8839 42.4623 27.1306 42.4438 27.3021 42.305C27.6522 42.0088 28.1172 41.9142 28.4832 41.6375C29.1656 41.4643 29.8118 41.1708 30.4952 41.0028C31.1706 40.9365 31.8539 40.9312 32.5302 40.9913C33.203 41.1045 33.8103 41.4404 34.4654 41.6207C34.994 42.0018 35.6225 42.2572 36.0557 42.7611C36.2378 42.9954 36.5039 43.1457 36.6454 43.4136C37.0025 43.6885 37.1899 44.104 37.4534 44.4585C37.5895 44.63 37.6319 44.8527 37.7583 45.0304C37.9617 45.3239 38.1721 45.6263 38.2393 45.9843C38.3294 46.3591 38.615 46.6606 38.6556 47.0487C38.7166 47.549 38.9085 48.0176 39.0278 48.5047C39.0614 48.8114 39.0888 49.1208 39.202 49.4108C39.2895 50.3425 39.2798 51.284 39.209 52.2167C39.1056 52.5208 39.0667 52.839 39.0145 53.1555C38.9058 53.4137 38.8554 53.6903 38.8404 53.9706C43.7768 53.9529 48.7132 53.9679 53.6496 53.9626C56.4228 53.9529 59.1969 53.983 61.97 53.9476C62.108 53.4861 61.8781 53.0256 61.5625 52.6994C61.4617 52.3139 61.2222 51.9992 60.9738 51.6969C60.682 50.9888 60.1799 50.3903 59.8926 49.6831C59.729 49.4072 59.4683 49.1933 59.3631 48.8839C59.257 48.5984 59.0554 48.365 58.9193 48.0962C58.7478 47.6975 58.4481 47.3722 58.2651 46.9806C58.1634 46.7437 57.9645 46.5616 57.8814 46.3167C57.7577 45.8862 57.3448 45.621 57.2131 45.194C56.9576 44.721 56.68 44.2596 56.414 43.7919C56.2548 43.3402 55.8455 43.029 55.7111 42.5667C55.552 42.2546 55.3018 41.9947 55.186 41.6596C54.8846 41.2229 54.6362 40.7579 54.3639 40.3053C54.2384 40.4689 54.0677 40.5891 53.9183 40.7296C53.5568 41.0435 53.2695 41.4466 52.8407 41.6764C52.6904 41.9063 52.4456 42.0009 52.2078 42.1105C51.8179 42.4358 51.3335 42.6073 50.9091 42.8778C50.6501 43.0546 50.3195 43.0599 50.0534 43.2226C49.7758 43.3296 49.4929 43.5223 49.1835 43.4268C48.9607 43.2924 48.7503 43.1386 48.5532 42.9715C48.4471 42.6842 48.4577 42.366 48.5125 42.0689C48.7017 41.8647 48.8776 41.5986 49.1782 41.5633C49.7422 41.4599 50.1913 41.0815 50.712 40.8702C50.9666 40.7129 51.2017 40.5246 51.4846 40.4158C51.8497 40.0428 52.2758 39.7333 52.6736 39.3939C52.9716 39.0385 53.2474 38.6637 53.5524 38.3136C53.7477 37.8813 54.1332 37.5595 54.2702 37.0972C54.4523 36.7064 54.6609 36.3245 54.7308 35.8931C54.9809 35.3194 55.08 34.6997 55.2037 34.0915C55.2338 33.5018 55.2285 32.9095 55.2152 32.319C55.2267 31.9371 55.0632 31.5835 55.0322 31.206C54.8811 30.711 54.7042 30.223 54.5708 29.7226C54.3038 29.2939 54.2269 28.7652 53.8609 28.4001C53.5974 28.1473 53.5638 27.6637 53.2076 27.532C52.8398 27.8989 52.5048 28.302 52.0884 28.6158C52.2467 28.9323 52.5525 29.1489 52.6816 29.484C52.8107 29.8499 53.0997 30.1487 53.1519 30.543C53.235 31.0628 53.5471 31.5225 53.5727 32.0556C53.6222 32.7637 53.6187 33.4771 53.5718 34.1852C53.54 34.7059 53.2191 35.147 53.1528 35.6589C53.0591 36.0708 52.7603 36.3988 52.6551 36.8099C52.3094 37.1874 52.0875 37.655 51.7286 38.0183C51.4236 38.4489 50.9356 38.6946 50.5564 39.05C50.209 39.4116 49.6971 39.507 49.3064 39.8085C48.692 39.9473 48.1209 40.2487 47.4906 40.3186C47.0919 40.4936 46.649 40.4512 46.2238 40.4618C45.9126 40.4503 45.5873 40.4821 45.2938 40.3584C45.0233 40.2655 44.7236 40.2965 44.4628 40.1727C43.9403 39.9491 43.3472 39.9066 42.8937 39.538C42.4958 39.4054 42.1635 39.1578 41.8664 38.8652C41.5181 39.2772 41.1053 39.6299 40.7313 40.0189C41.3201 40.6359 42.136 40.9454 42.868 41.3547C43.2101 41.5739 43.6371 41.5447 43.9996 41.7118C44.1596 41.7754 44.3346 41.7861 44.4955 41.8497C44.896 42.0318 45.3504 41.9496 45.7712 42.0442C45.9648 42.1803 46.0832 42.4067 46.2821 42.5437C46.3025 42.7726 46.3396 43.0122 46.2662 43.2359C46.0063 43.5691 45.6456 43.974 45.1744 43.8618C44.827 43.7185 44.4416 43.7433 44.0924 43.6089C43.6495 43.5011 43.1651 43.5382 42.7646 43.2907C42.4101 43.0812 41.9805 43.0644 41.6348 42.8381C40.8109 42.3571 39.9428 41.9222 39.2524 41.2512C39.0128 40.9683 38.7113 40.6793 38.6892 40.2859C38.683 39.9756 38.6477 39.622 38.8563 39.3647C39.1631 38.8644 39.6502 38.5178 40.002 38.0528C40.1788 37.8928 40.4272 37.8371 40.5704 37.6311C40.7349 37.5109 40.7596 37.3014 40.8675 37.1414C41.267 36.8002 41.5853 36.3741 42.0247 36.0788C44.0526 34.0597 46.0664 32.0255 48.0917 30.0046C48.1934 29.8234 48.1015 29.6192 48.0458 29.4406C47.9512 29.0738 47.6276 28.8368 47.465 28.5053C47.3262 28.1402 47.0583 27.845 46.9133 27.4816C46.71 27.1926 46.5341 26.8911 46.4227 26.5552C46.0284 26.1786 45.8675 25.6561 45.6058 25.1947C45.361 25.6093 45.0436 25.9717 44.7607 26.3589C44.5866 26.5145 44.4416 26.6966 44.3329 26.9035C43.5894 27.5223 42.9149 28.2852 41.9884 28.6432C41.7603 28.7608 41.5676 28.9518 41.3059 28.9951C40.6562 29.2072 40.0073 29.4327 39.3372 29.5626C38.7096 29.5768 38.0545 29.6555 37.4525 29.4406C36.9123 29.3593 36.4244 29.1003 35.9081 28.9385C35.6756 28.775 35.4528 28.599 35.1796 28.5071C34.7323 28.2039 34.3628 27.8025 33.9871 27.4198C33.8748 27.0458 33.8483 26.6109 34.0693 26.2705C34.369 25.9744 34.8561 25.9143 35.2371 26.0751C35.5863 26.3404 35.916 26.6374 36.2016 26.9707C36.5216 27.1095 36.8257 27.2801 37.136 27.4392C37.4693 27.5577 37.8361 27.5373 38.1685 27.6637C38.805 27.822 39.4194 27.5674 40.0444 27.4878C40.3866 27.4153 40.6748 27.2005 41.0036 27.0874C41.4624 26.9521 41.7674 26.5508 42.1856 26.3377C42.403 26.0495 42.7522 25.9019 42.9458 25.5916C43.3463 25.1885 43.6875 24.7252 43.9616 24.2249C44.1092 23.9623 44.3558 23.7537 44.4133 23.4452C44.4911 23.0933 44.7227 22.8034 44.8191 22.4604C44.9216 21.9096 45.1249 21.3854 45.216 20.8311C45.3274 19.7331 45.3283 18.5857 44.9066 17.5478C44.8385 17.0899 44.5521 16.7186 44.3744 16.3031C43.89 15.5994 43.2658 14.9797 42.502 14.5837C41.9867 14.4025 41.4651 14.2407 40.9249 14.1558C40.17 14.0957 39.4654 14.4166 38.7432 14.5802C38.3834 14.7791 38.0483 15.0231 37.6691 15.1857C37.3057 15.5066 36.8655 15.7356 36.5534 16.1139C35.9868 16.655 35.604 17.3463 35.1514 17.9775C35.0143 18.3028 34.88 18.6272 34.6846 18.9243C34.5759 19.3654 34.4822 19.8092 34.308 20.2317C34.163 20.512 34.2258 20.8444 34.1047 21.1334C33.8792 21.9406 34.1657 22.7945 33.9906 23.6052C33.9712 23.8624 33.6874 23.9093 33.515 24.0401C33.1667 24.2028 32.8211 24.0012 32.5064 23.8571C32.4409 23.6096 32.2579 23.4001 32.2677 23.1358C32.2235 22.4851 32.2243 21.8309 32.2668 21.1812C32.2615 20.8479 32.4719 20.5535 32.4347 20.2167C32.4065 19.8958 32.4648 19.5811 32.5461 19.2726C32.5859 19.2549 32.6646 19.2186 32.7044 19.201C32.7 19.0798 32.6973 18.9587 32.6946 18.8376C32.9758 18.8173 32.8396 18.499 32.921 18.316C33.0827 17.8369 33.4089 17.4338 33.6025 16.9679C34.3478 15.6489 35.3945 14.4988 36.6445 13.6422C37.1758 13.3964 37.5957 12.9049 38.2251 12.9058C38.3073 12.4231 37.8936 12.0863 37.6726 11.7106C37.5152 11.3234 37.2545 10.9919 37.09 10.6082C36.8947 10.3032 36.6215 10.0354 36.5216 9.67646C36.4686 9.4307 36.2219 9.30252 36.1415 9.0709C35.9876 8.68635 35.7233 8.36015 35.5598 7.9809C35.3202 7.6485 35.1072 7.29843 34.9339 6.92802C34.7668 6.72823 34.6342 6.50546 34.5414 6.26324C34.392 5.89548 34.0667 5.63823 33.9358 5.26252C33.6662 4.80106 33.4417 4.31573 33.1119 3.89228C32.9227 3.67039 32.9104 3.34949 32.6946 3.14616C32.5373 2.97643 32.4657 2.75454 32.3958 2.53972C32.2199 2.51585 32.0263 2.469 31.8646 2.57154C31.5162 2.96317 31.3554 3.47237 31.053 3.89493C30.916 4.25738 30.6605 4.55088 30.4413 4.86205C30.3263 5.29876 29.9833 5.61525 29.826 6.03251C29.6456 6.34722 29.3734 6.65044 29.3884 7.03499C29.4591 7.40009 29.513 7.77139 29.6403 8.12323C29.826 8.94007 29.5997 9.76486 29.3946 10.5516C29.1895 10.9044 28.9535 11.2403 28.7802 11.6116C28.393 12.1075 27.9271 12.5442 27.3914 12.8784C26.7319 13.2081 26.0591 13.5529 25.3113 13.6334C25.2733 14.0444 24.9046 14.2964 24.7738 14.6703C24.6686 14.9824 24.4334 15.2211 24.2646 15.4978C23.9428 16.1299 23.5892 16.7425 23.1967 17.3348C23.0809 17.6513 22.8546 17.9032 22.6901 18.1932C22.7662 18.614 22.3533 18.8447 22.2313 19.2054C22.1845 19.3548 22.0289 19.4379 22.0006 19.5952C21.8158 20.0532 21.372 20.3493 21.1944 20.8152C21.0856 21.1502 20.8275 21.3969 20.6445 21.6886C20.3262 22.3507 19.9461 22.9837 19.5297 23.591C19.4166 23.8562 19.5642 24.1489 19.5695 24.4256C20.1645 24.4989 20.8204 24.4158 21.3464 24.7553C21.5435 24.8693 21.7593 24.9401 21.9705 25.0214C22.5938 25.4174 23.0579 26.0018 23.4743 26.6056C23.7916 27.0856 23.903 27.6637 24.078 28.2048C24.1956 28.63 24.0621 29.0914 24.2115 29.5034C24.8622 29.6837 25.3033 30.238 25.748 30.7119C25.9327 31.0257 26.2024 31.2936 26.3111 31.648C26.4092 31.9636 26.6488 32.2227 26.7001 32.5542C26.8663 33.6353 26.8636 34.7413 26.708 35.8233C26.6762 36.1035 26.4375 36.3192 26.5065 36.6172C26.2289 36.7038 26.2554 37.0813 26.2404 37.3235C26.0547 37.3465 26.0715 37.5251 26.0335 37.6647C25.9416 37.7575 25.8691 37.8734 25.7595 37.9467C25.3997 38.1262 25.1831 38.4798 24.8754 38.7256C24.4838 39.0305 24.1125 39.3868 23.6219 39.5221C23.2197 39.7714 22.722 39.8704 22.4011 40.2355C22.2021 40.4494 21.982 40.6439 21.7999 40.8729C21.586 41.0877 21.6081 41.4192 21.4463 41.6658C21.3208 42.0628 21.1961 42.4623 21.1263 42.8743C20.9433 43.2792 20.5632 43.5462 20.221 43.8114C20.0619 43.9219 19.9134 44.073 19.711 44.0942C19.2318 44.1906 18.7412 44.2101 18.2594 44.1278C17.889 44.1172 17.6353 43.8131 17.363 43.6027C16.9298 43.3251 16.73 42.8159 16.3419 42.4915C15.983 42.259 15.6383 41.977 15.1901 41.9558C14.3997 41.611 13.5078 41.9452 12.6918 41.7136C12.3028 41.5429 11.8405 41.6146 11.4798 41.3714C10.8848 41.0594 10.3261 40.6952 9.7807 40.3053C9.70113 40.7491 9.28388 41.0019 9.18752 41.4342C9.07701 41.7153 8.84982 41.9257 8.69069 42.1759C8.50682 42.5967 8.23012 42.9698 8.05685 43.3959C7.85529 43.5771 7.74213 43.8149 7.67406 44.0739C7.44687 44.3108 7.14895 44.5778 6.79534 44.5416C6.47975 44.5327 6.13763 44.3612 6.01475 44.0589C5.86446 43.5638 5.98381 43.0149 6.29587 42.6073C6.54782 42.2864 6.70782 41.9098 6.94121 41.5765C7.1074 41.3644 7.11006 41.0656 7.30896 40.8746C7.54411 40.6147 7.71296 40.3142 7.81905 39.9818C8.1205 39.6582 8.23277 39.2233 8.48825 38.8697C8.67743 38.6425 8.43698 38.3941 8.33885 38.1881C8.15497 37.9237 8.17707 37.5922 8.08072 37.2987C7.87297 36.8815 7.92336 36.4006 7.90303 35.9488C7.92248 35.4971 7.86855 35.0126 8.08514 34.598C8.17619 34.3205 8.16647 34.0084 8.32559 33.7547C8.4856 33.4744 8.64296 33.1916 8.80562 32.9122C8.86308 32.7734 8.7349 32.6726 8.6792 32.5612C8.34769 31.6622 8.10016 30.6951 8.27785 29.7341C8.40162 29.2824 8.51742 28.8245 8.70484 28.3948C9.07967 27.9192 9.33692 27.3278 9.87971 27.0131C10.1882 26.8451 10.4057 26.5454 10.7425 26.4226C10.6108 25.4864 10.5967 24.5184 10.8053 23.5928C11.1978 22.7919 11.5912 21.9467 12.3037 21.3783C12.6193 21.236 12.8421 20.939 13.1842 20.855C13.6094 20.7012 14.0214 20.4775 14.4819 20.4616C14.9744 20.4368 15.4747 20.42 15.9609 20.5137C16.3154 20.6092 16.6496 20.7683 16.9952 20.8912C17.287 20.9885 17.5027 21.2218 17.7741 21.3606C17.9323 21.4287 17.9942 21.6037 18.1091 21.7213C18.2364 21.7894 18.384 21.7788 18.5237 21.7929C18.5715 21.4977 18.7633 21.2731 18.9312 21.0388C19.0647 20.763 19.1699 20.4704 19.3706 20.2326C19.7702 19.4635 20.2971 18.7651 20.6463 17.9695C20.8231 17.7096 21.06 17.4842 21.1634 17.181C21.235 16.9697 21.3614 16.7858 21.4914 16.6072C21.8945 15.8408 22.4143 15.1397 22.7688 14.3477C22.9987 14.0365 23.2435 13.7032 23.3001 13.3116C22.9545 13.232 22.6539 13.0375 22.333 12.897C22.1411 12.7272 21.9254 12.592 21.6965 12.4797C21.4808 12.1429 21.1572 11.8989 20.9353 11.5656C20.5119 11.1979 20.4677 10.6073 20.1963 10.1406C19.9983 9.31755 19.9912 8.43617 20.1866 7.60961C20.3466 7.2339 20.5084 6.8573 20.6171 6.46214C21.1289 5.68862 21.4472 4.80017 22.0377 4.07792C22.3763 3.61735 22.6044 3.07102 23.0163 2.66613C23.2762 2.11097 23.7474 1.67249 24.2602 1.3454C24.7296 1.21191 25.2715 1.21456 25.6914 1.49126C26.2793 1.88642 26.6019 2.53883 27.0024 3.10108C27.1978 3.24782 27.3268 3.4485 27.4117 3.67569C27.7079 4.09295 27.9616 4.54027 28.2825 4.94162C28.4283 4.57121 28.7413 4.29893 28.8748 3.9241C29.0401 3.52099 29.3831 3.22572 29.536 2.81819C29.8384 2.27451 30.1442 1.72995 30.5023 1.22252C30.7445 1.0519 30.9982 0.893662 31.236 0.713321ZM23.728 4.87974C23.5503 5.24749 23.2011 5.50828 23.0738 5.90432C22.9845 6.1766 22.7388 6.36048 22.6548 6.63364C22.5584 6.95278 22.2985 7.19765 22.2304 7.52563C22.1447 7.93493 21.8591 8.29119 21.853 8.71818C21.7999 9.30164 22.1244 9.81791 22.3224 10.3448C22.5337 10.5463 22.6654 10.8213 22.9111 10.9866C23.1737 11.2138 23.4433 11.4675 23.8031 11.5179C24.0666 11.5453 24.2849 11.7283 24.5537 11.723C24.8825 11.7301 25.2344 11.7716 25.5402 11.6231C25.7595 11.5258 25.9999 11.5011 26.2333 11.4551C26.5896 11.1342 26.99 10.8549 27.2906 10.4774C27.44 10.2113 27.5876 9.94079 27.7079 9.65967C27.8307 9.13544 27.8599 8.56966 27.7052 8.04897C27.5213 7.68652 27.3799 7.30639 27.249 6.92272C27.0192 6.60182 26.7681 6.28711 26.6612 5.89902C26.205 5.3191 25.9221 4.6163 25.4129 4.07527C25.2246 3.81979 25.092 3.5201 24.8304 3.32385C24.4865 3.8578 24.033 4.3175 23.728 4.87974ZM43.3321 4.73829C42.9653 4.83111 42.8707 5.25456 42.5515 5.41811C42.4994 5.70718 42.426 6.01659 42.5241 6.30302C42.8716 6.83962 43.3198 7.37004 43.3701 8.03129C43.4435 8.60856 43.4214 9.19909 43.2879 9.76575C43.2031 10.0265 43.0378 10.2537 42.9547 10.5154C42.8026 11.2323 42.2218 11.8008 42.2298 12.5619C42.769 12.5478 43.1721 12.9447 43.6707 13.072C43.8113 13.1569 43.8829 12.9642 43.9492 12.8784C44.0897 12.5619 44.2984 12.2728 44.3877 11.9334C44.4911 11.4339 44.8102 11.014 44.9243 10.5163C45.2284 10.015 45.5731 9.51999 46.0541 9.17257C46.2972 8.95687 46.6375 8.93742 46.916 8.78713C47.4296 8.58911 48.0776 8.58292 48.4153 8.08256C48.5532 7.69448 48.5373 7.26219 48.4533 6.86437C48.2066 6.41706 47.7231 6.07759 47.1953 6.13329C46.9177 6.10234 46.6861 6.26147 46.4457 6.36755C46.1539 6.43209 45.849 6.42236 45.5572 6.36932C45.3353 6.21019 45.1576 5.97328 45.0825 5.70807C44.972 5.30584 44.6767 4.98228 44.347 4.74006C44.0146 4.68083 43.6628 4.66138 43.3321 4.73829ZM13.3769 22.9033C13.2337 23.1145 13.0719 23.3117 12.911 23.5106C12.6573 24.0578 12.4169 24.6421 12.4699 25.2583C12.4354 25.7719 12.7139 26.2228 12.8456 26.701C12.8783 27.0202 12.9517 27.4436 12.6476 27.6576C12.3258 28.0014 11.8414 28.0571 11.417 28.1942C11.2181 28.3497 11.0148 28.4991 10.8097 28.6468C10.6912 28.7962 10.5834 28.9535 10.4685 29.1065C10.2386 29.3929 10.2917 29.7889 10.1626 30.1169C10.0707 30.3432 10.0707 30.6067 10.1617 30.833C10.2837 31.1671 10.2475 31.549 10.4428 31.8576C10.6081 32.1404 10.7673 32.4278 10.9308 32.7133C11.082 33.2119 10.6824 33.6194 10.3836 33.9633C10.1317 34.4044 9.8638 34.8491 9.75241 35.3495C9.72766 35.7764 9.71528 36.2087 9.76655 36.6339C10.0026 37.3774 10.3288 38.112 10.8627 38.6911C11.0183 38.8272 11.2049 38.928 11.3419 39.0871C11.6433 39.446 12.1278 39.5362 12.5097 39.7846C13.3822 40.0348 14.3051 39.8023 15.1918 39.9517C15.7744 40.0657 16.2969 40.3601 16.8396 40.5855C17.2109 40.8455 17.6255 41.0452 17.9022 41.4183C17.9199 41.2495 17.9084 41.0788 17.828 40.9268C17.7131 40.4954 17.5575 40.0702 17.5354 39.6193C17.5195 39.1092 17.1243 38.7468 16.8547 38.3534C16.6124 37.9971 16.2067 37.8247 15.8831 37.5595C15.6055 37.3049 15.2113 37.2934 14.8798 37.1485C14.5412 37.0919 14.2238 36.9407 13.8773 36.9319C13.4149 36.8771 12.9349 36.9628 12.484 36.8214C12.1826 36.5517 11.9298 36.1416 12.05 35.7234C12.1243 35.5643 12.2073 35.4096 12.2949 35.2584C12.7546 34.9649 13.308 34.9667 13.8295 35.0409C14.3158 35.1939 14.8391 35.1453 15.3315 35.2734C15.7399 35.4635 16.143 35.6668 16.5691 35.8162C16.509 35.3097 16.4684 34.7943 16.2933 34.3116C16.2217 33.8086 16.0431 33.3268 15.7558 32.9078C15.5507 32.6956 15.2846 32.5595 15.0442 32.3933C14.7392 32.1475 14.3246 32.2041 13.9613 32.1387C13.6121 32.0724 13.2001 32.2262 12.9066 31.9716C12.6821 31.7586 12.3806 31.5269 12.4319 31.1777C12.3647 30.6942 12.8005 30.337 13.1966 30.1593C13.491 30.1266 13.8021 30.1187 14.0841 30.2239C14.3617 30.307 14.6711 30.2495 14.9337 30.3883C15.0831 30.467 15.2537 30.4838 15.4172 30.5191C15.3872 29.9737 15.1635 29.4672 15.0212 28.9465C14.9381 28.4832 14.8771 28.0112 14.9903 27.5471C15.2546 27.4348 15.4208 27.113 15.7311 27.1316C16.0988 27.09 16.4277 27.334 16.6213 27.6293C16.8105 28.0501 16.9148 28.5053 16.9369 28.9668C16.9519 29.3363 17.1676 29.6572 17.1703 30.0285C17.264 30.017 17.3577 30.0064 17.4523 29.9976C17.5168 29.8871 17.5442 29.7377 17.6742 29.6829C18.0737 29.4663 18.4008 29.1188 18.8446 28.9862C19.0488 28.9332 19.2451 28.7299 19.4652 28.8404C19.6491 28.9305 19.8471 28.988 20.0301 29.0808C20.1282 29.2762 20.214 29.4795 20.2935 29.6837C20.336 29.9436 20.1486 30.154 20.0566 30.3804C19.8701 30.7101 19.4254 30.6579 19.1761 30.9143C18.7854 31.1954 18.4159 31.5172 18.1657 31.9345C17.8987 32.3128 17.889 32.8097 17.9632 33.2499C18.0463 33.9403 18.3283 34.5865 18.4247 35.2743C18.8552 35.0807 19.0356 34.5972 19.4281 34.3505C19.7702 34.1339 20.0327 33.8068 20.4058 33.6398C20.7948 33.3869 21.2165 33.1827 21.6514 33.0262C22.0147 32.9308 22.2808 33.211 22.5823 33.3507C22.6945 33.7785 22.8112 34.362 22.4055 34.6732C22.02 34.88 21.6266 35.0745 21.243 35.2858C21.0388 35.4635 20.8248 35.6306 20.6136 35.8003C20.2104 36.138 19.8975 36.5641 19.5907 36.9858C19.5059 37.1573 19.4714 37.3474 19.4086 37.5277C19.1567 38.0378 19.1602 38.6548 19.3317 39.1888C19.5907 39.6582 19.3512 40.3106 19.7958 40.6837C19.939 40.4742 20.061 40.2532 20.1441 40.0127C20.5393 39.3939 21.06 38.8493 21.6708 38.4391C21.8636 38.3481 22.0527 38.2482 22.226 38.1227C22.4461 37.9494 22.7441 37.9485 22.9854 37.8168C23.3965 37.4968 23.8464 37.2095 24.1585 36.7825C24.2867 36.5641 24.4387 36.3608 24.5952 36.1628C24.8144 35.8967 24.7649 35.528 24.8852 35.2222C25.0522 34.903 25.0142 34.53 25.0266 34.1826C25.0133 33.8846 25.0399 33.5682 24.9037 33.2941C24.7747 33.0174 24.8189 32.6824 24.6421 32.426C24.3114 31.9911 24.0188 31.5154 23.5662 31.199C23.1861 31.0434 22.8245 30.8418 22.4806 30.619C22.1898 30.4405 22.2128 30.063 22.2269 29.7651C22.2852 29.2391 22.287 28.7016 22.1659 28.1844C21.9228 27.4931 21.4286 26.9123 20.8284 26.5083C20.1786 26.2926 19.4802 26.335 18.8119 26.4252C18.4751 26.465 18.2249 26.1989 18.0092 25.9823C17.8881 25.7339 17.9332 25.436 17.8925 25.1672C17.7856 24.7155 17.6344 24.2753 17.4956 23.8324C17.401 23.5672 17.119 23.439 16.974 23.2074C16.8874 23.0898 16.8335 22.9351 16.6911 22.8732C16.4242 22.7353 16.1837 22.5479 15.9079 22.4312C15.4252 22.295 14.9107 22.2897 14.4174 22.3702C14.009 22.4047 13.7323 22.7371 13.3769 22.9033ZM50.6678 30.0197C50.1268 30.7631 49.3285 31.2776 48.7875 32.0202C49.7457 32.0158 50.7031 31.9919 51.6605 31.946C51.5969 31.4624 51.3617 31.0257 51.1124 30.6146C51.0002 30.3795 51.0011 30.032 50.6678 30.0197ZM48.4586 33.9447C48.6752 34.2161 49.0023 34.3708 49.187 34.6696C49.355 34.7943 49.5009 34.941 49.6246 35.1099C49.8863 35.2566 50.0746 35.4874 50.2434 35.7296C50.4459 35.871 50.6483 36.0257 50.7279 36.2724C50.834 36.1212 50.9551 35.9789 51.0267 35.8083C51.1911 35.4193 51.428 35.0657 51.5748 34.6696C51.6632 34.3708 51.6623 34.057 51.6809 33.7485C51.4006 33.7556 51.1204 33.7556 50.841 33.7732C50.0649 33.9695 49.2516 33.8555 48.4586 33.9447ZM47.0716 36.2308C47.0265 36.9761 47.0362 37.7231 47.0044 38.4692C47.327 38.4312 47.6515 38.3958 47.9724 38.3366C48.3057 38.2066 48.5947 37.975 48.9528 37.9025C49.1269 37.8124 49.4187 37.6966 49.3559 37.4552C48.8246 36.9699 48.3269 36.4527 47.8318 35.932C47.6037 35.7588 47.3712 35.5784 47.2749 35.2955C47.114 35.5837 47.1856 35.9267 47.0716 36.2308ZM44.7581 35.9877C44.3682 36.3908 43.9677 36.7834 43.5708 37.1803C43.4506 37.3094 43.2199 37.4075 43.2853 37.6223C43.5434 37.9529 44.0058 37.9556 44.3382 38.1837C44.5901 38.3666 44.9084 38.3834 45.2089 38.3905C45.1921 37.4446 45.2593 36.5005 45.2682 35.5563C45.0834 35.681 44.903 35.8171 44.7581 35.9877ZM30.6517 42.9397C30.352 43.0414 30.0284 43.0449 29.727 43.1413C29.4856 43.258 29.2726 43.4365 29.0047 43.4949C28.6794 43.5603 28.4425 43.8025 28.1817 43.9873C26.7726 44.8094 25.7135 46.1125 24.8463 47.4668C24.6871 48.0034 24.2416 48.4074 24.1426 48.9652C24.033 49.3975 23.7978 49.7953 23.758 50.2462C23.629 51.3105 23.6281 52.3917 23.7651 53.4561C23.8075 53.8583 24.0215 54.2128 24.1267 54.5982C24.2115 55.111 24.612 55.4805 24.8215 55.942C25.0982 56.3318 25.3431 56.7774 25.7586 57.039C26.0052 57.4139 26.4101 57.6181 26.7425 57.9036C26.9087 58.0194 27.1235 58.0389 27.2879 58.1618C27.5921 58.3527 27.8847 58.6055 28.2621 58.6215C28.6608 58.648 29.0215 58.8486 29.4229 58.8531C30.0558 58.8805 30.6985 58.9088 31.3253 58.7965C31.6444 58.663 31.9945 58.6524 32.3304 58.5826C32.738 58.4535 33.0624 58.1467 33.4673 58.0088C33.7944 57.8948 34.0207 57.6119 34.3345 57.4704C34.8446 56.9763 35.3989 56.5166 35.7967 55.9234C36.0849 55.6308 36.1804 55.2126 36.4597 54.9121C36.5941 54.4259 36.8416 53.983 37.0025 53.5056C37.2262 53.0326 37.1634 52.489 37.2695 51.9877C37.4092 51.6076 37.3402 51.1956 37.3579 50.8014C37.3402 50.4239 37.4021 50.0314 37.2704 49.6689C37.1846 49.234 37.1811 48.7858 37.098 48.3499C36.8832 47.7621 36.6595 47.1742 36.48 46.5731C36.3395 46.2822 36.1512 46.0152 36.0363 45.7111C35.6977 45.1515 35.3061 44.6185 34.8243 44.1729C34.537 43.9245 34.2673 43.639 33.912 43.4887C33.6087 43.3623 33.37 43.09 33.0262 43.0697C32.6451 43.0281 32.296 42.8301 31.9061 42.8655C31.4888 42.8814 31.0566 42.8151 30.6517 42.9397Z" fill="black"/>
<path d="M29.4626 47.7565C30.1813 47.6823 30.9151 47.6823 31.625 47.8211C31.9812 47.9377 32.3065 48.1375 32.6478 48.2931C32.9068 48.5044 33.1579 48.7281 33.4399 48.9111C33.5627 49.1073 33.7316 49.2664 33.8819 49.4415C34.0463 49.7429 34.2231 50.0382 34.4149 50.3246C34.6519 50.6482 34.5767 51.0769 34.7058 51.4411C34.8472 51.7709 34.8013 52.1378 34.8128 52.4869C34.8021 52.7504 34.8278 53.028 34.7244 53.2773C34.5997 53.6044 34.636 53.9695 34.5104 54.2957C34.3204 54.6599 34.0932 55.0011 33.896 55.3609C33.5937 55.7596 33.2436 56.1212 32.8679 56.4509C32.5673 56.5817 32.3587 56.8655 32.0378 56.9539C31.5852 57.1016 31.16 57.3641 30.6711 57.3721C30.1195 57.3986 29.5608 57.4154 29.0162 57.3084C28.6467 57.1847 28.301 56.9999 27.9288 56.885C27.5469 56.6012 27.1217 56.3616 26.8203 55.985C26.6629 55.7817 26.4994 55.5837 26.3394 55.3848C26.1776 54.9967 25.8894 54.659 25.8372 54.2311C25.8036 53.9341 25.618 53.6795 25.6198 53.3763C25.5897 52.8176 25.5597 52.2465 25.6684 51.6949C25.8567 51.3457 25.8036 50.9204 26.0149 50.5827C26.1192 50.3891 26.2404 50.2026 26.3049 49.9913C26.3562 49.7686 26.5772 49.6625 26.6841 49.4733C26.9166 49.0658 27.3374 48.8297 27.6857 48.5345C27.8148 48.4301 27.9244 48.2914 28.088 48.2383C28.5468 48.0748 28.9552 47.753 29.4626 47.7565ZM29.9232 49.5352C29.6633 49.6483 29.3804 49.6908 29.1134 49.7818C28.6467 50.0992 28.2524 50.5111 27.8873 50.9381C27.7034 51.3678 27.5302 51.8054 27.4311 52.2633C27.4064 52.5665 27.4082 52.8724 27.4347 53.1747C27.5355 53.5681 27.6866 53.9482 27.8634 54.3151C28.1879 54.7571 28.6016 55.1311 29.0905 55.3812C29.6766 55.5457 30.3025 55.5501 30.8956 55.4254C31.2059 55.3397 31.4428 55.1037 31.7319 54.9711C31.914 54.8897 32.006 54.7032 32.1297 54.5591C32.2429 54.415 32.4162 54.3142 32.4701 54.1303C32.5824 53.8298 32.76 53.5566 32.867 53.256C32.9678 52.6646 32.9775 52.0493 32.8511 51.4624C32.6186 51.0734 32.5054 50.596 32.1412 50.2999C31.8468 50.0134 31.5321 49.7049 31.1034 49.6536C30.7321 49.5016 30.3175 49.4379 29.9232 49.5352Z" fill="black"/>
<path d="M22.1895 17.3711H34.1945" stroke="black" stroke-width="1.88013"/>
<path d="M6.45898 43.2461H27.5713" stroke="black" stroke-width="1.88013"/>
<path d="M35.4375 43.2461H57.7917" stroke="black" stroke-width="1.88013"/>
<path d="M23.8457 30.418L48.2697 30.418" stroke="black" stroke-width="1.88013"/>
</svg>
