<svg width="24" height="25" viewBox="0 0 24 25" fill="none" xmlns="http://www.w3.org/2000/svg">
<path d="M18 13.2148C18 17.0788 14.864 20.2148 11 20.2148C7.136 20.2148 4 17.0788 4 13.2148C4 9.35084 7.136 6.21484 11 6.21484C14.864 6.21484 18 9.35084 18 13.2148Z" fill="white"/>
<path d="M20 12.2148C20 16.6308 16.416 20.2148 12 20.2148C7.584 20.2148 4 16.6308 4 12.2148C4 7.79884 7.584 4.21484 12 4.21484C16.416 4.21484 20 7.79884 20 12.2148Z" stroke="black" stroke-width="1.5" stroke-linecap="round" stroke-linejoin="round"/>
<path d="M15 14.2148L12.7206 12.7676C12.3235 12.5173 12 11.915 12 11.4221V8.21484" stroke="black" stroke-width="1.5" stroke-linecap="round" stroke-linejoin="round"/>
</svg>
