<svg width="24" height="25" viewBox="0 0 24 25" fill="none" xmlns="http://www.w3.org/2000/svg">
<g clip-path="url(#clip0_10170_1019)">
<rect y="0.105469" width="24" height="24" rx="4" fill="#48FDBC"/>
<path d="M15.7393 8.35095C15.8426 8.2396 15.9717 8.15537 16.1152 8.10567C16.2587 8.05597 16.4123 8.04233 16.5623 8.06597C16.7575 8.10458 16.9371 8.19933 17.0793 8.33859C17.2214 8.47786 17.3197 8.65559 17.3623 8.84996C17.4111 9.04363 17.4092 9.24662 17.3566 9.43932C17.3041 9.63201 17.2027 9.80791 17.0623 9.94997C15.1056 11.928 13.1489 13.9063 11.1923 15.885C11.1044 15.9743 10.9992 16.0447 10.8831 16.0919C10.7669 16.139 10.6424 16.1618 10.5171 16.1589C10.3918 16.156 10.2684 16.1274 10.1546 16.075C10.0408 16.0225 9.93891 15.9473 9.85529 15.854C8.87396 14.7746 7.89395 13.6936 6.91529 12.611C6.81262 12.5003 6.73283 12.3705 6.68049 12.2289C6.62814 12.0873 6.60428 11.9368 6.61028 11.786C6.61355 11.5873 6.67122 11.3933 6.777 11.2251C6.88278 11.0569 7.03264 10.9209 7.21029 10.832C7.39013 10.7487 7.59213 10.726 7.78595 10.7673C7.97978 10.8086 8.15499 10.9116 8.28528 11.061C9.04862 11.9016 9.81162 12.743 10.5743 13.585L15.7393 8.35095Z" fill="black"/>
</g>
<rect x="1" y="1.10547" width="22" height="22" rx="3" stroke="black" stroke-width="2"/>
<defs>
<clipPath id="clip0_10170_1019">
<rect y="0.105469" width="24" height="24" rx="4" fill="white"/>
</clipPath>
</defs>
</svg>
