<svg width="24" height="25" viewBox="0 0 24 25" fill="none" xmlns="http://www.w3.org/2000/svg">
<path d="M11.9996 16.641C14.4306 16.641 16.3996 14.672 16.3996 12.241V6.19102C16.3996 3.76002 14.4306 1.79102 11.9996 1.79102C9.56861 1.79102 7.59961 3.76002 7.59961 6.19102V12.241C7.59961 14.672 9.56861 16.641 11.9996 16.641Z" stroke="black" stroke-width="1.5" stroke-linecap="round" stroke-linejoin="round"/>
<path d="M3.58398 10.207V12.077C3.58398 16.719 7.35699 20.492 11.999 20.492C16.641 20.492 20.414 16.719 20.414 12.077V10.207" stroke="black" stroke-width="1.5" stroke-linecap="round" stroke-linejoin="round"/>
<path d="M10.4688 6.66483C11.4588 6.30183 12.5368 6.30183 13.5268 6.66483" stroke="black" stroke-width="1.5" stroke-linecap="round" stroke-linejoin="round"/>
<path d="M11.1191 8.99636C11.7021 8.84236 12.3071 8.84236 12.8901 8.99636" stroke="black" stroke-width="1.5" stroke-linecap="round" stroke-linejoin="round"/>
<path d="M12 20.4922V23.7922" stroke="black" stroke-width="1.5" stroke-linecap="round" stroke-linejoin="round"/>
</svg>
