<svg width="33" height="33" viewBox="0 0 33 33" fill="none" xmlns="http://www.w3.org/2000/svg">
<path d="M3.46875 29.9904L5.35214 23.1426C4.18995 21.1382 3.57928 18.866 3.58039 16.536C3.58374 9.25151 9.53981 3.32373 16.8579 3.32373C20.4092 3.32484 23.7428 4.70151 26.2503 7.19929C28.7566 9.69706 30.1365 13.0171 30.1354 16.5482C30.1321 23.8337 24.176 29.7615 16.8579 29.7615C14.6362 29.7604 12.447 29.206 10.5077 28.1526L3.46875 29.9904ZM10.8337 25.7604C12.7048 26.866 14.4911 27.5282 16.8534 27.5293C22.9357 27.5293 27.8903 22.6026 27.8937 16.546C27.8959 10.4771 22.9647 5.55706 16.8624 5.55484C10.7757 5.55484 5.82438 10.4815 5.82215 16.5371C5.82103 19.0093 6.54894 20.8604 7.77141 22.7971L6.65611 26.8504L10.8337 25.7604ZM23.5463 19.6893C23.4637 19.5515 23.2427 19.4693 22.91 19.3037C22.5784 19.1382 20.9473 18.3393 20.6425 18.2293C20.3389 18.1193 20.1178 18.0637 19.8957 18.3948C19.6746 18.7248 19.0383 19.4693 18.8451 19.6893C18.652 19.9093 18.4577 19.9371 18.1262 19.7715C17.7946 19.606 16.725 19.2582 15.4579 18.1326C14.4721 17.2571 13.8056 16.176 13.6125 15.8448C13.4193 15.5148 13.5924 15.336 13.7576 15.1715C13.9072 15.0237 14.0892 14.786 14.2555 14.5926C14.4241 14.4015 14.4788 14.2637 14.5905 14.0426C14.701 13.8226 14.6463 13.6293 14.5626 13.4637C14.4788 13.2993 13.8157 11.6737 13.5399 11.0126C13.2697 10.3693 12.9962 10.456 12.793 10.446L12.1567 10.4348C11.9356 10.4348 11.5761 10.5171 11.2725 10.8482C10.9688 11.1793 10.1114 11.9771 10.1114 13.6026C10.1114 15.2282 11.3004 16.7982 11.4656 17.0182C11.632 17.2382 13.8045 20.5737 17.1325 22.0037C17.9241 22.3437 18.5426 22.5471 19.0237 22.6993C19.8186 22.9504 20.5421 22.9148 21.1137 22.8304C21.7511 22.736 23.0763 22.0315 23.3532 21.2604C23.6301 20.4882 23.6301 19.8271 23.5463 19.6893Z" fill="white"/>
</svg>
