<svg width="51" height="49" viewBox="0 0 51 49" fill="none" xmlns="http://www.w3.org/2000/svg">
<path d="M34.2868 4.27288C34.5262 4.21719 34.781 4.23127 35.0217 4.27416C35.2605 4.44957 35.4743 4.68387 35.5544 4.97515C35.6088 5.1672 35.7375 5.33877 35.8981 5.454C36.1094 5.49241 36.3303 5.49945 36.5415 5.45272C36.7156 5.3759 36.8834 5.26067 37.0844 5.28308C37.4666 5.24274 37.8167 5.48857 37.9953 5.8125C38.0562 6.10058 38.0677 6.41362 37.9678 6.69466C37.7233 7.057 37.254 7.06148 36.8821 7.20488C36.6804 7.31371 36.434 7.32779 36.2579 7.48399C35.9097 7.73558 35.9481 8.14892 35.7279 8.5119C35.6453 8.87231 35.4142 9.1764 35.3393 9.53809C35.2746 9.78392 35.1235 9.99326 35.0217 10.2224C34.9737 10.2845 34.9219 10.4241 34.8201 10.3626C34.459 10.2705 33.4999 9.86501 33.1094 9.87525C33.1037 9.32406 33.5243 8.91243 33.6344 8.39325C33.6946 8.20376 33.8143 8.03923 33.8757 7.85038C33.9724 7.44003 34.3675 7.07556 34.3143 6.65753C34.2779 6.17868 33.9533 5.79457 33.7017 5.40599C33.6306 5.19857 33.6838 4.97451 33.7215 4.76517C33.9527 4.64674 34.0211 4.3401 34.2868 4.27288Z" fill="#48FDBC"/>
<path d="M10.3776 19.6849C10.645 19.5598 10.8532 19.3097 11.1606 19.2838C11.5318 19.2232 11.919 19.2272 12.2822 19.3297C12.4897 19.4175 12.6707 19.5585 12.8716 19.6623C12.9787 19.7088 13.0193 19.8253 13.0845 19.9137C13.1936 20.088 13.4058 20.1845 13.477 20.3841C13.5814 20.7174 13.6952 21.0487 13.7757 21.3886C13.8063 21.5908 13.7723 21.815 13.8635 22.002C14.0258 22.1649 14.2141 22.3652 14.4675 22.3352C14.9705 22.2674 15.496 22.2355 15.985 22.3978C16.4367 22.7018 16.8085 23.1389 16.9915 23.6591C17.0826 24.0483 17.0813 24.4527 17.0374 24.8486C17.0267 25.0727 17.0094 25.3568 17.2283 25.4912C17.4871 25.6588 17.7592 25.8105 18.0452 25.9276C18.3858 26.1657 18.606 26.5236 18.8548 26.8509C18.9879 27.0439 18.9546 27.296 19.0517 27.5042C19.1542 27.7104 19.1342 27.9486 19.1442 28.1728C19.1349 28.4342 19.1635 28.715 19.0378 28.9551C18.9473 29.1853 18.9846 29.4627 18.8196 29.6629C18.7018 29.812 18.5874 29.965 18.4909 30.1293C18.2561 30.4506 17.9175 30.6668 17.6082 30.9076C17.4265 31.0067 17.2024 31.0074 17.0367 31.1378C16.9063 31.2323 16.764 31.3074 16.6189 31.376C16.1593 31.6846 16.1207 31.803 15.8233 32.2687C15.7608 32.4497 15.3157 31.9074 15.2079 32.065C14.8733 31.7843 15.0536 31.2933 14.8587 30.9401C14.7296 30.5383 14.727 30.0739 14.9166 29.6901C14.9638 29.5544 14.9897 29.4113 15.0536 29.2823C15.2845 28.965 15.5199 28.6443 15.8233 28.3902C15.9823 28.2625 16.1433 28.1367 16.297 28.003C16.5857 27.844 16.8817 27.6977 17.1718 27.542C17.4771 27.3078 17.3893 26.8688 17.3048 26.5468C17.078 26.4417 16.8777 26.2308 16.6043 26.3026C16.277 26.4204 15.9597 26.5741 15.667 26.7643C15.3862 26.8901 15.4654 27.379 15.2079 27.542C14.9126 27.7276 14.5001 27.8487 14.1762 27.9944C14.1036 27.4768 13.8914 26.9905 13.8289 26.471C13.773 26.1397 13.7803 25.7658 13.9812 25.4811C14.1695 25.1671 14.1981 24.7027 14.4921 24.4912C14.6797 24.2983 15.0676 24.2716 15.2079 24.0235C15.2771 23.8532 15.6144 23.9829 15.5825 23.7873C15.5226 23.6337 15.4581 23.4807 15.3842 23.3336C15.2465 23.2638 15.0975 23.2206 14.9591 23.1527C14.7935 23.0695 14.6458 23.2226 14.4921 23.2625C14.1582 23.3623 13.912 23.6237 13.6114 23.7867C13.5136 23.8279 13.4929 23.9404 13.4444 24.0235C13.3732 24.0302 13.3027 24.0381 13.2322 24.0468C13.2302 23.7674 13.0678 23.5259 13.0565 23.2478C13.0399 22.9006 12.9614 22.558 12.819 22.2413C12.6734 22.0191 12.4259 21.8355 12.1491 21.8668C11.9156 21.8528 12.3434 22.3092 12.1445 22.3937C12.0593 22.7429 12.2197 22.9139 12.2822 23.2625C12.3893 23.6543 12.5496 23.9071 12.5722 24.3175C12.4492 24.2909 11.6615 24.3768 11.5491 24.3175C11.3515 24.2131 11.1187 24.2563 10.9098 24.1938C10.6976 24.1146 10.4634 24.1206 10.2419 24.1453C9.94385 24.279 10.1281 24.0421 10.1787 24.406C10.1401 24.6688 10.3669 24.8431 10.5359 25.0034C10.7568 25.195 11.0668 25.0793 11.3296 25.1292C11.603 25.1784 11.915 25.1358 12.1445 25.3207C12.3254 25.4458 12.5257 25.5483 12.68 25.7079C12.8962 26.0232 13.3905 27.6724 13.4444 28.0509C13.5761 28.4141 12.7346 28.021 12.7798 28.4022C12.4591 28.2897 12.1558 28.1367 11.8485 27.9937C11.4779 27.8972 11.0841 27.9338 10.7182 27.8187C10.3257 27.7629 10.3729 27.8301 10.027 28.0509C10.4415 28.1194 10.4275 28.3902 9.82876 28.3902C9.73829 28.7049 9.75092 28.46 9.97777 28.6629C10.317 28.7694 10.6783 28.7049 11.0262 28.7461C11.287 28.7528 11.5258 28.8665 11.7806 28.9091C12.0301 29.0182 12.3634 29.2131 12.5722 29.4047C12.8157 29.6043 13.1211 29.734 13.3033 30.0021C13.5062 30.2981 13.9693 30.7672 13.9812 31.151C13.9979 31.4903 14.2315 32.3527 14.318 32.6773C14.767 32.4944 14.9222 32.9797 14.9089 33.1067C14.7006 32.826 13.2628 32.1868 12.9834 31.9912C12.5749 31.8215 12.1817 31.6 11.7433 31.5142C11.0761 31.4018 10.3816 31.5767 9.72498 31.3885C9.43759 31.2015 9.07304 31.1337 8.84619 30.8636C8.74308 30.7438 8.60271 30.668 8.48562 30.5656C8.08382 30.1298 7.83834 29.577 7.66072 29.0175C7.62213 28.6975 7.11735 28.2944 7.45636 27.9551C7.54018 27.5786 7.47112 27.0963 7.66072 26.7643C7.88557 26.5055 8.65061 26.4424 8.53685 26.0672C8.41378 25.8523 8.29403 25.6361 8.16963 25.4232C8.02261 25.191 8.04989 24.9036 7.95808 24.6522C7.88956 24.4819 7.52368 23.8585 7.59286 23.6882C7.68999 23.4414 7.65007 23.1434 7.82304 22.9278C7.90952 22.8128 7.99068 22.6943 8.07982 22.5819C8.23416 22.4708 8.38717 22.3584 8.53685 22.2413C8.85617 22.1382 8.81886 21.9805 9.06101 21.7218C9.28985 21.5608 9.23464 21.2421 9.21002 21.002C9.1109 20.6421 9.6691 20.8436 9.69504 20.4571C9.65513 19.9934 9.83608 20.5537 10.027 20.1419C10.1481 19.9922 10.2698 19.8439 10.3776 19.6849Z" fill="#48FDBC"/>
<path d="M40.2931 23.5234C40.559 23.5333 40.5583 23.8105 40.6479 23.9981C40.8468 24.3261 41.0344 24.6745 41.0852 25.0603C40.3213 25.0969 39.5575 25.116 38.793 25.1195C39.2246 24.5271 39.8615 24.1166 40.2931 23.5234Z" fill="#48FDBC"/>
<path d="M38.5312 26.6546C39.1639 26.5834 39.8128 26.6744 40.432 26.5178C40.6549 26.5037 40.8785 26.5037 41.102 26.498C41.0872 26.7442 41.0879 26.9946 41.0174 27.233C40.9003 27.5489 40.7113 27.831 40.5801 28.1414C40.523 28.2775 40.4264 28.3911 40.3417 28.5117C40.2783 28.3149 40.1167 28.1915 39.9552 28.0786C39.8205 27.8854 39.6703 27.7013 39.4615 27.5842C39.3628 27.4495 39.2464 27.3324 39.1124 27.233C38.965 26.9946 38.704 26.8711 38.5312 26.6546Z" fill="#48FDBC"/>
<path d="M37.4247 28.4786C37.5157 28.236 37.4585 27.9623 37.5869 27.7324C37.6638 27.9581 37.8493 28.102 38.0312 28.2402C38.4262 28.6556 38.8233 29.0682 39.2472 29.4555C39.2972 29.648 39.0645 29.7404 38.9256 29.8123C38.6399 29.8702 38.4093 30.0549 38.1434 30.1586C37.8874 30.2059 37.6285 30.2341 37.3711 30.2644C37.3965 29.6692 37.3887 29.0732 37.4247 28.4786Z" fill="#48FDBC"/>
<path d="M35.5787 28.2856C35.6944 28.1495 35.8382 28.0409 35.9856 27.9414C35.9786 28.6947 35.925 29.4479 35.9384 30.2026C35.6986 30.1969 35.4447 30.1835 35.2437 30.0375C34.9785 29.8556 34.6096 29.8535 34.4037 29.5897C34.3515 29.4183 34.5356 29.34 34.6315 29.237C34.9482 28.9204 35.2677 28.6072 35.5787 28.2856Z" fill="#48FDBC"/>
<path d="M24.3267 33.8321C24.6497 33.7327 24.9946 33.7856 25.3275 33.7729C25.6385 33.7447 25.9171 33.9027 26.2211 33.9358C26.4954 33.952 26.6859 34.1693 26.9278 34.2701C27.2113 34.39 27.4264 34.6178 27.6556 34.816C28.04 35.1715 28.3525 35.5968 28.6226 36.0432C28.7143 36.2858 28.8645 36.4988 28.9767 36.7309C29.1198 37.2105 29.2983 37.6795 29.4697 38.1485C29.536 38.4962 29.5388 38.8538 29.6072 39.2008C29.7123 39.49 29.6629 39.8031 29.677 40.1043C29.6629 40.4189 29.7179 40.7475 29.6065 41.0508C29.5219 41.4507 29.5719 41.8845 29.3935 42.2618C29.2651 42.6426 29.0676 42.996 28.9604 43.3839C28.7376 43.6237 28.6614 43.9573 28.4315 44.1908C28.1141 44.664 27.6719 45.0308 27.2649 45.425C27.0145 45.5379 26.834 45.7636 26.573 45.8545C26.25 45.9646 25.9912 46.2093 25.666 46.3123C25.398 46.368 25.1187 46.3765 24.8641 46.483C24.364 46.5725 23.8513 46.55 23.3463 46.5281C23.0261 46.5246 22.7384 46.3645 22.4203 46.3433C22.1191 46.3306 21.8857 46.1289 21.643 45.9766C21.5118 45.8785 21.3405 45.863 21.2079 45.7706C20.9427 45.5428 20.6197 45.3799 20.4229 45.0808C20.0914 44.8721 19.896 44.5166 19.6753 44.2056C19.5081 43.8374 19.1886 43.5426 19.1209 43.1335C19.037 42.826 18.8663 42.5432 18.8324 42.2223C18.7231 41.3731 18.7238 40.5105 18.8268 39.6614C18.8585 39.3017 19.0461 38.9843 19.1336 38.6394C19.2126 38.1944 19.5681 37.872 19.695 37.4439C20.3869 36.3634 21.2318 35.3238 22.3561 34.6679C22.5641 34.5205 22.7532 34.3272 23.0127 34.2751C23.2264 34.2285 23.3964 34.086 23.5889 33.9929C23.8294 33.9161 24.0876 33.9132 24.3267 33.8321ZM23.3773 37.671C22.9725 37.6682 22.6467 37.9249 22.2806 38.0554C22.1501 38.0977 22.0627 38.2085 21.9597 38.2917C21.6818 38.5273 21.3461 38.7156 21.1606 39.0407C21.0753 39.1916 20.8989 39.2763 20.858 39.454C20.8066 39.6226 20.7099 39.7714 20.6267 39.9259C20.4581 40.1953 20.5005 40.5345 20.3502 40.8131C20.2635 41.2532 20.2875 41.7088 20.3114 42.1546C20.31 42.3965 20.4581 42.5996 20.4849 42.8366C20.5266 43.178 20.7565 43.4474 20.8855 43.757C21.0132 43.9157 21.1437 44.0737 21.2692 44.2359C21.5097 44.5364 21.849 44.7275 22.1537 44.9539C22.4506 45.0456 22.7264 45.193 23.0212 45.2917C23.4556 45.3771 23.9014 45.3637 24.3415 45.3425C24.7315 45.3362 25.0708 45.1267 25.4319 45.0089C25.6879 44.9384 25.8543 44.712 26.0941 44.6076C26.3939 44.3445 26.6732 44.0561 26.9144 43.738C27.0717 43.4509 27.2529 43.1787 27.4046 42.8881C27.5047 42.6278 27.4758 42.3365 27.5752 42.0756C27.6578 41.8767 27.6373 41.6552 27.6458 41.4451C27.6366 41.1665 27.6733 40.8738 27.5604 40.6107C27.4575 40.3201 27.5174 39.978 27.3284 39.7199C27.1753 39.4914 27.0343 39.2558 26.9031 39.0153C26.7832 38.8757 26.6485 38.7487 26.5505 38.5922C26.3255 38.4462 26.1252 38.2677 25.9185 38.0992C25.6463 37.975 25.3867 37.8156 25.1025 37.7225C24.5361 37.6118 23.9507 37.6118 23.3773 37.671Z" fill="white"/>
<path d="M23.2841 40.1867C23.5264 40.1269 23.7811 40.166 24.0093 40.2594C24.2727 40.291 24.4661 40.4805 24.6469 40.6565C24.8707 40.8385 24.9402 41.1318 25.0831 41.3708C25.1608 41.7314 25.1548 42.1095 25.0929 42.4728C25.0271 42.6575 24.918 42.8254 24.849 43.01C24.8159 43.123 24.7094 43.1849 24.6399 43.2735C24.5638 43.362 24.5073 43.4766 24.3954 43.5266C24.2178 43.6081 24.0723 43.7531 23.8816 43.8058C23.5171 43.8824 23.1326 43.8796 22.7725 43.7786C22.4721 43.6249 22.2179 43.3951 22.0186 43.1236C21.9099 42.8981 21.817 42.6646 21.7551 42.4229C21.7388 42.2371 21.7377 42.0492 21.7529 41.8629C21.8138 41.5815 21.9202 41.3126 22.0332 41.0487C22.2575 40.7863 22.4998 40.5332 22.7866 40.3382C22.9506 40.2823 23.1244 40.2562 23.2841 40.1867Z" fill="#48FDBC"/>
<path d="M24.7915 0.142687C25.2055 0.0178505 25.659 0.0488834 26.0822 0.110244C26.4207 0.303494 26.796 0.503797 26.9659 0.876191C27.0894 1.16183 27.3482 1.36566 27.4526 1.66048C27.5485 1.95952 27.8045 2.16899 27.8976 2.47015C28.1685 2.8891 28.4393 3.30874 28.6615 3.75519C28.7292 3.99499 28.9598 4.14099 29.0261 4.38008C29.1157 4.7024 29.3978 4.91681 29.5283 5.21797C29.6235 5.42392 29.7681 5.60306 29.8569 5.81324C29.9775 6.11722 30.2519 6.33163 30.3542 6.64689C30.4219 6.88669 30.6518 7.03339 30.7181 7.27178C30.8154 7.60962 31.1166 7.83461 31.2442 8.15763C31.4833 8.53426 31.6329 8.96096 31.9397 9.29385C32.1019 8.92922 32.3523 8.59985 32.4305 8.20277C32.5011 7.90161 32.7127 7.65546 32.7733 7.35077C32.8177 7.11662 32.9729 6.9276 33.054 6.70684C33.0724 6.56367 33.0702 6.41838 33.0575 6.27591C32.8664 5.79631 32.4178 5.42885 32.3812 4.89142C32.3452 4.62694 32.1837 4.37021 32.2874 4.09938C32.4242 3.80245 32.3516 3.44204 32.549 3.17121C32.688 2.96527 32.8058 2.73534 33.0082 2.58159C33.2007 2.41937 33.3651 2.20637 33.6126 2.12315C33.9046 2.01735 34.1733 1.82975 34.4907 1.80365C34.8864 1.76909 35.3102 1.76556 35.6678 1.96657C35.8653 2.08788 36.1129 2.10975 36.2885 2.26773C36.5494 2.48567 36.7575 2.76567 37.0241 2.97373C37.4621 2.96104 37.9121 2.9166 38.3423 3.02874C38.5581 3.14088 38.7605 3.28053 38.9926 3.36164C39.3015 3.61766 39.5681 3.92517 39.8192 4.23832C39.901 4.46542 39.9285 4.71016 40.0294 4.93233C40.1225 5.41686 40.1126 5.93737 39.9207 6.39792C39.9024 6.73012 39.6499 6.95087 39.439 7.17516C39.2796 7.50312 38.9094 7.59198 38.6244 7.77324C38.343 7.97566 37.9678 7.86211 37.6617 7.994C37.4438 8.11743 37.2188 8.26906 37.1087 8.50252C37.0149 8.67108 37.0022 8.86927 36.9367 9.04841C36.828 9.26494 36.7131 9.47723 36.6031 9.69305C36.4853 9.9131 36.5008 10.1804 36.3647 10.3927C36.2342 10.6113 36.1122 10.8469 36.0967 11.1065C36.1552 11.3977 36.4239 11.5712 36.5332 11.8371C36.6856 12.1461 36.9381 12.412 37.0044 12.7583C37.0735 13.0439 37.1962 13.3126 37.2865 13.5912C37.3718 13.9763 37.381 14.372 37.4198 14.7627C37.5326 15.1414 37.5256 15.5533 37.4177 15.9321C37.3789 16.583 37.3267 17.2432 37.046 17.842C36.9155 18.0776 37.113 18.2722 37.2413 18.45C37.522 18.9423 37.7604 19.4606 38.1194 19.9036C38.1998 20.1349 38.3077 20.3521 38.4636 20.5433C38.6026 20.8395 38.7739 21.1167 38.9615 21.3847C39.109 21.6887 39.2789 21.9828 39.4828 22.2536C40.2015 21.5829 40.8553 20.843 41.5782 20.1751C41.806 19.9896 42.0881 19.8408 42.3914 19.8718C42.9062 19.8676 43.2878 20.2731 43.5657 20.6625C43.8556 20.9467 44.0171 21.3254 44.2682 21.64C44.3838 22.1217 44.8028 22.4666 44.862 22.9652C44.941 23.2742 45.1244 23.552 45.1568 23.8737C45.1956 24.1459 45.2097 24.4252 45.3198 24.6812C45.41 25.3019 45.3861 25.9345 45.3783 26.5601C45.3578 26.8542 45.3825 27.1638 45.2528 27.4375C45.1801 27.7224 45.1928 28.0229 45.1096 28.3064C45.0087 28.5956 44.8839 28.877 44.8148 29.176C44.6878 29.5985 44.3373 29.9293 44.2738 30.3743C44.2971 30.746 44.5721 31.0154 44.764 31.311C44.9974 31.8562 45.3825 32.3195 45.6068 32.869C45.7634 33.1144 45.9863 33.3196 46.0695 33.6074C46.3643 34.1272 46.6838 34.6357 46.9814 35.1562C47.169 35.3868 47.224 35.6922 47.4109 35.9236C47.5125 36.059 47.6359 36.1824 47.6973 36.3439C47.796 36.6451 48.0217 36.8778 48.1466 37.167C48.3532 37.4435 48.4371 37.7919 48.6692 38.0514C48.8829 38.3039 48.94 38.6481 49.1629 38.8957C49.4873 39.5072 49.8999 40.0707 50.1877 40.7026C50.3344 40.9354 50.5446 41.1329 50.6285 41.4023C50.7167 41.7027 50.9423 41.9644 50.9254 42.291C50.9769 42.705 50.7117 43.0506 50.5749 43.4201C50.2088 43.8087 49.7215 44.1621 49.1629 44.1423C42.8477 44.148 36.5318 44.1332 30.2166 44.1501C30.0156 44.4633 29.8541 44.806 29.6044 45.0853C29.3703 45.5586 28.8914 45.8372 28.5923 46.2639C28.263 46.5206 27.928 46.7696 27.5831 47.003C27.1705 47.142 26.8679 47.5094 26.4257 47.568C26.0998 47.6272 25.8318 47.8635 25.4968 47.8867C25.1689 47.9396 24.831 47.9347 24.5136 48.0405C24.1384 48.0602 23.7604 48.0645 23.3852 48.0384C22.9105 47.8776 22.3703 47.9791 21.9224 47.7316C21.7595 47.6625 21.6008 47.5778 21.4245 47.5489C21.0281 47.4833 20.7608 47.1511 20.4039 46.996C19.5674 46.4931 18.9087 45.7483 18.3614 44.9499C18.2535 44.6622 17.9833 44.459 17.9438 44.1438C12.669 44.1423 7.39478 44.1423 2.1199 44.1438C1.82932 44.1374 1.51476 44.1755 1.25028 44.0281C1.05914 43.9244 0.871537 43.813 0.66277 43.7488C0.606347 43.5795 0.472341 43.4667 0.341862 43.3552C0.23889 43.1359 0.211383 42.8883 0.104884 42.6697C0.0569241 42.4052 0.0435236 42.1111 0.16695 41.8643C0.255111 41.6703 0.260048 41.4404 0.403928 41.2739C0.571788 41.0574 0.658539 40.7922 0.832746 40.5799C1.02741 40.3352 1.10358 40.022 1.30247 39.7801C1.44988 39.6207 1.45481 39.3851 1.59446 39.2215C1.75456 39.0205 1.84625 38.7779 1.99507 38.5698C2.22358 38.2659 2.34137 37.8963 2.58258 37.6008C2.70248 37.2016 2.99799 36.8976 3.2385 36.5675C3.43104 36.4631 3.66732 36.3087 3.88596 36.4377C4.09261 36.5668 4.36838 36.7262 4.35991 37.0055C4.3719 37.1966 4.36626 37.3913 4.32394 37.5796C4.22873 37.7806 4.04958 37.9351 3.97341 38.1488C3.86409 38.4408 3.625 38.6594 3.49946 38.9443C3.41341 39.1707 3.2124 39.333 3.1461 39.5699C3.05018 39.8937 2.72928 40.0869 2.64253 40.4135C2.5452 40.678 2.32091 40.874 2.23275 41.1463C2.00706 41.4749 1.81592 41.8255 1.6128 42.1675C1.56695 42.3044 1.59517 42.4511 1.59376 42.5921C1.90832 42.6408 2.2264 42.6246 2.54308 42.626C6.58652 42.626 10.63 42.626 14.6734 42.626C15.591 42.6203 16.5093 42.638 17.4269 42.6161C17.3239 42.3058 17.2534 41.9834 17.2569 41.6548C17.2505 40.7189 17.1638 39.7441 17.5207 38.8555C17.606 38.5727 17.6321 38.2694 17.7873 38.0112C17.9516 37.7468 17.9347 37.4047 18.1484 37.1691C18.2859 37.0013 18.3169 36.7784 18.4375 36.6007C18.5335 36.4201 18.6943 36.2854 18.7888 36.1034C19.0554 35.6563 19.4221 35.2846 19.7508 34.8847C19.9934 34.6794 20.1606 34.3931 20.4462 34.2372C20.679 33.9988 20.9688 33.8267 21.2016 33.5876C21.3194 33.4508 21.5161 33.436 21.653 33.3253C21.9323 33.089 22.3033 33.0135 22.5952 32.7928C23.1397 32.6545 23.6553 32.4204 24.2005 32.2864C24.7393 32.2335 25.2845 32.2293 25.8241 32.2772C26.3608 32.3675 26.8453 32.6355 27.368 32.7794C27.7897 33.0834 28.2912 33.2872 28.6368 33.6892C28.7821 33.8761 28.9944 33.996 29.1072 34.2097C29.3921 34.4291 29.5417 34.7606 29.7518 35.0434C29.8605 35.1802 29.8943 35.3579 29.9952 35.4997C30.1574 35.7339 30.3252 35.9751 30.3788 36.2607C30.4508 36.5597 30.6786 36.8003 30.711 37.1099C30.7597 37.5091 30.9128 37.8829 31.008 38.2715C31.0348 38.5162 31.0566 38.7631 31.1469 38.9944C31.2167 39.7378 31.209 40.4889 31.1526 41.233C31.07 41.4756 31.039 41.7295 30.9974 41.982C30.9106 42.188 30.8704 42.4087 30.8584 42.6323C34.7968 42.6182 38.7351 42.6302 42.6735 42.626C44.886 42.6182 47.0992 42.6422 49.3117 42.614C49.4217 42.2458 49.2384 41.8784 48.9866 41.6181C48.9062 41.3106 48.715 41.0595 48.5168 40.8183C48.2841 40.2534 47.8835 39.7759 47.6543 39.2116C47.5238 38.9916 47.3157 38.8209 47.2318 38.5741C47.1472 38.3463 46.9864 38.1601 46.8777 37.9456C46.7409 37.6276 46.5018 37.368 46.3558 37.0556C46.2747 36.8666 46.116 36.7213 46.0497 36.5259C45.951 36.1824 45.6216 35.9708 45.5165 35.6302C45.3127 35.2528 45.0912 34.8847 44.879 34.5116C44.752 34.1512 44.4254 33.9029 44.3182 33.534C44.1913 33.2851 43.9917 33.0777 43.8993 32.8104C43.6588 32.462 43.4606 32.091 43.2434 31.7299C43.1432 31.8604 43.0071 31.9563 42.8879 32.0685C42.5994 32.3188 42.3702 32.6404 42.0282 32.8238C41.9083 33.0072 41.7129 33.0827 41.5232 33.1701C41.2121 33.4297 40.8256 33.5665 40.4871 33.7823C40.2804 33.9234 40.0167 33.9276 39.8044 34.0574C39.5829 34.1427 39.3572 34.2965 39.1104 34.2203C38.9326 34.1131 38.7648 33.9904 38.6075 33.8571C38.5229 33.6278 38.5313 33.3739 38.5751 33.137C38.726 32.974 38.8663 32.7618 39.1061 32.7335C39.5561 32.651 39.9144 32.3492 40.3298 32.1806C40.5329 32.055 40.7206 31.9048 40.9462 31.8181C41.2375 31.5204 41.5775 31.2736 41.8949 31.0028C42.1325 30.7192 42.3526 30.4202 42.5959 30.1409C42.7518 29.796 43.0593 29.5393 43.1686 29.1704C43.3139 28.8587 43.4804 28.554 43.5361 28.2098C43.7357 27.7521 43.8147 27.2577 43.9134 26.7724C43.9374 26.302 43.9332 25.8294 43.9226 25.3583C43.9317 25.0536 43.8013 24.7715 43.7766 24.4703C43.656 24.0754 43.5149 23.6861 43.4084 23.2869C43.1954 22.9448 43.1341 22.523 42.8421 22.2317C42.6319 22.03 42.6051 21.6442 42.3209 21.5391C42.0275 21.8318 41.7601 22.1535 41.428 22.4038C41.5542 22.6563 41.7982 22.8291 41.9012 23.0964C42.0042 23.3884 42.2348 23.6268 42.2764 23.9414C42.3427 24.3561 42.5917 24.7228 42.6121 25.1481C42.6516 25.7131 42.6488 26.2822 42.6114 26.8472C42.586 27.2626 42.33 27.6145 42.2771 28.0229C42.2024 28.3516 41.964 28.6132 41.88 28.9412C41.6043 29.2423 41.4273 29.6154 41.1409 29.9053C40.8976 30.2488 40.5083 30.4449 40.2057 30.7284C39.9285 31.0169 39.5201 31.093 39.2084 31.3335C38.7182 31.4443 38.2626 31.6848 37.7597 31.7405C37.4416 31.8801 37.0883 31.8463 36.749 31.8547C36.5008 31.8456 36.2412 31.871 36.0071 31.7722C35.7913 31.6982 35.5522 31.7229 35.3441 31.6241C34.9273 31.4457 34.454 31.4118 34.0922 31.1177C33.7748 31.0119 33.5096 30.8144 33.2727 30.581C32.9948 30.9097 32.6654 31.1911 32.3671 31.5014C32.8368 31.9937 33.4878 32.2405 34.0718 32.5671C34.3447 32.742 34.6854 32.7187 34.9745 32.852C35.1022 32.9028 35.2418 32.9113 35.3702 32.9621C35.6897 33.1073 36.0522 33.0418 36.3879 33.1172C36.5424 33.2258 36.6369 33.4064 36.7956 33.5157C36.8118 33.6984 36.8414 33.8895 36.7829 34.068C36.5755 34.3338 36.2878 34.6569 35.9119 34.5673C35.6347 34.453 35.3272 34.4728 35.0486 34.3656C34.6952 34.2795 34.3087 34.3092 33.9892 34.1117C33.7064 33.9445 33.3636 33.9311 33.0879 33.7506C32.4305 33.3669 31.7379 33.0199 31.1871 32.4846C30.996 32.2589 30.7555 32.0282 30.7378 31.7144C30.7329 31.4668 30.7047 31.1847 30.8711 30.9795C31.1159 30.5803 31.5045 30.3038 31.7852 29.9328C31.9263 29.8052 32.1244 29.7607 32.2387 29.5964C32.3699 29.5005 32.3896 29.3333 32.4757 29.2057C32.7945 28.9334 33.0484 28.5935 33.3989 28.3579C35.0168 26.747 36.6235 25.1241 38.2393 23.5118C38.3204 23.3673 38.2471 23.2043 38.2027 23.0619C38.1272 22.7692 37.869 22.5802 37.7393 22.3157C37.6285 22.0244 37.4148 21.7888 37.2992 21.4989C37.137 21.2683 36.9966 21.0278 36.9077 20.7598C36.5932 20.4593 36.4648 20.0425 36.256 19.6743C36.0607 20.0051 35.8075 20.2943 35.5818 20.6032C35.4428 20.7274 35.3272 20.8726 35.2404 21.0377C34.6473 21.5314 34.1091 22.1401 33.37 22.4257C33.188 22.5195 33.0343 22.6718 32.8255 22.7064C32.3071 22.8757 31.7894 23.0555 31.2548 23.1592C30.7541 23.1705 30.2314 23.2333 29.7511 23.0619C29.3202 22.997 28.9309 22.7903 28.519 22.6613C28.3335 22.5308 28.1558 22.3904 27.9378 22.3171C27.581 22.0752 27.2861 21.755 26.9864 21.4496C26.8968 21.1512 26.8757 20.8042 27.052 20.5327C27.2911 20.2964 27.6797 20.2485 27.9837 20.3768C28.2623 20.5884 28.5253 20.8254 28.7531 21.0913C29.0085 21.202 29.2511 21.3381 29.4986 21.4651C29.7645 21.5596 30.0572 21.5434 30.3224 21.6442C30.8302 21.7705 31.3204 21.5674 31.8191 21.5039C32.092 21.446 32.3219 21.2747 32.5843 21.1844C32.9503 21.0765 33.1937 20.7563 33.5273 20.5863C33.7008 20.3564 33.9794 20.2386 34.1338 19.991C34.4533 19.6694 34.7256 19.2998 34.9442 18.9006C35.062 18.6912 35.2588 18.5247 35.3046 18.2786C35.3667 17.9979 35.5515 17.7665 35.6283 17.4929C35.7102 17.0535 35.8724 16.6352 35.945 16.193C36.0339 15.3171 36.0346 14.4016 35.6982 13.5736C35.6439 13.2082 35.4153 12.912 35.2736 12.5805C34.8871 12.0191 34.3891 11.5247 33.7798 11.2087C33.3686 11.0641 32.9525 10.9351 32.5215 10.8674C31.9192 10.8194 31.3571 11.0754 30.7809 11.2059C30.4938 11.3646 30.2265 11.5593 29.9239 11.689C29.6341 11.945 29.2828 12.1277 29.0339 12.4296C28.5818 12.8612 28.2764 13.4128 27.9153 13.9163C27.8059 14.1759 27.6987 14.4347 27.5429 14.6717C27.4561 15.0237 27.3814 15.3777 27.2424 15.7148C27.1267 15.9384 27.1768 16.2036 27.0802 16.4342C26.9003 17.0782 27.1289 17.7595 26.9892 18.4062C26.9737 18.6115 26.7473 18.6489 26.6098 18.7532C26.3319 18.883 26.0561 18.7222 25.805 18.6072C25.7528 18.4098 25.6068 18.2426 25.6146 18.0317C25.5793 17.5126 25.58 16.9907 25.6139 16.4723C25.6097 16.2064 25.7775 15.9716 25.7479 15.7028C25.7253 15.4468 25.7719 15.1957 25.8368 14.9496C25.8685 14.9355 25.9313 14.9066 25.963 14.8925C25.9595 14.7958 25.9574 14.6992 25.9553 14.6026C26.1795 14.5864 26.0709 14.3325 26.1358 14.1865C26.2649 13.8042 26.5251 13.4826 26.6796 13.1109C27.2742 12.0586 28.1092 11.141 29.1065 10.4576C29.5304 10.2615 29.8654 9.86937 30.3676 9.87008C30.4332 9.48499 30.1031 9.21627 29.9268 8.91652C29.8012 8.6076 29.5932 8.34312 29.462 8.03702C29.3061 7.7937 29.0882 7.57999 29.0085 7.29365C28.9661 7.09757 28.7694 6.99531 28.7052 6.81052C28.5825 6.50372 28.3716 6.24346 28.2411 5.94089C28.05 5.6757 27.88 5.39641 27.7418 5.10089C27.6085 4.9415 27.5027 4.76376 27.4286 4.57051C27.3094 4.27711 27.0499 4.07187 26.9455 3.77212C26.7304 3.40396 26.5512 3.01675 26.2882 2.67892C26.1372 2.50189 26.1273 2.24587 25.9553 2.08365C25.8297 1.94824 25.7726 1.77121 25.7169 1.59982C25.5765 1.58078 25.4221 1.5434 25.293 1.62521C25.0151 1.93766 24.8867 2.3439 24.6455 2.68103C24.5362 2.9702 24.3324 3.20436 24.1575 3.45262C24.0658 3.80104 23.7921 4.05353 23.6666 4.38643C23.5227 4.63752 23.3055 4.87943 23.3175 5.18623C23.3739 5.47752 23.4169 5.77374 23.5185 6.05445C23.6666 6.70614 23.486 7.36417 23.3224 7.99189C23.1588 8.2733 22.9705 8.54131 22.8322 8.83753C22.5233 9.2332 22.1516 9.58161 21.7242 9.84822C21.1981 10.1113 20.6613 10.3864 20.0647 10.4505C20.0343 10.7785 19.7402 10.9795 19.6358 11.2778C19.5519 11.5268 19.3643 11.7172 19.2296 11.938C18.9729 12.4423 18.6907 12.931 18.3776 13.4036C18.2852 13.6561 18.1046 13.8571 17.9735 14.0884C18.0341 14.4242 17.7047 14.6082 17.6074 14.896C17.57 15.0152 17.4459 15.0815 17.4233 15.207C17.2759 15.5724 16.9219 15.8086 16.7801 16.1803C16.6934 16.4476 16.4874 16.6444 16.3414 16.8772C16.0875 17.4054 15.7842 17.9104 15.452 18.3949C15.3618 18.6065 15.4795 18.84 15.4838 19.0607C15.9584 19.1193 16.4818 19.053 16.9014 19.3238C17.0587 19.4148 17.2308 19.4712 17.3994 19.5361C17.8966 19.8521 18.2669 20.3183 18.5991 20.8C18.8523 21.183 18.9411 21.6442 19.0808 22.0759C19.1746 22.4151 19.0681 22.7833 19.1873 23.1119C19.7064 23.2558 20.0583 23.698 20.4131 24.0761C20.5605 24.3265 20.7756 24.5402 20.8623 24.823C20.9406 25.0748 21.1318 25.2814 21.1727 25.5459C21.3053 26.4085 21.3031 27.2908 21.179 28.1541C21.1536 28.3777 20.9632 28.5497 21.0182 28.7874C20.7967 28.8565 20.8179 29.1577 20.8059 29.351C20.6578 29.3693 20.6712 29.5118 20.6409 29.6232C20.5675 29.6973 20.5097 29.7896 20.4222 29.8482C20.1352 29.9914 19.9624 30.2735 19.7169 30.4696C19.4045 30.7129 19.1083 30.9971 18.7168 31.105C18.3959 31.3039 17.9989 31.3829 17.7428 31.6742C17.5841 31.8449 17.4085 32 17.2632 32.1827C17.0926 32.3541 17.1102 32.6186 16.9811 32.8154C16.881 33.132 16.7815 33.4508 16.7258 33.7795C16.5798 34.1025 16.2765 34.3155 16.0036 34.5271C15.8766 34.6153 15.7581 34.7359 15.5966 34.7528C15.2144 34.8297 14.8229 34.8452 14.4385 34.7796C14.143 34.7711 13.9406 34.5285 13.7234 34.3606C13.3778 34.1392 13.2184 33.7329 12.9088 33.4741C12.6224 33.2886 12.3473 33.0636 11.9898 33.0467C11.3592 32.7716 10.6476 33.0382 9.99661 32.8534C9.68628 32.7173 9.31741 32.7744 9.02965 32.5805C8.55499 32.3315 8.10924 32.0409 7.67408 31.7299C7.6106 32.084 7.27771 32.2857 7.20083 32.6306C7.11267 32.8549 6.93141 33.0227 6.80445 33.2223C6.65775 33.558 6.437 33.8557 6.29876 34.1956C6.13795 34.3402 6.04768 34.5299 5.99337 34.7366C5.81211 34.9256 5.57443 35.1386 5.29231 35.1097C5.04052 35.1026 4.76757 34.9658 4.66954 34.7246C4.54964 34.3296 4.64485 33.8916 4.89382 33.5665C5.09483 33.3105 5.22248 33.01 5.40868 32.7441C5.54128 32.5748 5.54339 32.3365 5.70208 32.1841C5.88969 31.9768 6.0244 31.737 6.10904 31.4718C6.34954 31.2136 6.43911 30.8666 6.64294 30.5845C6.79388 30.4033 6.60204 30.2051 6.52375 30.0407C6.37705 29.8299 6.39468 29.5654 6.3178 29.3312C6.15206 28.9983 6.19226 28.6146 6.17604 28.2542C6.19156 27.8938 6.14853 27.5073 6.32133 27.1765C6.39397 26.9551 6.38622 26.7061 6.51317 26.5037C6.64083 26.2801 6.76637 26.0544 6.89614 25.8316C6.94199 25.7208 6.83972 25.6404 6.79529 25.5515C6.5308 24.8343 6.33332 24.0627 6.47508 23.296C6.57382 22.9356 6.66622 22.5703 6.81574 22.2275C7.11478 21.8481 7.32002 21.3762 7.75307 21.1251C7.99922 20.9911 8.17272 20.752 8.44144 20.654C8.33635 19.9071 8.32507 19.1348 8.49151 18.3964C8.80466 17.7574 9.11852 17.0831 9.68698 16.6296C9.93877 16.516 10.1165 16.2791 10.3895 16.2121C10.7287 16.0893 11.0574 15.9109 11.4248 15.8982C11.8177 15.8785 12.2169 15.8651 12.6048 15.9398C12.8876 16.016 13.1542 16.1429 13.43 16.241C13.6627 16.3186 13.8348 16.5048 14.0513 16.6155C14.1776 16.6698 14.2269 16.8094 14.3186 16.9033C14.4202 16.9576 14.538 16.9491 14.6494 16.9604C14.6875 16.7248 14.8406 16.5457 14.9746 16.3588C15.0811 16.1387 15.165 15.9053 15.3251 15.7155C15.6439 15.1019 16.0642 14.5448 16.3428 13.91C16.4839 13.7026 16.6729 13.5228 16.7554 13.2809C16.8126 13.1123 16.9134 12.9656 17.0171 12.8231C17.3387 12.2116 17.7534 11.6524 18.0362 11.0204C18.2196 10.7721 18.415 10.5063 18.4601 10.1938C18.1843 10.1303 17.9445 9.97517 17.6885 9.86303C17.5355 9.72761 17.3634 9.6197 17.1807 9.53013C17.0086 9.26141 16.7505 9.06675 16.5735 8.80086C16.2356 8.50745 16.2004 8.03632 15.9838 7.66392C15.8258 7.0073 15.8202 6.30412 15.9761 5.64467C16.1037 5.34492 16.2328 5.04447 16.3196 4.7292C16.7279 4.11207 16.9818 3.40325 17.453 2.82703C17.7231 2.45957 17.905 2.0237 18.2337 1.70068C18.4411 1.25775 18.817 0.90793 19.2261 0.646971C19.6006 0.540472 20.0329 0.542588 20.3679 0.763344C20.8369 1.07861 21.0944 1.59912 21.4139 2.04768C21.5697 2.16476 21.6727 2.32486 21.7404 2.50612C21.9767 2.83902 22.1791 3.1959 22.4351 3.5161C22.5515 3.22058 22.8012 3.00335 22.9077 2.70431C23.0396 2.3827 23.3132 2.14713 23.4352 1.82199C23.6765 1.38823 23.9205 0.953773 24.2061 0.548936C24.3994 0.412814 24.6018 0.286567 24.7915 0.142687ZM18.8015 3.46673C18.6597 3.76013 18.3811 3.96819 18.2796 4.28416C18.2083 4.50139 18.0123 4.64809 17.9453 4.86603C17.8684 5.12064 17.661 5.31601 17.6067 5.57767C17.5383 5.90422 17.3105 6.18845 17.3056 6.52911C17.2632 6.9946 17.5221 7.40649 17.6801 7.82685C17.8486 7.98765 17.9537 8.207 18.1498 8.33889C18.3593 8.52015 18.5744 8.72257 18.8614 8.76277C19.0716 8.78463 19.2458 8.93063 19.4602 8.9264C19.7226 8.93204 20.0033 8.96519 20.2473 8.8467C20.4222 8.76912 20.6141 8.74937 20.8003 8.71269C21.0845 8.45667 21.404 8.2338 21.6438 7.93264C21.763 7.72035 21.8808 7.50453 21.9767 7.28025C22.0747 6.86201 22.098 6.41062 21.9746 5.9952C21.8279 5.70603 21.715 5.40276 21.6107 5.09666C21.4273 4.84064 21.227 4.58956 21.1416 4.27993C20.7777 3.81726 20.552 3.25655 20.1458 2.82491C19.9955 2.62108 19.8897 2.38199 19.681 2.22542C19.4066 2.65141 19.0448 3.01816 18.8015 3.46673ZM34.442 3.35388C34.1493 3.42794 34.0739 3.76577 33.8193 3.89625C33.7777 4.12688 33.7191 4.37374 33.7974 4.60225C34.0746 5.03036 34.4322 5.45354 34.4724 5.9811C34.5309 6.44165 34.5133 6.91279 34.4068 7.36488C34.3391 7.57294 34.2072 7.7542 34.1409 7.96297C34.0196 8.53496 33.5562 8.98846 33.5625 9.59572C33.9928 9.58444 34.3144 9.90111 34.7122 10.0027C34.8243 10.0704 34.8814 9.91663 34.9343 9.84822C35.0465 9.59572 35.2129 9.36509 35.2842 9.09426C35.3667 8.69577 35.6213 8.36075 35.7123 7.96367C35.9549 7.56377 36.23 7.16881 36.6136 6.89163C36.8076 6.71954 37.0791 6.70402 37.3013 6.58412C37.7111 6.42614 38.228 6.4212 38.4975 6.022C38.6075 5.71238 38.5948 5.36749 38.5278 5.05011C38.331 4.69323 37.9452 4.4224 37.5242 4.46683C37.3027 4.44215 37.1179 4.5691 36.9261 4.65374C36.6933 4.70522 36.45 4.69746 36.2173 4.65515C36.0402 4.52819 35.8985 4.33918 35.8385 4.12759C35.7504 3.80668 35.5148 3.54854 35.2517 3.35529C34.9865 3.30804 34.7058 3.29252 34.442 3.35388ZM10.5432 17.8462C10.429 18.0148 10.2999 18.1721 10.1715 18.3308C9.9691 18.7673 9.77726 19.2335 9.81958 19.7251C9.79207 20.1349 10.0142 20.4946 10.1193 20.8762C10.1454 21.1308 10.204 21.4686 9.96134 21.6393C9.70462 21.9137 9.31812 21.9581 8.97958 22.0674C8.82089 22.1915 8.65867 22.3107 8.49504 22.4285C8.40053 22.5477 8.31448 22.6733 8.2228 22.7953C8.03942 23.0238 8.08174 23.3398 7.97877 23.6014C7.90542 23.782 7.90542 23.9921 7.97806 24.1727C8.07539 24.4393 8.04647 24.744 8.20234 24.9901C8.33423 25.2158 8.46119 25.445 8.59167 25.6729C8.71227 26.0706 8.39348 26.3958 8.15509 26.6701C7.95408 27.0221 7.74038 27.3768 7.65151 27.776C7.63176 28.1167 7.62189 28.4616 7.6628 28.8008C7.85111 29.394 8.11136 29.9801 8.53736 30.442C8.66149 30.5507 8.81031 30.6311 8.91963 30.758C9.16013 31.0444 9.54663 31.1163 9.85132 31.3145C10.5474 31.5141 11.2838 31.3286 11.9912 31.4478C12.456 31.5388 12.8728 31.7736 13.3058 31.9535C13.6021 32.1608 13.9328 32.3202 14.1536 32.6179C14.1677 32.4832 14.1585 32.347 14.0944 32.2257C14.0027 31.8815 13.8785 31.5423 13.8609 31.1826C13.8482 30.7757 13.5329 30.4865 13.3178 30.1726C13.1246 29.8884 12.8008 29.7509 12.5427 29.5393C12.3213 29.3361 12.0067 29.327 11.7422 29.2113C11.4721 29.1662 11.2189 29.0456 10.9424 29.0385C10.5735 28.9948 10.1906 29.0632 9.83086 28.9504C9.59036 28.7352 9.38865 28.408 9.48456 28.0744C9.54381 27.9474 9.61011 27.824 9.67993 27.7034C10.0467 27.4692 10.4882 27.4706 10.9043 27.5299C11.2922 27.6519 11.7098 27.6131 12.1026 27.7154C12.4285 27.867 12.7501 28.0292 13.09 28.1484C13.0421 27.7443 13.0096 27.3331 12.87 26.948C12.8128 26.5467 12.6704 26.1623 12.4412 25.828C12.2775 25.6588 12.0652 25.5501 11.8734 25.4175C11.6301 25.2215 11.2993 25.2666 11.0094 25.2144C10.7308 25.1615 10.4021 25.2842 10.168 25.0811C9.98885 24.9111 9.74834 24.7264 9.78925 24.4478C9.73565 24.062 10.0834 23.777 10.3993 23.6353C10.6342 23.6092 10.8825 23.6028 11.1074 23.6868C11.3289 23.7531 11.5758 23.7072 11.7852 23.8179C11.9044 23.8807 12.0405 23.8941 12.171 23.9223C12.147 23.4872 11.9686 23.083 11.8551 22.6676C11.7888 22.298 11.7401 21.9214 11.8304 21.5511C12.0412 21.4616 12.1738 21.2048 12.4214 21.2196C12.7148 21.1865 12.9772 21.3812 13.1316 21.6167C13.2826 21.9524 13.3658 22.3157 13.3834 22.6838C13.3954 22.9786 13.5675 23.2347 13.5696 23.5309C13.6444 23.5217 13.7191 23.5133 13.7946 23.5062C13.8461 23.418 13.868 23.2988 13.9716 23.2551C14.2904 23.0823 14.5514 22.8051 14.9054 22.6993C15.0684 22.657 15.2249 22.4948 15.4006 22.583C15.5473 22.6549 15.7052 22.7008 15.8512 22.7748C15.9295 22.9307 15.9979 23.0929 16.0614 23.2558C16.0953 23.4632 15.9457 23.631 15.8724 23.8116C15.7236 24.0747 15.3688 24.0331 15.1699 24.2376C14.8582 24.4619 14.5634 24.7186 14.3638 25.0515C14.1508 25.3534 14.143 25.7497 14.2023 26.101C14.2686 26.6518 14.4936 27.1674 14.5704 27.7161C14.9139 27.5616 15.0578 27.1758 15.3709 26.9791C15.6439 26.8063 15.8534 26.5453 16.151 26.412C16.4613 26.2103 16.7977 26.0474 17.1447 25.9225C17.4346 25.8464 17.6469 26.0699 17.8874 26.1814C17.977 26.5227 18.0701 26.9882 17.7464 27.2365C17.4389 27.4015 17.125 27.5567 16.8189 27.7253C16.656 27.867 16.4853 28.0003 16.3167 28.1357C15.9951 28.4052 15.7454 28.7451 15.5007 29.0815C15.433 29.2184 15.4055 29.37 15.3554 29.5139C15.1544 29.9208 15.1572 30.4131 15.2941 30.8391C15.5007 31.2136 15.3096 31.7341 15.6643 32.0318C15.7786 31.8646 15.8759 31.6883 15.9422 31.4965C16.2575 31.0028 16.6729 30.5683 17.1603 30.241C17.314 30.1684 17.4649 30.0887 17.6032 29.9885C17.7788 29.8503 18.0165 29.8496 18.209 29.7445C18.537 29.4892 18.896 29.26 19.145 28.9193C19.2472 28.7451 19.3685 28.5829 19.4934 28.4249C19.6683 28.2126 19.6288 27.9185 19.7247 27.6745C19.858 27.4199 19.8277 27.1222 19.8375 26.8451C19.827 26.6074 19.8481 26.3549 19.7395 26.1362C19.6365 25.9155 19.6718 25.6482 19.5307 25.4436C19.267 25.0966 19.0335 24.7172 18.6724 24.4647C18.3691 24.3406 18.0807 24.1798 17.8063 24.002C17.5743 23.8596 17.5926 23.5584 17.6039 23.3207C17.6504 22.9011 17.6518 22.4722 17.5552 22.0596C17.3613 21.5081 16.967 21.0447 16.4881 20.7224C15.9697 20.5503 15.4125 20.5842 14.8793 20.6561C14.6106 20.6879 14.411 20.4756 14.2389 20.3028C14.1423 20.1046 14.1783 19.8669 14.1458 19.6525C14.0605 19.2921 13.9399 18.9408 13.8292 18.5875C13.7537 18.3759 13.5287 18.2736 13.413 18.0888C13.3439 17.995 13.3009 17.8716 13.1873 17.8222C12.9743 17.7122 12.7825 17.5627 12.5625 17.4696C12.1774 17.361 11.7669 17.3568 11.3733 17.4209C11.0475 17.4484 10.8267 17.7136 10.5432 17.8462ZM40.2946 23.5238C39.8629 24.117 39.226 24.5275 38.7944 25.1199C39.5589 25.1164 40.3228 25.0973 41.0866 25.0607C41.0358 24.6749 40.8482 24.3265 40.6493 23.9985C40.5597 23.8109 40.5604 23.5337 40.2946 23.5238ZM38.532 26.6553C38.7048 26.8719 38.9658 26.9953 39.1132 27.2337C39.2472 27.3331 39.3636 27.4502 39.4623 27.5849C39.6711 27.702 39.8213 27.8861 39.956 28.0793C40.1175 28.1922 40.279 28.3156 40.3425 28.5124C40.4271 28.3918 40.5238 28.2782 40.5809 28.1421C40.7121 27.8318 40.9011 27.5496 41.0182 27.2337C41.0887 26.9953 41.088 26.7449 41.1028 26.4988C40.8792 26.5044 40.6557 26.5044 40.4328 26.5185C39.8135 26.6751 39.1647 26.5841 38.532 26.6553ZM37.4254 28.4792C37.3895 29.0738 37.3972 29.6698 37.3718 30.265C37.6293 30.2347 37.8881 30.2065 38.1441 30.1592C38.41 30.0555 38.6406 29.8708 38.9263 29.8129C39.0652 29.741 39.298 29.6486 39.2479 29.456C38.824 29.0688 38.4269 28.6562 38.032 28.2408C37.85 28.1026 37.6645 27.9587 37.5876 27.733C37.4593 27.9629 37.5164 28.2366 37.4254 28.4792ZM35.5797 28.2853C35.2686 28.6069 34.9491 28.92 34.6325 29.2367C34.5365 29.3397 34.3525 29.418 34.4047 29.5893C34.6106 29.8531 34.9795 29.8552 35.2447 30.0372C35.4457 30.1832 35.6996 30.1966 35.9394 30.2022C35.926 29.4476 35.9796 28.6943 35.9866 27.9411C35.8392 28.0405 35.6953 28.1491 35.5797 28.2853ZM24.3253 33.8317C24.0862 33.9128 23.8281 33.9156 23.5876 33.9925C23.395 34.0856 23.2251 34.2281 23.0114 34.2746C22.7518 34.3268 22.5628 34.52 22.3547 34.6674C21.2305 35.3234 20.3856 36.363 19.6937 37.4435C19.5667 37.8716 19.2113 38.1939 19.1323 38.639C19.0448 38.9838 18.8572 39.3012 18.8255 39.6609C18.7225 40.5101 18.7218 41.3727 18.8311 42.2218C18.865 42.5427 19.0356 42.8256 19.1196 43.1331C19.1873 43.5421 19.5068 43.837 19.6739 44.2051C19.8947 44.5162 20.09 44.8716 20.4215 45.0804C20.6183 45.3794 20.9413 45.5424 21.2065 45.7702C21.3391 45.8626 21.5105 45.8781 21.6417 45.9761C21.8843 46.1285 22.1178 46.3302 22.4189 46.3429C22.737 46.364 23.0248 46.5241 23.345 46.5276C23.85 46.5495 24.3627 46.5721 24.8628 46.4825C25.1174 46.376 25.3967 46.3675 25.6647 46.3118C25.9898 46.2089 26.2487 45.9641 26.5717 45.8541C26.8326 45.7631 27.0132 45.5374 27.2636 45.4246C27.6705 45.0303 28.1127 44.6636 28.4301 44.1903C28.66 43.9569 28.7362 43.6233 28.9591 43.3835C29.0663 42.9955 29.2638 42.6422 29.3921 42.2613C29.5706 41.884 29.5205 41.4502 29.6051 41.0503C29.7166 40.7471 29.6616 40.4184 29.6757 40.1038C29.6616 39.8027 29.7109 39.4895 29.6058 39.2004C29.5374 38.8534 29.5346 38.4958 29.4683 38.1481C29.2969 37.679 29.1185 37.21 28.9753 36.7304C28.8632 36.4984 28.7129 36.2854 28.6213 36.0428C28.3511 35.5963 28.0387 35.171 27.6543 34.8156C27.4251 34.6174 27.21 34.3896 26.9264 34.2697C26.6845 34.1688 26.4941 33.9516 26.2197 33.9354C25.9158 33.9022 25.6372 33.7442 25.3261 33.7724C24.9932 33.7851 24.6483 33.7322 24.3253 33.8317Z" fill="black"/>
<path d="M23.3773 37.6703C23.9507 37.6111 24.5361 37.6111 25.1024 37.7218C25.3867 37.8149 25.6462 37.9743 25.9185 38.0985C26.1251 38.267 26.3254 38.4455 26.5504 38.5915C26.6484 38.748 26.7831 38.875 26.903 39.0146C27.0342 39.2551 27.1753 39.4907 27.3283 39.7192C27.5174 39.9774 27.4574 40.3194 27.5604 40.61C27.6732 40.8731 27.6365 41.1658 27.6457 41.4444C27.6373 41.6545 27.6577 41.876 27.5752 42.0749C27.4757 42.3359 27.5047 42.6271 27.4045 42.8874C27.2529 43.178 27.0716 43.4502 26.9143 43.7373C26.6731 44.0554 26.3938 44.3438 26.0941 44.6069C25.8543 44.7113 25.6878 44.9377 25.4318 45.0082C25.0707 45.126 24.7314 45.3355 24.3414 45.3418C23.9013 45.363 23.4556 45.3764 23.0211 45.291C22.7263 45.1923 22.4505 45.0449 22.1536 44.9532C21.8489 44.7268 21.5097 44.5357 21.2692 44.2352C21.1436 44.073 21.0131 43.915 20.8855 43.7563C20.7564 43.4467 20.5265 43.1773 20.4849 42.8359C20.4581 42.5989 20.31 42.3958 20.3114 42.1539C20.2874 41.7081 20.2634 41.2525 20.3502 40.8124C20.5004 40.5338 20.4581 40.1946 20.6266 39.9252C20.7099 39.7707 20.8065 39.6219 20.858 39.4533C20.8989 39.2756 21.0752 39.191 21.1606 39.04C21.346 38.7149 21.6818 38.5266 21.9596 38.291C22.0626 38.2078 22.1501 38.097 22.2806 38.0547C22.6466 37.9242 22.9724 37.6675 23.3773 37.6703ZM23.7447 39.0894C23.5374 39.1797 23.3117 39.2135 23.0987 39.2862C22.7263 39.5394 22.4117 39.868 22.1205 40.2087C21.9738 40.5515 21.8355 40.9006 21.7565 41.2659C21.7368 41.5078 21.7382 41.7519 21.7593 41.9931C21.8397 42.3069 21.9604 42.6102 22.1014 42.9029C22.3603 43.2556 22.6903 43.5539 23.0804 43.7535C23.548 43.8847 24.0473 43.8882 24.5206 43.7888C24.7681 43.7203 24.9571 43.532 25.1878 43.4262C25.3331 43.3613 25.4064 43.2125 25.5052 43.0976C25.5954 42.9826 25.7337 42.9022 25.7767 42.7555C25.8663 42.5157 26.008 42.2978 26.0934 42.058C26.1738 41.5861 26.1815 41.0952 26.0807 40.6269C25.8952 40.3166 25.8049 39.9357 25.5143 39.6995C25.2795 39.471 25.0284 39.2248 24.6863 39.1839C24.3901 39.0626 24.0593 39.0118 23.7447 39.0894Z" fill="black"/>
<path d="M17.5742 13.4316H27.1521" stroke="black"/>
<path d="M5.02344 34.0742H21.8672" stroke="black"/>
<path d="M28.1445 34.0742H45.9791" stroke="black"/>
<path d="M18.8945 23.8359L38.3805 23.8359" stroke="black"/>
</svg>
