<svg width="24" height="25" viewBox="0 0 24 25" fill="none" xmlns="http://www.w3.org/2000/svg">
<path d="M14.4023 10.2189H10.0646L11.1841 5.5957L12.5833 7.34933L14.4023 10.2189Z" fill="white"/>
<path d="M9.92677 10.2191H7.96781L10.7663 6.07422L10.9062 6.87132L9.92677 10.2191Z" fill="white"/>
<path d="M20.1953 5.16917C20.0206 5.12239 19.8401 5.17601 19.6637 5.14407C19.5704 5.16118 19.4754 5.15662 19.3821 5.14349C18.9884 5.18343 18.592 5.14235 18.1978 5.15605C18.1526 5.15662 18.0632 5.15662 18.0185 5.15719C17.8121 5.11668 17.604 5.16803 17.3964 5.15947C17.2867 5.13494 17.1753 5.13608 17.0656 5.16061C16.763 5.11497 16.4587 5.18229 16.1567 5.14235C15.969 5.1686 15.779 5.16803 15.5912 5.14349C15.3469 5.1686 15.0997 5.17202 14.856 5.14178C14.6484 5.17145 14.438 5.16118 14.2288 5.15605C14.101 5.1338 13.9709 5.1338 13.8425 5.15662C13.3488 5.17487 12.8562 5.13323 12.363 5.15833C11.9892 5.11098 11.6114 5.20055 11.2365 5.14692C11.0125 5.13665 10.7863 5.12638 10.5629 5.15776C10.4843 5.15833 10.4063 5.15776 10.3271 5.15662C10.2366 5.14121 10.1444 5.14064 10.0533 5.1549C9.82713 5.16118 9.59808 5.17373 9.37299 5.13893C9.24009 5.14977 9.10662 5.15719 8.97315 5.14464C8.8476 5.15947 8.72092 5.16118 8.5948 5.16289C8.60046 8.97392 8.60668 12.7844 8.61233 16.5954C10.3418 16.5971 12.0712 16.5971 13.8007 16.5954C13.9551 15.7619 14.4991 15.0122 15.2366 14.606C15.8904 14.2312 16.6934 14.1559 17.4156 14.3522C18.4438 14.6346 19.2644 15.5371 19.4652 16.5914C19.7078 16.5903 19.9499 16.592 20.1919 16.5886C20.1919 14.6648 20.1908 12.741 20.1925 10.8173C18.9404 10.8098 17.6882 10.8173 16.4361 10.8138C16.1811 10.7391 15.9384 10.5582 15.8774 10.2844C15.749 9.87648 16.0747 9.40181 16.5051 9.4001C17.734 9.39154 18.963 9.40124 20.1919 9.39553C20.1919 8.92372 20.1919 8.45248 20.1919 7.98066C18.8086 7.97667 17.4253 7.9818 16.0419 7.97838C15.7445 7.97495 15.4453 7.78212 15.3718 7.48089C15.2128 7.04388 15.5895 6.54981 16.0414 6.55951C17.4253 6.55609 18.8086 6.56293 20.1925 6.55609C20.1931 6.09397 20.188 5.63128 20.1953 5.16917Z" fill="white"/>
<path d="M7.20984 11.6811C7.20644 10.7546 7.21719 9.82805 7.20475 8.90153C6.45144 8.9021 5.69756 8.90495 4.94425 8.90039C4.05465 9.82405 3.169 10.7523 2.28166 11.6794C3.92457 11.6834 5.56749 11.6799 7.20984 11.6811Z" fill="white"/>
<path d="M7.21035 13.0938C5.2496 13.0938 3.28885 13.0938 1.32809 13.0938C1.32809 14.2605 1.32866 15.4277 1.32809 16.5944C1.41858 16.595 1.5085 16.5961 1.59843 16.5973C1.7613 15.7672 2.29235 15.0135 3.03209 14.6085C3.64514 14.2547 4.39167 14.1646 5.07824 14.3175C5.84343 14.483 6.51869 14.9976 6.91684 15.6736C7.03786 15.895 7.15945 16.1232 7.18717 16.3788C7.19791 16.2493 7.21149 16.1209 7.21092 15.9914C7.20979 15.0255 7.21092 14.0596 7.21035 13.0938Z" fill="white"/>
<path d="M17.9475 16.4567C17.6862 15.9507 17.1224 15.6135 16.5529 15.6654C15.9104 15.67 15.3573 16.1749 15.1803 16.7808C15.1486 17.0318 15.1475 17.2857 15.1792 17.5367C15.3353 18.0758 15.7781 18.5283 16.3301 18.6401C16.515 18.6663 16.7033 18.664 16.8888 18.6469C17.4815 18.5465 17.9837 18.0496 18.0968 17.454C18.1409 17.1168 18.1228 16.7557 17.9475 16.4567Z" fill="white"/>
<path d="M4.76043 15.6935C4.40187 15.633 4.00995 15.6558 3.69494 15.8555C3.23232 16.1185 2.91901 16.6474 2.94728 17.1871C2.92523 17.9835 3.66157 18.7127 4.4522 18.6607C5.00192 18.6796 5.52222 18.3213 5.76484 17.8335C5.93337 17.5311 5.92602 17.17 5.887 16.8362C5.76767 16.2823 5.31071 15.8145 4.76043 15.6935Z" fill="white"/>
<path d="M20.9544 6.28206C20.9602 5.96192 20.627 5.68235 20.2882 5.71558C16.4653 5.71607 12.6425 5.71558 8.81963 5.71558C8.59286 5.71656 8.36504 5.70874 8.13879 5.73073C7.93339 5.81871 7.77751 5.98147 7.7087 6.18333C7.69931 7.10073 7.70922 8.01814 7.70348 8.93603C6.946 8.93505 6.18905 8.93603 5.43209 8.93505C5.32574 8.93457 5.21939 8.94483 5.11408 8.95705C5.01711 9.01374 4.91754 9.06946 4.83882 9.14864C3.63092 10.3295 2.41364 11.5025 1.20469 12.6829C1.06341 12.81 0.994596 12.9947 1.00033 13.177C1.00085 14.5631 0.998766 15.9493 1.00189 17.3354C0.997202 17.6419 1.26673 17.9195 1.59464 17.9385C1.93297 17.9527 2.27236 17.9346 2.61069 17.9478C2.83799 18.6619 3.4276 19.266 4.16945 19.5358C4.62821 19.7254 5.14484 19.7372 5.63488 19.679C6.40435 19.5373 7.10292 19.0759 7.47932 18.4278C7.56846 18.2719 7.64249 18.1086 7.70766 17.9429C9.75332 17.9434 11.799 17.9439 13.8447 17.9424C14.1366 18.8173 14.9514 19.5114 15.9153 19.6785C16.5863 19.7782 17.2958 19.6634 17.8614 19.3027C18.3854 18.9859 18.7612 18.4864 18.9578 17.9361C19.4191 17.9346 19.8805 17.942 20.3414 17.9336C20.6057 17.9268 20.8298 17.7592 20.9367 17.5397C20.9482 17.438 20.957 17.3359 20.9565 17.2337C20.9555 15.4151 20.9576 13.5964 20.9555 11.7777C21.4492 11.7694 21.9429 11.7752 22.4366 11.7743C22.6644 11.722 22.8859 11.5866 22.9568 11.3666C23.1132 11.0206 22.8239 10.5846 22.4225 10.5646C21.934 10.5509 21.445 10.5656 20.956 10.5573C20.956 10.1535 20.9565 9.75031 20.956 9.34659C21.285 9.33633 21.6864 9.40818 21.9293 9.14376C22.1983 8.88813 22.1352 8.42576 21.8094 8.24004C21.5613 8.06799 21.2406 8.14668 20.9555 8.1242C20.9555 7.51031 20.9586 6.89594 20.9544 6.28206ZM19.685 6.93749C19.6782 7.33338 19.6829 7.72977 19.6824 8.12567C18.4067 8.13153 17.1316 8.12567 15.8559 8.1286C15.4394 8.12029 15.0922 8.54356 15.2387 8.91795C15.3064 9.17601 15.5822 9.34122 15.8564 9.34415C17.1316 9.34708 18.4067 9.34268 19.6819 9.3461C19.6819 9.75031 19.6819 10.154 19.6819 10.5582C18.5491 10.5631 17.4162 10.5548 16.2834 10.5621C15.8867 10.5636 15.5864 10.9703 15.7047 11.3197C15.761 11.5543 15.9847 11.7093 16.2198 11.7733C17.374 11.7762 18.5282 11.7699 19.6824 11.7762C19.6809 13.4243 19.6819 15.0724 19.6819 16.7205C19.4588 16.7235 19.2356 16.722 19.012 16.723C18.8269 15.8197 18.0705 15.0465 17.1227 14.8046C16.457 14.6365 15.7167 14.701 15.1141 15.0221C14.4343 15.3701 13.9328 16.0123 13.7904 16.7264C12.1962 16.7279 10.602 16.7279 9.00783 16.7264C9.00262 13.4615 8.99688 10.197 8.99167 6.93211C9.10793 6.93064 9.2247 6.92918 9.34044 6.91647C9.46347 6.92722 9.5865 6.92087 9.70901 6.91158C9.91649 6.9414 10.1276 6.93064 10.3362 6.92527C10.4201 6.91305 10.5051 6.91354 10.5885 6.92673C10.6615 6.92771 10.7334 6.9282 10.8059 6.92771C11.0118 6.90083 11.2203 6.90963 11.4268 6.91842C11.7724 6.96437 12.1206 6.88763 12.4652 6.9282C12.9198 6.90669 13.3739 6.94237 13.829 6.92673C13.9474 6.90718 14.0673 6.90718 14.1851 6.92624C14.378 6.93064 14.5719 6.93944 14.7632 6.91403C14.9879 6.93993 15.2157 6.937 15.4409 6.91549C15.614 6.93651 15.7892 6.937 15.9623 6.91451C16.2406 6.94873 16.5211 6.89105 16.8 6.93015C16.9012 6.90914 17.0039 6.90816 17.105 6.92918C17.2963 6.93651 17.4882 6.89252 17.6785 6.92722C17.7196 6.92673 17.802 6.92673 17.8437 6.92624C18.2071 6.91451 18.5725 6.9497 18.9354 6.91549C19.0214 6.92673 19.109 6.93064 19.195 6.91598C19.3576 6.94335 19.5239 6.89741 19.685 6.93749ZM7.71391 12.5152C6.19999 12.5143 4.68555 12.5172 3.17112 12.5138C3.98907 11.7195 4.80546 10.9243 5.6255 10.133C6.3199 10.1369 7.01482 10.1345 7.70922 10.134C7.72069 10.9277 7.71078 11.7215 7.71391 12.5152ZM7.71391 13.7274C7.71443 14.5548 7.71339 15.3823 7.71443 16.2098C7.71495 16.3207 7.70244 16.4307 7.69254 16.5417C7.66699 16.3227 7.55491 16.1272 7.44335 15.9375C7.07633 15.3584 6.45388 14.9175 5.74853 14.7758C5.11564 14.6448 4.4275 14.722 3.86239 15.025C3.1805 15.372 2.69098 16.0177 2.54084 16.7288C2.45794 16.7279 2.37506 16.7269 2.29164 16.7264C2.29217 15.7269 2.29164 14.7269 2.29164 13.7274C4.09907 13.7274 5.90649 13.7274 7.71391 13.7274ZM17.6112 16.6081C17.7728 16.8642 17.7895 17.1736 17.7488 17.4625C17.6446 17.9727 17.1816 18.3985 16.6353 18.4845C16.4643 18.4991 16.2907 18.5011 16.1202 18.4786C15.6114 18.3828 15.2032 17.9952 15.0593 17.5333C15.0301 17.3183 15.0312 17.1008 15.0604 16.8857C15.2235 16.3667 15.7334 15.9341 16.3256 15.9302C16.8506 15.8857 17.3704 16.1746 17.6112 16.6081ZM5.45659 15.9532C5.96383 16.0568 6.38506 16.4576 6.49506 16.9322C6.53103 17.2181 6.53781 17.5275 6.38246 17.7865C6.15881 18.2044 5.67919 18.5114 5.17247 18.4952C4.44366 18.5397 3.7649 17.9151 3.78523 17.2328C3.75916 16.7704 4.04798 16.3173 4.47442 16.092C4.7648 15.9209 5.12607 15.9014 5.45659 15.9532Z" fill="black"/>
</svg>
