<svg width="20" height="32" viewBox="0 0 20 32" fill="none" xmlns="http://www.w3.org/2000/svg">
<path d="M2.46909 1.57712C2.71643 1.52085 2.97659 1.54899 3.22905 1.54223C7.62988 1.54899 12.0294 1.53886 16.429 1.54673C16.725 1.51747 16.9736 1.76733 16.8621 2.01944C16.6853 2.26255 16.3316 2.17589 16.0599 2.2029C12.2101 2.20965 8.36036 2.20402 4.5106 2.20628C3.82753 2.1984 3.14062 2.22766 2.45884 2.17701C2.13717 2.12749 2.14743 1.61201 2.46909 1.57712Z" fill="#48FDBC"/>
<path d="M3.32422 3.55218C7.76576 3.55078 12.2087 3.55218 16.6503 3.55078C16.5986 4.24355 16.5399 4.93632 16.5385 5.63328C16.2075 5.66121 15.8765 5.6668 15.5441 5.66401C11.5229 5.65563 7.50179 5.67099 3.48205 5.65702C3.46948 4.95168 3.36472 4.25472 3.32422 3.55218Z" fill="white"/>
<path d="M2.22266 7.00216C2.47056 6.8327 2.79167 6.88457 3.08196 6.8765C7.63278 6.88457 12.1836 6.87074 16.7344 6.88457C16.9669 7.09208 16.9464 7.43446 16.6137 7.54167C11.973 7.51976 7.32965 7.54167 2.68891 7.53129C2.53221 7.51976 2.38193 7.48633 2.23807 7.42869C2.23422 7.32263 2.22651 7.10937 2.22266 7.00216Z" fill="#48FDBC"/>
<path d="M3.32422 9.21649C7.76716 9.20951 12.2101 9.21509 16.653 9.2137C16.5818 9.91764 16.5916 10.63 16.4687 11.3283C12.1403 11.3255 7.81325 11.3311 3.48484 11.3255C3.46529 10.6202 3.36891 9.92043 3.32422 9.21649Z" fill="white"/>
<path d="M2.22266 13.2103C2.32219 13.0562 2.42429 12.852 2.65782 12.8831C7.29017 12.8747 11.9225 12.8688 16.5536 12.8867C16.9135 12.8568 17.0053 13.3464 16.7246 13.51C16.5051 13.5482 16.2792 13.5374 16.0584 13.541C11.5945 13.535 7.13065 13.5494 2.66675 13.535C2.43067 13.5721 2.32602 13.3643 2.22266 13.2103Z" fill="#48FDBC"/>
<path d="M4.0181 23.3097C3.82116 20.4968 3.52366 17.6894 3.32812 14.8778C7.76688 14.875 12.2056 14.8792 16.6444 14.875C16.4195 18.3333 16.0857 21.7873 15.7966 25.24C15.7421 25.7987 15.7645 26.3644 15.6695 26.9202C15.5954 27.9524 15.5284 28.9874 15.3929 30.014C15.3594 30.4134 14.946 30.6774 14.5647 30.6215C11.4863 30.6159 8.40797 30.6257 5.33101 30.6159C5.00418 30.6578 4.75417 30.4386 4.58517 30.1858C4.42734 27.891 4.16895 25.6031 4.0181 23.3097Z" fill="white"/>
<path d="M0.876292 0.838546C1.21569 0.346903 1.78415 -0.0399869 2.4029 0.00331115C7.48414 0.00610457 12.5668 0.00331145 17.648 0.00470816C18.7877 -0.0274162 19.6886 1.25616 19.2836 2.32046C19.1229 2.91266 18.602 3.30095 18.0559 3.51185C17.9804 4.21719 17.9497 4.92672 17.8477 5.62787C18.426 5.81084 18.9986 6.14186 19.2291 6.73686C19.676 7.68244 19.0741 8.91713 18.0586 9.15457C17.9902 9.87807 17.9274 10.6016 17.8589 11.3251C18.4302 11.4759 19.0014 11.7944 19.2179 12.3768C19.683 13.3224 19.088 14.5417 18.0866 14.8168C17.9162 15.9188 17.8659 17.0362 17.7933 18.148C17.5516 21.0224 17.2946 23.9039 17.0544 26.7783C17.0111 27.4836 16.979 28.1904 16.898 28.8943C16.8114 29.6555 16.8784 30.5019 16.3882 31.1486C15.9734 31.7268 15.2638 32.0174 14.5641 31.9992C11.3935 31.9936 8.223 32.0048 5.05246 31.9922C4.12365 31.8791 3.27584 31.1235 3.2074 30.1653C3.04818 28.1513 2.81772 26.1428 2.71157 24.1245C2.45877 21.0364 2.17244 17.9427 1.93779 14.8504C1.38609 14.645 0.926574 14.2372 0.687736 13.6953C0.627677 13.3042 0.627677 12.9075 0.684942 12.5151C0.941937 11.9229 1.46151 11.4787 2.09562 11.339C2.07327 10.6085 2.00763 9.88086 1.935 9.15457C1.43079 9.0135 1.00339 8.64617 0.772934 8.17687C0.299449 7.1866 0.954507 5.8304 2.07607 5.71168C2.09562 4.97561 2.00064 4.24513 1.94059 3.51325C1.38609 3.31212 0.92797 2.91685 0.689132 2.37353C0.627676 1.86234 0.557841 1.2841 0.876292 0.838546ZM1.95176 1.42935C1.60118 1.47265 1.59001 2.11235 1.94059 2.1738C2.68364 2.23665 3.43227 2.20034 4.17672 2.21012C8.37245 2.20732 13.2093 2.18282 17.405 2.17444C17.7011 2.14092 18.0866 2.24846 18.2793 1.94677C18.4008 1.63391 18.1299 1.32384 17.8072 1.36015C13.0123 1.35038 7.57632 1.39444 2.78001 1.38606C2.50486 1.39444 2.22133 1.35952 1.95176 1.42935ZM2.97236 3.28859C3.01286 3.99114 3.09567 5.24669 3.10824 5.95203C7.12798 5.966 11.5528 5.95203 15.5739 5.96041C15.9063 5.9632 16.6288 5.95418 16.9598 5.92625C16.9612 5.22929 17.0418 3.97793 17.0935 3.28516C12.652 3.28655 7.4139 3.28719 2.97236 3.28859ZM1.715 7.19498C1.71919 7.32488 1.72757 7.58327 1.73176 7.71177C1.88819 7.7816 2.05161 7.82211 2.22201 7.83607C7.26833 7.84864 12.909 7.80954 17.9553 7.83607C18.317 7.70618 18.3394 7.29136 18.0866 7.03995C13.138 7.02319 7.59795 7.05252 2.6494 7.04274C2.33374 7.05252 1.98456 6.98967 1.715 7.19498ZM2.92347 8.86246C2.96817 9.5664 3.09008 10.9132 3.10963 11.6185C7.43805 11.6241 12.5602 11.6165 16.8886 11.6192C17.0115 10.9209 16.9762 9.56157 17.0474 8.85763C12.6045 8.85903 7.36641 8.85548 2.92347 8.86246ZM1.61934 13.1136C1.73248 13.2937 1.84701 13.5368 2.1054 13.4935C6.9911 13.5102 12.5193 13.4816 17.405 13.4886C17.6466 13.4844 17.8938 13.4969 18.1341 13.4523C18.4413 13.2609 18.3408 12.6883 17.9469 12.7232C12.8782 12.7022 7.16569 12.7211 2.09562 12.7309C1.84002 12.6946 1.72829 12.9334 1.61934 13.1136ZM3.62602 23.3123C3.77686 25.6057 4.03526 27.8935 4.19308 30.1883C4.36209 30.4411 4.6121 30.6604 4.93893 30.6185C8.01589 30.6283 11.8894 30.6165 14.9677 30.622C15.349 30.6779 15.7625 30.4139 15.796 30.0145C15.9315 28.9879 15.9985 27.9529 16.0725 26.9208C16.1675 26.3649 16.1452 25.7992 16.1996 25.2405C16.4887 21.7878 16.81 18.0719 17.0349 14.6137C12.5961 14.6178 7.36222 14.6157 2.92347 14.6185C3.11901 17.4301 3.42908 20.4993 3.62602 23.3123Z" fill="black"/>
</svg>
