<svg width="24" height="24" viewBox="0 0 24 24" fill="none" xmlns="http://www.w3.org/2000/svg">
<path d="M18 7.98629C15.78 7.76629 13.5467 7.65295 11.32 7.65295C9.99748 7.65308 8.6758 7.71983 7.36 7.85295L6 7.98629" stroke="#EE283B" stroke-width="1.5" stroke-linecap="round" stroke-linejoin="round"/>
<path d="M9.66406 7.31282L9.81073 6.43949C9.9174 5.80616 9.9974 5.33282 11.1241 5.33282H12.8707C13.9974 5.33282 14.0841 5.83282 14.1841 6.44616L14.3307 7.31282" stroke="#EE283B" stroke-width="1.5" stroke-linecap="round" stroke-linejoin="round"/>
<path d="M16.5669 10.0926L16.1336 16.8059C16.0603 17.8526 16.0003 18.6659 14.1403 18.6659H9.86026C8.00026 18.6659 7.94026 17.8526 7.86693 16.8059L7.43359 10.0926" stroke="#EE283B" stroke-width="1.5" stroke-linecap="round" stroke-linejoin="round"/>
<path d="M10.8867 14.9989H13.1067" stroke="#EE283B" stroke-width="1.5" stroke-linecap="round" stroke-linejoin="round"/>
<path d="M10.332 12.3328H13.6654" stroke="#EE283B" stroke-width="1.5" stroke-linecap="round" stroke-linejoin="round"/>
</svg>
