<svg width="33" height="33" viewBox="0 0 33 33" fill="none" xmlns="http://www.w3.org/2000/svg">
<path d="M27.7646 3.32373H5.03493C4.51284 3.32373 4.01214 3.53113 3.64297 3.9003C3.2738 4.26947 3.06641 4.77017 3.06641 5.29225V28.0219C3.06641 28.544 3.2738 29.0447 3.64297 29.4138C4.01214 29.783 4.51284 29.9904 5.03493 29.9904H27.7646C28.2866 29.9904 28.7873 29.783 29.1565 29.4138C29.5257 29.0447 29.7331 28.544 29.7331 28.0219V5.29225C29.7331 4.77017 29.5257 4.26947 29.1565 3.9003C28.7873 3.53113 28.2866 3.32373 27.7646 3.32373ZM11.0146 26.0404H7.0053V13.3052H11.0146V26.0404ZM9.00715 11.5404C8.55237 11.5378 8.10853 11.4006 7.73167 11.1461C7.3548 10.8915 7.06178 10.531 6.8896 10.1101C6.71742 9.68912 6.67379 9.22661 6.76422 8.7809C6.85464 8.33519 7.07508 7.92626 7.39769 7.60571C7.7203 7.28516 8.13065 7.06736 8.57692 6.9798C9.0232 6.89224 9.48542 6.93883 9.90524 7.11371C10.3251 7.28859 10.6837 7.58392 10.9358 7.96241C11.188 8.34091 11.3223 8.78561 11.322 9.2404C11.3263 9.54488 11.2692 9.84711 11.1542 10.1291C11.0392 10.411 10.8686 10.667 10.6526 10.8816C10.4366 11.0962 10.1796 11.2652 9.89688 11.3783C9.61418 11.4915 9.3116 11.5466 9.00715 11.5404ZM25.7923 26.0515H21.7849V19.0941C21.7849 17.0423 20.9127 16.4089 19.7868 16.4089C18.5979 16.4089 17.4312 17.3052 17.4312 19.146V26.0515H13.422V13.3145H17.2775V15.0793H17.3294C17.7164 14.296 19.072 12.9571 21.1405 12.9571C23.3775 12.9571 25.7942 14.2848 25.7942 18.1737L25.7923 26.0515Z" fill="white"/>
</svg>
