<svg width="24" height="25" viewBox="0 0 24 25" fill="none" xmlns="http://www.w3.org/2000/svg">
<g clip-path="url(#clip0_10066_46798)">
<path d="M20.2481 12.6035C20.2481 14.2352 19.7642 15.8303 18.8577 17.187C17.9512 18.5437 16.6627 19.6011 15.1552 20.2255C13.6477 20.8499 11.9889 21.0133 10.3886 20.695C8.78821 20.3767 7.3182 19.5909 6.16442 18.4371C5.01064 17.2834 4.2249 15.8134 3.90657 14.213C3.58824 12.6127 3.75162 10.9539 4.37604 9.44638C5.00047 7.93889 6.05789 6.65041 7.4146 5.74389C8.7713 4.83737 10.3664 4.35352 11.9981 4.35352C14.1861 4.35352 16.2845 5.22271 17.8317 6.76988C19.3789 8.31706 20.2481 10.4155 20.2481 12.6035Z" stroke="black" stroke-width="2" stroke-linecap="round" stroke-linejoin="round"/>
<path d="M15.2973 12.6027C15.2973 13.2554 15.1037 13.8934 14.7411 14.4361C14.3785 14.9788 13.8631 15.4018 13.2601 15.6515C12.6571 15.9013 11.9936 15.9667 11.3535 15.8393C10.7133 15.712 10.1253 15.3977 9.66381 14.9362C9.2023 14.4747 8.88801 13.8867 8.76068 13.2465C8.63334 12.6064 8.6987 11.9429 8.94846 11.3399C9.19823 10.7369 9.6212 10.2215 10.1639 9.85888C10.7066 9.49628 11.3446 9.30273 11.9973 9.30273C12.8725 9.30273 13.7118 9.65041 14.3307 10.2693C14.9496 10.8882 15.2973 11.7275 15.2973 12.6027Z" stroke="black" stroke-width="2" stroke-linecap="round" stroke-linejoin="round"/>
<path d="M11.998 3.80352V1.60352" stroke="black" stroke-width="2" stroke-linecap="round" stroke-linejoin="round"/>
<path d="M3.19805 12.6035H0.998047" stroke="black" stroke-width="2" stroke-linecap="round" stroke-linejoin="round"/>
<path d="M11.998 21.4043V23.6043" stroke="black" stroke-width="2" stroke-linecap="round" stroke-linejoin="round"/>
<path d="M20.7988 12.6035H22.9988" stroke="black" stroke-width="2" stroke-linecap="round" stroke-linejoin="round"/>
</g>
<defs>
<clipPath id="clip0_10066_46798">
<rect width="24" height="24" fill="white" transform="translate(-0.00195312 0.603516)"/>
</clipPath>
</defs>
</svg>
