<svg width="48" height="49" viewBox="0 0 48 49" fill="none" xmlns="http://www.w3.org/2000/svg">
<path d="M5.23663 3.0231C5.20032 2.5715 5.6088 2.1267 6.06949 2.16301C14.5059 2.16074 22.9423 2.16301 31.3788 2.16187C31.8099 2.10627 32.2695 2.47051 32.2434 2.91871C32.2525 4.01936 32.2434 5.12115 32.2468 6.22293C23.243 6.22407 14.2393 6.22407 5.23663 6.2218C5.23663 5.15632 5.23322 4.08971 5.23663 3.0231Z" fill="#F7F7F7"/>
<path d="M14.093 19.8766C14.1917 19.872 14.2916 19.8686 14.3914 19.8652C14.9474 20.798 15.4853 21.7409 16.0311 22.6804C16.1582 22.879 16.2852 23.1218 16.536 23.1819C17.7444 23.5314 18.9688 23.8174 20.1784 24.1623C20.487 24.2281 20.8263 24.3847 21.1304 24.219C22.1368 23.6687 23.1047 23.0458 24.1123 22.4989C24.4618 22.3877 24.4369 22.7905 24.3563 23.0049C23.916 24.7274 23.4429 26.4419 23.006 28.1655C22.7326 29.0347 22.5828 29.9379 22.2866 30.8003C22.0744 31.472 21.4901 31.9826 20.8342 32.2027C19.5826 32.5329 18.3368 32.8892 17.0841 33.216C16.3442 33.3646 15.5624 33.0583 15.0462 32.5261C14.2144 31.6955 13.3793 30.8683 12.5487 30.0366C12.2616 29.7563 12.0767 29.3978 11.953 29.0199C11.8894 28.6375 11.8792 28.2461 11.9598 27.8659C12.004 27.7162 12.0381 27.563 12.0744 27.4121C12.4954 25.8485 12.9061 24.2837 13.3112 22.7156C13.5972 21.7761 13.7674 20.8048 14.093 19.8766ZM15.1052 26.8742C15.2447 27.1499 15.4762 27.4484 15.828 27.3962C16.3771 27.437 16.5315 26.8084 16.629 26.392C16.8549 25.8587 16.2512 25.2369 15.7134 25.4672C15.1835 25.7112 15.1869 26.3784 15.1052 26.8742ZM19.4272 26.4793C18.9847 26.7222 18.9313 27.2918 18.9075 27.7423C18.8633 28.2449 19.4998 28.5763 19.9106 28.321C20.2896 28.0815 20.3315 27.5834 20.4291 27.1874C20.4904 26.6677 19.8981 26.2615 19.4272 26.4793ZM16.4509 28.7079C16.0515 28.97 16.0481 29.6213 16.4509 29.8823C16.7414 30.0468 17.0829 30.1126 17.4143 30.1251C17.8761 30.1898 18.2063 29.6542 18.0701 29.2446C18.0032 28.9348 17.6945 28.7782 17.4131 28.7113C17.1079 28.6285 16.7323 28.4957 16.4509 28.7079Z" fill="#F7F7F7"/>
<path d="M26.2771 32.199C27.0805 31.4274 28.5794 31.6861 29.0571 32.7005C29.1864 33.0296 29.5257 33.311 29.8979 33.2293C30.2769 33.1363 30.421 32.7448 30.6207 32.4566C31.2141 31.5897 32.6246 31.5091 33.3235 32.2898C33.6288 32.5576 33.6968 33.0546 34.1076 33.2009C34.4401 33.336 34.8281 33.1249 34.9643 32.8083C35.2003 32.3374 35.6201 31.9392 36.1364 31.803C36.6391 31.7258 37.211 31.7202 37.6251 32.0594C38.163 32.4067 38.424 33.0568 38.4274 33.6798C38.4217 34.0905 38.8166 34.3595 39.1944 34.3799C39.9059 34.4457 40.4267 35.0391 40.657 35.6768C37.4867 35.7018 34.3164 35.6757 31.1461 35.6893C30.8488 35.6848 30.5492 35.8709 30.4618 36.1613C30.2689 36.6005 30.6718 37.1644 31.1529 37.1145C35.0176 37.1304 38.8824 37.0918 42.746 37.1338C43.1318 37.3993 43.2782 37.8634 43.4835 38.2628C44.3221 39.9149 45.147 41.575 45.9867 43.2271C46.124 43.5346 46.1591 43.8784 46.1569 44.2131C46.1546 45.0528 46.1523 45.8924 46.158 46.7321C46.0695 47.0532 45.8165 47.3766 45.45 47.3483C36.2783 47.3551 27.1054 47.3539 17.9337 47.3494C17.936 46.2306 17.9337 45.1129 17.9337 43.9941C17.9314 43.7547 17.9609 43.5141 18.0687 43.2985C18.9878 41.4558 19.9228 39.6221 20.8431 37.7817C20.9906 37.498 21.1664 37.1088 21.5443 37.1236C23.5709 37.1077 25.5974 37.119 27.624 37.1179C27.8044 37.1088 28.003 37.1383 28.1607 37.0294C28.5998 36.8297 28.6531 36.1296 28.2685 35.8538C28.1232 35.7347 27.9349 35.6814 27.7499 35.687C26.3145 35.6814 24.878 35.6938 23.4415 35.6814C23.6208 35.1265 24.0225 34.6613 24.5637 34.4355C24.996 34.3856 25.5838 34.2914 25.6632 33.7683C25.6859 33.1987 25.8073 32.5746 26.2771 32.199ZM29.0435 39.4156C28.399 39.5563 27.7851 39.9013 27.3687 40.4176C26.5369 41.3968 26.5142 42.9672 27.3165 43.9703C27.86 44.6931 28.7689 45.1027 29.6675 45.088C31.2221 45.0891 32.7777 45.0868 34.3323 45.0891C35.6043 45.156 36.8887 44.3186 37.2325 43.0727C37.5015 42.3193 37.3585 41.4751 36.9784 40.7863C36.4678 39.9081 35.459 39.3328 34.4401 39.3759C32.6416 39.4009 30.8386 39.326 29.0435 39.4156Z" fill="#F7F7F7"/>
<path d="M28.2249 33.1187C27.8087 32.0895 26.5027 31.827 25.8027 32.6099C25.3934 32.9909 25.2876 33.6241 25.2678 34.202C25.1986 34.7328 24.6865 34.8283 24.3098 34.879C23.8382 35.1081 23.4882 35.5801 23.332 36.1431C24.5837 36.1557 27.086 36.1488 27.086 36.1488L30.0451 36.1511C30.0451 36.1511 35.5697 36.1638 38.332 36.1385C38.1313 35.4915 37.6775 34.8893 37.0576 34.8226C36.7284 34.8019 36.3844 34.529 36.3893 34.1122C36.3863 33.4802 36.159 32.8205 35.6903 32.4683C35.3295 32.124 34.8312 32.1298 34.3932 32.2081C33.9434 32.3462 33.5775 32.7503 33.3719 33.2281C33.2533 33.5493 32.9151 33.7634 32.6255 33.6264C32.2676 33.4779 32.2083 32.9737 31.9423 32.702C31.3333 31.9099 30.1044 31.9916 29.5873 32.8712C29.4133 33.1636 29.2877 33.5608 28.9575 33.6552C28.6332 33.7381 28.3376 33.4526 28.2249 33.1187Z" fill="#48FDBC"/>
<path d="M8.65751 38.1862C9.8705 36.0643 11.1709 33.9867 12.4281 31.8887C12.8604 32.3494 13.3234 32.7794 13.7659 33.2299C14.0779 33.5317 14.373 33.8608 14.7508 34.0832C15.4339 34.5314 16.2804 34.6993 17.0871 34.621C18.0732 34.4905 19.0002 34.0956 19.9738 33.9073C20.0044 34.7084 19.9602 35.514 20.0555 36.3128C18.9662 38.277 18.0244 40.3251 16.9816 42.3176C16.6911 42.8623 16.5198 43.4773 16.5323 44.0979C16.5334 45.1816 16.5323 46.2663 16.5334 47.35C13.9043 47.3511 11.2752 47.3522 8.64617 47.35C8.65411 44.2954 8.63142 41.2397 8.65751 38.1862Z" fill="#F7F7F7"/>
<path d="M29.0409 40.8861C29.3529 40.776 29.6865 40.7839 30.0121 40.7862C31.5304 40.7942 33.0497 40.7794 34.5679 40.7942C35.3407 40.7942 36.026 41.5226 35.9681 42.2931C35.9523 43.0204 35.2964 43.6524 34.5747 43.6785C32.8999 43.6888 31.2251 43.6831 29.5515 43.6808C28.8491 43.6774 28.2148 43.0953 28.1263 42.4054C28.0332 41.77 28.4497 41.113 29.0409 40.8861Z" fill="#F7F7F7"/>
<path d="M3.91968 44.7889C4.1296 44.436 4.28959 44.0457 4.5778 43.7461C5.23819 44.9523 5.91333 46.1516 6.59755 47.3453C5.58995 47.3533 4.58234 47.3533 3.57587 47.3465C3.22979 47.359 2.91548 47.2046 2.625 47.0356C3.0698 46.2935 3.47942 45.5332 3.91968 44.7889Z" fill="#F7F7F7"/>
<path d="M4.0037 2.10854C4.35546 1.30518 5.18265 0.742373 6.06657 0.759393C14.5416 0.758259 23.0166 0.755989 31.4905 0.760527C32.565 0.75145 33.5238 1.62062 33.6543 2.68043C33.7258 4.05567 33.6146 5.44453 33.7088 6.81524C34.7255 8.92463 35.8148 10.9988 36.8292 13.1094C37.1446 13.9411 37.0538 14.8591 37.0765 15.7328C37.0709 16.1299 37.1367 16.653 36.7463 16.8981C36.3537 17.2158 35.7285 16.9117 35.6627 16.434C35.623 15.684 35.6718 14.9317 35.6423 14.1805C35.6082 13.6744 35.3427 13.2285 35.1124 12.7905C34.2625 11.0601 33.382 9.3456 32.5366 7.61406C23.5794 7.61746 14.6233 7.60612 5.66602 7.61973C6.36046 8.91442 6.97886 10.2499 7.65627 11.5537C8.05568 12.4263 8.64572 13.2671 8.64459 14.2656C8.65367 21.3302 8.63891 28.3948 8.65139 35.4594C9.53872 33.9071 10.4998 32.398 11.4008 30.8537C10.8572 30.267 10.5588 29.4762 10.4794 28.6875C10.4158 28.0691 10.6008 27.4632 10.7744 26.8777C11.3622 24.5868 11.9794 22.3026 12.574 20.014C12.6671 19.4182 13.0097 18.8316 13.585 18.5945C14.2885 18.2257 15.2054 18.5423 15.6252 19.1902C16.163 20.0979 16.6827 21.0182 17.2228 21.9248C18.3882 22.2119 19.541 22.5466 20.7052 22.8371C21.6697 22.3117 22.5933 21.716 23.5612 21.1974C24.4134 20.8185 25.4845 21.3325 25.7546 22.2164C25.9725 22.7985 25.699 23.3919 25.556 23.9559C24.9626 26.2355 24.3601 28.5105 23.7587 30.7878C23.5011 32.0292 22.5604 33.0879 21.3667 33.5088C21.3962 34.2362 21.411 34.9624 21.4303 35.6897C21.6277 35.6863 21.8252 35.6852 22.0226 35.6829C22.186 34.4597 23.1153 33.409 24.2897 33.0504C24.5008 31.9384 25.2746 30.9183 26.3605 30.5439C27.46 30.0923 28.8035 30.3839 29.6511 31.2054C29.7544 31.3121 29.886 31.1839 29.9654 31.1146C30.3614 30.7379 30.8834 30.5337 31.4054 30.3987C32.447 30.1626 33.5613 30.5496 34.3238 31.2769C34.713 30.9422 35.1374 30.6392 35.64 30.4996C35.6673 26.8618 35.6355 20.2229 35.6548 16.585C35.6536 16.1403 36.1574 15.7386 36.5829 15.9337C36.8746 16.0177 37.0107 16.3059 37.0777 16.5771C37.0709 20.1684 37.0788 26.7608 37.0743 30.3521C38.2861 30.5541 39.3198 31.4437 39.6931 32.6147C39.7113 32.7497 39.7294 32.8859 39.7487 33.0221C40.9345 33.3965 41.8967 34.4336 42.0635 35.6829C42.9281 35.6057 43.8518 35.9723 44.2898 36.7518C45.0693 38.2734 45.8307 39.8064 46.6045 41.3325C46.9824 42.1529 47.5509 42.9427 47.552 43.8822C47.5543 44.8501 47.5622 45.8191 47.5475 46.7881C47.4907 47.8581 46.5194 48.7693 45.4449 48.7534C31.7151 48.7591 17.9842 48.7534 4.25447 48.7557C3.74499 48.7602 3.22417 48.7716 2.73285 48.6138C1.40866 48.2564 0.448716 46.9379 0.449851 45.5774C0.447581 44.1772 0.446447 42.777 0.449851 41.3768C0.416945 40.9377 0.891245 40.5553 1.31448 40.6676C1.58341 40.7402 1.84779 40.9683 1.84325 41.2667C1.858 42.6987 1.83985 44.1318 1.85119 45.5649C2.51612 44.403 3.20148 43.2513 3.83917 42.0758C3.87548 38.3721 3.83236 34.6662 3.86073 30.9626C3.87662 30.4406 4.57332 30.107 4.97273 30.4701C5.30633 30.7096 5.23484 31.151 5.24052 31.5072C5.24505 35.0316 5.2235 38.5571 5.25186 42.0814C5.90544 43.2695 6.5681 44.4552 7.24778 45.6296C7.24778 35.4026 7.24665 25.1757 7.24778 14.9487C7.24778 14.4596 7.29317 13.9411 7.05148 13.494C6.44442 12.2981 5.8646 11.0873 5.24052 9.89933C5.23371 14.7569 5.24732 19.6145 5.23371 24.4722C5.26548 24.9056 4.77189 25.2846 4.36226 25.1371C4.02299 25.0543 3.82556 24.6946 3.85279 24.361C3.85052 19.5385 3.85619 14.7172 3.85052 9.89479C3.22304 11.1112 2.62846 12.3435 2.00778 13.5632C1.79786 14.0716 1.85233 14.6333 1.84892 15.1711C1.84665 22.811 1.85233 34.452 1.84552 42.093C1.8807 42.4776 1.51646 42.7148 1.1908 42.8067C1.00358 42.7284 0.769834 42.7182 0.640479 42.5435C0.394251 42.3029 0.45439 41.9421 0.446447 41.6334C0.45212 33.8415 0.444177 22.0485 0.450985 14.2565C0.440773 13.3204 0.986559 12.5193 1.37235 11.7058C2.18933 10.0559 3.0256 8.41629 3.83463 6.76191C3.88229 5.45928 3.83123 4.15212 3.85733 2.84722C3.86981 2.59532 3.9447 2.3525 4.0037 2.10854ZM5.23938 3.0231C5.23598 4.08971 5.23938 5.15632 5.23938 6.22179C14.242 6.22406 23.2458 6.22406 32.2496 6.22293C32.2462 5.12114 32.2552 4.01936 32.2462 2.91871C32.2723 2.47051 31.8127 2.10627 31.3815 2.16187C22.9451 2.16301 14.5087 2.16074 6.07224 2.16301C5.61156 2.1267 5.20307 2.57149 5.23938 3.0231ZM14.0922 19.8767C13.7666 20.8048 13.5964 21.7761 13.3104 22.7157C12.9054 24.2838 12.4946 25.8485 12.0736 27.4121C12.0373 27.5631 12.0033 27.7162 11.959 27.866C11.8785 28.2461 11.8887 28.6376 11.9522 29.02C12.0759 29.3979 12.2608 29.7564 12.5479 30.0367C13.3785 30.8684 14.2137 31.6956 15.0454 32.5262C15.5617 33.0584 16.3435 33.3647 17.0833 33.2161C18.336 32.8893 19.5819 32.533 20.8334 32.2028C21.4893 31.9827 22.0737 31.4721 22.2858 30.8003C22.582 29.938 22.7318 29.0348 23.0052 28.1656C23.4421 26.442 23.9153 24.7275 24.3555 23.005C24.4361 22.7906 24.461 22.3877 24.1116 22.4989C23.104 23.0459 22.1361 23.6688 21.1296 24.2191C20.8255 24.3848 20.4862 24.2282 20.1776 24.1624C18.968 23.8174 17.7437 23.5315 16.5352 23.182C16.2845 23.1219 16.1574 22.8791 16.0303 22.6805C15.4845 21.741 14.9467 20.798 14.3907 19.8653C14.2908 19.8687 14.191 19.8721 14.0922 19.8767ZM26.2765 32.1983C25.8068 32.5739 25.6854 33.1979 25.6627 33.7675C25.5833 34.2906 24.9955 34.3848 24.5632 34.4347C24.0219 34.6606 23.6202 35.1258 23.441 35.6806C24.8775 35.6931 26.314 35.6806 27.7494 35.6863C27.9343 35.6806 28.1227 35.734 28.2679 35.8531C28.6526 36.1288 28.5993 36.8289 28.1601 37.0286C28.0024 37.1376 27.8038 37.1081 27.6234 37.1172C25.5969 37.1183 23.5703 37.1069 21.5438 37.1228C21.1659 37.1081 20.99 37.4973 20.8425 37.7809C19.9223 39.6214 18.9873 41.4551 18.0682 43.2978C17.9604 43.5134 17.9309 43.754 17.9332 43.9934C17.9332 45.1122 17.9354 46.2299 17.9332 47.3487C27.1049 47.3532 36.2777 47.3543 45.4494 47.3475C45.8159 47.3759 46.069 47.0525 46.1575 46.7314C46.1518 45.8917 46.1541 45.052 46.1563 44.2124C46.1586 43.8776 46.1234 43.5338 45.9861 43.2263C45.1465 41.5742 44.3215 39.9142 43.483 38.2621C43.2776 37.8626 43.1312 37.3986 42.7454 37.133C38.8818 37.0911 35.0171 37.1296 31.1523 37.1138C30.6712 37.1637 30.2684 36.5997 30.4613 36.1606C30.5487 35.8701 30.8482 35.684 31.1455 35.6886C34.3158 35.675 37.4862 35.7011 40.6565 35.6761C40.4261 35.0384 39.9053 34.445 39.1939 34.3791C38.816 34.3587 38.4211 34.0898 38.4268 33.679C38.4234 33.0561 38.1624 32.4059 37.6246 32.0587C37.2104 31.7194 36.6385 31.7251 36.1359 31.8023C35.6196 31.9384 35.1998 32.3367 34.9637 32.8076C34.8276 33.1242 34.4395 33.3352 34.107 33.2002C33.6963 33.0538 33.6282 32.5568 33.323 32.289C32.624 31.5084 31.2136 31.5889 30.6201 32.4558C30.4204 32.7441 30.2763 33.1355 29.8973 33.2286C29.5252 33.3103 29.1859 33.0289 29.0565 32.6998C28.5788 31.6854 27.0799 31.4267 26.2765 32.1983ZM8.6582 38.1872C8.63211 41.2406 8.6548 44.2963 8.64686 47.3509C11.2759 47.3532 13.905 47.3521 16.5341 47.3509C16.533 46.2673 16.5341 45.1825 16.533 44.0989C16.5205 43.4782 16.6918 42.8632 16.9823 42.3186C18.0251 40.3261 18.9669 38.2779 20.0562 36.3138C19.9609 35.515 20.0051 34.7093 19.9745 33.9082C19.0009 34.0966 18.0739 34.4915 17.0878 34.622C16.2811 34.7003 15.4346 34.5323 14.7515 34.0841C14.3736 33.8617 14.0786 33.5327 13.7666 33.2308C13.3241 32.7804 12.8611 32.3503 12.4288 31.8896C11.1715 33.9877 9.87119 36.0653 8.6582 38.1872ZM3.92087 44.7899C3.48061 45.5343 3.07099 46.2945 2.62619 47.0366C2.91667 47.2057 3.23098 47.36 3.57706 47.3475C4.58353 47.3543 5.59113 47.3543 6.59874 47.3464C5.91452 46.1527 5.23938 44.9533 4.57899 43.7472C4.29078 44.0467 4.13079 44.437 3.92087 44.7899Z" fill="black"/>
<path d="M27.6117 13.9981C27.808 13.8166 28.0848 13.8472 28.3311 13.8438C29.3148 13.8506 30.2997 13.8382 31.2835 13.8484C31.7306 13.8393 32.1368 14.351 31.9473 14.7788C31.8565 15.0693 31.5717 15.2145 31.2949 15.2803C30.2657 15.2747 29.2354 15.2803 28.2062 15.2781C27.8829 15.2917 27.5379 15.1544 27.3881 14.8526C27.2792 14.5564 27.3348 14.1831 27.6117 13.9981Z" fill="black"/>
<path d="M27.7891 16.5157C28.8636 16.3932 29.9666 16.4998 31.0525 16.4613C31.4212 16.4045 31.8218 16.5895 31.9511 16.9537C32.1452 17.4258 31.6572 17.9557 31.1727 17.8966C30.0778 17.8796 28.9771 17.9318 27.8855 17.8705C27.2195 17.7514 27.1446 16.7256 27.7891 16.5157Z" fill="black"/>
<path d="M20.6117 13.9981C20.808 13.8166 21.0848 13.8472 21.3311 13.8438C22.3148 13.8506 23.2997 13.8382 24.2835 13.8484C24.7306 13.8393 25.1368 14.351 24.9473 14.7788C24.8565 15.0693 24.5717 15.2145 24.2949 15.2803C23.2657 15.2747 22.2354 15.2803 21.2062 15.2781C20.8829 15.2917 20.5379 15.1544 20.3881 14.8526C20.2792 14.5564 20.3348 14.1831 20.6117 13.9981Z" fill="black"/>
<path d="M15.1055 26.8743C15.1872 26.3785 15.1838 25.7113 15.7137 25.4673C16.2515 25.237 16.8552 25.8588 16.6294 26.3921C16.5318 26.8085 16.3775 27.4371 15.8283 27.3963C15.4765 27.4485 15.245 27.15 15.1055 26.8743Z" fill="black"/>
<path d="M19.4281 26.48C19.899 26.2622 20.4913 26.6684 20.4301 27.1881C20.3325 27.5841 20.2905 28.0822 19.9115 28.3216C19.5007 28.5769 18.8642 28.2456 18.9084 27.7429C18.9323 27.2925 18.9856 26.7228 19.4281 26.48Z" fill="black"/>
<path d="M16.4493 28.7081C16.7307 28.4959 17.1063 28.6286 17.4115 28.7115C17.6929 28.7784 18.0015 28.935 18.0685 29.2448C18.2046 29.6544 17.8744 30.19 17.4126 30.1253C17.0813 30.1128 16.7398 30.047 16.4493 29.8825C16.0465 29.6215 16.0499 28.9702 16.4493 28.7081Z" fill="black"/>
<path d="M29.0444 39.4147C30.8395 39.325 32.6425 39.3999 34.441 39.3749C35.46 39.3318 36.4687 39.9071 36.9793 40.7854C37.3594 41.4741 37.5024 42.3183 37.2335 43.0718C36.8897 44.3177 35.6052 45.1551 34.3332 45.0881C32.7787 45.0858 31.223 45.0881 29.6685 45.087C28.7698 45.1017 27.8609 44.6921 27.3174 43.9693C26.5152 42.9662 26.5379 41.3958 27.3696 40.4166C27.7861 39.9003 28.3999 39.5554 29.0444 39.4147ZM29.0422 40.8852C28.451 41.1122 28.0346 41.7691 28.1276 42.4046C28.2161 43.0945 28.8504 43.6766 29.5528 43.68C31.2264 43.6822 32.9012 43.6879 34.576 43.6777C35.2977 43.6516 35.9536 43.0196 35.9694 42.2922C36.0273 41.5218 35.342 40.7933 34.5692 40.7933C33.051 40.7786 31.5317 40.7933 30.0135 40.7854C29.6878 40.7831 29.3542 40.7752 29.0422 40.8852Z" fill="black"/>
</svg>
