<svg width="58" height="49" viewBox="0 0 58 49" fill="none" xmlns="http://www.w3.org/2000/svg">
<path d="M21.7462 29.3072C22.2926 28.4786 22.8873 27.6724 23.4336 26.8438C23.7293 27.6787 23.8698 28.5552 24.3465 29.3424C24.7939 30.0394 25.4538 30.6517 26.2812 31.0737C26.6882 31.3018 27.1558 31.4416 27.583 31.6418C29.4256 32.4551 30.9275 33.7662 31.7617 35.3162C31.8966 35.5624 32.0438 35.8681 32.4114 35.9339C32.7082 36.0034 33.0106 35.8861 33.2018 35.7067C34.7678 34.4425 35.44 32.4948 34.8352 30.7725C35.757 31.1467 36.6811 31.5525 37.4242 32.1386C38.6563 33.0737 39.4838 34.3505 39.7075 35.7013C39.9627 37.0322 39.6895 38.4136 39.0543 39.6544C38.6676 40.5498 38.1999 41.4226 37.8278 42.3226C37.603 42.7797 38.3157 43.2775 38.8441 43.0205C39.6355 42.6183 40.4303 42.2125 41.1521 41.7337C42.3212 40.9592 43.1925 39.9402 43.8467 38.8537C44.2413 39.5723 44.7247 40.2784 44.8776 41.0629C45.0912 41.9105 45.0148 42.7933 44.7292 43.6228C44.4594 44.3767 43.9108 45.0322 43.4139 45.6986C42.8811 46.4136 42.3426 47.1269 41.8131 47.8438C33.1804 47.8392 24.5488 47.8483 15.9162 47.8392C15.263 47.0728 14.5109 46.3379 14.1298 45.4479C13.4767 44.1386 13.416 42.6544 13.8668 41.2973C14.4648 39.9763 14.5593 38.5128 14.1017 37.1548C13.7521 36.2459 13.335 35.355 13 34.4425C14.0466 34.7085 15.1719 34.814 16.1399 35.254C17.5013 35.8816 18.3276 37.1584 18.2118 38.4118C18.1825 38.7464 18.0409 39.0674 18.0162 39.4028C18.0162 40.0286 18.4164 40.6544 19.0808 40.9925C19.6316 41.2712 20.3241 41.3803 20.9615 41.2558C21.8317 41.117 22.5478 40.5263 22.7366 39.8356C23.0166 39.0845 23.2459 38.3226 23.509 37.5678C23.953 35.9502 23.6821 34.2062 22.704 32.7437C22.423 32.2468 21.9362 31.8438 21.6799 31.337C21.382 30.6878 21.391 29.9402 21.7462 29.3072ZM36.5856 37.7671C36.3495 37.8447 36.1753 38.0223 36.1404 38.2252C36.0201 38.7842 35.8897 39.3514 35.5693 39.8636C35.4445 40.0475 35.4367 40.2802 35.5884 40.4569C35.8301 40.8356 36.6305 40.8266 36.8588 40.4416C37.2803 39.7833 37.5389 39.0529 37.5771 38.3126C37.6086 37.9096 37.0398 37.612 36.5856 37.7671ZM29.4458 40.5489C29.4481 41.2522 29.4436 41.9556 29.4481 42.6589C29.565 42.8203 29.71 42.9862 29.9416 43.0493C30.4036 43.2071 30.9612 42.86 30.9298 42.4668C30.9365 41.8924 30.9343 41.3181 30.9309 40.7437C30.9478 40.4903 30.7488 40.2306 30.4419 40.1539C30.036 40.0331 29.5875 40.2306 29.4458 40.5489ZM34.6812 41.0214C34.3709 41.1648 34.1618 41.4136 33.9617 41.6445C33.6885 42.0187 34.1315 42.5218 34.6542 42.4885C35.1455 42.4777 35.3928 42.0854 35.6604 41.814C36.0033 41.3478 35.2635 40.768 34.6812 41.0214ZM15.7071 41.9853C15.5092 42.0881 15.3574 42.2621 15.3608 42.4569C15.2979 43.7319 15.951 45.0205 17.0977 45.9033C17.3551 46.1089 17.7936 46.1179 18.0611 45.9195C18.4175 45.7121 18.4197 45.2513 18.0881 45.0268C17.2607 44.3487 16.7874 43.401 16.8369 42.4497C16.8425 42.0115 16.1489 41.7446 15.7071 41.9853ZM26.4735 42.5489C26.4903 43.3749 26.433 44.2044 26.5038 45.0277C26.6769 45.6003 27.7854 45.575 27.9596 45.0142C27.954 44.1612 27.9675 43.3081 27.9551 42.456C27.9551 42.2162 27.7438 41.9898 27.4538 41.9294C26.9692 41.7779 26.4161 42.1404 26.4735 42.5489ZM29.9202 44.3162C29.6943 44.3803 29.5616 44.5435 29.4492 44.7022C29.4537 45.1954 29.4267 45.6896 29.4593 46.1828C29.5346 46.5363 30.0034 46.7013 30.4104 46.649C30.6285 46.5318 30.8769 46.3929 30.914 46.1666C30.9545 45.7428 30.9286 45.3162 30.9298 44.8915C30.968 44.4876 30.3823 44.1422 29.9202 44.3162Z" fill="#48FDBC"/>
<path d="M10.0312 43.8926C10.5401 43.6156 11.0417 43.3263 11.564 43.0762C11.6483 43.3495 11.719 43.6278 11.7678 43.9109C11.1894 43.9072 10.6097 43.9317 10.0312 43.8926Z" fill="#F7F7F7"/>
<path d="M47.663 43.3535C47.9937 43.5402 48.3257 43.7245 48.6625 43.9002C48.2403 43.9137 47.8168 43.9137 47.3945 43.9088C47.4751 43.7184 47.5666 43.5354 47.663 43.3535Z" fill="#F7F7F7"/>
<path d="M7.91575 45.5265C9.43756 45.5314 10.9606 45.5107 12.4824 45.5375C12.7594 46.1001 13.1133 46.6224 13.477 47.1325C11.2889 47.1435 9.09951 47.1411 6.91016 47.1338C7.13715 46.5358 7.48984 46 7.91575 45.5265Z" fill="#F7F7F7"/>
<path d="M46.3899 45.5271C47.8434 45.5259 49.2956 45.5234 50.7491 45.5283C51.175 45.9994 51.5203 46.5388 51.7449 47.1343C49.6446 47.1392 47.5444 47.149 45.4453 47.1294C45.7443 46.5864 46.097 46.0738 46.3899 45.5271Z" fill="#F7F7F7"/>
<path d="M22.6896 0.816314C23.0839 0.664185 23.6014 0.833755 23.7594 1.14867C23.9658 1.46746 23.6126 1.78141 23.6698 2.10893C23.6574 2.45873 24.0504 2.69225 24.2072 2.99747C24.6972 3.762 24.5219 4.71643 23.8514 5.38115C23.5728 5.63696 23.7681 6.01583 23.4969 6.27358C23.2009 6.58849 22.5242 6.60497 22.2269 6.28327C21.9632 6.06912 22.013 5.74839 22.0652 5.48096C22.1485 5.0517 22.4819 4.69415 22.7531 4.32691C22.9732 3.99552 22.8277 3.60018 22.5478 3.31917C22.0752 2.79399 21.8948 2.11765 22.1087 1.4946C22.2058 1.23297 22.3463 0.937435 22.6896 0.816314Z" fill="black"/>
<path d="M29.0377 0.933994C29.4137 0.615057 30.1532 0.755622 30.3505 1.14339C30.5004 1.50401 30.1881 1.85203 30.2643 2.21362C30.368 2.57327 30.7502 2.82919 30.9026 3.17236C31.1224 3.67646 31.1162 4.2329 30.9026 4.737C30.7452 5.06756 30.413 5.32446 30.2643 5.65697C30.2568 5.89738 30.2556 6.16882 29.992 6.33362C29.5861 6.6826 28.7817 6.49551 28.6255 6.05539C28.5156 5.53773 28.7405 5.01425 29.1264 4.59449C29.4399 4.27943 29.5261 3.81896 29.2476 3.47288C28.9653 3.11129 28.633 2.74292 28.6131 2.30377C28.5743 1.83555 28.6018 1.29558 29.0377 0.933994Z" fill="black"/>
<path d="M35.4766 1.04979C35.7848 0.656862 36.575 0.664623 36.8695 1.06435C37.1901 1.38743 36.79 1.74543 36.8335 2.09373C36.831 2.39644 37.1031 2.6322 37.282 2.88348C37.6734 3.36179 37.7181 3.96914 37.5666 4.51148C37.4386 5.01308 36.8335 5.36138 36.8198 5.88917C36.7987 6.22389 36.4185 6.55376 35.9674 6.51398C35.5661 6.52563 35.2915 6.26076 35.1797 5.98813C35.2083 5.5952 35.2356 5.17704 35.5114 4.83456C35.6866 4.61529 35.8767 4.40185 36.001 4.16027C36.1638 3.53255 35.3623 3.15029 35.2691 2.56816C35.12 2.06463 35.1747 1.51258 35.4766 1.04979Z" fill="black"/>
<path d="M14.0794 10.6613C14.6551 10.2809 15.4178 10.2286 16.039 10.5306C17.1755 11.0382 17.5594 12.6899 16.7104 13.6202C15.9901 14.5806 14.4029 14.5549 13.668 13.6292C12.8736 12.7769 13.1122 11.28 14.0794 10.6613Z" fill="white"/>
<path d="M18.5635 9.45692C19.2699 9.47937 19.9764 9.48595 20.6829 9.49253C21.0143 11.4392 20.9905 13.4402 20.5802 15.375C19.8741 15.3406 19.1676 15.3498 18.4603 15.3317C18.8602 13.4038 18.8926 11.398 18.5635 9.45692Z" fill="white"/>
<path d="M22.4891 14.4767C22.5348 13.1361 22.5134 11.7929 22.5754 10.4534C23.8994 10.4941 25.2249 10.5065 26.5493 10.5258C26.5629 11.8565 26.4885 13.1851 26.5059 14.5155C25.1664 14.5301 23.8287 14.4528 22.4891 14.4767Z" fill="white"/>
<path d="M28.9604 10.9711C29.7354 10.3764 30.964 10.4961 31.6003 11.2407C32.1273 11.81 32.2986 12.7137 31.9475 13.4172C31.6841 14.0647 31.0201 14.471 30.3479 14.5665C29.3794 14.7025 28.3825 13.98 28.1885 13.0276C28.0183 12.2608 28.322 11.4329 28.9604 10.9711Z" fill="white"/>
<path d="M33.7665 10.6559C35.092 10.6683 36.4176 10.7096 37.742 10.7131C37.8075 12.0448 37.696 13.3795 37.7187 14.713C36.383 14.7207 35.048 14.6502 33.7117 14.6661C33.7205 13.3289 33.7731 11.9921 33.7665 10.6559Z" fill="white"/>
<path d="M39.6245 15.6966C39.2304 13.7613 39.2597 11.7224 39.7265 9.79983C40.4066 9.82257 41.0879 9.86071 41.7682 9.83586C41.4623 11.7804 41.3577 13.7712 41.702 15.7204C41.0088 15.7044 40.3158 15.6857 39.6245 15.6966Z" fill="white"/>
<path d="M43.3155 12.1746C43.7714 11.5651 44.8514 11.6511 45.1231 12.3919C45.4965 13.0946 44.8309 13.9861 44.0574 13.8844C43.2539 13.8572 42.8074 12.7859 43.3155 12.1746Z" fill="white"/>
<mask id="path-16-inside-1_10004_18123" fill="white">
<path fill-rule="evenodd" clip-rule="evenodd" d="M9.16421 12.9902C8.34823 13.0009 7.68494 13.0258 7.60646 13.0779C7.49338 13.2174 7.42591 13.3838 7.35853 13.5499C7.32167 13.6408 7.28483 13.7317 7.24057 13.818C6.50241 15.3198 4.61275 16.1219 3.0234 15.5832C1.50465 15.1185 0.444033 13.5075 0.625714 11.9269C0.722221 10.1805 2.35957 8.71202 4.09734 8.75502C4.58636 8.77391 4.91099 9.24349 4.83985 9.70709C4.80016 9.79697 4.76157 9.88731 4.72252 9.97874C4.50252 10.2569 4.15583 10.2997 3.82888 10.34C3.81325 10.3419 3.79766 10.3438 3.78214 10.3458C2.81099 10.4773 2.03324 11.4519 2.17654 12.4317C2.25481 13.3117 2.98767 14.0857 3.87245 14.1694C4.66874 14.2845 5.47192 13.825 5.84548 13.1252C5.85897 13.0919 5.87242 13.0583 5.88591 13.0247C6.06352 12.5815 6.25027 12.1156 6.67055 11.85C7.175 11.4173 10.1441 11.3856 11.6952 11.3874C11.9097 10.5984 12.4099 9.90717 13.0577 9.41329C14.1469 8.60423 15.7454 8.47208 16.8927 9.24201C16.8832 9.15557 16.8639 9.06702 16.8445 8.97784C16.7915 8.7347 16.7375 8.487 16.8788 8.26538C17.0586 7.91117 17.5026 7.81622 17.8689 7.83659C18.3668 7.84969 18.865 7.85641 19.3631 7.86313C20.0493 7.87239 20.7355 7.88165 21.421 7.90758C21.8919 7.93753 22.0617 8.36906 22.2077 8.74033C22.2223 8.77746 22.2367 8.81399 22.2511 8.84945C22.7919 8.85992 23.333 8.86739 23.8741 8.87486C24.9122 8.88918 25.9506 8.90351 26.9887 8.9391C27.4586 8.9259 27.8147 9.27659 28.0635 9.63596C29.3066 8.7488 31.1011 8.77468 32.3103 9.71049C32.5372 9.3263 32.9388 9.04553 33.3933 9.03341C34.193 9.05163 34.9928 9.06425 35.7925 9.07687C36.5923 9.08949 37.3921 9.10211 38.1918 9.12034C38.2795 8.69328 38.5333 8.20816 39.037 8.21271C39.6917 8.19569 40.347 8.21166 41.0023 8.22762C41.559 8.24119 42.1157 8.25475 42.6721 8.2481C42.9993 8.24103 43.3854 8.3575 43.5003 8.69956C43.6812 9.02291 43.5855 9.35502 43.4891 9.68925C43.435 9.87718 43.3806 10.0658 43.3752 10.2538C44.7324 9.84111 46.3338 10.6558 46.7097 12.0454C47.6173 12.0831 47.6906 12.0994 47.7495 12.1126C47.8105 12.1262 47.856 12.1363 48.796 12.1631C48.8943 12.1638 48.9942 12.163 49.095 12.1622C49.8081 12.1568 50.5686 12.151 51.1366 12.6382C51.57 12.912 51.7626 13.3925 51.9457 13.8495C51.9596 13.8842 51.9735 13.9188 51.9874 13.9531C52.3726 14.6747 53.2008 15.1486 54.0219 15.0299C54.9343 14.9435 55.69 14.1455 55.7707 13.238C55.9185 12.2276 55.1165 11.2227 54.1151 11.087C54.099 11.085 54.083 11.0831 54.0668 11.0811C53.7297 11.0395 53.3722 10.9954 53.1454 10.7086C53.1051 10.6143 53.0653 10.5211 53.0244 10.4284C52.951 9.95039 53.2858 9.46618 53.79 9.4467C55.582 9.40235 57.2704 10.9166 57.3699 12.7174C57.5572 14.3473 56.4635 16.0086 54.8974 16.4878C53.2585 17.0433 51.31 16.2161 50.5488 14.6675C50.5032 14.5785 50.4652 14.4848 50.4272 14.3911C50.3577 14.2198 50.2881 14.0482 50.1715 13.9043C49.9721 13.772 49.7319 13.7755 49.5023 13.7789C49.4805 13.7793 49.4589 13.7796 49.4374 13.7798C48.6298 13.7666 48.6945 13.7517 48.7556 13.7377C48.8161 13.7237 48.8731 13.7106 48.0722 13.7008C48.0327 13.6993 47.9931 13.6977 47.9535 13.6961C47.5284 13.6788 47.1021 13.6615 46.68 13.7187C46.348 14.6732 45.4478 15.3738 44.4468 15.4823C44.2153 15.5353 43.9873 15.4982 43.7591 15.4611C43.5915 15.4338 43.4238 15.4065 43.2544 15.4149C43.2758 15.5593 43.3179 15.7077 43.3604 15.8575C43.4645 16.2245 43.5711 16.6001 43.3811 16.9458C43.2202 17.2499 42.8661 17.3803 42.5371 17.3512C41.9607 17.3264 41.3838 17.3206 40.807 17.3147C40.141 17.308 39.475 17.3013 38.8099 17.2654C38.3249 17.2293 38.1491 16.7302 38.0589 16.3265C37.2487 16.3247 36.4384 16.3088 35.6283 16.2928C35.154 16.2835 34.6797 16.2742 34.2055 16.2677C34.0519 16.2515 33.8938 16.2548 33.7355 16.2581C33.4087 16.2649 33.081 16.2717 32.7895 16.1066C32.5364 15.9893 32.3605 15.7649 32.1949 15.5494C30.9631 16.4543 29.1471 16.4083 27.9549 15.4562C27.7293 15.8241 27.3547 16.1319 26.9023 16.13C26.1624 16.1449 25.4219 16.1265 24.6817 16.108C23.8014 16.0861 22.9215 16.0641 22.0434 16.0984C22.0001 16.5401 21.7104 16.9991 21.215 16.9858C20.6792 16.9713 20.143 16.9643 19.6068 16.9573C18.8762 16.9478 18.1456 16.9382 17.4165 16.9097C16.768 16.9029 16.5082 16.1203 16.7702 15.6041C15.642 16.1044 14.2451 16.0661 13.2123 15.3559C12.3937 14.8542 11.8737 13.9758 11.6353 13.0628C11.2519 13.0888 10.8686 13.0767 10.4854 13.0645C10.1806 13.0548 9.87573 13.0452 9.57078 13.0547C9.43349 13.0625 9.29311 13.0403 9.16421 12.9902ZM13.6655 13.6304C12.8711 12.7782 13.1097 11.2813 14.0768 10.6626C14.6525 10.2822 15.4152 10.2299 16.0364 10.5319C17.173 11.0395 17.5569 12.6912 16.7079 13.6215C15.9876 14.5819 14.4004 14.5562 13.6655 13.6304ZM18.461 15.3308C18.861 13.4029 18.8933 11.3971 18.5642 9.45602C19.2707 9.47846 19.9771 9.48504 20.6836 9.49163C21.015 11.4383 20.9913 13.4393 20.581 15.3741C20.1468 15.3529 19.7125 15.3483 19.278 15.3436C19.0058 15.3407 18.7335 15.3378 18.461 15.3308ZM24.5948 14.4955C23.8932 14.4802 23.1917 14.465 22.4896 14.4775C22.51 13.8799 22.517 13.2818 22.5241 12.6837C22.5328 11.9401 22.5416 11.1966 22.5759 10.4542C23.6363 10.4868 24.6977 10.5012 25.7587 10.5156C26.0224 10.5192 26.2862 10.5227 26.5498 10.5266C26.5565 11.1777 26.5421 11.8283 26.5276 12.4789C26.5126 13.1579 26.4975 13.8369 26.5064 14.5163C25.869 14.5232 25.2319 14.5093 24.5948 14.4955ZM28.1879 13.0282C28.0177 12.2613 28.3214 11.4334 28.9599 10.9716C29.7348 10.3769 30.9634 10.4966 31.5997 11.2412C32.1267 11.8105 32.298 12.7142 31.9469 13.4177C31.6835 14.0652 31.0195 14.4716 30.3473 14.567C29.3788 14.703 28.3819 13.9806 28.1879 13.0282ZM33.7391 12.9581C33.7548 12.1898 33.7706 11.4216 33.7668 10.6537C34.3422 10.6591 34.9176 10.6699 35.4929 10.6807C36.2429 10.6948 36.9928 10.7089 37.7423 10.7109C37.7796 11.4683 37.7596 12.2267 37.7396 12.9852C37.7244 13.5604 37.7092 14.1357 37.719 14.7108C37.0843 14.7144 36.4498 14.7005 35.8153 14.6865C35.1144 14.671 34.4134 14.6556 33.712 14.6639C33.7158 14.0952 33.7274 13.5266 33.7391 12.9581ZM41.5265 15.7181C40.8918 15.7032 40.2573 15.6884 39.6243 15.6984C39.2302 13.763 39.2595 11.7242 39.7263 9.80161C39.8597 9.80607 39.9931 9.81112 40.1266 9.81617C40.6736 9.83689 41.2211 9.85762 41.768 9.83764C41.4621 11.7822 41.3575 13.773 41.7018 15.7222C41.6434 15.7209 41.585 15.7195 41.5265 15.7181ZM44.0581 13.8827C43.2546 13.8555 42.8082 12.7842 43.3162 12.1729C43.7722 11.5634 44.8521 11.6494 45.1238 12.3902C45.4972 13.0929 44.8316 13.9844 44.0581 13.8827Z"/>
</mask>
<path fill-rule="evenodd" clip-rule="evenodd" d="M9.16421 12.9902C8.34823 13.0009 7.68494 13.0258 7.60646 13.0779C7.49338 13.2174 7.42591 13.3838 7.35853 13.5499C7.32167 13.6408 7.28483 13.7317 7.24057 13.818C6.50241 15.3198 4.61275 16.1219 3.0234 15.5832C1.50465 15.1185 0.444033 13.5075 0.625714 11.9269C0.722221 10.1805 2.35957 8.71202 4.09734 8.75502C4.58636 8.77391 4.91099 9.24349 4.83985 9.70709C4.80016 9.79697 4.76157 9.88731 4.72252 9.97874C4.50252 10.2569 4.15583 10.2997 3.82888 10.34C3.81325 10.3419 3.79766 10.3438 3.78214 10.3458C2.81099 10.4773 2.03324 11.4519 2.17654 12.4317C2.25481 13.3117 2.98767 14.0857 3.87245 14.1694C4.66874 14.2845 5.47192 13.825 5.84548 13.1252C5.85897 13.0919 5.87242 13.0583 5.88591 13.0247C6.06352 12.5815 6.25027 12.1156 6.67055 11.85C7.175 11.4173 10.1441 11.3856 11.6952 11.3874C11.9097 10.5984 12.4099 9.90717 13.0577 9.41329C14.1469 8.60423 15.7454 8.47208 16.8927 9.24201C16.8832 9.15557 16.8639 9.06702 16.8445 8.97784C16.7915 8.7347 16.7375 8.487 16.8788 8.26538C17.0586 7.91117 17.5026 7.81622 17.8689 7.83659C18.3668 7.84969 18.865 7.85641 19.3631 7.86313C20.0493 7.87239 20.7355 7.88165 21.421 7.90758C21.8919 7.93753 22.0617 8.36906 22.2077 8.74033C22.2223 8.77746 22.2367 8.81399 22.2511 8.84945C22.7919 8.85992 23.333 8.86739 23.8741 8.87486C24.9122 8.88918 25.9506 8.90351 26.9887 8.9391C27.4586 8.9259 27.8147 9.27659 28.0635 9.63596C29.3066 8.7488 31.1011 8.77468 32.3103 9.71049C32.5372 9.3263 32.9388 9.04553 33.3933 9.03341C34.193 9.05163 34.9928 9.06425 35.7925 9.07687C36.5923 9.08949 37.3921 9.10211 38.1918 9.12034C38.2795 8.69328 38.5333 8.20816 39.037 8.21271C39.6917 8.19569 40.347 8.21166 41.0023 8.22762C41.559 8.24119 42.1157 8.25475 42.6721 8.2481C42.9993 8.24103 43.3854 8.3575 43.5003 8.69956C43.6812 9.02291 43.5855 9.35502 43.4891 9.68925C43.435 9.87718 43.3806 10.0658 43.3752 10.2538C44.7324 9.84111 46.3338 10.6558 46.7097 12.0454C47.6173 12.0831 47.6906 12.0994 47.7495 12.1126C47.8105 12.1262 47.856 12.1363 48.796 12.1631C48.8943 12.1638 48.9942 12.163 49.095 12.1622C49.8081 12.1568 50.5686 12.151 51.1366 12.6382C51.57 12.912 51.7626 13.3925 51.9457 13.8495C51.9596 13.8842 51.9735 13.9188 51.9874 13.9531C52.3726 14.6747 53.2008 15.1486 54.0219 15.0299C54.9343 14.9435 55.69 14.1455 55.7707 13.238C55.9185 12.2276 55.1165 11.2227 54.1151 11.087C54.099 11.085 54.083 11.0831 54.0668 11.0811C53.7297 11.0395 53.3722 10.9954 53.1454 10.7086C53.1051 10.6143 53.0653 10.5211 53.0244 10.4284C52.951 9.95039 53.2858 9.46618 53.79 9.4467C55.582 9.40235 57.2704 10.9166 57.3699 12.7174C57.5572 14.3473 56.4635 16.0086 54.8974 16.4878C53.2585 17.0433 51.31 16.2161 50.5488 14.6675C50.5032 14.5785 50.4652 14.4848 50.4272 14.3911C50.3577 14.2198 50.2881 14.0482 50.1715 13.9043C49.9721 13.772 49.7319 13.7755 49.5023 13.7789C49.4805 13.7793 49.4589 13.7796 49.4374 13.7798C48.6298 13.7666 48.6945 13.7517 48.7556 13.7377C48.8161 13.7237 48.8731 13.7106 48.0722 13.7008C48.0327 13.6993 47.9931 13.6977 47.9535 13.6961C47.5284 13.6788 47.1021 13.6615 46.68 13.7187C46.348 14.6732 45.4478 15.3738 44.4468 15.4823C44.2153 15.5353 43.9873 15.4982 43.7591 15.4611C43.5915 15.4338 43.4238 15.4065 43.2544 15.4149C43.2758 15.5593 43.3179 15.7077 43.3604 15.8575C43.4645 16.2245 43.5711 16.6001 43.3811 16.9458C43.2202 17.2499 42.8661 17.3803 42.5371 17.3512C41.9607 17.3264 41.3838 17.3206 40.807 17.3147C40.141 17.308 39.475 17.3013 38.8099 17.2654C38.3249 17.2293 38.1491 16.7302 38.0589 16.3265C37.2487 16.3247 36.4384 16.3088 35.6283 16.2928C35.154 16.2835 34.6797 16.2742 34.2055 16.2677C34.0519 16.2515 33.8938 16.2548 33.7355 16.2581C33.4087 16.2649 33.081 16.2717 32.7895 16.1066C32.5364 15.9893 32.3605 15.7649 32.1949 15.5494C30.9631 16.4543 29.1471 16.4083 27.9549 15.4562C27.7293 15.8241 27.3547 16.1319 26.9023 16.13C26.1624 16.1449 25.4219 16.1265 24.6817 16.108C23.8014 16.0861 22.9215 16.0641 22.0434 16.0984C22.0001 16.5401 21.7104 16.9991 21.215 16.9858C20.6792 16.9713 20.143 16.9643 19.6068 16.9573C18.8762 16.9478 18.1456 16.9382 17.4165 16.9097C16.768 16.9029 16.5082 16.1203 16.7702 15.6041C15.642 16.1044 14.2451 16.0661 13.2123 15.3559C12.3937 14.8542 11.8737 13.9758 11.6353 13.0628C11.2519 13.0888 10.8686 13.0767 10.4854 13.0645C10.1806 13.0548 9.87573 13.0452 9.57078 13.0547C9.43349 13.0625 9.29311 13.0403 9.16421 12.9902ZM13.6655 13.6304C12.8711 12.7782 13.1097 11.2813 14.0768 10.6626C14.6525 10.2822 15.4152 10.2299 16.0364 10.5319C17.173 11.0395 17.5569 12.6912 16.7079 13.6215C15.9876 14.5819 14.4004 14.5562 13.6655 13.6304ZM18.461 15.3308C18.861 13.4029 18.8933 11.3971 18.5642 9.45602C19.2707 9.47846 19.9771 9.48504 20.6836 9.49163C21.015 11.4383 20.9913 13.4393 20.581 15.3741C20.1468 15.3529 19.7125 15.3483 19.278 15.3436C19.0058 15.3407 18.7335 15.3378 18.461 15.3308ZM24.5948 14.4955C23.8932 14.4802 23.1917 14.465 22.4896 14.4775C22.51 13.8799 22.517 13.2818 22.5241 12.6837C22.5328 11.9401 22.5416 11.1966 22.5759 10.4542C23.6363 10.4868 24.6977 10.5012 25.7587 10.5156C26.0224 10.5192 26.2862 10.5227 26.5498 10.5266C26.5565 11.1777 26.5421 11.8283 26.5276 12.4789C26.5126 13.1579 26.4975 13.8369 26.5064 14.5163C25.869 14.5232 25.2319 14.5093 24.5948 14.4955ZM28.1879 13.0282C28.0177 12.2613 28.3214 11.4334 28.9599 10.9716C29.7348 10.3769 30.9634 10.4966 31.5997 11.2412C32.1267 11.8105 32.298 12.7142 31.9469 13.4177C31.6835 14.0652 31.0195 14.4716 30.3473 14.567C29.3788 14.703 28.3819 13.9806 28.1879 13.0282ZM33.7391 12.9581C33.7548 12.1898 33.7706 11.4216 33.7668 10.6537C34.3422 10.6591 34.9176 10.6699 35.4929 10.6807C36.2429 10.6948 36.9928 10.7089 37.7423 10.7109C37.7796 11.4683 37.7596 12.2267 37.7396 12.9852C37.7244 13.5604 37.7092 14.1357 37.719 14.7108C37.0843 14.7144 36.4498 14.7005 35.8153 14.6865C35.1144 14.671 34.4134 14.6556 33.712 14.6639C33.7158 14.0952 33.7274 13.5266 33.7391 12.9581ZM41.5265 15.7181C40.8918 15.7032 40.2573 15.6884 39.6243 15.6984C39.2302 13.763 39.2595 11.7242 39.7263 9.80161C39.8597 9.80607 39.9931 9.81112 40.1266 9.81617C40.6736 9.83689 41.2211 9.85762 41.768 9.83764C41.4621 11.7822 41.3575 13.773 41.7018 15.7222C41.6434 15.7209 41.585 15.7195 41.5265 15.7181ZM44.0581 13.8827C43.2546 13.8555 42.8082 12.7842 43.3162 12.1729C43.7722 11.5634 44.8521 11.6494 45.1238 12.3902C45.4972 13.0929 44.8316 13.9844 44.0581 13.8827Z" fill="black"/>
<path d="M9.16421 12.9902L9.52644 12.0581L9.34537 11.9877L9.15112 11.9903L9.16421 12.9902ZM7.60646 13.0779L7.0535 12.2447L6.92598 12.3293L6.8296 12.4482L7.60646 13.0779ZM7.35853 13.5499L8.28523 13.9257L8.28523 13.9257L7.35853 13.5499ZM7.24057 13.818L6.35073 13.3617L6.34686 13.3693L6.34312 13.3769L7.24057 13.818ZM3.0234 15.5832L3.34441 14.6361L3.33027 14.6314L3.316 14.627L3.0234 15.5832ZM0.625714 11.9269L1.61917 12.0411L1.62256 12.0116L1.62419 11.982L0.625714 11.9269ZM4.09734 8.75502L4.13594 7.75567L4.12208 7.75533L4.09734 8.75502ZM4.83985 9.70709L5.75464 10.111L5.80818 9.98976L5.82829 9.85875L4.83985 9.70709ZM4.72252 9.97874L5.50687 10.5991L5.58971 10.4943L5.64216 10.3715L4.72252 9.97874ZM3.82888 10.34L3.95126 11.3325L3.95126 11.3325L3.82888 10.34ZM3.78214 10.3458L3.65803 9.35346L3.64793 9.35482L3.78214 10.3458ZM2.17654 12.4317L3.17261 12.3431L3.1701 12.315L3.16602 12.287L2.17654 12.4317ZM3.87245 14.1694L4.01548 13.1797L3.99117 13.1762L3.9667 13.1739L3.87245 14.1694ZM5.84548 13.1252L6.72765 13.5961L6.75254 13.5495L6.77238 13.5005L5.84548 13.1252ZM5.88591 13.0247L6.81413 13.3967L6.81413 13.3967L5.88591 13.0247ZM6.67055 11.85L7.20466 12.6955L7.26631 12.6565L7.32166 12.609L6.67055 11.85ZM11.6952 11.3874L11.6941 12.3874L12.4594 12.3883L12.6602 11.6497L11.6952 11.3874ZM13.0577 9.41329L12.4614 8.61046L12.4514 8.61805L13.0577 9.41329ZM16.8927 9.24201L16.3354 10.0724L18.1213 11.2709L17.8867 9.13294L16.8927 9.24201ZM16.8445 8.97784L15.8674 9.19076L15.8674 9.19076L16.8445 8.97784ZM16.8788 8.26538L17.722 8.80291L17.7483 8.76168L17.7704 8.71807L16.8788 8.26538ZM17.8689 7.83659L17.8134 8.83505L17.828 8.83586L17.8426 8.83625L17.8689 7.83659ZM19.3631 7.86313L19.3496 8.86304L19.3631 7.86313ZM21.421 7.90758L21.4845 6.9096L21.4717 6.90878L21.4588 6.9083L21.421 7.90758ZM22.2077 8.74033L21.2771 9.10638L21.2771 9.10638L22.2077 8.74033ZM22.2511 8.84945L21.3246 9.22586L21.5727 9.8365L22.2317 9.84926L22.2511 8.84945ZM23.8741 8.87486L23.8603 9.87476L23.8741 8.87486ZM26.9887 8.9391L26.9544 9.93851L26.9856 9.93958L27.0168 9.93871L26.9887 8.9391ZM28.0635 9.63596L27.2413 10.2052L27.8187 11.0392L28.6444 10.4499L28.0635 9.63596ZM32.3103 9.71049L31.6983 10.5013L32.5949 11.1953L33.1714 10.2189L32.3103 9.71049ZM33.3933 9.03341L33.416 8.03366L33.3913 8.0331L33.3666 8.03376L33.3933 9.03341ZM35.7925 9.07687L35.7768 10.0767L35.7925 9.07687ZM38.1918 9.12034L38.169 10.1201L39.0035 10.1391L39.1714 9.32145L38.1918 9.12034ZM39.037 8.21271L39.0279 9.21267L39.0454 9.21283L39.063 9.21237L39.037 8.21271ZM41.0023 8.22762L40.978 9.22733L41.0023 8.22762ZM42.6721 8.2481L42.684 9.24807L42.6937 9.24787L42.6721 8.2481ZM43.5003 8.69956L42.5523 9.01795L42.582 9.10637L42.6276 9.18778L43.5003 8.69956ZM43.4891 9.68925L42.5282 9.41232L42.5282 9.41234L43.4891 9.68925ZM43.3752 10.2538L42.3756 10.2247L42.3351 11.6154L43.6661 11.2106L43.3752 10.2538ZM46.7097 12.0454L45.7444 12.3065L45.9359 13.0141L46.6682 13.0445L46.7097 12.0454ZM47.7495 12.1126L47.9672 11.1366L47.9672 11.1366L47.7495 12.1126ZM48.796 12.1631L48.7675 13.1627L48.7785 13.163L48.7895 13.1631L48.796 12.1631ZM49.095 12.1622L49.1027 13.1622H49.1027L49.095 12.1622ZM51.1366 12.6382L50.4855 13.3972L50.5408 13.4447L50.6025 13.4836L51.1366 12.6382ZM51.9457 13.8495L52.8739 13.4775L52.8739 13.4774L51.9457 13.8495ZM51.9874 13.9531L51.0605 14.3284L51.0803 14.3774L51.1052 14.424L51.9874 13.9531ZM54.0219 15.0299L53.9277 14.0344L53.9032 14.0367L53.8789 14.0402L54.0219 15.0299ZM55.7707 13.238L54.7812 13.0933L54.7771 13.1213L54.7746 13.1494L55.7707 13.238ZM54.1151 11.087L54.2493 10.096L54.2392 10.0948L54.1151 11.087ZM54.0668 11.0811L54.1892 10.0886L54.1892 10.0886L54.0668 11.0811ZM53.1454 10.7086L52.2257 11.1013L52.2782 11.2241L52.361 11.3289L53.1454 10.7086ZM53.0244 10.4284L52.0359 10.5801L52.056 10.7111L52.1096 10.8324L53.0244 10.4284ZM53.79 9.4467L53.7653 8.44691L53.7514 8.44744L53.79 9.4467ZM57.3699 12.7174L56.3714 12.7726L56.373 12.8022L56.3764 12.8316L57.3699 12.7174ZM54.8974 16.4878L54.6048 15.5315L54.5906 15.5359L54.5764 15.5407L54.8974 16.4878ZM50.5488 14.6675L51.4463 14.2264L51.4425 14.2188L51.4386 14.2112L50.5488 14.6675ZM50.4272 14.3911L49.5005 14.7669L49.5005 14.7669L50.4272 14.3911ZM50.1715 13.9043L50.9484 13.2747L50.852 13.1558L50.7245 13.0711L50.1715 13.9043ZM49.5023 13.7789L49.517 14.7788H49.517L49.5023 13.7789ZM49.4374 13.7798L49.4212 14.7796L49.434 14.7798L49.4468 14.7797L49.4374 13.7798ZM48.7556 13.7377L48.9801 14.7121L48.9801 14.7121L48.7556 13.7377ZM48.0722 13.7008L48.0332 14.7001L48.0466 14.7006L48.0601 14.7008L48.0722 13.7008ZM47.9535 13.6961L47.9129 14.6952H47.9129L47.9535 13.6961ZM46.68 13.7187L46.5458 12.7278L45.9372 12.8102L45.7355 13.3902L46.68 13.7187ZM44.4468 15.4823L44.3391 14.4881L44.2808 14.4944L44.2236 14.5075L44.4468 15.4823ZM43.7591 15.4611L43.9197 14.474H43.9197L43.7591 15.4611ZM43.2544 15.4149L43.2048 14.4162L42.1041 14.4709L42.2652 15.5612L43.2544 15.4149ZM43.3604 15.8575L44.3224 15.5846V15.5846L43.3604 15.8575ZM43.3811 16.9458L42.5048 16.4641L42.5009 16.4711L42.4971 16.4782L43.3811 16.9458ZM42.5371 17.3512L42.6255 16.3551L42.6028 16.3531L42.58 16.3521L42.5371 17.3512ZM40.807 17.3147L40.8172 16.3148L40.807 17.3147ZM38.8099 17.2654L38.7358 18.2626L38.7458 18.2634L38.756 18.2639L38.8099 17.2654ZM38.0589 16.3265L39.0349 16.1085L38.8606 15.3282L38.0611 15.3265L38.0589 16.3265ZM35.6283 16.2928L35.6086 17.2926H35.6086L35.6283 16.2928ZM34.2055 16.2677L34.1003 17.2622L34.146 17.267L34.1918 17.2676L34.2055 16.2677ZM33.7355 16.2581L33.7564 17.2578H33.7564L33.7355 16.2581ZM32.7895 16.1066L33.2824 15.2365L33.2469 15.2164L33.2099 15.1992L32.7895 16.1066ZM32.1949 15.5494L32.9878 14.9401L32.3915 14.1641L31.6029 14.7435L32.1949 15.5494ZM27.9549 15.4562L28.579 14.6748L27.6945 13.9684L27.1026 14.9333L27.9549 15.4562ZM26.9023 16.13L26.9066 15.13L26.8944 15.1299L26.8821 15.1302L26.9023 16.13ZM24.6817 16.108L24.7066 15.1083L24.6817 16.108ZM22.0434 16.0984L22.0045 15.0991L21.1333 15.1331L21.0482 16.0008L22.0434 16.0984ZM21.215 16.9858L21.188 17.9855L21.1883 17.9855L21.215 16.9858ZM19.6068 16.9573L19.5937 17.9572L19.6068 16.9573ZM17.4165 16.9097L17.4556 15.9105L17.4413 15.9099L17.427 15.9097L17.4165 16.9097ZM16.7702 15.6041L17.6619 16.0567L18.9343 13.5504L16.3648 14.6899L16.7702 15.6041ZM13.2123 15.3559L13.7789 14.5319L13.7572 14.517L13.7348 14.5033L13.2123 15.3559ZM11.6353 13.0628L12.6028 12.8101L12.3936 12.0091L11.5676 12.0651L11.6353 13.0628ZM10.4854 13.0645L10.4537 14.064H10.4537L10.4854 13.0645ZM9.57078 13.0547L9.53949 12.0552L9.52673 12.0556L9.51398 12.0563L9.57078 13.0547ZM14.0768 10.6626L14.6157 11.505L14.6219 11.501L14.6281 11.4969L14.0768 10.6626ZM13.6655 13.6304L14.4487 13.0087L14.424 12.9776L14.397 12.9486L13.6655 13.6304ZM16.0364 10.5319L15.5993 11.4312L15.6138 11.4383L15.6286 11.4449L16.0364 10.5319ZM16.7079 13.6215L15.9692 12.9474L15.9368 12.983L15.9079 13.0215L16.7079 13.6215ZM18.5642 9.45602L18.596 8.45652L17.3739 8.41769L17.5783 9.62317L18.5642 9.45602ZM18.461 15.3308L17.4819 15.1277L17.2387 16.2998L18.4354 16.3305L18.461 15.3308ZM20.6836 9.49163L21.6695 9.3238L21.5291 8.49946L20.693 8.49167L20.6836 9.49163ZM20.581 15.3741L20.5322 16.3729L21.3826 16.4144L21.5592 15.5815L20.581 15.3741ZM19.278 15.3436L19.2887 14.3437L19.278 15.3436ZM22.4896 14.4775L21.4902 14.4434L21.4543 15.4961L22.5074 15.4773L22.4896 14.4775ZM24.5948 14.4955L24.573 15.4952L24.5948 14.4955ZM22.5241 12.6837L23.524 12.6955L22.5241 12.6837ZM22.5759 10.4542L22.6066 9.45469L21.6226 9.42446L21.577 10.408L22.5759 10.4542ZM25.7587 10.5156L25.7722 9.51568L25.7587 10.5156ZM26.5498 10.5266L27.5498 10.5164L27.5398 9.54097L26.5645 9.52671L26.5498 10.5266ZM26.5276 12.4789L27.5274 12.5011V12.5011L26.5276 12.4789ZM26.5064 14.5163L26.5173 15.5162L27.5195 15.5053L27.5063 14.5032L26.5064 14.5163ZM28.9599 10.9716L29.5459 11.7819L29.5574 11.7736L29.5687 11.765L28.9599 10.9716ZM28.1879 13.0282L29.1678 12.8285L29.166 12.82L29.1641 12.8115L28.1879 13.0282ZM31.5997 11.2412L30.8395 11.8909L30.8524 11.906L30.8659 11.9205L31.5997 11.2412ZM31.9469 13.4177L31.0521 12.9712L31.035 13.0055L31.0206 13.041L31.9469 13.4177ZM30.3473 14.567L30.4863 15.5573L30.4879 15.5571L30.3473 14.567ZM33.7668 10.6537L33.7761 9.65376L32.7618 9.64432L32.7668 10.6587L33.7668 10.6537ZM33.7391 12.9581L34.7389 12.9786V12.9786L33.7391 12.9581ZM35.4929 10.6807L35.5117 9.68089L35.4929 10.6807ZM37.7423 10.7109L38.7411 10.6618L38.6945 9.71341L37.745 9.7109L37.7423 10.7109ZM37.7396 12.9852L38.7392 13.0116V13.0116L37.7396 12.9852ZM37.719 14.7108L37.7248 15.7108L38.736 15.7049L38.7188 14.6938L37.719 14.7108ZM35.8153 14.6865L35.7932 15.6862L35.8153 14.6865ZM33.712 14.6639L32.7121 14.6573L32.7054 15.676L33.7239 15.6638L33.712 14.6639ZM39.6243 15.6984L38.6444 15.8979L38.81 16.7114L39.6401 16.6982L39.6243 15.6984ZM41.5265 15.7181L41.5031 16.7178L41.5265 15.7181ZM39.7263 9.80161L39.7597 8.80217L38.9465 8.77498L38.7545 9.56564L39.7263 9.80161ZM40.1266 9.81617L40.0888 10.8155L40.1266 9.81617ZM41.768 9.83764L42.7558 9.99304L42.9444 8.79399L41.7315 8.83831L41.768 9.83764ZM41.7018 15.7222L41.6787 16.7219L42.8989 16.7502L42.6866 15.5482L41.7018 15.7222ZM43.3162 12.1729L44.0853 12.8121L44.1016 12.7924L44.117 12.7719L43.3162 12.1729ZM44.0581 13.8827L44.1885 12.8913L44.1404 12.8849L44.092 12.8833L44.0581 13.8827ZM45.1238 12.3902L44.1849 12.7345L44.2085 12.7989L44.2407 12.8595L45.1238 12.3902ZM9.15112 11.9903C8.73946 11.9956 8.35475 12.0047 8.0581 12.0198C7.91176 12.0272 7.77162 12.0368 7.6546 12.0502C7.59756 12.0567 7.52802 12.0661 7.45807 12.0807C7.43753 12.085 7.24175 12.1198 7.0535 12.2447L8.15941 13.9111C8.05388 13.9811 7.96211 14.0113 7.93717 14.0194C7.90068 14.0313 7.87453 14.0369 7.86685 14.0385C7.85137 14.0417 7.85291 14.0406 7.88184 14.0372C7.93676 14.031 8.02815 14.0239 8.15945 14.0172C8.41806 14.0041 8.77299 13.9954 9.1773 13.9901L9.15112 11.9903ZM6.8296 12.4482C6.607 12.7229 6.48933 13.0323 6.43183 13.1741L8.28523 13.9257C8.32131 13.8368 8.34154 13.7881 8.36191 13.7469C8.38014 13.71 8.38755 13.7024 8.38332 13.7076L6.8296 12.4482ZM6.43183 13.1741C6.39205 13.2722 6.37136 13.3215 6.35073 13.3617L8.13042 14.2742C8.19831 14.1418 8.25129 14.0094 8.28523 13.9257L6.43183 13.1741ZM6.34312 13.3769C5.82302 14.435 4.45082 15.0112 3.34441 14.6361L2.70239 16.5303C4.77468 17.2327 7.1818 16.2046 8.13803 14.2591L6.34312 13.3769ZM3.316 14.627C2.25633 14.3027 1.49281 13.1404 1.61917 12.0411L-0.367744 11.8127C-0.60475 13.8746 0.752966 15.9343 2.7308 16.5395L3.316 14.627ZM1.62419 11.982C1.69006 10.7901 2.86006 9.72471 4.0726 9.75471L4.12208 7.75533C1.85908 7.69932 -0.245615 9.57081 -0.372762 11.8717L1.62419 11.982ZM4.05874 9.75427C3.97369 9.75099 3.90825 9.70371 3.8789 9.66461C3.85529 9.63316 3.84509 9.59671 3.85142 9.55542L5.82829 9.85875C5.97572 8.89786 5.31196 7.80119 4.13594 7.75576L4.05874 9.75427ZM3.92507 9.30315C3.88252 9.3995 3.84158 9.49536 3.80288 9.58599L5.64216 10.3715C5.68156 10.2793 5.71781 10.1944 5.75464 10.111L3.92507 9.30315ZM3.93817 9.35842C3.95672 9.33496 3.97883 9.31619 3.99799 9.30397C4.01503 9.29309 4.0212 9.29281 4.0061 9.29773C3.98979 9.30304 3.95969 9.31093 3.90676 9.31999C3.8518 9.3294 3.79213 9.33694 3.7065 9.3475L3.95126 11.3325C4.19124 11.3029 4.99074 11.2517 5.50687 10.5991L3.93817 9.35842ZM3.7065 9.3475C3.69101 9.34941 3.67456 9.35144 3.65803 9.35351L3.90624 11.338C3.92076 11.3362 3.93548 11.3344 3.95126 11.3325L3.7065 9.3475ZM3.64793 9.35482C2.15597 9.55689 0.958853 11.016 1.18707 12.5764L3.16602 12.287C3.10763 11.8878 3.466 11.3977 3.91635 11.3367L3.64793 9.35482ZM1.18047 12.5203C1.29928 13.8562 2.38965 15.0335 3.77819 15.165L3.9667 13.1739C3.58568 13.1378 3.21033 12.7672 3.17261 12.3431L1.18047 12.5203ZM3.72941 15.1592C4.98679 15.3409 6.17761 14.6265 6.72765 13.5961L4.96332 12.6543C4.76624 13.0234 4.3507 13.2282 4.01548 13.1797L3.72941 15.1592ZM6.77238 13.5005C6.78665 13.4653 6.80075 13.4301 6.81413 13.3967L4.95769 12.6526C4.94408 12.6866 4.9313 12.7185 4.91859 12.7499L6.77238 13.5005ZM6.81413 13.3967C6.90818 13.162 6.97215 13.0078 7.04771 12.8802C7.11605 12.7648 7.16766 12.7188 7.20466 12.6955L6.13644 11.0046C5.39643 11.4721 5.1102 12.2721 4.95769 12.6526L6.81413 13.3967ZM7.32166 12.609C7.2303 12.6874 7.17727 12.6886 7.27166 12.6585C7.34334 12.6356 7.45698 12.6083 7.6187 12.5807C7.94073 12.5257 8.36685 12.4839 8.8521 12.4539C9.81787 12.3941 10.9213 12.3865 11.6941 12.3874L11.6964 10.3874C10.918 10.3865 9.76134 10.3938 8.72866 10.4577C8.2147 10.4895 7.70701 10.5366 7.28199 10.6092C7.07018 10.6454 6.85698 10.6915 6.66367 10.7532C6.49307 10.8076 6.23691 10.9045 6.01945 11.0911L7.32166 12.609ZM12.6602 11.6497C12.8107 11.0961 13.171 10.5844 13.664 10.2085L12.4514 8.61805C11.6488 9.22993 11.0088 10.1006 10.7302 11.1251L12.6602 11.6497ZM13.654 10.216C14.446 9.62775 15.582 9.56672 16.3354 10.0724L17.4499 8.41167C15.9089 7.37745 13.8478 7.58072 12.4614 8.61052L13.654 10.216ZM17.8867 9.13294C17.8705 8.98484 17.8387 8.84377 17.8215 8.76492L15.8674 9.19076C15.8891 9.29027 15.8959 9.3263 15.8986 9.35107L17.8867 9.13294ZM17.8215 8.76493C17.8074 8.70013 17.7993 8.66207 17.7936 8.62823C17.7882 8.59651 17.7885 8.58774 17.7886 8.59307C17.7887 8.59988 17.7886 8.62822 17.7787 8.6696C17.7682 8.71339 17.7494 8.75997 17.722 8.80291L16.0355 7.72784C15.637 8.35308 15.8327 9.03144 15.8674 9.19076L17.8215 8.76493ZM17.7704 8.71807C17.7464 8.76545 17.7137 8.8019 17.6844 8.82548C17.6576 8.84697 17.6412 8.85194 17.647 8.84984C17.6529 8.84769 17.6717 8.84197 17.7047 8.83799C17.7372 8.83407 17.7747 8.8329 17.8134 8.83505L17.9244 6.83813C17.6453 6.82261 17.3002 6.8473 16.9609 6.9712C16.613 7.09826 16.2212 7.35163 15.9871 7.81268L17.7704 8.71807ZM17.8426 8.83625C18.348 8.84954 18.8526 8.85633 19.3496 8.86304L19.3766 6.86322C18.8774 6.85649 18.3857 6.84984 17.8952 6.83694L17.8426 8.83625ZM19.3496 8.86304C20.0379 8.87233 20.7119 8.88147 21.3832 8.90687L21.4588 6.9083C20.7591 6.88183 20.0608 6.87245 19.3766 6.86322L19.3496 8.86304ZM21.3575 8.90556C21.3199 8.90317 21.2641 8.88942 21.2089 8.85643C21.1589 8.82652 21.1374 8.79761 21.1387 8.79927C21.1418 8.80335 21.1575 8.82606 21.1845 8.88343C21.2122 8.94232 21.2386 9.00862 21.2771 9.10638L23.1383 8.37429C23.0763 8.21671 22.9511 7.88006 22.7337 7.59265C22.4808 7.25836 22.0737 6.94707 21.4845 6.9096L21.3575 8.90556ZM21.2771 9.10638C21.2913 9.14254 21.3078 9.18433 21.3246 9.22586L23.1775 8.47304C23.1656 8.44364 23.1533 8.41239 23.1383 8.37429L21.2771 9.10638ZM22.2317 9.84926C22.7758 9.8598 23.3196 9.8673 23.8603 9.87476L23.8879 7.87495C23.3463 7.86748 22.8081 7.86005 22.2704 7.84964L22.2317 9.84926ZM23.8603 9.87476C24.9001 9.88911 25.9283 9.90334 26.9544 9.93851L27.023 7.93969C25.973 7.90369 24.9243 7.88926 23.8879 7.87495L23.8603 9.87476ZM27.0168 9.93871C26.9783 9.93979 26.9721 9.92085 27.0183 9.9547C27.0741 9.99551 27.1516 10.0755 27.2413 10.2052L28.8857 9.06675C28.606 8.6628 27.9778 7.91092 26.9606 7.9395L27.0168 9.93871ZM28.6444 10.4499C29.5321 9.81643 30.8417 9.83842 31.6983 10.5013L32.9223 8.91967C31.3606 7.71095 29.0811 7.68117 27.4826 8.82198L28.6444 10.4499ZM33.1714 10.2189C33.2092 10.1549 33.2592 10.1045 33.3086 10.0727C33.356 10.0421 33.3938 10.0337 33.4199 10.033L33.3666 8.03376C32.5079 8.05666 31.8182 8.57711 31.4492 9.20203L33.1714 10.2189ZM33.3705 10.0331C34.1743 10.0515 34.9776 10.0641 35.7768 10.0767L35.8083 8.07699C35.008 8.06437 34.2117 8.0518 33.416 8.03366L33.3705 10.0331ZM35.7768 10.0767C36.5771 10.0894 37.3734 10.1019 38.169 10.1201L38.2146 8.1206C37.4108 8.10227 36.6075 8.0896 35.8083 8.07699L35.7768 10.0767ZM39.1714 9.32145C39.1821 9.26942 39.1968 9.22156 39.213 9.18272C39.2208 9.16385 39.2281 9.14938 39.234 9.13902C39.2399 9.1286 39.2435 9.1241 39.2434 9.12412C39.2434 9.12419 39.2387 9.13019 39.2281 9.13941C39.2173 9.14883 39.2006 9.16138 39.1776 9.17369C39.1543 9.1862 39.1278 9.1967 39.0995 9.2037C39.0711 9.21071 39.0464 9.21284 39.0279 9.21267L39.046 7.21275C38.4202 7.2071 37.9584 7.52402 37.6734 7.88523C37.4083 8.22113 37.2755 8.61128 37.2123 8.91922L39.1714 9.32145ZM39.063 9.21237C39.6884 9.19611 40.3185 9.21126 40.978 9.22733L41.0267 7.22792C40.3756 7.21205 39.6951 7.19526 39.011 7.21305L39.063 9.21237ZM40.978 9.22733C41.5316 9.24082 42.1065 9.25494 42.684 9.24803L42.6601 7.24817C42.1249 7.25457 41.5864 7.24156 41.0267 7.22792L40.978 9.22733ZM42.6937 9.24787C42.7135 9.24744 42.7315 9.24907 42.7445 9.25143C42.7581 9.25389 42.7562 9.2553 42.7421 9.24873C42.7276 9.24193 42.6925 9.2229 42.6526 9.182C42.61 9.13835 42.5736 9.0814 42.5523 9.01795L44.4482 8.38117C44.2843 7.89309 43.9278 7.5953 43.5894 7.43708C43.2656 7.28564 42.9269 7.24236 42.6505 7.24833L42.6937 9.24787ZM42.6276 9.18778C42.6172 9.16925 42.6088 9.14594 42.6047 9.12345C42.601 9.10324 42.603 9.09606 42.6019 9.10975C42.6007 9.12521 42.5965 9.15524 42.5838 9.20873C42.5706 9.26449 42.5535 9.32463 42.5282 9.41232L44.45 9.96617C44.5244 9.70819 44.789 8.95503 44.373 8.21133L42.6276 9.18778ZM42.5282 9.41234C42.4813 9.57538 42.3854 9.88792 42.3756 10.2247L44.3747 10.283C44.3759 10.2436 44.3887 10.179 44.45 9.96616L42.5282 9.41234ZM43.6661 11.2106C44.5201 10.9509 45.5258 11.4982 45.7444 12.3065L47.675 11.7842C47.1419 9.81339 44.9446 8.73134 43.0842 9.29711L43.6661 11.2106ZM46.6682 13.0445C47.1208 13.0633 47.3518 13.0763 47.473 13.0854C47.5023 13.0876 47.5227 13.0894 47.5366 13.0907C47.5505 13.0921 47.556 13.0928 47.5557 13.0928C47.5457 13.0914 47.5307 13.0883 47.5318 13.0886L47.9672 11.1366C47.8004 11.0994 47.6207 11.0824 46.7513 11.0462L46.6682 13.0445ZM47.5318 13.0886C47.7124 13.1289 47.8881 13.1376 48.7675 13.1627L48.8246 11.1635C48.3535 11.1501 48.1199 11.1412 47.9987 11.1344C47.9373 11.131 47.9212 11.129 47.925 11.1295C47.9296 11.13 47.9399 11.1314 47.9535 11.1339C47.9657 11.1361 47.9755 11.1384 47.9672 11.1366L47.5318 13.0886ZM48.7895 13.1631C48.8961 13.1638 49.0031 13.163 49.1027 13.1622L49.0874 11.1623C48.9853 11.1631 48.8925 11.1637 48.8025 11.1632L48.7895 13.1631ZM49.1027 13.1622C49.8999 13.1561 50.2501 13.1952 50.4855 13.3972L51.7877 11.8792C50.8872 11.1067 49.7163 11.1575 49.0874 11.1623L49.1027 13.1622ZM50.6025 13.4836C50.646 13.5111 50.7024 13.5628 50.7745 13.6846C50.8539 13.8186 50.9207 13.9799 51.0175 14.2215L52.8739 13.4774C52.7159 13.0831 52.4238 12.2686 51.6707 11.7928L50.6025 13.4836ZM51.0175 14.2215C51.0313 14.2559 51.0458 14.2921 51.0605 14.3284L52.9143 13.5778C52.9012 13.5454 52.888 13.5124 52.8739 13.4775L51.0175 14.2215ZM51.1052 14.424C51.6669 15.4762 52.8828 16.2049 54.165 16.0196L53.8789 14.0402C53.5189 14.0922 53.0783 13.8732 52.8695 13.4822L51.1052 14.424ZM54.1162 16.0255C55.5323 15.8914 56.6455 14.69 56.7668 13.3266L54.7746 13.1494C54.7345 13.601 54.3363 13.9957 53.9277 14.0344L54.1162 16.0255ZM56.7602 13.3827C56.9929 11.7917 55.7715 10.3023 54.2493 10.0961L53.9808 12.078C54.4615 12.1431 54.8441 12.6636 54.7812 13.0933L56.7602 13.3827ZM54.2392 10.0948C54.2221 10.0926 54.2052 10.0906 54.1892 10.0886L53.9445 12.0736C53.9607 12.0756 53.9759 12.0774 53.9909 12.0793L54.2392 10.0948ZM54.1892 10.0886C54.101 10.0777 54.0388 10.0699 53.9813 10.06C53.9258 10.0505 53.8932 10.0421 53.8744 10.036C53.8569 10.0303 53.8608 10.0295 53.8757 10.039C53.8927 10.0499 53.9129 10.067 53.9297 10.0883L52.361 11.3289C52.884 11.9902 53.6943 12.0427 53.9445 12.0736L54.1892 10.0886ZM54.065 10.3158C54.0251 10.2224 53.9829 10.1237 53.9391 10.0245L52.1096 10.8324C52.1476 10.9186 52.1851 11.0062 52.2257 11.1013L54.065 10.3158ZM54.0128 10.2768C54.018 10.3108 54.0098 10.34 53.9903 10.3659C53.9789 10.3812 53.9594 10.4007 53.9291 10.4174C53.897 10.435 53.8611 10.4447 53.8286 10.446L53.7514 8.44744C52.5602 8.49346 51.8863 9.60477 52.0359 10.5801L54.0128 10.2768ZM53.8148 10.4464C55.0815 10.415 56.3025 11.5263 56.3714 12.7726L58.3684 12.6623C58.2382 10.3069 56.0825 8.38966 53.7653 8.447L53.8148 10.4464ZM56.3764 12.8316C56.5084 13.9802 55.7119 15.1928 54.6048 15.5315L55.19 17.444C57.2152 16.8243 58.606 14.7144 58.3633 12.6032L56.3764 12.8316ZM54.5764 15.5407C53.4205 15.9325 51.9894 15.3314 51.4463 14.2264L49.6513 15.1086C50.6306 17.1009 53.0966 18.154 55.2184 17.4348L54.5764 15.5407ZM51.4386 14.2112C51.4166 14.1683 51.3948 14.1162 51.3539 14.0153L49.5005 14.7669C49.5356 14.8534 49.5897 14.9887 49.659 15.1238L51.4386 14.2112ZM51.3539 14.0153C51.2943 13.8683 51.1745 13.5537 50.9484 13.2747L49.3947 14.534C49.3922 14.531 49.401 14.541 49.4205 14.5803C49.4421 14.6241 49.4633 14.6753 49.5005 14.7669L51.3539 14.0153ZM50.7245 13.0711C50.224 12.739 49.6548 12.7766 49.4876 12.779L49.517 14.7788C49.5774 14.7779 49.6173 14.7775 49.6539 14.7783C49.6888 14.779 49.7071 14.7808 49.7154 14.7819C49.7298 14.7838 49.6819 14.7796 49.6186 14.7376L50.7245 13.0711ZM49.4876 12.779C49.4653 12.7794 49.4464 12.7796 49.428 12.7798L49.4468 14.7797C49.4714 14.7795 49.4958 14.7791 49.517 14.7788L49.4876 12.779ZM49.4537 12.7799C49.2543 12.7767 49.1129 12.7734 49.0141 12.7702C48.9647 12.7686 48.9281 12.767 48.9016 12.7657C48.8884 12.765 48.8787 12.7644 48.8717 12.764C48.8646 12.7635 48.862 12.7632 48.8627 12.7633C48.8629 12.7633 48.8707 12.764 48.8837 12.7658C48.8936 12.7672 48.9247 12.7716 48.9661 12.7816C48.9782 12.7845 49.1169 12.8144 49.2664 12.9109C49.3402 12.9586 49.5282 13.0924 49.6409 13.3537C49.781 13.6785 49.7256 14.0075 49.5924 14.242C49.4854 14.4305 49.3459 14.5329 49.2921 14.57C49.2259 14.6157 49.1683 14.6434 49.1384 14.6569C49.0783 14.6841 49.0299 14.6983 49.017 14.7021C48.9879 14.7107 48.9628 14.7161 48.9801 14.7121L48.531 12.7632C48.5285 12.7638 48.5183 12.7661 48.5074 12.7688C48.497 12.7713 48.4763 12.7765 48.4514 12.7838C48.4325 12.7894 48.3788 12.8054 48.3148 12.8344C48.283 12.8488 48.2237 12.8773 48.1561 12.924C48.1011 12.962 47.9606 13.0653 47.8531 13.2546C47.7195 13.4901 47.6639 13.8199 47.8044 14.1457C47.9175 14.4078 48.1064 14.5426 48.1816 14.5911C48.3338 14.6894 48.4775 14.7211 48.497 14.7258C48.5798 14.7458 48.6541 14.7525 48.6787 14.7548C48.8016 14.7662 49.0293 14.7733 49.4212 14.7796L49.4537 12.7799ZM48.9801 14.7121C48.9826 14.7116 48.9927 14.7092 49.0035 14.7066C49.0137 14.7041 49.0348 14.6989 49.0602 14.6914C49.0784 14.686 49.1362 14.6687 49.2049 14.6368C49.2385 14.6212 49.3064 14.5877 49.3827 14.531C49.4428 14.4863 49.6143 14.3508 49.715 14.0998C49.8467 13.7717 49.7896 13.4224 49.6137 13.1637C49.4785 12.965 49.3099 12.8709 49.2502 12.8396C49.1188 12.7706 49.0015 12.7477 48.9811 12.7435C48.9077 12.7282 48.8416 12.7228 48.8164 12.7208C48.6974 12.7113 48.474 12.7056 48.0844 12.7009L48.0601 14.7008C48.4713 14.7058 48.6199 14.7115 48.6574 14.7145C48.6713 14.7156 48.631 14.7135 48.5731 14.7014C48.5605 14.6988 48.4484 14.6776 48.3203 14.6102C48.2621 14.5797 48.0945 14.4864 47.9599 14.2886C47.7845 14.0307 47.7276 13.6822 47.8589 13.355C47.9593 13.1048 48.1301 12.9701 48.189 12.9263C48.2641 12.8704 48.3305 12.8378 48.3623 12.823C48.4274 12.7928 48.4803 12.7772 48.4926 12.7736C48.5227 12.7647 48.5489 12.7591 48.531 12.7632L48.9801 14.7121ZM48.1113 12.7016C48.0726 12.7001 48.0337 12.6985 47.994 12.6969L47.9129 14.6952C47.9524 14.6969 47.9927 14.6985 48.0332 14.7001L48.1113 12.7016ZM47.994 12.6969C47.5839 12.6803 47.0694 12.6568 46.5458 12.7278L46.8143 14.7097C47.1348 14.6662 47.4729 14.6774 47.9129 14.6952L47.994 12.6969ZM45.7355 13.3902C45.5333 13.9714 44.9648 14.4203 44.3391 14.4881L44.5545 16.4764C45.9308 16.3273 47.1627 15.3749 47.6245 14.0472L45.7355 13.3902ZM44.2236 14.5075C44.2282 14.5064 44.2149 14.5106 44.1652 14.5075C44.1078 14.5038 44.0422 14.494 43.9197 14.474L43.5986 16.4481C43.7952 16.4801 44.2171 16.5607 44.67 16.457L44.2236 14.5075ZM43.9197 14.474C43.7702 14.4497 43.4976 14.4016 43.2048 14.4162L43.3041 16.4137C43.35 16.4114 43.4128 16.4179 43.5986 16.4481L43.9197 14.474ZM42.2652 15.5612C42.2977 15.7814 42.3596 15.9939 42.3984 16.1305L44.3224 15.5846C44.2761 15.4214 44.2538 15.3372 44.2437 15.2687L42.2652 15.5612ZM42.3984 16.1305C42.4255 16.2261 42.4452 16.2963 42.4608 16.3625C42.4759 16.4267 42.4824 16.4686 42.4848 16.4962C42.4888 16.5426 42.4789 16.5112 42.5048 16.4641L44.2574 17.4275C44.6783 16.6619 44.4012 15.8622 44.3224 15.5846L42.3984 16.1305ZM42.4971 16.4782C42.5355 16.4057 42.5898 16.3714 42.6138 16.3606C42.6324 16.3523 42.6343 16.3559 42.6255 16.3551L42.4488 18.3473C43.0483 18.4004 43.8614 18.1762 44.265 17.4134L42.4971 16.4782ZM42.58 16.3521C41.9845 16.3265 41.3912 16.3206 40.8172 16.3148L40.7969 18.3147C41.3765 18.3205 41.9369 18.3263 42.4942 18.3503L42.58 16.3521ZM40.8172 16.3148C40.1474 16.308 39.5034 16.3014 38.8638 16.2668L38.756 18.2639C39.4466 18.3012 40.1345 18.308 40.7969 18.3147L40.8172 16.3148ZM38.884 16.2681C38.9072 16.2699 38.9372 16.2751 38.9707 16.2868C39.0043 16.2985 39.0346 16.3142 39.0605 16.3317C39.1114 16.3661 39.13 16.3969 39.1269 16.3921C39.1231 16.3862 39.1085 16.3607 39.0891 16.3057C39.0702 16.2521 39.0523 16.1867 39.0349 16.1085L37.083 16.5445C37.1343 16.7742 37.231 17.1423 37.4458 17.4755C37.6821 17.8421 38.0994 18.2153 38.7358 18.2626L38.884 16.2681ZM38.0611 15.3265C37.2611 15.3247 36.4595 15.309 35.6479 15.293L35.6086 17.2926C36.4173 17.3085 37.2363 17.3247 38.0567 17.3265L38.0611 15.3265ZM35.6479 15.293C35.1741 15.2837 34.6968 15.2743 34.2192 15.2678L34.1918 17.2676C34.6625 17.274 35.1338 17.2833 35.6086 17.2926L35.6479 15.293ZM34.3107 15.2732C34.0833 15.2492 33.8612 15.2552 33.7147 15.2583L33.7564 17.2578C33.9264 17.2543 34.0204 17.2537 34.1003 17.2622L34.3107 15.2732ZM33.7147 15.2583C33.5389 15.2619 33.4432 15.2624 33.3621 15.2532C33.3273 15.2492 33.3065 15.2444 33.2951 15.2411C33.2896 15.2395 33.2863 15.2382 33.2847 15.2375C33.2831 15.2369 33.2825 15.2365 33.2824 15.2365L32.2966 16.9766C32.8662 17.2993 33.48 17.2636 33.7564 17.2578L33.7147 15.2583ZM33.2099 15.1992C33.225 15.2062 33.2136 15.2054 33.1716 15.1628C33.1246 15.1151 33.0742 15.0524 32.9878 14.9401L31.402 16.1587C31.5439 16.3434 31.8583 16.7772 32.3691 17.0139L33.2099 15.1992ZM31.6029 14.7435C30.7392 15.378 29.4216 15.3478 28.579 14.6748L27.3309 16.2376C28.8725 17.4688 31.187 17.5307 32.787 16.3553L31.6029 14.7435ZM27.1026 14.9333C27.0504 15.0184 26.9919 15.0769 26.9469 15.1079C26.9067 15.1355 26.8956 15.13 26.9066 15.13L26.898 17.13C27.8318 17.134 28.4807 16.5114 28.8073 15.9791L27.1026 14.9333ZM26.8821 15.1302C26.1685 15.1446 25.4506 15.1269 24.7066 15.1083L24.6568 17.1077C25.3932 17.1261 26.1562 17.1452 26.9225 17.1298L26.8821 15.1302ZM24.7066 15.1083C23.8317 15.0865 22.9198 15.0634 22.0045 15.0991L22.0823 17.0976C22.9232 17.0648 23.7711 17.0856 24.6568 17.1077L24.7066 15.1083ZM21.0482 16.0008C21.0461 16.022 21.0408 16.0438 21.0339 16.0614C21.0269 16.0794 21.0226 16.082 21.0294 16.0739C21.0369 16.0648 21.0605 16.04 21.1051 16.018C21.1532 15.9943 21.2031 15.9852 21.2418 15.9862L21.1883 17.9855C21.7892 18.0016 22.2642 17.7175 22.5681 17.3516C22.8552 17.0057 23.0007 16.5826 23.0386 16.1959L21.0482 16.0008ZM21.2421 15.9862C20.6981 15.9715 20.1549 15.9644 19.6198 15.9574L19.5937 17.9572C20.1311 17.9643 20.6603 17.9712 21.188 17.9855L21.2421 15.9862ZM19.6198 15.9574C18.887 15.9478 18.1696 15.9384 17.4556 15.9105L17.3774 17.9089C18.1217 17.9381 18.8653 17.9477 19.5937 17.9572L19.6198 15.9574ZM17.427 15.9097C17.4759 15.9103 17.5423 15.929 17.5995 15.9713C17.6496 16.0083 17.6665 16.0435 17.6693 16.0499C17.6719 16.0558 17.6692 16.0513 17.6693 16.0411C17.6695 16.0311 17.6719 16.037 17.6619 16.0567L15.8786 15.1514C15.6035 15.6933 15.6111 16.3309 15.8346 16.846C16.0717 17.3924 16.61 17.9013 17.4061 17.9096L17.427 15.9097ZM16.3648 14.6899C15.5042 15.0716 14.483 15.0161 13.7789 14.5319L12.6456 16.1799C14.0072 17.1162 15.7798 17.1372 17.1757 16.5182L16.3648 14.6899ZM13.7348 14.5033C13.1982 14.1744 12.7969 13.5532 12.6028 12.8101L10.6677 13.3156C10.9505 14.3983 11.5892 15.534 12.6897 16.2085L13.7348 14.5033ZM11.5676 12.0651C11.2421 12.0872 10.9086 12.0774 10.5172 12.065L10.4537 14.064C10.8287 14.0759 11.2616 14.0905 11.7029 14.0605L11.5676 12.0651ZM10.5172 12.065C10.2176 12.0555 9.8812 12.0445 9.53949 12.0552L9.60206 14.0542C9.87026 14.0458 10.1436 14.0542 10.4537 14.064L10.5172 12.065ZM9.51398 12.0563C9.51808 12.0561 9.52024 12.0564 9.52108 12.0565C9.52192 12.0566 9.52356 12.057 9.52644 12.0581L8.80198 13.9223C9.06362 14.0239 9.34684 14.0691 9.62757 14.0531L9.51398 12.0563ZM13.538 9.82023C12.7765 10.3073 12.338 11.1114 12.221 11.9149C12.1036 12.721 12.2965 13.6283 12.9339 14.3123L14.397 12.9486C14.2401 12.7803 14.155 12.513 14.2001 12.203C14.2457 11.8903 14.41 11.6366 14.6157 11.505L13.538 9.82023ZM16.4736 9.63247C15.5326 9.17511 14.3943 9.25427 13.5255 9.8283L14.6281 11.4969C14.9108 11.3102 15.2978 11.2847 15.5993 11.4312L16.4736 9.63247ZM17.4466 14.2956C18.13 13.5466 18.2819 12.5501 18.0928 11.7009C17.9043 10.854 17.3488 10.0228 16.4442 9.61878L15.6286 11.4449C15.8606 11.5485 16.0653 11.797 16.1406 12.1354C16.2154 12.4716 16.1348 12.766 15.9692 12.9474L17.4466 14.2956ZM12.8823 14.2522C13.467 14.9887 14.3547 15.3302 15.1885 15.3332C16.0253 15.3363 16.9258 14.9976 17.5079 14.2215L15.9079 13.0215C15.7697 13.2058 15.5164 13.3344 15.1958 13.3333C14.8722 13.3321 14.5989 13.1979 14.4487 13.0087L12.8823 14.2522ZM17.5783 9.62317C17.8868 11.4429 17.8562 13.3232 17.4819 15.1277L19.4402 15.5339C19.8657 13.4826 19.8998 11.3512 19.5502 9.28886L17.5783 9.62317ZM20.693 8.49167C19.9846 8.48507 19.2893 8.47855 18.596 8.45652L18.5325 10.4555C19.252 10.4784 19.9697 10.485 20.6743 10.4916L20.693 8.49167ZM21.5592 15.5815C21.9968 13.5178 22.0211 11.3893 21.6695 9.3238L19.6978 9.65946C20.009 11.4873 19.9857 13.3608 19.6027 15.1667L21.5592 15.5815ZM19.2673 16.3436C19.705 16.3483 20.1203 16.3528 20.5322 16.3729L20.6297 14.3753C20.1734 14.353 19.7201 14.3483 19.2887 14.3437L19.2673 16.3436ZM18.4354 16.3305C18.7165 16.3377 18.9963 16.3407 19.2673 16.3436L19.2887 14.3437C19.0152 14.3408 18.7504 14.3379 18.4867 14.3311L18.4354 16.3305ZM22.5074 15.4773C23.1864 15.4652 23.8682 15.4799 24.573 15.4952L24.6165 13.4957C23.9183 13.4805 23.1969 13.4647 22.4718 13.4776L22.5074 15.4773ZM21.5241 12.672C21.5171 13.2719 21.5101 13.8588 21.4902 14.4434L23.489 14.5115C23.5098 13.901 23.517 13.2917 23.524 12.6955L21.5241 12.672ZM21.577 10.408C21.5417 11.1704 21.5328 11.9312 21.5241 12.672L23.524 12.6955C23.5328 11.949 23.5414 11.2227 23.5749 10.5005L21.577 10.408ZM25.7722 9.51568C24.7098 9.50127 23.657 9.48696 22.6066 9.45469L22.5452 11.4537C23.6156 11.4866 24.6855 11.5011 25.7451 11.5155L25.7722 9.51568ZM26.5645 9.52671C26.3002 9.52284 26.0359 9.51926 25.7722 9.51568L25.7451 11.5155C26.009 11.5191 26.2722 11.5226 26.5352 11.5265L26.5645 9.52671ZM27.5274 12.5011C27.5417 11.8532 27.5566 11.1864 27.5498 10.5164L25.5499 10.5368C25.5563 11.169 25.5424 11.8035 25.5279 12.4568L27.5274 12.5011ZM27.5063 14.5032C27.4977 13.8443 27.5123 13.183 27.5274 12.5011L25.5279 12.4568C25.5129 13.1328 25.4973 13.8294 25.5065 14.5294L27.5063 14.5032ZM24.573 15.4952C25.2074 15.509 25.8608 15.5234 26.5173 15.5162L26.4955 13.5163C25.8771 13.5231 25.2563 13.5096 24.6165 13.4957L24.573 15.4952ZM28.3738 10.1614C27.4041 10.8627 26.9572 12.0981 27.2116 13.2448L29.1641 12.8115C29.0783 12.4245 29.2387 12.0041 29.5459 11.7819L28.3738 10.1614ZM32.36 10.5915C31.373 9.43668 29.5417 9.26453 28.351 10.1783L29.5687 11.765C29.9279 11.4892 30.5538 11.5565 30.8395 11.8909L32.36 10.5915ZM32.8417 13.8643C33.3961 12.7532 33.1154 11.4065 32.3336 10.5619L30.8659 11.9205C31.138 12.2145 31.1999 12.6752 31.0521 12.9712L32.8417 13.8643ZM30.4879 15.5571C31.4153 15.4254 32.4425 14.8535 32.8732 13.7945L31.0206 13.041C30.9246 13.2769 30.6238 13.5177 30.2067 13.577L30.4879 15.5571ZM27.208 13.2278C27.5051 14.6863 28.9828 15.7684 30.4863 15.5573L30.2083 13.5767C29.7748 13.6376 29.2587 13.2749 29.1678 12.8285L27.208 13.2278ZM32.7668 10.6587C32.7705 11.4117 32.7551 12.1672 32.7393 12.9376L34.7389 12.9786C34.7546 12.2124 34.7706 11.4315 34.7668 10.6488L32.7668 10.6587ZM35.5117 9.68089C34.9372 9.67008 34.357 9.65917 33.7761 9.65376L33.7575 11.6537C34.3273 11.659 34.898 11.6697 35.4741 11.6805L35.5117 9.68089ZM37.745 9.7109C37.0049 9.70894 36.2631 9.69502 35.5117 9.68089L35.4741 11.6805C36.2228 11.6946 36.9807 11.7089 37.7397 11.7109L37.745 9.7109ZM38.7392 13.0116C38.7591 12.2594 38.7805 11.4632 38.7411 10.6618L36.7435 10.76C36.7786 11.4734 36.7601 12.194 36.7399 12.9589L38.7392 13.0116ZM38.7188 14.6938C38.7095 14.144 38.7239 13.5904 38.7392 13.0116L36.7399 12.9589C36.7248 13.5304 36.7089 14.1274 36.7191 14.7278L38.7188 14.6938ZM35.7932 15.6862C36.4255 15.7002 37.0739 15.7145 37.7248 15.7108L37.7132 13.7108C37.0948 13.7144 36.4742 13.7007 35.8373 13.6867L35.7932 15.6862ZM33.7239 15.6638C34.4055 15.6557 35.0895 15.6707 35.7932 15.6862L35.8373 13.6867C35.1392 13.6713 34.4213 13.6554 33.7002 13.664L33.7239 15.6638ZM32.7393 12.9376C32.7277 13.505 32.7159 14.0805 32.7121 14.6573L34.712 14.6705C34.7157 14.1099 34.7272 13.5483 34.7389 12.9786L32.7393 12.9376ZM39.6401 16.6982C40.2502 16.6886 40.865 16.7029 41.5031 16.7178L41.55 14.7184C40.9185 14.7036 40.2644 14.6881 39.6085 14.6985L39.6401 16.6982ZM38.7545 9.56564C38.2523 11.6338 38.2216 13.8214 38.6444 15.8979L40.6041 15.4989C40.2388 13.7047 40.2666 11.8145 40.6981 10.0376L38.7545 9.56564ZM40.1644 8.81689C40.0313 8.81185 39.8957 8.80671 39.7597 8.80217L39.6929 10.801C39.8237 10.8054 39.9549 10.8104 40.0888 10.8155L40.1644 8.81689ZM41.7315 8.83831C41.228 8.8567 40.7177 8.83784 40.1644 8.81689L40.0888 10.8155C40.6295 10.8359 41.2142 10.8585 41.8045 10.837L41.7315 8.83831ZM42.6866 15.5482C42.3681 13.7454 42.46 11.8737 42.7558 9.99304L40.7801 9.68224C40.4642 11.6906 40.3469 13.8005 40.7171 15.8962L42.6866 15.5482ZM41.5031 16.7178C41.5615 16.7192 41.6201 16.7206 41.6787 16.7219L41.7249 14.7225C41.6667 14.7211 41.6084 14.7198 41.55 14.7184L41.5031 16.7178ZM42.5472 11.5338C42.0019 12.1898 42.0143 13.0279 42.2758 13.6398C42.5387 14.2551 43.1462 14.8524 44.0242 14.8822L44.092 12.8833C44.1023 12.8837 44.1146 12.886 44.1263 12.8904C44.1374 12.8945 44.1433 12.8988 44.1442 12.8995C44.1449 12.9 44.141 12.8971 44.1346 12.8887C44.1283 12.8803 44.1212 12.8685 44.1149 12.8539C44.1087 12.8393 44.1045 12.8246 44.1023 12.8114C44.1001 12.7982 44.1003 12.7891 44.1007 12.785C44.101 12.781 44.1014 12.7831 44.0988 12.7895C44.096 12.7965 44.0914 12.8048 44.0853 12.8121L42.5472 11.5338ZM46.0626 12.0459C45.7692 11.2456 45.0514 10.8498 44.3936 10.7807C43.7462 10.7127 42.9903 10.9392 42.5155 11.574L44.117 12.7719C44.1085 12.7833 44.1032 12.7823 44.1158 12.7774C44.131 12.7714 44.1565 12.7668 44.1847 12.7697C44.2128 12.7727 44.2225 12.7808 44.217 12.777C44.2135 12.7745 44.2067 12.769 44.1995 12.7597C44.1919 12.75 44.1872 12.7406 44.1849 12.7345L46.0626 12.0459ZM43.9278 14.8742C44.746 14.9818 45.4418 14.5605 45.8302 14.0257C46.222 13.4861 46.4091 12.6777 46.0068 11.9209L44.2407 12.8595C44.2374 12.8532 44.2339 12.8438 44.232 12.8329C44.2302 12.8226 44.2306 12.8157 44.2309 12.8135C44.2311 12.8117 44.2309 12.8149 44.2279 12.8224C44.2249 12.8299 44.2197 12.8398 44.2119 12.8505C44.2041 12.8613 44.1952 12.8707 44.1863 12.8783C44.1775 12.8858 44.1705 12.8898 44.1668 12.8916C44.1632 12.8933 44.1639 12.8925 44.1689 12.8916C44.1743 12.8906 44.1814 12.8903 44.1885 12.8913L43.9278 14.8742Z" fill="black" mask="url(#path-16-inside-1_10004_18123)"/>
<path d="M22.9132 20.2048C23.1752 19.688 24.148 19.7362 24.3287 20.2841C24.6793 21.293 24.8989 22.333 25.2252 23.3484C25.4108 24.2779 25.8329 25.2032 26.6335 25.853C27.223 26.3815 28.026 26.6378 28.7417 27.0012C30.6874 28.0048 32.3443 29.4801 33.3754 31.2567C34.2621 30.0848 34.5253 28.5366 33.988 27.1996C33.8121 26.6667 33.487 26.1885 33.208 25.6953C33.0673 25.1678 33.6241 24.6789 34.2197 24.8012C35.2883 25.3233 36.3534 25.8487 37.4208 26.3708C39.1251 27.1953 40.554 28.4615 41.4444 29.9905C42.712 32.0726 42.8272 34.5826 42.1843 36.8448C41.8871 37.634 41.6348 38.4467 41.1775 39.179C41.2115 39.1725 41.2794 39.1575 41.3146 39.1511C42.5507 38.2344 43.5114 37.0303 44.0669 35.689C44.2222 35.2494 44.3302 34.7981 44.4963 34.3628C44.7062 33.9242 45.4631 33.846 45.7918 34.218C46.0272 34.5375 46.1764 34.8999 46.3522 35.2473C46.8775 36.3506 47.524 37.4142 47.9061 38.5667C48.2967 39.9498 48.2797 41.4241 47.8358 42.7954C49.6492 43.5995 51.4554 44.6524 52.4586 46.2617C52.7764 46.8332 52.9984 47.4625 52.9996 48.1048C53.0166 48.5411 52.5289 48.8928 52.0498 48.8381C36.6821 48.8371 21.3144 48.8381 5.94792 48.8381C5.47 48.8917 4.98115 48.5411 5.00056 48.1058C5.01633 46.935 5.68713 45.8436 6.59203 45.0169C7.84751 43.8686 9.43898 43.0441 11.0911 42.4212C11.0972 41.7457 11.0535 41.0649 11.1748 40.3959C11.3179 39.4406 11.7825 38.5496 11.9099 37.5921C12.1185 36.3559 11.7777 35.1079 11.2791 33.9586C10.9747 33.089 10.6205 32.2334 10.3136 31.365C10.1692 30.9458 9.8041 30.4515 10.1547 30.0376C10.2857 29.8275 10.5659 29.7985 10.8 29.7353C12.0094 29.9797 13.1908 30.3132 14.3941 30.5769C15.3646 30.7978 16.3071 31.1505 17.0725 31.7349C18.7137 32.9186 19.5592 34.8903 19.2098 36.7376C19.1492 37.0678 19.0145 37.4152 19.1455 37.7455C19.2644 37.9438 19.473 38.0928 19.7047 38.1808C20.1827 38.3823 20.811 38.1164 20.9651 37.6736C21.2343 37.0175 21.3617 36.3248 21.6019 35.6612C21.9585 34.693 22.0737 33.6616 21.9803 32.6473C21.8384 31.4197 21.3108 30.2381 20.4993 29.2356C19.6732 28.1903 19.3845 26.8361 19.7254 25.5978C19.9376 24.7915 20.4786 24.1042 20.9068 23.3816C21.5837 22.3266 22.2314 21.2566 22.9132 20.2048ZM21.4939 25.3801C21.1106 26.1328 21.1009 27.0216 21.4224 27.7936C21.6989 28.3961 22.2242 28.8754 22.5274 29.4662C23.5827 31.2052 23.8751 33.2788 23.3959 35.2023C23.1121 36.0997 22.8646 37.0057 22.5626 37.8988C22.3588 38.7201 21.5861 39.4223 20.6472 39.5875C19.9595 39.7354 19.2122 39.6057 18.6179 39.2744C17.901 38.8723 17.4691 38.1282 17.4691 37.3841C17.4958 36.9853 17.6487 36.6036 17.6802 36.2058C17.8051 34.7155 16.9136 33.1973 15.4446 32.4511C14.4002 31.9279 13.186 31.8024 12.0567 31.4861C12.4181 32.5712 12.8682 33.6305 13.2454 34.7112C13.7391 36.3259 13.6372 38.066 12.9919 39.6368C12.5055 41.2504 12.571 43.0152 13.2757 44.572C13.687 45.6302 14.4985 46.504 15.2032 47.4154C24.518 47.4261 33.8315 47.4154 43.1462 47.4207C43.7176 46.5683 44.2986 45.7203 44.8736 44.87C45.4097 44.0777 46.0017 43.2982 46.2928 42.4019C46.6009 41.4155 46.6834 40.3658 46.4529 39.358C46.288 38.4252 45.7664 37.5857 45.3406 36.7312C44.6346 38.0232 43.6945 39.2347 42.433 40.1557C41.6542 40.725 40.7966 41.2075 39.9427 41.6857C39.3726 41.9913 38.6035 41.3994 38.8461 40.8558C39.2476 39.7858 39.7522 38.7479 40.1695 37.6833C40.8549 36.208 41.1496 34.5654 40.8743 32.9829C40.6329 31.3768 39.7401 29.8586 38.4106 28.7467C37.6088 28.0498 36.6117 27.5674 35.6171 27.1224C36.2697 29.1702 35.5443 31.4861 33.8545 32.9893C33.6483 33.2027 33.322 33.3421 33.0018 33.2595C32.6051 33.1812 32.4462 32.8178 32.3007 32.5251C31.4006 30.682 29.78 29.1231 27.7919 28.156C27.331 27.918 26.8263 27.7518 26.3872 27.4805C25.4945 26.9787 24.7824 26.2507 24.2996 25.4219C23.7853 24.4859 23.6337 23.4438 23.3147 22.451C22.7251 23.4363 22.0835 24.3948 21.4939 25.3801ZM9.81987 44.5655C10.3948 44.5998 10.971 44.5784 11.546 44.5816C11.4975 44.3329 11.4271 44.0884 11.3434 43.8483C10.8242 44.068 10.3257 44.3222 9.81987 44.5655ZM47.2256 44.0938C47.1298 44.2535 47.0388 44.4144 46.9588 44.5816C47.3785 44.5859 47.7994 44.5859 48.2191 44.5741C47.8843 44.4197 47.5543 44.2578 47.2256 44.0938ZM7.72014 46.0033C7.2968 46.4193 6.94624 46.89 6.72062 47.4154C8.89676 47.4218 11.0729 47.4239 13.2478 47.4143C12.8864 46.9661 12.5346 46.5072 12.2592 46.013C10.7466 45.9894 9.23277 46.0076 7.72014 46.0033ZM45.9592 46.0033C45.6681 46.4836 45.3175 46.934 45.0204 47.4111C47.1067 47.4282 49.1943 47.4196 51.2819 47.4154C51.0587 46.8921 50.7155 46.4182 50.2921 46.0044C48.8474 46.0001 47.4039 46.0022 45.9592 46.0033Z" fill="black"/>
<path d="M47.0262 27.0414C47.4704 26.9511 47.9915 27.3074 47.95 27.7883C47.9561 28.634 47.9622 29.4809 47.9476 30.3266C47.9354 30.8441 47.3032 31.209 46.8395 30.9808C46.5674 30.8258 46.3257 30.5463 46.3526 30.2144C46.3489 29.4004 46.3416 28.5852 46.3574 27.7712C46.3623 27.4063 46.6699 27.089 47.0262 27.0414Z" fill="black"/>
<path d="M15.0262 23.0414C15.4704 22.9511 15.9915 23.3074 15.95 23.7883C15.9561 24.634 15.9622 25.4809 15.9476 26.3266C15.9354 26.8441 15.3032 27.209 14.8395 26.9808C14.5674 26.8258 14.3257 26.5463 14.3526 26.2144C14.3489 25.4004 14.3416 24.5852 14.3574 23.7712C14.3623 23.4063 14.6699 23.089 15.0262 23.0414Z" fill="black"/>
<path d="M49.7777 27.9694C50.2317 27.6094 50.9773 27.9243 51.0335 28.5015C51.0664 29.3631 51.053 30.2283 51.042 31.0899C51.0371 31.4487 50.7528 31.7013 50.455 31.8502C50.0303 31.8978 49.5324 31.6806 49.4812 31.2107C49.4165 30.5163 49.4738 29.8159 49.4519 29.1202C49.4555 28.7248 49.4018 28.2233 49.7777 27.9694Z" fill="black"/>
<path d="M36.2956 37.8881C36.6817 37.7237 37.1653 38.0391 37.1385 38.4663C37.106 39.2509 36.8862 40.025 36.5278 40.7227C36.3338 41.1308 35.6534 41.1403 35.4479 40.7389C35.3189 40.5516 35.3256 40.305 35.4316 40.1101C35.704 39.5672 35.8149 38.9661 35.9171 38.3735C35.9468 38.1585 36.0949 37.9702 36.2956 37.8881Z" fill="black"/>
<path d="M49.5015 34.0081C49.6186 33.4552 50.4058 33.2649 50.789 33.6627C51.1734 34.0398 51.0343 34.6305 51.0428 35.1113C51.0391 35.475 50.7487 35.7276 50.4473 35.874C50.0519 35.9021 49.5808 35.7288 49.4954 35.2956C49.4282 34.8721 49.427 34.4303 49.5015 34.0081Z" fill="black"/>
<path d="M29.4141 39.361C29.5505 38.9788 29.9824 38.7418 30.3731 38.8868C30.6687 38.9788 30.8603 39.2906 30.844 39.5948C30.8473 40.2843 30.8494 40.9738 30.8429 41.6634C30.8732 42.1353 30.3363 42.5521 29.8914 42.3627C29.6684 42.2869 29.5288 42.0877 29.4162 41.8939C29.4119 41.0496 29.4162 40.2053 29.4141 39.361Z" fill="black"/>
<path d="M34.6824 41.3368C35.1775 41.0683 35.8063 41.6828 35.5148 42.1769C35.2874 42.4646 35.0771 42.8803 34.6595 42.8918C34.2151 42.9271 33.8385 42.3938 34.0708 41.9972C34.2409 41.7526 34.4187 41.4888 34.6824 41.3368Z" fill="black"/>
<path d="M15.2621 41.9284C15.5926 41.7038 16.1115 41.9528 16.1073 42.3615C16.0703 43.2487 16.4244 44.1326 17.0433 44.765C17.2914 44.9744 17.2897 45.4041 17.0231 45.5976C16.823 45.7826 16.495 45.7742 16.3024 45.5824C15.4446 44.7591 14.956 43.5574 15.0031 42.3682C15.0006 42.1866 15.1141 42.0243 15.2621 41.9284Z" fill="black"/>
<path d="M26.5527 41.7624C26.4975 41.2721 27.0301 40.8369 27.4966 41.0188C27.7759 41.0913 27.9794 41.363 27.9794 41.6509C27.9913 42.6739 27.9783 43.6979 27.9838 44.7219C27.816 45.3952 26.7487 45.4255 26.582 44.7382C26.5138 43.7499 26.569 42.754 26.5527 41.7624Z" fill="black"/>
<path d="M29.8697 43.8816C30.3146 43.6727 30.8786 44.0873 30.8418 44.5722C30.8407 45.0821 30.8656 45.5941 30.8266 46.1029C30.7909 46.3746 30.5517 46.5413 30.3417 46.682C29.9498 46.7448 29.4984 46.5467 29.4259 46.1223C29.3945 45.5302 29.4205 44.937 29.4162 44.3449C29.5244 44.1544 29.6521 43.9585 29.8697 43.8816Z" fill="black"/>
</svg>
