<svg width="38" height="32" viewBox="0 0 38 32" fill="none" xmlns="http://www.w3.org/2000/svg">
<path d="M30.4167 29.0267L29.0154 31.4251L14.9597 31.6844L8.69172 31.1383L7.69454 28.6691V26.0811L8.21687 23.6357L6.81641 19.7419L11.1614 20.8578L11.7547 22.4485C11.7389 23.0421 11.7167 24.2719 11.7547 24.4429C11.7927 24.6138 12.1821 25.1156 12.3721 25.3451H13.3459L14.3902 23.8018L14.6753 20.098L13.7729 19.0534L13.3459 16.4179L14.6753 14.7085L15.6252 13.9043L15.9097 15.0909L17.3584 17.0378L19.2338 18.2487L20.3965 19.4581L22.0356 20.6941L22.676 20.338V18.8185V16.8482L24.2192 17.1571L26.8784 19.4581L27.377 22.2607L26.7122 25.0386L26.2378 26.7713L27.9471 25.7508L29.6566 23.3984H30.4167L31.2948 26.7713L30.4167 29.0267Z" fill="white"/>
<path d="M31.1812 28.4629L32.4419 29.0801L31.5129 29.3293H30.5547L30.8313 28.7861L31.1812 28.4629Z" fill="white"/>
<path d="M14.1715 18.9986C14.535 18.4472 14.9308 17.9108 15.2943 17.3594C15.4911 17.915 15.5846 18.4982 15.9017 19.022C16.1995 19.4858 16.6386 19.8932 17.1892 20.1741C20.1585 21.8386 21.7055 26.0212 20.2831 28.9859C20.3729 29.1497 20.4709 29.3531 20.7155 29.3969C20.913 29.4431 21.1142 29.3651 21.2414 29.2457C22.2834 28.4045 23.2836 21.1197 22.8811 19.9737C23.4946 20.2227 24.1095 20.4927 24.6039 20.8827C25.4238 21.5049 25.9744 22.3545 26.1232 23.2534C26.2931 24.139 26.1113 25.0582 25.6886 25.8838C25.4313 26.4796 25.1201 27.0605 24.8725 27.6593C24.7229 27.9635 25.1971 28.2947 25.5487 28.1237C26.0754 27.8561 26.6042 27.5861 27.0845 27.2675C27.8625 26.7521 28.4422 26.074 28.8776 25.351C29.1402 25.8292 29.4618 26.299 29.5636 26.8211C29.7057 27.3851 29.6548 27.9725 29.4648 28.5245C29.2853 29.0261 28.9202 29.4623 28.5896 29.9057C28.235 30.3816 27.8767 30.8562 27.5244 31.3332C21.78 31.3302 16.0364 31.3362 10.292 31.3302C9.85741 30.8202 9.35696 30.3312 9.10336 29.7389C8.66874 28.8677 8.62834 27.8801 8.92832 26.9771C9.32629 26.098 9.38912 25.1242 9.08466 24.2206C8.85202 23.6158 8.57448 23.0229 8.35156 22.4157C9.04801 22.5927 9.79682 22.6629 10.4409 22.9557C11.3468 23.3734 11.8966 24.223 11.8196 25.057C11.7143 26.2616 12.093 29.0664 13.2464 29.6534C13.6129 29.8388 14.0738 29.9114 14.4979 29.8286C15.0769 29.7362 15.5534 29.3432 15.6791 28.8836C16.3914 26.9723 17.2975 25.0069 14.8088 21.2853C14.6218 20.9547 14.2979 20.6865 14.1273 20.3493C13.9291 19.9173 13.9351 19.4198 14.1715 18.9986ZM24.0459 24.628C23.8888 24.6796 23.7728 24.7978 23.7496 24.9328C23.6696 25.3048 23.5828 25.6822 23.3696 26.023C23.2866 26.1454 23.2814 26.3002 23.3823 26.4178C23.5432 26.6699 24.0758 26.6639 24.2277 26.4076C24.5082 25.9696 24.6802 25.4836 24.7057 24.991C24.7266 24.7228 24.3481 24.5248 24.0459 24.628ZM19.2949 26.479C19.2964 26.9471 19.2934 27.4151 19.2964 27.8831C19.3742 27.9905 19.4707 28.1009 19.6248 28.1429C19.9323 28.2479 20.3033 28.0169 20.2824 27.7553C20.2869 27.3731 20.2854 26.9909 20.2831 26.6087C20.2944 26.44 20.1619 26.2672 19.9577 26.2162C19.6877 26.1358 19.3892 26.2672 19.2949 26.479ZM22.7787 26.7935C22.5722 26.8889 22.4331 27.0545 22.2999 27.2081C22.1181 27.4571 22.4129 27.7919 22.7607 27.7697C23.0876 27.7625 23.2522 27.5015 23.4302 27.3209C23.6584 27.0107 23.1662 26.6249 22.7787 26.7935ZM10.1529 27.4349C10.0212 27.5033 9.92025 27.6191 9.92249 27.7487C9.8806 28.5971 10.3152 29.4545 11.0782 30.042C11.2496 30.1788 11.5413 30.1848 11.7193 30.0528C11.9565 29.9147 11.958 29.6081 11.7373 29.4587C11.1867 29.0075 10.8718 28.3769 10.9047 27.7439C10.9084 27.4523 10.4469 27.2747 10.1529 27.4349ZM17.3171 27.8099C17.3283 28.3595 17.2901 28.9115 17.3373 29.4593C17.4525 29.8403 18.1901 29.8235 18.306 29.4503C18.3023 28.8827 18.3112 28.3151 18.303 27.7481C18.303 27.5885 18.1624 27.4379 17.9694 27.3977C17.647 27.2969 17.2789 27.5381 17.3171 27.8099ZM19.6106 28.9859C19.4603 29.0285 19.372 29.1371 19.2972 29.2427C19.3002 29.5709 19.2822 29.8997 19.3039 30.228C19.354 30.4632 19.666 30.573 19.9368 30.5382C20.0819 30.4602 20.2472 30.3678 20.2719 30.2172C20.2988 29.9351 20.2816 29.6513 20.2824 29.3687C20.3078 29.0999 19.9181 28.8701 19.6106 28.9859Z" fill="#48FDBC"/>
<path d="M6.37891 28.7015C6.71754 28.5171 7.05129 28.3247 7.39886 28.1582C7.45489 28.3401 7.50199 28.5253 7.53447 28.7137C7.14955 28.7112 6.76382 28.7275 6.37891 28.7015Z" fill="#F7F7F7"/>
<path d="M31.4208 28.3457C31.6409 28.4699 31.8618 28.5926 32.0859 28.7095C31.8049 28.7184 31.5232 28.7184 31.2422 28.7152C31.2958 28.5885 31.3567 28.4667 31.4208 28.3457Z" fill="#F7F7F7"/>
<path d="M5.6 28.8534C6.61264 28.8567 6.53065 28.3791 7.54329 28.397C7.72763 28.7713 8.27225 30.7397 8.51424 31.0791C7.05821 31.0864 5.60137 31.0848 4.14453 31.0799C4.29557 30.682 5.31659 29.1685 5.6 28.8534Z" fill="#F7F7F7"/>
<path d="M30.2731 30.0343C31.2402 30.0335 32.2066 30.0319 33.1738 30.0351C33.4572 30.3486 33.687 30.7075 33.8364 31.1038C32.4388 31.1071 31.0413 31.1136 29.6445 31.1006C29.8435 30.7392 30.0782 30.3981 30.2731 30.0343Z" fill="#F7F7F7"/>
<path d="M14.8014 0.0434875C15.0637 -0.0577422 15.4081 0.0550934 15.5132 0.264645C15.6506 0.476776 15.4155 0.685683 15.4536 0.903617C15.4453 1.13638 15.7069 1.29177 15.8112 1.49488C16.1373 2.0036 16.0206 2.63871 15.5744 3.08102C15.389 3.25124 15.519 3.50335 15.3385 3.67486C15.1416 3.88441 14.6913 3.89537 14.4935 3.68131C14.318 3.53881 14.3511 3.32539 14.3859 3.14743C14.4413 2.8618 14.6631 2.62388 14.8436 2.37951C14.9901 2.15899 14.8932 1.89593 14.707 1.70894C14.3925 1.35947 14.2725 0.90942 14.4148 0.49483C14.4794 0.320741 14.5729 0.124084 14.8014 0.0434875Z" fill="black"/>
<path d="M19.0272 0.117235C19.2774 -0.0949921 19.7694 -0.00145757 19.9008 0.256569C20.0005 0.496533 19.7927 0.728111 19.8434 0.968721C19.9124 1.20804 20.1667 1.37834 20.2681 1.60669C20.4144 1.94213 20.4103 2.31239 20.2681 2.64783C20.1634 2.86779 19.9423 3.03874 19.8434 3.25999C19.8384 3.41997 19.8376 3.60059 19.6622 3.71025C19.3921 3.94247 18.8568 3.81798 18.7529 3.52512C18.6798 3.18065 18.8294 2.83232 19.0862 2.553C19.2948 2.34336 19.3522 2.03695 19.1669 1.80666C18.979 1.56605 18.7579 1.32093 18.7446 1.02871C18.7189 0.717145 18.7371 0.357844 19.0272 0.117235Z" fill="black"/>
<path d="M23.3109 0.19885C23.5159 -0.0626151 24.0418 -0.0574502 24.2377 0.208534C24.451 0.423517 24.1848 0.66174 24.2137 0.893508C24.2121 1.09493 24.3932 1.25181 24.5122 1.41902C24.7727 1.7373 24.8024 2.14144 24.7015 2.50233C24.6164 2.8361 24.2137 3.06787 24.2046 3.41907C24.1906 3.6418 23.9376 3.8613 23.6375 3.83483C23.3704 3.84258 23.1877 3.66633 23.1133 3.48492C23.1323 3.22345 23.1505 2.9452 23.334 2.71731C23.4506 2.5714 23.5771 2.42937 23.6598 2.26862C23.7681 1.85092 23.2348 1.59656 23.1728 1.2092C23.0736 0.874141 23.11 0.506798 23.3109 0.19885Z" fill="black"/>
<path d="M9.07316 6.58811C9.45624 6.33498 9.96376 6.30018 10.3771 6.5011C11.1334 6.83887 11.3888 7.93794 10.8239 8.557C10.3446 9.19606 9.28846 9.17895 8.79943 8.56296C8.27083 7.99583 8.42962 6.99978 9.07316 6.58811Z" fill="white"/>
<path d="M12.0552 5.79075C12.5253 5.80569 12.9954 5.81007 13.4655 5.81445C13.6861 7.10981 13.6702 8.4413 13.3972 9.72878C12.9274 9.70584 12.4572 9.71202 11.9866 9.69996C12.2527 8.41708 12.2742 7.08236 12.0552 5.79075Z" fill="white"/>
<path d="M14.6707 9.12995C14.7011 8.23789 14.6868 7.34408 14.7281 6.4528C15.6091 6.47987 16.4911 6.48808 17.3724 6.50097C17.3814 7.3864 17.3319 8.27052 17.3435 9.15578C16.4522 9.16547 15.562 9.11407 14.6707 9.12995Z" fill="white"/>
<path d="M18.9757 6.79261C19.4914 6.39684 20.3089 6.4765 20.7324 6.97197C21.083 7.35078 21.197 7.95213 20.9634 8.42028C20.7881 8.85114 20.3463 9.12151 19.899 9.18504C19.2545 9.27551 18.5912 8.79479 18.4621 8.16105C18.3488 7.65078 18.5509 7.09989 18.9757 6.79261Z" fill="white"/>
<path d="M22.1719 6.58649C23.0539 6.59469 23.936 6.6222 24.8173 6.62453C24.8609 7.51063 24.7867 8.3988 24.8018 9.28613C23.913 9.29127 23.0247 9.24437 22.1355 9.25495C22.1414 8.36513 22.1763 7.47559 22.1719 6.58649Z" fill="white"/>
<path d="M26.07 9.94123C25.8078 8.65342 25.8272 7.29671 26.1379 6.01741C26.5905 6.03254 27.0438 6.05792 27.4964 6.04138C27.2929 7.33532 27.2233 8.66002 27.4524 9.9571C26.9912 9.94643 26.53 9.93396 26.07 9.94123Z" fill="white"/>
<path d="M28.5274 7.59569C28.8308 7.19009 29.5494 7.24733 29.7302 7.74025C29.9787 8.20782 29.5358 8.80108 29.021 8.73341C28.4864 8.71528 28.1893 8.00243 28.5274 7.59569Z" fill="white"/>
<mask id="path-18-inside-1_10098_10534" fill="white">
<path fill-rule="evenodd" clip-rule="evenodd" d="M5.8122 8.13853C5.26394 8.14555 4.81666 8.16215 4.76407 8.19706C4.68882 8.28989 4.64392 8.4006 4.59909 8.51115C4.57456 8.57164 4.55005 8.63208 4.5206 8.68952C4.02941 9.68887 2.77199 10.2226 1.71441 9.86415C0.703802 9.55491 -0.00195409 8.4829 0.11894 7.43114C0.183158 6.26905 1.27268 5.29191 2.42903 5.32053C2.75443 5.3331 2.97045 5.64556 2.92311 5.95405C2.8967 6.01386 2.87102 6.07397 2.84504 6.13481C2.69864 6.31992 2.46795 6.34837 2.25039 6.37519C2.23999 6.37648 2.22962 6.37775 2.21929 6.37905C1.57306 6.46657 1.05554 7.11507 1.15089 7.76708C1.20297 8.35266 1.69063 8.86765 2.27938 8.92339C2.80925 8.99997 3.3437 8.69416 3.59228 8.22852C3.60126 8.20636 3.6102 8.18404 3.61918 8.16163C3.73737 7.86675 3.86163 7.5567 4.1413 7.38001C4.47683 7.09217 6.45108 7.07099 7.48357 7.07217C7.62562 6.54524 7.95913 6.0836 8.39142 5.75402C9.11619 5.21566 10.1799 5.12773 10.9433 5.64005C10.937 5.58254 10.9241 5.52361 10.9112 5.46427C10.8759 5.30248 10.84 5.13766 10.934 4.99018C11.0537 4.75449 11.3492 4.69131 11.5929 4.70486C11.9242 4.71357 12.2557 4.71805 12.5871 4.72252C13.0438 4.72868 13.5004 4.73484 13.9565 4.7521C14.2699 4.77203 14.3828 5.05917 14.48 5.30622C14.4897 5.33093 14.4993 5.35524 14.5089 5.37884C14.8688 5.38581 15.2288 5.39077 15.5888 5.39574C16.2796 5.40528 16.9706 5.41481 17.6614 5.43849C17.9741 5.42971 18.211 5.66306 18.3766 5.90219C19.2038 5.31186 20.3979 5.32908 21.2025 5.95179C21.3534 5.69614 21.6207 5.50931 21.9231 5.50124C22.4553 5.51337 22.9875 5.52177 23.5196 5.53017C24.0518 5.53856 24.584 5.54696 25.1162 5.55909C25.1745 5.27492 25.3434 4.95211 25.6785 4.95514C26.1142 4.94381 26.5503 4.95443 26.9863 4.96506C27.3568 4.97409 27.7272 4.98311 28.0974 4.97868C28.3151 4.97398 28.5721 5.05148 28.6485 5.27909C28.7689 5.49426 28.7052 5.71526 28.6411 5.93765C28.6051 6.0627 28.5689 6.1882 28.5653 6.31335C29.4684 6.03871 30.534 6.58082 30.7842 7.50547C31.3881 7.53055 31.4369 7.54144 31.476 7.55018C31.5166 7.55923 31.5469 7.56599 32.1724 7.58383C32.2378 7.58425 32.3043 7.58375 32.3714 7.58323C32.8458 7.5796 33.3519 7.57573 33.7299 7.89995C34.0182 8.08214 34.1464 8.40185 34.2683 8.70592C34.2775 8.72903 34.2867 8.75205 34.296 8.77491C34.5523 9.25506 35.1034 9.5704 35.6498 9.49143C36.2569 9.43396 36.7598 8.90291 36.8135 8.29909C36.9118 7.62675 36.3782 6.95802 35.7118 6.86777C35.7011 6.86644 35.6904 6.86512 35.6797 6.8638C35.4554 6.83614 35.2175 6.8068 35.0665 6.61593C35.0397 6.55319 35.0133 6.4912 34.986 6.42953C34.9372 6.11142 35.16 5.78922 35.4955 5.77626C36.6879 5.74675 37.8114 6.75435 37.8776 7.95267C38.0023 9.03722 37.2745 10.1426 36.2324 10.4615C35.1419 10.8312 33.8452 10.2808 33.3387 9.25027C33.3084 9.19104 33.2831 9.12872 33.2578 9.06635C33.2116 8.95235 33.1653 8.83819 33.0877 8.74246C32.955 8.6544 32.7951 8.65676 32.6424 8.65901C32.6279 8.65922 32.6135 8.65943 32.5992 8.65957C32.0618 8.65083 32.1049 8.64091 32.1455 8.63155C32.1858 8.62226 32.2237 8.61353 31.6908 8.60704C31.6644 8.60601 31.6381 8.60494 31.6117 8.60387C31.3289 8.5924 31.0452 8.58089 30.7644 8.61894C30.5435 9.25404 29.9444 9.72027 29.2784 9.79243C29.1243 9.82772 28.9726 9.80304 28.8208 9.77834C28.7092 9.76019 28.5976 9.74204 28.4849 9.74764C28.4991 9.84368 28.5271 9.94243 28.5554 10.0421C28.6247 10.2863 28.6956 10.5363 28.5692 10.7663C28.4621 10.9687 28.2265 11.0555 28.0076 11.0361C27.624 11.0196 27.2402 11.0157 26.8564 11.0118C26.4132 11.0073 25.97 11.0028 25.5274 10.979C25.2047 10.955 25.0877 10.6229 25.0277 10.3542C24.4886 10.353 23.9494 10.3424 23.4103 10.3318C23.0947 10.3256 22.7791 10.3194 22.4636 10.3151C22.3614 10.3043 22.2562 10.3065 22.1509 10.3087C21.9334 10.3132 21.7153 10.3178 21.5214 10.2079C21.3529 10.1298 21.2359 9.98049 21.1257 9.8371C20.306 10.4393 19.0976 10.4086 18.3043 9.77509C18.1542 10.0199 17.9049 10.2248 17.6039 10.2235C17.1115 10.2334 16.6188 10.2211 16.1262 10.2088C15.5405 10.1942 14.955 10.1796 14.3707 10.2024C14.3419 10.4963 14.1491 10.8018 13.8195 10.793C13.4629 10.7833 13.1061 10.7786 12.7493 10.774C12.2631 10.7676 11.777 10.7613 11.2919 10.7423C10.8603 10.7378 10.6874 10.217 10.8618 9.87348C10.1111 10.2064 9.18152 10.181 8.49427 9.70836C7.94959 9.37455 7.60357 8.78998 7.4449 8.18251C7.18977 8.19981 6.93477 8.19172 6.67979 8.18363C6.47693 8.17719 6.27407 8.17075 6.07115 8.1771C5.98389 8.18206 5.89476 8.16878 5.8122 8.13853ZM8.79583 8.56021C8.26723 7.99307 8.42602 6.99703 9.06956 6.58535C9.45264 6.33223 9.96016 6.29743 10.3735 6.49834C11.1298 6.83611 11.3852 7.93519 10.8203 8.55424C10.341 9.19331 9.28486 9.17619 8.79583 8.56021ZM11.9869 9.69166C12.253 8.40879 12.2745 7.07407 12.0556 5.78246C12.5256 5.79739 12.9958 5.80177 13.4659 5.80615C13.6864 7.10151 13.6706 8.433 13.3976 9.72048C13.1087 9.70638 12.8197 9.70328 12.5305 9.70019C12.3494 9.69825 12.1682 9.69631 11.9869 9.69166ZM16.0684 9.13582C15.6016 9.12566 15.1348 9.1155 14.6676 9.12383C14.6811 8.7262 14.6858 8.32822 14.6905 7.93027C14.6963 7.43545 14.7022 6.94067 14.725 6.44668C15.4306 6.46836 16.1369 6.47794 16.8429 6.48752C17.0184 6.4899 17.1939 6.49228 17.3694 6.49484C17.3738 6.9281 17.3642 7.36105 17.3546 7.79397C17.3446 8.24579 17.3345 8.69757 17.3405 9.14965C16.9163 9.15426 16.4923 9.14504 16.0684 9.13582ZM18.4593 8.15943C18.3461 7.64917 18.5482 7.09827 18.973 6.79099C19.4887 6.39522 20.3062 6.47488 20.7297 6.97035C21.0803 7.34917 21.1943 7.95051 20.9607 8.41867C20.7854 8.84952 20.3436 9.1199 19.8962 9.18342C19.2518 9.2739 18.5885 8.79318 18.4593 8.15943ZM22.1532 8.1128C22.1637 7.60155 22.1742 7.09042 22.1717 6.57943C22.5545 6.58299 22.9374 6.59019 23.3202 6.59739C23.8193 6.60678 24.3183 6.61616 24.8171 6.61748C24.8418 7.12145 24.8285 7.62609 24.8152 8.13087C24.8051 8.5136 24.795 8.89642 24.8015 9.27907C24.3792 9.28152 23.957 9.27221 23.5348 9.2629C23.0684 9.25263 22.6019 9.24235 22.1352 9.2479C22.1377 8.86948 22.1455 8.49111 22.1532 8.1128ZM27.3352 9.94939C26.9128 9.93948 26.4906 9.92958 26.0693 9.93624C25.8071 8.64844 25.8266 7.29172 26.1372 6.01242C26.226 6.01539 26.3148 6.01875 26.4036 6.02211C26.7676 6.0359 27.1319 6.04969 27.4958 6.0364C27.2922 7.33033 27.2226 8.65503 27.4518 9.95211C27.4129 9.95121 27.374 9.9503 27.3352 9.94939ZM29.0197 8.72808C28.4851 8.70995 28.188 7.9971 28.526 7.59036C28.8294 7.18476 29.5481 7.242 29.7288 7.73491C29.9773 8.20249 29.5344 8.79575 29.0197 8.72808Z"/>
</mask>
<path fill-rule="evenodd" clip-rule="evenodd" d="M5.8122 8.13853C5.26394 8.14555 4.81666 8.16215 4.76407 8.19706C4.68882 8.28989 4.64392 8.4006 4.59909 8.51115C4.57456 8.57164 4.55005 8.63208 4.5206 8.68952C4.02941 9.68887 2.77199 10.2226 1.71441 9.86415C0.703802 9.55491 -0.00195409 8.4829 0.11894 7.43114C0.183158 6.26905 1.27268 5.29191 2.42903 5.32053C2.75443 5.3331 2.97045 5.64556 2.92311 5.95405C2.8967 6.01386 2.87102 6.07397 2.84504 6.13481C2.69864 6.31992 2.46795 6.34837 2.25039 6.37519C2.23999 6.37648 2.22962 6.37775 2.21929 6.37905C1.57306 6.46657 1.05554 7.11507 1.15089 7.76708C1.20297 8.35266 1.69063 8.86765 2.27938 8.92339C2.80925 8.99997 3.3437 8.69416 3.59228 8.22852C3.60126 8.20636 3.6102 8.18404 3.61918 8.16163C3.73737 7.86675 3.86163 7.5567 4.1413 7.38001C4.47683 7.09217 6.45108 7.07099 7.48357 7.07217C7.62562 6.54524 7.95913 6.0836 8.39142 5.75402C9.11619 5.21566 10.1799 5.12773 10.9433 5.64005C10.937 5.58254 10.9241 5.52361 10.9112 5.46427C10.8759 5.30248 10.84 5.13766 10.934 4.99018C11.0537 4.75449 11.3492 4.69131 11.5929 4.70486C11.9242 4.71357 12.2557 4.71805 12.5871 4.72252C13.0438 4.72868 13.5004 4.73484 13.9565 4.7521C14.2699 4.77203 14.3828 5.05917 14.48 5.30622C14.4897 5.33093 14.4993 5.35524 14.5089 5.37884C14.8688 5.38581 15.2288 5.39077 15.5888 5.39574C16.2796 5.40528 16.9706 5.41481 17.6614 5.43849C17.9741 5.42971 18.211 5.66306 18.3766 5.90219C19.2038 5.31186 20.3979 5.32908 21.2025 5.95179C21.3534 5.69614 21.6207 5.50931 21.9231 5.50124C22.4553 5.51337 22.9875 5.52177 23.5196 5.53017C24.0518 5.53856 24.584 5.54696 25.1162 5.55909C25.1745 5.27492 25.3434 4.95211 25.6785 4.95514C26.1142 4.94381 26.5503 4.95443 26.9863 4.96506C27.3568 4.97409 27.7272 4.98311 28.0974 4.97868C28.3151 4.97398 28.5721 5.05148 28.6485 5.27909C28.7689 5.49426 28.7052 5.71526 28.6411 5.93765C28.6051 6.0627 28.5689 6.1882 28.5653 6.31335C29.4684 6.03871 30.534 6.58082 30.7842 7.50547C31.3881 7.53055 31.4369 7.54144 31.476 7.55018C31.5166 7.55923 31.5469 7.56599 32.1724 7.58383C32.2378 7.58425 32.3043 7.58375 32.3714 7.58323C32.8458 7.5796 33.3519 7.57573 33.7299 7.89995C34.0182 8.08214 34.1464 8.40185 34.2683 8.70592C34.2775 8.72903 34.2867 8.75205 34.296 8.77491C34.5523 9.25506 35.1034 9.5704 35.6498 9.49143C36.2569 9.43396 36.7598 8.90291 36.8135 8.29909C36.9118 7.62675 36.3782 6.95802 35.7118 6.86777C35.7011 6.86644 35.6904 6.86512 35.6797 6.8638C35.4554 6.83614 35.2175 6.8068 35.0665 6.61593C35.0397 6.55319 35.0133 6.4912 34.986 6.42953C34.9372 6.11142 35.16 5.78922 35.4955 5.77626C36.6879 5.74675 37.8114 6.75435 37.8776 7.95267C38.0023 9.03722 37.2745 10.1426 36.2324 10.4615C35.1419 10.8312 33.8452 10.2808 33.3387 9.25027C33.3084 9.19104 33.2831 9.12872 33.2578 9.06635C33.2116 8.95235 33.1653 8.83819 33.0877 8.74246C32.955 8.6544 32.7951 8.65676 32.6424 8.65901C32.6279 8.65922 32.6135 8.65943 32.5992 8.65957C32.0618 8.65083 32.1049 8.64091 32.1455 8.63155C32.1858 8.62226 32.2237 8.61353 31.6908 8.60704C31.6644 8.60601 31.6381 8.60494 31.6117 8.60387C31.3289 8.5924 31.0452 8.58089 30.7644 8.61894C30.5435 9.25404 29.9444 9.72027 29.2784 9.79243C29.1243 9.82772 28.9726 9.80304 28.8208 9.77834C28.7092 9.76019 28.5976 9.74204 28.4849 9.74764C28.4991 9.84368 28.5271 9.94243 28.5554 10.0421C28.6247 10.2863 28.6956 10.5363 28.5692 10.7663C28.4621 10.9687 28.2265 11.0555 28.0076 11.0361C27.624 11.0196 27.2402 11.0157 26.8564 11.0118C26.4132 11.0073 25.97 11.0028 25.5274 10.979C25.2047 10.955 25.0877 10.6229 25.0277 10.3542C24.4886 10.353 23.9494 10.3424 23.4103 10.3318C23.0947 10.3256 22.7791 10.3194 22.4636 10.3151C22.3614 10.3043 22.2562 10.3065 22.1509 10.3087C21.9334 10.3132 21.7153 10.3178 21.5214 10.2079C21.3529 10.1298 21.2359 9.98049 21.1257 9.8371C20.306 10.4393 19.0976 10.4086 18.3043 9.77509C18.1542 10.0199 17.9049 10.2248 17.6039 10.2235C17.1115 10.2334 16.6188 10.2211 16.1262 10.2088C15.5405 10.1942 14.955 10.1796 14.3707 10.2024C14.3419 10.4963 14.1491 10.8018 13.8195 10.793C13.4629 10.7833 13.1061 10.7786 12.7493 10.774C12.2631 10.7676 11.777 10.7613 11.2919 10.7423C10.8603 10.7378 10.6874 10.217 10.8618 9.87348C10.1111 10.2064 9.18152 10.181 8.49427 9.70836C7.94959 9.37455 7.60357 8.78998 7.4449 8.18251C7.18977 8.19981 6.93477 8.19172 6.67979 8.18363C6.47693 8.17719 6.27407 8.17075 6.07115 8.1771C5.98389 8.18206 5.89476 8.16878 5.8122 8.13853ZM8.79583 8.56021C8.26723 7.99307 8.42602 6.99703 9.06956 6.58535C9.45264 6.33223 9.96016 6.29743 10.3735 6.49834C11.1298 6.83611 11.3852 7.93519 10.8203 8.55424C10.341 9.19331 9.28486 9.17619 8.79583 8.56021ZM11.9869 9.69166C12.253 8.40879 12.2745 7.07407 12.0556 5.78246C12.5256 5.79739 12.9958 5.80177 13.4659 5.80615C13.6864 7.10151 13.6706 8.433 13.3976 9.72048C13.1087 9.70638 12.8197 9.70328 12.5305 9.70019C12.3494 9.69825 12.1682 9.69631 11.9869 9.69166ZM16.0684 9.13582C15.6016 9.12566 15.1348 9.1155 14.6676 9.12383C14.6811 8.7262 14.6858 8.32822 14.6905 7.93027C14.6963 7.43545 14.7022 6.94067 14.725 6.44668C15.4306 6.46836 16.1369 6.47794 16.8429 6.48752C17.0184 6.4899 17.1939 6.49228 17.3694 6.49484C17.3738 6.9281 17.3642 7.36105 17.3546 7.79397C17.3446 8.24579 17.3345 8.69757 17.3405 9.14965C16.9163 9.15426 16.4923 9.14504 16.0684 9.13582ZM18.4593 8.15943C18.3461 7.64917 18.5482 7.09827 18.973 6.79099C19.4887 6.39522 20.3062 6.47488 20.7297 6.97035C21.0803 7.34917 21.1943 7.95051 20.9607 8.41867C20.7854 8.84952 20.3436 9.1199 19.8962 9.18342C19.2518 9.2739 18.5885 8.79318 18.4593 8.15943ZM22.1532 8.1128C22.1637 7.60155 22.1742 7.09042 22.1717 6.57943C22.5545 6.58299 22.9374 6.59019 23.3202 6.59739C23.8193 6.60678 24.3183 6.61616 24.8171 6.61748C24.8418 7.12145 24.8285 7.62609 24.8152 8.13087C24.8051 8.5136 24.795 8.89642 24.8015 9.27907C24.3792 9.28152 23.957 9.27221 23.5348 9.2629C23.0684 9.25263 22.6019 9.24235 22.1352 9.2479C22.1377 8.86948 22.1455 8.49111 22.1532 8.1128ZM27.3352 9.94939C26.9128 9.93948 26.4906 9.92958 26.0693 9.93624C25.8071 8.64844 25.8266 7.29172 26.1372 6.01242C26.226 6.01539 26.3148 6.01875 26.4036 6.02211C26.7676 6.0359 27.1319 6.04969 27.4958 6.0364C27.2922 7.33033 27.2226 8.65503 27.4518 9.95211C27.4129 9.95121 27.374 9.9503 27.3352 9.94939ZM29.0197 8.72808C28.4851 8.70995 28.188 7.9971 28.526 7.59036C28.8294 7.18476 29.5481 7.242 29.7288 7.73491C29.9773 8.20249 29.5344 8.79575 29.0197 8.72808Z" fill="black"/>
<path d="M5.8122 8.13853L6.1562 7.19956L5.98341 7.13626L5.79939 7.13861L5.8122 8.13853ZM4.76407 8.19706L4.21111 7.36385L4.08358 7.44848L3.98721 7.56738L4.76407 8.19706ZM4.59909 8.51115L5.52579 8.88696L5.52579 8.88696L4.59909 8.51115ZM4.5206 8.68952L3.63075 8.23326L3.62688 8.2408L3.62314 8.24841L4.5206 8.68952ZM1.71441 9.86415L2.03542 8.91707L2.02128 8.91228L2.00701 8.90791L1.71441 9.86415ZM0.11894 7.43114L1.1124 7.54533L1.11578 7.5159L1.11742 7.48631L0.11894 7.43114ZM2.42903 5.32053L2.46763 4.32117L2.45377 4.32083L2.42903 5.32053ZM2.92311 5.95405L3.8379 6.35798L3.89144 6.23673L3.91154 6.10571L2.92311 5.95405ZM2.84504 6.13481L3.62939 6.75513L3.71223 6.65038L3.76468 6.52757L2.84504 6.13481ZM2.25039 6.37519L2.12801 5.38271L2.128 5.38271L2.25039 6.37519ZM2.21929 6.37905L2.09517 5.38673L2.08508 5.38809L2.21929 6.37905ZM1.15089 7.76708L2.14696 7.6785L2.14446 7.65035L2.14037 7.62238L1.15089 7.76708ZM2.27938 8.92339L2.42242 7.93367L2.3981 7.93016L2.37364 7.92784L2.27938 8.92339ZM3.59228 8.22852L4.47445 8.69946L4.49934 8.65283L4.51917 8.60385L3.59228 8.22852ZM3.61918 8.16163L4.5474 8.53366L4.5474 8.53365L3.61918 8.16163ZM4.1413 7.38001L4.67541 8.22543L4.73706 8.18648L4.7924 8.139L4.1413 7.38001ZM7.48357 7.07217L7.48243 8.07217L8.24944 8.07304L8.4491 7.33246L7.48357 7.07217ZM8.39142 5.75402L7.79508 4.9512L7.78512 4.95878L8.39142 5.75402ZM10.9433 5.64005L10.386 6.47039L12.1719 7.66891L11.9373 5.53099L10.9433 5.64005ZM10.9112 5.46427L9.93413 5.67719L9.93413 5.6772L10.9112 5.46427ZM10.934 4.99018L11.7773 5.52772L11.8036 5.48648L11.8257 5.44288L10.934 4.99018ZM11.5929 4.70486L11.5373 5.70332L11.552 5.70413L11.5666 5.70451L11.5929 4.70486ZM12.5871 4.72252L12.5736 5.72243L12.5736 5.72243L12.5871 4.72252ZM13.9565 4.7521L14.02 3.75411L14.0072 3.7533L13.9943 3.75281L13.9565 4.7521ZM14.48 5.30622L13.5494 5.67227L13.5494 5.67228L14.48 5.30622ZM14.5089 5.37884L13.5824 5.75526L13.8305 6.36589L14.4895 6.37865L14.5089 5.37884ZM15.5888 5.39574L15.6026 4.39584L15.5888 5.39574ZM17.6614 5.43849L17.6271 6.4379L17.6583 6.43897L17.6895 6.4381L17.6614 5.43849ZM18.3766 5.90219L17.5544 6.4714L18.1318 7.30543L18.9575 6.71617L18.3766 5.90219ZM21.2025 5.95179L20.5904 6.74261L21.4871 7.43655L22.0636 6.46024L21.2025 5.95179ZM21.9231 5.50124L21.9459 4.5015L21.9212 4.50094L21.8964 4.5016L21.9231 5.50124ZM23.5196 5.53017L23.5354 4.53029L23.5354 4.53029L23.5196 5.53017ZM25.1162 5.55909L25.0934 6.55883L25.9279 6.57785L26.0957 5.76021L25.1162 5.55909ZM25.6785 4.95514L25.6695 5.9551L25.687 5.95525L25.7045 5.9548L25.6785 4.95514ZM26.9863 4.96506L26.962 5.96476L26.9863 4.96506ZM28.0974 4.97868L28.1094 5.97866L28.119 5.97845L28.0974 4.97868ZM28.6485 5.27909L27.7005 5.59748L27.7302 5.68591L27.7758 5.76733L28.6485 5.27909ZM28.6411 5.93765L29.602 6.21458L29.602 6.21457L28.6411 5.93765ZM28.5653 6.31335L27.5657 6.28423L27.5252 7.67486L28.8562 7.27009L28.5653 6.31335ZM30.7842 7.50547L29.8189 7.76661L30.0103 8.47418L30.7426 8.50461L30.7842 7.50547ZM31.476 7.55018L31.2584 8.5262L31.2584 8.5262L31.476 7.55018ZM32.1724 7.58383L32.1439 8.58342L32.1549 8.58374L32.1659 8.58381L32.1724 7.58383ZM32.3714 7.58323L32.379 8.5832L32.379 8.5832L32.3714 7.58323ZM33.7299 7.89995L33.0788 8.65894L33.1341 8.70641L33.1958 8.74536L33.7299 7.89995ZM34.2683 8.70592L33.34 9.07796L33.34 9.07798L34.2683 8.70592ZM34.296 8.77491L33.3691 9.15017L33.3889 9.19919L33.4138 9.24584L34.296 8.77491ZM35.6498 9.49143L35.5556 8.49589L35.5311 8.4982L35.5068 8.50172L35.6498 9.49143ZM36.8135 8.29909L35.824 8.15438L35.8199 8.18235L35.8174 8.2105L36.8135 8.29909ZM35.7118 6.86777L35.846 5.87677L35.8359 5.8755L35.7118 6.86777ZM35.6797 6.8638L35.8021 5.87132L35.8021 5.87132L35.6797 6.8638ZM35.0665 6.61593L34.1469 7.0087L34.1994 7.1315L34.2822 7.23624L35.0665 6.61593ZM34.986 6.42953L33.9976 6.58119L34.0177 6.7122L34.0712 6.83346L34.986 6.42953ZM35.4955 5.77626L35.4708 4.77647L35.4569 4.777L35.4955 5.77626ZM37.8776 7.95267L36.8791 8.00784L36.8808 8.03742L36.8842 8.06686L37.8776 7.95267ZM36.2324 10.4615L35.9398 9.50529L35.9255 9.50965L35.9114 9.51444L36.2324 10.4615ZM33.3387 9.25027L34.2362 8.80917L34.2325 8.80156L34.2286 8.79402L33.3387 9.25027ZM33.2578 9.06635L32.3311 9.44215L32.3311 9.44217L33.2578 9.06635ZM33.0877 8.74246L33.8645 8.11278L33.7682 7.99388L33.6406 7.90925L33.0877 8.74246ZM32.6424 8.65901L32.6276 7.65912L32.6276 7.65912L32.6424 8.65901ZM32.5992 8.65957L32.5829 9.65944L32.5958 9.65964L32.6086 9.65952L32.5992 8.65957ZM32.1455 8.63155L31.9209 7.65708L31.9209 7.65708L32.1455 8.63155ZM31.6908 8.60704L31.6518 9.60628L31.6652 9.6068L31.6786 9.60697L31.6908 8.60704ZM31.6117 8.60387L31.5712 9.60305L31.5712 9.60305L31.6117 8.60387ZM30.7644 8.61894L30.6301 7.62799L30.0216 7.71043L29.8199 8.29043L30.7644 8.61894ZM29.2784 9.79243L29.1706 8.79825L29.1123 8.80457L29.0551 8.81766L29.2784 9.79243ZM28.8208 9.77834L28.9813 8.79132L28.9813 8.79132L28.8208 9.77834ZM28.4849 9.74764L28.4352 8.74888L27.3345 8.80365L27.4957 9.89385L28.4849 9.74764ZM28.5554 10.0421L27.5934 10.3151L27.5934 10.3151L28.5554 10.0421ZM28.5692 10.7663L27.6929 10.2846L27.689 10.2916L27.6853 10.2987L28.5692 10.7663ZM28.0076 11.0361L28.0959 10.04L28.0733 10.038L28.0505 10.037L28.0076 11.0361ZM26.8564 11.0118L26.8463 12.0118L26.8463 12.0118L26.8564 11.0118ZM25.5274 10.979L25.4533 11.9762L25.4634 11.977L25.4735 11.9775L25.5274 10.979ZM25.0277 10.3542L26.0037 10.1362L25.8294 9.35595L25.0299 9.3542L25.0277 10.3542ZM23.4103 10.3318L23.43 9.332L23.43 9.332L23.4103 10.3318ZM22.4636 10.3151L22.3584 11.3095L22.404 11.3144L22.4499 11.315L22.4636 10.3151ZM22.1509 10.3087L22.13 9.30889L22.13 9.30889L22.1509 10.3087ZM21.5214 10.2079L22.0143 9.3378L21.9788 9.31769L21.9418 9.30054L21.5214 10.2079ZM21.1257 9.8371L21.9186 9.22778L21.3223 8.45181L20.5337 9.0312L21.1257 9.8371ZM18.3043 9.77509L18.9284 8.99371L18.0439 8.2873L17.452 9.25216L18.3043 9.77509ZM17.6039 10.2235L17.6082 9.22346L17.596 9.22341L17.5837 9.22365L17.6039 10.2235ZM16.1262 10.2088L16.1512 9.20913L16.1511 9.20913L16.1262 10.2088ZM14.3707 10.2024L14.3317 9.20316L13.4605 9.23711L13.3755 10.1048L14.3707 10.2024ZM13.8195 10.793L13.7924 11.7926L13.7927 11.7926L13.8195 10.793ZM12.7493 10.774L12.7362 11.7739L12.7362 11.7739L12.7493 10.774ZM11.2919 10.7423L11.331 9.74304L11.3166 9.74248L11.3023 9.74233L11.2919 10.7423ZM10.8618 9.87348L11.7535 10.3262L13.0259 7.81979L10.4564 8.95935L10.8618 9.87348ZM8.49427 9.70836L9.06091 8.88439L9.03923 8.86948L9.0168 8.85573L8.49427 9.70836ZM7.4449 8.18251L8.41244 7.92979L8.20321 7.12877L7.37722 7.1848L7.4449 8.18251ZM6.67979 8.18363L6.64806 9.18312L6.64806 9.18312L6.67979 8.18363ZM6.07115 8.1771L6.03986 7.17759L6.0271 7.17799L6.01435 7.17872L6.07115 8.1771ZM9.06956 6.58535L9.60844 7.42774L9.61468 7.42375L9.62086 7.41966L9.06956 6.58535ZM8.79583 8.56021L9.57902 7.93843L9.55438 7.90738L9.52735 7.87839L8.79583 8.56021ZM10.3735 6.49834L9.93635 7.39773L9.95093 7.40481L9.96573 7.41142L10.3735 6.49834ZM10.8203 8.55424L10.0817 7.88018L10.0492 7.91572L10.0204 7.95421L10.8203 8.55424ZM12.0556 5.78246L12.0873 4.78296L10.8653 4.74413L11.0696 5.94961L12.0556 5.78246ZM11.9869 9.69166L11.0077 9.48855L10.7646 10.6607L11.9613 10.6913L11.9869 9.69166ZM13.4659 5.80615L14.4517 5.63832L14.3113 4.81399L13.4752 4.8062L13.4659 5.80615ZM13.3976 9.72048L13.3488 10.7193L14.1992 10.7608L14.3758 9.92791L13.3976 9.72048ZM12.5305 9.70019L12.5412 8.70024L12.5412 8.70024L12.5305 9.70019ZM14.6676 9.12383L13.6682 9.08975L13.6323 10.1424L14.6854 10.1237L14.6676 9.12383ZM16.0684 9.13582L16.0467 10.1356L16.0467 10.1356L16.0684 9.13582ZM14.6905 7.93027L13.6906 7.9185L13.6906 7.9185L14.6905 7.93027ZM14.725 6.44668L14.7557 5.44715L13.7717 5.41692L13.7261 6.40041L14.725 6.44668ZM16.8429 6.48752L16.8293 7.48742L16.8429 6.48752ZM17.3694 6.49484L18.3693 6.48465L18.3594 5.50922L17.384 5.49495L17.3694 6.49484ZM17.3546 7.79397L18.3543 7.81613L18.3543 7.81613L17.3546 7.79397ZM17.3405 9.14965L17.3513 10.1496L18.3535 10.1387L18.3404 9.13656L17.3405 9.14965ZM18.973 6.79099L19.5591 7.60126L19.5706 7.59294L19.5818 7.58429L18.973 6.79099ZM18.4593 8.15943L19.4392 7.95981L19.4375 7.95127L19.4356 7.94276L18.4593 8.15943ZM20.7297 6.97035L19.9695 7.62004L19.9823 7.63511L19.9958 7.64965L20.7297 6.97035ZM20.9607 8.41867L20.0659 7.97215L20.0488 8.00643L20.0343 8.04193L20.9607 8.41867ZM19.8962 9.18342L20.0353 10.1737L20.0368 10.1735L19.8962 9.18342ZM22.1717 6.57943L22.181 5.57947L21.1667 5.57004L21.1717 6.58437L22.1717 6.57943ZM22.1532 8.1128L23.153 8.13329L23.153 8.13329L22.1532 8.1128ZM23.3202 6.59739L23.339 5.59757L23.339 5.59757L23.3202 6.59739ZM24.8171 6.61748L25.8159 6.56837L25.7692 5.62L24.8197 5.61748L24.8171 6.61748ZM24.8152 8.13087L25.8149 8.15724L25.8149 8.15724L24.8152 8.13087ZM24.8015 9.27907L24.8073 10.2791L25.8186 10.2732L25.8014 9.26208L24.8015 9.27907ZM23.5348 9.2629L23.5568 8.26315L23.5568 8.26315L23.5348 9.2629ZM22.1352 9.2479L21.1352 9.24131L21.1285 10.2599L22.1471 10.2478L22.1352 9.2479ZM26.0693 9.93624L25.0894 10.1358L25.2551 10.9492L26.0851 10.9361L26.0693 9.93624ZM27.3352 9.94939L27.3117 10.9491L27.3117 10.9491L27.3352 9.94939ZM26.1372 6.01242L26.1706 5.01298L25.3575 4.98579L25.1655 5.77646L26.1372 6.01242ZM26.4036 6.02211L26.3658 7.0214L26.3658 7.0214L26.4036 6.02211ZM27.4958 6.0364L28.4836 6.1918L28.6723 4.99275L27.4593 5.03706L27.4958 6.0364ZM27.4518 9.95211L27.4287 10.9518L28.6489 10.98L28.4365 9.77814L27.4518 9.95211ZM28.526 7.59036L29.2951 8.22955L29.3115 8.20985L29.3268 8.18934L28.526 7.59036ZM29.0197 8.72808L29.1501 7.73661L29.102 7.7303L29.0536 7.72866L29.0197 8.72808ZM29.7288 7.73491L28.79 8.07921L28.8136 8.14362L28.8458 8.20421L29.7288 7.73491ZM5.79939 7.13861C5.52162 7.14217 5.25792 7.14826 5.05208 7.1586C4.95115 7.16367 4.84891 7.17048 4.76009 7.18056C4.71717 7.18544 4.65932 7.19304 4.59836 7.2057C4.58742 7.20798 4.39686 7.24058 4.21111 7.36385L5.31702 9.03027C5.20926 9.10179 5.11452 9.13303 5.08667 9.14205C5.04709 9.15487 5.01715 9.16141 5.00507 9.16391C4.98078 9.16896 4.97079 9.16949 4.98576 9.16779C5.01274 9.16473 5.06644 9.1604 5.15243 9.15608C5.32045 9.14764 5.55453 9.14191 5.82501 9.13845L5.79939 7.13861ZM3.98721 7.56738C3.80244 7.79534 3.70735 8.04915 3.67239 8.13535L5.52579 8.88696C5.53757 8.8579 5.54537 8.83874 5.55287 8.82119C5.55998 8.80454 5.56431 8.79529 5.56673 8.7904C5.57177 8.7802 5.56408 8.79817 5.54092 8.82673L3.98721 7.56738ZM3.67239 8.13535C3.64494 8.20303 3.63658 8.2219 3.63075 8.23326L5.41045 9.14577C5.46353 9.04225 5.50418 8.94024 5.52579 8.88696L3.67239 8.13535ZM3.62314 8.24841C3.35002 8.8041 2.61006 9.11184 2.03542 8.91707L1.3934 10.8112C2.93392 11.3334 4.7088 10.5736 5.41806 9.13062L3.62314 8.24841ZM2.00701 8.90791C1.45549 8.73915 1.04683 8.11579 1.1124 7.54533L-0.874518 7.31695C-1.05074 8.85002 -0.0478818 10.3707 1.42181 10.8204L2.00701 8.90791ZM1.11742 7.48631C1.15099 6.87872 1.77317 6.3046 2.40429 6.32022L2.45377 4.32083C0.772195 4.27922 -0.784677 5.65938 -0.879536 7.37596L1.11742 7.48631ZM2.39043 6.31978C2.22357 6.31333 2.09007 6.2252 2.01609 6.12665C1.94785 6.03574 1.91645 5.92123 1.93468 5.80239L3.91154 6.10571C4.03518 5.29993 3.48003 4.36038 2.46763 4.32127L2.39043 6.31978ZM2.00832 5.55012C1.97906 5.61639 1.95103 5.68203 1.92539 5.74206L3.76468 6.52757C3.79101 6.46592 3.81434 6.41133 3.8379 6.35798L2.00832 5.55012ZM2.06068 5.5145C2.09764 5.46777 2.1408 5.43065 2.1829 5.40379C2.22287 5.37827 2.25386 5.36705 2.2647 5.36352C2.27432 5.36039 2.27128 5.36232 2.24576 5.36669C2.21821 5.3714 2.1863 5.37552 2.12801 5.38271L2.37277 7.36768C2.50336 7.35157 3.18687 7.31467 3.62939 6.75513L2.06068 5.5145ZM2.128 5.38271C2.11775 5.38397 2.10651 5.38536 2.09517 5.38678L2.3434 7.37131C2.35272 7.37015 2.36223 7.36898 2.37277 7.36768L2.128 5.38271ZM2.08508 5.38809C0.918051 5.54615 -0.018852 6.67914 0.161417 7.91179L2.14037 7.62238C2.13774 7.60443 2.13992 7.54779 2.19598 7.47579C2.25307 7.40248 2.3193 7.37463 2.3535 7.37L2.08508 5.38809ZM0.154823 7.85567C0.247449 8.89715 1.09262 9.8155 2.18513 9.91894L2.37364 7.92784C2.34296 7.92494 2.2884 7.90632 2.23275 7.84877C2.17638 7.79047 2.15108 7.72479 2.14696 7.6785L0.154823 7.85567ZM2.13634 9.91311C3.1273 10.0563 4.04939 9.49569 4.47445 8.69946L2.71011 7.75759C2.68148 7.81121 2.62986 7.86488 2.56502 7.9C2.50174 7.93428 2.45136 7.93785 2.42242 7.93367L2.13634 9.91311ZM4.51917 8.60385C4.52893 8.57975 4.53854 8.55577 4.5474 8.53366L2.69096 7.78961C2.68186 7.8123 2.67358 7.83296 2.66539 7.8532L4.51917 8.60385ZM4.5474 8.53365C4.57811 8.45703 4.60113 8.39993 4.62481 8.34675C4.64777 8.29519 4.66571 8.26039 4.68016 8.23599C4.70788 8.18918 4.70871 8.20439 4.67541 8.22543L3.60718 6.5346C3.00779 6.91328 2.78405 7.55734 2.69096 7.78961L4.5474 8.53365ZM4.7924 8.139C4.67998 8.23544 4.59299 8.2527 4.64297 8.23674C4.67027 8.22803 4.72916 8.21297 4.82831 8.19603C5.02521 8.16238 5.29492 8.13548 5.61284 8.1158C6.24394 8.07674 6.96901 8.07158 7.48243 8.07217L7.48471 6.07217C6.96563 6.07158 6.18734 6.07642 5.48931 6.11962C5.14266 6.14107 4.79137 6.17335 4.49146 6.2246C4.34221 6.2501 4.18375 6.28391 4.03482 6.33145C3.90858 6.37174 3.68649 6.45263 3.49019 6.62102L4.7924 8.139ZM8.4491 7.33246C8.5274 7.042 8.72061 6.76053 8.99771 6.54926L7.78512 4.95878C7.19764 5.40668 6.72384 6.04848 6.51804 6.81187L8.4491 7.33246ZM8.98772 6.55679C9.4153 6.23918 10.0164 6.22236 10.386 6.47039L11.5005 4.80971C10.3433 4.03309 8.81707 4.19215 7.79512 4.95126L8.98772 6.55679ZM11.9373 5.53099C11.9242 5.41181 11.899 5.30036 11.8883 5.25135L9.93413 5.6772C9.94108 5.70906 9.94474 5.72612 9.94755 5.74083C9.95015 5.75438 9.94995 5.75555 9.94925 5.74912L11.9373 5.53099ZM11.8883 5.25135C11.8786 5.2069 11.8749 5.18926 11.8726 5.17579C11.8707 5.16444 11.8734 5.17597 11.8739 5.20138C11.8745 5.22828 11.8728 5.27647 11.8582 5.33731C11.843 5.40058 11.8165 5.46624 11.7773 5.52772L10.0908 4.45264C9.73949 5.00373 9.91714 5.59921 9.93413 5.67719L11.8883 5.25135ZM11.8257 5.44288C11.7414 5.60898 11.6093 5.67535 11.56 5.69338C11.5193 5.70825 11.5115 5.70188 11.5373 5.70332L11.6484 3.7064C11.4306 3.69429 11.1532 3.71273 10.8739 3.81473C10.586 3.91988 10.2464 4.13569 10.0424 4.53749L11.8257 5.44288ZM11.5666 5.70451C11.9054 5.71343 12.2433 5.71797 12.5736 5.72243L12.6006 3.72261C12.2681 3.71812 11.9431 3.71372 11.6192 3.70521L11.5666 5.70451ZM12.5736 5.72243C13.0323 5.72862 13.4767 5.73466 13.9187 5.75138L13.9943 3.75281C13.524 3.73502 13.0552 3.72875 12.6006 3.72261L12.5736 5.72243ZM13.8931 5.75008C13.816 5.74518 13.7271 5.72053 13.6437 5.67065C13.5654 5.62386 13.5206 5.57208 13.5018 5.5473C13.4849 5.52495 13.4841 5.51765 13.4964 5.54386C13.5094 5.57159 13.5232 5.60557 13.5494 5.67227L15.4106 4.94017C15.373 4.84471 15.2743 4.57521 15.0968 4.34067C14.8839 4.05927 14.5304 3.78658 14.02 3.75411L13.8931 5.75008ZM13.5494 5.67228C13.5587 5.69598 13.5704 5.72558 13.5824 5.75526L15.4353 5.00241C15.4282 4.98489 15.4207 4.96588 15.4106 4.94017L13.5494 5.67228ZM14.4895 6.37865C14.8527 6.38568 15.2154 6.39068 15.575 6.39565L15.6026 4.39584C15.2421 4.39086 14.8849 4.38593 14.5282 4.37902L14.4895 6.37865ZM15.575 6.39565C16.2676 6.4052 16.9483 6.41463 17.6271 6.4379L17.6956 4.43908C16.993 4.41499 16.2917 4.40535 15.6026 4.39584L15.575 6.39565ZM17.6895 6.4381C17.6366 6.43958 17.5875 6.43026 17.5477 6.41615C17.51 6.40282 17.4888 6.38815 17.4834 6.38426C17.4786 6.3807 17.4844 6.38425 17.4993 6.40064C17.514 6.41676 17.5326 6.43998 17.5544 6.4714L19.1988 5.33298C19.0024 5.04928 18.4932 4.41473 17.6333 4.43889L17.6895 6.4381ZM18.9575 6.71617C19.4292 6.37949 20.1385 6.39282 20.5904 6.74261L21.8145 5.16096C20.6573 4.26535 18.9783 4.24423 17.7957 5.08822L18.9575 6.71617ZM22.0636 6.46024C22.0634 6.46048 22.0609 6.46572 22.0481 6.47395C22.0335 6.48343 21.9997 6.49956 21.9498 6.50089L21.8964 4.5016C21.1898 4.52045 20.6345 4.94695 20.3414 5.44333L22.0636 6.46024ZM21.9003 6.50098C22.4366 6.51321 22.9723 6.52165 23.5039 6.53004L23.5354 4.53029C23.0026 4.52188 22.474 4.51354 21.9459 4.5015L21.9003 6.50098ZM23.5039 6.53004C24.0366 6.53845 24.5653 6.54679 25.0934 6.55883L25.1389 4.55935C24.6027 4.54713 24.067 4.53868 23.5354 4.53029L23.5039 6.53004ZM26.0957 5.76021C26.1055 5.71253 26.1149 5.72289 26.0786 5.76886C26.0559 5.79762 26.009 5.84721 25.9303 5.8894C25.8467 5.93432 25.7544 5.95586 25.6695 5.9551L25.6876 3.95518C25.1461 3.95028 24.7476 4.22701 24.5085 4.52997C24.2894 4.80762 24.1851 5.12147 24.1366 5.35797L26.0957 5.76021ZM25.7045 5.9548C26.1109 5.94423 26.5217 5.95403 26.962 5.96476L27.0107 3.96536C26.5789 3.95483 26.1176 3.94338 25.6525 3.95547L25.7045 5.9548ZM26.962 5.96476C27.3294 5.97372 27.7179 5.98329 28.1094 5.97861L28.0855 3.97876C27.7364 3.98293 27.3842 3.97446 27.0107 3.96536L26.962 5.96476ZM28.119 5.97845C28.115 5.97854 28.0733 5.9808 28.0023 5.9476C27.9168 5.9076 27.7688 5.80072 27.7005 5.59748L29.5965 4.96071C29.4518 4.52985 29.1371 4.27041 28.8496 4.13594C28.5766 4.00826 28.2975 3.97413 28.0758 3.97892L28.119 5.97845ZM27.7758 5.76733C27.7503 5.72175 27.7326 5.67121 27.7235 5.62133C27.7148 5.57374 27.7161 5.53904 27.7172 5.52509C27.7182 5.51291 27.7192 5.51518 27.7131 5.54084C27.7065 5.56876 27.6974 5.601 27.6802 5.66074L29.602 6.21457C29.6441 6.06843 29.8768 5.42638 29.5212 4.79086L27.7758 5.76733ZM27.6802 5.66073C27.6513 5.76092 27.5737 6.01035 27.5657 6.28423L29.5648 6.34246C29.5642 6.3644 29.5614 6.36855 29.5669 6.34358C29.5696 6.3318 29.5735 6.31609 29.5795 6.29399C29.5857 6.27113 29.5926 6.24706 29.602 6.21458L27.6802 5.66073ZM28.8562 7.27009C29.2561 7.14847 29.726 7.42323 29.8189 7.76661L31.7495 7.24432C31.342 5.7384 29.6806 4.92894 28.2743 5.35661L28.8562 7.27009ZM30.7426 8.50461C31.0434 8.5171 31.1923 8.52554 31.267 8.53115C31.3042 8.53394 31.3107 8.53515 31.3022 8.534C31.2962 8.53319 31.2865 8.53171 31.2742 8.52941C31.2627 8.52723 31.2535 8.52511 31.2584 8.5262L31.6937 6.57416C31.5467 6.54136 31.3914 6.52983 30.8257 6.50633L30.7426 8.50461ZM31.2584 8.5262C31.4185 8.56193 31.579 8.56731 32.1439 8.58342L32.2009 6.58423C31.8872 6.57528 31.7359 6.56945 31.6604 6.56525C31.6219 6.56311 31.6194 6.56223 31.6324 6.56379C31.6417 6.56489 31.6554 6.56679 31.672 6.56983C31.6872 6.57262 31.6995 6.57545 31.6937 6.57416L31.2584 8.5262ZM32.1659 8.58381C32.2396 8.58429 32.3132 8.58371 32.379 8.5832L32.3637 6.58326C32.2953 6.58378 32.236 6.58422 32.1789 6.58385L32.1659 8.58381ZM32.379 8.5832C32.6328 8.58126 32.7891 8.58268 32.9214 8.60486C33.0357 8.62406 33.0683 8.64996 33.0788 8.65894L34.381 7.14096C33.6705 6.53147 32.754 6.58028 32.3637 6.58326L32.379 8.5832ZM33.1958 8.74536C33.1668 8.72707 33.1708 8.71566 33.201 8.76672C33.2167 8.79325 33.2358 8.83029 33.2598 8.88414C33.2845 8.9396 33.3084 8.99903 33.34 9.07796L35.1965 8.33389C35.0997 8.09244 34.8721 7.43872 34.264 7.05453L33.1958 8.74536ZM33.34 9.07798C33.3492 9.10074 33.3591 9.12542 33.3691 9.15017L35.2229 8.39965C35.2144 8.37868 35.2059 8.35732 35.1965 8.33387L33.34 9.07798ZM33.4138 9.24584C33.8466 10.0566 34.7854 10.6268 35.7929 10.4812L35.5068 8.50172C35.4215 8.51405 35.258 8.45353 35.1782 8.30397L33.4138 9.24584ZM35.7441 10.487C36.8549 10.3818 37.7153 9.44741 37.8096 8.38767L35.8174 8.2105C35.8125 8.26592 35.783 8.34018 35.7203 8.40499C35.6584 8.46905 35.5954 8.49211 35.5556 8.49589L35.7441 10.487ZM37.803 8.44379C37.9862 7.19082 37.0332 6.03761 35.846 5.87682L35.5776 7.85873C35.6219 7.86472 35.6971 7.89831 35.7604 7.97956C35.8227 8.05949 35.8281 8.12627 35.824 8.15438L37.803 8.44379ZM35.8359 5.8755C35.8242 5.87405 35.8127 5.87262 35.8021 5.87132L35.5573 7.85628C35.5682 7.85762 35.578 7.85884 35.5877 7.86004L35.8359 5.8755ZM35.8021 5.87132C35.7421 5.86392 35.7085 5.85959 35.6792 5.85458C35.652 5.84992 35.6473 5.84762 35.6553 5.85024C35.6645 5.85324 35.694 5.86378 35.7325 5.88839C35.7732 5.91435 35.8151 5.95032 35.8509 5.99561L34.2822 7.23624C34.7293 7.80155 35.42 7.83934 35.5573 7.85628L35.8021 5.87132ZM35.9862 6.22315C35.9597 6.16127 35.9309 6.09374 35.9008 6.0256L34.0712 6.83346C34.0956 6.88867 34.1197 6.94511 34.1469 7.0087L35.9862 6.22315ZM35.9745 6.27787C35.992 6.3919 35.9619 6.50157 35.8964 6.58879C35.8252 6.68366 35.6959 6.76926 35.5341 6.77551L35.4569 4.777C34.4344 4.8165 33.8725 5.7658 33.9976 6.58119L35.9745 6.27787ZM35.5202 6.77595C36.1874 6.75944 36.8436 7.36402 36.8791 8.00784L38.8761 7.89749C38.7792 6.14468 37.1884 4.73406 35.4708 4.77656L35.5202 6.77595ZM36.8842 8.06686C36.9535 8.67011 36.5228 9.32688 35.9398 9.50529L36.525 11.4178C38.0262 10.9584 39.0511 9.40433 38.8711 7.83848L36.8842 8.06686ZM35.9114 9.51444C35.3038 9.72039 34.5246 9.39601 34.2362 8.80917L32.4413 9.69138C33.1658 11.1655 34.9799 11.9419 36.5534 11.4086L35.9114 9.51444ZM34.2286 8.79402C34.2218 8.78088 34.2127 8.76014 34.1845 8.69052L32.3311 9.44217C32.3535 9.4973 32.3949 9.60121 32.4489 9.70652L34.2286 8.79402ZM34.1845 8.69054C34.1482 8.60091 34.0517 8.34364 33.8645 8.11278L32.3108 9.37214C32.2888 9.34502 32.2821 9.32863 32.2879 9.34048C32.2908 9.34621 32.2955 9.3563 32.303 9.3738C32.3108 9.39221 32.319 9.41223 32.3311 9.44215L34.1845 8.69054ZM33.6406 7.90925C33.2068 7.62137 32.718 7.65778 32.6276 7.65912L32.6571 9.6589C32.6983 9.65829 32.7187 9.6581 32.736 9.65848C32.7515 9.65882 32.7505 9.65945 32.7397 9.65801C32.7161 9.65484 32.6314 9.63985 32.5347 9.57568L33.6406 7.90925ZM32.6276 7.65912C32.6127 7.65934 32.601 7.65951 32.5898 7.65961L32.6086 9.65952C32.626 9.65936 32.6431 9.65911 32.6571 9.6589L32.6276 7.65912ZM32.6155 7.6597C32.4836 7.65756 32.3916 7.6554 32.3284 7.65335C32.2593 7.6511 32.2412 7.64944 32.2476 7.65003C32.2509 7.65034 32.2615 7.65135 32.2766 7.65344C32.2887 7.65511 32.3215 7.65985 32.364 7.67012C32.3774 7.67333 32.5169 7.7035 32.6669 7.80031C32.7409 7.8481 32.9291 7.9821 33.0418 8.24346C33.182 8.5684 33.1266 8.89754 32.9933 9.13228C32.8863 9.32087 32.7466 9.42349 32.6926 9.46075C32.6261 9.50664 32.5683 9.53447 32.538 9.54814C32.4773 9.57557 32.428 9.59015 32.4141 9.59424C32.383 9.60342 32.3553 9.60941 32.37 9.60601L31.9209 7.65708C31.9196 7.65738 31.9108 7.65941 31.9011 7.66177C31.8919 7.66401 31.8723 7.66887 31.8484 7.67592C31.8305 7.68119 31.7777 7.69697 31.7144 7.72558C31.6829 7.73985 31.6239 7.76827 31.5565 7.81475C31.5017 7.85261 31.3614 7.95582 31.254 8.14501C31.1204 8.38035 31.0649 8.71008 31.2054 9.03562C31.3184 9.29758 31.5071 9.43217 31.5821 9.48056C31.7339 9.57856 31.8767 9.60992 31.8949 9.61432C31.9753 9.63372 32.0454 9.63987 32.0636 9.64155C32.1607 9.65052 32.3262 9.65526 32.5829 9.65944L32.6155 7.6597ZM32.37 9.60601C32.3712 9.60573 32.3801 9.6037 32.3897 9.60136C32.3987 9.59917 32.4187 9.59421 32.4432 9.58698C32.4603 9.5819 32.5174 9.56495 32.5854 9.53332C32.6187 9.51786 32.6864 9.48452 32.7625 9.42791C32.8223 9.38339 32.9937 9.24801 33.0944 8.99716C33.226 8.66925 33.169 8.32011 32.9931 8.06151C32.8581 7.8629 32.6896 7.76894 32.6302 7.73772C32.4994 7.66903 32.3829 7.64643 32.3638 7.64245C32.293 7.62769 32.2312 7.6229 32.2126 7.62141C32.1197 7.614 31.9586 7.61023 31.703 7.60711L31.6786 9.60697C31.8097 9.60856 31.9019 9.61025 31.9658 9.61195C32.0349 9.61378 32.0561 9.61528 32.0536 9.61508C32.0514 9.6149 32.0428 9.61421 32.0301 9.61268C32.0199 9.61146 31.9922 9.60797 31.9558 9.6004C31.9419 9.5975 31.829 9.57598 31.7002 9.50839C31.6418 9.47772 31.4741 9.38431 31.3394 9.18626C31.1639 8.92821 31.1069 8.57962 31.2383 8.25227C31.3388 8.00197 31.5097 7.86715 31.5688 7.82319C31.6441 7.76715 31.7108 7.73436 31.7428 7.71947C31.8085 7.68897 31.8622 7.67315 31.8756 7.66921C31.9076 7.65974 31.9363 7.65354 31.9209 7.65708L32.37 9.60601ZM31.7298 7.6078C31.7044 7.60681 31.6788 7.60577 31.6523 7.60469L31.5712 9.60305C31.5974 9.60411 31.6245 9.60521 31.6518 9.60628L31.7298 7.6078ZM31.6523 7.6047C31.3844 7.59383 31.0126 7.57618 30.6301 7.62799L30.8986 9.60988C31.0779 9.58559 31.2734 9.59097 31.5712 9.60305L31.6523 7.6047ZM29.8199 8.29043C29.7288 8.55233 29.4614 8.76675 29.1706 8.79825L29.3861 10.7866C30.4274 10.6738 31.3582 9.95576 31.7089 8.94744L29.8199 8.29043ZM29.0551 8.81766C29.0985 8.80775 29.1236 8.81062 29.1122 8.8099C29.1061 8.80951 29.0938 8.80841 29.0712 8.80529C29.0473 8.80199 29.0213 8.79782 28.9813 8.79132L28.6602 10.7654C28.7805 10.7849 29.1261 10.8532 29.5016 10.7672L29.0551 8.81766ZM28.9813 8.79132C28.8879 8.77612 28.6714 8.73713 28.4352 8.74888L28.5346 10.7464C28.5221 10.747 28.5224 10.7457 28.5447 10.7482C28.5702 10.751 28.6 10.7556 28.6602 10.7654L28.9813 8.79132ZM27.4957 9.89385C27.5211 10.0658 27.5689 10.2287 27.5934 10.3151L29.5175 9.76918C29.4854 9.65617 29.4772 9.62158 29.4742 9.60143L27.4957 9.89385ZM27.5934 10.3151C27.6118 10.38 27.6228 10.4193 27.6311 10.4547C27.6389 10.488 27.6397 10.4991 27.6395 10.4961C27.6391 10.4919 27.6371 10.4652 27.6441 10.4241C27.6514 10.3805 27.667 10.3316 27.6929 10.2846L29.4455 11.248C29.8028 10.598 29.5614 9.92405 29.5175 9.76917L27.5934 10.3151ZM27.6853 10.2987C27.7505 10.1753 27.8479 10.1047 27.9221 10.0715C27.9907 10.0408 28.0498 10.0359 28.0959 10.04L27.9193 12.0321C28.4087 12.0756 29.1034 11.895 29.4531 11.2339L27.6853 10.2987ZM28.0505 10.037C27.6478 10.0197 27.2476 10.0157 26.8665 10.0119L26.8463 12.0118C27.2328 12.0157 27.6002 12.0195 27.9647 12.0351L28.0505 10.037ZM26.8665 10.0119C26.4196 10.0073 25.9984 10.0029 25.5813 9.98041L25.4735 11.9775C25.9416 12.0028 26.4067 12.0073 26.8463 12.0118L26.8665 10.0119ZM25.6015 9.98171C25.6956 9.9887 25.7951 10.0221 25.8815 10.0804C25.9612 10.1343 26.0033 10.1913 26.0196 10.2166C26.0352 10.2408 26.0359 10.2492 26.0288 10.2291C26.0221 10.2102 26.0136 10.1807 26.0037 10.1362L24.0518 10.5722C24.088 10.7344 24.1625 11.0269 24.3385 11.3C24.536 11.6065 24.8981 11.935 25.4533 11.9762L25.6015 9.98171ZM25.0299 9.3542C24.501 9.35304 23.9705 9.34263 23.43 9.332L23.3907 11.3316C23.9283 11.3422 24.4762 11.353 25.0255 11.3542L25.0299 9.3542ZM23.43 9.332C23.1149 9.32581 22.7963 9.31954 22.4773 9.31518L22.4499 11.315C22.7619 11.3193 23.0745 11.3254 23.3907 11.3316L23.43 9.332ZM22.5688 9.32063C22.3928 9.30202 22.2235 9.30693 22.13 9.30889L22.1717 11.3084C22.2888 11.306 22.3299 11.3065 22.3584 11.3095L22.5688 9.32063ZM22.13 9.30889C22.0728 9.31008 22.0349 9.31078 22.0001 9.31036C21.967 9.30996 21.949 9.30857 21.9401 9.30757C21.9249 9.30584 21.9616 9.30797 22.0143 9.3378L21.0284 11.0779C21.5005 11.3454 22.0047 11.3119 22.1717 11.3084L22.13 9.30889ZM21.9418 9.30054C21.9992 9.32715 22.0236 9.3549 22.0139 9.34499C22.0092 9.34023 21.9994 9.32974 21.9827 9.30937C21.9653 9.28817 21.9463 9.26385 21.9186 9.22778L20.3328 10.4464C20.4193 10.559 20.6748 10.9178 21.1009 11.1152L21.9418 9.30054ZM20.5337 9.0312C20.0821 9.36292 19.3721 9.34811 18.9284 8.99371L17.6803 10.5565C18.823 11.4692 20.53 11.5156 21.7178 10.643L20.5337 9.0312ZM17.452 9.25216C17.4375 9.27573 17.4293 9.27774 17.444 9.26764C17.4634 9.25424 17.5215 9.22309 17.6082 9.22346L17.5996 11.2234C18.382 11.2268 18.9056 10.7073 19.1567 10.298L17.452 9.25216ZM17.5837 9.22365C17.1177 9.23305 16.6475 9.2215 16.1512 9.20913L16.1013 11.2085C16.5901 11.2207 17.1054 11.2337 17.6241 11.2232L17.5837 9.22365ZM16.1511 9.20913C15.5708 9.19467 14.9533 9.17893 14.3317 9.20316L14.4096 11.2016C14.9567 11.1803 15.5102 11.1938 16.1013 11.2085L16.1511 9.20913ZM13.3755 10.1048C13.3773 10.0859 13.3841 10.0379 13.4385 9.97239C13.4695 9.93512 13.5211 9.88692 13.5984 9.84883C13.679 9.80906 13.7661 9.79117 13.8462 9.79331L13.7927 11.7926C14.3108 11.8065 14.7201 11.5597 14.9772 11.25C15.2176 10.9605 15.3352 10.6128 15.3659 10.3L13.3755 10.1048ZM13.8466 9.79332C13.4818 9.78344 13.118 9.7787 12.7624 9.77406L12.7362 11.7739C13.0942 11.7786 13.444 11.7831 13.7924 11.7926L13.8466 9.79332ZM12.7624 9.77406C12.274 9.76768 11.801 9.76145 11.331 9.74304L11.2527 11.7415C11.7531 11.7611 12.2523 11.7676 12.7362 11.7739L12.7624 9.77406ZM11.3023 9.74233C11.4055 9.74341 11.518 9.77894 11.6125 9.84877C11.6999 9.91335 11.7452 9.98687 11.767 10.0369C11.8018 10.1173 11.8103 10.2142 11.7535 10.3262L9.97014 9.4208C9.73889 9.87632 9.74667 10.4054 9.93226 10.8331C10.1315 11.2921 10.5938 11.735 11.2814 11.7422L11.3023 9.74233ZM10.4564 8.95935C9.9733 9.1736 9.41944 9.13094 9.06091 8.88439L7.92764 10.5323C8.9436 11.231 10.2488 11.2393 11.2672 10.7876L10.4564 8.95935ZM9.0168 8.85573C8.75411 8.69475 8.52676 8.36747 8.41244 7.92979L6.47736 8.43523C6.68038 9.2125 7.14507 10.0543 7.97175 10.561L9.0168 8.85573ZM7.37722 7.1848C7.18 7.19818 6.97476 7.19249 6.71151 7.18413L6.64806 9.18312C6.89479 9.19095 7.19954 9.20145 7.51258 9.18021L7.37722 7.1848ZM6.71151 7.18413C6.51391 7.17786 6.27954 7.17009 6.03986 7.17759L6.10243 9.17661C6.2686 9.17141 6.43994 9.17652 6.64806 9.18312L6.71151 7.18413ZM6.01435 7.17872C6.06433 7.17587 6.11154 7.1832 6.1562 7.19956L5.4682 9.0775C5.67798 9.15435 5.90345 9.18826 6.12794 9.17549L6.01435 7.17872ZM8.53069 5.74297C7.93106 6.12655 7.59337 6.75366 7.50357 7.37041C7.4134 7.98981 7.55973 8.70067 8.06431 9.24202L9.52735 7.87839C9.50332 7.85261 9.46475 7.78188 9.48271 7.65855C9.50105 7.53259 9.56452 7.45583 9.60844 7.42774L8.53069 5.74297ZM10.8107 5.59896C10.0775 5.24262 9.19439 5.30428 8.51827 5.75104L9.62086 7.41966C9.71089 7.36017 9.84277 7.35224 9.93635 7.39773L10.8107 5.59896ZM11.559 9.22831C12.1004 8.63501 12.2134 7.85443 12.0685 7.20354C11.9241 6.55494 11.4958 5.90434 10.7813 5.58526L9.96573 7.41142C10.0076 7.43011 10.0851 7.49794 10.1163 7.63808C10.147 7.77594 10.1052 7.85442 10.0817 7.88018L11.559 9.22831ZM8.01264 9.18199C8.47438 9.7636 9.16786 10.0255 9.8081 10.0279C10.4512 10.0302 11.1587 9.76966 11.6203 9.15427L10.0204 7.95421C10.0026 7.97788 9.94239 8.02833 9.81533 8.02787C9.68541 8.0274 9.60631 7.9728 9.57902 7.93843L8.01264 9.18199ZM11.0696 5.94961C11.268 7.11993 11.2483 8.32905 11.0077 9.48855L12.9661 9.89477C13.2578 8.48852 13.281 7.0282 13.0415 5.6153L11.0696 5.94961ZM13.4752 4.8062C13.0032 4.8018 12.5443 4.79748 12.0873 4.78296L12.0238 6.78195C12.507 6.7973 12.9883 6.80175 13.4565 6.80611L13.4752 4.8062ZM14.3758 9.92791C14.6761 8.51153 14.6924 7.05255 14.4517 5.63832L12.48 5.97398C12.6803 7.15048 12.665 8.35448 12.4193 9.51305L14.3758 9.92791ZM12.5198 10.7001C12.8121 10.7033 13.0821 10.7063 13.3488 10.7193L13.4463 8.72167C13.1352 8.70649 12.8272 8.70331 12.5412 8.70024L12.5198 10.7001ZM11.9613 10.6913C12.1512 10.6962 12.3399 10.6982 12.5198 10.7001L12.5412 8.70024C12.3588 8.69829 12.1851 8.69641 12.0125 8.69199L11.9613 10.6913ZM14.6854 10.1237C15.1295 10.1158 15.5765 10.1254 16.0467 10.1356L16.0902 8.13605C15.6266 8.12597 15.14 8.11525 14.6498 8.12398L14.6854 10.1237ZM13.6906 7.9185C13.6859 8.31831 13.6813 8.70513 13.6682 9.08975L15.667 9.1579C15.681 8.74726 15.6858 8.33812 15.6904 7.94204L13.6906 7.9185ZM13.7261 6.40041C13.7023 6.91452 13.6964 7.42657 13.6906 7.9185L15.6904 7.94204C15.6963 7.44433 15.702 6.96682 15.724 6.49295L13.7261 6.40041ZM16.8565 5.48761C16.149 5.47801 15.4513 5.46852 14.7557 5.44715L14.6943 7.44621C15.4099 7.46819 16.1248 7.47787 16.8293 7.48742L16.8565 5.48761ZM17.384 5.49495C17.2079 5.49238 17.0319 5.48999 16.8565 5.48761L16.8293 7.48742C17.0049 7.48981 17.1799 7.49218 17.3547 7.49474L17.384 5.49495ZM18.3543 7.81613C18.3639 7.38591 18.3739 6.93679 18.3693 6.48465L16.3694 6.50503C16.3736 6.91942 16.3645 7.3362 16.3548 7.77181L18.3543 7.81613ZM18.3404 9.13656C18.3347 8.70505 18.3442 8.27088 18.3543 7.81613L16.3548 7.77181C16.3449 8.22069 16.3344 8.6901 16.3405 9.16274L18.3404 9.13656ZM16.0467 10.1356C16.4679 10.1447 16.9081 10.1544 17.3513 10.1496L17.3296 8.14971C16.9244 8.15412 16.5168 8.14534 16.0902 8.13605L16.0467 10.1356ZM18.387 5.98072C17.6309 6.52755 17.2855 7.48597 17.4831 8.3761L19.4356 7.94276C19.4066 7.81236 19.4654 7.66899 19.5591 7.60126L18.387 5.98072ZM21.4899 6.32067C20.7158 5.41496 19.2956 5.28286 18.3642 5.99768L19.5818 7.58429C19.6121 7.56105 19.6835 7.53113 19.7858 7.54143C19.8878 7.55169 19.9475 7.59434 19.9695 7.62004L21.4899 6.32067ZM21.8554 8.86519C22.2924 7.98954 22.069 6.94515 21.4635 6.29105L19.9958 7.64965C20.0315 7.68825 20.0655 7.75188 20.0781 7.82697C20.0906 7.90085 20.0769 7.95001 20.0659 7.97215L21.8554 8.86519ZM20.0368 10.1735C20.7393 10.0737 21.5444 9.63782 21.887 8.79541L20.0343 8.04193C20.0312 8.04963 20.0167 8.07852 19.9641 8.11464C19.9095 8.15219 19.8344 8.18217 19.7556 8.19336L20.0368 10.1735ZM17.4795 8.35905C17.7117 9.49888 18.8558 10.3393 20.0353 10.1737L19.7572 8.19314C19.7241 8.19778 19.6511 8.19043 19.5669 8.13011C19.4822 8.06941 19.4471 7.99837 19.4392 7.95981L17.4795 8.35905ZM21.1717 6.58437C21.1741 7.08052 21.164 7.57893 21.1534 8.09231L23.153 8.13329C23.1634 7.62417 23.1742 7.10032 23.1716 6.57449L21.1717 6.58437ZM23.339 5.59757C22.957 5.59038 22.5694 5.58309 22.181 5.57947L22.1624 7.57939C22.5397 7.5829 22.9178 7.59 23.3014 7.59721L23.339 5.59757ZM24.8197 5.61748C24.3304 5.61619 23.8395 5.60698 23.339 5.59757L23.3014 7.59721C23.7992 7.60657 24.3062 7.61613 24.8144 7.61748L24.8197 5.61748ZM25.8149 8.15724C25.828 7.6588 25.8428 7.11636 25.8159 6.56837L23.8183 6.66659C23.8409 7.12654 23.829 7.59339 23.8156 8.1045L25.8149 8.15724ZM25.8014 9.26208C25.7953 8.90473 25.8047 8.5436 25.8149 8.15724L23.8156 8.10449C23.8056 8.4836 23.7947 8.88811 23.8017 9.29606L25.8014 9.26208ZM23.5127 10.2627C23.9326 10.2719 24.3688 10.2816 24.8073 10.2791L24.7957 8.27909C24.3897 8.28144 23.9813 8.2725 23.5568 8.26315L23.5127 10.2627ZM22.1471 10.2478C22.594 10.2425 23.0435 10.2523 23.5127 10.2627L23.5568 8.26315C23.0932 8.25293 22.6098 8.24218 22.1233 8.24797L22.1471 10.2478ZM21.1534 8.09231C21.1457 8.46946 21.1378 8.85478 21.1352 9.24131L23.1352 9.25448C23.1376 8.88417 23.1452 8.51276 23.153 8.13329L21.1534 8.09231ZM26.0851 10.9361C26.4835 10.9298 26.886 10.9391 27.3117 10.9491L27.3586 8.94966C26.9395 8.93984 26.4977 8.92935 26.0535 8.93637L26.0851 10.9361ZM25.1655 5.77646C24.8195 7.20137 24.7985 8.70682 25.0894 10.1358L27.0492 9.73672C26.8157 8.59005 26.8337 7.38207 27.109 6.24838L25.1655 5.77646ZM26.4414 5.02283C26.353 5.01948 26.262 5.01603 26.1706 5.01298L26.1038 7.01186C26.19 7.01474 26.2766 7.01802 26.3658 7.0214L26.4414 5.02283ZM27.4593 5.03706C27.1388 5.04877 26.8117 5.03685 26.4414 5.02283L26.3658 7.0214C26.7235 7.03494 27.125 7.05061 27.5323 7.03573L27.4593 5.03706ZM28.4365 9.77814C28.2333 8.62745 28.2901 7.42189 28.4836 6.1918L26.5079 5.88099C26.2943 7.23877 26.212 8.68262 26.467 10.1261L28.4365 9.77814ZM27.3117 10.9491C27.3506 10.95 27.3896 10.9509 27.4287 10.9518L27.4749 8.95237C27.4362 8.95148 27.3975 8.95057 27.3586 8.94966L27.3117 10.9491ZM27.757 6.95116C27.2967 7.50496 27.3143 8.20233 27.526 8.69789C27.7393 9.19692 28.2422 9.70229 28.9858 9.72751L29.0536 7.72866C29.2626 7.73574 29.3496 7.87561 29.3652 7.91201C29.3792 7.94492 29.4173 8.0825 29.2951 8.22955L27.757 6.95116ZM30.6677 7.39061C30.4196 6.71423 29.815 6.38757 29.2779 6.33116C28.7512 6.27585 28.1238 6.45859 27.7253 6.99137L29.3268 8.18934C29.2317 8.31653 29.1152 8.32508 29.069 8.32022C29.0122 8.31426 28.8572 8.26268 28.79 8.07921L30.6677 7.39061ZM28.8894 9.71955C29.5781 9.81011 30.1537 9.45492 30.4696 9.0198C30.789 8.57994 30.9516 7.90492 30.6119 7.26562L28.8458 8.20421C28.7545 8.03249 28.8199 7.88789 28.8513 7.84463C28.8793 7.80611 28.976 7.71373 29.1501 7.73661L28.8894 9.71955Z" fill="black" mask="url(#path-18-inside-1_10098_10534)"/>
<path d="M14.9471 12.9433C15.1215 12.5995 15.7688 12.6316 15.8891 12.9961C16.1223 13.6675 16.2684 14.3595 16.4856 15.0352C16.6091 15.6537 16.89 16.2694 17.4227 16.7018C17.815 17.0535 18.3493 17.224 18.8255 17.4659C20.1202 18.1336 21.2228 19.1153 21.9089 20.2975C22.4989 19.5177 22.6741 18.4875 22.3165 17.5979C22.1995 17.2433 21.9832 16.9251 21.7975 16.5969C21.7039 16.2459 22.0744 15.9205 22.4707 16.0019C23.1818 16.3493 23.8905 16.6989 24.6008 17.0464C25.7349 17.595 26.6857 18.4376 27.2782 19.4549C28.1217 20.8405 28.1983 22.5106 27.7705 24.016C27.5728 24.5411 27.4049 25.0819 27.1006 25.5692C27.1232 25.5649 27.1684 25.5549 27.1918 25.5506C28.0143 24.9406 28.6536 24.1394 29.0233 23.2469C29.1266 22.9544 29.1984 22.654 29.309 22.3644C29.4486 22.0726 29.9523 22.0205 30.171 22.2681C30.3276 22.4807 30.4269 22.7218 30.544 22.953C30.8935 23.6871 31.3237 24.3948 31.5779 25.1618C31.8378 26.0821 31.8265 27.0631 31.5311 27.9756C32.7378 28.5107 33.9397 29.2113 34.6072 30.2822C34.8187 30.6624 34.9664 31.0812 34.9672 31.5086C34.9785 31.7989 34.654 32.0329 34.3352 31.9966C24.1092 31.9958 13.8833 31.9966 3.65811 31.9966C3.34009 32.0322 3.0148 31.7989 3.02772 31.5093C3.03821 30.7302 3.48457 30.0039 4.08672 29.4538C4.92213 28.6898 5.98113 28.1411 7.08049 27.7266C7.08452 27.2771 7.05547 26.8241 7.13618 26.3789C7.23143 25.7432 7.54057 25.1504 7.62532 24.5133C7.76416 23.6907 7.53734 22.8602 7.2056 22.0954C7.003 21.5168 6.76731 20.9475 6.5631 20.3696C6.46704 20.0906 6.22409 19.7617 6.45736 19.4863C6.54453 19.3465 6.73099 19.3272 6.88677 19.2851C7.69151 19.4478 8.47769 19.6697 9.2784 19.8452C9.92413 19.9922 10.5513 20.2269 11.0606 20.6157C12.1527 21.4034 12.7153 22.7154 12.4828 23.9446C12.4425 24.1644 12.3529 24.3955 12.4401 24.6153C12.5192 24.7473 12.658 24.8464 12.8122 24.9049C13.1302 25.0391 13.5483 24.8621 13.6508 24.5675C13.83 24.1309 13.9147 23.67 14.0746 23.2283C14.3119 22.5841 14.3886 21.8978 14.3264 21.2229C14.232 20.406 13.8808 19.6198 13.3409 18.9527C12.7912 18.2571 12.5991 17.356 12.8259 16.532C12.9671 15.9955 13.3271 15.5381 13.6121 15.0573C14.0625 14.3553 14.4935 13.6432 14.9471 12.9433ZM14.0027 16.3871C13.7477 16.888 13.7412 17.4794 13.9551 17.9931C14.1391 18.3941 14.4886 18.713 14.6904 19.1061C15.3927 20.2633 15.5872 21.6431 15.2684 22.923C15.0795 23.5201 14.9148 24.123 14.7138 24.7173C14.5782 25.2638 14.0641 25.7311 13.4393 25.841C12.9817 25.9394 12.4845 25.8531 12.0889 25.6326C11.6119 25.3651 11.3246 24.87 11.3246 24.3748C11.3423 24.1094 11.444 23.8555 11.465 23.5908C11.5481 22.5991 10.9549 21.5889 9.9774 21.0923C9.28243 20.7441 8.47446 20.6607 7.72299 20.4502C7.96353 21.1722 8.26299 21.8771 8.51401 22.5962C8.84253 23.6707 8.77473 24.8286 8.34532 25.8738C8.02164 26.9475 8.06523 28.1219 8.53419 29.1578C8.80782 29.8619 9.34781 30.4434 9.81678 31.0498C16.015 31.057 22.2124 31.0498 28.4106 31.0534C28.7908 30.4862 29.1774 29.9219 29.56 29.3561C29.9168 28.8289 30.3107 28.3102 30.5044 27.7138C30.7094 27.0574 30.7643 26.3589 30.6109 25.6883C30.5012 25.0676 30.1541 24.509 29.8708 23.9404C29.401 24.8001 28.7755 25.6063 27.936 26.2191C27.4178 26.5979 26.8471 26.919 26.2789 27.2372C25.8995 27.4405 25.3878 27.0467 25.5492 26.685C25.8164 25.973 26.1522 25.2823 26.4298 24.5739C26.8859 23.5922 27.082 22.4992 26.8988 21.4462C26.7382 20.3774 26.1441 19.3672 25.2594 18.6274C24.7259 18.1636 24.0624 17.8426 23.4005 17.5465C23.8348 18.9092 23.3521 20.4502 22.2277 21.4504C22.0905 21.5924 21.8734 21.6852 21.6603 21.6302C21.3964 21.5782 21.2906 21.3363 21.1938 21.1415C20.5948 19.9151 19.5165 18.8778 18.1935 18.2342C17.8868 18.0759 17.551 17.9653 17.2588 17.7848C16.6648 17.4509 16.191 16.9665 15.8697 16.415C15.5275 15.7921 15.4266 15.0987 15.2143 14.438C14.822 15.0937 14.395 15.7315 14.0027 16.3871ZM6.23458 29.1535C6.61718 29.1763 7.00058 29.1621 7.38318 29.1642C7.35089 28.9987 7.30407 28.836 7.24838 28.6762C6.90291 28.8225 6.57117 28.9915 6.23458 29.1535ZM31.1251 28.8396C31.0613 28.9459 31.0008 29.0529 30.9475 29.1642C31.2268 29.167 31.5069 29.167 31.7862 29.1592C31.5634 29.0565 31.3439 28.9487 31.1251 28.8396ZM4.83738 30.1102C4.55568 30.387 4.32241 30.7002 4.17228 31.0498C5.62033 31.0541 7.06838 31.0555 8.51563 31.0491C8.27509 30.7509 8.04101 30.4455 7.85779 30.1166C6.85125 30.1009 5.84391 30.1131 4.83738 30.1102ZM30.2824 30.1102C30.0887 30.4298 29.8554 30.7295 29.6577 31.047C31.046 31.0584 32.4351 31.0527 33.8243 31.0498C33.6758 30.7017 33.4473 30.3863 33.1656 30.1109C32.2043 30.1081 31.2438 30.1095 30.2824 30.1102Z" fill="black"/>
<path d="M30.9945 17.4859C31.2901 17.4258 31.6368 17.6629 31.6092 17.9829C31.6133 18.5457 31.6173 19.1092 31.6076 19.672C31.5995 20.0163 31.1788 20.2591 30.8702 20.1072C30.6892 20.0041 30.5284 19.8182 30.5462 19.5973C30.5438 19.0556 30.5389 18.5132 30.5495 17.9715C30.5527 17.7287 30.7574 17.5176 30.9945 17.4859Z" fill="black"/>
<path d="M9.70153 14.8297C9.99712 14.7696 10.3439 15.0067 10.3163 15.3266C10.3203 15.8894 10.3244 16.453 10.3146 17.0157C10.3065 17.36 9.88586 17.6029 9.57728 17.451C9.39619 17.3479 9.2354 17.1619 9.25327 16.941C9.25083 16.3994 9.24596 15.8569 9.25651 15.3153C9.25976 15.0725 9.4644 14.8613 9.70153 14.8297Z" fill="black"/>
<path d="M32.8241 18.1096C33.1261 17.8701 33.6223 18.0796 33.6597 18.4637C33.6816 19.037 33.6727 19.6128 33.6653 20.1861C33.6621 20.4248 33.4729 20.5929 33.2747 20.692C32.9921 20.7237 32.6608 20.5791 32.6267 20.2665C32.5837 19.8044 32.6218 19.3383 32.6072 18.8754C32.6097 18.6123 32.5739 18.2785 32.8241 18.1096Z" fill="black"/>
<path d="M23.8586 24.7053C24.1156 24.5959 24.4374 24.8057 24.4196 25.09C24.3979 25.6121 24.2517 26.1272 24.0132 26.5915C23.8841 26.863 23.4313 26.8694 23.2946 26.6023C23.2087 26.4776 23.2132 26.3136 23.2838 26.1838C23.465 25.8226 23.5388 25.4226 23.6068 25.0283C23.6265 24.8852 23.7251 24.76 23.8586 24.7053Z" fill="black"/>
<path d="M32.6389 22.1245C32.7169 21.7566 33.2407 21.6299 33.4957 21.8947C33.7515 22.1456 33.6589 22.5386 33.6646 22.8586C33.6621 23.1006 33.4689 23.2687 33.2683 23.3661C33.0052 23.3848 32.6917 23.2695 32.6349 22.9812C32.5902 22.6994 32.5894 22.4054 32.6389 22.1245Z" fill="black"/>
<path d="M19.2773 25.6879C19.3681 25.4336 19.6555 25.2759 19.9155 25.3724C20.1122 25.4336 20.2397 25.6411 20.2289 25.8435C20.231 26.3023 20.2325 26.7612 20.2281 27.22C20.2483 27.534 19.891 27.8114 19.595 27.6853C19.4466 27.6349 19.3537 27.5023 19.2788 27.3734C19.2759 26.8116 19.2788 26.2497 19.2773 25.6879Z" fill="black"/>
<path d="M22.7822 27.0005C23.1116 26.8218 23.5301 27.2307 23.3361 27.5595C23.1848 27.7509 23.0449 28.0276 22.767 28.0352C22.4712 28.0587 22.2207 27.7039 22.3752 27.4399C22.4884 27.2771 22.6067 27.1016 22.7822 27.0005Z" fill="black"/>
<path d="M9.85803 27.3923C10.0779 27.2428 10.4232 27.4085 10.4204 27.6804C10.3958 28.2708 10.6314 28.859 11.0433 29.2798C11.2083 29.4191 11.2072 29.7051 11.0298 29.8338C10.8966 29.9569 10.6784 29.9513 10.5503 29.8237C9.97946 29.2759 9.65433 28.4762 9.68567 27.6849C9.68399 27.5641 9.75954 27.4561 9.85803 27.3923Z" fill="black"/>
<path d="M17.3711 27.2886C17.3343 26.9623 17.6887 26.6727 17.9992 26.7937C18.185 26.842 18.3204 27.0228 18.3204 27.2144C18.3284 27.8951 18.3197 28.5765 18.3233 29.2579C18.2117 29.7059 17.5015 29.7261 17.3905 29.2687C17.3452 28.611 17.3819 27.9484 17.3711 27.2886Z" fill="black"/>
<path d="M19.5792 28.699C19.8753 28.56 20.2506 28.8359 20.2261 29.1586C20.2254 29.4978 20.2419 29.8385 20.216 30.1771C20.1922 30.3579 20.033 30.4688 19.8933 30.5624C19.6325 30.6042 19.3322 30.4724 19.2839 30.19C19.263 29.796 19.2803 29.4013 19.2774 29.0073C19.3495 28.8805 19.4345 28.7501 19.5792 28.699Z" fill="black"/>
</svg>
