<svg width="32" height="32" viewBox="0 0 32 32" fill="none" xmlns="http://www.w3.org/2000/svg">
<path d="M23.3231 20.5942L24.1531 20.0708V17.8365L24.5255 9.60547L23.6656 7.27129L21.8842 4.19922H2.84224L0.507812 8.56171V29.5079L1.73608 31.4735H5.42236L12.7981 24.1626L14.6542 23.7852L21.3412 20.9929L23.3231 20.5942Z" fill="white"/>
<path d="M3.49369 1.50759C3.46948 1.20652 3.74181 0.909986 4.04893 0.934193C9.67321 0.93268 15.2975 0.934193 20.9218 0.933437C21.2092 0.89637 21.5156 1.13919 21.4982 1.438C21.5043 2.17176 21.4982 2.90629 21.5005 3.64081C15.498 3.64157 9.49545 3.64156 3.49369 3.64005C3.49369 2.92974 3.49142 2.21866 3.49369 1.50759Z" fill="#F7F7F7"/>
<path d="M9.39404 12.7439C9.45985 12.7409 9.52642 12.7386 9.59299 12.7363C9.96366 13.3581 10.3222 13.9868 10.6861 14.6131C10.7708 14.7455 10.8555 14.9074 11.0227 14.9475C11.8283 15.1805 12.6446 15.3711 13.4509 15.601C13.6567 15.6449 13.8829 15.7493 14.0856 15.6389C14.7566 15.272 15.4019 14.8567 16.0736 14.4921C16.3066 14.4179 16.2899 14.6865 16.2362 14.8295C15.9427 15.9778 15.6273 17.1208 15.336 18.2698C15.1537 18.8493 15.0539 19.4514 14.8564 20.0263C14.715 20.4742 14.3254 20.8146 13.8882 20.9613C13.0538 21.1815 12.2232 21.419 11.3881 21.6368C10.8949 21.7359 10.3737 21.5317 10.0295 21.1769C9.47498 20.6232 8.91823 20.0717 8.3645 19.5172C8.17311 19.3304 8.04981 19.0914 7.96736 18.8395C7.92499 18.5845 7.91819 18.3235 7.97189 18.0701C8.0014 17.9703 8.02409 17.8682 8.0483 17.7675C8.32894 16.7251 8.60278 15.682 8.87284 14.6366C9.06347 14.0102 9.17694 13.3627 9.39404 12.7439ZM10.0688 17.409C10.1618 17.5928 10.3162 17.7918 10.5507 17.757C10.9168 17.7842 11.0197 17.3651 11.0847 17.0875C11.2353 16.732 10.8328 16.3174 10.4743 16.471C10.121 16.6336 10.1233 17.0784 10.0688 17.409ZM12.9502 17.1457C12.6551 17.3076 12.6196 17.6874 12.6037 17.9877C12.5742 18.3228 12.9986 18.5437 13.2724 18.3735C13.5251 18.2139 13.5531 17.8818 13.6181 17.6178C13.659 17.2713 13.2641 17.0005 12.9502 17.1457ZM10.966 18.6314C10.6997 18.8062 10.6974 19.2404 10.966 19.4144C11.1596 19.524 11.3873 19.5679 11.6082 19.5762C11.9161 19.6194 12.1362 19.2623 12.0454 18.9892C12.0008 18.7827 11.795 18.6783 11.6074 18.6337C11.404 18.5785 11.1536 18.49 10.966 18.6314Z" fill="#F7F7F7"/>
<path d="M17.5155 20.9575C18.051 20.4431 19.0503 20.6156 19.3688 21.2919C19.455 21.5113 19.6812 21.6989 19.9293 21.6444C20.182 21.5824 20.2781 21.3214 20.4112 21.1293C20.8068 20.5513 21.7471 20.4976 22.2131 21.0181C22.4166 21.1966 22.462 21.5279 22.7358 21.6255C22.9574 21.7155 23.2161 21.5748 23.3069 21.3638C23.4643 21.0498 23.7442 20.7843 24.0883 20.6935C24.4235 20.6421 24.8047 20.6383 25.0808 20.8645C25.4394 21.096 25.6134 21.5294 25.6156 21.9447C25.6119 22.2186 25.8751 22.3978 26.127 22.4115C26.6013 22.4553 26.9485 22.851 27.1021 23.2761C24.9885 23.2927 22.875 23.2753 20.7614 23.2844C20.5632 23.2814 20.3635 23.4054 20.3053 23.5991C20.1767 23.8918 20.4452 24.2678 20.766 24.2345C23.3425 24.2451 25.919 24.2194 28.4947 24.2474C28.7519 24.4244 28.8495 24.7338 28.9864 25.0001C29.5454 26.1015 30.0954 27.2082 30.6552 28.3096C30.7467 28.5146 30.7702 28.7438 30.7686 28.9669C30.7671 29.5267 30.7656 30.0865 30.7694 30.6463C30.7104 30.8604 30.5417 31.076 30.2974 31.057C24.1829 31.0616 18.0677 31.0608 11.9532 31.0578C11.9547 30.3119 11.9532 29.5668 11.9532 28.8209C11.9517 28.6613 11.9714 28.501 12.0432 28.3572C12.656 27.1287 13.2793 25.9063 13.8928 24.6793C13.9911 24.4902 14.1084 24.2307 14.3603 24.2406C15.7113 24.23 17.0623 24.2375 18.4134 24.2368C18.5337 24.2307 18.666 24.2504 18.7712 24.1778C19.0639 24.0447 19.0995 23.5779 18.843 23.3941C18.7462 23.3147 18.6206 23.2791 18.4973 23.2829C17.5404 23.2791 16.5827 23.2874 15.6251 23.2791C15.7446 22.9092 16.0124 22.5991 16.3732 22.4485C16.6614 22.4152 17.0533 22.3525 17.1062 22.0037C17.1213 21.624 17.2023 21.2079 17.5155 20.9575ZM19.3597 25.7686C18.93 25.8624 18.5208 26.0924 18.2432 26.4366C17.6887 27.0894 17.6736 28.1363 18.2084 28.8051C18.5707 29.2869 19.1766 29.56 19.7758 29.5502C20.8121 29.5509 21.8492 29.5494 22.8856 29.5509C23.7336 29.5956 24.5899 29.0373 24.8191 28.2067C24.9984 27.7044 24.9031 27.1416 24.6496 26.6824C24.3092 26.0969 23.6367 25.7134 22.9574 25.7421C21.7584 25.7588 20.5564 25.7089 19.3597 25.7686Z" fill="#F7F7F7"/>
<path d="M18.8166 21.5707C18.5391 20.8845 17.6684 20.7095 17.2018 21.2314C16.9289 21.4855 16.8584 21.9076 16.8452 22.2929C16.7991 22.6467 16.4577 22.7104 16.2065 22.7442C15.8922 22.8969 15.6588 23.2116 15.5547 23.5869C16.3891 23.5954 18.0573 23.5908 18.0573 23.5908L20.03 23.5923C20.03 23.5923 23.7131 23.6007 25.5547 23.5838C25.4209 23.1525 25.1184 22.7511 24.7051 22.7066C24.4856 22.6928 24.2562 22.5109 24.2595 22.233C24.2576 21.8117 24.106 21.3719 23.7935 21.137C23.553 20.9076 23.2208 20.9114 22.9288 20.9636C22.6289 21.0557 22.385 21.3251 22.2479 21.6436C22.1688 21.8577 21.9434 22.0005 21.7503 21.9091C21.5117 21.8101 21.4722 21.474 21.2949 21.2928C20.8889 20.7648 20.0696 20.8193 19.7249 21.4057C19.6089 21.6006 19.5252 21.8654 19.305 21.9283C19.0888 21.9836 18.8918 21.7933 18.8166 21.5707Z" fill="#48FDBC"/>
<path d="M5.77037 24.9503C6.57903 23.5357 7.44593 22.1506 8.28409 20.752C8.5723 21.0591 8.88094 21.3458 9.17596 21.6461C9.38399 21.8473 9.58067 22.0667 9.83257 22.2149C10.288 22.5138 10.8523 22.6257 11.3901 22.5735C12.0475 22.4865 12.6655 22.2233 13.3146 22.0977C13.335 22.6318 13.3055 23.1688 13.369 23.7014C12.6428 25.0108 12.015 26.3762 11.3198 27.7046C11.1261 28.0677 11.0119 28.4777 11.0202 28.8915C11.021 29.6139 11.0202 30.3371 11.021 31.0595C9.26825 31.0602 7.51553 31.061 5.76281 31.0595C5.7681 29.0231 5.75298 26.9859 5.77037 24.9503Z" fill="#F7F7F7"/>
<path d="M19.3606 26.7489C19.5686 26.6755 19.791 26.6808 20.0081 26.6823C21.0202 26.6876 22.0331 26.6778 23.0453 26.6876C23.5604 26.6876 24.0173 27.1733 23.9788 27.6869C23.9682 28.1718 23.5309 28.5932 23.0498 28.6106C21.9333 28.6174 20.8168 28.6136 19.701 28.6121C19.2327 28.6098 18.8099 28.2217 18.7509 27.7618C18.6888 27.3382 18.9665 26.9002 19.3606 26.7489Z" fill="#F7F7F7"/>
<path d="M2.61312 29.3514C2.75307 29.1162 2.85973 28.856 3.05187 28.6562C3.49213 29.4604 3.94222 30.2599 4.39837 31.0557C3.72663 31.061 3.05489 31.061 2.38391 31.0565C2.15319 31.0648 1.94365 30.9619 1.75 30.8492C2.04653 30.3545 2.31961 29.8477 2.61312 29.3514Z" fill="#F7F7F7"/>
<path d="M2.66913 0.900485C2.90364 0.364911 3.4551 -0.010293 4.04438 0.00105395C9.69438 0.000297493 15.3444 -0.00121584 20.9936 0.00181C21.71 -0.00424169 22.3492 0.575208 22.4362 1.28174C22.4839 2.19857 22.4097 3.12448 22.4725 4.03828C23.1503 5.44454 23.8765 6.82735 24.5528 8.23437C24.7631 8.78886 24.7026 9.40083 24.7177 9.98331C24.7139 10.2481 24.7578 10.5968 24.4976 10.7602C24.2358 10.972 23.819 10.7693 23.7751 10.4508C23.7487 9.95078 23.7812 9.44925 23.7615 8.94847C23.7388 8.61109 23.5618 8.3138 23.4083 8.0218C22.8417 6.8682 22.2547 5.72519 21.6911 4.57083C15.7196 4.5731 9.74885 4.56554 3.77735 4.57461C4.2403 5.43774 4.65257 6.32809 5.10418 7.19726C5.37046 7.77898 5.76382 8.33952 5.76306 9.0052C5.76911 13.7149 5.75928 18.4247 5.7676 23.1344C6.35915 22.0995 6.99987 21.0934 7.6005 20.0639C7.23816 19.6728 7.03921 19.1456 6.98626 18.6198C6.94389 18.2075 7.0672 17.8036 7.18293 17.4133C7.57478 15.886 7.9863 14.3632 8.38268 12.8374C8.44471 12.4403 8.67316 12.0492 9.05669 11.8911C9.52569 11.6453 10.1369 11.8563 10.4168 12.2882C10.7754 12.8934 11.1218 13.5069 11.4819 14.1113C12.2588 14.3027 13.0273 14.5259 13.8035 14.7195C14.4465 14.3693 15.0622 13.9721 15.7075 13.6264C16.2756 13.3738 16.9897 13.7164 17.1697 14.3057C17.315 14.6938 17.1327 15.0894 17.0373 15.4654C16.6417 16.9851 16.24 18.5018 15.8391 20.02C15.6674 20.8476 15.0403 21.5534 14.2445 21.834C14.2642 22.3189 14.274 22.803 14.2869 23.2879C14.4185 23.2857 14.5501 23.2849 14.6817 23.2834C14.7907 22.4679 15.4102 21.7674 16.1931 21.5284C16.3338 20.7871 16.8497 20.107 17.5737 19.8574C18.3067 19.5563 19.2023 19.7507 19.7674 20.2984C19.8363 20.3695 19.924 20.284 19.977 20.2379C20.241 19.9867 20.5889 19.8506 20.9369 19.7606C21.6313 19.6032 22.3742 19.8612 22.8825 20.3461C23.142 20.1229 23.4249 19.9209 23.76 19.8279C23.7782 17.4027 23.757 12.9767 23.7698 10.5515C23.7691 10.255 24.105 9.98717 24.3886 10.1173C24.583 10.1733 24.6738 10.3654 24.7184 10.5462C24.7139 12.9404 24.7192 17.3353 24.7162 19.7295C25.5241 19.8642 26.2132 20.4573 26.4621 21.2379C26.4742 21.3279 26.4863 21.4187 26.4992 21.5095C27.2897 21.7591 27.9311 22.4505 28.0423 23.2834C28.6188 23.232 29.2345 23.4763 29.5265 23.996C30.0462 25.0104 30.5538 26.0324 31.0697 27.0498C31.3216 27.5967 31.7006 28.1232 31.7013 28.7496C31.7028 29.3948 31.7081 30.0409 31.6983 30.6869C31.6605 31.4002 31.013 32.0077 30.2966 31.9971C21.1434 32.0008 11.9895 31.9971 2.83631 31.9986C2.49666 32.0016 2.14945 32.0092 1.8219 31.904C0.939109 31.6657 0.299144 30.7867 0.299901 29.8797C0.298388 28.9463 0.297631 28.0128 0.299901 27.0793C0.277963 26.7866 0.594163 26.5316 0.876323 26.6065C1.0556 26.6549 1.23186 26.807 1.22883 27.0059C1.23867 27.9606 1.22656 28.916 1.23413 29.8714C1.67742 29.0968 2.13432 28.329 2.55945 27.5453C2.58365 25.0762 2.55491 22.6056 2.57382 20.1365C2.58441 19.7885 3.04888 19.5662 3.31515 19.8082C3.53755 19.9678 3.48989 20.2621 3.49368 20.4996C3.4967 22.8492 3.48233 25.1995 3.50124 27.5491C3.93696 28.3411 4.37874 29.1316 4.83186 29.9145C4.83186 23.0966 4.8311 16.2786 4.83186 9.46059C4.83186 9.13456 4.86211 8.78886 4.70099 8.49081C4.29628 7.6935 3.90973 6.88636 3.49368 6.09434C3.48914 9.33275 3.49822 12.5712 3.48914 15.8096C3.51032 16.0985 3.18126 16.3512 2.90818 16.2529C2.68199 16.1976 2.55037 15.9578 2.56853 15.7354C2.56701 12.5205 2.5708 9.30628 2.56701 6.09132C2.14869 6.90224 1.7523 7.72376 1.33852 8.53696C1.19858 8.87585 1.23489 9.2503 1.23262 9.60886C1.2311 14.7021 1.23489 22.4628 1.23035 27.5568C1.2538 27.8132 1.01097 27.9713 0.793869 28.0326C0.669053 27.9804 0.513222 27.9736 0.426986 27.8571C0.262834 27.6967 0.302926 27.4562 0.297631 27.2504C0.301414 22.0558 0.296118 14.1938 0.300657 8.99915C0.293848 8.37507 0.657706 7.84101 0.914903 7.29863C1.45955 6.19873 2.01707 5.10565 2.55642 4.00273C2.58819 3.13431 2.55415 2.26287 2.57155 1.39294C2.57987 1.22501 2.6298 1.06312 2.66913 0.900485ZM3.49292 1.51019C3.49065 2.22127 3.49292 2.93234 3.49292 3.64265C9.49468 3.64417 15.4972 3.64417 21.4997 3.64341C21.4974 2.90889 21.5035 2.17437 21.4974 1.4406C21.5148 1.1418 21.2085 0.898973 20.921 0.936039C15.2967 0.936796 9.67245 0.935282 4.04816 0.936795C3.74104 0.912589 3.46871 1.20912 3.49292 1.51019ZM9.39483 12.7459C9.17772 13.3647 9.06425 14.0122 8.87362 14.6386C8.60357 15.684 8.32973 16.7272 8.04908 17.7696C8.02488 17.8702 8.00218 17.9723 7.97268 18.0721C7.91897 18.3256 7.92578 18.5865 7.96814 18.8415C8.05059 19.0934 8.1739 19.3324 8.36528 19.5192C8.91901 20.0737 9.47577 20.6252 10.0303 21.1789C10.3744 21.5337 10.8956 21.7379 11.3889 21.6389C12.224 21.421 13.0546 21.1835 13.889 20.9633C14.3262 20.8166 14.7158 20.4762 14.8572 20.0283C15.0547 19.4534 15.1545 18.8513 15.3368 18.2718C15.6281 17.1228 15.9435 15.9798 16.237 14.8315C16.2907 14.6885 16.3074 14.4199 16.0744 14.4941C15.4026 14.8587 14.7574 15.274 14.0864 15.6409C13.8837 15.7513 13.6575 15.6469 13.4517 15.6031C12.6453 15.3731 11.8291 15.1825 11.0235 14.9495C10.8563 14.9094 10.7716 14.7475 10.6869 14.6151C10.323 13.9888 9.96444 13.3601 9.59377 12.7383C9.52721 12.7406 9.46064 12.7429 9.39483 12.7459ZM17.5177 20.9603C17.2045 21.2107 17.1236 21.6267 17.1085 22.0065C17.0555 22.3552 16.6637 22.418 16.3754 22.4513C16.0146 22.6018 15.7468 22.912 15.6273 23.2819C16.585 23.2902 17.5427 23.2819 18.4996 23.2857C18.6229 23.2819 18.7485 23.3174 18.8453 23.3969C19.1017 23.5807 19.0662 24.0474 18.7734 24.1806C18.6683 24.2532 18.5359 24.2335 18.4156 24.2396C17.0646 24.2403 15.7135 24.2328 14.3625 24.2433C14.1106 24.2335 13.9933 24.493 13.895 24.6821C13.2815 25.9091 12.6582 27.1315 12.0455 28.36C11.9736 28.5037 11.9539 28.6641 11.9554 28.8237C11.9554 29.5696 11.957 30.3147 11.9554 31.0606C18.0699 31.0636 24.1851 31.0643 30.2996 31.0598C30.5439 31.0787 30.7126 30.8631 30.7716 30.6491C30.7679 30.0893 30.7694 29.5295 30.7709 28.9697C30.7724 28.7466 30.7489 28.5173 30.6574 28.3123C30.0976 27.2109 29.5477 26.1042 28.9887 25.0028C28.8517 24.7366 28.7542 24.4272 28.497 24.2502C25.9212 24.2222 23.3447 24.2479 20.7682 24.2373C20.4475 24.2706 20.1789 23.8946 20.3075 23.6019C20.3658 23.4082 20.5655 23.2842 20.7637 23.2872C22.8772 23.2781 24.9908 23.2955 27.1043 23.2789C26.9508 22.8537 26.6035 22.4581 26.1292 22.4142C25.8773 22.4006 25.6141 22.2213 25.6179 21.9475C25.6156 21.5322 25.4416 21.0987 25.0831 20.8673C24.807 20.6411 24.4257 20.6449 24.0906 20.6963C23.7464 20.7871 23.4665 21.0526 23.3092 21.3665C23.2184 21.5776 22.9597 21.7183 22.738 21.6283C22.4642 21.5307 22.4188 21.1993 22.2153 21.0208C21.7493 20.5004 20.8091 20.5541 20.4134 21.132C20.2803 21.3242 20.1842 21.5851 19.9316 21.6472C19.6834 21.7016 19.4573 21.514 19.371 21.2947C19.0526 20.6184 18.0533 20.4459 17.5177 20.9603ZM5.77214 24.9529C5.75474 26.9885 5.76987 29.0257 5.76457 31.0621C7.51729 31.0636 9.27001 31.0628 11.0227 31.0621C11.022 30.3397 11.0227 29.6165 11.022 28.8941C11.0136 28.4803 11.1279 28.0703 11.3215 27.7072C12.0167 26.3788 12.6446 25.0134 13.3708 23.704C13.3072 23.1714 13.3367 22.6344 13.3163 22.1003C12.6673 22.2259 12.0492 22.4891 11.3919 22.5761C10.854 22.6283 10.2897 22.5163 9.83433 22.2175C9.58243 22.0693 9.38575 21.8499 9.17772 21.6487C8.8827 21.3484 8.57407 21.0617 8.28585 20.7545C7.4477 22.1532 6.58079 23.5383 5.77214 24.9529ZM2.61391 29.3547C2.32041 29.851 2.04732 30.3578 1.75079 30.8525C1.94445 30.9653 2.15399 31.0681 2.38471 31.0598C3.05569 31.0643 3.72742 31.0644 4.39916 31.0591C3.94301 30.2633 3.49292 29.4637 3.05266 28.6596C2.86052 28.8593 2.75386 29.1195 2.61391 29.3547Z" fill="black"/>
<path d="M18.4065 8.82559C18.5373 8.70455 18.7219 8.72498 18.8861 8.72271C19.5419 8.72725 20.1985 8.71893 20.8544 8.72574C21.1524 8.71968 21.4232 9.06085 21.2969 9.34603C21.2364 9.53969 21.0465 9.63651 20.8619 9.68039C20.1758 9.67661 19.489 9.68039 18.8029 9.67887C18.5873 9.68795 18.3573 9.59642 18.2574 9.3952C18.1848 9.19776 18.2219 8.94889 18.4065 8.82559Z" fill="black"/>
<path d="M18.5235 10.504C19.2398 10.4223 19.9751 10.4934 20.699 10.4677C20.9449 10.4298 21.2119 10.5531 21.2982 10.796C21.4275 11.1107 21.1022 11.4639 20.7792 11.4246C20.0492 11.4132 19.3155 11.448 18.5878 11.4072C18.1437 11.3278 18.0938 10.6439 18.5235 10.504Z" fill="black"/>
<path d="M13.7385 8.82559C13.8694 8.70455 14.0539 8.72498 14.2181 8.72271C14.874 8.72725 15.5306 8.71893 16.1864 8.72574C16.4845 8.71968 16.7553 9.06085 16.6289 9.34603C16.5684 9.53969 16.3786 9.63651 16.194 9.68039C15.5079 9.67661 14.821 9.68039 14.1349 9.67887C13.9193 9.68795 13.6893 9.59642 13.5895 9.3952C13.5169 9.19776 13.5539 8.94889 13.7385 8.82559Z" fill="black"/>
<path d="M10.0703 17.4123C10.1248 17.0817 10.1225 16.6369 10.4758 16.4743C10.8343 16.3207 11.2368 16.7353 11.0862 17.0908C11.0212 17.3684 10.9183 17.7875 10.5522 17.7603C10.3177 17.7951 10.1634 17.5961 10.0703 17.4123Z" fill="black"/>
<path d="M12.9495 17.1455C13.2634 17.0003 13.6583 17.2711 13.6174 17.6176C13.5524 17.8816 13.5244 18.2137 13.2717 18.3733C12.9979 18.5435 12.5735 18.3226 12.603 17.9875C12.6189 17.6872 12.6545 17.3074 12.9495 17.1455Z" fill="black"/>
<path d="M10.9662 18.6348C11.1538 18.4934 11.4042 18.5819 11.6077 18.6371C11.7953 18.6817 12.001 18.7861 12.0457 18.9926C12.1364 19.2657 11.9163 19.6227 11.6084 19.5796C11.3875 19.5713 11.1598 19.5274 10.9662 19.4177C10.6976 19.2438 10.6999 18.8096 10.9662 18.6348Z" fill="black"/>
<path d="M19.3629 25.7725C20.5597 25.7128 21.7617 25.7627 22.9607 25.7461C23.64 25.7173 24.3125 26.1008 24.6529 26.6863C24.9063 27.1455 25.0016 27.7083 24.8223 28.2106C24.5931 29.0412 23.7368 29.5995 22.8888 29.5548C21.8525 29.5533 20.8154 29.5548 19.779 29.5541C19.1799 29.5639 18.574 29.2908 18.2116 28.809C17.6768 28.1403 17.6919 27.0933 18.2464 26.4405C18.524 26.0963 18.9333 25.8663 19.3629 25.7725ZM19.3614 26.7529C18.9673 26.9042 18.6897 27.3422 18.7517 27.7658C18.8107 28.2257 19.2336 28.6138 19.7018 28.6161C20.8176 28.6176 21.9342 28.6214 23.0507 28.6146C23.5318 28.5972 23.969 28.1758 23.9796 27.6909C24.0182 27.1773 23.5613 26.6916 23.0462 26.6916C22.034 26.6818 21.0211 26.6916 20.009 26.6863C19.7919 26.6848 19.5695 26.6795 19.3614 26.7529Z" fill="black"/>
</svg>
