<svg width="48" height="49" viewBox="0 0 48 49" fill="none" xmlns="http://www.w3.org/2000/svg">
<path d="M37.7496 4.97863C37.9292 4.79076 38.1112 4.60407 38.2967 4.4209C39.4921 5.90153 40.2412 7.76847 40.2611 9.68121C40.3398 12.0425 39.3512 14.412 37.6345 16.0335C36.4721 17.1666 34.9644 17.9204 33.3793 18.2456C31.712 18.531 29.9495 18.403 28.3984 17.6973C28.5487 17.5036 28.6168 17.2276 28.8211 17.0832C28.975 17.1008 29.1206 17.1548 29.2685 17.2018C31.3104 17.9357 33.6517 17.6961 35.5327 16.6312C38.3778 15.0942 40.004 11.6256 39.3441 8.45654C39.1269 7.18139 38.5398 5.99429 37.7496 4.97863Z" fill="#F7F7F7"/>
<path d="M18.3214 4.95801C19.6529 6.38346 20.543 8.20813 20.813 10.142C19.5707 11.0449 18.7183 12.4927 18.615 14.0344C18.4506 15.6301 19.0494 17.2775 20.2118 18.3859C17.8752 18.3929 15.5374 18.3859 13.2008 18.3894C12.5456 18.3953 11.8881 18.137 11.449 17.6438C10.6717 16.8207 10.6517 15.4105 11.3961 14.5604C11.7589 14.1295 12.2803 13.8594 12.8321 13.762C14.2329 13.7455 15.6349 13.7585 17.0369 13.7538C17.0369 13.2371 17.0369 12.7193 17.0369 12.2015C16.0682 12.1909 15.0983 12.2226 14.1296 12.1874C13.4932 12.1017 13.0916 11.443 13.1586 10.8289C13.2877 10.3616 13.6423 9.99522 14.1179 9.88368C15.6091 9.88602 17.0991 9.88368 18.5891 9.88485C18.5903 9.36587 18.5903 8.84805 18.5891 8.33024C18.1418 8.33142 17.6956 8.33024 17.2482 8.33142C17.9551 7.35567 18.3261 6.16154 18.3214 4.95801Z" fill="#F7F7F7"/>
<path d="M33.6211 9.07737C34.6473 8.0981 35.6336 7.07892 36.6376 6.07617C37.3045 6.96033 37.7213 8.00652 37.8998 9.09615C36.4732 9.08676 35.0465 9.12081 33.6211 9.07737Z" fill="#F7F7F7"/>
<path d="M33.6055 10.6677C35.0368 10.6301 36.4693 10.6536 37.9006 10.6548C37.7151 11.7456 37.3112 12.8035 36.6254 13.6795C35.6274 12.6673 34.6282 11.6552 33.6055 10.6677Z" fill="#F7F7F7"/>
<path d="M24.6427 10.6953C25.629 10.9184 26.5683 11.4397 27.1484 12.2875C27.8247 13.2245 28.0549 14.4844 27.7155 15.594C27.4067 16.794 26.4474 17.7791 25.2885 18.1913C24.5323 18.4414 23.7092 18.466 22.9401 18.2605C21.5769 17.8848 20.4709 16.7024 20.2149 15.3075C19.7558 13.3548 21.1084 11.219 23.0646 10.7857C23.1163 11.0675 23.1797 11.347 23.2501 11.6241C23.7398 11.5067 24.2259 11.3705 24.7131 11.239C24.6897 11.057 24.6662 10.8761 24.6427 10.6953Z" fill="#F7F7F7"/>
<path d="M29.3125 13.4056C29.8667 12.8596 30.4151 12.3077 30.9634 11.7559C30.9704 13.1731 30.9669 14.5903 30.9657 16.0076C30.3904 15.9829 29.8503 15.7727 29.3207 15.5684C29.4323 14.851 29.4334 14.1218 29.3125 13.4056Z" fill="#F7F7F7"/>
<path d="M32.5214 11.7549C33.5125 12.7776 34.5751 13.7369 35.5179 14.803C34.6244 15.4136 33.6111 15.9173 32.5179 16.0042C32.5179 14.5882 32.5109 13.1709 32.5214 11.7549Z" fill="#F7F7F7"/>
<path d="M5.77107 21.4781C6.08126 21.4347 6.39482 21.4347 6.70725 21.4327C17.5705 21.4327 28.4326 21.4327 39.2958 21.4327C40.4208 21.4277 41.666 21.6175 42.4876 22.3696C43.3046 23.1036 43.5541 24.2707 43.1372 25.2329C42.9259 25.6862 42.7404 26.1951 42.283 26.5C41.6649 26.8867 40.74 26.8281 40.2151 26.3314C39.6172 25.8569 39.152 25.2147 38.3933 24.929C37.7595 24.6756 36.993 24.7271 36.3996 25.0461C35.7467 25.35 35.4151 25.975 34.8936 26.4131C34.2665 26.9129 33.1741 26.8543 32.6515 26.2536C32.0424 25.5883 31.6187 24.7231 30.7028 24.3424C29.8633 24.0173 28.8147 24.0517 28.0572 24.5373C27.3728 24.9492 26.7266 25.4116 26.0376 25.8175C25.578 26.1032 24.9857 26.1537 24.4485 26.0537C23.7393 25.8831 23.2774 25.3056 22.5885 25.0926C21.2129 24.508 19.5069 24.7241 18.3122 25.5519C17.6357 25.9942 17.2187 26.6645 16.6635 27.2128C16.3915 27.4884 15.8734 27.5025 15.5644 27.2683C15.2834 27.0704 15.1699 26.7524 14.9833 26.4909C14.6664 26.0305 14.4282 25.5196 14.0056 25.1259C13.1717 24.3232 11.8444 23.9053 10.6509 24.2092C10.1631 24.3273 9.77201 24.6352 9.45059 24.9724C8.69536 25.7539 7.50744 26.183 6.35998 26.0759C5.43392 25.9982 4.59664 25.553 3.93693 24.9835C3.502 24.4878 3.2289 23.8336 3.37613 23.1985C3.49638 22.5958 3.94368 22.0445 4.56967 21.7921C4.95178 21.6377 5.35974 21.5407 5.77107 21.4781Z" fill="#48FDBC"/>
<path d="M10.8076 24.9048C11.3431 24.3565 12.2131 24.6289 12.7755 24.9893C13.783 25.7725 13.9556 27.2238 14.9771 27.9988C15.6535 28.4731 16.5705 28.6093 17.336 28.2759C18.4867 27.8414 18.8472 26.4935 19.8417 25.8512C20.6214 25.3146 21.6735 25.2207 22.5435 25.5847C22.9345 25.7514 23.2656 26.0238 23.605 26.2751C24.7334 27.0712 26.3067 27.1369 27.5009 26.4418C28.3122 25.9357 29.052 25.3228 29.8516 24.8015C30.3213 24.5091 30.9741 24.5854 31.3639 24.9764C32.0168 25.6974 32.4066 26.6778 33.2755 27.1862C34.2348 27.8238 35.5593 27.8532 36.5514 27.2731C37.2325 26.9197 37.654 26.2586 38.146 25.6985C38.2763 25.533 38.4794 25.459 38.6614 25.3639C38.8974 25.3757 39.1511 25.398 39.3389 25.5612C40.1139 26.2234 40.7139 27.1428 41.7049 27.5115C42.4881 27.7921 43.3652 27.7381 44.1284 27.4187C44.1296 29.059 44.1296 30.6994 44.1296 32.3397C43.3123 32.3397 42.4951 32.3385 41.6779 32.3409C42.2521 30.9107 41.0344 29.1859 39.5021 29.2352C37.9581 29.153 36.7041 30.9072 37.3076 32.3409C36.1839 32.3397 35.0591 32.3385 33.9354 32.3409C34.5084 30.9072 33.2872 29.1753 31.7491 29.2352C30.2074 29.1647 28.9674 30.9084 29.5604 32.3409C28.4367 32.3385 27.313 32.3385 26.1893 32.3409C26.3713 31.7984 26.3854 31.189 26.1388 30.6641C25.803 29.8176 24.9177 29.2152 24.0054 29.2352C23.0848 29.2117 22.196 29.8211 21.8578 30.6724C21.6147 31.1949 21.6288 31.8019 21.8132 32.3409C20.6883 32.3385 19.5646 32.3397 18.4409 32.3409C18.9881 30.9941 17.9443 29.3479 16.5012 29.2446C15.32 29.0896 14.1587 29.9984 13.9626 31.1608C13.891 31.5553 13.9474 31.9604 14.0648 32.3409C12.9411 32.3385 11.8174 32.3397 10.6926 32.3409C11.0072 31.5565 10.7947 30.6336 10.2487 30.0066C9.91408 29.632 9.45733 29.3972 8.98178 29.2563C8.37356 29.1894 7.72189 29.2587 7.21817 29.6367C6.3528 30.2027 5.95828 31.3675 6.32228 32.3409C5.50622 32.3385 4.689 32.3397 3.87177 32.3397C3.87294 30.2661 3.86825 28.1937 3.87412 26.1213C5.13166 26.8739 6.70975 27.1275 8.11876 26.6802C9.1767 26.3995 10.1184 25.749 10.8076 24.9048Z" fill="#F7F7F7"/>
<path d="M8.27963 30.8287C8.73521 30.6514 9.29294 31.0283 9.29411 31.518C9.35987 32.125 8.55673 32.5806 8.07884 32.1837C7.54224 31.8808 7.67492 30.9602 8.27963 30.8287Z" fill="#48FDBC"/>
<path d="M16.026 30.8286C16.4781 30.6572 17.0393 31.0282 17.0346 31.5179C17.0828 31.957 16.6671 32.3316 16.2468 32.3386C15.8405 32.3116 15.4342 31.9535 15.4847 31.5214C15.48 31.2032 15.716 30.9026 16.026 30.8286Z" fill="#48FDBC"/>
<path d="M23.5887 30.8986C24.0595 30.5945 24.7899 30.9421 24.777 31.5209C24.8415 32.0951 24.0995 32.5577 23.6204 32.2207C23.1073 31.9777 23.0944 31.1687 23.5887 30.8986Z" fill="#48FDBC"/>
<path d="M31.3284 30.9016C31.7957 30.5928 32.5295 30.9391 32.519 31.518C32.5918 32.111 31.8016 32.5736 31.326 32.1967C30.8434 31.936 30.8552 31.1669 31.3284 30.9016Z" fill="#48FDBC"/>
<path d="M39.0741 30.8992C39.5121 30.6232 40.192 30.8909 40.253 31.424C40.3575 31.8819 39.9501 32.3082 39.5074 32.3387C39.0835 32.3352 38.6667 31.9606 38.7102 31.5191C38.7078 31.2632 38.8675 31.0354 39.0741 30.8992Z" fill="#48FDBC"/>
<path d="M2.19195 33.8903C5.73914 33.8457 9.29102 33.8845 12.8406 33.8716C23.7663 33.8727 34.6931 33.868 45.6188 33.8739C46.1284 33.834 46.5864 34.3741 46.4102 34.8673C46.3328 35.2841 45.8807 35.4673 45.4979 35.4262C31.0861 35.4179 16.6742 35.4332 2.2624 35.4179C1.38529 35.4121 1.33011 33.9937 2.19195 33.8903Z" fill="#F7F7F7"/>
<path d="M20.9526 36.9803C22.984 36.9744 25.0165 36.9732 27.0478 36.9815C26.3597 38.3282 26.1613 39.9028 26.4889 41.3799C26.7554 42.6633 27.5022 43.7811 28.3969 44.7146C25.4673 44.7204 22.5378 44.7181 19.6094 44.7158C20.4747 43.7987 21.2074 42.7185 21.4892 41.4727C21.8403 39.9697 21.6513 38.3576 20.9526 36.9803Z" fill="#F7F7F7"/>
<path d="M10.9095 46.9505C10.8226 46.7004 10.8284 46.2613 11.1936 46.2777C19.6923 46.2648 28.191 46.2754 36.6897 46.273C36.9527 46.2155 37.1089 46.4339 37.1781 46.6546C37.15 46.7262 37.0948 46.8695 37.0666 46.9423C36.7179 47.0844 36.3362 47.028 35.9711 47.0374C27.7894 47.0362 19.6089 47.035 11.4273 47.0374C11.25 47.0421 11.0797 46.9928 10.9095 46.9505Z" fill="#F7F7F7"/>
<path d="M21.6727 0.591018C23.2262 0.589844 24.7784 0.589844 26.3319 0.589844C26.3319 1.10766 26.3319 1.62547 26.3319 2.14328C25.7354 2.1421 25.1377 2.14445 24.5412 2.14093C23.7639 4.36717 23.6183 6.81298 24.2172 9.10027C26.0254 9.20008 27.7726 10.2028 28.6732 11.7903C29.0078 11.5766 29.2497 11.2537 29.5374 10.986C32.1417 8.38402 34.746 5.78322 37.3492 3.18008C37.6263 2.90767 37.9045 2.54015 38.3308 2.52841C38.6865 2.5425 38.9366 2.8243 39.1574 3.07088C40.3445 4.35425 41.1875 5.95465 41.5597 7.66308C42.5566 11.7046 40.6474 16.2463 37.0814 18.3845C38.4141 18.3997 39.748 18.3727 41.0819 18.3986C41.865 18.4103 42.6271 18.6099 43.3785 18.8166C44.7488 19.3367 45.8572 20.5074 46.2647 21.9188C46.5676 23.0624 46.4819 24.327 45.9277 25.3826C45.8291 25.6127 45.6811 25.837 45.6858 26.0953C45.6799 28.1712 45.687 30.2484 45.6823 32.3243C46.4384 32.3548 47.1981 32.7071 47.6079 33.3623C47.9661 33.8472 48.0435 34.4707 47.9872 35.0578C47.7758 36.1028 46.8154 36.9893 45.7257 36.9752C40.1179 36.9764 34.51 36.9776 28.901 36.974C28.0544 38.0965 27.6974 39.5795 28.0027 40.9568C28.1694 41.8703 28.6473 42.7075 29.2861 43.3745C29.7088 43.8124 30.1174 44.2657 30.5237 44.7201C32.6196 44.7154 34.7155 44.7166 36.8102 44.7189C37.9327 44.6966 38.8615 45.8109 38.7018 46.9123C38.6584 47.0637 38.6208 47.2175 38.5867 47.3737C38.285 48.0653 37.584 48.6066 36.809 48.5878C29.9178 48.5878 23.0277 48.5878 16.1365 48.5878C14.3705 48.5772 12.6057 48.6078 10.841 48.5714C10.1388 48.3894 9.50122 47.8493 9.35445 47.1166C9.23586 46.7291 9.32392 46.3252 9.40729 45.9412C9.72196 45.2532 10.4171 44.6978 11.1979 44.7189C13.2926 44.7166 15.3874 44.7154 17.4833 44.7201C18.1901 43.8606 19.1036 43.1526 19.5991 42.1345C20.4293 40.5013 20.2144 38.4265 19.1048 36.974C13.4946 36.9776 7.88555 36.9764 2.27652 36.9752C1.55792 36.987 0.874549 36.5866 0.451846 36.0194C-0.166945 35.228 -0.144635 34.0175 0.484723 33.2378C0.907426 32.6554 1.61663 32.3572 2.32113 32.3255C2.31291 29.8139 2.33522 27.3012 2.31057 24.7896C2.0499 24.2671 1.70352 23.7704 1.63542 23.1728C1.35479 21.8518 1.8362 20.4076 2.86478 19.5305C3.69844 18.7825 4.84561 18.5336 5.92703 18.4138C7.30081 18.3563 8.67812 18.4068 10.0543 18.3845C9.49887 17.5661 9.1795 16.5645 9.33683 15.5723C9.47656 14.1011 10.6038 12.8412 11.9905 12.395C11.6347 11.802 11.5208 11.0764 11.6817 10.406C11.9118 9.47836 12.6539 8.69753 13.5721 8.43216C14.0887 8.27013 14.6371 8.34763 15.169 8.33236C15.7103 7.80398 16.2398 7.23098 16.504 6.50769C16.8891 5.45798 16.8375 4.25914 16.3514 3.2517C16.1071 2.84074 16.3854 2.26657 16.841 2.16676C17.232 2.05287 17.5807 2.3241 17.8754 2.54132C20.1369 4.14995 21.7808 6.64977 22.2387 9.39616C22.3843 9.35859 22.531 9.32102 22.6778 9.28344C22.1224 6.93626 22.2011 4.44936 22.9044 2.14445C22.4935 2.14328 22.0837 2.14328 21.6727 2.14328C21.6727 1.62547 21.6727 1.10766 21.6727 0.591018ZM37.7519 4.97774C38.5421 5.9934 39.1292 7.18049 39.3464 8.45565C40.0063 11.6248 38.3801 15.0933 35.535 16.6303C33.654 17.6952 31.3127 17.9348 29.2708 17.2009C29.1229 17.1539 28.9773 17.0999 28.8235 17.0823C28.6192 17.2267 28.551 17.5027 28.4008 17.6964C29.9518 18.4021 31.7143 18.5301 33.3816 18.2448C34.9667 17.9195 36.4744 17.1657 37.6368 16.0326C39.3535 14.4111 40.3421 12.0416 40.2635 9.68031C40.2435 7.76758 39.4944 5.90064 38.2991 4.42001C38.1135 4.60318 37.9315 4.78987 37.7519 4.97774ZM18.3228 4.95778C18.3275 6.16131 17.9565 7.35545 17.2496 8.33119C17.697 8.33001 18.1432 8.33119 18.5905 8.33001C18.5917 8.84782 18.5917 9.36564 18.5905 9.88462C17.1005 9.88345 15.6105 9.88579 14.1193 9.88345C13.6437 9.99499 13.2891 10.3613 13.16 10.8287C13.093 11.4428 13.4946 12.1015 14.131 12.1872C15.0997 12.2224 16.0696 12.1907 17.0383 12.2013C17.0383 12.7191 17.0383 13.2369 17.0383 13.7535C15.6363 13.7582 14.2343 13.7453 12.8335 13.7617C12.2817 13.8592 11.7603 14.1293 11.3975 14.5602C10.6531 15.4103 10.673 16.8205 11.4504 17.6436C11.8895 18.1367 12.547 18.395 13.2022 18.3892C15.5388 18.3857 17.8766 18.3927 20.2132 18.3857C19.0508 17.2772 18.452 15.6299 18.6163 14.0342C18.7197 12.4925 19.5721 11.0447 20.8144 10.1418C20.5443 8.2079 19.6543 6.38323 18.3228 4.95778ZM33.6235 9.07561C35.0489 9.11906 36.4756 9.08501 37.9022 9.0944C37.7237 8.00476 37.3069 6.95858 36.6399 6.07442C35.636 7.07717 34.6497 8.09635 33.6235 9.07561ZM33.6082 10.6666C34.6309 11.6541 35.6302 12.6662 36.6282 13.6784C37.3139 12.8024 37.7178 11.7445 37.9034 10.6537C36.472 10.6525 35.0395 10.629 33.6082 10.6666ZM24.6434 10.6948C24.6669 10.8756 24.6904 11.0564 24.7138 11.2384C24.2266 11.37 23.7405 11.5062 23.2508 11.6236C23.1804 11.3465 23.117 11.067 23.0653 10.7852C21.1091 11.2185 19.7565 13.3543 20.2156 15.307C20.4715 16.7019 21.5776 17.8843 22.9408 18.26C23.7099 18.4655 24.533 18.4408 25.2892 18.1907C26.4481 17.7786 27.4074 16.7935 27.7162 15.5935C28.0555 14.4839 27.8254 13.224 27.1491 12.287C26.569 11.4392 25.6297 10.9179 24.6434 10.6948ZM29.3119 13.4048C29.4329 14.121 29.4317 14.8502 29.3201 15.5676C29.8497 15.7719 30.3898 15.9821 30.9652 16.0068C30.9663 14.5895 30.9699 13.1723 30.9628 11.7551C30.4145 12.3069 29.8661 12.8588 29.3119 13.4048ZM32.5245 11.7539C32.5139 13.17 32.5209 14.5872 32.5209 16.0033C33.6141 15.9164 34.6274 15.4126 35.521 14.8021C34.5781 13.7359 33.5155 12.7766 32.5245 11.7539ZM5.6464 19.9955C5.21665 20.0683 4.79043 20.181 4.39121 20.3606C3.73719 20.6542 3.26987 21.2953 3.14423 21.9962C2.99041 22.7348 3.27574 23.4957 3.73014 24.0722C4.41939 24.7344 5.29415 25.2522 6.26167 25.3427C7.4605 25.4671 8.70161 24.9681 9.49065 24.0593C9.82647 23.6671 10.2351 23.309 10.7447 23.1716C11.9916 22.8182 13.3783 23.3043 14.2496 24.2378C14.6911 24.6957 14.94 25.2898 15.2711 25.8252C15.466 26.1293 15.5846 26.4992 15.8782 26.7294C16.2011 27.0018 16.7424 26.9853 17.0265 26.6648C17.6066 26.0272 18.0422 25.2475 18.749 24.7333C19.9972 23.7704 21.7796 23.5192 23.2168 24.199C23.9365 24.4468 24.4191 25.1184 25.16 25.3168C25.7213 25.4331 26.3401 25.3743 26.8203 25.0421C27.5401 24.57 28.2152 24.0323 28.9303 23.5532C29.7217 22.9884 30.8172 22.9485 31.6943 23.3266C32.6513 23.7693 33.0939 24.7755 33.7303 25.5493C34.2763 26.2479 35.4176 26.316 36.0728 25.7348C36.6176 25.2252 36.964 24.4984 37.6462 24.145C38.2662 23.7739 39.067 23.7141 39.7292 24.0088C40.5218 24.3411 41.0079 25.0879 41.6325 25.6397C42.1809 26.2174 43.1472 26.2855 43.793 25.8358C44.2709 25.4812 44.4647 24.8894 44.6854 24.3622C45.121 23.2432 44.8604 21.8859 44.0067 21.0322C43.1484 20.1575 41.8474 19.9367 40.6721 19.9426C29.3225 19.9426 17.9741 19.9426 6.62449 19.9426C6.29807 19.945 5.97047 19.945 5.6464 19.9955ZM10.8093 24.9035C10.12 25.7477 9.17832 26.3982 8.12039 26.6789C6.71138 27.1262 5.13328 26.8726 3.87574 26.12C3.86987 28.1924 3.87457 30.2648 3.87339 32.3384C4.69062 32.3384 5.50785 32.3372 6.3239 32.3396C5.95991 31.3662 6.35443 30.2014 7.2198 29.6354C7.72352 29.2574 8.37518 29.1881 8.98341 29.255C9.45895 29.3959 9.9157 29.6307 10.2503 30.0053C10.7963 30.6323 11.0089 31.5552 10.6942 32.3396C11.819 32.3384 12.9427 32.3372 14.0664 32.3396C13.949 31.9591 13.8926 31.554 13.9643 31.1595C14.1603 29.9971 15.3216 29.0883 16.5028 29.2433C17.9459 29.3466 18.9897 30.9928 18.4426 32.3396C19.5663 32.3384 20.6899 32.3372 21.8148 32.3396C21.6305 31.8006 21.6164 31.1936 21.8594 30.6711C22.1976 29.8198 23.0864 29.2104 24.007 29.2339C24.9193 29.2139 25.8047 29.8163 26.1405 30.6628C26.387 31.1877 26.373 31.7971 26.191 32.3396C27.3146 32.3372 28.4383 32.3372 29.562 32.3396C28.9691 30.9071 30.209 29.1634 31.7507 29.2339C33.2888 29.174 34.51 30.9059 33.937 32.3396C35.0607 32.3372 36.1855 32.3384 37.3092 32.3396C36.7057 30.9059 37.9597 29.1517 39.5038 29.2339C41.0361 29.1846 42.2537 30.9094 41.6795 32.3396C42.4967 32.3372 43.314 32.3384 44.1312 32.3384C44.1312 30.6981 44.1312 29.0577 44.13 27.4174C43.3668 27.7368 42.4897 27.7908 41.7065 27.5102C40.7155 27.1415 40.1155 26.2221 39.3406 25.5599C39.1527 25.3967 38.8991 25.3744 38.6631 25.3626C38.4811 25.4577 38.2779 25.5317 38.1476 25.6973C37.6556 26.2573 37.2341 26.9184 36.5531 27.2718C35.5609 27.8519 34.2364 27.8225 33.2771 27.1849C32.4082 26.6765 32.0184 25.6961 31.3655 24.9751C30.9757 24.5841 30.3229 24.5078 29.8532 24.8002C29.0536 25.3215 28.3139 25.9344 27.5025 26.4405C26.3084 27.1356 24.735 27.0699 23.6066 26.2738C23.2673 26.0225 22.9361 25.7501 22.5451 25.5834C21.6751 25.2194 20.623 25.3133 19.8434 25.8499C18.8488 26.4922 18.4884 27.8401 17.3377 28.2746C16.5721 28.608 15.6551 28.4718 14.9787 27.9975C13.9572 27.2225 13.7846 25.7712 12.7772 24.988C12.2147 24.6276 11.3447 24.3552 10.8093 24.9035ZM8.28008 30.8284C7.67538 30.9599 7.54269 31.8805 8.07929 32.1834C8.55718 32.5803 9.36032 32.1247 9.29456 31.5176C9.29339 31.028 8.73566 30.6511 8.28008 30.8284ZM16.0273 30.8272C15.7173 30.9012 15.4813 31.2018 15.486 31.52C15.4355 31.9521 15.8418 32.3102 16.248 32.3372C16.6684 32.3302 17.084 31.9556 17.0359 31.5165C17.0406 31.0268 16.4793 30.6558 16.0273 30.8272ZM23.589 30.8977C23.0947 31.1677 23.1076 31.9767 23.6207 32.2198C24.0997 32.5568 24.8418 32.0942 24.7772 31.52C24.7902 30.9411 24.0598 30.5936 23.589 30.8977ZM31.328 30.9012C30.8548 31.1666 30.843 31.9356 31.3256 32.1963C31.8012 32.5732 32.5914 32.1106 32.5186 31.5176C32.5292 30.9388 31.7953 30.5924 31.328 30.9012ZM39.074 30.8989C38.8674 31.0351 38.7077 31.2628 38.71 31.5188C38.6666 31.9603 39.0834 32.3349 39.5073 32.3384C39.9499 32.3079 40.3574 31.8816 40.2529 31.4237C40.1918 30.8906 39.512 30.6229 39.074 30.8989ZM2.19315 33.8895C1.3313 33.9928 1.38649 35.4112 2.2636 35.4171C16.6754 35.4323 31.0873 35.4171 45.4991 35.4253C45.8819 35.4664 46.3339 35.2832 46.4114 34.8664C46.5876 34.3732 46.1296 33.8331 45.62 33.873C34.6943 33.8672 23.7675 33.8719 12.8417 33.8707C9.29222 33.8836 5.74033 33.8449 2.19315 33.8895ZM20.9553 36.9799C21.6539 38.3572 21.843 39.9694 21.4919 41.4723C21.2101 42.7181 20.4774 43.7983 19.612 44.7154C22.5404 44.7177 25.47 44.7201 28.3996 44.7142C27.5049 43.7807 26.7581 42.6629 26.4915 41.3795C26.164 39.9024 26.3624 38.3279 27.0505 36.9811C25.0191 36.9729 22.9866 36.974 20.9553 36.9799ZM10.9114 46.9487C11.0817 46.9909 11.2519 47.0402 11.4292 47.0356C19.6109 47.0332 27.7914 47.0344 35.973 47.0356C36.3382 47.0262 36.7198 47.0825 37.0685 46.9404C37.0967 46.8676 37.1519 46.7244 37.1801 46.6528C37.1108 46.432 36.9546 46.2136 36.6916 46.2712C28.1929 46.2735 19.6942 46.2629 11.1956 46.2759C10.8304 46.2594 10.8245 46.6986 10.9114 46.9487Z" fill="black"/>
</svg>
