<svg width="34" height="49" viewBox="0 0 34 49" fill="none" xmlns="http://www.w3.org/2000/svg">
<path d="M4.44922 6.28943C4.76791 4.93938 5.11923 3.59559 5.44796 2.24805C7.60102 2.40614 9.73778 2.77628 11.8933 2.90927L11.9724 2.95695C17.3676 3.51906 22.7603 4.12884 28.153 4.70851C28.2923 4.72357 28.4315 4.73612 28.5721 4.74866C28.7741 5.26058 29.0012 5.76371 29.1542 6.2932C20.9197 6.2932 12.6838 6.30198 4.44922 6.28943Z" fill="white"/>
<path d="M2.14844 7.89168C12.0518 7.88791 21.9551 7.88791 31.8597 7.89042C31.8585 9.02341 31.8585 10.1564 31.8597 11.2894C21.9564 11.2944 12.0518 11.2944 2.14844 11.2894C2.14969 10.1564 2.14969 9.02341 2.14844 7.89168Z" fill="white"/>
<path d="M3.95312 12.8928C12.6632 12.9003 21.3734 12.8765 30.0835 12.9053C29.8376 15.0935 29.7033 17.293 29.5101 19.485C21.1701 19.4862 12.8301 19.4875 4.49139 19.485C4.31448 17.288 4.12 15.091 3.95312 12.8928Z" fill="white"/>
<path d="M3.33594 22.2399C11.6697 22.2342 20.0034 22.2365 28.3359 22.2388C28.0003 26.5686 27.7157 30.8996 27.3907 35.2295C19.6903 35.2432 11.9911 35.2306 4.29182 35.2363C3.94908 30.9053 3.68698 26.5709 3.33594 22.2399ZM15.3295 23.8865C13.3146 24.7001 11.7574 26.4184 11.066 28.395C10.6331 29.6934 10.607 31.1853 11.3578 32.3824C11.8155 33.1289 12.5971 33.6591 13.4605 33.8901C14.7615 34.1598 16.1218 33.8435 17.2401 33.1789C19.1092 32.0751 20.4896 30.1861 20.8229 28.0935C20.9842 27.2138 20.8644 26.2955 20.5098 25.4717C20.1018 24.5954 19.2906 23.8785 18.3063 23.6544C17.3243 23.3528 16.2736 23.5554 15.3295 23.8865Z" fill="#48FDBC"/>
<path d="M17.5258 24.205C17.9975 24.0444 18.5044 24.057 18.995 24.0934C17.7077 24.9466 16.6989 26.1737 16.0264 27.5563C15.4116 28.8098 14.443 29.8688 13.3087 30.673C13.0415 29.5337 13.4078 28.3619 13.9059 27.3405C14.6788 25.9052 15.9499 24.6931 17.5258 24.205Z" fill="#F7F7F7"/>
<path d="M17.4631 28.2229C18.1193 26.9494 19.0892 25.726 20.4405 25.1602C20.8269 25.8829 20.7767 26.7335 20.6889 27.5228C20.2523 29.5152 18.8633 31.3057 16.9888 32.1375C16.0904 32.5064 14.9875 32.6181 14.1406 32.0572C15.5145 31.0497 16.7379 29.78 17.4631 28.2229Z" fill="#F7F7F7"/>
<path d="M5.98828 37.0071C13.3308 37.0084 20.672 37.0096 28.0145 37.0059C27.8477 39.923 27.5026 42.8277 27.3144 45.7448C27.2303 46.1401 27.2416 46.5466 27.2216 46.9494C26.7874 46.9707 26.3508 46.9243 25.9217 46.9995C24.8314 46.928 23.7385 47.0598 22.6482 46.9719C22.0647 47.0686 21.4801 46.9092 20.8979 46.9983C20.1463 47.0146 19.3897 46.9506 18.6444 46.9983C18.5453 46.9983 18.3471 46.997 18.2479 46.997C17.7084 46.9255 17.1626 47.0648 16.6206 46.9958C16.2028 46.9167 15.7825 47.0711 15.3684 46.9657C14.9882 47.0761 14.5993 46.9105 14.2153 46.9732C13.8452 47.0297 13.4738 46.9845 13.1037 46.9606C12.5303 47.0347 11.9406 47.0347 11.3672 46.9632C10.6482 46.9958 9.93055 46.9744 9.21035 46.9983C8.71349 46.8803 8.21161 47.0723 7.71098 46.9882C7.39856 46.918 7.06732 47.0836 6.77121 46.923C6.76619 46.5303 6.77247 46.1351 6.68966 45.7499C6.5554 43.3471 6.23922 40.9594 6.10873 38.5567C6.01588 38.0448 6.03471 37.5228 5.98828 37.0071Z" fill="white"/>
<path d="M4.03124 1.36701C4.10024 1.05585 4.27214 0.728372 4.58958 0.615449C4.87941 0.558988 5.17678 0.61043 5.46787 0.63176C6.72131 0.769777 7.97225 0.954218 9.23071 1.04707C11.1592 1.22523 13.0776 1.51507 15.0099 1.66563C16.6686 1.85007 18.3298 2.04832 19.9898 2.23401C21.8041 2.36575 23.6045 2.65434 25.4163 2.80866C26.7463 2.95672 28.0838 3.0596 29.4038 3.27792C29.8366 3.40214 29.9471 3.89147 30.1001 4.25533C30.3272 4.94667 30.6271 5.61166 30.873 6.29673C31.4878 6.30426 32.1026 6.27791 32.7174 6.30802C33.1628 6.3306 33.4577 6.77728 33.4226 7.1976C33.4201 8.83499 33.4314 10.4711 33.4175 12.1072C33.4213 12.4736 33.149 12.7584 32.8278 12.8914C32.4351 12.8914 32.0411 12.8952 31.6484 12.8939C31.5455 13.8337 31.5142 14.7823 31.4063 15.7195C31.3347 16.9717 31.2181 18.2189 31.1001 19.4673C31.5054 19.5752 31.9232 19.909 31.8617 20.3732C31.7588 22.0495 31.6033 23.722 31.4966 25.3983C31.3197 28.791 30.9985 32.1774 30.8103 35.5701C30.7187 35.9754 30.8693 36.481 30.5205 36.7884C30.2971 37.0557 29.9333 37.008 29.6258 37.0243C29.4615 39.3781 29.2043 41.7282 29.0248 44.0807C28.9558 45.338 28.8316 46.5927 28.7074 47.8448C28.6748 48.2476 28.3185 48.6014 27.9057 48.5788C20.6723 48.5889 13.439 48.5801 6.20563 48.5839C5.76147 48.6391 5.32609 48.3053 5.29221 47.8549C5.16799 46.5977 5.04127 45.3392 4.97477 44.0782C4.79033 41.7282 4.54064 39.3769 4.37377 37.0243C4.06511 37.0068 3.70125 37.0557 3.47666 36.7884C3.10276 36.4472 3.30476 35.8938 3.17553 35.4572C3.0601 33.0218 2.83676 30.594 2.66612 28.1624C2.54065 25.5651 2.31355 22.9742 2.13789 20.3795C2.0714 19.9127 2.48796 19.5727 2.89824 19.4698C2.78281 18.2226 2.65985 16.9755 2.59335 15.7245C2.4867 14.7848 2.45408 13.8362 2.35119 12.8939C1.95722 12.8952 1.56324 12.8914 1.17052 12.8914C0.850572 12.7572 0.575793 12.4749 0.582067 12.1072C0.56952 10.4686 0.579557 8.82997 0.577048 7.19133C0.543171 6.78982 0.816696 6.37954 1.22698 6.31931C1.74643 6.27038 2.27215 6.31429 2.7941 6.29798C3.22446 4.65809 3.61969 3.01067 4.03124 1.36701ZM4.4478 6.29045C12.6824 6.303 20.9182 6.29422 29.1528 6.29422C28.9998 5.76474 28.7727 5.2616 28.5706 4.74968C28.4301 4.73714 28.2908 4.72459 28.1516 4.70953C22.7589 4.12986 17.3662 3.52008 11.971 2.95797L11.8919 2.91029C9.73635 2.7773 7.5996 2.40716 5.44654 2.24907C5.1178 3.59661 4.76649 4.9404 4.4478 6.29045ZM2.14668 7.8927C2.14793 9.02444 2.14793 10.1574 2.14668 11.2904C12.05 11.2954 21.9546 11.2954 31.858 11.2904C31.8567 10.1574 31.8567 9.02444 31.858 7.89145C21.9534 7.88894 12.05 7.88894 2.14668 7.8927ZM3.95219 12.8939C4.11906 15.0922 4.31354 17.2891 4.49046 19.4861C12.8292 19.4886 21.1692 19.4874 29.5092 19.4861C29.7024 17.2942 29.8366 15.0947 30.0826 12.9065C21.3724 12.8776 12.6623 12.9015 3.95219 12.8939ZM3.77528 21.0909C4.14667 25.8663 4.42396 30.6454 4.78656 35.4208C12.9321 35.4145 21.0776 35.4283 29.2243 35.4133C29.5681 30.6392 29.8693 25.8638 30.2243 21.0896C21.4088 21.0871 12.592 21.0846 3.77528 21.0909ZM5.98606 37.008C6.03248 37.5237 6.01366 38.0456 6.10651 38.5576C6.237 40.9603 6.55318 43.348 6.68743 45.7508C6.77024 46.1359 6.76397 46.5312 6.76899 46.9239C7.0651 47.0845 7.39634 46.9189 7.70876 46.9891C8.20938 47.0732 8.71126 46.8812 9.20812 46.9992C9.92832 46.9753 10.646 46.9967 11.365 46.964C11.9384 47.0356 12.5281 47.0356 13.1015 46.9615C13.4716 46.9854 13.843 47.0305 14.2131 46.9741C14.5971 46.9113 14.986 47.077 15.3662 46.9666C15.7802 47.0719 16.2006 46.9176 16.6184 46.9967C17.1604 47.0657 17.7062 46.9264 18.2457 46.9979C18.3448 46.9979 18.5431 46.9992 18.6422 46.9992C19.3875 46.9515 20.1441 47.0155 20.8957 46.9992C21.4778 46.9101 22.0625 47.0694 22.646 46.9728C23.7363 47.0607 24.8291 46.9289 25.9195 47.0004C26.3486 46.9252 26.7852 46.9716 27.2193 46.9502C27.2394 46.5475 27.2281 46.141 27.3122 45.7457C27.5004 42.8286 27.8454 39.9239 28.0123 37.0068C20.6698 37.0105 13.3286 37.0093 5.98606 37.008Z" fill="black"/>
<path d="M16.4647 22.9059C17.4634 22.5408 18.5751 22.3175 19.614 22.65C20.6554 22.8971 21.5136 23.6876 21.9452 24.6537C22.3204 25.5621 22.4471 26.5747 22.2765 27.5446C21.9239 29.8519 20.4634 31.9347 18.486 33.1518C17.3028 33.8845 15.8637 34.2334 14.4873 33.936C13.5739 33.6813 12.747 33.0966 12.2627 32.2735C11.4685 30.9536 11.4961 29.3087 11.954 27.877C12.6855 25.6976 14.3329 23.803 16.4647 22.9059ZM17.5249 24.2058C15.949 24.6939 14.678 25.9059 13.9051 27.3413C13.407 28.3626 13.0406 29.5345 13.3079 30.6738C14.4421 29.8695 15.4107 28.8105 16.0255 27.5571C16.6981 26.1744 17.7068 24.9473 18.9942 24.0941C18.5036 24.0577 17.9967 24.0452 17.5249 24.2058ZM17.4634 28.2233C16.7382 29.7804 15.5149 31.0502 14.141 32.0577C14.9879 32.6186 16.0908 32.5069 16.9891 32.138C18.8637 31.3061 20.2526 29.5157 20.6893 27.5232C20.7771 26.734 20.8273 25.8833 20.4408 25.1606C19.0895 25.7265 18.1196 26.9498 17.4634 28.2233Z" fill="black"/>
</svg>
