<svg width="24" height="24" viewBox="0 0 24 24" fill="none" xmlns="http://www.w3.org/2000/svg">
<path d="M18 7.98763C15.78 7.76763 13.5467 7.6543 11.32 7.6543C9.99748 7.65442 8.6758 7.72117 7.36 7.8543L6 7.98763" stroke="black" stroke-width="1.5" stroke-linecap="round" stroke-linejoin="round"/>
<path d="M9.66406 7.31398L9.81073 6.44065C9.9174 5.80732 9.9974 5.33398 11.1241 5.33398H12.8707C13.9974 5.33398 14.0841 5.83398 14.1841 6.44732L14.3307 7.31398" stroke="black" stroke-width="1.5" stroke-linecap="round" stroke-linejoin="round"/>
<path d="M16.5669 10.0938L16.1336 16.8071C16.0603 17.8537 16.0003 18.6671 14.1403 18.6671H9.86026C8.00026 18.6671 7.94026 17.8537 7.86693 16.8071L7.43359 10.0938" stroke="black" stroke-width="1.5" stroke-linecap="round" stroke-linejoin="round"/>
<path d="M10.8867 15H13.1067" stroke="black" stroke-width="1.5" stroke-linecap="round" stroke-linejoin="round"/>
<path d="M10.332 12.334H13.6654" stroke="black" stroke-width="1.5" stroke-linecap="round" stroke-linejoin="round"/>
</svg>
