<svg width="82" height="73" viewBox="0 0 82 73" fill="none" xmlns="http://www.w3.org/2000/svg">
<path d="M39.2144 3.20792C41.2822 2.94802 43.4335 3.10358 45.3534 3.96866C48.18 5.15814 50.4736 7.63764 51.2932 10.6085C52.0103 13.1506 51.6992 15.9962 50.301 18.2538C47.2239 23.4139 44.1449 28.5721 41.0678 33.7303C41.0356 33.7284 40.9711 33.7284 40.9388 33.7265C37.839 28.5285 34.7296 23.3342 31.6374 18.1305C29.6435 14.8257 29.9964 10.3391 32.3602 7.31134C33.9936 5.11261 36.5338 3.6784 39.2144 3.20792ZM39.7 7.23735C36.3991 7.7932 33.9215 11.1871 34.3673 14.4975C34.5911 16.5559 35.8432 18.4739 37.6379 19.5097C40.0187 20.9439 43.2817 20.646 45.3648 18.8039C46.9545 17.4229 47.8708 15.264 47.6565 13.1582C47.4819 11.2858 46.4708 9.51197 44.9588 8.39458C43.479 7.28858 41.5061 6.85604 39.7 7.23735Z" fill="#48FDBC"/>
<path d="M38.1318 10.987C39.1448 9.89617 40.8219 9.4845 42.2295 9.96257C43.5139 10.3439 44.5269 11.4556 44.8817 12.7342C45.0145 13.7074 45.0562 14.785 44.525 15.6577C43.9824 16.6403 43.0339 17.4087 41.9241 17.6401C40.3135 18.0594 38.4998 17.3176 37.631 15.9005C37.2383 15.3598 37.1112 14.6958 36.967 14.0584C36.9575 12.9334 37.3179 11.7876 38.1318 10.987Z" fill="#F7F7F7"/>
<path d="M7.55208 29.3098C11.7598 27.0864 16.0055 24.9275 20.1962 22.6719C19.8092 28.9076 19.3463 35.1415 19.0333 41.381C18.5097 48.3377 18.191 55.3019 17.6921 62.2586C13.0878 64.4611 8.49493 66.6845 3.89258 68.887C4.19232 64.3681 4.78611 59.8739 5.10672 55.3569C5.69292 49.8193 6.12356 44.2665 6.70597 38.727C6.89189 35.5797 7.35857 32.4571 7.55208 29.3098Z" fill="white"/>
<path d="M62.983 41.533C62.6623 35.246 62.2013 28.9629 61.8105 22.6797C66.0126 24.905 70.2374 27.0904 74.4509 29.2968C74.597 31.8313 74.9612 34.3468 75.1566 36.8776C75.4051 40.279 75.8263 43.6635 76.1052 47.0631C76.3689 50.4778 76.7824 53.8831 77.067 57.2979C77.3686 61.1623 77.86 65.0134 78.1142 68.8816C73.5118 66.679 68.9247 64.448 64.3147 62.2588C63.8177 55.3534 63.5028 48.4384 62.983 41.533Z" fill="white"/>
<path d="M38.8391 0.567689C40.0646 0.400745 41.311 0.429202 42.5441 0.4956C46.4787 0.924344 50.2008 3.15153 52.3331 6.5037C54.8088 10.2656 55.0213 15.4163 52.7638 19.3281C49.239 25.2356 45.7218 31.147 42.1894 37.0488C41.7587 37.9784 40.2448 37.9841 39.8161 37.0507C36.2856 31.1451 32.7608 25.2337 29.2379 19.3243C26.8589 15.2152 27.2384 9.74963 30.0498 5.94406C32.1044 3.06237 35.3636 1.14441 38.8391 0.567689ZM39.2128 3.20845C36.5322 3.67893 33.992 5.11313 32.3586 7.31186C29.9948 10.3396 29.642 14.8263 31.6358 18.131C34.7281 23.3347 37.8374 28.529 40.9373 33.727C40.9695 33.7289 41.034 33.7289 41.0663 33.7308C44.1434 28.5726 47.2224 23.4144 50.2994 18.2543C51.6976 15.9968 52.0087 13.1511 51.2916 10.609C50.4721 7.63817 48.1785 5.15866 45.3518 3.96918C43.432 3.10411 41.2807 2.94854 39.2128 3.20845Z" fill="#333333"/>
<path d="M39.6992 7.23742C41.5052 6.8561 43.4782 7.28864 44.9579 8.39465C46.4699 9.51204 47.481 11.2858 47.6556 13.1583C47.8699 15.264 46.9536 17.4229 45.3639 18.804C43.2809 20.6461 40.0179 20.9439 37.637 19.5097C35.8424 18.4739 34.5903 16.556 34.3664 14.4976C33.9206 11.1872 36.3982 7.79327 39.6992 7.23742ZM38.1303 10.988C37.3164 11.7886 36.9559 12.9344 36.9654 14.0594C37.1096 14.6968 37.2367 15.3608 37.6294 15.9015C38.4983 17.3186 40.3119 18.0603 41.9225 17.6411C43.0323 17.4096 43.9809 16.6413 44.5235 15.6586C45.0546 14.786 45.0129 13.7084 44.8801 12.7352C44.5254 11.4566 43.5123 10.3449 42.228 9.96354C40.8203 9.48548 39.1433 9.89715 38.1303 10.988Z" fill="#333333"/>
<path d="M59.784 19.2157C60.2279 19.0127 60.7363 19.1095 61.1537 19.3353C66.1981 21.9893 71.2633 24.6073 76.3058 27.2651C76.7782 27.4833 77.0058 27.9803 77.0324 28.4774C78.366 42.6392 79.7016 56.801 81.0144 70.9647C81.0675 71.5035 80.7829 72.0802 80.2973 72.3382C79.7262 72.5697 79.0926 72.3875 78.5861 72.084C73.4734 69.595 68.3342 67.1591 63.2196 64.6758C63.0546 64.5772 62.8857 64.5639 62.7093 64.636C55.6635 67.235 48.5911 69.7696 41.5434 72.3629C40.8206 72.5981 40.113 72.2491 39.4585 71.9835C32.7371 69.5305 26.0081 67.0946 19.2924 64.6284C18.9755 64.4956 18.6929 64.7498 18.4159 64.8637C13.2634 67.3602 8.09001 69.8189 2.9375 72.3173C2.58654 72.4748 2.17866 72.4577 1.80873 72.3781C1.19976 72.1428 0.894326 71.4219 0.998667 70.7997C1.26995 68.3372 1.44448 65.8653 1.67593 63.3991C2.20332 58.516 2.55618 53.6158 3.08927 48.7327C3.34158 45.0732 3.80447 41.4307 4.09662 37.7731C4.29013 35.305 4.56521 32.8464 4.81183 30.3839C4.8934 29.553 4.86874 28.7069 5.0926 27.8969C5.30507 27.3865 5.85523 27.1854 6.30674 26.9464C10.9072 24.5466 15.5001 22.1316 20.1043 19.7393C20.5388 19.5117 20.958 19.2404 21.438 19.1209C21.9957 19.0203 22.5004 19.3353 22.9993 19.5345C24.3273 20.0998 25.6723 20.631 26.9965 21.2077C27.6908 21.5397 27.9867 22.5129 27.5049 23.1427C27.1369 23.7934 26.2547 23.8029 25.64 23.5354C24.7181 23.1617 23.8188 22.7292 22.876 22.4048C22.5971 26.9578 22.3068 31.5108 21.99 36.062C21.7263 41.9581 21.2046 47.841 20.922 53.7353C20.7531 56.5582 20.5539 59.3811 20.3718 62.2039C26.7973 64.5089 33.1981 66.8784 39.6197 69.1947C39.6748 67.5101 39.597 65.8236 39.6577 64.139C39.6368 63.6913 39.6368 63.2416 39.6444 62.7939C39.6444 62.5511 39.6444 62.3102 39.6482 62.0692C39.6254 59.7851 39.6273 57.5029 39.6482 55.2188C39.6311 53.316 39.6197 51.4132 39.652 49.5124C39.7753 48.7649 39.6122 48.0137 39.6311 47.2643C39.6387 45.4905 39.633 43.7148 39.633 41.9411C39.6482 41.4307 39.6956 40.8294 40.1433 40.5012C40.7656 39.97 41.8393 40.173 42.1998 40.9147C42.4938 41.795 42.3516 42.7397 42.344 43.6503C42.3971 48.8351 42.3705 54.0218 42.3554 59.2065C42.3838 61.6101 42.3743 64.0138 42.361 66.4174C42.3781 67.3432 42.3667 68.2689 42.38 69.1947C48.8093 66.8917 55.2158 64.526 61.6355 62.1982C61.1442 55.3877 60.8369 48.5695 60.3227 41.7608C59.9964 35.305 59.507 28.8568 59.1295 22.4048C57.9988 22.7557 56.9763 23.4102 55.8228 23.6834C54.8307 23.9528 53.9276 22.7804 54.3735 21.8868C54.6542 21.183 55.4586 21.0332 56.0808 20.7657C57.3102 20.2364 58.5547 19.745 59.784 19.2157ZM7.55123 29.3102C7.35773 32.4575 6.89105 35.5801 6.70513 38.7274C6.12272 44.2669 5.69208 49.8197 5.10588 55.3573C4.78527 59.8743 4.19148 64.3685 3.89174 68.8874C8.49409 66.6849 13.087 64.4615 17.6912 62.2589C18.1901 55.3023 18.5089 48.3381 19.0325 41.3814C19.3455 35.1419 19.8084 28.908 20.1954 22.6722C16.0047 24.9279 11.759 27.0868 7.55123 29.3102ZM62.9825 41.5332C63.5023 48.4386 63.8172 55.3535 64.3142 62.2589C68.9242 64.4482 73.5114 66.6792 78.1137 68.8817C77.8595 65.0135 77.3682 61.1624 77.0665 57.298C76.782 53.8833 76.3684 50.478 76.1047 47.0632C75.8258 43.6636 75.4047 40.2792 75.1561 36.8777C74.9607 34.347 74.5965 31.8314 74.4504 29.2969C70.237 27.0906 66.0121 24.9051 61.8101 22.6798C62.2009 28.963 62.6619 35.2462 62.9825 41.5332Z" fill="#333333"/>
</svg>
