<svg width="24" height="24" viewBox="0 0 24 24" fill="none" xmlns="http://www.w3.org/2000/svg">
<g clip-path="url(#clip0_10167_16344)">
<path d="M16.5089 9.94291C16.5089 11.2411 16.1239 12.5101 15.4027 13.5896C14.6815 14.669 13.6564 15.5103 12.457 16.0072C11.2577 16.504 9.93792 16.634 8.66466 16.3809C7.39139 16.1277 6.2218 15.5026 5.30377 14.5847C4.38574 13.6668 3.7605 12.4973 3.50711 11.2241C3.25372 9.95087 3.38357 8.6311 3.88023 7.43166C4.37689 6.23223 5.21806 5.20701 6.29737 4.48563C7.37668 3.76424 8.64567 3.3791 9.94386 3.37891C10.8059 3.37877 11.6596 3.54846 12.4561 3.87827C13.2526 4.20809 13.9763 4.69157 14.586 5.3011C15.1956 5.91064 15.6792 6.63429 16.0091 7.43074C16.339 8.22719 16.5089 9.08083 16.5089 9.94291Z" stroke="black" stroke-width="1.5" stroke-linecap="round" stroke-linejoin="round"/>
<path d="M19.9997 19.9997L15.2637 15.2637" stroke="black" stroke-width="1.5" stroke-linecap="round" stroke-linejoin="round"/>
</g>
<defs>
<clipPath id="clip0_10167_16344">
<rect width="24" height="24" fill="white"/>
</clipPath>
</defs>
</svg>
