<svg width="152" height="128" viewBox="0 0 152 128" fill="none" xmlns="http://www.w3.org/2000/svg">
<path d="M44.4882 32.866C44.4882 15.4628 58.5963 1.35463 75.9996 1.35463C93.4028 1.35463 107.511 15.4628 107.511 32.866C107.511 50.2693 93.4028 64.3774 75.9996 64.3774C58.5963 64.3774 44.4882 50.2693 44.4882 32.866Z" fill="white" stroke="black" stroke-width="2.64431"/>
<path d="M73.4649 19.425L65.0913 24.1628L61.3452 28.9005L60.6841 34.9604H91.314L90.3224 28.9005L84.4829 21.5185L73.4649 19.425Z" fill="#48FDBC"/>
<path d="M91.5345 34.0796C91.5012 33.8948 91.5345 33.4555 91.0694 31.3251C89.5563 24.3944 83.3837 19.2053 75.9992 19.2053C69.0519 19.2053 63.1773 23.7981 61.2461 30.1131" stroke="black" stroke-width="2.64431" stroke-linecap="round"/>
<path d="M92.7155 21.6294C91.4161 19.74 90.1304 18.6106 89.4819 18.019" stroke="black" stroke-width="1.76287" stroke-linecap="round"/>
<path d="M97.9612 20.5122C96.5407 17.6356 93.5513 14.4951 91.0161 12.8799" stroke="black" stroke-width="1.76287" stroke-linecap="round"/>
<path d="M59.2508 21.6294C60.5502 19.74 61.8359 18.6106 62.4844 18.019" stroke="black" stroke-width="1.76287" stroke-linecap="round"/>
<path d="M54.0051 20.5122C55.4256 17.6356 58.415 14.4951 60.9502 12.8799" stroke="black" stroke-width="1.76287" stroke-linecap="round"/>
<path d="M59.0312 34.1899C59.0312 34.1899 61.4976 34.7875 63.0922 35.0929C66.1142 35.6717 86.7021 35.6316 89.4408 35.0929C90.9985 34.7865 93.4073 34.1899 93.4073 34.1899" stroke="black" stroke-width="2.64431" stroke-linecap="round"/>
<path d="M56.1665 38.707C56.1665 38.707 59.0439 39.3638 60.9042 39.6995C64.43 40.3357 88.4491 40.2916 91.6444 39.6995C93.4617 39.3628 96.2719 38.707 96.2719 38.707" stroke="black" stroke-width="2.64431" stroke-linecap="round"/>
<path d="M75.999 14.7983L75.999 18.3241" stroke="black" stroke-width="2.64431" stroke-linecap="round"/>
<path d="M73.7954 14.1367H78.2026" stroke="black" stroke-width="2.64431" stroke-linecap="round"/>
<circle cx="79.5236" cy="45.8725" r="1.76287" fill="black"/>
<circle cx="72.0314" cy="45.8725" r="1.76287" fill="black"/>
<path d="M78.863 54.4646C82.134 54.4674 86.7959 51.2682 86.7959 45.6502" stroke="black" stroke-width="2.64431" stroke-linecap="round"/>
<path d="M102.562 126.065C113.308 126.065 122.019 116.293 122.019 104.238C122.019 101.38 122.019 78.811 122.019 78.811" stroke="black" stroke-width="2.49414" stroke-linecap="round"/>
<path d="M64.2305 126.199C73.3985 126.199 81.0856 119.053 83.1455 109.434" stroke="black" stroke-width="2.49414" stroke-linecap="round"/>
<ellipse cx="132.984" cy="115.876" rx="1.81746" ry="1.81746" fill="black"/>
<ellipse cx="100.425" cy="115.876" rx="1.81746" ry="1.81746" fill="black"/>
<path d="M132.016 126.065C135.308 125.315 138.796 121.71 139.114 118.178" stroke="black" stroke-width="1.66276" stroke-linecap="round"/>
<path d="M83.8428 103.997C83.8428 100.589 83.2472 98.9183 83.135 98.5445C81.4064 92.7822 76.4639 89.5051 70.0999 89.5051C64.1473 89.5051 59.0528 93.2459 56.9604 98.5445" stroke="black" stroke-width="2.49414" stroke-linecap="round"/>
<path d="M35.2986 89.229C29.346 89.229 24.2515 92.9698 22.1592 98.2684" stroke="black" stroke-width="2.49414" stroke-linecap="round"/>
<path d="M148.48 102.698C148.48 102.698 146.265 103.314 144.833 103.629C143.502 103.923 129.066 104.073 123.375 104.061" stroke="black" stroke-width="2.49414" stroke-linecap="round"/>
<path d="M150.375 107.696C150.375 107.696 147.891 108.311 146.285 108.627C144.793 108.921 128.733 109.071 122.353 109.059" stroke="black" stroke-width="2.49414" stroke-linecap="round"/>
<path d="M1.6252 108.459C3.85623 118.114 12.5078 125.311 22.8403 125.311C33.0989 125.311 41.4958 118.977 44.1084 107.959" stroke="black" stroke-width="2.49414" stroke-linecap="round"/>
<path d="M110.445 102.629C110.445 102.629 108.23 103.244 106.797 103.56C105.466 103.853 88.5128 104.003 82.8208 103.991" stroke="black" stroke-width="2.49414" stroke-linecap="round"/>
<path d="M112.339 107.698C112.339 107.698 109.855 108.313 108.249 108.629C106.757 108.922 89.6583 109.072 83.2773 109.06" stroke="black" stroke-width="2.49414" stroke-linecap="round"/>
<path d="M52.531 107.698C52.531 107.698 55.0144 108.313 56.6203 108.629C58.1122 108.922 77.2367 109.072 83.6177 109.06" stroke="black" stroke-width="2.49414" stroke-linecap="round"/>
<path d="M54.4617 102.629C54.4617 102.629 56.7847 103.244 58.2869 103.56C59.6825 103.853 77.5721 104.003 83.541 103.991" stroke="black" stroke-width="2.49414" stroke-linecap="round"/>
<path d="M19.9204 107.731C19.9204 107.731 22.6259 108.347 24.375 108.662C27.69 109.259 36.7529 109.217 39.7571 108.662C41.4658 108.346 44.1081 107.731 44.1081 107.731" stroke="black" stroke-width="2.49414" stroke-linecap="round"/>
<path d="M19.6787 102.732C19.6787 102.732 22.2011 103.348 23.8319 103.663C26.9226 104.26 37.2505 104.219 40.0515 103.663C41.6446 103.347 44.1081 102.732 44.1081 102.732" stroke="black" stroke-width="2.49414" stroke-linecap="round"/>
</svg>
