<svg width="24" height="25" viewBox="0 0 24 25" fill="none" xmlns="http://www.w3.org/2000/svg">
<g clip-path="url(#clip0_10172_2347)">
<path d="M8.5 19.1211H8C4 19.1211 2 18.1211 2 13.1211V8.12109C2 4.12109 4 2.12109 8 2.12109H16C20 2.12109 22 4.12109 22 8.12109V13.1211C22 17.1211 20 19.1211 16 19.1211H15.5C15.3449 19.1222 15.1922 19.1588 15.0535 19.2281C14.9148 19.2975 14.7939 19.3977 14.7 19.5211L13.2 21.5211C13.0718 21.7233 12.8945 21.8898 12.6847 22.0052C12.475 22.1205 12.2394 22.181 12 22.181C11.7606 22.181 11.525 22.1205 11.3153 22.0052C11.1055 21.8898 10.9282 21.7233 10.8 21.5211L9.3 19.5211C9.20089 19.4035 9.07882 19.3074 8.94126 19.2386C8.8037 19.1698 8.65355 19.1298 8.5 19.1211Z" stroke="white" stroke-width="2" stroke-linecap="round" stroke-linejoin="round"/>
<path d="M7 8.12109H17" stroke="white" stroke-width="2" stroke-linecap="round" stroke-linejoin="round"/>
<path d="M11 13.1211H17" stroke="white" stroke-width="2" stroke-linecap="round" stroke-linejoin="round"/>
</g>
<defs>
<clipPath id="clip0_10172_2347">
<rect width="24" height="24" fill="white" transform="translate(0 0.121094)"/>
</clipPath>
</defs>
</svg>
