<svg width="17" height="13" viewBox="0 0 17 13" fill="none" xmlns="http://www.w3.org/2000/svg">
<path d="M0.888935 3.94807C1.04807 2.86656 1.44122 2.04748 2.0684 1.49082C2.59729 1.02428 3.24318 0.791016 4.00609 0.791016C4.94217 0.791016 5.677 1.0985 6.21057 1.71348C6.68797 2.26484 6.92667 2.9832 6.92667 3.86855C6.92667 4.58956 6.76052 5.24695 6.42821 5.84072C6.10526 6.41328 5.54829 7.09188 4.7573 7.8765C3.38126 9.2496 2.46155 10.514 1.99819 11.6697H6.94071V12.791H0.804688V11.7811C1.3757 10.2542 2.40071 8.71414 3.87972 7.1608C4.64731 6.34966 5.15045 5.70288 5.38915 5.22044C5.59041 4.81752 5.69104 4.36689 5.69104 3.86855C5.69104 3.22707 5.51319 2.72872 5.15747 2.37352C4.85325 2.06603 4.46711 1.91229 3.99907 1.91229C2.89917 1.91229 2.25562 2.69426 2.0684 4.25821L0.888935 3.94807Z" fill="black"/>
<path d="M16.6151 0.791016L13.3225 6.55642L16.8047 12.791H15.3655L12.9784 8.42521C12.81 8.09652 12.6672 7.83674 12.5502 7.64589L12.129 8.42521L9.77704 12.791H8.42206L11.8762 6.60414L8.66779 0.791016H10.093L12.2062 4.69559C12.2998 4.88114 12.4519 5.17007 12.6625 5.56239C12.7327 5.44575 12.8193 5.28671 12.9223 5.08525C13.0299 4.86789 13.1025 4.7274 13.1399 4.66378L15.2672 0.791016H16.6151Z" fill="black"/>
</svg>
