<svg width="72" height="72" viewBox="0 0 72 72" fill="none" xmlns="http://www.w3.org/2000/svg">
<rect x="1.4554" y="1.4554" width="69.0892" height="69.0892" rx="34.5446" fill="white"/>
<rect x="1.4554" y="1.4554" width="69.0892" height="69.0892" rx="34.5446" stroke="black" stroke-width="2.91079"/>
<path d="M33.2285 20.4766L24.011 25.6917L19.8874 30.9069L19.1597 37.5775H52.8763L51.7848 30.9069L45.3568 22.7809L33.2285 20.4766Z" fill="#48FDBC"/>
<path d="M53.1181 36.6056C53.0814 36.4022 53.1181 35.9186 52.6061 33.5735C50.9405 25.9444 44.1459 20.2324 36.0172 20.2324C28.3698 20.2324 21.9032 25.2881 19.7773 32.2394" stroke="black" stroke-width="2.91079" stroke-linecap="round"/>
<path d="M54.4188 22.898C52.9885 20.8182 51.5732 19.575 50.8594 18.9238" stroke="black" stroke-width="1.94053" stroke-linecap="round"/>
<path d="M60.1919 21.669C58.6282 18.5025 55.3376 15.0456 52.5469 13.2676" stroke="black" stroke-width="1.94053" stroke-linecap="round"/>
<path d="M17.5812 22.898C19.0115 20.8182 20.4268 19.575 21.1406 18.9238" stroke="black" stroke-width="1.94053" stroke-linecap="round"/>
<path d="M11.8081 21.669C13.3718 18.5025 16.6624 15.0456 19.4531 13.2676" stroke="black" stroke-width="1.94053" stroke-linecap="round"/>
<path d="M17.3384 36.7266C17.3384 36.7266 20.0533 37.3843 21.8085 37.7205C25.1351 38.3577 47.7977 38.3135 50.8125 37.7205C52.5272 37.3833 55.1787 36.7266 55.1787 36.7266" stroke="black" stroke-width="2.91079" stroke-linecap="round"/>
<path d="M14.1875 41.7012C14.1875 41.7012 17.3549 42.4241 19.4027 42.7937C23.2837 43.494 49.7234 43.4454 53.2406 42.7937C55.2411 42.423 58.3345 41.7012 58.3345 41.7012" stroke="black" stroke-width="2.91079" stroke-linecap="round"/>
<path d="M36.0166 15.3789L36.0166 19.26" stroke="black" stroke-width="2.91079" stroke-linecap="round"/>
<path d="M33.5918 14.6543H38.4431" stroke="black" stroke-width="2.91079" stroke-linecap="round"/>
<circle cx="39.898" cy="49.5851" r="1.94053" fill="black"/>
<circle cx="31.651" cy="49.5851" r="1.94053" fill="black"/>
<path d="M39.17 59.0469C42.7707 59.0499 47.9023 55.5283 47.9023 49.3442" stroke="black" stroke-width="2.91079" stroke-linecap="round"/>
</svg>
