<svg width="127" height="35" viewBox="0 0 127 35" fill="none" xmlns="http://www.w3.org/2000/svg">
<path d="M55.9443 30.4254C61.7939 30.4254 66.5358 25.1059 66.5358 18.544C66.5358 16.9883 66.5358 4.70312 66.5358 4.70312" stroke="black" stroke-width="1.35767" stroke-linecap="round"/>
<path d="M35.0801 30.499C40.0706 30.499 44.255 26.6092 45.3763 21.373" stroke="black" stroke-width="1.35767" stroke-linecap="round"/>
<circle cx="72.5049" cy="24.8799" r="0.989317" fill="black"/>
<circle cx="54.7823" cy="24.8799" r="0.989317" fill="black"/>
<path d="M71.9782 30.4258C73.7701 30.0175 75.6683 28.0555 75.8418 26.1328" stroke="black" stroke-width="0.905111" stroke-linecap="round"/>
<path d="M45.7553 18.4138C45.7553 16.5589 45.431 15.6494 45.37 15.4459C44.429 12.3093 41.7386 10.5254 38.2744 10.5254C35.0341 10.5254 32.261 12.5616 31.1221 15.4459" stroke="black" stroke-width="1.35767" stroke-linecap="round"/>
<path d="M19.331 10.375C16.0908 10.375 13.3177 12.4113 12.1787 15.2955" stroke="black" stroke-width="1.35767" stroke-linecap="round"/>
<path d="M80.9406 17.707C80.9406 17.707 79.7348 18.0418 78.955 18.2138C78.2306 18.3735 70.3728 18.4551 67.2744 18.4487" stroke="black" stroke-width="1.35767" stroke-linecap="round"/>
<path d="M81.9713 20.4277C81.9713 20.4277 80.6196 20.7625 79.7454 20.9345C78.9333 21.0942 70.1912 21.1758 66.7178 21.1694" stroke="black" stroke-width="1.35767" stroke-linecap="round"/>
<path d="M1.00157 20.8408C2.21602 26.0962 6.92543 30.0138 12.5499 30.0138C18.134 30.0138 22.7048 26.5661 24.127 20.5684" stroke="black" stroke-width="1.35767" stroke-linecap="round"/>
<path d="M60.2363 17.668C60.2363 17.668 59.0304 18.0028 58.2506 18.1747C57.5262 18.3344 48.2976 18.4161 45.1992 18.4096" stroke="black" stroke-width="1.35767" stroke-linecap="round"/>
<path d="M61.2665 20.4277C61.2665 20.4277 59.9147 20.7625 59.0406 20.9345C58.2284 21.0942 48.9207 21.1758 45.4473 21.1694" stroke="black" stroke-width="1.35767" stroke-linecap="round"/>
<path d="M28.711 20.4277C28.711 20.4277 30.0628 20.7625 30.937 20.9345C31.7491 21.0942 42.1594 21.1758 45.6328 21.1694" stroke="black" stroke-width="1.35767" stroke-linecap="round"/>
<path d="M29.7618 17.668C29.7618 17.668 31.0262 18.0028 31.844 18.1747C32.6037 18.3344 42.3417 18.4161 45.5908 18.4096" stroke="black" stroke-width="1.35767" stroke-linecap="round"/>
<path d="M10.96 20.4453C10.96 20.4453 12.4327 20.7806 13.3848 20.952C15.1893 21.2769 20.1226 21.2543 21.7579 20.952C22.688 20.7801 24.1263 20.4453 24.1263 20.4453" stroke="black" stroke-width="1.35767" stroke-linecap="round"/>
<path d="M10.8281 17.7246C10.8281 17.7246 12.2012 18.0599 13.0889 18.2313C14.7713 18.5562 20.3932 18.5336 21.9179 18.2313C22.7851 18.0594 24.126 17.7246 24.126 17.7246" stroke="black" stroke-width="1.35767" stroke-linecap="round"/>
<path d="M93.964 17.5999C93.964 8.66454 101.208 1.42102 110.143 1.42102C119.078 1.42102 126.322 8.66454 126.322 17.5999C126.322 26.5352 119.078 33.7787 110.143 33.7787C101.208 33.7787 93.964 26.5352 93.964 17.5999Z" fill="white" stroke="black" stroke-width="1.35767"/>
<path d="M108.842 10.6992L104.543 13.1317L102.62 15.5642L102.28 18.6755H118.007L117.497 15.5642L114.499 11.774L108.842 10.6992Z" fill="#48FDBC"/>
<path d="M118.119 18.2228C118.102 18.1279 118.119 17.9024 117.881 16.8086C117.104 13.2502 113.934 10.5859 110.143 10.5859C106.576 10.5859 103.56 12.944 102.568 16.1863" stroke="black" stroke-width="1.35767" stroke-linecap="round"/>
<path d="M118.726 11.8302C118.058 10.8602 117.398 10.2803 117.065 9.97656" stroke="black" stroke-width="0.905111" stroke-linecap="round"/>
<path d="M121.418 11.2565C120.689 9.7796 119.154 8.16718 117.853 7.33789" stroke="black" stroke-width="0.905111" stroke-linecap="round"/>
<path d="M101.544 11.8302C102.211 10.8602 102.871 10.2803 103.204 9.97656" stroke="black" stroke-width="0.905111" stroke-linecap="round"/>
<path d="M98.8512 11.2565C99.5805 9.7796 101.115 8.16718 102.417 7.33789" stroke="black" stroke-width="0.905111" stroke-linecap="round"/>
<path d="M101.431 18.2793C101.431 18.2793 102.697 18.5861 103.516 18.7429C105.067 19.0401 115.638 19.0195 117.044 18.7429C117.844 18.5856 119.08 18.2793 119.08 18.2793" stroke="black" stroke-width="1.35767" stroke-linecap="round"/>
<path d="M99.9609 20.5996C99.9609 20.5996 101.438 20.9368 102.393 21.1092C104.204 21.4358 116.536 21.4132 118.176 21.1092C119.109 20.9363 120.552 20.5996 120.552 20.5996" stroke="black" stroke-width="1.35767" stroke-linecap="round"/>
<path d="M110.143 8.32227L110.143 10.1325" stroke="black" stroke-width="1.35767" stroke-linecap="round"/>
<path d="M109.012 7.98438H111.274" stroke="black" stroke-width="1.35767" stroke-linecap="round"/>
<circle cx="111.953" cy="24.2762" r="0.905111" fill="black"/>
<circle cx="108.106" cy="24.2762" r="0.905111" fill="black"/>
<path d="M111.614 28.6895C113.293 28.6909 115.687 27.0483 115.687 24.1639" stroke="black" stroke-width="1.35767" stroke-linecap="round"/>
</svg>
