<svg width="127" height="35" viewBox="0 0 127 35" fill="none" xmlns="http://www.w3.org/2000/svg">
<path d="M55.9453 30.4815C61.7948 30.4815 66.5368 25.1621 66.5368 18.6002C66.5368 17.0445 66.5368 4.75928 66.5368 4.75928" stroke="white" stroke-width="1.35767" stroke-linecap="round"/>
<path d="M35.0781 30.5547C40.0687 30.5547 44.2531 26.6649 45.3744 21.4287" stroke="white" stroke-width="1.35767" stroke-linecap="round"/>
<circle cx="72.5049" cy="24.9356" r="0.989317" fill="white"/>
<circle cx="54.7823" cy="24.9356" r="0.989317" fill="white"/>
<path d="M71.9762 30.4814C73.7682 30.0732 75.6663 28.1111 75.8398 26.1885" stroke="white" stroke-width="0.905111" stroke-linecap="round"/>
<path d="M45.7543 18.469C45.7543 16.614 45.4301 15.7046 45.369 15.5011C44.4281 12.3644 41.7376 10.5806 38.2734 10.5806C35.0332 10.5806 32.26 12.6168 31.1211 15.5011" stroke="white" stroke-width="1.35767" stroke-linecap="round"/>
<path d="M19.3281 10.4307C16.0879 10.4307 13.3147 12.4669 12.1758 15.3512" stroke="white" stroke-width="1.35767" stroke-linecap="round"/>
<path d="M80.9396 17.7622C80.9396 17.7622 79.7338 18.097 78.954 18.2689C78.2296 18.4287 70.3718 18.5103 67.2734 18.5038" stroke="white" stroke-width="1.35767" stroke-linecap="round"/>
<path d="M81.9684 20.4829C81.9684 20.4829 80.6166 20.8177 79.7424 20.9896C78.9303 21.1494 70.1883 21.231 66.7148 21.2245" stroke="white" stroke-width="1.35767" stroke-linecap="round"/>
<path d="M0.99962 20.8979C2.21406 26.1533 6.92348 30.0709 12.5479 30.0709C18.1321 30.0709 22.7029 26.6232 24.125 20.6255" stroke="white" stroke-width="1.35767" stroke-linecap="round"/>
<path d="M60.2363 17.7246C60.2363 17.7246 59.0304 18.0594 58.2506 18.2313C57.5262 18.3911 48.2976 18.4727 45.1992 18.4662" stroke="white" stroke-width="1.35767" stroke-linecap="round"/>
<path d="M61.2646 20.4839C61.2646 20.4839 59.9128 20.8187 59.0386 20.9906C58.2265 21.1503 48.9187 21.232 45.4453 21.2255" stroke="white" stroke-width="1.35767" stroke-linecap="round"/>
<path d="M28.711 20.4839C28.711 20.4839 30.0628 20.8187 30.937 20.9906C31.7491 21.1503 42.1594 21.232 45.6328 21.2255" stroke="white" stroke-width="1.35767" stroke-linecap="round"/>
<path d="M29.7608 17.7246C29.7608 17.7246 31.0253 18.0594 31.843 18.2313C32.6027 18.3911 42.3407 18.4727 45.5898 18.4662" stroke="white" stroke-width="1.35767" stroke-linecap="round"/>
<path d="M10.957 20.5015C10.957 20.5015 12.4297 20.8368 13.3818 21.0082C15.1864 21.333 20.1196 21.3105 21.755 21.0082C22.6851 20.8363 24.1234 20.5015 24.1234 20.5015" stroke="white" stroke-width="1.35767" stroke-linecap="round"/>
<path d="M10.8281 17.7808C10.8281 17.7808 12.2012 18.1161 13.0889 18.2875C14.7713 18.6123 20.3932 18.5898 21.9179 18.2875C22.7851 18.1156 24.126 17.7808 24.126 17.7808" stroke="white" stroke-width="1.35767" stroke-linecap="round"/>
<path d="M110.143 33.8359C101.208 33.8359 93.964 26.5923 93.964 17.657C93.964 8.72167 101.208 1.47815 110.143 1.47815C119.078 1.47815 126.322 8.72167 126.322 17.657C126.322 26.5923 119.078 33.8359 110.143 33.8359Z" fill="white" stroke="black" stroke-width="1.35767"/>
<path d="M108.843 10.7559L104.544 13.1883L102.621 15.6208L102.281 18.7321H118.008L117.498 15.6208L114.5 11.8307L108.843 10.7559Z" fill="#48FDBC"/>
<path d="M118.121 18.2795C118.104 18.1846 118.121 17.959 117.882 16.8652C117.106 13.3068 113.936 10.6426 110.145 10.6426C106.578 10.6426 103.562 13.0007 102.57 16.243" stroke="black" stroke-width="1.35767" stroke-linecap="round"/>
<path d="M118.727 11.8859C118.059 10.9158 117.399 10.336 117.066 10.0322" stroke="black" stroke-width="0.905111" stroke-linecap="round"/>
<path d="M121.421 11.3122C120.692 9.83527 119.157 8.22285 117.855 7.39355" stroke="black" stroke-width="0.905111" stroke-linecap="round"/>
<path d="M101.543 11.8859C102.21 10.9158 102.87 10.336 103.203 10.0322" stroke="black" stroke-width="0.905111" stroke-linecap="round"/>
<path d="M98.8482 11.3122C99.5776 9.83527 101.112 8.22285 102.414 7.39355" stroke="black" stroke-width="0.905111" stroke-linecap="round"/>
<path d="M101.43 18.3359C101.43 18.3359 102.696 18.6427 103.515 18.7995C105.066 19.0967 115.637 19.0761 117.043 18.7995C117.843 18.6422 119.079 18.3359 119.079 18.3359" stroke="black" stroke-width="1.35767" stroke-linecap="round"/>
<path d="M99.9609 20.6553C99.9609 20.6553 101.438 20.9925 102.393 21.1648C104.204 21.4915 116.536 21.4688 118.176 21.1648C119.109 20.9919 120.552 20.6553 120.552 20.6553" stroke="black" stroke-width="1.35767" stroke-linecap="round"/>
<path d="M110.145 8.37988L110.145 10.1901" stroke="black" stroke-width="1.35767" stroke-linecap="round"/>
<path d="M109.012 8.04053H111.274" stroke="black" stroke-width="1.35767" stroke-linecap="round"/>
<circle cx="111.956" cy="24.3324" r="0.905111" fill="black"/>
<circle cx="108.108" cy="24.3324" r="0.905111" fill="black"/>
<path d="M111.615 28.7451C113.294 28.7465 115.688 27.104 115.688 24.2196" stroke="black" stroke-width="1.35767" stroke-linecap="round"/>
</svg>
