<svg width="12" height="9" viewBox="0 0 12 9" fill="none" xmlns="http://www.w3.org/2000/svg">
<path d="M9.73929 0.390017C9.84258 0.27866 9.97167 0.194432 10.1152 0.144732C10.2587 0.095031 10.4123 0.0813955 10.5623 0.105028C10.7575 0.143646 10.9371 0.23839 11.0793 0.377657C11.2214 0.516924 11.3197 0.694655 11.3623 0.889025C11.4111 1.0827 11.4092 1.28568 11.3566 1.47838C11.3041 1.67108 11.2027 1.84697 11.0623 1.98903C9.10562 3.96703 7.14895 5.94536 5.19228 7.92403C5.10443 8.0134 4.99919 8.08381 4.88306 8.13092C4.76693 8.17804 4.64237 8.20084 4.51708 8.19794C4.39179 8.19503 4.26842 8.16649 4.15459 8.11405C4.04077 8.0616 3.93891 7.98637 3.85529 7.89302C2.87396 6.81369 1.89395 5.73269 0.915288 4.65003C0.812623 4.53937 0.732827 4.40952 0.680486 4.26795C0.628145 4.12637 0.604282 3.97585 0.61028 3.82503C0.613548 3.62636 0.671215 3.43239 0.776998 3.26419C0.88278 3.096 1.03264 2.96001 1.21029 2.87102C1.39013 2.78776 1.59213 2.76508 1.78595 2.80637C1.97978 2.84766 2.15499 2.9507 2.28528 3.10002C3.04862 3.94069 3.81162 4.78203 4.57428 5.62403L9.73929 0.390017Z" fill="#00B673"/>
</svg>
