<svg width="12" height="9" viewBox="0 0 12 9" fill="none" xmlns="http://www.w3.org/2000/svg">
<path d="M9.73929 0.960329C9.84258 0.848973 9.97167 0.764745 10.1152 0.715044C10.2587 0.665344 10.4123 0.651708 10.5623 0.675341C10.7575 0.713959 10.9371 0.808702 11.0793 0.94797C11.2214 1.08724 11.3197 1.26497 11.3623 1.45934C11.4111 1.65301 11.4092 1.856 11.3566 2.04869C11.3041 2.24139 11.2027 2.41728 11.0623 2.55934C9.10562 4.53734 7.14895 6.51567 5.19228 8.49434C5.10443 8.58372 4.99919 8.65412 4.88306 8.70123C4.76693 8.74835 4.64237 8.77116 4.51708 8.76825C4.39179 8.76535 4.26842 8.7368 4.15459 8.68436C4.04077 8.63191 3.93891 8.55669 3.85529 8.46334C2.87396 7.384 1.89395 6.30301 0.915288 5.22034C0.812623 5.10969 0.732827 4.97984 0.680486 4.83826C0.628145 4.69668 0.604282 4.54617 0.61028 4.39534C0.613548 4.19668 0.671215 4.0027 0.776998 3.83451C0.88278 3.66631 1.03264 3.53032 1.21029 3.44133C1.39013 3.35808 1.59213 3.33539 1.78595 3.37668C1.97978 3.41797 2.15499 3.52101 2.28528 3.67034C3.04862 4.511 3.81162 5.35234 4.57428 6.19434L9.73929 0.960329Z" fill="black"/>
</svg>
