<svg width="56" height="32" viewBox="0 0 56 32" fill="none" xmlns="http://www.w3.org/2000/svg">
<path d="M11.8843 7.30811C12.7524 7.30811 13.4561 7.99881 13.4561 8.85083V20.4302C13.4561 20.7969 13.6581 21.135 13.9843 21.3138C14.6125 21.6583 15.3777 21.6583 16.0059 21.3138C16.332 21.135 16.5341 20.7969 16.5341 20.4302V8.85083C16.5341 7.99881 17.2378 7.30811 18.1059 7.30811C18.9739 7.30811 19.6776 7.99881 19.6776 8.85083V20.4302C19.6776 21.9148 18.8595 23.2833 17.5391 24.0074C15.9581 24.8744 14.0321 24.8744 12.4511 24.0074C11.1306 23.2833 10.3125 21.9148 10.3125 20.4302V8.85083C10.3125 7.99881 11.0162 7.30811 11.8843 7.30811Z" fill="#CECED1"/>
<path d="M25.4587 8.6931C25.3782 7.91517 24.7089 7.30811 23.8951 7.30811C23.027 7.30811 22.3233 7.99881 22.3233 8.85083L22.3233 23.149C22.3233 24.0011 23.027 24.6918 23.8951 24.6918C24.7631 24.6918 25.4668 24.0011 25.4668 23.149V17.2552C25.9005 17.3911 26.3626 17.4644 26.8421 17.4644C29.3378 17.4644 31.3609 15.4786 31.3609 13.0291V8.85083C31.3609 7.99881 30.6572 7.30811 29.7892 7.30811C28.9211 7.30811 28.2174 7.99881 28.2174 8.85083V13.0291C28.2174 13.7746 27.6017 14.3789 26.8421 14.3789C26.0826 14.3789 25.4668 13.7746 25.4668 13.0291V8.85083C25.4668 8.79758 25.4641 8.74496 25.4587 8.6931Z" fill="#CECED1"/>
<path d="M36.7939 8.85083C36.7939 7.99881 36.0902 7.30811 35.2222 7.30811C34.3541 7.30811 33.6504 7.99881 33.6504 8.85083V23.149C33.6504 24.0011 34.3541 24.6918 35.2222 24.6918C36.0902 24.6918 36.7939 24.0011 36.7939 23.149V17.4644L44.5946 17.4644C45.4626 17.4644 46.1663 16.7737 46.1663 15.9217C46.1663 15.0696 45.4626 14.3789 44.5946 14.3789H43.2034C42.0821 14.3789 41.1732 13.4868 41.1732 12.3862C41.1732 11.2857 42.0821 10.3936 43.2034 10.3936H43.6785C44.5465 10.3936 45.2502 9.70286 45.2502 8.85083C45.2502 7.99881 44.5465 7.30811 43.6785 7.30811L43.2034 7.30811C40.346 7.30811 38.0297 9.58167 38.0297 12.3862C38.0297 13.0936 38.177 13.7671 38.4432 14.3789H36.7939V8.85083Z" fill="#CECED1"/>
</svg>
