<svg width="56" height="32" viewBox="0 0 56 32" fill="none" xmlns="http://www.w3.org/2000/svg">
<rect x="3.10089" y="6.07031" width="19.859" height="19.859" fill="#253070"/>
<path d="M13.7669 6.07031H12.2673C11.6239 11.2955 7.97375 15.59 3.10089 17.1696V18.7275C8.80209 17.0823 13.0979 12.1229 13.7669 6.07031Z" fill="white"/>
<path d="M18.9527 6.07031C15.517 9.10272 13.3501 13.5394 13.3501 18.4822C13.3501 21.1609 13.9865 23.6909 15.1164 25.9293H16.9217C16.9217 25.9293 16.9217 25.9293 16.9217 25.9293C16.9217 21.6653 19.3817 17.9758 22.9599 16.2026V14.564C19.2695 16.128 16.498 19.437 15.6802 23.456C15.1356 21.8989 14.8395 20.2251 14.8395 18.4822C14.8395 13.3322 17.4246 8.78595 21.3679 6.07031H18.9527Z" fill="white"/>
<path d="M26.4494 7.33911H27.6839C27.8191 7.33911 27.9455 7.36116 28.0631 7.40525C28.1807 7.4464 28.2821 7.50519 28.3673 7.58161C28.4555 7.65509 28.5246 7.7418 28.5745 7.84174C28.6245 7.94168 28.6495 8.04897 28.6495 8.1636C28.6495 8.33115 28.6083 8.47224 28.526 8.58687C28.4467 8.69857 28.3467 8.78381 28.2262 8.8426V8.87787C28.3879 8.93666 28.5172 9.02925 28.6142 9.15564C28.7141 9.27909 28.7641 9.43341 28.7641 9.61859C28.7641 9.7538 28.7362 9.87578 28.6803 9.98454C28.6274 10.0904 28.554 10.1815 28.4599 10.2579C28.3658 10.3343 28.2556 10.3931 28.1292 10.4343C28.0058 10.4754 27.872 10.496 27.728 10.496H26.4494V7.33911ZM27.6398 8.62655C27.778 8.62655 27.8838 8.58981 27.9573 8.51633C28.0337 8.4399 28.0719 8.35025 28.0719 8.24737C28.0719 8.1445 28.0352 8.05632 27.9617 7.98283C27.8882 7.90935 27.7868 7.87261 27.6574 7.87261H27.0446V8.62655H27.6398ZM27.7059 9.94927C27.8559 9.94927 27.9705 9.91253 28.0499 9.83904C28.1292 9.76262 28.1689 9.66562 28.1689 9.54804C28.1689 9.43047 28.1277 9.33347 28.0454 9.25705C27.9661 9.17768 27.847 9.138 27.6883 9.138H27.0446V9.94927H27.7059Z" fill="#253070"/>
<path d="M30.4832 10.2667H30.448C30.3804 10.349 30.2981 10.4196 30.2011 10.4784C30.107 10.5371 29.985 10.5665 29.8351 10.5665C29.7234 10.5665 29.6176 10.5474 29.5176 10.5092C29.4207 10.4739 29.3354 10.424 29.2619 10.3593C29.1884 10.2946 29.1311 10.2167 29.09 10.1256C29.0488 10.0345 29.0282 9.93457 29.0282 9.82581C29.0282 9.71412 29.0503 9.61418 29.0944 9.526C29.1385 9.43488 29.2002 9.35699 29.2796 9.29232C29.3589 9.22765 29.4515 9.17915 29.5573 9.14682C29.6661 9.11155 29.7837 9.09391 29.9101 9.09391C30.0511 9.09391 30.1672 9.10567 30.2584 9.12918C30.3495 9.14976 30.4244 9.17181 30.4832 9.19532V9.12918C30.4832 9.01455 30.4377 8.92049 30.3466 8.84701C30.2554 8.77058 30.1423 8.73237 30.0071 8.73237C29.8072 8.73237 29.6382 8.81614 29.5 8.98369L29.0812 8.6971C29.3104 8.40904 29.6235 8.26501 30.0203 8.26501C30.3554 8.26501 30.6111 8.34437 30.7875 8.5031C30.9638 8.65889 31.052 8.8911 31.052 9.19973V10.496H30.4832V10.2667ZM30.4832 9.61859C30.4156 9.58626 30.3451 9.56127 30.2716 9.54363C30.2011 9.52306 30.1232 9.51277 30.0379 9.51277C29.8998 9.51277 29.7925 9.54364 29.7161 9.60536C29.6426 9.66415 29.6058 9.73763 29.6058 9.82581C29.6058 9.91399 29.6411 9.98454 29.7116 10.0374C29.7851 10.0904 29.8689 10.1168 29.963 10.1168C30.0394 10.1168 30.1099 10.1036 30.1746 10.0771C30.2393 10.0477 30.2936 10.011 30.3377 9.9669C30.3848 9.91987 30.42 9.86696 30.4435 9.80818C30.47 9.74645 30.4832 9.68325 30.4832 9.61859Z" fill="#253070"/>
<path d="M31.5112 7.33911H32.0888V8.22533L32.0535 8.61773H32.0888C32.1505 8.51486 32.2387 8.43109 32.3534 8.36642C32.4709 8.29881 32.6017 8.26501 32.7458 8.26501C33.025 8.26501 33.2308 8.34731 33.363 8.51192C33.4982 8.67652 33.5658 8.90138 33.5658 9.1865V10.496H32.9883V9.25705C32.9883 9.10714 32.953 8.99397 32.8824 8.91755C32.8119 8.83819 32.7134 8.79851 32.587 8.79851C32.5077 8.79851 32.4371 8.81614 32.3754 8.85141C32.3137 8.88375 32.2608 8.92931 32.2167 8.9881C32.1755 9.04688 32.1432 9.11596 32.1197 9.19532C32.0991 9.27174 32.0888 9.35405 32.0888 9.44223V10.496H31.5112V7.33911Z" fill="#253070"/>
<path d="M35.353 10.2667H35.3177C35.2501 10.349 35.1678 10.4196 35.0708 10.4784C34.9768 10.5371 34.8548 10.5665 34.7049 10.5665C34.5932 10.5665 34.4873 10.5474 34.3874 10.5092C34.2904 10.4739 34.2052 10.424 34.1317 10.3593C34.0582 10.2946 34.0009 10.2167 33.9597 10.1256C33.9186 10.0345 33.898 9.93457 33.898 9.82581C33.898 9.71412 33.92 9.61418 33.9641 9.526C34.0082 9.43488 34.07 9.35699 34.1493 9.29232C34.2287 9.22765 34.3213 9.17915 34.4271 9.14682C34.5358 9.11155 34.6534 9.09391 34.7798 9.09391C34.9209 9.09391 35.037 9.10567 35.1281 9.12918C35.2192 9.14976 35.2942 9.17181 35.353 9.19532V9.12918C35.353 9.01455 35.3074 8.92049 35.2163 8.84701C35.1252 8.77058 35.012 8.73237 34.8768 8.73237C34.6769 8.73237 34.5079 8.81614 34.3698 8.98369L33.9509 8.6971C34.1802 8.40904 34.4932 8.26501 34.89 8.26501C35.2251 8.26501 35.4809 8.34437 35.6572 8.5031C35.8336 8.65889 35.9218 8.8911 35.9218 9.19973V10.496H35.353V10.2667ZM35.353 9.61859C35.2854 9.58626 35.2148 9.56127 35.1414 9.54363C35.0708 9.52306 34.9929 9.51277 34.9077 9.51277C34.7695 9.51277 34.6622 9.54364 34.5858 9.60536C34.5123 9.66415 34.4756 9.73763 34.4756 9.82581C34.4756 9.91399 34.5109 9.98454 34.5814 10.0374C34.6549 10.0904 34.7387 10.1168 34.8327 10.1168C34.9091 10.1168 34.9797 10.1036 35.0444 10.0771C35.109 10.0477 35.1634 10.011 35.2075 9.9669C35.2545 9.91987 35.2898 9.86696 35.3133 9.80818C35.3398 9.74645 35.353 9.68325 35.353 9.61859Z" fill="#253070"/>
<path d="M36.381 8.33556H36.9233V8.63537H36.9586C36.985 8.58246 37.0203 8.53396 37.0644 8.48987C37.1085 8.44578 37.157 8.40757 37.2099 8.37524C37.2657 8.3429 37.3245 8.31792 37.3862 8.30028C37.4509 8.28265 37.5141 8.27383 37.5758 8.27383C37.6523 8.27383 37.7169 8.28118 37.7698 8.29587C37.8257 8.31057 37.8727 8.32968 37.9109 8.35319L37.7566 8.87787C37.7213 8.86023 37.6817 8.84701 37.6376 8.83819C37.5964 8.82643 37.545 8.82055 37.4832 8.82055C37.4039 8.82055 37.3319 8.83672 37.2672 8.86905C37.2025 8.89844 37.1467 8.94107 37.0997 8.99691C37.0556 9.05276 37.0203 9.1189 36.9938 9.19532C36.9703 9.2688 36.9586 9.34964 36.9586 9.43782V10.496H36.381V8.33556Z" fill="#253070"/>
<path d="M27.0446 14.9035V15.6354H28.31V16.1997H27.0446V16.9316H28.4511V17.496H26.4494V14.3391H28.4511V14.9035H27.0446Z" fill="#253070"/>
<path d="M28.9278 15.8735H30.4225V16.3849H28.9278V15.8735Z" fill="#253070"/>
<path d="M33.7476 16.9889C33.5919 17.1771 33.4082 17.3211 33.1965 17.421C32.9849 17.518 32.7483 17.5665 32.4867 17.5665C32.2515 17.5665 32.0325 17.5239 31.8297 17.4387C31.6298 17.3534 31.4564 17.2373 31.3094 17.0904C31.1625 16.9434 31.0464 16.77 30.9611 16.5701C30.8759 16.3673 30.8333 16.1498 30.8333 15.9176C30.8333 15.6853 30.8759 15.4693 30.9611 15.2694C31.0464 15.0666 31.1625 14.8917 31.3094 14.7447C31.4564 14.5978 31.6298 14.4817 31.8297 14.3964C32.0325 14.3112 32.2515 14.2686 32.4867 14.2686C32.7394 14.2686 32.9614 14.3127 33.1524 14.4008C33.3464 14.489 33.5184 14.6169 33.6683 14.7844L33.2494 15.1901C33.1554 15.0813 33.0466 14.9946 32.9232 14.9299C32.8026 14.8653 32.6586 14.8329 32.4911 14.8329C32.3441 14.8329 32.206 14.8594 32.0766 14.9123C31.9473 14.9623 31.8341 15.0343 31.7371 15.1283C31.6431 15.2224 31.5681 15.337 31.5123 15.4722C31.4564 15.6045 31.4285 15.7529 31.4285 15.9176C31.4285 16.0822 31.4564 16.2321 31.5123 16.3673C31.5681 16.4995 31.6431 16.6127 31.7371 16.7068C31.8341 16.8008 31.9473 16.8743 32.0766 16.9272C32.206 16.9772 32.3441 17.0022 32.4911 17.0022C32.6674 17.0022 32.8232 16.9669 32.9584 16.8964C33.0966 16.8229 33.2186 16.72 33.3244 16.5877L33.7476 16.9889Z" fill="#253070"/>
<path d="M35.0917 15.265C35.2593 15.265 35.4121 15.2944 35.5503 15.3532C35.6914 15.409 35.8119 15.4884 35.9118 15.5913C36.0147 15.6912 36.094 15.8117 36.1499 15.9528C36.2087 16.0939 36.2381 16.2482 36.2381 16.4158C36.2381 16.5833 36.2087 16.7376 36.1499 16.8787C36.094 17.0198 36.0147 17.1418 35.9118 17.2447C35.8119 17.3446 35.6914 17.424 35.5503 17.4828C35.4121 17.5386 35.2593 17.5665 35.0917 17.5665C34.9242 17.5665 34.7699 17.5386 34.6288 17.4828C34.4906 17.424 34.3701 17.3446 34.2672 17.2447C34.1673 17.1418 34.0879 17.0198 34.0291 16.8787C33.9733 16.7376 33.9454 16.5833 33.9454 16.4158C33.9454 16.2482 33.9733 16.0939 34.0291 15.9528C34.0879 15.8117 34.1673 15.6912 34.2672 15.5913C34.3701 15.4884 34.4906 15.409 34.6288 15.3532C34.7699 15.2944 34.9242 15.265 35.0917 15.265ZM35.0917 17.033C35.1652 17.033 35.2357 17.0198 35.3034 16.9934C35.3739 16.964 35.4356 16.9228 35.4885 16.8699C35.5414 16.817 35.5826 16.7523 35.612 16.6759C35.6443 16.5995 35.6605 16.5128 35.6605 16.4158C35.6605 16.3188 35.6443 16.2321 35.612 16.1556C35.5826 16.0792 35.5414 16.0145 35.4885 15.9616C35.4356 15.9087 35.3739 15.8691 35.3034 15.8426C35.2357 15.8132 35.1652 15.7985 35.0917 15.7985C35.0153 15.7985 34.9433 15.8132 34.8757 15.8426C34.8081 15.8691 34.7478 15.9087 34.6949 15.9616C34.642 16.0145 34.5994 16.0792 34.567 16.1556C34.5376 16.2321 34.523 16.3188 34.523 16.4158C34.523 16.5128 34.5376 16.5995 34.567 16.6759C34.5994 16.7523 34.642 16.817 34.6949 16.8699C34.7478 16.9228 34.8081 16.964 34.8757 16.9934C34.9433 17.0198 35.0153 17.033 35.0917 17.033Z" fill="#253070"/>
<path d="M36.5661 15.3356H37.1084V15.6177H37.1437C37.2113 15.5119 37.3024 15.4267 37.4171 15.362C37.5347 15.2973 37.664 15.265 37.8051 15.265C37.9697 15.265 38.1078 15.3032 38.2195 15.3796C38.3312 15.4561 38.4106 15.5501 38.4576 15.6618C38.5252 15.5531 38.6207 15.4605 38.7442 15.3841C38.8677 15.3047 39.0176 15.265 39.1939 15.265C39.3262 15.265 39.4408 15.2871 39.5378 15.3311C39.6348 15.3723 39.7142 15.4311 39.7759 15.5075C39.8406 15.5839 39.8891 15.6765 39.9214 15.7853C39.9538 15.8911 39.9699 16.0072 39.9699 16.1336V17.496H39.3923V16.2394C39.3923 15.9455 39.2718 15.7985 39.0308 15.7985C38.9544 15.7985 38.8868 15.8161 38.828 15.8514C38.7692 15.8837 38.7192 15.9293 38.6781 15.9881C38.6399 16.0439 38.609 16.1115 38.5855 16.1909C38.5649 16.2703 38.5546 16.3555 38.5546 16.4466V17.496H37.977V16.2394C37.977 15.9455 37.8506 15.7985 37.5978 15.7985C37.5244 15.7985 37.4597 15.8161 37.4039 15.8514C37.348 15.8837 37.301 15.9293 37.2628 15.9881C37.2245 16.0439 37.1952 16.1115 37.1746 16.1909C37.154 16.2703 37.1437 16.3555 37.1437 16.4466V17.496H36.5661V15.3356Z" fill="#253070"/>
<path d="M40.4456 15.3356H40.9879V15.6177H41.0232C41.0908 15.5119 41.1819 15.4267 41.2965 15.362C41.4141 15.2973 41.5434 15.265 41.6845 15.265C41.8491 15.265 41.9873 15.3032 42.099 15.3796C42.2107 15.4561 42.29 15.5501 42.3371 15.6618C42.4047 15.5531 42.5002 15.4605 42.6236 15.3841C42.7471 15.3047 42.897 15.265 43.0734 15.265C43.2056 15.265 43.3203 15.2871 43.4173 15.3311C43.5143 15.3723 43.5936 15.4311 43.6554 15.5075C43.72 15.5839 43.7685 15.6765 43.8009 15.7853C43.8332 15.8911 43.8494 16.0072 43.8494 16.1336V17.496H43.2718V16.2394C43.2718 15.9455 43.1513 15.7985 42.9102 15.7985C42.8338 15.7985 42.7662 15.8161 42.7074 15.8514C42.6486 15.8837 42.5987 15.9293 42.5575 15.9881C42.5193 16.0439 42.4884 16.1115 42.4649 16.1909C42.4443 16.2703 42.4341 16.3555 42.4341 16.4466V17.496H41.8565V16.2394C41.8565 15.9455 41.7301 15.7985 41.4773 15.7985C41.4038 15.7985 41.3391 15.8161 41.2833 15.8514C41.2274 15.8837 41.1804 15.9293 41.1422 15.9881C41.104 16.0439 41.0746 16.1115 41.054 16.1909C41.0335 16.2703 41.0232 16.3555 41.0232 16.4466V17.496H40.4456V15.3356Z" fill="#253070"/>
<path d="M46.3708 16.9757C46.2709 17.1521 46.1357 17.2946 45.9652 17.4034C45.7976 17.5122 45.5919 17.5665 45.3479 17.5665C45.1833 17.5665 45.0305 17.5386 44.8894 17.4828C44.7512 17.424 44.6307 17.3431 44.5278 17.2403C44.425 17.1374 44.3441 17.0169 44.2853 16.8787C44.2295 16.7376 44.2016 16.5833 44.2016 16.4158C44.2016 16.26 44.2295 16.113 44.2853 15.9749C44.3412 15.8338 44.4191 15.7118 44.519 15.6089C44.619 15.5031 44.7365 15.4193 44.8717 15.3576C45.0099 15.2959 45.1613 15.265 45.3259 15.265C45.4993 15.265 45.6536 15.2944 45.7888 15.3532C45.924 15.409 46.0372 15.4884 46.1283 15.5913C46.2194 15.6912 46.2885 15.8103 46.3355 15.9484C46.3826 16.0866 46.4061 16.2365 46.4061 16.3981C46.4061 16.4187 46.4061 16.4363 46.4061 16.451C46.4032 16.4687 46.4017 16.4848 46.4017 16.4995C46.3987 16.5142 46.3973 16.5304 46.3973 16.548H44.7703C44.7821 16.6362 44.8056 16.7126 44.8409 16.7773C44.8791 16.839 44.9247 16.8919 44.9776 16.936C45.0334 16.9772 45.0937 17.0081 45.1583 17.0286C45.223 17.0463 45.2891 17.0551 45.3567 17.0551C45.489 17.0551 45.5978 17.0257 45.683 16.9669C45.7712 16.9052 45.8403 16.8288 45.8902 16.7376L46.3708 16.9757ZM45.8461 16.138C45.8432 16.0998 45.83 16.0572 45.8065 16.0101C45.7859 15.9631 45.7536 15.919 45.7095 15.8779C45.6683 15.8367 45.6154 15.8029 45.5507 15.7765C45.489 15.75 45.4141 15.7368 45.3259 15.7368C45.2024 15.7368 45.0937 15.7721 44.9996 15.8426C44.9055 15.9131 44.8394 16.0116 44.8012 16.138H45.8461Z" fill="#253070"/>
<path d="M46.775 15.3356H47.3173V15.6354H47.3526C47.379 15.5825 47.4143 15.534 47.4584 15.4899C47.5025 15.4458 47.551 15.4076 47.6039 15.3752C47.6597 15.3429 47.7185 15.3179 47.7802 15.3003C47.8449 15.2826 47.9081 15.2738 47.9698 15.2738C48.0462 15.2738 48.1109 15.2812 48.1638 15.2959C48.2197 15.3106 48.2667 15.3297 48.3049 15.3532L48.1506 15.8779C48.1153 15.8602 48.0756 15.847 48.0315 15.8382C47.9904 15.8264 47.939 15.8206 47.8772 15.8206C47.7979 15.8206 47.7259 15.8367 47.6612 15.8691C47.5965 15.8984 47.5407 15.9411 47.4936 15.9969C47.4496 16.0528 47.4143 16.1189 47.3878 16.1953C47.3643 16.2688 47.3526 16.3496 47.3526 16.4378V17.496H46.775V15.3356Z" fill="#253070"/>
<path d="M50.4872 16.9449C50.3931 17.1271 50.2608 17.277 50.0904 17.3946C49.9228 17.5092 49.7127 17.5665 49.4599 17.5665C49.2923 17.5665 49.138 17.5386 48.9969 17.4828C48.8588 17.424 48.7383 17.3431 48.6354 17.2403C48.5354 17.1374 48.4561 17.0169 48.3973 16.8787C48.3414 16.7376 48.3135 16.5833 48.3135 16.4158C48.3135 16.2482 48.3414 16.0939 48.3973 15.9528C48.4561 15.8117 48.5354 15.6912 48.6354 15.5913C48.7383 15.4884 48.8588 15.409 48.9969 15.3532C49.138 15.2944 49.2923 15.265 49.4599 15.265C49.7097 15.265 49.9199 15.3223 50.0904 15.437C50.2608 15.5516 50.3858 15.7 50.4651 15.8823L49.9361 16.1027C49.8861 16.0028 49.8214 15.9278 49.7421 15.8779C49.6656 15.825 49.5686 15.7985 49.4511 15.7985C49.3746 15.7985 49.3026 15.8132 49.235 15.8426C49.1674 15.872 49.1071 15.9131 49.0542 15.966C49.0043 16.019 48.9646 16.0836 48.9352 16.16C48.9058 16.2365 48.8911 16.3217 48.8911 16.4158C48.8911 16.5098 48.9058 16.5951 48.9352 16.6715C48.9646 16.7479 49.0043 16.8126 49.0542 16.8655C49.1071 16.9184 49.1674 16.9596 49.235 16.9889C49.3026 17.0183 49.3746 17.033 49.4511 17.033C49.5716 17.033 49.673 17.0066 49.7553 16.9537C49.8405 16.8978 49.9081 16.8185 49.9581 16.7156L50.4872 16.9449Z" fill="#253070"/>
<path d="M52.8638 16.9757C52.7639 17.1521 52.6287 17.2946 52.4582 17.4034C52.2907 17.5122 52.0849 17.5665 51.8409 17.5665C51.6763 17.5665 51.5235 17.5386 51.3824 17.4828C51.2442 17.424 51.1237 17.3431 51.0208 17.2403C50.918 17.1374 50.8371 17.0169 50.7784 16.8787C50.7225 16.7376 50.6946 16.5833 50.6946 16.4158C50.6946 16.26 50.7225 16.113 50.7784 15.9749C50.8342 15.8338 50.9121 15.7118 51.012 15.6089C51.112 15.5031 51.2295 15.4193 51.3648 15.3576C51.5029 15.2959 51.6543 15.265 51.8189 15.265C51.9923 15.265 52.1466 15.2944 52.2818 15.3532C52.417 15.409 52.5302 15.4884 52.6213 15.5913C52.7125 15.6912 52.7815 15.8103 52.8286 15.9484C52.8756 16.0866 52.8991 16.2365 52.8991 16.3981C52.8991 16.4187 52.8991 16.4363 52.8991 16.451C52.8962 16.4687 52.8947 16.4848 52.8947 16.4995C52.8918 16.5142 52.8903 16.5304 52.8903 16.548H51.2633C51.2751 16.6362 51.2986 16.7126 51.3339 16.7773C51.3721 16.839 51.4177 16.8919 51.4706 16.936C51.5264 16.9772 51.5867 17.0081 51.6513 17.0286C51.716 17.0463 51.7821 17.0551 51.8497 17.0551C51.982 17.0551 52.0908 17.0257 52.176 16.9669C52.2642 16.9052 52.3333 16.8288 52.3832 16.7376L52.8638 16.9757ZM52.3392 16.138C52.3362 16.0998 52.323 16.0572 52.2995 16.0101C52.2789 15.9631 52.2466 15.919 52.2025 15.8779C52.1613 15.8367 52.1084 15.8029 52.0437 15.7765C51.982 15.75 51.9071 15.7368 51.8189 15.7368C51.6954 15.7368 51.5867 15.7721 51.4926 15.8426C51.3986 15.9131 51.3324 16.0116 51.2942 16.138H52.3392Z" fill="#253070"/>
<path d="M27.4149 24.5665C27.2797 24.5665 27.1504 24.5474 27.027 24.5092C26.9035 24.471 26.7903 24.4137 26.6875 24.3373C26.5846 24.2608 26.4949 24.1683 26.4185 24.0595C26.3421 23.9478 26.2818 23.8185 26.2377 23.6715L26.7977 23.451C26.8388 23.6098 26.9108 23.742 27.0137 23.8479C27.1166 23.9507 27.2518 24.0022 27.4194 24.0022C27.4811 24.0022 27.5399 23.9948 27.5957 23.9801C27.6545 23.9625 27.7059 23.939 27.75 23.9096C27.7971 23.8773 27.8338 23.8376 27.8603 23.7905C27.8867 23.7435 27.8999 23.6891 27.8999 23.6274C27.8999 23.5686 27.8897 23.5157 27.8691 23.4687C27.8485 23.4217 27.8132 23.3776 27.7633 23.3364C27.7162 23.2953 27.653 23.2556 27.5737 23.2174C27.4972 23.1792 27.4017 23.1395 27.2871 23.0983L27.0931 23.0278C27.0078 22.9984 26.9211 22.9587 26.833 22.9087C26.7477 22.8588 26.6698 22.7985 26.5993 22.728C26.5287 22.6574 26.4699 22.5751 26.4229 22.4811C26.3788 22.3841 26.3568 22.2753 26.3568 22.1548C26.3568 22.0313 26.3803 21.9167 26.4273 21.8109C26.4773 21.7021 26.5464 21.6081 26.6345 21.5287C26.7257 21.4464 26.833 21.3832 26.9564 21.3391C27.0828 21.2921 27.2224 21.2686 27.3753 21.2686C27.534 21.2686 27.6707 21.2906 27.7853 21.3347C27.9029 21.3759 28.0014 21.4302 28.0807 21.4978C28.163 21.5625 28.2292 21.6345 28.2791 21.7139C28.3291 21.7932 28.3658 21.8682 28.3893 21.9387L27.8647 22.1592C27.8353 22.071 27.7809 21.9916 27.7015 21.9211C27.6251 21.8506 27.5193 21.8153 27.3841 21.8153C27.2548 21.8153 27.1475 21.8462 27.0622 21.9079C26.977 21.9667 26.9344 22.0446 26.9344 22.1416C26.9344 22.2356 26.9755 22.3164 27.0578 22.3841C27.1401 22.4487 27.2709 22.5119 27.4502 22.5736L27.6486 22.6398C27.775 22.6839 27.8897 22.7353 27.9925 22.7941C28.0984 22.8499 28.188 22.9175 28.2615 22.9969C28.3379 23.0763 28.3952 23.1674 28.4334 23.2703C28.4746 23.3702 28.4952 23.4863 28.4952 23.6186C28.4952 23.7832 28.4614 23.9258 28.3938 24.0463C28.3291 24.1638 28.2453 24.2608 28.1424 24.3373C28.0396 24.4137 27.9235 24.471 27.7941 24.5092C27.6648 24.5474 27.5384 24.5665 27.4149 24.5665Z" fill="#253070"/>
<path d="M30.9607 23.9757C30.8607 24.1521 30.7255 24.2946 30.555 24.4034C30.3875 24.5122 30.1818 24.5665 29.9378 24.5665C29.7732 24.5665 29.6203 24.5386 29.4792 24.4828C29.3411 24.424 29.2206 24.3431 29.1177 24.2403C29.0148 24.1374 28.934 24.0169 28.8752 23.8787C28.8194 23.7376 28.7914 23.5833 28.7914 23.4158C28.7914 23.26 28.8194 23.113 28.8752 22.9749C28.9311 22.8338 29.0089 22.7118 29.1089 22.6089C29.2088 22.5031 29.3264 22.4193 29.4616 22.3576C29.5998 22.2959 29.7511 22.265 29.9157 22.265C30.0892 22.265 30.2435 22.2944 30.3787 22.3532C30.5139 22.409 30.6271 22.4884 30.7182 22.5913C30.8093 22.6912 30.8784 22.8103 30.9254 22.9484C30.9724 23.0866 30.996 23.2365 30.996 23.3981C30.996 23.4187 30.996 23.4363 30.996 23.451C30.993 23.4687 30.9915 23.4848 30.9915 23.4995C30.9886 23.5142 30.9871 23.5304 30.9871 23.548H29.3602C29.372 23.6362 29.3955 23.7126 29.4307 23.7773C29.469 23.839 29.5145 23.8919 29.5674 23.936C29.6233 23.9772 29.6835 24.0081 29.7482 24.0286C29.8129 24.0463 29.879 24.0551 29.9466 24.0551C30.0789 24.0551 30.1876 24.0257 30.2729 23.9669C30.3611 23.9052 30.4301 23.8288 30.4801 23.7376L30.9607 23.9757ZM30.436 23.138C30.4331 23.0998 30.4198 23.0572 30.3963 23.0101C30.3757 22.9631 30.3434 22.919 30.2993 22.8779C30.2582 22.8367 30.2053 22.8029 30.1406 22.7765C30.0789 22.75 30.0039 22.7368 29.9157 22.7368C29.7923 22.7368 29.6835 22.7721 29.5895 22.8426C29.4954 22.9131 29.4293 23.0116 29.3911 23.138H30.436Z" fill="#253070"/>
<path d="M31.3648 22.3356H31.9071V22.6354H31.9424C31.9689 22.5825 32.0041 22.534 32.0482 22.4899C32.0923 22.4458 32.1408 22.4076 32.1937 22.3752C32.2496 22.3429 32.3084 22.3179 32.3701 22.3003C32.4348 22.2826 32.498 22.2738 32.5597 22.2738C32.6361 22.2738 32.7008 22.2812 32.7537 22.2959C32.8095 22.3106 32.8566 22.3297 32.8948 22.3532L32.7405 22.8779C32.7052 22.8602 32.6655 22.847 32.6214 22.8382C32.5803 22.8264 32.5288 22.8206 32.4671 22.8206C32.3877 22.8206 32.3157 22.8367 32.2511 22.8691C32.1864 22.8984 32.1305 22.9411 32.0835 22.9969C32.0394 23.0528 32.0041 23.1189 31.9777 23.1953C31.9542 23.2688 31.9424 23.3496 31.9424 23.4378V24.496H31.3648V22.3356Z" fill="#253070"/>
<path d="M32.9741 22.3356H33.631L34.169 23.7112H34.1998L34.7421 22.3356H35.3947L34.4644 24.496H33.8956L32.9741 22.3356Z" fill="#253070"/>
<path d="M35.9795 22.0225C35.9295 22.0225 35.881 22.0137 35.834 21.9961C35.7899 21.9755 35.7502 21.949 35.7149 21.9167C35.6826 21.8814 35.6562 21.8417 35.6356 21.7977C35.6179 21.7536 35.6091 21.7051 35.6091 21.6522C35.6091 21.5992 35.6179 21.5507 35.6356 21.5067C35.6562 21.4626 35.6826 21.4244 35.7149 21.392C35.7502 21.3567 35.7899 21.3303 35.834 21.3127C35.881 21.2921 35.9295 21.2818 35.9795 21.2818C36.0824 21.2818 36.1705 21.3185 36.244 21.392C36.3175 21.4626 36.3543 21.5493 36.3543 21.6522C36.3543 21.755 36.3175 21.8432 36.244 21.9167C36.1705 21.9872 36.0824 22.0225 35.9795 22.0225ZM35.6929 24.496V22.3356H36.2705V24.496H35.6929Z" fill="#253070"/>
<path d="M38.8273 23.9449C38.7333 24.1271 38.601 24.277 38.4305 24.3946C38.263 24.5092 38.0528 24.5665 37.8 24.5665C37.6325 24.5665 37.4782 24.5386 37.3371 24.4828C37.1989 24.424 37.0784 24.3431 36.9755 24.2403C36.8756 24.1374 36.7962 24.0169 36.7374 23.8787C36.6816 23.7376 36.6537 23.5833 36.6537 23.4158C36.6537 23.2482 36.6816 23.0939 36.7374 22.9528C36.7962 22.8117 36.8756 22.6912 36.9755 22.5913C37.0784 22.4884 37.1989 22.409 37.3371 22.3532C37.4782 22.2944 37.6325 22.265 37.8 22.265C38.0499 22.265 38.26 22.3223 38.4305 22.437C38.601 22.5516 38.7259 22.7 38.8053 22.8823L38.2762 23.1027C38.2262 23.0028 38.1616 22.9278 38.0822 22.8779C38.0058 22.825 37.9088 22.7985 37.7912 22.7985C37.7148 22.7985 37.6428 22.8132 37.5751 22.8426C37.5075 22.872 37.4473 22.9131 37.3944 22.966C37.3444 23.019 37.3047 23.0836 37.2753 23.16C37.2459 23.2365 37.2312 23.3217 37.2312 23.4158C37.2312 23.5098 37.2459 23.5951 37.2753 23.6715C37.3047 23.7479 37.3444 23.8126 37.3944 23.8655C37.4473 23.9184 37.5075 23.9596 37.5751 23.9889C37.6428 24.0183 37.7148 24.033 37.7912 24.033C37.9117 24.033 38.0131 24.0066 38.0954 23.9537C38.1807 23.8978 38.2483 23.8185 38.2982 23.7156L38.8273 23.9449Z" fill="#253070"/>
<path d="M41.204 23.9757C41.104 24.1521 40.9688 24.2946 40.7983 24.4034C40.6308 24.5122 40.425 24.5665 40.1811 24.5665C40.0165 24.5665 39.8636 24.5386 39.7225 24.4828C39.5844 24.424 39.4639 24.3431 39.361 24.2403C39.2581 24.1374 39.1773 24.0169 39.1185 23.8787C39.0626 23.7376 39.0347 23.5833 39.0347 23.4158C39.0347 23.26 39.0626 23.113 39.1185 22.9749C39.1743 22.8338 39.2522 22.7118 39.3522 22.6089C39.4521 22.5031 39.5697 22.4193 39.7049 22.3576C39.843 22.2959 39.9944 22.265 40.159 22.265C40.3324 22.265 40.4868 22.2944 40.622 22.3532C40.7572 22.409 40.8703 22.4884 40.9615 22.5913C41.0526 22.6912 41.1217 22.8103 41.1687 22.9484C41.2157 23.0866 41.2392 23.2365 41.2392 23.3981C41.2392 23.4187 41.2392 23.4363 41.2392 23.451C41.2363 23.4687 41.2348 23.4848 41.2348 23.4995C41.2319 23.5142 41.2304 23.5304 41.2304 23.548H39.6035C39.6152 23.6362 39.6388 23.7126 39.674 23.7773C39.7122 23.839 39.7578 23.8919 39.8107 23.936C39.8666 23.9772 39.9268 24.0081 39.9915 24.0286C40.0561 24.0463 40.1223 24.0551 40.1899 24.0551C40.3222 24.0551 40.4309 24.0257 40.5162 23.9669C40.6043 23.9052 40.6734 23.8288 40.7234 23.7376L41.204 23.9757ZM40.6793 23.138C40.6764 23.0998 40.6631 23.0572 40.6396 23.0101C40.619 22.9631 40.5867 22.919 40.5426 22.8779C40.5015 22.8367 40.4486 22.8029 40.3839 22.7765C40.3222 22.75 40.2472 22.7368 40.159 22.7368C40.0356 22.7368 39.9268 22.7721 39.8328 22.8426C39.7387 22.9131 39.6726 23.0116 39.6343 23.138H40.6793Z" fill="#253070"/>
<path d="M42.485 24.5665C42.3439 24.5665 42.2175 24.5489 42.1058 24.5136C41.9971 24.4784 41.9015 24.4328 41.8192 24.3769C41.7399 24.3182 41.6723 24.252 41.6164 24.1785C41.5606 24.1021 41.518 24.0257 41.4886 23.9493L42.0044 23.7288C42.0544 23.8405 42.1205 23.9243 42.2028 23.9801C42.2881 24.033 42.3821 24.0595 42.485 24.0595C42.5908 24.0595 42.6746 24.0404 42.7363 24.0022C42.798 23.964 42.8289 23.9184 42.8289 23.8655C42.8289 23.8067 42.8025 23.7597 42.7495 23.7244C42.6996 23.6862 42.6114 23.6524 42.485 23.623L42.1808 23.5569C42.1132 23.5422 42.0426 23.5186 41.9691 23.4863C41.8986 23.454 41.8339 23.4128 41.7751 23.3629C41.7164 23.3129 41.6679 23.2526 41.6296 23.1821C41.5914 23.1115 41.5723 23.0292 41.5723 22.9352C41.5723 22.8294 41.5944 22.7353 41.6385 22.653C41.6855 22.5707 41.7487 22.5016 41.8281 22.4458C41.9074 22.387 42 22.3429 42.1058 22.3135C42.2146 22.2812 42.3307 22.265 42.4541 22.265C42.6599 22.265 42.8436 22.3062 43.0053 22.3885C43.1669 22.4678 43.286 22.5957 43.3624 22.7721L42.8642 22.9749C42.823 22.8896 42.7628 22.8279 42.6834 22.7897C42.604 22.7515 42.5247 22.7324 42.4453 22.7324C42.363 22.7324 42.291 22.75 42.2293 22.7853C42.1676 22.8176 42.1367 22.8602 42.1367 22.9131C42.1367 22.9631 42.1617 23.0028 42.2116 23.0322C42.2645 23.0616 42.3351 23.088 42.4233 23.1115L42.754 23.1909C42.9744 23.2438 43.1375 23.3291 43.2434 23.4466C43.3521 23.5613 43.4065 23.698 43.4065 23.8567C43.4065 23.9507 43.3844 24.0404 43.3404 24.1256C43.2963 24.2109 43.2331 24.2873 43.1508 24.3549C43.0714 24.4196 42.9744 24.471 42.8598 24.5092C42.7481 24.5474 42.6232 24.5665 42.485 24.5665Z" fill="#253070"/>
</svg>
