<svg width="32" height="32" viewBox="0 0 32 32" fill="none" xmlns="http://www.w3.org/2000/svg">
<path d="M6.20006 21.5539C6.19597 21.1121 6.55081 20.7506 6.99262 20.7465L12.0051 20.7001C12.4469 20.696 12.8084 21.0508 12.8125 21.4927C12.8166 21.9345 12.4617 22.2959 12.0199 22.3L7.00743 22.3464C6.56562 22.3505 6.20415 21.9957 6.20006 21.5539Z" fill="#11317B"/>
<path fill-rule="evenodd" clip-rule="evenodd" d="M25.8001 14.4463C25.8001 11.7097 23.687 9.43762 20.9576 9.23942C15.9925 8.87885 11.0077 8.87885 6.04251 9.23942C3.31317 9.43762 1.20007 11.7097 1.20007 14.4463V23.5385C1.20007 26.287 3.3232 28.5686 6.06456 28.7662C11.0151 29.123 15.985 29.123 20.9356 28.7662C23.6769 28.5686 25.8001 26.287 25.8001 23.5385V14.4463ZM20.8417 10.8352C22.7346 10.9727 24.2001 12.5484 24.2001 14.4463V15.2H2.80007V14.4463C2.80007 12.5484 4.26555 10.9727 6.1584 10.8352C11.0464 10.4803 15.9537 10.4803 20.8417 10.8352ZM2.80007 16.8L2.80007 23.5385C2.80007 25.4479 4.27507 27.0331 6.17957 27.1703C11.0536 27.5216 15.9466 27.5216 20.8206 27.1703C22.7251 27.0331 24.2001 25.4479 24.2001 23.5385V16.8H2.80007Z" fill="#11317B"/>
<path d="M30.8001 10.3659C30.8001 7.48083 28.5941 5.07472 25.7199 4.82479C20.9157 4.40704 16.0844 4.40704 11.2802 4.82479L10.7992 4.86662C8.41909 5.07358 6.54516 6.91375 6.2428 9.22507C6.78992 9.18641 7.33727 9.15213 7.8848 9.12222C8.2081 7.69427 9.42261 6.59236 10.9378 6.46061L11.4188 6.41877C16.1308 6.00904 20.8694 6.00904 25.5813 6.41877C27.6287 6.59681 29.2001 8.31076 29.2001 10.3659V19C29.2001 21.0461 27.737 22.7504 25.8 23.1239V23.5385C25.8 23.9597 25.7501 24.3699 25.6558 24.7633C28.5503 24.4376 30.8001 21.9815 30.8001 19V10.3659Z" fill="#3083FF"/>
</svg>
