<svg width="32" height="32" viewBox="0 0 32 32" fill="none" xmlns="http://www.w3.org/2000/svg">
<path fill-rule="evenodd" clip-rule="evenodd" d="M23.3008 18.3314H21.5756C21.3547 18.3314 21.1756 18.5105 21.1756 18.7314V21.5687C21.1756 21.7897 21.3547 21.9687 21.5756 21.9687H23.3008C23.5217 21.9687 23.7008 21.7897 23.7008 21.5687V18.7314C23.7008 18.5105 23.5217 18.3314 23.3008 18.3314ZM21.5756 16.7314C20.4711 16.7314 19.5756 17.6268 19.5756 18.7314V21.5687C19.5756 22.6733 20.4711 23.5687 21.5756 23.5687H23.3008C24.4053 23.5687 25.3008 22.6733 25.3008 21.5687V18.7314C25.3008 17.6268 24.4053 16.7314 23.3008 16.7314H21.5756Z" fill="#3083FF"/>
<path fill-rule="evenodd" clip-rule="evenodd" d="M19.7777 10.8C18.7005 10.8 17.8 11.6954 17.8 12.8341V22.9761C17.8 24.0252 18.5713 24.8837 19.5604 24.9944C22.0128 25.2687 24.4871 25.2687 26.9395 24.9944C27.9286 24.8837 28.7 24.0252 28.7 22.9761V15.9116C28.7 15.0659 28.3202 14.2716 27.6772 13.7538L24.5467 11.2325C24.1974 10.9513 23.7678 10.8 23.3274 10.8H19.7777ZM16.2 12.8341C16.2 10.8423 17.7867 9.19995 19.7777 9.19995H23.3274C24.136 9.19995 24.9191 9.4781 25.5503 9.98642L28.6808 12.5077C29.7063 13.3336 30.3 14.5886 30.3 15.9116V22.9761C30.3 24.8144 28.9413 26.3804 27.1174 26.5844C24.5468 26.872 21.9531 26.872 19.3825 26.5844C17.5586 26.3804 16.2 24.8144 16.2 22.9761V12.8341Z" fill="#3083FF"/>
<path fill-rule="evenodd" clip-rule="evenodd" d="M21.6573 3.43347C21.5254 3.41882 21.3935 3.40469 21.2616 3.39106L21.1587 4.3206C21.0018 5.73918 19.803 6.81268 18.3757 6.81268H13.6242C12.197 6.81268 10.9982 5.73918 10.8412 4.3206L10.7384 3.39106C10.6064 3.40468 10.4745 3.41882 10.3426 3.43347C8.89507 3.59431 7.79995 4.81785 7.79995 6.27431V26.7256C7.79995 28.1821 8.89507 29.4056 10.3426 29.5664C14.1026 29.9842 17.8973 29.9842 21.6573 29.5664C23.0844 29.4079 24.169 28.2164 24.1993 26.7871C24.7332 26.7726 25.2669 26.7457 25.7999 26.7065V26.7256C25.7999 28.9973 24.0918 30.9058 21.834 31.1567C17.9566 31.5875 14.0433 31.5875 10.1659 31.1567C7.90809 30.9058 6.19995 28.9973 6.19995 26.7256V6.27431C6.19995 4.00258 7.90809 2.09413 10.1659 1.84326C14.0433 1.41244 17.9566 1.41244 21.834 1.84326C24.0918 2.09413 25.7999 4.00258 25.7999 6.27431V10.1875L25.5503 9.98642C25.1504 9.66439 24.6896 9.43474 24.2 9.30967V6.27431C24.2 4.81785 23.1048 3.59431 21.6573 3.43347ZM12.3327 3.25157C14.7744 3.07633 17.2256 3.07633 19.6673 3.25157L19.5684 4.14464C19.5012 4.75261 18.9874 5.21268 18.3757 5.21268H13.6242C13.0126 5.21268 12.4988 4.75261 12.4315 4.14465L12.3327 3.25157Z" fill="#11317B"/>
</svg>
