<svg width="56" height="32" viewBox="0 0 56 32" fill="none" xmlns="http://www.w3.org/2000/svg">
<path d="M15.3035 10.391C15.3035 9.67696 14.7137 9.09814 13.9863 9.09814C13.2588 9.09814 12.6691 9.67696 12.6691 10.391V20.0947C12.6691 21.3388 13.3547 22.4856 14.4613 23.0924C15.7862 23.819 17.4002 23.819 18.7251 23.0924C19.8316 22.4856 20.5172 21.3388 20.5172 20.0947V10.391C20.5172 9.67696 19.9275 9.09814 19.2001 9.09814C18.4726 9.09814 17.8829 9.67696 17.8829 10.391V20.0947C17.8829 20.402 17.7135 20.6853 17.4402 20.8351C16.9138 21.1238 16.2725 21.1238 15.7461 20.8351C15.4728 20.6853 15.3035 20.402 15.3035 20.0947V10.391Z" fill="#E83388"/>
<path d="M24.0515 9.09814C24.7335 9.09814 25.2944 9.60687 25.3619 10.2588C25.3664 10.3023 25.3687 10.3463 25.3687 10.391V13.8924C25.3687 14.5171 25.8847 15.0236 26.5212 15.0236C27.1577 15.0236 27.6737 14.5171 27.6737 13.8924V10.391C27.6737 9.67696 28.2634 9.09814 28.9908 9.09814C29.7183 9.09814 30.308 9.67696 30.308 10.391V13.8924C30.308 15.9452 28.6126 17.6093 26.5212 17.6093C26.1193 17.6093 25.7321 17.5478 25.3687 17.434V22.3731C25.3687 23.0871 24.7789 23.6659 24.0515 23.6659C23.3241 23.6659 22.7343 23.0871 22.7343 22.3731V10.391C22.7343 9.67696 23.3241 9.09814 24.0515 9.09814Z" fill="#E83388"/>
<path d="M34.861 10.391C34.861 9.67696 34.2712 9.09814 33.5438 9.09814C32.8163 9.09814 32.2266 9.67696 32.2266 10.391V22.3731C32.2266 23.0871 32.8163 23.6659 33.5438 23.6659C34.2712 23.6659 34.861 23.0871 34.861 22.3731V17.6093L41.398 17.6093C42.1254 17.6093 42.7152 17.0304 42.7152 16.3164C42.7152 15.6024 42.1254 15.0236 41.398 15.0236H40.2322C39.2925 15.0236 38.5308 14.276 38.5308 13.3537C38.5308 12.4314 39.2925 11.6838 40.2322 11.6838H40.6303C41.3577 11.6838 41.9475 11.105 41.9475 10.391C41.9475 9.67696 41.3577 9.09814 40.6303 9.09814H40.2322C37.8377 9.09814 35.8965 11.0034 35.8965 13.3537C35.8965 13.9465 36.02 14.5109 36.2431 15.0236H34.861V10.391Z" fill="#E83388"/>
<path d="M7.83501 15.9949C7.66304 16.1024 7.49106 16.1884 7.31908 16.2529L6.80315 16.3819C7.36208 16.5324 7.921 16.8011 8.47992 17.188C9.06034 17.5535 9.63002 17.8974 10.1889 18.2199L9.31831 19.6709L7.09336 18.3489C6.8569 18.2199 6.66342 18.1016 6.51294 17.9942C6.36246 17.8867 6.22273 17.7577 6.09375 17.6072C6.20123 17.8867 6.25498 18.2306 6.25498 18.6391V21.4122H4.51372V18.8003C4.51372 18.3489 4.55671 17.9619 4.6427 17.6395C4.53521 17.7684 4.40623 17.8867 4.25575 17.9942C4.12677 18.0801 3.97629 18.1769 3.80432 18.2844L1.45039 19.6064L0.612005 18.2199L2.8047 16.8656C3.04117 16.7581 3.24539 16.6613 3.41737 16.5753C3.58935 16.4894 3.78282 16.4249 3.99779 16.3819C3.80431 16.3389 3.62159 16.2959 3.44961 16.2529C3.27764 16.1884 3.10566 16.1024 2.93369 15.9949L0.579758 14.6084L1.45039 13.1573L3.70758 14.4794C3.90105 14.5869 4.07303 14.7051 4.22351 14.8341C4.37399 14.9416 4.53522 15.0706 4.70719 15.221C4.6212 15.0491 4.56746 14.8771 4.54596 14.7051C4.52447 14.5116 4.51372 14.3289 4.51372 14.1569V11.3516H6.25498V13.9957C6.25498 14.2322 6.24423 14.4471 6.22273 14.6406C6.22273 14.8341 6.17974 15.0276 6.09375 15.221C6.35171 14.9631 6.64193 14.7373 6.96438 14.5439L9.31831 13.1896L10.1889 14.6406L7.83501 15.9949Z" fill="#E83388"/>
<path fill-rule="evenodd" clip-rule="evenodd" d="M48.6738 19.2292L48.2451 21.6471L46.5862 21.419L46.9736 19.2292H45.0454V17.4997H47.2814L47.6552 15.332H45.4198V13.5344H47.9278L48.3395 11.1162L49.9799 11.3446L49.6262 13.5344H51.7238L52.1525 11.1166L53.8113 11.3447L53.4239 13.5344H55.4202V15.332H53.1493L52.7606 17.4997H55.0458V19.2292H52.4697L52.0581 21.6472L50.3995 21.4191L50.7701 19.2292H48.6738ZM51.4344 15.332L51.0757 17.4997H48.9802L49.3389 15.332H51.4344Z" fill="#E83388"/>
</svg>
