<svg xmlns="http://www.w3.org/2000/svg" width="103" height="64.469"><path data-name="Path 1" d="M74.547 1.286C75.169.854 75.801.422 76.432 0c.622.423 1.234.864 1.857 1.3-.613 1.033-1.234 2.056-1.847 3.08-.632-1.037-1.254-2.07-1.895-3.094Z" fill="#e5bfb2"/><path data-name="Path 2" d="M81.531 1.615c.81-.272 1.63-.535 2.441-.817.528.667 1.074 1.314 1.6 1.981q-1.484 1.38-2.969 2.77c-.365-1.305-.733-2.619-1.072-3.934Z" fill="#d09ca0"/><path data-name="Path 3" d="M88.458 4.15c.971-.028 1.941.019 2.912-.056.387.9.726 1.821 1.075 2.732q-2.092.972-4.185 1.962c.047-1.539.132-3.089.198-4.638Z" fill="#a26769"/><path data-name="Path 4" d="M76.329 4.658c.132-.131.283.028.405.094 1.357.976 2.743 1.915 4.1 2.882-1.452 2.422-2.912 4.835-4.364 7.267-1.517-2.413-2.988-4.854-4.467-7.3 1.442-.972 2.884-1.967 4.326-2.943Z" fill="#000153"/><path data-name="Path 5" d="M62.672 8.272c1.621.066 3.242.207 4.863.31l.028 7.709c-2.243-1.164-4.486-2.319-6.72-3.483-.226-.047-.085-.272-.038-.413q.934-2.057 1.867-4.123Z" fill="#15159f"/><path data-name="Path 6" d="M94.999 9.389c1.027.347 2.045.742 3.063 1.108.009 1.07.019 2.15.019 3.22-1.706.122-3.4.263-5.108.4.678-1.573 1.367-3.141 2.026-4.728Z" fill="#8d4b41"/><path data-name="Path 7" d="M53.888 17.07c1.357-.535 2.714-1.08 4.081-1.606 1.008 2.085 2.007 4.169 3.016 6.253-1.225-.019-2.46-.094-3.685-.122-1.112-.084-2.224-.047-3.336-.141-.007-1.455-.048-2.92-.076-4.384Z" fill="#0a07e8"/><path data-name="Path 8" d="M95.828 21.111c1.31-1.324 2.658-2.61 3.977-3.915.858.8 1.743 1.578 2.6 2.385a192.916 192.916 0 0 0-1.3 3.2c-1.762-.547-3.506-1.138-5.277-1.67Z" fill="#7e3633"/><path data-name="Path 9" d="M49.949 27.801c.914-.93 1.782-1.906 2.7-2.826 1.593 1.324 3.214 2.62 4.816 3.934-1.932.808-3.845 1.634-5.777 2.441-.58-1.183-1.164-2.366-1.739-3.549Z" fill="#3a39eb"/><path data-name="Path 10" d="M74.161 17.514a6.747 6.747 0 0 0-4.524 1.53 6.31 6.31 0 0 0-1.791 4.112c.6.066 1.206.124 1.81.183s1.206.117 1.81.183a4.14 4.14 0 0 1 .678-2.15 2.355 2.355 0 0 1 1.734-.826 2.586 2.586 0 0 1 2.121.723 2.808 2.808 0 0 1 .565 2.2 4.731 4.731 0 0 1-1.423 2.667c-.726.769-1.5 1.5-2.267 2.221a32.1 32.1 0 0 0-3.68 3.873 8.881 8.881 0 0 0-1.781 4.4h12.271v3.774h3.581c.006-.87 0-1.735 0-2.6v-1.3h2.422v-3.23c-.8-.009-1.612-.009-2.413 0V20.974h-3.317a5.48 5.48 0 0 0-1.7-2.244 6.491 6.491 0 0 0-4.096-1.216Zm5.541 8.009a11.674 11.674 0 0 1-1.772 2.638c-.718.767-1.49 1.48-2.265 2.195-.467.431-.935.862-1.392 1.307a7.892 7.892 0 0 0-1.3 1.559h6.739v-3.079a445.15 445.15 0 0 0-.01-4.624Z" fill="#6d7170" fill-rule="evenodd"/><path data-name="Path 11" d="M95.734 29.106c1.866-.77 3.723-1.568 5.589-2.347.556 1.145 1.131 2.291 1.678 3.446-.886.9-1.734 1.84-2.62 2.732-1.537-1.286-3.118-2.526-4.647-3.831Z" fill="#682321"/><path data-name="Path 12" d="M51.824 35.191c1.762.526 3.515 1.1 5.287 1.624-1.3 1.324-2.629 2.629-3.939 3.934-.858-.789-1.744-1.559-2.611-2.347.434-1.07.848-2.141 1.263-3.211Z" fill="#4035fe"/><path data-name="Path 13" d="M91.926 36.346c2.328.009 4.646.075 6.965.122.028 1.465.113 2.92.132 4.385-1.338.545-2.677 1.108-4.015 1.643q-1.527-3.085-3.082-6.15Z" fill="#551517"/><path data-name="Path 14" d="m3.57 40.467 1.81-1.577c.217.244.434.5.65.742-.386.338-.782.666-1.169 1 .311.46.6.939.924 1.4.283.526 1.008.413 1.48.235-.019-.244-.057-.488-.085-.732.311-.075.622-.16.933-.216.075.319.038.695.254.948a2.271 2.271 0 0 0 1.3.094 1.691 1.691 0 0 0-.085-.986c.311-.066.613-.132.914-.188a3.1 3.1 0 0 1 .2 1.427 1.126 1.126 0 0 1-1.065.779 2.853 2.853 0 0 1-1.725-.254 3.018 3.018 0 0 1-2.62-.047 2.538 2.538 0 0 1-1.037.3c-.971.009-1.951 0-2.931 0a1.335 1.335 0 0 1-1.169-.46 2.121 2.121 0 0 1 .009-1.427c.32.056.641.122.961.169a5.716 5.716 0 0 0-.019.573.741.741 0 0 0 .594.16h2.46c.179-.009.405.019.518-.16a9.391 9.391 0 0 0-1.102-1.78Z" fill="#890100"/><path data-name="Path 15" d="M19.517 40.467c.613-.516 1.216-1.052 1.819-1.577a5.816 5.816 0 0 1 .622.733c-.349.375-.773.657-1.14 1.014a6.387 6.387 0 0 0 1.235 1.718c.283.16.839.009.8-.385a13.186 13.186 0 0 0-.4-2.479c.32-.056.641-.112.971-.15a16.422 16.422 0 0 1 .471 3.1.839.839 0 0 1-.518.77 2.376 2.376 0 0 1-2.149-.094 3.615 3.615 0 0 1-2.017.282 2.007 2.007 0 0 1-.565-.235 2.08 2.08 0 0 1-1.734.141 1.642 1.642 0 0 1-.942 1.464 9.339 9.339 0 0 1-1.187.6 4.467 4.467 0 0 1-.452-.836c.565-.31 1.319-.5 1.612-1.136a2.377 2.377 0 0 0-.3-1.352c.3-.113.6-.225.9-.329.122.216.17.516.405.638a1.515 1.515 0 0 0 1.037-.066q-.028-.366-.085-.733.467-.127.933-.225c.085.347.009.892.434 1.033a4.259 4.259 0 0 0 1.338 0 1.091 1.091 0 0 0-.123-.432c-.286-.515-.644-.985-.965-1.464Z" fill="#890100"/><path data-name="Path 16" d="M24.644 39.35h.971v4.047h-.971Z" fill="#890100"/><path data-name="Path 17" d="M35.294 39.36h.876v.892h-.876a14.737 14.737 0 0 1 0-.892Z" fill="#890100"/><path data-name="Path 18" d="M38.376 39.35h.971v4.047h-.961c-.01-1.343-.01-2.695-.01-4.047Z" fill="#890100"/><path data-name="Path 19" d="M9.536 39.557h.871v.882H9.54Z" fill="#890100"/><path data-name="Path 20" d="M17.283 39.776h.858v.845h-.858q-.014-.425 0-.845Z" fill="#890100"/><path data-name="Path 21" d="M18.395 39.763h.839v.845h-.848c.009-.272.009-.554.009-.845Z" fill="#890100"/><path data-name="Path 22" d="M29.441 39.746h.876v.883h-.876Z" fill="#890100"/><path data-name="Path 23" d="M30.648 39.746h.877v.883h-.877Z" fill="#890100"/><path data-name="Path 24" d="m40.836 40.711.848-.535a5.353 5.353 0 0 1 1.046 2.159 1.053 1.053 0 0 1-.971 1.042c-.584.056-1.169.009-1.753.028v-1a3.532 3.532 0 0 0 1.744-.1c-.274-.552-.603-1.077-.914-1.594Z" fill="#890100"/><path data-name="Path 25" d="M34.37 40.552c1.046.235 2.073.507 3.119.742a4.408 4.408 0 0 1 .028.864c-.094.16-.311.179-.462.272a11.644 11.644 0 0 1-1.668.854 6.177 6.177 0 0 1-1.555.113 1.382 1.382 0 0 1-.688-.244 1.793 1.793 0 0 1-.9.244h-3.3a1.284 1.284 0 0 1-1.244-.779 3.053 3.053 0 0 1 .1-1.2c.339.047.669.1 1.008.16a4.19 4.19 0 0 0-.094.582c.113.207.386.235.6.244.754.009 1.508 0 2.271 0a1.167 1.167 0 0 0 .773-.169 1.45 1.45 0 0 0-.009-.667l.961-.169c.066.338-.019.92.452.986a5.606 5.606 0 0 0 2.469-.451c-.4-.1-.782-.2-1.178-.272-.009.047-.038.141-.047.188a15.876 15.876 0 0 1-.924-.254q.118-.509.288-1.044Z" fill="#890100"/><path data-name="Path 26" d="M46.848 41.388c.311-.066.613-.132.924-.169.132.573.415 1.249 0 1.775a2.043 2.043 0 0 1-1.979.319 1.48 1.48 0 0 1-.613 1.23 10.611 10.611 0 0 1-1.536.845c-.141-.291-.292-.573-.434-.864a3.874 3.874 0 0 0 1.536-.976c.292-.488-.056-1.042-.226-1.512.3-.113.6-.225.9-.329.141.253.207.667.565.686.32.009.716.1.98-.132a3.36 3.36 0 0 0-.117-.873Z" fill="#890100"/><path data-name="Path 27" d="M12.798 40.711a2.637 2.637 0 0 0-1.329 1.042.99.99 0 0 0 .066 1.371 2.231 2.231 0 0 0 .953.3c.12.018.24.036.357.061a4.413 4.413 0 0 1-1.281.763c-.121.055-.241.109-.359.166.132.282.273.563.415.845a12.372 12.372 0 0 0 1.367-.686 1.577 1.577 0 0 0 .829-1.192v-.491c0-.408.008-.815-.013-1.218a1 1 0 0 0-1.005-.961Zm.122.977a2.609 2.609 0 0 0-.858.676 4.1 4.1 0 0 0 .867.244c.014-.31.014-.61-.009-.92Z" fill="#890100" fill-rule="evenodd"/><path data-name="Path 28" d="M85.214 45.904c.038-1.38.009-2.76.1-4.131 2.187 1.221 4.373 2.422 6.559 3.643-.688 1.408-1.385 2.817-2.064 4.235-1.564-.094-3.119-.291-4.684-.422.034-1.109.015-2.217.089-3.325Z" fill="#43050a"/><path data-name="Path 29" d="M71.931 50.326c1.461-2.5 3-4.958 4.5-7.436 1.517 2.5 3.044 4.995 4.533 7.511q-2.177 1.451-4.335 2.93c-.113.066-.254.216-.368.075-1.441-1.033-2.911-2.019-4.33-3.08Z" fill="#580002"/><path data-name="Path 30" d="M54.934 44.167c1.621-.1 3.233-.141 4.854-.254-.66 1.484-1.366 2.948-2.045 4.422-.952-.366-1.894-.761-2.856-1.127 0-1.013.038-2.027.047-3.041Z" fill="#4e45f6"/><path data-name="Path 31" d="M6.662 44.279h.848v.864h-.848Z" fill="#890100"/><path data-name="Path 32" d="M7.765 45.143v-.864h.848v.864Z" fill="#890100"/><path data-name="Path 33" d="M46.349 44.279h.848v.864h-.848Z" fill="#890100"/><path data-name="Path 34" d="M47.46 44.279h.848c0 .282 0 .573-.009.864h-.848c.009-.291.009-.582.009-.864Z" fill="#890100"/><path data-name="Path 35" d="M46.914 45.378c.283 0 .565-.009.848 0 0 .291 0 .573-.009.864h-.848c0-.291.009-.582.009-.864Z" fill="#890100"/><path data-name="Path 36" d="M7.985 47.256h1.367v1.333H7.985Z" fill="#15159f"/><path data-name="Path 37" d="M16.961 50.223c.952-.807 1.9-1.615 2.846-2.432.339.347.65.723.98 1.089-.622.517-1.244 1.024-1.866 1.54a5.667 5.667 0 0 1 1.3 2.432 1.594 1.594 0 0 1-1.018 1.568 6.051 6.051 0 0 1-2.629.272 2.573 2.573 0 0 1-1.272-.4 3.97 3.97 0 0 1-2.394.375 3.41 3.41 0 0 1-1.008-.366 3.3 3.3 0 0 1-2.29.328 1.414 1.414 0 0 1-.6-.357 1.625 1.625 0 0 1-1.612.31c.16.6.311 1.211.424 1.831-1.14.385-2.243.873-3.4 1.192a5.406 5.406 0 0 1-2.318.216A2.455 2.455 0 0 1 .115 55.68a10.561 10.561 0 0 1 .8-3.906c.481.188.961.357 1.451.535a9.379 9.379 0 0 0-.641 2.892 1.119 1.119 0 0 0 .726 1.033 2.916 2.916 0 0 0 1.744-.084c.66-.2 1.291-.479 1.932-.723-.283-1.126-.575-2.244-.858-3.361.528-.141 1.046-.263 1.574-.394a4.356 4.356 0 0 0 .434 1.277c.16.225.556.357.745.094a2.816 2.816 0 0 0 .358-1.268c.518.094 1.037.16 1.546.263a2.441 2.441 0 0 0-.085 1.042c.33.122.876.216 1.027-.207a4.1 4.1 0 0 0-.217-1.052c.462-.131.924-.282 1.385-.432a7.944 7.944 0 0 0 .349 1.314 1.331 1.331 0 0 0 1.47.432c.16-.047.424-.084.443-.291a6.159 6.159 0 0 0-.151-1c.481-.113.961-.216 1.442-.338a8.709 8.709 0 0 0 .292 1.305c.236.4.763.366 1.169.376a2.849 2.849 0 0 0 1.612-.216 3 3 0 0 0-.547-1.08c-.362-.579-.768-1.119-1.154-1.668Z" fill="#15159f"/><path data-name="Path 38" d="M38.102 48.458h1.517v4.694a3.162 3.162 0 0 0 1.329-.084c.367-.207.169-.695.094-1.014l1.461-.282a2.959 2.959 0 0 0 .377 1.258.412.412 0 0 0 .669-.047 3.646 3.646 0 0 0 .32-1.23c.481.085.952.179 1.432.254a4.291 4.291 0 0 0-.113 1.033.907.907 0 0 0 1.2-.188 5.216 5.216 0 0 0-.283-1.249c.481-.112.971-.216 1.461-.319a8.576 8.576 0 0 1 .339 1.943 1.827 1.827 0 0 1-1.555 1.408 2.02 2.02 0 0 1-1.894-.394 1.508 1.508 0 0 1-1.018.46 1.645 1.645 0 0 1-1.319-.592 2.06 2.06 0 0 1-1.706.592 19.376 19.376 0 0 1-2.328-.207c.017-2.008.017-4.027.017-6.036Z" fill="#15159f"/><path data-name="Path 39" d="M7.049 49.04q.693-.014 1.385 0v1.352H7.049Z" fill="#15159f"/><path data-name="Path 40" d="M8.934 49.04c.452-.009.914-.009 1.367 0v1.352H8.934Z" fill="#15159f"/><path data-name="Path 41" d="M60.486 51.068c1.385-.6 2.761-1.211 4.147-1.822-.1 1.521-.189 3.042-.32 4.563a99.079 99.079 0 0 0-2.884-.056c-.302-.892-.641-1.784-.943-2.685Z" fill="#6861eb"/><path data-name="Path 42" d="M24.239 52.344c0-.46-.009-.92.009-1.38.452 0 .9-.009 1.348.009.009.46 0 .92 0 1.371Z" fill="#15159f"/><path data-name="Path 43" d="M26.435 51.396c.481-.112.971-.216 1.461-.3.349 1.559.726 3.127 1.093 4.685a28.049 28.049 0 0 1-4.392 1.4 3.054 3.054 0 0 1-2.432-.488 2.373 2.373 0 0 1-.942-1.953 10.863 10.863 0 0 1 .833-3.428c.49.122.99.235 1.47.366a8.12 8.12 0 0 0-.65 3.07 1.3 1.3 0 0 0 1.433.948 12.7 12.7 0 0 0 2.978-.854c-.287-1.154-.56-2.3-.852-3.446Z" fill="#15159f"/><path data-name="Path 44" d="M31.647 48.458H30.13v6.037c.2.021.405.048.609.074a10.319 10.319 0 0 0 1.785.124 1.687 1.687 0 0 0 1.131-.582c.149.1.294.206.44.316a2.675 2.675 0 0 0 1.332.661 1.473 1.473 0 0 0 1.584-1.483 8.12 8.12 0 0 0-.355-1.732l-.07-.249a1.289 1.289 0 0 0-.669-.939 1.559 1.559 0 0 0-1.762.507c-.191.239-.359.494-.527.748-.155.234-.309.468-.481.689a1.539 1.539 0 0 1-.716.526 2.417 2.417 0 0 1-.584.011c-.066 0-.132-.008-.2-.011Zm2.837 4.472-.086.129.088.057a7.093 7.093 0 0 0 1.185.666 2.316 2.316 0 0 0-.113-1.211l-.02-.06a.833.833 0 0 0-.291-.484 3.381 3.381 0 0 0-.763.903Z" fill="#15159f" fill-rule="evenodd"/><path data-name="Path 45" d="M67.338 55.218c.99-.939 1.932-1.915 2.912-2.864.4 1.315.82 2.62 1.187 3.934-.811.291-1.621.6-2.441.873-.546-.647-1.102-1.286-1.658-1.943Z" fill="#8d81ff"/><path data-name="Path 46" d="M74.792 56.617c.565-.883 1.084-1.8 1.668-2.667.537.911 1.093 1.812 1.621 2.732-.565.357-1.112.733-1.668 1.108-.537-.394-1.084-.779-1.621-1.173Z" fill="#b4a6fe"/><path data-name="Path 47" d="M13.401 56.072h1.291v1.324H13.41c-.009-.441-.009-.884-.009-1.324Z" fill="#15159f"/><path data-name="Path 48" d="M15.116 56.072h1.319v1.324h-1.31c-.009-.441-.009-.884-.009-1.324Z" fill="#15159f"/><path data-name="Path 49" d="M20.034 60.698a5.477 5.477 0 0 1-.358-1.136 3.431 3.431 0 0 1 .961 2.113 3.229 3.229 0 0 1-.99 2.695c.075-.375.236-.723.339-1.08a4.842 4.842 0 0 0 .048-2.592Z" fill="#15159f"/><path data-name="Path 50" d="M.988 64.382a3.417 3.417 0 0 1 .01-4.817c-.075.46-.3.873-.4 1.333a4.638 4.638 0 0 0 .009 2.3 10.178 10.178 0 0 1 .381 1.184Z" fill="#15159f"/><path data-name="Path 51" d="M13.801 62.926v-2.225h.564v1.728c.2-.009.4-.019.594-.038-.047-.225-.094-.46-.151-.686a5.443 5.443 0 0 1 .537-.112 4.741 4.741 0 0 1 .151.9c.245-.047.5-.075.745-.122l-.028-.357c.17-.037.339-.066.509-.1.047.16.085.319.132.479l.245.028.141-.507c.17.028.339.066.509.094l-.028.413c.141-.009.283-.028.434-.047l-.113-.526c.179-.038.358-.085.537-.122.047.319.254.714 0 1a1.02 1.02 0 0 1-1.131.16.881.881 0 0 1-.848-.047 2.922 2.922 0 0 1-.942.207.7.7 0 0 0 .123.526l-.424.338a1.145 1.145 0 0 1-.3-.939 5.587 5.587 0 0 1-1.256-.045Z" fill="#15159f"/><path data-name="Path 52" d="M13.189 61.677c-.1-.225-.415-.207-.613-.141a1.275 1.275 0 0 0-.414.444 1.579 1.579 0 0 1-.34.4 1.3 1.3 0 0 1-1.065-.207 1.39 1.39 0 0 1-.077.136.544.544 0 0 0-.121.362 3.128 3.128 0 0 0 .506.3l.087.045c-.434.244-1.027.526-1.48.188-.285-.276-.119-.679.016-1.007.021-.051.042-.1.059-.148-.17-.066-.349-.132-.528-.2a1.91 1.91 0 0 0-.207 1.361 1.067 1.067 0 0 0 1.056.686 2.4 2.4 0 0 0 1.5-.479 5.982 5.982 0 0 0-.047-.422 3 3 0 0 0 .707-.169 3.1 3.1 0 0 1 .219.124 2.484 2.484 0 0 0 .271.148.541.541 0 0 0 .7-.582 3.2 3.2 0 0 0-.229-.839Zm-.377.3a3.662 3.662 0 0 0-.368.394 3.3 3.3 0 0 0 .509.272 7.96 7.96 0 0 0-.141-.665Z" fill="#15159f" fill-rule="evenodd"/><path data-name="Path 53" d="M4.297 62.905q-.095-.03-.211-.062t-.244-.06q-.125-.028-.256-.046a1.852 1.852 0 0 0-.253-.018.954.954 0 0 0-.178.016.674.674 0 0 0-.147.041.286.286 0 0 0-.1.066.117.117 0 0 0-.036.083 1.246 1.246 0 0 0 .015.187q.016.094.04.217l.035.188q.019.103.036.233a10.74 10.74 0 0 1 .071.68l-.505.043q-.015-.19-.031-.345c-.011-.1-.022-.194-.035-.277s-.024-.158-.036-.224-.022-.127-.033-.181l-.025-.128c-.008-.04-.014-.082-.02-.122s-.009-.084-.013-.126 0-.091 0-.14a.776.776 0 0 1 .045-.268.761.761 0 0 1 .131-.226.84.84 0 0 1 .2-.174A1.036 1.036 0 0 1 3 62.148a.759.759 0 0 1-.013-.087v-.089a1 1 0 0 1 .047-.311.839.839 0 0 1 .133-.252.644.644 0 0 1 .195-.171.466.466 0 0 1 .236-.064.582.582 0 0 1 .218.043.842.842 0 0 1 .2.117 1.051 1.051 0 0 1 .178.173 1.2 1.2 0 0 1 .142.211 1.1 1.1 0 0 1 .093.233.855.855 0 0 1 .035.236.717.717 0 0 1-.015.147c-.01.046-.021.092-.033.137Zm-.831-.773q.136.014.273.037t.275.053a.437.437 0 0 0-.044-.167.544.544 0 0 0-.1-.153.521.521 0 0 0-.145-.112.332.332 0 0 0-.164-.045.082.082 0 0 0-.051.018.144.144 0 0 0-.042.046.245.245 0 0 0-.029.069.367.367 0 0 0-.009.084.352.352 0 0 0 .009.076.649.649 0 0 0 .027.095Z" fill="#15159f"/><path data-name="Path 54" d="M5.89 63.072h-.105a1.339 1.339 0 0 1-.431-.06.657.657 0 0 1-.444-.466 1.415 1.415 0 0 1-.049-.391V60.63h.538v1.521a.335.335 0 0 0 .022.124.23.23 0 0 0 .073.091.345.345 0 0 0 .129.057.558.558 0 0 0 .162.02h.105Z" fill="#15159f"/><path data-name="Path 55" d="m7.933 62.655-.487.156q-.18.059-.336.107t-.307.084q-.151.033-.309.053a3.12 3.12 0 0 1-.344.018h-.355v-.625H6.25l.1-.005a.965.965 0 0 1-.085-.169 1.439 1.439 0 0 1-.053-.165 1.342 1.342 0 0 1-.025-.153c0-.049-.007-.092-.007-.13a.541.541 0 0 1 .029-.169.839.839 0 0 1 .082-.178 1.074 1.074 0 0 1 .125-.167.954.954 0 0 1 .164-.14.807.807 0 0 1 .193-.1.663.663 0 0 1 .215-.035q.171 0 .324.014t.284.032l-.073.579h-.535a.424.424 0 0 0-.118.016.418.418 0 0 0-.1.041.235.235 0 0 0-.064.052.079.079 0 0 0-.024.052.478.478 0 0 0 .013.1.4.4 0 0 0 .056.122.6.6 0 0 0 .118.128.722.722 0 0 0 .2.11l.36-.117q.173-.057.345-.108Z" fill="#15159f"/></svg>