<?xml version="1.0" encoding="utf-8"?>
<!-- Generator: Adobe Illustrator 23.0.6, SVG Export Plug-In . SVG Version: 6.00 Build 0)  -->
<svg version="1.1" id="Layer_1" xmlns="http://www.w3.org/2000/svg" xmlns:xlink="http://www.w3.org/1999/xlink" x="0px" y="0px"
	 viewBox="0 0 6.3 6.3" style="enable-background:new 0 0 6.3 6.3;" xml:space="preserve">
<style type="text/css">
	.st0{fill:#292D32;}
</style>
<g id="arrow-full" transform="translate(-176.293 -190.793)">
	<g id="Vector">
		<path class="st0" d="M181.9,196.9c-0.1,0-0.3,0-0.4-0.1l-4.9-4.9c-0.2-0.2-0.2-0.5,0-0.7s0.5-0.2,0.7,0l4.9,4.9
			c0.2,0.2,0.2,0.5,0,0.7C182.1,196.8,182,196.9,181.9,196.9z"/>
	</g>
	<g id="Vector-2">
		<path class="st0" d="M177,195.6c-0.3,0-0.5-0.2-0.5-0.5v-3.6c0-0.3,0.2-0.5,0.5-0.5h3.6c0.3,0,0.5,0.2,0.5,0.5s-0.2,0.5-0.5,0.5
			h-3.1v3.1C177.5,195.3,177.3,195.6,177,195.6z"/>
	</g>
</g>
</svg>
