<svg id="comments" xmlns="http://www.w3.org/2000/svg" width="18.942" height="18.942" viewBox="0 0 18.942 18.942">
  <g id="message-text">
    <path id="Vector" d="M8.484,17.016a1.788,1.788,0,0,1-1.421-.758L5.88,14.68a.373.373,0,0,0-.158-.079H5.327C2.036,14.6,0,13.709,0,9.274V5.327C0,1.839,1.839,0,5.327,0h6.314c3.488,0,5.327,1.839,5.327,5.327V9.274c0,3.488-1.839,5.327-5.327,5.327h-.395a.206.206,0,0,0-.158.079L9.9,16.258A1.788,1.788,0,0,1,8.484,17.016ZM5.327,1.184C2.5,1.184,1.184,2.5,1.184,5.327V9.274c0,3.567,1.223,4.143,4.143,4.143h.395a1.48,1.48,0,0,1,1.1.552l1.184,1.578a.548.548,0,0,0,.947,0l1.184-1.578a1.383,1.383,0,0,1,1.1-.552h.395c2.825,0,4.143-1.318,4.143-4.143V5.327c0-2.825-1.318-4.143-4.143-4.143Z" transform="translate(0.987 0.987)" fill="#fff"/>
    <path id="Vector-2" data-name="Vector" d="M0,0H18.942V18.942H0Z" fill="none" opacity="0"/>
    <path id="Vector-3" data-name="Vector" d="M8.484,1.184H.592A.6.6,0,0,1,0,.592.6.6,0,0,1,.592,0H8.484a.6.6,0,0,1,.592.592A.6.6,0,0,1,8.484,1.184Z" transform="translate(4.933 5.722)" fill="#fff"/>
    <path id="Vector-4" data-name="Vector" d="M5.327,1.184H.592A.6.6,0,0,1,0,.592.6.6,0,0,1,.592,0H5.327a.6.6,0,0,1,.592.592A.6.6,0,0,1,5.327,1.184Z" transform="translate(4.933 9.668)" fill="#fff"/>
  </g>
</svg>
