<svg id="credit" xmlns="http://www.w3.org/2000/svg" width="20" height="20" viewBox="0 0 20 20">
  <g id="card-send">
    <path id="Vector" d="M11.042,1.25H.625A.63.63,0,0,1,0,.625.63.63,0,0,1,.625,0H11.042a.63.63,0,0,1,.625.625A.63.63,0,0,1,11.042,1.25Z" transform="translate(1.042 6.458)" fill="#fff"/>
    <path id="Vector-2" data-name="Vector" d="M2.292,1.25H.625A.63.63,0,0,1,0,.625.63.63,0,0,1,.625,0H2.292a.63.63,0,0,1,.625.625A.63.63,0,0,1,2.292,1.25Z" transform="translate(4.375 13.125)" fill="#fff"/>
    <path id="Vector-3" data-name="Vector" d="M3.958,1.25H.625A.63.63,0,0,1,0,.625.63.63,0,0,1,.625,0H3.958a.63.63,0,0,1,.625.625A.63.63,0,0,1,3.958,1.25Z" transform="translate(8.125 13.125)" fill="#fff"/>
    <path id="Vector-4" data-name="Vector" d="M13.592,15.417H4.325c-3.317,0-4.325-1-4.325-4.283V4.283C0,1,1.008,0,4.325,0h6.717a.63.63,0,0,1,.625.625.63.63,0,0,1-.625.625H4.325c-2.617,0-3.075.45-3.075,3.033v6.842c0,2.583.458,3.033,3.075,3.033h9.258c2.617,0,3.075-.45,3.075-3.033V9.392a.625.625,0,0,1,1.25,0v1.733C17.917,14.417,16.908,15.417,13.592,15.417Z" transform="translate(1.042 2.292)" fill="#fff"/>
    <path id="Vector-5" data-name="Vector" d="M.625,6.245A.63.63,0,0,1,0,5.62v-5A.617.617,0,0,1,.383.045a.646.646,0,0,1,.683.133L2.733,1.845a.625.625,0,0,1-.883.883l-.6-.6V5.62A.63.63,0,0,1,.625,6.245Z" transform="translate(16.042 2.297)" fill="#fff"/>
    <path id="Vector-6" data-name="Vector" d="M.623,2.915a.618.618,0,0,1-.442-.183.629.629,0,0,1,0-.883L1.848.181a.625.625,0,1,1,.883.883L1.065,2.731A.618.618,0,0,1,.623,2.915Z" transform="translate(14.377 2.294)" fill="#fff"/>
    <path id="Vector-7" data-name="Vector" d="M0,0H20V20H0Z" fill="none" opacity="0"/>
  </g>
</svg>
