<?xml version="1.0" encoding="utf-8"?>
<!-- Generator: Adobe Illustrator 23.0.6, SVG Export Plug-In . SVG Version: 6.00 Build 0)  -->
<svg version="1.1" id="mail" xmlns="http://www.w3.org/2000/svg" xmlns:xlink="http://www.w3.org/1999/xlink" x="0px" y="0px"
	 viewBox="0 0 24 24" style="enable-background:new 0 0 24 24;" xml:space="preserve">
<style type="text/css">
	.st0{fill:none;}
</style>
<g id="Rectangle_179">
	<rect class="st0" width="24" height="24"/>
</g>
<g id="Rectangle_179-2">
	<rect class="st0" width="24" height="24"/>
</g>
<g id="Rectangle_1594" transform="translate(3 4)">
	<g>
		<path class="st0" d="M4,0h10c2.2,0,4,1.8,4,4v8c0,2.2-1.8,4-4,4H4c-2.2,0-4-1.8-4-4V4C0,1.8,1.8,0,4,0z"/>
	</g>
	<g>
		<path d="M14,16H4c-2.2,0-4-1.8-4-4V4c0-2.2,1.8-4,4-4h10c2.2,0,4,1.8,4,4v8C18,14.2,16.2,16,14,16z M4,1.5C2.6,1.5,1.5,2.6,1.5,4
			v8c0,1.4,1.1,2.5,2.5,2.5h10c1.4,0,2.5-1.1,2.5-2.5V4c0-1.4-1.1-2.5-2.5-2.5H4z"/>
	</g>
</g>
<g id="Path_6833">
	<path d="M12,13.8c-3.3,0-7.8-4.8-8.3-5.3c-0.3-0.3-0.3-0.8,0-1.1c0.3-0.3,0.8-0.3,1.1,0c1.2,1.3,5,4.8,7.2,4.8c2.2,0,6-3.5,7.2-4.8
		c0.3-0.3,0.8-0.3,1.1,0c0.3,0.3,0.3,0.8,0,1.1C19.8,9,15.3,13.8,12,13.8z"/>
</g>
</svg>
