<svg id="open-book" xmlns="http://www.w3.org/2000/svg" width="19.428" height="19.428" viewBox="0 0 19.428 19.428">
  <g id="book">
    <path id="Vector" d="M8.7,16.321a1.421,1.421,0,0,1-.688-.17,20.3,20.3,0,0,0-5.845-1.918L1.935,14.2A2.281,2.281,0,0,1,0,12V2.219A2.2,2.2,0,0,1,2.4.009a15.637,15.637,0,0,1,5.99,1.983l.194.113a.315.315,0,0,0,.227.008l.13-.081a15.959,15.959,0,0,1,6-2.016h.1a2.146,2.146,0,0,1,1.651.575A2.191,2.191,0,0,1,17.4,2.235v9.771a2.274,2.274,0,0,1-1.943,2.2l-.267.032a20.077,20.077,0,0,0-5.82,1.918A1.332,1.332,0,0,1,8.7,16.321ZM2.21,1.215a.99.99,0,0,0-.68.259,1,1,0,0,0-.316.745V12a1.07,1.07,0,0,0,.874,1l.243.032a21.5,21.5,0,0,1,6.233,2.04.363.363,0,0,0,.219.024,21.145,21.145,0,0,1,6.257-2.064L15.316,13a1.063,1.063,0,0,0,.874-1V2.227a1.02,1.02,0,0,0-.316-.753,1.057,1.057,0,0,0-.777-.259H15A14.873,14.873,0,0,0,9.6,3.037l-.13.089a1.5,1.5,0,0,1-1.506.008l-.194-.113A14.905,14.905,0,0,0,2.307,1.215Z" transform="translate(1.012 1.553)" fill="#fff"/>
    <path id="Vector-2" data-name="Vector" d="M.607,13.357A.612.612,0,0,1,0,12.749V.607A.612.612,0,0,1,.607,0a.612.612,0,0,1,.607.607V12.749A.606.606,0,0,1,.607,13.357Z" transform="translate(9.107 3.837)" fill="#fff"/>
    <path id="Vector-3" data-name="Vector" d="M2.428,1.214H.607A.612.612,0,0,1,0,.607.612.612,0,0,1,.607,0H2.428a.612.612,0,0,1,.607.607A.612.612,0,0,1,2.428,1.214Z" transform="translate(3.845 6.265)" fill="#fff"/>
    <path id="Vector-4" data-name="Vector" d="M3.036,1.214H.607A.612.612,0,0,1,0,.607.612.612,0,0,1,.607,0H3.036a.612.612,0,0,1,.607.607A.612.612,0,0,1,3.036,1.214Z" transform="translate(3.845 8.694)" fill="#fff"/>
    <path id="Vector-5" data-name="Vector" d="M0,0H19.428V19.428H0Z" fill="none" opacity="0"/>
  </g>
</svg>
