<?xml version="1.0" encoding="utf-8"?>
<!-- Generator: Adobe Illustrator 23.0.6, SVG Export Plug-In . SVG Version: 6.00 Build 0)  -->
<svg version="1.1" id="password" xmlns="http://www.w3.org/2000/svg" xmlns:xlink="http://www.w3.org/1999/xlink" x="0px" y="0px"
	 viewBox="0 0 24 24" style="enable-background:new 0 0 24 24;" xml:space="preserve">
<style type="text/css">
	.st0{fill:none;}
</style>
<g id="Component_352_3">
	<g id="Symbol_165_558">
		<g id="Path_5247">
			<path class="st0" d="M0,0h24v24H0V0z"/>
		</g>
	</g>
	<g id="Group_1440" transform="translate(6 4)">
		<g id="Rectangle_758" transform="translate(0 7)">
			<g>
				<path class="st0" d="M4,0h4c2.2,0,4,1.8,4,4v1c0,2.2-1.8,4-4,4H4C1.8,9,0,7.2,0,5V4C0,1.8,1.8,0,4,0z"/>
			</g>
			<g>
				<path d="M8,10.5H4C1,10.5-1.5,8-1.5,5V4C-1.5,1,1-1.5,4-1.5h4c3,0,5.5,2.5,5.5,5.5v1C13.5,8,11,10.5,8,10.5z M4,0
					C1.8,0,0,1.8,0,4v1c0,2.2,1.8,4,4,4h4c2.2,0,4-1.8,4-4V4c0-2.2-1.8-4-4-4H4z"/>
			</g>
		</g>
		<g id="Rectangle_781" transform="translate(9) rotate(90)">
			<g>
				<path class="st0" d="M3,0h2l0,0v6l0,0H3C1.3,6,0,4.7,0,3l0,0C0,1.3,1.3,0,3,0z"/>
			</g>
			<g>
				<path d="M6.5-1.5v9H3c-2.5,0-4.5-2-4.5-4.5s2-4.5,4.5-4.5H6.5z M5,6V0H3C1.3,0,0,1.3,0,3s1.3,3,3,3H5z"/>
			</g>
		</g>
		<g id="Rectangle_782">
			<path d="M6,10L6,10c0.8,0,1.5,0.7,1.5,1.5l0,0C7.5,12.4,6.8,13,6,13l0,0c-0.8,0-1.5-0.7-1.5-1.5l0,0C4.5,10.7,5.2,10,6,10z"/>
		</g>
	</g>
</g>
</svg>
