<svg id="pishkhan" xmlns="http://www.w3.org/2000/svg" width="18.942" height="18.942" viewBox="0 0 18.942 18.942">
  <g id="category-2">
    <path id="Vector" d="M4.538,7.5H2.96A2.668,2.668,0,0,1,0,4.538V2.96A2.668,2.668,0,0,1,2.96,0H4.538A2.668,2.668,0,0,1,7.5,2.96V4.538A2.668,2.668,0,0,1,4.538,7.5ZM2.96,1.184c-1.247,0-1.776.529-1.776,1.776V4.538c0,1.247.529,1.776,1.776,1.776H4.538c1.247,0,1.776-.529,1.776-1.776V2.96c0-1.247-.529-1.776-1.776-1.776Z" transform="translate(10.457 0.987)" fill="#fff"/>
    <path id="Vector-2" data-name="Vector" d="M4.538,7.5H2.96A2.668,2.668,0,0,1,0,4.538V2.96A2.668,2.668,0,0,1,2.96,0H4.538A2.668,2.668,0,0,1,7.5,2.96V4.538A2.668,2.668,0,0,1,4.538,7.5ZM2.96,1.184c-1.247,0-1.776.529-1.776,1.776V4.538c0,1.247.529,1.776,1.776,1.776H4.538c1.247,0,1.776-.529,1.776-1.776V2.96c0-1.247-.529-1.776-1.776-1.776Z" transform="translate(0.987 0.987)" fill="#fff"/>
    <path id="Vector-3" data-name="Vector" d="M4.538,7.5H2.96A2.668,2.668,0,0,1,0,4.538V2.96A2.668,2.668,0,0,1,2.96,0H4.538A2.668,2.668,0,0,1,7.5,2.96V4.538A2.668,2.668,0,0,1,4.538,7.5ZM2.96,1.184c-1.247,0-1.776.529-1.776,1.776V4.538c0,1.247.529,1.776,1.776,1.776H4.538c1.247,0,1.776-.529,1.776-1.776V2.96c0-1.247-.529-1.776-1.776-1.776Z" transform="translate(0.987 10.457)" fill="#fff"/>
    <path id="Vector-4" data-name="Vector" d="M4.538,7.5H2.96A2.668,2.668,0,0,1,0,4.538V2.96A2.668,2.668,0,0,1,2.96,0H4.538A2.668,2.668,0,0,1,7.5,2.96V4.538A2.668,2.668,0,0,1,4.538,7.5ZM2.96,1.184c-1.247,0-1.776.529-1.776,1.776V4.538c0,1.247.529,1.776,1.776,1.776H4.538c1.247,0,1.776-.529,1.776-1.776V2.96c0-1.247-.529-1.776-1.776-1.776Z" transform="translate(10.457 10.457)" fill="#fff"/>
    <path id="Vector-5" data-name="Vector" d="M0,0H18.942V18.942H0Z" fill="none" opacity="0"/>
  </g>
</svg>
