<svg id="sales" xmlns="http://www.w3.org/2000/svg" width="20.047" height="20.047" viewBox="0 0 20.047 20.047">
  <g id="trend-up">
    <path id="Vector" d="M.624,5.427a.62.62,0,0,1-.443-.184.63.63,0,0,1,0-.885L2.855,1.685a.619.619,0,0,1,.5-.184.626.626,0,0,1,.459.276l.91,1.37L7.691.182a.626.626,0,0,1,.885.885L5.068,4.575a.619.619,0,0,1-.5.184.626.626,0,0,1-.459-.276L3.2,3.114l-2.13,2.13A.62.62,0,0,1,.624,5.427Z" transform="translate(5.64 7.311)" fill="#fff"/>
    <path id="Vector-2" data-name="Vector" d="M2.3,2.924A.631.631,0,0,1,1.671,2.3V1.253H.626A.631.631,0,0,1,0,.626.631.631,0,0,1,.626,0H2.3a.631.631,0,0,1,.626.626V2.3A.631.631,0,0,1,2.3,2.924Z" transform="translate(11.486 7.309)" fill="#fff"/>
    <path id="Vector-3" data-name="Vector" d="M11.486,17.959H6.474C1.938,17.959,0,16.021,0,11.486V6.474C0,1.938,1.938,0,6.474,0h5.012c4.536,0,6.474,1.938,6.474,6.474v5.012C17.959,16.021,16.021,17.959,11.486,17.959ZM6.474,1.253c-3.851,0-5.221,1.37-5.221,5.221v5.012c0,3.851,1.37,5.221,5.221,5.221h5.012c3.851,0,5.221-1.37,5.221-5.221V6.474c0-3.851-1.37-5.221-5.221-5.221Z" transform="translate(1.044 1.044)" fill="#fff"/>
    <path id="Vector-4" data-name="Vector" d="M0,0H20.047V20.047H0Z" fill="none" opacity="0"/>
  </g>
</svg>
