<svg xmlns="http://www.w3.org/2000/svg" width="24.058" height="24" viewBox="0 0 24.058 24">
  <g id="search" transform="translate(-427.942 -188)">
    <g id="search-normal">
      <path id="Vector" d="M8.156,16.313a8.156,8.156,0,1,1,8.156-8.156A8.168,8.168,0,0,1,8.156,16.313Zm0-15.119a6.963,6.963,0,1,0,6.963,6.963A6.971,6.971,0,0,0,8.156,1.194Z" transform="translate(427.942 190.939)" fill="#32a7e2"/>
      <path id="Vector-2" data-name="Vector" d="M2.748,3.5a.742.742,0,0,1-.53-.22l-2-2A.75.75,0,0,1,1.278.218l2,2a.754.754,0,0,1,0,1.06A.742.742,0,0,1,2.748,3.5Z" transform="translate(443.255 205.503)" fill="#32a7e2"/>
      <path id="Vector-3" data-name="Vector" d="M2.748,3.5a.742.742,0,0,1-.53-.22l-2-2A.75.75,0,0,1,1.278.218l2,2a.754.754,0,0,1,0,1.06A.742.742,0,0,1,2.748,3.5Z" transform="translate(441.505 203.755)" fill="#32a7e2"/>
      <path id="Vector-4" data-name="Vector" d="M0,0H24V24H0Z" transform="translate(428 188)" fill="none" opacity="0"/>
    </g>
  </g>
</svg>
