<?xml version="1.0" encoding="utf-8"?>
<!-- Generator: Adobe Illustrator 23.0.6, SVG Export Plug-In . SVG Version: 6.00 Build 0)  -->
<svg version="1.1" id="Layer_1" xmlns="http://www.w3.org/2000/svg" xmlns:xlink="http://www.w3.org/1999/xlink" x="0px" y="0px"
	 viewBox="0 0 13.6 13.6" style="enable-background:new 0 0 13.6 13.6;" xml:space="preserve">
<style type="text/css">
	.st0{fill:#A1A1A1;}
	.st1{fill:none;}
</style>
<g id="table-arrow" transform="translate(-300 -188)">
	<g id="arrow-3" transform="translate(300 188)">
		<g id="Group" transform="translate(1.708 1.702)">
			<g id="Vector">
				<path class="st0" d="M4.2,2.6c-0.1,0-0.3,0-0.4-0.1L2.1,0.7L0.4,2.5c-0.2,0.2-0.5,0.2-0.7,0s-0.2-0.5,0-0.7l2.1-2.1
					c0.2-0.2,0.5-0.2,0.7,0l2.1,2.1c0.2,0.2,0.2,0.5,0,0.7C4.5,2.6,4.4,2.6,4.2,2.6z"/>
			</g>
			<g id="Vector-2">
				<path class="st0" d="M2.1,10.7c-0.3,0-0.5-0.2-0.5-0.5V0c0-0.3,0.2-0.5,0.5-0.5S2.6-0.3,2.6,0v10.2C2.6,10.5,2.4,10.7,2.1,10.7z
					"/>
			</g>
			<g id="Vector-3">
				<path class="st0" d="M8.1,10.7L8.1,10.7c-0.1,0-0.3-0.1-0.4-0.1L5.6,8.5c-0.2-0.2-0.2-0.5,0-0.7s0.5-0.2,0.7,0l1.8,1.8l1.8-1.8
					c0.2-0.2,0.5-0.2,0.7,0s0.2,0.5,0,0.7l-2.1,2.1C8.4,10.7,8.2,10.7,8.1,10.7z"/>
			</g>
			<g id="Vector-4">
				<path class="st0" d="M8.1,10.7c-0.3,0-0.5-0.2-0.5-0.5V0c0-0.3,0.2-0.5,0.5-0.5S8.6-0.3,8.6,0v10.2C8.6,10.5,8.4,10.7,8.1,10.7z
					"/>
			</g>
		</g>
		<g id="Vector-5">
			<path class="st1" d="M0,0h13.6v13.6H0V0z"/>
		</g>
	</g>
</g>
</svg>
