<?xml version="1.0" encoding="utf-8"?>
<!-- Generator: Adobe Illustrator 23.0.6, SVG Export Plug-In . SVG Version: 6.00 Build 0)  -->
<svg version="1.1" id="user" xmlns="http://www.w3.org/2000/svg" xmlns:xlink="http://www.w3.org/1999/xlink" x="0px" y="0px"
	 viewBox="0 0 20 20" style="enable-background:new 0 0 20 20;" xml:space="preserve">
<style type="text/css">
	.st0{fill:#707070;}
	.st1{opacity:0;}
	.st2{fill:none;}
</style>
<g id="user-square">
	<g id="Vector" transform="translate(4.257 13.517)">
		<g>
			<path class="st0" d="M8.2,4.9h-5c-1.1,0-1.9-0.1-2.6-0.3c-0.1,0-0.1-0.1-0.1-0.1c0.2-2.2,2.5-4,5.2-4c2.7,0,5,1.8,5.2,4
				c0,0.1,0,0.1-0.1,0.1l0,0l0,0C10.2,4.8,9.3,4.9,8.2,4.9z M5.7,0.7c-2.3,0-4.4,1.3-4.9,3.2L0.7,4.4l0.5,0.1c0.6,0.1,1.2,0.2,2,0.2
				h5c0.8,0,1.4-0.1,2-0.2l0.5-0.1l-0.1-0.5C10.1,2.1,8.1,0.7,5.7,0.7z"/>
		</g>
		<g>
			<path class="st0" d="M8.2,5.4h-5c-1.1,0-2-0.1-2.8-0.3C0.2,5,0,4.7,0,4.5C0.2,2,2.7,0,5.7,0c3,0,5.5,2,5.7,4.5
				c0,0.3-0.2,0.6-0.4,0.7C10.3,5.3,9.3,5.4,8.2,5.4z M5.7,1.2c-2.1,0-4,1.2-4.4,2.8c0.6,0.1,1.2,0.2,1.9,0.2h5
				C9,4.2,9.6,4.1,10.1,4C9.7,2.4,7.9,1.2,5.7,1.2z"/>
		</g>
	</g>
	<g id="Vector-2">
		<path class="st0" d="M15.1,18.5c-0.1,0-0.2,0-0.3-0.1c-0.1-0.1-0.2-0.2-0.2-0.4c-0.2-1.9-2.2-3.4-4.6-3.4c-2.4,0-4.5,1.5-4.6,3.4
			c0,0.1-0.1,0.3-0.2,0.4s-0.3,0.1-0.4,0.1c-2.4-0.7-3.6-2.6-3.6-6v-5c0-4.4,1.9-6.3,6.3-6.3h5c4.4,0,6.3,1.9,6.3,6.3v5
			c0,3.4-1.1,5.3-3.6,6C15.2,18.5,15.2,18.5,15.1,18.5z M10,13.6c2.7,0,5,1.6,5.5,3.7c1.6-0.7,2.3-2.2,2.3-4.9v-5
			c0-3.9-1.4-5.3-5.3-5.3h-5c-3.9,0-5.3,1.4-5.3,5.3v5c0,2.7,0.7,4.2,2.3,4.9C5,15.2,7.3,13.6,10,13.6z M10,12.3
			c-1.9,0-3.5-1.6-3.5-3.5c0-1.9,1.6-3.5,3.5-3.5c0,0,0,0,0,0c1.9,0,3.5,1.6,3.5,3.5C13.5,10.7,11.9,12.3,10,12.3L10,12.3
			C10,12.3,10,12.3,10,12.3z M10,6.3C10,6.3,10,6.3,10,6.3c-0.7,0-1.3,0.3-1.8,0.7C7.8,7.5,7.5,8.2,7.5,8.8c0,1.4,1.1,2.5,2.5,2.5
			c0.7,0,1.3-0.3,1.8-0.7c0.5-0.5,0.7-1.1,0.7-1.8C12.5,7.4,11.4,6.3,10,6.3z"/>
	</g>
	<g id="Vector-3" transform="translate(6.392 5.208)">
		<g>
			<path class="st0" d="M3.6,6.7c-1.7,0-3.1-1.4-3.1-3.1c0-1.7,1.4-3.1,3.1-3.1s3.1,1.4,3.1,3.1C6.7,5.3,5.3,6.7,3.6,6.7z M3.6,0.8
				C2,0.8,0.8,2,0.8,3.6c0,1.6,1.3,2.9,2.9,2.9s2.9-1.3,2.9-2.9C6.5,2,5.2,0.8,3.6,0.8z"/>
		</g>
		<g>
			<path class="st0" d="M3.6,7.2C1.6,7.2,0,5.6,0,3.6C0,1.6,1.6,0,3.6,0s3.6,1.6,3.6,3.6C7.2,5.6,5.6,7.2,3.6,7.2z M3.6,1.3
				c-1.3,0-2.4,1.1-2.4,2.4C1.3,4.9,2.3,6,3.6,6S6,4.9,6,3.6C6,2.3,4.9,1.3,3.6,1.3z"/>
		</g>
	</g>
	<g id="Vector-4" class="st1">
		<g>
			<path class="st2" d="M0,0h20v20H0V0z"/>
		</g>
		<g>
			<path class="st0" d="M1,1v18h18V1H1 M0,0h20v20H0V0z"/>
		</g>
	</g>
</g>
</svg>
