<svg xmlns="http://www.w3.org/2000/svg" width="46.835" height="40.092"><g fill="#fff"><path data-name="Path 407" d="M22.269.049a8.505 8.505 0 0 0-7.306 8.121 2.837 2.837 0 0 0 .732 2.252 2.706 2.706 0 0 0 2.1.989 2.1 2.1 0 0 0 1.3-.211 3.46 3.46 0 0 0 1.584-1.547 5.409 5.409 0 0 0 .256-1.172 2.533 2.533 0 0 1 .76-1.785 2.521 2.521 0 0 1 2.783-.458 2.419 2.419 0 0 1 1.135 3.333c-.339.677-.577.861-1.868 1.483a4.868 4.868 0 0 0-1.648 1.135 5.827 5.827 0 0 0-1.483 2.49 5.938 5.938 0 0 0-.174 1.74 3.1 3.1 0 0 0 .238 1.7 2.993 2.993 0 0 0 4.852.9 3.161 3.161 0 0 0 .879-1.987l.055-.632.7-.339a8.494 8.494 0 0 0 4.129-10.694 9 9 0 0 0-2.994-3.809c-.842-.586-1.712.33-.925.98a12.325 12.325 0 0 1 2.161 2.344 7.106 7.106 0 0 1-2.673 9.787 6.4 6.4 0 0 1-.916.43 2.156 2.156 0 0 0-.623.385c-.238.238-.256.311-.256.961-.009 1.117-.439 1.8-1.282 2.033a1.65 1.65 0 0 1-1.886-1.062 5.227 5.227 0 0 1 .119-2.6 4.565 4.565 0 0 1 2.646-2.692 3.907 3.907 0 0 0 2.6-3.662 3.667 3.667 0 0 0-1.236-2.792 3.832 3.832 0 0 0-5.741.549 4.045 4.045 0 0 0-.714 2.06 1.655 1.655 0 0 1-1.6 1.776 1.553 1.553 0 0 1-1.263-.54 2.1 2.1 0 0 1-.348-1.831 7.131 7.131 0 0 1 5.136-6.061 6.353 6.353 0 0 1 2.161-.211c1.666-.009 1.776-.046 1.776-.6 0-.439-.2-.613-.824-.732a10.978 10.978 0 0 0-2.342-.031Z"/><path data-name="Path 408" d="M22.673 20.704a3.413 3.413 0 0 0-1.511.906 3.029 3.029 0 0 0 .146 4.1 2.978 2.978 0 0 0 4.212 0 3.021 3.021 0 0 0 .1-4.147 3.235 3.235 0 0 0-2.947-.859Zm1.227 1.355A1.626 1.626 0 0 1 24.971 24a1.971 1.971 0 0 1-1.163 1.163 1.65 1.65 0 0 1-2-1.84 1.613 1.613 0 0 1 2.091-1.264Z"/><path data-name="Path 409" d="M1.55 25.373c-.156.165-.229.412-.3 1.035a24.992 24.992 0 0 0 .137 5.026c.284 1.19.3 1.08-.165 1.273a2.036 2.036 0 0 0-.211 3.626l.476.275h15.05l.183.5a4.08 4.08 0 0 0 2.884 2.847 54.1 54.1 0 0 0 7.608 0 4.108 4.108 0 0 0 2.893-2.847l.183-.5h5.383c5.1 0 5.393-.009 5.53-.165a.8.8 0 0 0-.037-.989c-.183-.165-.43-.174-5.475-.2-2.9-.018-5.448 0-5.658.027-.613.092-.87.375-1.218 1.346a2.7 2.7 0 0 1-.778 1.328c-.76.742-.87.76-4.624.76-3.662 0-3.818-.027-4.559-.687a2.658 2.658 0 0 1-.806-1.309c-.385-1.007-.577-1.263-1.035-1.392-.211-.055-3.14-.092-7.81-.092H1.724l-.183-.238a.615.615 0 0 1 .037-.906l.22-.229h7.589c8.231 0 8.066-.009 8.808.5a3.093 3.093 0 0 1 1.1 1.712c.458 1.282.256 1.209 3.891 1.245 1.666.018 3.15 0 3.314-.027.458-.082.778-.485 1.071-1.318a2.779 2.779 0 0 1 1.4-1.813l.531-.256 7.764-.027 7.755-.018.229.22a.623.623 0 0 1 .046.906c-.165.2-.256.229-.906.256-.879.046-1.108.2-1.108.732s.22.632 1.236.632a1.929 1.929 0 0 0 1.3-.275 1.982 1.982 0 0 0 1.007-1.575 2.063 2.063 0 0 0-1.3-2.1c-.375-.137-.366-.027-.073-1.273a12.506 12.506 0 0 0 .156-3.021 22.506 22.506 0 0 0-.1-2.6 1.1 1.1 0 0 0-.32-.449c-.238-.174-.247-.174-6.043.522-3.186.385-6.162.769-6.619.851a14.95 14.95 0 0 0-5.658 2.38 18.4 18.4 0 0 0-3.04 2.976 3.073 3.073 0 0 1-.412.531 3.074 3.074 0 0 1-.412-.531 18.4 18.4 0 0 0-3.04-2.976 14.888 14.888 0 0 0-5.237-2.307c-.7-.146-4.166-.6-4.779-.623a.618.618 0 0 0-.723.641.7.7 0 0 0 .659.7c.165.027 1.172.156 2.225.284 3.333.4 4.761.879 6.83 2.261a13.917 13.917 0 0 1 3.175 3.14l.568.815v1.987h-2l-.064-.247a7.305 7.305 0 0 0-.366-.925 3.946 3.946 0 0 0-2.774-2.206c-.33-.064-2.673-.1-7.434-.1H3.107l-.146-.439a12.024 12.024 0 0 1-.421-3.626 9.83 9.83 0 0 1 .082-1.685c.055-.1.485-.073 2.261.156 2.39.293 2.536.284 2.765-.192a.618.618 0 0 0-.256-.806c-.174-.091-4.926-.732-5.455-.732a.652.652 0 0 0-.387.211Zm42.7 1.492a30.094 30.094 0 0 1-.145 4.297c-.055.247-.165.65-.247.888l-.137.439h-6.94c-4.761 0-7.1.037-7.434.1a3.946 3.946 0 0 0-2.774 2.206 7.306 7.306 0 0 0-.366.925l-.064.247h-2V33.98l.568-.815a12.575 12.575 0 0 1 7.251-4.953c.742-.183 11.078-1.538 12.021-1.575.154-.01.223.054.269.225Z"/></g></svg>