<svg width="495" height="310" fill="none" xmlns="http://www.w3.org/2000/svg"><path d="M4.174 147.136c-5.301 3.876-5.301 11.724 0 15.6A539.27 539.27 0 0 0 105 220.888c56.19 24.775 101.109 55.938 135.773 86.002a10.276 10.276 0 0 0 13.454 0c34.664-30.064 79.583-61.227 135.773-86.002a539.263 539.263 0 0 0 100.826-58.152c5.301-3.876 5.301-11.724 0-15.6A539.217 539.217 0 0 0 390 88.985C333.81 64.209 288.891 33.046 254.227 2.983a10.275 10.275 0 0 0-13.454 0C206.109 33.046 161.19 64.209 105 88.985A539.225 539.225 0 0 0 4.174 147.136Z" fill="#C4C4C4"/></svg>