<svg width="849" height="696" fill="none" xmlns="http://www.w3.org/2000/svg"><mask id="b" style="mask-type:alpha" maskUnits="userSpaceOnUse" x="0" y="58" width="849" height="628"><path d="M0 58h849v628H0V58Z" fill="url(#a)"/></mask><mask id="d" style="mask-type:alpha" maskUnits="userSpaceOnUse" x="0" y="0" width="849" height="696"><path d="M0 0h849v696H0V0Z" fill="url(#c)"/></mask><g mask="url(#d)"><path opacity=".3" d="M0 728.103h869S739.236 516.549 434.5 394.824C129.764 273.098 0 61.545 0 61.545v666.558Z" fill="url(#e)"/><g opacity=".6" stroke="#49A7AA" stroke-opacity=".6" stroke-width="2"><path opacity=".8" d="M876 1487s-135.289-251.68-453-396.5C105.289 945.684-30 694-30 694"/><path opacity=".8" d="M876 1464s-135.289-251.68-453-396.5C105.289 922.684-30 671-30 671"/><path opacity=".8" d="M876 1441s-135.289-251.68-453-396.5C105.289 899.684-30 648-30 648"/><path opacity=".8" d="M876 1418s-135.289-251.68-453-396.5C105.289 876.684-30 625-30 625"/><path opacity=".8" d="M876 1395s-135.289-251.68-453-396.5C105.289 853.684-30 602-30 602"/><path opacity=".8" d="M876 1372s-135.289-251.68-453-396.5C105.289 830.684-30 579-30 579"/><path opacity=".8" d="M876 1349s-135.289-251.68-453-396.5C105.289 807.684-30 556-30 556"/><path opacity=".8" d="M876 1326s-135.289-251.68-453-396.5C105.289 784.684-30 533-30 533"/><path opacity=".8" d="M876 1303s-135.289-251.68-453-396.5C105.289 761.684-30 510-30 510"/><path opacity=".8" d="M876 1280s-135.289-251.68-453-396.5C105.289 738.684-30 487-30 487"/><path opacity=".8" d="M876 1257s-135.289-251.68-453-396.5C105.289 715.684-30 464-30 464"/><path opacity=".8" d="M876 1234S740.711 982.316 423 837.5-30 441-30 441"/><path opacity=".8" d="M876 1211S740.711 959.316 423 814.5-30 418-30 418"/><path opacity=".8" d="M876 1188S740.711 936.316 423 791.5-30 395-30 395"/><path opacity=".8" d="M876 1165S740.711 913.316 423 768.5-30 372-30 372"/><path opacity=".8" d="M876 1142S740.711 890.316 423 745.5-30 349-30 349"/><path opacity=".8" d="M876 1119S740.711 867.316 423 722.5-30 326-30 326"/><path opacity=".8" d="M876 1096S740.711 844.316 423 699.5-30 303-30 303"/><path opacity=".8" d="M876 1073S740.711 821.316 423 676.5-30 280-30 280"/><path opacity=".8" d="M876 1050S740.711 798.316 423 653.5-30 257-30 257"/><path opacity=".8" d="M876 1027S740.711 775.316 423 630.5-30 234-30 234"/><path opacity=".8" d="M876 1004S740.711 752.316 423 607.5-30 211-30 211"/><path opacity=".8" d="M876 981S740.711 729.316 423 584.5-30 188-30 188"/><path opacity=".8" d="M876 958S740.711 706.316 423 561.5-30 165-30 165"/><path opacity=".8" d="M876 935S740.711 683.316 423 538.5-30 142-30 142"/><path opacity=".8" d="M876 912S740.711 660.316 423 515.5-30 119-30 119"/><path opacity=".8" d="M876 889S740.711 637.316 423 492.5-30 96-30 96"/><path opacity=".8" d="M876 866S740.711 614.316 423 469.5-30 73-30 73"/><path opacity=".8" d="M876 843S740.711 591.316 423 446.5-30 50-30 50"/><path opacity=".8" d="M876 820S740.711 568.316 423 423.5-30 27-30 27"/><path opacity=".8" d="M876 797S740.711 545.316 423 400.5-30 4-30 4"/><path opacity=".8" d="M876 774S740.711 522.316 423 377.5-30-19-30-19"/><path opacity=".8" d="M876 751S740.711 499.316 423 354.5-30-42-30-42"/></g></g><defs><linearGradient id="a" x1="846.126" y1="61.748" x2="-93.906" y2="469.519" gradientUnits="userSpaceOnUse"><stop stop-color="#6DC5C7"/><stop offset=".468" stop-color="#6DC5C7"/><stop offset=".513" stop-color="#6DC5C7"/><stop offset="1" stop-color="#6DC5C7" stop-opacity=".7"/></linearGradient><linearGradient id="c" x1="846.126" y1="4.154" x2="-122.414" y2="383.244" gradientUnits="userSpaceOnUse"><stop stop-color="#6DC5C7"/><stop offset=".468" stop-color="#6DC5C7"/><stop offset=".513" stop-color="#6DC5C7"/><stop offset="1" stop-color="#6DC5C7" stop-opacity=".7"/></linearGradient><linearGradient id="e" x1="455.011" y1="699.504" x2="56.661" y2="112.934" gradientUnits="userSpaceOnUse"><stop stop-color="#5FBBBD"/><stop offset="1" stop-color="#6ABDBF"/></linearGradient></defs></svg>