<svg width="48" height="133" fill="none" xmlns="http://www.w3.org/2000/svg"><path d="M4.315 2.747a1.12 1.12 0 0 1 .82-1.342 1.118 1.118 0 0 1 1.343.82c.15.59-.217 1.198-.82 1.342a1.097 1.097 0 0 1-1.271-.633c-.028-.064-.053-.119-.072-.187Zm26.796 58.755c.506-.341 1.192-.195 1.543.307a1.13 1.13 0 0 1-.306 1.543 1.107 1.107 0 0 1-1.543-.307c-.037-.06-.07-.11-.095-.166a1.115 1.115 0 0 1 .401-1.377ZM10.012 1.67a1.112 1.112 0 0 1 1.04-1.165c.611-.05 1.125.424 1.174 1.035a1.103 1.103 0 0 1-1.045 1.179 1.121 1.121 0 0 1-1.169-1.049Zm25.459 56.328a1.115 1.115 0 0 1 1.57.021 1.12 1.12 0 0 1-.03 1.575 1.109 1.109 0 0 1-1.54-1.596ZM15.809 1.617a1.107 1.107 0 0 1 1.218-.981c.61.07 1.048.621.986 1.227a1.111 1.111 0 0 1-2.117.327.908.908 0 0 1-.074-.567l-.013-.006Zm23.353 52.174a1.097 1.097 0 0 1 1.544-.24 1.1 1.1 0 0 1 .24 1.543l.004.01a1.123 1.123 0 0 1-1.557.234 1.124 1.124 0 0 1-.23-1.548ZM21.524 2.573a1.089 1.089 0 0 1 1.363-.75c.6.173.927.794.755 1.372-.174.6-.795.927-1.373.755l-.004-.01a1.06 1.06 0 0 1-.704-.608 1.05 1.05 0 0 1-.037-.759Zm20.54 46.43c.27-.555.93-.768 1.481-.507.555.27.768.93.507 1.48a1.118 1.118 0 0 1-2.017-.043 1.09 1.09 0 0 1 .03-.93ZM26.997 4.498c.27-.555.93-.768 1.472-.504.555.27.78.935.507 1.481-.274.546-.93.768-1.481.508a1.146 1.146 0 0 1-.518-.56c-.125-.283-.13-.62.029-.93l-.01.005Zm17.1 39.279a1.1 1.1 0 0 1 1.372-.755 1.1 1.1 0 0 1 .746 1.377 1.1 1.1 0 0 1-1.373.755 1.134 1.134 0 0 1-.698-.622 1.12 1.12 0 0 1-.056-.751l.009-.004ZM32.043 7.34a1.111 1.111 0 0 1 1.553-.244c.487.365.596 1.06.235 1.557a1.109 1.109 0 0 1-1.548.23 1.029 1.029 0 0 1-.367-.44 1.095 1.095 0 0 1 .122-1.09l.005-.013Zm13.155 30.953a1.111 1.111 0 0 1 1.218-.982c.61.07 1.057.617.986 1.227a1.12 1.12 0 0 1-1.232.977c-.4-.043-.736-.31-.885-.65a1.095 1.095 0 0 1-.074-.567l-.013-.005Zm-8.68-27.27c.447-.425 1.154-.408 1.562.025.434.443.416 1.15-.021 1.57a1.109 1.109 0 0 1-1.566-.034.854.854 0 0 1-.216-.32 1.111 1.111 0 0 1 .241-1.241Zm8.806 21.678a1.105 1.105 0 0 1 1.031-1.183 1.093 1.093 0 0 1 1.175 1.035 1.106 1.106 0 0 1-2.118.525 1.021 1.021 0 0 1-.088-.377ZM40.3 15.416a1.1 1.1 0 0 1 1.524.314 1.09 1.09 0 0 1-.31 1.534 1.108 1.108 0 0 1-1.534-.31c-.037-.06-.061-.115-.085-.17a1.123 1.123 0 0 1 .4-1.377l.005.009Zm4.17 11.755a1.1 1.1 0 0 1 .82-1.343c.59-.149 1.198.218 1.335.802a1.1 1.1 0 0 1-.82 1.342 1.097 1.097 0 0 1-1.272-.633c-.028-.064-.048-.11-.067-.178l.004.01Zm-1.239-6.762a1.114 1.114 0 0 1 1.462.571 1.107 1.107 0 0 1-.57 1.462 1.107 1.107 0 0 1-1.463-.57 1.114 1.114 0 0 1 .571-1.463ZM9.66 15.461a1.103 1.103 0 1 1 2.19-.283c.073.613-.35 1.169-.953 1.237-.505.068-.97-.22-1.158-.65a1.1 1.1 0 0 1-.088-.3l.01-.004Zm15.512 33.49a1.103 1.103 0 0 1 1.556.137 1.082 1.082 0 0 1-.128 1.552 1.096 1.096 0 0 1-1.56-.124c-.063-.093-.122-.176-.166-.277a1.11 1.11 0 0 1 .307-1.292l-.009.004Zm-9.93-33.71a1.094 1.094 0 0 1 1.268-.916 1.1 1.1 0 0 1 .917 1.269c-.098.6-.67 1.014-1.269.917a1.092 1.092 0 0 1-.84-.647 1.082 1.082 0 0 1-.076-.622Zm13.424 29.776a1.1 1.1 0 0 1 1.534-.312c.507.334.656 1.023.321 1.53a1.113 1.113 0 0 1-1.948-.161c-.14-.321-.115-.736.093-1.057ZM20.66 16.59c.27-.555.926-.777 1.473-.526.564.266.786.922.53 1.483-.252.547-.927.777-1.477.516a1.114 1.114 0 0 1-.537-.55 1.085 1.085 0 0 1 .01-.923Zm10.263 23.66a1.116 1.116 0 0 1 1.385-.727 1.1 1.1 0 0 1 .727 1.385 1.09 1.09 0 0 1-1.385.727 1.083 1.083 0 0 1-.68-.608 1.139 1.139 0 0 1-.047-.777Zm-5.431-20.832a1.08 1.08 0 0 1 1.554-.092 1.106 1.106 0 1 1-1.558.083l.004.009Zm6.267 15.64a1.093 1.093 0 0 1 1.116-1.09c.622 0 1.107.508 1.094 1.125a1.105 1.105 0 0 1-2.121.417.988.988 0 0 1-.09-.452ZM29.325 23.48a1.099 1.099 0 0 1 1.522.359 1.104 1.104 0 0 1-.36 1.522 1.104 1.104 0 0 1-1.521-.36c-.024-.054-.054-.096-.07-.133a1.117 1.117 0 0 1 .429-1.388Zm1.76 6.357a1.108 1.108 0 0 1 .777-1.366 1.093 1.093 0 0 1 1.354.771 1.108 1.108 0 0 1-.768 1.363 1.117 1.117 0 0 1-1.311-.626c-.024-.055-.035-.105-.055-.15l.004.009ZM4.078 110.795a1.114 1.114 0 0 1 .895 2.042 1.116 1.116 0 0 1-.895-2.042Zm-2.505-4.22.004.009a1.107 1.107 0 1 1 2.15-.527c.149.59-.218 1.198-.82 1.342a1.12 1.12 0 0 1-1.281-.629c-.028-.064-.043-.123-.062-.191l.01-.004ZM6.7 116a1.108 1.108 0 0 1 1.533.311 1.13 1.13 0 0 1-.306 1.542c-.519.337-1.21.204-1.534-.31-.037-.06-.07-.111-.098-.175A1.123 1.123 0 0 1 6.699 116Zm-6.04-15.368c-.049-.612.425-1.125 1.036-1.175.616-.04 1.13.433 1.179 1.045a1.106 1.106 0 0 1-1.049 1.169 1.1 1.1 0 0 1-1.165-1.039Zm9.521 20.022a1.11 1.11 0 0 1 1.566.034 1.11 1.11 0 0 1-.035 1.566 1.12 1.12 0 0 1-1.561-.025 1.282 1.282 0 0 1-.22-.329 1.107 1.107 0 0 1 .25-1.246ZM.802 94.63a1.1 1.1 0 0 1 1.218-.982c.61.071 1.048.622.986 1.228a1.12 1.12 0 0 1-1.231.976c-.401-.043-.737-.31-.89-.658a.961.961 0 0 1-.08-.555l-.003-.01Zm13.614 30.008a1.115 1.115 0 0 1 1.557-.234c.493.351.605 1.056.24 1.543a1.11 1.11 0 0 1-1.91-.199 1.111 1.111 0 0 1 .117-1.1l-.004-.01Zm-12.452-35.9a1.1 1.1 0 0 1 1.376-.746 1.1 1.1 0 0 1 .755 1.373 1.11 1.11 0 0 1-1.377.745 1.079 1.079 0 0 1-.707-.618 1.203 1.203 0 0 1-.056-.75l.009-.005Zm17.333 39.089c.27-.555.93-.768 1.481-.507.546.274.768.93.498 1.485-.273.546-.93.768-1.471.503a1.113 1.113 0 0 1-.537-.551c-.124-.284-.13-.62.03-.93ZM4.15 83.139c.283-.55.939-.772 1.485-.499.555.27.777.926.503 1.472-.27.555-.93.768-1.481.508a1.081 1.081 0 0 1-.514-.55 1.116 1.116 0 0 1 .016-.935l-.01.004Zm20.499 46.982a1.098 1.098 0 0 1 1.376-.745 1.107 1.107 0 0 1-.63 2.122 1.079 1.079 0 0 1-.708-.618 1.108 1.108 0 0 1-.038-.759ZM7.27 78.003a1.109 1.109 0 0 1 1.547-.23 1.1 1.1 0 0 1 .24 1.543l.004.01a1.111 1.111 0 0 1-1.548.23 1.054 1.054 0 0 1-.367-.44 1.111 1.111 0 0 1 .118-1.1l.006-.013Zm23.051 53.453a1.107 1.107 0 0 1 1.218-.982c.61.071 1.048.622.986 1.227a1.111 1.111 0 0 1-2.117.328.928.928 0 0 1-.074-.568l-.013-.005ZM11.23 73.484a1.106 1.106 0 0 1 1.57.043 1.112 1.112 0 0 1-.026 1.562 1.123 1.123 0 0 1-1.57-.021 1.28 1.28 0 0 1-.221-.33 1.116 1.116 0 0 1 .25-1.245l-.003-.01Zm24.897 58.31a1.1 1.1 0 0 1 1.036-1.175 1.093 1.093 0 0 1 1.174 1.036 1.103 1.103 0 0 1-1.044 1.178 1.12 1.12 0 0 1-1.077-.663 1.02 1.02 0 0 1-.089-.376ZM15.924 69.722a1.13 1.13 0 0 1 1.543.307 1.12 1.12 0 0 1-.307 1.542 1.1 1.1 0 0 1-1.543-.306c-.037-.06-.07-.11-.094-.166a1.123 1.123 0 0 1 .4-1.377Zm25.978 61.374c-.14-.594.23-1.193.82-1.342a1.108 1.108 0 1 1-.757 1.511 1.276 1.276 0 0 1-.067-.178l.004.009Z" fill="#8BD2BD"/></svg>