<svg width="116" height="76" fill="none" xmlns="http://www.w3.org/2000/svg"><path d="M-18.74 30.52c-.6-.11-1-.68-.9-1.29.11-.6.69-1.01 1.29-.9.6.1 1.01.68.9 1.29-.09.53-.55.91-1.09.91-.07 0-.13 0-.2-.01Zm64.57-.95c-.11-.6.3-1.17.9-1.29.6-.1 1.17.3 1.29.9.11.61-.3 1.19-.9 1.29-.07.01-.13.02-.19.02-.53 0-1.01-.38-1.1-.92Zm-63.27-4.7c-.56-.21-.86-.84-.65-1.42.2-.58.84-.86 1.42-.66.58.21.88.85.66 1.43a1.121 1.121 0 0 1-1.43.65Zm61.81-.7c-.21-.58.08-1.22.65-1.43.58-.21 1.22.09 1.43.66a1.109 1.109 0 0 1-2.08.77Zm-59.53-4.63c-.53-.3-.71-.97-.41-1.51.31-.53.99-.71 1.52-.41a1.111 1.111 0 0 1-.55 2.07c-.19 0-.39-.04-.55-.16l-.01.01ZM42 19.1c-.31-.53-.13-1.21.4-1.51a1.1 1.1 0 0 1 1.51.4h.01c.3.53.12 1.21-.41 1.52A1.124 1.124 0 0 1 42 19.1Zm-53.99-4.41c-.48-.39-.53-1.09-.14-1.55.4-.48 1.1-.53 1.56-.14.48.4.53 1.1.14 1.56h-.01c-.21.27-.53.4-.84.4-.26 0-.51-.09-.71-.27Zm50.77-.17c-.4-.47-.33-1.16.13-1.56.47-.4 1.16-.33 1.56.13a1.118 1.118 0 0 1-.85 1.83c-.31 0-.63-.14-.84-.4Zm-46.81-4.07c-.4-.47-.33-1.16.13-1.55.47-.4 1.17-.34 1.56.13.39.47.33 1.16-.13 1.56-.21.17-.47.25-.72.25-.31 0-.62-.13-.84-.4v.01Zm42.84.11A1.1 1.1 0 0 1 34.67 9a1.1 1.1 0 0 1 1.56-.13c.48.39.53 1.09.14 1.56-.22.25-.53.39-.85.39-.25 0-.5-.08-.71-.25v-.01ZM-3.4 6.97c-.31-.53-.13-1.21.4-1.52.53-.3 1.21-.12 1.52.41.3.53.12 1.21-.41 1.51-.17.11-.37.16-.55.16-.38 0-.75-.2-.95-.55l-.01-.01Zm33.63.38c-.53-.3-.71-.99-.41-1.51.31-.53.99-.72 1.52-.41.52.31.71.99.4 1.52-.2.35-.58.55-.95.55-.19 0-.38-.06-.55-.16l-.01.01Zm-28.46-3c-.21-.58.09-1.22.65-1.42.58-.22 1.22.08 1.43.65.21.58-.09 1.21-.66 1.42-.12.06-.26.07-.38.07-.45 0-.88-.28-1.04-.72Zm23.39.64c-.58-.21-.88-.84-.67-1.42.21-.58.84-.88 1.42-.66a1.106 1.106 0 0 1-.37 2.15c-.12 0-.26-.02-.38-.07ZM7.31 2.65c-.1-.6.3-1.17.9-1.27.61-.11 1.18.29 1.28.9.11.6-.3 1.17-.9 1.28-.07.01-.13.01-.19.01-.53 0-1-.38-1.1-.92h.01Zm12.44.9a1.1 1.1 0 0 1-.9-1.29c.1-.6.68-1.01 1.27-.9.61.1 1.01.68.9 1.29-.09.53-.55.91-1.09.91-.07 0-.12 0-.19-.01h.01Zm-6.69-1.58c0-.61.5-1.11 1.11-1.11.61 0 1.11.49 1.11 1.11 0 .61-.49 1.11-1.11 1.11-.61 0-1.11-.5-1.11-1.11ZM-4.95 30.73a1.104 1.104 0 1 1 .62-2.12c.59.18.93.79.75 1.37-.14.49-.59.8-1.06.8-.1 0-.21-.01-.31-.04v-.01Zm36.9-.76c-.17-.59.17-1.21.75-1.37.59-.18 1.21.15 1.37.74.18.59-.15 1.21-.74 1.38-.11.02-.21.04-.32.04-.48 0-.92-.32-1.06-.8v.01Zm-34.86-4.44c-.52-.33-.67-1.02-.33-1.53a1.1 1.1 0 0 1 1.53-.33c.51.33.66 1.02.33 1.53-.21.33-.56.51-.93.51-.21 0-.42-.06-.6-.18Zm32.66-.34a1.1 1.1 0 0 1 .33-1.53c.51-.33 1.2-.19 1.53.32a1.113 1.113 0 0 1-.93 1.72c-.35 0-.72-.19-.93-.51ZM.5 21.11c-.4-.47-.34-1.16.11-1.56a1.11 1.11 0 0 1 1.57.11c.4.45.34 1.16-.12 1.56-.21.18-.47.27-.72.27-.31 0-.62-.12-.84-.38Zm25.79.1c-.45-.4-.51-1.1-.11-1.56a1.1 1.1 0 0 1 1.56-.11c.47.4.52 1.1.11 1.56-.21.25-.52.38-.83.38-.25 0-.52-.09-.73-.27ZM5.03 17.82a1.08 1.08 0 0 1 .54-1.46 1.106 1.106 0 1 1-.55 1.46h.01Zm16.84.54c-.56-.25-.81-.91-.55-1.46.25-.57.91-.81 1.47-.55a1.105 1.105 0 0 1-.47 2.11c-.16 0-.31-.03-.45-.1Zm-11.58-2.42c-.09-.61.33-1.16.94-1.25.6-.09 1.16.33 1.25.94.09.6-.33 1.16-.94 1.25-.06 0-.11.01-.15.01-.54 0-1.02-.4-1.1-.95Zm6.53.94c-.61-.09-1.03-.65-.94-1.26.08-.6.64-1.02 1.25-.93.6.08 1.02.64.94 1.25-.09.55-.55.95-1.1.95-.06 0-.11-.01-.16-.01h.01ZM80.12 74.12a1.114 1.114 0 0 1 2.23 0 1.116 1.116 0 0 1-2.23 0Zm-4.87.6h.01a1.107 1.107 0 1 1 .38-2.18c.6.1 1.01.68.9 1.29-.09.53-.57.92-1.09.92-.07 0-.13-.01-.2-.02v-.01Zm10.69-.91c-.11-.6.3-1.17.9-1.28.6-.1 1.17.3 1.29.9.1.61-.3 1.19-.9 1.28-.07.01-.13.02-.2.02-.52 0-1-.39-1.09-.92Zm-16.5-.64c-.58-.2-.86-.84-.66-1.42.21-.58.85-.86 1.43-.66a1.111 1.111 0 0 1-.39 2.15c-.12 0-.24-.02-.38-.07Zm22.16-.68c-.21-.58.09-1.21.66-1.42.58-.21 1.21.09 1.42.66.21.56-.09 1.21-.65 1.42a1.106 1.106 0 0 1-1.43-.66ZM64 70.63a1.1 1.1 0 0 1-.41-1.51c.31-.53.99-.71 1.52-.41.52.31.71.99.4 1.52-.2.35-.58.55-.96.55-.18 0-.38-.04-.54-.15H64Zm32.95-.42c-.31-.53-.12-1.21.41-1.52a1.1 1.1 0 0 1 1.51.4 1.111 1.111 0 0 1-.95 1.67c-.39 0-.75-.2-.96-.55h-.01ZM59.07 67.2a1.1 1.1 0 0 1-.13-1.56 1.1 1.1 0 0 1 1.56-.14c.47.4.52 1.1.13 1.56-.22.27-.53.4-.85.4-.24 0-.5-.09-.71-.25v-.01Zm42.76-.18c-.4-.47-.33-1.16.13-1.56a1.11 1.11 0 0 1 1.56.14 1.113 1.113 0 0 1-.85 1.82c-.31 0-.62-.13-.84-.4Zm-47.01-4.07c-.39-.48-.33-1.17.14-1.56.47-.4 1.16-.34 1.55.13.4.47.33 1.16-.13 1.56-.2.17-.45.25-.71.25-.31 0-.63-.13-.85-.39v.01Zm51.26.09c-.47-.39-.53-1.09-.13-1.56a1.108 1.108 0 0 1 1.69 1.43c-.22.27-.53.4-.85.4-.24 0-.5-.09-.71-.27Zm-54.71-5.01c-.3-.53-.12-1.21.41-1.51a1.1 1.1 0 0 1 1.51.4h.01c.3.52.12 1.21-.41 1.51-.18.11-.37.16-.55.16-.39 0-.75-.2-.96-.55l-.01-.01Zm58.21.35c-.53-.3-.71-.97-.41-1.51.31-.53.99-.71 1.52-.41a1.111 1.111 0 0 1-.55 2.07c-.19 0-.38-.04-.55-.16l-.01.01Zm-60.76-5.79c-.21-.58.09-1.21.67-1.42.58-.21 1.21.09 1.42.65.21.58-.09 1.22-.65 1.43-.13.04-.25.07-.39.07-.44 0-.88-.28-1.04-.73h-.01Zm63.4.61a1.1 1.1 0 0 1-.66-1.42c.21-.58.84-.88 1.42-.66.58.21.88.85.66 1.43-.17.44-.59.72-1.04.72-.12 0-.26-.02-.38-.07Zm-64.96-6.42c-.1-.6.3-1.17.9-1.29.61-.1 1.18.3 1.29.9a1.1 1.1 0 0 1-.9 1.29c-.07.01-.13.02-.19.02-.53 0-1-.38-1.1-.92Zm66.64.85c-.6-.11-1-.69-.9-1.29a1.108 1.108 0 1 1 1.08 1.3c-.06 0-.12 0-.19-.01h.01Z" fill="#8BD2BD"/></svg>