<svg width="137" height="324" fill="none" xmlns="http://www.w3.org/2000/svg"><path d="M136.63 323.183h-.76V83.69C135.87 38.03 96.37.884 47.82.884S-40.24 38.03-40.24 83.69v239.493H-41V83.69C-41 37.636-1.16.17 47.81.17s88.81 37.466 88.81 83.52v239.493h.01Z" fill="#D9DADF"/><path d="M122.97 323.183V83.69c0-38.972-33.71-70.684-75.16-70.684-41.45 0-75.15 31.712-75.15 70.684v239.493h-.76V83.69c0-39.367 34.06-71.399 75.92-71.399s75.92 32.032 75.92 71.399v239.493h-.77Z" fill="#D9DADF"/><path d="M110.08 323.183V83.69c0-32.286-27.93-58.552-62.26-58.552S-14.44 51.404-14.44 83.69v239.493h-.76V83.69c0-32.68 28.27-59.267 63.03-59.267 34.76 0 63.03 26.586 63.03 59.267v239.493h-.78Z" fill="#D9DADF"/><path d="M97.95 323.183h-.76V83.69c0-25.6-22.15-46.43-49.37-46.43S-1.55 58.09-1.55 83.69v239.493h-.76V83.69c0-25.994 22.49-47.145 50.13-47.145 27.64 0 50.13 21.15 50.13 47.145v239.493Z" fill="#D9DADF"/><path d="M84.29 323.183V83.69c0-18.913-16.36-34.298-36.47-34.298S11.35 64.777 11.35 83.69v239.493h-.76V83.69c0-19.308 16.7-35.022 37.24-35.022 20.54 0 37.24 15.705 37.24 35.022v239.493h-.78Z" fill="#D9DADF"/></svg>