<svg width="50" height="97" fill="none" xmlns="http://www.w3.org/2000/svg"><g opacity=".5" fill="#6DC5C7"><path d="M49.42 95.851c0 .3-.12.59-.33.79-.1.11-.22.19-.35.24-.13.06-.28.09-.42.09-.3 0-.59-.12-.79-.33-.25-.25-.38-.63-.3-1a.83.83 0 0 1 .06-.21c.03-.07.07-.13.11-.19.03-.06.08-.11.13-.17.2-.21.49-.32.79-.32.14 0 .29.02.42.08s.25.14.35.24c.06.06.1.11.14.17.03.06.07.12.1.19s.04.14.07.21c.01.07.02.14.02.21ZM43.499 95.631c-.08.61-.63 1.03-1.24.96-.61-.08-1.04-.63-.96-1.24.08-.61.63-1.04 1.24-.96.55.08.97.55.97 1.1 0 0-.01.1-.01.14Zm-1.04-92.7c-.61.08-1.16-.35-1.24-.96-.08-.6.35-1.15.96-1.23.61-.08 1.16.35 1.24.95 0 .06.01.1.01.14 0 .55-.41 1.03-.97 1.1Zm-4.81 91.74c-.16.59-.75.94-1.35.8-.59-.16-.94-.75-.8-1.35a1.108 1.108 0 0 1 2.18.27c0 .09-.01.18-.03.28Zm-.88-90.65c-.59.15-1.2-.2-1.34-.8-.16-.59.2-1.2.79-1.34a1.095 1.095 0 0 1 1.38 1.07c0 .5-.33.95-.83 1.07Zm-4.81 88.95c-.22.58-.86.85-1.44.63-.56-.23-.84-.88-.62-1.44a1.1 1.1 0 0 1 1.44-.62c.43.17.7.59.7 1.03 0 .13-.02.27-.08.4Zm-.69-87.15c-.57.23-1.21-.04-1.44-.62-.22-.56.06-1.21.62-1.43.57-.23 1.22.04 1.44.61.06.13.08.28.08.41 0 .44-.27.86-.7 1.03Zm-4.73 84.76a1.11 1.11 0 0 1-1.94-1.08c.29-.53.96-.73 1.5-.43.38.2.58.58.58.97 0 .18-.04.37-.13.53l-.01.01Zm-.5-82.29c-.53.3-1.21.11-1.5-.43-.3-.53-.11-1.21.43-1.51.53-.29 1.21-.1 1.51.43.09.18.13.35.13.54 0 .39-.21.76-.58.96l.01.01Zm-4.58 79.22c-.37.5-1.05.61-1.55.24-.5-.35-.61-1.05-.24-1.54.35-.5 1.05-.61 1.55-.24.29.21.45.55.45.9 0 .22-.08.45-.21.64Zm-.3-76.11c-.49.37-1.19.25-1.54-.24a1.1 1.1 0 0 1 .23-1.54v-.01c.5-.35 1.2-.24 1.55.24a1.122 1.122 0 0 1-.24 1.55Zm-4.35 72.44c-.42.44-1.12.47-1.57.04-.44-.42-.47-1.12-.04-1.56.42-.44 1.12-.47 1.56-.04a1.098 1.098 0 0 1 .05 1.56Zm-.09-68.74c-.45.41-1.15.4-1.57-.06-.42-.44-.4-1.14.04-1.56.45-.42 1.15-.4 1.57.04.2.22.3.49.3.76 0 .29-.12.59-.34.81v.01Zm-4.08 64.52c-.47.39-1.16.32-1.55-.14a1.1 1.1 0 0 1 .14-1.56 1.11 1.11 0 0 1 1.56.14 1.104 1.104 0 0 1-.16 1.56h.01Zm.11-60.3a1.109 1.109 0 0 1-1.7-1.42c.39-.47 1.09-.53 1.56-.14.27.22.4.53.4.85 0 .24-.08.5-.25.71h-.01Zm-3.7 55.59c-.52.33-1.21.18-1.54-.34-.32-.51-.17-1.2.34-1.53.52-.32 1.21-.18 1.53.34a1.099 1.099 0 0 1-.33 1.53Zm.3-50.91c-.32.52-1.01.68-1.53.34-.51-.32-.66-1.01-.34-1.53.33-.51 1.02-.66 1.53-.34.33.21.52.58.52.94 0 .2-.06.41-.18.59Zm-3.29 45.79c-.54.27-1.21.02-1.47-.53-.25-.55-.02-1.21.53-1.47.55-.25 1.22-.02 1.47.53a1.103 1.103 0 0 1-.53 1.48v-.01Zm.51-40.72c-.27.55-.92.8-1.47.53-.55-.27-.8-.92-.53-1.47.25-.55.92-.79 1.47-.53.4.19.63.59.63 1.01 0 .15-.03.31-.1.47v-.01Zm-2.81 35.27c-.59.19-1.21-.13-1.41-.71v-.01c-.19-.58.13-1.21.72-1.4.58-.19 1.21.13 1.4.72.03.11.06.22.06.34 0 .47-.3.9-.76 1.05l-.01.01Zm.69-29.88a1.115 1.115 0 0 1-2.12-.69c.19-.58.82-.9 1.4-.71.48.15.78.59.78 1.05 0 .11-.02.23-.06.34v.01Zm-2.3 24.18c-.6.11-1.17-.28-1.3-.89-.11-.6.29-1.17.89-1.3.6-.11 1.19.29 1.3.89.01.07.02.13.02.21 0 .52-.38.99-.91 1.09Zm.88-18.57a1.113 1.113 0 1 1-.89-1.3c.53.1.9.56.9 1.09 0 .08 0 .14-.01.21Zm-1.75 12.71c-.61.03-1.14-.42-1.17-1.04-.03-.61.42-1.13 1.04-1.17.61-.03 1.13.43 1.17 1.04v.07c0 .59-.45 1.07-1.04 1.11v-.01Zm1.03-6.97c-.03.62-.57 1.09-1.17 1.04-.61-.03-1.07-.57-1.03-1.17.03-.61.55-1.07 1.17-1.03.59.03 1.03.52 1.03 1.1v.07-.01ZM49.419 1.451c0 .14-.03.29-.09.42-.06.14-.13.25-.24.37-.2.2-.49.32-.78.32-.29 0-.58-.12-.79-.32a1.126 1.126 0 0 1 0-1.58c.21-.2.49-.32.79-.32.3 0 .58.12.78.32.11.1.19.22.24.37.06.13.09.28.09.42ZM49.419 81.891c0 .08-.01.14-.02.22-.02.07-.03.13-.07.2-.02.08-.07.13-.1.2-.04.06-.09.11-.14.17-.04.06-.1.1-.17.13-.06.04-.12.08-.19.11-.07.02-.13.04-.21.06-.07.02-.14.02-.21.02-.3 0-.58-.11-.79-.32-.31-.31-.41-.8-.24-1.21.06-.13.14-.25.24-.35.1-.11.22-.19.35-.24a1.09 1.09 0 0 1 1.21.24c.21.2.33.49.33.78l.01-.01ZM43.629 81.581a1.12 1.12 0 0 1-1.29.91c-.6-.11-1.01-.69-.9-1.28a1.1 1.1 0 0 1 1.29-.9c.53.09.91.55.91 1.09 0 .07 0 .12-.01.19v-.01Zm-.95-64.56c-.6.1-1.17-.3-1.29-.9-.1-.61.3-1.19.9-1.28.61-.11 1.19.3 1.29.9.01.07.02.13.02.19 0 .53-.38 1-.92 1.1v-.01Zm-4.7 63.25c-.21.58-.84.88-1.42.66-.58-.21-.86-.84-.66-1.42.21-.58.85-.88 1.43-.66.44.17.73.59.73 1.04 0 .12-.02.25-.08.38Zm-.71-61.8c-.57.21-1.21-.09-1.42-.66-.21-.58.09-1.21.66-1.42a1.109 1.109 0 0 1 1.49 1.04c0 .45-.28.88-.73 1.04Zm-4.62 59.53c-.3.53-.97.71-1.51.4-.53-.3-.71-.97-.41-1.51.31-.53.99-.71 1.52-.41.35.21.55.59.55.96 0 .19-.06.38-.16.55l.01.01Zm-.44-57.16c-.53.31-1.21.13-1.51-.4-.31-.53-.13-1.21.4-1.52.52-.3 1.21-.12 1.51.41.11.17.16.37.16.55 0 .38-.2.75-.55.95l-.01.01Zm-4.41 53.99c-.39.47-1.09.53-1.55.13-.48-.39-.53-1.09-.14-1.55.4-.48 1.1-.53 1.56-.14a1.088 1.088 0 0 1 .13 1.56Zm-.17-50.77c-.47.4-1.17.33-1.56-.13-.4-.47-.33-1.16.13-1.56.47-.39 1.16-.33 1.56.13.18.21.25.47.25.71 0 .32-.13.63-.39.85h.01Zm-4.07 46.81c-.47.39-1.16.33-1.55-.14v.01a1.107 1.107 0 1 1 1.69-1.43c.17.21.25.47.25.71 0 .32-.13.63-.4.85h.01Zm.11-42.85a1.1 1.1 0 0 1-1.56.13c-.47-.39-.53-1.09-.13-1.56.39-.47 1.09-.53 1.56-.13.25.22.39.53.39.85 0 .24-.08.5-.25.71h-.01Zm-3.59 38.21c-.53.31-1.21.12-1.52-.4-.3-.53-.12-1.21.41-1.52.52-.31 1.21-.12 1.52.4.1.18.14.37.14.55 0 .39-.2.76-.55.96v.01Zm.38-33.63c-.3.53-.99.71-1.51.4-.53-.3-.72-.97-.41-1.51.31-.53.99-.71 1.51-.41.37.21.56.58.56.96 0 .19-.06.38-.16.55l.01.01Zm-3 28.46c-.58.21-1.22-.09-1.42-.66-.22-.58.08-1.21.65-1.42a1.109 1.109 0 0 1 .77 2.08Zm.64-23.39c-.21.58-.84.88-1.42.66-.58-.21-.88-.84-.66-1.42.21-.58.84-.88 1.42-.66.45.17.73.59.73 1.04 0 .12-.02.26-.07.38Zm-2.33 17.85c-.61.1-1.19-.3-1.28-.91-.11-.6.29-1.17.9-1.27a1.1 1.1 0 0 1 1.28.9c.01.07.01.12.01.19 0 .53-.38 1-.91 1.1v-.01Zm.89-12.44c-.11.6-.68 1.01-1.29.9-.6-.1-1.01-.68-.9-1.27.1-.61.68-1.01 1.29-.91.53.1.91.57.91 1.1 0 .06 0 .12-.01.19v-.01Zm-.48 5.58c0 .61-.5 1.11-1.11 1.11a1.114 1.114 0 0 1 0-2.23c.61 0 1.11.5 1.11 1.11v.01ZM49.419 15.411a1.106 1.106 0 0 1-.33.78 1.042 1.042 0 0 1-.77.32c-.08 0-.14 0-.22-.02a.83.83 0 0 1-.21-.06c-.07-.03-.12-.07-.19-.11-.06-.03-.11-.08-.17-.13-.1-.1-.19-.22-.24-.35-.17-.41-.07-.91.24-1.22.06-.04.11-.09.17-.13.07-.03.12-.08.19-.1.07-.02.14-.04.21-.07.08-.01.14-.02.22-.02.14 0 .29.03.42.09s.25.13.35.23c.21.21.33.5.33.79ZM49.419 68.271c0 .29-.12.58-.33.79-.2.2-.49.32-.78.32-.29 0-.58-.12-.79-.32a1.13 1.13 0 0 1-.24-1.21c.06-.14.14-.25.24-.37.21-.2.49-.32.79-.32.07 0 .14.01.21.02.08.01.14.03.21.07.07.02.13.06.19.1.07.04.12.09.17.13.21.21.33.5.33.79ZM43.839 67.791c-.17.59-.79.92-1.37.74-.59-.17-.92-.79-.75-1.37.18-.58.79-.92 1.37-.74.49.13.8.58.8 1.06 0 .1-.01.2-.04.31h-.01Zm-.76-36.91a1.09 1.09 0 0 1-1.37-.74c-.18-.59.15-1.21.74-1.37.59-.18 1.21.16 1.37.74.03.11.06.21.06.31 0 .49-.32.92-.8 1.06Zm-4.44 34.87c-.33.52-1.02.66-1.53.33-.52-.33-.66-1.02-.33-1.53.33-.52 1.02-.66 1.53-.33.33.21.51.57.51.93 0 .21-.06.41-.18.6Zm-.34-32.67c-.51.33-1.2.19-1.53-.32a1.12 1.12 0 0 1 .32-1.54v.01a1.11 1.11 0 0 1 1.72.92c0 .37-.18.72-.51.93Zm-4.08 29.25c-.47.41-1.16.35-1.56-.11-.41-.45-.35-1.15.11-1.56.47-.4 1.16-.34 1.56.11.18.21.27.48.27.73 0 .31-.12.62-.38.83Zm.1-25.79c-.4.47-1.1.52-1.56.11-.47-.4-.51-1.1-.11-1.56.4-.45 1.1-.51 1.56-.11.25.22.38.53.38.84 0 .25-.09.51-.27.72Zm-3.39 21.27c-.55.26-1.21.01-1.46-.54s-.01-1.22.54-1.47a1.113 1.113 0 0 1 1.57 1c0 .42-.24.83-.65 1.01Zm.54-16.84c-.25.55-.91.81-1.46.55-.57-.25-.81-.92-.55-1.47a1.105 1.105 0 0 1 2.11.47c0 .16-.03.31-.1.45Zm-2.42 11.58c-.61.09-1.16-.33-1.25-.94-.09-.6.33-1.16.94-1.25.6-.09 1.16.33 1.25.94 0 .06.01.1.01.16 0 .54-.4 1.02-.95 1.1v-.01Zm.94-6.53c-.09.61-.65 1.03-1.26.94-.6-.08-1.02-.64-.93-1.25.08-.61.64-1.03 1.25-.94.55.08.95.55.95 1.1 0 .06-.01.11-.01.16v-.01ZM49.419 29.021c0 .3-.12.58-.32.79-.06.06-.11.1-.18.14-.06.03-.12.07-.19.1-.07.02-.13.04-.21.06-.07.02-.14.02-.21.02-.29 0-.58-.11-.79-.32-.41-.41-.41-1.15 0-1.56.21-.21.5-.33.79-.33.07 0 .14.01.21.02.08.02.14.04.21.07.07.03.13.07.19.1.07.04.12.09.18.14.04.04.09.1.13.17.03.06.08.12.1.19.03.07.06.14.07.21.01.07.02.14.02.21v-.01Z"/></g></svg>