<svg width="858" height="739" fill="none" xmlns="http://www.w3.org/2000/svg"><path opacity=".8" d="M858 0H0s128.121 230.102 429 362.5S858 725 858 725V0Z" fill="url(#a)" fill-opacity=".4"/><mask id="b" style="mask-type:alpha" maskUnits="userSpaceOnUse" x="0" y="0" width="858" height="739"><path opacity=".8" d="M858 0H0s128.121 234.545 429 369.5S858 739 858 739V0Z" fill="#5FBBBD"/></mask><g opacity=".6" stroke="#49A7AA" stroke-opacity=".7" stroke-width="2" mask="url(#b)"><path opacity=".8" d="M-28-774s135.289 251.684 453 396.5S878 19 878 19"/><path opacity=".8" d="M-28-751s135.289 251.684 453 396.5S878 42 878 42"/><path opacity=".8" d="M-28-728s135.289 251.684 453 396.5S878 65 878 65"/><path opacity=".8" d="M-28-705s135.289 251.684 453 396.5S878 88 878 88"/><path opacity=".8" d="M-28-682s135.289 251.684 453 396.5S878 111 878 111"/><path opacity=".8" d="M-28-659s135.289 251.684 453 396.5S878 134 878 134"/><path opacity=".8" d="M-28-636s135.289 251.684 453 396.5S878 157 878 157"/><path opacity=".8" d="M-28-613s135.289 251.684 453 396.5S878 180 878 180"/><path opacity=".8" d="M-28-590s135.289 251.684 453 396.5S878 203 878 203"/><path opacity=".8" d="M-28-567s135.289 251.684 453 396.5S878 226 878 226"/><path opacity=".8" d="M-28-544s135.289 251.684 453 396.5S878 249 878 249"/><path opacity=".8" d="M-28-521s135.289 251.684 453 396.5S878 272 878 272"/><path opacity=".8" d="M-28-498s135.289 251.684 453 396.5S878 295 878 295"/><path opacity=".8" d="M-28-475S107.289-223.316 425-78.5 878 318 878 318"/><path opacity=".8" d="M-28-452S107.289-200.316 425-55.5 878 341 878 341"/><path opacity=".8" d="M-28-429S107.289-177.316 425-32.5 878 364 878 364"/><path opacity=".8" d="M-28-406S107.289-154.316 425-9.5 878 387 878 387"/><path opacity=".8" d="M-28-383S107.289-131.316 425 13.5 878 410 878 410"/><path opacity=".8" d="M-28-360S107.289-108.316 425 36.5 878 433 878 433"/><path opacity=".8" d="M-28-337S107.289-85.316 425 59.5 878 456 878 456"/><path opacity=".8" d="M-28-314S107.289-62.316 425 82.5 878 479 878 479"/><path opacity=".8" d="M-28-291S107.289-39.316 425 105.5 878 502 878 502"/><path opacity=".8" d="M-28-268S107.289-16.316 425 128.5 878 525 878 525"/><path opacity=".8" d="M-28-245S107.289 6.684 425 151.5 878 548 878 548"/><path opacity=".8" d="M-28-222S107.289 29.684 425 174.5 878 571 878 571"/><path opacity=".8" d="M-28-199S107.289 52.684 425 197.5 878 594 878 594"/><path opacity=".8" d="M-28-176S107.289 75.684 425 220.5 878 617 878 617"/><path opacity=".8" d="M-28-153S107.289 98.684 425 243.5 878 640 878 640"/><path opacity=".8" d="M-28-130s135.289 251.684 453 396.5S878 663 878 663"/><path opacity=".8" d="M-28-107s135.289 251.684 453 396.5S878 686 878 686"/><path opacity=".8" d="M-28-84s135.289 251.684 453 396.5S878 709 878 709"/><path opacity=".8" d="M-28-61s135.289 251.684 453 396.5S878 732 878 732"/><path opacity=".8" d="M-28-38s135.289 251.684 453 396.5S878 755 878 755"/></g><defs><linearGradient id="a" x1="408.749" y1="31.106" x2="855.913" y2="628.814" gradientUnits="userSpaceOnUse"><stop stop-color="#4EA7A9"/><stop offset="1" stop-color="#84EDEF"/></linearGradient></defs></svg>