<svg id="telegram-logo" xmlns="http://www.w3.org/2000/svg" width="23.756" height="21.249" viewBox="0 0 23.756 21.249">
  <path id="Path_13" data-name="Path 13" d="M19.124,31.246a.941.941,0,0,1-.528-.162l-5.973-4.052-3.2,2.305a.94.94,0,0,1-1.459-.523l-1.609-6.1L.6,20.52a.94.94,0,0,1-.012-1.752l21.855-8.7a.941.941,0,0,1,.31-.073.981.981,0,0,1,.114,0,.938.938,0,0,1,.6.267c.017.017.034.034.05.053a.937.937,0,0,1,.23.55.954.954,0,0,1,0,.15.915.915,0,0,1-.015.107L20.048,30.482a.94.94,0,0,1-.924.764Zm-5.977-6.131,5.321,3.609,2.87-15.061L10.971,23.64,13.122,25.1Zm-4.429-.8.712,2.7,1.535-1.1-2.01-1.363A.938.938,0,0,1,8.718,24.313ZM3.527,19.625l3.947,1.509a.94.94,0,0,1,.573.638l.5,1.9a.941.941,0,0,1,.283-.58l9.878-9.505Z" transform="translate(0 -9.997)" fill="#7a8b9b"/>
</svg>
