<svg width="38" height="37" viewBox="0 0 38 37" fill="none" xmlns="http://www.w3.org/2000/svg">
<line x1="1.42842" y1="2.38561" x2="8.98438" y2="36.7309" stroke="#00A754" stroke-width="1.37381"/>
<path fill-rule="evenodd" clip-rule="evenodd" d="M2.84865 4.24995C2.84865 4.24995 9.09136 5.076 15.8999 3.563C17.0835 3.29997 18.3849 2.98238 19.7441 2.65069C25.4532 1.25751 32.1811 -0.384319 35.4767 0.72434C36.5719 1.09278 36.6345 3.14468 36.7093 5.59692C36.7738 7.71369 36.8475 10.1287 37.6023 12.0168C38.9201 15.3134 35.5665 21.0168 35.5665 21.0168C35.5665 21.0168 35.6141 16.0523 29.638 19.2708C24.7082 21.9257 21.7569 22.3024 16.8152 22.9331C16.3039 22.9983 15.7713 23.0663 15.213 23.1398C11.8779 23.5789 6.97008 22.1095 6.97008 22.1095L2.84865 4.24995ZM26.6626 4.77044C26.0833 5.48643 25.5653 6.0696 25.1084 6.51995L25.105 6.53061L25.0991 6.5215L24.9963 6.59669C24.9776 6.5998 24.8861 6.60855 24.7219 6.62294C24.6825 6.65532 24.6493 6.72539 24.6224 6.83315C24.5488 7.04549 24.4652 7.17879 24.3717 7.23307C24.2959 7.27795 24.1941 7.28197 24.0662 7.24514C24.0195 7.311 23.9568 7.41503 23.8779 7.55724C23.7887 7.71409 23.6724 7.80443 23.529 7.82828C23.4542 7.84072 23.371 7.84163 23.2796 7.83102C23.1829 7.82773 23.104 7.8344 23.0427 7.85105C22.9575 7.87813 22.8028 8.02649 22.5785 8.29616C22.3709 8.55015 22.1368 8.76014 21.8761 8.92613C21.6279 9.08415 21.358 9.14634 21.0664 9.1127C21.0483 9.08198 21.029 9.05316 21.0086 9.02627C20.8652 9.01139 20.7399 8.93217 20.6328 8.78862C20.5308 8.63775 20.4605 8.48484 20.422 8.32988C20.375 8.08595 20.3011 7.96914 20.2003 7.97945C20.1058 7.98872 20.0342 8.11681 19.9855 8.36372C19.9206 8.9361 19.7707 9.32571 19.5361 9.53256C19.3014 9.73941 19.0765 9.8704 18.8615 9.92553C18.6454 9.97437 18.409 9.99754 18.1523 9.99504C18.1085 9.99466 18.0471 9.98526 17.98 9.97499H17.98C17.8211 9.95066 17.6304 9.92146 17.5662 9.99568C17.5033 10.0683 17.6095 10.4278 17.6924 10.7083L17.6924 10.7083C17.73 10.8354 17.7627 10.9463 17.7728 11.007C17.8093 11.1881 17.8583 11.3672 17.9198 11.5441C17.9802 11.7148 18.0287 11.8907 18.0652 12.0718C18.3501 13.4381 18.3022 14.5563 17.9215 15.4264C17.6779 16.0414 17.3099 16.5835 16.8178 17.0526C16.1417 17.6104 15.3985 17.9567 14.5881 18.0915C13.9449 18.192 13.3915 18.1194 12.9278 17.8738C12.4715 17.6334 12.1754 17.2017 12.0398 16.5788C11.9186 15.7727 12.0435 14.7708 12.4145 13.5731C12.4331 13.4538 12.4179 13.3434 12.369 13.2418C12.319 13.1339 12.2381 13.2442 12.1261 13.5726C11.5342 15.2138 11.3478 16.6745 11.5671 17.9548C11.7268 18.7609 12.0593 19.3543 12.5647 19.7351C13.0711 20.1221 13.6947 20.2701 14.4355 20.1792C15.8486 19.9313 16.9457 19.0356 17.7269 17.4921C18.0547 16.805 18.2972 16.0869 18.4545 15.3378C18.6895 14.2079 18.7513 12.9615 18.64 11.5987C18.6401 11.5201 18.6378 11.4407 18.6332 11.3613C19.0578 11.1711 19.37 10.976 19.5698 10.776C19.7785 10.567 19.9373 10.3276 20.0462 10.0577C20.2054 10.3217 20.39 10.5072 20.6 10.6143C20.798 10.7207 21.0128 10.7589 21.2445 10.729C21.2692 10.7674 21.289 10.792 21.3041 10.8028C21.4786 10.7738 21.6562 10.6861 21.8369 10.5399C22.0187 10.3999 22.1847 10.1658 22.3351 9.83738C22.5747 9.2747 22.788 8.97781 22.975 8.94671C23.0062 8.94153 23.1485 8.93077 23.4021 8.91443C23.4873 8.88735 23.6119 8.76981 23.7759 8.5618C23.8464 8.44679 23.9124 8.3616 23.9736 8.30623C24.0235 8.25921 24.0972 8.22113 24.1949 8.19198C24.2873 8.17015 24.3543 8.12996 24.3958 8.07142C24.4716 7.98781 24.5339 7.91936 24.5827 7.86606C24.6512 7.77721 24.7088 7.71922 24.7556 7.69208C24.7847 7.67433 24.8433 7.64198 24.9316 7.59503C25.0137 7.54911 25.0812 7.4927 25.1341 7.4258L25.2307 7.31293L25.2344 7.29778L25.24 7.31137C25.6999 6.80242 26.1183 6.31328 26.4951 5.84397C26.8782 5.37362 27.1377 5.06581 27.2737 4.92055C27.416 4.77426 27.5182 4.67656 27.5805 4.62747C27.648 4.57107 27.7015 4.52667 27.741 4.49429C27.8126 4.42428 27.878 4.29723 27.9371 4.11312C27.9909 3.93634 28.024 3.73074 28.0363 3.49632C28.0456 3.43668 28.045 3.37545 28.0346 3.31264C28.0314 3.25508 27.9992 3.23462 27.9379 3.25126C27.7697 3.39543 27.6456 3.49675 27.5656 3.55523C27.4264 3.64292 27.3007 3.69609 27.1885 3.71475C26.989 3.74793 26.7614 3.74704 26.5058 3.7121C25.902 3.62532 25.5751 3.58608 25.5252 3.59437C25.2197 3.60644 24.9912 3.75417 24.8398 4.03755C24.6945 4.3199 24.5913 4.54684 24.5302 4.71838C24.4731 4.87633 24.4467 4.98722 24.4509 5.05107C24.451 5.12852 24.4744 5.17303 24.5212 5.18462C24.5617 5.19725 24.6054 5.17063 24.6521 5.10477L24.8295 4.84288C24.9406 4.66304 25.0927 4.55706 25.286 4.52492C25.4668 4.49486 25.7235 4.51672 26.0561 4.59051C26.3034 4.65265 26.5056 4.71263 26.6626 4.77044ZM19.0243 18.525C18.8492 19.0511 18.7684 19.355 18.7819 19.4367C18.7882 19.4744 18.8974 19.553 19.1095 19.6727C19.3153 19.7934 19.4682 19.8841 19.568 19.945C19.6751 20.0111 19.7535 20.04 19.8034 20.0317C20.0029 19.9986 20.214 19.6117 20.4368 18.871C20.5907 18.9487 20.7732 19.0636 20.9842 19.2157C21.1953 19.3678 21.3352 19.4381 21.4037 19.4267C21.5097 19.4091 21.6483 19.2215 21.8194 18.8638C21.9958 18.4988 22.0641 18.197 22.0244 17.9583C21.9785 17.7594 21.8272 17.5619 21.5703 17.3658C21.3208 17.1749 21.1181 17.0924 20.9622 17.1183C20.9123 17.1266 20.8309 17.2725 20.7179 17.5559C20.6111 17.8383 20.5126 18.0935 20.4223 18.3215C20.2913 18.1884 20.1093 18.0379 19.8764 17.8701C19.6383 17.7096 19.4699 17.6602 19.3712 17.7218C19.3151 17.7311 19.1995 17.9988 19.0243 18.525ZM15.8752 13.9852C15.8938 13.8272 15.8802 13.6874 15.8344 13.566C15.7833 13.4131 15.7016 13.2879 15.5893 13.1904C15.4832 13.0918 15.3356 12.9937 15.1464 12.8961C14.9624 12.7911 14.8064 12.7009 14.6785 12.6253C14.5385 12.9778 14.4354 13.2435 14.369 13.4223C14.3089 13.6002 14.2022 13.9794 14.0489 14.56C14.0572 14.6102 14.1051 14.6668 14.1924 14.7298C14.286 14.7917 14.3936 14.8609 14.5153 14.9375C14.6421 15.0068 14.7804 15.0871 14.9301 15.1783C15.085 15.2623 15.1812 15.3012 15.2186 15.295C15.2809 15.2846 15.3567 15.2204 15.446 15.1022C15.582 14.9183 15.6815 14.7274 15.7448 14.5297C15.8132 14.3247 15.8567 14.1432 15.8752 13.9852ZM29.3936 8.76324L29.4421 9.05532C29.5299 9.58293 29.7312 9.92705 30.0462 10.0877C30.2334 10.1728 30.4079 10.1824 30.57 10.1168C30.732 10.0511 30.8452 9.94191 30.9095 9.78921C30.9801 9.63548 31.0313 9.46235 31.0634 9.26983C31.0944 9.07103 31.138 8.96696 31.1941 8.95763C31.2626 8.94623 31.3017 9.00751 31.3111 9.14149C31.3425 9.36865 31.3319 9.74802 31.2794 10.2796C31.233 10.8101 31.1217 11.2579 30.9454 11.6229C30.769 11.9879 30.5172 12.2072 30.1899 12.281C29.8512 12.3244 29.5575 12.1764 29.3089 11.8369C29.08 11.5006 28.9237 11.0425 28.8401 10.4625L28.8307 10.406L28.8291 10.3966L28.8292 10.396C28.7546 9.90567 28.6916 9.21921 28.6403 8.33661C28.6251 8.0438 28.6133 7.89438 28.6049 7.78772L28.6049 7.78756L28.6049 7.78748L28.6049 7.78743C28.5875 7.56799 28.5844 7.52945 28.5957 6.79355C28.6443 6.46919 28.7565 5.89218 28.9325 5.06252C28.9511 4.98196 28.9771 4.94537 29.0103 4.95275C29.0498 4.95909 29.0737 4.98739 29.0821 5.03764C29.1271 5.4239 29.1709 6.16861 29.2134 7.27177C29.2398 7.95679 29.2648 7.95187 29.2886 7.9472C29.3031 7.94436 29.3171 7.94161 29.3306 8.09595C29.3663 8.50312 29.3873 8.72556 29.3936 8.76324ZM28.7036 14.1948C28.5285 14.7209 28.4477 15.0248 28.4612 15.1065C28.4675 15.1442 28.5767 15.2229 28.7888 15.3425C28.9946 15.4632 29.1475 15.554 29.2473 15.6148C29.3544 15.6809 29.4328 15.7098 29.4827 15.7015C29.6822 15.6684 29.8934 15.2815 30.1161 14.5408C30.27 14.6185 30.4525 14.7334 30.6636 14.8855C30.8746 15.0376 31.0145 15.1079 31.083 15.0965C31.189 15.0789 31.3276 14.8913 31.4987 14.5336C31.6751 14.1686 31.7434 13.8668 31.7037 13.6281C31.6578 13.4292 31.5065 13.2317 31.2496 13.0356C31.0001 12.8447 30.7974 12.7622 30.6415 12.7881C30.5916 12.7964 30.5102 12.9423 30.3972 13.2257C30.2904 13.5081 30.1919 13.7633 30.1016 13.9914C29.9706 13.8582 29.7855 13.7083 29.5464 13.5415C29.3145 13.38 29.1492 13.33 29.0505 13.3916C28.9944 13.4009 28.8788 13.6686 28.7036 14.1948Z" fill="#00A754"/>
</svg>
