<svg width="24" height="25" viewBox="0 0 24 25" fill="none" xmlns="http://www.w3.org/2000/svg">
<path d="M22 10.7812V13.7812C22 17.7812 20 19.7812 16 19.7812H15.5C15.19 19.7812 14.89 19.9312 14.7 20.1812L13.2 22.1812C12.54 23.0612 11.46 23.0612 10.8 22.1812L9.3 20.1812C9.14 19.9612 8.77 19.7812 8.5 19.7812H8C4 19.7812 2 18.7812 2 13.7812V8.78125C2 4.78125 4 2.78125 8 2.78125H14" stroke="#FF0000" stroke-width="1.5" stroke-miterlimit="10" stroke-linecap="round" stroke-linejoin="round"/>
<path d="M19.5 7.78125C20.8807 7.78125 22 6.66196 22 5.28125C22 3.90054 20.8807 2.78125 19.5 2.78125C18.1193 2.78125 17 3.90054 17 5.28125C17 6.66196 18.1193 7.78125 19.5 7.78125Z" stroke="#FF0000" stroke-width="1.5" stroke-linecap="round" stroke-linejoin="round"/>
<path d="M15.9965 11.7812H16.0054" stroke="#FF0000" stroke-width="2" stroke-linecap="round" stroke-linejoin="round"/>
<path d="M11.9955 11.7812H12.0045" stroke="#FF0000" stroke-width="2" stroke-linecap="round" stroke-linejoin="round"/>
<path d="M7.99451 11.7812H8.00349" stroke="#FF0000" stroke-width="2" stroke-linecap="round" stroke-linejoin="round"/>
</svg>
