<svg width="18" height="19" viewBox="0 0 18 19" fill="none" xmlns="http://www.w3.org/2000/svg">
<path d="M6 16.7272V2.50719C6 1.15719 5.55294 0.617188 4.42353 0.617188H1.57647C0.447059 0.617188 0 1.15719 0 2.50719V16.7272C0 18.0772 0.447059 18.6172 1.57647 18.6172H4.42353C5.55294 18.6172 6 18.0772 6 16.7272Z" fill="white"/>
<path d="M18 16.7272V2.50719C18 1.15719 17.5529 0.617188 16.4235 0.617188H13.5765C12.4549 0.617188 12 1.15719 12 2.50719V16.7272C12 18.0772 12.4471 18.6172 13.5765 18.6172H16.4235C17.5529 18.6172 18 18.0772 18 16.7272Z" fill="white"/>
</svg>
