<svg width="24" height="25" viewBox="0 0 24 25" fill="none" xmlns="http://www.w3.org/2000/svg">
<path d="M16 13.0172V17.2172C16 20.7172 14.6 22.1172 11.1 22.1172H6.9C3.4 22.1172 2 20.7172 2 17.2172V13.0172C2 9.51719 3.4 8.11719 6.9 8.11719H11.1C14.6 8.11719 16 9.51719 16 13.0172Z" stroke="#344054" stroke-width="1.5" stroke-linecap="round" stroke-linejoin="round"/>
<path d="M22 7.01719V11.2172C22 14.7172 20.6 16.1172 17.1 16.1172H16V13.0172C16 9.51719 14.6 8.11719 11.1 8.11719H8V7.01719C8 3.51719 9.4 2.11719 12.9 2.11719H17.1C20.6 2.11719 22 3.51719 22 7.01719Z" stroke="#344054" stroke-width="1.5" stroke-linecap="round" stroke-linejoin="round"/>
</svg>
