<svg width="22" height="23" viewBox="0 0 22 23" fill="none" xmlns="http://www.w3.org/2000/svg">
<path d="M20.97 17.6386C20.97 17.9986 20.89 18.3686 20.72 18.7286C20.55 19.0886 20.33 19.4286 20.04 19.7486C19.55 20.2886 19.01 20.6786 18.4 20.9286C17.8 21.1786 17.15 21.3086 16.45 21.3086C15.43 21.3086 14.34 21.0686 13.19 20.5786C12.04 20.0886 10.89 19.4286 9.75 18.5986C8.6 17.7586 7.51 16.8286 6.47 15.7986C5.44 14.7586 4.51 13.6686 3.68 12.5286C2.86 11.3886 2.2 10.2486 1.72 9.11859C1.24 7.97859 1 6.88859 1 5.84859C1 5.16859 1.12 4.51859 1.36 3.91859C1.6 3.30859 1.98 2.74859 2.51 2.24859C3.15 1.61859 3.85 1.30859 4.59 1.30859C4.87 1.30859 5.15 1.36859 5.4 1.48859C5.66 1.60859 5.89 1.78859 6.07 2.04859L8.39 5.31859C8.57 5.56859 8.7 5.79859 8.79 6.01859C8.88 6.22859 8.93 6.43859 8.93 6.62859C8.93 6.86859 8.86 7.10859 8.72 7.33859C8.59 7.56859 8.4 7.80859 8.16 8.04859L7.4 8.83859C7.29 8.94859 7.24 9.07859 7.24 9.23859C7.24 9.31859 7.25 9.38859 7.27 9.46859C7.3 9.54859 7.33 9.60859 7.35 9.66859C7.53 9.99859 7.84 10.4286 8.28 10.9486C8.73 11.4686 9.21 11.9986 9.73 12.5286C10.27 13.0586 10.79 13.5486 11.32 13.9986C11.84 14.4386 12.27 14.7386 12.61 14.9186C12.66 14.9386 12.72 14.9686 12.79 14.9986C12.87 15.0286 12.95 15.0386 13.04 15.0386C13.21 15.0386 13.34 14.9786 13.45 14.8686L14.21 14.1186C14.46 13.8686 14.7 13.6786 14.93 13.5586C15.16 13.4186 15.39 13.3486 15.64 13.3486C15.83 13.3486 16.03 13.3886 16.25 13.4786C16.47 13.5686 16.7 13.6986 16.95 13.8686L20.26 16.2186C20.52 16.3986 20.7 16.6086 20.81 16.8586C20.91 17.1086 20.97 17.3586 20.97 17.6386Z" stroke="url(#paint0_linear_4007_1116)" stroke-width="1.5" stroke-miterlimit="10"/>
<defs>
<linearGradient id="paint0_linear_4007_1116" x1="1" y1="11.3086" x2="20.97" y2="11.3086" gradientUnits="userSpaceOnUse">
<stop stop-color="#04C07C"/>
<stop offset="1" stop-color="#0B6E4A"/>
</linearGradient>
</defs>
</svg>
