<svg width="73" height="73" viewBox="0 0 73 73" fill="none" xmlns="http://www.w3.org/2000/svg">
<path d="M20.5683 13.0362C21.1075 12.3843 22.219 12.4184 22.7218 13.0953C23.2133 13.7563 22.9721 14.6209 23.029 15.3819C24.7149 15.3808 26.4008 15.3808 28.0868 15.3808C28.163 14.589 27.8445 13.6266 28.4827 12.9952C29.1027 12.2853 30.3961 12.4912 30.7624 13.3592C30.9979 14.0054 30.8535 14.7096 30.8933 15.3808C32.5849 15.3808 34.2765 15.3819 35.9693 15.3808C36.0296 14.6504 35.7964 13.8427 36.2002 13.1795C36.6667 12.448 37.8179 12.349 38.3935 13.0043C39.0101 13.6425 38.7018 14.5901 38.7746 15.3808C40.4651 15.3819 42.1556 15.3808 43.8473 15.3808C43.9075 14.6402 43.6709 13.8131 44.1009 13.1476C44.5844 12.4241 45.7562 12.3604 46.3022 13.0475C46.8835 13.6846 46.5821 14.6072 46.6572 15.3808C47.9256 15.4217 49.2065 15.2807 50.4636 15.4945C52.1734 15.8461 53.6364 17.1509 54.22 18.7902C54.4259 19.4204 54.5499 20.0814 54.5397 20.7469C54.5385 25.5988 54.5385 30.4507 54.5385 35.3026C54.5636 36.4789 54.4885 37.6609 54.5772 38.8349C56.6351 40.0101 58.2756 41.8792 59.2664 44.0247C61.0036 47.7299 60.5974 52.3406 58.2107 55.6704C57.0356 57.3438 55.4224 58.7078 53.5693 59.5736C51.4044 60.5951 48.9176 60.9114 46.5627 60.4871C42.5197 59.8147 39.009 56.8126 37.6109 52.9731C30.5474 52.9481 23.4829 52.9731 16.4194 52.9606C14.5765 52.9356 12.853 51.5363 12.4651 49.7321C12.3184 49.1826 12.332 48.6093 12.3354 48.0462C12.34 38.8315 12.3263 29.6168 12.3422 20.4022C12.3639 18.0439 14.2091 15.8677 16.5332 15.4706C17.7493 15.2977 18.9825 15.4149 20.2054 15.3808C20.2737 14.6015 19.9859 13.6789 20.5683 13.0362ZM49.4284 18.1964C48.5046 18.1941 47.5809 18.1964 46.6572 18.1964C46.6446 18.7436 46.6822 19.2942 46.6367 19.8414C46.5161 20.6047 45.7289 21.1314 44.9724 21.0063C44.4445 20.855 43.9701 20.45 43.8791 19.888C43.8097 19.3272 43.8643 18.7595 43.8473 18.1952C42.1568 18.1952 40.4663 18.1964 38.7758 18.1952C38.7633 18.7504 38.8008 19.3078 38.7553 19.8618C38.6541 20.4375 38.1637 20.8754 37.6097 21.0097C36.9806 21.0904 36.3663 20.7514 36.0796 20.1917C36.0489 20.0746 36.0159 19.9574 35.9807 19.8425C35.9568 19.293 35.9738 18.7436 35.967 18.1952C34.2765 18.1964 32.5849 18.1941 30.8933 18.1964C30.8682 18.7868 30.9524 19.3886 30.8387 19.9722C30.6862 20.6695 29.9479 21.0916 29.2631 21.0131C28.7307 20.8891 28.2677 20.4841 28.1198 19.9517C28.0492 19.3692 28.1027 18.7811 28.0868 18.1952C26.4008 18.1952 24.7149 18.1952 23.029 18.1952C23.0039 18.7743 23.0847 19.3636 22.9778 19.9369C22.8595 20.4727 22.4135 20.8561 21.9005 21.0051C21.3806 21.0609 20.8038 20.8982 20.4966 20.4477C20.0109 19.7993 20.2714 18.9426 20.2054 18.1964C19.2874 18.1964 18.3693 18.193 17.4513 18.1964C16.2727 18.1839 15.1977 19.2111 15.1601 20.3908C15.1453 21.8504 15.1578 23.3111 15.1544 24.7706C27.3382 24.7718 39.5232 24.7718 51.7081 24.7706C51.7093 23.4305 51.7059 22.0893 51.7104 20.748C51.7161 20.4329 51.6638 20.1223 51.6115 19.8129C51.2941 18.9062 50.4056 18.1884 49.4284 18.1964ZM15.1533 27.5851C15.1533 34.5962 15.1556 41.6073 15.1521 48.6184C15.1476 48.8573 15.2102 49.0893 15.2545 49.3225C15.5253 49.7799 15.9883 50.1769 16.5503 50.1473C23.3566 50.1496 30.1629 50.1485 36.9693 50.1485C36.8054 48.3738 36.9886 46.5479 37.6245 44.8768C38.3344 42.9144 39.596 41.1568 41.2103 39.836C42.8564 38.4743 44.8859 37.5961 46.9973 37.2878C48.5672 37.0568 50.1746 37.1876 51.707 37.5847C51.7104 34.2515 51.707 30.9183 51.7081 27.5851C39.5232 27.5851 27.3382 27.5851 15.1533 27.5851ZM43.6686 41.5128C41.9713 42.6459 40.6858 44.3808 40.1 46.3363C39.2115 49.1849 39.8861 52.4646 41.8519 54.7148C43.1852 56.3018 45.0918 57.3802 47.1304 57.7375C49.2327 58.0605 51.4476 57.6829 53.2587 56.5475C55.0186 55.46 56.4076 53.7581 57.0526 51.7866C57.568 50.3475 57.6306 48.7719 57.3769 47.2726C56.9252 44.862 55.4395 42.6596 53.3509 41.3684C52.2428 40.6471 50.9596 40.2285 49.6548 40.0522C47.5707 39.8076 45.4046 40.3354 43.6686 41.5128Z" fill="#00A754"/>
<path d="M27.6466 31.1874C28.5647 31.0713 29.4998 31.1635 30.4247 31.135C31.155 31.0816 31.816 31.7368 31.8364 32.4547C31.8933 33.1702 31.2836 33.9176 30.5464 33.9131C29.708 33.9256 28.8684 33.9199 28.03 33.9153C27.4782 33.9426 26.9845 33.5411 26.7888 33.0439C26.451 32.3329 26.9174 31.4194 27.6466 31.1874Z" fill="#00A754"/>
<path d="M35.0261 32.5844C34.9727 31.8621 35.5995 31.1385 36.3333 31.1385C37.1705 31.1294 38.0078 31.1328 38.8451 31.1374C39.7302 31.1101 40.4196 32.1317 40.1181 32.9507C39.9497 33.4149 39.5493 33.8483 39.0362 33.9007C38.2535 33.9871 37.464 33.8529 36.6825 33.9541C36.3697 33.9018 36.025 33.9382 35.7462 33.7619C35.3458 33.5082 35.0216 33.0736 35.0261 32.5844Z" fill="#00A754"/>
<path d="M43.6473 31.6912C43.9044 31.3477 44.3207 31.1167 44.7553 31.135C45.5846 31.1361 46.4151 31.127 47.2444 31.1395C48.051 31.1543 48.6675 32.0109 48.4912 32.7845C48.4002 33.417 47.803 33.9551 47.1545 33.9153C46.6221 33.9517 46.0795 33.8595 45.5539 33.9642C45.042 33.8322 44.439 34.0575 43.992 33.6934C43.339 33.2782 43.1922 32.3033 43.6473 31.6912Z" fill="#00A754"/>
<path d="M19.3112 37.5375C19.897 37.3999 20.5068 37.4954 21.1029 37.4681C21.7013 37.4943 22.3702 37.3532 22.8958 37.7196C23.5567 38.1553 23.6694 39.1734 23.1643 39.7707C22.9015 40.0653 22.5272 40.2837 22.1245 40.2815C21.3646 40.2917 20.6046 40.2826 19.8436 40.286C19.1872 40.327 18.5092 39.8583 18.3852 39.1985C18.1963 38.5147 18.6229 37.7287 19.3112 37.5375Z" fill="#00A754"/>
<path d="M26.7818 38.3697C26.9741 37.8043 27.5611 37.4471 28.147 37.4687C28.9456 37.4732 29.7453 37.4573 30.5439 37.4766C31.1685 37.5039 31.6656 38.0034 31.8328 38.5835C31.8294 38.7838 31.8283 38.984 31.8249 39.1853C31.652 39.761 31.148 40.2467 30.5303 40.2797C29.6987 40.2934 28.8671 40.2865 28.0355 40.282C27.1265 40.2729 26.3905 39.2126 26.7818 38.3697Z" fill="#00A754"/>
<path d="M36.2459 37.4842C37.1128 37.4512 37.9819 37.4694 38.8488 37.474C39.5632 37.4876 40.1684 38.1247 40.1889 38.83C40.2162 39.6047 39.512 40.3214 38.7316 40.285C37.9683 40.2861 37.2061 40.2873 36.4428 40.2839C35.7238 40.2975 35.0458 39.6752 35.0264 38.9506C34.9616 38.243 35.544 37.5604 36.2459 37.4842Z" fill="#00A754"/>
<path d="M48.1521 42.9099C48.8369 42.6278 49.7094 43.0408 49.937 43.7427C50.0177 43.9565 50.0302 44.1852 50.0268 44.4127C50.0234 45.4468 50.0246 46.4809 50.0257 47.515C51.1167 47.515 52.2065 47.5127 53.2963 47.515C54.0585 47.4911 54.765 48.1953 54.7183 48.962C54.7218 49.7015 54.0381 50.3476 53.302 50.326C51.7378 50.3294 50.1736 50.3329 48.6094 50.3238C47.8756 50.342 47.2067 49.6935 47.2192 48.9575C47.2158 47.4024 47.2203 45.8473 47.2169 44.2921C47.1783 43.6903 47.5787 43.0965 48.1521 42.9099Z" fill="#00A754"/>
<path d="M19.2102 43.9137C19.7347 43.6987 20.3183 43.8364 20.87 43.7988C21.5697 43.8466 22.3785 43.6237 22.9655 44.1208C23.6742 44.6464 23.6424 45.8568 22.9132 46.3505C22.3182 46.7737 21.5526 46.5894 20.8734 46.6281C20.1749 46.6008 19.3524 46.7771 18.7905 46.2447C18.0419 45.6077 18.2842 44.2516 19.2102 43.9137Z" fill="#00A754"/>
<path d="M27.7192 43.8517C28.5713 43.7322 29.4438 43.8323 30.3038 43.7971C30.942 43.7516 31.5905 44.1805 31.7748 44.797C31.9989 45.4466 31.6474 46.2213 31.016 46.4887C30.4677 46.7242 29.8568 46.599 29.28 46.6286C28.6953 46.5979 28.0798 46.7242 27.5212 46.4955C27.0469 46.3101 26.7499 45.8277 26.6783 45.3385C26.6271 44.6799 27.0787 44.028 27.7192 43.8517Z" fill="#00A754"/>
</svg>
