<svg width="38" height="25" viewBox="0 0 38 25" fill="none" xmlns="http://www.w3.org/2000/svg">
<path d="M2.86749 0.304885C2.98329 0.292018 3.09995 0.286014 3.21746 0.285156C13.7679 0.28773 24.3175 0.284299 34.868 0.286872C35.5045 0.282583 36.1401 0.539912 36.5527 1.03312C36.9575 1.45514 37.1016 2.05901 37.099 2.62942C37.0973 9.3191 37.1008 16.0096 37.0982 22.7002C37.0999 23.3667 36.8288 24.0417 36.2945 24.456C35.881 24.8206 35.3209 24.9561 34.7814 24.9527C24.2318 24.9501 13.6822 24.9535 3.13254 24.9509C2.49694 24.9544 1.86048 24.6979 1.44876 24.2064C1.04389 23.7835 0.898074 23.1797 0.901505 22.6093C0.904936 15.8913 0.895501 9.17242 0.905794 2.45444C0.893786 1.37623 1.78328 0.375221 2.86749 0.304885ZM2.33997 2.53078C2.33054 3.71706 2.33826 4.90249 2.33654 6.08877C13.4454 6.09563 24.5551 6.09563 35.664 6.08877C35.6623 4.90249 35.6692 3.7162 35.6614 2.52992C35.6734 2.16451 35.4015 1.80683 35.0361 1.74764C34.7522 1.7099 34.464 1.73477 34.1784 1.72877C23.8286 1.73048 13.4789 1.7262 3.12997 1.73134C2.69594 1.7099 2.32024 2.1019 2.33997 2.53078ZM2.33397 10.4591C2.33997 14.5712 2.33311 18.6833 2.3374 22.7954C2.37257 23.2294 2.78858 23.5579 3.21832 23.5091C13.7688 23.5065 24.3184 23.5116 34.8689 23.5065C35.2712 23.5253 35.6254 23.19 35.6632 22.7954C35.6674 18.6833 35.6606 14.5712 35.6666 10.4591C33.8009 10.4376 31.9353 10.4565 30.0697 10.4496C20.8247 10.4565 11.5789 10.4376 2.33397 10.4591Z" fill="#00A754"/>
<path d="M7.25838 14.8198C7.36731 14.7941 7.47882 14.7829 7.59119 14.7855C11.8517 14.7898 16.1122 14.7838 20.3718 14.7889C20.7038 14.7769 21.0315 14.9931 21.1395 15.3079C21.2931 15.7402 20.9114 16.2592 20.4525 16.2368C16.1096 16.242 11.7659 16.2411 7.42307 16.2377C7.02935 16.2574 6.66995 15.8835 6.69997 15.4915C6.70083 15.1707 6.95644 14.8962 7.25838 14.8198Z" fill="#00A754"/>
<path d="M7.12028 17.7762C7.26953 17.7136 7.4325 17.6973 7.59376 17.6973C9.90972 17.6998 12.2257 17.6973 14.5416 17.699C14.859 17.6861 15.2115 17.8405 15.3162 18.1613C15.5229 18.6074 15.1223 19.1932 14.6274 19.1435C12.2291 19.1469 9.8308 19.1469 7.4325 19.1435C7.0405 19.1632 6.67853 18.8072 6.70169 18.4135C6.6914 18.139 6.87067 17.8825 7.12028 17.7762Z" fill="#00A754"/>
</svg>
