<svg width="41" height="41" viewBox="0 0 41 41" fill="none" xmlns="http://www.w3.org/2000/svg">
<g clip-path="url(#clip0_339_8327)">
<g clip-path="url(#clip1_339_8327)">
<path d="M20.3901 15.701C22.8725 15.701 24.2689 14.3046 24.2689 11.8222C24.2689 9.33974 22.8725 7.94336 20.3901 7.94336C17.9076 7.94336 16.5113 9.33974 16.5113 11.8222C16.5113 14.3046 17.9076 15.701 20.3901 15.701Z" fill="white"/>
<path d="M20.3902 33.1533C15.5417 33.1533 14.5332 26.5599 14.5332 20.5477C19.1072 19.4936 21.6735 19.4695 26.2472 20.5477C26.2472 26.5599 25.2387 33.1533 20.3902 33.1533Z" fill="#72E492"/>
<path d="M20.3902 33.1533C15.5417 33.1533 14.5332 26.5599 14.5332 20.5477C19.1072 19.4936 21.6735 19.4695 26.2472 20.5477C26.2472 26.5599 25.2387 33.1533 20.3902 33.1533Z" stroke="black" stroke-width="1.71455" stroke-linecap="round" stroke-linejoin="round"/>
<path d="M20.3901 15.701C22.8725 15.701 24.2689 14.3046 24.2689 11.8222C24.2689 9.33974 22.8725 7.94336 20.3901 7.94336C17.9076 7.94336 16.5113 9.33974 16.5113 11.8222C16.5113 14.3046 17.9076 15.701 20.3901 15.701Z" stroke="black" stroke-width="1.71455" stroke-linecap="round" stroke-linejoin="round"/>
</g>
<path fill-rule="evenodd" clip-rule="evenodd" d="M17.3223 0.994141L1.49869 14.8041V10.5507L12.6001 0.994141H17.3223Z" fill="black"/>
<path d="M1.35859 2.61914C1.35859 1.98803 1.8702 1.47642 2.50131 1.47642H38.4987C39.1298 1.47642 39.6414 1.98803 39.6414 2.61914V38.6165C39.6414 39.2476 39.1298 39.7592 38.4987 39.7592H2.50132C1.8702 39.7592 1.35859 39.2476 1.35859 38.6165V2.61914Z" stroke="black" stroke-width="1.71455" stroke-linecap="round" stroke-linejoin="round"/>
</g>
<defs>
<clipPath id="clip0_339_8327">
<rect width="40" height="40" fill="white" transform="translate(0.5 0.617188)"/>
</clipPath>
<clipPath id="clip1_339_8327">
<rect width="28.2378" height="28.2378" fill="white" transform="translate(6.27124 6.42969)"/>
</clipPath>
</defs>
</svg>
