<svg width="73" height="73" viewBox="0 0 73 73" fill="none" xmlns="http://www.w3.org/2000/svg">
<path fill-rule="evenodd" clip-rule="evenodd" d="M36.8302 12.2519L37.1656 12.248L37.5267 12.2568L37.9068 12.2618C41.3105 12.3653 44.7915 13.3724 47.7926 14.9682C47.7175 15.4821 47.5482 15.8563 47.293 16.3068L47.0628 16.7155L46.8209 17.139L46.5848 17.558C46.2504 18.1487 45.9132 18.7345 45.5464 19.3058C45.2666 19.7627 45.1689 19.963 45.2849 20.4852C45.4051 20.6785 45.4651 20.7751 45.5435 20.8535C45.6219 20.9319 45.7185 20.992 45.9118 21.1121C46.1265 21.1517 46.2372 21.1721 46.3437 21.159C46.4569 21.1452 46.5655 21.0934 46.7895 20.9867C47.3243 20.3576 47.7359 19.6007 48.1381 18.8611L48.1381 18.861L48.1382 18.8609C48.2631 18.6312 48.3871 18.4032 48.5136 18.1812C48.6799 17.8902 48.8465 17.5993 49.0131 17.3084L49.2334 16.9223C49.3724 16.6842 49.5205 16.4514 49.6734 16.2221C50.2779 16.3231 50.7597 16.7127 51.2316 17.0943C51.3392 17.1813 51.4463 17.2679 51.5542 17.3506L51.876 17.593C53.4814 18.8504 54.9715 20.3572 56.1934 21.9898L56.4555 22.3346L56.4555 22.3347C56.8454 22.8658 56.9883 23.0606 57.0408 23.2773C57.0711 23.4028 57.0711 23.5355 57.0711 23.7452L57.071 23.7453C56.9695 23.8294 56.9137 23.8757 56.8543 23.9169C56.7817 23.9674 56.7037 24.0103 56.5305 24.1056L56.5304 24.1057L56.1807 24.3021L55.8173 24.4975L55.493 24.6734L54.825 25.0353C54.3549 25.2959 53.89 25.5644 53.4271 25.8376L53.178 25.9822C52.7888 26.214 52.5617 26.3717 52.3065 26.7545C52.2629 27.164 52.2709 27.4272 52.4397 27.8046C52.722 28.0413 52.9169 28.0951 53.2846 28.072C54.1796 27.8653 55.007 27.3299 55.7922 26.8218C55.9616 26.7121 56.1291 26.6038 56.2948 26.5003C56.6806 26.2618 57.0686 26.0302 57.463 25.8062L57.7931 25.6177C57.9172 25.566 57.9865 25.5371 58.0576 25.5318C58.1475 25.525 58.2403 25.556 58.4504 25.626C58.63 25.9457 58.7862 26.2565 58.9362 26.5899L59.0701 26.8823C60.2303 29.4561 60.9653 32.2775 60.9592 35.1147L60.9587 35.4224L60.9581 35.6568L60.7472 35.6582C60.0231 35.6634 59.299 35.6721 58.5749 35.6828C58.3047 35.6864 58.0345 35.689 57.7642 35.6908C57.3757 35.6935 56.9874 35.6993 56.599 35.7058L56.2328 35.7063C55.8964 35.7104 55.73 35.7125 55.5731 35.7522C55.4195 35.7911 55.2751 35.8662 54.9892 36.0147C54.7446 36.3908 54.7333 36.5958 54.8142 37.0361C55.0693 37.3909 55.2725 37.6259 55.711 37.7224C56.0451 37.7477 56.3742 37.753 56.7092 37.7516L57.0776 37.7574C57.4647 37.7628 57.8516 37.7639 58.2388 37.7649C58.5017 37.7678 58.7646 37.7709 59.0276 37.7744C59.6711 37.7823 60.3145 37.7863 60.9581 37.7884C60.9813 40.7736 60.2567 43.5857 59.0773 46.3146L58.9791 46.5481C58.7905 46.9957 58.5859 47.4091 58.325 47.8192C57.8163 47.7454 57.4584 47.5819 57.0182 47.3196L56.6284 47.0894L56.2248 46.8475C55.6849 46.526 55.415 46.3653 55.1442 46.2059C54.8738 46.0467 54.6026 45.8889 54.0609 45.5737L54.0589 45.5726L53.8006 45.4236C53.4087 45.2408 53.1026 45.2359 52.6826 45.3115C52.3566 45.585 52.3141 45.7621 52.2516 46.1814C52.3203 46.6624 52.4783 46.8341 52.8041 47.1881L52.808 47.1923L52.8081 47.1923C52.9672 47.3041 53.0484 47.3611 53.1328 47.4127C53.2206 47.4662 53.3121 47.5139 53.4985 47.611L53.4986 47.611L53.9051 47.8346L54.3283 48.0621C54.603 48.212 54.8776 48.362 55.1521 48.5122L55.5534 48.7311C56.1094 49.0405 56.6542 49.3673 57.1965 49.7C56.9881 50.2579 56.6989 50.6816 56.3266 51.1419L56.1426 51.3724C54.8508 52.9817 53.5537 54.4323 51.9303 55.7185L51.719 55.8871C51.5028 56.0591 51.2857 56.2299 51.0683 56.4003L50.865 56.5618C50.4815 56.859 50.1254 57.0531 49.6734 57.2231L49.5552 57.0017C48.8851 55.7507 48.2138 54.5022 47.4635 53.297L47.3065 53.043L47.3065 53.043C47.1785 52.8281 47.1153 52.7219 47.0336 52.6325C46.9539 52.5452 46.8565 52.474 46.6641 52.3331C46.315 52.2926 46.1453 52.2729 45.9837 52.3006C45.8309 52.3269 45.6855 52.3955 45.4024 52.529C45.2494 52.927 45.3074 53.2102 45.3882 53.6039C45.3954 53.6391 45.4028 53.6752 45.4103 53.7123L45.4104 53.7125C45.4896 53.8986 45.5296 53.9928 45.5757 54.0838C45.6228 54.1769 45.6763 54.2667 45.7844 54.4484L45.7845 54.4485L46.0147 54.8547L46.2566 55.2718L46.4927 55.6874C46.8273 56.2736 47.1649 56.8492 47.5438 57.4078C47.7333 57.7113 47.7913 57.8334 47.82 58.1992C47.6026 58.5944 47.2871 58.7262 46.8931 58.8909L46.8522 58.908L46.599 59.0196C45.6366 59.4349 44.6508 59.7817 43.6549 60.107L43.2224 60.2519C42.3479 60.5252 41.4717 60.6936 40.5673 60.8279L40.2456 60.8765C39.4155 60.9901 38.5987 61.0009 37.7618 60.9847L37.7604 60.7738C37.7551 60.0497 37.7465 59.3256 37.7358 58.6016C37.7322 58.3313 37.7296 58.0611 37.7278 57.7908C37.7251 57.4023 37.7193 57.014 37.7128 56.6256L37.7123 56.2594C37.7078 55.9238 37.7056 55.7578 37.6665 55.6009C37.6281 55.4473 37.5543 55.3025 37.4083 55.0158C37.0001 54.7545 36.7302 54.7648 36.2571 54.8408C35.9492 55.1096 35.7801 55.3298 35.7076 55.7376C35.6854 56.0712 35.6796 56.4015 35.6792 56.7358L35.6729 57.1042C35.6668 57.4912 35.6642 57.8783 35.6616 58.2654C35.658 58.5283 35.6543 58.7912 35.6503 59.0542C35.641 59.6977 35.6348 60.3411 35.6302 60.9847C34.5964 61.0126 33.617 60.9437 32.5975 60.7731L32.1844 60.7049C30.3629 60.3907 28.672 59.8388 26.9786 59.1039L26.5873 58.9344L26.5872 58.9344C25.9921 58.6592 25.8257 58.5822 25.7274 58.4534C25.6893 58.4034 25.6614 58.3456 25.6227 58.2653C25.5917 57.8793 25.7371 57.639 25.9222 57.3331C25.9502 57.2869 25.9791 57.2392 26.0084 57.1893L26.1402 56.9616C26.2798 56.7214 26.4215 56.4825 26.5633 56.2435C26.6564 56.0842 26.7494 55.9248 26.8422 55.7653C27.0148 55.4692 27.1883 55.1737 27.3625 54.8786L27.6056 54.4646L27.7456 54.2314C28.0394 53.7342 28.2108 53.4182 28.1071 52.8346C28.0226 52.6783 27.9796 52.5987 27.9188 52.5366C27.8557 52.4721 27.7733 52.4263 27.6056 52.3331C27.3461 52.2977 27.2185 52.2803 27.0911 52.2809C26.9679 52.2815 26.8447 52.2988 26.6026 52.3331L26.6025 52.3331C26.3356 52.6224 26.1875 52.8329 26.0069 53.1716L25.8528 53.4368C25.6805 53.7355 25.5143 54.0369 25.3486 54.3392C25.1496 54.6987 24.95 55.0577 24.749 55.4159C24.6172 55.6518 24.4873 55.8886 24.3594 56.1266L24.178 56.4546L24.0192 56.7482C23.9295 56.8629 23.8857 56.9189 23.8311 56.9608C23.7791 57.0007 23.7171 57.0278 23.5961 57.0807C23.2203 57.1059 22.947 56.8919 22.6656 56.6717C22.6199 56.6359 22.574 56.5999 22.5274 56.5648L22.2948 56.3941C21.2697 55.6268 20.3591 54.7428 19.4555 53.8377L19.1959 53.5913C18.4136 52.8402 17.7556 52.0153 17.1006 51.1543C16.966 50.9777 16.8297 50.8023 16.6931 50.6271C16.3331 50.161 16.2335 50.0321 16.206 49.8893C16.1955 49.8348 16.1955 49.7782 16.1955 49.7L16.4554 49.5568C17.2862 49.0979 18.114 48.634 18.9393 48.1654C19.1757 48.0318 19.4127 47.8993 19.6509 47.7689L19.6509 47.7689C20.1325 47.5314 20.3681 47.4153 20.5651 47.2526C20.7538 47.0969 20.9072 46.8984 21.2075 46.51C21.2359 46.0559 21.1639 45.7912 20.8896 45.429C20.4716 45.2683 20.1527 45.2787 19.7063 45.3115C19.5206 45.396 19.4251 45.4394 19.3345 45.4913C19.2386 45.5461 19.1481 45.6103 18.9618 45.7425C18.821 45.8348 18.6799 45.9267 18.5386 46.0183L18.3138 46.1649C17.8802 46.4381 17.4307 46.6845 16.9813 46.9308L16.9811 46.9309L16.7669 47.0485C16.3832 47.2611 16.0117 47.4781 15.6504 47.7271C15.4492 47.8587 15.3697 47.9106 15.2828 47.9312C15.226 47.9446 15.1661 47.9446 15.067 47.9446C14.1659 45.9316 13.3657 43.9692 12.8414 41.8242L12.7612 41.4975C12.4643 40.2299 12.4063 38.9776 12.3947 37.6787L12.3837 37.2555L12.3805 36.849L12.375 36.4832C12.4539 36.0483 12.5863 35.9253 12.9355 35.6568C13.2608 35.6086 13.5325 35.591 13.8574 35.5965L14.1395 35.5952C14.4498 35.5944 14.7599 35.5971 15.0702 35.5998H15.0705L15.0757 35.5999C15.2994 35.6 15.523 35.5999 15.7467 35.5997C16.3542 35.5995 16.9616 35.6025 17.5691 35.606C18.1435 35.6088 18.7179 35.6093 19.2923 35.6098L19.4732 35.61C20.6753 35.6116 21.8774 35.6157 23.0794 35.6207C24.4479 35.6263 25.8164 35.6291 27.1848 35.6316C30 35.6368 32.8151 35.6456 35.6302 35.6568L35.6285 35.3041C35.6146 32.4735 35.6043 29.6429 35.5977 26.8122C35.5945 25.4433 35.5901 24.0745 35.5829 22.7056C35.5767 21.5126 35.5726 20.3197 35.5712 19.1267C35.5704 18.4949 35.5685 17.8631 35.5639 17.2313C35.5597 16.6368 35.5584 16.0423 35.5593 15.4477C35.5591 15.2294 35.5579 15.0111 35.5555 14.7928C35.5524 14.4948 35.5531 14.197 35.5548 13.899L35.5493 13.637C35.5567 13.1578 35.6228 12.9712 35.9308 12.5951C36.2729 12.3226 36.4025 12.255 36.8302 12.2519ZM16.9478 23.996C17.399 24.1913 17.813 24.439 18.233 24.6934L18.5856 24.9013C18.9188 25.0988 19.2502 25.2989 19.5809 25.5006L19.8331 25.654L19.8331 25.654C20.8715 26.2896 20.8715 26.2896 21.2109 26.6291C21.2616 27.1532 21.2814 27.3574 21.2292 27.5411C21.1959 27.6583 21.1332 27.7672 21.0307 27.9456L21.0307 27.9456C20.5275 28.2401 20.1483 28.2687 19.5809 28.1337C19.092 27.8883 18.6458 27.5906 18.192 27.2862C17.9279 27.1158 17.6585 26.9584 17.3857 26.8025L17.0947 26.6361C16.906 26.5288 16.717 26.422 16.5276 26.3159C16.0009 26.0127 15.8087 25.902 15.6733 25.743C15.5954 25.6516 15.5363 25.5443 15.4432 25.3752C15.4124 25.1947 15.3968 25.1026 15.3962 25.0105C15.3955 24.9147 15.4112 24.8187 15.4432 24.6229C15.8908 23.999 16.1994 23.9051 16.9478 23.996ZM26.5011 16.6203C26.2243 16.116 25.9532 15.7941 25.474 15.4698C24.8324 15.3797 24.4515 15.4006 24.0948 15.9713C24.0034 16.6681 24.074 16.9821 24.4398 17.5917C24.5526 17.7794 24.6625 17.9688 24.7704 18.1592C24.8968 18.3846 25.0235 18.6097 25.1508 18.8346L25.3486 19.1843C25.4053 19.2854 25.4614 19.3872 25.5175 19.4892C25.8326 20.0616 26.1501 20.6386 26.6025 21.1121C26.8121 21.182 26.9179 21.2172 27.0265 21.2331C27.1372 21.2493 27.2508 21.2454 27.4802 21.2375C27.6965 21.1116 27.8043 21.0489 27.8986 20.9701C27.9921 20.892 28.0725 20.7979 28.2325 20.6106C28.3295 20.0865 28.2825 19.8245 28.0273 19.3572C27.8632 19.0808 27.7026 18.8037 27.5472 18.5222C27.4115 18.2736 27.2751 18.0253 27.1381 17.7774L26.9238 17.3897L26.711 16.9977L26.5011 16.6203Z" fill="#00A754"/>
</svg>
