<svg width="24" height="25" viewBox="0 0 24 25" fill="none" xmlns="http://www.w3.org/2000/svg">
<path d="M21 6.09375C17.67 5.76375 14.32 5.59375 10.98 5.59375C8.99622 5.59394 7.01371 5.69407 5.04 5.89375L3 6.09375" stroke="#FF0000" stroke-width="1.5" stroke-linecap="round" stroke-linejoin="round"/>
<path d="M8.5 5.08719L8.72 3.77719C8.88 2.82719 9 2.11719 10.69 2.11719H13.31C15 2.11719 15.13 2.86719 15.28 3.78719L15.5 5.08719" stroke="#FF0000" stroke-width="1.5" stroke-linecap="round" stroke-linejoin="round"/>
<path d="M18.8504 9.25781L18.2004 19.3278C18.0904 20.8978 18.0004 22.1178 15.2104 22.1178H8.79039C6.00039 22.1178 5.91039 20.8978 5.80039 19.3278L5.15039 9.25781" stroke="#FF0000" stroke-width="1.5" stroke-linecap="round" stroke-linejoin="round"/>
<path d="M10.3301 16.6172H13.6601" stroke="#FF0000" stroke-width="1.5" stroke-linecap="round" stroke-linejoin="round"/>
<path d="M9.5 12.6172H14.5" stroke="#FF0000" stroke-width="1.5" stroke-linecap="round" stroke-linejoin="round"/>
</svg>
