<svg width="40" height="38" viewBox="0 0 40 38" fill="none" xmlns="http://www.w3.org/2000/svg">
<line opacity="0.4" x1="1.59469" y1="2.64343" x2="9.15066" y2="36.9887" stroke="#FF0000" stroke-width="1.37381"/>
<path fill-rule="evenodd" clip-rule="evenodd" d="M4.01465 4.50776C4.01465 4.50776 10.2574 5.33381 17.0659 3.82081C18.2495 3.55778 19.5509 3.24019 20.9101 2.9085C26.6192 1.51532 33.3471 -0.126506 36.6427 0.982152C37.7379 1.35059 37.8005 3.40249 37.8753 5.85474C37.9398 7.9715 38.0135 10.3866 38.7683 12.2746C40.0861 15.5712 36.7325 21.2747 36.7325 21.2747C36.7325 21.2747 36.7801 16.3101 30.804 19.5286C25.8742 22.1835 22.9229 22.5602 17.9812 23.1909C17.4699 23.2561 16.9373 23.3241 16.379 23.3976C13.0439 23.8367 8.13608 22.3673 8.13608 22.3673L4.01465 4.50776ZM27.8286 5.02825C27.2493 5.74424 26.7313 6.32741 26.2744 6.77776L26.271 6.78842L26.2651 6.77931L26.1623 6.8545C26.1436 6.85761 26.0521 6.86636 25.8879 6.88076C25.8485 6.91314 25.8153 6.98321 25.7884 7.09096C25.7148 7.3033 25.6312 7.43661 25.5377 7.49088C25.4619 7.53576 25.3601 7.53979 25.2322 7.50295C25.1855 7.56881 25.1228 7.67285 25.0439 7.81506C24.9547 7.9719 24.8384 8.06225 24.695 8.08609C24.6202 8.09853 24.537 8.09944 24.4456 8.08883C24.3489 8.08554 24.27 8.09222 24.2087 8.10886C24.1235 8.13594 23.9688 8.28431 23.7445 8.55397C23.5369 8.80796 23.3028 9.01795 23.0421 9.18394C22.7939 9.34196 22.524 9.40415 22.2324 9.37051C22.2143 9.33979 22.195 9.31098 22.1746 9.28408C22.0312 9.2692 21.9059 9.18998 21.7988 9.04643C21.6968 8.89556 21.6265 8.74265 21.588 8.58769C21.541 8.34376 21.4671 8.22695 21.3663 8.23726C21.2718 8.24653 21.2002 8.37462 21.1515 8.62154C21.0866 9.19391 20.9367 9.58353 20.7021 9.79037C20.4674 9.99722 20.2425 10.1282 20.0275 10.1833C19.8114 10.2322 19.575 10.2554 19.3183 10.2529C19.2745 10.2525 19.2131 10.2431 19.146 10.2328H19.146C18.9871 10.2085 18.7964 10.1793 18.7322 10.2535C18.6693 10.3261 18.7755 10.6856 18.8584 10.9661L18.8584 10.9661C18.896 11.0932 18.9287 11.2041 18.9388 11.2648C18.9753 11.4459 19.0243 11.625 19.0858 11.8019C19.1462 11.9726 19.1947 12.1485 19.2312 12.3297C19.5161 13.6959 19.4682 14.8141 19.0875 15.6842C18.8439 16.2992 18.4759 16.8413 17.9838 17.3104C17.3077 17.8682 16.5645 18.2145 15.7541 18.3493C15.1109 18.4498 14.5575 18.3772 14.0938 18.1316C13.6375 17.8912 13.3414 17.4595 13.2058 16.8366C13.0846 16.0305 13.2095 15.0286 13.5805 13.8309C13.5991 13.7116 13.5839 13.6012 13.535 13.4996C13.485 13.3917 13.4041 13.502 13.2921 13.8304C12.7002 15.4716 12.5138 16.9323 12.7331 18.2126C12.8928 19.0187 13.2253 19.6122 13.7307 19.9929C14.2371 20.3799 14.8607 20.5279 15.6015 20.437C17.0146 20.1891 18.1117 19.2934 18.8929 17.7499C19.2207 17.0628 19.4632 16.3447 19.6205 15.5956C19.8555 14.4657 19.9173 13.2193 19.806 11.8565C19.8061 11.778 19.8038 11.6985 19.7992 11.6191C20.2238 11.429 20.536 11.2338 20.7358 11.0338C20.9445 10.8248 21.1033 10.5854 21.2122 10.3155C21.3714 10.5795 21.556 10.7651 21.766 10.8721C21.964 10.9785 22.1788 11.0167 22.4105 10.9868C22.4352 11.0252 22.455 11.0498 22.4701 11.0606C22.6446 11.0316 22.8222 10.9439 23.0029 10.7977C23.1847 10.6578 23.3507 10.4236 23.5011 10.0952C23.7407 9.53252 23.954 9.23563 24.141 9.20453C24.1722 9.19934 24.3145 9.18858 24.5681 9.17224C24.6533 9.14516 24.7779 9.02762 24.9419 8.81961C25.0124 8.7046 25.0784 8.61941 25.1396 8.56404C25.1895 8.51702 25.2632 8.47894 25.3609 8.44979C25.4533 8.42796 25.5203 8.38777 25.5618 8.32923C25.6376 8.24562 25.6999 8.17717 25.7487 8.12387C25.8172 8.03502 25.8748 7.97703 25.9216 7.94989C25.9507 7.93215 26.0093 7.8998 26.0976 7.85284C26.1797 7.80692 26.2472 7.75051 26.3001 7.68362L26.3967 7.57074L26.4004 7.55559L26.406 7.56918C26.8659 7.06023 27.2843 6.5711 27.6611 6.10178C28.0442 5.63143 28.3037 5.32362 28.4397 5.17836C28.582 5.03207 28.6842 4.93438 28.7465 4.88529C28.814 4.82888 28.8675 4.78448 28.907 4.7521C28.9786 4.6821 29.044 4.55504 29.1031 4.37094C29.1569 4.19415 29.19 3.98855 29.2023 3.75413C29.2116 3.69449 29.211 3.63327 29.2006 3.57046C29.1974 3.51289 29.1652 3.49243 29.1039 3.50908C28.9357 3.65324 28.8116 3.75456 28.7316 3.81304C28.5924 3.90073 28.4667 3.95391 28.3545 3.97257C28.155 4.00574 27.9275 4.00486 27.6718 3.96991C27.068 3.88313 26.7411 3.84389 26.6912 3.85218C26.3857 3.86425 26.1572 4.01198 26.0058 4.29536C25.8605 4.57771 25.7573 4.80465 25.6962 4.9762C25.6391 5.13414 25.6127 5.24503 25.6169 5.30888C25.617 5.38633 25.6404 5.43085 25.6872 5.44243C25.7277 5.45506 25.7714 5.42844 25.8181 5.36258L25.9955 5.10069C26.1066 4.92086 26.2587 4.81487 26.452 4.78273C26.6328 4.75267 26.8895 4.77453 27.2221 4.84832C27.4694 4.91047 27.6716 4.97044 27.8286 5.02825ZM20.1903 18.7828C20.0152 19.3089 19.9344 19.6128 19.9479 19.6945C19.9542 19.7322 20.0634 19.8109 20.2755 19.9305C20.4813 20.0512 20.6342 20.142 20.734 20.2028C20.8411 20.2689 20.9195 20.2978 20.9694 20.2895C21.1689 20.2564 21.38 19.8695 21.6028 19.1288C21.7567 19.2065 21.9392 19.3214 22.1502 19.4735C22.3613 19.6256 22.5012 19.6959 22.5697 19.6845C22.6757 19.6669 22.8143 19.4793 22.9854 19.1216C23.1618 18.7566 23.2301 18.4548 23.1904 18.2161C23.1445 18.0172 22.9932 17.8197 22.7363 17.6236C22.4868 17.4327 22.2841 17.3502 22.1282 17.3761C22.0783 17.3844 21.9969 17.5303 21.8839 17.8137C21.7771 18.0961 21.6786 18.3513 21.5883 18.5794C21.4573 18.4462 21.2753 18.2958 21.0424 18.1279C20.8043 17.9674 20.6359 17.918 20.5372 17.9796C20.4811 17.9889 20.3655 18.2566 20.1903 18.7828ZM17.0412 14.243C17.0598 14.085 17.0462 13.9452 17.0004 13.8238C16.9493 13.6709 16.8676 13.5457 16.7553 13.4482C16.6492 13.3496 16.5016 13.2515 16.3124 13.1539C16.1284 13.049 15.9724 12.9587 15.8445 12.8831C15.7045 13.2356 15.6014 13.5013 15.535 13.6801C15.4749 13.858 15.3682 14.2372 15.2149 14.8178C15.2232 14.868 15.2711 14.9246 15.3584 14.9876C15.452 15.0495 15.5596 15.1187 15.6813 15.1953C15.8081 15.2646 15.9464 15.3449 16.0961 15.4362C16.251 15.5201 16.3472 15.559 16.3846 15.5528C16.4469 15.5424 16.5227 15.4782 16.612 15.3601C16.748 15.1761 16.8475 14.9852 16.9108 14.7875C16.9792 14.5825 17.0227 14.401 17.0412 14.243ZM30.5596 9.02106L30.6081 9.31313C30.6959 9.84074 30.8972 10.1849 31.2122 10.3455C31.3994 10.4306 31.5739 10.4403 31.736 10.3746C31.898 10.3089 32.0112 10.1997 32.0755 10.047C32.1461 9.89329 32.1973 9.72016 32.2294 9.52764C32.2604 9.32884 32.304 9.22477 32.3601 9.21544C32.4286 9.20404 32.4677 9.26533 32.4771 9.3993C32.5085 9.62646 32.4979 10.0058 32.4454 10.5374C32.399 11.068 32.2877 11.5157 32.1114 11.8807C31.935 12.2457 31.6832 12.465 31.3559 12.5388C31.0172 12.5823 30.7235 12.4342 30.4749 12.0947C30.246 11.7584 30.0897 11.3003 30.0061 10.7203L29.9967 10.6638L29.9951 10.6544L29.9952 10.6538C29.9206 10.1635 29.8576 9.47703 29.8063 8.59442C29.7911 8.30161 29.7793 8.15219 29.7709 8.04553L29.7709 8.04537L29.7709 8.04529L29.7709 8.04524C29.7535 7.82581 29.7504 7.78727 29.7617 7.05136C29.8103 6.727 29.9225 6.14999 30.0985 5.32033C30.1171 5.23977 30.1431 5.20318 30.1763 5.21056C30.2158 5.21691 30.2397 5.2452 30.2481 5.29545C30.2931 5.68171 30.3369 6.42642 30.3794 7.52959C30.4058 8.2146 30.4308 8.20968 30.4546 8.20502C30.4691 8.20217 30.4831 8.19942 30.4966 8.35376C30.5323 8.76094 30.5533 8.98337 30.5596 9.02106ZM29.8696 14.4526C29.6945 14.9788 29.6137 15.2827 29.6272 15.3643C29.6335 15.402 29.7427 15.4807 29.9548 15.6003C30.1606 15.721 30.3135 15.8118 30.4133 15.8726C30.5204 15.9387 30.5989 15.9676 30.6487 15.9593C30.8482 15.9262 31.0594 15.5393 31.2821 14.7986C31.436 14.8763 31.6185 14.9912 31.8296 15.1433C32.0406 15.2954 32.1805 15.3658 32.249 15.3544C32.355 15.3367 32.4936 15.1491 32.6647 14.7914C32.8411 14.4265 32.9094 14.1246 32.8697 13.8859C32.8238 13.687 32.6725 13.4895 32.4156 13.2934C32.1661 13.1025 31.9634 13.02 31.8075 13.0459C31.7576 13.0542 31.6762 13.2001 31.5632 13.4835C31.4564 13.766 31.3579 14.0212 31.2676 14.2492C31.1366 14.116 30.9515 13.9661 30.7124 13.7993C30.4805 13.6378 30.3152 13.5878 30.2165 13.6494C30.1604 13.6587 30.0448 13.9265 29.8696 14.4526Z" fill="#FF0000"/>
</svg>
