<svg width="12" height="7" viewBox="0 0 12 7" fill="none" xmlns="http://www.w3.org/2000/svg">
<path d="M0.00109863 3.45119C0.0180986 3.39619 0.0300935 3.34019 0.0520935 3.28719C0.0932623 3.19047 0.157448 3.10527 0.239059 3.03902C0.320671 2.97277 0.417239 2.92747 0.520355 2.90707C0.623472 2.88666 0.730011 2.89176 0.830704 2.92194C0.931397 2.95211 1.02319 3.00644 1.0981 3.08018C1.6981 3.67552 2.29376 4.27119 2.88509 4.86719C2.89709 4.87919 2.90709 4.89318 2.93009 4.92018C2.94066 4.90041 2.95305 4.88166 2.96709 4.86418L7.00009 0.830185C7.10051 0.722647 7.23319 0.650691 7.3781 0.625183C7.38195 0.623242 7.38535 0.620521 7.38809 0.617188H7.5711C7.64708 0.637595 7.72131 0.664006 7.7931 0.696182C7.88068 0.743785 7.95601 0.811071 8.01317 0.892738C8.07033 0.974406 8.10775 1.06823 8.12248 1.16682C8.13722 1.2654 8.12887 1.36607 8.09808 1.46088C8.0673 1.55569 8.01493 1.64205 7.9451 1.71318L7.9191 1.73918L3.40109 6.25719C3.34112 6.32309 3.26813 6.37582 3.18673 6.41206C3.10533 6.4483 3.01729 6.46726 2.92819 6.46773C2.83909 6.4682 2.75086 6.45018 2.66908 6.41479C2.5873 6.37941 2.51376 6.32745 2.45309 6.26218C1.70176 5.51418 0.951761 4.76452 0.203094 4.01318C0.0979935 3.91527 0.0277665 3.7857 0.00309753 3.64419C0.00151899 3.64009 -0.000864573 3.63635 -0.00390625 3.63319L0.00109863 3.45119Z" fill="#00A754"/>
<path d="M5.53182 5.7944C5.53539 5.63542 5.60193 5.48436 5.71682 5.3744L7.3088 3.8204L8.17883 2.9714L9.75182 1.4374L10.4088 0.795401C10.5272 0.678043 10.6874 0.612537 10.8541 0.613288C11.0209 0.614038 11.1805 0.68098 11.2978 0.799399C11.4152 0.917818 11.4807 1.07801 11.4799 1.24473C11.4792 1.41145 11.4122 1.57104 11.2938 1.6884C10.9008 2.0764 10.5028 2.4614 10.1068 2.8464L9.3348 3.5994L7.75381 5.1404L6.76983 6.1014C6.70483 6.1654 6.64182 6.2324 6.56982 6.2914C6.47975 6.37394 6.36701 6.42758 6.24615 6.44541C6.12529 6.46324 6.00187 6.44442 5.89181 6.3914C5.77979 6.33827 5.68591 6.25331 5.62188 6.14713C5.55786 6.04096 5.52654 5.91827 5.53182 5.7944Z" fill="#00A754"/>
</svg>
