<svg width="42" height="29" viewBox="0 0 42 29" fill="none" xmlns="http://www.w3.org/2000/svg">
<path d="M35.0332 0.439453C35.0827 0.539584 35.1322 0.639715 35.1832 0.74288C35.2509 0.879325 35.3187 1.01575 35.3865 1.15215C35.4393 1.2584 35.4393 1.2584 35.4931 1.3668C35.7435 1.86775 36.0073 2.35867 36.2876 2.84365C36.4032 3.08247 36.4547 3.29692 36.4951 3.55824C35.8169 3.95669 35.136 4.34341 34.4301 4.69124C32.82 5.4852 31.228 6.31539 29.6589 7.18771C29.1265 7.4826 28.5883 7.76107 28.0423 8.02994C27.1808 8.45506 26.3321 8.90506 25.4811 9.35096C25.1954 9.50035 24.9093 9.64898 24.623 9.79734C24.5303 9.84548 24.4376 9.89361 24.342 9.9432C24.1567 10.0394 23.9712 10.1354 23.7857 10.2313C23.3009 10.4832 22.8219 10.7424 22.3475 11.0133C22.25 11.0685 22.1525 11.1236 22.0521 11.1805C21.8655 11.2866 21.6797 11.3941 21.4949 11.5033C21.3695 11.5744 21.3695 11.5744 21.2415 11.6468C21.1685 11.6894 21.0955 11.732 21.0203 11.7759C20.7233 11.8673 20.5886 11.7849 20.3164 11.6476C20.213 11.5986 20.1096 11.5496 20.0031 11.4991C19.882 11.4393 19.7611 11.3791 19.6403 11.3187C19.574 11.2856 19.5078 11.2525 19.4396 11.2184C18.7449 10.8677 18.0629 10.494 17.3819 10.1176C16.8847 9.84339 16.3839 9.58091 15.875 9.32923C15.4921 9.13808 15.1147 8.93664 14.7367 8.73592C14.1954 8.44961 13.653 8.16711 13.1042 7.89531C12.5124 7.6018 11.9278 7.2961 11.344 6.9871C10.7646 6.6808 10.1829 6.37914 9.60038 6.07874C8.60421 5.56482 7.61261 5.04518 6.63442 4.49767C6.16593 4.23613 5.69185 3.99433 5.20694 3.76442C5.01485 3.6557 5.01485 3.6557 4.91739 3.46078C5.12781 2.89405 5.41891 2.36691 5.70318 1.83438C5.78963 1.67158 5.87605 1.50876 5.96244 1.34593C6.00039 1.27473 6.03834 1.20354 6.07744 1.13018C6.18076 0.933686 6.28077 0.735838 6.37932 0.536915C6.92831 0.600854 7.43933 0.728847 7.96917 0.884124C8.0576 0.909707 8.14603 0.935289 8.23715 0.961647C9.04667 1.19753 9.85231 1.44591 10.6576 1.69575C11.4448 1.93962 12.2343 2.17472 13.025 2.40697C16.0842 3.30901 18.8156 4.47606 20.5083 7.35279C20.6088 7.55419 20.6088 7.55419 20.6088 7.74911C20.6731 7.74911 20.7374 7.74911 20.8037 7.74911C20.8439 7.6432 20.8439 7.6432 20.8848 7.53515C21.6942 5.59148 23.6819 4.04935 25.5794 3.26586C26.5172 2.91999 27.4678 2.6238 28.4329 2.36502C28.8607 2.24603 29.2814 2.10652 29.7032 1.96839C30.5432 1.69689 31.3878 1.45389 32.2404 1.22579C33.0237 1.01601 33.8003 0.790587 34.5672 0.526255C34.8383 0.439453 34.8383 0.439453 35.0332 0.439453Z" fill="#00A754"/>
<path d="M38.8342 5.01953C39.2607 5.39944 39.4712 5.93285 39.7297 6.43273C39.7841 6.53588 39.8386 6.63902 39.8947 6.7453C39.9461 6.84417 39.9976 6.94305 40.0506 7.04492C40.0977 7.13544 40.1449 7.22596 40.1934 7.31922C40.2962 7.55355 40.2962 7.55355 40.2962 7.84593C40.2186 7.88413 40.1411 7.92232 40.0613 7.96167C38.16 8.90331 36.2677 9.86871 34.4139 10.901C33.8976 11.1876 33.3756 11.4579 32.8459 11.719C31.3092 12.478 29.7913 13.2751 28.2932 14.1075C27.7748 14.3945 27.2514 14.6665 26.7198 14.9281C26.0326 15.2673 25.3522 15.6195 24.6718 15.9718C24.6099 16.0039 24.548 16.0359 24.4842 16.069C23.6792 16.4859 22.8754 16.905 22.074 17.3287C21.6534 17.5509 21.2319 17.7711 20.8094 17.9896C19.809 18.5072 18.812 19.029 17.825 19.5718C17.1635 19.9356 16.4987 20.2874 15.8215 20.621C15.3399 20.8585 14.8641 21.1055 14.3895 21.3566C13.622 21.7627 12.852 22.1636 12.0809 22.5627C11.2555 22.99 10.4312 23.4194 9.60929 23.8533C8.86743 24.2446 8.12297 24.6309 7.3786 25.0174C6.77243 25.3323 6.16716 25.6489 5.56308 25.9678C4.6968 26.4251 3.82699 26.8756 2.9568 27.3254C2.45781 27.5837 1.95939 27.8427 1.46396 28.1078C1.38659 28.1492 1.30921 28.1906 1.22949 28.2332C1.08916 28.3085 0.949012 28.3842 0.809091 28.4603C0.357825 28.7028 0.357825 28.7028 0.141751 28.7028C0.11757 28.2278 0.0999374 27.7531 0.0882133 27.2775C0.0833255 27.116 0.0766838 26.9546 0.0682259 26.7932C-9.23276e-05 25.4558 -9.23239e-05 25.4558 0.337556 25.0651C0.592193 24.9104 0.83578 24.8058 1.11637 24.7069C1.24102 24.6442 1.36488 24.5799 1.48757 24.5135C1.60529 24.4558 1.72319 24.3984 1.84125 24.3414C2.49242 24.0211 3.13582 23.6879 3.77717 23.3484C4.22323 23.1124 4.67014 22.8782 5.11841 22.6465C6.08285 22.1478 7.04441 21.6464 7.99355 21.1191C8.59588 20.7847 9.20147 20.463 9.81953 20.1587C10.5068 19.8196 11.1872 19.4674 11.8677 19.115C11.9296 19.0829 11.9915 19.0509 12.0552 19.0179C12.8601 18.601 13.6637 18.182 14.465 17.7584C14.888 17.5349 15.3119 17.3135 15.7368 17.0938C16.7029 16.5942 17.6662 16.092 18.6169 15.5637C19.2333 15.2214 19.8537 14.8933 20.4862 14.5818C21.1367 14.2607 21.7789 13.9243 22.4215 13.5876C22.956 13.3078 23.4911 13.0293 24.0276 12.7533C25.2605 12.1187 26.4874 11.4761 27.7046 10.8116C28.2972 10.4889 28.8938 10.1784 29.4991 9.88036C30.0597 9.60389 30.6124 9.31348 31.1648 9.02107C31.7097 8.7328 32.2564 8.44813 32.804 8.16492C33.7009 7.70087 34.593 7.23004 35.4779 6.74339C36.3266 6.27662 37.1848 5.83553 38.0545 5.40938C38.3146 5.27984 38.5744 5.14971 38.8342 5.01953Z" fill="#00A754"/>
<path d="M27.1444 17.8764C27.2095 17.9118 27.2746 17.9471 27.3417 17.9835C27.4526 18.043 27.4526 18.043 27.5657 18.1037C27.6439 18.1463 27.7221 18.189 27.8027 18.2329C27.9698 18.3225 28.1369 18.412 28.3041 18.5013C28.3872 18.5458 28.4704 18.5903 28.556 18.6361C28.8929 18.8143 29.2336 18.9841 29.5753 19.1527C30.203 19.4637 30.8236 19.7868 31.4427 20.1144C32.134 20.4799 32.828 20.84 33.5225 21.1994C36.2291 22.601 36.2291 22.601 37.4846 23.2899C38.474 23.8287 39.4711 24.3516 40.4824 24.8481C40.758 24.984 41.0146 25.122 41.2708 25.2928C41.2968 25.5624 41.3047 25.81 41.2993 26.0794C41.2989 26.157 41.2985 26.2346 41.2981 26.3145C41.2964 26.5628 41.2928 26.8111 41.289 27.0593C41.2876 27.2275 41.2862 27.3956 41.285 27.5638C41.2818 27.9764 41.2768 28.3889 41.2708 28.8015C40.2846 28.3105 39.3011 27.815 38.3225 27.3091C38.2621 27.2779 38.2017 27.2467 38.1395 27.2145C37.2834 26.772 36.4352 26.3171 35.5929 25.8486C35.0779 25.5631 34.5577 25.293 34.0294 25.033C32.8603 24.456 31.7067 23.8475 30.5499 23.2461C30.4543 23.1965 30.3586 23.1468 30.26 23.0956C28.7907 22.3323 28.7907 22.3323 28.1256 21.9304C27.5167 21.5668 26.8764 21.2754 26.2347 20.9755C25.6583 20.7042 25.1102 20.4131 24.5655 20.0824C24.1679 19.8468 23.7542 19.645 23.3377 19.4451C23.5951 19.1459 23.9155 18.9812 24.2598 18.8009C24.3516 18.7525 24.3516 18.7525 24.4452 18.7032C24.5743 18.6354 24.7036 18.5679 24.833 18.5007C25.0305 18.3977 25.2269 18.2927 25.4233 18.1876C25.5491 18.1219 25.675 18.0563 25.8009 17.9908C25.8885 17.9434 25.8885 17.9434 25.9779 17.8951C26.4354 17.662 26.6852 17.6746 27.1444 17.8764Z" fill="#00A754"/>
<path d="M2.48083 5.01953C3.1403 5.30158 3.77705 5.61791 4.4118 5.95151C4.55796 6.02798 4.55796 6.02798 4.70707 6.10599C5.34805 6.44272 5.98378 6.78805 6.61688 7.13933C7.22783 7.47822 7.84232 7.80392 8.46893 8.11279C10.0056 8.87177 11.5235 9.6687 13.0215 10.5012C13.5431 10.79 14.0698 11.0637 14.6049 11.3267C15.2955 11.6672 15.9783 12.0229 16.6616 12.3779C16.7219 12.4093 16.7823 12.4406 16.8445 12.4729C17.1897 12.6523 17.5348 12.8318 17.8799 13.0114C17.8799 13.1079 17.8799 13.2044 17.8799 13.3038C17.5389 13.4908 17.1977 13.6776 16.8565 13.8642C16.7608 13.9167 16.665 13.9693 16.5664 14.0234C16.3775 14.1266 16.1883 14.2292 15.9988 14.3312C15.8355 14.4194 15.6731 14.5093 15.5122 14.6018C15.0756 14.8434 14.8507 14.8843 14.3712 14.7657C14.0825 14.6406 14.0825 14.6406 13.7781 14.481C13.6644 14.4218 13.5507 14.3626 13.4336 14.3017C13.3116 14.2371 13.1896 14.1725 13.0677 14.1079C12.9412 14.0416 12.8147 13.9754 12.6882 13.9093C11.7889 13.438 10.896 12.9551 10.0048 12.4687C9.41196 12.1458 8.81497 11.8352 8.2094 11.537C7.65377 11.263 7.10608 10.975 6.55852 10.6852C5.86723 10.3198 5.17326 9.95963 4.47881 9.60025C3.53153 9.1099 2.58611 8.61624 1.64289 8.11814C1.4681 8.02603 1.29308 7.93429 1.11636 7.84593C1.17548 7.46186 1.29482 7.1671 1.47576 6.8241C1.52777 6.72498 1.57978 6.62585 1.63337 6.52372C1.6879 6.42133 1.74242 6.31894 1.7986 6.21344C1.88039 6.05759 1.88039 6.05759 1.96383 5.89859C2.36785 5.13252 2.36785 5.13252 2.48083 5.01953Z" fill="#00A754"/>
</svg>
