<svg width="16" height="13" viewBox="0 0 16 13" fill="none" xmlns="http://www.w3.org/2000/svg">
<path d="M0.0842475 3.77425C0.243382 2.69273 0.636537 1.87365 1.26371 1.31699C1.7926 0.850455 2.4385 0.617188 3.2014 0.617188C4.13749 0.617188 4.87231 0.924676 5.40588 1.53965C5.88328 2.09101 6.12198 2.80937 6.12198 3.69472C6.12198 4.41573 5.95583 5.07312 5.62352 5.66689C5.30057 6.23945 4.7436 6.91805 3.95261 7.70267C2.57657 9.07577 1.65687 10.3402 1.19351 11.4959H6.13602V12.6172H0V11.6072C0.571011 10.0804 1.59602 8.54032 3.07503 6.98697C3.84262 6.17584 4.34577 5.52905 4.58447 5.04661C4.78572 4.64369 4.88635 4.19307 4.88635 3.69472C4.88635 3.05324 4.7085 2.55489 4.35279 2.19969C4.04856 1.8922 3.66243 1.73846 3.19438 1.73846C2.09449 1.73846 1.45093 2.52043 1.26371 4.08438L0.0842475 3.77425Z" fill="white"/>
<path d="M15.8104 0.617188L12.5178 6.3826L16 12.6172H14.5608L12.1738 8.25138C12.0053 7.92269 11.8625 7.66291 11.7455 7.47206L11.3243 8.25138L8.97236 12.6172H7.61738L11.0715 6.43031L7.8631 0.617188H9.28828L11.4015 4.52176C11.4951 4.70731 11.6472 4.99625 11.8578 5.38856C11.928 5.27193 12.0146 5.11288 12.1176 4.91142C12.2252 4.69406 12.2978 4.55357 12.3352 4.48995L14.4625 0.617188H15.8104Z" fill="white"/>
</svg>
