<svg width="92" height="90" viewBox="0 0 92 90" fill="none" xmlns="http://www.w3.org/2000/svg">
<path fill-rule="evenodd" clip-rule="evenodd" d="M57.1151 0.835235C52.7878 3.09616 50.7684 4.37106 47.9716 6.60767C46.9762 7.40374 46.0714 8.05494 45.9611 8.05494C45.8507 8.05494 44.8453 7.37063 43.7266 6.53398C40.009 3.75389 34.2578 0.605853 33.4574 0.912522C32.6787 1.21086 29.0524 7.77689 27.7705 11.2095C26.9365 13.4425 27.6669 13.2496 21.8014 12.7875C18.1303 12.4982 12.8093 12.6777 12.3817 13.1054C12.089 13.3981 12.2095 22.0079 12.5365 24.1659C13.0397 27.488 13.2035 27.1405 10.632 28.2068C8.46786 29.1041 6.84413 29.9328 4.20408 31.4871C2.9021 32.2537 0.139526 34.1766 0.139526 34.3161C0.139526 34.4635 1.97425 37.8625 2.80959 39.2628C3.87216 41.0437 5.60397 43.4876 6.82697 44.9317C7.36852 45.5713 7.81147 46.1466 7.81147 46.2101C7.81147 46.2735 7.16612 47.1798 6.37726 48.2243C5.58863 49.2686 4.41392 50.9751 3.767 52.016C2.65546 53.8049 0.365171 58.3036 0.365171 58.6979C0.365171 59.3017 8.25892 63.5271 11.8167 64.8274L13.227 65.3431V69.1755V73.0085L14.8629 72.8914C17.6785 72.69 21.8237 70.9034 23.9156 68.9899C24.838 68.146 24.9742 68.0959 25.344 68.4651C25.5248 68.6457 25.4095 69.1034 24.9215 70.1454C24.224 71.6335 23.8383 74.2987 24.1443 75.5156C24.2676 76.0059 24.4203 76.1037 25.063 76.1037C26.4923 76.1037 27.9842 75.2069 28.8858 73.8054C29.5334 72.7991 29.4371 70.4865 28.688 69.0443L28.1131 67.9377L29.0984 66.3996C29.8655 65.2019 30.1686 64.4345 30.4677 62.932C30.8524 60.9966 30.8195 60.5561 30.2905 60.5561C29.7473 60.5561 28.0767 62.209 26.8437 63.9661C26.1618 64.9376 25.5037 65.7946 25.3809 65.8706C25.1117 66.0365 24.2835 65.3323 24.2835 64.9371C24.2835 64.7826 23.9651 64.5454 23.5757 64.4096C23.1864 64.2742 22.7329 63.9855 22.5676 63.768C22.3058 63.4237 22.2663 63.5336 22.26 64.6243C22.2534 65.7628 22.3239 65.9443 23.0426 66.64C23.4769 67.0605 23.8322 67.4996 23.8322 67.6158C23.8322 68.2963 19.8499 70.8927 17.3518 71.8415L16.7662 72.0636L16.9147 68.2814C17.002 66.0538 17.2402 63.6198 17.4943 62.3588C19.5623 52.0964 25.575 44.311 41.1481 31.7301L44.5864 28.9521L44.4904 27.7984C44.4375 27.1637 44.3259 26.3169 44.2423 25.9167C44.1301 25.3779 44.2159 24.9764 44.5737 24.3708C44.9425 23.7464 44.9966 23.4803 44.802 23.2461C44.612 23.0173 44.6187 22.4925 44.8287 21.1866C44.9838 20.2226 45.1715 18.1665 45.246 16.6174C45.3746 13.9425 45.4062 13.7972 45.8737 13.7307C46.6635 13.6185 46.9199 14.3891 46.7379 16.3267C46.5907 17.8986 46.7843 19.7591 47.3052 21.7763C47.4444 22.3154 47.4126 22.7149 47.1974 23.1306C46.9266 23.6537 46.9429 23.7827 47.3404 24.2732C47.6879 24.7016 47.7594 25.0306 47.6586 25.7352C47.5871 26.2353 47.4907 27.1699 47.4446 27.8121L47.3605 28.9797L50.8837 31.7823C63.9805 42.2005 70.5975 50.015 73.4354 58.4156C74.6882 62.1236 74.866 63.3808 74.9896 69.4003C75.0527 72.4675 75.0309 74.9771 74.9415 74.9771C74.4254 74.9771 72.0407 73.4507 71.5473 72.8047C70.0382 70.8287 69.5424 68.7696 69.3038 63.4854C69.1509 60.0951 68.5243 56.6585 67.6695 54.523C66.9754 52.7889 65.5422 50.5345 64.9235 50.2038C64.5128 49.9842 64.344 50.1293 63.3021 51.5959C60.1928 55.9734 59.8173 58.6727 62.182 59.6507C62.7759 59.8964 62.8427 60.0097 62.6974 60.5262C62.4385 61.4459 62.4991 64.2065 62.8504 67.4956C63.2174 70.9329 63.1643 71.0895 61.5598 71.3042C59.8132 71.5381 58.5817 70.826 58.5817 69.5826C58.5817 68.6684 58.3129 68.5844 57.4248 69.2213C53.5369 72.0094 50.9289 72.6461 48.4885 71.403C47.5643 70.9321 46.6872 69.637 46.9064 69.0668C46.9772 68.8822 47.6788 68.4761 48.4649 68.1646C49.8646 67.6097 50.3102 67.1557 50.4956 66.0956C50.5925 65.5426 50.1196 65.4216 46.0834 64.9659C42.1442 64.5213 37.849 64.4993 36.8561 64.9189C35.5035 65.4906 34.992 66.5161 35.3727 67.8926C35.5421 68.5052 35.9699 68.9631 37.271 69.9239C38.1946 70.6062 38.9505 71.2689 38.9505 71.3966C38.9505 71.5244 38.5583 72.1036 38.0791 72.6834C37.5998 73.2633 37.0194 74.0672 36.7895 74.47C36.5593 74.8729 36.3064 75.2024 36.2274 75.2024C36.1485 75.2024 35.7477 74.9744 35.3368 74.6955C33.9266 73.7384 33.3103 71.7432 33.3082 68.1303C33.306 63.4911 32.5911 55.5353 31.9575 53.0959C31.8322 52.6136 31.6244 51.8134 31.4954 51.3177C31.3666 50.8221 31.1773 50.4165 31.0749 50.4165C30.9724 50.4165 30.7216 50.8526 30.5179 51.3857C30.1866 52.2514 30.1822 52.462 30.4746 53.3574C31.1413 55.3987 31.952 63.2211 31.9562 67.654C31.9607 72.2937 32.6065 74.7412 34.2069 76.1851C34.6709 76.6037 35.1723 76.9868 35.3208 77.0361C35.5279 77.1052 35.5319 77.3888 35.3382 78.2486C35.199 78.8658 35.0443 80.1705 34.9946 81.1475C34.9447 82.1245 34.8583 82.9694 34.8023 83.0251C34.5965 83.2306 32.6841 82.2237 32.0882 81.5963C31.7497 81.2398 31.2342 80.4856 30.9421 79.9201C29.9416 77.9823 29.4073 77.9503 27.8035 79.7317C27.1043 80.5082 26.5754 81.43 26.0977 82.7053C25.1651 85.1947 24.7294 86.0113 24.1202 86.4099C23.6618 86.7098 23.5464 86.7064 23.0454 86.3787C22.7368 86.1768 22.2801 85.6118 22.0305 85.1233C21.5131 84.1105 21.0863 81.5331 21.2779 80.5769C21.4303 79.8163 21.0158 79.6947 20.8155 80.4413C20.4384 81.8467 20.8609 85.0694 21.6164 86.5482C22.6109 88.4948 23.8293 89.0093 24.8473 87.9124C25.1455 87.5911 25.7155 86.4182 26.1138 85.3063C27.0766 82.6185 28.7264 80.4869 29.4824 80.9538C29.6063 81.0303 29.9504 81.5673 30.2473 82.1473C31.2061 84.0207 33.3393 85.5503 35.0095 85.5625C35.5265 85.5664 35.791 85.7313 36.0898 86.2362C38.1031 89.6398 41.6913 90.4651 45.9087 88.4943C46.8742 88.0431 47.8215 87.3432 48.7582 86.3895C50.1252 84.9972 50.1972 84.9573 51.5636 84.8335C52.405 84.7574 53.4612 84.4648 54.2036 84.1019C55.4395 83.4981 55.4429 83.4979 56.2782 83.9097C57.9013 84.7101 60.1917 84.2451 62.5255 82.6417C63.7223 81.8193 63.9972 81.7945 63.9972 82.5091C63.9972 83.2617 64.9842 83.9905 66.002 83.9893C66.9807 83.9884 68.1134 83.3439 68.6552 82.4801C68.8724 82.1332 69.0823 81.8063 69.1212 81.7533C69.1599 81.7005 69.4736 81.9269 69.8182 82.2563C71.0449 83.43 72.5674 83.2017 73.3045 81.7337C73.7825 80.7826 73.8233 78.8362 73.3784 78.2311C73.0693 77.8106 73.0466 77.8197 72.7991 78.4675C72.6577 78.8379 72.6039 79.4715 72.6797 79.8757C72.8163 80.6026 72.8085 80.6102 71.9399 80.6102C70.795 80.6102 70.2576 80.053 70.4545 79.0698C70.5329 78.6777 70.5569 78.357 70.5072 78.357C70.4578 78.357 69.9627 78.9602 69.4073 79.6975C68.247 81.2373 67.144 81.869 66.0388 81.6267C65.2096 81.4447 64.8413 80.7331 65.0464 79.709C65.1208 79.3372 65.1242 79.0329 65.0539 79.0329C64.9835 79.0329 64.2808 79.437 63.4921 79.9307C61.7987 80.9908 59.7561 81.737 58.5462 81.737C57.6046 81.737 57.5652 81.6946 57.9094 81.0521C58.7231 79.5339 58.5861 76.5179 57.6495 75.3288C57.0263 74.5374 56.5014 74.6046 55.6391 75.5853C54.4767 76.9073 54.0266 78.1696 53.9791 80.2382C53.9331 82.254 53.8594 82.3374 52.0702 82.3904C51.4343 82.4093 51.3384 82.3495 51.4725 82.0186C51.8063 81.1943 52.0981 78.6353 51.949 77.8417C51.8441 77.2833 51.5577 76.8357 51.0695 76.4667C49.7941 75.5033 48.7363 75.3705 43.0328 75.4588C39.2366 75.5174 37.7266 75.4688 37.6638 75.2853C37.616 75.145 38.0807 74.4859 38.6967 73.8206C39.5986 72.8469 39.8732 72.6662 40.1059 72.8928C40.5438 73.3198 40.7557 73.233 40.7557 72.6265C40.7557 72.2851 40.9897 71.9136 41.3762 71.6406C41.9479 71.237 45.5944 69.3439 45.7998 69.3439C45.8492 69.3439 45.9361 69.9024 45.9928 70.5854C46.1108 72.0063 46.8888 73.1697 48.2077 73.8978C48.8582 74.257 49.3188 74.3142 50.9098 74.234C53.0743 74.1247 54.588 73.5589 56.39 72.1855C56.9771 71.738 57.5327 71.3723 57.6247 71.3728C57.7165 71.3731 57.981 71.8326 58.2121 72.394C58.9078 74.083 60.8564 74.622 62.4406 73.5636C63.8065 72.651 64.0371 71.5246 63.8579 66.64C63.6533 61.063 63.6545 59.4663 63.8633 58.5246C64.0319 57.7648 64.0064 57.7209 63.2351 57.4423C62.0807 57.0256 61.4992 56.2141 61.7441 55.3617C62.0275 54.3753 62.9208 52.8603 63.3861 52.5775C63.8589 52.2901 64.205 52.655 65.483 54.7886C67.0503 57.4048 67.751 60.5595 68.2651 67.3159C68.6271 72.0747 69.188 73.5694 71.1384 74.9739C72.7301 76.1202 75.3934 76.375 78.0607 75.6361L78.9241 75.397L78.8679 70.3077L78.8116 65.2181L80.3738 64.6182C83.5211 63.409 87.9932 60.9649 90.8039 58.9177L92 58.0466L90.753 55.6943C89.3333 53.0153 87.8045 50.6738 85.7362 48.01C84.9493 46.9959 84.3052 46.0941 84.3052 46.0052C84.3052 45.9163 84.6458 45.4278 85.0619 44.9192C86.6228 43.012 88.9028 39.3928 90.3049 36.5964C91.1023 35.006 91.7063 33.6262 91.6468 33.5302C91.488 33.2733 86.9087 30.5291 85.2078 29.6715C84.4011 29.2647 82.6968 28.5187 81.4203 28.0135C80.1439 27.5083 79.0913 27.0178 79.0808 26.9232C79.0705 26.8287 79.1887 25.5788 79.3432 24.1458C79.7124 20.7219 79.5592 12.8355 79.1182 12.5631C78.2776 12.0444 69.0086 12.4382 65.6658 13.1347C64.9756 13.2785 64.956 13.258 64.3516 11.7381C63.0689 8.51236 59.0192 1.38909 58.0684 0.685843C57.8937 0.55673 57.5429 0.611485 57.1151 0.835235ZM38.8377 7.46076C39.8306 8.0919 41.223 9.05495 41.9322 9.60091C43.3842 10.7183 43.3849 10.6748 41.8767 12.3362C41.3703 12.8938 40.3779 14.089 39.6713 14.9921C38.683 16.2551 38.2822 16.6102 37.9351 16.5313C37.6868 16.475 36.0404 15.9231 34.2763 15.3053C32.5121 14.6872 30.9523 14.1428 30.8099 14.0955C30.3642 13.947 31.8615 10.2179 33.7103 6.8713L34.6757 5.12433L35.8541 5.71874C36.5022 6.04569 37.8449 6.82939 38.8377 7.46076ZM57.8694 6.64664C58.8912 8.33841 60.9548 12.6124 61.1775 13.4993C61.2982 13.9792 61.2192 14.1106 60.6849 14.3177C59.0929 14.9351 57.8229 15.2652 57.0506 15.262C55.901 15.2575 53.5591 14.6838 52.511 14.15C51.6083 13.6899 48.879 11.0529 48.879 10.6403C48.879 10.0423 55.8362 5.13492 56.6942 5.12771C56.8352 5.1266 57.3638 5.81001 57.8694 6.64664ZM49.7816 15.9272C49.7816 16.2382 52.4042 17.4585 53.8797 17.8344C54.5822 18.0132 56.1561 18.2773 57.3771 18.4213C64.55 19.2668 67.0221 20.4552 68.5891 23.8111C69.2598 25.248 69.2808 25.3916 69.2901 28.5971C69.2955 30.4146 69.2269 31.9748 69.1376 32.0639C69.0485 32.1529 68.7438 32.0568 68.4607 31.85C65.3461 29.5749 65.4326 29.5935 57.7804 29.5577C54.2988 29.5413 51.0697 29.4565 50.6042 29.3694C49.6213 29.1852 49.2885 28.5895 49.5873 27.5493C49.8959 26.4746 49.8218 24.6787 49.2943 20.4283C49.0237 18.2488 48.8671 16.2967 48.9464 16.0908C49.0976 15.6974 49.7816 15.5635 49.7816 15.9272ZM75.9563 18.9328C75.9563 21.9097 75.6204 25.603 75.3228 25.8978C75.1689 26.0497 73.4345 25.7223 72.8205 25.4252C72.6471 25.3411 72.3652 24.7195 72.1942 24.0433C71.4644 21.1591 69.8647 18.9635 67.6235 17.7706C66.8701 17.3697 66.2536 16.9554 66.2536 16.8499C66.2536 16.4641 69.8084 16.0459 73.6435 15.9808L75.9563 15.9414V18.9328ZM22.6237 16.399C25.7647 16.7273 25.7539 16.7246 25.7235 17.2059C25.7084 17.4398 25.4802 18.8359 25.2157 20.3083C24.9513 21.7803 24.7348 23.2637 24.7348 23.6041C24.7348 24.471 24.4384 24.6262 22.2028 24.9286C21.1205 25.075 19.4512 25.3953 18.4928 25.6399C17.5348 25.8846 16.6811 26.0079 16.5958 25.914C16.3321 25.6227 15.9352 22.3314 15.7837 19.178L15.6391 16.1667H18.0194C19.3286 16.1667 21.4005 16.2713 22.6237 16.399ZM33.3094 18.7521C36.1571 19.7727 36.2653 19.8184 36.1965 19.9727C36.16 20.055 35.6222 21.1174 35.0017 22.3336L33.8735 24.5451L32.5429 24.4119C31.8111 24.3384 30.5576 24.2785 29.7575 24.2785H28.3028L28.4499 23.0955C28.724 20.8896 29.2817 18.0873 29.4983 17.8266C29.7367 17.5399 30.326 17.6829 33.3094 18.7521ZM40.3434 21.9328C41.0181 22.2811 41.0318 22.3198 40.8465 23.3412C40.7415 23.9187 40.6637 25.0824 40.6733 25.9272L40.6909 27.4632L38.4105 29.2922C37.1562 30.2981 35.7694 31.4319 35.3287 31.812C34.8881 32.1919 33.9249 33.0098 33.1885 33.6295C30.5833 35.8214 26.8589 39.3325 25.3351 41.0329C24.4863 41.9801 23.7247 42.7547 23.6428 42.754C23.5608 42.7531 23.3248 42.4744 23.1181 42.1343C22.9115 41.7942 22.4643 41.0683 22.1242 40.5212L21.5059 39.5264L22.0486 39.0826C22.7392 38.518 27.8436 35.9955 28.2954 35.9955C28.5774 35.9955 28.61 35.7567 28.4883 34.5917C28.4075 33.8195 28.2751 32.0288 28.1941 30.6121L28.0466 28.037L32.1571 28.1719C35.8865 28.2945 36.2795 28.2717 36.3979 27.9264C36.6501 27.1897 39.4251 21.5746 39.5367 21.5746C39.5991 21.5746 39.9621 21.7357 40.3434 21.9328ZM24.46 30.975L24.524 33.5029L23.1146 34.2134C22.3395 34.6041 21.3229 35.1649 20.8554 35.4597C20.3878 35.7544 19.9546 35.9955 19.8926 35.9955C19.4473 35.9955 17.322 30.0132 17.6508 29.6856C17.9172 29.4202 23.108 28.3411 23.8322 28.4007C24.3934 28.4468 24.3966 28.4599 24.46 30.975ZM74.4509 29.6885C74.7451 29.9533 72.8124 35.8204 72.3334 36.1159C72.0769 36.2743 70.7664 35.6034 70.7664 35.3137C70.7664 35.1929 70.8598 35.0942 70.9736 35.0942C71.4739 35.0942 72.1359 33.4767 72.3692 31.685C72.7017 29.134 72.6581 29.2208 73.5221 29.3822C73.9301 29.4584 74.3481 29.5962 74.4509 29.6885ZM81.259 31.9427C84.3734 33.2597 86.9133 34.7406 86.8309 35.1912C86.6407 36.2327 81.9917 43.206 81.4878 43.206C81.3432 43.206 80.9787 42.9414 80.6777 42.6181C80.3769 42.2947 79.1153 41.2168 77.8743 40.2222C76.6332 39.2278 75.5913 38.3925 75.5585 38.3662C75.5258 38.3395 75.7418 37.7701 76.038 37.1005C76.3343 36.4308 76.8975 34.8689 77.2895 33.6295C77.6816 32.3903 78.0492 31.2425 78.1065 31.079C78.234 30.715 78.5808 30.81 81.259 31.9427ZM14.9276 33.886C15.4608 35.3903 16.0579 36.9314 16.2542 37.311C16.4507 37.6906 16.6116 38.0447 16.6116 38.0979C16.6116 38.1511 16.0784 38.5999 15.427 39.0951C14.7756 39.5904 13.43 40.7166 12.4372 41.5975C11.4444 42.4789 10.5305 43.1987 10.4064 43.1976C9.96773 43.1933 4.94036 36.1922 4.8889 35.5143C4.85461 35.0619 12.8142 30.9917 13.5363 31.0922C13.857 31.1368 14.1911 31.8076 14.9276 33.886ZM63.6279 33.1839C64.002 33.34 64.032 33.5282 63.8991 34.874L63.7498 36.3884L64.7197 36.7741C66.4544 37.4633 70.3691 39.4815 70.468 39.7374C70.5657 39.9904 69.1153 42.6336 68.758 42.8543C68.6513 42.92 66.9019 41.3211 64.8704 39.3008C62.8386 37.2805 60.542 35.0847 59.7662 34.4211C58.9908 33.7575 58.356 33.1174 58.356 32.9989C58.356 32.7488 62.9749 32.9111 63.6279 33.1839ZM18.9086 42.4355C19.1709 42.8793 19.7733 43.813 20.2475 44.5106L21.1092 45.7785L20.6597 46.464C20.4123 46.8407 19.7813 47.8329 19.2571 48.668C18.7329 49.5037 18.183 50.1882 18.0353 50.1891C17.5721 50.1924 13.227 46.5827 13.227 46.1947C13.227 45.807 17.7936 41.6706 18.2553 41.6402C18.3525 41.6338 18.6465 41.9916 18.9086 42.4355ZM75.9026 43.3711C76.6148 43.9471 77.5999 44.7981 78.0918 45.2621L78.9863 46.1057L78.5431 46.6043C77.7151 47.5362 74.3236 50.4165 74.0674 50.4054C73.8662 50.3966 71.5563 47.0491 71.2619 46.3396C71.2238 46.2484 71.7729 45.2066 72.4817 44.0246C73.9474 41.58 73.7385 41.62 75.9026 43.3711ZM12.2447 50.5361C13.1739 51.3455 14.4353 52.3811 15.0472 52.8373C15.6594 53.2939 16.1597 53.7723 16.1588 53.9006C16.1579 54.0293 15.8149 55.0469 15.3968 56.1622C14.9784 57.2777 14.449 58.925 14.2203 59.8231C13.745 61.6883 13.9793 61.6347 11.1961 60.5144C9.58865 59.8672 5.9817 58.0405 5.39299 57.5755C5.07778 57.3263 5.62541 56.1246 7.22163 53.5631C8.13234 52.1022 10.3227 49.0821 10.4806 49.0701C10.5215 49.0669 11.3153 49.7267 12.2447 50.5361ZM83.4026 51.1441C84.2093 52.206 85.3732 53.9087 85.9892 54.9282L87.1089 56.7817L86.4405 57.3194C85.5676 58.0209 79.6513 60.964 78.7769 61.1312C78.1038 61.26 78.0979 61.2521 77.7321 59.7253C77.5297 58.8811 77.0128 57.2576 76.5832 56.1176C76.1538 54.9777 75.8623 53.9636 75.9359 53.8635C76.0091 53.7637 76.78 53.1055 77.6486 52.4012C78.5174 51.6966 79.7355 50.6575 80.3552 50.092C80.9751 49.5263 81.5844 49.0974 81.7092 49.1386C81.8339 49.1798 82.596 50.0823 83.4026 51.1441ZM26.9913 50.6418C26.4222 51.2101 26.4239 51.5029 26.9993 52.1147L27.4584 52.603L26.5581 53.4153C26.063 53.8619 25.236 54.4423 24.7204 54.7049L23.7833 55.1825L24.3564 54.432C25.5512 52.8677 25.584 51.5431 24.4277 51.5431C23.4791 51.5431 22.4394 53.2417 23.1281 53.6667C23.6085 53.9633 23.564 54.7607 23.0382 55.2857C22.354 55.9689 22.5968 55.9631 24.3435 55.2541C25.2118 54.9017 26.1499 54.2893 26.7992 53.6507C27.7544 52.7112 27.8698 52.6555 28.0669 53.0379C28.1866 53.2691 28.2394 53.6105 28.1848 53.7964C28.0963 54.0966 28.1119 54.0966 28.3246 53.7964C28.6288 53.3669 28.6417 52.2894 28.3447 52.1062C28.2145 52.0257 28.1789 51.5897 28.2609 51.0789C28.3887 50.2791 28.3554 50.1911 27.9229 50.1911C27.6587 50.1911 27.2396 50.3939 26.9913 50.6418ZM33.7649 51.1897C33.3603 52.6324 33.5761 54.0104 34.4208 55.3813C36.5174 58.7835 36.527 60.7586 34.4599 63.3476C33.3891 64.6889 33.6462 64.8677 34.8201 63.5981C36.1846 62.1224 36.7426 60.8225 36.8725 58.8189C37.0078 56.7338 36.6863 55.5045 35.4427 53.3513C34.8897 52.3943 34.4361 51.4186 34.4342 51.1829C34.4261 50.173 34.0488 50.1769 33.7649 51.1897ZM54.2402 50.7682C53.6521 51.074 50.752 52.4272 47.7958 53.7758C38.8488 57.8567 37.8223 58.4367 37.8223 59.4111C37.8223 59.5413 39.2186 58.9513 40.9249 58.1003C42.6314 57.2495 46.1598 55.5652 48.766 54.3577C55.2723 51.343 56.0995 50.9107 56.0995 50.5259C56.0995 50.0467 55.4705 50.1286 54.2402 50.7682ZM41.3417 50.9043C41.1436 51.1868 40.9814 51.6429 40.9814 51.9178C40.9814 52.659 40.5695 52.7776 40.2705 52.1221C40.1268 51.8072 39.7592 51.3857 39.4537 51.186C38.9885 50.8815 38.8505 50.8719 38.6037 51.1264C38.3147 51.4246 38.1938 51.8462 38.2469 52.3703C38.2616 52.5152 38.5791 52.7007 38.9523 52.7828C39.753 52.9584 40.0788 53.4714 40.0788 54.5568C40.0788 54.9914 40.1806 55.41 40.3049 55.4865C40.5835 55.6587 40.9418 54.7565 41.2449 53.1203C41.5053 51.7135 41.8279 51.1718 42.1904 51.5336C42.6471 51.9897 43.0452 51.7933 42.9706 51.1488C42.8735 50.3068 41.8668 50.1558 41.3417 50.9043ZM27.7374 51.011C27.9776 51.251 27.6763 51.5319 27.3239 51.397C27.1423 51.3275 27.05 51.1799 27.1188 51.0688C27.2651 50.8324 27.5333 50.8074 27.7374 51.011ZM60.6125 51.8678C60.3022 52.0363 58.1698 53.0055 55.8739 54.0212C53.578 55.0372 49.8607 56.7615 47.6133 57.8529C44.3992 59.4141 43.4982 59.9482 43.3915 60.356C43.3167 60.641 43.2902 60.9088 43.3321 60.9507C43.374 60.9926 45.2232 60.1262 47.441 59.0253C49.6592 57.9244 52.8447 56.3956 54.52 55.6278C59.7307 53.2402 61.3978 52.3556 61.4751 51.9374C61.5618 51.4698 61.3726 51.4544 60.6125 51.8678ZM24.6958 52.851C24.7673 53.3552 24.4039 54.0217 24.0578 54.0217C23.7862 54.0217 23.3214 52.7229 23.4933 52.4451C23.7671 52.0027 24.6159 52.2894 24.6958 52.851ZM22.3963 57.3574C22.0691 57.8288 21.8014 58.2788 21.8014 58.3575C21.8014 58.4358 22.2585 58.8279 22.8168 59.2282C23.9589 60.0473 24.0223 60.2542 23.3811 61.0684C23.1328 61.3833 22.9298 61.7303 22.9298 61.8392C22.9298 61.9483 23.4419 62.4192 24.0681 62.8861C25.4095 63.886 25.8072 63.8383 26.5082 62.5923L27.0082 61.7041L25.8757 60.8599L24.7434 60.0156L25.1905 59.259C25.4362 58.8429 25.6347 58.3814 25.6315 58.2337C25.6254 57.946 23.6197 56.5003 23.2267 56.5003C23.0972 56.5003 22.7235 56.8861 22.3963 57.3574ZM27.0001 57.6672C26.9922 58.4169 27.4349 59.2043 27.8649 59.2043C28.1246 59.2043 28.5708 58.6904 28.5708 58.3917C28.5708 58.2308 28.3867 58.1678 28.1198 58.2376C27.7712 58.3286 27.5936 58.1827 27.3388 57.5968L27.0089 56.8383L27.0001 57.6672ZM42.4511 59.0214C41.636 60.7992 41.3967 62.2873 41.7787 63.2007C42.1312 64.0429 42.8585 64.1932 43.2298 63.5002C43.593 62.8224 43.5332 62.4712 43.1136 62.8189C42.8247 63.0581 42.6985 63.0435 42.3888 62.7341C41.8607 62.207 41.9665 60.8921 42.663 59.3189C42.9824 58.5981 43.1931 57.9576 43.1311 57.896C43.0692 57.8342 42.7633 58.3406 42.4511 59.0214ZM54.6313 58.9841C54.5408 59.2686 54.6367 59.8945 54.8601 60.4793C55.0718 61.0323 55.1784 61.5511 55.0973 61.632C54.8281 61.9012 54.203 61.3175 54.0452 60.6503C53.9598 60.2886 53.8266 59.7139 53.7495 59.3731C53.4733 58.1555 53.124 58.7126 53.2025 60.2454C53.2642 61.4473 53.2058 61.7842 52.903 61.9787C52.2417 62.4032 51.8124 61.7877 51.8124 60.4159C51.8124 59.1835 51.6319 58.9446 51.1446 59.531C50.891 59.8363 51.0435 61.2492 51.5044 62.8658C51.6669 63.4352 52.8274 63.3847 53.2447 62.79C53.5614 62.3383 53.5971 62.3351 54.1658 62.7071C54.7265 63.0742 54.7804 63.0733 55.2028 62.6916C55.7307 62.2146 55.7936 60.8795 55.3482 59.6028C54.9678 58.512 54.8215 58.3858 54.6313 58.9841ZM59.3279 61.504C58.4011 63.0742 58.1139 64.6405 58.5895 65.5283C59.0393 66.3672 60.1612 65.8316 60.1612 64.7779C60.1612 64.5969 59.946 64.4713 59.6534 64.4816C59.2275 64.4964 59.1347 64.3659 59.0767 63.6702C59.0334 63.1519 59.1876 62.4889 59.4874 61.902C60.0664 60.7683 59.9434 60.4614 59.3279 61.504ZM29.816 62.8162C30.0116 63.1323 29.0432 64.7102 27.8153 66.0767C26.9026 67.0924 26.768 67.1695 26.448 66.8592C26.1258 66.5473 26.1645 66.4089 26.8637 65.3723C27.7854 64.0058 29.0938 62.584 29.4303 62.584C29.5634 62.584 29.737 62.6884 29.816 62.8162ZM65.1335 63.8018C65.1289 64.0375 65.4039 64.798 65.7441 65.4917C66.3104 66.6461 66.3609 66.962 66.341 69.2312C66.3231 71.2407 66.2061 72.0693 65.7223 73.6084C65.3939 74.6529 65.1254 75.7898 65.1254 76.1354C65.1254 76.989 65.7132 77.2767 66.6516 76.8826C67.6399 76.4676 67.6432 75.6645 66.659 74.8956L65.9362 74.3306L66.2992 73.1331C67.3021 69.8225 67.3706 67.9615 66.5713 65.7416C66.0855 64.3928 65.1464 63.1255 65.1335 63.8018ZM52.9595 65.7149C52.5768 66.1975 52.2637 66.6414 52.2637 66.7017C52.2637 66.9906 54.7599 68.6483 55.0359 68.5426C55.313 68.4364 56.3252 66.8894 56.3252 66.5721C56.3252 66.3862 54.1494 64.8373 53.8883 64.8373C53.7601 64.8373 53.3421 65.2321 52.9595 65.7149ZM43.9148 66.9556L46.2839 67.229L44.5917 68.0251C43.6608 68.463 42.3076 69.2003 41.5847 69.6637L40.27 70.5064L38.9899 69.2893C38.2856 68.6201 37.4302 67.8905 37.0889 67.6683C35.8788 66.8801 36.3165 66.6946 39.4018 66.6873C40.5808 66.6846 42.6116 66.8053 43.9148 66.9556ZM28.4893 71.5291C28.5815 71.8952 28.4415 72.1834 27.9726 72.5941C27.2297 73.2443 25.5451 73.8873 25.0659 73.7038C24.5155 73.4929 25.0928 71.8311 26.2541 70.2827L26.8178 69.5311L27.5904 70.279C28.0155 70.6905 28.4198 71.2529 28.4893 71.5291ZM42.4787 72.0036C42.1515 72.4751 41.8838 72.9603 41.8838 73.0821C41.8838 73.204 42.4084 73.6945 43.0492 74.1722C44.3636 75.1522 44.5778 75.1173 45.4221 73.7855L45.9437 72.9624L44.7395 72.0544C44.0771 71.555 43.4314 71.1465 43.3044 71.1465C43.1774 71.1465 42.8059 71.5323 42.4787 72.0036ZM30.4888 76.1804C27.4152 77.4478 24.7348 78.8403 24.7348 79.1694C24.7348 79.5868 24.7928 79.576 26.1021 78.9136C26.7216 78.5998 28.3684 77.879 29.7614 77.3115C32.3365 76.2621 32.8581 75.9782 32.8581 75.6255C32.8581 75.2912 32.3652 75.4065 30.4888 76.1804ZM66.7049 76.1116C66.7049 76.4514 65.865 76.3664 65.7292 76.0132C65.6624 75.8394 65.665 75.64 65.7346 75.5705C65.9081 75.397 66.7049 75.8416 66.7049 76.1116ZM21.3325 76.836L20.6354 77.7937L21.2548 78.2444C21.5955 78.4921 22.1296 78.908 22.4414 79.168L23.0089 79.6412L22.5179 80.3296C22.248 80.7081 22.0309 81.1542 22.0356 81.3209C22.0403 81.4877 22.586 81.9997 23.2482 82.4586C24.5612 83.3686 24.7379 83.3432 25.4841 82.1392C26.1058 81.1355 26.0069 80.9717 23.994 79.6756C23.8549 79.5859 23.9629 79.2129 24.273 78.7121C24.5512 78.2626 24.725 77.7549 24.6592 77.5839C24.5226 77.2281 22.6317 75.8784 22.27 75.8784C22.1379 75.8784 21.7162 76.3095 21.3325 76.836ZM48.72 77.7009C50.0455 78.0136 51.3611 79.1611 51.3611 80.0044C51.3611 80.6423 50.5394 82.1876 50.2002 82.1876C49.8272 82.1876 48.9028 81.122 48.7508 80.517C48.542 79.6862 48.3046 79.7879 47.6103 81.0046C46.8264 82.3784 46.2398 82.8522 45.3149 82.8586C44.406 82.8647 43.4635 82.012 43.4635 81.1838C43.4635 80.4584 43.2337 80.4638 42.0487 81.2169C41.5238 81.5504 40.6084 82.0593 40.0147 82.3477C38.7261 82.9735 36.3919 83.2868 36.1334 82.8689C35.8147 82.3541 35.732 79.7698 35.9986 78.6648L36.2631 77.5683L41.9505 77.5069C45.6186 77.4672 48.0222 77.5361 48.72 77.7009ZM57.3724 78.357C57.6766 79.2894 57.5045 79.707 56.5298 80.3998L55.831 80.8969L55.1522 80.2188C54.5461 79.6136 54.5031 79.4836 54.7507 79.0053C55.6451 77.2764 56.917 76.9618 57.3724 78.357ZM37.1469 79.0666C36.604 79.8149 36.5226 80.0658 36.7376 80.3248C37.1074 80.7696 38.8661 81.9622 39.1522 81.9622C39.4232 81.9622 40.5301 80.4037 40.5301 80.0221C40.5301 79.7723 38.3267 78.1316 37.991 78.1316C37.8997 78.1316 37.5199 78.5524 37.1469 79.0666ZM48.8778 84.0203C48.8805 84.3746 46.895 85.8997 45.7469 86.4248C43.3531 87.5203 39.3214 87.299 38.151 86.0076C37.6794 85.487 37.6226 85.5496 39.1136 84.9472C39.7619 84.6851 40.7449 84.1598 41.2979 83.7799C41.8512 83.3998 42.3492 83.0888 42.405 83.0888C42.4606 83.0888 42.6338 83.3964 42.7897 83.7725C43.6683 85.8905 45.931 85.8119 47.2182 83.6186L47.8316 82.5733L48.3541 83.2254C48.6416 83.5842 48.8771 83.9417 48.8778 84.0203ZM60.9404 85.2033C58.2573 86.3009 54.7075 88.0107 54.2466 88.4274C54.0246 88.6278 53.8431 88.9213 53.8431 89.0792C53.8431 89.2588 54.797 88.9189 56.3817 88.1755C57.7779 87.52 59.8848 86.6011 61.0638 86.1329C62.2427 85.6648 63.2821 85.1687 63.3733 85.0302C63.9078 84.2191 63.2275 84.2675 60.9404 85.2033ZM27.0109 86.5129L26.3146 87.4587L27.3862 88.4215C27.9758 88.9512 28.609 89.3611 28.7935 89.3324C28.978 89.3039 29.3332 88.9559 29.5833 88.5591C29.8331 88.1626 30.1352 87.8342 30.2546 87.8295C30.374 87.8246 30.9024 88.2428 31.4286 88.7585C32.4839 89.7927 32.7726 89.7512 33.4371 88.4679C33.9307 87.5149 33.8466 87.2694 32.7091 86.3387L31.6579 85.4784L30.9093 86.3431L30.1609 87.2076L29.1586 86.3876C28.6073 85.9365 28.0554 85.5675 27.9318 85.5675C27.8084 85.5675 27.3939 85.9929 27.0109 86.5129Z" fill="url(#paint0_linear_339_9274)"/>
<defs>
<linearGradient id="paint0_linear_339_9274" x1="46.0697" y1="0.617187" x2="46.0697" y2="89.5459" gradientUnits="userSpaceOnUse">
<stop stop-color="#07A562"/>
<stop offset="1" stop-color="#060707"/>
</linearGradient>
</defs>
</svg>
