<svg width="105" height="35" viewBox="0 0 105 35" fill="none" xmlns="http://www.w3.org/2000/svg">
<path d="M78.7791 34.3306C78.3632 33.5945 78.3632 33.1474 79.0027 32.8599C79.9319 32.4441 80.6661 31.996 81.2097 31.1329L81.7536 32.2519C81.8198 32.3801 81.85 32.5237 81.8408 32.6677C81.9316 32.5907 82.0334 32.5281 82.1429 32.4816C83.0699 32.0658 83.8049 31.6171 84.3499 30.7546L84.8938 31.8742C85.2455 32.5775 84.4781 33.2172 83.9342 33.5689C83.3739 33.9283 82.7404 34.1574 82.08 34.2404L81.919 33.95C81.7736 33.7211 81.6767 33.4648 81.6342 33.1968C81.4025 33.4954 81.1182 33.749 80.7951 33.9449C80.2349 34.3053 79.6007 34.5351 78.9397 34.617L78.7791 34.3306ZM97.8098 34.0402C97.3939 33.3047 97.3939 32.8559 98.0345 32.5695C98.9614 32.1537 99.6964 31.7056 100.242 30.8431L100.785 31.9621C101.137 32.6654 100.37 33.3051 99.8256 33.6568C99.2654 34.0162 98.632 34.2459 97.9716 34.3289L97.8098 34.0402ZM22.2415 24.3366C22.2415 21.3946 23.5517 17.9087 26.1745 14.359C27.0375 14.7754 26.8778 15.4784 26.1745 16.6946C24.6395 19.349 23.9676 21.428 23.9034 23.1534C23.9034 25.7126 25.5351 26.7033 27.6128 26.7033C30.8109 26.7033 32.7942 24.7526 33.754 22.4507C32.4117 22.8872 31.0076 23.1027 29.5962 23.0894C28.5726 23.0894 27.7736 22.8658 27.7736 22.2267C27.7632 22.2267 27.7527 22.2267 27.7423 22.2267C27.7737 20.0523 30.0448 17.7482 32.5071 16.3741C34.6815 15.1269 36.121 13.8153 37.3043 9.84942C37.9431 7.67556 39.5426 5.2134 41.7499 5.2134C43.1568 5.2134 44.0196 6.07603 44.0196 7.22684C44.0153 7.58934 43.9264 7.94606 43.7601 8.26816C43.5937 8.59025 43.3543 8.86873 43.0612 9.08204C42.9018 8.28347 42.2623 7.93183 41.4945 7.93183C39.6392 7.93183 38.681 9.6259 38.201 11.1284C37.1774 14.4231 35.6421 16.8855 32.8288 18.2616C30.4621 19.4119 30.0463 19.9558 29.5666 20.8842C29.5666 20.8921 29.5666 20.8991 29.5666 20.9069L29.5979 20.8842C31.6209 20.848 33.6182 20.4241 35.4818 19.6364C36.218 19.349 36.5695 19.6369 36.5695 20.148C36.5695 20.8842 36.0257 21.1715 35.5143 22.2585C33.179 27.2166 30.6531 29.2624 27.0718 29.2624C23.9678 29.2621 22.2415 27.4066 22.2415 24.3366ZM48.432 28.4933C48.432 27.8222 48.8165 26.7986 50.4796 26.7986C55.5646 26.7986 59.8492 25.3919 62.855 23.1846C65.8608 20.9774 67.6209 18.0047 67.6209 14.7753C67.6209 14.2075 67.6004 13.6387 67.5696 13.0794C65.0191 12.3671 63.2973 10.9717 63.2973 8.47404C63.3098 7.54618 63.5171 6.63128 63.9054 5.7885C64.7684 5.81958 64.7998 6.3967 64.7043 7.16275C64.5724 8.2006 65.2076 9.393 67.3637 10.1971C67.3268 9.66045 67.3009 9.16598 67.3009 8.7304C67.3009 4.5726 68.7407 1.69442 70.1787 0C71.234 0.288066 70.6586 1.343 70.2114 2.39798C69.4111 4.22076 69.0923 6.74707 69.2192 8.92267C69.2566 9.55223 69.2818 10.1527 69.2948 10.7234C70.2292 10.8974 71.1738 11.0114 72.1228 11.0649C72.1207 10.8868 72.1197 10.706 72.1197 10.5226C72.1197 7.64372 73.1421 4.44699 75.03 2.23974C75.2055 2.28704 75.3603 2.39151 75.4701 2.53637C75.5799 2.68123 75.6384 2.85825 75.6365 3.04001C75.6365 3.51858 75.3488 3.93441 75.0613 4.63716C74.1965 6.58276 74.0039 8.89531 73.9696 11.1272C74.0883 11.1284 74.2085 11.1289 74.3301 11.1289C79.862 11.1289 85.4908 10.2664 90.0317 8.60279C94.5725 6.93914 98.0598 4.50816 99.3058 1.31242C99.7217 0.255697 100.106 -0.0314483 100.874 0.0640898C100.697 1.9922 99.9388 3.82101 98.6995 5.30868C96.4926 7.89895 92.8787 10.0094 88.4331 11.4488C84.1542 12.8651 79.1619 13.658 73.9718 13.7141C73.9718 13.8883 73.9732 14.06 73.9732 14.2302C73.9732 17.2686 73.6215 20.5934 72.7584 23.3111C72.0223 25.6467 70.3604 28.7803 67.514 28.7803C67.212 28.7881 66.9122 28.7291 66.6357 28.6073C66.3593 28.4855 66.1132 28.304 65.9152 28.0759C70.2966 25.9015 72.2474 22.4155 72.2474 15.508C72.2474 14.9374 72.2273 14.3362 72.2029 13.6988C71.2173 13.6712 70.2344 13.5838 69.2593 13.4373C69.1275 15.842 68.7206 17.6543 68.0997 19.1867C66.8297 22.0878 64.7407 24.5553 62.0888 26.2865C59.2338 28.1032 55.9108 29.048 52.527 29.0049C51.1474 28.9849 49.7741 28.8134 48.432 28.4933ZM45.5543 28.942C46.0594 27.6983 46.6691 26.4998 47.3768 25.3592C47.0105 25.1401 46.6946 24.8462 46.4499 24.4965C45.0429 26.9268 43.3798 28.4933 41.2367 28.4933C38.9029 28.4933 37.7197 26.4797 37.7195 23.5697C37.7195 20.6267 39.031 17.1407 41.6538 13.5922C42.5168 14.008 42.3571 14.7116 41.6538 15.926C40.1188 18.5805 39.4467 20.6594 39.3825 22.3866C39.3825 24.5611 40.1175 25.9365 41.8447 25.9365C43.4111 25.9365 44.2114 25.2331 45.2025 23.762C45.587 23.1853 45.9387 22.5466 46.5782 22.5466C47.2138 22.9883 47.9502 23.2635 48.7198 23.3469C52.2382 18.4857 57.3544 13.8162 61.1919 13.8162C62.1212 13.8162 62.727 14.1995 62.727 15.2562C62.727 18.134 61.192 20.852 58.8895 22.867C56.587 24.882 53.5173 26.1606 50.4796 26.1606C49.7392 26.1797 49.0017 26.0605 48.3051 25.8089C47.9206 26.4478 47.5051 27.0867 47.1531 27.7923C46.7965 28.4492 46.5346 28.9896 45.9024 28.9896C45.7848 28.9879 45.668 28.9719 45.5543 28.942ZM49.9681 23.5051C50.2876 23.5051 50.6401 23.538 50.9604 23.538C56.3004 23.538 60.7143 19.2514 61.129 16.2125C57.5793 16.6614 53.3887 19.1879 49.967 23.5051H49.9681ZM77.6471 23.8567C77.6471 20.9148 78.9586 17.4289 81.5814 13.8791C82.4445 14.2956 82.2848 14.9986 81.5814 16.2147C80.0464 18.8686 79.3744 20.9481 79.3102 22.6736C79.3102 24.8481 80.0463 26.2235 81.7724 26.2235C83.3405 26.2235 84.203 25.3278 85.0346 24.2084C85.6735 23.3456 86.1538 22.8018 87.018 22.8018C87.7012 23.3105 88.533 23.5801 89.3848 23.5692C91.4625 23.5692 93.3491 21.8745 93.7646 20.0845L93.3816 19.8281C92.8819 20.3085 92.2195 20.5832 91.5264 20.5967C90.2487 20.5967 89.1283 19.9895 89.1283 17.7506L90.5991 14.8728C90.8227 14.457 91.3666 13.6256 92.3577 13.6256C94.3086 13.6256 95.2035 16.0886 95.2035 17.8158C95.2035 22.1961 92.1649 26.1305 88.7758 26.1305C87.9242 26.1592 87.096 25.8488 86.4733 25.2673V25.2639C84.7147 27.727 83.4672 28.782 81.165 28.782C78.8294 28.782 77.646 26.7676 77.646 23.8567H77.6471ZM96.7482 21.2041C96.7482 18.2622 98.0595 14.7762 100.682 11.2265C101.545 11.6423 101.386 12.3457 100.682 13.5615C99.1473 16.216 98.4754 18.2935 98.4113 20.0204C98.4113 22.1949 99.1474 23.5692 100.873 23.5692C102.442 23.5692 103.304 22.0027 103.592 20.6602C103.784 19.7309 104.2 19.1565 105 19.2848C104.712 22.9939 103.24 26.1282 100.266 26.1282C97.93 26.1285 96.7469 24.1129 96.7469 21.2041H96.7482ZM0.504395 10.2657C0.516938 9.3373 0.724159 8.42186 1.11254 7.57848C1.97674 7.6113 2.00807 8.18665 1.91253 8.95386C1.68777 10.7127 3.67111 12.9195 11.5383 12.9195C17.0703 12.9195 22.6991 12.0564 27.2402 10.3928C31.7813 8.72912 35.2669 6.2987 36.5144 3.10297C36.9302 2.04624 37.3144 1.75878 38.0824 1.85577C37.9057 3.78395 37.147 5.61273 35.9069 7.09979C33.7 9.69007 30.0872 11.8005 25.6416 13.2399C21.1961 14.7111 15.9844 15.5097 10.5791 15.5097C5.20546 15.5097 0.504395 14.3919 0.504395 10.2657ZM18.697 5.97964C18.5368 5.73482 18.4381 5.45514 18.409 5.16405C18.2358 5.32435 18.0483 5.46869 17.8491 5.5951C17.2892 5.95516 16.6556 6.18437 15.995 6.26662L15.8341 5.97964C15.4182 5.2435 15.4182 4.79589 16.0588 4.50841C16.9857 4.09257 17.7207 3.64558 18.2658 2.78139L18.8097 3.90041C18.8607 3.99895 18.8906 4.10726 18.8975 4.21802C18.9043 4.32877 18.8879 4.43949 18.8494 4.54357C18.8729 4.53167 18.8973 4.51973 18.9228 4.50841C19.8498 4.09257 20.5848 3.64558 21.1298 2.78139L21.6737 3.90097C22.0254 4.60488 21.258 5.24401 20.7155 5.59567C20.1556 5.95573 19.5219 6.18494 18.8613 6.26719L18.697 5.97964ZM79.1866 5.39659C78.7707 4.66162 78.7707 4.21341 79.4102 3.92593C80.3394 3.51009 81.0733 3.06254 81.6172 2.19834L82.1609 3.31793C82.2278 3.44719 82.258 3.59242 82.2481 3.73763C82.3074 3.69975 82.3695 3.66643 82.4337 3.63781C83.3607 3.22197 84.097 2.77498 84.6406 1.91078L85.1845 3.0298C85.5362 3.73371 84.7687 4.37284 84.2263 4.7245C83.6668 5.08546 83.0329 5.31531 82.3721 5.39659L82.2113 5.10904C82.0775 4.893 81.9833 4.65487 81.9331 4.40575C81.7191 4.64096 81.4737 4.8455 81.2038 5.01375C80.6435 5.37358 80.0095 5.60262 79.3486 5.68414L79.1866 5.39659ZM88.7384 4.12784C88.3225 3.39344 88.3225 2.94466 88.962 2.65718C89.8912 2.24134 90.6252 1.79262 91.1688 0.929586L91.7127 2.04917C91.7796 2.17844 91.8098 2.32367 91.7999 2.46888C91.8591 2.43099 91.9211 2.39784 91.9854 2.36962C92.9123 1.9532 93.6485 1.50623 94.1924 0.642033L94.7363 1.76162C95.088 2.46494 94.3205 3.10409 93.7781 3.45575C93.2186 3.81671 92.5847 4.04656 91.9239 4.12784L91.7645 3.84029C91.6302 3.6242 91.5357 3.38585 91.4854 3.13643C91.2717 3.37246 91.0261 3.57758 90.7559 3.74614C90.1959 4.10577 89.5623 4.33481 88.9019 4.41653L88.7384 4.12784Z" fill="white"/>
<path d="M27.0701 28.1003C27.9702 28.1003 28.7696 27.9539 29.5041 27.6482C28.9032 27.7912 28.271 27.8649 27.6128 27.8649C25.929 27.8649 24.6027 27.2983 23.762 26.2882C23.9075 26.6183 24.097 26.9047 24.3275 27.1429C24.9414 27.7781 25.8642 28.1003 27.0701 28.1003ZM53.0936 27.836C54.5696 27.7912 56.0009 27.57 57.3556 27.1781C58.3851 26.8803 59.3689 26.4838 60.2938 25.9955C58.1404 26.9591 55.6969 27.5853 53.0936 27.836ZM81.1646 27.6204C81.8811 27.6204 82.4406 27.5036 82.9541 27.2387C82.5946 27.3329 82.2026 27.3851 81.7714 27.3851C81.1556 27.3851 80.0781 27.2382 79.2577 26.3432C79.3277 26.4941 79.4057 26.633 79.4914 26.7595C79.6829 27.0419 79.9135 27.2563 80.1765 27.397C80.4546 27.545 80.7871 27.6204 81.1646 27.6204ZM41.2368 27.3318C41.6723 27.3318 42.0896 27.2427 42.4964 27.0612C42.2901 27.085 42.0733 27.0975 41.8448 27.0975C41.229 27.0975 40.1518 26.9512 39.3314 26.0556C39.4015 26.2065 39.4792 26.3449 39.5648 26.4714C39.7562 26.7538 39.9865 26.9682 40.2494 27.1083C40.5273 27.2563 40.8595 27.3318 41.2368 27.3318ZM50.4795 24.9979C51.8199 24.9979 53.1828 24.7256 54.5302 24.1891C54.791 24.0853 55.0495 23.9713 55.3045 23.8488C53.9012 24.4063 52.4259 24.6995 50.9593 24.6995C50.7708 24.6995 50.5856 24.6905 50.4065 24.682C50.2483 24.674 50.0988 24.6666 49.9671 24.6666H48.5754L48.7257 24.7251C49.1984 24.9088 49.7721 24.9979 50.4795 24.9979ZM100.266 24.9667C100.702 24.9667 101.099 24.8714 101.459 24.6786C101.268 24.7132 101.072 24.7307 100.872 24.7307C100.256 24.7307 99.1787 24.5838 98.3583 23.6883C98.4285 23.8397 98.5065 23.9787 98.5923 24.1057C98.7838 24.3882 99.0144 24.6026 99.2774 24.7432C99.5555 24.8912 99.888 24.9667 100.266 24.9667ZM88.7756 24.9667C89.2439 24.9667 89.7145 24.8652 90.18 24.6644C89.9162 24.708 89.6499 24.7307 89.3836 24.7307C88.8543 24.7307 88.3409 24.6553 87.8552 24.5078L87.79 24.7733C88.074 24.9043 88.3976 24.9667 88.7756 24.9667ZM86.8926 24.1017C86.8479 24.0768 86.8037 24.0518 86.7599 24.0257C86.7253 24.045 86.6889 24.0694 86.6493 24.1017H86.8926ZM91.5252 19.4334C92.0214 19.4334 92.4065 19.1458 92.5918 18.9746L93.2647 18.3518L93.9794 18.8299C94.0206 18.4925 94.0417 18.1527 94.0417 17.8136C94.0417 17.0677 93.8339 16.2351 93.4992 15.6402C93.3359 15.3498 93.1446 15.1207 92.946 14.9777C92.7631 14.8462 92.5759 14.7849 92.3568 14.7849C92.2567 14.7849 92.1324 14.8048 91.968 14.9533C91.8469 15.0628 91.7321 15.2165 91.6263 15.4111L90.2957 18.0143C90.326 18.569 90.4527 18.9785 90.6606 19.1827C90.8299 19.3489 91.1208 19.4334 91.5252 19.4334ZM59.0569 15.4723C59.7053 15.2789 60.3489 15.1405 60.9823 15.0605L61.4665 14.9993C61.4082 14.9874 61.3201 14.9766 61.192 14.9766C60.5605 14.9766 59.844 15.1434 59.0569 15.4723ZM10.5782 14.3482C14.6391 14.3482 18.6023 13.8899 22.2136 13.0114C18.8716 13.7101 15.2236 14.081 11.5379 14.081C6.98052 14.081 3.81814 13.3619 2.11891 11.9411C2.15819 12.0018 2.20016 12.0614 2.24468 12.1192C2.62312 12.6138 3.20887 13.0335 3.98574 13.3681C5.49611 14.0187 7.71415 14.3482 10.5782 14.3482ZM73.0051 12.5644L73.9589 12.5537C77.8056 12.5111 81.5612 12.0557 84.991 11.2237C81.653 11.9201 78.0104 12.2899 74.33 12.2899C74.2052 12.2899 74.0803 12.2894 73.9585 12.2882L73.2986 12.282L73.2988 12.3013L72.9369 12.2786L72.7903 12.2769L72.7904 12.2695L72.05 12.223C70.96 12.1549 69.9587 12.0336 69.0739 11.8629L68.6368 11.7783L68.6461 11.9156L66.9574 11.2855C66.0735 10.956 65.4116 10.5674 64.918 10.1574C65.0256 10.323 65.1524 10.479 65.2987 10.6253C65.8631 11.1902 66.7321 11.6394 67.882 11.961L68.5913 12.1589L69.4386 12.2916C70.2709 12.4215 71.2139 12.5049 72.2411 12.5389L73.0051 12.5644ZM42.8447 7.06236C42.817 6.89221 42.7438 6.75212 42.6264 6.64436C42.4372 6.4708 42.1257 6.37495 41.7494 6.37495C41.4212 6.37495 41.1052 6.46286 40.7835 6.64436C40.643 6.72319 40.5036 6.81905 40.3659 6.93134C40.723 6.82472 41.0994 6.77027 41.493 6.77027C41.9977 6.77027 42.4545 6.87236 42.8447 7.06236ZM78.9388 34.6182L78.7791 34.3306C78.3634 33.5944 78.3634 33.1475 79.0028 32.8599C79.9311 32.4442 80.666 31.9956 81.2099 31.1323L81.7538 32.2519C81.8247 32.3937 81.8501 32.5327 81.841 32.6677C81.9187 32.599 82.0188 32.5372 82.1432 32.4816C83.0702 32.0659 83.8051 31.6173 84.349 30.7546L84.8929 31.8736C85.2446 32.5769 84.4771 33.2167 83.9331 33.5683C83.3892 33.92 82.7825 34.1434 82.0791 34.2404L81.9183 33.9512C81.7518 33.6568 81.652 33.4084 81.6333 33.198C81.4183 33.5042 81.0762 33.764 80.794 33.9461C80.2501 34.2983 79.6422 34.5229 78.9388 34.6182ZM97.9705 34.3283L97.8097 34.0402C97.394 33.3046 97.394 32.856 98.0346 32.5695C98.9616 32.1538 99.6965 31.7052 100.24 30.8425L100.784 31.9615C101.136 32.6648 100.368 33.3046 99.8246 33.6562C99.2807 34.0079 98.6739 34.2313 97.9705 34.3283ZM27.0701 29.2618C23.9675 29.2618 22.2414 27.4066 22.2414 24.3366C22.2414 21.3947 23.5516 17.9089 26.1744 14.359C27.0374 14.7753 26.8779 15.4785 26.1744 16.6946C24.6394 19.3489 23.9674 21.4276 23.9034 23.1534C23.9034 25.7125 25.5351 26.7033 27.6128 26.7033C30.8109 26.7033 32.7943 24.7523 33.7541 22.4502C32.538 22.8659 31.0986 23.0894 29.5962 23.0894C28.5724 23.0894 27.7736 22.8659 27.7736 22.2267V22.2261C27.7632 22.2267 27.7527 22.2267 27.7421 22.2267C27.7736 20.0522 30.0446 17.7483 32.5067 16.3741C34.6811 15.1269 36.1206 13.815 37.3038 9.84942C37.9433 7.67547 39.5423 5.2134 41.7494 5.2134C43.1563 5.2134 44.0192 6.07606 44.0192 7.22684C44.0192 7.86774 43.7315 8.57102 43.0596 9.08204C42.9 8.28347 42.2606 7.93183 41.493 7.93183C39.6378 7.93183 38.6793 9.62595 38.1995 11.1284C37.1758 14.423 35.6407 16.8851 32.827 18.2611C30.4604 19.4113 30.0446 19.9552 29.5648 20.8836C29.5648 20.8916 29.5647 20.899 29.5647 20.9069L29.5962 20.8836C31.3874 20.8836 33.3056 20.4991 35.4799 19.6364C36.2158 19.3495 36.5678 19.6364 36.5678 20.1475C36.5678 20.8836 36.0239 21.1712 35.5126 22.2579C33.1774 27.2161 30.6514 29.2618 27.0701 29.2618ZM52.5258 29.006C51.0862 29.006 49.9997 28.8138 48.432 28.4933C48.432 27.8224 48.8164 26.7986 50.4795 26.7986C55.5644 26.7986 59.8491 25.3921 62.8551 23.1846C65.8611 20.9789 67.6208 18.0047 67.6208 14.7753C67.6208 14.2075 67.6003 13.6387 67.5695 13.0794C65.0191 12.3671 63.2972 10.9718 63.2972 8.47404C63.2972 7.67547 63.4895 6.68292 63.9052 5.7885C64.7681 5.8197 64.7996 6.39651 64.7041 7.16275C64.5723 8.20066 65.2074 9.39285 67.3634 10.1971C67.3263 9.66055 67.3005 9.16598 67.3005 8.7304C67.3005 4.5725 68.7402 1.69469 70.1783 0C71.2336 0.288121 70.6583 1.34305 70.2111 2.39798C69.4108 4.22085 69.0918 6.74701 69.2187 8.92267C69.2561 9.55222 69.2811 10.1511 69.2943 10.7223C70.1045 10.8788 71.0423 10.9962 72.1225 11.0637C72.1203 10.8856 72.1192 10.7047 72.1192 10.5215C72.1192 7.64257 73.1417 4.44602 75.0296 2.23861C75.4768 2.36679 75.6363 2.75019 75.6363 3.03888C75.6363 3.51757 75.3486 3.9333 75.0611 4.63659C74.1964 6.5831 74.0037 8.89488 73.9696 11.1267C74.0883 11.1278 74.2085 11.1284 74.33 11.1284C79.862 11.1284 85.4907 10.2657 90.0317 8.60222C94.5728 6.93928 98.0597 4.50841 99.3059 1.31186C99.7216 0.255225 100.106 -0.0323285 100.874 0.0640898C100.745 1.72759 100.042 3.70984 98.6992 5.30868C96.492 7.89893 92.8782 10.0094 88.4326 11.4488C84.1536 12.865 79.1614 13.6579 73.9717 13.7152C73.9725 13.8888 73.9733 14.0612 73.9733 14.2313C73.9733 17.2697 73.6215 20.595 72.7585 23.3128C72.0223 25.6484 70.3605 28.782 67.5141 28.782C66.9376 28.782 66.3622 28.5903 65.9151 28.0776C70.2965 25.9031 72.2472 22.4173 72.2472 15.5097C72.2472 14.9392 72.2271 14.3374 72.2027 13.6999C71.1743 13.6659 70.183 13.5836 69.259 13.439C69.1272 15.8438 68.7203 17.6565 68.0995 19.1878C66.7894 22.1297 64.7418 24.5606 62.0876 26.2876C59.4334 28.0135 56.1712 29.006 52.5258 29.006ZM45.9026 28.9885C45.7974 28.9885 45.682 28.9737 45.5542 28.9419C46.0014 27.8224 46.6095 26.6081 47.3768 25.3592C46.9611 25.1045 46.6421 24.7852 46.4498 24.4965C45.0429 26.9268 43.3799 28.4933 41.2368 28.4933C38.9031 28.4933 37.7198 26.4799 37.7197 23.5697L37.7184 23.5692C37.7184 20.6262 39.0298 17.1403 41.6527 13.5916C42.5156 14.0073 42.3561 14.7112 41.6527 15.9255C40.1177 18.5798 39.4456 20.659 39.3815 22.3861H39.3828C39.3828 24.5606 40.1177 25.936 41.8448 25.936C43.4112 25.936 44.2115 25.2327 45.2025 23.7614C45.5868 23.1846 45.9386 22.5454 46.578 22.5454C47.0893 22.9612 47.8894 23.2175 48.7197 23.3457C52.2382 18.4845 57.3544 13.815 61.192 13.815C62.1202 13.815 62.7269 14.1985 62.7269 15.2551C62.7269 18.1329 61.192 20.8507 58.8895 22.8659C56.5869 24.8805 53.517 26.1594 50.4795 26.1594C49.584 26.1594 48.8805 26.0312 48.3051 25.8078C47.9207 26.447 47.505 27.0867 47.1532 27.7912C46.7968 28.4479 46.5346 28.9885 45.9026 28.9885ZM61.1279 16.213C57.5793 16.6617 53.3888 19.1878 49.9671 23.5051C50.2874 23.5051 50.639 23.538 50.9593 23.538C56.2992 23.538 60.7133 19.2519 61.1279 16.213ZM81.1646 28.782C78.8295 28.782 77.6462 26.7674 77.6462 23.8567C77.6462 20.9148 78.9575 17.429 81.5804 13.8791C82.4433 14.2954 82.2838 14.9987 81.5804 16.2147C80.0453 18.8685 79.3734 20.9477 79.3093 22.6736C79.3093 24.8481 80.0453 26.2235 81.7714 26.2235C83.339 26.2235 84.202 25.328 85.0336 24.2084C85.6729 23.3457 86.1527 22.8018 87.017 22.8018C87.6564 23.2816 88.4553 23.5692 89.3836 23.5692C91.4613 23.5692 93.348 21.8745 93.7637 20.0834L93.3806 19.827C92.9648 20.2115 92.3255 20.595 91.5252 20.595C90.2466 20.595 89.1272 19.9881 89.1272 17.7483L90.5982 14.8705C90.8218 14.4548 91.3657 13.6233 92.3568 13.6233C94.3076 13.6233 95.2033 16.0865 95.2033 17.8136C95.2033 22.1938 92.1647 26.1282 88.7756 26.1282C87.7519 26.1282 87.017 25.7766 86.473 25.265L86.4735 25.2633L86.473 25.2639C84.7145 27.7271 83.4671 28.782 81.1646 28.782ZM100.266 26.1282C97.9304 26.1282 96.7471 24.1131 96.7471 21.2041L96.7478 21.203H96.7471C96.7471 18.2611 98.0586 14.7753 100.681 11.2254C101.544 11.6411 101.385 12.3444 100.681 13.5604C99.1462 16.2147 98.4743 18.2923 98.4102 20.0193L98.4101 20.0204C98.4101 22.1949 99.1462 23.5692 100.872 23.5692C102.44 23.5692 103.303 22.0027 103.591 20.6602C103.783 19.7317 104.199 19.1572 104.999 19.2848C104.711 22.9941 103.239 26.1282 100.266 26.1282ZM10.5782 15.5097C5.20572 15.5097 0.503906 14.3919 0.503906 10.2657C0.503906 9.46658 0.696034 8.47404 1.11191 7.57848C1.97613 7.61138 2.00747 8.18648 1.91204 8.95386C1.68716 10.7126 3.67068 12.9195 11.5379 12.9195C17.0699 12.9195 22.6987 12.0568 27.2397 10.3933C31.7806 8.7304 35.2664 6.30009 36.5137 3.10297C36.88 2.17225 37.222 1.83819 37.8229 1.83819C37.9042 1.83819 37.9899 1.84443 38.0814 1.85577C37.9534 3.5187 37.2499 5.50095 35.9057 7.09979C33.7 9.69004 30.086 11.8005 25.6406 13.2399C21.1951 14.7112 15.9833 15.5097 10.5782 15.5097ZM18.8574 6.26719L18.6966 5.97964C18.5136 5.65522 18.4112 5.38752 18.4085 5.16405C18.2294 5.33363 18.0271 5.47996 17.8487 5.5951C17.3048 5.94674 16.6981 6.17191 15.9946 6.26719L15.8339 5.97964C15.4181 5.24346 15.4181 4.79596 16.0587 4.50841C16.9858 4.09267 17.7205 3.64575 18.2644 2.78139L18.8084 3.90041C18.9201 4.12387 18.919 4.34053 18.8481 4.54357C18.8716 4.53166 18.896 4.51975 18.9215 4.50841C19.8485 4.09267 20.5833 3.64575 21.1272 2.78139L21.6711 3.90041C22.0229 4.60426 21.2554 5.24346 20.7115 5.5951C20.1676 5.94674 19.5608 6.17191 18.8574 6.26719ZM79.3457 5.68414L79.1862 5.39659C78.7704 4.66154 78.7704 4.21348 79.4098 3.92593C80.3382 3.51019 81.0729 3.0627 81.6168 2.19834L82.1607 3.31792C82.2323 3.46085 82.2576 3.60151 82.2478 3.73763C82.3022 3.70246 82.3641 3.669 82.4333 3.63781C83.3603 3.22207 84.0965 2.77515 84.6391 1.91078L85.183 3.0298C85.5348 3.73366 84.7673 4.37285 84.2234 4.7245C83.6807 5.07784 83.0727 5.30131 82.3693 5.39659L82.2085 5.10904C82.0555 4.83736 81.9591 4.60483 81.9303 4.40575C81.7192 4.65077 81.4387 4.86005 81.2011 5.01375C80.6572 5.3654 80.0505 5.58886 79.3457 5.68414ZM88.8987 4.41539L88.7379 4.12784C88.3221 3.39336 88.3222 2.94473 88.9615 2.65718C89.8898 2.24144 90.6247 1.79281 91.1685 0.929586L91.7124 2.04917C91.784 2.1921 91.8092 2.33276 91.7995 2.46888C91.854 2.43371 91.9157 2.40025 91.9851 2.36962C92.9121 1.95332 93.6481 1.50639 94.1908 0.642033L94.7347 1.76162C95.0865 2.46491 94.3189 3.1041 93.775 3.45575C93.2324 3.80909 92.6244 4.03256 91.921 4.12784L91.7615 3.84029C91.6079 3.56861 91.5112 3.33607 91.4823 3.13643C91.2713 3.38201 90.9905 3.5913 90.7527 3.745C90.2088 4.09664 89.6021 4.32011 88.8987 4.41539Z" fill="url(#paint0_linear_4007_7441)"/>
<defs>
<linearGradient id="paint0_linear_4007_7441" x1="0.503906" y1="17.3091" x2="104.999" y2="17.3091" gradientUnits="userSpaceOnUse">
<stop stop-color="#04C07C"/>
<stop offset="1" stop-color="#0B6E4A"/>
</linearGradient>
</defs>
</svg>
