<svg width="360" height="120" viewBox="0 0 360 120" fill="none" xmlns="http://www.w3.org/2000/svg">
<path d="M91.8934 96.8314C94.9901 96.8314 97.7404 96.328 100.267 95.2762C98.1999 95.7679 96.0247 96.0216 93.7603 96.0216C87.9675 96.0216 83.4045 94.0723 80.5122 90.5971C81.0127 91.7327 81.6649 92.7181 82.4576 93.5377C84.5699 95.7231 87.7446 96.8314 91.8934 96.8314ZM181.424 95.9221C186.502 95.7679 191.426 95.007 196.086 93.6586C199.628 92.6342 203.013 91.2703 206.195 89.5903C198.786 92.9054 190.38 95.0596 181.424 95.9221ZM277.998 95.1806C280.463 95.1806 282.388 94.7787 284.154 93.8674C282.918 94.1913 281.569 94.3708 280.086 94.3708C277.967 94.3708 274.26 93.8655 271.438 90.7864C271.678 91.3054 271.947 91.7835 272.241 92.2186C272.9 93.1903 273.694 93.9279 274.599 94.4118C275.555 94.9211 276.699 95.1806 277.998 95.1806ZM140.632 94.1874C142.13 94.1874 143.566 93.8811 144.965 93.2567C144.255 93.3386 143.51 93.3816 142.724 93.3816C140.605 93.3816 136.899 92.8781 134.077 89.7971C134.318 90.3161 134.585 90.7922 134.88 91.2274C135.538 92.1991 136.33 92.9367 137.235 93.4186C138.191 93.9279 139.334 94.1874 140.632 94.1874ZM172.43 86.158C177.041 86.158 181.73 85.2214 186.366 83.3755C187.263 83.0184 188.152 82.6262 189.03 82.2047C184.202 84.1228 179.126 85.1316 174.081 85.1316C173.432 85.1316 172.795 85.1004 172.179 85.0711C171.635 85.0438 171.12 85.0185 170.667 85.0185H165.879L166.396 85.2194C168.023 85.8517 169.996 86.158 172.43 86.158ZM343.712 86.0507C345.215 86.0507 346.58 85.7229 347.819 85.0594C347.161 85.1785 346.487 85.239 345.799 85.239C343.68 85.239 339.973 84.7336 337.151 81.6525C337.392 82.1735 337.66 82.6516 337.955 83.0887C338.615 84.0604 339.408 84.798 340.313 85.2819C341.269 85.7912 342.413 86.0507 343.712 86.0507ZM304.183 86.0507C305.794 86.0507 307.413 85.7014 309.014 85.0107C308.107 85.1609 307.19 85.239 306.274 85.239C304.453 85.239 302.687 84.9794 301.016 84.4721L300.792 85.3853C301.769 85.836 302.882 86.0507 304.183 86.0507ZM297.704 83.075C297.551 82.9892 297.399 82.9033 297.248 82.8135C297.129 82.8799 297.003 82.9638 296.867 83.075H297.704ZM313.642 67.0142C315.349 67.0142 316.674 66.0249 317.312 65.4356L319.627 63.2931L322.085 64.938C322.227 63.7771 322.3 62.6082 322.3 61.4414C322.3 58.8755 321.585 56.011 320.434 53.9642C319.872 52.9651 319.214 52.1768 318.53 51.6851C317.901 51.2324 317.257 51.0217 316.503 51.0217C316.159 51.0217 315.731 51.09 315.166 51.6012C314.749 51.9778 314.354 52.5066 313.99 53.1759L309.412 62.1321C309.516 64.0405 309.952 65.4493 310.668 66.1517C311.25 66.7235 312.251 67.0142 313.642 67.0142ZM201.94 53.3866C204.17 52.7212 206.385 52.2451 208.564 51.97L210.229 51.7592C210.029 51.7183 209.726 51.6812 209.285 51.6812C207.112 51.6812 204.647 52.2549 201.94 53.3866ZM35.1552 49.5192C49.1262 49.5192 62.7611 47.9426 75.1853 44.9201C63.6875 47.324 51.137 48.6002 38.4567 48.6002C22.7779 48.6002 11.8982 46.126 6.05218 41.2381C6.18731 41.4468 6.3317 41.6517 6.48487 41.8508C7.78685 43.5522 9.80201 44.9962 12.4747 46.1474C17.671 48.3855 25.3018 49.5192 35.1552 49.5192ZM249.926 43.3825L253.208 43.3454C266.442 43.1991 279.363 41.6322 291.162 38.7697C279.678 41.1659 267.146 42.4381 254.485 42.4381C254.055 42.4381 253.625 42.4361 253.206 42.4322L250.936 42.4108L250.937 42.4771L249.692 42.3991L249.187 42.3932L249.188 42.3678L246.64 42.2078C242.891 41.9737 239.446 41.5561 236.402 40.9688L234.898 40.678L234.93 41.1503L229.12 38.9824C226.079 37.8487 223.802 36.5121 222.104 35.1013C222.474 35.6711 222.91 36.2077 223.414 36.7111C225.355 38.6546 228.345 40.2 232.301 41.3064L234.741 41.9873L237.656 42.4439C240.52 42.8908 243.764 43.1776 247.298 43.2947L249.926 43.3825ZM146.164 24.4533C146.068 23.868 145.816 23.386 145.413 23.0153C144.762 22.4182 143.69 22.0884 142.395 22.0884C141.266 22.0884 140.179 22.3908 139.072 23.0153C138.589 23.2865 138.109 23.6162 137.636 24.0026C138.864 23.6358 140.159 23.4484 141.513 23.4484C143.25 23.4484 144.821 23.7997 146.164 24.4533ZM270.34 119.255L269.791 118.266C268.361 115.733 268.361 114.196 270.56 113.206C273.754 111.776 276.283 110.233 278.154 107.263L280.025 111.115C280.269 111.602 280.356 112.08 280.325 112.545C280.592 112.309 280.937 112.096 281.365 111.905C284.554 110.475 287.082 108.931 288.953 105.963L290.825 109.813C292.035 112.233 289.394 114.434 287.523 115.643C285.651 116.853 283.564 117.622 281.144 117.956L280.591 116.961C280.018 115.948 279.675 115.093 279.61 114.369C278.871 115.423 277.694 116.317 276.723 116.943C274.852 118.155 272.76 118.927 270.34 119.255ZM335.816 118.258L335.263 117.267C333.833 114.736 333.833 113.193 336.037 112.207C339.226 110.777 341.755 109.234 343.626 106.266L345.497 110.116C346.707 112.535 344.066 114.736 342.195 115.946C340.324 117.156 338.236 117.924 335.816 118.258ZM91.8934 100.828C81.2191 100.828 75.2809 94.445 75.2809 83.8828C75.2809 73.7617 79.7883 61.7692 88.8119 49.5563C91.7807 50.9885 91.2319 53.4081 88.8119 57.5916C83.5308 66.7235 81.2191 73.8748 80.9986 79.8125C80.9986 88.6166 86.6123 92.0254 93.7603 92.0254C104.763 92.0254 111.587 85.3131 114.889 77.3929C110.705 78.8232 105.753 79.592 100.584 79.592C97.0618 79.592 94.3135 78.8232 94.3135 76.6241V76.6222C94.2779 76.6241 94.2418 76.6241 94.2052 76.6241C94.3135 69.143 102.127 61.217 110.597 56.4891C118.078 52.1983 123.03 47.685 127.101 34.0418C129.301 26.5626 134.802 18.0922 142.395 18.0922C147.236 18.0922 150.204 21.0601 150.204 25.0192C150.204 27.2241 149.215 29.6437 146.903 31.4018C146.354 28.6544 144.154 27.4446 141.513 27.4446C135.131 27.4446 131.833 33.273 130.182 38.4419C126.66 49.7768 121.379 58.2472 111.699 62.9809C103.557 66.9381 102.127 68.8093 100.476 72.0036C100.476 72.0309 100.476 72.0562 100.476 72.0836L100.584 72.0036C106.746 72.0036 113.346 70.6806 120.826 67.7127C123.358 66.7254 124.569 67.7127 124.569 69.4708C124.569 72.0036 122.697 72.9929 120.938 76.7315C112.905 93.7894 104.214 100.828 91.8934 100.828ZM179.47 99.9475C174.518 99.9475 170.779 99.2861 165.386 98.1836C165.386 95.8753 166.709 92.3532 172.43 92.3532C189.924 92.3532 204.665 87.5141 215.007 79.9198C225.348 72.3314 231.403 62.099 231.403 50.9885C231.403 49.0353 231.332 47.0782 231.226 45.1542C222.452 42.7035 216.528 37.9034 216.528 29.31C216.528 26.5626 217.189 23.1479 218.619 20.0708C221.588 20.1781 221.697 22.1625 221.368 24.7987C220.915 28.3695 223.099 32.4711 230.517 35.2379C230.389 33.392 230.301 31.6905 230.301 30.192C230.301 15.8873 235.253 5.98661 240.201 0.15625C243.832 1.14749 241.853 4.77683 240.314 8.40617C237.561 14.6775 236.463 23.3684 236.9 30.8535C237.029 33.0194 237.114 35.0799 237.16 37.0448C239.947 37.5834 243.174 37.9873 246.89 38.2195C246.882 37.6068 246.878 36.9843 246.878 36.3541C246.878 26.4495 250.396 15.4522 256.891 7.85787C258.43 8.29885 258.979 9.61791 258.979 10.6111C258.979 12.258 257.989 13.6882 257 16.1078C254.025 22.8045 253.362 30.7578 253.244 38.4361C253.653 38.44 254.066 38.4419 254.485 38.4419C273.517 38.4419 292.881 35.474 308.504 29.751C324.127 24.0299 336.123 15.6668 340.411 4.66951C341.841 1.03432 343.162 0.0450282 345.804 0.376742C345.363 6.09979 342.943 12.9194 338.323 18.42C330.73 27.3314 318.297 34.5921 303.003 39.5444C288.281 44.4167 271.106 47.1445 253.252 47.3416C253.255 47.9387 253.257 48.5319 253.257 49.1172C253.257 59.5701 252.047 71.0104 249.078 80.3608C246.545 88.3961 240.828 99.1768 231.035 99.1768C229.052 99.1768 227.072 98.5173 225.534 96.7533C240.608 89.2722 247.319 77.2798 247.319 53.5154C247.319 51.5524 247.25 49.4821 247.166 47.2889C243.628 47.1718 240.217 46.8889 237.038 46.3913C236.585 54.6647 235.185 60.9009 233.049 66.1693C228.542 76.2905 221.497 84.6536 212.366 90.5952C203.235 96.5328 192.012 99.9475 179.47 99.9475ZM156.684 99.8871C156.322 99.8871 155.925 99.8363 155.485 99.7271C157.024 95.8753 159.116 91.6976 161.756 87.4009C160.326 86.5248 159.228 85.4263 158.566 84.4331C153.726 92.7942 148.005 98.1836 140.632 98.1836C132.603 98.1836 128.532 91.2566 128.532 81.2447L128.527 81.2428C128.527 71.1177 133.039 59.1253 142.063 46.9162C145.032 48.3465 144.483 50.768 142.063 54.9457C136.782 64.0775 134.469 71.2309 134.249 77.1724H134.253C134.253 84.6536 136.782 89.3854 142.724 89.3854C148.113 89.3854 150.866 86.9658 154.275 81.9042C155.598 79.9198 156.808 77.7207 159.007 77.7207C160.767 79.151 163.519 80.033 166.376 80.474C178.481 63.7497 196.082 47.685 209.285 47.685C212.478 47.685 214.566 49.0041 214.566 52.6393C214.566 62.54 209.285 71.8904 201.363 78.8232C193.442 85.7541 182.88 90.1542 172.43 90.1542C169.349 90.1542 166.929 89.7132 164.95 88.9444C163.627 91.1435 162.197 93.3445 160.987 95.768C159.76 98.0275 158.858 99.8871 156.684 99.8871ZM209.065 55.9349C196.856 57.4784 182.439 66.1693 170.667 81.0223C171.769 81.0223 172.979 81.1355 174.081 81.1355C192.452 81.1355 207.638 66.3898 209.065 55.9349ZM277.998 99.1768C269.964 99.1768 265.894 92.2459 265.894 82.2321C265.894 72.1109 270.405 60.1184 279.428 47.9055C282.397 49.3377 281.848 51.7573 279.428 55.9408C274.147 65.0707 271.836 72.2241 271.615 78.1617C271.615 85.6429 274.147 90.3747 280.086 90.3747C285.479 90.3747 288.448 87.2936 291.309 83.4418C293.508 80.474 295.159 78.6027 298.132 78.6027C300.332 80.2535 303.081 81.2428 306.274 81.2428C313.422 81.2428 319.913 75.4124 321.343 69.2503L320.025 68.3684C318.595 69.6913 316.396 71.0104 313.642 71.0104C309.243 71.0104 305.392 68.9225 305.392 61.217L310.453 51.3163C311.222 49.886 313.094 47.0255 316.503 47.0255C323.215 47.0255 326.296 55.4998 326.296 61.4414C326.296 76.511 315.842 90.0469 304.183 90.0469C300.661 90.0469 298.132 88.8371 296.261 87.077L296.262 87.0712L296.261 87.0731C290.211 95.5475 285.919 99.1768 277.998 99.1768ZM343.712 90.0469C335.678 90.0469 331.608 83.114 331.608 73.106L331.61 73.1021H331.608C331.608 62.9809 336.119 50.9885 345.142 38.7756C348.111 40.2058 347.562 42.6254 345.142 46.8089C339.861 55.9408 337.55 63.0883 337.329 69.0298L337.329 69.0337C337.329 76.5149 339.861 81.2428 345.799 81.2428C351.193 81.2428 354.162 75.8534 355.151 71.2348C355.813 68.0406 357.244 66.0639 359.996 66.503C359.006 79.2642 353.941 90.0469 343.712 90.0469ZM35.1552 53.5154C16.6719 53.5154 0.495972 49.6694 0.495972 35.474C0.495972 32.7247 1.15696 29.31 2.58772 26.229C5.56095 26.3421 5.66876 28.3207 5.34046 30.9608C4.56679 37.0116 11.3908 44.604 38.4567 44.604C57.4888 44.604 76.8541 41.6361 92.4769 35.9131C108.099 30.192 120.092 21.8308 124.383 10.8316C125.643 7.62957 126.82 6.48028 128.887 6.48028C129.166 6.48028 129.461 6.50174 129.776 6.54077C129.336 12.2619 126.916 19.0815 122.291 24.5821C114.703 33.4935 102.269 40.7541 86.9753 45.7064C71.6813 50.768 53.7507 53.5154 35.1552 53.5154ZM63.6387 21.7177L63.0855 20.7284C62.4558 19.6123 62.1036 18.6913 62.0943 17.9225C61.4782 18.5059 60.7821 19.0093 60.1684 19.4054C58.2971 20.6152 56.2098 21.3899 53.7897 21.7177L53.2365 20.7284C51.8063 18.1956 51.8063 16.6561 54.0102 15.6668C57.1996 14.2365 59.7274 12.6989 61.5987 9.72522L63.4699 13.5751C63.8543 14.3439 63.8504 15.0892 63.6065 15.7878C63.6875 15.7468 63.7714 15.7058 63.8592 15.6668C67.0485 14.2365 69.5764 12.6989 71.4476 9.72522L73.3189 13.5751C74.5292 15.9966 71.8886 18.1956 70.0174 19.4054C68.1461 20.6152 66.0588 21.3899 63.6387 21.7177ZM271.74 19.7118L271.192 18.7225C269.761 16.1936 269.761 14.6522 271.961 13.6629C275.155 12.2326 277.683 10.693 279.554 7.71933L281.425 11.5711C281.671 12.0628 281.758 12.5467 281.725 13.015C281.912 12.8941 282.125 12.7789 282.363 12.6716C285.552 11.2414 288.085 9.70376 289.952 6.73004L291.823 10.5799C293.033 13.0014 290.393 15.2005 288.521 16.4102C286.654 17.6259 284.563 18.3947 282.143 18.7225L281.589 17.7332C281.063 16.7985 280.731 15.9985 280.632 15.3136C279.906 16.1566 278.941 16.8766 278.124 17.4054C276.252 18.6152 274.165 19.384 271.74 19.7118ZM304.606 15.3468L304.053 14.3575C302.623 11.8306 302.623 10.2872 304.822 9.2979C308.016 7.86763 310.544 6.32418 312.415 3.35436L314.286 7.20615C314.533 7.69787 314.619 8.18178 314.586 8.65008C314.774 8.5291 314.986 8.41398 315.224 8.30861C318.414 6.87639 320.946 5.33879 322.813 2.36508L324.684 6.21686C325.894 8.63642 323.254 10.8355 321.382 12.0453C319.516 13.2609 317.424 14.0297 315.004 14.3575L314.455 13.3682C313.927 12.4336 313.594 11.6336 313.494 10.9467C312.769 11.7916 311.803 12.5116 310.985 13.0404C309.113 14.2502 307.026 15.019 304.606 15.3468Z" fill="url(#paint0_linear_339_9128)"/>
<defs>
<linearGradient id="paint0_linear_339_9128" x1="0.495972" y1="59.7058" x2="359.996" y2="59.7058" gradientUnits="userSpaceOnUse">
<stop stop-color="#04C07C"/>
<stop offset="1" stop-color="#0B6E4A"/>
</linearGradient>
</defs>
</svg>
