<svg width="12" height="10" viewBox="0 0 12 10" fill="none" xmlns="http://www.w3.org/2000/svg">
<path d="M9.73929 1.24549C9.84258 1.13413 9.97167 1.0499 10.1152 1.0002C10.2587 0.9505 10.4123 0.936864 10.5623 0.960497C10.7575 0.999115 10.9371 1.09386 11.0793 1.23313C11.2214 1.37239 11.3197 1.55012 11.3623 1.74449C11.4111 1.93816 11.4092 2.14115 11.3566 2.33385C11.3041 2.52655 11.2027 2.70244 11.0623 2.8445C9.10562 4.8225 7.14895 6.80083 5.19228 8.7795C5.10443 8.86887 4.99919 8.93928 4.88306 8.98639C4.76693 9.0335 4.64237 9.05631 4.51708 9.05341C4.39179 9.0505 4.26842 9.02196 4.15459 8.96951C4.04077 8.91707 3.93891 8.84184 3.85529 8.74849C2.87396 7.66916 1.89395 6.58816 0.915288 5.5055C0.812623 5.39484 0.732827 5.26499 0.680486 5.12341C0.628145 4.98184 0.604282 4.83132 0.61028 4.6805C0.613548 4.48183 0.671215 4.28786 0.776998 4.11966C0.88278 3.95147 1.03264 3.81548 1.21029 3.72649C1.39013 3.64323 1.59213 3.62055 1.78595 3.66184C1.97978 3.70313 2.15499 3.80617 2.28528 3.95549C3.04862 4.79616 3.81162 5.63749 4.57428 6.47949L9.73929 1.24549Z" fill="white"/>
</svg>
