<svg width="24" height="25" viewBox="0 0 24 25" fill="none" xmlns="http://www.w3.org/2000/svg">
<g clip-path="url(#clip0_4182_24450)">
<path d="M15.7393 8.86267C15.8426 8.75132 15.9717 8.66709 16.1152 8.61739C16.2587 8.56769 16.4123 8.55405 16.5623 8.57768C16.7575 8.6163 16.9371 8.71105 17.0793 8.85031C17.2214 8.98958 17.3197 9.16731 17.3623 9.36168C17.4111 9.55535 17.4092 9.75834 17.3566 9.95104C17.3041 10.1437 17.2027 10.3196 17.0623 10.4617C15.1056 12.4397 13.1489 14.418 11.1923 16.3967C11.1044 16.4861 10.9992 16.5565 10.8831 16.6036C10.7669 16.6507 10.6424 16.6735 10.5171 16.6706C10.3918 16.6677 10.2684 16.6391 10.1546 16.5867C10.0408 16.5343 9.93891 16.459 9.85529 16.3657C8.87396 15.2863 7.89395 14.2053 6.91529 13.1227C6.81262 13.012 6.73283 12.8822 6.68049 12.7406C6.62814 12.599 6.60428 12.4485 6.61028 12.2977C6.61355 12.099 6.67122 11.905 6.777 11.7368C6.88278 11.5687 7.03264 11.4327 7.21029 11.3437C7.39013 11.2604 7.59213 11.2377 7.78595 11.279C7.97978 11.3203 8.15499 11.4234 8.28528 11.5727C9.04862 12.4133 9.81162 13.2547 10.5743 14.0967L15.7393 8.86267Z" fill="url(#paint0_linear_4182_24450)"/>
</g>
<defs>
<linearGradient id="paint0_linear_4182_24450" x1="6.60938" y1="12.6186" x2="17.3975" y2="12.6186" gradientUnits="userSpaceOnUse">
<stop stop-color="#04C07C"/>
<stop offset="1" stop-color="#0B6E4A"/>
</linearGradient>
<clipPath id="clip0_4182_24450">
<rect width="24" height="24" fill="white" transform="translate(0 0.617188)"/>
</clipPath>
</defs>
</svg>
