<svg width="56" height="32" viewBox="0 0 56 32" fill="none" xmlns="http://www.w3.org/2000/svg">
<path fill-rule="evenodd" clip-rule="evenodd" d="M35.8134 12.007C34.9574 13.1555 34.4951 14.5496 34.4951 15.982C34.4951 17.4144 34.9574 18.8085 35.8134 19.957L34.3335 21.4049C33.094 19.8693 32.4179 17.9554 32.4179 15.982C32.4179 14.0086 33.094 12.0947 34.3335 10.5591L35.8134 12.007Z" fill="#CECED1"/>
<path d="M49.0635 19.4437L45.735 15.9976L47.5034 14.1704H50.629L52.3974 15.9976L49.0635 19.4437Z" fill="#CECED1"/>
<path fill-rule="evenodd" clip-rule="evenodd" d="M35.8348 22.9276C36.7352 23.6436 37.7685 24.1742 38.875 24.4888C39.9815 24.8034 41.1393 24.8959 42.2817 24.7608C43.4241 24.6257 44.5285 24.2657 45.5311 23.7016C46.5337 23.1376 47.4146 22.3806 48.1232 21.4744L42.8392 15.998L48.1392 10.527C47.4306 9.62096 46.5497 8.86407 45.5473 8.29993C44.545 7.73579 43.4408 7.37556 42.2986 7.23998C41.1564 7.1044 39.9986 7.19616 38.892 7.50997C37.7854 7.82378 36.7519 8.35344 35.8508 9.06844L37.3254 10.527C38.503 9.67764 39.918 9.22055 41.3699 9.22055C42.8218 9.22055 44.2369 9.67764 45.4144 10.527L39.8686 15.998L45.2114 21.4744C44.0718 22.3226 42.689 22.7807 41.2684 22.7807C39.8478 22.7807 38.465 22.3226 37.3254 21.4744L35.8348 22.9276Z" fill="#CECED1"/>
<path fill-rule="evenodd" clip-rule="evenodd" d="M10.6271 19.6481V19.8205C10.6308 20.3339 10.485 20.8372 10.2075 21.2691C9.90702 21.7205 9.48985 22.0821 9.00032 22.3153C8.43616 22.5805 7.81857 22.7122 7.19533 22.7005C6.55157 22.714 5.91304 22.5824 5.32711 22.3153C4.82129 22.0806 4.38541 21.718 4.06247 21.2634C3.7609 20.8343 3.6002 20.322 3.6026 19.7976C3.68102 18.6153 3.82882 17.4387 4.04522 16.2738L5.59154 16.36C5.49381 16.9808 5.40184 17.6304 5.32136 18.303C5.24088 18.9755 5.1949 19.4182 5.1949 19.6309C5.19455 19.9143 5.28079 20.1911 5.44208 20.4241C5.6133 20.6769 5.85241 20.8761 6.13188 20.999C6.4451 21.144 6.78696 21.2167 7.1321 21.2117C7.47012 21.2194 7.80512 21.1465 8.10933 20.999C8.37644 20.8735 8.6019 20.674 8.75889 20.4241C8.90718 20.1926 8.98506 19.923 8.98308 19.6481V13.5031H10.6271V18.1478H14.0761V13.4801H17.4734C18.8952 13.4801 19.6061 14.1986 19.6061 15.6357V19.6596L10.6271 19.6481ZM16.3295 14.8654C16.0494 14.875 15.7707 14.9076 15.496 14.9632V18.1478H17.9735V16.5382C18.0093 16.0902 17.8895 15.6436 17.6344 15.2736C17.4676 15.1205 17.27 15.0049 17.0549 14.9345C16.8397 14.8641 16.612 14.8405 16.387 14.8654H16.3295ZM7.95412 11.905V13.5031H6.47679V11.905H7.95412Z" fill="#CECED1"/>
<path fill-rule="evenodd" clip-rule="evenodd" d="M25.1475 20.6197V22.2178H23.653V20.6197H25.1475ZM25.1073 18.1364C25.3116 18.1364 25.5075 18.0553 25.652 17.9108C25.7964 17.7664 25.8776 17.5704 25.8776 17.3661V13.4917H27.5101V17.9007C27.5101 18.3581 27.3284 18.7967 27.005 19.1202C26.6816 19.4436 26.243 19.6253 25.7856 19.6253H21.2444V11.0027H22.8769V18.1364H25.1073Z" fill="#CECED1"/>
</svg>
