<svg width="32" height="32" viewBox="0 0 32 32" fill="none" xmlns="http://www.w3.org/2000/svg">
<path fill-rule="evenodd" clip-rule="evenodd" d="M24.3835 22.1993C24.1987 22.0884 24.0023 22.0057 23.8001 21.9511V8.49764C23.8001 6.09879 21.9964 4.08355 19.6122 3.81864C15.8823 3.4042 12.1179 3.4042 8.38798 3.81864C6.00379 4.08355 4.20007 6.09879 4.20007 8.49764V25.5C4.20007 27.8748 6.12522 29.8 8.50003 29.8H25C27.651 29.8 29.8 27.651 29.8 25V23.7743C29.8 22.705 28.9332 21.8381 27.8638 21.8381C27.4606 21.8381 27.0675 21.964 26.7393 22.1981L26.0357 22.7001C25.8089 22.8619 25.5078 22.8739 25.2689 22.7305L24.3835 22.1993ZM11.8469 28.2H25C26.7673 28.2 28.2 26.7673 28.2 25V23.7743C28.2 23.5886 28.0495 23.4381 27.8638 23.4381C27.7938 23.4381 27.7255 23.4599 27.6685 23.5006L26.9649 24.0026C26.2199 24.5342 25.2306 24.5734 24.4458 24.1025L23.5603 23.5713C23.3386 23.4383 23.0617 23.4383 22.84 23.5713L21.8835 24.1452C21.1551 24.5822 20.2452 24.5822 19.5168 24.1452L18.5603 23.5713C18.3386 23.4383 18.0617 23.4383 17.84 23.5713L16.873 24.1515C16.1532 24.5834 15.2552 24.5888 14.5302 24.1657L13.3726 23.49C13.3143 23.456 13.2481 23.4381 13.1807 23.4381C12.9705 23.4381 12.8 23.6085 12.8 23.8187V25.5C12.8 26.5227 12.4431 27.4619 11.8469 28.2ZM11.2001 25.5L11.2 23.8187C11.2 22.7249 12.0868 21.8381 13.1807 21.8381C13.5315 21.8381 13.8761 21.9313 14.1791 22.1081L15.3368 22.7838C15.5574 22.9126 15.8307 22.911 16.0498 22.7795L17.0168 22.1993C17.7452 21.7623 18.6551 21.7623 19.3835 22.1993L20.34 22.7732C20.5617 22.9062 20.8386 22.9062 21.0603 22.7732L22.0168 22.1993C22.0767 22.1633 22.1379 22.1303 22.2001 22.1003V8.49764C22.2001 6.91406 21.0094 5.58373 19.4355 5.40885C15.823 5.00747 12.1772 5.00747 8.56467 5.40885C6.99078 5.58373 5.80007 6.91407 5.80007 8.49764L5.80007 25.5C5.80007 26.9912 7.00888 28.2 8.50003 28.2C9.99119 28.2 11.2001 26.9912 11.2001 25.5Z" fill="#11317B"/>
<path fill-rule="evenodd" clip-rule="evenodd" d="M9.19995 11C9.19995 10.5581 9.55812 10.2 9.99995 10.2H18C18.4418 10.2 18.8 10.5581 18.8 11C18.8 11.4418 18.4418 11.8 18 11.8H9.99995C9.55812 11.8 9.19995 11.4418 9.19995 11Z" fill="#3083FF"/>
<path fill-rule="evenodd" clip-rule="evenodd" d="M9.19995 16C9.19995 15.5581 9.55812 15.2 9.99995 15.2H18C18.4418 15.2 18.8 15.5581 18.8 16C18.8 16.4418 18.4418 16.8 18 16.8H9.99995C9.55812 16.8 9.19995 16.4418 9.19995 16Z" fill="#3083FF"/>
</svg>
