<svg width="56" height="32" viewBox="0 0 56 32" fill="none" xmlns="http://www.w3.org/2000/svg">
<path d="M21.265 7.42654C21.265 8.2001 20.6379 8.82719 19.8643 8.82719C19.0907 8.82719 18.4637 8.2001 18.4637 7.42654C18.4637 6.65297 19.0907 6.02588 19.8643 6.02588C20.6379 6.02588 21.265 6.65297 21.265 7.42654Z" fill="#CECED1"/>
<path d="M27.4243 8.76048C27.4243 7.77795 28.2208 6.98145 29.2034 6.98145H30.7182V22.9927C30.7182 23.9753 29.9217 24.7718 28.9392 24.7718H27.4243V8.76048Z" fill="#CECED1"/>
<path fill-rule="evenodd" clip-rule="evenodd" d="M12.0127 8.80912C12.0127 7.82579 12.8084 7.03009 13.7918 7.03009H15.3189V13.0725C16.3005 12.1309 17.5965 11.5715 19.0993 11.5715C22.3742 11.5715 25.0844 14.4624 25.0827 18.156C25.0827 20.2234 24.294 21.9434 23.0292 23.1178C21.8582 24.2054 20.2824 24.8274 18.5486 24.8274C15.9113 24.8274 13.6302 23.2325 12.593 20.9392C12.2681 20.2165 12.0648 19.4242 12.0127 18.5938V8.80912ZM21.8738 18.1768C21.8738 20.1991 20.3658 21.8426 18.5052 21.8426C16.6462 21.8426 15.1382 20.1991 15.1382 18.1768C15.1382 16.9433 15.6976 15.8488 16.5559 15.1851C17.1066 14.7612 17.7789 14.5111 18.5052 14.5111C19.3808 14.5111 20.1799 14.8759 20.7793 15.4701C21.4517 16.1407 21.8738 17.1066 21.8738 18.1768Z" fill="#CECED1"/>
<path d="M34.7029 11.882C35.6855 11.882 36.482 12.6785 36.482 13.6611V19.5163C36.482 20.7128 37.4492 21.6828 38.6457 21.6828C39.8422 21.6828 40.8122 20.7128 40.8122 19.5163L40.8095 13.6611C40.8095 12.6785 41.606 11.882 42.5885 11.882H44.1034V19.5163C44.1034 22.5305 41.6599 24.974 38.6457 24.974C35.6315 24.974 33.1881 22.5305 33.1881 19.5163L33.1881 11.882H34.7029Z" fill="#CECED1"/>
</svg>
