<svg width="32" height="32" viewBox="0 0 32 32" fill="none" xmlns="http://www.w3.org/2000/svg">
<path d="M20.7548 6.86042C20.7548 6.4186 21.1129 6.06042 21.5548 6.06042H25.5548C25.9966 6.06042 26.3548 6.4186 26.3548 6.86042C26.3548 7.30225 25.9966 7.66042 25.5548 7.66042H21.5548C21.1129 7.66042 20.7548 7.30225 20.7548 6.86042Z" fill="#3083FF"/>
<path d="M21.5548 10.0604C21.1129 10.0604 20.7548 10.4186 20.7548 10.8604C20.7548 11.3023 21.1129 11.6604 21.5548 11.6604H25.5548C25.9966 11.6604 26.3548 11.3023 26.3548 10.8604C26.3548 10.4186 25.9966 10.0604 25.5548 10.0604H21.5548Z" fill="#3083FF"/>
<path fill-rule="evenodd" clip-rule="evenodd" d="M19.6354 1.37419C22.2323 0.96495 24.8772 0.96495 27.4741 1.37419C29.1328 1.6356 30.3548 3.06517 30.3548 4.74441V15.4736C30.3548 17.0806 28.7486 18.1922 27.2446 17.6262L23.9775 16.3965C23.705 16.294 23.4045 16.294 23.1321 16.3965L19.8649 17.6262C18.3609 18.1922 16.7548 17.0806 16.7548 15.4736V4.74441C16.7548 3.06516 17.9767 1.6356 19.6354 1.37419ZM27.225 2.95469C24.7932 2.57145 22.3163 2.57145 19.8845 2.95469C19.0036 3.09351 18.3548 3.85266 18.3548 4.74441V15.4736C18.3548 15.9627 18.8436 16.301 19.3013 16.1287L22.5685 14.8991C23.2042 14.6598 23.9053 14.6598 24.541 14.8991L27.8082 16.1287C28.2659 16.301 28.7548 15.9627 28.7548 15.4736V4.74441C28.7548 3.85266 28.1059 3.09351 27.225 2.95469Z" fill="#3083FF"/>
<path fill-rule="evenodd" clip-rule="evenodd" d="M16.7546 14.5647C13.3174 13.2045 9.31591 13.6696 6.23639 16.0138L4.77312 17.1276C4.36104 17.4413 3.87899 17.6503 3.36836 17.7366L2.53742 17.8771C1.43083 18.0642 0.62085 19.0226 0.62085 20.1449V24.6837C0.62085 26.7824 2.32216 28.4837 4.42085 28.4837H4.51277C4.87463 30.0311 6.26318 31.1836 7.9209 31.1836C9.57862 31.1836 10.9672 30.0311 11.329 28.4837H19.5128C19.8746 30.0311 21.2632 31.1836 22.9209 31.1836C24.5786 31.1836 25.9672 30.0311 26.329 28.4837H26.9601C28.7604 28.4837 30.2899 27.1668 30.5574 25.3864L30.9458 22.8005C31.1567 21.3963 30.3891 20.0278 29.0809 19.4757C27.3732 18.755 25.5385 18.3837 23.6851 18.3837H22.3946C22.1713 18.3837 21.9556 18.3022 21.7882 18.1544L20.7934 17.2767L19.8648 17.6262C19.555 17.7428 19.2409 17.7882 18.9373 17.7727L20.7296 19.3541C21.1894 19.7598 21.7814 19.9837 22.3946 19.9837H23.6851C25.3248 19.9837 26.948 20.3122 28.4587 20.9498C29.0934 21.2176 29.4659 21.8816 29.3635 22.5628L28.9751 25.1488C28.8253 26.146 27.9686 26.8837 26.9601 26.8837H26.3291C25.9673 25.3362 24.5787 24.1836 22.9209 24.1836C21.2631 24.1836 19.8745 25.3362 19.5127 26.8837H11.3291C10.9673 25.3362 9.57869 24.1836 7.9209 24.1836C6.26311 24.1836 4.87452 25.3362 4.51272 26.8837H4.42085C3.20582 26.8837 2.22085 25.8987 2.22085 24.6837V22.9585C2.28477 22.9749 2.35179 22.9837 2.42085 22.9837H5.16833C5.61016 22.9837 5.96833 22.6255 5.96833 22.1837C5.96833 21.7418 5.61016 21.3837 5.16833 21.3837H2.42085C2.35179 21.3837 2.28477 21.3924 2.22085 21.4089V20.1449C2.22085 19.8033 2.46736 19.5117 2.80415 19.4547L3.6351 19.3142C4.40105 19.1847 5.12412 18.8712 5.74223 18.4007L7.2055 17.2869C10.0669 15.1087 13.8627 14.8351 16.9499 16.4064C16.825 16.1244 16.7546 15.8098 16.7546 15.4736V14.5647ZM9.8209 27.6836C9.8209 28.7329 8.97024 29.5836 7.9209 29.5836C6.87156 29.5836 6.0209 28.7329 6.0209 27.6836C6.0209 26.6343 6.87156 25.7836 7.9209 25.7836C8.97024 25.7836 9.8209 26.6343 9.8209 27.6836ZM24.8209 27.6836C24.8209 28.7329 23.9702 29.5836 22.9209 29.5836C21.8716 29.5836 21.0209 28.7329 21.0209 27.6836C21.0209 26.6343 21.8716 25.7836 22.9209 25.7836C23.9702 25.7836 24.8209 26.6343 24.8209 27.6836Z" fill="#11317B"/>
</svg>
