<svg width="32" height="32" viewBox="0 0 32 32" fill="none" xmlns="http://www.w3.org/2000/svg">
<path fill-rule="evenodd" clip-rule="evenodd" d="M22 9.19995C17.1398 9.19995 13.2 13.1398 13.2 18C13.2 22.8601 17.1398 26.7999 22 26.7999C26.8601 26.7999 30.7999 22.8601 30.7999 18C30.7999 13.1398 26.8601 9.19995 22 9.19995ZM14.8439 17.2H18.2233C18.3535 14.8781 19.0463 12.741 20.1449 11.0412C17.317 11.7931 15.173 14.223 14.8439 17.2ZM18.2233 18.8H14.8439C15.173 21.7769 17.3169 24.2068 20.1448 24.9587C19.0463 23.2588 18.3535 21.1218 18.2233 18.8ZM19.826 18.8H24.1669C24.0161 21.1914 23.1968 23.2963 21.9972 24.7971C20.7968 23.2963 19.9769 21.1914 19.826 18.8ZM24.1668 17.2H19.826C19.9769 14.8086 20.7968 12.7038 21.9971 11.2029C23.1967 12.7037 24.0161 14.8086 24.1668 17.2ZM25.7696 18.8C25.6395 21.1226 24.9466 23.2604 23.848 24.9606C26.6794 24.2108 28.8267 21.7793 29.156 18.8H25.7696ZM29.156 17.2H25.7696C25.6394 14.8773 24.9465 12.7394 23.8478 11.0393C26.6793 11.789 28.8266 14.2205 29.156 17.2Z" fill="#3083FF"/>
<path fill-rule="evenodd" clip-rule="evenodd" d="M21.6573 3.43347C21.5254 3.41882 21.3935 3.40469 21.2616 3.39106L21.1587 4.3206C21.0018 5.73918 19.803 6.81268 18.3757 6.81268H13.6242C12.197 6.81268 10.9982 5.73918 10.8412 4.3206L10.7384 3.39106C10.6064 3.40468 10.4745 3.41882 10.3426 3.43347C8.89507 3.59431 7.79995 4.81785 7.79995 6.27431V26.7256C7.79995 28.1821 8.89507 29.4056 10.3426 29.5664C14.1026 29.9842 17.8973 29.9842 21.6573 29.5664C23.1048 29.4056 24.2 28.1821 24.2 26.7256V26.5227C24.7565 26.3795 25.2917 26.1831 25.7999 25.9395V26.7256C25.7999 28.9973 24.0918 30.9058 21.834 31.1567C17.9566 31.5875 14.0433 31.5875 10.1659 31.1567C7.90809 30.9058 6.19995 28.9973 6.19995 26.7256V6.27431C6.19995 4.00258 7.90809 2.09413 10.1659 1.84326C14.0433 1.41244 17.9566 1.41244 21.834 1.84326C24.0918 2.09413 25.7999 4.00258 25.7999 6.27431V10.0604C25.2917 9.81676 24.7565 9.62043 24.2 9.47719V6.27431C24.2 4.81785 23.1048 3.59431 21.6573 3.43347ZM12.3327 3.25157C14.7744 3.07633 17.2256 3.07633 19.6673 3.25157L19.5684 4.14464C19.5012 4.75261 18.9874 5.21268 18.3757 5.21268H13.6242C13.0126 5.21268 12.4988 4.75261 12.4315 4.14465L12.3327 3.25157Z" fill="#11317B"/>
</svg>
