<svg xmlns="http://www.w3.org/2000/svg" width="314.467" height="336.189" viewBox="0 0 314.467 336.189">
  <g id="about-logo" transform="translate(17.692 5.77)">
    <ellipse id="Ellipse_596" data-name="Ellipse 596" cx="120.5" cy="9" rx="120.5" ry="9" transform="translate(10.975 312.419)" opacity="0.2"/>
    <g id="Group_65553" data-name="Group 65553" transform="translate(-17.692 -5.77)">
      <path id="Union_191" data-name="Union 191" d="M176.373,284.687c-21.828,8.231-49.243,7.418-72.309-3.966q-4.383-2.164-8.435-4.407c-.268,1.668-.535,3.693-.908,5.718-.918,4.9-2.487,9.8-6.258,9.742-16.588-.32-46.814-20.6-48.9-24.01-2.565-4.218,7.68-19.09,21.3-17.841-20.637-22.1-28-48.126-27.431-76.448a117.13,117.13,0,0,1,.965-13.162C19.447,151.19.237,129.136.011,121.1c-.477-16.908,14.111-12.181,14.111-12.181S1.958,85.774,10.608,73.079c8.635-12.727,20.816,2.476,20.816,2.476C29.84,64.423,54.747,38.98,75.227,44.819c17.049,4.852,18.2,16.351,18.507,20.747,23.255-21.786,57.023-42.2,94.814-29.561.037-.115.058-.184.058-.184a40.2,40.2,0,0,1,7.932,2.586c3-10.911,3.908-22.258,7.827-28.564,7.3-11.788,19.767-12.087,26.14-5.655,3.4,3.447,9.17,12.029,9.091,20.5.645-.341,1.306-.656,1.978-.955C261.3,15.6,284.2,36.179,289.836,61.884c5.639,25.679-19.782,51.793-37.2,32.965a30.349,30.349,0,0,0-11.447-8.121c14.678,41.322-2.728,91.126-9.826,108.459,9.485.037,21.655-1.259,38.473-8.042,21.9-8.829,31.654-8.073,39.1,0,16.252,17.668-6,57.217-31.612,54.4,0,0,10.34,11.688,2.34,22.62-7.974,10.922-37.293-6.206-37.293-6.206s.7,12.543-10.953,12.181c-2.025-.063-4.884-1.993-7.958-5.115a9.483,9.483,0,0,1-.671,4.879c-3.814,7.15-18.66,25.978-23.722,29.807a2.554,2.554,0,0,1-1.6.477C192.525,300.189,181.886,291.26,176.373,284.687Zm46.94-71.344a15.485,15.485,0,0,1-2.985-1.841c-.052.609-.1,1.217-.147,1.831.446-.021.9-.031,1.369-.031C222.122,213.3,222.71,213.317,223.313,213.343ZM55.613,112.449c1.784-2.518,3.614-5.083,5.492-7.764a.13.13,0,0,1,.016-.037s2.366-3.861,6.73-9.794A51.648,51.648,0,0,0,55.613,112.449Z" transform="translate(0 3.27)" opacity="0.1"/>
      <path id="Union_190" data-name="Union 190" d="M174.414,281.526c-21.586,8.139-48.7,7.335-71.506-3.922q-4.334-2.14-8.342-4.358c-.265,1.65-.529,3.652-.9,5.655-.908,4.845-2.459,9.7-6.189,9.633-16.4-.316-46.294-20.372-48.354-23.744-2.537-4.171,7.595-18.878,21.062-17.643-20.408-21.855-27.686-47.591-27.126-75.6a115.83,115.83,0,0,1,.955-13.016C19.232,149.511.234,127.7.011,119.755c-.472-16.72,13.955-12.046,13.955-12.046S1.936,84.821,10.49,72.267c8.539-12.585,20.585,2.449,20.585,2.449C29.508,63.708,54.139,38.548,74.392,44.321c16.86,4.8,18,16.17,18.3,20.517,23-21.544,56.39-41.734,93.761-29.232.036-.114.057-.182.057-.182a39.75,39.75,0,0,1,7.844,2.557c2.962-10.79,3.865-22.011,7.74-28.247,7.221-11.657,19.547-11.952,25.85-5.592,3.367,3.408,9.068,11.9,8.99,20.273.638-.337,1.292-.648,1.956-.944C258.4,15.426,281.046,35.777,286.617,61.2c5.577,25.393-19.563,51.217-36.791,32.6a30.012,30.012,0,0,0-11.319-8.03c14.515,40.863-2.7,90.114-9.716,107.254,9.379.036,21.415-1.245,38.046-7.953,21.653-8.731,31.3-7.984,38.663,0,16.071,17.472-5.929,56.581-31.261,53.8,0,0,10.225,11.558,2.314,22.369-7.885,10.8-36.879-6.137-36.879-6.137s.69,12.4-10.832,12.046c-2-.062-4.83-1.971-7.87-5.058a9.377,9.377,0,0,1-.664,4.825c-3.771,7.071-18.452,25.689-23.458,29.476a2.526,2.526,0,0,1-1.582.472C190.387,296.855,179.866,288.026,174.414,281.526Zm46.419-70.552a15.311,15.311,0,0,1-2.952-1.821c-.052.6-.1,1.2-.145,1.81.441-.021.887-.031,1.354-.031C219.656,210.932,220.237,210.948,220.833,210.974ZM55,111.2c1.764-2.49,3.574-5.027,5.431-7.678a.129.129,0,0,1,.016-.036s2.34-3.818,6.656-9.685A51.075,51.075,0,0,0,55,111.2Z" transform="translate(0)" fill="#fff"/>
      <g id="Group_54984" data-name="Group 54984" transform="translate(14.017 10.922)">
        <path id="Fill-419" d="M0,18.852c20.92,9.4,43.672,13.544,52.318,27.108s20.356,9.361,24.347-5.038C82.184,21,65.363-1.975,46.281.135,32.83,1.958,19.43,10.264,4.619,9.1Z" transform="matrix(0.961, -0.276, 0.276, 0.961, 175.239, 39.27)" fill="#ff003b" fill-rule="evenodd"/>
        <path id="Fill-421" d="M0,37.627c18.713.444,44.8-13.594,36.055-35.44-1-3.055-6.634-2.763-10.16-.042C16.168,10.548,15.556,26.1,2.664,29.521Z" transform="matrix(0.961, -0.276, 0.276, 0.961, 171.829, 12.319)" fill="#ff003b" fill-rule="evenodd"/>
        <path id="Fill-423" d="M6.078.07c6.171.854,27.115.3,33.42-.048a5.376,5.376,0,0,1,2.889,1.4c2.009,2.234,2.276,5.825.2,6.471,0,0-22.3,3.652-35.286,3.3A7.887,7.887,0,0,1,.416,6.543C-1.115,2.768,1.764-.527,6.078.07" transform="translate(154.828 236.553) rotate(45)" fill="#34ff97" fill-rule="evenodd"/>
        <path id="Fill-425" d="M16.735,30.3c-1.8-.6-10.509-4.723-15.379-18.2S6.068-1.417,9.2,1.655s8.513,18.843,10.257,23.2-.921,6.048-2.723,5.446" transform="translate(195.677 240.96) rotate(60)" fill="#34ff97" fill-rule="evenodd"/>
        <path id="Fill-427" d="M2.654,8.594C7.937,12.448,23.377,27.745,27.9,32.467a6.325,6.325,0,0,0,3.192,1.158C34.217,33.62,37,31.5,35.9,29.6c0,0-14.244-18.262-24.318-27.3A9.114,9.114,0,0,0,3.025.384c-3.871,1.342-4.06,5.519-.37,8.21" transform="translate(65.941 218.805) rotate(45)" fill="#34ff97" fill-rule="evenodd"/>
        <path id="Fill-429" d="M35.006,1.91c-1.719-.9-10.115-4.7-25.13,1.868S.194,17.97,4.957,17.991s22.117-7.9,27.087-9.9S36.723,2.8,35.006,1.91" transform="translate(47.479 237.345) rotate(45)" fill="#34ff97" fill-rule="evenodd"/>
        <path id="Union_189" data-name="Union 189" d="M93.624,215.151c-48.75-23.919-62.576-55.88-61.8-94.322a111.131,111.131,0,0,1,2.387-21.691C20.261,95.878.134,75.438,0,70.746c-.2-7.345,15.644-4.609,15.644-4.609S-1.405,38.813,5.588,31.894,23.554,48,23.554,48C18.785,27.673,41.782-1.372,58.861,4.457c21.625,7.381-6.591,26.858-11.152,63.632,2.243-3.5,4.674-7.011,7.262-10.687,7.7-10.93,97.425-72.181,128.737-54.078v0c31.323,18.115,19.475,128.268,15.921,141.406a53.537,53.537,0,0,0-1.48,10.008,40.726,40.726,0,0,1,6.464.363c18.658,2.385,34.071-2.306,46.213-7,17.571-6.782,28.3-13.568,32.129,1.075,4.562,17.462-26.089,38.27-46.01,32.031,0,0,22.157,12.63,14.745,19.1s-33.415-12.54-33.415-12.54,1.571,16-5.746,15.261c-3.022-.305-12.008-9.45-18.578-19.7a59.1,59.1,0,0,1-11.494,19.436c-11.758,13.547-31.3,20.845-51.761,20.846A84.556,84.556,0,0,1,93.624,215.151Z" transform="translate(0 39.44)" fill="#08de6f"/>
        <path id="Fill-433" d="M168.148,92.3s-33.025-110.63-111.5-89.66-52.544,130.2-52.544,130.2S32.785,183.6,100,165.636,168.148,92.3,168.148,92.3" transform="translate(146 0) rotate(45)" fill="#08de6f" fill-rule="evenodd"/>
        <path id="Fill-435" d="M161.714,92.889S127.584-17.52,53.023,2.405,4.347,133.568,4.347,133.568s26.328,41.983,90.193,24.916,67.174-65.595,67.174-65.595" transform="translate(144.82 8.936) rotate(45)" fill="#fff" fill-rule="evenodd"/>
        <path id="Fill-437" d="M19.89,22.1C8.647,24.834,0,8.141,0,8.141s4.925-3.514,15.343-6.3S32.985.256,32.985.256,30.555,19.51,19.89,22.1" transform="translate(175.495 29.413) rotate(45)" fill="#fa0" fill-rule="evenodd"/>
        <path id="Fill-439" d="M80.094,57.143c9.82,36.745.737,71.088-20.288,76.707S13.777,114.234,3.957,77.489,3.222,6.4,24.247.782,70.274,20.4,80.094,57.143" transform="translate(153.488 48.472) rotate(45)" fill="#ffec00" fill-rule="evenodd"/>
        <path id="Fill-441" d="M0,30.915s23.471,14.968,42.92,6.532C63.737,28.42,63.043,0,63.043,0S71.4,23.549,70.776,40.457c-.508,13.7-7.574,26.781-19.851,31.106C21.469,81.938.916,31.745,0,30.915" transform="translate(126.993 84.338) rotate(45)" fill="#ff003b" fill-rule="evenodd"/>
        <path id="Fill-447" d="M.085,5.474C1.187,2.416,10.117-1.119,12.878.339c2.883,1.515,1.544,12.057-2.3,13.459C6.894,15.14-.9,8.206.085,5.474" transform="translate(119.02 142.762) rotate(45)" fill="#ff6090" fill-rule="evenodd"/>
        <path id="Fill-449" d="M.174,23.75c1.235,12.487,8.683,22.111,16.635,21.5s13.4-11.236,12.165-23.722S20.294-.584,12.342.028-1.059,11.263.174,23.75" transform="translate(98.799 61.098) rotate(45)" fill="#08de6f" fill-rule="evenodd"/>
        <path id="Fill-451" d="M12.77,36.045c6.161-.573,10.484-9.1,9.652-19.042S15.92-.54,9.757.03-.729,9.129.1,19.076,6.608,36.619,12.77,36.045" transform="translate(97.317 68.581) rotate(45)" fill="#fff" fill-rule="evenodd"/>
        <path id="Fill-453" d="M21.775,12.591c2.267,8.376-.595,16.436-6.394,18.006S3.045,26.648.777,18.276,1.372,1.837,7.171.266s12.337,3.949,14.6,12.325" transform="translate(96.81 72.489) rotate(45)" fill="#41250b" fill-rule="evenodd"/>
        <path id="Fill-455" d="M8.936,3.36A4.547,4.547,0,1,1,3.36.159a4.547,4.547,0,0,1,5.577,3.2" transform="translate(94.96 76.909) rotate(45)" fill="#fff" fill-rule="evenodd"/>
        <path id="Fill-457" d="M5.276,1.983A2.685,2.685,0,1,1,1.985.094,2.683,2.683,0,0,1,5.276,1.983" transform="translate(91.019 94.576) rotate(45)" fill="#fff" fill-rule="evenodd"/>
        <path id="Fill-459" d="M29.079,15.292c5.231,11.4,3.658,23.469-3.52,26.952S8.321,39.3,3.087,27.9-.568,4.427,6.61.946,23.847,3.889,29.079,15.292" transform="translate(193.709 116.282) rotate(45)" fill="#08de6f" fill-rule="evenodd"/>
        <path id="Fill-461" d="M20.579,33.294c-5.61,2.616-13.643-2.568-17.94-11.574S-.6,3.291,5.014.678s13.643,2.568,17.94,11.574,3.234,18.43-2.375,21.043" transform="translate(191.438 123.301) rotate(45)" fill="#fff" fill-rule="evenodd"/>
        <path id="Fill-463" d="M.777,18.273c2.267,8.375,8.8,13.892,14.6,12.324s8.661-9.634,6.394-18.006S12.97-1.3,7.171.267-1.49,9.9.777,18.273" transform="translate(188.94 125.374) rotate(45)" fill="#41250b" fill-rule="evenodd"/>
        <path id="Fill-465" d="M.16,5.735A4.547,4.547,0,1,0,3.361.159,4.549,4.549,0,0,0,.16,5.735" transform="translate(192.386 132.83) rotate(45)" fill="#fff" fill-rule="evenodd"/>
        <path id="Fill-467" d="M.094,3.386A2.685,2.685,0,1,0,1.983.094,2.682,2.682,0,0,0,.094,3.386" transform="translate(181.394 146.445) rotate(45)" fill="#fff" fill-rule="evenodd"/>
      </g>
    </g>
  </g>
</svg>
