<svg id="app-store" xmlns="http://www.w3.org/2000/svg" width="138.65" height="36.665" viewBox="0 0 138.65 36.665">
  <g id="app-store-2" data-name="app-store">
    <g id="_x21_-design-to-developers-_x28_Desktop_x29__1_">
      <g id="splash-screen_1_">
        <path id="appStoreBadge" d="M970.032,752.337c3.192,0,5.283,2.531,5.283,6.384s-2.091,6.384-5.283,6.384a4.192,4.192,0,0,1-3.962-2.2h-.11v6.164h-2.531v-16.62h2.531v2.091h0A4.471,4.471,0,0,1,970.032,752.337Zm13.428,0c3.192,0,5.283,2.531,5.283,6.384s-2.091,6.384-5.283,6.384a4.192,4.192,0,0,1-3.962-2.2h-.11v6.164h-2.531v-16.62h2.531v2.091h0A4.471,4.471,0,0,1,983.459,752.337ZM955.833,747.6l6.054,17.28h-2.752l-1.541-4.623h-6.384l-1.541,4.623h-2.752l6.054-17.28Zm67.689,4.182c3.632,0,5.943,2.531,5.943,6.6s-2.311,6.6-5.943,6.6-5.943-2.531-5.943-6.6S1019.891,751.787,1023.523,751.787Zm13.208.55a2.424,2.424,0,0,1,.881.11v2.421a1.9,1.9,0,0,0-1.1-.11,2.563,2.563,0,0,0-2.642,2.421v7.815h-2.531V752.558h2.311v2.091h.11A3.013,3.013,0,0,1,1036.73,752.337Zm-34.78-5.283c3.522,0,5.943,2.091,6.054,5.063h-2.531c-.11-1.761-1.541-2.752-3.522-2.752s-3.412,1.1-3.412,2.531c0,1.211.881,1.981,3.082,2.531l1.871.44c3.412.88,4.843,2.311,4.843,4.733,0,3.192-2.531,5.283-6.494,5.283-3.742,0-6.274-1.981-6.384-5.063h2.531c.22,1.761,1.761,2.862,3.962,2.862,2.091,0,3.632-1.1,3.632-2.642,0-1.321-.88-2.091-3.082-2.642l-2.2-.55c-3.082-.77-4.513-2.2-4.513-4.623C995.9,749.146,998.428,747.054,1001.95,747.054Zm41.934,4.733c3.412,0,5.613,2.421,5.613,6.274v.88h-8.805v.11a3.33,3.33,0,0,0,2.972,3.632h.44a2.892,2.892,0,0,0,2.862-1.761h2.421c-.33,2.311-2.531,3.962-5.393,3.962-3.632,0-5.833-2.531-5.833-6.494S1040.362,751.787,1043.884,751.787Zm-30.268-2.641v2.972h2.311v2.091h-2.311v6.934c0,1.1.44,1.541,1.541,1.541a2.424,2.424,0,0,0,.881-.11v2.091a6.278,6.278,0,0,1-1.431.11c-2.531,0-3.522-.991-3.522-3.412V754.1h-1.761v-2.091h1.761v-2.972h2.531Zm-44.246,5.393c-1.981,0-3.3,1.651-3.3,4.182s1.321,4.182,3.3,4.182,3.3-1.651,3.3-4.182S971.352,754.539,969.371,754.539Zm13.318,0c-1.981,0-3.3,1.651-3.3,4.182s1.321,4.182,3.3,4.182,3.3-1.651,3.3-4.182C986.1,756.19,984.78,754.539,982.689,754.539Zm40.834-.55c-2.091,0-3.3,1.651-3.3,4.4s1.211,4.4,3.3,4.4,3.3-1.651,3.3-4.4S1025.5,753.988,1023.523,753.988Zm-69.01-3.522h0l-2.531,7.594h5.063Zm89.372,3.412a3.194,3.194,0,0,0-3.192,3.192h6.164a2.991,2.991,0,0,0-2.862-3.192Zm-88.6-15.959v.771c0,2.642-1.431,4.182-3.742,4.182h-2.972v-8.365h2.862A3.742,3.742,0,0,1,955.283,737.919Zm65.378.55v4.4h-1.211V739.24c0-.991-.44-1.431-1.321-1.431a1.365,1.365,0,0,0-1.431,1.321v3.852h-1.211v-6.164h1.1v.991h.11a1.649,1.649,0,0,1,1.761-1.1A1.914,1.914,0,0,1,1020.661,738.469Zm-39.183-4.513v8.915h-.991v-8.915Zm58.994,2.641c1.761,0,2.752,1.1,2.752,3.082v.44h-4.4v.11a1.615,1.615,0,0,0,1.541,1.761h.11a1.331,1.331,0,0,0,1.431-.77h1.211a2.526,2.526,0,0,1-2.641,1.761,2.8,2.8,0,0,1-2.862-2.642v-.44a2.682,2.682,0,0,1,2.421-3.082C1040.252,736.6,1040.362,736.6,1040.473,736.6Zm-8.915-2.641v3.522h.11a1.783,1.783,0,0,1,1.871-1.1,2.064,2.064,0,0,1,2.091,1.981v4.623h-1.211V739.13c0-.991-.44-1.541-1.321-1.541a1.455,1.455,0,0,0-1.541,1.321v3.962h-1.211v-8.915h1.211ZM993.035,736.6c1.541,0,2.422.77,2.422,2.091v4.182h-1.211v-.88h-.11a2.162,2.162,0,0,1-1.871.991,1.775,1.775,0,0,1-1.981-1.651v-.22c0-1.1.77-1.761,2.311-1.761l1.651-.11v-.55c0-.66-.44-.991-1.211-.991a1.331,1.331,0,0,0-1.321.66H990.5C990.614,737.259,991.6,736.6,993.035,736.6Zm-28.286,0,1.1,4.843h.11l1.321-4.843h1.211l1.321,4.843h.11l1.1-4.843h1.211l-1.761,6.274h-1.321l-1.321-4.623h-.11l-1.321,4.623h-1.321l-1.761-6.274Zm13.648,1.871v4.4h-1.211V739.24c0-.991-.44-1.431-1.321-1.431a1.365,1.365,0,0,0-1.431,1.321v3.852h-1.211v-6.164h1.1v.991h.11a1.649,1.649,0,0,1,1.761-1.1A1.863,1.863,0,0,1,978.4,738.469Zm49.089-3.412V736.6h1.321v.991h-1.321v3.192c0,.66.22.991.88.991h.44v.991c-.22,0-.44.11-.66.11-1.431,0-1.981-.44-1.981-1.651V737.7h-.991v-.991h.991v-1.541h1.321Zm-24.324-1.1v8.805h-1.1v-.991h-.11a2.27,2.27,0,0,1-1.871,1.1c-1.541,0-2.531-1.321-2.531-3.3s.991-3.3,2.531-3.3a2.13,2.13,0,0,1,1.871,1.1h.11v-3.522h1.1Zm10.786,5.283v.55a2.82,2.82,0,0,1-5.613.55v-.55a2.837,2.837,0,0,1,2.531-3.082A2.693,2.693,0,0,1,1013.947,739.24Zm-51.51,0v.55a2.82,2.82,0,0,1-5.613.55v-.55a2.837,2.837,0,0,1,2.531-3.082A2.693,2.693,0,0,1,962.437,739.24Zm26.746,0v.55a2.82,2.82,0,0,1-5.613.55v-.55a2.837,2.837,0,0,1,2.531-3.082A2.693,2.693,0,0,1,989.183,739.24Zm5.063.77-1.541.11c-.88.11-1.211.33-1.211.88s.44.88,1.1.88a1.33,1.33,0,0,0,1.541-1.321h0v-.55Zm-7.814-2.311c-.991,0-1.651.77-1.651,2.091s.55,2.091,1.651,2.091c.991,0,1.651-.77,1.651-2.091C987.972,738.469,987.422,737.7,986.431,737.7Zm24.654,0c-.991,0-1.651.77-1.651,2.091s.55,2.091,1.651,2.091c.991,0,1.651-.77,1.651-2.091S1012.186,737.7,1011.085,737.7Zm-51.51,0c-.991,0-1.651.77-1.651,2.091s.55,2.091,1.651,2.091c.991,0,1.651-.77,1.651-2.091S960.676,737.7,959.575,737.7Zm40.724-.22c-.991,0-1.651.77-1.651,2.091s.66,2.2,1.651,2.2,1.651-.771,1.651-2.091S1001.29,737.479,1000.3,737.479Zm-48.979-1.761H949.78v6.054h1.541a2.49,2.49,0,0,0,2.642-2.421v-.55a2.611,2.611,0,0,0-2.2-2.972A.662.662,0,0,0,951.321,735.718Zm89.152,1.871a1.6,1.6,0,0,0-1.651,1.541h3.192a1.412,1.412,0,0,0-1.431-1.541Z" transform="translate(-910.847 -732.402)"/>
        <path id="appStoreBadge-2" data-name="appStoreBadge" d="M933.625,742.9H934a8.333,8.333,0,0,1,6.266,3.383,7.793,7.793,0,0,0,.877,13.659,17.68,17.68,0,0,1-2.381,4.887c-1.378,2.13-2.882,4.261-5.138,4.261s-3.008-1.378-5.639-1.378-3.384,1.253-5.514,1.378c-2.256.125-3.885-2.256-5.388-4.386-2.882-4.261-5.138-12.155-2.13-17.419a8.2,8.2,0,0,1,7.018-4.386c2.256,0,4.261,1.5,5.639,1.5,1.128,0,3.258-1.5,5.639-1.629Zm.376-8.4a7.578,7.578,0,0,1-1.754,5.388,6.745,6.745,0,0,1-5.263,2.381,6.593,6.593,0,0,1,1.88-5.138A8.191,8.191,0,0,1,934,734.507Z" transform="translate(-913.528 -734.507)"/>
      </g>
    </g>
  </g>
</svg>
