<svg xmlns="http://www.w3.org/2000/svg" width="14.372" height="20.28" viewBox="0 0 14.372 20.28">
  <g id="arrow-left" transform="translate(13.419 17.139) rotate(180)">
    <path id="Union_93" data-name="Union 93" d="M1.166,1.924a2.259,2.259,0,0,0,.577,3.39l3.762,3.2L.352,14.073C-.663,15.336.676,15.992,2.336,17.4s3.4,1.8,4.412.538l4.89-6.615a5.643,5.643,0,0,0,.941-1.117c.961-1.457,1.949-2.486.788-3.328L4.256.267A1.259,1.259,0,0,0,3.509,0C2.656,0,1.889,1,1.166,1.924Z" transform="translate(-0.953 -3.142)" opacity="0.3"/>
    <path id="Union_92" data-name="Union 92" d="M1.166,1.924a2.259,2.259,0,0,0,.577,3.39l3.762,3.2L.352,14.073C-.663,15.336.676,15.992,2.336,17.4s3.4,1.8,4.412.538l4.89-6.615a5.643,5.643,0,0,0,.941-1.117c.961-1.457,1.949-2.486.788-3.328L4.256.267A1.259,1.259,0,0,0,3.509,0C2.656,0,1.889,1,1.166,1.924Z" transform="translate(-0.473 -1.558)" fill="#fff"/>
    <path id="Union_91" data-name="Union 91" d="M.17.694c-.442.492.013,1.282.941,1.92L6,6.294.552,12.31c-.813.969-.151,1.15.565,1.747a1.644,1.644,0,0,0,2.467-.424L8.336,7.576A1.265,1.265,0,0,0,9.3,6.965c.42-.635.928-1.033,0-1.671L2.012.288A1.377,1.377,0,0,0,1.242,0C.783,0,.47.361.17.694Z" transform="translate(1.718 0.447)"/>
  </g>
</svg>
