<svg id="buy-btn" xmlns="http://www.w3.org/2000/svg" width="209.922" height="61.613" viewBox="0 0 209.922 61.613">
  <path id="Path_100453" data-name="Path 100453" d="M1.992,53.293c1.452,5.364,28.193,3.689,41.146,3.865,46.857.633,105.145,1.026,151.508-1.775,4.989-.3,9.3-.266,11.908-1.493,2.506-1.178,2.507-17.3,2.27-23.692s-1.335-24.938-1.335-24.938A4.8,4.8,0,0,0,204.2,2.381C202.491,1.98,192.537.99,164.51.526S139.609-.05,91,.018,11.029-.06,4.26,1.412C2.368,1.824-.285,3.38.025,11.882S.926,49.354,1.992,53.293Z" transform="translate(1 4)"/>
  <path id="Path_100449" data-name="Path 100449" d="M1.314,53.293c1.449,5.364,28.15,3.689,41.082,3.865,46.784.633,104.982,1.026,151.272-1.775,4.981-.3,9.283-.266,11.889-1.493,2.5-1.178,2.5-17.3,2.267-23.692s-1.333-24.938-1.333-24.938A4.8,4.8,0,0,0,203.2,2.381C201.5,1.98,192.912.99,164.929.526S138.717-.05,90.186.018,11.012-.06,4.253,1.412C2.364,1.824-.285,3.38.025,11.882S.249,49.354,1.314,53.293Z" transform="translate(0 0)" fill="#ffec00"/>
  <path id="Path_99970" data-name="Path 99970" d="M.778,45.062c1.394,4.644,1.98,4.778,14.422,4.929,45.008.548,128.085.621,172.618-1.8,4.792-.261,8.931-.23,11.438-1.292.772-2.245.857-15.043.629-20.58S198.927,3.7,198.927,3.7a4.424,4.424,0,0,0-3.163-2.492C194.126.861,184.531.594,157.61.192s-24.174-.059-70.863,0S10.517.435,4.015,1.71C2.2,2.066-.274,3.1.025,10.464S-.246,41.652.778,45.062Z" transform="translate(3.078 3.387)" fill="#fff"/>
</svg>
