<svg id="down-btn-bg" xmlns="http://www.w3.org/2000/svg" width="210" height="64" viewBox="0 0 210 64">
  <path id="Path_100453" data-name="Path 100453" d="M1.992,55.5c1.452,5.587,28.2,3.842,41.162,4.025,46.874.659,105.184,1.069,151.564-1.849,4.991-.314,9.3-.277,11.912-1.555,2.507-1.227,2.508-18.013,2.271-24.674s-1.335-25.971-1.335-25.971a4.9,4.9,0,0,0-3.294-3c-1.706-.417-11.664-1.448-39.7-1.931s-24.91-.6-73.534-.529-80-.082-86.775,1.451C2.369,1.9-.286,3.52.025,12.374S.926,51.4,1.992,55.5Z" transform="translate(1 4)" opacity="0.3"/>
  <path id="Path_100449" data-name="Path 100449" d="M1.314,55.5c1.45,5.587,28.16,3.842,41.1,4.025,46.8.659,105.021,1.069,151.329-1.849,4.983-.314,9.287-.277,11.894-1.555,2.5-1.227,2.5-18.013,2.268-24.674s-1.333-25.971-1.333-25.971a4.9,4.9,0,0,0-3.289-3c-1.7-.417-10.3-1.448-38.289-1.931s-26.221-.6-74.77-.529S11.016-.063,4.255,1.471c-1.89.429-4.54,2.05-4.23,10.9S.249,51.4,1.314,55.5Z" transform="translate(0 0)"/>
  <path id="Path_99970" data-name="Path 99970" d="M.778,47.2c1.395,4.865,1.981,5,14.427,5.163,45.025.574,128.135.651,172.686-1.89,4.794-.273,8.934-.241,11.443-1.354.772-2.351.857-15.757.629-21.557s-.958-23.688-.958-23.688a4.5,4.5,0,0,0-3.164-2.61C194.2.9,184.6.622,157.671.2S133.488.139,86.781.2,10.521.456,4.017,1.791C2.2,2.164-.274,3.25.025,10.96S-.246,43.628.778,47.2Z" transform="translate(3.078 3.387)" fill="#fff"/>
</svg>
