<svg id="ico-phone" xmlns="http://www.w3.org/2000/svg" width="44" height="44" viewBox="0 0 44 44">
  <rect id="Rectangle_5595" data-name="Rectangle 5595" width="44" height="44" fill="none"/>
  <g id="Group_54775" data-name="Group 54775" transform="translate(-1825 -314.008)">
    <g id="_ffffffff" data-name="#ffffffff" transform="translate(1830.73 320.123)" opacity="0.3">
      <path id="Path_105706" data-name="Path 105706" d="M147.792,140.843a1.6,1.6,0,0,1,.733-.523,3.617,3.617,0,0,1,.993.021,5.31,5.31,0,0,1,1.742,1.137c.282.282.6.525.872.818a30.051,30.051,0,0,1,2.6,3.4,21.166,21.166,0,0,1,1.159,1.884,1.754,1.754,0,0,1-.645,1.449,5.726,5.726,0,0,1-1.633,1.1c-.7.3-1.324.751-2.01,1.082a14.328,14.328,0,0,0-2.078,1.415,6.785,6.785,0,0,0,1.19,3.271,13.485,13.485,0,0,0,1.758,2.293,35.278,35.278,0,0,0,4.9,4.313c.738.619,1.568,1.114,2.344,1.683q1.911,1.3,3.889,2.492a1.668,1.668,0,0,0,.605.3c-.037-.56-.178-1.111-.166-1.675a3.618,3.618,0,0,1,.221-1.779,1.922,1.922,0,0,1,1.2-.881,10.393,10.393,0,0,1,2.495-.137c.7-.032,1.4.086,2.1.111a9.4,9.4,0,0,1,1.6.277,10.626,10.626,0,0,1,2.17.74,4.476,4.476,0,0,1,1.537,1.274,2.972,2.972,0,0,1,.236,2.373,11.373,11.373,0,0,1-.978,2.726,9.442,9.442,0,0,1-1.591,2.386,5.429,5.429,0,0,1-3.946,1.675,9.981,9.981,0,0,1-1.11-.032,24.531,24.531,0,0,1-4.31-1.44c-.946-.366-1.852-.819-2.784-1.214-1.588-.742-3.137-1.566-4.677-2.4a28.941,28.941,0,0,1-3.858-2.6c-.5-.473-1.069-.859-1.533-1.366-.495-.477-.946-1-1.419-1.492-1.2-1.466-2.4-2.948-3.458-4.522a16.513,16.513,0,0,1-2.5-5.243,7.746,7.746,0,0,1-.231-1.613,5.979,5.979,0,0,1,.132-1.847c.663-2.411,2.027-4.535,3.1-6.773.208-.45.449-.883.672-1.325A6.448,6.448,0,0,1,147.792,140.843Z" transform="translate(-143.197 -140.296)"/>
      <path id="Path_105706_-_Outline" data-name="Path 105706 - Outline" d="M149.007,140.3c-.161,0-.323.01-.482.024a1.6,1.6,0,0,0-.733.523,6.448,6.448,0,0,0-.684,1.347c-.224.442-.464.875-.672,1.325-1.07,2.238-2.434,4.361-3.1,6.773a5.979,5.979,0,0,0-.132,1.847,7.746,7.746,0,0,0,.231,1.613,16.513,16.513,0,0,0,2.5,5.243c1.062,1.574,2.253,3.056,3.458,4.522.473.5.924,1.015,1.419,1.492.465.507,1.038.893,1.533,1.366a28.941,28.941,0,0,0,3.858,2.6c1.54.838,3.089,1.662,4.677,2.4.932.395,1.838.848,2.784,1.214a24.531,24.531,0,0,0,4.31,1.44,7.265,7.265,0,0,0,.935.031h.174a5.428,5.428,0,0,0,3.946-1.675A9.442,9.442,0,0,0,174.624,170a11.373,11.373,0,0,0,.978-2.726,2.972,2.972,0,0,0-.236-2.373,4.476,4.476,0,0,0-1.537-1.274,10.626,10.626,0,0,0-2.17-.74,9.4,9.4,0,0,0-1.6-.277c-.7-.024-1.4-.143-2.1-.111-.405.016-.815-.007-1.223-.007a4.579,4.579,0,0,0-1.271.144,1.922,1.922,0,0,0-1.2.881,3.618,3.618,0,0,0-.221,1.779c-.011.564.129,1.115.166,1.675a1.668,1.668,0,0,1-.605-.3q-1.977-1.195-3.889-2.492c-.776-.57-1.606-1.064-2.344-1.683a35.278,35.278,0,0,1-4.9-4.313,13.485,13.485,0,0,1-1.758-2.293,6.785,6.785,0,0,1-1.19-3.271A14.328,14.328,0,0,1,151.6,151.2c.685-.332,1.309-.778,2.01-1.082a5.726,5.726,0,0,0,1.633-1.1,1.754,1.754,0,0,0,.645-1.449,21.166,21.166,0,0,0-1.159-1.884,30.051,30.051,0,0,0-2.6-3.4c-.271-.293-.59-.537-.872-.818a5.31,5.31,0,0,0-1.742-1.137,2.646,2.646,0,0,0-.51-.045m0-3a5.587,5.587,0,0,1,1.089.1l.295.058.277.115a8.262,8.262,0,0,1,2.716,1.789c.061.061.155.144.253.232.2.176.444.4.7.667l.049.053.125.149a31.682,31.682,0,0,1,2.761,3.635c.094.148.195.3.3.463a15.581,15.581,0,0,1,1.006,1.685l.2.414.071.457a4.634,4.634,0,0,1-1.511,4.053l-.033.032a8.689,8.689,0,0,1-2.493,1.669l-.01,0a8.637,8.637,0,0,0-.8.434c-.287.167-.608.354-.963.532l-.044.026q.109.2.242.4l.04.062.037.064a10.85,10.85,0,0,0,1.361,1.752,32.354,32.354,0,0,0,4.462,3.925l.081.059.077.065c.345.29.768.577,1.215.882.3.2.611.416.929.648l.28.189a4.894,4.894,0,0,1,2.931-2.168,7.507,7.507,0,0,1,2.085-.256c.181,0,.35,0,.513.007.14,0,.271.005.392.005.074,0,.138,0,.194,0,.122-.005.247-.008.374-.008.478,0,.916.038,1.3.071.237.021.46.04.653.047l.187.006.184.03c.1.016.232.032.37.048a8.258,8.258,0,0,1,1.637.322l.3.082a11.267,11.267,0,0,1,2.341.847,7.466,7.466,0,0,1,2.52,2.067l.051.063.048.066a5.926,5.926,0,0,1,.743,4.739l0,.021a14.383,14.383,0,0,1-1.233,3.447l-.011.022a12.166,12.166,0,0,1-2.126,3.123l-.036.036a8.342,8.342,0,0,1-6.13,2.528h-.381a7.852,7.852,0,0,1-1.027-.057l-.174-.023-.17-.043a27.808,27.808,0,0,1-4.749-1.585c-.614-.241-1.188-.5-1.744-.753-.362-.164-.7-.319-1.041-.462l-.1-.044c-1.681-.785-3.32-1.659-4.841-2.486l-.046-.026a32.081,32.081,0,0,1-4.257-2.869l-.1-.08-.093-.088c-.13-.124-.3-.269-.489-.421a11.709,11.709,0,0,1-1.117-1.015c-.366-.357-.692-.71-1.008-1.052-.153-.166-.3-.322-.441-.473l-.075-.079-.069-.084c-1.142-1.389-2.457-3.015-3.627-4.749l-.016-.024a19.345,19.345,0,0,1-2.919-6.213l-.024-.113c-.017-.088-.035-.176-.054-.265a8.7,8.7,0,0,1-.232-1.936c0-.088,0-.176,0-.265a7.455,7.455,0,0,1,.256-2.408,27.1,27.1,0,0,1,2.327-5.371c.333-.635.648-1.235.936-1.836.164-.353.33-.671.492-.98.077-.147.149-.286.217-.421l.01-.019c.02-.039.068-.155.1-.24a5.891,5.891,0,0,1,.971-1.686l.006-.007a4.525,4.525,0,0,1,2.164-1.444l.29-.085.3-.025C148.465,137.314,148.72,137.3,149.007,137.3Z" transform="translate(-143.197 -140.296)"/>
    </g>
    <g id="_ffffffff-2" data-name="#ffffffff" transform="translate(1830.73 317.123)">
      <path id="Path_105706-2" data-name="Path 105706" d="M147.792,140.843a1.6,1.6,0,0,1,.733-.523,3.617,3.617,0,0,1,.993.021,5.31,5.31,0,0,1,1.742,1.137c.282.282.6.525.872.818a30.051,30.051,0,0,1,2.6,3.4,21.166,21.166,0,0,1,1.159,1.884,1.754,1.754,0,0,1-.645,1.449,5.726,5.726,0,0,1-1.633,1.1c-.7.3-1.324.751-2.01,1.082a14.328,14.328,0,0,0-2.078,1.415,6.785,6.785,0,0,0,1.19,3.271,13.485,13.485,0,0,0,1.758,2.293,35.278,35.278,0,0,0,4.9,4.313c.738.619,1.568,1.114,2.344,1.683q1.911,1.3,3.889,2.492a1.668,1.668,0,0,0,.605.3c-.037-.56-.178-1.111-.166-1.675a3.618,3.618,0,0,1,.221-1.779,1.922,1.922,0,0,1,1.2-.881,10.393,10.393,0,0,1,2.495-.137c.7-.032,1.4.086,2.1.111a9.4,9.4,0,0,1,1.6.277,10.626,10.626,0,0,1,2.17.74,4.476,4.476,0,0,1,1.537,1.274,2.972,2.972,0,0,1,.236,2.373,11.373,11.373,0,0,1-.978,2.726,9.442,9.442,0,0,1-1.591,2.386,5.429,5.429,0,0,1-3.946,1.675,9.981,9.981,0,0,1-1.11-.032,24.531,24.531,0,0,1-4.31-1.44c-.946-.366-1.852-.819-2.784-1.214-1.588-.742-3.137-1.566-4.677-2.4a28.941,28.941,0,0,1-3.858-2.6c-.5-.473-1.069-.859-1.533-1.366-.495-.477-.946-1-1.419-1.492-1.2-1.466-2.4-2.948-3.458-4.522a16.513,16.513,0,0,1-2.5-5.243,7.746,7.746,0,0,1-.231-1.613,5.979,5.979,0,0,1,.132-1.847c.663-2.411,2.027-4.535,3.1-6.773.208-.45.449-.883.672-1.325A6.448,6.448,0,0,1,147.792,140.843Z" transform="translate(-143.197 -140.296)" fill="#08de6f"/>
      <path id="Path_105706_-_Outline-2" data-name="Path 105706 - Outline" d="M149.007,140.3c-.161,0-.323.01-.482.024a1.6,1.6,0,0,0-.733.523,6.448,6.448,0,0,0-.684,1.347c-.224.442-.464.875-.672,1.325-1.07,2.238-2.434,4.361-3.1,6.773a5.979,5.979,0,0,0-.132,1.847,7.746,7.746,0,0,0,.231,1.613,16.513,16.513,0,0,0,2.5,5.243c1.062,1.574,2.253,3.056,3.458,4.522.473.5.924,1.015,1.419,1.492.465.507,1.038.893,1.533,1.366a28.941,28.941,0,0,0,3.858,2.6c1.54.838,3.089,1.662,4.677,2.4.932.395,1.838.848,2.784,1.214a24.531,24.531,0,0,0,4.31,1.44,7.265,7.265,0,0,0,.935.031h.174a5.428,5.428,0,0,0,3.946-1.675A9.442,9.442,0,0,0,174.624,170a11.373,11.373,0,0,0,.978-2.726,2.972,2.972,0,0,0-.236-2.373,4.476,4.476,0,0,0-1.537-1.274,10.626,10.626,0,0,0-2.17-.74,9.4,9.4,0,0,0-1.6-.277c-.7-.024-1.4-.143-2.1-.111-.405.016-.815-.007-1.223-.007a4.579,4.579,0,0,0-1.271.144,1.922,1.922,0,0,0-1.2.881,3.618,3.618,0,0,0-.221,1.779c-.011.564.129,1.115.166,1.675a1.668,1.668,0,0,1-.605-.3q-1.977-1.195-3.889-2.492c-.776-.57-1.606-1.064-2.344-1.683a35.278,35.278,0,0,1-4.9-4.313,13.485,13.485,0,0,1-1.758-2.293,6.785,6.785,0,0,1-1.19-3.271A14.328,14.328,0,0,1,151.6,151.2c.685-.332,1.309-.778,2.01-1.082a5.726,5.726,0,0,0,1.633-1.1,1.754,1.754,0,0,0,.645-1.449,21.166,21.166,0,0,0-1.159-1.884,30.051,30.051,0,0,0-2.6-3.4c-.271-.293-.59-.537-.872-.818a5.31,5.31,0,0,0-1.742-1.137,2.646,2.646,0,0,0-.51-.045m0-3a5.587,5.587,0,0,1,1.089.1l.295.058.277.115a8.262,8.262,0,0,1,2.716,1.789c.061.061.155.144.253.232.2.176.444.4.7.667l.049.053.125.149a31.682,31.682,0,0,1,2.761,3.635c.094.148.195.3.3.463a15.581,15.581,0,0,1,1.006,1.685l.2.414.071.457a4.634,4.634,0,0,1-1.511,4.053l-.033.032a8.689,8.689,0,0,1-2.493,1.669l-.01,0a8.637,8.637,0,0,0-.8.434c-.287.167-.608.354-.963.532l-.044.026q.109.2.242.4l.04.062.037.064a10.85,10.85,0,0,0,1.361,1.752,32.354,32.354,0,0,0,4.462,3.925l.081.059.077.065c.345.29.768.577,1.215.882.3.2.611.416.929.648l.28.189a4.894,4.894,0,0,1,2.931-2.168,7.507,7.507,0,0,1,2.085-.256c.181,0,.35,0,.513.007.14,0,.271.005.392.005.074,0,.138,0,.194,0,.122-.005.247-.008.374-.008.478,0,.916.038,1.3.071.237.021.46.04.653.047l.187.006.184.03c.1.016.232.032.37.048a8.258,8.258,0,0,1,1.637.322l.3.082a11.267,11.267,0,0,1,2.341.847,7.466,7.466,0,0,1,2.52,2.067l.051.063.048.066a5.926,5.926,0,0,1,.743,4.739l0,.021a14.383,14.383,0,0,1-1.233,3.447l-.011.022a12.166,12.166,0,0,1-2.126,3.123l-.036.036a8.342,8.342,0,0,1-6.13,2.528h-.381a7.852,7.852,0,0,1-1.027-.057l-.174-.023-.17-.043a27.808,27.808,0,0,1-4.749-1.585c-.614-.241-1.188-.5-1.744-.753-.362-.164-.7-.319-1.041-.462l-.1-.044c-1.681-.785-3.32-1.659-4.841-2.486l-.046-.026a32.081,32.081,0,0,1-4.257-2.869l-.1-.08-.093-.088c-.13-.124-.3-.269-.489-.421a11.709,11.709,0,0,1-1.117-1.015c-.366-.357-.692-.71-1.008-1.052-.153-.166-.3-.322-.441-.473l-.075-.079-.069-.084c-1.142-1.389-2.457-3.015-3.627-4.749l-.016-.024a19.345,19.345,0,0,1-2.919-6.213l-.024-.113c-.017-.088-.035-.176-.054-.265a8.7,8.7,0,0,1-.232-1.936c0-.088,0-.176,0-.265a7.455,7.455,0,0,1,.256-2.408,27.1,27.1,0,0,1,2.327-5.371c.333-.635.648-1.235.936-1.836.164-.353.33-.671.492-.98.077-.147.149-.286.217-.421l.01-.019c.02-.039.068-.155.1-.24a5.891,5.891,0,0,1,.971-1.686l.006-.007a4.525,4.525,0,0,1,2.164-1.444l.29-.085.3-.025C148.465,137.314,148.72,137.3,149.007,137.3Z" transform="translate(-143.197 -140.296)" fill="#fff"/>
    </g>
  </g>
</svg>
