<svg id="ico-mail" xmlns="http://www.w3.org/2000/svg" width="44" height="44" viewBox="0 0 44 44">
  <rect id="Rectangle_5596" data-name="Rectangle 5596" width="44" height="44" fill="none"/>
  <rect id="Rectangle_179" data-name="Rectangle 179" width="24" height="24" transform="translate(11 9)" fill="none"/>
  <rect id="Rectangle_179-2" data-name="Rectangle 179" width="24" height="24" transform="translate(11 9)" fill="none"/>
  <g id="Group_65537" data-name="Group 65537" transform="translate(-2040.6 -313.479)">
    <path id="Union_199_-_Outline" data-name="Union 199 - Outline" d="M18282.525,22334.445a4.28,4.28,0,0,1-4.154-4.385,4.51,4.51,0,0,1,.857-2.654c-.076-1.016-.1-2.035-.125-3.055l-.064-2.3-.012-2.408.2-8.348-.01-.477c-.064-.064-.125-.135-.184-.2l-.58-.881a4.592,4.592,0,0,1-.34-3.037,4.269,4.269,0,0,1,1.408-2.346,4.161,4.161,0,0,1,.7-.984l.869-.912,1.926-.309a3.815,3.815,0,0,1,1.01.137l5.207-.279,2.506-.057,6.8.088,1.773-.016c1.529-.029,3.063-.146,4.6-.264l2.072-.148,6.088-.312a3.882,3.882,0,0,1,1.516-.311h1.3l.648-.725v1.221l1.119.971a4.523,4.523,0,0,1,1.01,2.586c.189,2.266.291,4.533.285,6.795,0,2-.047,4-.088,5.994l-.078,3.762c-.02.957-.041,1.912-.025,2.865.01.664.021,1.326.072,1.986l.061.855a4.473,4.473,0,0,1,.455,1.957,4.168,4.168,0,0,1-2.9,4.047,9.414,9.414,0,0,1-2.35.291l-2.25.119c-4.781.361-9.572.41-14.369.416-2.191,0-4.381.029-6.57.129l-3.469.129Z" transform="translate(-16236.074 -21981.875)" opacity="0.3"/>
    <g id="Group_65539" data-name="Group 65539" transform="translate(2043.888 319.111)">
      <path id="Union_198" data-name="Union 198" d="M.371,26.131a1.408,1.408,0,0,1,1-1.412,41.549,41.549,0,0,1-.281-4.807c-.021-.615-.043-1.227-.053-1.836-.018-.775-.023-1.547-.012-2.316.016-1.285.094-2.568.131-3.854.021-.656.055-1.309.061-1.959.006-.855.006-1.709.012-2.562.006-.658-.033-1.33-.051-1.99A.454.454,0,0,0,1.174,5.3L.861,5.146a1.116,1.116,0,0,1-.518-.355C.279,4.7.219,4.6.156,4.51A1.662,1.662,0,0,1,.041,3.432,1.383,1.383,0,0,1,.58,2.6a1.173,1.173,0,0,1,.5-.187V2.354a1.117,1.117,0,0,1,1-1.191.89.89,0,0,1,.6.24.987.987,0,0,1,.355-.094c.766-.059,1.518-.1,2.283-.146.637-.039,1.275-.074,1.908-.111.539-.033,1.072-.027,1.605-.039L10.8.963c.561-.016,1.119.01,1.682.016,1.094.012,2.188.057,3.283.063,1.215.01,2.436.016,3.652-.006C21.691.99,23.963.764,26.229.617c1.17-.072,2.344-.139,3.514-.2C30.264.385,30.781.363,31.3.342c.285-.012.564-.033.846-.033.078,0,.154-.006.23-.006a1.241,1.241,0,0,1,.145.006l.191.033a1.27,1.27,0,0,1,.154.012A1.072,1.072,0,0,1,33.641,0a1.057,1.057,0,0,1,.809.4,1.609,1.609,0,0,1,.34.963c.184,2.17.281,4.355.275,6.531,0,2.877-.092,5.754-.143,8.621-.023,1.354-.07,2.707-.049,4.055.01.725.025,1.445.082,2.166.023.309.055.615.066.918a3.781,3.781,0,0,1-.035.605,1.3,1.3,0,0,1,.33.418,1.485,1.485,0,0,1,.145.645,1.266,1.266,0,0,1-.781,1.221,9.436,9.436,0,0,1-2.066.191c-.645.027-1.287.061-1.932.109-4.713.357-9.43.4-14.154.408-2.232,0-4.465.031-6.7.131-1.127.045-2.254.109-3.383.127-1.621.027-3.244.061-4.865.061A1.353,1.353,0,0,1,.371,26.131ZM31.717,5.092l-.029.035.965-1.021c0-.025,0-.053,0-.08C32.338,4.377,32.029,4.734,31.717,5.092Z" transform="translate(0 0)" fill="#ffec00" stroke="#fff" stroke-width="6"/>
      <g id="Group_65538" data-name="Group 65538" transform="translate(0.001)">
        <path id="Path_105787" data-name="Path 105787" d="M2077.806,322.025s1.177,22.076,0,22.076-31.494,1.274-31.494,1.274l-.687-22.369,19.917,11.969Z" transform="translate(-2043.959 -319.179)" fill="#ff6090"/>
        <path id="Path_105788" data-name="Path 105788" d="M2046.208,321.426h31.3l-12.264,12.95L2045.325,322.8Z" transform="translate(-2043.953 -319.168)" fill="#ffd1df"/>
        <path id="Path_105786" data-name="Path 105786" d="M583.8,141.2c2.233-.095,4.465-.128,6.7-.131,4.72-.007,9.439-.048,14.151-.406.644-.049,1.289-.081,1.934-.112a9.215,9.215,0,0,0,2.064-.191,1.26,1.26,0,0,0,.784-1.223,1.452,1.452,0,0,0-.146-.641,1.332,1.332,0,0,0-.329-.421,3.805,3.805,0,0,0,.032-.6c-.01-.307-.041-.614-.066-.919-.057-.721-.073-1.443-.084-2.167-.021-1.351.03-2.7.052-4.052.048-2.874.137-5.748.144-8.622.006-2.18-.1-4.364-.279-6.532a1.611,1.611,0,0,0-.337-.967,1.07,1.07,0,0,0-.813-.4,1.059,1.059,0,0,0-.765.354,1,1,0,0,0-.154-.013l-.2-.03a1,1,0,0,0-.144-.009c-.075,0-.151.005-.225.005-.283,0-.566.022-.849.034-.522.023-1.043.047-1.565.075q-1.755.093-3.509.2c-2.27.145-4.537.372-6.81.414-1.217.022-2.434.017-3.653.01-1.094-.007-2.188-.051-3.282-.063-.56-.006-1.123-.031-1.683-.017l-1.979.049c-.534.013-1.07.008-1.6.04-.638.038-1.275.073-1.913.11-.76.044-1.519.089-2.278.15a1.05,1.05,0,0,0-.361.089.868.868,0,0,0-.592-.239,1.114,1.114,0,0,0-1,1.191c0,.018,0,.036,0,.054a1.159,1.159,0,0,0-.5.19,1.4,1.4,0,0,0-.54.835,1.642,1.642,0,0,0,.118,1.075l.184.282a1.139,1.139,0,0,0,.518.359l.316.154c0,.03,0,.06,0,.09.018.664.054,1.332.051,2q-.008,1.278-.014,2.557c0,.653-.036,1.308-.056,1.961-.041,1.284-.118,2.567-.134,3.853-.009.773-.006,1.541.009,2.315.012.613.038,1.224.054,1.837a42.2,42.2,0,0,0,.284,4.808,1.406,1.406,0,0,0-1,1.414,1.351,1.351,0,0,0,1.209,1.438c1.623,0,3.246-.029,4.87-.057C581.546,141.311,582.673,141.247,583.8,141.2Zm17.955-3.226c-2.328.054-4.657.1-6.986.133s-4.677.007-7.014.067q-1.891.049-3.782.13c-1.042.045-2.085.12-3.127.139-.962.018-1.924.037-2.886.051.27-.388.545-.772.828-1.148.471-.624.964-1.225,1.461-1.82l.979-1.175c.214-.256.434-.508.642-.771q.945-1.2,1.888-2.4c.523-.662,1.012-1.361,1.511-2.048l1.134-1.562c.437-.6.86-1.218,1.287-1.831q.042-.06.076-.12a33.606,33.606,0,0,1,3.03,2c.5.386.993.777,1.479,1.184q.365.305.731.61a3.959,3.959,0,0,0,.827.535,1.321,1.321,0,0,0,.376,1.568.862.862,0,0,0,.766.12,1.1,1.1,0,0,0,.593-.543l.033-.056c.385-.525.819-1.009,1.23-1.5.3-.358.6-.709.9-1.062a22.165,22.165,0,0,0,1.112,1.954l.877,1.343a20.724,20.724,0,0,0,2.247,2.741c.625.671,1.275,1.314,1.912,1.97.316.326.626.663.936,1,.115.124.231.247.348.37h-.023C604.013,137.891,602.884,137.946,601.755,137.973Zm3.933-19.063q.464-.537.931-1.07c.079,1.916.076,3.837,0,5.751q-.173,4.207-.408,8.407c-.061,1.081-.143,2.168-.154,3.251,0,.033,0,.066,0,.1l-.076-.072c-.5-.48-1-.955-1.5-1.439-.818-.8-1.638-1.588-2.39-2.476a17.27,17.27,0,0,1-1.15-1.516l-.6-.889q-.354-.611-.71-1.22c-.112-.192-.208-.4-.31-.6l-.173-.335q.5-.584.986-1.17c.733-.877,1.45-1.773,2.171-2.663.735-.908,1.476-1.808,2.214-2.711C604.9,119.8,605.3,119.359,605.688,118.91Zm-24.51-1.759c.5-.027,1.009-.015,1.512-.023l2.056-.029c.535-.008,1.073.031,1.608.047.478.015.957.029,1.435.051q1.962.088,3.924.144c2.235.064,4.466-.044,6.7-.171,2.142-.121,4.287-.214,6.431-.255-1.249,1.425-2.458,2.9-3.67,4.368-.625.758-1.239,1.53-1.876,2.274-.8.933-1.6,1.862-2.409,2.777-.445.5-.893,1-1.339,1.5l-.134.148a4.29,4.29,0,0,0-1.524-1.571c-.488-.379-.975-.756-1.474-1.116-.552-.4-1.115-.768-1.682-1.138-.526-.344-1.074-.642-1.612-.959-.468-.274-.946-.522-1.421-.778s-.936-.512-1.408-.755l-3.73-1.923c-1.005-.519-2.027-1-3.039-1.5q-.919-.451-1.839-.9C578.846,117.267,580.013,117.213,581.178,117.151Zm.195,5.021,3.548,1.862c.4.208.785.429,1.177.647q.2.114.41.224c-.319.46-.637.921-.965,1.372l-.921,1.267-1.076,1.48c-.155.214-.3.436-.467.641l-1.837,2.323c-.494.624-1.006,1.225-1.515,1.832q-.373.444-.744.891c-.321.388-.652.768-.962,1.169q-.22.284-.439.567c-.12-1.385-.2-2.775-.289-4.164-.088-1.351-.122-2.7-.118-4.056.007-2.678.092-5.352.014-8.03,0-.03,0-.059,0-.089Q579.281,121.135,581.372,122.172Z" transform="translate(-573.968 -113.816)"/>
      </g>
    </g>
  </g>
</svg>
