<svg xmlns="http://www.w3.org/2000/svg" xmlns:xlink="http://www.w3.org/1999/xlink" width="1920" height="170" viewBox="0 0 1920 170">
  <defs>
    <clipPath id="clip-path">
      <rect id="Rectangle_6698" data-name="Rectangle 6698" width="1920" height="170" fill="#fff" stroke="#707070" stroke-width="1"/>
    </clipPath>
  </defs>
  <g id="in-header-bg-border" clip-path="url(#clip-path)">
    <g id="Path_105718" data-name="Path 105718" transform="translate(-490.292 -550)" fill="#fff" stroke-dasharray="10 10">
      <path d="M2410.292,550h-1920V693.121s-51.617-44.387,163.933-42.312,231.467,42.177,388.267,50.611,515.867-34.453,728.133-32.813,303.983,35.723,430.933,39.372,208.733-39.372,208.733-39.372Z" stroke="none"/>
      <path d="M 490.291748046875 539.9999389648438 L 500.291748046875 539.9999389648438 L 500.291748046875 549.9999389648438 C 500.291748046875 549.9999389648438 490.291748046875 549.9999389648438 490.291748046875 549.9999389648438 L 490.291748046875 539.9999389648438 Z M 510.291748046875 539.9999389648438 L 520.291748046875 539.9999389648438 L 520.291748046875 549.9999389648438 C 520.291748046875 549.9999389648438 510.291748046875 549.9999389648438 510.291748046875 549.9999389648438 L 510.291748046875 539.9999389648438 Z M 530.291748046875 539.9999389648438 L 540.291748046875 539.9999389648438 L 540.291748046875 549.9999389648438 C 540.291748046875 549.9999389648438 530.291748046875 549.9999389648438 530.291748046875 549.9999389648438 L 530.291748046875 539.9999389648438 Z M 550.291748046875 539.9999389648438 L 560.291748046875 539.9999389648438 L 560.291748046875 549.9999389648438 C 560.291748046875 549.9999389648438 550.291748046875 549.9999389648438 550.291748046875 549.9999389648438 L 550.291748046875 539.9999389648438 Z M 570.291748046875 539.9999389648438 L 580.291748046875 539.9999389648438 L 580.291748046875 549.9999389648438 C 580.291748046875 549.9999389648438 570.291748046875 549.9999389648438 570.291748046875 549.9999389648438 L 570.291748046875 539.9999389648438 Z M 590.291748046875 539.9999389648438 L 600.291748046875 539.9999389648438 L 600.291748046875 549.9999389648438 C 600.291748046875 549.9999389648438 590.291748046875 549.9999389648438 590.291748046875 549.9999389648438 L 590.291748046875 539.9999389648438 Z M 610.291748046875 539.9999389648438 L 620.291748046875 539.9999389648438 L 620.291748046875 549.9999389648438 C 620.291748046875 549.9999389648438 610.291748046875 549.9999389648438 610.291748046875 549.9999389648438 L 610.291748046875 539.9999389648438 Z M 630.291748046875 539.9999389648438 L 640.291748046875 539.9999389648438 L 640.291748046875 549.9999389648438 C 640.291748046875 549.9999389648438 630.291748046875 549.9999389648438 630.291748046875 549.9999389648438 L 630.291748046875 539.9999389648438 Z M 650.291748046875 539.9999389648438 L 660.291748046875 539.9999389648438 L 660.291748046875 549.9999389648438 C 660.291748046875 549.9999389648438 650.291748046875 549.9999389648438 650.291748046875 549.9999389648438 L 650.291748046875 539.9999389648438 Z M 670.291748046875 539.9999389648438 L 680.291748046875 539.9999389648438 L 680.291748046875 549.9999389648438 C 680.291748046875 549.9999389648438 670.291748046875 549.9999389648438 670.291748046875 549.9999389648438 L 670.291748046875 539.9999389648438 Z M 690.291748046875 539.9999389648438 L 700.291748046875 539.9999389648438 L 700.291748046875 549.9999389648438 C 700.291748046875 549.9999389648438 690.291748046875 549.9999389648438 690.291748046875 549.9999389648438 L 690.291748046875 539.9999389648438 Z M 710.291748046875 539.9999389648438 L 720.291748046875 539.9999389648438 L 720.291748046875 549.9999389648438 C 720.291748046875 549.9999389648438 710.291748046875 549.9999389648438 710.291748046875 549.9999389648438 L 710.291748046875 539.9999389648438 Z M 730.291748046875 539.9999389648438 L 740.291748046875 539.9999389648438 L 740.291748046875 549.9999389648438 C 740.291748046875 549.9999389648438 730.291748046875 549.9999389648438 730.291748046875 549.9999389648438 L 730.291748046875 539.9999389648438 Z M 750.291748046875 539.9999389648438 L 760.291748046875 539.9999389648438 L 760.291748046875 549.9999389648438 C 760.291748046875 549.9999389648438 750.291748046875 549.9999389648438 750.291748046875 549.9999389648438 L 750.291748046875 539.9999389648438 Z M 770.291748046875 539.9999389648438 L 780.291748046875 539.9999389648438 L 780.291748046875 549.9999389648438 C 780.291748046875 549.9999389648438 770.291748046875 549.9999389648438 770.291748046875 549.9999389648438 L 770.291748046875 539.9999389648438 Z M 790.291748046875 539.9999389648438 L 800.291748046875 539.9999389648438 L 800.291748046875 549.9999389648438 C 800.291748046875 549.9999389648438 790.291748046875 549.9999389648438 790.291748046875 549.9999389648438 L 790.291748046875 539.9999389648438 Z M 810.2916259765625 539.9999389648438 L 820.2916259765625 539.9999389648438 L 820.2916259765625 549.9999389648438 C 820.2916259765625 549.9999389648438 810.2916259765625 549.9999389648438 810.2916259765625 549.9999389648438 L 810.2916259765625 539.9999389648438 Z M 830.2916259765625 539.9999389648438 L 840.2916259765625 539.9999389648438 L 840.2916259765625 549.9999389648438 C 840.2916259765625 549.9999389648438 830.2916259765625 549.9999389648438 830.2916259765625 549.9999389648438 L 830.2916259765625 539.9999389648438 Z M 850.2916259765625 539.9999389648438 L 860.2916259765625 539.9999389648438 L 860.2916259765625 549.9999389648438 C 860.2916259765625 549.9999389648438 850.2916259765625 549.9999389648438 850.2916259765625 549.9999389648438 L 850.2916259765625 539.9999389648438 Z M 870.2916259765625 539.9999389648438 L 880.2916259765625 539.9999389648438 L 880.2916259765625 549.9999389648438 C 880.2916259765625 549.9999389648438 870.2916259765625 549.9999389648438 870.2916259765625 549.9999389648438 L 870.2916259765625 539.9999389648438 Z M 890.2916259765625 539.9999389648438 L 900.2916259765625 539.9999389648438 L 900.2916259765625 549.9999389648438 C 900.2916259765625 549.9999389648438 890.2916259765625 549.9999389648438 890.2916259765625 549.9999389648438 L 890.2916259765625 539.9999389648438 Z M 910.2916259765625 539.9999389648438 L 920.2916259765625 539.9999389648438 L 920.2916259765625 549.9999389648438 C 920.2916259765625 549.9999389648438 910.2916259765625 549.9999389648438 910.2916259765625 549.9999389648438 L 910.2916259765625 539.9999389648438 Z M 930.2916259765625 539.9999389648438 L 940.2916259765625 539.9999389648438 L 940.2916259765625 549.9999389648438 C 940.2916259765625 549.9999389648438 930.2916259765625 549.9999389648438 930.2916259765625 549.9999389648438 L 930.2916259765625 539.9999389648438 Z M 950.2916259765625 539.9999389648438 L 960.2916259765625 539.9999389648438 L 960.2916259765625 549.9999389648438 C 960.2916259765625 549.9999389648438 950.2916259765625 549.9999389648438 950.2916259765625 549.9999389648438 L 950.2916259765625 539.9999389648438 Z M 970.2916259765625 539.9999389648438 L 980.2916259765625 539.9999389648438 L 980.2916259765625 549.9999389648438 C 980.2916259765625 549.9999389648438 970.2916259765625 549.9999389648438 970.2916259765625 549.9999389648438 L 970.2916259765625 539.9999389648438 Z M 990.2916259765625 539.9999389648438 L 1000.291625976562 539.9999389648438 L 1000.291625976562 549.9999389648438 C 1000.291625976562 549.9999389648438 990.2916259765625 549.9999389648438 990.2916259765625 549.9999389648438 L 990.2916259765625 539.9999389648438 Z M 1010.291625976562 539.9999389648438 L 1020.291625976562 539.9999389648438 L 1020.291625976562 549.9999389648438 C 1020.291625976562 549.9999389648438 1010.291625976562 549.9999389648438 1010.291625976562 549.9999389648438 L 1010.291625976562 539.9999389648438 Z M 1030.291625976562 539.9999389648438 L 1040.291625976562 539.9999389648438 L 1040.291625976562 549.9999389648438 C 1040.291625976562 549.9999389648438 1030.291625976562 549.9999389648438 1030.291625976562 549.9999389648438 L 1030.291625976562 539.9999389648438 Z M 1050.291625976562 539.9999389648438 L 1060.291625976562 539.9999389648438 L 1060.291625976562 549.9999389648438 C 1060.291625976562 549.9999389648438 1050.291625976562 549.9999389648438 1050.291625976562 549.9999389648438 L 1050.291625976562 539.9999389648438 Z M 1070.291625976562 539.9999389648438 L 1080.291625976562 539.9999389648438 L 1080.291625976562 549.9999389648438 C 1080.291625976562 549.9999389648438 1070.291625976562 549.9999389648438 1070.291625976562 549.9999389648438 L 1070.291625976562 539.9999389648438 Z M 1090.291625976562 539.9999389648438 L 1100.291625976562 539.9999389648438 L 1100.291625976562 549.9999389648438 C 1100.291625976562 549.9999389648438 1090.291625976562 549.9999389648438 1090.291625976562 549.9999389648438 L 1090.291625976562 539.9999389648438 Z M 1110.291625976562 539.9999389648438 L 1120.291625976562 539.9999389648438 L 1120.291625976562 549.9999389648438 C 1120.291625976562 549.9999389648438 1110.291625976562 549.9999389648438 1110.291625976562 549.9999389648438 L 1110.291625976562 539.9999389648438 Z M 1130.291625976562 539.9999389648438 L 1140.291625976562 539.9999389648438 L 1140.291625976562 549.9999389648438 C 1140.291625976562 549.9999389648438 1130.291625976562 549.9999389648438 1130.291625976562 549.9999389648438 L 1130.291625976562 539.9999389648438 Z M 1150.291625976562 539.9999389648438 L 1160.291625976562 539.9999389648438 L 1160.291625976562 549.9999389648438 C 1160.291625976562 549.9999389648438 1150.291625976562 549.9999389648438 1150.291625976562 549.9999389648438 L 1150.291625976562 539.9999389648438 Z M 1170.291625976562 539.9999389648438 L 1180.291625976562 539.9999389648438 L 1180.291625976562 549.9999389648438 C 1180.291625976562 549.9999389648438 1170.291625976562 549.9999389648438 1170.291625976562 549.9999389648438 L 1170.291625976562 539.9999389648438 Z M 1190.291625976562 539.9999389648438 L 1200.291625976562 539.9999389648438 L 1200.291625976562 549.9999389648438 C 1200.291625976562 549.9999389648438 1190.291625976562 549.9999389648438 1190.291625976562 549.9999389648438 L 1190.291625976562 539.9999389648438 Z M 1210.291625976562 539.9999389648438 L 1220.291625976562 539.9999389648438 L 1220.291625976562 549.9999389648438 C 1220.291625976562 549.9999389648438 1210.291625976562 549.9999389648438 1210.291625976562 549.9999389648438 L 1210.291625976562 539.9999389648438 Z M 1230.291625976562 539.9999389648438 L 1240.291625976562 539.9999389648438 L 1240.291625976562 549.9999389648438 C 1240.291625976562 549.9999389648438 1230.291625976562 549.9999389648438 1230.291625976562 549.9999389648438 L 1230.291625976562 539.9999389648438 Z M 1250.291625976562 539.9999389648438 L 1260.291625976562 539.9999389648438 L 1260.291625976562 549.9999389648438 C 1260.291625976562 549.9999389648438 1250.291625976562 549.9999389648438 1250.291625976562 549.9999389648438 L 1250.291625976562 539.9999389648438 Z M 1270.291625976562 539.9999389648438 L 1280.291625976562 539.9999389648438 L 1280.291625976562 549.9999389648438 C 1280.291625976562 549.9999389648438 1270.291625976562 549.9999389648438 1270.291625976562 549.9999389648438 L 1270.291625976562 539.9999389648438 Z M 1290.291625976562 539.9999389648438 L 1300.291625976562 539.9999389648438 L 1300.291625976562 549.9999389648438 C 1300.291625976562 549.9999389648438 1290.291625976562 549.9999389648438 1290.291625976562 549.9999389648438 L 1290.291625976562 539.9999389648438 Z M 1310.291625976562 539.9999389648438 L 1320.291625976562 539.9999389648438 L 1320.291625976562 549.9999389648438 C 1320.291625976562 549.9999389648438 1310.291625976562 549.9999389648438 1310.291625976562 549.9999389648438 L 1310.291625976562 539.9999389648438 Z M 1330.291625976562 539.9999389648438 L 1340.291625976562 539.9999389648438 L 1340.291625976562 549.9999389648438 C 1340.291625976562 549.9999389648438 1330.291625976562 549.9999389648438 1330.291625976562 549.9999389648438 L 1330.291625976562 539.9999389648438 Z M 1350.291625976562 539.9999389648438 L 1360.291625976562 539.9999389648438 L 1360.291625976562 549.9999389648438 C 1360.291625976562 549.9999389648438 1350.291625976562 549.9999389648438 1350.291625976562 549.9999389648438 L 1350.291625976562 539.9999389648438 Z M 1370.291625976562 539.9999389648438 L 1380.291625976562 539.9999389648438 L 1380.291625976562 549.9999389648438 C 1380.291625976562 549.9999389648438 1370.291625976562 549.9999389648438 1370.291625976562 549.9999389648438 L 1370.291625976562 539.9999389648438 Z M 1390.291625976562 539.9999389648438 L 1400.291625976562 539.9999389648438 L 1400.291625976562 549.9999389648438 C 1400.291625976562 549.9999389648438 1390.291625976562 549.9999389648438 1390.291625976562 549.9999389648438 L 1390.291625976562 539.9999389648438 Z M 1410.291625976562 539.9999389648438 L 1420.291625976562 539.9999389648438 L 1420.291625976562 549.9999389648438 C 1420.291625976562 549.9999389648438 1410.291625976562 549.9999389648438 1410.291625976562 549.9999389648438 L 1410.291625976562 539.9999389648438 Z M 1430.291625976562 539.9999389648438 L 1440.291625976562 539.9999389648438 L 1440.291625976562 549.9999389648438 C 1440.291625976562 549.9999389648438 1430.291625976562 549.9999389648438 1430.291625976562 549.9999389648438 L 1430.291625976562 539.9999389648438 Z M 1450.291625976562 539.9999389648438 L 1460.291625976562 539.9999389648438 L 1460.291625976562 549.9999389648438 C 1460.291625976562 549.9999389648438 1450.291625976562 549.9999389648438 1450.291625976562 549.9999389648438 L 1450.291625976562 539.9999389648438 Z M 1470.291625976562 539.9999389648438 L 1480.291625976562 539.9999389648438 L 1480.291625976562 549.9999389648438 C 1480.291625976562 549.9999389648438 1470.291625976562 549.9999389648438 1470.291625976562 549.9999389648438 L 1470.291625976562 539.9999389648438 Z M 1490.291625976562 539.9999389648438 L 1500.291625976562 539.9999389648438 L 1500.291625976562 549.9999389648438 C 1500.291625976562 549.9999389648438 1490.291625976562 549.9999389648438 1490.291625976562 549.9999389648438 L 1490.291625976562 539.9999389648438 Z M 1510.291625976562 539.9999389648438 L 1520.291625976562 539.9999389648438 L 1520.291625976562 549.9999389648438 C 1520.291625976562 549.9999389648438 1510.291625976562 549.9999389648438 1510.291625976562 549.9999389648438 L 1510.291625976562 539.9999389648438 Z M 1530.291625976562 539.9999389648438 L 1540.291625976562 539.9999389648438 L 1540.291625976562 549.9999389648438 C 1540.291625976562 549.9999389648438 1530.291625976562 549.9999389648438 1530.291625976562 549.9999389648438 L 1530.291625976562 539.9999389648438 Z M 1550.291625976562 539.9999389648438 L 1560.291625976562 539.9999389648438 L 1560.291625976562 549.9999389648438 C 1560.291625976562 549.9999389648438 1550.291625976562 549.9999389648438 1550.291625976562 549.9999389648438 L 1550.291625976562 539.9999389648438 Z M 1570.291625976562 539.9999389648438 L 1580.291625976562 539.9999389648438 L 1580.291625976562 549.9999389648438 C 1580.291625976562 549.9999389648438 1570.291625976562 549.9999389648438 1570.291625976562 549.9999389648438 L 1570.291625976562 539.9999389648438 Z M 1590.291625976562 539.9999389648438 L 1600.291625976562 539.9999389648438 L 1600.291625976562 549.9999389648438 C 1600.291625976562 549.9999389648438 1590.291625976562 549.9999389648438 1590.291625976562 549.9999389648438 L 1590.291625976562 539.9999389648438 Z M 1610.291625976562 539.9999389648438 L 1620.291625976562 539.9999389648438 L 1620.291625976562 549.9999389648438 C 1620.291625976562 549.9999389648438 1610.291625976562 549.9999389648438 1610.291625976562 549.9999389648438 L 1610.291625976562 539.9999389648438 Z M 1630.291625976562 539.9999389648438 L 1640.291625976562 539.9999389648438 L 1640.291625976562 549.9999389648438 C 1640.291625976562 549.9999389648438 1630.291625976562 549.9999389648438 1630.291625976562 549.9999389648438 L 1630.291625976562 539.9999389648438 Z M 1650.291625976562 539.9999389648438 L 1660.291625976562 539.9999389648438 L 1660.291625976562 549.9999389648438 C 1660.291625976562 549.9999389648438 1650.291625976562 549.9999389648438 1650.291625976562 549.9999389648438 L 1650.291625976562 539.9999389648438 Z M 1670.291625976562 539.9999389648438 L 1680.291625976562 539.9999389648438 L 1680.291625976562 549.9999389648438 C 1680.291625976562 549.9999389648438 1670.291625976562 549.9999389648438 1670.291625976562 549.9999389648438 L 1670.291625976562 539.9999389648438 Z M 1690.291625976562 539.9999389648438 L 1700.291625976562 539.9999389648438 L 1700.291625976562 549.9999389648438 C 1700.291625976562 549.9999389648438 1690.291625976562 549.9999389648438 1690.291625976562 549.9999389648438 L 1690.291625976562 539.9999389648438 Z M 1710.291625976562 539.9999389648438 L 1720.291625976562 539.9999389648438 L 1720.291625976562 549.9999389648438 C 1720.291625976562 549.9999389648438 1710.291625976562 549.9999389648438 1710.291625976562 549.9999389648438 L 1710.291625976562 539.9999389648438 Z M 1730.291625976562 539.9999389648438 L 1740.291625976562 539.9999389648438 L 1740.291625976562 549.9999389648438 C 1740.291625976562 549.9999389648438 1730.291625976562 549.9999389648438 1730.291625976562 549.9999389648438 L 1730.291625976562 539.9999389648438 Z M 1750.291625976562 539.9999389648438 L 1760.291625976562 539.9999389648438 L 1760.291625976562 549.9999389648438 C 1760.291625976562 549.9999389648438 1750.291625976562 549.9999389648438 1750.291625976562 549.9999389648438 L 1750.291625976562 539.9999389648438 Z M 1770.291625976562 539.9999389648438 L 1780.291625976562 539.9999389648438 L 1780.291625976562 549.9999389648438 C 1780.291625976562 549.9999389648438 1770.291625976562 549.9999389648438 1770.291625976562 549.9999389648438 L 1770.291625976562 539.9999389648438 Z M 1790.291625976562 539.9999389648438 L 1800.291625976562 539.9999389648438 L 1800.291625976562 549.9999389648438 C 1800.291625976562 549.9999389648438 1790.291625976562 549.9999389648438 1790.291625976562 549.9999389648438 L 1790.291625976562 539.9999389648438 Z M 1810.291625976562 539.9999389648438 L 1820.291625976562 539.9999389648438 L 1820.291625976562 549.9999389648438 C 1820.291625976562 549.9999389648438 1810.291625976562 549.9999389648438 1810.291625976562 549.9999389648438 L 1810.291625976562 539.9999389648438 Z M 1830.291625976562 539.9999389648438 L 1840.291625976562 539.9999389648438 L 1840.291625976562 549.9999389648438 C 1840.291625976562 549.9999389648438 1830.291625976562 549.9999389648438 1830.291625976562 549.9999389648438 L 1830.291625976562 539.9999389648438 Z M 1850.291625976562 539.9999389648438 L 1860.291625976562 539.9999389648438 L 1860.291625976562 549.9999389648438 C 1860.291625976562 549.9999389648438 1850.291625976562 549.9999389648438 1850.291625976562 549.9999389648438 L 1850.291625976562 539.9999389648438 Z M 1870.291625976562 539.9999389648438 L 1880.291625976562 539.9999389648438 L 1880.291625976562 549.9999389648438 C 1880.291625976562 549.9999389648438 1870.291625976562 549.9999389648438 1870.291625976562 549.9999389648438 L 1870.291625976562 539.9999389648438 Z M 1890.291625976562 539.9999389648438 L 1900.291625976562 539.9999389648438 L 1900.291625976562 549.9999389648438 C 1900.291625976562 549.9999389648438 1890.291625976562 549.9999389648438 1890.291625976562 549.9999389648438 L 1890.291625976562 539.9999389648438 Z M 1910.291625976562 539.9999389648438 L 1920.291625976562 539.9999389648438 L 1920.291625976562 549.9999389648438 C 1920.291625976562 549.9999389648438 1910.291625976562 549.9999389648438 1910.291625976562 549.9999389648438 L 1910.291625976562 539.9999389648438 Z M 1930.291625976562 539.9999389648438 L 1940.291625976562 539.9999389648438 L 1940.291625976562 549.9999389648438 C 1940.291625976562 549.9999389648438 1930.291625976562 549.9999389648438 1930.291625976562 549.9999389648438 L 1930.291625976562 539.9999389648438 Z M 1950.291625976562 539.9999389648438 L 1960.291625976562 539.9999389648438 L 1960.291625976562 549.9999389648438 C 1960.291625976562 549.9999389648438 1950.291625976562 549.9999389648438 1950.291625976562 549.9999389648438 L 1950.291625976562 539.9999389648438 Z M 1970.291625976562 539.9999389648438 L 1980.291625976562 539.9999389648438 L 1980.291625976562 549.9999389648438 C 1980.291625976562 549.9999389648438 1970.291625976562 549.9999389648438 1970.291625976562 549.9999389648438 L 1970.291625976562 539.9999389648438 Z M 1990.291625976562 539.9999389648438 L 2000.291625976562 539.9999389648438 L 2000.291625976562 549.9999389648438 C 2000.291625976562 549.9999389648438 1990.291625976562 549.9999389648438 1990.291625976562 549.9999389648438 L 1990.291625976562 539.9999389648438 Z M 2010.291625976562 539.9999389648438 L 2020.291625976562 539.9999389648438 L 2020.291625976562 549.9999389648438 C 2020.291625976562 549.9999389648438 2010.291625976562 549.9999389648438 2010.291625976562 549.9999389648438 L 2010.291625976562 539.9999389648438 Z M 2030.291625976562 539.9999389648438 L 2040.291625976562 539.9999389648438 L 2040.291625976562 549.9999389648438 C 2040.291625976562 549.9999389648438 2030.291625976562 549.9999389648438 2030.291625976562 549.9999389648438 L 2030.291625976562 539.9999389648438 Z M 2050.29150390625 539.9999389648438 L 2060.29150390625 539.9999389648438 L 2060.29150390625 549.9999389648438 C 2060.29150390625 549.9999389648438 2050.29150390625 549.9999389648438 2050.29150390625 549.9999389648438 L 2050.29150390625 539.9999389648438 Z M 2070.29150390625 539.9999389648438 L 2080.29150390625 539.9999389648438 L 2080.29150390625 549.9999389648438 C 2080.29150390625 549.9999389648438 2070.29150390625 549.9999389648438 2070.29150390625 549.9999389648438 L 2070.29150390625 539.9999389648438 Z M 2090.29150390625 539.9999389648438 L 2100.29150390625 539.9999389648438 L 2100.29150390625 549.9999389648438 C 2100.29150390625 549.9999389648438 2090.29150390625 549.9999389648438 2090.29150390625 549.9999389648438 L 2090.29150390625 539.9999389648438 Z M 2110.29150390625 539.9999389648438 L 2120.29150390625 539.9999389648438 L 2120.29150390625 549.9999389648438 C 2120.29150390625 549.9999389648438 2110.29150390625 549.9999389648438 2110.29150390625 549.9999389648438 L 2110.29150390625 539.9999389648438 Z M 2130.29150390625 539.9999389648438 L 2140.29150390625 539.9999389648438 L 2140.29150390625 549.9999389648438 C 2140.29150390625 549.9999389648438 2130.29150390625 549.9999389648438 2130.29150390625 549.9999389648438 L 2130.29150390625 539.9999389648438 Z M 2150.29150390625 539.9999389648438 L 2160.29150390625 539.9999389648438 L 2160.29150390625 549.9999389648438 C 2160.29150390625 549.9999389648438 2150.29150390625 549.9999389648438 2150.29150390625 549.9999389648438 L 2150.29150390625 539.9999389648438 Z M 2170.29150390625 539.9999389648438 L 2180.29150390625 539.9999389648438 L 2180.29150390625 549.9999389648438 C 2180.29150390625 549.9999389648438 2170.29150390625 549.9999389648438 2170.29150390625 549.9999389648438 L 2170.29150390625 539.9999389648438 Z M 2190.29150390625 539.9999389648438 L 2200.29150390625 539.9999389648438 L 2200.29150390625 549.9999389648438 C 2200.29150390625 549.9999389648438 2190.29150390625 549.9999389648438 2190.29150390625 549.9999389648438 L 2190.29150390625 539.9999389648438 Z M 2210.29150390625 539.9999389648438 L 2220.29150390625 539.9999389648438 L 2220.29150390625 549.9999389648438 C 2220.29150390625 549.9999389648438 2210.29150390625 549.9999389648438 2210.29150390625 549.9999389648438 L 2210.29150390625 539.9999389648438 Z M 2230.29150390625 539.9999389648438 L 2240.29150390625 539.9999389648438 L 2240.29150390625 549.9999389648438 C 2240.29150390625 549.9999389648438 2230.29150390625 549.9999389648438 2230.29150390625 549.9999389648438 L 2230.29150390625 539.9999389648438 Z M 2250.29150390625 539.9999389648438 L 2260.29150390625 539.9999389648438 L 2260.29150390625 549.9999389648438 C 2260.29150390625 549.9999389648438 2250.29150390625 549.9999389648438 2250.29150390625 549.9999389648438 L 2250.29150390625 539.9999389648438 Z M 2270.29150390625 539.9999389648438 L 2280.29150390625 539.9999389648438 L 2280.29150390625 549.9999389648438 C 2280.29150390625 549.9999389648438 2270.29150390625 549.9999389648438 2270.29150390625 549.9999389648438 L 2270.29150390625 539.9999389648438 Z M 2290.29150390625 539.9999389648438 L 2300.29150390625 539.9999389648438 L 2300.29150390625 549.9999389648438 C 2300.29150390625 549.9999389648438 2290.29150390625 549.9999389648438 2290.29150390625 549.9999389648438 L 2290.29150390625 539.9999389648438 Z M 2310.29150390625 539.9999389648438 L 2320.29150390625 539.9999389648438 L 2320.29150390625 549.9999389648438 C 2320.29150390625 549.9999389648438 2310.29150390625 549.9999389648438 2310.29150390625 549.9999389648438 L 2310.29150390625 539.9999389648438 Z M 2330.29150390625 539.9999389648438 L 2340.291748046875 539.9999389648438 L 2340.291748046875 549.9999389648438 C 2340.291748046875 549.9999389648438 2330.29150390625 549.9999389648438 2330.29150390625 549.9999389648438 L 2330.29150390625 539.9999389648438 Z M 2350.291748046875 539.9999389648438 L 2360.291748046875 539.9999389648438 L 2360.291748046875 549.9999389648438 C 2360.291748046875 549.9999389648438 2350.291748046875 549.9999389648438 2350.291748046875 549.9999389648438 L 2350.291748046875 539.9999389648438 Z M 2370.291748046875 539.9999389648438 L 2380.291748046875 539.9999389648438 L 2380.291748046875 549.9999389648438 C 2380.291748046875 549.9999389648438 2370.291748046875 549.9999389648438 2370.291748046875 549.9999389648438 L 2370.291748046875 539.9999389648438 Z M 2390.291748046875 539.9999389648438 L 2400.291748046875 539.9999389648438 L 2400.291748046875 549.9999389648438 C 2400.291748046875 549.9999389648438 2390.291748046875 549.9999389648438 2390.291748046875 549.9999389648438 L 2390.291748046875 539.9999389648438 Z M 2410.291748046875 549.9999389648438 L 2420.291748046875 549.9999389648438 L 2420.291748046875 559.9999389648438 L 2410.291748046875 559.9999389648438 L 2410.291748046875 549.9999389648438 C 2410.291748046875 549.9999389648438 2410.291748046875 549.9999389648438 2410.291748046875 549.9999389648438 Z M 2410.291748046875 569.9999389648438 L 2420.291748046875 569.9999389648438 L 2420.291748046875 579.9999389648438 L 2410.291748046875 579.9999389648438 L 2410.291748046875 569.9999389648438 Z M 2410.291748046875 589.9999389648438 L 2420.291748046875 589.9999389648438 L 2420.291748046875 599.9999389648438 L 2410.291748046875 599.9999389648438 L 2410.291748046875 589.9999389648438 Z M 2410.291748046875 609.9999389648438 L 2420.291748046875 609.9999389648438 L 2420.291748046875 619.9999389648438 L 2410.291748046875 619.9999389648438 L 2410.291748046875 609.9999389648438 Z M 2410.291748046875 629.9999389648438 L 2420.291748046875 629.9999389648438 L 2420.291748046875 639.9999389648438 L 2410.291748046875 639.9999389648438 L 2410.291748046875 629.9999389648438 Z M 2410.291748046875 649.9999389648438 L 2420.291748046875 649.9999389648438 L 2420.291748046875 659.9999389648438 L 2410.291748046875 659.9999389648438 L 2410.291748046875 649.9999389648438 Z M 2409.058349609375 669.23046875 L 2413.493896484375 678.1929321289062 C 2411.8388671875 679.011962890625 2408.6181640625 680.5574340820312 2403.9296875 682.5827026367188 L 2399.96435546875 673.4024658203125 C 2399.97607421875 673.3973999023438 2399.988037109375 673.3922729492188 2399.999755859375 673.38720703125 C 2400.00537109375 673.384765625 2400.007568359375 673.3837890625 2400.013427734375 673.3812866210938 C 2400.018798828125 673.3789672851562 2400.02392578125 673.376708984375 2400.029296875 673.3743896484375 C 2400.040771484375 673.3694458007812 2400.052001953125 673.3645629882812 2400.0634765625 673.359619140625 C 2400.068115234375 673.357666015625 2400.0732421875 673.3554077148438 2400.077880859375 673.3533935546875 C 2400.091064453125 673.3477172851562 2400.102783203125 673.3426513671875 2400.115966796875 673.3369140625 C 2400.119384765625 673.3353881835938 2400.123046875 673.3338623046875 2400.126708984375 673.3323364257812 C 2404.49609375 671.4415283203125 2407.504638671875 669.99951171875 2409.058349609375 669.23046875 Z M 2390.72216796875 677.2072143554688 L 2394.381103515625 686.5139770507812 C 2391.472412109375 687.657470703125 2388.26318359375 688.8734741210938 2384.76318359375 690.137451171875 L 2381.36669921875 680.73193359375 C 2381.7666015625 680.5875244140625 2382.162841796875 680.443603515625 2382.55517578125 680.3004760742188 C 2385.50244140625 679.2249145507812 2388.223876953125 678.1895751953125 2390.72216796875 677.2073364257812 Z M 2371.914794921875 684.0081787109375 L 2375.071044921875 693.4971923828125 C 2371.98828125 694.522705078125 2368.73681640625 695.564208984375 2365.3212890625 696.6109619140625 L 2362.3916015625 687.0496826171875 C 2363.170654296875 686.8109741210938 2363.94482421875 686.5714111328125 2364.706298828125 686.3333129882812 C 2364.709228515625 686.3323974609375 2364.7119140625 686.33154296875 2364.71484375 686.3306274414062 C 2364.76123046875 686.316162109375 2364.8076171875 686.3016357421875 2364.853515625 686.2872314453125 C 2364.8642578125 686.283935546875 2364.874267578125 686.28076171875 2364.884765625 686.2774658203125 C 2364.927001953125 686.2642211914062 2364.958984375 686.2542114257812 2365.001220703125 686.2410278320312 C 2365.008056640625 686.2388305664062 2365.015380859375 686.2365112304688 2365.0224609375 686.234375 C 2365.064453125 686.2211303710938 2365.10693359375 686.2078247070312 2365.149169921875 686.1946411132812 C 2365.162353515625 686.1904296875 2365.175537109375 686.1863403320312 2365.188720703125 686.1821899414062 C 2365.23095703125 686.1689453125 2365.27392578125 686.1554565429688 2365.31591796875 686.1422119140625 C 2365.321044921875 686.140625 2365.32568359375 686.1390991210938 2365.3310546875 686.1375122070312 C 2365.373046875 686.124267578125 2365.41748046875 686.1102905273438 2365.45947265625 686.0971069335938 C 2365.465576171875 686.0951538085938 2365.471435546875 686.0933227539062 2365.4775390625 686.0914306640625 C 2365.51953125 686.0781860351562 2365.565185546875 686.0637817382812 2365.607177734375 686.0505981445312 C 2365.6181640625 686.0471801757812 2365.62890625 686.043701171875 2365.639892578125 686.040283203125 C 2365.681640625 686.027099609375 2365.724609375 686.0136108398438 2365.766357421875 686.0003662109375 C 2365.77587890625 685.9974365234375 2365.785400390625 685.994384765625 2365.794677734375 685.991455078125 C 2365.832763671875 685.9794311523438 2365.8701171875 685.9676513671875 2365.908203125 685.9556274414062 C 2365.91748046875 685.95263671875 2365.926513671875 685.9498291015625 2365.93603515625 685.9468383789062 C 2365.977783203125 685.9336547851562 2366.017578125 685.9210205078125 2366.059326171875 685.9078369140625 C 2366.072265625 685.9037475585938 2366.08544921875 685.8995971679688 2366.098388671875 685.8955078125 C 2368.104248046875 685.2609252929688 2370.036376953125 684.6332397460938 2371.9150390625 684.00830078125 Z M 2352.797119140625 689.8701782226562 L 2355.50927734375 699.4954833984375 C 2352.336669921875 700.3894653320312 2349.047119140625 701.2794799804688 2345.643310546875 702.15869140625 L 2343.142578125 692.4764404296875 C 2345.24365234375 691.933837890625 2347.30029296875 691.3869018554688 2349.311767578125 690.83740234375 C 2349.324951171875 690.8338012695312 2349.342041015625 690.8291015625 2349.355224609375 690.8255004882812 C 2349.377685546875 690.8193359375 2349.39990234375 690.813232421875 2349.422607421875 690.8070678710938 C 2350.56396484375 690.4949951171875 2351.68505859375 690.1837158203125 2352.797119140625 689.8703002929688 Z M 2333.42822265625 694.8749389648438 L 2335.721923828125 704.6082153320312 C 2332.491943359375 705.3694458007812 2329.1728515625 706.116455078125 2325.76708984375 706.844482421875 L 2323.6767578125 697.0654296875 C 2325.866943359375 696.5972900390625 2328.015625 696.1221313476562 2330.1318359375 695.6392822265625 C 2330.1357421875 695.6383666992188 2330.14013671875 695.6373901367188 2330.14404296875 695.6365356445312 C 2330.18359375 695.62744140625 2330.2158203125 695.6201171875 2330.25537109375 695.6110229492188 C 2330.283203125 695.604736328125 2330.310546875 695.5984497070312 2330.33837890625 695.5921020507812 C 2330.33837890625 695.5921020507812 2330.3525390625 695.5888671875 2330.3525390625 695.5888671875 C 2331.386474609375 695.3524169921875 2332.412109375 695.1143798828125 2333.42822265625 694.8749389648438 Z M 2313.8701171875 699.0567016601562 L 2315.759765625 708.87646484375 C 2312.48681640625 709.5062255859375 2309.142822265625 710.115966796875 2305.72900390625 710.7014770507812 L 2304.0380859375 700.845458984375 C 2305.499755859375 700.5947875976562 2306.94287109375 700.340576171875 2308.378173828125 700.0811767578125 C 2308.386962890625 700.07958984375 2308.395751953125 700.0779418945312 2308.404541015625 700.0763549804688 C 2308.443359375 700.0693969726562 2308.4814453125 700.0625 2308.52001953125 700.0554809570312 C 2308.532958984375 700.0531616210938 2308.546142578125 700.05078125 2308.55908203125 700.0484008789062 C 2308.59228515625 700.0424194335938 2308.6142578125 700.0384521484375 2308.6474609375 700.0324096679688 C 2308.669921875 700.0283203125 2308.69287109375 700.024169921875 2308.71533203125 700.0200805664062 C 2308.720947265625 700.0191040039062 2308.73095703125 700.0172729492188 2308.736572265625 700.0162353515625 C 2310.467041015625 699.7022705078125 2312.17822265625 699.3822631835938 2313.8701171875 699.0567016601562 Z M 2294.16552734375 702.4376831054688 L 2295.659423828125 712.325439453125 C 2292.3515625 712.8251953125 2288.984619140625 713.3009643554688 2285.559326171875 713.7492065429688 L 2284.261474609375 703.8339233398438 C 2285.529541015625 703.6679077148438 2286.78955078125 703.4981079101562 2288.041259765625 703.3245849609375 C 2288.041259765625 703.3245849609375 2288.04345703125 703.3242797851562 2288.04345703125 703.3242797851562 C 2288.08642578125 703.318359375 2288.12890625 703.3124389648438 2288.171875 703.3064575195312 C 2290.195068359375 703.025634765625 2292.185546875 702.7369384765625 2294.16552734375 702.437744140625 Z M 2274.33154296875 705.0347290039062 L 2275.4345703125 714.9736938476562 C 2272.103515625 715.3434448242188 2268.721923828125 715.6864624023438 2265.29052734375 715.9996948242188 L 2264.380859375 706.0411987304688 C 2267.6357421875 705.743896484375 2270.85986328125 705.41796875 2274.023193359375 705.0687866210938 C 2274.024658203125 705.0686645507812 2274.025634765625 705.0685424804688 2274.027099609375 705.0684204101562 C 2274.126953125 705.057373046875 2274.22607421875 705.04638671875 2274.325927734375 705.0353393554688 C 2274.32763671875 705.0350952148438 2274.32958984375 705.034912109375 2274.33154296875 705.0347290039062 Z M 2254.41455078125 706.8544311523438 L 2255.13134765625 716.8286743164062 C 2251.784423828125 717.0694580078125 2248.39404296875 717.2809448242188 2244.960693359375 717.4617309570312 L 2244.435546875 707.4754638671875 C 2244.5205078125 707.470947265625 2244.60595703125 707.4664306640625 2244.69091796875 707.4619140625 C 2244.69775390625 707.4616088867188 2244.7109375 707.4608764648438 2244.7177734375 707.4605102539062 C 2244.74951171875 707.4588012695312 2244.78125 707.4571533203125 2244.81298828125 707.4554443359375 C 2244.846923828125 707.45361328125 2244.868408203125 707.4525146484375 2244.90234375 707.45068359375 C 2244.9091796875 707.4503173828125 2244.916015625 707.449951171875 2244.9228515625 707.4495849609375 C 2248.119873046875 707.2783813476562 2251.294189453125 707.0787353515625 2254.41455078125 706.8544921875 Z M 2234.44677734375 707.9049682617188 L 2234.78125 717.8994750976562 C 2231.423828125 718.01171875 2228.0283203125 718.0936889648438 2224.595703125 718.1431884765625 L 2224.451416015625 708.1442260742188 C 2224.870361328125 708.13818359375 2225.28515625 708.1317138671875 2225.703125 708.1246948242188 C 2225.7080078125 708.1245727539062 2225.71337890625 708.12451171875 2225.718505859375 708.1244506835938 C 2225.810546875 708.1228637695312 2225.90625 708.1212158203125 2225.998046875 708.11962890625 C 2226.015625 708.1193237304688 2226.033203125 708.1190185546875 2226.050537109375 708.1187133789062 C 2226.135498046875 708.1172485351562 2226.21923828125 708.1157836914062 2226.30419921875 708.1142578125 C 2226.32958984375 708.11376953125 2226.35595703125 708.11328125 2226.38134765625 708.1128540039062 C 2226.459228515625 708.1114501953125 2226.538818359375 708.1099853515625 2226.61669921875 708.1085205078125 C 2226.64892578125 708.1079711914062 2226.6806640625 708.1073608398438 2226.713134765625 708.1067504882812 C 2226.78369140625 708.1054077148438 2226.85107421875 708.1041259765625 2226.921630859375 708.102783203125 C 2226.961181640625 708.10205078125 2227.0009765625 708.1012573242188 2227.04052734375 708.1005249023438 C 2227.09716796875 708.0994262695312 2227.1640625 708.0980834960938 2227.220703125 708.0969848632812 C 2227.26513671875 708.0961303710938 2227.3095703125 708.09521484375 2227.354248046875 708.0943603515625 C 2227.41064453125 708.0932006835938 2227.4736328125 708.0919799804688 2227.530029296875 708.0908203125 C 2227.57080078125 708.0899658203125 2227.61181640625 708.0891723632812 2227.65283203125 708.0883178710938 C 2227.723388671875 708.0868530273438 2227.789794921875 708.0855102539062 2227.8603515625 708.083984375 C 2227.887451171875 708.0834350585938 2227.914306640625 708.0828857421875 2227.94140625 708.0823364257812 C 2228.026123046875 708.0805053710938 2228.091064453125 708.0791625976562 2228.175537109375 708.0773315429688 C 2228.205078125 708.0767211914062 2228.234375 708.0760498046875 2228.263671875 708.075439453125 C 2228.341064453125 708.07373046875 2228.4296875 708.0718383789062 2228.507080078125 708.070068359375 C 2228.5283203125 708.0696411132812 2228.549560546875 708.0691528320312 2228.57080078125 708.0686645507812 C 2228.662109375 708.066650390625 2228.74267578125 708.0648193359375 2228.833984375 708.062744140625 C 2228.84814453125 708.0624389648438 2228.862060546875 708.0621337890625 2228.8759765625 708.061767578125 C 2228.967529296875 708.0596923828125 2229.07275390625 708.0572509765625 2229.164306640625 708.0551147460938 C 2229.164306640625 708.0551147460938 2229.164794921875 708.0551147460938 2229.164794921875 708.0551147460938 C 2230.935791015625 708.0137329101562 2232.69677734375 707.9635620117188 2234.44677734375 707.905029296875 Z M 2204.44580078125 708.0546875 C 2205.64697265625 708.0826416015625 2206.84521484375 708.1064453125 2208.038818359375 708.126220703125 C 2208.051025390625 708.1264038085938 2208.0634765625 708.1266479492188 2208.07568359375 708.1268310546875 C 2208.14697265625 708.1279907226562 2208.218017578125 708.129150390625 2208.289306640625 708.1303100585938 C 2208.30224609375 708.1304931640625 2208.314697265625 708.1307373046875 2208.32763671875 708.1309204101562 C 2208.441162109375 708.1327514648438 2208.554443359375 708.134521484375 2208.66796875 708.1362915039062 C 2208.754638671875 708.1375122070312 2208.8408203125 708.138916015625 2208.927001953125 708.1401977539062 C 2209.016845703125 708.1414184570312 2209.107421875 708.142822265625 2209.197509765625 708.1441650390625 C 2209.277587890625 708.1453247070312 2209.3583984375 708.146484375 2209.438720703125 708.1475830078125 C 2209.451171875 708.1477661132812 2209.463623046875 708.14794921875 2209.47607421875 708.1481323242188 C 2209.5751953125 708.1494750976562 2209.67431640625 708.1508178710938 2209.773193359375 708.1521606445312 C 2209.78271484375 708.1522827148438 2209.79248046875 708.1524047851562 2209.8017578125 708.1525268554688 C 2209.89453125 708.1537475585938 2209.986572265625 708.1549072265625 2210.0791015625 708.1561279296875 C 2210.088134765625 708.15625 2210.09765625 708.1563720703125 2210.10693359375 708.156494140625 C 2211.559326171875 708.1749267578125 2213.005859375 708.1873168945312 2214.44482421875 708.1937866210938 L 2214.399658203125 718.1937255859375 C 2211.038818359375 718.178466796875 2207.64013671875 718.1317138671875 2204.21240234375 718.0519409179688 L 2204.44580078125 708.0546875 Z M 2184.453125 707.2991943359375 C 2184.86962890625 707.3203125 2185.271240234375 707.34033203125 2185.6884765625 707.36083984375 C 2185.692138671875 707.3610229492188 2185.6962890625 707.3612060546875 2185.7001953125 707.3613891601562 C 2185.798828125 707.3662719726562 2185.888671875 707.3706665039062 2185.9873046875 707.3754272460938 C 2186.001220703125 707.3760986328125 2186.01513671875 707.3767700195312 2186.02880859375 707.37744140625 C 2186.119873046875 707.3818969726562 2186.21044921875 707.3862915039062 2186.301513671875 707.3906860351562 C 2186.32080078125 707.3916625976562 2186.33984375 707.392578125 2186.359130859375 707.3934936523438 C 2186.427490234375 707.3967895507812 2186.5009765625 707.4003295898438 2186.5693359375 707.4036254882812 C 2186.60498046875 707.4053344726562 2186.64111328125 707.4070434570312 2186.6767578125 707.4087524414062 C 2186.7451171875 707.4119873046875 2186.80224609375 707.4147338867188 2186.87060546875 707.4180297851562 C 2186.91650390625 707.420166015625 2186.962158203125 707.42236328125 2187.00830078125 707.424560546875 C 2187.031005859375 707.4256591796875 2187.0517578125 707.4266357421875 2187.07470703125 707.4276733398438 C 2187.17626953125 707.4324951171875 2187.2783203125 707.4373168945312 2187.3798828125 707.4420776367188 C 2187.3798828125 707.4420776367188 2187.381591796875 707.442138671875 2187.381591796875 707.442138671875 C 2189.72705078125 707.5523681640625 2192.0830078125 707.6526489257812 2194.4501953125 707.742431640625 L 2194.07080078125 717.7352294921875 C 2190.674072265625 717.606201171875 2187.30029296875 717.4561767578125 2183.947265625 717.2864379882812 L 2184.453125 707.2991943359375 Z M 2164.49609375 706.043701171875 C 2167.80615234375 706.2914428710938 2171.130615234375 706.5211791992188 2174.472900390625 706.731689453125 L 2173.84423828125 716.7119750976562 C 2170.462646484375 716.4989624023438 2167.098876953125 716.2664794921875 2163.75 716.0156860351562 L 2164.49609375 706.043701171875 Z M 2144.572265625 704.3314819335938 C 2147.884033203125 704.6512451171875 2151.197509765625 704.9544677734375 2154.529296875 705.2412719726562 L 2153.671875 715.2044677734375 C 2150.3076171875 714.9149780273438 2146.955078125 714.6079711914062 2143.611328125 714.2852172851562 L 2144.572265625 704.3314819335938 Z M 2124.685546875 702.2234497070312 C 2126.166015625 702.3934326171875 2127.64697265625 702.560791015625 2129.128662109375 702.725341796875 C 2129.1796875 702.7310180664062 2129.22314453125 702.73583984375 2129.27392578125 702.7415161132812 C 2129.30615234375 702.7450561523438 2129.33837890625 702.7485961914062 2129.370361328125 702.752197265625 C 2129.457763671875 702.7618408203125 2129.55419921875 702.7725219726562 2129.641357421875 702.7821655273438 C 2129.646484375 702.7827758789062 2129.651611328125 702.7833251953125 2129.65673828125 702.7838745117188 C 2130.790771484375 702.9093627929688 2131.918701171875 703.032470703125 2133.0537109375 703.1546020507812 C 2133.069091796875 703.15625 2133.084716796875 703.157958984375 2133.10009765625 703.1596069335938 C 2133.16552734375 703.1666259765625 2133.236083984375 703.1741943359375 2133.301513671875 703.1812133789062 C 2133.370849609375 703.1886596679688 2133.440185546875 703.1961059570312 2133.50927734375 703.2035522460938 C 2133.52392578125 703.205078125 2133.5390625 703.2067260742188 2133.5537109375 703.208251953125 C 2133.91015625 703.2465209960938 2134.26708984375 703.2845458984375 2134.62353515625 703.3224487304688 L 2133.56787109375 713.2664794921875 L 2123.54443359375 712.157958984375 L 2124.685546875 702.2234497070312 Z M 2104.83447265625 699.7952270507812 C 2105.79150390625 699.918701171875 2106.747802734375 700.041259765625 2107.7041015625 700.1630249023438 C 2107.76953125 700.1713256835938 2107.844482421875 700.1808471679688 2107.909912109375 700.189208984375 C 2107.931884765625 700.1919555664062 2107.95361328125 700.1947631835938 2107.9755859375 700.197509765625 C 2110.237060546875 700.4849853515625 2112.4970703125 700.767333984375 2114.756103515625 701.0440673828125 L 2113.5400390625 710.969970703125 L 2103.55419921875 709.7129516601562 L 2104.83447265625 699.7952270507812 Z M 2085.011962890625 697.1326904296875 C 2086.689697265625 697.3656005859375 2088.364501953125 697.596435546875 2090.036865234375 697.8251342773438 C 2091.443115234375 698.0174560546875 2092.8662109375 698.2108154296875 2094.26953125 698.3999633789062 C 2094.487060546875 698.4293212890625 2094.704833984375 698.4586791992188 2094.92236328125 698.4879760742188 L 2093.58935546875 708.398681640625 L 2083.636962890625 707.0377197265625 L 2085.011962890625 697.1326904296875 Z M 2065.2119140625 694.3250732421875 C 2065.809814453125 694.4111938476562 2066.404052734375 694.4967041015625 2067.0009765625 694.58251953125 C 2069.7158203125 694.972900390625 2072.419921875 695.3596801757812 2075.1142578125 695.7421875 L 2073.70849609375 705.6427001953125 L 2063.7861328125 704.2229614257812 L 2065.2119140625 694.324951171875 Z M 2045.423095703125 691.4579467773438 C 2047.045166015625 691.6931762695312 2048.661865234375 691.927978515625 2050.273681640625 692.1619262695312 C 2051.453369140625 692.333251953125 2052.63037109375 692.5040893554688 2053.804931640625 692.6744995117188 C 2054.191162109375 692.7305297851562 2054.583984375 692.7875366210938 2054.9697265625 692.843505859375 C 2055.086181640625 692.8604125976562 2055.20263671875 692.8773193359375 2055.319091796875 692.8942260742188 L 2053.8837890625 702.7907104492188 L 2043.987426757812 701.3541870117188 L 2045.423095703125 691.4579467773438 Z M 2025.630859375 688.6074829101562 C 2026.33203125 688.7073364257812 2027.0263671875 688.8063354492188 2027.72509765625 688.9061889648438 C 2027.742431640625 688.9086303710938 2027.760498046875 688.9111938476562 2027.77783203125 688.9136962890625 C 2027.809204101562 688.9181518554688 2027.82568359375 688.9205322265625 2027.857177734375 688.925048828125 C 2029.5908203125 689.1727294921875 2031.317138671875 689.4202270507812 2033.037109375 689.6675415039062 C 2033.862548828125 689.7862548828125 2034.70068359375 689.9069213867188 2035.523193359375 690.0254516601562 L 2034.096435546875 699.9232177734375 L 2024.22119140625 698.5076904296875 L 2025.630859375 688.6074829101562 Z M 2005.819091796875 685.8384399414062 C 2006.011474609375 685.86474609375 2006.203491210938 685.8909912109375 2006.395629882812 685.9172973632812 C 2006.42822265625 685.9217529296875 2006.449462890625 685.9246826171875 2006.482055664062 685.9291381835938 C 2006.550537109375 685.9384765625 2006.619384765625 685.9479370117188 2006.687866210938 685.9573364257812 C 2006.7529296875 685.9662475585938 2006.804443359375 685.9732666015625 2006.869506835938 685.982177734375 C 2006.877807617188 685.9833374023438 2006.885986328125 685.9844970703125 2006.894287109375 685.985595703125 C 2007.333251953125 686.0457763671875 2007.773193359375 686.106201171875 2008.211181640625 686.1663818359375 C 2008.225341796875 686.1683349609375 2008.239013671875 686.1702270507812 2008.253173828125 686.1721801757812 C 2008.302001953125 686.1788940429688 2008.342407226562 686.1844482421875 2008.39111328125 686.191162109375 C 2008.437255859375 686.197509765625 2008.483154296875 686.2037963867188 2008.529296875 686.2101440429688 C 2008.577880859375 686.2168579101562 2008.638061523438 686.2251586914062 2008.686767578125 686.2318115234375 C 2008.76171875 686.2421875 2008.836547851562 686.25244140625 2008.91162109375 686.2628173828125 C 2008.919677734375 686.263916015625 2008.936157226562 686.2661743164062 2008.944213867188 686.2672729492188 C 2011.218017578125 686.58056640625 2013.478271484375 686.8945922851562 2015.7255859375 687.2089233398438 L 2014.340087890625 697.1124267578125 L 2004.46484375 695.7464599609375 L 2005.819091796875 685.8384399414062 Z M 1985.998901367188 683.2059326171875 C 1989.3359375 683.6351928710938 1992.640869140625 684.0676879882812 1995.916137695312 684.503173828125 L 1994.5986328125 694.4159545898438 L 1984.72314453125 693.1242065429688 L 1985.998901367188 683.2059326171875 Z M 1966.149658203125 680.747802734375 C 1968.17041015625 680.9879150390625 1970.1884765625 681.2310180664062 1972.18505859375 681.4744873046875 C 1972.220336914062 681.478759765625 1972.255859375 681.4830932617188 1972.291015625 681.4873657226562 C 1972.33447265625 681.49267578125 1972.35693359375 681.4954223632812 1972.400268554688 681.500732421875 C 1972.49267578125 681.511962890625 1972.5849609375 681.5232543945312 1972.67724609375 681.5345458984375 C 1972.68603515625 681.5355834960938 1972.676513671875 681.534423828125 1972.685180664062 681.5355224609375 C 1973.5 681.6350708007812 1974.313232421875 681.7349853515625 1975.1240234375 681.8350219726562 C 1975.15869140625 681.8392944335938 1975.19921875 681.8442993164062 1975.233642578125 681.8485717773438 C 1975.27880859375 681.8541259765625 1975.323974609375 681.8597412109375 1975.368896484375 681.8652954101562 C 1975.601806640625 681.89404296875 1975.835083007812 681.9229125976562 1976.067626953125 681.9517211914062 L 1974.838134765625 691.8759765625 L 1964.9697265625 690.677978515625 L 1966.149658203125 680.7476806640625 Z M 1946.283935546875 678.4945678710938 C 1947.171264648438 678.5902709960938 1948.05224609375 678.68603515625 1948.934814453125 678.7825317382812 C 1948.967529296875 678.7861328125 1949.00048828125 678.7897338867188 1949.033203125 678.7932739257812 C 1949.069580078125 678.7973022460938 1949.109375 678.8016357421875 1949.145751953125 678.8056030273438 C 1951.521728515625 679.0658569335938 1953.880493164062 679.328857421875 1956.222412109375 679.5947265625 L 1955.094970703125 689.5309448242188 L 1945.21142578125 688.4369506835938 L 1946.283935546875 678.4944458007812 Z M 1926.377685546875 676.4625244140625 C 1927.14990234375 676.5368041992188 1927.918823242188 676.6112670898438 1928.687255859375 676.686279296875 C 1928.70263671875 676.6878051757812 1928.7177734375 676.6892700195312 1928.73291015625 676.6907348632812 C 1928.79931640625 676.697265625 1928.867919921875 676.7039184570312 1928.934326171875 676.7103881835938 C 1929.0087890625 676.7177124023438 1929.0830078125 676.7249755859375 1929.157470703125 676.7322387695312 C 1929.204956054688 676.7368774414062 1929.242919921875 676.7406005859375 1929.290283203125 676.7452392578125 C 1929.3427734375 676.7503662109375 1929.39501953125 676.7554931640625 1929.447509765625 676.7606811523438 C 1929.4853515625 676.7643432617188 1929.524780273438 676.7682495117188 1929.562744140625 676.77197265625 C 1929.627197265625 676.7782592773438 1929.691650390625 676.7846069335938 1929.756103515625 676.7909545898438 C 1929.784545898438 676.793701171875 1929.822631835938 676.7974853515625 1929.85107421875 676.8002319335938 C 1929.932495117188 676.8082885742188 1930.014038085938 676.8162841796875 1930.095458984375 676.8242797851562 C 1930.13330078125 676.8280029296875 1930.159912109375 676.8306274414062 1930.19775390625 676.8343505859375 C 1930.2607421875 676.840576171875 1930.323974609375 676.8468017578125 1930.386962890625 676.85302734375 C 1930.4248046875 676.8567504882812 1930.445190429688 676.8587646484375 1930.48291015625 676.8624877929688 C 1930.572875976562 676.871337890625 1930.662841796875 676.8802490234375 1930.752685546875 676.8890991210938 C 1930.771484375 676.8909912109375 1930.780151367188 676.891845703125 1930.799072265625 676.8936767578125 C 1930.871826171875 676.90087890625 1930.9443359375 676.9080810546875 1931.01708984375 676.915283203125 C 1931.054931640625 676.9190063476562 1931.092041015625 676.9226684570312 1931.1298828125 676.9263916015625 C 1931.19287109375 676.9326782226562 1931.255859375 676.9389038085938 1931.31884765625 676.9451904296875 C 1931.34716796875 676.947998046875 1931.379150390625 676.9511108398438 1931.407470703125 676.9539184570312 C 1931.490356445312 676.962158203125 1931.572998046875 676.9703979492188 1931.65576171875 676.9785766601562 C 1931.71240234375 676.9841918945312 1931.753051757812 676.98828125 1931.8095703125 676.993896484375 C 1931.844970703125 676.9973754882812 1931.880737304688 677.0009765625 1931.916137695312 677.0044555664062 C 1931.97265625 677.0101318359375 1932.01708984375 677.0145263671875 1932.07373046875 677.0201416015625 C 1932.111328125 677.02392578125 1932.149291992188 677.0277099609375 1932.18701171875 677.0314331054688 C 1932.281127929688 677.0408325195312 1932.37841796875 677.050537109375 1932.47265625 677.0599365234375 C 1932.504150390625 677.0631103515625 1932.535278320312 677.0662231445312 1932.56689453125 677.0693359375 C 1932.632690429688 677.075927734375 1932.67431640625 677.080078125 1932.740234375 677.086669921875 C 1932.765869140625 677.0892333984375 1932.791870117188 677.0918579101562 1932.817504882812 677.0944213867188 C 1932.88330078125 677.1010131835938 1932.938354492188 677.1065063476562 1933.004150390625 677.1130981445312 C 1933.0107421875 677.11376953125 1933.017456054688 677.1144409179688 1933.024169921875 677.1151123046875 C 1933.146362304688 677.1273193359375 1933.293212890625 677.1420288085938 1933.415283203125 677.154296875 C 1933.4345703125 677.15625 1933.45361328125 677.1581420898438 1933.472900390625 677.1600952148438 C 1933.529174804688 677.165771484375 1933.6025390625 677.173095703125 1933.658813476562 677.1787719726562 C 1933.682373046875 677.18115234375 1933.70556640625 677.1834716796875 1933.729248046875 677.1858520507812 C 1933.785522460938 677.1915283203125 1933.85205078125 677.1982421875 1933.908447265625 677.203857421875 C 1933.935424804688 677.2066040039062 1933.962158203125 677.2092895507812 1933.9892578125 677.2120361328125 C 1934.0830078125 677.2214965820312 1934.180786132812 677.2313232421875 1934.274536132812 677.2407836914062 C 1934.320678710938 677.2454223632812 1934.36669921875 677.2500610351562 1934.412841796875 677.2547607421875 C 1934.459716796875 677.2594604492188 1934.49853515625 677.263427734375 1934.54541015625 677.2681274414062 C 1934.601318359375 677.2738037109375 1934.657104492188 677.2794189453125 1934.713012695312 677.2850952148438 C 1934.7412109375 677.2879028320312 1934.779052734375 677.291748046875 1934.80712890625 677.2946166992188 C 1934.900390625 677.3040161132812 1934.994018554688 677.3135375976562 1935.087280273438 677.322998046875 C 1935.0966796875 677.3239135742188 1935.113037109375 677.3256225585938 1935.122436523438 677.3265380859375 C 1935.527099609375 677.3675537109375 1935.931518554688 677.4087524414062 1936.335205078125 677.449951171875 L 1935.3193359375 687.398193359375 L 1925.419921875 686.4164428710938 L 1926.377685546875 676.4624633789062 Z M 1906.458618164062 674.6654663085938 C 1907.702880859375 674.7702026367188 1908.942138671875 674.8759155273438 1910.1767578125 674.982666015625 C 1910.21630859375 674.986083984375 1910.2568359375 674.9895629882812 1910.29638671875 674.9929809570312 C 1910.3369140625 674.9965209960938 1910.377319335938 675 1910.41796875 675.0034790039062 C 1911.630126953125 675.1085205078125 1912.832275390625 675.2139282226562 1914.035400390625 675.3207397460938 C 1914.095703125 675.3261108398438 1914.156005859375 675.3314819335938 1914.216186523438 675.3367919921875 C 1914.235717773438 675.3385620117188 1914.26171875 675.3408813476562 1914.28125 675.3425903320312 C 1914.99365234375 675.4059448242188 1915.704467773438 675.4696655273438 1916.41357421875 675.53369140625 L 1915.51513671875 685.4932250976562 L 1905.61962890625 684.6301879882812 L 1906.458618164062 674.6654663085938 Z M 1886.527587890625 673.1074829101562 C 1888.3994140625 673.2424926757812 1890.260620117188 673.3799438476562 1892.111083984375 673.5195922851562 C 1892.162231445312 673.5234985351562 1892.20361328125 673.526611328125 1892.254760742188 673.5304565429688 C 1892.275390625 673.5320434570312 1892.29638671875 673.5336303710938 1892.31689453125 673.53515625 C 1893.71875 673.6412353515625 1895.106689453125 673.7479248046875 1896.496337890625 673.8565673828125 L 1895.717163085938 683.8262329101562 L 1885.80810546875 683.0814819335938 L 1886.527587890625 673.1074829101562 Z M 1866.574462890625 671.7877197265625 C 1869.9345703125 671.9899291992188 1873.260620117188 672.2001953125 1876.5537109375 672.41796875 L 1875.893676757812 682.3961791992188 L 1865.9736328125 681.7697143554688 L 1866.574462890625 671.7877197265625 Z M 1846.602661132812 670.7029418945312 C 1849.96533203125 670.865966796875 1853.29443359375 671.0372314453125 1856.590576171875 671.2161865234375 L 1856.04833984375 681.2014770507812 L 1846.118408203125 680.6912231445312 L 1846.602661132812 670.7029418945312 Z M 1826.612915039062 669.8472900390625 C 1827.196655273438 669.8689575195312 1827.787109375 669.8912353515625 1828.368896484375 669.9133911132812 C 1828.387451171875 669.9141235351562 1828.40625 669.9148559570312 1828.4248046875 669.91552734375 C 1828.459716796875 669.9168701171875 1828.512573242188 669.9188842773438 1828.547485351562 669.9202270507812 C 1831.256103515625 670.02392578125 1833.94384765625 670.1328125 1836.610107421875 670.2469482421875 L 1836.1826171875 680.2377319335938 L 1826.241455078125 679.8404541015625 L 1826.612915039062 669.8472290039062 Z M 1806.623657226562 669.2142333984375 C 1807.084594726562 669.226318359375 1807.529174804688 669.2381591796875 1807.988891601562 669.2505493164062 C 1810.763427734375 669.325439453125 1813.516235351562 669.4059448242188 1816.247680664062 669.4917602539062 C 1816.36669921875 669.4955444335938 1816.491088867188 669.4994506835938 1816.610107421875 669.5032348632812 L 1816.2939453125 679.4982299804688 L 1806.361450195312 679.210693359375 L 1806.623657226562 669.2142333984375 Z M 1786.646118164062 668.7952270507812 C 1790.007202148438 668.8482055664062 1793.337158203125 668.909423828125 1796.636596679688 668.9786987304688 L 1796.427124023438 678.9764404296875 L 1786.488403320312 678.7939453125 L 1786.646118164062 668.7952270507812 Z M 1766.61962890625 668.5817260742188 C 1767.789794921875 668.5875854492188 1768.955444335938 668.5948486328125 1770.1171875 668.6033935546875 C 1770.195190429688 668.6039428710938 1770.272338867188 668.6045532226562 1770.349609375 668.6051025390625 C 1770.4423828125 668.6058349609375 1770.533325195312 668.6065063476562 1770.625122070312 668.607177734375 C 1770.625122070312 668.607177734375 1770.625122070312 668.607177734375 1770.625122070312 668.607177734375 C 1771.648681640625 668.6151123046875 1772.657104492188 668.6236572265625 1773.674926757812 668.633056640625 C 1773.733276367188 668.6336059570312 1773.801391601562 668.63427734375 1773.85888671875 668.634765625 C 1774.45947265625 668.640380859375 1775.058959960938 668.646240234375 1775.657592773438 668.65234375 C 1775.991455078125 668.65576171875 1776.3173828125 668.6591796875 1776.650634765625 668.6627807617188 L 1776.54345703125 678.6622314453125 L 1766.56884765625 678.5814819335938 L 1766.61962890625 668.5817260742188 Z M 1756.63916015625 668.5624389648438 L 1756.650390625 678.5624389648438 L 1746.700439453125 678.6019287109375 L 1746.632690429688 668.6021728515625 C 1749.999145507812 668.5794677734375 1753.335205078125 668.5659790039062 1756.63916015625 668.5624389648438 Z M 1736.654418945312 668.6956787109375 L 1736.7734375 678.6949462890625 L 1726.821899414062 678.8374633789062 L 1726.655395507812 668.8389282226562 C 1730.01513671875 668.782958984375 1733.348388671875 668.7352294921875 1736.654418945312 668.6956787109375 Z M 1716.636840820312 669.0279541015625 L 1716.84716796875 679.0259399414062 L 1706.894653320312 679.2554321289062 L 1706.644165039062 669.2584228515625 C 1707.21142578125 669.2442626953125 1707.75732421875 669.2307739257812 1708.323364257812 669.2169799804688 C 1708.328491210938 669.2168579101562 1708.333251953125 669.2167358398438 1708.33837890625 669.2166137695312 C 1708.428466796875 669.2144165039062 1708.490234375 669.212890625 1708.580200195312 669.210693359375 C 1711.241821289062 669.1461181640625 1713.889038085938 669.0860595703125 1716.521118164062 669.0303955078125 C 1716.559204101562 669.0296020507812 1716.598754882812 669.0287475585938 1716.636840820312 669.0279541015625 Z M 1696.660888671875 669.5274658203125 L 1696.948608398438 679.5234375 L 1686.977416992188 679.8276977539062 L 1686.655395507812 669.8329467773438 C 1690.010620117188 669.7247314453125 1693.34619140625 669.6229248046875 1696.660888671875 669.5274658203125 Z M 1676.647705078125 670.1716918945312 L 1677.001708984375 680.1654663085938 L 1667.056640625 680.53271484375 L 1666.673095703125 670.5399780273438 C 1670.015380859375 670.4116821289062 1673.340454101562 670.2886962890625 1676.647705078125 670.1716918945312 Z M 1656.675170898438 670.9379272460938 L 1657.08642578125 680.929443359375 L 1647.105346679688 681.3534545898438 L 1646.66845703125 671.3629760742188 C 1650.019165039062 671.2164306640625 1653.354858398438 671.07470703125 1656.675170898438 670.9379272460938 Z M 1636.696166992188 671.8112182617188 L 1637.157104492188 681.8007202148438 L 1627.184692382812 682.272216796875 L 1626.701416015625 672.28369140625 C 1626.85546875 672.2762451171875 1626.972778320312 672.2705688476562 1627.126831054688 672.2631225585938 C 1630.101928710938 672.1195678710938 1633.067138671875 671.9793090820312 1636.021240234375 671.8424072265625 C 1636.24365234375 671.8321533203125 1636.473876953125 671.8214721679688 1636.696166992188 671.8112182617188 Z M 1616.703369140625 672.7779541015625 L 1617.207397460938 682.7651977539062 L 1607.252685546875 683.2774658203125 L 1606.729370117188 673.2909545898438 C 1608.206665039062 673.213623046875 1609.7099609375 673.135498046875 1611.182861328125 673.0595703125 C 1613.026489257812 672.9645385742188 1614.866821289062 672.8706665039062 1616.703369140625 672.7779541015625 Z M 1596.7353515625 673.823974609375 L 1597.276611328125 683.8092041015625 L 1587.306640625 684.3582153320312 L 1586.748657226562 674.3737182617188 C 1590.087158203125 674.1871948242188 1593.416137695312 674.0037231445312 1596.7353515625 673.823974609375 Z M 1576.770874023438 674.939208984375 L 1577.344360351562 684.9227294921875 L 1567.364868164062 685.5034790039062 L 1566.77685546875 675.5206909179688 C 1570.097412109375 675.3250732421875 1573.41064453125 675.1323852539062 1576.715087890625 674.9423828125 C 1576.729614257812 674.9415893554688 1576.756469726562 674.9400634765625 1576.770874023438 674.939208984375 Z M 1556.800415039062 676.1149291992188 L 1557.401611328125 686.096923828125 L 1547.4326171875 686.7036743164062 L 1546.81884765625 676.7227172851562 C 1548.615234375 676.6122436523438 1550.409423828125 676.50244140625 1552.201904296875 676.3933715820312 C 1553.73681640625 676.300048828125 1555.268432617188 676.2073364257812 1556.800415039062 676.1150512695312 Z M 1536.828125 677.3424682617188 L 1537.453125 687.3229370117188 L 1527.491943359375 687.9519653320312 L 1526.8564453125 677.9722290039062 C 1528.758666992188 677.8511352539062 1530.65625 677.7308959960938 1532.555297851562 677.611083984375 C 1533.131958007812 677.57470703125 1533.708251953125 677.5383911132812 1534.28466796875 677.5021362304688 C 1535.137939453125 677.448486328125 1535.9755859375 677.3959350585938 1536.828125 677.342529296875 Z M 1516.872924804688 678.6127319335938 L 1517.517944335938 688.5919799804688 L 1507.54638671875 689.24072265625 L 1506.892944335938 679.261962890625 C 1507.3671875 679.23095703125 1507.8515625 679.19921875 1508.32568359375 679.1682739257812 C 1511.177612304688 678.9818725585938 1514.026733398438 678.796630859375 1516.872924804688 678.6127319335938 Z M 1496.915893554688 679.91943359375 L 1497.5771484375 689.8974609375 L 1487.601440429688 690.5621948242188 L 1486.933349609375 680.58447265625 C 1487.275512695312 680.5615234375 1487.630615234375 680.5377807617188 1487.97265625 680.514892578125 C 1488.003173828125 680.5128784179688 1488.033569335938 680.5108032226562 1488.064086914062 680.5087890625 C 1488.138427734375 680.5037841796875 1488.231567382812 680.49755859375 1488.305908203125 680.4926147460938 C 1491.177856445312 680.300537109375 1494.047973632812 680.1094360351562 1496.915893554688 679.91943359375 Z M 1476.958129882812 681.2556762695312 L 1477.632446289062 691.2329711914062 L 1467.6591796875 691.9097290039062 L 1466.979370117188 681.9329833984375 C 1470.306884765625 681.7061767578125 1473.633178710938 681.48046875 1476.958129882812 681.2556762695312 Z M 1457.001708984375 682.6149291992188 L 1457.685913085938 692.5914306640625 L 1447.71240234375 693.2777099609375 L 1447.0244140625 683.3012084960938 C 1447.874267578125 683.24267578125 1448.730224609375 683.1836547851562 1449.580078125 683.1251220703125 C 1451.8369140625 682.9697265625 1454.09375 682.8145751953125 1456.350463867188 682.65966796875 C 1456.559204101562 682.6453247070312 1456.79296875 682.6293334960938 1457.001708984375 682.614990234375 Z M 1437.047607421875 683.990966796875 L 1437.738647460938 693.9669799804688 L 1427.763916015625 694.6591796875 L 1427.070434570312 684.6834716796875 C 1427.896606445312 684.6259765625 1428.72314453125 684.5685424804688 1429.549560546875 684.5111083984375 C 1432.05224609375 684.3372802734375 1434.543701171875 684.1644287109375 1437.047607421875 683.990966796875 Z M 1417.092651367188 685.377685546875 L 1417.787353515625 695.3534545898438 L 1407.81591796875 696.0484619140625 L 1407.1201171875 686.0726928710938 C 1407.833251953125 686.0230712890625 1408.55712890625 685.9725952148438 1409.270385742188 685.9228515625 C 1411.876342773438 685.7412109375 1414.48388671875 685.5594482421875 1417.092651367188 685.377685546875 Z M 1397.138671875 686.7686767578125 L 1397.834106445312 696.7446899414062 L 1387.858642578125 697.43994140625 L 1387.163940429688 687.4639282226562 C 1390.492797851562 687.232177734375 1393.802368164062 687.00146484375 1397.138671875 686.7688598632812 Z M 1377.188110351562 688.157958984375 L 1377.88134765625 698.1339721679688 L 1367.897705078125 698.8264770507812 L 1367.206909179688 688.8504638671875 C 1370.531616210938 688.6203002929688 1373.853393554688 688.3897705078125 1377.188110351562 688.1580810546875 Z M 1357.238159179688 689.5391845703125 L 1357.925903320312 699.5154418945312 L 1347.937133789062 700.2019653320312 L 1347.253662109375 690.2254638671875 C 1347.7744140625 690.1897583007812 1348.29541015625 690.1539916992188 1348.816528320312 690.1182250976562 C 1351.622192382812 689.9258422851562 1354.42333984375 689.7332153320312 1357.238159179688 689.5392456054688 Z M 1337.275146484375 690.9064331054688 L 1337.95361328125 700.8834228515625 L 1327.980102539062 701.5589599609375 L 1327.307373046875 691.5817260742188 C 1328.518310546875 691.5000610351562 1329.73046875 691.4181518554688 1330.943481445312 691.3360595703125 C 1333.06005859375 691.19287109375 1335.152221679688 691.0509643554688 1337.275146484375 690.9065551757812 Z M 1317.316650390625 692.251953125 L 1317.982421875 702.2296752929688 L 1308.000610351562 702.8919677734375 L 1307.342651367188 692.9136962890625 C 1309.403930664062 692.7777709960938 1311.443725585938 692.6427001953125 1313.512329101562 692.5052490234375 C 1314.779052734375 692.4210815429688 1316.047241210938 692.336669921875 1317.316650390625 692.251953125 Z M 1297.366943359375 693.5671997070312 L 1298.01611328125 703.5462036132812 L 1288.015625 704.1919555664062 L 1287.376342773438 694.2124633789062 C 1290.697143554688 693.999755859375 1294.023681640625 693.7848510742188 1297.366943359375 693.5673217773438 Z M 1277.406127929688 694.845947265625 L 1278.034423828125 704.8262329101562 L 1268.037841796875 705.449462890625 L 1267.421875 695.4684448242188 C 1270.498168945312 695.2786254882812 1273.559814453125 695.0878295898438 1276.658569335938 694.8929443359375 C 1276.907592773438 694.8773193359375 1277.156982421875 694.8616333007812 1277.406127929688 694.845947265625 Z M 1257.430419921875 696.0784301757812 L 1258.033203125 706.0604248046875 L 1248.049194335938 706.6557006835938 L 1247.46142578125 696.6729736328125 C 1250.771850585938 696.4782104492188 1254.089965820312 696.2802734375 1257.430419921875 696.07861328125 Z M 1237.47216796875 697.2529296875 L 1238.04345703125 707.2366943359375 L 1228.029907226562 707.8007202148438 L 1227.476684570312 697.8159790039062 C 1230.788208007812 697.632568359375 1234.1259765625 697.4445190429688 1237.47216796875 697.2530517578125 Z M 1217.50390625 698.3587036132812 L 1218.037353515625 708.344482421875 L 1208.030151367188 708.8684692382812 L 1207.518432617188 698.8814697265625 C 1210.8330078125 698.7117309570312 1214.1494140625 698.5380249023438 1217.50390625 698.3588256835938 Z M 1197.513916015625 699.3824462890625 L 1198.001708984375 709.3704833984375 L 1187.992431640625 709.846435546875 L 1187.530395507812 699.857177734375 C 1190.834594726562 699.70458984375 1194.163940429688 699.546142578125 1197.513916015625 699.3824462890625 Z M 1177.56640625 700.303955078125 L 1177.999633789062 710.29443359375 L 1167.948364257812 710.7149658203125 L 1167.546630859375 700.7229614257812 C 1170.862670898438 700.5897216796875 1174.197265625 700.4501342773438 1177.56640625 700.3040161132812 Z M 1157.544921875 701.1079711914062 L 1157.911865234375 711.1011962890625 L 1147.89013671875 711.450439453125 L 1147.561157226562 701.4559326171875 C 1150.857177734375 701.34765625 1154.187866210938 701.2314453125 1157.544921875 701.1080932617188 Z M 1137.594848632812 701.76318359375 L 1137.881591796875 711.7592163085938 L 1127.809204101562 712.0244750976562 L 1127.569702148438 702.0274658203125 C 1130.869873046875 701.948486328125 1134.222900390625 701.8599853515625 1137.594848632812 701.7633056640625 Z M 1117.55712890625 702.241455078125 L 1117.743896484375 712.2396850585938 L 1107.683349609375 712.3984375 L 1107.5556640625 702.3994750976562 C 1110.8408203125 702.357421875 1114.187622070312 702.304443359375 1117.55712890625 702.241455078125 Z M 1097.562866210938 702.4946899414062 L 1097.624389648438 712.4944458007812 L 1089.308349609375 712.5206909179688 L 1087.586669921875 712.5194702148438 L 1087.60009765625 702.5194702148438 C 1088.250244140625 702.5204467773438 1088.904663085938 702.5206298828125 1089.558715820312 702.5206909179688 C 1089.6376953125 702.5206909179688 1089.726318359375 702.5206909179688 1089.806640625 702.5206298828125 C 1089.891479492188 702.5205078125 1089.976928710938 702.5205078125 1090.062255859375 702.5205078125 C 1090.153076171875 702.5203857421875 1090.234619140625 702.5203857421875 1090.32568359375 702.5203247070312 C 1090.4072265625 702.5195922851562 1090.501342773438 702.5201416015625 1090.5830078125 702.5200805664062 C 1090.673706054688 702.5206298828125 1090.75 702.5199584960938 1090.836669921875 702.519775390625 C 1090.843994140625 702.519775390625 1090.851440429688 702.519775390625 1090.858764648438 702.519775390625 C 1093.064331054688 702.51708984375 1095.312622070312 702.5086669921875 1097.562866210938 702.4948120117188 Z M 1067.602172851562 702.3150634765625 C 1070.872924804688 702.3804321289062 1074.205078125 702.4297485351562 1077.600341796875 702.4637451171875 L 1077.500366210938 712.4631958007812 C 1074.071899414062 712.428955078125 1070.704956054688 712.3789672851562 1067.402099609375 712.3129272460938 L 1067.602172851562 702.31494140625 Z M 1047.611694335938 701.6744995117188 C 1048.211303710938 701.7017822265625 1048.814453125 701.7284545898438 1049.419555664062 701.75439453125 C 1049.4443359375 701.7554931640625 1049.469116210938 701.7565307617188 1049.493896484375 701.7576293945312 C 1049.519775390625 701.7587280273438 1049.546264648438 701.7598266601562 1049.572143554688 701.7609252929688 C 1049.609619140625 701.7625732421875 1049.6474609375 701.76416015625 1049.684936523438 701.7657470703125 C 1049.697387695312 701.7662963867188 1049.710083007812 701.766845703125 1049.72265625 701.767333984375 C 1052.30126953125 701.8767700195312 1054.9296875 701.9736938476562 1057.606201171875 702.0584716796875 L 1057.289428710938 712.053466796875 C 1053.831420898438 711.9439697265625 1050.45263671875 711.814453125 1047.156372070312 711.6641845703125 L 1047.611694335938 701.6744384765625 Z M 1027.634155273438 700.4999389648438 C 1030.895874023438 700.7294311523438 1034.220703125 700.9449462890625 1037.612426757812 701.1452026367188 L 1037.022705078125 711.127685546875 C 1033.592895507812 710.9252319335938 1030.230346679688 710.7074584960938 1026.931640625 710.4752197265625 L 1027.634155273438 700.4999389648438 Z M 1007.700927734375 698.853515625 C 1010.394165039062 699.1100463867188 1013.128784179688 699.3563232421875 1015.913208007812 699.592041015625 C 1015.942138671875 699.594482421875 1015.9716796875 699.5969848632812 1016.000732421875 699.5994262695312 C 1016.000732421875 699.5994262695312 1016.001220703125 699.5994873046875 1016.001220703125 699.5994873046875 C 1016.555908203125 699.6464233398438 1017.112182617188 699.69287109375 1017.670654296875 699.7389526367188 L 1016.848876953125 709.7049560546875 C 1013.414672851562 709.4219360351562 1010.050903320312 709.1226806640625 1006.752685546875 708.8084716796875 L 1007.700927734375 698.8534545898438 Z M 987.8316650390625 696.6905517578125 C 988.8465576171875 696.8152465820312 989.8492431640625 696.936279296875 990.876953125 697.0579833984375 C 990.887939453125 697.059326171875 990.8988037109375 697.0606079101562 990.9097900390625 697.0618896484375 C 990.93310546875 697.064697265625 990.96435546875 697.068359375 990.98779296875 697.0711059570312 C 991.0318603515625 697.0763549804688 991.0760498046875 697.0816040039062 991.1201171875 697.0867919921875 C 991.1201171875 697.0867919921875 991.1231689453125 697.087158203125 991.1231689453125 697.087158203125 C 993.3048095703125 697.3449096679688 995.5155029296875 697.5958862304688 997.7569580078125 697.8397216796875 L 996.6756591796875 707.7809448242188 C 993.252197265625 707.40869140625 989.899658203125 707.0199584960938 986.6121826171875 706.615966796875 L 987.8316650390625 696.6904296875 Z M 968.0189208984375 693.966064453125 C 971.2593994140625 694.4597778320312 974.5482177734375 694.9371948242188 977.9171142578125 695.4003295898438 L 976.555419921875 705.3071899414062 C 973.1416015625 704.8379516601562 969.79638671875 704.3521728515625 966.5126953125 703.8519287109375 L 968.0189208984375 693.9659423828125 Z M 948.297119140625 690.6694946289062 C 950.971435546875 691.1553955078125 953.6768798828125 691.6316528320312 956.427001953125 692.0986328125 C 956.4312744140625 692.0993041992188 956.435546875 692.1000366210938 956.4398193359375 692.1007690429688 C 956.467041015625 692.1054077148438 956.488525390625 692.1090698242188 956.5157470703125 692.1136474609375 C 957.0572509765625 692.20556640625 957.600341796875 692.2970581054688 958.1451416015625 692.38818359375 L 956.495849609375 702.251220703125 C 953.108642578125 701.6846923828125 949.782958984375 701.1032104492188 946.5093994140625 700.5084228515625 L 948.297119140625 690.66943359375 Z M 928.662841796875 686.8402099609375 C 931.15087890625 687.3562622070312 933.6605224609375 687.8661499023438 936.1971435546875 688.3690185546875 C 936.2034912109375 688.3703002929688 936.204833984375 688.3705444335938 936.211181640625 688.371826171875 C 936.256591796875 688.3807983398438 936.30224609375 688.3898315429688 936.34765625 688.3988647460938 C 936.35400390625 688.4000854492188 936.3729248046875 688.4038696289062 936.37939453125 688.4051513671875 C 936.4677734375 688.422607421875 936.5565185546875 688.440185546875 936.64501953125 688.4577026367188 C 936.677001953125 688.4639892578125 936.71337890625 688.47119140625 936.745361328125 688.4775390625 C 936.760498046875 688.48046875 936.77587890625 688.4835205078125 936.791015625 688.4865112304688 C 936.822998046875 688.4928588867188 936.8603515625 688.500244140625 936.892333984375 688.5065307617188 C 936.9091796875 688.5098876953125 936.9261474609375 688.51318359375 936.943115234375 688.5165405273438 C 936.97509765625 688.5228271484375 937.0159912109375 688.5308837890625 937.0479736328125 688.5372314453125 C 937.06689453125 688.5409545898438 937.0860595703125 688.5447387695312 937.10498046875 688.5484619140625 C 937.1304931640625 688.5535278320312 937.1549072265625 688.5582885742188 937.180419921875 688.5633544921875 C 937.2056884765625 688.5682983398438 937.23046875 688.5731811523438 937.2557373046875 688.578125 C 937.2877197265625 688.58447265625 937.328857421875 688.592529296875 937.36083984375 688.598876953125 C 937.377197265625 688.60205078125 937.3936767578125 688.6053466796875 937.4100341796875 688.6085205078125 C 937.4420166015625 688.6148071289062 937.478271484375 688.6219482421875 937.51025390625 688.6282348632812 C 937.527587890625 688.6316528320312 937.545166015625 688.6350708007812 937.5625 688.6384887695312 C 937.5946044921875 688.644775390625 937.6337890625 688.6524658203125 937.665771484375 688.6588134765625 C 937.6865234375 688.662841796875 937.707275390625 688.6669311523438 937.7281494140625 688.6710205078125 C 937.740966796875 688.6735229492188 937.7684326171875 688.6788940429688 937.78125 688.6814575195312 C 937.812255859375 688.6875610351562 937.84326171875 688.693603515625 937.8743896484375 688.69970703125 C 937.912841796875 688.707275390625 937.94189453125 688.7129516601562 937.9803466796875 688.720458984375 C 937.9959716796875 688.7235107421875 938.011474609375 688.7265625 938.027099609375 688.7296142578125 C 938.05908203125 688.7359008789062 938.080078125 688.7400512695312 938.1121826171875 688.7462768554688 C 938.1400146484375 688.7517700195312 938.1676025390625 688.7571411132812 938.1954345703125 688.7625732421875 C 938.2210693359375 688.767578125 938.251953125 688.7736206054688 938.277587890625 688.7786865234375 C 938.301025390625 688.7832641601562 938.324462890625 688.787841796875 938.347900390625 688.7924194335938 C 938.37353515625 688.7974243164062 938.401123046875 688.8027954101562 938.4267578125 688.8078002929688 C 938.4403076171875 688.8104858398438 938.45361328125 688.8130493164062 938.4671630859375 688.815673828125 L 936.5504150390625 698.6301879882812 C 933.199951171875 697.9759521484375 929.8973388671875 697.3089599609375 926.6319580078125 696.6317138671875 L 928.662841796875 686.8402099609375 Z M 909.1221923828125 682.5974731445312 C 910.554443359375 682.919921875 911.990234375 683.2411499023438 913.4298095703125 683.5608520507812 C 915.2427978515625 683.9635620117188 917.0548095703125 684.3623657226562 918.8829345703125 684.7600708007812 L 916.7572021484375 694.5314331054688 L 906.9261474609375 692.3532104492188 L 909.1221923828125 682.5974731445312 Z M 890.4588623046875 678.3222045898438 C 893.309326171875 678.9808959960938 896.1541748046875 679.63818359375 899.001953125 680.2926025390625 C 899.0921630859375 680.3132934570312 899.18701171875 680.3351440429688 899.2772216796875 680.3558349609375 C 899.3089599609375 680.3631591796875 899.3406982421875 680.3704223632812 899.3724365234375 680.377685546875 L 897.1339111328125 690.1239624023438 L 888.2076416015625 688.0654296875 L 890.4588623046875 678.3222045898438 Z M 870.1326904296875 673.6722412109375 C 871.1939697265625 673.9102783203125 872.2420654296875 674.1464233398438 873.2972412109375 674.3850708007812 C 873.3544921875 674.3980102539062 873.4122314453125 674.4110717773438 873.469482421875 674.4240112304688 C 873.4879150390625 674.4281616210938 873.5023193359375 674.4314575195312 873.520751953125 674.4356079101562 C 875.3291015625 674.8449096679688 877.12890625 675.2548828125 878.9224853515625 675.6652221679688 C 879.23876953125 675.7376098632812 879.5694580078125 675.8133544921875 879.8853759765625 675.8857421875 L 877.651611328125 685.6329345703125 L 867.9444580078125 683.429931640625 L 870.1326904296875 673.6721801757812 Z M 850.5916748046875 669.4440307617188 C 850.98046875 669.5245361328125 851.3753662109375 669.6065673828125 851.7628173828125 669.687255859375 C 851.7847900390625 669.6918334960938 851.8067626953125 669.6964111328125 851.82861328125 669.7009887695312 C 851.82861328125 669.7009887695312 851.8292236328125 669.7011108398438 851.8292236328125 669.7011108398438 C 854.7113037109375 670.3018188476562 857.5562744140625 670.9078369140625 860.371337890625 671.5179443359375 L 858.25341796875 681.2909545898438 L 848.5635986328125 679.2362060546875 L 850.5916748046875 669.4439697265625 Z M 830.9661865234375 665.6043090820312 C 834.2979736328125 666.2158203125 837.572509765625 666.8382568359375 840.7899169921875 667.4683227539062 L 838.8681640625 677.281982421875 C 835.6876220703125 676.658935546875 832.45458984375 676.04443359375 829.160888671875 675.43994140625 L 830.9661865234375 665.6041870117188 Z M 811.2548828125 662.241943359375 C 814.609130859375 662.7702026367188 817.8953857421875 663.3101806640625 821.120849609375 663.8607177734375 L 819.4388427734375 673.7182006835938 C 816.254638671875 673.1746826171875 813.0101318359375 672.6417236328125 809.6990966796875 672.1199340820312 L 811.2548828125 662.241943359375 Z M 791.45703125 659.3809814453125 C 794.82861328125 659.824951171875 798.13037109375 660.2814331054688 801.367919921875 660.7492065429688 L 799.938232421875 670.6464233398438 C 796.740966796875 670.1844482421875 793.480712890625 669.7337036132812 790.1513671875 669.2952270507812 L 791.45703125 659.3809814453125 Z M 771.608154296875 657.0097045898438 C 772.607177734375 657.1171875 773.600341796875 657.2257080078125 774.587646484375 657.3353271484375 C 774.60498046875 657.3372802734375 774.62060546875 657.3389892578125 774.637939453125 657.3409423828125 C 774.656494140625 657.343017578125 774.67529296875 657.3450927734375 774.69384765625 657.34716796875 C 777.001708984375 657.603759765625 779.288330078125 657.8674926757812 781.533203125 658.1354370117188 L 780.34765625 668.06494140625 C 777.142578125 667.6824340820312 773.87451171875 667.3112182617188 770.538330078125 666.9522094726562 L 771.608154296875 657.0097045898438 Z M 751.701904296875 655.0894775390625 C 752.699951171875 655.1749877929688 753.692626953125 655.2616577148438 754.679443359375 655.3493041992188 C 754.688720703125 655.3501586914062 754.701171875 655.3512573242188 754.71044921875 655.3521118164062 C 754.7451171875 655.3551635742188 754.779541015625 655.3582153320312 754.814208984375 655.361328125 C 754.861083984375 655.365478515625 754.891357421875 655.3681640625 754.9384765625 655.3723754882812 C 754.953125 655.3736572265625 754.968017578125 655.375 754.982666015625 655.3763427734375 C 755.010986328125 655.3788452148438 755.03173828125 655.3806762695312 755.059814453125 655.3831787109375 C 755.08056640625 655.3850708007812 755.100830078125 655.3869018554688 755.121826171875 655.3887329101562 C 755.140380859375 655.390380859375 755.169921875 655.3930053710938 755.1884765625 655.3947143554688 C 755.213623046875 655.3969116210938 755.238525390625 655.399169921875 755.263427734375 655.4014282226562 C 755.301025390625 655.40478515625 755.3330078125 655.4076538085938 755.37060546875 655.4110107421875 C 755.3984375 655.4135131835938 755.42578125 655.4159545898438 755.45361328125 655.41845703125 C 755.472412109375 655.4201049804688 755.50146484375 655.4227294921875 755.52001953125 655.4243774414062 C 755.533447265625 655.4255981445312 755.546875 655.4268188476562 755.560302734375 655.4280395507812 C 757.609619140625 655.6119995117188 759.6474609375 655.8016967773438 761.648681640625 655.9945068359375 L 760.689697265625 665.9484252929688 C 757.4716796875 665.638427734375 754.192138671875 665.3397216796875 750.84765625 665.052978515625 L 751.701904296875 655.0894775390625 Z M 731.762939453125 653.5781860351562 C 733.768798828125 653.7111206054688 735.753173828125 653.8480224609375 737.7158203125 653.9889526367188 C 737.7158203125 653.9889526367188 737.724853515625 653.9896240234375 737.724853515625 653.9896240234375 C 737.757568359375 653.9920043945312 737.790283203125 653.9943237304688 737.8232421875 653.9967041015625 C 739.13427734375 654.0910034179688 740.43017578125 654.1866455078125 741.722412109375 654.2844848632812 L 740.967529296875 664.2559814453125 L 731.101806640625 663.5562133789062 L 731.762939453125 653.5781860351562 Z M 711.788330078125 652.4307250976562 C 711.944091796875 652.4383544921875 712.10009765625 652.4459838867188 712.255615234375 652.4536743164062 C 712.28857421875 652.455322265625 712.310302734375 652.4563598632812 712.34326171875 652.4580078125 C 712.355224609375 652.4585571289062 712.3671875 652.4591674804688 712.379150390625 652.4597778320312 C 715.557373046875 652.6170043945312 718.693603515625 652.7846069335938 721.76953125 652.9609985351562 L 721.19677734375 662.9444580078125 L 711.299072265625 662.418701171875 L 711.788330078125 652.4307250976562 Z M 691.81298828125 651.6074829101562 C 692.385498046875 651.6267700195312 692.956787109375 651.6463623046875 693.526123046875 651.6663208007812 C 693.576416015625 651.6680908203125 693.631591796875 651.6700439453125 693.6806640625 651.6716918945312 C 693.715576171875 651.6729736328125 693.765625 651.6747436523438 693.800537109375 651.6759033203125 C 695.328125 651.7296752929688 696.821044921875 651.78466796875 698.326171875 651.8426513671875 C 698.35986328125 651.8439331054688 698.400390625 651.8455200195312 698.434326171875 651.8468017578125 C 699.565673828125 651.8905029296875 700.6904296875 651.9353637695312 701.80908203125 651.9814453125 L 701.398193359375 661.9729614257812 L 691.4755859375 661.6016845703125 L 691.81298828125 651.6074829101562 Z M 671.802734375 651.070068359375 C 674.126220703125 651.1170654296875 676.443359375 651.169189453125 678.71826171875 651.2254028320312 C 679.75244140625 651.2509765625 680.781494140625 651.2775268554688 681.8056640625 651.304931640625 L 681.537841796875 661.3012084960938 L 671.600341796875 661.0679321289062 L 671.802734375 651.0699462890625 Z M 651.79931640625 650.7877197265625 C 652.603759765625 650.794189453125 653.412109375 650.8014526367188 654.22509765625 650.8092041015625 C 654.22509765625 650.8092041015625 654.22509765625 650.8092041015625 654.22509765625 650.8092041015625 C 656.77734375 650.833740234375 659.31884765625 650.8638916015625 661.815673828125 650.8990478515625 L 661.6748046875 660.89794921875 L 651.718505859375 660.7874755859375 L 651.79931640625 650.7877197265625 Z M 639.869873046875 650.7387084960938 C 640.470458984375 650.7387084960938 641.0703125 650.739013671875 641.673583984375 650.73974609375 C 641.715576171875 650.7398071289062 641.75732421875 650.7398681640625 641.799072265625 650.7399291992188 L 641.78564453125 660.7399291992188 L 639.8701171875 660.7387084960938 L 631.8505859375 660.762451171875 L 631.790283203125 650.7626953125 C 634.439697265625 650.7468872070312 637.124267578125 650.738525390625 639.869873046875 650.7387084960938 C 639.869873046875 650.7387084960938 639.869873046875 650.7387084960938 639.869873046875 650.7387084960938 C 639.869873046875 650.7387084960938 639.869873046875 650.7387084960938 639.869873046875 650.7387084960938 Z M 621.7978515625 650.8627319335938 L 621.939208984375 660.8616943359375 L 612.024169921875 661.0454711914062 L 611.79296875 651.0482177734375 C 615.04638671875 650.9729614257812 618.380859375 650.9109497070312 621.7978515625 650.8627319335938 Z M 601.79736328125 651.3286743164062 L 602.129150390625 661.3231811523438 C 598.74072265625 661.4357299804688 595.448486328125 661.5634765625 592.249755859375 661.7059326171875 L 591.804443359375 651.7159423828125 C 593.28369140625 651.6500244140625 594.787353515625 651.5870361328125 596.306396484375 651.52734375 C 596.339599609375 651.5260620117188 596.372314453125 651.5247802734375 596.4052734375 651.5234985351562 C 596.410400390625 651.5233154296875 596.424072265625 651.5227661132812 596.42919921875 651.5225830078125 C 598.19140625 651.45361328125 599.980712890625 651.3889770507812 601.79736328125 651.3286743164062 Z M 581.823974609375 652.2241821289062 L 582.398681640625 662.2077026367188 C 579.008056640625 662.4029541015625 575.733642578125 662.61572265625 572.57177734375 662.845458984375 L 571.847412109375 652.8717041015625 C 572.208984375 652.8455200195312 572.579345703125 652.8189086914062 572.94384765625 652.7930908203125 C 575.81298828125 652.5899047851562 578.77197265625 652.3999633789062 581.823974609375 652.2241821289062 Z M 561.87548828125 653.6821899414062 L 562.77587890625 663.6414794921875 C 559.383544921875 663.9481811523438 556.13818359375 664.2759399414062 553.033447265625 664.6229248046875 L 551.92236328125 654.6849365234375 C 552.6650390625 654.6018676757812 553.415283203125 654.5199584960938 554.173828125 654.4390869140625 C 554.177490234375 654.438720703125 554.179443359375 654.4384765625 554.18310546875 654.4381103515625 C 554.228759765625 654.4332275390625 554.2744140625 654.4284057617188 554.320068359375 654.4235229492188 C 554.32373046875 654.4231567382812 554.327392578125 654.4227905273438 554.3310546875 654.42236328125 C 554.3681640625 654.4183959960938 554.406005859375 654.4144287109375 554.443115234375 654.4104614257812 C 555.4853515625 654.300048828125 556.5380859375 654.192138671875 557.6103515625 654.0859375 C 557.641357421875 654.0828247070312 557.672607421875 654.0797729492188 557.70361328125 654.0767211914062 C 557.72607421875 654.074462890625 557.7431640625 654.07275390625 557.765869140625 654.070556640625 C 557.802001953125 654.0670166015625 557.838623046875 654.0633544921875 557.874755859375 654.059814453125 C 557.87841796875 654.0594482421875 557.8798828125 654.059326171875 557.883544921875 654.0589599609375 C 557.987060546875 654.0487060546875 558.091064453125 654.0385131835938 558.195068359375 654.0283813476562 C 558.195068359375 654.0283813476562 558.198486328125 654.0280151367188 558.198486328125 654.0280151367188 C 559.405029296875 653.9100341796875 560.630615234375 653.7947387695312 561.87548828125 653.6821899414062 Z M 542.000244140625 655.9202270507812 L 543.369384765625 665.825927734375 C 539.990478515625 666.293212890625 536.80859375 666.7857055664062 533.81396484375 667.3012084960938 L 532.117431640625 657.4462280273438 C 532.140380859375 657.4422607421875 532.163330078125 657.4382934570312 532.18603515625 657.4343872070312 C 532.200439453125 657.4319458007812 532.21142578125 657.4300537109375 532.2255859375 657.4276123046875 C 532.2353515625 657.4259643554688 532.2451171875 657.4242553710938 532.254638671875 657.422607421875 C 533.350341796875 657.234619140625 534.466796875 657.050048828125 535.611328125 656.8680419921875 C 537.30517578125 656.5985717773438 539.052734375 656.3359375 540.856201171875 656.0803833007812 C 541.23681640625 656.0264282226562 541.614501953125 655.9735717773438 542.000244140625 655.9202270507812 Z M 522.302978515625 659.3472290039062 L 524.43115234375 669.1182250976562 C 521.1103515625 669.8414306640625 518.086669921875 670.596435546875 515.33642578125 671.3784790039062 L 512.6015625 661.7597045898438 C 513.88427734375 661.3949584960938 515.222412109375 661.0355834960938 516.61865234375 660.6820678710938 C 516.620849609375 660.6815185546875 516.624267578125 660.6806030273438 516.62646484375 660.6799926757812 C 516.644775390625 660.6754150390625 516.662841796875 660.6708984375 516.680908203125 660.666259765625 C 516.6875 660.6646118164062 516.695556640625 660.6625366210938 516.702392578125 660.660888671875 C 516.72314453125 660.6555786132812 516.744140625 660.6502685546875 516.76513671875 660.64501953125 C 516.771728515625 660.643310546875 516.778076171875 660.6417236328125 516.784912109375 660.6400146484375 C 516.79931640625 660.6364135742188 516.814208984375 660.6326293945312 516.82861328125 660.6290283203125 C 516.837646484375 660.6267700195312 516.851806640625 660.6231689453125 516.86083984375 660.6209106445312 C 516.869873046875 660.6185913085938 516.87939453125 660.6162719726562 516.888427734375 660.6139526367188 C 516.908447265625 660.60888671875 516.933837890625 660.6025390625 516.953857421875 660.5975341796875 C 516.961669921875 660.5955810546875 516.968994140625 660.5936889648438 516.976806640625 660.591796875 C 516.992431640625 660.587890625 517.005859375 660.5845336914062 517.021484375 660.5806274414062 C 517.024169921875 660.5798950195312 517.027099609375 660.5791625976562 517.02978515625 660.5784912109375 C 518.703369140625 660.1595458984375 520.4619140625 659.7483520507812 522.302978515625 659.3472900390625 Z M 503.117431640625 664.9227294921875 L 506.781982421875 674.2269287109375 C 504.28515625 675.2103271484375 502.10693359375 676.2378540039062 500.291748046875 677.288330078125 L 500.291748046875 685.2177124023438 L 490.291748046875 685.2177124023438 L 490.291748046875 675.2177124023438 L 497.828369140625 675.2177124023438 L 494.1494140625 669.3134765625 C 495.0556640625 668.7486572265625 496.04052734375 668.1875610351562 497.113525390625 667.6294555664062 C 497.119140625 667.6265869140625 497.124755859375 667.6235961914062 497.13037109375 667.6207275390625 C 497.143798828125 667.6137084960938 497.15673828125 667.6069946289062 497.170166015625 667.5999755859375 C 497.18017578125 667.5948486328125 497.189697265625 667.5899047851562 497.199462890625 667.5847778320312 C 497.210693359375 667.5790405273438 497.220947265625 667.5737915039062 497.23193359375 667.5679931640625 C 497.24609375 667.5607299804688 497.26025390625 667.5534057617188 497.2744140625 667.546142578125 C 497.28173828125 667.5422973632812 497.28857421875 667.5387573242188 497.296142578125 667.5349731445312 C 497.3115234375 667.5270385742188 497.326171875 667.5194091796875 497.341552734375 667.511474609375 C 497.347900390625 667.50830078125 497.3515625 667.5064086914062 497.357666015625 667.5032348632812 C 497.375244140625 667.4942626953125 497.392822265625 667.4852294921875 497.410400390625 667.4762573242188 C 497.4140625 667.474365234375 497.41845703125 667.4721069335938 497.422119140625 667.47021484375 C 497.44287109375 667.4595947265625 497.4638671875 667.4488525390625 497.484619140625 667.4382934570312 C 497.48583984375 667.4376220703125 497.486083984375 667.4375 497.4873046875 667.4368896484375 C 497.5087890625 667.4259033203125 497.530517578125 667.4149780273438 497.552001953125 667.4039916992188 C 497.55322265625 667.4033813476562 497.5537109375 667.4031982421875 497.554931640625 667.4025268554688 C 499.205322265625 666.5641479492188 501.05322265625 665.7357177734375 503.117431640625 664.9227294921875 Z M 480.291748046875 656.9072265625 L 490.291748046875 656.9072265625 C 490.291748046875 656.9072265625 490.291748046875 666.9072265625 490.291748046875 666.9072265625 L 485.77099609375 666.9072265625 L 490.291748046875 672.1246948242188 C 489.841552734375 672.5146484375 489.424560546875 672.9046020507812 489.03955078125 673.2940063476562 C 489.0380859375 673.2952880859375 489.037109375 673.2962646484375 489.035888671875 673.2975463867188 C 489.028564453125 673.3048706054688 489.021484375 673.3121948242188 489.01416015625 673.3195190429688 C 488.90087890625 673.434326171875 488.791015625 673.5484008789062 488.683349609375 673.6631469726562 L 481.496337890625 666.9072265625 L 480.291748046875 666.9072265625 L 480.291748046875 656.9072265625 Z M 480.291748046875 636.9072265625 L 490.291748046875 636.9072265625 C 490.291748046875 636.9072265625 490.291748046875 646.9072265625 490.291748046875 646.9072265625 L 480.291748046875 646.9072265625 L 480.291748046875 636.9072265625 Z M 480.291748046875 616.9072265625 L 490.291748046875 616.9072265625 C 490.291748046875 616.9072265625 490.291748046875 626.9072265625 490.291748046875 626.9072265625 L 480.291748046875 626.9072265625 L 480.291748046875 616.9072265625 Z M 480.291748046875 596.9072265625 L 490.291748046875 596.9072265625 C 490.291748046875 596.9072265625 490.291748046875 606.9072265625 490.291748046875 606.9072265625 L 480.291748046875 606.9072265625 L 480.291748046875 596.9072265625 Z M 480.291748046875 576.9072265625 L 490.291748046875 576.9072265625 C 490.291748046875 576.9072265625 490.291748046875 586.9072265625 490.291748046875 586.9072265625 L 480.291748046875 586.9072265625 L 480.291748046875 576.9072265625 Z M 480.291748046875 556.9072265625 L 490.291748046875 556.9072265625 C 490.291748046875 556.9072265625 490.291748046875 566.9072265625 490.291748046875 566.9072265625 L 480.291748046875 566.9072265625 L 480.291748046875 556.9072265625 Z M 484.8974609375 682.62744140625 C 484.903076171875 682.7871704101562 484.912109375 682.9456176757812 484.924560546875 683.10302734375 C 484.924560546875 683.10302734375 484.924560546875 683.1033325195312 484.924560546875 683.1033325195312 C 484.92578125 683.1201171875 484.92724609375 683.13671875 484.9287109375 683.1534423828125 C 484.9287109375 683.1550903320312 484.928955078125 683.1565551757812 484.928955078125 683.158203125 C 484.93115234375 683.1834716796875 484.933349609375 683.2086181640625 484.935546875 683.2338256835938 C 484.93603515625 683.2371215820312 484.936279296875 683.2411499023438 484.9365234375 683.2444458007812 C 484.937744140625 683.2567138671875 484.93896484375 683.26904296875 484.93994140625 683.28125 C 484.9404296875 683.2868041992188 484.94091796875 683.2915649414062 484.941650390625 683.2970581054688 C 484.9423828125 683.3069458007812 484.943359375 683.3165893554688 484.9443359375 683.3264770507812 C 484.945068359375 683.3330688476562 484.945556640625 683.3390502929688 484.9462890625 683.3456420898438 C 484.947021484375 683.3524169921875 484.94775390625 683.3590087890625 484.948486328125 683.3658447265625 C 484.949462890625 683.3762817382812 484.950439453125 683.3855590820312 484.951416015625 683.39599609375 C 484.9521484375 683.4011840820312 484.95263671875 683.4061279296875 484.953125 683.4112548828125 C 484.953857421875 683.4189453125 484.954833984375 683.4277954101562 484.955810546875 683.4354858398438 C 484.95654296875 683.4418334960938 484.95703125 683.4478149414062 484.957763671875 683.4541015625 C 484.958740234375 683.4634399414062 484.9599609375 683.4732666015625 484.9609375 683.4825439453125 C 484.96142578125 683.4872436523438 484.9619140625 683.4918823242188 484.962646484375 683.49658203125 C 484.9638671875 683.507568359375 484.965087890625 683.5189208984375 484.96630859375 683.5299072265625 C 484.967041015625 683.5345458984375 484.967529296875 683.5390625 484.968017578125 683.5437622070312 C 484.969482421875 683.5546875 484.970703125 683.5650024414062 484.971923828125 683.575927734375 C 484.972412109375 683.5789184570312 484.97265625 683.5823974609375 484.97314453125 683.58544921875 C 484.974365234375 683.5963745117188 484.975830078125 683.6083374023438 484.977294921875 683.6192626953125 C 484.9775390625 683.6222534179688 484.97802734375 683.6254272460938 484.978515625 683.6284790039062 C 484.97998046875 683.6410522460938 484.981689453125 683.6531372070312 484.983154296875 683.6657104492188 C 484.983642578125 683.668701171875 484.98388671875 683.6713256835938 484.984375 683.6743774414062 C 484.986083984375 683.6868896484375 484.98779296875 683.7003173828125 484.989501953125 683.7128295898438 C 484.98974609375 683.7144775390625 484.98974609375 683.7158813476562 484.989990234375 683.7174682617188 C 484.99169921875 683.7305297851562 484.99365234375 683.7440185546875 484.995361328125 683.757080078125 C 484.99560546875 683.7577514648438 484.99560546875 683.7584838867188 484.99560546875 683.7592163085938 C 484.99755859375 683.7733154296875 484.99951171875 683.7871704101562 485.001708984375 683.80126953125 C 485.001708984375 683.8021850585938 485.001953125 683.8035888671875 485.001953125 683.8045043945312 C 485.004150390625 683.818603515625 485.006103515625 683.8330078125 485.00830078125 683.8471069335938 C 485.00830078125 683.8473510742188 485.00830078125 683.8474731445312 485.00830078125 683.8477172851562 C 485.501953125 687.2286987304688 487.447021484375 690.009521484375 488.83349609375 691.6174926757812 L 481.259765625 698.147216796875 C 478.490478515625 694.9354248046875 475.139892578125 689.6964721679688 474.903564453125 682.9789428710938 L 484.8974609375 682.62744140625 Z" stroke="none" fill="#7e3dfe"/>
    </g>
  </g>
</svg>
