<svg id="l5" xmlns="http://www.w3.org/2000/svg" xmlns:xlink="http://www.w3.org/1999/xlink" width="96" height="80" viewBox="0 0 96 80">
  <defs>
    <clipPath id="clip-path">
      <path id="Path_107341" data-name="Path 107341" d="M1096.028,162.588l-10.732-5.8-31.934,1.332-11.757,4.341-.043,8.792,55-4.8Z" fill="none"/>
    </clipPath>
    <clipPath id="clip-path-2">
      <path id="Path_107342" data-name="Path 107342" d="M43.632,8.666l-8.6,5.8L9.453,13.133l-8.4-4.064L0,0,44.06,4.8Z" transform="translate(0 0)" fill="none"/>
    </clipPath>
  </defs>
  <rect id="Rectangle_5578" data-name="Rectangle 5578" width="96" height="80" fill="none"/>
  <g id="Group_66164" data-name="Group 66164" transform="translate(-1021.053 -126.719)">
    <g id="Mask_Group_51" data-name="Mask Group 51" transform="matrix(0.998, 0.07, -0.07, 0.998, 14.036, -74.67)" clip-path="url(#clip-path)">
      <path id="Path_107333_-_Outline" data-name="Path 107333 - Outline" d="M7.246,21.776c.2-3.758.9-11.586,1.733-17.531C9.931-2.521,10.4-7.007,11.046-9.49c2.809-.523,10.761-2.59,17.932-2.59,7.114,0,14.486-.217,16.735,2.59S52.847,19.6,52.847,19.6a161.276,161.276,0,0,0-23.869-2.044c-9.257,0-17.489,2.809-21.732,4.224M4.913,23.043C5.358,25.526,16.12,19.6,28.978,19.6A159.315,159.315,0,0,1,55.2,22.183l-7.289-34.3a104.835,104.835,0,0,0-18.937-2.01,103.613,103.613,0,0,0-18.869,2.01A139.467,139.467,0,0,0,6.646,4.644C5.369,13.729,4.468,20.561,4.913,23.043Z" transform="translate(1038 140.369)"/>
    </g>
    <g id="_5421635165" data-name="5421635165" transform="translate(1043.296 131.42)">
      <g id="_030203ff" data-name="#030203ff" transform="translate(0 0)">
        <path id="Path_107294" data-name="Path 107294" d="M59.973,36.505c.279-.031.559-.058.838-.085,1.9,2.544,3.784,5.1,5.7,7.626a5.213,5.213,0,0,1,.746,2.68c.32,3.246.954,6.451,1.277,9.7a27.745,27.745,0,0,0,.685,4.087c.211-3.583-.419-7.152-.255-10.742,1.533-2.844,2.81-5.824,4.421-8.62.235-.654.96-.072,1.114.317,1.533,2.473,2.984,5,4.55,7.452a2.545,2.545,0,0,1,.5,1.3c.092,1.645.054,3.293.174,4.939,1.318-1.672,2.067-3.7,3.28-5.439.174-.286.538-.3.817-.426q.909,1.691,1.836,3.379c.385-1.025.542-2.118.886-3.157a12.276,12.276,0,0,1,1.87-2.166c1.717-1.706,3.232-3.607,4.99-5.276.255-.29.664-.153,1-.187.882,3.351,1.8,6.7,2.568,10.071-.8,3.89-2.006,7.7-2.8,11.59,1.335-3.021,2.7-6.032,4.033-9.056a3.233,3.233,0,0,1,1.216-1.226c2.061-1.465,4.039-3.038,6.052-4.564a4.929,4.929,0,0,1,1.71-.845c.6,2.915.552,5.913.943,8.855A5.034,5.034,0,0,1,108,59.021c-4.2,9.257-8.235,18.593-12.465,27.84,1.832.109-35.179-4.29-33.9-2.558.533.718-4.744-29.756-4.138-28.964-.293-3.065-.872-6.1-1.134-9.172,1.015-3.28,2.483-6.413,3.6-9.662m-.467,4.758c-.7,1.5-1.178,3.082-1.832,4.6a1.889,1.889,0,0,0,0,1.359c.433-.661.848-1.335,1.294-1.989.909.47,1.362,1.676,2.364,1.883.46-.756.851-1.55,1.318-2.3.984.3,1.482,1.274,2.146,1.982.245-.657.851-1.277.739-2-.926-1.356-1.982-2.619-2.946-3.944a27.68,27.68,0,0,1-3.082.416M71.284,47.9c-.477,1.124-1.373,2.132-1.325,3.419.736-.344.872-1.315,1.611-1.625a6.048,6.048,0,0,1,1.785,2.033c1.046-.4,1.121-2.023,2.275-2.112.555.579.971,1.281,1.505,1.88.6-.276.715-1.08,1.086-1.584-.838-1.434-1.737-2.834-2.585-4.264-1.039,0-2.078-.02-3.11.078A7.658,7.658,0,0,0,71.284,47.9m20.047-1.8c-.824.674-1.471,1.526-2.224,2.272-.62.685-1.519,1.264-1.529,2.292.688-.269,1.3-1.366,2.091-.879a15.367,15.367,0,0,1,.943,2.462c.995-.463,1.608-1.723,2.83-1.57.218.736.426,1.475.712,2.187.647,0,1.035-.715,1.553-1.039-.255-1.723-.875-3.358-1.291-5.044-1.046-.126-2.044-.661-3.086-.681m-28.715.838-.15.9a4.086,4.086,0,0,0-.824,1.1h-1.1l.051-.46c-.467-.351-.865-1.349-1.516-1.155A5.272,5.272,0,0,0,58.042,49.9c.862,6.58,1.778,13.15,2.7,19.72a16.518,16.518,0,0,0,.49,3.14l-.065.49.45,0-.528.385.708-.031a19.944,19.944,0,0,0,.177,3.927,8.289,8.289,0,0,1,.279,2.387c.255.324.521.64.79.954l-.565-.1c-.075,1.952.48,3.852.548,5.8l.232-.048c2.347.2,4.71.017,7.064.116-.266-4.557-.324-9.124-.651-13.678-.855-6.812-1.941-13.593-2.806-20.4-.266-1.805-.412-3.637-.845-5.415-.371.456-.467,1.43-1.23,1.267-.8-.392-1.124-1.652-2.176-1.468m24.137,6.509c-.528,1.339.79,2.418,1.233,3.586a4.855,4.855,0,0,1,.845,2.067c.068,3.12-.225,6.243-.034,9.363-.01,3.712-.286,7.442-.01,11.151C91.038,71.1,93.055,62.516,95.333,54c-.715.453-1.863,1.073-2.207-.174l.092-.157c-.153-.463-.313-.92-.47-1.379-.913.443-1.594,1.23-2.507,1.676-.262-.47-.518-.937-.78-1.407a11.729,11.729,0,0,0-.385-1.308,5.33,5.33,0,0,0-2.323,2.2m-16.644.565c.351,7.707.708,15.418.995,23.126l-.031.269.453-.007-.5.484.937.109-.644.027c.017,1.853,0,3.706.153,5.555a18.825,18.825,0,0,0-.014,3.069c.828.041,1.655.072,2.483.054,1.291-.027,2.653.276,3.893-.194-.092-9.029.119-18.065.092-27.1-.167-1.008.824-1.727.742-2.714a40.81,40.81,0,0,0-.344-4.516c-.351.691-.828,1.274-1.683,1.042-.1-.215-.31-.647-.412-.865l0-.061c-.293-.317-.579-.647-.855-.981a16.043,16.043,0,0,1-1.7,2.326c-.341-.276-.681-.555-1.015-.838-.344-.416-.545-1.059-1.107-1.216a5.807,5.807,0,0,0-1.441,2.428m29.573.582c-.388.235-.422.719-.582,1.1.7-.283,1.342-.984,2.153-.811a11.123,11.123,0,0,1,.593,2.749,17.839,17.839,0,0,1,2.871-1.226c.245.892.426,1.8.586,2.714.545-.337,1.083-.681,1.625-1.029a44.006,44.006,0,0,0-.467-5.184c-.974-.375-1.921-.811-2.864-1.25-1.291,1-2.629,1.935-3.913,2.939m-17.888-.429c-.7,1.471-1.652,2.8-2.374,4.261a2.951,2.951,0,0,0-.143,1.315c.524-.647.916-1.543,1.822-1.706.524.8,1.093,1.57,1.655,2.343a12.069,12.069,0,0,1,1.74-2.217c1.022.16,1.25,1.427,1.86,2.129.371-.525.753-1.049,1.144-1.56-.668-1.563-1.686-2.946-2.323-4.523-1.127-.075-2.255-.078-3.382-.041M98.1,57.7c-1.063,2.326-2.088,4.669-3.13,7-1.206,2.878-2.823,5.626-3.375,8.733-.3,1.665-1.056,3.256-1.117,4.952a51.909,51.909,0,0,0-1.57,5.589,5.569,5.569,0,0,0-.184,2.919c1.853-.072,3.716.112,5.562-.068,4.005-8.889,7.871-17.84,11.944-26.7a9.474,9.474,0,0,1-1.723.623c-.163-.412-.327-.821-.494-1.23a5.213,5.213,0,0,0,.075-1.345,6.169,6.169,0,0,0-2.629,1.182,2.192,2.192,0,0,1-.777-1.958l-.02.14-.327-1.144c-.739.446-1.485.879-2.234,1.3M61.091,86.551l.133.007M79.274,61.784c-.034,7.507-.143,15.013-.1,22.52-.058.824-.017,1.652-.027,2.479,2.732-.051,5.463.078,8.195.044.027-8.6.116-17.2.1-25.8a.976.976,0,0,0-.422.892,1.393,1.393,0,0,1-1.608-.7,5.036,5.036,0,0,0-.7-1.407c-.668.678-1.134,1.533-1.832,2.176-.572-.017-.858-.576-1.26-.9l.014-.269c-.249-.351-.5-.705-.742-1.059a17.342,17.342,0,0,0-1.611,2.016" transform="translate(-56.37 -36.42)" fill="#030203"/>
        <path id="Path_107294_-_Outline" data-name="Path 107294 - Outline" d="M88.358,87.413l-.113-.367a3.453,3.453,0,0,1-.126-.588l-.274-.031,0,.894-.492.006c-.315,0-.636.006-.982.006-.977,0-1.968-.016-2.927-.031s-1.942-.031-2.911-.031c-.491,0-.94,0-1.372.012l-.516.01.006-.516c0-.277,0-.561,0-.836,0-.158,0-.318,0-.48l-.323-.032q0,.538.01,1.076l0,.349-.326.124a5.223,5.223,0,0,1-1.891.3c-.348,0-.7-.019-1.036-.037-.394-.021-.764-.042-1.133-.034-.159,0-.324,0-.491,0-.718,0-1.428-.03-2.027-.06l-.492-.024.016-.492c.012-.36-.01-.728-.033-1.116-.015-.245-.03-.5-.036-.748l-.16-.012c.032.662.064,1.274.1,1.857l.032.552-.552-.023c-.5-.021-1.034-.031-1.689-.031-.422,0-.853,0-1.269.008s-.851.008-1.278.008c-.761,0-1.759-.011-2.777-.1l-.74.152-.021-.592a20.087,20.087,0,0,0-.22-2.13c-.07.009-.127.018-.174.026a.518.518,0,0,1-.109.17.509.509,0,0,1-.47.146l-.339.231-.021-.505a.615.615,0,0,1-.077-.41.591.591,0,0,1,.05-.157c-.1-1.192-.718-5.239-1.433-9.776l-.265.01.239-.174c-.176-1.115-.357-2.258-.537-3.394-.58-3.659-1.179-7.442-1.6-10.3-.23-1.545-.39-2.692-.49-3.507-.056-.454-.091-.8-.109-1.044a1.691,1.691,0,0,1,.019-.581c-.137-1.382-.334-2.784-.525-4.141-.222-1.584-.452-3.222-.591-4.848l-.008-.1.029-.093c.579-1.872,1.313-3.719,2.023-5.5.542-1.362,1.1-2.771,1.585-4.174l.1-.3.315-.035c.282-.031.568-.059.844-.086l.281-.027.169.226,1.405,1.887c1.4,1.882,2.847,3.827,4.289,5.725a4.141,4.141,0,0,1,.768,2.3c.025.212.049.412.081.605l0,.034c.16,1.619.4,3.262.638,4.85l.054.366c-.017-.715-.016-1.432.017-2.148l.005-.114.054-.1c.657-1.22,1.279-2.489,1.881-3.718.792-1.617,1.611-3.288,2.527-4.881a.859.859,0,0,1,.8-.579,1.516,1.516,0,0,1,1.209.88c.635,1.026,1.266,2.075,1.876,3.091.857,1.426,1.742,2.9,2.651,4.324l.012.019.08.137a2.656,2.656,0,0,1,.488,1.409c.041.747.057,1.5.071,2.232.008.4.016.808.029,1.217.338-.551.648-1.127.968-1.722a25.382,25.382,0,0,1,1.467-2.494,1.329,1.329,0,0,1,.819-.533,1.762,1.762,0,0,0,.206-.071l.427-.2.223.415c.41.762.818,1.514,1.265,2.334.048-.186.094-.376.141-.569.117-.48.239-.977.4-1.464l.014-.044.022-.04a7.734,7.734,0,0,1,1.381-1.684c.2-.2.381-.383.557-.577l.018-.018c.771-.767,1.519-1.592,2.241-2.39.873-.965,1.776-1.962,2.743-2.881a1.147,1.147,0,0,1,.889-.341c.066,0,.129,0,.189.005a1.9,1.9,0,0,0,.227,0l.425-.043.109.414q.246.936.495,1.871c.712,2.686,1.449,5.463,2.077,8.216l.024.106-.022.106c-.4,1.932-.9,3.869-1.39,5.743l-.158.609c.605-1.354,1.225-2.742,1.83-4.113a2.984,2.984,0,0,1,1.138-1.254c.082-.06.159-.117.233-.175l.016-.012c1.433-1.019,2.854-2.111,4.228-3.168.591-.455,1.2-.925,1.808-1.384a5.382,5.382,0,0,1,1.876-.929l.521-.153.109.532a41.156,41.156,0,0,1,.621,5.333c.085,1.171.172,2.382.328,3.557l0,.044c.007.151.019.306.032.469a4.134,4.134,0,0,1-.2,2.065c-1.929,4.253-3.855,8.591-5.717,12.787-2.159,4.865-4.39,9.892-6.642,14.819a.475.475,0,0,1,0,.074.506.506,0,0,1-.2.358l-.066.144-.247-.043-.083,0-.729-.043.031-.068-.157-.02-.032.072-.288.028c-.59.058-1.231.085-2.018.085-.437,0-.88-.008-1.308-.016s-.862-.016-1.29-.016c-.359,0-.678.006-.975.017ZM80.53,86.271c.977,0,1.968.016,2.927.031s1.942.031,2.911.031h.478v-.015c-2.45-.27-4.919-.529-7.2-.757,0,.125,0,.249,0,.372s0,.228,0,.343C79.931,86.272,80.222,86.271,80.53,86.271Zm14.553.005.163.022c2.231-4.885,4.443-9.869,6.584-14.692,1.863-4.2,3.789-8.537,5.718-12.79a3.287,3.287,0,0,0,.113-1.576c-.013-.157-.026-.32-.033-.482-.159-1.2-.247-2.417-.332-3.6a45.452,45.452,0,0,0-.5-4.645,3.97,3.97,0,0,0-1.015.576l-.01.008c-.6.458-1.215.928-1.807,1.383-1.379,1.06-2.8,2.156-4.25,3.184-.082.063-.165.124-.245.183a2.16,2.16,0,0,0-.8.824l-.008.019c-.684,1.549-1.386,3.119-2.065,4.638-.647,1.448-1.316,2.944-1.968,4.418l-.947-.3c.4-1.985.922-3.974,1.422-5.9.475-1.827.966-3.715,1.356-5.587-.619-2.7-1.344-5.433-2.044-8.076q-.2-.751-.4-1.5l-.081,0c-.1,0-.147.011-.156.021l-.031.032c-.944.9-1.839,1.885-2.7,2.84-.728.8-1.482,1.636-2.268,2.419-.189.207-.387.407-.579.6a7.071,7.071,0,0,0-1.192,1.422c-.141.434-.249.876-.363,1.342a15.514,15.514,0,0,1-.514,1.789l-.383,1.021-.523-.957c-.605-1.107-1.125-2.06-1.636-3.008a.365.365,0,0,0-.151.075l-.017.026A24.516,24.516,0,0,0,82,52.412a20.584,20.584,0,0,1-1.883,3.056l-.8,1.013L79.229,55.2c-.066-.914-.085-1.837-.1-2.731-.015-.728-.03-1.481-.071-2.216v-.042a1.83,1.83,0,0,0-.349-.9l-.079-.135c-.914-1.433-1.8-2.909-2.659-4.337-.615-1.023-1.25-2.081-1.889-3.111l-.024-.038-.016-.042a.7.7,0,0,0-.218-.246c-.906,1.573-1.723,3.24-2.512,4.851-.589,1.2-1.2,2.446-1.844,3.651a49.587,49.587,0,0,0,.14,5.052,46.361,46.361,0,0,1,.12,5.584l-.987.08a28.22,28.22,0,0,1-.695-4.154c-.16-1.6-.4-3.223-.632-4.792-.236-1.595-.48-3.243-.642-4.882-.035-.212-.061-.428-.085-.638a3.276,3.276,0,0,0-.546-1.785l-.017-.021c-1.448-1.9-2.9-3.856-4.3-5.743l-1.236-1.66-.238.024c-.466,1.323-.989,2.64-1.5,3.916-.691,1.738-1.4,3.534-1.968,5.337.137,1.568.361,3.158.577,4.7.2,1.43.408,2.908.548,4.373l.166,1.74-.07-.091c.351,2.739,1.28,8.6,2.061,13.533.155.976.308,1.945.457,2.888l.037-.027.069-.522a9.844,9.844,0,0,1-.366-2.148c-.032-.336-.062-.653-.108-.97-.884-6.29-1.82-12.992-2.7-19.727l0-.027v-.027a4.749,4.749,0,0,1,.891-2.481c.072-.122.141-.237.206-.352l.1-.174.192-.057a1.076,1.076,0,0,1,.308-.046,1.774,1.774,0,0,1,1.3.882,2.547,2.547,0,0,0,.355.4l.228.171-.021.188h.272l.052-.086A3.405,3.405,0,0,1,62,47.581l.146-.879c-.126.224-.255.45-.39.672l-.183.3-.345-.072a3.1,3.1,0,0,1-1.621-1.148,6.407,6.407,0,0,0-.508-.525c-.18.273-.357.55-.53.82-.156.244-.317.5-.479.743l-.672,1.026-.237-1.2c-.012-.06-.025-.121-.038-.182a2.041,2.041,0,0,1,.08-1.495c.281-.654.536-1.337.782-2,.319-.855.649-1.739,1.046-2.59l.126-.27.3-.018a27.372,27.372,0,0,0,3.026-.409l.307-.053.183.252c.391.538.807,1.077,1.209,1.6.586.76,1.191,1.546,1.746,2.358l.064.094.017.112a2.577,2.577,0,0,1-.477,1.683,4.276,4.276,0,0,0-.288.571l-.282.755-.551-.588c-.193-.206-.369-.428-.54-.642a4.244,4.244,0,0,0-1.039-1.047c-.157.269-.308.543-.456.811l-.133.24.267-.047a1.685,1.685,0,0,1,.289-.026,2.1,2.1,0,0,1,1.579.961,2.642,2.642,0,0,0,.555.543h0c.1,0,.231-.283.328-.489a2.9,2.9,0,0,1,.351-.612l.636-.781.238.979a35.007,35.007,0,0,1,.64,3.867c.067.524.135,1.066.213,1.593v.01c.422,3.327.906,6.7,1.374,9.969.489,3.417,1,6.951,1.433,10.437l0,.026c.115,1.6.2,3.222.267,4.827l.1-.1.061-.533c-.261-7.037-.588-14.193-.9-21.115l-.092-2.02.008-.05a5.025,5.025,0,0,1,1.247-2.288c.1-.127.2-.248.292-.368l.206-.268.325.091A1.992,1.992,0,0,1,72.8,52.125c.075.121.147.236.22.33.181.153.375.314.593.493a16.2,16.2,0,0,0,1.338-1.891l.365-.6L75.76,51c.286.346.567.669.837.96l.144.156-.008.146.236.494.01.021H77c.225,0,.5-.1.871-.82l.663-1.308.274,1.441a20.689,20.689,0,0,1,.274,3.071c.019.494.039,1,.077,1.5a2.878,2.878,0,0,1-.431,1.565,1.864,1.864,0,0,0-.317,1.106l.007.04v.04c.012,3.98-.023,8.025-.056,11.937-.037,4.287-.075,8.714-.052,13.075l.342.033h.009q0-.087.01-.17c-.03-5.039.01-10.16.049-15.112.019-2.423.039-4.929.05-7.394v-.16l.117-.162a17.537,17.537,0,0,1,1.636-2.041l.424-.433.345.5c.232.335.474.68.739,1.055l.1.141-.01.2c.068.066.131.134.194.2a1.825,1.825,0,0,0,.4.359,10.157,10.157,0,0,0,.751-.917,10.561,10.561,0,0,1,.88-1.062l.5-.5.309.637a4.266,4.266,0,0,0,.245.415,3.119,3.119,0,0,1,.476,1,1.083,1.083,0,0,0,.674.475,1.506,1.506,0,0,1,.584-.857l.8-.6,0,1c.013,5.506-.019,11.1-.05,16.517-.015,2.582-.03,5.247-.04,7.878l.232.026h0l.034,0a11.271,11.271,0,0,1,.27-1.432l.039-.165c.124-.475.244-.962.36-1.433a35.3,35.3,0,0,1,1.2-4.132,12.957,12.957,0,0,1,.631-3.019,17.975,17.975,0,0,0,.49-1.918,26.615,26.615,0,0,1,2.348-6.483c.358-.77.728-1.567,1.058-2.355l0-.011q.506-1.132,1.008-2.266c.69-1.556,1.4-3.164,2.124-4.74l.067-.147.141-.08c.837-.475,1.564-.9,2.223-1.3l.56-.338.507,1.773-.07.02.108.012a1.847,1.847,0,0,0,.353,1.3c.1-.059.2-.12.3-.183a4.511,4.511,0,0,1,2.243-.877l.439-.013c-.047-.213-.1-.431-.152-.65a8.009,8.009,0,0,0-1.149.53,9.674,9.674,0,0,1-1.193.558l-.578.21-.087-.609q-.025-.178-.05-.357a10.547,10.547,0,0,0-.4-1.984,2.5,2.5,0,0,0-.881.4,5.035,5.035,0,0,1-.731.392l-1.117.45L98.64,55.5c.033-.079.063-.174.094-.274a1.725,1.725,0,0,1,.661-1.037c.666-.521,1.355-1.029,2.022-1.52.618-.456,1.257-.927,1.872-1.4l.241-.187.277.129c.992.462,1.89.874,2.833,1.237l.265.1.048.28a41.834,41.834,0,0,1,.457,4.935l.032.6-.245.157c-.521.334-1.075.689-1.631,1.033l-.628.389-.128-.727c-.065-.372-.144-.8-.239-1.26l.014.193a5.72,5.72,0,0,1-.056,1.326c.086.212.177.437.276.685a10.806,10.806,0,0,0,1.218-.479l1.218-.55-.558,1.214c-2.436,5.3-4.838,10.719-7.16,15.961-1.449,3.271-2.945,6.647-4.439,9.972h0ZM74.11,86.2c.343,0,.69.019,1.025.037s.66.036.981.036a4.8,4.8,0,0,0,1.21-.129q0-.407-.007-.813c-1.972-.188-3.795-.351-5.432-.484.007.2.019.4.031.608.014.235.029.474.035.716.471.02.987.037,1.5.037.16,0,.318,0,.47,0Zm15-.64c1.878.212,3.664.423,4.937.581,1.535-3.413,3.074-6.885,4.563-10.246,2.158-4.871,4.384-9.9,6.644-14.836-.205.068-.417.13-.633.181l-.42.1-.159-.4c-.19-.479-.346-.868-.492-1.225l-.056-.136.027-.144a4.781,4.781,0,0,0,.076-.668,5.409,5.409,0,0,0-1.237.639c-.214.134-.435.272-.664.4l-.288.156-.258-.2a2.62,2.62,0,0,1-.975-2.095l-.143-.5c-.475.281-.985.577-1.545.9-.695,1.524-1.385,3.079-2.052,4.583q-.5,1.132-1.006,2.263c-.337.8-.71,1.608-1.071,2.385a25.864,25.864,0,0,0-2.271,6.237,19,19,0,0,1-.516,2.026,11.7,11.7,0,0,0-.594,2.857l0,.084-.03.078a33.9,33.9,0,0,0-1.189,4.088c-.116.472-.236.961-.362,1.441l-.034.146A10.417,10.417,0,0,0,89.108,85.563ZM63.5,86.045c.938.073,1.857.083,2.567.083.422,0,.852,0,1.269-.008s.852-.008,1.278-.008.822,0,1.18.013c-.025-.458-.049-.936-.073-1.443-2.593-.188-4.589-.283-5.937-.283q-.251,0-.473,0C63.388,84.942,63.459,85.491,63.5,86.045Zm16.161-1.489c2.275.226,4.739.485,7.187.754.01-2.6.025-5.225.04-7.773.028-4.944.058-10.042.052-15.082a1.693,1.693,0,0,1-.328.033,2.06,2.06,0,0,1-1.6-.965l-.079-.1-.018-.13a1.7,1.7,0,0,0-.284-.629c-.121.151-.24.308-.362.469a9.032,9.032,0,0,1-1.054,1.23l-.15.138-.2-.006a1.8,1.8,0,0,1-1.269-.723,2.955,2.955,0,0,0-.288-.282l-.2-.16.018-.353-.287-.408c-.376.439-.722.913-1.059,1.38-.011,2.414-.03,4.865-.049,7.237-.039,4.955-.079,10.079-.049,15.117v.038C79.67,84.409,79.665,84.481,79.661,84.556Zm-7.733-.707c1.624.132,3.431.293,5.385.479-.022-4.335.016-8.73.052-12.987.034-3.9.068-7.926.057-11.888a2.749,2.749,0,0,1,.418-1.678,2.034,2.034,0,0,0,.326-1.034c-.04-.518-.06-1.038-.08-1.541-.023-.6-.046-1.187-.1-1.762a1.566,1.566,0,0,1-.985.339,1.9,1.9,0,0,1-.5-.069l-.222-.06-.22-.461c-.1-.213-.222-.464-.292-.615l-.03-.064q-.153-.169-.311-.349a15.95,15.95,0,0,1-1.388,1.817l-.317.356-.371-.3c-.4-.328-.73-.6-1.023-.845l-.034-.029-.028-.034a4.209,4.209,0,0,1-.324-.471,3.21,3.21,0,0,0-.28-.405l-.026.032a4.367,4.367,0,0,0-1.03,1.769l.087,1.916c.313,6.863.636,13.958.9,20.94l1.194-.018-.778.746-.032.865-.161.007q0,.2,0,.395c.01,1.525.02,3.1.145,4.641l.006.07-.014.069Q71.942,83.763,71.929,83.849Zm-1.022-.082.024,0q.015-.11.034-.216c-.123-1.554-.133-3.126-.143-4.647q0-.268,0-.537l-.355-.041q.049,1.176.092,2.335c.039,1.012.079,2.055.124,3.087l.227.017ZM63.783,83.4c1.352,0,3.332.093,5.892.277-.043-1-.082-2-.119-2.974-.1-2.522-.2-5.131-.38-7.688-.436-3.473-.941-7-1.429-10.406-.468-3.268-.952-6.647-1.375-9.98-.079-.536-.148-1.081-.215-1.608-.1-.822-.211-1.664-.358-2.493a1.064,1.064,0,0,1-.843.4,1.282,1.282,0,0,1-.268-.029l-.06-.013-.055-.027a3.055,3.055,0,0,1-.934-.825,2.084,2.084,0,0,0-.6-.562l-.109.656-.165.12a2.111,2.111,0,0,0-.484.624c-.07.116-.142.235-.224.353l-.149.216H59.98l.085-.763c-.111-.117-.214-.246-.314-.374a3.154,3.154,0,0,0-.406-.45l-.052.087a4.025,4.025,0,0,0-.752,1.924c.88,6.722,1.815,13.411,2.7,19.687.05.34.082.685.114,1.018a8.494,8.494,0,0,0,.354,2.026l.039.112-.005.039,1.429-.011-.851.62-.02.282a19.421,19.421,0,0,0,.17,3.788,8.492,8.492,0,0,1,.287,2.314c.192.24.409.5.67.8l.9,1.052-1.353-.231a17.476,17.476,0,0,0,.192,2.037C63.357,83.4,63.563,83.4,63.783,83.4ZM60.741,74.15c.624,3.963,1.154,7.4,1.354,9.077l.035-.024a14.226,14.226,0,0,1-.15-2.443l.014-.364-.132-.165-.108-.136V79.92a7.857,7.857,0,0,0-.258-2.244l-.012-.04-.005-.041a22.1,22.1,0,0,1-.209-3.466l-.161.007Zm44.337-18.312.121.439c.194.7.344,1.41.463,2.032.254-.16.505-.321.75-.478v-.018a43.693,43.693,0,0,0-.4-4.54c-.787-.313-1.565-.665-2.353-1.031-.548.42-1.107.832-1.65,1.232-.4.293-.8.592-1.2.895a1.759,1.759,0,0,1,.552.028l.256.055.1.241a8.912,8.912,0,0,1,.536,2.222c.163-.08.326-.166.494-.254a6.456,6.456,0,0,1,1.885-.745ZM58.805,44.584l.393.2a4.168,4.168,0,0,1,1.155,1,3.593,3.593,0,0,0,.762.711c.139-.241.274-.485.405-.724.223-.4.453-.821.7-1.226l.2-.328.369.114a3.986,3.986,0,0,1,1.877,1.537l.016.02a2.063,2.063,0,0,0,.359-.925c-.519-.751-1.088-1.489-1.639-2.2-.344-.446-.7-.906-1.041-1.369-.825.142-1.672.28-2.531.348-.328.736-.615,1.5-.894,2.251-.106.285-.214.574-.325.863ZM89.27,79.748l-.982-.091c-.188-2.529-.121-5.1-.057-7.579.031-1.18.062-2.4.066-3.595-.109-1.8-.059-3.626-.01-5.39.036-1.306.073-2.656.044-3.977V59.1a2.505,2.505,0,0,0-.467-1.235c-.113-.2-.231-.4-.33-.61l-.015-.034a5.972,5.972,0,0,0-.553-1,3.146,3.146,0,0,1-.678-2.943,5.312,5.312,0,0,1,2.321-2.307l.2-.126.53-.343.212.595a12.322,12.322,0,0,1,.385,1.294q.18.323.357.644l.144.261c.253-.163.5-.352.752-.548a7.742,7.742,0,0,1,1.345-.894l.509-.247.182.536.157.458c.1.3.211.614.314.926l.071.215-.089.151c.09.183.191.183.264.183a2.823,2.823,0,0,0,1.127-.483l1.082-.685-.331,1.237c-1.2,4.483-2.347,9.064-3.456,13.494C91.365,71.6,90.336,75.717,89.27,79.748Zm.061-20.642c.029,1.342-.009,2.7-.045,4.016-.048,1.747-.1,3.553.01,5.317v.032c0,1.212-.035,2.443-.066,3.634-.035,1.344-.07,2.712-.065,4.082.76-2.949,1.5-5.911,2.225-8.8,1.021-4.079,2.074-8.287,3.172-12.43a1.982,1.982,0,0,1-.624.111,1.3,1.3,0,0,1-1.295-1.1l-.056-.2.084-.143c-.066-.2-.133-.392-.2-.585-.227.151-.448.322-.676.5a7.808,7.808,0,0,1-1.336.89l-.425.208-.231-.414q-.2-.353-.391-.7t-.389-.7l-.035-.062-.016-.069c-.049-.214-.107-.431-.171-.648a3.839,3.839,0,0,0-1.585,1.611c-.248.63.059,1.191.594,2.039a6.889,6.889,0,0,1,.635,1.165c.079.168.178.337.282.515A3.346,3.346,0,0,1,89.331,59.106ZM78.668,61.293l.111-1.582c.007-.105,0-.223,0-.348a2.167,2.167,0,0,1,.2-1.165c.35-.706.755-1.386,1.147-2.044.424-.711.861-1.447,1.218-2.2l.131-.275.3-.01c.479-.016.925-.024,1.365-.024.729,0,1.405.021,2.067.065l.313.021.117.291a19.583,19.583,0,0,0,1.172,2.3,22.373,22.373,0,0,1,1.147,2.216l.115.269-.178.232c-.349.456-.72.961-1.133,1.545l-.368.52-.418-.481a5.015,5.015,0,0,1-.584-.91,2.226,2.226,0,0,0-.767-.987,9.408,9.408,0,0,0-1.093,1.41c-.12.177-.245.36-.372.538l-.4.565-.614-.845c-.416-.571-.844-1.159-1.25-1.759a2.811,2.811,0,0,0-.859.925c-.117.167-.238.34-.37.5Zm2.669-3.8.181.277c.389.593.81,1.18,1.226,1.753a8.686,8.686,0,0,1,1.423-1.73l.176-.153.23.036a2.5,2.5,0,0,1,1.7,1.563l.1.179c.192-.264.375-.512.552-.747-.29-.632-.64-1.251-.98-1.853a23.245,23.245,0,0,1-1.106-2.123c-.542-.03-1.1-.044-1.693-.044-.335,0-.675,0-1.031.014-.347.693-.743,1.359-1.127,2-.223.375-.451.757-.668,1.145a2.008,2.008,0,0,1,.695-.263Zm12.481-4.118-.127-.315c-.248-.617-.439-1.253-.621-1.871a2.548,2.548,0,0,0-1.135.719,4.707,4.707,0,0,1-1.111.8l-.509.237-.176-.534q-.056-.17-.112-.341a13.538,13.538,0,0,0-.723-1.9.192.192,0,0,0-.041,0c-.174,0-.443.223-.681.421a3.11,3.11,0,0,1-.822.547l-.689.27.007-.74a3.1,3.1,0,0,1,1.238-2.2c.151-.146.293-.284.421-.425l.019-.02c.272-.269.538-.563.8-.846a13.92,13.92,0,0,1,1.464-1.457l.142-.117.184,0a6.87,6.87,0,0,1,1.844.373,7.822,7.822,0,0,0,1.292.312l.343.041.083.335c.147.6.324,1.2.5,1.785a24.625,24.625,0,0,1,.8,3.305l.048.324-.278.174a2.882,2.882,0,0,0-.427.368,2.036,2.036,0,0,1-1.388.746Zm-.577-3.2a2.137,2.137,0,0,1,.265.017l.324.041L94,50.8c.142.483.288.978.459,1.457a3.53,3.53,0,0,0,.393-.347c.1-.1.206-.2.317-.294a26.35,26.35,0,0,0-.728-2.878c-.144-.491-.292-1-.425-1.5a11.132,11.132,0,0,1-1.116-.293,6.985,6.985,0,0,0-1.395-.321,14.478,14.478,0,0,0-1.211,1.233c-.263.29-.536.59-.823.875-.147.161-.3.314-.457.462L89,49.2a1.234,1.234,0,0,1,.931.17l.115.071.064.119a11.971,11.971,0,0,1,.777,1.93c.127-.1.255-.214.385-.33A2.975,2.975,0,0,1,93.241,50.171ZM73.181,52.333l-.225-.3c-.142-.188-.274-.386-.4-.577a4.479,4.479,0,0,0-.984-1.171,2.6,2.6,0,0,0-.4.506,2.518,2.518,0,0,1-1,.986l-.684.32-.028-.754a5.042,5.042,0,0,1,.872-2.672,10.3,10.3,0,0,0,.492-.961l.012-.028.015-.026a7.342,7.342,0,0,0,.34-.71,4.2,4.2,0,0,1,1.008-1.59l.121-.106.161-.015c.78-.075,1.551-.081,2.274-.081h1.168l.146.246c.388.654.794,1.314,1.186,1.952.464.755.945,1.535,1.4,2.315l.166.284-.2.265a3.161,3.161,0,0,0-.279.52,2.232,2.232,0,0,1-1,1.22l-.336.156-.247-.277c-.26-.291-.49-.6-.713-.9-.2-.267-.388-.522-.592-.759a1.889,1.889,0,0,0-.651.764A2.7,2.7,0,0,1,73.532,52.2Zm-1.589-3.185.207.107A4.494,4.494,0,0,1,73.384,50.9l.105.156a3.552,3.552,0,0,0,.468-.646,2.17,2.17,0,0,1,1.635-1.287l.236-.018.164.171a10.841,10.841,0,0,1,.861,1.061c.115.155.228.306.341.452a3.9,3.9,0,0,0,.245-.475c.062-.134.126-.271.2-.4-.4-.684-.826-1.37-1.236-2.035-.346-.562-.7-1.141-1.049-1.721h-.6c-.644,0-1.327.005-2.006.061a3.96,3.96,0,0,0-.641,1.131,8.467,8.467,0,0,1-.374.782,11.485,11.485,0,0,1-.527,1.029l-.14.253a1.67,1.67,0,0,1,.311-.171Z" transform="translate(-56.37 -36.42)"/>
      </g>
      <g id="_fbdfb4ff" data-name="#fbdfb4ff" transform="translate(1.172 4.428)">
        <path id="Path_107295" data-name="Path 107295" d="M61.775,49.836a27.68,27.68,0,0,0,3.082-.416c.964,1.325,2.02,2.588,2.946,3.944.112.725-.494,1.345-.739,2-.664-.708-1.161-1.679-2.146-1.982-.467.753-.858,1.546-1.318,2.3-1-.208-1.454-1.413-2.364-1.883-.446.654-.862,1.328-1.294,1.989a1.889,1.889,0,0,1,0-1.359C60.6,52.918,61.077,51.334,61.775,49.836Z" transform="translate(-59.81 -49.42)" fill="#fbdfb4"/>
      </g>
      <g id="_fbdfb3ff" data-name="#fbdfb3ff" transform="translate(13.588 9.233)">
        <path id="Path_107296" data-name="Path 107296" d="M97.591,65.781a7.658,7.658,0,0,1,1.243-2.173c1.032-.1,2.071-.075,3.11-.078.848,1.43,1.747,2.83,2.585,4.264-.371.5-.49,1.308-1.086,1.584-.535-.6-.95-1.3-1.505-1.88-1.155.089-1.23,1.717-2.275,2.112a6.048,6.048,0,0,0-1.785-2.033c-.739.31-.875,1.281-1.611,1.625C96.219,67.913,97.115,66.9,97.591,65.781Z" transform="translate(-96.265 -63.529)" fill="#fbdfb3"/>
      </g>
      <g id="_fcdfb4ff" data-name="#fcdfb4ff" transform="translate(22.905 9.686)">
        <path id="Path_107297" data-name="Path 107297" d="M151.753,64.86c1.042.02,2.04.555,3.086.681.416,1.686,1.035,3.321,1.291,5.044-.518.324-.906,1.035-1.553,1.039-.286-.712-.494-1.451-.712-2.187-1.223-.153-1.836,1.107-2.83,1.57a15.372,15.372,0,0,0-.943-2.462c-.79-.487-1.4.61-2.091.879.01-1.029.909-1.608,1.529-2.292C150.282,66.386,150.929,65.534,151.753,64.86Z" transform="translate(-139.697 -64.86)" fill="#fcdfb4"/>
        <path id="Path_107299" data-name="Path 107299" d="M126.141,88.495c1.127-.037,2.255-.034,3.382.041.637,1.577,1.655,2.96,2.323,4.523-.392.511-.773,1.035-1.144,1.56-.61-.7-.838-1.969-1.86-2.129a12.069,12.069,0,0,0-1.74,2.217c-.562-.773-1.131-1.543-1.655-2.343-.906.163-1.3,1.059-1.822,1.706a2.951,2.951,0,0,1,.143-1.315C124.489,91.3,125.443,89.966,126.141,88.495Z" transform="translate(-123.621 -80.43)" fill="#fcdfb4"/>
      </g>
      <path id="Union_318" data-name="Union 318" d="M14029.621,22266.988c-1.358.016-2.722.027-4.074-.09a10.258,10.258,0,0,1,2.4-.273,29.047,29.047,0,0,1-.989-5.885l-.431.135a39.775,39.775,0,0,0-1.022-6.992c-.357.023-1.067.068-1.42.1-.179.006-.53.021-.709.027l.525-.385a3.181,3.181,0,0,1,.48-.023c.419.006.849.012,1.106-.367a9.108,9.108,0,0,0,.062-1.605c-.486-5.666-1.609-11.254-2.235-16.9-.146-1.8-.771-3.582-.492-5.4h1.106a4.088,4.088,0,0,1,.821-1.1l.036-.027-.036.027c.039-.225.112-.676.151-.9,1.051-.184,1.38,1.078,2.18,1.471.76.162.854-.811,1.229-1.27.43,1.777.575,3.609.844,5.416.866,6.811,1.95,13.59,2.8,20.4.324,4.555.386,9.125.648,13.68C14031.615,22266.971,14030.615,22266.982,14029.621,22266.988Zm1.091-.4q-.986.047-1.979.047Q14029.725,22266.633,14030.712,22266.586Zm-.807-10.814c.47,3.6,1.124,7.17,1.465,10.781-.341-3.611-1-7.182-1.465-10.781Zm-3.609-26.152c.6,4.42,1.273,8.834,1.821,13.266-.548-4.432-1.218-8.846-1.821-13.266a2.533,2.533,0,0,0-.055-.334A2.533,2.533,0,0,1,14026.3,22229.619Z" transform="translate(-14018.658 -22216.793)" fill="#caa0ff"/>
      <g id="_e95343ff" data-name="#e95343ff" transform="translate(1.672 10.884)">
        <path id="Path_107301" data-name="Path 107301" d="M62.311,68.4c.651-.194,1.049.8,1.516,1.155l-.051.46c-.279,1.822.347,3.6.49,5.405.623,5.65,1.751,11.239,2.238,16.907-.6-.048-1.192-.085-1.785-.116-.092.538-.181,1.08-.249,1.625a16.519,16.519,0,0,1-.49-3.14c-.923-6.57-1.839-13.14-2.7-19.72A5.272,5.272,0,0,1,62.311,68.4Z" transform="translate(-61.279 -68.377)" fill="#caa0ff"/>
      </g>
      <path id="Union_321" data-name="Union 321" d="M14023.567,22243.473c-.189-3.117.1-6.244.034-9.361a4.854,4.854,0,0,0-.844-2.066,15.663,15.663,0,0,0,1.475-4.479c.263.475.514.938.776,1.406.916-.445,1.6-1.229,2.508-1.674.156.463.318.916.469,1.379l-.089.156c.346,1.246,1.491.631,2.206.174-2.279,8.512-4.295,17.1-6.546,25.619C14023.283,22250.918,14023.557,22247.188,14023.567,22243.473Zm3.033-10.623a13.343,13.343,0,0,1,1.3-4.016A13.207,13.207,0,0,0,14026.6,22232.85Z" transform="translate(-13991.14 -22211.426)" fill="#49fdff"/>
      <g id="_7e68abff" data-name="#7e68abff" transform="translate(30.261 14.836)">
        <path id="Path_107305" data-name="Path 107305" d="M145.342,82.177a5.33,5.33,0,0,1,2.323-2.2,11.728,11.728,0,0,1,.385,1.308,15.534,15.534,0,0,1-1.475,4.475C146.132,84.595,144.814,83.515,145.342,82.177Z" transform="translate(-145.219 -79.98)" fill="#49fdff"/>
      </g>
      <path id="Union_319" data-name="Union 319" d="M14027.757,22262.721c-.4-.021-.788-.045-1.174-.033l-.021-.225h0c-.189-1.859-.123-3.727-.167-5.592-.028-1.615-.319-3.213-.33-4.834v-.373c-.7-.051-1.4-.1-2.09-.141-.033.2-.095.592-.123.793s-.072.6-.1.8c-.284-7.7-.643-15.414-.994-23.125a5.777,5.777,0,0,1,1.441-2.424c.564.156.766.8,1.106,1.211-.229,2.443.185,4.885.089,7.332.1-2.447-.312-4.889-.089-7.326.335.279.676.559,1.017.838a16.119,16.119,0,0,0,1.7-2.33c.274.336.559.666.855.984l-.006.057c.1.219.313.652.413.865.855.234,1.33-.352,1.682-1.039a40.531,40.531,0,0,1,.347,4.514c.078.99-.911,1.705-.743,2.717.022,9.033-.185,18.068-.095,27.1a4.916,4.916,0,0,1-1.732.262C14028.416,22262.754,14028.086,22262.738,14027.757,22262.721Zm1.983-9.242a73.633,73.633,0,0,1-.309-7.527A73.633,73.633,0,0,0,14029.74,22253.479Zm-.3-9.637Zm.647-2.564c0-1.85-.022-3.7-.022-5.543C14030.063,22237.578,14030.086,22239.428,14030.086,22241.277Zm-.022-5.687a6.322,6.322,0,0,1,.453-2.051A6.289,6.289,0,0,0,14030.063,22235.59Zm-1.105-1.191c.013.1.024.2.036.295-.012-.1-.023-.2-.036-.295-.1-1.26-.172-2.523-.173-3.787C14028.786,22231.877,14028.859,22233.141,14028.958,22234.4Zm1.849-2.648c0-.691-.078-1.391-.095-2.072q-.611.076-1.224.15.612-.073,1.224-.15C14030.729,22230.359,14030.807,22231.059,14030.807,22231.75Z" transform="translate(-14009.02 -22212.402)" fill="#34ff97"/>
      <g id="_fbdfb5ff" data-name="#fbdfb5ff" transform="translate(42.73 15.241)">
        <path id="Path_107308" data-name="Path 107308" d="M182.412,84.109c1.284-1,2.623-1.938,3.913-2.939.943.439,1.89.875,2.864,1.25a44,44,0,0,1,.467,5.184c-.542.347-1.08.691-1.625,1.029-.16-.913-.341-1.822-.586-2.714a17.839,17.839,0,0,0-2.871,1.226,11.122,11.122,0,0,0-.593-2.749c-.811-.174-1.451.528-2.152.811C181.99,84.828,182.024,84.344,182.412,84.109Z" transform="translate(-181.83 -81.17)" fill="#fbdfb5"/>
      </g>
      <g id="_59c6f1ff" data-name="#59c6f1ff" transform="translate(34.106 19.979)">
        <path id="Path_107312" data-name="Path 107312" d="M164.132,96.384c.749-.426,1.5-.858,2.234-1.3l.327,1.144c-.375,1.941-1.669,3.556-2.408,5.374-1.989,5.061-4.434,9.928-6.549,14.935a13.016,13.016,0,0,1-1.039,2.244c-.058-.572-.119-1.141-.187-1.706.061-1.7.821-3.287,1.117-4.952.552-3.106,2.17-5.855,3.375-8.733C162.045,101.054,163.07,98.711,164.132,96.384Z" transform="translate(-156.51 -95.08)" fill="#ffec00"/>
      </g>
      <path id="Union_322" data-name="Union 322" d="M14025.194,22256.789c-.766-.012-1.536-.027-2.3.006a5.546,5.546,0,0,1,.185-2.922,50.959,50.959,0,0,1,1.569-5.586c.067.564.129,1.135.185,1.7a12.583,12.583,0,0,0,1.039-2.244c2.117-5.006,4.563-9.871,6.552-14.932.737-1.82,2.033-3.436,2.408-5.373l.017-.145a2.2,2.2,0,0,0,.776,1.959,6.127,6.127,0,0,1,2.631-1.178,5.436,5.436,0,0,1-.072,1.346c-1.392,2.547-2.514,5.223-3.67,7.887-1.5,3.42-3.128,6.793-4.524,10.262-1.441,3.016-2.821,6.066-4.072,9.166,1.251-3.1,2.631-6.15,4.072-9.166,1.4-3.469,3.021-6.842,4.524-10.262,1.156-2.658,2.278-5.34,3.67-7.887.167.408.329.816.491,1.229a9.393,9.393,0,0,0,1.726-.625c-4.071,8.859-7.937,17.813-11.947,26.7-.65.061-1.3.08-1.952.08C14026.064,22256.807,14025.63,22256.8,14025.194,22256.789Z" transform="translate(-13990.539 -22206.316)" fill="#ffec00"/>
      <g id="_fdd436ff" data-name="#fdd436ff" transform="translate(22.795 23.347)">
        <path id="Path_107318" data-name="Path 107318" d="M123.409,106.986a17.344,17.344,0,0,1,1.611-2.016c.245.354.494.708.742,1.059l-.014.269c-.225,7.581-.119,15.173-.235,22.761-.722-.072-1.522-.317-2.166.153l-.037.293C123.266,122,123.375,114.493,123.409,106.986Z" transform="translate(-123.299 -104.97)" fill="#ff6090"/>
      </g>
      <path id="Union_320" data-name="Union 320" d="M14022.757,22254c.028-.889.051-1.771.067-2.654.117-7.59.011-15.18.234-22.764.4.324.688.883,1.263.9.7-.646,1.161-1.5,1.832-2.178a4.938,4.938,0,0,1,.7,1.408c-.115,1.361-.26,2.717-.254,4.088-.006-1.371.139-2.727.254-4.088a1.4,1.4,0,0,0,1.609.7c.122,8.182.066,16.365.017,24.547-.637.012-1.273.027-1.905.045q-.923.032-1.846.031C14024.068,22254.027,14023.412,22254.016,14022.757,22254Zm3.814,0c-.042-1.963-.057-3.924-.057-5.885C14026.515,22250.072,14026.529,22252.035,14026.571,22254Zm.029-20.273Z" transform="translate(-13997.815 -22203.904)" fill="#ff6090"/>
      <g id="_f5df7dff" data-name="#f5df7dff" transform="translate(22.778 24.607)">
        <path id="Path_107321" data-name="Path 107321" d="M131.118,109.562a.976.976,0,0,1,.422-.892c.02,8.6-.068,17.2-.1,25.8-2.731.034-5.463-.1-8.195-.044.024-.269.065-.8.089-1.073.341.048,1.018.146,1.359.2q.281-.766.531-1.543c-.637-.126-1.277-.242-1.914-.354.644-.47,1.444-.225,2.166-.153-.017.886-.041,1.768-.068,2.653,1.27.041,2.544.044,3.815,0,.633-.017,1.267-.034,1.9-.048C131.182,125.928,131.237,117.743,131.118,109.562Z" transform="translate(-123.25 -108.67)" fill="#ff6090"/>
      </g>
      <g id="_f7fdf2ff" data-name="#f7fdf2ff" transform="translate(4.799 34.719)">
        <path id="Path_107323" data-name="Path 107323" d="M70.773,138.36c.593.031,1.189.068,1.785.116a8.984,8.984,0,0,1-.065,1.6c-.358.531-1.049.313-1.584.4l-.45,0,.065-.49C70.593,139.44,70.681,138.9,70.773,138.36Z" transform="translate(-70.46 -138.36)" fill="#f7fdf2"/>
      </g>
      <g id="_fefaf7ff" data-name="#fefaf7ff" transform="translate(5.393 37.09)">
        <path id="Path_107324" data-name="Path 107324" d="M72.241,145.415l1.424-.1a40.306,40.306,0,0,1,1.022,6.992l-1.2.371c-.269-.313-.535-.63-.79-.954a8.289,8.289,0,0,0-.279-2.388A19.945,19.945,0,0,1,72.241,145.415Z" transform="translate(-72.206 -145.32)" fill="#fefaf7"/>
      </g>
      <g id="_dde9aeff" data-name="#dde9aeff" transform="translate(14.652 39.127)">
        <path id="Path_107325" data-name="Path 107325" d="M99.693,151.3c.695.044,1.393.089,2.088.136v.375a4.151,4.151,0,0,1-.586,1.887c.034.1.1.3.133.405-.286.027-.858.075-1.148.1-.078,1.563.014,3.13-.075,4.693l-.269.439c-.15-1.849-.136-3.7-.153-5.555l.644-.027-.937-.109.5-.484c.446-.017.9-.027,1.345-.031.075-.262.221-.78.3-1.039a1.5,1.5,0,0,0-1.965,0Z" transform="translate(-99.39 -151.3)" fill="#dde9ae"/>
      </g>
      <g id="_fdfcf6ff" data-name="#fdfcf6ff" transform="translate(14.703 39.546)">
        <path id="Path_107326" data-name="Path 107326" d="M99.669,152.9a1.5,1.5,0,0,1,1.965,0c-.075.259-.221.777-.3,1.039-.45,0-.9.014-1.345.031l-.453.007.031-.269C99.595,153.509,99.646,153.1,99.669,152.9Z" transform="translate(-99.54 -152.532)" fill="#fdfcf6"/>
      </g>
      <g id="_adc84bff" data-name="#adc84bff" transform="translate(15.013 39.638)">
        <path id="Path_107327" data-name="Path 107327" d="M102.479,152.8c.01,1.618.3,3.215.334,4.833.041,1.863-.024,3.729.163,5.589l.027.225c-.828.017-1.655-.014-2.483-.055a18.827,18.827,0,0,1,.014-3.069l.269-.439c0,.668.014,1.332.017,2,.545-.058,1.662.415,1.638-.49a37.518,37.518,0,0,0-.433-6.3c-.031-.1-.1-.3-.133-.405A4.151,4.151,0,0,0,102.479,152.8Z" transform="translate(-100.449 -152.8)" fill="#adc84b"/>
      </g>
      <g id="_fbfef9ff" data-name="#fbfef9ff" transform="translate(15.367 41.93)">
        <path id="Path_107328" data-name="Path 107328" d="M101.565,159.629c.29-.024.862-.072,1.148-.1a37.52,37.52,0,0,1,.433,6.3c.024.906-1.093.433-1.638.49,0-.668-.017-1.332-.017-2C101.579,162.759,101.487,161.192,101.565,159.629Z" transform="translate(-101.49 -159.53)" fill="#fbfef9"/>
      </g>
      <g id="_ea5342ff" data-name="#ea5342ff" transform="translate(6.103 43.949)">
        <path id="Path_107329" data-name="Path 107329" d="M76.061,165.593c.109-.034.32-.1.426-.133a29.136,29.136,0,0,0,.995,5.882,10.193,10.193,0,0,0-2.4.276l-.232.048c-.068-1.945-.623-3.845-.548-5.8l.565.1Z" transform="translate(-74.29 -165.46)" fill="#ea5342"/>
      </g>
      <g id="_fafcf7ff" data-name="#fafcf7ff" transform="translate(22.774 47.59)">
        <path id="Path_107332" data-name="Path 107332" d="M123.268,176.443l.037-.293c.637.112,1.277.228,1.914.354q-.25.777-.531,1.543c-.341-.051-1.018-.15-1.359-.2-.024.269-.065.8-.089,1.073C123.251,178.095,123.21,177.267,123.268,176.443Z" transform="translate(-123.237 -176.15)" fill="#fafcf7"/>
      </g>
    </g>
    <path id="Path_107333" data-name="Path 107333" d="M5.847-13.115a90.327,90.327,0,0,0,23.131,3.048A159.311,159.311,0,0,0,55.2-12.656l-7.289,34.3a104.833,104.833,0,0,1-18.936,2.01,103.611,103.611,0,0,1-18.869-2.01A139.47,139.47,0,0,1,6.646,4.884,106.266,106.266,0,0,1,5.847-13.115Z" transform="translate(1038 175.369)" fill="#ffec00"/>
    <path id="Path_107343" data-name="Path 107343" d="M9.286-15.717s6.834,3.312,19.691,3.312S48.42-15.184,48.42-15.184l-1.267,7.4a38.1,38.1,0,0,1-15.4,3.051c-9.167,0-21.267-3.051-21.267-3.051s.677-.883-.6-3A7.433,7.433,0,0,1,9.286-15.717Z" transform="translate(1038 205.568)" fill="#34ff97"/>
    <path id="Path_107333_-_Outline-2" data-name="Path 107333 - Outline" d="M7.246-12.248c.2,3.758.9,11.586,1.733,17.531.951,6.766,1.417,14.252,2.066,16.734,2.809.523,10.761,2.59,17.932,2.59,7.113,0,14.486.217,16.734-2.59s7.135-32.085,7.135-32.085A161.272,161.272,0,0,1,28.977-8.024c-9.257,0-17.489-2.809-21.731-4.224M4.913-13.516C5.358-16,16.12-10.067,28.977-10.067A159.312,159.312,0,0,0,55.2-12.656l-7.289,37.3a104.833,104.833,0,0,1-18.936,2.01,103.611,103.611,0,0,1-18.869-2.01S7.923,13.969,6.646,4.884,4.468-11.033,4.913-13.516Z" transform="translate(1038 175.369)"/>
    <path id="Union_314" data-name="Union 314" d="M7.873,3.526A31.28,31.28,0,0,1,.8,2.724C.164,2.563.28,1.593.951,1.7c2.355.368,4.661.8,7.04,1.038.524.051.38.79-.109.79ZM.429,1.075C-.226.9-.1-.136.587.015A23.414,23.414,0,0,0,5.468.634c.565,0,.7.866.109.9q-.557.03-1.118.031A15.762,15.762,0,0,1,.429,1.075Z" transform="translate(1047.628 166.088) rotate(11)" stroke="rgba(0,0,0,0)" stroke-miterlimit="10" stroke-width="1"/>
    <path id="Union_315" data-name="Union 315" d="M7.873,0A31.254,31.254,0,0,0,.8.8C.164.963.28,1.932.952,1.828c2.355-.369,4.661-.8,7.04-1.038C8.515.738,8.371,0,7.883,0ZM.429,2.45C-.226,2.624-.1,3.661.587,3.51a23.378,23.378,0,0,1,4.881-.618c.565,0,.7-.866.109-.9q-.556-.03-1.118-.031A15.779,15.779,0,0,0,.429,2.45Z" transform="translate(1085.336 186.677) rotate(177)" stroke="rgba(0,0,0,0)" stroke-miterlimit="10" stroke-width="1"/>
    <path id="Union_316" data-name="Union 316" d="M.82,9.372a3.286,3.286,0,0,1-.535-.59A1.015,1.015,0,0,1,.28,7.45.964.964,0,0,1,1.648,7.43c.239.167.441.387.674.563a4.931,4.931,0,0,0,5.351.858,7.237,7.237,0,0,0,2.767-1.981,2.684,2.684,0,0,1,.455-.444.775.775,0,0,1,.964-.025.823.823,0,0,1,.37.91,1.759,1.759,0,0,1-.3.736c-.544.648-1.127,1.26-1.7,1.886l-.092-.08-.91.5a7.424,7.424,0,0,1-3.571.945A7.221,7.221,0,0,1,.82,9.372ZM.551,2.408A1.674,1.674,0,0,1,.959.2,1.256,1.256,0,0,1,2.7.635a1.608,1.608,0,0,1-.3,2.21,1.207,1.207,0,0,1-.686.21A1.406,1.406,0,0,1,.551,2.408Zm9.466-.069a1.393,1.393,0,0,1,.4-1.9,1.252,1.252,0,0,1,1.754.449,1.342,1.342,0,0,1-.376,1.889,1.184,1.184,0,0,1-.636.18A1.373,1.373,0,0,1,10.017,2.339Z" transform="translate(1061.104 173.92) rotate(-2)" stroke="rgba(0,0,0,0)" stroke-miterlimit="10" stroke-width="1"/>
    <g id="Mask_Group_52" data-name="Mask Group 52" transform="translate(1044.937 181.454) rotate(-1)" clip-path="url(#clip-path-2)">
      <path id="Path_107333_-_Outline-3" data-name="Path 107333 - Outline" d="M1.961,1.875c.163,3.758.719,11.586,1.389,17.531.762,6.766,1.135,11.251,1.655,13.734,2.25.523,8.62,2.59,14.365,2.59,5.7,0,11.6.217,13.406-2.59S38.492,4.056,38.492,4.056A104.265,104.265,0,0,1,19.37,6.1C11.955,6.1,5.36,3.29,1.961,1.875M.092.607C.449-1.875,9.07,4.056,19.37,4.056A103.346,103.346,0,0,0,40.379,1.467l-5.839,34.3a68.126,68.126,0,0,1-15.17,2.009,67.34,67.34,0,0,1-15.116-2.01S2.5,28.091,1.481,19.006-.264,3.09.092.607Z" transform="translate(0.99 7.234)"/>
    </g>
  </g>
</svg>
