<svg id="l8" xmlns="http://www.w3.org/2000/svg" width="96" height="80" viewBox="0 0 96 80">
  <rect id="Rectangle_5578" data-name="Rectangle 5578" width="96" height="80" fill="none"/>
  <g id="Group_66163" data-name="Group 66163" transform="translate(-824.29 -76.281)">
    <path id="Union_311_-_Outline" data-name="Union 311 - Outline" d="M15036.86,22345.535H15029v-6.988h7.863Zm-5.389-2.477h2.914v-2.035h-2.914Zm-27.85-6.148h-13.016a8.685,8.685,0,0,1-6.338-2.238l-.006,0a8.5,8.5,0,0,1-2.264-6.285v-7.566h7.508v6.895a1.86,1.86,0,0,0,.289,1.191,1.543,1.543,0,0,0,1.047.262h12.738a1.063,1.063,0,0,0,.779-.238.639.639,0,0,0,.2-.543v-7.566h7.508v7.844a8.011,8.011,0,0,1-2.318,6.035A8.537,8.537,0,0,1,15003.622,22336.91Zm-17.617-4a6.335,6.335,0,0,0,4.6,1.523h13.016a6.07,6.07,0,0,0,4.416-1.527,5.571,5.571,0,0,0,1.559-4.25v-5.371h-2.559v5.094a3.116,3.116,0,0,1-1.023,2.387,3.529,3.529,0,0,1-2.434.867h-12.738a3.714,3.714,0,0,1-2.879-1.074,4.121,4.121,0,0,1-.934-2.852v-4.422h-2.559v5.094A6.164,6.164,0,0,0,14986,22332.914Zm75.414,3.988h-7.543v-24.68h7.543Zm-5.066-2.477h2.592V22314.7h-2.592Zm-16.854,2.477h-13.021a8.648,8.648,0,0,1-6.336-2.238,8.477,8.477,0,0,1-2.266-6.281v-7.566h7.5v6.895a1.832,1.832,0,0,0,.291,1.18l0,0a1.488,1.488,0,0,0,1.041.27h12.746a1.036,1.036,0,0,0,.766-.23l.016-.012a.619.619,0,0,0,.2-.539v-7.566h7.5v7.844a8,8,0,0,1-2.32,6.039A8.5,8.5,0,0,1,15039.5,22336.9Zm-19.15-13.613v5.094a6.133,6.133,0,0,0,1.535,4.523,6.227,6.227,0,0,0,4.594,1.52h13.021a6.044,6.044,0,0,0,4.406-1.512,5.568,5.568,0,0,0,1.561-4.254v-5.371h-2.555v5.094a3.1,3.1,0,0,1-1.025,2.387,3.555,3.555,0,0,1-2.428.867h-12.746a3.7,3.7,0,0,1-2.867-1.07,4.087,4.087,0,0,1-.943-2.855v-4.422Zm-24.24-2.668h-7.453v-6.984h7.453Zm-4.979-2.477h2.5v-2.031h-2.5Zm13.979,2.406h-7.453v-6.98h7.453Zm-4.98-2.477h2.508v-2.031h-2.508Zm51.9-4.074-5.574-2.449,1.723-4.578a5.827,5.827,0,0,1,2.314-3.094,7.221,7.221,0,0,1,3.871-.879h11.174v6.871h-11.256c-.615,0-.7.23-.781.434l-.006.016Zm-2.434-3.773,1.082.477.514-1.289a3.085,3.085,0,0,1,3.09-2.016h8.781v-1.922h-8.7a5.139,5.139,0,0,0-2.574.508l-.008,0a3.53,3.53,0,0,0-1.287,1.848Z" transform="translate(-14151.219 -22207.309)"/>
    <path id="Union_312_-_Outline" data-name="Union 312 - Outline" d="M15040.539,22346.928l-10.809.34-.633-7.793h-1.283c-3.039,0-9.838-.342-9.838-.342v-18.865l10.549.645-.809,7.244c0,.086,0,.156.006.215.027,0,.059,0,.092,0l13.023.887-.3-9.463,9.68.717-.705,9.279c0,2.883-.895,9.688-.895,9.688l-9.186-.006Zm-8.965-1.295v-4.514h0Zm-11.125-15.916a7.3,7.3,0,0,0,1.9,5.4c.082.08.162.156.248.229-.086-.072-.166-.148-.248-.229A7.3,7.3,0,0,1,15020.449,22329.717Zm2.475-3.854v3.854a4.976,4.976,0,0,0,1.168,3.645,5.08,5.08,0,0,0,3.723,1.164h13.023a4.886,4.886,0,0,0,3.549-1.168,4.354,4.354,0,0,0,1.18-3.361v-4.133h-.078v3.854a4.356,4.356,0,0,1-1.437,3.307,4.762,4.762,0,0,1-3.256,1.186h-12.746a4.88,4.88,0,0,1-3.777-1.473,5.264,5.264,0,0,1-1.27-3.689v-3.184Zm5.125,5.873h0Zm14.967-8.348v0h0Zm-22.566,0v0h0Zm-15.49,17.209h-13.016c-3.033,0-8.445-.35-8.445-.35a90.505,90.505,0,0,1-1.4-10.531l-.52-9.449,7.176.645-.369-6.643h9.369l9.383.525-.615,5.854,8.123.264v19.336S15007.82,22340.6,15004.959,22340.6Zm5.961-6.248a5.837,5.837,0,0,1-.689.787c-.039.041-.08.078-.121.117.041-.039.082-.076.123-.117A5.961,5.961,0,0,0,15010.92,22334.35Zm-25.629,1.631c.791.773,4.967-1.447,6.652-1.447h13.016a4.913,4.913,0,0,0,3.561-1.18,4.349,4.349,0,0,0,1.178-3.357v-4.133h-.086v3.854a4.367,4.367,0,0,1-1.432,3.307,4.71,4.71,0,0,1-3.26,1.186h-12.74a4.9,4.9,0,0,1-3.793-1.477,5.325,5.325,0,0,1-1.254-3.686v-3.184h-.086v3.854C14987.047,22331.365,14984.518,22335.205,14985.291,22335.98Zm-.717-6.187c.008,1.408.717,6.188.717,6.188S14984.582,22331.2,14984.574,22329.793Zm7.605,1.943h0Zm14.344-.555a2.272,2.272,0,0,1-1.594.555,2.277,2.277,0,0,0,1.6-.555,1.87,1.87,0,0,0,.613-1.459A1.871,1.871,0,0,1,15006.523,22331.182Zm.615-7.793v0h0Zm-22.564,0v0h0Zm7.514,5.871c.029,0,.059,0,.092,0l.3.016,12.732.719-.543-6.873h-5.982v.07l-6.207.2-.395,5.658C14992.082,22329.131,14992.084,22329.2,14992.088,22329.26Zm-.855-8.541-.561-4.578,5.537.07-5.537.348Zm9-.07v-4.508h0Zm64.045,18.484-10.3,1.361-.295-23.936-6.354-2.289,1.033-6.4a34.717,34.717,0,0,1,1.924-3.992s3.533-1.3,17.828-1.3l-.684,10.268-4.02-.4Zm-7.822-2.131v-22.207h0Zm2.473-2.477h.121v-17.254h-.121Zm-6.234-20.842h0l1-2.514a1.872,1.872,0,0,1,1.926-1.2,1.85,1.85,0,0,0-1.934,1.223l-.006.016Zm-3.326-1.459,2.8,1.229Zm2.623-5.588a4.433,4.433,0,0,0-.9,1.178A4.423,4.423,0,0,1,15051.988,22306.637Zm3.715-1.064a6.946,6.946,0,0,0-2.809.475,7.039,7.039,0,0,1,2.809-.475h0Z" transform="translate(-14152.557 -22208.643)"/>
    <path id="Path_107287" data-name="Path 107287" d="M.478-21.014a1.876,1.876,0,0,0-1.94,1.227l-.99,2.494-3.325-1.465,1.306-3.483a4.724,4.724,0,0,1,1.8-2.474,6.2,6.2,0,0,1,3.226-.693h9.936v4.394Zm5.9,4.829V6.022H1.31V-16.185Z" transform="translate(902.587 122.337)" fill="#ffec00"/>
    <path id="Path_107288" data-name="Path 107288" d="M11.411-3.329s0-.739,0-7.679h5.027l-.4,5.661c0,2.19-.8,8.355-.8,8.355L-11.152,1.338V-11.008h5.027v7.679S-4.449-2.656,11.411-3.329Z" transform="translate(879.046 125.75)" fill="#ffec00"/>
    <path id="Union_313" data-name="Union 313" d="M20.349,8.352c.66,0,1.3.369,1.706,0a3.257,3.257,0,0,0,.511-2.019V0h5.027V6.61a55.339,55.339,0,0,1-.92,7.006H7.365C4.99,13.617,0,12.965,0,12.965V0H5.03V8.352H20.349Z" transform="translate(832.017 114.74)" fill="#ffec00"/>
    <path id="Path_107291" data-name="Path 107291" d="M6.3-16.81V-12.3H1.327L.8-16.429Z" transform="translate(845.016 124.375)" fill="#34ff97"/>
    <path id="Path_107292" data-name="Path 107292" d="M6.3-16.81V-12.3H1.327L.8-16.429Z" transform="translate(878.416 147.878)" fill="#34ff97"/>
    <path id="Path_107293" data-name="Path 107293" d="M6.3-16.81V-12.3H1.327L.8-16.429Z" transform="translate(837.347 124.375)" fill="#34ff97"/>
  </g>
</svg>
