<svg id="l9" xmlns="http://www.w3.org/2000/svg" width="96" height="80" viewBox="0 0 96 80">
  <rect id="Rectangle_5578" data-name="Rectangle 5578" width="96" height="80" fill="none"/>
  <g id="Group_66167" data-name="Group 66167" transform="translate(-1279.828 -192.07)">
    <path id="Union_335" data-name="Union 335" d="M16.432,75.373a11.67,11.67,0,0,1,4.362-6.009c.765-.531,1.331-.383,1.673.464a8.641,8.641,0,0,1-3.69,6.123,1.137,1.137,0,0,1-.631.188A3.563,3.563,0,0,1,16.432,75.373Zm30.21-1.929c-.7-1.815-.6-3.818-1-5.694.175-.3.5-.872.679-1.161.913.094,2.183.35,2.3,1.478.107,1.544.06,3.151.987,4.483,0,.472-.013,1.426-.02,1.9a3.172,3.172,0,0,1-.948.147A2.11,2.11,0,0,1,46.642,73.445Zm19.207-16.9c2.642-.726,6.674,1.633,5.6,4.7C68.995,60.876,65.756,59.5,65.849,56.541ZM.645,51.936C.483,51.65.161,51.073,0,50.788c1.794-2.276,4.758-2.506,7.413-2.869.162,1.793-1.533,2.876-2.924,3.575a4.444,4.444,0,0,1-2.283.5C1.684,52,1.158,51.956.645,51.936ZM76.253,34.873a12.927,12.927,0,0,1,9.4-1.155c-1.351,1.988-3.979,2.318-6.163,2.7-.285,0-.648.02-1.03.02C77.292,36.439,75.97,36.264,76.253,34.873Zm-69.3-9.147a1.561,1.561,0,0,1,.981-.481,1.561,1.561,0,0,0-.981.481c-.914-.282-1.807-.645-2.7-1-.115-.684-.781-1.638.214-1.961,2.823-1.036,5.659.772,8.192,1.876a22.49,22.49,0,0,1-3.48,1.1,2.471,2.471,0,0,1-2.225-.013Zm1.3-.483a1.181,1.181,0,0,0-.152-.009A1.181,1.181,0,0,1,8.252,25.243Zm55.83-8.6c.277-1.292,1.352-2.165,2.165-3.125a23.379,23.379,0,0,1,3.542-3.571,1.147,1.147,0,0,1,1.585.437c.087,2.668-2.546,4-3.992,5.834a2.436,2.436,0,0,1-1.977,1.157A1.511,1.511,0,0,1,64.081,16.647ZM17.716,7.715A11.693,11.693,0,0,1,13.354,1.7C14.019,1.277,14.9.61,15.7,1.122a8.679,8.679,0,0,1,3.69,6.129c-.21.516-.5.774-.872.774A1.452,1.452,0,0,1,17.716,7.715Zm25.216-6.46C43.093.947,43.4.308,43.557,0c1.015.094,2.319.162,2.79,1.255A14.647,14.647,0,0,1,46.6,6.007c-.116.011-.23.02-.338.02C43.844,6.027,43.17,3.249,42.931,1.255Z" transform="translate(1285.003 194.002)"/>
    <path id="Path_107415" data-name="Path 107415" d="M64.608,57.976c.272-1.619,1.461-3.415,3.3-3.342,2.079-.194,3.735,1.241,5.474,2.116,3.2,1.666,34.266,17.846,34.266,17.846v3.968s-11.267,5.309-13.682,6.11c.01-.042-16.193,6.752-24.322,9.659a3.584,3.584,0,0,1-2.959.068,5.146,5.146,0,0,1-.969-2.645c-1.042-7.134-.133-16.741-.819-23.912-.031-3.289-.7-6.579-.288-9.868m4.966,2.75c-1.194.739-.974,2.294-.932,3.488.545,5.138-.244,12.682.2,17.825-.985.178-.906,2.65.225,2.635.063.377.194,1.137.262,1.514-1.011-.262-.765,1.713.157,1.215.2.864.471,1.928,1.367,2.32a6.368,6.368,0,0,0,3.928-.849c5.322-2.483,10.848-4.5,16.175-6.993,3.824-1.8,8.119-2.687,11.5-5.369-9.009-5.495-18-11.011-27.847-14.63C72.967,61.38,71.339,60.39,69.573,60.726Z" transform="translate(1243.681 157.473)"/>
    <path id="Path_107419" data-name="Path 107419" d="M73.692,107.035c-1.131.016-1.21-2.457-.225-2.635C73.572,105.275,73.619,106.155,73.692,107.035Z" transform="translate(1239.05 135.112)" fill="#1e1e1e"/>
    <path id="Path_107420" data-name="Path 107420" d="M126.66,104.88c-.005.037-.021.115-.031.157l-.068-.089Z" transform="translate(1213.441 134.884)" fill="#050505"/>
    <path id="Path_107410" data-name="Path 107410" d="M73.4,65.224c1.906-.362,15.444,6.927,15.444,6.927S99.469,77.633,109.2,83.567c-3.649,2.9-8.287,3.852-12.417,5.8-5.753,2.687-11.721,4.87-17.468,7.552a6.877,6.877,0,0,1-4.243.916c-.967-.424-1.261-1.573-1.476-2.506-.045-.328-.13-.984-.17-1.312-.074-.407-.215-1.228-.283-1.635-.079-.95-.13-1.9-.243-2.845-.475-5.555.084-14.994-.5-20.544C72.349,67.7,72.112,66.021,73.4,65.224Z" transform="translate(1238.332 150.57)" fill="#ffec00"/>
    <path id="Path_107421" data-name="Path 107421" d="M74.583,113.513c-.922.5-1.168-1.477-.157-1.215C74.462,112.6,74.541,113.21,74.583,113.513Z" transform="translate(1238.579 131.363)" fill="#1b1b1b"/>
    <path id="Union_337" data-name="Union 337" d="M.82,9.372a3.286,3.286,0,0,1-.535-.59A1.015,1.015,0,0,1,.28,7.45.964.964,0,0,1,1.648,7.43c.239.167.441.387.674.563a4.931,4.931,0,0,0,5.351.858,7.237,7.237,0,0,0,2.767-1.981,2.684,2.684,0,0,1,.455-.444.775.775,0,0,1,.964-.025.823.823,0,0,1,.37.91,1.759,1.759,0,0,1-.3.736c-.544.648-1.127,1.26-1.7,1.886l-.092-.08-.91.5a7.424,7.424,0,0,1-3.571.945A7.221,7.221,0,0,1,.82,9.372ZM.551,2.408A1.674,1.674,0,0,1,.959.2,1.256,1.256,0,0,1,2.7.635a1.608,1.608,0,0,1-.3,2.21,1.207,1.207,0,0,1-.686.21A1.406,1.406,0,0,1,.551,2.408Zm9.466-.069a1.393,1.393,0,0,1,.4-1.9,1.252,1.252,0,0,1,1.754.449,1.342,1.342,0,0,1-.376,1.889,1.184,1.184,0,0,1-.636.18A1.373,1.373,0,0,1,10.017,2.339Z" transform="translate(1316.317 226.705) rotate(-2)" stroke="rgba(0,0,0,0)" stroke-miterlimit="10" stroke-width="1"/>
  </g>
</svg>
