<svg id="logo-pic" xmlns="http://www.w3.org/2000/svg" width="81.149" height="78.309" viewBox="0 0 81.149 78.309">
  <path id="Union_191" data-name="Union 191" d="M45.514,73.465a24.046,24.046,0,0,1-18.66-1.023q-1.131-.558-2.177-1.137c-.069.43-.138.953-.234,1.476-.237,1.264-.642,2.53-1.615,2.514-4.28-.083-12.081-5.316-12.618-6.2-.662-1.088,1.982-4.926,5.5-4.6-5.326-5.7-7.225-12.419-7.079-19.728a30.226,30.226,0,0,1,.249-3.4C5.018,39.015.061,33.324,0,31.25c-.123-4.363,3.642-3.143,3.642-3.143s-3.139-5.973-.907-9.249,5.372.639,5.372.639c-.409-2.873,6.019-9.438,11.3-7.931,4.4,1.252,4.7,4.22,4.776,5.354C30.19,11.3,38.9,6.029,48.656,9.291l.015-.047a10.373,10.373,0,0,1,2.047.667c.773-2.816,1.009-5.744,2.02-7.371,1.884-3.042,5.1-3.119,6.746-1.459a8.45,8.45,0,0,1,2.346,5.29c.167-.088.337-.169.51-.246,5.091-2.1,11,3.211,12.454,9.844s-5.1,13.365-9.6,8.507a7.832,7.832,0,0,0-2.954-2.1c3.788,10.663-.7,23.516-2.536,27.988a25.256,25.256,0,0,0,9.928-2.075c5.65-2.278,8.168-2.083,10.089,0,4.194,4.559-1.547,14.765-8.158,14.038,0,0,2.668,3.016.6,5.837s-9.624-1.6-9.624-1.6.18,3.237-2.827,3.143a3.788,3.788,0,0,1-2.054-1.32,2.447,2.447,0,0,1-.173,1.259,41.093,41.093,0,0,1-6.122,7.692.659.659,0,0,1-.413.123C49.682,77.465,46.937,75.161,45.514,73.465ZM57.627,55.054a4,4,0,0,1-.77-.475c-.014.157-.027.314-.038.472.115-.005.231-.008.353-.008C57.32,55.043,57.471,55.047,57.627,55.054ZM14.351,29.018c.46-.65.933-1.312,1.417-2a.034.034,0,0,1,0-.009s.611-1,1.737-2.527A13.328,13.328,0,0,0,14.351,29.018Z" transform="translate(0 0.844)" opacity="0.1"/>
  <path id="Union_190" data-name="Union 190" d="M45.008,72.649a23.779,23.779,0,0,1-18.452-1.012q-1.118-.552-2.153-1.124c-.068.426-.137.942-.232,1.459-.234,1.25-.635,2.5-1.6,2.486C18.342,74.376,10.628,69.2,10.1,68.33c-.655-1.076,1.96-4.871,5.435-4.553-5.266-5.64-7.145-12.281-7-19.509a29.891,29.891,0,0,1,.246-3.359C4.963,38.582.06,32.954,0,30.9c-.122-4.315,3.6-3.108,3.6-3.108s-3.1-5.906-.9-9.146,5.312.632,5.312.632c-.4-2.841,5.952-9.333,11.178-7.843,4.351,1.238,4.645,4.173,4.723,5.295,5.934-5.56,14.552-10.77,24.2-7.544l.015-.047a10.258,10.258,0,0,1,2.024.66c.764-2.784,1-5.68,2-7.289C54.015-.5,57.2-.572,58.822,1.069A8.356,8.356,0,0,1,61.142,6.3c.165-.087.333-.167.5-.244,5.035-2.076,10.878,3.175,12.316,9.735S68.915,29.009,64.469,24.2a7.745,7.745,0,0,0-2.921-2.072c3.746,10.545-.7,23.254-2.507,27.677a24.975,24.975,0,0,0,9.818-2.052c5.588-2.253,8.078-2.06,9.977,0,4.147,4.509-1.53,14.6-8.067,13.882,0,0,2.639,2.983.6,5.772s-9.517-1.584-9.517-1.584.178,3.2-2.8,3.108a3.746,3.746,0,0,1-2.031-1.305,2.42,2.42,0,0,1-.171,1.245A40.637,40.637,0,0,1,50.8,76.483a.652.652,0,0,1-.408.122C49.13,76.6,46.415,74.326,45.008,72.649ZM56.987,54.443a3.952,3.952,0,0,1-.762-.47c-.013.155-.027.311-.037.467.114-.005.229-.008.349-.008C56.683,54.432,56.833,54.436,56.987,54.443ZM14.192,28.7c.455-.643.922-1.3,1.4-1.981a.033.033,0,0,1,0-.009s.6-.985,1.718-2.5A13.18,13.18,0,0,0,14.192,28.7Z" fill="#fff"/>
  <g id="Group_54984" data-name="Group 54984" transform="translate(3.617 2.818)">
    <path id="Fill-419" d="M0,4.865c5.4,2.425,11.27,3.5,13.5,7s5.253,2.416,6.283-1.3C21.208,5.419,16.867-.51,11.943.035,8.472.505,5.014,2.649,1.192,2.348Z" transform="matrix(0.961, -0.276, 0.276, 0.961, 45.221, 10.134)" fill="#ff003b" fill-rule="evenodd"/>
    <path id="Fill-421" d="M0,9.71C4.829,9.825,11.561,6.2,9.3.565,9.045-.224,7.592-.148,6.682.554c-2.51,2.168-2.668,6.182-6,7.064Z" transform="matrix(0.961, -0.276, 0.276, 0.961, 44.341, 3.179)" fill="#ff003b" fill-rule="evenodd"/>
    <path id="Fill-423" d="M1.568.018A80.154,80.154,0,0,0,10.193.006a1.387,1.387,0,0,1,.746.362c.518.577.587,1.5.052,1.67a64.15,64.15,0,0,1-9.106.851,2.035,2.035,0,0,1-1.778-1.2C-.288.714.455-.136,1.568.018" transform="translate(39.954 61.044) rotate(45)" fill="#34ff97" fill-rule="evenodd"/>
    <path id="Fill-425" d="M4.319,7.82C3.854,7.664,1.607,6.6.35,3.123S1.566-.366,2.374.427s2.2,4.862,2.647,5.988-.238,1.561-.7,1.405" transform="translate(50.495 62.181) rotate(60)" fill="#34ff97" fill-rule="evenodd"/>
    <path id="Fill-427" d="M.685,2.218C2.048,3.212,6.032,7.16,7.2,8.378a1.632,1.632,0,0,0,.824.3c.807,0,1.524-.549,1.24-1.038A70.276,70.276,0,0,0,2.988.6,2.352,2.352,0,0,0,.781.1c-1,.346-1.048,1.424-.1,2.119" transform="translate(17.016 56.463) rotate(45)" fill="#34ff97" fill-rule="evenodd"/>
    <path id="Fill-429" d="M9.033.493C8.59.262,6.423-.721,2.549.975S.05,4.637,1.279,4.643,6.987,2.6,8.269,2.088,9.477.724,9.033.493" transform="translate(12.252 61.248) rotate(45)" fill="#34ff97" fill-rule="evenodd"/>
    <path id="Union_189" data-name="Union 189" d="M24.16,55.521C11.58,49.348,8.012,41.1,8.213,31.18a28.678,28.678,0,0,1,.616-5.6C5.228,24.742.035,19.467,0,18.256c-.052-1.9,4.037-1.189,4.037-1.189s-4.4-7.051-2.6-8.837,4.636,4.155,4.636,4.155C4.848,7.141,10.782-.354,15.189,1.15c5.58,1.9-1.7,6.931-2.878,16.42.579-.9,1.206-1.809,1.874-2.758C16.172,11.992,39.326-3.814,47.407.858h0c8.083,4.675,5.026,33.1,4.109,36.49a13.815,13.815,0,0,0-.382,2.583,10.51,10.51,0,0,1,1.668.094,23.79,23.79,0,0,0,11.925-1.806c4.534-1.75,7.3-3.5,8.291.277,1.177,4.506-6.732,9.876-11.873,8.266,0,0,5.718,3.259,3.8,4.928s-8.623-3.236-8.623-3.236.406,4.13-1.483,3.938c-.78-.079-3.1-2.439-4.794-5.084a15.25,15.25,0,0,1-2.966,5.015C44.05,55.82,39.007,57.7,33.727,57.7A21.82,21.82,0,0,1,24.16,55.521Z" transform="translate(0 10.178)" fill="#08de6f"/>
    <path id="Fill-433" d="M43.391,23.819S34.869-4.729,14.619.682,1.059,34.28,1.059,34.28s7.4,13.1,24.746,8.463S43.391,23.819,43.391,23.819" transform="translate(37.676 0) rotate(45)" fill="#08de6f" fill-rule="evenodd"/>
    <path id="Fill-435" d="M41.731,23.97S32.924-4.521,13.683.621,1.122,34.468,1.122,34.468,7.916,45.3,24.4,40.9,41.731,23.97,41.731,23.97" transform="translate(37.371 2.306) rotate(45)" fill="#fff" fill-rule="evenodd"/>
    <path id="Fill-437" d="M5.133,5.7C2.231,6.408,0,2.1,0,2.1A13.234,13.234,0,0,1,3.959.476,11.833,11.833,0,0,1,8.512.066S7.885,5.035,5.133,5.7" transform="translate(45.287 7.59) rotate(45)" fill="#fa0" fill-rule="evenodd"/>
    <path id="Fill-439" d="M20.669,14.746c2.534,9.482.19,18.345-5.235,19.795S3.555,29.479,1.021,20,.832,1.652,6.257.2,18.135,5.264,20.669,14.746" transform="translate(39.608 12.508) rotate(45)" fill="#ffec00" fill-rule="evenodd"/>
    <path id="Fill-441" d="M0,7.978S6.057,11.84,11.076,9.663C16.448,7.334,16.269,0,16.269,0s2.157,6.077,2,10.44c-.131,3.536-1.955,6.911-5.123,8.027C5.54,21.144.236,8.192,0,7.978" transform="translate(32.771 21.764) rotate(45)" fill="#ff003b" fill-rule="evenodd"/>
    <path id="Fill-447" d="M.022,1.412C.306.623,2.611-.289,3.323.087c.744.391.4,3.111-.595,3.473C1.779,3.907-.232,2.118.022,1.412" transform="translate(30.714 36.84) rotate(45)" fill="#ff6090" fill-rule="evenodd"/>
    <path id="Fill-449" d="M.045,6.129c.319,3.222,2.241,5.706,4.293,5.547S7.8,8.776,7.477,5.554,5.237-.151,3.185.007-.273,2.907.045,6.129" transform="translate(25.495 15.767) rotate(45)" fill="#08de6f" fill-rule="evenodd"/>
    <path id="Fill-451" d="M3.3,9.3C4.885,9.154,6,6.954,5.786,4.388S4.108-.139,2.518.008-.188,2.356.026,4.923,1.705,9.45,3.3,9.3" transform="translate(25.113 17.698) rotate(45)" fill="#fff" fill-rule="evenodd"/>
    <path id="Fill-453" d="M5.619,3.249C6.2,5.41,5.466,7.49,3.969,7.9S.786,6.877.2,4.716.354.474,1.85.069s3.184,1.019,3.769,3.18" transform="translate(24.982 18.706) rotate(45)" fill="#41250b" fill-rule="evenodd"/>
    <path id="Fill-455" d="M2.306.867A1.173,1.173,0,1,1,.867.041,1.173,1.173,0,0,1,2.306.867" transform="translate(24.505 19.847) rotate(45)" fill="#fff" fill-rule="evenodd"/>
    <path id="Fill-457" d="M1.362.512A.693.693,0,1,1,.512.024a.692.692,0,0,1,.849.487" transform="translate(23.488 24.406) rotate(45)" fill="#fff" fill-rule="evenodd"/>
    <path id="Fill-459" d="M7.5,3.946C8.854,6.889,8.448,10,6.6,10.9S2.147,10.142.8,7.2-.146,1.142,1.706.244,6.154,1,7.5,3.946" transform="translate(49.987 30.007) rotate(45)" fill="#08de6f" fill-rule="evenodd"/>
    <path id="Fill-461" d="M5.311,8.592C3.863,9.267,1.79,7.929.681,5.605S-.154.849,1.294.175s3.521.663,4.63,2.987.835,4.756-.613,5.43" transform="translate(49.401 31.818) rotate(45)" fill="#fff" fill-rule="evenodd"/>
    <path id="Fill-463" d="M.2,4.716C.786,6.877,2.473,8.3,3.969,7.9S6.2,5.41,5.619,3.249,3.347-.336,1.85.069-.385,2.554.2,4.716" transform="translate(48.757 32.353) rotate(45)" fill="#41250b" fill-rule="evenodd"/>
    <path id="Fill-465" d="M.041,1.48A1.173,1.173,0,1,0,.867.041,1.174,1.174,0,0,0,.041,1.48" transform="translate(49.646 34.277) rotate(45)" fill="#fff" fill-rule="evenodd"/>
    <path id="Fill-467" d="M.024.874A.693.693,0,1,0,.512.024.692.692,0,0,0,.024.874" transform="translate(46.809 37.791) rotate(45)" fill="#fff" fill-rule="evenodd"/>
  </g>
</svg>
