<svg xmlns="http://www.w3.org/2000/svg" xmlns:xlink="http://www.w3.org/1999/xlink" width="720" height="149" viewBox="0 0 720 149">
  <defs>
    <clipPath id="clip-path">
      <rect id="Rectangle_6699" data-name="Rectangle 6699" width="720" height="149" transform="translate(1)" fill="none"/>
    </clipPath>
  </defs>
  <g id="p-dot-bg" transform="translate(-1)">
    <g id="Mask_Group_57" data-name="Mask Group 57" clip-path="url(#clip-path)">
      <g id="Path_109823" data-name="Path 109823" transform="translate(-651 -550)" fill="#fff" stroke-dasharray="10 10">
        <path d="M1371,550H651v52.593s.167,45.806,0,45.629C729.867,626.795,758,675.2,827,686s167-26.822,248-37.778,110,15.111,184,15.111,112-35.417,112-35.417Z" stroke="none"/>
        <path d="M 651 539.9999389648438 L 661 539.9999389648438 L 661 549.9999389648438 C 661 549.9999389648438 651 549.9999389648438 651 549.9999389648438 L 651 539.9999389648438 Z M 671 539.9999389648438 L 681 539.9999389648438 L 681 549.9999389648438 C 681 549.9999389648438 671 549.9999389648438 671 549.9999389648438 L 671 539.9999389648438 Z M 691 539.9999389648438 L 701 539.9999389648438 L 701 549.9999389648438 C 701 549.9999389648438 691 549.9999389648438 691 549.9999389648438 L 691 539.9999389648438 Z M 711 539.9999389648438 L 721 539.9999389648438 L 721 549.9999389648438 C 721 549.9999389648438 711 549.9999389648438 711 549.9999389648438 L 711 539.9999389648438 Z M 731 539.9999389648438 L 741 539.9999389648438 L 741 549.9999389648438 C 741 549.9999389648438 731 549.9999389648438 731 549.9999389648438 L 731 539.9999389648438 Z M 751 539.9999389648438 L 761 539.9999389648438 L 761 549.9999389648438 C 761 549.9999389648438 751 549.9999389648438 751 549.9999389648438 L 751 539.9999389648438 Z M 771 539.9999389648438 L 781 539.9999389648438 L 781 549.9999389648438 C 781 549.9999389648438 771 549.9999389648438 771 549.9999389648438 L 771 539.9999389648438 Z M 791 539.9999389648438 L 801 539.9999389648438 L 801 549.9999389648438 C 801 549.9999389648438 791 549.9999389648438 791 549.9999389648438 L 791 539.9999389648438 Z M 811 539.9999389648438 L 821 539.9999389648438 L 821 549.9999389648438 C 821 549.9999389648438 811 549.9999389648438 811 549.9999389648438 L 811 539.9999389648438 Z M 831 539.9999389648438 L 841 539.9999389648438 L 841 549.9999389648438 C 841 549.9999389648438 831 549.9999389648438 831 549.9999389648438 L 831 539.9999389648438 Z M 851 539.9999389648438 L 861 539.9999389648438 L 861 549.9999389648438 C 861 549.9999389648438 851 549.9999389648438 851 549.9999389648438 L 851 539.9999389648438 Z M 871 539.9999389648438 L 881 539.9999389648438 L 881 549.9999389648438 C 881 549.9999389648438 871 549.9999389648438 871 549.9999389648438 L 871 539.9999389648438 Z M 891 539.9999389648438 L 901 539.9999389648438 L 901 549.9999389648438 C 901 549.9999389648438 891 549.9999389648438 891 549.9999389648438 L 891 539.9999389648438 Z M 911 539.9999389648438 L 921 539.9999389648438 L 921 549.9999389648438 C 921 549.9999389648438 911 549.9999389648438 911 549.9999389648438 L 911 539.9999389648438 Z M 931 539.9999389648438 L 941 539.9999389648438 L 941 549.9999389648438 C 941 549.9999389648438 931 549.9999389648438 931 549.9999389648438 L 931 539.9999389648438 Z M 951 539.9999389648438 L 961 539.9999389648438 L 961 549.9999389648438 C 961 549.9999389648438 951 549.9999389648438 951 549.9999389648438 L 951 539.9999389648438 Z M 971 539.9999389648438 L 981 539.9999389648438 L 981 549.9999389648438 C 981 549.9999389648438 971 549.9999389648438 971 549.9999389648438 L 971 539.9999389648438 Z M 991 539.9999389648438 L 1001 539.9999389648438 L 1001 549.9999389648438 C 1001 549.9999389648438 991 549.9999389648438 991 549.9999389648438 L 991 539.9999389648438 Z M 1011 539.9999389648438 L 1021 539.9999389648438 L 1021 549.9999389648438 C 1021 549.9999389648438 1011 549.9999389648438 1011 549.9999389648438 L 1011 539.9999389648438 Z M 1031 539.9999389648438 L 1041 539.9999389648438 L 1041 549.9999389648438 C 1041 549.9999389648438 1031 549.9999389648438 1031 549.9999389648438 L 1031 539.9999389648438 Z M 1051 539.9999389648438 L 1061 539.9999389648438 L 1061 549.9999389648438 C 1061 549.9999389648438 1051 549.9999389648438 1051 549.9999389648438 L 1051 539.9999389648438 Z M 1071 539.9999389648438 L 1081 539.9999389648438 L 1081 549.9999389648438 C 1081 549.9999389648438 1071 549.9999389648438 1071 549.9999389648438 L 1071 539.9999389648438 Z M 1091 539.9999389648438 L 1101 539.9999389648438 L 1101 549.9999389648438 C 1101 549.9999389648438 1091 549.9999389648438 1091 549.9999389648438 L 1091 539.9999389648438 Z M 1111 539.9999389648438 L 1121 539.9999389648438 L 1121 549.9999389648438 C 1121 549.9999389648438 1111 549.9999389648438 1111 549.9999389648438 L 1111 539.9999389648438 Z M 1131 539.9999389648438 L 1141 539.9999389648438 L 1141 549.9999389648438 C 1141 549.9999389648438 1131 549.9999389648438 1131 549.9999389648438 L 1131 539.9999389648438 Z M 1151 539.9999389648438 L 1161 539.9999389648438 L 1161 549.9999389648438 C 1161 549.9999389648438 1151 549.9999389648438 1151 549.9999389648438 L 1151 539.9999389648438 Z M 1171 539.9999389648438 L 1181 539.9999389648438 L 1181 549.9999389648438 C 1181 549.9999389648438 1171 549.9999389648438 1171 549.9999389648438 L 1171 539.9999389648438 Z M 1191 539.9999389648438 L 1201 539.9999389648438 L 1201 549.9999389648438 C 1201 549.9999389648438 1191 549.9999389648438 1191 549.9999389648438 L 1191 539.9999389648438 Z M 1211 539.9999389648438 L 1221 539.9999389648438 L 1221 549.9999389648438 C 1221 549.9999389648438 1211 549.9999389648438 1211 549.9999389648438 L 1211 539.9999389648438 Z M 1231 539.9999389648438 L 1241 539.9999389648438 L 1241 549.9999389648438 C 1241 549.9999389648438 1231 549.9999389648438 1231 549.9999389648438 L 1231 539.9999389648438 Z M 1251 539.9999389648438 L 1261 539.9999389648438 L 1261 549.9999389648438 C 1261 549.9999389648438 1251 549.9999389648438 1251 549.9999389648438 L 1251 539.9999389648438 Z M 1271 539.9999389648438 L 1281 539.9999389648438 L 1281 549.9999389648438 C 1281 549.9999389648438 1271 549.9999389648438 1271 549.9999389648438 L 1271 539.9999389648438 Z M 1291 539.9999389648438 L 1301 539.9999389648438 L 1301 549.9999389648438 C 1301 549.9999389648438 1291 549.9999389648438 1291 549.9999389648438 L 1291 539.9999389648438 Z M 1311 539.9999389648438 L 1321 539.9999389648438 L 1321 549.9999389648438 C 1321 549.9999389648438 1311 549.9999389648438 1311 549.9999389648438 L 1311 539.9999389648438 Z M 1331 539.9999389648438 L 1341 539.9999389648438 L 1341 549.9999389648438 C 1341 549.9999389648438 1331 549.9999389648438 1331 549.9999389648438 L 1331 539.9999389648438 Z M 1351 539.9999389648438 L 1361 539.9999389648438 L 1361 549.9999389648438 C 1361 549.9999389648438 1351 549.9999389648438 1351 549.9999389648438 L 1351 539.9999389648438 Z M 1371 549.9999389648438 L 1381 549.9999389648438 L 1381 559.9999389648438 L 1371 559.9999389648438 L 1371 549.9999389648438 C 1371 549.9999389648438 1371 549.9999389648438 1371 549.9999389648438 Z M 1371 569.9999389648438 L 1381 569.9999389648438 L 1381 579.9999389648438 L 1371 579.9999389648438 L 1371 569.9999389648438 Z M 1371 589.9999389648438 L 1381 589.9999389648438 L 1381 599.9999389648438 L 1371 599.9999389648438 L 1371 589.9999389648438 Z M 1371 609.9999389648438 L 1381 609.9999389648438 L 1381 619.9999389648438 L 1371 619.9999389648438 L 1371 609.9999389648438 Z M 1369.4248046875 629.2714233398438 L 1375.788208007812 636.9855346679688 C 1374.080078125 638.39453125 1371.117797851562 640.7096557617188 1366.906616210938 643.5121459960938 L 1361.3662109375 635.1871337890625 C 1365.185668945312 632.6453857421875 1367.87548828125 630.5494384765625 1369.4248046875 629.271484375 Z M 1352.841674804688 640.4086303710938 L 1357.7587890625 649.1162719726562 C 1354.922973632812 650.717529296875 1351.777587890625 652.3778686523438 1348.32373046875 654.0443725585938 L 1343.97802734375 645.0379638671875 C 1345.928100585938 644.0969848632812 1347.772705078125 643.1588134765625 1349.51318359375 642.2329711914062 C 1349.5166015625 642.2311401367188 1349.51953125 642.2295532226562 1349.52294921875 642.2277221679688 C 1349.532958984375 642.222412109375 1349.541381835938 642.2178955078125 1349.551391601562 642.2125854492188 C 1349.55908203125 642.20849609375 1349.566650390625 642.2044067382812 1349.574462890625 642.2003173828125 C 1349.58056640625 642.1970825195312 1349.5888671875 642.192626953125 1349.594848632812 642.189453125 C 1349.60546875 642.183837890625 1349.615966796875 642.17822265625 1349.62646484375 642.172607421875 C 1349.63037109375 642.1704711914062 1349.6396484375 642.1655883789062 1349.6435546875 642.1634521484375 C 1349.656127929688 642.1567993164062 1349.6689453125 642.1499633789062 1349.681396484375 642.143310546875 C 1349.681396484375 642.143310546875 1349.683349609375 642.142333984375 1349.683349609375 642.142333984375 C 1349.698608398438 642.1341552734375 1349.71435546875 642.125732421875 1349.729736328125 642.1175537109375 C 1349.729736328125 642.1175537109375 1349.732788085938 642.1159057617188 1349.732788085938 642.1159057617188 C 1350.809814453125 641.540771484375 1351.845947265625 640.970947265625 1352.841674804688 640.4086303710938 Z M 1334.84619140625 649.1083374023438 L 1338.644775390625 658.3588256835938 C 1335.53564453125 659.6355590820312 1332.23876953125 660.888671875 1328.754638671875 662.0926513671875 L 1325.48828125 652.6412353515625 C 1327.927856445312 651.798095703125 1330.270751953125 650.9295654296875 1332.51611328125 650.04541015625 C 1332.51611328125 650.04541015625 1332.52099609375 650.04345703125 1332.52099609375 650.04345703125 C 1332.539428710938 650.0362548828125 1332.5576171875 650.0291137695312 1332.575927734375 650.0218505859375 C 1332.57861328125 650.0208129882812 1332.584716796875 650.0183715820312 1332.58740234375 650.017333984375 C 1332.603149414062 650.0111083984375 1332.618896484375 650.0049438476562 1332.634521484375 649.9987182617188 C 1332.642578125 649.9955444335938 1332.651000976562 649.9922485351562 1332.658935546875 649.9890747070312 C 1332.671752929688 649.9840087890625 1332.684326171875 649.9790649414062 1332.697143554688 649.9739990234375 C 1332.707763671875 649.9697875976562 1332.71875 649.9654541015625 1332.7294921875 649.9612426757812 C 1332.73974609375 649.9571533203125 1332.75 649.953125 1332.760375976562 649.9490356445312 C 1332.7763671875 649.9426879882812 1332.789794921875 649.9373779296875 1332.8056640625 649.9310913085938 C 1332.812377929688 649.928466796875 1332.819091796875 649.92578125 1332.82568359375 649.9231567382812 C 1332.844360351562 649.915771484375 1332.861083984375 649.9091186523438 1332.879760742188 649.9017333984375 C 1332.884155273438 649.9000244140625 1332.888427734375 649.8983154296875 1332.892822265625 649.8965454101562 C 1333.551147460938 649.6355590820312 1334.204711914062 649.3717651367188 1334.84619140625 649.1083984375 Z M 1315.953125 655.646240234375 L 1318.699462890625 665.26171875 C 1315.437377929688 666.1934204101562 1312.039306640625 667.0728759765625 1308.505615234375 667.884033203125 L 1306.268188476562 658.1375732421875 C 1309.627197265625 657.366455078125 1312.852294921875 656.531982421875 1315.953125 655.646240234375 Z M 1296.471435546875 660.1251220703125 L 1298.212280273438 669.9724731445312 C 1294.861572265625 670.5647583007812 1291.404907226562 671.0921630859375 1287.84228515625 671.5436401367188 L 1286.585083007812 661.6229248046875 C 1288.515014648438 661.37841796875 1290.416259765625 661.1099243164062 1292.281005859375 660.8204956054688 C 1292.28857421875 660.8193359375 1292.2958984375 660.8181762695312 1292.303466796875 660.8170166015625 C 1292.322509765625 660.8140869140625 1292.337646484375 660.8117065429688 1292.356689453125 660.8087768554688 C 1292.36767578125 660.8070678710938 1292.378295898438 660.805419921875 1292.389282226562 660.8036499023438 C 1292.404541015625 660.8013305664062 1292.4228515625 660.7984619140625 1292.43798828125 660.7960815429688 C 1292.450439453125 660.7941284179688 1292.463012695312 660.7921752929688 1292.475341796875 660.7902221679688 C 1292.490600585938 660.7879028320312 1292.503173828125 660.785888671875 1292.518310546875 660.7835693359375 C 1292.538818359375 660.7803344726562 1292.558959960938 660.7771606445312 1292.57958984375 660.77392578125 C 1292.587158203125 660.7727661132812 1292.592529296875 660.7719116210938 1292.60009765625 660.770751953125 C 1292.658935546875 660.761474609375 1292.718383789062 660.7521362304688 1292.77734375 660.7428588867188 C 1292.77734375 660.7428588867188 1292.781982421875 660.7421264648438 1292.781982421875 660.7421264648438 C 1292.810546875 660.7376098632812 1292.838745117188 660.733154296875 1292.8671875 660.7286376953125 C 1292.8671875 660.7286376953125 1292.87255859375 660.7278442382812 1292.87255859375 660.7278442382812 C 1294.086181640625 660.5358276367188 1295.28564453125 660.3347778320312 1296.471435546875 660.1251220703125 Z M 1276.640014648438 662.6443481445312 L 1277.428466796875 672.6132202148438 C 1274.035278320312 672.8815307617188 1270.55615234375 673.0795288085938 1266.9912109375 673.1991577148438 L 1266.655883789062 663.204833984375 C 1267.217895507812 663.1859741210938 1267.777587890625 663.1651000976562 1268.335205078125 663.1421508789062 C 1268.362426757812 663.1409912109375 1268.3984375 663.1395874023438 1268.426025390625 663.138427734375 C 1268.455078125 663.1371459960938 1268.485595703125 663.1358642578125 1268.514892578125 663.1347045898438 C 1268.539184570312 663.1336669921875 1268.5703125 663.1324462890625 1268.594482421875 663.13134765625 C 1268.63330078125 663.1296997070312 1268.679809570312 663.1277465820312 1268.71875 663.1260986328125 C 1268.720703125 663.1259765625 1268.723022460938 663.1259155273438 1268.72509765625 663.1257934570312 C 1268.7509765625 663.1246948242188 1268.77587890625 663.1236572265625 1268.8017578125 663.1224975585938 C 1268.802734375 663.1224975585938 1268.803466796875 663.1224365234375 1268.80419921875 663.1224365234375 C 1270.911376953125 663.0314331054688 1272.984741210938 662.9120483398438 1275.02783203125 662.7657470703125 C 1275.03271484375 662.765380859375 1275.038208007812 662.7650146484375 1275.043212890625 662.7646484375 C 1275.064208984375 662.76318359375 1275.085205078125 662.7616577148438 1275.106201171875 662.7601318359375 C 1275.116455078125 662.7593994140625 1275.126953125 662.7586059570312 1275.137329101562 662.7578735351562 C 1275.162475585938 662.756103515625 1275.182861328125 662.754638671875 1275.207885742188 662.7528076171875 C 1275.2294921875 662.751220703125 1275.2509765625 662.7496948242188 1275.272583007812 662.7481079101562 C 1275.28515625 662.7471923828125 1275.291381835938 662.7467041015625 1275.303955078125 662.7457885742188 C 1275.326416015625 662.7442016601562 1275.349365234375 662.7424926757812 1275.371826171875 662.7408447265625 C 1275.380249023438 662.740234375 1275.383056640625 662.7400512695312 1275.391357421875 662.7394409179688 C 1275.808959960938 662.7088623046875 1276.22509765625 662.6771240234375 1276.640014648438 662.6443481445312 Z M 1246.647705078125 663.0853881835938 C 1247.32080078125 663.112548828125 1247.99755859375 663.1376342773438 1248.67822265625 663.1605224609375 C 1248.7021484375 663.1613159179688 1248.718017578125 663.1618041992188 1248.741821289062 663.1626586914062 C 1248.764282226562 663.1633911132812 1248.786987304688 663.1641235351562 1248.809448242188 663.1648559570312 C 1248.809448242188 663.1648559570312 1248.81201171875 663.1649780273438 1248.81201171875 663.1649780273438 C 1250.532348632812 663.2220458984375 1252.277465820312 663.26513671875 1254.048095703125 663.2932739257812 C 1254.048095703125 663.2932739257812 1254.055419921875 663.2933959960938 1254.055419921875 663.2933959960938 C 1254.087890625 663.2939453125 1254.113525390625 663.2942504882812 1254.145874023438 663.2948608398438 C 1254.1767578125 663.2953491210938 1254.20751953125 663.2958374023438 1254.23828125 663.2962646484375 C 1254.265869140625 663.296630859375 1254.300659179688 663.2973022460938 1254.328369140625 663.297607421875 C 1254.330322265625 663.2976684570312 1254.332275390625 663.2976684570312 1254.334350585938 663.2977294921875 C 1255.098388671875 663.3091430664062 1255.869140625 663.31787109375 1256.642822265625 663.3236694335938 L 1256.567626953125 673.3234252929688 C 1253.030029296875 673.2967529296875 1249.592407226562 673.2124633789062 1246.244140625 673.0772705078125 L 1246.647705078125 663.0853271484375 Z M 1226.709228515625 661.6074829101562 C 1229.460815429688 661.904052734375 1232.274658203125 662.1695556640625 1235.150634765625 662.397705078125 C 1235.153564453125 662.39794921875 1235.15625 662.398193359375 1235.1591796875 662.3983764648438 C 1235.18212890625 662.4002075195312 1235.198974609375 662.4015502929688 1235.221923828125 662.4033813476562 C 1235.229736328125 662.4039916992188 1235.237060546875 662.404541015625 1235.244873046875 662.4052124023438 C 1235.26123046875 662.406494140625 1235.277954101562 662.4077758789062 1235.29443359375 662.4091186523438 C 1235.30615234375 662.4100341796875 1235.317993164062 662.4109497070312 1235.329833984375 662.411865234375 C 1235.3427734375 662.4129028320312 1235.34912109375 662.4133911132812 1235.3623046875 662.4144287109375 C 1235.380249023438 662.4158325195312 1235.398071289062 662.417236328125 1235.416015625 662.4186401367188 C 1235.422607421875 662.419189453125 1235.427978515625 662.4196166992188 1235.4345703125 662.4201049804688 C 1235.45556640625 662.4217529296875 1235.47705078125 662.4234619140625 1235.498168945312 662.4251098632812 C 1235.50146484375 662.4253540039062 1235.5048828125 662.4255981445312 1235.508056640625 662.4258422851562 C 1235.893310546875 662.4559936523438 1236.279541015625 662.4854125976562 1236.667114257812 662.51416015625 L 1235.927490234375 672.4867553710938 C 1232.4052734375 672.2254638671875 1228.980102539062 671.91015625 1225.6376953125 671.5499267578125 L 1226.709228515625 661.607421875 Z M 1206.903198242188 658.8587646484375 C 1210.1318359375 659.3984985351562 1213.417114257812 659.9083862304688 1216.78515625 660.3782348632812 L 1215.403564453125 670.2822265625 C 1211.946044921875 669.7999267578125 1208.569091796875 669.2759399414062 1205.254516601562 668.7218627929688 L 1206.903198242188 658.8587646484375 Z M 1187.2451171875 655.1900024414062 C 1190.484619140625 655.8380737304688 1193.747314453125 656.480224609375 1197.060546875 657.1036987304688 L 1195.211303710938 666.93115234375 C 1191.861083984375 666.3007202148438 1188.55908203125 665.6509399414062 1185.283447265625 664.9955444335938 L 1187.2451171875 655.1898193359375 Z M 1167.6318359375 651.2865600585938 C 1170.914794921875 651.9110107421875 1174.173583984375 652.557861328125 1177.443359375 653.2150268554688 L 1175.473022460938 663.0189208984375 C 1172.2392578125 662.3689575195312 1169.010009765625 661.7278442382812 1165.763305664062 661.1103515625 L 1167.6318359375 651.2864379882812 Z M 1147.90869140625 647.9928588867188 C 1151.255737304688 648.45458984375 1154.54150390625 648.9656372070312 1157.791748046875 649.5133666992188 L 1156.130004882812 659.374267578125 C 1152.977783203125 658.843017578125 1149.78857421875 658.3467407226562 1146.542236328125 657.89892578125 L 1147.90869140625 647.9927368164062 Z M 1128.017578125 645.9912109375 C 1131.41845703125 646.1993408203125 1134.734375 646.473388671875 1137.980712890625 646.8019409179688 L 1136.9736328125 656.7510375976562 C 1133.856201171875 656.4354248046875 1130.672485351562 656.17236328125 1127.406494140625 655.9724731445312 L 1128.017578125 645.9911499023438 Z M 1113.0009765625 645.5332641601562 C 1113.069702148438 645.5332641601562 1113.138427734375 645.5332641601562 1113.207153320312 645.5333251953125 C 1114.833129882812 645.53466796875 1116.443359375 645.552001953125 1118.02783203125 645.5841674804688 L 1117.824951171875 655.58203125 L 1113.001098632812 655.5332641601562 L 1108.219970703125 655.5806274414062 L 1108.022705078125 645.58251953125 C 1109.589111328125 645.5516967773438 1111.135986328125 645.5355834960938 1112.663330078125 645.5335083007812 C 1112.686767578125 645.5326538085938 1112.707641601562 645.533447265625 1112.729736328125 645.5333862304688 C 1112.751953125 645.5330200195312 1112.772338867188 645.5333251953125 1112.793823242188 645.5333251953125 C 1112.81640625 645.5333862304688 1112.8388671875 645.5333862304688 1112.861206054688 645.5332641601562 C 1112.884399414062 645.5333251953125 1112.906005859375 645.5333251953125 1112.92919921875 645.5332641601562 C 1112.953125 645.5332641601562 1112.97705078125 645.5332641601562 1113.0009765625 645.5332641601562 C 1113.0009765625 645.5332641601562 1113.0009765625 645.5332641601562 1113.0009765625 645.5332641601562 Z M 1098.03125 645.971435546875 L 1098.607421875 655.9547729492188 C 1095.487060546875 656.1348266601562 1092.283081054688 656.3756713867188 1088.9873046875 656.682373046875 L 1088.060546875 646.7254638671875 C 1088.352172851562 646.6983032226562 1088.64306640625 646.671630859375 1088.933349609375 646.6455078125 C 1088.9365234375 646.6452026367188 1088.941162109375 646.644775390625 1088.9443359375 646.6444702148438 C 1088.96533203125 646.6426391601562 1088.986694335938 646.6406860351562 1089.007690429688 646.6387939453125 C 1089.01318359375 646.6383056640625 1089.02001953125 646.6376953125 1089.025634765625 646.63720703125 C 1089.042602539062 646.6356811523438 1089.0595703125 646.6341552734375 1089.076416015625 646.6326293945312 C 1089.087646484375 646.6316528320312 1089.100463867188 646.6304931640625 1089.111572265625 646.6295166015625 C 1089.124633789062 646.6282958984375 1089.137329101562 646.627197265625 1089.150390625 646.6260375976562 C 1089.1630859375 646.6248779296875 1089.17578125 646.623779296875 1089.1884765625 646.6226196289062 C 1089.199829101562 646.62158203125 1089.2109375 646.62060546875 1089.222412109375 646.6195678710938 C 1089.239135742188 646.6181030273438 1089.2568359375 646.6165161132812 1089.273559570312 646.6150512695312 C 1089.276611328125 646.61474609375 1089.279541015625 646.614501953125 1089.28271484375 646.6141967773438 C 1089.304931640625 646.6122436523438 1089.328002929688 646.6102294921875 1089.350341796875 646.6082153320312 C 1089.352294921875 646.6080322265625 1089.35400390625 646.60791015625 1089.356079101562 646.6077270507812 C 1091.743408203125 646.3961181640625 1094.0849609375 646.218017578125 1096.382080078125 646.0715942382812 C 1096.385986328125 646.0713500976562 1096.390014648438 646.0711059570312 1096.39404296875 646.07080078125 C 1096.4130859375 646.0696411132812 1096.431640625 646.0684204101562 1096.450927734375 646.0671997070312 C 1096.473510742188 646.0657958984375 1096.49609375 646.0643310546875 1096.518798828125 646.0629272460938 C 1096.535278320312 646.0618896484375 1096.552368164062 646.060791015625 1096.56884765625 646.0597534179688 C 1096.57568359375 646.059326171875 1096.583984375 646.0587768554688 1096.5908203125 646.058349609375 C 1097.072998046875 646.0280151367188 1097.552978515625 645.9990234375 1098.03125 645.971435546875 Z M 1078.120361328125 647.8146362304688 L 1079.366577148438 657.7366333007812 L 1076.34033203125 658.1314697265625 C 1074.143798828125 658.428466796875 1071.9345703125 658.7456665039062 1069.713500976562 659.0812377929688 L 1068.219482421875 649.1935424804688 C 1070.491943359375 648.8501586914062 1072.75244140625 648.525634765625 1075 648.2216186523438 C 1075 648.2216186523438 1075 648.2216186523438 1075 648.2216186523438 C 1075 648.2216186523438 1075 648.2216186523438 1075 648.2216186523438 C 1076.048706054688 648.079833984375 1077.0888671875 647.9441528320312 1078.120361328125 647.8146362304688 Z M 1058.342407226562 650.7877197265625 L 1060.029052734375 660.6444702148438 C 1056.822875976562 661.1931762695312 1053.595581054688 661.7745361328125 1050.35009765625 662.3841552734375 L 1048.504150390625 652.5559692382812 C 1050.434936523438 652.193359375 1052.358154296875 651.8406982421875 1054.275634765625 651.4986572265625 C 1054.27880859375 651.4981079101562 1054.28173828125 651.49755859375 1054.284912109375 651.4970092773438 C 1054.3876953125 651.4786376953125 1054.483154296875 651.461669921875 1054.5859375 651.443359375 C 1054.594970703125 651.4417724609375 1054.603515625 651.4402465820312 1054.612426757812 651.4386596679688 C 1054.706298828125 651.4219970703125 1054.8056640625 651.4043579101562 1054.8994140625 651.3876953125 C 1054.91064453125 651.3857421875 1054.921752929688 651.3837280273438 1054.932861328125 651.3817749023438 C 1054.959716796875 651.3770141601562 1054.984375 651.3726806640625 1055.011108398438 651.367919921875 C 1055.0322265625 651.3641357421875 1055.053588867188 651.3604125976562 1055.07470703125 651.3566284179688 C 1055.10595703125 651.35107421875 1055.137939453125 651.345458984375 1055.169189453125 651.3399047851562 C 1055.199462890625 651.3345947265625 1055.230102539062 651.3291625976562 1055.26025390625 651.3238525390625 C 1055.278076171875 651.3206787109375 1055.29443359375 651.3178100585938 1055.312377929688 651.3146362304688 C 1055.342041015625 651.3093872070312 1055.37158203125 651.3041381835938 1055.4013671875 651.2988891601562 C 1055.414794921875 651.2965698242188 1055.434814453125 651.2930297851562 1055.4482421875 651.2906494140625 C 1055.491088867188 651.2830810546875 1055.53369140625 651.2755737304688 1055.576538085938 651.2680053710938 C 1055.58544921875 651.2664794921875 1055.601440429688 651.263671875 1055.6103515625 651.2620849609375 C 1055.647705078125 651.2554931640625 1055.685302734375 651.2489013671875 1055.72265625 651.2423095703125 C 1055.731567382812 651.24072265625 1055.743774414062 651.2385864257812 1055.752685546875 651.237060546875 C 1055.85009765625 651.2199096679688 1055.94775390625 651.2027587890625 1056.045166015625 651.1856689453125 C 1056.045166015625 651.1856689453125 1056.049438476562 651.1849365234375 1056.049438476562 651.1849365234375 C 1056.81494140625 651.05078125 1057.5791015625 650.9183349609375 1058.342407226562 650.7877197265625 Z M 1038.689575195312 654.4690551757812 L 1040.665405273438 664.2718505859375 C 1037.44921875 664.920166015625 1034.218383789062 665.5911254882812 1030.974975585938 666.28076171875 L 1028.895263671875 656.4994506835938 C 1032.17333984375 655.8024291992188 1035.43896484375 655.1241455078125 1038.689575195312 654.4690551757812 Z M 1019.122192382812 658.6214599609375 L 1021.282409667969 668.3853759765625 L 1011.585083007812 670.5633544921875 L 1009.366088867188 660.8125610351562 C 1009.899780273438 660.691162109375 1010.425231933594 660.57177734375 1010.95849609375 660.4508666992188 C 1013.670349121094 659.836181640625 1016.377197265625 659.2288818359375 1019.0771484375 658.6314086914062 C 1019.091003417969 658.6283569335938 1019.108337402344 658.62451171875 1019.122192382812 658.6214599609375 Z M 999.6187133789062 663.052734375 L 1001.876098632812 672.794677734375 L 992.1553955078125 675.058837890625 L 989.87890625 665.3214721679688 C 990.8890380859375 665.0852661132812 991.899169921875 664.8492431640625 992.9088134765625 664.6136474609375 C 992.9415283203125 664.6060180664062 992.974853515625 664.5982055664062 993.007568359375 664.590576171875 C 993.020263671875 664.587646484375 993.032470703125 664.5847778320312 993.045166015625 664.581787109375 C 995.2423095703125 664.0691528320312 997.425048828125 663.56103515625 999.6187133789062 663.052734375 Z M 980.141357421875 667.5996704101562 L 982.4178466796875 677.3370361328125 L 972.659423828125 679.6102294921875 L 970.401611328125 669.8684692382812 C 971.003662109375 669.7289428710938 971.61181640625 669.5878295898438 972.2139892578125 669.4479370117188 C 972.2259521484375 669.4451904296875 972.238037109375 669.4423217773438 972.25 669.4395751953125 C 972.3199462890625 669.4232788085938 972.3968505859375 669.4054565429688 972.4669189453125 669.38916015625 C 975.0242919921875 668.794921875 977.5826416015625 668.1978149414062 980.141357421875 667.5996704101562 Z M 960.6553955078125 672.1090698242188 L 962.875244140625 681.8595581054688 L 953.05908203125 684.0655517578125 L 950.8970947265625 674.3020629882812 C 954.1434326171875 673.5831298828125 957.3968505859375 672.850830078125 960.6553955078125 672.1090698242188 Z M 941.1260986328125 676.42626953125 L 943.209228515625 686.2068481445312 C 939.9007568359375 686.9115600585938 936.6024169921875 687.5980224609375 933.3167724609375 688.2623291015625 L 931.3350830078125 678.4606323242188 C 934.583984375 677.8037719726562 937.8546142578125 677.123046875 941.1260986328125 676.42626953125 Z M 921.5184326171875 680.3818359375 L 923.3736572265625 690.208251953125 C 920.0255126953125 690.8404541015625 916.693359375 691.4447631835938 913.3797607421875 692.016845703125 L 911.678466796875 682.1626586914062 C 912.05322265625 682.0979614257812 912.4281005859375 682.0328369140625 912.8033447265625 681.96728515625 C 912.812255859375 681.9657592773438 912.8232421875 681.9638061523438 912.8321533203125 681.9622802734375 C 912.881103515625 681.9537353515625 912.929931640625 681.9451904296875 912.978759765625 681.9366455078125 C 912.996826171875 681.9334716796875 913.016357421875 681.9300537109375 913.034423828125 681.9268798828125 C 913.0546875 681.92333984375 913.0748291015625 681.9197998046875 913.09521484375 681.916259765625 C 913.1221923828125 681.9114990234375 913.150634765625 681.9065551757812 913.1776123046875 681.9017944335938 C 913.1944580078125 681.8988647460938 913.211181640625 681.8959350585938 913.2279052734375 681.8930053710938 C 913.2684326171875 681.8858642578125 913.316650390625 681.87744140625 913.357177734375 681.8703002929688 C 913.3656005859375 681.8688354492188 913.373779296875 681.8673706054688 913.3822021484375 681.8659057617188 C 913.418212890625 681.8595581054688 913.4595947265625 681.852294921875 913.4957275390625 681.845947265625 C 913.50830078125 681.84375 913.52099609375 681.8414916992188 913.5335693359375 681.8392944335938 C 913.628173828125 681.8226928710938 913.7222900390625 681.8060913085938 913.81689453125 681.7893676757812 C 913.821533203125 681.78857421875 913.82568359375 681.787841796875 913.830322265625 681.7870483398438 C 913.97900390625 681.7608032226562 914.129638671875 681.734130859375 914.2784423828125 681.707763671875 C 914.2806396484375 681.7073974609375 914.28271484375 681.70703125 914.284912109375 681.7066650390625 C 916.688232421875 681.2807006835938 919.096923828125 680.839111328125 921.5184326171875 680.3818969726562 Z M 901.8131103515625 683.7735595703125 L 903.329345703125 693.657958984375 C 899.9305419921875 694.1793212890625 896.5548095703125 694.6611328125 893.205078125 695.0987548828125 L 891.909912109375 685.1829223632812 C 895.1876220703125 684.7548217773438 898.4873046875 684.2837524414062 901.8131103515625 683.7735595703125 Z M 881.9754638671875 686.35107421875 L 883.00830078125 696.2975463867188 C 879.551025390625 696.6565551757812 876.1256103515625 696.9613647460938 872.735595703125 697.2067260742188 L 872.0135498046875 687.2328491210938 C 873.7095947265625 687.110107421875 875.4111328125 686.9722900390625 877.1248779296875 686.8195190429688 C 877.12548828125 686.8194580078125 877.12646484375 686.8193969726562 877.1270751953125 686.8193359375 C 877.2293701171875 686.8101806640625 877.33447265625 686.80078125 877.436767578125 686.7915649414062 C 877.437255859375 686.79150390625 877.4376220703125 686.79150390625 877.43798828125 686.7914428710938 C 877.64697265625 686.7726440429688 877.851318359375 686.7540283203125 878.060546875 686.7347412109375 C 878.06103515625 686.7346801757812 878.0609130859375 686.7346801757812 878.061279296875 686.7346801757812 C 878.9453125 686.6532592773438 879.8291015625 686.5682983398438 880.7176513671875 686.4793090820312 C 880.7193603515625 686.4791870117188 880.720947265625 686.47900390625 880.72265625 686.4788208007812 C 880.82568359375 686.468505859375 880.926513671875 686.4583740234375 881.0296630859375 686.4479370117188 C 881.03271484375 686.4476318359375 881.03564453125 686.4473266601562 881.038818359375 686.447021484375 C 881.1375732421875 686.43701171875 881.238525390625 686.4267578125 881.33740234375 686.4166870117188 C 881.3446044921875 686.4159545898438 881.3515625 686.4152221679688 881.3587646484375 686.41455078125 C 881.4576416015625 686.4044189453125 881.54541015625 686.3954467773438 881.644287109375 686.38525390625 C 881.65625 686.384033203125 881.66796875 686.3828125 881.6798095703125 686.381591796875 C 881.72705078125 686.3767700195312 881.7703857421875 686.3722534179688 881.8177490234375 686.3673706054688 C 881.8192138671875 686.3672485351562 881.820556640625 686.3671264648438 881.8218994140625 686.366943359375 C 881.864990234375 686.3624877929688 881.9075927734375 686.3580932617188 881.95068359375 686.3536376953125 C 881.9588623046875 686.352783203125 881.96728515625 686.3518676757812 881.9754638671875 686.35107421875 Z M 862.0289306640625 687.776123046875 L 862.383056640625 697.7698364257812 C 859.478271484375 697.8728637695312 856.60302734375 697.926025390625 853.759521484375 697.926025390625 L 851.9583740234375 697.9188232421875 L 852.0384521484375 687.9191284179688 C 852.558837890625 687.9234008789062 853.0831298828125 687.9257202148438 853.602783203125 687.9259643554688 C 853.6552734375 687.9261474609375 853.7073974609375 687.926025390625 853.759521484375 687.926025390625 C 853.759521484375 687.926025390625 853.759521484375 687.926025390625 853.759521484375 687.926025390625 C 853.8079833984375 687.926025390625 853.8623046875 687.9262084960938 853.9102783203125 687.9259643554688 C 853.95068359375 687.9259643554688 853.9893798828125 687.9258422851562 854.0296630859375 687.9259033203125 C 854.0687255859375 687.9258422851562 854.1063232421875 687.9259033203125 854.144287109375 687.9257202148438 C 854.1922607421875 687.9256591796875 854.246337890625 687.9253540039062 854.2939453125 687.9254150390625 C 854.3330078125 687.9252319335938 854.373779296875 687.9252319335938 854.4127197265625 687.925048828125 C 854.449951171875 687.925048828125 854.4844970703125 687.9236450195312 854.527587890625 687.9246826171875 C 854.574462890625 687.924560546875 854.621826171875 687.9244995117188 854.6688232421875 687.9241333007812 C 854.7098388671875 687.9240112304688 854.7550048828125 687.9239501953125 854.7952880859375 687.923583984375 C 854.8773193359375 687.9231567382812 854.962158203125 687.920166015625 855.0418701171875 687.9223022460938 C 855.0853271484375 687.9220581054688 855.1298828125 687.9212646484375 855.172607421875 687.9215087890625 C 857.4381103515625 687.9070434570312 859.723388671875 687.8578491210938 862.0289306640625 687.776123046875 Z M 832.08544921875 686.7022705078125 C 833.2197265625 686.8390502929688 834.3612060546875 686.9636840820312 835.509765625 687.0765991210938 C 835.512451171875 687.0768432617188 835.51513671875 687.0770874023438 835.517822265625 687.077392578125 C 835.584228515625 687.0839233398438 835.650634765625 687.0903930664062 835.71728515625 687.0968627929688 C 835.720458984375 687.09716796875 835.7232666015625 687.097412109375 835.7264404296875 687.0977172851562 C 835.7554931640625 687.1005859375 835.7845458984375 687.1033935546875 835.8135986328125 687.1061401367188 C 835.819580078125 687.1067504882812 835.8260498046875 687.1073608398438 835.8319091796875 687.10791015625 C 835.8603515625 687.1106567382812 835.8892822265625 687.1134643554688 835.917724609375 687.1161499023438 C 835.9210205078125 687.116455078125 835.92529296875 687.1168823242188 835.928466796875 687.1171875 C 835.9598388671875 687.1201782226562 835.9912109375 687.1231689453125 836.0224609375 687.1261596679688 C 836.030029296875 687.1268920898438 836.0386962890625 687.127685546875 836.0462646484375 687.12841796875 C 836.0694580078125 687.130615234375 836.0927734375 687.1328125 836.115966796875 687.135009765625 C 836.126708984375 687.1360473632812 836.1373291015625 687.1370239257812 836.1480712890625 687.1380615234375 C 836.1690673828125 687.1400146484375 836.1895751953125 687.1419677734375 836.2105712890625 687.1439208984375 C 836.221923828125 687.14501953125 836.23193359375 687.1459350585938 836.2432861328125 687.14697265625 C 836.2708740234375 687.1495971679688 836.2984619140625 687.1521606445312 836.326171875 687.1547241210938 C 836.3411865234375 687.1561279296875 836.35595703125 687.1575317382812 836.3709716796875 687.158935546875 C 836.386474609375 687.1603393554688 836.40185546875 687.1618041992188 836.41748046875 687.1632080078125 C 836.43359375 687.1647338867188 836.450439453125 687.166259765625 836.466552734375 687.1677856445312 C 836.4781494140625 687.1688232421875 836.4898681640625 687.169921875 836.5013427734375 687.1709594726562 C 836.5670166015625 687.177001953125 836.63427734375 687.1831665039062 836.699951171875 687.1891479492188 C 836.7054443359375 687.1896362304688 836.7110595703125 687.1901245117188 836.716552734375 687.190673828125 C 836.740234375 687.1928100585938 836.7642822265625 687.1949462890625 836.7879638671875 687.1970825195312 C 836.78857421875 687.1971435546875 836.7891845703125 687.1972045898438 836.789794921875 687.197265625 C 836.8663330078125 687.2042236328125 836.9434814453125 687.2111206054688 837.02001953125 687.2178955078125 C 837.02099609375 687.218017578125 837.0218505859375 687.2180786132812 837.0228271484375 687.2181396484375 C 838.6826171875 687.36572265625 840.3565673828125 687.4891357421875 842.0445556640625 687.5894775390625 L 841.4512939453125 697.5718383789062 C 837.8699951171875 697.3589477539062 834.3472900390625 697.0474243164062 830.88818359375 696.63037109375 L 832.08544921875 686.7022705078125 Z M 812.4300537109375 683.0557861328125 C 815.5977783203125 683.841064453125 818.85009765625 684.5524291992188 822.19921875 685.1763916015625 L 820.3675537109375 695.0071411132812 C 816.821533203125 694.346435546875 813.3775634765625 693.5933227539062 810.023681640625 692.7618408203125 L 812.4300537109375 683.0557250976562 Z M 793.31982421875 677.1904907226562 C 796.4052734375 678.3121337890625 799.5576171875 679.3790283203125 802.79931640625 680.3773803710938 L 799.85595703125 689.9342651367188 C 796.4541015625 688.886474609375 793.1414794921875 687.7655639648438 789.9034423828125 686.5885620117188 L 793.31982421875 677.1904907226562 Z M 774.8099365234375 669.630615234375 C 777.8211669921875 670.9723510742188 780.8792724609375 672.2938842773438 783.9990234375 673.5751953125 L 780.2000732421875 682.824951171875 C 776.9881591796875 681.505859375 773.8404541015625 680.1456298828125 770.7403564453125 678.7643432617188 L 774.8099365234375 669.630615234375 Z M 756.647216796875 661.25830078125 C 759.648681640625 662.6497192382812 762.668212890625 664.0657958984375 765.7122802734375 665.4789428710938 L 761.501953125 674.5484619140625 L 752.441650390625 670.3297729492188 L 756.647216796875 661.25830078125 Z M 738.33349609375 653.2289428710938 C 741.4232177734375 654.4640502929688 744.4892578125 655.77001953125 747.5443115234375 657.1204223632812 L 743.5018310546875 666.265625 C 740.5552978515625 664.963134765625 737.6019287109375 663.7044677734375 734.6219482421875 662.5132446289062 L 738.33349609375 653.2289428710938 Z M 719.3897705078125 646.85791015625 C 722.636962890625 647.7163696289062 725.8232421875 648.6901245117188 728.9583740234375 649.7532958984375 L 725.7470703125 659.2222290039062 C 722.825439453125 658.2314453125 719.860595703125 657.3246459960938 716.8343505859375 656.524658203125 L 719.3897705078125 646.85791015625 Z M 699.7293701171875 643.322509765625 C 703.115478515625 643.640380859375 706.416259765625 644.1011352539062 709.6337890625 644.6826782226562 L 707.85498046875 654.5222778320312 C 704.90966796875 653.98974609375 701.894775390625 653.5690307617188 698.7950439453125 653.2781372070312 L 699.7293701171875 643.322509765625 Z M 689.74755859375 642.8154907226562 L 688.754638671875 652.8113403320312 L 689.74755859375 642.8154296875 Z M 689.74755859375 642.8154907226562 L 689.6651611328125 652.8150634765625 L 689.74755859375 642.8154296875 Z M 688.7540283203125 642.8113403320312 L 688.754638671875 652.8113403320312 C 686.0653076171875 652.8115234375 683.3087158203125 652.9103393554688 680.47705078125 653.1165771484375 L 679.7503662109375 643.14306640625 C 682.661376953125 642.9309692382812 685.49951171875 642.8236694335938 688.2718505859375 642.8123779296875 C 688.31787109375 642.810546875 688.3621826171875 642.81201171875 688.4073486328125 642.8118896484375 C 688.431640625 642.812255859375 688.4537353515625 642.8118286132812 688.476806640625 642.8117065429688 C 688.4964599609375 642.8118286132812 688.5198974609375 642.8115844726562 688.5421142578125 642.8115234375 C 688.5633544921875 642.8116455078125 688.58642578125 642.8114013671875 688.6080322265625 642.8114624023438 C 688.6324462890625 642.8115844726562 688.6595458984375 642.8114013671875 688.6844482421875 642.8114013671875 C 688.7122802734375 642.8111572265625 688.7305908203125 642.8113403320312 688.7540283203125 642.8113403320312 C 688.7540283203125 642.8113403320312 688.7540283203125 642.8113403320312 688.7540283203125 642.8113403320312 Z M 669.814453125 644.242919921875 L 671.27392578125 654.1359252929688 C 668.2933349609375 654.5756225585938 665.2315673828125 655.1304321289062 662.0810546875 655.8085327148438 L 659.97705078125 646.0323486328125 C 663.3482666015625 645.3067626953125 666.6248779296875 644.7135620117188 669.814453125 644.2429809570312 Z M 641.0731201171875 637.4605712890625 L 651.0731201171875 637.4639282226562 C 651.071533203125 641.9176635742188 651.06103515625 645.5112915039062 651.035888671875 647.1917724609375 C 651.034423828125 647.2890625 651.0328369140625 647.3798828125 651.03125 647.4641723632812 L 641.032958984375 647.2788696289062 C 641.06103515625 645.7670288085938 641.071533203125 642.0862426757812 641.0731201171875 637.4605712890625 Z M 651.0447998046875 617.4628295898438 C 651.0478515625 618.7093505859375 651.0509033203125 619.9922485351562 651.0538330078125 621.2933349609375 C 651.0538330078125 621.2939453125 651.0538330078125 621.2949829101562 651.0538330078125 621.2955932617188 C 651.0538330078125 621.31201171875 651.0538330078125 621.3262939453125 651.053955078125 621.3427124023438 C 651.058349609375 623.361083984375 651.062255859375 625.4234619140625 651.0655517578125 627.4635620117188 L 641.0655517578125 627.479248046875 L 641.0447998046875 617.4879760742188 L 651.0447998046875 617.4628295898438 Z M 641 597.4635620117188 L 651 597.4635620117188 C 651 597.4635620117188 651 602.592529296875 651 602.592529296875 C 651 602.592529296875 651 602.592529296875 651 602.592529296875 L 651 602.592529296875 C 651 602.592529296875 651 602.592529296875 651 602.5925903320312 C 651 602.5925903320312 651 602.5927124023438 651 602.5928344726562 C 651 602.5930786132812 651 602.5931396484375 651 602.5933227539062 C 651 602.5933837890625 651 602.5933837890625 651 602.5933837890625 C 651 602.5935668945312 651 602.5938110351562 651 602.59423828125 C 651 602.5945434570312 651 602.594970703125 651 602.5953369140625 C 651 602.5966186523438 651 602.5982055664062 651 602.6002807617188 C 651 602.6004638671875 651 602.6006469726562 651 602.600830078125 C 651.00048828125 602.73828125 651.0072021484375 604.5841674804688 651.016357421875 607.4613647460938 L 641.016357421875 607.4930419921875 L 641 597.4635620117188 Z M 641 577.4635620117188 L 651 577.4635620117188 C 651 577.4635620117188 651 587.4635620117188 651 587.4635620117188 L 641 587.4635620117188 L 641 577.4635620117188 Z M 641 557.4635620117188 L 651 557.4635620117188 C 651 557.4635620117188 651 567.4635620117188 651 567.4635620117188 L 641 567.4635620117188 L 641 557.4635620117188 Z" stroke="none" fill="#7e3dfe"/>
      </g>
    </g>
  </g>
</svg>
