<svg xmlns="http://www.w3.org/2000/svg" width="171.936" height="214.03" viewBox="0 0 171.936 214.03">
  <g id="product-boy" transform="translate(192.096 199.097) rotate(170)">
    <path id="Fill-1" d="M2.481,38.567l.028-.02c.033.11.056.224.1.33,1.242,3.109,8,1.4,14.077-3.209,6.051-4.592,9.827-10.3,8.221-13.159l0,0-.017-.026s0-.007,0-.01-.018-.021-.024-.032A50.284,50.284,0,0,1,17.888,5.47c-.153-.8-.3-1.576-.435-2.335a4.5,4.5,0,0,0-.092-.5l0-.022h0c-.023-.094-.04-.2-.07-.282C16.3-.542,11.7-.676,6.713,1.47S.029,7.741,0,12.759c0,.02.007.038.007.058l-.007,0A128.527,128.527,0,0,0,2.481,38.567" transform="translate(44.387 11.959)" fill="#352c34" fill-rule="evenodd"/>
    <path id="Fill-3" d="M3.946,2.97c-2.226,1.9-5.993,7.546-2.566,13.013,3.338,5.326,10.167,2.8,13.339,2.16,13.672-2.071,19.032-.279,19.032-.279v-.006l.033,0c2.215.01,4.241-2.882,4.255-6.542S35.912,5.3,33.653,4.628h-.007v0S27.062-.629,12.689.063A15.781,15.781,0,0,0,3.946,2.97" transform="translate(45.653 11.613)" fill="#352c34" fill-rule="evenodd"/>
    <path id="Fill-5" d="M0,.09A7.981,7.981,0,0,1,2.044.02C3.557.09,4.626.4,5.033,3.309s.311,18.06.292,19.6S6.641,32.564.231,30.4Z" transform="translate(82.398 0.322)" fill="#d7e9f2" fill-rule="evenodd"/>
    <path id="Fill-7" d="M7.022,28.619c1.794-8.972-1.924-11.154-3.9-11.684a3.294,3.294,0,0,1-2.013-1.521C.234,13.893-.76,11.477.879,10.258c.551-.409,4.054.559,6.016,1.181.361-2.954.2-5.73,1.52-9.156C9.126.435,11.726-.132,13.18.025c1.13.123,2.1-.311,2.448,3.448.31,3.376.318,8.714.215,13.365-.136,6.146-.114,13.345-1.55,13.683-2.783.655-7.272-1.9-7.272-1.9" transform="translate(69.211 0)" fill="#4cb2e5" fill-rule="evenodd"/>
    <path id="Fill-9" d="M.995,21.563s3.434.9,5.2-.593L19.915,10.553C21.331,9.3,24.424,3.335,21.133.837S13.28,2.089,11.887,3.524L1.247,15.871a4.189,4.189,0,0,0-.252,5.692" transform="translate(12.574 102.146)" fill="#f9b882" fill-rule="evenodd"/>
    <g id="Group_54806" data-name="Group 54806" transform="translate(0 116.1)">
      <path id="Fill-11" d="M2.992,2.417a1.337,1.337,0,0,0,.164,1.867c1.438,1.153,5.065.6,5.065.6S2.376,4.652.343,6.935A1.371,1.371,0,0,0,.817,9.094a9.821,9.821,0,0,0,6.391-.047s-5.023,1.719-5.862,3.841a1.079,1.079,0,0,0,.7,1.4c2.3.719,7.823-1.021,9.033-2.735,0,0-4.046,4.482-5.082,5.815S5.843,21.129,8.485,19.9s6.761-4.779,7.654-7.015c0,0-.2,5.16,2.368,4.685C21.017,17.1,22.865,6.713,20,3.225,17.014-1.4,5.3-.477,2.992,2.417" transform="translate(0 0)" fill="#f9b882" fill-rule="evenodd"/>
    </g>
    <path id="Fill-13" d="M2.225,13.957l0,0C11.245,8.411,22.29,2.575,25.351.973A8.092,8.092,0,0,1,27.584.19c2.152-.411,5.968-.54,5.6,3.825-.3,3.577-10.457,13.516-18.705,21.04l-.007-.006c-.036.036-.071.073-.1.112C11.7,28.266,5.494,28.5,2.145,25.409s-2.347-9.857.08-11.452" transform="translate(34.938 79.316)" fill="#0056a3" fill-rule="evenodd"/>
    <path id="Fill-15" d="M5.932,10.559a110.242,110.242,0,0,1,11.738-8.5.843.843,0,0,1,.081-.076C22.224-.8,26.589-.659,29.928,2.441s1.98,8.164.1,10.618a.767.767,0,0,1-.1.088l.012.011c-5.7,5.2-10.486,9.243-10.486,9.243-3.162,12.568-14.52,3.53-17.525-.252-2.436-3.067-3.881-5.226,4-11.589" transform="translate(19.484 91.186)" fill="#0056a3" fill-rule="evenodd"/>
    <path id="Fill-17" d="M7.823,20.938c-.155-.027-.305-.045-.468-.085C2.889,19.754-.441,14.574.048,8.87c.461-5.381,4.134-9.8,8.6-8.7.018.005.035.012.055.017V.18l.1.038A6.841,6.841,0,0,1,10.068.7,97.962,97.962,0,0,1,32.1,12.839l0,.01a6.615,6.615,0,0,1,3.4,7.642c-.844,2.962-4.054,5.213-6.218,4.585l0,.012s-11.087-2.764-21.451-4.12Z" transform="translate(81.068 13.589)" fill="#352c34" fill-rule="evenodd"/>
    <path id="Fill-19" d="M.049,35.944a2.663,2.663,0,0,0-.04.331C0,36.323,0,36.356,0,36.356H0c-.04,2.953,8.547,5.926,15.747,4.417C22.606,39.335,27.193,31.858,27,28.9a.013.013,0,0,1,0,0H27s.846-9.906,2.1-20.556l.043-.35H29.1C29.3,4.346,24.66.816,18.729.079,13.1-.621,7.918,3.442,7.052,6.855H7.025A139.141,139.141,0,0,0,.049,35.944" transform="translate(68.649 13.264)" fill="#352c34" fill-rule="evenodd"/>
    <path id="Fill-21" d="M13.9,0a8.032,8.032,0,0,1,1.842.89c1.307.767,2.107,1.541,1.115,4.3S8.727,21.321,8,22.674s-3.33,9.16-8,4.26Z" transform="translate(109.086 15.38)" fill="#d7e9f2" fill-rule="evenodd"/>
    <path id="Fill-23" d="M0,23.382c5.6-6.9,3.582-11.131,2.073-12.918A4.664,4.664,0,0,1,1.015,6.433a2.526,2.526,0,0,1,2.094-2.16c.679-.107,3.328,2.381,4.775,3.844C9.579,5.671,10.73,3.14,13.491.721c1.49-1.3,4.055-.6,5.268.22.944.634,2.006.7.563,4.191-1.3,3.132-3.775,7.86-6.031,11.929C10.31,22.437,6.978,28.819,5.55,28.45,2.783,27.734,0,23.382,0,23.382" transform="translate(104.402 14.094)" fill="#5bbbf3" fill-rule="evenodd"/>
    <path id="Fill-25" d="M27.8,41.236a34.143,34.143,0,0,0,7.682-26.213C32.56-8.321-3.657-1.551.3,15.573c4.378,18.936,13.393,27,13.393,27Z" transform="translate(56.593 32.998)" fill="#352c34" fill-rule="evenodd"/>
    <path id="Fill-27" d="M36.414,63.232A18.172,18.172,0,0,0,52.058,47.474C53.715,34.174,56.084,12.91,54.475,7c-2.292-8.42-8.509-8.32-30.7-4.531C5.492,6.818-1.71,12.855.337,18.645c.791,4.767,5.622,16.836,17.713,35.278,4.124,6.291,10.907,10.3,18.364,9.309" transform="translate(44.464 40.092)" fill="#006dd4" fill-rule="evenodd"/>
    <path id="Fill-29" d="M38.5,16.951C30.928,21.536,7.647,27.756,4.035,26.6-.714,25.073-.15,14.757.27,10.186,1.327-1.3,14.588-4.046,39.541,7c3.31,1.465,2.057,8.074-1.043,9.951" transform="translate(59.45 84.288)" fill="#5bbbf3" fill-rule="evenodd"/>
    <path id="Fill-31" d="M5.872,19.571s-.263-2.419,8.938-3.066C25.681,15.742,30.436,10.133,31.237.852c.145-1.675-6.2-1.823-21.943,8.567-16.95,11.189-6.045,12.1-3.422,10.152" transform="translate(91.523 78.141)" fill="#5bbbf3" fill-rule="evenodd"/>
    <path id="Fill-33" d="M2.794,66.956C-6.47,38.206,7.576,14.885,40.885,4.7S117.265-.043,123.413,30.08c6.04,29.6-10.226,60.312-43.534,70.5S12.059,95.707,2.794,66.956" transform="translate(34.424 100.306)" fill="#4b3226" fill-rule="evenodd"/>
    <path id="Fill-35" d="M15.23,78.668S-10.554,39.486,4.975,20.843,70.556-8.007,92.643,7.776c-3.322,11.985-1.582,26.841-1.582,26.841A427.835,427.835,0,0,1,15.23,78.668" transform="translate(28.834 93.122)" fill="#ffc690" fill-rule="evenodd"/>
    <path id="Fill-37" d="M5.324,7.081c4.46-1.129,7.708-3.5,7.255-5.288S8.142-.538,3.682.59A18.871,18.871,0,0,0,.008,1.919a40.618,40.618,0,0,0,.3,5.734,17.613,17.613,0,0,0,5.014-.572" transform="translate(28.837 126.779)" fill="#e5836c" fill-rule="evenodd"/>
    <path id="Fill-39" d="M.136,12.42C-1.77,5.158,16.827-3.729,23.171,1.649c6.795,5.76,10.612,19.261-3.15,20.938C11.15,23.667,2.042,19.681.136,12.42" transform="translate(111.887 99.064)" fill="#ffc690" fill-rule="evenodd"/>
    <path id="Fill-41" d="M39.244,0S-9.2,4.445,1.558,17.975,39.244,0,39.244,0" transform="translate(27.455 164.401)" fill="#4b3226" fill-rule="evenodd"/>
    <g id="Group_54807" data-name="Group 54807" transform="translate(28.9 151.817)">
      <path id="Fill-43" d="M40.384,0s-58.9,41.074-34.437,53.824S40.384,0,40.384,0" transform="translate(0 0)" fill="#4b3226" fill-rule="evenodd"/>
    </g>
    <path id="Fill-45" d="M0,47.519C10.253,61.167,18.745,73.348,43.369,65.957,71.2,57.6,85.329,40.164,87.19,12.142A22.225,22.225,0,0,0,84.154,0S28.7,8.451,0,47.519" transform="translate(50.423 121.762)" fill="#4b3226" fill-rule="evenodd"/>
    <path id="Fill-47" d="M10.682,5.6c-.933-3.74-4.02-6.191-6.9-5.474S-.664,4.456.269,8.2s4.02,6.191,6.9,5.474S11.615,9.338,10.682,5.6" transform="translate(70.7 124.6)" fill="#2f1b05" fill-rule="evenodd"/>
    <path id="Fill-49" d="M10.682,5.6c-.933-3.74-4.02-6.191-6.9-5.474S-.664,4.456.268,8.2s4.02,6.191,6.9,5.474S11.616,9.338,10.682,5.6" transform="translate(39.326 132.652)" fill="#2f1b05" fill-rule="evenodd"/>
    <path id="Fill-51" d="M.055,7.633C-.533,5.306,3.684,2.231,9.476.766S20.44,0,21.029,2.327,17.4,7.73,11.608,9.195.644,9.961.055,7.633" transform="translate(80.357 111.935)" fill="#e5836c" fill-rule="evenodd"/>
    <path id="Fill-53" d="M9.984,2.157S8.352,9.549,2.51,7.394C-2.39,5.587,1.394,0,1.394,0S.179,3.442,3.284,4.948s5.1-.736,6.7-2.79" transform="translate(49.652 121.583)" fill="#eb9f68" fill-rule="evenodd"/>
    <path id="Fill-55" d="M11.191.123C10.015.625,8.674,2.787,6.2,3.746s-4.76.341-5.4.845C-1.732,6.583,2.317,8.585,4.928,8.505c3.728-.112,6.49-1.661,7.83-3.554,1.67-2.358.3-5.628-1.567-4.829" transform="translate(76.182 146.304)" fill="#2f1b05" fill-rule="evenodd"/>
    <path id="Fill-57" d="M.87,2.66c1.053-.3,3.116.406,5.276-.3S9.494.013,10.192,0c2.763-.049,1.156,3.474-.621,4.836C7.034,6.781,4.36,7.248,2.445,6.717.058,6.056-.806,3.142.87,2.66" transform="translate(42.077 155.551)" fill="#2f1b05" fill-rule="evenodd"/>
    <path id="Fill-59" d="M4.1,15.2c2.451.5,5.822.226,9.623-.073,4.276-.337,8.2-.216,10.81-1.025,2.056-.638,3.289-1.854,3.216-4.333-.093-3.129-2.105-5.871-5.192-7.646A17.1,17.1,0,0,0,13.573.009a16.717,16.717,0,0,0-9.7,3.254A9.049,9.049,0,0,0,0,10.594c.084,2.824,1.62,4.1,4.1,4.605" transform="translate(48.911 103.561)" fill="#d36253" fill-rule="evenodd"/>
    <path id="Fill-61" d="M18.68,2.123A17.1,17.1,0,0,0,9.7.009,16.71,16.71,0,0,0,0,3.264,16.507,16.507,0,0,0,9.033,5.352c4.063-.122,7.6-1.4,9.647-3.23" transform="translate(52.787 103.561)" fill="#e8766d" fill-rule="evenodd"/>
    <path id="Fill-63" d="M10.2.01C4.991.164.743,2.155,0,4.617c2.45.5,5.822.226,9.622-.073,4.276-.337,8.2-.216,10.81-1.026C19.173,1.362,15.057-.135,10.2.01" transform="translate(53.011 114.143)" fill="#fff" fill-rule="evenodd"/>
    <path id="Fill-65" d="M26.642,14.451S23.735,16.49,21.561,15.7l-16.486-5C3.312,10.009-1.659,5.492.56,2.007s7.8-1.553,9.6-.691L24.43,9.2a4.191,4.191,0,0,1,2.212,5.25" transform="translate(125.816 88.625)" fill="#ffc690" fill-rule="evenodd"/>
    <g id="Group_54808" data-name="Group 54808" transform="translate(144.649 93.976)">
      <path id="Fill-67" d="M15.926.558a1.337,1.337,0,0,1,.5,1.808c-.948,1.581-4.542,2.322-4.542,2.322s5.4-2.248,8.1-.812a1.372,1.372,0,0,1,.3,2.189,9.82,9.82,0,0,1-6.009,2.174s5.307-.132,6.832,1.568a1.078,1.078,0,0,1-.172,1.557c-1.911,1.475-7.691,1.76-9.421.572,0,0,5.352,2.8,6.785,3.689s1.451,3.471-1.455,3.232-8-2.133-9.613-3.921c0,0,1.983,4.769-.594,5.216C4.121,20.588-1.22,11.486.253,7.222,1.45,1.844,12.759-1.355,15.926.558" transform="translate(0 0)" fill="#ffc690" fill-rule="evenodd"/>
    </g>
    <path id="Fill-69" d="M33,4.215l0-.006C22.615,2.146,10.231.507,6.8.069A8.044,8.044,0,0,0,4.439.108C2.277.471-1.346,1.675.515,5.64c1.524,3.25,14.5,9.045,24.846,13.237l0-.007a1.453,1.453,0,0,1,.137.068c3.576,1.987,9.481.052,11.548-4.012S35.83,4.868,33,4.215" transform="translate(86.765 78.51)" fill="#005cbd" fill-rule="evenodd"/>
    <path id="Fill-71" d="M26,4.249A110.06,110.06,0,0,0,12.041.357a.722.722,0,0,0-.1-.043C6.775-.748,2.731.9.677,4.967s.978,8.343,3.589,9.993a.749.749,0,0,0,.128.047l-.008.014c7.147,2.9,13.042,5.028,13.042,5.028,7.328,10.688,14.843-1.732,16.348-6.322C35,10.005,35.6,7.479,26,4.249" transform="translate(107.723 82.342)" fill="#005cbd" fill-rule="evenodd"/>
  </g>
</svg>
