<svg xmlns="http://www.w3.org/2000/svg" width="265.383" height="258.252" viewBox="0 0 265.383 258.252">
  <g id="product-girl" transform="translate(-1524.493 -934.824)">
    <path id="Fill-1" d="M233.212,152.332l-22.7-18.325-5.227,6.955,25.488,15.5a3.135,3.135,0,0,0,2.441-4.128" transform="translate(1485.544 883.389) rotate(18)" fill="#ffc5ab" fill-rule="evenodd"/>
    <path id="Fill-3" d="M228.865,162.408l11.047-13.7s10.8,8.263,11.89,9.916c1.417,2.156-2.5,10.509-2.5,10.509Z" transform="translate(1480.8 877.746) rotate(18)" fill="#f29125" fill-rule="evenodd"/>
    <path id="Fill-5" d="M193.981,126.4c-1.246-.556-3.78,1.871-2.931,4.533-.749.886-1.992,6.57,4.517,8.825a8.526,8.526,0,0,0,9.867-3.326c1.619-2.461,1.206-6.392.667-8.826-.488-2.209-1.679-3.144-6-3.418-4.868-4.726-6.792,1.052-6.118,2.211" transform="translate(1488.336 887.547) rotate(18)" fill="#ffc5ab" fill-rule="evenodd"/>
    <path id="Fill-7" d="M269.02,234.187c.115,1.406-6.514,3.28-12.992,3.81s-13,.235-13.116-1.17,6.271-6.3,12.751-6.831,13.242,2.785,13.357,4.191" transform="translate(1483.915 856.1) rotate(18)" fill="#f29125" fill-rule="evenodd"/>
    <path id="Fill-9" d="M281.687,181.77c3.91,5.7,9.641,13.9,11.88,13.7s3-5.591,3-5.591a41.139,41.139,0,0,1-10.26-10.916Z" transform="translate(1469.953 865.783) rotate(18)" fill="#ffba9d" fill-rule="evenodd"/>
    <path id="Fill-11" d="M283.528,189.489l10.424-10.354s-9.029-5.288-12.75-8.911c-3.242-3.154-8.744.53-8.744.53,3.3,8.357,6.731,16.047,11.07,18.734" transform="translate(1471.46 869.064) rotate(18)" fill="#f29125" fill-rule="evenodd"/>
    <path id="Fill-13" d="M284.614,200.991A51.567,51.567,0,0,1,273.635,189.2c-1.561-5.491-1.392-17.027-1.527-18.654-.213-2.6-11.1-8.334-15.394-7.763-1.507.2-6.657,11.531-8.4,21.459-2.452,13.968-2.341,19.725.038,24.456s21.165,3.585,28.936-.982,7.326-6.722,7.326-6.722" transform="translate(1477.495 872.76) rotate(18)" fill="#f4a522" fill-rule="evenodd"/>
    <path id="Fill-15" d="M275.251,163.053a4.711,4.711,0,1,1-5.539-3.533,4.645,4.645,0,0,1,5.539,3.533" transform="translate(1472.325 872.004) rotate(18)" fill="#ffba9d" fill-rule="evenodd"/>
    <path id="Fill-17" d="M271.98,189.682c.752,1.358,3.274.224,3.274.224s1.673,3.189,2.749,2.6.522-3.607.522-3.607a4,4,0,0,0,.992-.236c-.231-1.285-.382-2.524-.478-3.729a10.444,10.444,0,0,0-1.281-.8s-.245-4.351-2.084-4.648c-1.156-.187-1.8,3.062-1.8,3.062s-2.805-1.986-3.325-.649c-.426,1.1,2.2,4.5,2.2,4.5s-1.43,2.089-.772,3.28" transform="translate(1472.816 866.568) rotate(18)" fill="#f29125" fill-rule="evenodd"/>
    <path id="Fill-19" d="M274.758,180.364s.54-3.6,1.611-3.7c1.7-.172,2,4.351,2,4.351s2.527.729,2.74,2.269c.237,1.732-1.956,2.555-1.956,2.555s.558,3.039-.426,3.942-2.58-2.017-2.58-2.017-2.311,1.862-3.028.628c-.628-1.082.661-3.664.661-3.664s-2.479-2.9-2.1-4.168c.459-1.547,3.082-.193,3.082-.193" transform="translate(1472.299 867.189) rotate(18)" fill="#fbe400" fill-rule="evenodd"/>
    <path id="Fill-21" d="M1.521,7.962S22.711-6.988,31.55,4.487C46.4,23.773,30,58.291,30,58.291S6.126,39.314,2.682,26.924C-2.366,8.757,1.521,7.962,1.521,7.962" transform="translate(1754 1055.051) rotate(18)" fill="#72203d" fill-rule="evenodd"/>
    <path id="Fill-23" d="M358.5,93.048A14.482,14.482,0,1,1,350.726,74.1,14.483,14.483,0,0,1,358.5,93.048" transform="translate(1448.91 888.51) rotate(18)" fill="#dd314b" fill-rule="evenodd"/>
    <path id="Fill-25" d="M320.6,112.661c-10.82,23.964-33.145,20.112-57.849,9.838-25.505-10.608-45.821-25.834-37.477-52.674,8.792-28.273,28.916-46.974,56.293-33.643,10.742,6.92,28.648,18.985,36.669,32.219,0,0,16.092,13.857,2.365,44.26" transform="translate(1472.602 907.695) rotate(18)" fill="#72203d" fill-rule="evenodd"/>
    <path id="Fill-27" d="M312.265,122.832c-4.048,14.14-12.676,21.872-23.413,24.6-9.342,2.372-20.2.356-29.554-3.333-8.056-3.178-16.127-7.948-21.129-14.527-7.56-9.942-9.3-23.034-.892-38.1,10.934-19.6,32.467-30.474,53.176-21.811s27.987,31.6,21.812,53.175" transform="translate(1473.358 898.219) rotate(18)" fill="#ffc5ab" fill-rule="evenodd"/>
    <path id="Fill-29" d="M347.547,160.456c-2.145,5.128-8.507,9.381-13.225,5.378-4.265-3.616-7.6-8.063-5.457-13.192s7.706-6.283,13.225-5.378c8.218,1.349,7.6,8.063,5.457,13.192" transform="translate(1455.597 870.037) rotate(18)" fill="#ffc5ab" fill-rule="evenodd"/>
    <path id="Fill-31" d="M213.648,108.932c-1.808,5.257.117,12.663,6.3,12.812,5.591.135,11.04-.967,12.849-6.223s-1.576-9.819-6.3-12.812c-7.035-4.459-11.04.967-12.849,6.223" transform="translate(1480.897 891.068) rotate(18)" fill="#ffc5ab" fill-rule="evenodd"/>
    <path id="Fill-33" d="M291.018,79.962l4.041,16.572,24.636,10.037c7.583-19.7-4.2-44.431-24.742-54.313-22.182-10.67-48.156-1.131-54.62,21.979l45.6,18.63Z" transform="translate(1469.643 902.24) rotate(18)" fill="#72203d" fill-rule="evenodd"/>
    <path id="Fill-35" d="M243.125,80.361l-16.242,48.364-3.05-36.021s2.355-24,19.292-12.344" transform="translate(1476.204 896.209) rotate(18)" fill="#72203d" fill-rule="evenodd"/>
    <path id="Fill-37" d="M335.385,123.041,318.2,166.9l22.413-21.6s12.247-18.058-5.226-22.266" transform="translate(1456.156 876.898) rotate(18)" fill="#72203d" fill-rule="evenodd"/>
    <path id="Fill-39" d="M319.13,131.951c.32.746,2.52.724,4.349-.063s2.6-2.044,2.279-2.79-2.066-.713-3.9.074-3.053,2.031-2.732,2.779" transform="translate(1456.387 875.436) rotate(18)" fill="#72203d" fill-rule="evenodd"/>
    <path id="Fill-41" d="M317.864,134.492c.009.7,2.045,1.408,4.039,1.383s3.186-.774,3.177-1.475-1.633-1.249-3.625-1.223-3.6.614-3.591,1.315" transform="translate(1457.071 874.369) rotate(18)" fill="#72203d" fill-rule="evenodd"/>
    <path id="Fill-43" d="M316.659,130.524c.5.554,2.532-.233,4-1.574s1.834-2.733,1.329-3.288-2.109.084-3.581,1.428-2.258,2.881-1.752,3.435" transform="translate(1456.782 876.426) rotate(18)" fill="#72203d" fill-rule="evenodd"/>
    <path id="Fill-45" d="M315.18,137.994a10.539,10.539,0,1,1-5.632-13.8,10.536,10.536,0,0,1,5.632,13.8" transform="translate(1462.057 878.723) rotate(18)" fill="#fff" fill-rule="evenodd"/>
    <path id="Fill-47" d="M313.105,137.986a7.485,7.485,0,1,1-4.331-9.657,7.482,7.482,0,0,1,4.331,9.657" transform="translate(1461.488 877.291) rotate(18)" fill="#331a07" fill-rule="evenodd"/>
    <path id="Fill-49" d="M305.231,130.481a1.486,1.486,0,1,1-.86-1.917,1.485,1.485,0,0,1,.86,1.917" transform="translate(1460.599 876.828) rotate(18)" fill="#fff" fill-rule="evenodd"/>
    <path id="Fill-51" d="M311.467,151.21c-.544,1.432-5.8.758-10.677-1.1s-8.382-4.519-7.836-5.951,8.894-.614,13.766,1.242,5.292,4.374,4.747,5.806" transform="translate(1464.212 873.826) rotate(18)" fill="#ffc5ab" fill-rule="evenodd"/>
    <path id="Fill-53" d="M258.333,108.124c-.737.344-2.365-1.134-3.208-2.94s-.582-3.255.155-3.6,2.017.84,2.861,2.646.929,3.548.192,3.892" transform="translate(1470.439 887.541) rotate(18)" fill="#72203d" fill-rule="evenodd"/>
    <path id="Fill-55" d="M257.456,110.877c-.472.517-2.465-.31-3.935-1.653s-1.866-2.7-1.392-3.214,2.049.152,3.519,1.5,2.281,2.853,1.808,3.37" transform="translate(1471.464 886.67) rotate(18)" fill="#72203d" fill-rule="evenodd"/>
    <path id="Fill-57" d="M261.33,108.917c-.746.079-1.736-1.857-1.943-3.84s.447-3.26,1.192-3.339,1.519,1.466,1.727,3.449-.23,3.651-.976,3.729" transform="translate(1469.258 887.098) rotate(18)" fill="#72203d" fill-rule="evenodd"/>
    <path id="Fill-59" d="M250.259,113.248a10.539,10.539,0,1,0,13.383-6.558,10.54,10.54,0,0,0-13.383,6.558" transform="translate(1472.055 886.785) rotate(18)" fill="#fff" fill-rule="evenodd"/>
    <path id="Fill-61" d="M254.474,115.635a7.484,7.484,0,1,0,9.657-4.331,7.483,7.483,0,0,0-9.657,4.331" transform="translate(1471.356 885.248) rotate(18)" fill="#331a07" fill-rule="evenodd"/>
    <path id="Fill-63" d="M258.54,112.252a1.485,1.485,0,1,0,1.917-.86,1.486,1.486,0,0,0-1.917.86" transform="translate(1470.271 884.76) rotate(18)" fill="#fff" fill-rule="evenodd"/>
    <path id="Fill-65" d="M282.969,142.113s-1.987-5.08-3.941-4.767a3.838,3.838,0,0,0-3.108,2.2,8.715,8.715,0,0,1,7.049,2.563" transform="translate(1467.995 876.758) rotate(18)" fill="#f9a487" fill-rule="evenodd"/>
    <path id="Fill-67" d="M264.873,134.171c-.545,1.432-4.937,1.088-9.811-.766s-9.5-4.457-8.955-5.889,3.672-3.513,8.545-1.659,10.764,6.882,10.22,8.314" transform="translate(1474.527 882.287) rotate(18)" fill="#ffc5ab" fill-rule="evenodd"/>
    <path id="Fill-69" d="M263.041,140.244s1.473,1.206,2.526,1.962a42.554,42.554,0,0,0,8.631,4.227c5.685,2.254,8.756,3.015,10.352,3.252a32.958,32.958,0,0,0,3.7.155,18.664,18.664,0,0,1-4.87,5.089c-2.583,1.614-6.372,2.549-12.08.378-5.432-2.069-7.928-6-8.426-9a15.508,15.508,0,0,1,.17-6.059" transform="translate(1471.58 877.111) rotate(18)" fill="#d04644" fill-rule="evenodd"/>
    <path id="Fill-71" d="M284.482,152.342l.906-1.955-.318-.052a54.244,54.244,0,0,1-10-3.2,47.74,47.74,0,0,1-8.631-4.227l-.5,2.268s1.022,3.516,7.753,6.414,10.8.747,10.8.747" transform="translate(1470.973 876.17) rotate(18)" fill="#fff" fill-rule="evenodd"/>
    <path id="Fill-73" d="M281.071,158.959l.012-2.493c-3.455-3.016-9.979-5.054-14.9-5.8l-1.275,2a13.05,13.05,0,0,0,4.222,4.055l.046.027c.1.062.212.12.317.18a19.728,19.728,0,0,0,1.952.956c.07.029.14.06.213.087.109.046.218.089.327.132,3.825,1.439,6.782,1.48,9.092.858" transform="translate(1471.868 874.299) rotate(18)" fill="#fff" fill-rule="evenodd"/>
    <path id="Fill-75" d="M276.78,153.758l4.856,1.412-.508,1.335Z" transform="translate(1469.125 872.543) rotate(18)" fill="#f8e4de" fill-rule="evenodd"/>
    <path id="Fill-77" d="M271.341,111.957c-3.473,8.747-12.444,13.357-20.038,10.3s-10.933-12.634-7.462-21.381S254.31,92.7,261.9,95.763s12.909,7.448,9.437,16.195m-7.875-20.125c-9.478-3.82-18.7-3.254-23.035,7.664s-.164,22.866,9.315,26.688,20.675-1.934,25.009-12.852-1.811-17.679-11.288-21.5" transform="translate(1473.476 891.828) rotate(18)" fill="#dd314b" fill-rule="evenodd"/>
    <path id="Fill-79" d="M322.433,132.648c-3.489,8.788-12.5,13.418-20.13,10.342s-10.985-12.693-7.5-21.481,10.527-8.231,18.156-5.155,12.96,7.5,9.471,16.293m-7.939-20.15c-9.479-3.821-18.7-3.255-23.035,7.663s-.164,22.866,9.315,26.688,20.676-1.932,25.01-12.85-1.811-17.68-11.29-21.5" transform="translate(1462.295 882.432) rotate(18)" fill="#dd314b" fill-rule="evenodd"/>
    <path id="Fill-81" d="M286.672,109.376l11.22,4.272-3.277,4.081-7.98-3.108Z" transform="translate(1463 882.934) rotate(18)" fill="#dd314b" fill-rule="evenodd"/>
    <path id="Fill-83" d="M299.233,218.107c.542.149,2.056,1.22,2.6,1.36,15.085,3.917,23.263,7.152,24.389,7.232,1.424.1,3.224-.166,3.106-3.013s-1.2-2.306-4.419-3.773c-3.068-1.4-18.833-8.048-21.8-7.815-1.56.121-4.178,3.25-3.874,6.01" transform="translate(1468.247 855.988) rotate(18)" fill="#ffc5ab" fill-rule="evenodd"/>
    <path id="Fill-85" d="M341.145,226.7c-.881-.043-9.012-1.389-15.621-2.034l.668-10.434c3,1.693,7.5,4.159,8.481,3.937,0,0-5.914-14.219,4.424-11.223,1.425.413,2.164,5.181,2.81,11.436s.552,8.382-.763,8.318" transform="translate(1461.153 855.232) rotate(18)" fill="#dd314b" fill-rule="evenodd"/>
    <path id="Fill-87" d="M275.6,214.48,290.171,225.9l13.239-17.96c-.341-.674-8.621-3.607-17.165-5.488-11.367-2.5-15.471,1.885-10.643,12.029" transform="translate(1473.859 860.691) rotate(18)" fill="#f4a522" fill-rule="evenodd"/>
    <path id="Fill-89" d="M255.912,251.122c-.678-10.361.868-23.229,1.467-35.69l9.066-.084-.062,3.852-3.358,32.931s-2.186,3.364-4.393,3.039c-3.217-.473-2.721-4.048-2.721-4.048" transform="translate(1479.481 858.729) rotate(18)" fill="#ffc5ab" fill-rule="evenodd"/>
    <path id="Fill-91" d="M242.915,230.122c1.022-1.583,4.747-4.865,13.674-5.323,6.177-.316,11.164,1.65,12.4,2.617l-3.214-20.475-17.391-2.08Z" transform="translate(1481.858 862.426) rotate(18)" fill="#f4a522" fill-rule="evenodd"/>
    <path id="Fill-93" d="M310.178,188.721c-2.83,2.411-6.981,6.219-12.6,8.248-2.086.229-3.188-1.959-2.953-3.336,3.163-2.854,4.113-5.519,6.027-8.919Z" transform="translate(1467.169 863.273) rotate(18)" fill="#ffba9d" fill-rule="evenodd"/>
    <path id="Fill-95" d="M308.142,173.742c.616-1,3.587-.5,4.271,1.8.961.266,4.592,3.7,1.067,8.445a7.32,7.32,0,0,1-8.609,2.414c-2.337-.962-3.945-3.95-4.742-5.938-.721-1.8-.328-3.04,2.6-5.327,1.167-5.706,5.326-2.537,5.409-1.391" transform="translate(1464.793 866.098) rotate(18)" fill="#f9a487" fill-rule="evenodd"/>
    <path id="Fill-97" d="M308.569,175.809c.616-1,3.585-.5,4.272,1.8.96.265,4.592,3.7,1.065,8.444a7.313,7.313,0,0,1-8.606,2.413c-2.338-.961-3.946-3.949-4.743-5.936-.721-1.8-.328-3.04,2.6-5.327,1.166-5.706,5.325-2.538,5.408-1.39" transform="translate(1464.855 865.541) rotate(18)" fill="#ffc5ab" fill-rule="evenodd"/>
    <path id="Fill-99" d="M260.847,275.717c1.665.049,3.287-13.644,3.4-18.482-2.462-3.869-12.235-2.136-12.235-2.136l1.484,13.275s5.682,7.294,7.347,7.342" transform="translate(1483.649 849.104) rotate(18)" fill="#dd314b" fill-rule="evenodd"/>
    <path id="Fill-101" d="M255.892,272.237c-1.237-2.768-6.385-15.8-13.773-10.258-6.745,5.06,8.992,13.7,11.231,14.262,3.408.861,3.779-1.235,2.541-4" transform="translate(1487.051 848.559) rotate(18)" fill="#dd314b" fill-rule="evenodd"/>
    <path id="Fill-103" d="M18.391,12.76C17.154,9.991,5.66-3.03,1.441,1.048-4.622,6.906,11.1,16.19,13.343,16.756c3.409.861,6.285-1.228,5.048-4" transform="translate(1634.709 1171.18) rotate(18)" fill="#962133" fill-rule="evenodd"/>
    <path id="Fill-105" d="M176.278,107.9l25.435,24.457-35.14-3.671Z" transform="translate(1493.17 893.15) rotate(18)" fill="#ff7c00" fill-rule="evenodd"/>
    <path id="Fill-107" d="M173.877,119.524c-2.679,5.74-6.064,9.829-7.559,9.13s-.533-5.916,2.147-11.656,6.063-9.828,7.557-9.13c.568.264.781,1.182.682,2.531a29.2,29.2,0,0,1-2.827,9.125" transform="translate(1493.404 893.254) rotate(18)" fill="#d23500" fill-rule="evenodd"/>
    <path id="Fill-109" d="M195.138,122.608s4.477,6.135,1.012,12.275l4.982.56a7.989,7.989,0,0,0-.514-7.528Z" transform="translate(1487.169 887.096) rotate(18)" fill="#efffff" fill-rule="evenodd"/>
    <path id="Fill-111" d="M183.449,111.836s3.508,6.282-1.125,19.1l6.15.624a15.647,15.647,0,0,0-.04-15Z" transform="translate(1489.52 890.865) rotate(18)" fill="#efffff" fill-rule="evenodd"/>
    <path id="Fill-113" d="M97.772,73.567s-9.5,4.819-5.964,11.095l3.582-.612,6.173-8.429Z" transform="translate(1509.419 908.006) rotate(18)" fill="#fff947" fill-rule="evenodd"/>
    <path id="Fill-115" d="M136.264,62.884s-6.786,1.839-1.927,10.476l3.775-1.661.837-8.937Z" transform="translate(1498.047 907.322) rotate(18)" fill="#ff37e0" fill-rule="evenodd"/>
    <path id="Fill-117" d="M131.324,110.735l-1.016,5.922,3.774-1.66.792-7.236Z" transform="translate(1502.31 896.158) rotate(18)" fill="#fe0" fill-rule="evenodd"/>
    <path id="Fill-119" d="M109.9,93.919l2.458,5.483,2.207-3.482-3.377-6.449Z" transform="translate(1505.958 902.443) rotate(18)" fill="#00ffc1" fill-rule="evenodd"/>
    <path id="Fill-121" d="M157.625,91.808l2.459,5.484,2.206-3.482-1.262-2.422Z" transform="translate(1494.075 898.049) rotate(18)" fill="#ff393f" fill-rule="evenodd"/>
    <path id="Fill-123" d="M144.209,103.809l-1.263-2.422-3.4.42" transform="translate(1499.457 897.008) rotate(18)" fill="#b942ff" fill-rule="evenodd"/>
    <path id="Fill-125" d="M144.314,83.96l2.458,5.484,2.207-3.482-1.262-2.422Z" transform="translate(1496.79 901.119) rotate(18)" fill="#ffac01" fill-rule="evenodd"/>
    <path id="Fill-127" d="M100.009,118.241l2.458,5.483,2.207-3.482-1.261-2.422Z" transform="translate(1510.779 896.104) rotate(18)" fill="#ff194e" fill-rule="evenodd"/>
    <path id="Fill-129" d="M75.034,109.851s5.916,1.134,6.51-2.9l-1.813-.967-5.682,1.631Z" transform="translate(1516.358 901.217) rotate(18)" fill="#00d1ff" fill-rule="evenodd"/>
    <path id="Fill-131" d="M155.321,116.362s4.7-.411,6.511-2.9l-1.815-.967-5.68,1.632Z" transform="translate(1496.635 892.992) rotate(18)" fill="#00ff2d" fill-rule="evenodd"/>
    <path id="Fill-133" d="M23.442,24.062s4.748-4.787,1.375-7.856l-2.031,1.082-2.032,6.3Z" transform="translate(1522.445 928.236) rotate(18)" fill="#fff947" fill-rule="evenodd"/>
    <path id="Fill-135" d="M61.961,30.839l-.569-3.762-1.937,1.748.965,4.508Z" transform="translate(1513.572 922.322) rotate(18)" fill="#fe0" fill-rule="evenodd"/>
    <path id="Fill-137" d="M109.7,60.216l-2.569-2.807-.633,2.532,3.314,3.2Z" transform="translate(1504.189 910.813) rotate(18)" fill="#00ffc1" fill-rule="evenodd"/>
    <path id="Fill-139" d="M52.792,56.1l-2.569-2.807-.634,2.532,1.24,1.2Z" transform="translate(1518.21 916.516) rotate(18)" fill="#ff393f" fill-rule="evenodd"/>
    <path id="Fill-141" d="M82.162,28.74l-2.569-2.807-.634,2.532,1.24,1.2Z" transform="translate(1508.557 921.012) rotate(18)" fill="#ff194e" fill-rule="evenodd"/>
    <path id="Fill-143" d="M98.321,29.148s-3.782.5-3.337,3.037l1.281.219,3.091-2.11Z" transform="translate(1504.786 918.891) rotate(18)" fill="#00d1ff" fill-rule="evenodd"/>
    <path id="Fill-145" d="M5.305.749S.945,2.631,0,5.577l2.04.35L6.952,2.571Z" transform="translate(1526.325 934.111) rotate(18)" fill="#00ff2d" fill-rule="evenodd"/>
    <path id="Fill-147" d="M190.694,137.262s-.2-4.892,5.352-3.76,6.681,7.225,6.681,7.225Z" transform="translate(1489.171 884.754) rotate(18)" fill="#ffc5ab" fill-rule="evenodd"/>
  </g>
</svg>
