<svg id="right-arrow" xmlns="http://www.w3.org/2000/svg" width="44" height="44" viewBox="0 0 44 44">
  <g id="Group_44147" data-name="Group 44147">
    <rect id="Rectangle_179" data-name="Rectangle 179" width="32" height="32" transform="translate(5.099 4)" fill="none"/>
    <rect id="Rectangle_5596" data-name="Rectangle 5596" width="44" height="44" fill="none"/>
    <rect id="Rectangle_179-2" data-name="Rectangle 179" width="24" height="24" transform="translate(11 9)" fill="none"/>
    <rect id="Rectangle_179-3" data-name="Rectangle 179" width="24" height="24" transform="translate(11 9)" fill="none"/>
  </g>
  <g id="Group_44152" data-name="Group 44152" transform="translate(7.693 1.879)">
    <path id="Union_93" data-name="Union 93" d="M2.313,33.284c-1.842-2.349-1.159-5.056,1.145-6.727l7.466-6.347L.7,9.175c-2.014-2.5.643-3.806,3.936-6.6s6.741-3.574,8.754-1.068l9.7,13.127a11.2,11.2,0,0,1,1.868,2.216c1.906,2.891,3.867,4.932,1.563,6.6L8.446,36.572a2.5,2.5,0,0,1-1.484.53C5.27,37.1,3.748,35.113,2.313,33.284Z" transform="translate(1.047 3.142)" opacity="0.3"/>
    <path id="Union_92" data-name="Union 92" d="M2.313,33.284c-1.842-2.349-1.159-5.056,1.145-6.727l7.466-6.347L.7,9.175c-2.014-2.5.643-3.806,3.936-6.6s6.741-3.574,8.754-1.068l9.7,13.127a11.2,11.2,0,0,1,1.868,2.216c1.906,2.891,3.867,4.932,1.563,6.6L8.446,36.572a2.5,2.5,0,0,1-1.484.53C5.27,37.1,3.748,35.113,2.313,33.284Z" fill="#fff"/>
    <path id="Union_91" data-name="Union 91" d="M.338,27.289c-.877-.976.026-2.545,1.868-3.811l9.708-7.3L1.1,4.239C-.517,2.315.8,1.957,2.216.772S5.5-.31,7.112,1.613l9.428,12.019a2.509,2.509,0,0,1,1.909,1.214c.833,1.259,1.842,2.05,0,3.317L3.993,28.095a2.735,2.735,0,0,1-1.53.571C1.552,28.666.932,27.951.338,27.289Z" transform="translate(4.346 4.456)"/>
  </g>
</svg>
