<svg xmlns="http://www.w3.org/2000/svg" width="116" height="97" viewBox="0 0 116 97">
  <g id="slide-ico-8" transform="translate(-1464 -380.012)">
    <rect id="Rectangle_5578" data-name="Rectangle 5578" width="116" height="97" transform="translate(1464 380.011)" fill="none"/>
    <g id="Group_66035" data-name="Group 66035" transform="matrix(0.998, -0.07, 0.07, 0.998, 1481.794, 388.674)">
      <path id="Path_107216" data-name="Path 107216" d="M3.484,38.806c2.775-5.094,5.256-10.678,8.035-15.77C14.152,18.213,17.1,13.9,19.767,9.088,21.534,5.9,23.148,1.209,27.079.2,31.035-.82,34.919,2.329,38.14,4.157c5.24,2.972,10.5,5.905,15.707,8.942A3.8,3.8,0,0,1,55.7,17.222,141.447,141.447,0,0,1,32.423,62.781a3.263,3.263,0,0,1-.36.4,2.791,2.791,0,0,1-4.036,2.112c-5.205-2.308-10.291-4.856-15.324-7.518C9.074,55.852,2.538,53.794.6,49.819-1.281,45.969,1.708,42.067,3.484,38.806Z" transform="translate(12.581 6.93)" fill="#ffec00"/>
      <path id="Path_107217" data-name="Path 107217" d="M24.883,18.789q3.41-5.3,7.022-10.47C33.691,5.764,35.43,2.484,38.014.605c5.8-4.218,34.68,14.884,35.412,17.608.785,2.92-1.237,5.662-2.54,8.08-2.017,3.744-3.99,7.512-5.978,11.271C56.677,53.131,48.871,69,39.424,83.872a2.8,2.8,0,0,1-2.051,1.373C36.746,86.178,23.7,79.6,23.7,79.6S-1.289,67.793.052,64.684A318.645,318.645,0,0,1,24.883,18.789ZM11.252,54.4c4.314,2.018,11.836,7.3,15.852,9.79,4.413,2.741,14.815,7.252,14.815,7.252S51.5,53.895,56.27,44.764c3.235-6.193,6.947-12.853,10.152-19.062.152-.3,2.021-4.3,2.021-4.3s-6.051-4.652-5.75-4.455c-2.868-1.883-6.3-2.762-9.272-4.486-2.792-1.623-9.6-5.505-12.693-6.5-1.823-.583-1.272-.837-2.762.3-.622.474-7.563,10.3-13.6,21.251C18.423,38.282,13.349,50.266,11.252,54.4Z" transform="translate(0.418 0.743)" fill="#34ff97"/>
      <path id="Path_107239" data-name="Path 107239" d="M2.836.086A4,4,0,0,1,4.943.2,3.9,3.9,0,0,1,7.3,1.844c1.074,1.623.155,3.813-1.592,4.709C3.6,7.636.8,6.659.146,4.515a3.409,3.409,0,0,1,.32-2.706A3.673,3.673,0,0,1,2.836.086Z" transform="translate(18.462 66.747)" fill="#ffec00"/>
      <g id="Group_66037" data-name="Group 66037" transform="translate(0 0)">
        <g id="Group_66031" data-name="Group 66031">
          <path id="Path_107218" data-name="Path 107218" d="M7.434,50.369c8.5-15.376,16.478-31.289,26.857-45.512,1.619-2.22,2.9-4.9,5.891-4.857C43.3.04,47.716,2.827,50.459,4.118A115.06,115.06,0,0,1,74.7,19.64c.818.675-.329,1.863-1.146,1.188A113.33,113.33,0,0,0,50.456,5.94q-3.13-1.5-6.35-2.809c-5.095-2.064-6.585.007-9.4,3.95-2.4,3.36-4.649,6.825-6.81,10.343-4.624,7.528-8.828,15.306-13.1,23.037L8.043,52.687,4.664,58.8c-1.726,3.125-2.493,3.512-1.35,7.135q-.148,3.027,2.468,3.811,1.543.866,3.092,1.718,3.1,1.7,6.229,3.351,5.868,3.088,11.838,5.977c1.854.9,3.7,1.84,5.592,2.652,3.424,1.471,5.173,1.449,7.643-1.7,2.663-3.391,4.441-8.114,6.5-11.909,8.753-16.1,16.679-32.915,26.231-48.55a.546.546,0,0,1,.959.52c-7.415,16.732-17,32.751-25.735,48.82-2.151,3.958-4.164,8.06-6.5,11.91-.993,1.634-1.89,3.073-3.842,3.579-2.074.539-4.184-.412-6.045-1.217-4.316-1.867-8.529-4.058-12.718-6.191Q13.116,75.7,7.311,72.49c-2.1-1.162-5.672-2.441-6.861-4.81C-.458,65.871.166,63.926.933,62.2,2.741,58.136,5.282,54.264,7.434,50.369Z" stroke="#000" stroke-width="1"/>
          <path id="Path_107219" data-name="Path 107219" d="M1.756.77c1.343-.848,2.7-1.1,4.9-.214a4.183,4.183,0,0,1,1.679,6.2,4.7,4.7,0,0,1-6.888.813C-.445,5.756-.621,2.271,1.756.77Zm.608,5.4c2.185,2.151,5.76.3,5.456-2.243s-3.9-2.489-5.06-2C1.13,2.62,1.247,5.072,2.364,6.174Z" transform="translate(18.099 66.087)"/>
          <path id="Path_107220" data-name="Path 107220" d="M12.974,23.109C17.418,15.446,22.181,7.392,28.228.841a.826.826,0,0,1,1.14-.77A202.681,202.681,0,0,1,54.32,13c1.282.786,4.2,1.918,4.493,3.737.428,2.63-3.154,6.978-4.264,9.091Q47.762,38.752,41.013,51.7c-2.253,4.31-4.451,8.659-6.809,12.914-.64,1.157-1.146,3.095-2.728,2.817a.448.448,0,0,1-.607.249,222.117,222.117,0,0,1-29.255-15.8.788.788,0,0,1-.376-.59c-.259-.177-.519-.351-.788-.511a.424.424,0,0,1-.222-.444.838.838,0,0,1-.168-.885A188.571,188.571,0,0,1,12.974,23.109ZM1.442,50.194a.738.738,0,0,1-.1.141c.063.056.125.114.189.169a.691.691,0,0,1,.858-.057c9.443,5.734,19.106,11,28.748,16.376l.014-.091a.328.328,0,0,1,.594-.1c-.6-1.276,4.309-8.716,4.975-10q2.521-4.861,5.061-9.711Q46.844,37.215,51.9,27.5q1.261-2.429,2.522-4.859c.588-1.13,2.664-3.759,2.532-4.854-.353-2.927-7.171-5.67-9.453-6.96A207.009,207.009,0,0,0,28.93,1.566c-4.789,7.824-10.368,15.121-14.95,23.1A270.774,270.774,0,0,0,1.442,50.194Z" transform="translate(10.657 5.111)"/>
          <path id="Path_107221" data-name="Path 107221" d="M.694.072A25.417,25.417,0,0,0,6.585,3.265c.363.137.257.716-.141.608A18.629,18.629,0,0,1,.15.815C-.264.5.266-.232.694.072Z" transform="translate(13.704 53.572)"/>
          <path id="Path_107222" data-name="Path 107222" d="M.7.075A37.644,37.644,0,0,0,4.565,1.982c.365.174.066.689-.294.542A36.656,36.656,0,0,0,.356.973C-.35.775.117-.289.7.075Z" transform="translate(14.918 52.016)"/>
          <path id="Path_107223" data-name="Path 107223" d="M.8.049A32.471,32.471,0,0,1,7.181,3.812c.418.3.073,1.017-.4.731C4.661,3.249,2.472,2.165.284,1-.34.663.171-.215.8.049Z" transform="translate(58.673 19.703)"/>
          <path id="Path_107224" data-name="Path 107224" d="M.835.047A17.361,17.361,0,0,1,5.4,2.891c.473.4-.18,1.03-.653.679A24.266,24.266,0,0,0,.3,1.028C-.361.724.182-.219.835.047Z" transform="translate(57.297 20.842)"/>
          <path id="Path_107225" data-name="Path 107225" d="M.423,2.047a3.9,3.9,0,0,0,2.425-.285A4.648,4.648,0,0,0,4.545.189c.386-.507,1.066.113.847.62-.831,1.921-3.4,2.562-5.21,1.87C-.187,2.538.062,1.973.423,2.047Z" transform="translate(24.703 73.676)"/>
          <path id="Path_107226" data-name="Path 107226" d="M.328,2.3A3.581,3.581,0,0,0,3.3.251c.288-.486,1.194-.214.981.373A3.923,3.923,0,0,1,.35,3.006.351.351,0,0,1,.328,2.3Z" transform="translate(27.586 74.674)"/>
        </g>
      </g>
      <path id="Union_306" data-name="Union 306" d="M.848,11.037a3.282,3.282,0,0,1-.577-.631A1.063,1.063,0,0,1,.265,8.991a1.046,1.046,0,0,1,1.478-.019c.259.172.478.406.732.593a5.388,5.388,0,0,0,5.786.911,7.788,7.788,0,0,0,3-2.107,2.741,2.741,0,0,1,.485-.473.927.927,0,0,1,1.447.942,1.983,1.983,0,0,1-.331.786c-.588.692-1.217,1.337-1.831,2.005l-.1-.085c-.33.176-.654.348-.984.528a8.1,8.1,0,0,1-3.86,1.008A7.888,7.888,0,0,1,.848,11.037ZM.6,2.561A1.756,1.756,0,0,1,1.034.209a1.368,1.368,0,0,1,1.89.462,1.7,1.7,0,0,1-.331,2.352,1.293,1.293,0,0,1-.741.225A1.523,1.523,0,0,1,.6,2.561ZM10.834,2.49A1.468,1.468,0,0,1,11.262.459a1.363,1.363,0,0,1,1.9.482,1.411,1.411,0,0,1-.407,2.01,1.29,1.29,0,0,1-.685.191A1.5,1.5,0,0,1,10.834,2.49Z" transform="matrix(0.94, 0.342, -0.342, 0.94, 35.562, 31.28)" stroke="rgba(0,0,0,0)" stroke-miterlimit="10" stroke-width="1"/>
    </g>
  </g>
</svg>
