<svg id="slide-ico-5" xmlns="http://www.w3.org/2000/svg" width="108.293" height="90.244" viewBox="0 0 108.293 90.244">
  <rect id="Rectangle_5578" data-name="Rectangle 5578" width="108.293" height="90.244" transform="translate(0 0)" fill="none"/>
  <g id="Group_54772" data-name="Group 54772" transform="translate(23.273 4.415)">
    <g id="Group_44021" data-name="Group 44021" transform="translate(1.624 1.638)">
      <path id="Path_99886" data-name="Path 99886" d="M381.108,129.3c.146-.572.258-.959.342-1.353.624-2.924,1.219-5.855,1.866-8.774,1.762-7.947,3.868-15.807,6.17-23.612,1.517-5.143,3.127-10.258,4.684-15.389.3-.979.52-1.981.815-2.96.067-.221.265-.526.453-.568a6.562,6.562,0,0,1,2.715-.218c5.374,1.025,10.758,2,16.13,3.032,5.188,1,10.366,2.052,15.548,3.083.489.1.977.2,1.511.308-.133.485-.221.878-.348,1.258-2.279,6.851-4.479,13.729-6.873,20.54-1.625,4.624-3.577,9.132-5.283,13.729-1.666,4.49-3.7,8.843-5.031,13.469a3,3,0,0,1-.416.049c-3.962-.085-7.928-.106-11.886-.282-3.446-.153-6.887-.445-10.323-.744-2.334-.2-4.662-.484-6.983-.811A30.741,30.741,0,0,1,381.108,129.3Z" transform="translate(-381.108 -54.945)" fill="#ffec00"/>
      <path id="Path_99887" data-name="Path 99887" d="M368.278,135.491q9.866-23.983,17.61-48.6l6.374.95c-.1.254-.2.524-.3.792-.449,1.125-.948,2.233-1.344,3.377q-4.566,13.177-10.19,25.937c-2.453,5.541-4.92,11.076-7.361,16.624a1.275,1.275,0,0,1-1.193.8c-1.021.08-2.044.129-3.066.185A3.823,3.823,0,0,1,368.278,135.491Z" transform="translate(-333.722 -58.66)" fill="#08de6f"/>
      <path id="Path_99888" data-name="Path 99888" d="M399.649,66c-.179-.249-.217-.368-.295-.4-6.374-2.849-13.223-3.964-20.042-5.467l3-2.235c1.851.858,3.627,1.7,5.419,2.5,1.1.5,2.229.94,3.351,1.389a1.773,1.773,0,0,0,.542.039c.022-.082.044-.165.065-.248-2.523-1.912-5.445-3.137-8.313-4.613L385.585,55c1.987,1.37,3.956,2.689,5.885,4.066a27.049,27.049,0,0,0,5.36,3.13,4.168,4.168,0,0,0,.757.162.653.653,0,0,0-.159-.478,58.986,58.986,0,0,0-10.779-8.166l1.034-1.451c.554.412,1.044.787,1.545,1.147,1.574,1.135,3.147,2.272,4.732,3.392a6.54,6.54,0,0,0,1.128.625.54.54,0,0,0,.5-.063.673.673,0,0,0,.067-.579,2.22,2.22,0,0,0-.581-.66c-2.173-1.763-4.355-3.515-6.608-5.328l.487-1.4c4.839,3.71,9.165,7.9,13.683,11.878a7.781,7.781,0,0,1-.884-.361c-.946-.378-1.895-.748-2.851-1.1-.12-.045-.289.041-.487.076.1.148.122.207.164.234,2.626,1.692,5.24,3.4,7.893,5.053a8.263,8.263,0,0,1,1.8,1.892c-1.686-.841-3.309-1.749-4.963-2.6a10.536,10.536,0,0,0-1.82-.63c-.139-.041-.319.06-.527.106a3.24,3.24,0,0,0,1.394,1.533c1.731,1.093,3.479,2.159,5.222,3.232.24.148.488.279.732.418l-.043.062L376,62.141a1.928,1.928,0,0,1,2.355-.5,1.332,1.332,0,0,0,.313.078c3.1.7,6.2,1.422,9.309,2.083,3.424.729,6.859,1.405,10.292,2.09A12.187,12.187,0,0,0,399.649,66Z" transform="translate(-354.763 -45.439)" fill="#fcf7ef"/>
      <path id="Path_99889" data-name="Path 99889" d="M366.813,63.012l-.033-.183c.427-.324.859-.642,1.281-.974a1.852,1.852,0,0,1,1.668-.364c.576.137,1.169.2,1.749.317,4.378.91,8.763,1.791,13.13,2.752,5.6,1.233,11.192,2.538,16.791,3.8a32.991,32.991,0,0,0,3.487.661,3.982,3.982,0,0,0,2.593-.369c.686-.415.8-.692.376-1.384a11.672,11.672,0,0,0-1.284-1.644c-1.754-1.973-3.4-4.063-5.318-5.864-3.575-3.357-7.3-6.552-10.985-9.793-1.983-1.745-4.006-3.444-6.008-5.169-.217-.186-.4-.406-.654-.66l.925-.853c.656.541,1.253,1.044,1.861,1.531,3.742,3,7.514,5.967,11.225,9.006A70.279,70.279,0,0,1,408.211,64.8a8.587,8.587,0,0,1,1.47,4.866.729.729,0,0,1-.765.849,7.733,7.733,0,0,1-1.609.007c-2.636-.4-5.277-.779-7.9-1.274-6.114-1.156-12.216-2.38-18.326-3.565q-5.91-1.146-11.825-2.259C368.447,63.271,367.629,63.149,366.813,63.012Z" transform="translate(-350.176 -43.282)" fill="#fc0"/>
    </g>
    <g id="Group_44022" data-name="Group 44022" transform="translate(0)">
      <path id="Path_99894" data-name="Path 99894" d="M394.434,121.383l8.055-.222c.135,0,.269-.014.4-.02a3.677,3.677,0,0,0,3.419-2.173c.823-1.727,1.706-3.427,2.49-5.171,2.727-6.074,5.511-12.125,8.1-18.255,2.634-6.229,5.125-12.52,7.283-18.937.643-1.914,1.39-3.8,2.2-5.647a5.437,5.437,0,0,0,.249-3.7c-.236-.911-.539-1.807-.8-2.712a5.473,5.473,0,0,0-1.361-2.15c-.906-1-1.7-2.095-2.586-3.107a75.428,75.428,0,0,0-8.008-7.765c-3.726-3.157-7.533-6.208-11.493-9.069-.48-.347-.938-.726-1.4-1.1a2.029,2.029,0,0,0-3.018.145,4.638,4.638,0,0,0-.694.888,1.508,1.508,0,0,0,.321,2.1,1.259,1.259,0,0,1,.433,1.488l24.489,21.485-44.754-4.077c-2.564,8.317-5.241,16.6-7.624,24.971-2.369,8.317-4.449,16.718-6.013,25.233a27.516,27.516,0,0,0-.352,2.968,1.852,1.852,0,0,0,1.585,2.266,51.006,51.006,0,0,0,5.475,1.009c3.211.381,6.435.656,9.659.925,1.988.165,3.983.257,5.976.344C388.875,121.209,391.275,121.274,394.434,121.383Zm-29.039-4.638c.146-.572.258-.959.342-1.353.624-2.924,1.219-5.855,1.866-8.774,1.762-7.947,3.868-15.807,6.17-23.612,1.517-5.143,3.128-10.258,4.684-15.389.3-.979.52-1.981.815-2.96.067-.221.265-.526.452-.568a6.562,6.562,0,0,1,2.715-.218c5.374,1.025,10.758,2,16.13,3.032,5.188,1,10.366,2.052,15.548,3.083.489.1.978.2,1.512.307-.133.485-.221.878-.348,1.258C413,78.4,410.8,85.28,408.408,92.091c-1.625,4.624-3.577,9.132-5.283,13.729-1.666,4.49-3.7,8.843-5.031,13.469a3,3,0,0,1-.416.049c-3.962-.085-7.928-.106-11.886-.282-3.446-.153-6.887-.445-10.323-.744-2.334-.2-4.662-.484-6.983-.811A30.736,30.736,0,0,1,365.395,116.745Zm34.556,2.476q9.866-23.983,17.61-48.6l6.374.95c-.1.254-.2.524-.3.792-.449,1.125-.948,2.233-1.344,3.377q-4.566,13.177-10.19,25.937c-2.453,5.541-4.92,11.076-7.361,16.624a1.275,1.275,0,0,1-1.192.8c-1.021.08-2.044.129-3.066.185A3.826,3.826,0,0,1,399.951,119.22Zm-.367-72.87C404.423,50.06,399.4,46.888,399.584,46.35ZM382.033,62.12,382,61.937c.427-.324.859-.642,1.281-.974a1.852,1.852,0,0,1,1.668-.364c.576.137,1.169.2,1.749.317,4.378.91,8.763,1.791,13.13,2.752,5.6,1.233,11.192,2.538,16.791,3.8,1.154.26,5.272.78,6.08.292.686-.415.8-.692.376-1.384a11.676,11.676,0,0,0-1.284-1.644c-1.754-1.973-12.62-12.416-16.3-15.657-1.983-1.745-4.007-3.444-6.007-5.169-.217-.186-.4-.406-.655-.66l.925-.853c.656.541,1.253,1.044,1.861,1.531,3.742,3,7.514,5.967,11.225,9.006A70.285,70.285,0,0,1,423.43,63.908a8.588,8.588,0,0,1,1.469,4.866.729.729,0,0,1-.765.849,7.733,7.733,0,0,1-1.609.007c-2.636-.4-5.277-.779-7.9-1.274-6.114-1.156-12.216-2.38-18.326-3.565q-5.91-1.146-11.825-2.259C383.666,62.379,382.848,62.257,382.033,62.12Z" transform="translate(-363.771 -39.615)"/>
      <path id="Path_99894_-_Outline" data-name="Path 99894 - Outline" d="M394.433,121.633h-.008c-1.012-.035-1.946-.065-2.827-.094-1.879-.061-3.5-.114-5.132-.185-2.123-.093-4.038-.183-5.986-.345-3.431-.286-6.527-.553-9.667-.926a50.367,50.367,0,0,1-5.5-1.013,2.1,2.1,0,0,1-1.778-2.527,28.021,28.021,0,0,1,.355-2.995c1.437-7.819,3.406-16.081,6.019-25.256,1.724-6.054,3.632-12.164,5.478-18.072.707-2.262,1.438-4.6,2.148-6.9l.06-.194,16.552,1.508c-3.134-.6-6.289-1.2-9.359-1.784l-.354-.067c-.553-.1-1.12-.2-1.668-.285l-.772-.126-.174-.029-.091-.507.122-.093.414-.312c.285-.214.579-.436.864-.659a2.08,2.08,0,0,1,1.322-.479,2.427,2.427,0,0,1,.558.068c.311.074.637.126.953.176.259.041.526.084.789.139q1.768.367,3.536.731c3.148.648,6.4,1.319,9.6,2.022,3.437.756,6.924,1.553,10.3,2.323l2.508.572,9.1.829L397.759,46.07l.034-.146a1.015,1.015,0,0,0-.344-1.235,1.759,1.759,0,0,1-.383-2.427,4.876,4.876,0,0,1,.731-.937,2.4,2.4,0,0,1,1.723-.823,2.609,2.609,0,0,1,1.631.658l.221.179c.378.307.77.624,1.168.912,3.611,2.609,7.376,5.58,11.508,9.081a75.432,75.432,0,0,1,8.035,7.791c.411.468.806.961,1.188,1.437.447.557.91,1.134,1.395,1.667a5.7,5.7,0,0,1,1.416,2.249c.1.348.209.7.314,1.043.168.546.342,1.111.488,1.676a5.7,5.7,0,0,1-.262,3.864c-.852,1.933-1.591,3.826-2.2,5.626-1.922,5.718-4.239,11.741-7.29,18.955-2,4.718-4.138,9.465-6.211,14.055-.622,1.378-1.265,2.8-1.895,4.2-.492,1.1-1.032,2.192-1.554,3.251-.31.63-.632,1.282-.939,1.926a3.938,3.938,0,0,1-3.633,2.315l-.142.008c-.087.005-.177.01-.269.013l-8.054.222ZM377.951,63.656c-.692,2.241-1.4,4.513-2.088,6.713-1.845,5.905-3.752,12.011-5.474,18.06-2.609,9.16-4.574,17.406-6.008,25.21a27.551,27.551,0,0,0-.348,2.941c-.086,1.19.3,1.752,1.392,2a49.9,49.9,0,0,0,5.448,1c3.132.372,6.223.639,9.65.924,1.938.161,3.849.251,5.966.344,1.628.071,3.249.124,5.126.185.879.029,1.811.059,2.82.094l8.047-.222c.084,0,.166-.007.253-.012l.147-.008a3.429,3.429,0,0,0,3.2-2.03c.308-.647.63-1.3.941-1.931.52-1.055,1.057-2.146,1.546-3.235.63-1.4,1.273-2.828,1.9-4.206,2.071-4.588,4.213-9.332,6.206-14.044,3.046-7.2,5.358-13.214,7.276-18.92.61-1.815,1.354-3.722,2.212-5.668a5.15,5.15,0,0,0,.235-3.537c-.143-.554-.315-1.113-.482-1.654-.106-.344-.215-.7-.317-1.052a5.272,5.272,0,0,0-1.305-2.051c-.5-.545-.963-1.127-1.415-1.691-.379-.472-.77-.96-1.174-1.42a74.941,74.941,0,0,0-7.982-7.739c-4.122-3.493-7.877-6.455-11.478-9.057-.409-.3-.806-.618-1.19-.929l-.22-.178A2.129,2.129,0,0,0,399.52,41a1.928,1.928,0,0,0-1.365.673,4.377,4.377,0,0,0-.657.839,1.264,1.264,0,0,0,.26,1.782,1.46,1.46,0,0,1,.554,1.594l24.5,21.494a.6.6,0,0,0,.254-.3c.03-.122-.035-.308-.2-.585A11.42,11.42,0,0,0,421.6,64.9c-1.746-1.965-12.7-12.486-16.282-15.636-1.273-1.121-2.586-2.241-3.855-3.325-.706-.6-1.436-1.226-2.151-1.842a6.053,6.053,0,0,1-.445-.44c-.07-.074-.144-.153-.224-.234l-.181-.184.189-.175.763-.7.322-.3.168.138.624.516c.425.352.826.685,1.235,1.013,1.216.975,2.456,1.963,3.655,2.919,2.491,1.985,5.066,4.037,7.572,6.089a70.175,70.175,0,0,1,10.631,11.019,8.764,8.764,0,0,1,1.522,5,1.024,1.024,0,0,1-.22.775,1.085,1.085,0,0,1-.779.345l-.205.013c-.264.017-.536.035-.807.035a4.347,4.347,0,0,1-.65-.044l-1.119-.169c-2.229-.335-4.533-.681-6.786-1.107-3.9-.738-7.866-1.516-11.7-2.269l-3.867-.758h0l-11.969-1.09,2.84.529c2.862.532,5.82,1.083,8.728,1.643,3.665.706,7.385,1.45,10.983,2.171q2.283.457,4.567.912c.331.066.661.133,1.006.2l.507.1.262.053-.071.258c-.043.159-.082.308-.119.449-.075.287-.145.559-.233.822-.656,1.973-1.317,3.982-1.956,5.925-1.58,4.8-3.213,9.768-4.918,14.618-.928,2.64-1.979,5.284-2.995,7.841-.766,1.926-1.557,3.918-2.29,5.892-.572,1.542-1.2,3.092-1.8,4.59a92.894,92.894,0,0,0-3.224,8.861l-.046.159-.164.02c-.047.006-.092.013-.135.02a1.685,1.685,0,0,1-.317.031c-1.151-.025-2.322-.044-3.455-.063-2.765-.046-5.625-.094-8.435-.219-3.34-.148-6.656-.425-10.334-.745-2.173-.189-4.461-.455-7-.812a16.415,16.415,0,0,1-2.131-.5c-.321-.09-.654-.182-.988-.266l-.243-.061.062-.243c.049-.193.095-.365.136-.524.083-.315.149-.564.2-.819.225-1.055.45-2.128.668-3.165.386-1.84.785-3.743,1.2-5.611,1.619-7.3,3.639-15.033,6.174-23.629.961-3.257,1.975-6.556,2.956-9.747.569-1.849,1.157-3.762,1.728-5.644.149-.491.282-1,.411-1.49s.257-.982.4-1.47c.075-.248.314-.668.637-.74l.1-.022ZM365.7,116.565c.257.067.51.138.757.207a16.046,16.046,0,0,0,2.066.482c2.526.356,4.806.621,6.969.809,3.672.32,6.983.6,10.313.744,2.8.125,5.659.173,8.421.219,1.134.019,2.306.039,3.459.063h.013a1.321,1.321,0,0,0,.2-.023c.877-3,2.056-5.925,3.2-8.755.6-1.5,1.226-3.042,1.8-4.577.735-1.98,1.527-3.974,2.294-5.9,1.014-2.552,2.063-5.192,2.988-7.822,1.7-4.846,3.336-9.809,4.915-14.609.639-1.943,1.3-3.953,1.957-5.927.082-.247.148-.5.223-.789l.052-.2-.248-.051c-.343-.07-.673-.138-1-.2q-2.284-.454-4.568-.912c-3.6-.72-7.317-1.465-10.979-2.17-2.906-.56-5.864-1.11-8.725-1.643-2.428-.452-4.938-.919-7.405-1.39a3.8,3.8,0,0,0-.719-.066,8.671,8.671,0,0,0-1.894.282.765.765,0,0,0-.268.4c-.144.479-.274.974-.4,1.452-.13.5-.264,1.008-.416,1.509-.571,1.884-1.159,3.8-1.728,5.646-.981,3.189-2,6.487-2.955,9.741-2.532,8.585-4.549,16.3-6.166,23.6-.413,1.865-.812,3.767-1.2,5.606-.218,1.038-.443,2.112-.668,3.167-.057.267-.127.534-.209.843Zm38.167-50.548c3.554.7,7.207,1.413,10.808,2.094,2.244.424,4.544.77,6.768,1.1l1.12.169a3.855,3.855,0,0,0,.575.038c.254,0,.518-.017.774-.034l.207-.013a.621.621,0,0,0,.431-.173.534.534,0,0,0,.1-.406,8.362,8.362,0,0,0-1.417-4.733A69.683,69.683,0,0,0,412.679,53.12c-2.5-2.05-5.077-4.1-7.566-6.085-1.2-.956-2.439-1.944-3.656-2.92-.412-.33-.815-.664-1.241-1.018l-.454-.376h0l-.576.531.052.055a5.607,5.607,0,0,0,.408.4c.714.616,1.444,1.239,2.149,1.841,1.271,1.085,2.584,2.207,3.86,3.33,3.69,3.247,14.522,13.65,16.325,15.679a11.828,11.828,0,0,1,1.31,1.68,1.325,1.325,0,0,1,.262.964.984.984,0,0,1-.357.512l.074.065-.14-.013a2.262,2.262,0,0,1-1.867.437,27.745,27.745,0,0,1-4.7-.5c-1.152-.259-2.409-.544-3.955-.9Zm12.522,1.141.285.064a27.094,27.094,0,0,0,4.587.487,7.03,7.03,0,0,0,.779-.036Zm-17.3-2.078,9.858.9c-3.02-.689-6.117-1.394-9.172-2.066-3.19-.7-6.443-1.372-9.59-2.02q-1.769-.364-3.538-.731c-.252-.053-.513-.094-.766-.135-.325-.052-.661-.105-.99-.183a1.6,1.6,0,0,0-1.456.318c-.288.226-.585.449-.872.665l-.141.106.421.068c.552.089,1.122.182,1.681.287l.355.067c3.761.713,7.65,1.451,11.472,2.192l2.738.534Zm1.362,54.458a1.764,1.764,0,0,1-.286-.032c-.069-.011-.147-.024-.246-.037l-.322-.042.124-.3c6.545-15.911,12.467-32.255,17.6-48.579l.064-.2.211.031,6.374.95.307.046-.11.29-.087.232c-.069.184-.141.374-.216.564-.147.367-.3.738-.45,1.1-.307.74-.625,1.5-.89,2.27-3.086,8.905-6.517,17.638-10.2,25.957q-1.283,2.9-2.569,5.8c-1.574,3.547-3.2,7.215-4.791,10.828a1.513,1.513,0,0,1-1.4.95c-.857.067-1.727.113-2.57.158l-.5.027Zm-.147-.516a.824.824,0,0,0,.164.016l.5-.027c.839-.045,1.707-.091,2.557-.158a1.021,1.021,0,0,0,.983-.653c1.59-3.614,3.218-7.282,4.792-10.829q1.285-2.9,2.569-5.795c3.675-8.306,7.1-17.026,10.182-25.918.27-.779.591-1.551.9-2.3.148-.357.3-.726.447-1.09.066-.166.13-.334.191-.5l-5.856-.873C412.643,87.069,406.779,103.256,400.3,119.021Zm1.376-70.646a3.7,3.7,0,0,1-1.078-.629,6.094,6.094,0,0,1-1.143-1.029.517.517,0,0,1-.111-.449l.114-.327.275.211c.746.572,1.311,1.021,1.677,1.333.47.4.58.527.517.714A.263.263,0,0,1,401.68,48.376Z" transform="translate(-363.771 -39.615)"/>
      <path id="Path_99890" data-name="Path 99890" d="M394.434,121.383l8.055-.222c.135,0,.269-.014.4-.02a3.677,3.677,0,0,0,3.419-2.173c.823-1.727,1.706-3.427,2.49-5.171,2.727-6.074,5.511-12.125,8.1-18.255,2.634-6.229,5.125-12.52,7.283-18.937.643-1.914,1.39-3.8,2.2-5.647a5.437,5.437,0,0,0,.249-3.7c-.236-.911-.539-1.807-.8-2.712a5.473,5.473,0,0,0-1.361-2.15c-.906-1-1.7-2.095-2.586-3.107a75.428,75.428,0,0,0-8.008-7.765c-3.726-3.157-7.533-6.208-11.493-9.069-.48-.347-.938-.726-1.4-1.1a2.029,2.029,0,0,0-3.018.145,4.638,4.638,0,0,0-.694.888,1.508,1.508,0,0,0,.321,2.1c.555.436,1.633.025,1.494.62-.24,1.014-1.78,2.776-2.328,3.649a23.169,23.169,0,0,1-4.955,5.07,36.6,36.6,0,0,1-7.556,4.655c-.141.071-.311.078-.455.144a9.634,9.634,0,0,0-1.871.9c-1.245.944-2.422,1.978-3.6,3.006a1.96,1.96,0,0,0-.559.854c-2.564,8.317-5.241,16.6-7.624,24.971-2.369,8.317-4.449,16.718-6.013,25.233a27.516,27.516,0,0,0-.352,2.968,1.852,1.852,0,0,0,1.585,2.266,51.006,51.006,0,0,0,5.475,1.009c3.211.381,6.435.656,9.659.925,1.988.165,3.983.257,5.976.344C388.875,121.209,391.275,121.274,394.434,121.383Zm-29.039-4.638c.146-.572.258-.959.342-1.353.624-2.924,1.219-5.855,1.866-8.774,1.762-7.947,3.868-15.807,6.17-23.612,1.517-5.143,3.128-10.258,4.684-15.389.3-.979.52-1.981.815-2.96.067-.221.265-.526.452-.568a6.562,6.562,0,0,1,2.715-.218c5.374,1.025,10.758,2,16.13,3.032,5.188,1,10.366,2.052,15.548,3.083.489.1.978.2,1.512.307-.133.485-.221.878-.348,1.258C413,78.4,410.8,85.28,408.408,92.091c-1.625,4.624-3.577,9.132-5.283,13.729-1.666,4.49-3.7,8.843-5.031,13.469a3,3,0,0,1-.416.049c-3.962-.085-7.928-.106-11.886-.282-3.446-.153-6.887-.445-10.323-.744-2.334-.2-4.662-.484-6.983-.811A30.736,30.736,0,0,1,365.395,116.745Zm34.556,2.476q9.866-23.983,17.61-48.6l6.374.95c-.1.254-.2.524-.3.792-.449,1.125-.948,2.233-1.344,3.377q-4.566,13.177-10.19,25.937c-2.453,5.541-4.92,11.076-7.361,16.624a1.275,1.275,0,0,1-1.192.8c-1.021.08-2.044.129-3.066.185A3.826,3.826,0,0,1,399.951,119.22ZM410.28,62.948c-.179-.249-.217-.368-.295-.4-6.374-2.849-13.223-3.964-20.042-5.467l3-2.235c1.851.858,3.626,1.7,5.419,2.5,1.1.5,2.229.94,3.351,1.389a1.772,1.772,0,0,0,.542.039c.022-.082.044-.165.065-.248-2.523-1.912-5.445-3.137-8.313-4.613l2.211-1.962c1.987,1.37,3.956,2.689,5.885,4.066a27.052,27.052,0,0,0,5.36,3.13,4.164,4.164,0,0,0,.757.162.652.652,0,0,0-.159-.478,58.98,58.98,0,0,0-10.779-8.166c.361-.506,2.118-2.5,2.471-2.992.553.412,1.03,1.035,1.53,1.4,1.574,1.135,3.42,2.735,5,3.855.35.247.187.731.578.9.139.062-.709.583-.645.487a.673.673,0,0,0,.067-.579,2.219,2.219,0,0,0-.581-.66c-2.173-1.763-3.5-4.158-5.754-5.972.128-.366-.187-.544,0-1.082,4.839,3.71,8.8,8.225,13.316,12.2a7.79,7.79,0,0,1-.884-.361c-.946-.378-1.895-.748-2.851-1.1-.12-.045-.289.041-.487.076.1.148.122.207.164.234,2.626,1.692,5.24,3.4,7.893,5.053a8.26,8.26,0,0,1,1.8,1.892c-1.686-.841-3.309-1.749-4.963-2.6a10.534,10.534,0,0,0-1.82-.63c-.139-.041-.319.06-.527.106a3.24,3.24,0,0,0,1.394,1.533c1.731,1.093,3.479,2.159,5.222,3.232.24.148.488.279.732.418l-.043.062L386.63,59.091a1.928,1.928,0,0,1,2.355-.5,1.333,1.333,0,0,0,.313.078c3.1.7,6.2,1.422,9.309,2.083,3.424.729,6.859,1.405,10.292,2.09A12.19,12.19,0,0,0,410.28,62.948Zm-28.248-.827L382,61.937c.427-.324.859-.642,1.281-.974a1.852,1.852,0,0,1,1.668-.364c.576.137,1.169.2,1.749.317,4.378.91,8.763,1.791,13.13,2.752,5.6,1.233,11.192,2.538,16.791,3.8a32.985,32.985,0,0,0,3.487.661,3.982,3.982,0,0,0,2.593-.369c.686-.415.8-.692.376-1.384a11.676,11.676,0,0,0-1.284-1.644c-1.754-1.973-3.4-4.063-5.318-5.864-3.575-3.357-7.3-6.552-10.985-9.793-1.983-1.745-4.007-3.444-6.007-5.169-.217-.186-.4-.406-.655-.66l.925-.853c.656.541,1.253,1.044,1.861,1.531,3.742,3,7.514,5.967,11.225,9.006A70.285,70.285,0,0,1,423.43,63.908a8.588,8.588,0,0,1,1.469,4.866.729.729,0,0,1-.765.849,7.733,7.733,0,0,1-1.609.007c-2.636-.4-5.277-.779-7.9-1.274-6.114-1.156-12.216-2.38-18.326-3.565q-5.91-1.146-11.825-2.259C383.666,62.379,382.848,62.257,382.033,62.12Z" transform="translate(-363.771 -40.752)"/>
      <path id="Path_99890_-_Outline" data-name="Path 99890 - Outline" d="M420.978,66.684a2.63,2.63,0,0,0,.467-.037c-.179-.236-.379-.471-.586-.708l-.487.708a5.77,5.77,0,0,0,.607.037M420,64.967c-.26-.3-.518-.6-.772-.9l-.246.317,0,0c.136.084.286.167.444.255l.241.135.327.186m-25.57,56.417c-3.16-.109-5.559-.174-7.957-.279-1.993-.087-3.988-.179-5.976-.344-3.223-.269-6.448-.544-9.659-.925a51,51,0,0,1-5.475-1.009,1.852,1.852,0,0,1-1.585-2.266,27.516,27.516,0,0,1,.352-2.968c1.565-8.515,3.645-16.916,6.013-25.233,2.383-8.369,5.06-16.654,7.624-24.971a1.96,1.96,0,0,1,.559-.854c1.178-1.027,2.356-2.062,3.6-3.006a9.634,9.634,0,0,1,1.871-.9c.144-.065.315-.073.455-.144a36.6,36.6,0,0,0,7.556-4.655,23.169,23.169,0,0,0,4.955-5.07c.548-.873,2.088-2.634,2.328-3.649.14-.595-.939-.184-1.494-.62a1.508,1.508,0,0,1-.321-2.1,4.638,4.638,0,0,1,.694-.888,2.029,2.029,0,0,1,3.018-.145c.462.373.919.752,1.4,1.1,3.959,2.861,7.766,5.912,11.493,9.069a75.428,75.428,0,0,1,8.008,7.765c.889,1.012,1.681,2.112,2.586,3.107a5.473,5.473,0,0,1,1.361,2.15c.261.906.564,1.8.8,2.712a5.437,5.437,0,0,1-.249,3.7c-.814,1.848-1.561,3.733-2.2,5.647-2.158,6.417-4.649,12.708-7.283,18.937-2.593,6.131-5.377,12.181-8.1,18.255-.783,1.745-1.666,3.445-2.49,5.171a3.677,3.677,0,0,1-3.419,2.173c-.135.006-.269.017-.4.02ZM381.673,63.8a8.938,8.938,0,0,0-1.949.288c-.188.042-.386.347-.452.568-.3.979-.518,1.982-.815,2.96-1.556,5.131-3.167,10.246-4.684,15.389-2.3,7.805-4.408,15.665-6.17,23.612-.647,2.92-1.242,5.85-1.866,8.774-.084.394-.2.781-.342,1.353a30.738,30.738,0,0,0,3.092.756c2.32.327,4.649.607,6.983.81,3.437.3,6.878.592,10.323.744,3.958.176,7.924.2,11.886.282a2.975,2.975,0,0,0,.416-.049c1.335-4.626,3.365-8.979,5.031-13.469,1.706-4.6,3.658-9.105,5.283-13.729C410.8,85.28,413,78.4,415.281,71.55c.127-.38.215-.773.348-1.258-.534-.109-1.022-.21-1.512-.307-5.182-1.031-10.36-2.084-15.548-3.083-5.372-1.035-10.757-2.007-16.13-3.032A4.072,4.072,0,0,0,381.673,63.8Zm35.888,6.821q-7.761,24.671-17.61,48.6a3.837,3.837,0,0,0,.529.067c1.022-.056,2.045-.105,3.066-.185a1.275,1.275,0,0,0,1.192-.8c2.441-5.547,4.908-11.082,7.361-16.624q5.643-12.753,10.19-25.937c.4-1.143.895-2.252,1.344-3.377.107-.268.206-.539.3-.792ZM384.449,60.537a1.844,1.844,0,0,0-1.168.426c-.422.331-.854.649-1.281.974l.033.183c.815.137,1.633.259,2.445.412q5.915,1.122,11.825,2.259c6.109,1.185,12.211,2.409,18.326,3.565,2.619.5,5.26.875,7.9,1.274a7.732,7.732,0,0,0,1.609-.007.729.729,0,0,0,.765-.849,8.588,8.588,0,0,0-1.469-4.866,70.285,70.285,0,0,0-10.593-10.981c-3.711-3.039-7.482-6-11.225-9.006-.609-.487-1.2-.99-1.861-1.531l-.925.853c.25.254.438.474.655.66,2,1.725,4.025,3.423,6.007,5.169,3.683,3.241,7.41,6.436,10.985,9.793,1.917,1.8,3.564,3.891,5.318,5.864a11.676,11.676,0,0,1,1.284,1.644c.421.692.31.969-.376,1.384a3.982,3.982,0,0,1-2.593.369,32.987,32.987,0,0,1-3.487-.661c-5.6-1.26-11.186-2.565-16.791-3.8-4.367-.961-8.752-1.842-13.13-2.752-.58-.121-1.174-.18-1.749-.317A2.165,2.165,0,0,0,384.449,60.537Zm3.694-2.162a2.287,2.287,0,0,0-1.512.716l32.263,7.056.043-.062c-.244-.139-.493-.27-.732-.418-1.743-1.073-3.491-2.14-5.222-3.232a3.24,3.24,0,0,1-1.394-1.533c.208-.046.389-.148.527-.106a10.534,10.534,0,0,1,1.82.63c1.653.847,3.276,1.755,4.963,2.6a8.26,8.26,0,0,0-1.8-1.892c-2.654-1.649-5.267-3.362-7.893-5.053-.041-.027-.062-.085-.164-.234.2-.034.367-.12.487-.076.956.352,1.905.722,2.851,1.1a7.791,7.791,0,0,0,.884.361c-4.518-3.979-8.477-8.493-13.316-12.2-.187.538.128.715,0,1.082a25.36,25.36,0,0,1,3.324,3.5c-.685-.545-1.362-1.076-1.994-1.532-.5-.361-.977-.984-1.53-1.4-.353.5-2.11,2.486-2.471,2.992a58.979,58.979,0,0,1,10.779,8.166.652.652,0,0,1,.159.478,4.164,4.164,0,0,1-.757-.162,27.052,27.052,0,0,1-5.36-3.13c-1.928-1.377-3.9-2.7-5.885-4.066l-2.211,1.962c2.868,1.476,5.79,2.7,8.313,4.613-.021.083-.043.166-.065.248-.087,0-.179,0-.268,0a.729.729,0,0,1-.273-.04c-1.123-.449-2.248-.894-3.351-1.389-1.793-.8-3.568-1.647-5.419-2.5l-3,2.235c6.819,1.5,13.668,2.618,20.042,5.467.077.034.116.153.295.4a12.187,12.187,0,0,1-1.382-.1c-3.433-.685-6.868-1.361-10.292-2.09-3.11-.662-6.206-1.386-9.309-2.083a1.333,1.333,0,0,1-.313-.078A1.85,1.85,0,0,0,388.143,58.375Zm18.078-4.046c-.006,0-.007,0,0-.012a.673.673,0,0,0,.067-.579,2.219,2.219,0,0,0-.581-.66,18.817,18.817,0,0,1-2.43-2.475c1.021.811,2.062,1.653,3.01,2.323.35.247.187.731.578.9C406.991,53.888,406.29,54.33,406.221,54.33Z" transform="translate(-363.771 -40.752)"/>
      <path id="Path_99891" data-name="Path 99891" d="M7.853,7.621c.825-.21,1.657-.4,2.472-.643a1.751,1.751,0,0,0,.66-.449.818.818,0,0,0,.18-.968.8.8,0,0,0-.836-.513,2.7,2.7,0,0,0-.629.121A7.35,7.35,0,0,1,6.263,5.3a5.076,5.076,0,0,1-4.1-3.682c-.1-.276-.155-.573-.268-.845C1.646.16,1.226-.092.721.03A1,1,0,0,0,0,1.15a3.335,3.335,0,0,0,.135.791A7.321,7.321,0,0,0,6.773,7.415L7.818,7.5Z" transform="matrix(0.951, -0.309, 0.309, 0.951, 19.036, 51.148)"/>
      <path id="Path_99892" data-name="Path 99892" d="M0,1.631A1.369,1.369,0,0,0,1.339,3.02,1.591,1.591,0,0,0,2.8,1.334,1.289,1.289,0,0,0,1.553,0,1.657,1.657,0,0,0,0,1.631Z" transform="matrix(0.951, -0.309, 0.309, 0.951, 18.811, 44.79)"/>
      <path id="Path_99893" data-name="Path 99893" d="M1.375,0A1.379,1.379,0,0,0,0,1.377,1.362,1.362,0,0,0,1.276,2.724a1.329,1.329,0,0,0,1.35-1.377A1.284,1.284,0,0,0,1.375,0Z" transform="matrix(0.951, -0.309, 0.309, 0.951, 30.481, 46.313)"/>
    </g>
  </g>
</svg>
