<svg xmlns="http://www.w3.org/2000/svg" width="83" height="71" viewBox="0 0 83 71">
  <g id="t1" transform="translate(-1464 -379.22)">
    <rect id="Rectangle_5578" data-name="Rectangle 5578" width="83" height="71" transform="translate(1464 379.22)" fill="none"/>
    <g id="Group_66035" data-name="Group 66035" transform="matrix(0.998, -0.07, 0.07, 0.998, 1477.153, 386.327)">
      <path id="Path_107216" data-name="Path 107216" d="M2.517,28.036c2-3.68,3.8-7.715,5.8-11.393,1.9-3.484,4.035-6.6,5.959-10.077,1.276-2.3,2.442-5.692,5.282-6.423,2.858-.735,5.664,1.54,7.991,2.86C31.34,5.15,35.143,7.269,38.9,9.463a2.744,2.744,0,0,1,1.339,2.979A102.188,102.188,0,0,1,23.424,45.356a2.355,2.355,0,0,1-.26.286,2.016,2.016,0,0,1-2.915,1.526C16.487,45.5,12.813,43.66,9.177,41.737,6.555,40.351,1.834,38.863.432,35.992-.925,33.21,1.234,30.391,2.517,28.036Z" transform="translate(8.787 5.06)" fill="#fff"/>
      <path id="Path_107217" data-name="Path 107217" d="M17.977,14.164Q20.44,10.334,23.05,6.6c1.29-1.846,2.547-4.215,4.414-5.573,4.189-3.047,9.887,1.452,13.53,3.546Q45.033,6.9,48.83,9.592c1.535,1.093,3.689,2.189,4.217,4.157.567,2.11-.894,4.091-1.835,5.837-1.457,2.7-2.883,5.427-4.319,8.143C40.947,38.975,35.307,50.437,28.482,61.183A2.025,2.025,0,0,1,27,62.175c-.453.674-9.878-4.078-9.878-4.078S-.931,49.567.038,47.321A230.208,230.208,0,0,1,17.977,14.164ZM8.129,39.892c3.116,1.458,8.551,5.27,11.452,7.073a118.686,118.686,0,0,0,10.7,5.239S37.206,39.527,40.652,32.93c2.337-4.474,5.019-9.286,7.334-13.771.11-.214,1.46-3.107,1.46-3.107s-4.372-3.361-4.154-3.218c-2.072-1.361-4.555-2-6.7-3.241-2.017-1.172-6.936-3.977-9.17-4.692-1.317-.421-.919-.6-2,.215A124.143,124.143,0,0,0,17.6,20.467C13.31,28.247,9.644,36.9,8.129,39.892Z" transform="translate(0 0)" fill="#34ff97"/>
      <path id="Path_107239" data-name="Path 107239" d="M2.049.062A2.89,2.89,0,0,1,3.571.145a2.816,2.816,0,0,1,1.7,1.188,2.44,2.44,0,0,1-1.15,3.4A2.868,2.868,0,0,1,.106,3.262,2.463,2.463,0,0,1,.337,1.307,2.653,2.653,0,0,1,2.049.062Z" transform="translate(13.036 48.274)" fill="#fff"/>
    </g>
  </g>
</svg>
