<svg xmlns="http://www.w3.org/2000/svg" width="96" height="96" viewBox="0 0 96 96">
  <g id="t10" transform="translate(-1224 -2064)">
    <rect id="Rectangle_6678" data-name="Rectangle 6678" width="96" height="96" transform="translate(1224 2064)" fill="none"/>
    <g id="GOL" transform="translate(1213.098 2060.358)">
      <g id="_000000ff" data-name="#000000ff" transform="translate(18.101 9.342)">
        <path id="Path_107644" data-name="Path 107644" d="M30.194,14.154a5.224,5.224,0,0,1,5.387-4.806,5.95,5.95,0,0,1,5.546,4.231,5.869,5.869,0,0,1,5.732-.491,5.6,5.6,0,0,1,2.792,7.328,5.915,5.915,0,0,1,6.4,3.034,6.807,6.807,0,0,1,.58,1.676,39.874,39.874,0,0,1,5.017-.333c4.291-.058,8.584.077,12.871.271,4.089.228,8.186.4,12.251.916.4.089.873.05,1.185.358a26.915,26.915,0,0,1-2.808.129c-5.094.007-10.187-.06-15.281-.106-4.384-.075-8.778-.014-13.149-.367A5.034,5.034,0,0,1,55.4,29.456a5.526,5.526,0,0,1-2.049,1.326,5.243,5.243,0,0,1,3.516,6.624,5.423,5.423,0,0,1-7.462,3.281,5.024,5.024,0,0,1-.226,3.838,17.149,17.149,0,0,0,6.538-.66c2.849-.885,5.164-3.072,8.152-3.567,2.242-.365,4.415.475,6.533,1.079a26.555,26.555,0,0,0,9.438.743c2.893-.187,5.742-.813,8.637-.971-.184-3.533-.391-7.064-.583-10.6-.046-1.317-.18-2.633-.117-3.95a17.662,17.662,0,0,1,.588,3.08c1.869,14.1,2.329,28.336,2.636,42.54.017,2.633.135,5.272-.06,7.9-.062.273-.022.768-.434.712a7.126,7.126,0,0,1-.484-2.248c-.377-3.765-.454-7.55-.611-11.328-.274-8.472-.516-16.946-.9-25.415A40.04,40.04,0,0,1,77.958,43.7a23.514,23.514,0,0,1-8.253-.993,18.951,18.951,0,0,0-4.632-1.139,7.188,7.188,0,0,0-3.1.619c-1.844.763-3.56,1.825-5.474,2.417a13.6,13.6,0,0,1-7.464.184,5.494,5.494,0,0,1-3.512,2.566c2.549,4.869,4.651,9.952,7.073,14.883a11.561,11.561,0,0,1,.911,2.127A1.5,1.5,0,0,1,50.989,65.9c-1.247-.988-2.483-1.989-3.725-2.984A22,22,0,0,1,45,70.17a1.366,1.366,0,0,1-2.459-.406A151.354,151.354,0,0,1,40.448,54.33c-.2.863-.249,1.749-.388,2.621a124.446,124.446,0,0,1-5.766,23.572,1.712,1.712,0,0,1-1,1.243,1.554,1.554,0,0,1-2.075-1.036c-.568-2.113-1.074-4.245-1.621-6.363a15.815,15.815,0,0,1-5.356,2.044,1.451,1.451,0,0,1-1.6-1.869c1.36-3.768,2.785-7.512,4.178-11.268,1.837-4.806,3.588-9.647,5.555-14.4A6.6,6.6,0,0,1,28.933,46.8a4.328,4.328,0,0,1-.964-2.356,5.5,5.5,0,0,1-6.581-1.767,5.975,5.975,0,0,1-.269-6.539,8.6,8.6,0,0,1,1.633-1.859,5.285,5.285,0,0,1-4.07-3.118,7.051,7.051,0,0,1-.13-5.294c.607-1.794,1.979-3.631,4.008-3.8a5.574,5.574,0,0,1,1.427-7.349,5.808,5.808,0,0,1,6.207-.564M33.58,10.9a5.606,5.606,0,0,0-3.18,3.365A5.037,5.037,0,0,1,33,18.125a13.839,13.839,0,0,1,6.615-.276,6.668,6.668,0,0,0,.027-4.051,4.868,4.868,0,0,0-6.059-2.9m7.675,3.106a6.362,6.362,0,0,1-.557,4.116,15.724,15.724,0,0,1,6.389,3.547,4.893,4.893,0,0,0,1.55-3.638,4.769,4.769,0,0,0-3.617-4.3,6.453,6.453,0,0,0-3.765.28M23.7,16.83a5.509,5.509,0,0,0-.659,5.26,4.057,4.057,0,0,1,2.885,2.339c.043.127.281.458.317.12a10.107,10.107,0,0,1,6.078-6.2,7.229,7.229,0,0,0-2.675-2.79A4.8,4.8,0,0,0,23.7,16.83m7.445,2.95a9.424,9.424,0,0,0-4.677,5.492c.261-.4.379-.993.924-1.087-.063,1.029-.353,2.029-.413,3.056a14.051,14.051,0,0,0,2.041,9.33,11.786,11.786,0,0,0,4.535,4.113,10.988,10.988,0,0,0,9.705.674A10.444,10.444,0,0,0,49.137,35.8a11.408,11.408,0,0,0-1.005-10.939A13.917,13.917,0,0,0,40.6,19.238a12.1,12.1,0,0,0-9.455.542m16.729,2.693a13.435,13.435,0,0,1,3.511,7.421,4.293,4.293,0,0,0,3.485-2.331,4.6,4.6,0,0,0-1.37-5.317,8.625,8.625,0,0,0-3.912-1.688,5.344,5.344,0,0,1-1.713,1.914m-26.4,1.173a5.7,5.7,0,0,0-1.77,3.274,5.585,5.585,0,0,0,.828,4.447,3.658,3.658,0,0,0,3.039,1.566,5.864,5.864,0,0,0,2.35-.7,14.945,14.945,0,0,1-.13-3.732c.146-1.038-.024-2.1.225-3.123a6.271,6.271,0,0,0-2.327-2.149,2.181,2.181,0,0,0-2.214.417m30,7.229a11.849,11.849,0,0,1-2.427,7.961,3.825,3.825,0,0,0,4.485.408,4.392,4.392,0,0,0,2.305-3.881,4.5,4.5,0,0,0-1.278-3.015,3.962,3.962,0,0,0-3.085-1.473m-25.58,2.518c-.549.324-1.137.575-1.694.878a5.756,5.756,0,0,0-2.286,2.684A4.842,4.842,0,0,0,22.9,42.2a4.076,4.076,0,0,0,5.133.528,5.174,5.174,0,0,0,1.859-2.9A13.4,13.4,0,0,1,26.1,33.051c-.051.086-.154.257-.206.341M40.447,43.629a5.261,5.261,0,0,0,2.85,2.183A4.466,4.466,0,0,0,48.12,44.1a6,6,0,0,0,.924-3.644q-.365-.376-.712-.768a12.936,12.936,0,0,1-7.886,3.943M30.055,42.535c-.266.449-.743.82-.715,1.393a3.148,3.148,0,0,0,1.544,2.639,8.332,8.332,0,0,0,5.546,1.158,4.685,4.685,0,0,0,3.677-2.368,4.868,4.868,0,0,1-.746-1.653,13.526,13.526,0,0,1-8.656-3.157,4.5,4.5,0,0,1-.65,1.989m10.369,3.2c-.079.238-.274.456-.281.712l-.01-.082a5.011,5.011,0,0,1-3.655,2.574A10.138,10.138,0,0,1,32.64,48.9c-.182.509-.341,1.027-.485,1.55-.3.9-.6,1.792-.863,2.7-2.392,7.037-4.785,14.077-7.234,21.1a5.148,5.148,0,0,0-.237.924A15.38,15.38,0,0,0,30.446,72.1q.913,3.427,1.821,6.852a7.411,7.411,0,0,0,.47,1.494,131.147,131.147,0,0,0,5.281-19.9c.885-4.5,1.508-9.042,2.182-13.573.062-.172.12-.343.175-.516l.357-.123c.382,1.629-.055,3.3.067,4.95.806,6.111,1.681,12.223,3.024,18.243.039-.074.118-.221.159-.295a22.79,22.79,0,0,0,2.027-9.188c2,1.54,3.946,3.139,5.929,4.7-2.353-5.509-4.9-10.945-6.987-16.562-.087-.237-.173-.472-.261-.707A5.407,5.407,0,0,1,40.424,45.739Z" transform="translate(-18.101 -9.342)"/>
        <path id="Path_107645" data-name="Path 107645" d="M436.531,69.163a2.369,2.369,0,0,1,1.37-.983c.374.106.755.58.492.957a12.041,12.041,0,0,1-1.609,1.993c-.4.4-.758.918-1.345,1.043A4.43,4.43,0,0,1,436.531,69.163Z" transform="translate(-363.855 -58.089)"/>
        <path id="Path_107646" data-name="Path 107646" d="M459.031,81.015c.42-.285.938.177.979.6a3.081,3.081,0,0,1-1.051,1.372,4.824,4.824,0,0,1-2.281,1.231,2.944,2.944,0,0,1,.773-1.7A5.417,5.417,0,0,1,459.031,81.015Z" transform="translate(-381.46 -68.65)"/>
        <path id="Path_107647" data-name="Path 107647" d="M466.231,113.008a5.114,5.114,0,0,1,1.928-.134.664.664,0,0,1,.153,1.225,5.182,5.182,0,0,1-2.055.286,3.414,3.414,0,0,1-2.017-.485A4.033,4.033,0,0,1,466.231,113.008Z" transform="translate(-387.725 -95.081)"/>
        <path id="Path_107648" data-name="Path 107648" d="M236.936,282.37c1.717-1.187,3.689-2.4,5.872-2.111,2.784.393,4.823,2.694,7.558,3.24,1.758.3,3.375-.629,4.948-1.266,1.321-.537,2.811-1.11,4.236-.631.355.1.993.5.5.866a7.65,7.65,0,0,0-2.832.473c-2.164.852-4.246,2.338-6.682,2.1-2.629-.274-4.553-2.295-6.9-3.291a4.925,4.925,0,0,0-3.607-.1c-1.631.521-3.048,1.585-4.728,1.953A9.822,9.822,0,0,1,236.936,282.37Z" transform="translate(-198.049 -233.759)"/>
        <path id="Path_107649" data-name="Path 107649" d="M257.238,366.948c2.962.046,5.773-1.17,8.731-1.168a18.284,18.284,0,0,1,4.826.655,3.779,3.779,0,0,1,1.233.532c.261.22.031.631-.269.659a6.952,6.952,0,0,1-1.809-.05,27.774,27.774,0,0,0-4.651-.269c-2.351.122-4.674.695-7.037.571A5.175,5.175,0,0,1,255,366.723C255.753,366.734,256.485,366.951,257.238,366.948Z" transform="translate(-214.371 -304.649)"/>
        <path id="Path_107650" data-name="Path 107650" d="M125.9,383.549c.089-.3.005-.981.448-.931a3.652,3.652,0,0,1,.317,1.427,34.137,34.137,0,0,0,1.019,6.912,11.048,11.048,0,0,0,2.348,4.331,13.838,13.838,0,0,0,4.2,3.015,36.087,36.087,0,0,0,11.172,2.892,7.4,7.4,0,0,0,3.413-3.768,2.124,2.124,0,0,0-2.049-2.929,3.614,3.614,0,0,0-2.9,2.585,14.29,14.29,0,0,0-.382,3.524,4.013,4.013,0,0,1-.753-2.327,4.882,4.882,0,0,1,2.682-4.939,3.452,3.452,0,0,1,3.747.5A116.568,116.568,0,0,0,173.42,391.7c4.521-.945,8.951-2.264,13.365-3.615a3.349,3.349,0,0,1,1.616-.24c.168.4-.406.621-.664.825a41.462,41.462,0,0,1-8.412,3.137,80.753,80.753,0,0,1-29.7,2.561,5.921,5.921,0,0,0,.808,1.092,5.068,5.068,0,0,1-.995,3.955,8.479,8.479,0,0,1-2.188,2.007,91.7,91.7,0,0,0,14.592.147c6.325-.453,12.835-.727,18.763-3.214a48.219,48.219,0,0,0,7.023-3.761,6.289,6.289,0,0,1-.086-3.406,7.208,7.208,0,0,1,.894-2.885,6.154,6.154,0,0,1,.5,2.945,10.334,10.334,0,0,1-.369,3.061c-.132.384-.628.249-.9.466a31.683,31.683,0,0,1-8.3,4.917,40.66,40.66,0,0,1-9.795,2.377c-7.836.95-15.784,1.593-23.659.707a38.4,38.4,0,0,1-12.179-3.118,13.116,13.116,0,0,1-6.176-5.493C125.833,390.93,125.624,387.132,125.9,383.549Z" transform="translate(-107.329 -318.597)"/>
      </g>
      <g id="_ffcb05ff" data-name="#ffcb05ff" transform="translate(23.821 18.772)">
        <path id="Path_107651" data-name="Path 107651" d="M74.96,65.192a14.129,14.129,0,0,1,8.538-.4,13.917,13.917,0,0,1,7.529,5.627,11.408,11.408,0,0,1,1.005,10.939c-.955,1.082-2.221,1.825-3.2,2.881a12.5,12.5,0,0,1-2.674,2.672,10.988,10.988,0,0,1-9.705-.674,16.355,16.355,0,0,1-5.217-7.488,16.692,16.692,0,0,1-1.358-5.955c.06-1.027.35-2.027.413-3.056A8.351,8.351,0,0,1,74.96,65.192Z" transform="translate(-66.716 -64.327)" fill="#ffec00"/>
        <path id="Path_107652" data-name="Path 107652" d="M67.772,225.312c.022.173.041.346.057.523-.674,4.531-1.3,9.076-2.182,13.573a131.147,131.147,0,0,1-5.281,19.9,7.412,7.412,0,0,1-.47-1.494q-.913-3.424-1.821-6.852a15.38,15.38,0,0,1-6.625,3.073,143.1,143.1,0,0,0,6.56-18.2c.4-1.249.609-2.545.911-3.819.264-.907.566-1.8.863-2.7a1.2,1.2,0,0,1,1.177-.952,8.446,8.446,0,0,0,3.147-.557,5.011,5.011,0,0,0,3.655-2.574Z" transform="translate(-51.45 -197.634)" fill="#34ff97"/>
        <path id="Path_107653" data-name="Path 107653" d="M152.89,236.15a5.234,5.234,0,0,1,3.207-.554c2.091,5.617,4.634,11.054,6.987,16.562-1.983-1.559-3.933-3.157-5.929-4.7a22.79,22.79,0,0,1-2.027,9.188q-1.165-9.266-2.835-18.457C152.213,237.488,152.209,236.571,152.89,236.15Z" transform="translate(-134.968 -206.19)" fill="#34ff97"/>
      </g>
    </g>
  </g>
</svg>
