<svg xmlns="http://www.w3.org/2000/svg" width="47.819" height="42.439" viewBox="0 0 47.819 42.439">
  <path id="t3" d="M73.715,65.228c2.474-.47,20.042,8.988,20.042,8.988s13.785,7.115,26.411,14.815c-4.735,3.758-10.754,5-16.113,7.524-7.465,3.487-15.21,6.32-22.668,9.8-1.7.8-3.582,1.586-5.505,1.189-1.255-.551-1.637-2.041-1.916-3.252-.059-.426-.169-1.277-.22-1.7-.1-.529-.279-1.593-.367-2.121-.1-1.233-.169-2.466-.316-3.692-.617-7.208.108-19.458-.655-26.659C72.35,68.443,72.041,66.263,73.715,65.228Z" transform="translate(-72.348 -65.211)" fill="#7e3dfe"/>
</svg>
