<svg xmlns="http://www.w3.org/2000/svg" width="58" height="63.339" viewBox="0 0 58 63.339">
  <g id="t4" transform="translate(-825 -812.11)">
    <g id="Group_44147" data-name="Group 44147" transform="translate(825 814.646)">
      <rect id="Rectangle_179" data-name="Rectangle 179" width="42.278" height="42.278" transform="translate(6.736 5.285)" fill="none"/>
      <rect id="Rectangle_5596" data-name="Rectangle 5596" width="58" height="58" transform="translate(0 0.133)" fill="none"/>
      <rect id="Rectangle_179-2" data-name="Rectangle 179" width="31" height="31" transform="translate(15 12.133)" fill="none"/>
      <rect id="Rectangle_179-3" data-name="Rectangle 179" width="31" height="31" transform="translate(15 12.133)" fill="none"/>
    </g>
    <g id="Group_66762" data-name="Group 66762" transform="translate(826.965 817.881) rotate(-7)">
      <g id="Group_66761" data-name="Group 66761" transform="translate(0 0)">
        <path id="Path_109790" data-name="Path 109790" d="M6.832.462,39.465,0C45.71-.022,54.1,13.659,54.1,13.659l-.964,27.606-.981-.034L5.423,40.8C-.823,40.826.033,34.108.046,19.9S.586.483,6.832.462Z" transform="matrix(-0.035, -0.999, 0.999, -0.035, 3.931, 56.865)" fill="#fff"/>
        <path id="Union_346" data-name="Union 346" d="M2.468,55.605a1.278,1.278,0,0,1,.33-.824c-.373-.634-.563-1.875-.652-4.274L.5,18.625c-.02-.594-.025-1.093-.008-1.517-.043-.2-.074-.419-.1-.627a1,1,0,0,1,.332-.908,1.167,1.167,0,0,1,.246-.4C.946,15.149.929,15.124.9,15.1c-1.065-.977-1.339-1.446.01-2.879l9-10.269a1.99,1.99,0,0,1,1.1-.713C11.136.172,12.047.391,13.262.264a2.705,2.705,0,0,1,.911.053A13.838,13.838,0,0,1,17.339,0l23.83.4c.284-.36.685-.294,1.157-.228a4.211,4.211,0,0,0,.644.061,1.109,1.109,0,0,1,.667.218C45.925.589,45.4,1.169,45.4,2.4a2.007,2.007,0,0,1-.249,1.167,32.067,32.067,0,0,1,.682,6l1.015,40.669a34.775,34.775,0,0,1,0,3.6c.774.3.444.84.444,1.684-.01,1.428-.441,1.956-5.51,1.956L6.372,58C1.307,58,2.458,57.044,2.468,55.605ZM43.158,53.54H43.2a32.837,32.837,0,0,1-.419-4.873L40.72,5.124c-.01-.266-.015-.512-.023-.751l-24.469.472.72,9.888a1.916,1.916,0,0,1,.7,1.6c-.01,1.167.307,2.116-1.456,2.136l-10.982.094a20.45,20.45,0,0,1,.345,3.27l.637,29.789c.025.715.03,1.294.018,1.766a25.051,25.051,0,0,1,3.919-.271ZM3.978,14.809l8.841-.449L11.753,7.1Z" transform="translate(0)" fill="#34ff97"/>
        <path id="Path_109801" data-name="Path 109801" d="M3.006.517,22.059,0c2.73,0,2.111.959,2.106,2.391S22.77,4.878,20.04,4.877L2.258,4.46c-2.73,0-2.223-.555-2.217-1.987S.276.517,3.006.517Z" transform="translate(35.694 32.704) rotate(180)" fill="#d4dce3"/>
        <path id="Path_109802" data-name="Path 109802" d="M3.006.517,22.059,0c2.73,0,2.111.959,2.106,2.391S22.77,4.878,20.04,4.877L2.258,4.46c-2.73,0-2.223-.555-2.217-1.987S.276.517,3.006.517Z" transform="translate(35.694 42.551) rotate(180)" fill="#d4dce3"/>
      </g>
    </g>
  </g>
</svg>
