<svg xmlns="http://www.w3.org/2000/svg" width="96" height="96" viewBox="0 0 96 96">
  <g id="t7" transform="translate(-1224 -2064)">
    <rect id="Rectangle_6678" data-name="Rectangle 6678" width="96" height="96" transform="translate(1224 2064)" fill="none"/>
    <g id="Cal" transform="translate(1203.862 2060.902)">
      <g id="_000000ff" data-name="#000000ff" transform="translate(29.97 9.497)">
        <path id="Path_107588" data-name="Path 107588" d="M74.967,10.553a5.776,5.776,0,0,1,5.146-.773,10.635,10.635,0,0,1,6.9,11.288c.616.039,1.234.071,1.85.1a2.1,2.1,0,0,1,2.407-2.427A2.823,2.823,0,0,1,93.488,21.5c1.475.1,2.948.236,4.413.449a2.316,2.316,0,0,1,1.323.486,2.236,2.236,0,0,1-1.281.314c-1.57.044-3.137-.022-4.7-.051-.147.257-.294.515-.444.771a2.2,2.2,0,0,1,.341,1.676,1.3,1.3,0,0,1-2.332-.4A1.4,1.4,0,0,1,92.2,23.165c.017-.17.037-.341.056-.51-1.851-.051-3.7-.132-5.556-.191A8.937,8.937,0,0,1,82.3,27.818a8.135,8.135,0,0,1-8.1-.363,7.93,7.93,0,0,1-3.345-5.438c-2.473-.041-4.945-.095-7.418-.113a9.428,9.428,0,0,1-3.47,6.2,8.178,8.178,0,0,1-7.365,1.387A7.51,7.51,0,0,1,47.978,25.5a10.017,10.017,0,0,1-.874-3.664c-1.021,0-2.042.042-3.06.145A6.4,6.4,0,0,1,43.29,24.1a1.922,1.922,0,0,1,.582,1.173,1.426,1.426,0,0,1-1.878,1.311,1.392,1.392,0,0,1-.587-2.177,1.637,1.637,0,0,1,1.286-.562c.049-.3.1-.6.154-.9.046-.346.292-.972-.208-1.067-2.037-.044-4.078.041-6.115-.064a25.646,25.646,0,0,1-.368,3.833c-.559,3.926-1.148,7.848-1.63,11.784-.982,7.993-1.811,16-2.759,24-.425,3.477-.852,6.955-1.472,10.4a9.979,9.979,0,0,1,6.878-2.1c.059-.535.645-.515,1.045-.611,1.065-.174,2.132-.346,3.2-.523a4.782,4.782,0,0,1,2.351-.039c-.751-4.94-1.362-9.9-2.1-14.844-1.239-8.653-2.631-17.284-4.1-25.9-.263-1.716-.651-3.419-.771-5.154a54.97,54.97,0,0,1,1.637,5.721c.63,2.864,1.215,5.737,1.813,8.607,6.01-.749,12.057-1.17,18.091-1.694,8.827-.694,17.654-1.365,26.492-1.907,4.106-.263,8.214-.513,12.329-.628a13.682,13.682,0,0,1,1.725.037c0-.243.005-.488.012-.731a3.83,3.83,0,0,1,.167.819c.255-.486.051-1.036.025-1.549-.278-2.765-.633-5.529-.66-8.309a6.653,6.653,0,0,1,.494,1.929c1.43,8.375,2.726,16.771,4.187,25.141.8,4.67,1.646,9.333,2.462,14,.263,1.517.535,3.035.709,4.567a2.615,2.615,0,0,1-.047,1.132c-.177.24-.392-.115-.579-.165a177.3,177.3,0,0,1-3.809-18.185c-1-5.949-1.8-11.927-2.52-17.917l-.206.03c-2.446.359-4.913.543-7.375.749-13.99,1.112-28,1.909-42.02,2.594-.657.019-1.311.059-1.965.095-2.5.074-5,.2-7.5.216l.282.292c-.255.2-.083.518-.057.78Q42.886,50.6,44.437,63.065c.449,3.875.947,7.753,1.075,11.654,2.967-.392,5.956-.564,8.938-.795,10.533-.741,21.051-1.656,31.562-2.66,6.4-.586,12.783-1.306,19.185-1.858.11.088.219.176.329.267l-.538.037c-3.659.705-7.348,1.23-11.036,1.764-9.249,1.278-27.865,3.1-37.173,3.833-.182.073-.6-.081-.587.223A87.118,87.118,0,0,1,54.452,87.2a10.47,10.47,0,0,1-.759,2.516.4.4,0,0,1-.753-.074,10.806,10.806,0,0,1,.182-2.945,87.847,87.847,0,0,1,2.568-11.3,98.272,98.272,0,0,1-10.165.108l-.338.305a1.623,1.623,0,0,0-.665-.5c-.311.753-1.132.332-1.624.02A32.769,32.769,0,0,1,37.771,70.7a4.7,4.7,0,0,1-1.141.37,42.426,42.426,0,0,0-4.294.795,16.8,16.8,0,0,1-2.366.562c.667-9.364,1.337-18.736,2.265-28.081A174.4,174.4,0,0,1,35.3,24.174a9.81,9.81,0,0,1,.795-2.42,24.463,24.463,0,0,1,3.548-.38,2,2,0,0,1,1.811-2.449,2.6,2.6,0,0,1,2.521,2.162,30.8,30.8,0,0,0,3.143-.209c.1-.714.177-1.433.324-2.138a38.614,38.614,0,0,1-5.632-1.749c-.959-.358-1.924-.7-2.854-1.124a6.854,6.854,0,0,1-.673,1.851.429.429,0,0,1-.773-.214,7.077,7.077,0,0,1,.223-2.516,1.082,1.082,0,0,1,1.576-.559,62.18,62.18,0,0,1,8.231,3.936,17.424,17.424,0,0,1,3.094-5.473c-.056-.753.628-1.217,1.195-1.561a6.278,6.278,0,0,1,6.008.1,10.689,10.689,0,0,1,4.778,5.24,6.027,6.027,0,0,1,8.96-.481,16.653,16.653,0,0,1,2.687-4.429c-.1-.532.331-.916.707-1.21m1.49.314c-.616.208-1.379.348-1.706.979a16.031,16.031,0,0,0-2.984,7,8.311,8.311,0,0,0,1.956,6.557,6.327,6.327,0,0,0,5.028,1.978,7.142,7.142,0,0,0,5.055-2.614,8.1,8.1,0,0,0,1.76-6.094A9.884,9.884,0,0,0,81.493,11.9a6.146,6.146,0,0,0-5.036-1.036M53.178,11.884c-.754.208-1.684.363-2.083,1.122a15.516,15.516,0,0,0-2.957,7.222,8.11,8.11,0,0,0,1.738,6.066,6.545,6.545,0,0,0,5.772,2.143,7.151,7.151,0,0,0,4.938-3.075A8.169,8.169,0,0,0,61.868,19.2a9.759,9.759,0,0,0-4.39-6.44,5.946,5.946,0,0,0-4.3-.871m9.551,5.055a10.991,10.991,0,0,1,.759,3.173c0,.108.007.322.01.43,2.422.005,4.846-.022,7.269.027l-.024-.089.005.019a11.212,11.212,0,0,1,.511-3.512,20.882,20.882,0,0,1-2.305-.813,6.88,6.88,0,0,0-3.21-.262,11.564,11.564,0,0,0-3.016,1.028m27,4.267c.846.076,1.693.138,2.542.169-.27-.543-.684-1.159-1.36-1.175-.591.012-.884.587-1.181,1.006m-49.152.064c.66-.007,1.318-.049,1.975-.106-.221-.392-.582-.812-1.08-.754-.456.062-.665.522-.895.861M43.02,69.723a9.619,9.619,0,0,1-5.482.123,1.8,1.8,0,0,0,.694.483,13.266,13.266,0,0,1,3.051,1.909A25.957,25.957,0,0,1,44.5,75.084l.194-.311c-.344-1.836-.623-3.684-.871-5.536A3.365,3.365,0,0,1,43.02,69.723Z" transform="translate(-29.97 -9.497)"/>
        <path id="Path_107589" data-name="Path 107589" d="M374.494,35.072a3.606,3.606,0,0,1,2.756.11,2.331,2.331,0,0,1,.888,2.052,5.8,5.8,0,0,1-.231,1.862.424.424,0,0,1-.763.113c-.4-.835-.219-1.823-.564-2.675-.366-.353-.938-.211-1.389-.149-2.415.513-4.54,1.86-6.861,2.64a6.909,6.909,0,0,1,1.693-1.57A14.551,14.551,0,0,1,374.494,35.072Z" transform="translate(-311.224 -30.574)"/>
        <path id="Path_107590" data-name="Path 107590" d="M174.049,64.737a2.112,2.112,0,0,1,1.755.17,2,2,0,0,1,.773,1.642,3.125,3.125,0,0,1-.847,2.405,1.61,1.61,0,0,1-1.835.248,2.693,2.693,0,0,1-.974-3.58,1.88,1.88,0,0,1,1.127-.886m.083,1.774c.143-.066.751.046.542-.287C174.58,65.906,174.2,66.342,174.131,66.511Z" transform="translate(-148.527 -55.324)"/>
        <path id="Path_107591" data-name="Path 107591" d="M299.94,66.065a1.984,1.984,0,0,1,2.495,1.406,1.775,1.775,0,0,1-1.386,2.383,1.725,1.725,0,0,1-1.97-1.5C298.929,67.52,299,66.4,299.94,66.065Z" transform="translate(-253.61 -56.438)"/>
        <path id="Path_107615" data-name="Path 107615" d="M300.27,66.1a2.7,2.7,0,0,1,3.389,1.91c.459,1.339-.332,3.175-1.882,3.237a2.344,2.344,0,0,1-2.676-2.036C298.9,68.076,298.993,66.551,300.27,66.1Z" transform="translate(-238.047 -37.842)" fill="#ffec00"/>
        <path id="Path_107616" data-name="Path 107616" d="M300.372,66.11a2.913,2.913,0,0,1,3.663,2.065c.5,1.447-.359,3.433-2.035,3.5a2.534,2.534,0,0,1-2.892-2.2C298.887,68.247,298.991,66.6,300.372,66.11Z" transform="translate(-265.184 -24.943)" fill="#ffec00"/>
        <path id="Path_107617" data-name="Path 107617" d="M300.391,66.112a2.955,2.955,0,0,1,3.716,2.094c.5,1.468-.365,3.482-2.064,3.55a2.57,2.57,0,0,1-2.934-2.232C298.885,68.279,298.991,66.607,300.391,66.112Z" transform="translate(-248.295 -12.984)" fill="#ffec00"/>
        <path id="Path_107592" data-name="Path 107592" d="M237.135,125.82c.471.115.626.631.91.965.432.608,1.119,1.289,1.936,1.072.724-.3.849-1.168,1.234-1.762a.527.527,0,0,1,.922.1c.373,1.534-.994,3.431-2.667,3.121A3.187,3.187,0,0,1,237.135,125.82Z" transform="translate(-202.16 -106.188)"/>
        <path id="Path_107598" data-name="Path 107598" d="M363.21,386.907c.049-.407-.113-.925.224-1.237a25,25,0,0,1,1.045,4.084,74.916,74.916,0,0,1,1.215,8.121,5.918,5.918,0,0,1-.051,1.867.415.415,0,0,1-.78-.014,12.024,12.024,0,0,1-.7-2.854A79.248,79.248,0,0,1,363.21,386.907Z" transform="translate(-306.968 -322.182)"/>
        <path id="Path_107599" data-name="Path 107599" d="M352.2,465.083a3.355,3.355,0,0,1,3.539-1.33,1.965,1.965,0,0,1,1.289,2.5,3.5,3.5,0,0,1-2.677,1.755,33.76,33.76,0,0,1-5.651.547,2.711,2.711,0,0,1-2.429-1.077,1.443,1.443,0,0,1,.414-2.064,1.169,1.169,0,0,1,1.018-.017c-.076.468-.739.884-.381,1.35a2.011,2.011,0,0,0,1.553.361c1.8-.133,3.6-.23,5.382-.489a2.462,2.462,0,0,0,1.647-.8c.338-.576-.273-1.133-.79-1.284C354.09,464.212,353.17,464.924,352.2,465.083Z" transform="translate(-292.802 -388.096)"/>
        <path id="Path_107600" data-name="Path 107600" d="M177.662,475.683a2.519,2.519,0,0,1,3.011-.187.355.355,0,0,1-.073.618,13.729,13.729,0,0,0-1.624.243c-.305.115-.44.429-.6.69a5.207,5.207,0,0,0,2.208.822,21.963,21.963,0,0,0,5.058.471,2.583,2.583,0,0,0,2.083-.856,1.1,1.1,0,0,0-.732-1.578,2.933,2.933,0,0,0-1.467.285,1.671,1.671,0,0,1,2.381-.646,1.948,1.948,0,0,1,.577,2.682,3.939,3.939,0,0,1-3.014,1.418,17.476,17.476,0,0,1-6.577-.7,2.628,2.628,0,0,1-1.681-1.186A1.813,1.813,0,0,1,177.662,475.683Z" transform="translate(-158.853 -397.259)"/>
        <path id="Path_107610" data-name="Path 107610" d="M14.311.669c11.731-.457,25.15-.7,37.848-.376,4.564.083,5.124.78,1,.923-6.16.195-12.847.168-19.247.243-11.326.055-22.5.3-33.9.226C2.821,1.148,8.9.905,14.311.669Z" transform="matrix(0.999, -0.035, 0.035, 0.999, 12.586, 36.885)"/>
        <path id="Path_107612" data-name="Path 107612" d="M376.7,247.008c7.6-.386,16.287-.612,24.508-.395,2.955.052,3.316.59.644.713-3.989.168-8.319.165-12.464.241-7.334.073-14.57.3-21.953.268A75.781,75.781,0,0,1,376.7,247.008Z" transform="translate(-147.123 461.1) rotate(-98)"/>
        <path id="Path_107613" data-name="Path 107613" d="M376.7,247.008c7.6-.386,16.287-.612,24.508-.395,2.955.052,3.316.59.644.713-3.989.168-8.319.165-12.464.241-7.334.073-14.57.3-21.953.268A75.781,75.781,0,0,1,376.7,247.008Z" transform="translate(-132.343 460.1) rotate(-98)"/>
        <path id="Path_107614" data-name="Path 107614" d="M376.7,247.008c7.6-.386,16.287-.612,24.508-.395,2.955.052,3.316.59.644.713-3.989.168-8.319.165-12.464.241-7.334.073-14.57.3-21.953.268A75.781,75.781,0,0,1,376.7,247.008Z" transform="translate(-163.067 461.662) rotate(-98)"/>
        <path id="Path_107611" data-name="Path 107611" d="M14.308.719C26.033.3,39.446.105,52.14.475c4.563.1,5.125.8,1,.927-6.156.173-12.841.123-19.239.176C22.58,1.593,11.411,1.8.013,1.686,2.825,1.158,8.9.937,14.308.719Z" transform="matrix(0.998, -0.07, 0.07, 0.998, 15.94, 51.267)"/>
      </g>
      <g id="_ffffffff" data-name="#ffffffff" transform="translate(43.445 10.69)">
        <path id="Path_107601" data-name="Path 107601" d="M282.014,16.74a6.146,6.146,0,0,1,5.036,1.036,9.884,9.884,0,0,1,4.073,6.773,8.1,8.1,0,0,1-1.76,6.094,7.142,7.142,0,0,1-5.055,2.614,6.327,6.327,0,0,1-5.028-1.978,8.311,8.311,0,0,1-1.956-6.557,16.031,16.031,0,0,1,2.984-7c.327-.631,1.09-.771,1.706-.979M281.857,25c-.94.332-1.011,1.455-.861,2.29a1.725,1.725,0,0,0,1.97,1.5,1.775,1.775,0,0,0,1.386-2.383A1.984,1.984,0,0,0,281.857,25Z" transform="translate(-249.001 -16.563)" fill="#fff"/>
        <path id="Path_107602" data-name="Path 107602" d="M142.478,23.114a5.946,5.946,0,0,1,4.3.871,9.759,9.759,0,0,1,4.39,6.44,8.169,8.169,0,0,1-1.281,6.167,7.151,7.151,0,0,1-4.938,3.075,6.545,6.545,0,0,1-5.772-2.143,8.11,8.11,0,0,1-1.738-6.066,15.517,15.517,0,0,1,2.957-7.222c.4-.759,1.328-.915,2.083-1.122m2.314,7.026a1.88,1.88,0,0,0-1.127.886,2.693,2.693,0,0,0,.974,3.58,1.609,1.609,0,0,0,1.835-.248,3.125,3.125,0,0,0,.847-2.405,2,2,0,0,0-.773-1.642A2.112,2.112,0,0,0,144.792,30.14Z" transform="translate(-132.745 -21.919)" fill="#fff"/>
        <path id="Path_107603" data-name="Path 107603" d="M181.68,73.811c.068-.169.449-.6.542-.287C182.431,73.857,181.823,73.746,181.68,73.811Z" transform="translate(-169.55 -63.817)" fill="#fff"/>
        <path id="Path_107604" data-name="Path 107604" d="M409.116,104.91a4.965,4.965,0,0,1,.56,1.867,7.458,7.458,0,0,1,.118,2.361.308.308,0,0,1-.535-.23A11.061,11.061,0,0,1,409.116,104.91Z" transform="translate(-358.502 -89.999)" fill="#fff"/>
        <path id="Path_107605" data-name="Path 107605" d="M111.184,138.666a12.368,12.368,0,0,1,7.078.5c.282.064.781.552.206.569-1.077-.135-2.127-.449-3.21-.555a26.715,26.715,0,0,0-5.448,0A3.074,3.074,0,0,1,111.184,138.666Z" transform="translate(-109.81 -117.816)" fill="#fff"/>
      </g>
      <g id="_ffcb05ff" data-name="#ffcb05ff" transform="translate(37.151 20.112)">
        <path id="Path_107606" data-name="Path 107606" d="M228.57,72.39c2.39,0,4.778.024,7.168.022l.088.346.024.089c-2.424-.049-4.847-.022-7.269-.027C228.577,72.712,228.573,72.5,228.57,72.39Z" transform="translate(-202.233 -72.39)" fill="#34ff97"/>
        <path id="Path_107607" data-name="Path 107607" d="M79.413,82.745c1.018-.1,2.039-.143,3.06-.145a10.017,10.017,0,0,0,.874,3.664,7.51,7.51,0,0,0,4.628,3.988,8.178,8.178,0,0,0,7.365-1.387,9.428,9.428,0,0,0,3.47-6.2c2.473.019,4.945.073,7.418.113a7.93,7.93,0,0,0,3.345,5.438,8.135,8.135,0,0,0,8.1.363,8.938,8.938,0,0,0,4.395-5.354c1.853.059,3.7.14,5.556.191-.019.169-.039.339-.056.51a1.4,1.4,0,0,0-1.391,1.581,1.3,1.3,0,0,0,2.332.4,2.2,2.2,0,0,0-.341-1.676c.15-.257.3-.515.444-.771,1.566.029,3.134.095,4.7.051a83.513,83.513,0,0,0,.938,9.326c-.007.243-.012.488-.012.731a13.68,13.68,0,0,0-1.725-.037c-4.115.115-8.223.365-12.329.628-8.839.542-17.666,1.213-26.492,1.907-6.034.525-12.081.945-18.091,1.694-.6-2.871-1.183-5.743-1.813-8.607q-.635-3.238-1.269-6.476a33.375,33.375,0,0,0,5.748.191c-.015.28-.032.56-.054.842-.051.3-.1.6-.154.9a1.637,1.637,0,0,0-1.286.562,1.392,1.392,0,0,0,.587,2.177,1.426,1.426,0,0,0,1.878-1.311,1.922,1.922,0,0,0-.582-1.173,6.4,6.4,0,0,0,.754-2.118m50.015,3.62a11.062,11.062,0,0,0,.143,4,.308.308,0,0,0,.535.23,7.457,7.457,0,0,0-.118-2.361,4.965,4.965,0,0,0-.56-1.867m-29.114,3.529a3.187,3.187,0,0,0,2.334,3.494c1.673.311,3.04-1.586,2.667-3.121a.527.527,0,0,0-.922-.1c-.385.594-.51,1.465-1.234,1.762-.817.218-1.5-.464-1.936-1.072-.284-.334-.439-.851-.91-.965M80.187,92.3a3.073,3.073,0,0,0-1.374.516,26.715,26.715,0,0,1,5.448,0c1.084.106,2.133.42,3.21.555.576-.017.076-.5-.206-.569A12.368,12.368,0,0,0,80.187,92.3Z" transform="translate(-72.52 -80.877)" fill="#34ff97"/>
        <path id="Path_107608" data-name="Path 107608" d="M188.96,152.849c2.462-.206,4.93-.39,7.375-.749.037.243.078.488.118.731-9.856.773-19.718,1.475-29.574,2.231-4.159.277-8.315.705-12.488.657-2.486-.02-4.965-.248-7.451-.275C160.957,154.758,174.97,153.962,188.96,152.849Z" transform="translate(-134.38 -138.647)" fill="#34ff97"/>
      </g>
    </g>
  </g>
</svg>
