<svg xmlns="http://www.w3.org/2000/svg" width="120.152" height="34.751" viewBox="0 0 120.152 34.751">
  <g id="text-logo" transform="translate(-39.708 -51.184)">
    <g id="_ffffffff" data-name="#ffffffff" transform="translate(41.781 53.357)">
      <path id="Path_6078" data-name="Path 6078" d="M99.13,74.319a3.3,3.3,0,0,1,5.9-1.754,3.346,3.346,0,0,1,.672,2.1c0,1.8-.007,3.6.005,5.4a1.118,1.118,0,0,0,1.513,1.036c2.213-.8,4.4-1.66,6.606-2.484a21.73,21.73,0,0,1,3.528-1.159,7.375,7.375,0,0,1,4.993.809,7,7,0,0,1,2.92,3.122,4.32,4.32,0,0,1,.453,1.976c-.006,1.8.006,3.594-.006,5.392a7.138,7.138,0,0,1-6.3,7.024c-.608.059-1.217.041-1.826.044q-9.851,0-19.7,0c-1.024.062-2.049.015-3.074.03q-14.2,0-28.393,0a7.069,7.069,0,0,1-6.64-4.862,6.993,6.993,0,0,1-.363-2.246q-.007-2.2,0-4.4a7.228,7.228,0,0,1,2.2-5.124,8.157,8.157,0,0,1,2.2-1.408,2.532,2.532,0,0,1,1.927-.244,18.358,18.358,0,0,0-.583,3.268,9.334,9.334,0,0,0,9.4,9.519,7.821,7.821,0,0,0,2.466-.322c3.47-1.178,6.952-2.32,10.425-3.491a1.154,1.154,0,0,0-.075-2.155,1.337,1.337,0,0,0-.943.083c-3.155,1.076-6.319,2.131-9.479,3.2a7.686,7.686,0,0,1-3.068.4,7.084,7.084,0,0,1-4.6-2.294,7.227,7.227,0,0,1-.534-8.988,7.492,7.492,0,0,1,4.137-2.768c2.3-.743,4.614-1.47,6.914-2.223a3.133,3.133,0,0,1,2.948.388A3,3,0,0,1,83.8,75.523a2.893,2.893,0,0,1-1.414,1.683c-.786.373-1.61.656-2.406,1a1.122,1.122,0,0,0-.244,1.712,1.19,1.19,0,0,0,1.26.292c2.04-.786,4.089-1.557,6.126-2.352a7.417,7.417,0,0,1,3.16-.606,7.519,7.519,0,0,1,3.921,1.41,6.634,6.634,0,0,1,2.542,3.58c.128.563-.039,1.259.438,1.694a1.129,1.129,0,0,0,1.61,0,1.771,1.771,0,0,0,.335-1.465c-.007-2.717,0-5.436,0-8.153m19.144,9.049c-2.43.913-4.849,1.854-7.274,2.782a1.163,1.163,0,0,0-.625,1.654,1.132,1.132,0,0,0,1.348.494q3.62-1.393,7.243-2.779a1.21,1.21,0,0,0,.791-1.183A1.119,1.119,0,0,0,118.274,83.368Z" transform="translate(-59.41 -71.278)" fill="#fff" stroke="#fff" stroke-width="2"/>
      <path id="Path_6079" data-name="Path 6079" d="M706.8,73.9a3.371,3.371,0,0,1,2.7.467,3.265,3.265,0,0,1,1.427,2.656c.014,1.837,0,3.675.009,5.511a1.126,1.126,0,0,0,.706,1.055,1.334,1.334,0,0,0,1.037-.072c2.061-.773,4.119-1.555,6.18-2.332a16.609,16.609,0,0,1,4.4-1.32,7.14,7.14,0,0,1,7.2,3.928,4.506,4.506,0,0,1,.5,2.022c0,1.8,0,3.6,0,5.4a7.118,7.118,0,0,1-7.15,7.1q-10.673.01-21.346,0a1.134,1.134,0,0,0-1.141.757c-.279.956-.51,1.928-.807,2.88a2.884,2.884,0,0,1-3.46,1.766,2.851,2.851,0,0,1-2.077-2.6,5.311,5.311,0,0,1,.249-1.436,1.177,1.177,0,0,0-1.137-1.369c-1.1-.008-2.192,0-3.287,0a7.076,7.076,0,0,1-7.079-7.1c-.007-1.87,0-3.741,0-5.611a3.031,3.031,0,0,1,1.938-2.841c2.25-.828,4.5-1.656,6.753-2.471a7.036,7.036,0,0,1,5.917.407,7.145,7.145,0,0,1,3.571,4.785,1.465,1.465,0,0,0,.569,1.093,1.237,1.237,0,0,0,1.9-.984c.014-2.934,0-5.868.008-8.8A3.273,3.273,0,0,1,706.8,73.9M694.471,85.9c-1.2.445-2.383.916-3.571,1.379a1.147,1.147,0,0,0-.707,1.29,1.108,1.108,0,0,0,1.488.822c1.193-.468,2.394-.917,3.593-1.367a1.121,1.121,0,0,0,.773-1.228,1.174,1.174,0,0,0-1.576-.9m28.933,0q-3.259,1.26-6.524,2.5a6.924,6.924,0,0,0-.914.381,1.151,1.151,0,0,0-.281,1.641,1.122,1.122,0,0,0,1.236.386c2.437-.935,4.878-1.862,7.311-2.805a1.184,1.184,0,0,0,.669-1.53A1.139,1.139,0,0,0,723.4,85.9Z" transform="translate(-614.999 -73.53)" fill="#fff" stroke="#fff" stroke-width="2"/>
    </g>
    <g id="QalamOnline_4_" data-name="QalamOnline (4)" transform="translate(39.708 51.184)">
      <path id="Path_6069" data-name="Path 6069" d="M-10.8,14.035a1.2,1.2,0,0,0,1.135,1.177,1.166,1.166,0,0,0,1.135-1.177V5.5A3.246,3.246,0,0,1-5.253,2.269,3.246,3.246,0,0,1-1.976,5.5v5.5a1.054,1.054,0,0,0,.5.924,1.231,1.231,0,0,0,1.261.042l8.194-3.11a7.635,7.635,0,0,1,7.228.714c1.3.882,2.773,2.815,2.773,4.5v5.547a7.066,7.066,0,0,1-7.1,7.1H-9.665A1.157,1.157,0,0,0-10.8,27.86a1.157,1.157,0,0,0,1.135,1.135H10.883a9.379,9.379,0,0,0,9.371-9.371V14.077c0-2.479-1.849-5-3.74-6.345a9.74,9.74,0,0,0-9.16-1.008L.293,9.371V5.5A5.533,5.533,0,0,0-5.253,0,5.533,5.533,0,0,0-10.8,5.5v8.53m22.1,2.4a1.152,1.152,0,0,0,.672-1.471,1.113,1.113,0,0,0-1.471-.63L3.277,17.1A1.152,1.152,0,0,0,2.6,18.573a1.113,1.113,0,0,0,1.471.63L11.3,16.43" transform="translate(99.899 0.252)" fill="#08de6f"/>
      <path id="Path_6070" data-name="Path 6070" d="M21.725-29.415l-.462,1.765a4.895,4.895,0,0,1-1.849,2.689,4.928,4.928,0,0,1-3.068,1.051,5.079,5.079,0,0,1-3.614-1.513,5.079,5.079,0,0,1-1.513-3.614v-.378H9.329a9.341,9.341,0,0,1-6.6-2.731A9.366,9.366,0,0,1,0-38.785v-5.589a5.173,5.173,0,0,1,3.362-4.874l6.555-2.479a10.124,10.124,0,0,1,3.53-.672,9.441,9.441,0,0,1,6.639,2.731,9.675,9.675,0,0,1,2.605,5.127v.21A1.157,1.157,0,0,1,21.557-43.2a1.125,1.125,0,0,1-1.093-.966,6.91,6.91,0,0,0-2.017-3.866,6.911,6.911,0,0,0-5-2.1,7.537,7.537,0,0,0-2.731.546l-6.6,2.437a3.014,3.014,0,0,0-1.849,2.773v5.589a7.222,7.222,0,0,0,2.059,5.042,7.2,7.2,0,0,0,5,2.059h3.32a1.035,1.035,0,0,1,.8.378,1.094,1.094,0,0,1,.294,1.008l-.126.5a2.379,2.379,0,0,0-.126.756,2.857,2.857,0,0,0,.84,2.017,2.857,2.857,0,0,0,2.017.84,2.846,2.846,0,0,0,1.723-.588,2.824,2.824,0,0,0,1.008-1.471l.714-2.605a1.133,1.133,0,0,1,1.093-.84h.672a1.13,1.13,0,0,1,1.135,1.135,1.051,1.051,0,0,1-.966,1.135m-8.7-14.665a1.132,1.132,0,0,1,1.471.63,1.1,1.1,0,0,1-.63,1.471l-3.614,1.387a1.1,1.1,0,0,1-1.471-.63,1.169,1.169,0,0,1,.63-1.471l3.614-1.387" transform="translate(68.509 58.661)" fill="#08de6f"/>
      <path id="Path_6071" data-name="Path 6071" d="M-10.8,14.035a1.2,1.2,0,0,0,1.135,1.177,1.166,1.166,0,0,0,1.135-1.177V5.5A3.246,3.246,0,0,1-5.253,2.269,3.246,3.246,0,0,1-1.976,5.5v5.5a1.054,1.054,0,0,0,.5.924,1.231,1.231,0,0,0,1.261.042l8.194-3.11a7.635,7.635,0,0,1,7.228.714c1.3.882,2.773,2.815,2.773,4.5v5.547a7.066,7.066,0,0,1-7.1,7.1H-9.665A1.157,1.157,0,0,0-10.8,27.86a1.157,1.157,0,0,0,1.135,1.135H10.883a9.379,9.379,0,0,0,9.371-9.371V14.077c0-2.479-1.849-5-3.74-6.345a9.74,9.74,0,0,0-9.16-1.008L.293,9.371V5.5A5.533,5.533,0,0,0-5.253,0,5.533,5.533,0,0,0-10.8,5.5v8.53m22.1,2.4a1.152,1.152,0,0,0,.672-1.471,1.113,1.113,0,0,0-1.471-.63L3.277,17.1A1.152,1.152,0,0,0,2.6,18.573a1.113,1.113,0,0,0,1.471.63L11.3,16.43" transform="translate(50.403 0)" fill="#08de6f"/>
      <path id="Path_6072" data-name="Path 6072" d="M60.737,28.423a1.114,1.114,0,1,0,0-2.227H29.371a7.053,7.053,0,0,1-5.042-2.1,6.878,6.878,0,0,1-1.723-2.857,6.664,6.664,0,0,1-.336-2.227V14.85a7.054,7.054,0,0,1,.294-2.1,7.3,7.3,0,0,1,1.765-3.025,7.417,7.417,0,0,1,2.983-1.765c.966-.294,1.278.039,1.278.039A17.047,17.047,0,0,0,28,11.34a9.379,9.379,0,0,0,13.068,8.614l9.126-3.045a1.143,1.143,0,1,0-.8-2.143l-9.126,3.087a7.769,7.769,0,0,1-2.9.588,7.1,7.1,0,0,1-2.4-13.783L42.584,2.2a3.127,3.127,0,0,1,2.143-.042A2.922,2.922,0,0,1,46.45,3.673a3.027,3.027,0,0,1-.21,2.983,2.767,2.767,0,0,1-1.471,1.135l-1.807.714a1.1,1.1,0,0,0-.63,1.471,1.169,1.169,0,0,0,1.471.63l6.345-2.437a6.993,6.993,0,0,1,3.824-.42,7.555,7.555,0,0,1,2.857,1.219A7.087,7.087,0,0,1,58.8,11.027a4.693,4.693,0,0,1,.8,2.479,1.135,1.135,0,0,0,2.269,0,6.341,6.341,0,0,0-.966-3.32,9.242,9.242,0,0,0-2.773-3.068,9.091,9.091,0,0,0-8.824-1.051l-.462.168a5.3,5.3,0,0,0-.126-3.025A5.274,5.274,0,0,0,41.828.1L34.172,2.516C30.565,3.953,29.827,5.48,29.827,5.48s-.449-.307-2.15,0a9.442,9.442,0,0,0-4.945,2.647,9.283,9.283,0,0,0-2.4,4.118A9.053,9.053,0,0,0,20,14.85v4.16a10,10,0,0,0,.294,2.479,9.556,9.556,0,0,0,2.437,4.244,9.285,9.285,0,0,0,6.093,2.689,3.614,3.614,0,0,0,.672.042l29.876-.04,1.365,0" transform="translate(-20 0.571)" fill="#08de6f"/>
    </g>
  </g>
</svg>
