<svg id="tick" xmlns="http://www.w3.org/2000/svg" width="24" height="24" viewBox="0 0 24 24">
  <g id="Group_44147" data-name="Group 44147">
    <rect id="Rectangle_179" data-name="Rectangle 179" width="17.091" height="17.091" transform="translate(2.723 1.636)" fill="none"/>
    <rect id="Rectangle_5596" data-name="Rectangle 5596" width="24" height="24" fill="none"/>
    <rect id="Rectangle_179-2" data-name="Rectangle 179" width="13" height="13" transform="translate(6 4.4)" fill="none"/>
    <rect id="Rectangle_179-3" data-name="Rectangle 179" width="13" height="13" transform="translate(6 4.4)" fill="none"/>
  </g>
  <g id="Group_44154" data-name="Group 44154" transform="translate(5.059 4.854)">
    <path id="Union_96" data-name="Union 96" d="M4.572,12,.165,7.3C-.4,6.7.581,5.676,1.459,4.741s1.841-1.034,2.4-.435L5,5.269,9.036.394c.94-.991,1.547.055,2.773,1.287s1.651,2.642.712,3.636L7.671,9.891a7.58,7.58,0,0,1-.691.746c-.842.8-1.5,1.555-2.012,1.555A.529.529,0,0,1,4.572,12Z" transform="translate(0.35 1.051)" opacity="0.3"/>
    <path id="Union_95" data-name="Union 95" d="M4.572,12,.165,7.3C-.4,6.7.581,5.676,1.459,4.741s1.841-1.034,2.4-.435L5,5.269,9.036.394c.94-.991,1.547.055,2.773,1.287s1.651,2.642.712,3.636L7.671,9.891a7.58,7.58,0,0,1-.691.746c-.842.8-1.5,1.555-2.012,1.555A.529.529,0,0,1,4.572,12Z" transform="translate(0 0)" fill="#fff"/>
    <path id="Union_94" data-name="Union 94" d="M3.272,8.244.148,4.934c-.4-.422.086-.93.519-1.4a.9.9,0,0,1,1.4,0l1.662,1.5L7.843.375c.742-.775.984-.2,1.594.394a1.448,1.448,0,0,1-.059,2.2L4.934,7.291a2.652,2.652,0,0,1-.355.393c-.4.365-.7.721-.989.721A.435.435,0,0,1,3.272,8.244Z" transform="translate(1.425 1.68)" fill="#7200ff"/>
  </g>
</svg>
