<svg xmlns="http://www.w3.org/2000/svg" width="24" height="24" viewBox="0 0 24 24">
  <g id="Twitter" transform="translate(0.018)">
    <g id="Twitter-2" data-name="Twitter" transform="translate(0)">
      <rect id="Rectangle_1457" data-name="Rectangle 1457" width="24" height="24" transform="translate(-0.018)" fill="none"/>
      <path id="Path_2" data-name="Path 2" d="M45.32,20.75A13.365,13.365,0,0,0,58.805,7.266V6.623a10.439,10.439,0,0,0,2.312-2.44,10.661,10.661,0,0,1-2.7.771,5,5,0,0,0,2.055-2.569,11.78,11.78,0,0,1-2.954,1.156A4.587,4.587,0,0,0,54.053,2,4.825,4.825,0,0,0,49.3,6.752a2.5,2.5,0,0,0,.128,1.027,13.278,13.278,0,0,1-9.76-5.009,4.918,4.918,0,0,0-.642,2.44,5.1,5.1,0,0,0,2.055,3.981A4.33,4.33,0,0,1,38.9,8.55h0a4.694,4.694,0,0,0,3.853,4.623,3.959,3.959,0,0,1-1.284.128,2.186,2.186,0,0,1-.9-.128,4.865,4.865,0,0,0,4.495,3.339,9.7,9.7,0,0,1-5.908,2.055A3.556,3.556,0,0,1,38,18.439a12.122,12.122,0,0,0,7.32,2.312" transform="translate(-37.872 0.89)" fill="#27a9d5" fill-rule="evenodd"/>
    </g>
  </g>
</svg>
