<svg xmlns="http://www.w3.org/2000/svg" width="80.062" height="15.111" viewBox="0 0 80.062 15.111">
  <g id="white-dot" transform="translate(-58.985 -737.837)">
    <path id="Path_99343" data-name="Path 99343" d="M575.849,151.762a1.653,1.653,0,0,0-1.414-1.566,1.87,1.87,0,0,0-1.714,1.68,1.41,1.41,0,0,0,1.38,1.525A1.764,1.764,0,0,0,575.849,151.762Z" transform="translate(-485.482 577.711) rotate(2)" fill="#fff"/>
    <path id="Path_99350" data-name="Path 99350" d="M575.849,151.762a1.653,1.653,0,0,0-1.414-1.566,1.87,1.87,0,0,0-1.714,1.68,1.41,1.41,0,0,0,1.38,1.525A1.764,1.764,0,0,0,575.849,151.762Z" transform="translate(-431.213 568.418) rotate(2)" fill="#fff"/>
    <path id="Path_99344" data-name="Path 99344" d="M599.2,133.931a4.23,4.23,0,0,0,1.128-.621,1.085,1.085,0,0,0,.48-1.131,1.2,1.2,0,0,0-1.263-.808,2.059,2.059,0,0,0-1.445.643,1.208,1.208,0,0,0-.291,1.48A1.019,1.019,0,0,0,599.2,133.931Z" transform="translate(-496.854 585.688) rotate(2)" fill="#fff"/>
    <path id="Path_99345" data-name="Path 99345" d="M637.742,133.965c.7-.019,1.213-.634,1.334-1.574a4.392,4.392,0,0,0,0-.444,2.1,2.1,0,0,0-.455-.688.966.966,0,0,0-1.2.057,1.638,1.638,0,0,0-.685,1.975A1,1,0,0,0,637.742,133.965Z" transform="translate(-514.168 585.213) rotate(2)" fill="#fff"/>
    <path id="Path_99346" data-name="Path 99346" d="M534.113,158.007a1.313,1.313,0,0,0,.471-1.47,1.587,1.587,0,0,0-1.371-1.253c-.468.073-.918.3-.942.768a5.237,5.237,0,0,0,.266,1.614A.925.925,0,0,0,534.113,158.007Z" transform="translate(-467.434 576.078) rotate(2)" fill="#fff"/>
    <path id="Path_99347" data-name="Path 99347" d="M657.8,152.578c.749-.336.706-1.053.681-1.7a1.6,1.6,0,0,0-.377-.871.557.557,0,0,0-.849-.059,2.34,2.34,0,0,0-.352.747C656.8,151.853,657.295,152.805,657.8,152.578Z" transform="translate(-522.881 576.59) rotate(2)" fill="#fff"/>
    <path id="Path_99348" data-name="Path 99348" d="M620.735,151.065a1.079,1.079,0,0,0-1.109-1,1.539,1.539,0,0,0-1.3,1.567,1.1,1.1,0,0,0,1.081.983A1.452,1.452,0,0,0,620.735,151.065Z" transform="translate(-505.744 577.061) rotate(2)" fill="#fff"/>
    <path id="Path_99349" data-name="Path 99349" d="M554.316,135.634c.344-.024.534-.337.57-.712a2.076,2.076,0,0,0-.7-1.418.745.745,0,0,0-.592-.118.755.755,0,0,0-.445.421,1.614,1.614,0,0,0,.324,1.543A1.12,1.12,0,0,0,554.316,135.634Z" transform="translate(-477.014 585.492) rotate(2)" fill="#fff"/>
  </g>
</svg>
