<svg xmlns="http://www.w3.org/2000/svg" width="259.655" height="104" viewBox="0 0 259.655 104">
  <g id="yellow1-sm" transform="translate(0 0)">
    <path id="Path_100449" data-name="Path 100449" d="M1.64,96.2c1.81,9.683,35.153,6.66,51.3,6.976,58.424,1.143,131.1,1.853,188.91-3.2,6.221-.544,11.593-.48,14.848-2.695,3.124-2.126,3.126-31.223,2.831-42.768s-1.664-45.016-1.664-45.016-.991-4.137-4.106-5.2c-2.126-.723-12.852-2.511-47.8-3.348S173.232-.09,112.626.033,13.751-.109,5.312,2.549C2.952,3.292-.356,6.1.031,21.449S.311,89.09,1.64,96.2Z" fill="#ffec00"/>
    <path id="Path_99970" data-name="Path 99970" d="M.979,86.614C2.734,95.54,3.471,95.8,19.131,96.088c56.65,1.054,161.217,1.194,217.27-3.468,6.032-.5,11.241-.442,14.4-2.484.972-4.315,1.078-28.914.792-39.557s-1.205-43.467-1.205-43.467-.961-3.814-3.981-4.79c-2.062-.667-14.139-1.18-48.024-1.952s-30.427-.114-89.193,0S13.237.837,5.054,3.287C2.766,3.971-.344,5.964.031,20.112S-.31,80.059.979,86.614Z" transform="translate(3 3.387)" fill="#fff"/>
  </g>
</svg>
