<svg xmlns="http://www.w3.org/2000/svg" width="235.655" height="57.613" viewBox="0 0 235.655 57.613">
  <g id="yellow2-sm" transform="translate(0 0)">
    <path id="Path_100449" data-name="Path 100449" d="M1.489,53.293c1.643,5.364,31.9,3.689,46.562,3.865,53.024.633,118.984,1.026,171.449-1.775,5.646-.3,10.521-.266,13.475-1.493,2.835-1.178,2.837-17.3,2.569-23.692s-1.51-24.938-1.51-24.938a5.178,5.178,0,0,0-3.727-2.879c-1.93-.4-11.664-1.391-43.38-1.854S157.22-.05,102.216.018,12.48-.06,4.821,1.412C2.68,1.824-.323,3.38.028,11.882S.283,49.354,1.489,53.293Z" fill="#ffec00"/>
    <path id="Path_99970" data-name="Path 99970" d="M.885,45.062c1.588,4.644,2.254,4.778,16.422,4.929,51.249.548,145.847.621,196.555-1.8,5.457-.261,10.169-.23,13.024-1.292.879-2.245.976-15.043.717-20.58S226.513,3.7,226.513,3.7a4.871,4.871,0,0,0-3.6-2.492C221.046.861,210.12.594,179.465.192s-27.526-.059-80.69,0-86.8.243-94.2,1.518C2.5,2.066-.311,3.1.028,10.464S-.28,41.652.885,45.062Z" transform="translate(3 3.387)" fill="#fff"/>
  </g>
</svg>
