<svg xmlns="http://www.w3.org/2000/svg" width="32" height="32" viewBox="0 0 32 32">
  <g id="calendar-3" transform="translate(-296 -248)">
    <path id="Vector" d="M0,0H32V32H0Z" transform="translate(296 248)" fill="none" opacity="0"/>
    <path id="Vector-2" data-name="Vector" d="M0,0V3.9" transform="translate(306.5 251)" fill="none" stroke="#efeee8" stroke-linecap="round" stroke-linejoin="round" stroke-width="1.2"/>
    <path id="Vector-3" data-name="Vector" d="M0,0V3.9" transform="translate(316.9 251)" fill="none" stroke="#efeee8" stroke-linecap="round" stroke-linejoin="round" stroke-width="1.2"/>
    <path id="Vector-4" data-name="Vector" d="M0,0H22.1" transform="translate(300.65 260.217)" fill="none" stroke="#efeee8" stroke-linecap="round" stroke-linejoin="round" stroke-width="1.2"/>
    <path id="Vector-5" data-name="Vector" d="M23.4,6.5V17.55c0,3.9-1.95,6.5-6.5,6.5H6.5c-4.55,0-6.5-2.6-6.5-6.5V6.5C0,2.6,1.95,0,6.5,0H16.9C21.45,0,23.4,2.6,23.4,6.5Z" transform="translate(300 252.95)" fill="none" stroke="#efeee8" stroke-linecap="round" stroke-linejoin="round" stroke-width="1.2"/>
    <g id="Group" transform="translate(184.445 -3.197)">
      <path id="Vector-6" data-name="Vector" d="M5.193.737.642,5.288a1.584,1.584,0,0,0-.386.759L.012,7.782a.816.816,0,0,0,.977.977l1.736-.244a1.529,1.529,0,0,0,.759-.386L8.034,3.578a1.755,1.755,0,0,0,0-2.854A1.749,1.749,0,0,0,5.193.737Z" transform="translate(123.171 267.197)" fill="none" stroke="#efeee8" stroke-linecap="round" stroke-linejoin="round" stroke-width="1.2"/>
      <path id="Vector-7" data-name="Vector" d="M0,0A4.1,4.1,0,0,0,2.854,2.854" transform="translate(127.708 268.589)" fill="none" stroke="#efeee8" stroke-linecap="round" stroke-linejoin="round" stroke-width="1.2"/>
    </g>
  </g>
</svg>
