<svg xmlns="http://www.w3.org/2000/svg" width="32" height="32" viewBox="0 0 32 32">
  <g id="calendar" transform="translate(-296 -248)">
    <g id="Group_9605" data-name="Group 9605" transform="translate(-2.699 -3)">
      <path id="Vector" d="M0,0V3.9" transform="translate(309.499 254)" fill="none" stroke="#fff" stroke-linecap="round" stroke-linejoin="round" stroke-width="1.2"/>
      <path id="Vector-2" data-name="Vector" d="M0,0V3.9" transform="translate(319.898 254)" fill="none" stroke="#fff" stroke-linecap="round" stroke-linejoin="round" stroke-width="1.2"/>
      <path id="Vector-3" data-name="Vector" d="M16.9,0c4.329.234,6.5,1.885,6.5,7.994v8.033c0,5.355-1.3,8.033-7.8,8.033H7.8c-6.5,0-7.8-2.678-7.8-8.033V7.994C0,1.885,2.171.247,6.5,0Z" transform="translate(303 255.95)" fill="none" stroke="#fff" stroke-linecap="round" stroke-linejoin="round" stroke-width="1.2"/>
      <path id="Vector-4" data-name="Vector" d="M22.747,0H0" transform="translate(303.325 275.277)" fill="none" stroke="#fff" stroke-linecap="round" stroke-linejoin="round" stroke-width="1.2"/>
    </g>
    <path id="Vector-5" data-name="Vector" d="M0,0H32V32H0Z" transform="translate(296 248)" fill="none" opacity="0"/>
    <text id="_۷" data-name="۷" transform="translate(312 268)" fill="#fff" font-size="12" font-family="IRANYekan-Medium, IRANYekan" font-weight="500" opacity="0.7"><tspan x="-3.799" y="0">۷</tspan></text>
  </g>
</svg>
