<svg xmlns="http://www.w3.org/2000/svg" width="32" height="32" viewBox="0 0 32 32">
  <g id="calendar-2" transform="translate(-296 -248)">
    <path id="Vector" d="M0,0H32V32H0Z" transform="translate(296 248)" fill="none" opacity="0"/>
    <path id="Vector-2" data-name="Vector" d="M0,0V3.9" transform="translate(306.5 251)" fill="none" stroke="#fff" stroke-linecap="round" stroke-linejoin="round" stroke-width="1.2"/>
    <path id="Vector-3" data-name="Vector" d="M0,0V3.9" transform="translate(316.9 251)" fill="none" stroke="#fff" stroke-linecap="round" stroke-linejoin="round" stroke-width="1.2"/>
    <path id="Vector-4" data-name="Vector" d="M0,0H22.1" transform="translate(300.65 260.217)" fill="none" stroke="#fff" stroke-linecap="round" stroke-linejoin="round" stroke-width="1.2"/>
    <path id="Vector-5" data-name="Vector" d="M23.4,6.5V17.55c0,3.9-1.95,6.5-6.5,6.5H6.5c-4.55,0-6.5-2.6-6.5-6.5V6.5C0,2.6,1.95,0,6.5,0H16.9C21.45,0,23.4,2.6,23.4,6.5Z" transform="translate(300 252.95)" fill="none" stroke="#fff" stroke-linecap="round" stroke-linejoin="round" stroke-width="1.2"/>
    <path id="Vector-6" data-name="Vector" d="M.495.5H.506" transform="translate(316.009 265.71)" fill="none" stroke="#fff" stroke-linecap="round" stroke-linejoin="round" stroke-width="1.2"/>
    <path id="Vector-7" data-name="Vector" d="M.495.5H.506" transform="translate(316.009 269.61)" fill="none" stroke="#fff" stroke-linecap="round" stroke-linejoin="round" stroke-width="1.2"/>
    <path id="Vector-8" data-name="Vector" d="M.495.5H.506" transform="translate(311.2 265.71)" fill="none" stroke="#fff" stroke-linecap="round" stroke-linejoin="round" stroke-width="1.2"/>
    <path id="Vector-9" data-name="Vector" d="M.495.5H.506" transform="translate(311.2 269.61)" fill="none" stroke="#fff" stroke-linecap="round" stroke-linejoin="round" stroke-width="1.2"/>
    <path id="Vector-10" data-name="Vector" d="M.495.5H.506" transform="translate(306.388 265.71)" fill="none" stroke="#fff" stroke-linecap="round" stroke-linejoin="round" stroke-width="1.2"/>
    <path id="Vector-11" data-name="Vector" d="M.495.5H.506" transform="translate(306.388 269.61)" fill="none" stroke="#fff" stroke-linecap="round" stroke-linejoin="round" stroke-width="1.2"/>
  </g>
</svg>
