<svg id="co-10" xmlns="http://www.w3.org/2000/svg" xmlns:xlink="http://www.w3.org/1999/xlink" width="118.298" height="54.624" viewBox="0 0 118.298 54.624">
  <defs>
    <linearGradient id="linear-gradient" x1="0.5" x2="0.5" y2="1" gradientUnits="objectBoundingBox">
      <stop offset="0" stop-color="#1ec8c4"/>
      <stop offset="1" stop-color="#00296b"/>
    </linearGradient>
  </defs>
  <path id="Path_13968" data-name="Path 13968" d="M36.408,24.715A19.581,19.581,0,0,1,37.7,22.06c-.018.814-.265,1.6-.246,2.42.02,1.619.1,3.238.029,4.858a25.937,25.937,0,0,1-5.871,16.237A15.286,15.286,0,0,1,23,50.952a8.5,8.5,0,0,1-5.588-.6A6.981,6.981,0,0,1,14.234,45.3a17.078,17.078,0,0,1,1.694-9.875c.719-1.59,1.655-3.068,2.489-4.6.126-.206.232-.511.522-.507-.573,1.825-1.648,3.442-2.225,5.269a10.67,10.67,0,0,0-.279,6.787,5.44,5.44,0,0,0,3.143,3.241A10.893,10.893,0,0,0,28.19,44.8a13.755,13.755,0,0,0,7.123-9.222,14.45,14.45,0,0,0,.449-4.453,25.938,25.938,0,0,1-.139-4.245A7.062,7.062,0,0,1,36.408,24.715Z" transform="translate(-14.051 -22.06)" fill="url(#linear-gradient)"/>
  <path id="Path_13969" data-name="Path 13969" d="M56.473,65.04A9.228,9.228,0,0,1,59.7,67.23a1.615,1.615,0,0,1,.08,1.918,5.9,5.9,0,0,1-2.367,2.772,12.39,12.39,0,0,0-3.778-2.639C54.555,67.852,55.557,66.476,56.473,65.04Z" transform="translate(-44.875 -55.532)" fill="url(#linear-gradient)"/>
  <path id="Path_13970" data-name="Path 13970" d="M445.743,67.67c1.166.5,2.681,1.225,2.694,2.692a6.046,6.046,0,0,1-2.276,3.427,7.756,7.756,0,0,0-3.491-2.161C443.677,70.294,444.705,68.98,445.743,67.67Z" transform="translate(-347.856 -57.581)" fill="url(#linear-gradient)"/>
  <path id="Path_13971" data-name="Path 13971" d="M127.285,94.52a1.969,1.969,0,0,1,.219,1.411c-.367,3.243-.81,6.479-1.04,9.735a21.448,21.448,0,0,0,.184,5.559,3.31,3.31,0,0,0,2.343,2.515,6.912,6.912,0,0,0,4.849-.852c-.283-1.579-2.148-1.834-3.466-1.869,1.062-2.781,4.564-3.929,7.245-2.986a2.108,2.108,0,0,1,1.438,1.863,4.8,4.8,0,0,1-1.349,2.909,5.177,5.177,0,0,0,4.245-2.562c1.031-1.186,1.544-3.081,3.238-3.488a11.2,11.2,0,0,1,1.584-2.893c.549,1.195,1.779,1.931,2.225,3.172.232,1.506-.761,2.887-1.765,3.9-.721.606-1.584-.146-2.345-.254-1.23-.259-2.208.71-2.977,1.522-1.155,1.126-2.15,2.564-3.756,3.068a3.094,3.094,0,0,1-3.017-.863c-1.3,1.7-2.732,3.493-4.811,4.236a4.041,4.041,0,0,1-4.048-.52,6.826,6.826,0,0,1-1.8-4.716,63.046,63.046,0,0,1,.648-11.01,12.163,12.163,0,0,1,.664-3.482A38.424,38.424,0,0,0,127.285,94.52Z" transform="translate(-100.002 -78.491)" fill="url(#linear-gradient)"/>
  <path id="Path_13972" data-name="Path 13972" d="M419.633,95.865c.146-.4.091-.945.526-1.175a4.856,4.856,0,0,1,.058,1.387c-.46,4.048-1.04,8.094-1.124,12.175-.033,1.639.013,3.5,1.188,4.778a3.858,3.858,0,0,0,4.528.436c.8-.4,1.276-1.245,2.068-1.655.9-.487,1.787.6,2.694.1,1.307-.739,1.7-2.329,2.427-3.542.276-.451.586-1.152,1.214-1.088a11.6,11.6,0,0,0,2.394,1.414,42.978,42.978,0,0,1,4.139-5.444,13.749,13.749,0,0,1,3.84-3.216,1.843,1.843,0,0,1,2.267.279,4.03,4.03,0,0,1,.243,2.942,15.46,15.46,0,0,1-5.782,8.311c-1.728,1.254-3.9,2.334-6.085,1.86a2.974,2.974,0,0,1-2.082-2.2c-1.181,1.241-1.785,3.017-3.267,3.975-.812.431-1.672-.088-2.513-.069-1.119.192-1.571,1.365-2.265,2.115A3.874,3.874,0,0,1,420.4,119c-1.781-.237-2.63-2.141-2.969-3.7-.779-4.539.082-9.129.5-13.66.062-2.055,1.254-3.814,1.7-5.778m19.849,8.879a22.144,22.144,0,0,0-3.227,4.046,8.126,8.126,0,0,0,3.391-.237,9.761,9.761,0,0,0,5.021-4.1,2.454,2.454,0,0,0-1.686-1.219C441.626,103.01,440.427,103.881,439.482,104.744Z" transform="translate(-327.956 -78.624)" fill="url(#linear-gradient)"/>
  <path id="Path_13973" data-name="Path 13973" d="M313.975,118.829a2.889,2.889,0,0,1,2.1-.418,2.557,2.557,0,0,1-.073,2.25c-.2.376-.692.316-1.04.414-1.416.2-2.385,1.349-3.336,2.3a14.19,14.19,0,0,1-4.07,3.194,4.46,4.46,0,0,1-4.207-.208c-.312-.161-.639-.54-1.022-.336a10.961,10.961,0,0,0-4.382,3.117,19.383,19.383,0,0,0-3.829,6.57,8.864,8.864,0,0,0,.212,6.579,7.071,7.071,0,0,0,3.792,3.477,11.324,11.324,0,0,0,7.433.093,19.254,19.254,0,0,0,9.215-6.981c.8-.96,1.192-2.254,2.206-3.028a19.548,19.548,0,0,1-4.356,8.855c-2.778,3.241-6.424,5.951-10.68,6.789a10.061,10.061,0,0,1-6.84-.967,7.661,7.661,0,0,1-3.559-5.667,20.174,20.174,0,0,1,2.174-11.74,22.937,22.937,0,0,1,7.645-8.762,4.246,4.246,0,0,0-2.117-1.467,5.01,5.01,0,0,0-1.52.053,5.7,5.7,0,0,1,5.959-3.577,3.188,3.188,0,0,1,2.6,1.4c.628,1.265-.234,2.586-1.037,3.533a4.453,4.453,0,0,0,3.776-.666C311.069,122.475,312.055,120.147,313.975,118.829Z" transform="translate(-230.018 -97.064)" fill="url(#linear-gradient)"/>
  <path id="Path_13974" data-name="Path 13974" d="M81.089,139.43a5.346,5.346,0,0,1,3.077,3.387c.726,2.745-.257,5.636-1.675,7.99-.471.628-.841,1.546-1.712,1.666-1.442.175-2.652,1.04-4,1.5a7.573,7.573,0,0,1,2.11-2.006,14.4,14.4,0,0,0,3.475-3.522c-.069-2.121-1.951-3.555-3.7-4.409A46.587,46.587,0,0,1,81.089,139.43Z" transform="translate(-62.904 -113.467)" fill="url(#linear-gradient)"/>
  <path id="Path_13975" data-name="Path 13975" d="M249.324,140.316a2.054,2.054,0,0,1,2.743,1.088,8.752,8.752,0,0,1-.137,6.442c-.555,1.743-1.274,3.7-2.913,4.694a14.415,14.415,0,0,0-5.517,1.967,3.89,3.89,0,0,1,1.632-1.852,24.169,24.169,0,0,0,4.917-3.725,4.819,4.819,0,0,0,.644-1.108,4.988,4.988,0,0,1-3.106.038,2.367,2.367,0,0,1-1.38-2.261c.414-1.024,1.055-1.938,1.493-2.951C248.125,141.809,248.387,140.737,249.324,140.316Z" transform="translate(-192.744 -113.999)" fill="url(#linear-gradient)"/>
  <path id="Path_13976" data-name="Path 13976" d="M340.521,185.92c.94-1.146,1.854-2.312,2.765-3.48a4.419,4.419,0,0,1,2.449,1.759,2.128,2.128,0,0,1-.341,2.128,4,4,0,0,1-2.444,1.739,7.705,7.705,0,0,0-2.351-1.449,4.794,4.794,0,0,1-3.285,2.96,6.51,6.51,0,0,0-2.873-1.588c1.057-1.358,2.126-2.712,3.181-4.075A6.274,6.274,0,0,1,340.521,185.92Z" transform="translate(-263.567 -146.963)" fill="url(#linear-gradient)"/>
</svg>
