<svg xmlns="http://www.w3.org/2000/svg" xmlns:xlink="http://www.w3.org/1999/xlink" width="59.399" height="62.613" viewBox="0 0 59.399 62.613">
  <defs>
    <linearGradient id="linear-gradient" x1="0.5" x2="0.5" y2="1" gradientUnits="objectBoundingBox">
      <stop offset="0" stop-color="#13ae0e"/>
      <stop offset="1" stop-color="#00296b"/>
    </linearGradient>
  </defs>
  <g id="co-15" transform="translate(0 -3)">
    <path id="Path_14120" data-name="Path 14120" d="M215.848,26.56c1.056.416,2.267.945,2.688,2.094a2.805,2.805,0,0,1-.869,2.434,3.635,3.635,0,0,1-2.215,1.343,8.029,8.029,0,0,0-2.469-1.529,4.751,4.751,0,0,1-3.449,3.109,7.89,7.89,0,0,0-2.925-1.69c1.083-1.423,2.207-2.814,3.32-4.215,1.114.519,2.4,1.008,3.011,2.157C213.871,29,214.9,27.81,215.848,26.56Z" transform="translate(-159.201 -23.56)" fill="url(#linear-gradient)"/>
    <path id="Path_14121" data-name="Path 14121" d="M148.961,73.39a4.051,4.051,0,0,1,2.514,1.645,2.007,2.007,0,0,1-.217,2.139,4.167,4.167,0,0,1-2.681,2.01A8.063,8.063,0,0,0,146.1,77.66a4.887,4.887,0,0,1-3.348,3.1,9.771,9.771,0,0,0-3.041-1.678c1.061-1.449,2.237-2.8,3.31-4.243,1.1.562,2.413.993,3.011,2.167C147.019,75.809,147.908,74.529,148.961,73.39Z" transform="translate(-109.155 -61.761)" fill="url(#linear-gradient)"/>
    <path id="Path_14122" data-name="Path 14122" d="M66.638,91.078a111.962,111.962,0,0,1,10.8-5.6c-.557,2.063-1.736,4.175-3.781,5.056a76.274,76.274,0,0,0-10.689,5.177,13.2,13.2,0,0,0-3.328,2.774,56.52,56.52,0,0,0,7.744-.607c-.227.713-.295,1.6-.988,2.043-1.648,1.192-2.789,2.922-4.316,4.25-2.434,2.209-5.374,4.263-8.762,4.447-1.28,1.227-2.434,2.877-4.263,3.278-1.028.3-1.98-.927-2.963-.247-.864.622-1.461,1.537-2.288,2.209-.27.292-.741.491-.746.947a26.838,26.838,0,0,1-5.369,13.564,18.135,18.135,0,0,1-9.425,6.812c-2.293.524-4.971.559-6.923-.937a7.975,7.975,0,0,1-2.87-5.812,19.419,19.419,0,0,1,2.023-9.458,26.275,26.275,0,0,1,2.3-4.308,7.059,7.059,0,0,1-.927,2.978,12.968,12.968,0,0,0-1.209,7.545,5.832,5.832,0,0,0,3.31,4.374,10.255,10.255,0,0,0,8.392-.408,16.451,16.451,0,0,0,8.052-7.9c.537-1.446,1.134-3.109.572-4.631-.164-.484-.7-.179-1.043-.149a2.68,2.68,0,0,1-3.227-1.65c-.338-1.063.4-2.028.766-2.975.433-.917.577-2.015,1.338-2.741a1.965,1.965,0,0,1,2.474.108,4.921,4.921,0,0,1,1.726,3,15.06,15.06,0,0,0,3.434-3.318c.486-.622,1.411-1.166,2.144-.62A2.354,2.354,0,0,0,51,108.093a2.971,2.971,0,0,1-.726-2.323,11.644,11.644,0,0,1,2.539-5.553,3.449,3.449,0,0,1,2.517-1.547c.922-.03,1.461.879,1.66,1.663a8.038,8.038,0,0,1-.849,5.608,20.666,20.666,0,0,0,5.6-3.628,11.732,11.732,0,0,0,1.444-1.537c-1.68.008-3.414.355-5.064-.055-.607-1.31.237-2.7,1.038-3.724a28.108,28.108,0,0,1,7.48-5.92M51.7,103.995c.179.335.36.67.534,1.008l-.116-.254a6.406,6.406,0,0,0,2.272,1.078A12,12,0,0,0,56,104.143c.338-.33-.023-.753-.159-1.083a1.8,1.8,0,0,0-2.043-.9A3,3,0,0,0,51.7,103.995Z" transform="translate(-18.428 -70.805)" fill="url(#linear-gradient)"/>
    <path id="Path_14123" data-name="Path 14123" d="M61.736,130.89a4.35,4.35,0,0,1,2.668,2.053c.3,1.149-.549,2.187-1.33,2.925-.5.4-1.106.972-1.779.806a10.63,10.63,0,0,0-2.441-1.451,4.8,4.8,0,0,1-3.429,3.116,7.764,7.764,0,0,0-2.955-1.688c1.081-1.421,2.2-2.809,3.31-4.212,1.121.509,2.4.99,3.023,2.134C59.766,133.334,60.756,132.117,61.736,130.89Z" transform="translate(-43.894 -104.775)" fill="url(#linear-gradient)"/>
    <path id="Path_14124" data-name="Path 14124" d="M107.243,258.11a3.955,3.955,0,0,1,2.7,2,2.778,2.778,0,0,1-.859,2.509,3.708,3.708,0,0,1-2.192,1.338,8.133,8.133,0,0,0-2.484-1.552,5,5,0,0,1-3.383,3.152,8.644,8.644,0,0,0-3-1.736c1.1-1.4,2.2-2.807,3.313-4.2a6.021,6.021,0,0,1,3.036,2.144C105.3,260.521,106.311,259.347,107.243,258.11Z" transform="translate(-77.976 -199.944)" fill="url(#linear-gradient)"/>
  </g>
</svg>
