<svg xmlns="http://www.w3.org/2000/svg" xmlns:xlink="http://www.w3.org/1999/xlink" width="88.733" height="66.287" viewBox="0 0 88.733 66.287">
  <defs>
    <linearGradient id="linear-gradient" x1="0.5" x2="0.5" y2="1" gradientUnits="objectBoundingBox">
      <stop offset="0" stop-color="#13ae0e"/>
      <stop offset="1" stop-color="#00296b"/>
    </linearGradient>
  </defs>
  <g id="co-11" transform="translate(0 -6.712)">
    <path id="Path_14102" data-name="Path 14102" d="M83.313,44.829c4.429-2.985,9.119-5.715,12.8-9.647a9.981,9.981,0,0,1-2.735,5.537,32.526,32.526,0,0,1-5.854,4.47c-8.872,5.736-8.856,5.993-17.687,11.8a35.522,35.522,0,0,0-3.059,2.4c-.041,3.565.022,7.14-.242,10.7-.3,3.332-.94,6.862-3.222,9.455-2.675,3.028-6.514,4.664-10.24,6a81.013,81.013,0,0,1-11.732,2.848A115.851,115.851,0,0,1,19.8,89.746c-2.98-.178-6.226-.257-8.74-2.078-1.627-1.236-1.485-3.515-1.327-5.331A21.5,21.5,0,0,0,17.366,84.6a94.594,94.594,0,0,0,18.685.166,85.3,85.3,0,0,0,15.9-2.675,35.49,35.49,0,0,0,9.791-3.92,6.227,6.227,0,0,0,2.291-2.214,7.827,7.827,0,0,0,.473-2.543c.122-2.874-.13-5.748-.082-8.625a13.575,13.575,0,0,1,.933-4.354c1.051-2.7,2.32-5.52,4.832-7.164C77.436,48.493,76.048,49.582,83.313,44.829Z" transform="translate(-9.641 -28.47)" fill="url(#linear-gradient)"/>
    <path id="Path_14103" data-name="Path 14103" d="M315.23,129.3c1.065-1.3,2.063-2.653,3.143-3.939.852.492,2.219.7,2.418,1.84-.144,1.622-1.555,2.735-2.783,3.616A7.408,7.408,0,0,0,315.23,129.3Z" transform="translate(-243.566 -96.816)" fill="url(#linear-gradient)"/>
    <path id="Path_14104" data-name="Path 14104" d="M310.149,150.978c.936-1.173,1.826-2.382,2.769-3.548a5.652,5.652,0,0,1,2.392,1.624,1.767,1.767,0,0,1-.046,1.833,4.043,4.043,0,0,1-2.67,2.19,7.9,7.9,0,0,0-2.4-1.471,4.6,4.6,0,0,1-3.251,2.946A6.535,6.535,0,0,0,304.06,153c1.084-1.339,2.133-2.706,3.186-4.069C308.328,149.414,309.576,149.851,310.149,150.978Z" transform="translate(-235.076 -113.591)" fill="url(#linear-gradient)"/>
    <path id="Path_14105" data-name="Path 14105" d="M277.627,158.75c.839.5,1.957.78,2.434,1.7.312,1.574-1.193,2.621-2.155,3.6.78.455,1.923.916,1.827,2.013-.285,1.486-1.651,2.378-2.684,3.348a6.28,6.28,0,0,0-3-1.79c1.076-1.161,2-2.45,3.017-3.659a7.566,7.566,0,0,0-2.65-1.286C275.462,161.349,276.572,160.071,277.627,158.75Z" transform="translate(-213.917 -125.598)" fill="url(#linear-gradient)"/>
    <path id="Path_14106" data-name="Path 14106" d="M227.288,175.192a13.894,13.894,0,0,1,1.6-2.922c.523,1.1,1.581,1.826,2.116,2.913.5,1.495-.528,2.97-1.519,4-.6.691-1.49.192-2.193-.014a2.055,2.055,0,0,0-2.025.341c-1.408,1.161-2.14,2.968-3.656,4.014a3.89,3.89,0,0,1-1.919.65,5.172,5.172,0,0,1-3.34,1.754,4.374,4.374,0,0,1-3.668,1.619c-1.936,1.13-2.939,3.491-5.105,4.323-1.029.35-2.022-.386-3.059-.288a9.29,9.29,0,0,0-6.156,3.009c-2.457,2.476-4.129,5.592-6.473,8.164a15.384,15.384,0,0,1-8.671,5.192,13.843,13.843,0,0,1,2.39-1.855,47.807,47.807,0,0,0,8.267-8.738c2.066-2.721,3.985-5.6,6.588-7.855,1.811-1.55,3.983-2.958,6.466-2.889,1.2-.108,2.358.6,3.551.348,1.473-.681,2.308-2.166,3.39-3.3a1.293,1.293,0,0,0,1.663.276,6.186,6.186,0,0,0,1.641-1.708,6.542,6.542,0,0,0,.993.545,7.652,7.652,0,0,0,1.955-2.313,2.029,2.029,0,0,0,2.533-.17c1.536-1.164,2.143-3.1,3.426-4.491A2.357,2.357,0,0,1,227.288,175.192Z" transform="translate(-142.402 -134.949)" fill="url(#linear-gradient)"/>
  </g>
</svg>
