<svg id="co-16" xmlns="http://www.w3.org/2000/svg" xmlns:xlink="http://www.w3.org/1999/xlink" width="68.082" height="61.179" viewBox="0 0 68.082 61.179">
  <defs>
    <linearGradient id="linear-gradient" x1="0.095" y1="-0.151" x2="0.366" y2="0.936" gradientUnits="objectBoundingBox">
      <stop offset="0" stop-color="#1ec8c4"/>
      <stop offset="1" stop-color="#00296b"/>
    </linearGradient>
  </defs>
  <path id="Path_13953" data-name="Path 13953" d="M64.484,43.331c3.241-3.471,7.132-6.254,10.384-9.711a6.518,6.518,0,0,1-1.4,3.8c-1.3,1.662-3.1,2.8-4.692,4.151-2.224,1.878-4.65,3.608-6.405,5.959,5.607-3.777,11.373-7.436,16.219-12.191-.077,3.118-2.326,5.6-4.671,7.4-2.965,2.178-6.094,4.114-9.149,6.157-3.84,2.5-7.622,5.077-11.378,7.7a82.559,82.559,0,0,0-8.91,6.888,2.925,2.925,0,0,0-.938,1.335,19.625,19.625,0,0,0-.594,6.575c.193,1.595,1.059,3.445,2.784,3.8a4.788,4.788,0,0,0,4.594-1.474,2.618,2.618,0,0,1,1.876-1,2.582,2.582,0,0,0,2.2.36,4.107,4.107,0,0,0,1.586-1.217,2.325,2.325,0,0,1-1.748-2.171c.065-2.036,1.349-3.754,2.542-5.3.378-.436.355-1.049.543-1.569a5.709,5.709,0,0,1,1.609-2.568,3.669,3.669,0,0,0,1.235,1.8c1.66,1.374,3.819,1.878,5.679,2.909,1.179.71,1.182,2.366.573,3.461-.666,1.244-1.372,2.67-2.726,3.278-1.813.327-3.67-.009-5.5.063-1.233,1.272-2.205,2.779-3.494,4a2.877,2.877,0,0,1-2.572.968,2.307,2.307,0,0,0-2.435.316c-.95,1.059-1.665,2.366-2.886,3.155a3.608,3.608,0,0,1-3.847.016,6.1,6.1,0,0,1-1.9-3.531,7.281,7.281,0,0,1-2.47,2.907c-3.09,2.305-7.09,3.2-9.825,6.008a1.594,1.594,0,0,0-.432,2.087A7.369,7.369,0,0,0,31.875,89.1a67.539,67.539,0,0,0,13.029.643c12.785-.432,25.5-1.915,38.2-3.362,2.983-.216,6.136-.513,8.984.594a12.789,12.789,0,0,1-3.352,1.444,112.273,112.273,0,0,1-14.389,2.969c-9.08,1.412-18.21,2.526-27.381,3.125a91.427,91.427,0,0,1-15.336-.067,19.731,19.731,0,0,1-5.953-1.507,2.846,2.846,0,0,1-1.672-2.085c.209-2.677,1.983-4.868,3.933-6.563a70.31,70.31,0,0,1,8.262-5.644c1.8-1.193,3.875-2.521,4.427-4.757a46.835,46.835,0,0,1,.52-4.931,19.305,19.305,0,0,1,4.267-8.5c4.163-4.8,9.73-8.007,14.928-11.534.416-.325,1.035-.515,1.175-1.082a13.111,13.111,0,0,1,2.962-4.513m-8.476,23.3c-.163.434-.462.95-.1,1.372a2.694,2.694,0,0,0,2,.857,3.171,3.171,0,0,0,2.147-1.973c-.2-1.247-1.391-1.864-2.479-2.205a6.385,6.385,0,0,0-1.565,1.95m5.558-.355a6.375,6.375,0,0,1-1.019,2.716,9.155,9.155,0,0,0,4.5-.293,1.4,1.4,0,0,0-.469-1.031A8.032,8.032,0,0,0,61.566,66.275Z" transform="translate(-24.01 -33.62)" fill="url(#linear-gradient)"/>
  <path id="Path_13954" data-name="Path 13954" d="M99.25,102.07c1.221.569,2.8,1.284,2.9,2.83-.149,1.581-1.36,2.816-2.51,3.805a7.69,7.69,0,0,0-3.773-2.336C97.026,104.958,98.089,103.477,99.25,102.07Z" transform="translate(-79.187 -86.179)" fill="url(#linear-gradient)"/>
  <path id="Path_13955" data-name="Path 13955" d="M229.406,110.53a5.993,5.993,0,0,1,2.514,1.674,2.108,2.108,0,0,1,.176,2.157,7.887,7.887,0,0,1-2.284,2.793,8.317,8.317,0,0,0-3.742-2.366C227.2,113.386,228.28,111.939,229.406,110.53Z" transform="translate(-179.16 -92.675)" fill="url(#linear-gradient)"/>
  <path id="Path_13956" data-name="Path 13956" d="M189.216,161.553a2.3,2.3,0,0,1,1.662-1.537,2.614,2.614,0,0,1,2.614,1.539,8.083,8.083,0,0,1,.555,6.071,13.937,13.937,0,0,1-2.2,4.926,9.633,9.633,0,0,1-4.174,3.034,2.714,2.714,0,0,0-1.6,1.688,17.721,17.721,0,0,1-3.318,5.918,2.437,2.437,0,0,1-2.308.768,12.692,12.692,0,0,0-4.722.232c.68-.97,1.876-1.321,2.825-1.955,2.447-1.453,5.128-3,6.4-5.672a11.177,11.177,0,0,1,3.1-4.327c1.244-1,2.807-1.493,4.035-2.51a1.638,1.638,0,0,0-1.015-1.69,3.141,3.141,0,0,1-3.4-.2,1.893,1.893,0,0,1-.455-2.452Q188.273,163.495,189.216,161.553Z" transform="translate(-140.507 -130.646)" fill="url(#linear-gradient)"/>
</svg>
