<svg xmlns="http://www.w3.org/2000/svg" xmlns:xlink="http://www.w3.org/1999/xlink" width="124.26" height="48.501" viewBox="0 0 124.26 48.501">
  <defs>
    <linearGradient id="linear-gradient" x1="0.5" x2="0.5" y2="1" gradientUnits="objectBoundingBox">
      <stop offset="0" stop-color="#1ec8c4"/>
      <stop offset="1" stop-color="#00296b"/>
    </linearGradient>
  </defs>
  <g id="co-14" transform="translate(-13.907 -0.117)">
    <path id="Path_14019" data-name="Path 14019" d="M36.779,27.988a7.021,7.021,0,0,1,1.022-1.9c-.545,2.238-.133,4.542-.258,6.812a27.982,27.982,0,0,1-1.378,8.641,23.166,23.166,0,0,1-7.449,11,12.994,12.994,0,0,1-9.194,2.811,6.006,6.006,0,0,1-4.089-2.425,11,11,0,0,1-1.37-7.844c.569-3.948,2.6-7.466,4.646-10.814a5.829,5.829,0,0,1-.912,2.533,15.843,15.843,0,0,0-1.952,7.568,6.108,6.108,0,0,0,2.5,4.842,8.5,8.5,0,0,0,6.26.994,13.079,13.079,0,0,0,6.739-3.471,14.674,14.674,0,0,0,4.469-10.4c.066-1.765-.328-3.517-.167-5.282A10.925,10.925,0,0,1,36.779,27.988Z" transform="translate(0.016 -25.973)" fill="url(#linear-gradient)"/>
    <path id="Path_14020" data-name="Path 14020" d="M498.21,74.25c1.038-1.328,2.075-2.658,3.131-3.97.873.445,2.159.694,2.453,1.769-.064,1.668-1.544,2.841-2.807,3.723A7.322,7.322,0,0,0,498.21,74.25Z" transform="translate(-398.397 -61.368)" fill="url(#linear-gradient)"/>
    <path id="Path_14021" data-name="Path 14021" d="M60.6,73.49a9.311,9.311,0,0,1,3.342,2.381c.475.535.189,1.278-.06,1.849a6.677,6.677,0,0,1-2.306,2.749A12.949,12.949,0,0,0,57.69,77.8C58.63,76.341,59.65,74.941,60.6,73.49Z" transform="translate(-34.969 -63.835)" fill="url(#linear-gradient)"/>
    <path id="Path_14022" data-name="Path 14022" d="M561.106,91.321l.2-.121c.117,1.183-.582,2.224-.724,3.373a78.493,78.493,0,0,0-.731,8.665,24.849,24.849,0,0,1-1.525,8.383,6.2,6.2,0,0,1-2.133,3.091,17.412,17.412,0,0,0,1.113-5.447c.276-2.741.252-5.5.268-8.246a12.5,12.5,0,0,1,1.219-5.407C559.52,94.16,560.355,92.76,561.106,91.321Z" transform="translate(-444.71 -78.078)" fill="url(#linear-gradient)"/>
    <path id="Path_14023" data-name="Path 14023" d="M490.913,100.374c.944-1.169,1.839-2.379,2.779-3.554a7.861,7.861,0,0,1,2.059,1.2,1.728,1.728,0,0,1,.471,1.958,4.132,4.132,0,0,1-2.866,2.529,7.36,7.36,0,0,0-2.421-1.469A4.532,4.532,0,0,1,487.641,104a6.3,6.3,0,0,0-2.861-1.564c1.058-1.368,2.149-2.713,3.181-4.1A5.449,5.449,0,0,1,490.913,100.374Z" transform="translate(-387.669 -82.567)" fill="url(#linear-gradient)"/>
    <path id="Path_14024" data-name="Path 14024" d="M561.9,116.221a9.939,9.939,0,0,1,3.956-2.517c.535-.187.65.5.517.857a3.722,3.722,0,0,1-2.087,2.624,15.751,15.751,0,0,0-5.294,3.58,4.978,4.978,0,0,0-1.38,2.018c-.085.72.533,1.234,1.093,1.555,1.455.948,3.222,1.23,4.725,2.077a2.273,2.273,0,0,1,.811,3c-.648,1.3-1.38,2.807-2.811,3.377a21.593,21.593,0,0,1-4.616-.068c-1.421,1.461-2.843,3.057-4.819,3.761a5.119,5.119,0,0,1-4.92-.543,4.236,4.236,0,0,1-1.368-2.88,15.02,15.02,0,0,1-3.222,3.99c-.469.368-1.046.038-1.56,0a8.021,8.021,0,0,0-3.2.66,3.644,3.644,0,0,1-2.137.394,28.659,28.659,0,0,0,6.962-4.614,19.264,19.264,0,0,0,5.006-7.478,6.18,6.18,0,0,1,1.384-2.588,12.413,12.413,0,0,0-.875,5.186,3.56,3.56,0,0,0,1.664,2.7,4.475,4.475,0,0,0,3.085.278c-.312-1.692.654-3.234,1.517-4.6a8.521,8.521,0,0,0,1.1-1.722,17.341,17.341,0,0,1,2.5-4.566,22.548,22.548,0,0,1,3.964-4.481M555.88,126.2a4.423,4.423,0,0,0-1.721,2.817A2.158,2.158,0,0,0,556.2,130.1a3.1,3.1,0,0,0,1.986-1.805,3,3,0,0,0-2.306-2.1m3.672,1.451a5.2,5.2,0,0,1-.956,2.614,12.315,12.315,0,0,0,3.536-.058c.239-.089.6-.117.682-.412a1.323,1.323,0,0,0-.6-.944A10.624,10.624,0,0,0,559.552,127.646Z" transform="translate(-428.255 -96.028)" fill="url(#linear-gradient)"/>
    <path id="Path_14025" data-name="Path 14025" d="M121.968,120.48c.421.3.3.879.284,1.322a127.045,127.045,0,0,0-1.157,13.07,6.586,6.586,0,0,0,.624,3.2,1.75,1.75,0,0,0,.944.718c.386-.956.779-1.908,1.123-2.88a3.146,3.146,0,0,1,1.956,1.547,5.4,5.4,0,0,1-3.862,6.405,1.979,1.979,0,0,1-2.006-1.119,8.575,8.575,0,0,1-.737-3.433c-.187-4.119.451-8.208.855-12.295a13.848,13.848,0,0,1,1.125-3.614A23.98,23.98,0,0,0,121.968,120.48Z" transform="translate(-95.577 -101.466)" fill="url(#linear-gradient)"/>
    <path id="Path_14026" data-name="Path 14026" d="M362.083,135.88a4.174,4.174,0,0,1,2.5,1.811,2.34,2.34,0,0,1-.521,2.312,3.743,3.743,0,0,1-2.34,1.515,7,7,0,0,0-2.389-1.441,4.594,4.594,0,0,1-3.278,2.984,6.1,6.1,0,0,0-2.91-1.588c1.081-1.376,2.151-2.759,3.24-4.129,1.038.541,2.33.94,2.878,2.077C360.207,138.248,361.137,137.057,362.083,135.88Z" transform="translate(-282.519 -113.768)" fill="url(#linear-gradient)"/>
    <path id="Path_14027" data-name="Path 14027" d="M346.051,141.94c.827-.678.439-2.03,1.318-2.67a10.541,10.541,0,0,1-1.089,4.892,2.279,2.279,0,0,1-1.789,1.225c-.972,1.314-2.016,2.882-3.743,3.2-.7.2-1.453-.308-2.121.022-.831.622-1.445,1.483-2.258,2.125-.877.678-1.684,1.626-2.865,1.714a3.07,3.07,0,0,1-2.451-1.139,8.615,8.615,0,0,1-1.541,2.051,15.786,15.786,0,0,1-5.465,2.682,66.844,66.844,0,0,1-14.712,2.588,42.065,42.065,0,0,1-6.409-.04,12.262,12.262,0,0,1-4.564-1.179,3.558,3.558,0,0,1-1.582-2.314c-.513-2.02.02-4.089.406-6.079.471.557.135,1.413.578,2.008a6.088,6.088,0,0,0,3.685,2.111,32.89,32.89,0,0,0,6.28.63,68.2,68.2,0,0,0,16.072-1.749c2.755-.749,5.634-1.535,7.838-3.449-.086.423-.169.845-.256,1.268a8.046,8.046,0,0,0,4.518-1.348c1.61-.887,2.668-2.531,4.324-3.34.72-.4,1.537-.109,2.292-.173a6.446,6.446,0,0,0,2.236-3.059C345.147,142.113,345.688,142.335,346.051,141.94Z" transform="translate(-237.331 -116.475)" fill="url(#linear-gradient)"/>
    <path id="Path_14028" data-name="Path 14028" d="M190.518,164.166a33.523,33.523,0,0,1,2.427-4.626,6.61,6.61,0,0,1,3.419,4.342,10.793,10.793,0,0,1-1.384,7.218,7.975,7.975,0,0,1-5.049,3.835,6.561,6.561,0,0,1,1.547-1.7,14.938,14.938,0,0,0,2.348-2.847,3.369,3.369,0,0,0-.133-3.475A6.976,6.976,0,0,0,190.518,164.166Z" transform="translate(-152.151 -132.667)" fill="url(#linear-gradient)"/>
    <path id="Path_14029" data-name="Path 14029" d="M241.355,172.443a2.079,2.079,0,0,1,2.332-1.242,2.308,2.308,0,0,1,1.626,1.541,8.649,8.649,0,0,1-.109,5.654,10.241,10.241,0,0,1-2.592,4.944c-.487.507-1.225.445-1.861.576a16.454,16.454,0,0,0-4.212,1.733,4,4,0,0,1,1.68-1.883,34.25,34.25,0,0,0,4.338-3.1,4.349,4.349,0,0,0,1.211-1.753,4.309,4.309,0,0,1-3.481-.163,2.038,2.038,0,0,1-.813-2.578C240.162,174.96,240.782,173.713,241.355,172.443Z" transform="translate(-189.382 -141.935)" fill="url(#linear-gradient)"/>
    <path id="Path_14030" data-name="Path 14030" d="M149.077,196.046a3.166,3.166,0,0,1,.5-.636,12.067,12.067,0,0,1-5.767,8.647c-1.449.69-3.035,1.04-4.447,1.817.159-.7.841-1.01,1.36-1.409a27.954,27.954,0,0,0,6.226-5.33A24.063,24.063,0,0,0,149.077,196.046Z" transform="translate(-111.757 -161.318)" fill="url(#linear-gradient)"/>
    <path id="Path_14031" data-name="Path 14031" d="M648.79,240.962c.98-1.346,2.059-2.62,3.061-3.952a4.36,4.36,0,0,1,2.616,2.055,2.385,2.385,0,0,1-.449,2.143,7.823,7.823,0,0,1-1.781,1.958A8.021,8.021,0,0,0,648.79,240.962Z" transform="translate(-518.676 -194.547)" fill="url(#linear-gradient)"/>
  </g>
</svg>
