<svg id="co-13" xmlns="http://www.w3.org/2000/svg" xmlns:xlink="http://www.w3.org/1999/xlink" width="71.296" height="57.415" viewBox="0 0 71.296 57.415">
  <defs>
    <linearGradient id="linear-gradient" x1="0.095" y1="-0.151" x2="0.366" y2="0.936" gradientUnits="objectBoundingBox">
      <stop offset="0" stop-color="#1ec8c4"/>
      <stop offset="1" stop-color="#00296b"/>
    </linearGradient>
  </defs>
  <path id="Path_13941" data-name="Path 13941" d="M18.031,27.507c.949-.938,2.118-2.041,3.571-1.817,1.374.242,2.822,1.8,2.062,3.212-.55.715-1.278-.236-1.812-.494-1.61-1.052-3.741-.027-4.562,1.536a1.929,1.929,0,0,0,.324,2.181,5.787,5.787,0,0,0,4.246,1.382c1.748-.34,3.154-1.783,4.918-1.964a9.464,9.464,0,0,1-2.325,3.226,20.265,20.265,0,0,1-3.606,1.709c-3.127,1.3-6.226,2.665-9.226,4.23C9.9,41.717,7.95,42.607,6.8,44.324c.09.51.167,1.1.694,1.355C9.587,46.9,12.09,47,14.434,47.289a144.483,144.483,0,0,0,20.71-.377c8.606-.651,17.2-1.528,25.769-2.559,3.8-.415,7.666-.967,11.468-.284a7.319,7.319,0,0,1,1.536.521,9.808,9.808,0,0,1-2.686,1.244,66.8,66.8,0,0,1-9.01,2.2A319.014,319.014,0,0,1,24.775,52.6a91.965,91.965,0,0,1-13.849-.133,24.22,24.22,0,0,1-6.117-1.376c-.975-.433-2.126-1.108-2.189-2.3a9.564,9.564,0,0,1,3.13-5.67,36.28,36.28,0,0,1,9.085-6.343,2.5,2.5,0,0,1-1.164-3.279A24.312,24.312,0,0,1,18.031,27.507Z" transform="translate(-2.62 -25.66)" fill="url(#linear-gradient)"/>
  <path id="Path_13942" data-name="Path 13942" d="M149.28,129.8c.845-1.483,1.584-3.029,2.506-4.461a7.048,7.048,0,0,1-.582,2.957c-1.443,6.22-.335,12.807-2.322,18.929-.619,1.727-1.257,3.672-2.9,4.7a11.671,11.671,0,0,0,1.068-3.826,82.245,82.245,0,0,0,.55-11.439A14.219,14.219,0,0,1,149.28,129.8Z" transform="translate(-107.887 -98.854)" fill="url(#linear-gradient)"/>
  <path id="Path_13943" data-name="Path 13943" d="M37.489,132.45a2.312,2.312,0,0,1,.244,1.464c-.526,4.942-1.313,9.877-1.3,14.861A6.844,6.844,0,0,0,37.7,153.2a4.234,4.234,0,0,0,5.078.733c1.177-.563,1.764-1.884,2.968-2.394a10.583,10.583,0,0,1,3.861-6.962,4.573,4.573,0,0,1,2.174-.781,2.457,2.457,0,0,0,2.33.492c1.8-.486,2.721-2.248,3.948-3.489-1.368-.648-2.641-1.767-4.233-1.738-1.273.048-2.07,1.132-3.008,1.833a9.764,9.764,0,0,1,2.716-3.279,4.22,4.22,0,0,1,4.344-.037,10.9,10.9,0,0,0,4.546.922,3.061,3.061,0,0,1-1.148,1.818c-2.3,1.254-3.792,3.483-5.527,5.373-.927,1.052-1.964,2.267-3.444,2.442-1.209.09-1.913-1.483-3.159-1.052-1.217.5-1.99,2.32-.893,3.324.616.943,2.261,1.111,2.256,2.421a6.075,6.075,0,0,1-2.043,3.391c-1.135-.582-2.5-1.113-3.744-.542-1.855,1.034-2.535,3.367-4.491,4.278a3.923,3.923,0,0,1-4.522-1.315c-1.416-2-1.379-4.546-1.5-6.893a114.983,114.983,0,0,1,.991-11.965,15.422,15.422,0,0,1,1.249-4.041C36.878,134.669,37.114,133.537,37.489,132.45Z" transform="translate(-25.816 -104.075)" fill="url(#linear-gradient)"/>
  <path id="Path_13944" data-name="Path 13944" d="M60.281,138.274c1.063-1.368,2.208-2.673,3.284-4.033.882.582,2.285.842,2.54,2.025.027,1.475-1.267,2.5-2.267,3.4.834.481,2.1,1.026,1.86,2.219-.393,1.432-1.711,2.3-2.726,3.279a6,6,0,0,0-3.093-1.807c1.1-1.2,2.062-2.506,3.1-3.757A7.1,7.1,0,0,0,60.281,138.274Z" transform="translate(-44.665 -105.389)" fill="url(#linear-gradient)"/>
  <path id="Path_13945" data-name="Path 13945" d="M101.68,220.073q1.7-2.28,3.491-4.493c1.323.547,2.981,1.406,3.05,3.037-.189,1.632-1.461,2.851-2.6,3.914A8.514,8.514,0,0,0,101.68,220.073Z" transform="translate(-75.358 -165.116)" fill="url(#linear-gradient)"/>
</svg>
