<svg xmlns="http://www.w3.org/2000/svg" width="146" height="55.499"><defs><linearGradient id="a" x1=".5" x2=".5" y2="1" gradientUnits="objectBoundingBox"><stop offset="0" stop-color="#1ec8c4"/><stop offset="1" stop-color="#00296b"/></linearGradient></defs><g transform="translate(-4)" fill="url(#a)"><path data-name="Path 14032" d="M98.732 2.795a23.706 23.706 0 0 0 3.228-2.8 9.039 9.039 0 0 1-2.5 4.887 32.776 32.776 0 0 1-5.374 4.209c-3.394 2.3-6.787 4.6-10.154 6.945a112.933 112.933 0 0 0-9.333 7.094 4.867 4.867 0 0 0-.823 1.016 5.285 5.285 0 0 1 3.737 1.308 3.808 3.808 0 0 1 .76 3.38 9.031 9.031 0 0 1-5.107 6.719 4.728 4.728 0 0 1-2.743.94 5.391 5.391 0 0 1-1.152.778 17.985 17.985 0 0 1-4.288 1.6 13 13 0 0 1-2.01 4.22 2.342 2.342 0 0 1-1.548.988 13.867 13.867 0 0 0-4.934 1.8 3.276 3.276 0 0 1 1.193-1.456c1.8-1.3 3.83-2.361 5.3-4.07a3.6 3.6 0 0 0 .565-1.029 4.126 4.126 0 0 1-3.051.027 2 2 0 0 1-1.149-2.591c.643-1.209 1.3-2.411 1.85-3.667a2.1 2.1 0 0 1 2.211-1.275 2.05 2.05 0 0 1 1.483 1.187 6.427 6.427 0 0 1 .593 2.7 3.422 3.422 0 0 0 2.633-1.614c.255.242.515.612.918.528a4.119 4.119 0 0 0 2.17-1.8 1.166 1.166 0 0 0 1.136.429 3.543 3.543 0 0 0 1.394-1.538l.394.509a2.527 2.527 0 0 0 2.407-1.489 2.355 2.355 0 0 0-.778-2.754 6.37 6.37 0 0 0-4.2-1.158 7.332 7.332 0 0 1 1.42-3.758 27.9 27.9 0 0 1 4.928-5.185c6.561-5.538 13.992-9.902 20.824-15.08Z"/><path data-name="Path 14033" d="M33.21 12.159c1.012-1.29 2.018-2.585 3.045-3.865a5.364 5.364 0 0 1 2.271 1.37 2.392 2.392 0 0 1-.673 2.248 8.8 8.8 0 0 1-1.936 1.7 6.927 6.927 0 0 0-2.707-1.453Z"/><path data-name="Path 14034" d="M99.017 13.323c.982-1.292 2-2.557 3-3.836a4.953 4.953 0 0 1 2.234 1.515 1.868 1.868 0 0 1 .15 2.021 7.04 7.04 0 0 1-2.049 2.435 7.365 7.365 0 0 0-3.335-2.135Z"/><path data-name="Path 14035" d="M65.425 9.938a5.978 5.978 0 0 1 2.179 1.253c.462.7-.023 1.559-.441 2.164a7.95 7.95 0 0 1-2.123 1.891 5.985 5.985 0 0 0-2.682-1.435c1.026-1.293 2.013-2.608 3.067-3.873Z"/><path data-name="Path 14036" d="M36.534 16.918c.928-1.131 1.793-2.31 2.706-3.452 1.072.513 2.616 1.109 2.579 2.534a3.849 3.849 0 0 1-2.906 2.965 7.41 7.41 0 0 0-2.343-1.415 4.4 4.4 0 0 1-3.2 2.875 6.5 6.5 0 0 0-2.756-1.54 232.602 232.602 0 0 0 3.072-3.941 5.082 5.082 0 0 1 2.848 1.974Z"/><path data-name="Path 14037" d="M65.699 18.557c.912-1.14 1.8-2.306 2.694-3.46a5.108 5.108 0 0 1 2.392 1.674 1.86 1.86 0 0 1-.216 1.942 3.757 3.757 0 0 1-2.5 1.895 6.9 6.9 0 0 0-2.324-1.407 4.433 4.433 0 0 1-3.168 2.84 7.564 7.564 0 0 0-2.793-1.515c1.021-1.322 2.064-2.63 3.082-3.955a5.23 5.23 0 0 1 2.833 1.986Z"/><path data-name="Path 14038" d="M6.095 17.926c.4-.83.682-1.711 1.062-2.552.374 2.016-.45 4-.725 5.98-.168 1.538-.509 3.2.181 4.667a1.876 1.876 0 0 0 2.181.891c.7-.38.973-1.164 1.437-1.76a7.682 7.682 0 0 1-1.259 5.226 18.411 18.411 0 0 0-2.626 6.442c-.109.821-.062 2.072.967 2.246.3-.733.595-1.47.854-2.22a2.554 2.554 0 0 1 1.912 1.476 4.726 4.726 0 0 1-1.119 4.885 3.178 3.178 0 0 1-2.881 1.2 2.335 2.335 0 0 1-1.657-1.329 6.6 6.6 0 0 1-.191-4.1 30.135 30.135 0 0 1 2.926-7.1 2.966 2.966 0 0 1-2.871-2.335c-.688-3.094.255-6.209.819-9.242a10.18 10.18 0 0 1 .99-2.375Z"/><path data-name="Path 14039" d="M94.149 15.388a1.936 1.936 0 0 1 .253 1.368 39.883 39.883 0 0 0-.349 8.62 3.534 3.534 0 0 0 2.166 3.051c.9-1.643 1.692-3.349 2.678-4.945a4.457 4.457 0 0 1 3.064-2.246c1.786-.14 3.409.893 5.2.8a2.548 2.548 0 0 1-.579 1.308c-1.3 1.189-1.92 2.893-2.865 4.345a13.324 13.324 0 0 1-4.464 5.121 5.567 5.567 0 0 1-4.148.752 3.5 3.5 0 0 1-1.9-1.394c-.5 1.4-1.248 2.7-1.69 4.117-.2.852.741 1.281 1.273 1.739a4.031 4.031 0 0 1 1.741 3.316 15.171 15.171 0 0 1-2.821 8.31 13.536 13.536 0 0 1-6.932 5.6 5.821 5.821 0 0 1-5-.711 6.513 6.513 0 0 1-2.413-4.409 16.94 16.94 0 0 1 1-7.8 49.505 49.505 0 0 1 5.035-10.043 2.984 2.984 0 0 1-.411 1.99c-.848 1.626-1.633 3.281-2.409 4.941a13.5 13.5 0 0 0-1.292 7.265 4.689 4.689 0 0 0 3 3.719 8.47 8.47 0 0 0 6.692-.982 9.507 9.507 0 0 0 3.824-3.8 1.264 1.264 0 0 0-.4-1.6 14.9 14.9 0 0 1-1.99-1.288 4.084 4.084 0 0 1-.918-4.483c.536-1.337 1.343-2.556 1.778-3.936a18.445 18.445 0 0 0 .735-5.643c0-2.287-.016-4.573.129-6.856a6.86 6.86 0 0 1 .719-2.287 27.5 27.5 0 0 0 1.3-3.951m5.587 8.725a11.4 11.4 0 0 0-3.041 4.468 6.647 6.647 0 0 0 4.314-.655 9.881 9.881 0 0 0 3.368-3.6c0-.057-.01-.168-.014-.224l-.156.16c-1.373-.587-3.155-1.115-4.473-.137Z"/><path data-name="Path 14040" d="M17.955 16.168c.314.577.01 1.209-.16 1.78a21.232 21.232 0 0 0-.825 5.035c-.331 3.2-.168 6.45-.791 9.618a17.434 17.434 0 0 1-1.6 4.756 5.2 5.2 0 0 1-1.476 1.69 15.746 15.746 0 0 0 1.082-5.1 75.171 75.171 0 0 0 .273-7.813 12.928 12.928 0 0 1 .745-4.589c.723-1.888 1.904-3.55 2.752-5.377Z"/><path data-name="Path 14041" d="M147.461 26.268c.76-1.565 1.657-3.06 2.474-4.6a2.893 2.893 0 0 1-.2 1.741 24.873 24.873 0 0 0-.918 5.826c-.3 3.975-.1 8.084-1.54 11.875a7.209 7.209 0 0 1-2.031 3.3l-.2.01a10.434 10.434 0 0 0 .869-3.271 68.346 68.346 0 0 0 .452-9.368 12.6 12.6 0 0 1 1.094-5.513Z"/><path data-name="Path 14042" d="M110.836 21.698c.4.967-.331 1.914-.479 2.865a82.035 82.035 0 0 0-.887 10.349 20.845 20.845 0 0 1-1.885 7.745 4.374 4.374 0 0 1-1.589 1.875 15.326 15.326 0 0 0 1.06-4.973 70.747 70.747 0 0 0 .277-7.577 13.645 13.645 0 0 1 .672-4.688c.708-1.976 1.96-3.693 2.831-5.596Z"/><path data-name="Path 14043" d="M139.682 29.237a14.565 14.565 0 0 1 1.6-2.877c.433 1.1 1.47 1.774 2.014 2.793.544 1.138-.146 2.333-.8 3.255-.39.517-.86 1.244-1.612 1.1-.934-.228-2.031-.875-2.92-.177-1.546 1.218-2.444 3.031-3.573 4.6a13.687 13.687 0 0 1-2.941 5.645c-.538.6-1.4.464-2.105.641a17.472 17.472 0 0 0-3.914 1.659c.567-1.442 2.142-1.992 3.3-2.848 1.417-1.035 3.088-2.012 3.791-3.7a4.893 4.893 0 0 1-2.965.062 2.026 2.026 0 0 1-1.246-2.657c.532-1.019 1.1-2.023 1.561-3.08a3.232 3.232 0 0 1 .949-1.433 2.143 2.143 0 0 1 2.867.326 4.344 4.344 0 0 1 .867 2.528c1.78-1.538 2.542-3.947 4.327-5.487a2.419 2.419 0 0 1 .8-.35Z"/><path data-name="Path 14044" d="M38.413 31.17c.766-.653.55-1.875 1.333-2.513-.31 1.982-.608 4.164-2.049 5.682a2.243 2.243 0 0 1-1.407.692c-.577.856-1.571 1.708-2.667 1.226a12.53 12.53 0 0 1-2.657 2.1c-.472.2-.442.8-.62 1.2a9.137 9.137 0 0 1-2.386 4.115c-.427.425-1.066.376-1.614.487a18 18 0 0 0-4.226 1.661 4.543 4.543 0 0 1 1.809-1.871 27.874 27.874 0 0 0 4.175-3.051 4.509 4.509 0 0 0 1.058-1.561 4.686 4.686 0 0 1-2.984.055 2.077 2.077 0 0 1-1.29-2.466c.567-1.17 1.232-2.292 1.741-3.493a2.465 2.465 0 0 1 1.519-1.565 1.91 1.91 0 0 1 2.133.743 5.865 5.865 0 0 1 .8 3.113 7.733 7.733 0 0 0 3.279-3.123.8.8 0 0 0 1 .583c1.064-.267 1.425-1.411 1.992-2.216a.787.787 0 0 0 1.061.202Z"/><path data-name="Path 14045" d="M43.338 33.207a2.059 2.059 0 0 1 2.345-1.32 2.249 2.249 0 0 1 1.546 1.476 8.46 8.46 0 0 1-.129 5.585 9.665 9.665 0 0 1-2.5 4.7c-.479.513-1.228.419-1.856.565a15.9 15.9 0 0 0-4.021 1.678 3.949 3.949 0 0 1 1.616-1.825 32.464 32.464 0 0 0 4.31-3.1 4.476 4.476 0 0 0 1.1-1.626 4.337 4.337 0 0 1-3.261-.072 2.009 2.009 0 0 1-.928-2.55 37.254 37.254 0 0 0 1.778-3.511Z"/><path data-name="Path 14046" d="M114.115 30.29a5.037 5.037 0 0 1 3.078 3.441c.634 2.612-.3 5.339-1.622 7.583-.5.69-.932 1.7-1.908 1.749a18.027 18.027 0 0 0-3.661 1.429c.263-.71.942-1.105 1.489-1.573a17.479 17.479 0 0 0 3.92-3.782c-.07-2.1-1.889-3.526-3.63-4.357.683-1.547 1.51-3.018 2.334-4.49Z"/><path data-name="Path 14047" d="M20.998 34.509c.269-.848.318-1.924 1.195-2.4a8.851 8.851 0 0 0-.351.936 39.472 39.472 0 0 1-2.717 9.023c-.657 1.263-1.737 2.573-3.261 2.676a16.729 16.729 0 0 0-3.977 1.148c.162-.614.756-.912 1.23-1.257a21.082 21.082 0 0 0 5.388-4.938 17.03 17.03 0 0 0 2.493-5.188Z"/><path data-name="Path 14048" d="M56.707 34.682c.308-.912.335-2.057 1.246-2.622a11.274 11.274 0 0 0-.384 1.117 42.761 42.761 0 0 1-2.405 8.322 6.216 6.216 0 0 1-2.363 2.912 7.415 7.415 0 0 1-2.136.482c-1.045.2-2 .706-3.018.986.212-.667.869-.969 1.392-1.351a21.1 21.1 0 0 0 5.171-4.752 16.974 16.974 0 0 0 2.497-5.094Z"/><path data-name="Path 14049" d="M126.041 33.684a2.528 2.528 0 0 1 .971-1.663 12.728 12.728 0 0 0-.651 2.429 38.052 38.052 0 0 1-2.129 7.017 6.161 6.161 0 0 1-2.361 2.9 9.033 9.033 0 0 1-2.294.515c-.984.212-1.879.7-2.854.942.214-.655.862-.955 1.376-1.331a19.518 19.518 0 0 0 6.113-6.168 19.211 19.211 0 0 0 1.829-4.641Z"/></g></svg>