<svg xmlns="http://www.w3.org/2000/svg" xmlns:xlink="http://www.w3.org/1999/xlink" width="60.912" height="64.645" viewBox="0 0 60.912 64.645">
  <defs>
    <linearGradient id="linear-gradient" x1="0.5" x2="0.5" y2="1" gradientUnits="objectBoundingBox">
      <stop offset="0" stop-color="#13ae0e"/>
      <stop offset="1" stop-color="#00296b"/>
    </linearGradient>
  </defs>
  <g id="co-18" transform="translate(0 -5)">
    <path id="Path_14114" data-name="Path 14114" d="M192.114,22.228c.95-1.327,2.006-2.575,3.041-3.838a5.231,5.231,0,0,1,2.464,1.624,1.875,1.875,0,0,1,.14,1.993,4.681,4.681,0,0,1-2.925,2.527,14.689,14.689,0,0,0-2.769-1.674,4.711,4.711,0,0,1-3.5,3.328,8.543,8.543,0,0,0-3.033-1.751c.987-1.569,2.272-2.922,3.367-4.412A6.284,6.284,0,0,1,192.114,22.228Z" transform="translate(-139.484 -13.39)" fill="url(#linear-gradient)"/>
    <path id="Path_14115" data-name="Path 14115" d="M142.84,72.479c1.077-1.466,2.206-2.9,3.351-4.309,1.293.574,3.043,1.453,2.906,3.127a6.5,6.5,0,0,1-2.543,3.564A8.965,8.965,0,0,0,142.84,72.479Z" transform="translate(-108.033 -53.929)" fill="url(#linear-gradient)"/>
    <path id="Path_14116" data-name="Path 14116" d="M57.492,72.55a4.711,4.711,0,0,1,.113,2.74,49.684,49.684,0,0,0-.524,9.54,5.176,5.176,0,0,0,.9,2.712,1.831,1.831,0,0,0,2.833-.039c.734-.821.671-2.017,1.3-2.9a12.327,12.327,0,0,1-2.164,7.013,2.739,2.739,0,0,1-2.654,1.34c-.916-.063-1.424-.924-1.827-1.635a9.856,9.856,0,0,1-4.531,5.544,8.706,8.706,0,0,1-3.88.906c-1.2,1.237-2.361,2.667-4,3.312-1.25.632-2.514-.99-3.68-.039-1.045.924-1.93,2.022-3,2.925a27.165,27.165,0,0,1-3.762,11.659,21.878,21.878,0,0,1-9.04,8.861,11.463,11.463,0,0,1-7.292,1.206,6.656,6.656,0,0,1-4.891-4.188c-1.319-3.356-.758-7.113.39-10.433a33.945,33.945,0,0,1,3.433-7.037c-.013,1.564-.985,2.864-1.466,4.3a11.777,11.777,0,0,0-.426,8.006,6.154,6.154,0,0,0,4.446,3.765,11.049,11.049,0,0,0,7.574-.971,17.153,17.153,0,0,0,8.074-7.755c.653-1.6,1.343-3.417.842-5.152-.211-.666-.913-.229-1.393-.208a2.725,2.725,0,0,1-3.222-2.267,6.221,6.221,0,0,1,.813-2.432c.387-.853.627-1.774,1.085-2.593a1.983,1.983,0,0,1,2.954-.358,5.394,5.394,0,0,1,1.859,3.156,17.67,17.67,0,0,0,3.649-3.578,2.214,2.214,0,0,1,1.664-.811,2.619,2.619,0,0,0,3.025.095,3.2,3.2,0,0,1-.8-2.188A11.453,11.453,0,0,1,46.314,89.3a4.745,4.745,0,0,1,2.306-1.874A1.7,1.7,0,0,1,50.7,88.493a8,8,0,0,1-.624,6.426c1.427-.784,2.983-1.6,3.812-3.072a9.631,9.631,0,0,0,.95-4.683,60.893,60.893,0,0,1,.487-7.956A15.619,15.619,0,0,1,56.4,75.93c.448-1.1.706-2.259,1.087-3.38M45.359,93a4.431,4.431,0,0,0,2.83,1.856,15.962,15.962,0,0,0,1.9-1.988c-.234-.669-.49-1.445-1.208-1.735A2.818,2.818,0,0,0,45.359,93Z" transform="translate(-10.62 -57.156)" fill="url(#linear-gradient)"/>
    <path id="Path_14117" data-name="Path 14117" d="M54.36,121.87c1.274.484,3,1.322,2.838,2.943a4.359,4.359,0,0,1-3.206,3.167,9.869,9.869,0,0,0-2.622-1.545,5.217,5.217,0,0,1-3.525,3.217,10.823,10.823,0,0,0-3.164-1.78c1.153-1.466,2.3-2.933,3.47-4.386A6.176,6.176,0,0,1,51.3,125.7Q52.833,123.785,54.36,121.87Z" transform="translate(-32.622 -99.675)" fill="url(#linear-gradient)"/>
    <path id="Path_14118" data-name="Path 14118" d="M239.63,198.838a1.148,1.148,0,0,1,.624-.6v.8C240.1,198.99,239.785,198.89,239.63,198.838Z" transform="translate(-179.342 -149.758)" fill="url(#linear-gradient)"/>
    <path id="Path_14119" data-name="Path 14119" d="M96.914,252.838c.969-1.311,2.027-2.551,3.025-3.838a4.416,4.416,0,0,1,2.788,2.124,2.919,2.919,0,0,1-.927,2.63,3.7,3.7,0,0,1-2.182,1.356,13.689,13.689,0,0,0-2.656-1.6A5.24,5.24,0,0,1,93.4,256.8,8.635,8.635,0,0,0,90.28,255c1.121-1.472,2.3-2.893,3.417-4.367A5.974,5.974,0,0,1,96.914,252.838Z" transform="translate(-68.536 -187.155)" fill="url(#linear-gradient)"/>
  </g>
</svg>
