<svg xmlns="http://www.w3.org/2000/svg" xmlns:xlink="http://www.w3.org/1999/xlink" width="139.62" height="61.861" viewBox="0 0 139.62 61.861">
  <defs>
    <linearGradient id="linear-gradient" x1="0.5" x2="0.5" y2="1" gradientUnits="objectBoundingBox">
      <stop offset="0" stop-color="#13ae0e"/>
      <stop offset="1" stop-color="#00296b"/>
    </linearGradient>
  </defs>
  <g id="co-12" transform="translate(-3 -2.902)">
    <path id="Path_14072" data-name="Path 14072" d="M27.409,16.628c.87-.624.731-1.883,1.509-2.578-.357,1.766-.471,3.812-1.895,5.109-.374.435-.977.483-1.458.729-.807.836-1.684,1.832-2.923,1.922-.794.09-1.169-.765-1.684-1.2A13.708,13.708,0,0,1,17.1,23.359a15.6,15.6,0,0,0-4.064,2.2,1.248,1.248,0,0,0-.425,1.662,5.437,5.437,0,0,0,2.738,1.161,53.279,53.279,0,0,0,10.684.578c10.648-.34,21.237-1.584,31.815-2.782,2.432-.165,5.019-.437,7.329.5a21.4,21.4,0,0,1-6.214,2.092c-5.575,1.212-11.236,1.987-16.889,2.75A188.332,188.332,0,0,1,21.423,33.13c-3.377-.058-6.829-.09-10.072-1.154a3.105,3.105,0,0,1-2.3-2.082c.459-1.953,1.849-3.462,3.153-4.907a16.98,16.98,0,0,1,5.243-3.535,8.05,8.05,0,0,0,2.663-1.7c.695-.617,1.222-1.577,2.247-1.659.432.51.991,1.135,1.744.867,1.035-.413,1.489-1.56,1.936-2.5C26.459,16.63,26.979,16.977,27.409,16.628Z" transform="translate(-6.05 -11.148)" fill="url(#linear-gradient)"/>
    <path id="Path_14073" data-name="Path 14073" d="M413.922,70.99c1.049.462,2.427,1.115,2.4,2.459a5.345,5.345,0,0,1-2.065,3.01,6.149,6.149,0,0,0-3.114-1.912C412.078,73.371,412.974,72.159,413.922,70.99Z" transform="translate(-312.012 -55.172)" fill="url(#linear-gradient)"/>
    <path id="Path_14074" data-name="Path 14074" d="M258.83,79.674c.984-1.149,1.844-2.4,2.818-3.554,1,.5,2.359,1.1,2.378,2.405a5.229,5.229,0,0,1-2.092,3.1A5.923,5.923,0,0,0,258.83,79.674Z" transform="translate(-201.123 -58.546)" fill="url(#linear-gradient)"/>
    <path id="Path_14075" data-name="Path 14075" d="M305.585,84.89c.974.42,2.279.979,2.33,2.213a3.438,3.438,0,0,1-2.653,2.818,6.352,6.352,0,0,0-2.082-1.3,4.245,4.245,0,0,1-2.925,2.643,6.714,6.714,0,0,0-2.565-1.458c.967-1.19,1.907-2.4,2.84-3.617A5.522,5.522,0,0,1,303.088,88C303.953,86.994,304.759,85.935,305.585,84.89Z" transform="translate(-229.007 -69.071)" fill="url(#linear-gradient)"/>
    <path id="Path_14076" data-name="Path 14076" d="M432.464,92.12c-.07.972-.309,1.922-.437,2.889a48.468,48.468,0,0,0-.326,5.345,6.09,6.09,0,0,0,.911,3.773,3.378,3.378,0,0,0,4.6.241c1.052-.743,1.5-2.075,2.585-2.767.777-.556,1.652.08,2.444.262a33.8,33.8,0,0,1,3.962-5.286,6.87,6.87,0,0,1,2.721-1.987c.78-.236,1.856.029,2,.955a7.73,7.73,0,0,1-1.086,4.613,11.753,11.753,0,0,1-6.392,5.762,5.068,5.068,0,0,1-3.386-.136c-.612-.189-1.39-.6-1.926-.029-1.069,1.035-1.732,2.463-3.012,3.285a3.164,3.164,0,0,1-3.345.231,36.458,36.458,0,0,1-1.858,12.093c-1.511,3.906-3.984,7.633-7.655,9.8a9.124,9.124,0,0,1-6.853,1.288,5.75,5.75,0,0,1-3.936-3.532c-1.118-2.794-.622-5.93.335-8.695a32.585,32.585,0,0,1,3.642-7.278,4.921,4.921,0,0,1-.845,2.507,15.759,15.759,0,0,0-2.065,7.021,5.6,5.6,0,0,0,1.973,4.584,7.2,7.2,0,0,0,5.354,1.1,11.616,11.616,0,0,0,9.273-7.512c1.161-3.4,1.12-7.048,1.074-10.592,0-2.667-.335-5.323-.258-7.99a17.978,17.978,0,0,1,.59-5.571,23.249,23.249,0,0,1,1.917-4.37m13.765,5.738a16.819,16.819,0,0,0-3.479,4.118,7.089,7.089,0,0,0,7-3.605A2.429,2.429,0,0,0,446.228,97.858Z" transform="translate(-311.705 -74.545)" fill="url(#linear-gradient)"/>
    <path id="Path_14077" data-name="Path 14077" d="M146.892,107.824c.678-1.586,1.567-3.073,2.393-4.584a3.1,3.1,0,0,1-.209,1.72,21.151,21.151,0,0,0-.87,5.993,23.768,23.768,0,0,1-1.079,6.535,6.612,6.612,0,0,1-2.247,3.554,15.543,15.543,0,0,0,1.186-5.7C146.313,112.838,145.874,110.2,146.892,107.824Z" transform="translate(-113.815 -81.044)" fill="url(#linear-gradient)"/>
    <path id="Path_14078" data-name="Path 14078" d="M280.378,115.383a38.51,38.51,0,0,0,1.283-3.853,2.6,2.6,0,0,1,.17,1.312,104.942,104.942,0,0,0-1,11.406c.007,1.5.146,3.321,1.516,4.244a3.884,3.884,0,0,0,4.827-1.137,3.209,3.209,0,0,0-.738-.8,2.8,2.8,0,0,1-1.567.617,1.915,1.915,0,0,1-1.875-2.361c.333-.928.756-1.822,1.064-2.76.243-.622.432-1.4,1.117-1.684a2.268,2.268,0,0,1,2.507.843,6.206,6.206,0,0,1,.806,5.439,11.273,11.273,0,0,1-3.2,5.852,3.6,3.6,0,0,1-4.417.345,5.164,5.164,0,0,1-1.613-3.224c-.5-3.253-.01-6.542.313-9.785A15.348,15.348,0,0,1,280.378,115.383Z" transform="translate(-214.894 -89.24)" fill="url(#linear-gradient)"/>
    <path id="Path_14079" data-name="Path 14079" d="M72.562,119.324a9.8,9.8,0,0,1,.777-2.1,8.847,8.847,0,0,1-.112,2.748,93.609,93.609,0,0,0-.841,9.358c.032,1.38-.058,2.915.824,4.076a3.291,3.291,0,0,0,4.018.751c1.049-.462,1.645-1.567,2.7-2.014.722-.3,1.494.279,2.2-.012a5.851,5.851,0,0,0,1.778-2.558c.362.029.782.294,1.115.036.8-.578.532-1.761,1.19-2.451a7.835,7.835,0,0,1-.374,3,3,3,0,0,1-2.1,2.483c-.814,1.079-1.547,2.373-2.891,2.859-.77.306-1.747-.362-2.373.352-.989,1.011-1.72,2.344-3.029,2.991a3.176,3.176,0,0,1-3.314-.724,6.238,6.238,0,0,1-1.431-4.188A65.345,65.345,0,0,1,71.413,123,16.169,16.169,0,0,1,72.562,119.324Z" transform="translate(-57.117 -93.547)" fill="url(#linear-gradient)"/>
    <path id="Path_14080" data-name="Path 14080" d="M334.869,119.879a4.162,4.162,0,0,1,3.69.236,1.824,1.824,0,0,1,1.2,1.278,6.393,6.393,0,0,1-2.1,3.413,15.5,15.5,0,0,1-4,1.2A12.188,12.188,0,0,0,328.3,128.6a4.864,4.864,0,0,0-1.421,2.235c-1.266,4.161-1.292,8.551-1.433,12.861-.073,4.941.058,9.885.194,14.824a3.918,3.918,0,0,1-.243,1.54c-.428-3-.612-6.035-.843-9.059-.318-5.872-.717-11.863.656-17.637a15.4,15.4,0,0,1,4.368-8.073,13.658,13.658,0,0,1,3.19-2.06C333.31,122.039,333.749,120.666,334.869,119.879Z" transform="translate(-249.111 -95.298)" fill="url(#linear-gradient)"/>
    <path id="Path_14081" data-name="Path 14081" d="M574.865,122.682c.173-.316.294-.7.641-.872a26.706,26.706,0,0,1-.719,3.148,81.338,81.338,0,0,0-.651,8.313,19.415,19.415,0,0,1-1.817,7.708,4.046,4.046,0,0,1-1.419,1.633,13.226,13.226,0,0,0,.991-4.492,64.161,64.161,0,0,0,.26-6.8,13.154,13.154,0,0,1,.5-4.14A28.616,28.616,0,0,1,574.865,122.682Z" transform="translate(-432.886 -97.022)" fill="url(#linear-gradient)"/>
    <path id="Path_14082" data-name="Path 14082" d="M237.256,126.821c.622-.95,1.018-2.024,1.637-2.971a14.141,14.141,0,0,0-.277,3.69c-.061,3.044-.394,6.316-2.23,8.855-.777.765-.855,1.9-1.341,2.825a8.928,8.928,0,0,1-2.077,3.005,1.95,1.95,0,0,1-1.088.347,13.69,13.69,0,0,0-4.22,1.557c.454-1.093,1.582-1.637,2.5-2.271,1.477-1.008,3.168-1.948,3.957-3.642a4.289,4.289,0,0,1-2.91-.049,1.772,1.772,0,0,1-.93-2.347c.59-1.115,1.173-2.233,1.684-3.389a1.854,1.854,0,0,1,2.777-.755,5.144,5.144,0,0,1,1.105,2.709c.289-.4.566-.816.826-1.241-.087-1.314-.253-2.621-.372-3.931C236.17,128.293,236.853,127.574,237.256,126.821Z" transform="translate(-175.99 -98.567)" fill="url(#linear-gradient)"/>
    <path id="Path_14083" data-name="Path 14083" d="M389.373,127.047c.612-.933,1.008-1.987,1.611-2.927a14.987,14.987,0,0,0-.238,3.377c-.017,3.418-.457,7.14-2.777,9.829a11.559,11.559,0,0,1-2.8,5.034,1.48,1.48,0,0,1-.957.389,11.97,11.97,0,0,0-4.46,1.647c.525-1.266,1.866-1.824,2.915-2.575,1.336-.935,2.91-1.832,3.547-3.418-1.283.408-3.037.454-3.778-.9-.505-.8.029-1.65.432-2.349.517-.892.877-1.861,1.365-2.765a1.8,1.8,0,0,1,2.845-.292,5.682,5.682,0,0,1,.87,2.456,3.964,3.964,0,0,0,.821-1.261c-.01-1.3-.245-2.578-.34-3.868C388.3,128.517,388.969,127.8,389.373,127.047Z" transform="translate(-288.173 -98.771)" fill="url(#linear-gradient)"/>
    <path id="Path_14084" data-name="Path 14084" d="M165.293,145.47a22.156,22.156,0,0,1,1.759-3.71,14.93,14.93,0,0,0-.228,3.45,27.329,27.329,0,0,1-1.4,10.76,20.06,20.06,0,0,1-6.479,9.278,11.444,11.444,0,0,1-8.112,2.381,5.286,5.286,0,0,1-4.181-3.231,12.343,12.343,0,0,1,.1-8.6,31.575,31.575,0,0,1,3.44-6.722,9.769,9.769,0,0,1-1.064,2.706,11.8,11.8,0,0,0-1.292,7.337,4.906,4.906,0,0,0,2.983,3.627,9.465,9.465,0,0,0,6.977-.36A12.456,12.456,0,0,0,165.2,152C165.526,149.835,164.832,147.622,165.293,145.47Z" transform="translate(-114.109 -112.126)" fill="url(#linear-gradient)"/>
    <path id="Path_14085" data-name="Path 14085" d="M353.646,157.856a34.424,34.424,0,0,1,2.189-4.106,4.764,4.764,0,0,1,2.784,3.241,10,10,0,0,1-2.191,7.8,1.664,1.664,0,0,1-1.3.675c-1.127.2-2.058.928-3.153,1.22a16.718,16.718,0,0,1,2.818-2.527,15.744,15.744,0,0,0,2.191-2.322C356.889,159.921,355.252,158.611,353.646,157.856Z" transform="translate(-267.142 -121.203)" fill="url(#linear-gradient)"/>
    <path id="Path_14086" data-name="Path 14086" d="M180.685,176.58a6.777,6.777,0,0,1,3.18,2.534,5.132,5.132,0,0,1-2.33,3.617,12.171,12.171,0,0,0-3.435-2.354C178.955,179.107,179.808,177.834,180.685,176.58Z" transform="translate(-138.47 -138.487)" fill="url(#linear-gradient)"/>
  </g>
</svg>
