<svg id="co-2" xmlns="http://www.w3.org/2000/svg" xmlns:xlink="http://www.w3.org/1999/xlink" width="75.021" height="43.709" viewBox="0 0 75.021 43.709">
  <defs>
    <linearGradient id="linear-gradient" x1="0.5" x2="0.5" y2="1" gradientUnits="objectBoundingBox">
      <stop offset="0" stop-color="#1ec8c4"/>
      <stop offset="1" stop-color="#00296b"/>
    </linearGradient>
  </defs>
  <path id="Path_13961" data-name="Path 13961" d="M119.691,22.69c1.016.558,2.619.812,2.844,2.156-.178,1.885-1.823,3.193-3.265,4.209a7.388,7.388,0,0,0-3.25-1.719C117.248,25.79,118.44,24.218,119.691,22.69Z" transform="translate(-90.914 -22.69)" fill="url(#linear-gradient)"/>
  <path id="Path_13962" data-name="Path 13962" d="M38.4,27.269a2.509,2.509,0,0,1,1.238-1.029,17.387,17.387,0,0,1-5.7,7.679c-3.079,2.009-6.795,2.831-9.781,5a1.545,1.545,0,0,0-.776,1.7,2.5,2.5,0,0,0,1.2,1.088,14.349,14.349,0,0,0,4.325,1.2,74.581,74.581,0,0,0,13.548.447c12.671-.68,25.216-2.73,37.745-4.656,3.746-.533,7.56-1.461,11.347-.752a4.666,4.666,0,0,1,2.389,1.347c-9.982,2.624-20.063,4.9-30.229,6.7A192.751,192.751,0,0,1,38.05,48.971a69.8,69.8,0,0,1-11.645-.4,17.759,17.759,0,0,1-5.882-1.712A2.713,2.713,0,0,1,18.918,44.8c-.075-1.531.887-2.831,1.683-4.049a22.614,22.614,0,0,1,4.6-4.69c2.937-2.322,6.657-3.242,9.825-5.168A10.971,10.971,0,0,0,38.4,27.269Z" transform="translate(-18.914 -25.322)" fill="url(#linear-gradient)"/>
  <path id="Path_13963" data-name="Path 13963" d="M175.975,41.98c1.329.615,3.079,1.406,3.131,3.11-.186,1.688-1.479,3-2.712,4.062A8.622,8.622,0,0,0,172.34,46.6C173.586,45.085,174.732,43.5,175.975,41.98Z" transform="translate(-132.673 -36.993)" fill="url(#linear-gradient)"/>
  <path id="Path_13964" data-name="Path 13964" d="M111.06,50.79c1.088-1.381,2.13-2.8,3.25-4.15,1.319.618,3.289,1.427,3.035,3.214a4.766,4.766,0,0,1-3.441,3.371,8.388,8.388,0,0,0-2.795-1.7,5.177,5.177,0,0,1-3.79,3.395,8.364,8.364,0,0,0-3.379-1.792c1.285-1.546,2.5-3.152,3.731-4.742C108.927,48.957,110.411,49.456,111.06,50.79Z" transform="translate(-81.957 -40.448)" fill="url(#linear-gradient)"/>
  <path id="Path_13965" data-name="Path 13965" d="M208.9,102.23a3.282,3.282,0,0,1-.233,2.283c-1.435,4.085-.783,8.506-1.626,12.7a20.356,20.356,0,0,1-2.229,6.611,5.668,5.668,0,0,1-1.471,1.549,28.806,28.806,0,0,0,1.51-9.258c.083-2.428-.1-4.936.729-7.265A67.069,67.069,0,0,1,208.9,102.23Z" transform="translate(-155.658 -81.665)" fill="url(#linear-gradient)"/>
  <path id="Path_13966" data-name="Path 13966" d="M134.667,117.207c.786-.7.869-1.841,1.538-2.627a8.46,8.46,0,0,1-2.348,6.474,11.894,11.894,0,0,1-4.116,2.622,3.306,3.306,0,0,0-1.525,2.05,17.043,17.043,0,0,1-3.521,6.068,2.739,2.739,0,0,1-2.637.708,13.111,13.111,0,0,0-4.848.313,2.519,2.519,0,0,1,.869-.9c2.57-1.512,5.295-2.867,7.449-4.974a18.553,18.553,0,0,0,2.588-4.191,10.716,10.716,0,0,1,2.221-2.653C131.606,118.882,133.4,118.425,134.667,117.207Z" transform="translate(-91.796 -90.822)" fill="url(#linear-gradient)"/>
  <path id="Path_13967" data-name="Path 13967" d="M87.519,123.135a2.165,2.165,0,0,1,1.055-1.515,21.375,21.375,0,0,0-.993,3.751,35.681,35.681,0,0,1-2.834,8.454c-.83,1.4-2.117,2.844-3.87,2.888a19.82,19.82,0,0,0-4.6,1.363c.191-.781.944-1.13,1.538-1.562a25.377,25.377,0,0,0,6.226-5.662A21.19,21.19,0,0,0,87.519,123.135Z" transform="translate(-61.448 -96.042)" fill="url(#linear-gradient)"/>
</svg>
