<svg xmlns="http://www.w3.org/2000/svg" width="164.183" height="56.168"><defs><linearGradient id="a" x1=".5" x2=".5" y2="1" gradientUnits="objectBoundingBox"><stop offset="0" stop-color="#1ec8c4"/><stop offset="1" stop-color="#00296b"/></linearGradient></defs><g transform="translate(-53.471 8.733)" fill="url(#a)"><path data-name="Path 13977" d="M63.261-8.165c1.722-.82 3.684-.566 5.513-.373.759.183 1.731.231 2.194.952a4.261 4.261 0 0 1-1.647 2.658c-2.106 1.865-4.877 2.618-7.329 3.885a17.425 17.425 0 0 0-4.693 3.01.9.9 0 0 0 .094 1.408 9.033 9.033 0 0 0 4 1.248 88.1 88.1 0 0 0 16.194.107c8.4-.522 16.78-1.41 25.139-2.4a30.888 30.888 0 0 1 9.052-.162 7.733 7.733 0 0 1 1.282.43 21.09 21.09 0 0 1-5.683 2C101.223 6.01 94.953 6.855 88.7 7.711c-3.539.415-7.078.845-10.629 1.133a98.685 98.685 0 0 1-17.724.315 19.188 19.188 0 0 1-5.207-1.217c-.816-.363-1.72-1.024-1.668-2.022.252-2.058 1.684-3.7 3.124-5.074a31.344 31.344 0 0 1 6.591-4.531c1.4-.68 2.836-1.29 4.212-2.02a7.786 7.786 0 0 0-5.532-.141c-.875.321-1.143 1.372-2.01 1.7a7.449 7.449 0 0 1 3.404-4.019Z"/><path data-name="Path 13978" d="M94.266 17.623c1.03.438 2.377.992 2.471 2.287a3.664 3.664 0 0 1-2.782 3.054 7.161 7.161 0 0 0-2.282-1.387 4.336 4.336 0 0 1-3.082 2.8 6.576 6.576 0 0 0-2.731-1.512c1.022-1.271 2.012-2.566 3.021-3.845a5.358 5.358 0 0 1 2.729 1.932c.896-1.101 1.76-2.228 2.656-3.329Z"/><path data-name="Path 13979" d="M204.317 7.692c1.009-1.236 1.926-2.54 2.962-3.753 1.1.485 2.54 1.168 2.53 2.572a5.78 5.78 0 0 1-2.18 3.237 6.885 6.885 0 0 0-3.312-2.056Z"/><path data-name="Path 13980" d="M74.029 13.676c1.009-1.236 1.932-2.538 2.96-3.757 1.1.489 2.534 1.185 2.538 2.582a5.7 5.7 0 0 1-2.2 3.218 6.866 6.866 0 0 0-3.298-2.043Z"/><path data-name="Path 13981" d="M158.112 11.552c.409-.986.571-2.058 1-3.038a6.12 6.12 0 0 1 .01 2.832 39.717 39.717 0 0 0-.258 6.314c.1 1.02.319 2.31 1.437 2.689.357-.9.717-1.794 1.061-2.7a2.739 2.739 0 0 1 1.924 1.63 4.729 4.729 0 0 1-.965 3.923 4.008 4.008 0 0 1-2.866 1.9 2.33 2.33 0 0 1-1.334-.4c-.4 1.552-1.433 2.9-1.674 4.493.336.879 1.361 1.21 1.938 1.915 1.183 1.137 1.12 2.918.9 4.416a17.154 17.154 0 0 1-5.192 9.27 8.831 8.831 0 0 1-6.553 2.616 4.913 4.913 0 0 1-4-2.714 10.752 10.752 0 0 1-.7-6.581c.858-4.779 3.277-9.079 5.748-13.193.245 1.04-.42 1.953-.835 2.849-1.464 2.964-3.144 6-3.245 9.383a5.208 5.208 0 0 0 2.209 4.787c1.951 1.114 4.384.757 6.367-.09a9.722 9.722 0 0 0 4.607-4.078 1.217 1.217 0 0 0-.208-1.521c-.55-.464-1.265-.673-1.81-1.141a3.971 3.971 0 0 1-1.357-3.847 20.176 20.176 0 0 1 1.5-3.449 13.76 13.76 0 0 0 1.024-4.063c.243-3.134-.015-6.287.271-9.421a14.612 14.612 0 0 1 1.001-2.781Z"/><path data-name="Path 13982" d="M110.642 21.842c.892-.636.508-1.987 1.374-2.635a10.057 10.057 0 0 1-1.217 4.907 2.664 2.664 0 0 1-1.565.973c-.885 1.143-1.768 2.513-3.264 2.884-.824.325-1.857-.457-2.515.319a26.33 26.33 0 0 1-3.241 2.891 2.472 2.472 0 0 1-2.4.279 10.872 10.872 0 0 1-1.217-.881 5.918 5.918 0 0 1-1.712 2.18 16.642 16.642 0 0 1-5.259 2.391 62.547 62.547 0 0 1-16.157 2.4 20.043 20.043 0 0 1-6.685-.854 3.19 3.19 0 0 1-1.89-1.447 7.8 7.8 0 0 1-.375-5.255 3.878 3.878 0 0 1 .443-1.571c.157.715.057 1.563.6 2.138a6.347 6.347 0 0 0 3.476 1.777 40.016 40.016 0 0 0 9.658.451 54.005 54.005 0 0 0 14.028-2.394 12.83 12.83 0 0 0 4.484-2.417q-.11.6-.231 1.206a8.451 8.451 0 0 0 5.867-2.515 9.459 9.459 0 0 1 2.62-1.962 3.274 3.274 0 0 1 1.815 0c1.171-.566 1.685-1.831 2.238-2.924.357.088.791.373 1.125.059Z"/><path data-name="Path 13983" d="M217.571 13.297c.279.85-.218 1.664-.413 2.473-1.217 5.23-.271 10.772-1.972 15.911-.5 1.389-1.026 2.926-2.32 3.778a23.33 23.33 0 0 0 1.189-7.334c.18-2.446-.063-4.909.237-7.346.345-2.773 2.086-5.04 3.279-7.482Z"/><path data-name="Path 13984" d="M70.922 9.731c.457.283.26.889.264 1.33a73.436 73.436 0 0 0-.762 9.226 6.992 6.992 0 0 0 .713 3.721 2.977 2.977 0 0 0 1.485 1.225c.778-1.471 1.542-2.949 2.356-4.4a4.632 4.632 0 0 1 3.233-2.572c1.735-.111 3.314.877 5.053.778-.155 1.143-1.208 1.72-1.737 2.662-1.458 2.4-2.618 5.079-4.791 6.946a5.836 5.836 0 0 1-5.29 1.542c-1.54-.47-2.349-2.1-2.614-3.585-.627-3.688-.373-4.9 0-8.586a14.766 14.766 0 0 1 .757-4.2 24.281 24.281 0 0 0 1.326-4.082m5.253 11.244c-1.521 1.043-2.305 2.8-3.063 4.416a6.615 6.615 0 0 0 3.749-.432 8.453 8.453 0 0 0 3.658-3.744c-1.346-.518-3.015-1.137-4.341-.245Z"/><path data-name="Path 13985" d="M115.551 14.291a13.541 13.541 0 0 1 .671-2.087 3.185 3.185 0 0 1 .132 1.424 112.1 112.1 0 0 0-1.068 12.169 5.483 5.483 0 0 0 1.2 3.975c1.049 1.118 2.83 1.007 4.122.415.915-.4 1.384-1.45 2.364-1.722.631-.248 1.038.556 1.67.472a2.81 2.81 0 0 0 2.316-1.527c.308.2.615.51 1.019.426.984-.084 1.294-1.137 1.854-1.777a1.073 1.073 0 0 0 1.236.258c.942-.573.715-1.928 1.536-2.6-.273 1.624-.436 3.409-1.569 4.7a3.169 3.169 0 0 1-1.678.845 4.472 4.472 0 0 1-3.207 1.445 3.386 3.386 0 0 1-2.152 1.217c-.772.069-1.575-.474-2.312-.057-.751.434-1.1 1.28-1.678 1.89a3.748 3.748 0 0 1-3.356 1.636 3.37 3.37 0 0 1-2.63-2.467 19.419 19.419 0 0 1-.533-6.881c.174-2.549.491-5.083.755-7.621.115-1.462.889-2.75 1.308-4.133Z"/><path data-name="Path 13986" d="M179.931 17.092c.894-1.1 1.771-2.224 2.66-3.333 1.059.441 2.463 1.057 2.473 2.4a3.762 3.762 0 0 1-2.784 2.943 6.95 6.95 0 0 0-2.289-1.382 4.338 4.338 0 0 1-3.09 2.8 5.758 5.758 0 0 0-2.731-1.5q1.536-1.923 3.031-3.877c.993.505 2.189.899 2.73 1.949Z"/><path data-name="Path 13987" d="M207.849 16.282c.252-.554.392-1.156.69-1.691a8.732 8.732 0 0 0 .268 3.151 1.266 1.266 0 0 0 .892.72c.371-.887.736-1.777 1.061-2.683a2.889 2.889 0 0 1 1.854 1.55c.522 1.416-.157 2.914-.944 4.084a3.974 3.974 0 0 1-2.912 1.844 1.989 1.989 0 0 1-1.41-.529 7.919 7.919 0 0 1-2.467 2.956c-.854.447-1.661-.621-2.528-.2a13.345 13.345 0 0 0-2.616 2.215c-.869.753-1.739 1.684-2.958 1.779-.934.187-1.624-.56-2.291-1.072a5.757 5.757 0 0 1-1.965 2.393 23.542 23.542 0 0 1-7.483 2.868 63.045 63.045 0 0 1-13.824 1.724 19.96 19.96 0 0 1-6.635-.877 3.187 3.187 0 0 1-2.02-1.888c-.856-2.029-.252-4.267.17-6.325l.189.231a2.97 2.97 0 0 0 .789 2.154c1.559 1.445 3.793 1.617 5.8 1.869a61.988 61.988 0 0 0 15.741-.933c3.409-.745 7.036-1.466 9.809-3.734-.067.386-.141.77-.206 1.154 2.93.055 5.37-1.844 7.346-3.8a2.854 2.854 0 0 1 1.787-1.02 1.853 1.853 0 0 0 2.7-.631 5.227 5.227 0 0 1-.111-2.284 17.7 17.7 0 0 1 1.274-3.025Z"/><path data-name="Path 13988" d="M59.587 12.205c1.116.468 2.547 1.2 2.559 2.591a5.607 5.607 0 0 1-2.192 3.212 7.293 7.293 0 0 0-3.285-2.062c.982-1.241 1.94-2.501 2.918-3.741Z"/><path data-name="Path 13989" d="M137.096 24.388a2 2 0 0 1 2.035-1.236 2.232 2.232 0 0 1 1.745 1.594 8.35 8.35 0 0 1-.176 5.3 11.057 11.057 0 0 1-1.913 4.059 2.174 2.174 0 0 1-1.542.919 12.949 12.949 0 0 0-4.711 1.775 4.347 4.347 0 0 1 1.808-1.932 27.173 27.173 0 0 0 4.011-2.9 4.371 4.371 0 0 0 1.051-1.554 4.217 4.217 0 0 1-3.124-.034 1.954 1.954 0 0 1-.952-2.484q.953-1.716 1.768-3.507Z"/><path data-name="Path 13990" d="M66.305 18.367a2.482 2.482 0 0 1 .835-1.332c-.938 3.268-1.393 6.719-2.966 9.778a5.813 5.813 0 0 1-1.808 2.11 4.271 4.271 0 0 1-1.917.512 21.493 21.493 0 0 0-3.3 1.049c.22-.675.879-.978 1.41-1.364a21.523 21.523 0 0 0 4.556-4.034 16.83 16.83 0 0 0 3.19-6.719Z"/><path data-name="Path 13991" d="M197.367 41.821c.854-1.124 1.747-2.217 2.635-3.316 1.026.4 2.322 1 2.469 2.236a3.706 3.706 0 0 1-2.756 3.067 9.892 9.892 0 0 0-2.308-1.387 4.632 4.632 0 0 1-2.7 2.723c-.367.214-.659-.166-.929-.342a6.431 6.431 0 0 0-2.14-1.1c.963-1.284 1.986-2.524 2.974-3.788a5.152 5.152 0 0 1 2.755 1.907Z"/><path data-name="Path 13992" d="M118.033 43.725c.894-1.091 1.745-2.215 2.645-3.3 1.047.424 2.423 1.034 2.467 2.347a3.682 3.682 0 0 1-2.8 2.979 7.016 7.016 0 0 0-2.259-1.38 4.392 4.392 0 0 1-3.09 2.809 5.945 5.945 0 0 0-2.746-1.5c1.038-1.275 2.029-2.591 3.052-3.881a5.947 5.947 0 0 1 2.731 1.926Z"/></g></svg>