<svg id="co-4" xmlns="http://www.w3.org/2000/svg" xmlns:xlink="http://www.w3.org/1999/xlink" width="32.876" height="43.921" viewBox="0 0 32.876 43.921">
  <defs>
    <linearGradient id="linear-gradient" x1="0.5" x2="0.5" y2="1" gradientUnits="objectBoundingBox">
      <stop offset="0" stop-color="#13ae0e"/>
      <stop offset="1" stop-color="#00296b"/>
    </linearGradient>
  </defs>
  <path id="Path_14108" data-name="Path 14108" d="M72.84,33.247c.99-1.379,2.075-2.69,3.145-4.008.926.483,2.535.808,2.452,2.138a6.025,6.025,0,0,1-2.864,3.388A8.473,8.473,0,0,0,72.84,33.247Z" transform="translate(-59.181 -29.24)" fill="url(#linear-gradient)"/>
  <path id="Path_14109" data-name="Path 14109" d="M67.883,54.953c.911-1.225,1.849-2.43,2.824-3.6,1.08.468,2.5,1.083,2.66,2.405a4.047,4.047,0,0,1-2.993,3.314,9.109,9.109,0,0,0-2.489-1.5,4.773,4.773,0,0,1-3.3,3.04,7.759,7.759,0,0,0-2.871-1.639q1.58-2.069,3.211-4.1A5.467,5.467,0,0,1,67.883,54.953Z" transform="translate(-50.778 -45.934)" fill="url(#linear-gradient)"/>
  <path id="Path_14110" data-name="Path 14110" d="M66.176,106.762c.73-.59.848-1.59,1.377-2.322a7.128,7.128,0,0,1-1.749,5.338,10.349,10.349,0,0,1-3.677,2.445c-.9.318-1.239,1.284-1.573,2.089a15.276,15.276,0,0,1-2.753,4.858,2.408,2.408,0,0,1-2.337.86,12.69,12.69,0,0,0-4.4.194,2.065,2.065,0,0,1,.676-.681,34.817,34.817,0,0,0,6.518-4.341,13.632,13.632,0,0,0,2.165-3.459A8.822,8.822,0,0,1,63.5,108.43,29.843,29.843,0,0,0,66.176,106.762Z" transform="translate(-43.981 -86.019)" fill="url(#linear-gradient)"/>
  <path id="Path_14111" data-name="Path 14111" d="M124.225,115.373a2,2,0,0,1,2.734.838c1.1,1.911.784,4.262.169,6.278a14.636,14.636,0,0,1-1.685,3.9,2.88,2.88,0,0,1-1.972,1.524,14.582,14.582,0,0,0-5.09,1.864c.571-1.455,2.121-2.1,3.324-2.947,1.511-1.078,3.3-2.089,4.02-3.9a4.22,4.22,0,0,1-3.314.007,2.153,2.153,0,0,1-1.2-2.43c.409-.963,1.007-1.83,1.431-2.783C123.068,116.89,123.328,115.844,124.225,115.373Z" transform="translate(-94.81 -94.084)" fill="url(#linear-gradient)"/>
  <path id="Path_14112" data-name="Path 14112" d="M25.3,119.047a2.877,2.877,0,0,1,.745-1.017,3.416,3.416,0,0,1,2.881,2.085,8.448,8.448,0,0,1-.387,5.788c-.674,1.612-1.5,3.341-3.089,4.228a2.156,2.156,0,0,1-2.842-.348c-.84-1.205-.3-2.766.12-4.03.3-1.046,1.168-1.911,1.073-3.05a30.165,30.165,0,0,1,1.5-3.657m-1.676,7.981a2.37,2.37,0,0,0,3.6-1.161,3.4,3.4,0,0,0-3-2.383C23.74,124.546,22.8,125.905,23.62,127.027Z" transform="translate(-22.16 -96.28)" fill="url(#linear-gradient)"/>
  <path id="Path_14113" data-name="Path 14113" d="M85.5,182.707c.948-1.2,1.876-2.41,2.871-3.567,1.208.468,2.942,1.362,2.557,2.937a4.235,4.235,0,0,1-2.981,2.788,7.705,7.705,0,0,0-2.4-1.509,4.473,4.473,0,0,1-3.351,2.986,8.39,8.39,0,0,0-2.873-1.6c1.085-1.372,2.148-2.763,3.263-4.113C83.648,181.166,84.871,181.614,85.5,182.707Z" transform="translate(-66.563 -142.421)" fill="url(#linear-gradient)"/>
</svg>
