<svg xmlns="http://www.w3.org/2000/svg" xmlns:xlink="http://www.w3.org/1999/xlink" width="68.928" height="46.134" viewBox="0 0 68.928 46.134">
  <defs>
    <linearGradient id="linear-gradient" x1="0.5" x2="0.5" y2="1" gradientUnits="objectBoundingBox">
      <stop offset="0" stop-color="#1ec8c4"/>
      <stop offset="1" stop-color="#00296b"/>
    </linearGradient>
  </defs>
  <g id="co-5" transform="translate(0 -4.905)">
    <path id="Path_13946" data-name="Path 13946" d="M39.353,28.506a3.415,3.415,0,0,1,1.294-1.236,14.967,14.967,0,0,1-5.7,7.389c-2.7,1.558-5.784,2.379-8.354,4.168-.588.364-1.219,1.153-.739,1.844.764.985,2.078,1.264,3.216,1.593,4.693,1,9.527.872,14.3.731,11.725-.636,23.33-2.543,34.922-4.326,3.314-.477,6.7-1.269,10.045-.638A4.147,4.147,0,0,1,90.575,39.3a336.677,336.677,0,0,1-34.362,7.185,142.353,142.353,0,0,1-20.662,1.749A39.912,39.912,0,0,1,25.261,47.1a6.029,6.029,0,0,1-3.382-2.01c-.666-1.357.244-2.791.95-3.929a20.061,20.061,0,0,1,6.047-5.846c2.442-1.507,5.248-2.3,7.678-3.824A9.46,9.46,0,0,0,39.353,28.506Z" transform="translate(-21.647 -22.365)" fill="url(#linear-gradient)"/>
    <path id="Path_13947" data-name="Path 13947" d="M187.3,51.173c.955-1.276,1.977-2.5,2.965-3.754a4.389,4.389,0,0,1,2.668,1.95c.432,1.04-.281,2.063-.942,2.814a3.633,3.633,0,0,1-2.043,1.208,11.94,11.94,0,0,0-2.62-1.54,5.1,5.1,0,0,1-3.467,3.2,8.2,8.2,0,0,0-3.05-1.759c1.093-1.457,2.256-2.857,3.367-4.3A5.972,5.972,0,0,1,187.3,51.173Z" transform="translate(-139.32 -39.667)" fill="url(#linear-gradient)"/>
    <path id="Path_13948" data-name="Path 13948" d="M134.582,56.249c1.012-1.261,2-2.54,3.032-3.789,1.246.48,2.932,1.314,2.754,2.9a4.417,4.417,0,0,1-3.138,3.12,8,8,0,0,0-2.57-1.565,4.666,4.666,0,0,1-3.522,3.105,9.367,9.367,0,0,0-3.007-1.683c1.123-1.44,2.246-2.877,3.394-4.3C132.652,54.573,134,55.053,134.582,56.249Z" transform="translate(-99.876 -43.441)" fill="url(#linear-gradient)"/>
    <path id="Path_13949" data-name="Path 13949" d="M211.93,124.653c.789-1.409,1.515-2.854,2.349-4.233a6.068,6.068,0,0,1-.52,2.8c-1.369,5.886-.317,12.115-2.2,17.906-.585,1.631-1.191,3.455-2.731,4.434a16.245,16.245,0,0,0,1.221-5.623c.314-3.007.284-6.035.3-9.055A13.283,13.283,0,0,1,211.93,124.653Z" transform="translate(-160.301 -95.852)" fill="url(#linear-gradient)"/>
    <path id="Path_13950" data-name="Path 13950" d="M64,123.589a3.2,3.2,0,0,1,.156,2.108c-.264,2.085-.495,4.173-.739,6.261-.269,3.078-.676,4.678-.116,7.746a3.735,3.735,0,0,0,2.274,2.872,4.479,4.479,0,0,0,4.364-.912c1.123-.894,1.646-2.354,2.847-3.158.942-.626,2,.111,2.945.362a38.16,38.16,0,0,1,5.562-7.185c1.068-.917,2.4-2.012,3.912-1.583.922.226,1.11,1.311,1.043,2.118-.123,3.183-1.942,5.982-4.017,8.276a12.346,12.346,0,0,0,6.454-4.924c.548-.671,1-1.535,1.857-1.852a2.209,2.209,0,0,1,1.276.116,2.418,2.418,0,0,0,2.683-1.007,1.491,1.491,0,0,0-1.105-1.54,4.788,4.788,0,0,1-2.055.332,2.177,2.177,0,0,1-2.075-2.261c.3-1.3,1.3-2.276,1.791-3.5.462-.92.7-2.176,1.8-2.543a2.675,2.675,0,0,1,3,1.613,9.636,9.636,0,0,1,.271,6.716,10.881,10.881,0,0,1-3.294,5.583c-.977.769-2.3.339-3.276-.209a13.826,13.826,0,0,1-7.5,5.14c-.945.332-2.045.146-2.889.749a6.9,6.9,0,0,1-5.784.764c-.786-.206-1.688-.829-2.455-.244-1.367,1.239-2.153,3.042-3.741,4.057a3.494,3.494,0,0,1-4.892-.585,8.858,8.858,0,0,1-1.279-4.871c-.324-3.7.206-5.872.6-9.545a15.086,15.086,0,0,1,.794-4.269A41.612,41.612,0,0,0,64,123.589m16.743,10.326c-1.9,1.251-3.09,3.264-4.4,5.072a8.5,8.5,0,0,0,8.416-4.326A2.822,2.822,0,0,0,80.738,133.915Z" transform="translate(-49.544 -97.175)" fill="url(#linear-gradient)"/>
    <path id="Path_13951" data-name="Path 13951" d="M20.343,157.96a5.7,5.7,0,0,1,3.3,3.635c.781,2.987-.3,6.13-1.864,8.68-.507.708-.99,1.691-1.985,1.726-1.48.224-2.728,1.116-4.123,1.593a9.2,9.2,0,0,1,2.4-2.254,18.308,18.308,0,0,0,3.668-3.666c-.126-2.291-2.1-3.854-4.007-4.773A48.029,48.029,0,0,1,20.343,157.96Z" transform="translate(-15.67 -123.96)" fill="url(#linear-gradient)"/>
  </g>
</svg>
