<svg xmlns="http://www.w3.org/2000/svg" xmlns:xlink="http://www.w3.org/1999/xlink" width="138.117" height="50.815" viewBox="0 0 138.117 50.815">
  <defs>
    <linearGradient id="linear-gradient" x1="0.5" x2="0.5" y2="1" gradientUnits="objectBoundingBox">
      <stop offset="0" stop-color="#1ec8c4"/>
      <stop offset="1" stop-color="#00296b"/>
    </linearGradient>
  </defs>
  <g id="co-6" transform="translate(-14.794)">
    <path id="Path_13925" data-name="Path 13925" d="M337.665,26.13c1.059.446,2.481,1.057,2.511,2.4a3.8,3.8,0,0,1-2.789,3,7.7,7.7,0,0,0-2.286-1.405,4.68,4.68,0,0,1-3.076,2.849,6.905,6.905,0,0,0-2.824-1.565c1.065-1.257,2.07-2.565,3.057-3.884a6.192,6.192,0,0,1,2.786,1.943C335.927,28.36,336.811,27.257,337.665,26.13Z" transform="translate(-250.884 -26.13)" fill="url(#linear-gradient)"/>
    <path id="Path_13926" data-name="Path 13926" d="M285.858,30.86c1.176.378,2.762,1.235,2.457,2.711a4.066,4.066,0,0,1-2.738,2.63,9.084,9.084,0,0,0-2.284-1.408,4.607,4.607,0,0,1-3.111,2.83,8.339,8.339,0,0,0-2.732-1.562c1.022-1.265,2-2.559,3.035-3.816a5.451,5.451,0,0,1,2.732,1.951C284.066,33.057,284.982,31.973,285.858,30.86Z" transform="translate(-213.12 -29.582)" fill="url(#linear-gradient)"/>
    <path id="Path_13927" data-name="Path 13927" d="M493.777,43.927a13.006,13.006,0,0,0,10.405-5.257c-.562,3.022-2.77,5.443-5.157,7.232a11.748,11.748,0,0,1-6.857,2.473c-1.319.005-2.473-.895-3.8-.738a4.778,4.778,0,0,0-3.346,2.232l-.214-.011a9.872,9.872,0,0,1,4.938-6.276C491.088,42.935,492.413,43.981,493.777,43.927Z" transform="translate(-351.272 -36.927)" fill="url(#linear-gradient)"/>
    <path id="Path_13928" data-name="Path 13928" d="M231.693,54.313c.876-1.138,1.811-2.227,2.673-3.373a4.549,4.549,0,0,1,2.149,1.392,1.645,1.645,0,0,1,.049,1.951,4.213,4.213,0,0,1-2.5,2.032A9.134,9.134,0,0,0,231.8,54.9a4.8,4.8,0,0,1-2.8,2.749c-.373.13-.638-.219-.924-.384a9.65,9.65,0,0,0-2.089-1.1c.965-1.292,1.978-2.546,2.995-3.8A4.877,4.877,0,0,1,231.693,54.313Z" transform="translate(-175.561 -44.235)" fill="url(#linear-gradient)"/>
    <path id="Path_13929" data-name="Path 13929" d="M390.91,54.66c1.022-1.224,1.97-2.511,2.984-3.74.827.432,1.97.665,2.324,1.643-.076,1.6-1.449,2.743-2.689,3.559A7.2,7.2,0,0,0,390.91,54.66Z" transform="translate(-282.75 -44.22)" fill="url(#linear-gradient)"/>
    <path id="Path_13930" data-name="Path 13930" d="M239.853,60.6c2.795-1.67,5.781-2.973,8.667-4.465-.554,1.789-1.459,3.657-3.205,4.549-3.635,1.589-7.373,3.049-10.676,5.284a11.272,11.272,0,0,0-2.443,2.143,38.656,38.656,0,0,0,7.04-.619c-.249.638-.3,1.441-.892,1.881-1.5,1.113-2.589,2.665-3.976,3.905a14.462,14.462,0,0,1-8.027,4.154,13.706,13.706,0,0,1-3.157,2.692,3.348,3.348,0,0,1-2.984-.286c-1.876,2.284-4.346,4.535-7.5,4.47-1.362,1.411-3.195,2.83-5.278,2.513a3.158,3.158,0,0,1-2.27-1.384,7.419,7.419,0,0,1-1.13-3.94c-.308-3.424.227-6.843.565-10.246a13.053,13.053,0,0,1,.524-3.1A29.536,29.536,0,0,0,206.3,64.77c.119-.422.141-.919.546-1.181a7.753,7.753,0,0,1-.011,1.716c-.37,3.051-.751,6.1-.954,9.167a14.322,14.322,0,0,0,.5,5.954,3.166,3.166,0,0,0,3.076,1.641,12.3,12.3,0,0,1,1.613-4.232c.727-1.1,1.543-2.376,2.913-2.711a2,2,0,0,1,2.295,1.668,7.931,7.931,0,0,1-1,5.127,12.022,12.022,0,0,0,4.83-4.23,1.475,1.475,0,0,1,2.062-.589,2.344,2.344,0,0,0,2.111-.181c-1.027-1.176-.681-2.84-.141-4.154a9.5,9.5,0,0,1,3.078-4.2,1.618,1.618,0,0,1,2.357.8,6.856,6.856,0,0,1-.67,5.578,17.31,17.31,0,0,0,6.449-4.754c-1.276.081-2.557.146-3.838.132-.492.078-.781-.322-1-.692a6.591,6.591,0,0,1,1.313-2.946c2.159-2.616,5.127-4.389,8.019-6.084m-14.965,12.73a4.148,4.148,0,0,0,2.524,1.462c.551-.532,1.073-1.092,1.595-1.654-.227-.673-.565-1.454-1.332-1.63a2.455,2.455,0,0,0-2.786,1.822m-13.74,6.14c-.511,1.13.938,1.884,1.868,1.973a4.521,4.521,0,0,0,1.924-1.354,2.345,2.345,0,0,0-1.286-1.741A1.846,1.846,0,0,0,211.148,79.475Z" transform="translate(-159.47 -48.029)" fill="url(#linear-gradient)"/>
    <path id="Path_13931" data-name="Path 13931" d="M389.965,69.58c1.057.519,2.627,1.111,2.524,2.549A4.019,4.019,0,0,1,389.719,75a7.825,7.825,0,0,0-2.3-1.4,4.824,4.824,0,0,1-3.1,2.822,6.99,6.99,0,0,0-2.757-1.538c1-1.281,2.008-2.557,3-3.846a5.384,5.384,0,0,1,2.8,1.9C388.246,71.837,389.095,70.7,389.965,69.58Z" transform="translate(-275.927 -57.837)" fill="url(#linear-gradient)"/>
    <path id="Path_13932" data-name="Path 13932" d="M432.36,78.97c1.011-1.254,1.951-2.559,2.978-3.8,1.084.535,2.557,1.192,2.546,2.616a6.014,6.014,0,0,1-2.192,3.281A6.785,6.785,0,0,0,432.36,78.97Z" transform="translate(-312.997 -61.916)" fill="url(#linear-gradient)"/>
    <path id="Path_13933" data-name="Path 13933" d="M88.143,82.959c.911-1.086,1.776-2.208,2.654-3.319,1.016.459,2.378.984,2.495,2.276a3.761,3.761,0,0,1-2.735,3.127,8.374,8.374,0,0,0-2.33-1.4,4.733,4.733,0,0,1-3.108,2.835,6.481,6.481,0,0,0-2.778-1.549c1.035-1.276,2.022-2.592,3.046-3.878A6.011,6.011,0,0,1,88.143,82.959Z" transform="translate(-46.395 -76.575)" fill="url(#linear-gradient)"/>
    <path id="Path_13934" data-name="Path 13934" d="M506.909,90.779a33.093,33.093,0,0,1,1.824-3.149c.027,1.262-.635,2.384-.784,3.616-.419,2.868-.538,5.765-.673,8.657a21.053,21.053,0,0,1-1.892,8.257,4.971,4.971,0,0,1-1.535,1.849,21.236,21.236,0,0,0,1.173-6.619c.173-2.33.081-4.67.165-7A12.023,12.023,0,0,1,506.909,90.779Z" transform="translate(-365.166 -72.654)" fill="url(#linear-gradient)"/>
    <path id="Path_13935" data-name="Path 13935" d="M447.518,107.424a19.935,19.935,0,0,1,1.519-2.754c.521,1.03,1.467,1.754,2.019,2.757.581,1.416-.481,2.811-1.373,3.83-.657.808-1.649.089-2.438-.051-.908-.292-1.716.392-2.268,1.03a39.4,39.4,0,0,0-2.576,3.646c-.816,2.116-1.481,4.651-3.489,5.951a13.916,13.916,0,0,0-5.3,1.886c.5-1.316,1.889-1.87,2.962-2.624,1.486-1.043,3.162-2.054,3.967-3.757a5.627,5.627,0,0,1-2.7.116,2.066,2.066,0,0,1-1.524-2.419c.411-.951.978-1.824,1.395-2.773a4.46,4.46,0,0,1,1.284-1.978,2.1,2.1,0,0,1,2.754.514,5.157,5.157,0,0,1,.814,2.389c1.6-1.549,2.424-3.722,4.035-5.265A4.683,4.683,0,0,1,447.518,107.424Z" transform="translate(-313.91 -83.443)" fill="url(#linear-gradient)"/>
    <path id="Path_13936" data-name="Path 13936" d="M55.257,112.431c.657-.632.695-1.684,1.459-2.211a11.679,11.679,0,0,1-5.262,7.927,32.578,32.578,0,0,1-9.543,3.886A97.574,97.574,0,0,1,16.733,125a33.713,33.713,0,0,1-9.362-1.086,4.576,4.576,0,0,1-2.951-2.27,9.975,9.975,0,0,1-.3-3.786,24.193,24.193,0,0,0,9.194,2.368,95.658,95.658,0,0,0,16.413-.087,75.22,75.22,0,0,0,18.938-3.8A16.67,16.67,0,0,0,55.257,112.431Z" transform="translate(10.714 -98.89)" fill="url(#linear-gradient)"/>
    <path id="Path_13937" data-name="Path 13937" d="M340.483,112.855c.724-.643.889-1.7,1.657-2.305a9.016,9.016,0,0,1-1.824,4.551,3.314,3.314,0,0,1-2.192,1.319,4.788,4.788,0,0,1-2.992,1.7,44.392,44.392,0,0,1-1.6,6.94,20.9,20.9,0,0,1-6.592,9.657,12.17,12.17,0,0,1-8.946,2.6,5.75,5.75,0,0,1-4.319-3.343,10.945,10.945,0,0,1-.686-6.051,25.212,25.212,0,0,1,3.2-8.53,4.317,4.317,0,0,1,.681-.943c-.062,1.376-.916,2.516-1.351,3.781a10.816,10.816,0,0,0-.57,6.257,5.671,5.671,0,0,0,4.967,4.081,11.577,11.577,0,0,0,8.219-2.368,12.92,12.92,0,0,0,4.77-6.586,29.018,29.018,0,0,0,.754-7.278c.027-.489-.005-1.184.592-1.346a10.748,10.748,0,0,0,2.927-.281,3.937,3.937,0,0,0,2-1.7A1.246,1.246,0,0,0,340.483,112.855Z" transform="translate(-225.791 -87.734)" fill="url(#linear-gradient)"/>
    <path id="Path_13938" data-name="Path 13938" d="M334.539,119.483a1.946,1.946,0,0,1,2.554.938,7.438,7.438,0,0,1,.227,5.232,10.845,10.845,0,0,1-2.535,5.127c-.47.511-1.2.473-1.822.608a17.162,17.162,0,0,0-4.084,1.643c.665-1.335,2.046-2.008,3.227-2.8,1.414-.981,3.022-1.924,3.751-3.567-1.351.373-3.246.513-4.019-.932-.822-1.162.373-2.3.805-3.346C333.245,121.407,333.415,120.024,334.539,119.483Z" transform="translate(-252.296 -94.113)" fill="url(#linear-gradient)"/>
    <path id="Path_13939" data-name="Path 13939" d="M409.962,128.753c.524-1.116.413-2.595,1.467-3.4-.994,3.392-1.427,7.011-3.176,10.14a4,4,0,0,1-2.93,2.2,17.768,17.768,0,0,0-3.954,1.135c.481-.954,1.535-1.351,2.327-1.995A16.611,16.611,0,0,0,409.962,128.753Z" transform="translate(-290.383 -98.534)" fill="url(#linear-gradient)"/>
    <path id="Path_13940" data-name="Path 13940" d="M238.057,189c1.03.376,2.246.951,2.492,2.135a3.866,3.866,0,0,1-2.724,3.243,10.548,10.548,0,0,0-2.359-1.413,4.783,4.783,0,0,1-3.073,2.832,8.185,8.185,0,0,0-2.732-1.578c.995-1.289,1.992-2.573,3.016-3.838a5.555,5.555,0,0,1,2.727,1.965C236.257,191.205,237.171,190.116,238.057,189Z" transform="translate(-178.246 -144.982)" fill="url(#linear-gradient)"/>
  </g>
</svg>
