<svg xmlns="http://www.w3.org/2000/svg" width="167.238" height="44.527"><defs><linearGradient id="a" x1=".5" x2=".5" y2="1" gradientUnits="objectBoundingBox"><stop offset="0" stop-color="#1ec8c4"/><stop offset="1" stop-color="#00296b"/></linearGradient></defs><g transform="translate(-2 1.093)" fill="url(#a)"><path data-name="Path 14050" d="M164.367 7.457a39.311 39.311 0 0 0 4.87-3.885c-.311 2.4-2.125 4.236-4.008 5.584-5.144 3.628-5.823 3.728-10.8 7.585a15.845 15.845 0 0 0-2.651 2.43 4.205 4.205 0 0 1 3.031 1.115 3.1 3.1 0 0 1 .515 2.649 7.075 7.075 0 0 1-3.812 5.112 4.2 4.2 0 0 1-2.338.833 3.656 3.656 0 0 1-1.44 1.058 3.361 3.361 0 0 1-1.551-.048c-.86.557-1.3 1.543-2.134 2.14a2.453 2.453 0 0 1-3.413-.294 7.42 7.42 0 0 1-1.215-4.565c.01-2.793.4-5.563.681-8.335a11.606 11.606 0 0 1 .914-2.933c.267-.708.42-1.453.637-2.177a2.146 2.146 0 0 1 .184.9c-.357 3.826-1.1 7.655-.781 11.511a2.714 2.714 0 0 0 1.62 2.376 2.838 2.838 0 0 0 2.7-.357 5.05 5.05 0 0 1 1.695-1c.551-.125 1.113.188 1.658.046a8.122 8.122 0 0 0 1.113-1.28c.042.1.125.292.165.39.873.23 1.367-.534 1.77-1.159l.3.372a1.874 1.874 0 0 0 1.818-2.664c-.741-1.349-2.47-1.568-3.856-1.587.3-2.722 2.478-4.653 4.346-6.43 4.55-3.987 5.076-3.88 9.982-7.387Z"/><path data-name="Path 14051" d="M31.144 1.596a15.043 15.043 0 0 1 1.554-2.689 23.5 23.5 0 0 1-.616 2.741c-.545 3.392-.18 6.9-1.2 10.216a13.464 13.464 0 0 1 3.461-3.543 1.885 1.885 0 0 1 2.194-.088 2.332 2.332 0 0 1 .392 2.09 10.889 10.889 0 0 1-2.509 4.983 10.26 10.26 0 0 1-4.828 3.315 3.355 3.355 0 0 1-2.486-.144c-.641-.267-.854-.979-1.173-1.528a15.412 15.412 0 0 1-2.286 3.014c-.729.568-1.509-.23-2.263-.171-.985.472-1.505 1.653-2.618 1.927a2.9 2.9 0 0 1-2.263-.361 11.041 11.041 0 0 0-3.459 2.419 1.413 1.413 0 0 0-.154 1.847c.57.672 1.549.624 2.252 1.052a3.407 3.407 0 0 1 .443 2.649 12.732 12.732 0 0 1-2.831 6.229 10.271 10.271 0 0 1-4.4 3.4 4.694 4.694 0 0 1-4.643-.664 5.054 5.054 0 0 1-1.573-3.121 11.533 11.533 0 0 1 .3-4.937A30.835 30.835 0 0 1 5.776 22.8a10.229 10.229 0 0 1 1.129-1.791 5.92 5.92 0 0 1-1.056 2.887 17.907 17.907 0 0 0-2.328 6.027 5.278 5.278 0 0 0 1.077 4.317 4.589 4.589 0 0 0 4.267.979 8.155 8.155 0 0 0 5.196-3.532 1.475 1.475 0 0 0 .144-1.134c-.948-.541-2.175-.626-2.906-1.505a3.829 3.829 0 0 1-.106-3.616 12.046 12.046 0 0 1 4.327-5.29 2.651 2.651 0 0 0-2.847-1.071c.662-2.248 3.344-3.353 5.5-2.8a1.8 1.8 0 0 1 1.271 2.175 3.866 3.866 0 0 1-.983 1.741c1.937.006 2.394-2.4 4.077-2.935a1.482 1.482 0 0 0 1.549.223c1.3-.848 1.476-2.572 2.482-3.672l.369-.117a8.206 8.206 0 0 0 1.879 1.123 5.661 5.661 0 0 0 1.127-2.238 33.084 33.084 0 0 0 .207-6.446 8.394 8.394 0 0 1 .989-4.528m.593 10.177a18.991 18.991 0 0 0-2.385 3.123 6.183 6.183 0 0 0 2.954-.486 6.278 6.278 0 0 0 3.5-2.916 2.062 2.062 0 0 0-1.357-.946 3.352 3.352 0 0 0-2.709 1.223Z"/><path data-name="Path 14052" d="M145.594 5.174c.829-.983 1.584-2.027 2.409-3.016.649.382 1.674.549 1.854 1.4-.088 1.255-1.2 2.069-2.106 2.793a6.727 6.727 0 0 0-2.157-1.177Z"/><path data-name="Path 14053" d="M102.032 8.369a10.461 10.461 0 0 0 8.49-4.238c-.453 2.392-2.192 4.288-4.048 5.745a9.446 9.446 0 0 1-5.68 2.065c-1.14-.015-2.169-.87-3.325-.522a4.744 4.744 0 0 0-2.58 1.887 8.016 8.016 0 0 1 3.958-5.19c1.059-.543 2.109.248 3.185.253Z"/><path data-name="Path 14054" d="M150.327 6.219c.818.426 2.01.831 2.025 1.935a3.215 3.215 0 0 1-2.175 2.422 9.591 9.591 0 0 0-1.914-1.15 3.769 3.769 0 0 1-2.484 2.288 5.684 5.684 0 0 0-2.221-1.238q1.231-1.531 2.415-3.1a4.666 4.666 0 0 1 2.277 1.551c.672-.918 1.38-1.808 2.077-2.708Z"/><path data-name="Path 14055" d="M54.837 11.227c.8-.983 1.549-2 2.359-2.977.833.344 1.791.841 2.035 1.783.075 1.221-.925 2.133-1.751 2.891a6.828 6.828 0 0 0-2.643-1.697Z"/><path data-name="Path 14056" d="M125.397 11.742c.833-.981 1.568-2.042 2.4-3.023.843.432 2 .91 2.04 2.021a4.662 4.662 0 0 1-1.749 2.708 6.158 6.158 0 0 0-2.691-1.706Z"/><path data-name="Path 14057" d="M72.877 11.995a1.57 1.57 0 0 1 2.154.779 6.292 6.292 0 0 1 .048 4.5 7.67 7.67 0 0 1-2.041 3.843c-.338.321-.837.288-1.261.388a13.094 13.094 0 0 0-3.357 1.33c.545-1.134 1.749-1.66 2.726-2.344a7.214 7.214 0 0 0 2.841-2.766 3.577 3.577 0 0 1-2.543-.067c-.582-.395-1.146-1.167-.8-1.887.4-.787.845-1.547 1.2-2.355.258-.521.465-1.154 1.033-1.421Z"/><path data-name="Path 14058" d="M52.756 13.778a2.6 2.6 0 0 1 .129 1.08 89.135 89.135 0 0 0-.881 10.216 4.106 4.106 0 0 0 1.069 3.039 2.977 2.977 0 0 0 3.029.3c.733-.261 1.163-.956 1.791-1.374.758-.438 1.576.5 2.321.013 1.388-.919 1.593-2.981 3.2-3.63a10.692 10.692 0 0 1 1.221-2.186c.505 1.042 1.781 1.722 1.747 2.987a3.949 3.949 0 0 1-1.674 2.568c-.879.063-1.827-.754-2.641-.113-.91.848-1.388 2.092-2.386 2.856-.655.4-1.419.063-2.119.038-.777.1-1.119.889-1.572 1.424-.683.843-1.637 1.77-2.826 1.534a2.4 2.4 0 0 1-1.9-1.344 7.788 7.788 0 0 1-.749-3.388 66.654 66.654 0 0 1 .66-9.022 10.225 10.225 0 0 1 .8-2.624c.303-.779.503-1.594.781-2.374Z"/><path data-name="Path 14059" d="M100.222 20.86c.276-2.28 1.653-4.192 2.716-6.16a5.818 5.818 0 0 1-.436 2.217c-.829 3.864-.3 7.891-1.267 11.732a7.541 7.541 0 0 1-2.161 4.054 20.747 20.747 0 0 0 .987-6.4c.113-1.813-.054-3.637.161-5.443Z"/><path data-name="Path 14060" d="M124.069 16.505a4.139 4.139 0 0 1 1.712-.317 5.916 5.916 0 0 1-1.789 3.632 4.447 4.447 0 0 0-2.847.818 9.567 9.567 0 0 0-3.528 3.54 1.321 1.321 0 0 0 .048 1.543c.739.729 2.031.411 2.7 1.232a4.664 4.664 0 0 1 .077 2.958 14.032 14.032 0 0 1-5.154 7.878 6.6 6.6 0 0 1-4.4 1.459 4.2 4.2 0 0 1-3.661-2.49 9.748 9.748 0 0 1-.015-6.59 37.838 37.838 0 0 1 3.8-7.983c.52-.822.916-1.72 1.505-2.5a9.188 9.188 0 0 1-1.459 3.407 20.055 20.055 0 0 0-2.58 7.532 4.071 4.071 0 0 0 4.728 4.714 8.1 8.1 0 0 0 5.943-3.743c.351-.5-.2-.941-.656-1.023a3.638 3.638 0 0 1-2.426-1.413 4.287 4.287 0 0 1-.117-3.206 14.492 14.492 0 0 1 2.866-5.148 15.227 15.227 0 0 1 5.253-4.3Z"/><path data-name="Path 14061" d="M48.012 18.03c.4-.1 1.058-.357 1.253.175a1.656 1.656 0 0 1-.269 1.614 5.01 5.01 0 0 0-1.854.655c-1.43 1.117-2.507 2.674-4.129 3.543a3.521 3.521 0 0 1-3.586.013c-.265-.1-.524-.466-.827-.259a10.426 10.426 0 0 0-4.755 4.3 10.175 10.175 0 0 0-1.845 6.4 5.468 5.468 0 0 0 3.532 4.461 8.8 8.8 0 0 0 6.425-.286 15.082 15.082 0 0 0 6.316-5.136 12.5 12.5 0 0 1 1.653-2.282 16.288 16.288 0 0 1-6.248 9.575 11.266 11.266 0 0 1-8.047 2.568 5.705 5.705 0 0 1-4.44-2.768 10.083 10.083 0 0 1-.789-6.225 17.87 17.87 0 0 1 7.511-11.918 5.009 5.009 0 0 0-1.315-1.029 3.535 3.535 0 0 0-1.465-.056 4.4 4.4 0 0 1 5.511-2.509 1.69 1.69 0 0 1 1.2 1.39 3.291 3.291 0 0 1-.96 2.227 4.439 4.439 0 0 0 4.271-1.7c.91-.943 1.611-2.194 2.857-2.753Z"/><path data-name="Path 14062" d="M127.088 25.04a4.649 4.649 0 0 1 .935-2.194 37.8 37.8 0 0 1-2.242 7.7 3.521 3.521 0 0 1-2.778 2.25 15.8 15.8 0 0 0-3.052.9 2.423 2.423 0 0 1 .824-.852 17.552 17.552 0 0 0 4.2-3.7 12.813 12.813 0 0 0 2.113-4.104Z"/><path data-name="Path 14063" d="M133.887 23.7a1.628 1.628 0 0 1 1.9-.971 1.861 1.861 0 0 1 1.165 1.261 6.169 6.169 0 0 1 .171 3.044 12.675 12.675 0 0 1-1.5 4.025 2.357 2.357 0 0 1-1.768 1.265 11.6 11.6 0 0 0-3.645 1.369c.505-1.1 1.662-1.616 2.605-2.269a8.1 8.1 0 0 0 2.991-2.868 3.357 3.357 0 0 1-2.576-.042 1.544 1.544 0 0 1-.749-2.012c.49-.923.991-1.842 1.406-2.802Z"/><path data-name="Path 14064" d="M130.565 25.648c.367-.866.361-1.923 1.092-2.6-.691 2.747-1.146 5.611-2.509 8.131a3.184 3.184 0 0 1-2.342 1.776 21.242 21.242 0 0 0-3.227.908c1-1.23 2.547-1.845 3.614-3.016a11.944 11.944 0 0 0 3.372-5.199Z"/><path data-name="Path 14065" d="M96.614 25.054c.685-.5.937-1.342 1.419-2-.3 2.033-.91 4.294-2.712 5.511a20.174 20.174 0 0 1-6.1 2.5 49.716 49.716 0 0 1-13.915 1.461c-1.505-.136-3.167-.363-4.277-1.493-.939-1.042-.891-2.572-.722-3.877a6.543 6.543 0 0 1 .465-2.033c.177.612.054 1.365.549 1.845 1.073 1.154 2.722 1.432 4.213 1.635a50.216 50.216 0 0 0 14.406-.9c2.324-.551 4.758-1.146 6.674-2.649Z"/><path data-name="Path 14066" d="M103.815 26.869a19.054 19.054 0 0 1 1.177-2.167c-.109 1.645-1.447 2.923-1.505 4.576-.017.344.267.549.493.752.167-.384.321-.774.474-1.165a2.5 2.5 0 0 1 .91.823 2.375 2.375 0 0 1-1.476 2.86c-.95.251-1.532-.843-1.478-1.651a10.31 10.31 0 0 1 1.405-4.028Z"/><path data-name="Path 14068" d="M43.272 27.975c.885.411 2.04.979 2.052 2.1a4.758 4.758 0 0 1-1.768 2.618 5.427 5.427 0 0 0-2.691-1.668c.833-.99 1.58-2.052 2.407-3.05Z"/><path data-name="Path 14069" d="M22.09 32.755c.812-.994 1.574-2.027 2.38-3.027.854.418 1.983.923 2.052 2.017a4.555 4.555 0 0 1-1.756 2.712 6 6 0 0 0-2.676-1.702Z"/><path data-name="Path 14070" d="M20.934 35.448c.848.376 2 .833 2 1.935a3.022 3.022 0 0 1-2.15 2.369 14.721 14.721 0 0 0-1.925-1.113 3.734 3.734 0 0 1-2.486 2.3 5.6 5.6 0 0 0-2.229-1.261c.82-1.027 1.637-2.06 2.432-3.108a5.409 5.409 0 0 1 2.257 1.53c.698-.882 1.407-1.763 2.101-2.652Z"/><path data-name="Path 14071" d="M82.349 36.93c.9.395 2.06.967 2.054 2.106a4.736 4.736 0 0 1-1.743 2.576 6.005 6.005 0 0 0-2.71-1.645c.827-.991 1.568-2.05 2.399-3.037Z"/></g></svg>