<svg id="co-8" xmlns="http://www.w3.org/2000/svg" xmlns:xlink="http://www.w3.org/1999/xlink" width="141.333" height="45.399" viewBox="0 0 141.333 45.399">
  <defs>
    <linearGradient id="linear-gradient" x1="0.5" x2="0.5" y2="1" gradientUnits="objectBoundingBox">
      <stop offset="0" stop-color="#13ae0e"/>
      <stop offset="1" stop-color="#00296b"/>
    </linearGradient>
  </defs>
  <path id="Path_14125" data-name="Path 14125" d="M578.17,42.684A12.32,12.32,0,0,0,588.3,37.65a8.481,8.481,0,0,1-1.668,3.723,14.851,14.851,0,0,1-7.174,5.2,7.072,7.072,0,0,1-3.086.32c-1.04-.1-1.961-.753-3.025-.672a5.065,5.065,0,0,0-3.554,2.327,9.148,9.148,0,0,1,4.719-6.183C575.728,41.76,576.938,42.664,578.17,42.684Z" transform="translate(-446.964 -37.65)" fill="url(#linear-gradient)"/>
  <path id="Path_14126" data-name="Path 14126" d="M50.076,43.049a41.556,41.556,0,0,1,2.585-4.029,10.161,10.161,0,0,1,3.2.764c.521.306,1.226.724,1.134,1.431a8.166,8.166,0,0,1-4.52,4.8c-2.826,1.269-6.043,2.162-8.137,4.59,2.112-.2,4.2-.606,6.305-.829a12.755,12.755,0,0,1-1.018,2.808,15.719,15.719,0,0,1-4.277,6.056,4.159,4.159,0,0,1-3.421.945,3.483,3.483,0,0,1-2.642-2.375,8.051,8.051,0,0,1-2.532,3.526c-.517.387-1.158.56-1.672.95a4.427,4.427,0,0,1-2.237.65A4.938,4.938,0,0,1,29.731,63.5a24.992,24.992,0,0,1-4.76,12.589,15.4,15.4,0,0,1-4.714,4,10.52,10.52,0,0,1-7.015,1.3,5.544,5.544,0,0,1-4.064-3.646,12.585,12.585,0,0,1,.1-7.875A26.494,26.494,0,0,1,12.4,63.436a6.065,6.065,0,0,1-.8,2.53,11.6,11.6,0,0,0-1.171,6.1,5.181,5.181,0,0,0,2.383,3.977,8.086,8.086,0,0,0,5.487.8,12.958,12.958,0,0,0,8.555-6.305c1.51-2.819,1.589-6.111,1.617-9.234a3.374,3.374,0,0,1,.348-1.278c1.081.066,2.2.425,3.259.039a2.665,2.665,0,0,0,1.495-1.14c.269.2.552.464.921.385.7-.1,1.016-.829,1.42-1.322a1.2,1.2,0,0,0,1.775-.066c.941-1.184.948-2.806,1.024-4.248.175-2.771.2-5.568.652-8.312.506-1.6,1.245-3.128,1.646-4.769l-.236-.186a1.492,1.492,0,0,1,.538.265c-.274,3.821-1.064,7.647-.635,11.492a3.2,3.2,0,0,0,2.121,2.71,5.015,5.015,0,0,0,3.34-.289,6.845,6.845,0,0,0,2.629-2.5A34.906,34.906,0,0,1,43.2,52.6c-.648-.6-.263-1.558.063-2.228,1.184-2.024,3.285-3.233,5.222-4.428C49.73,45.282,50.963,44.6,52.236,44A3.146,3.146,0,0,1,50.076,43.049Z" transform="translate(-8.588 -38.72)" fill="url(#linear-gradient)"/>
  <path id="Path_14127" data-name="Path 14127" d="M258.95,47.843c.917-1.206,1.865-2.392,2.8-3.583,1.011.464,2.329,1.088,2.431,2.344a4.947,4.947,0,0,1-2.119,3.226A7.52,7.52,0,0,0,258.95,47.843Z" transform="translate(-204.155 -42.813)" fill="url(#linear-gradient)"/>
  <path id="Path_14128" data-name="Path 14128" d="M436.35,68.569q1.4-1.779,2.788-3.559c1.046.455,2.388,1.116,2.456,2.416a5.184,5.184,0,0,1-2.134,3.154A7.382,7.382,0,0,0,436.35,68.569Z" transform="translate(-342.729 -59.022)" fill="url(#linear-gradient)"/>
  <path id="Path_14129" data-name="Path 14129" d="M182.087,73.58a3.159,3.159,0,0,1,.184,1.381,57.683,57.683,0,0,0-.462,7.244c.031,1.484.587,3.169,2.116,3.718.584-1.219,1.241-2.4,1.867-3.6a5.9,5.9,0,0,1,2.758-2.959c1.884-.611,3.688.65,5.581.587-.109,1.042-1.062,1.556-1.554,2.386-1.361,2.182-2.416,4.614-4.272,6.441a6.026,6.026,0,0,1-5.049,1.961,3.1,3.1,0,0,1-2.151-1.309,32.455,32.455,0,0,0-1.609,4.185c.685.935,1.865,1.394,2.416,2.443a5.863,5.863,0,0,1,.324,3.778,16.436,16.436,0,0,1-5.391,9.067c-1.832,1.545-4.312,2.615-6.73,2.009a5.041,5.041,0,0,1-3.412-3.441,12.748,12.748,0,0,1,.1-6.988,41.9,41.9,0,0,1,5.215-11.064,2.706,2.706,0,0,1-.2,1.449c-1.41,3.012-3.244,5.936-3.675,9.3a5.9,5.9,0,0,0,1.313,5.058,5.548,5.548,0,0,0,4.946,1.105,9.806,9.806,0,0,0,6.275-4.393,1.251,1.251,0,0,0-.162-1.637,10.962,10.962,0,0,1-2.2-1.519,4,4,0,0,1-.652-3.856c.328-.919.862-1.744,1.243-2.639a15.057,15.057,0,0,0,1.132-6.133c-.013-2.178-.007-4.358.114-6.533a12.192,12.192,0,0,1,1.07-3.239c.355-.913.563-1.871.875-2.8m5.04,8.336a10.989,10.989,0,0,0-2.782,4.132,6.883,6.883,0,0,0,3.289-.267,8.032,8.032,0,0,0,3.872-3.718C190.161,81.479,188.425,80.936,187.127,81.916Z" transform="translate(-131.746 -65.716)" fill="url(#linear-gradient)"/>
  <path id="Path_14130" data-name="Path 14130" d="M291.61,95.962a12.136,12.136,0,0,1,.821-1.462,9.456,9.456,0,0,1-.611,2.966c-.282,1.368-.348,2.766-.492,4.152-.274,3.447-.107,6.986-1.173,10.319-.495,1.473-1.037,3.077-2.355,4.021a19.619,19.619,0,0,0,1.1-6.043c.074-1.232.129-2.464.131-3.7a21.729,21.729,0,0,1,.427-5.725A22.007,22.007,0,0,1,291.61,95.962Z" transform="translate(-226.691 -82.058)" fill="url(#linear-gradient)"/>
  <path id="Path_14131" data-name="Path 14131" d="M420.714,98.82c.376-.939.611-1.926.939-2.88a2.11,2.11,0,0,1,.177,1.134c-.331,3.2-.805,6.38-.981,9.588-.05,1.865-.289,3.834.482,5.592a1.566,1.566,0,0,0,2.421.495c.775-.687.77-1.81,1.265-2.664a9.891,9.891,0,0,1-2.066,6.218,2.058,2.058,0,0,1-2.423.661c-1.088-.681-1.342-2.077-1.46-3.259-.287-4.042.33-8.067.757-12.075A10.48,10.48,0,0,1,420.714,98.82Z" transform="translate(-329.172 -83.182)" fill="url(#linear-gradient)"/>
  <path id="Path_14132" data-name="Path 14132" d="M596.744,94.88c.3,1-.381,1.926-.521,2.9a76.854,76.854,0,0,0-.762,9.164,19.351,19.351,0,0,1-1.906,7.759,4.616,4.616,0,0,1-1.355,1.545,18.479,18.479,0,0,0,1.092-5.815c.094-1.377.147-2.758.151-4.136a22.061,22.061,0,0,1,.353-5.235C594.347,98.815,595.761,96.937,596.744,94.88Z" transform="translate(-464.469 -82.354)" fill="url(#linear-gradient)"/>
  <path id="Path_14133" data-name="Path 14133" d="M312.687,106.351a39.123,39.123,0,0,1,2.2-4.191,4.809,4.809,0,0,1,2.858,3.263,9.877,9.877,0,0,1-1.626,7.187c-.425.589-.805,1.4-1.628,1.46a20.314,20.314,0,0,0-3.548,1.355,9.516,9.516,0,0,1,2.383-2.18,15.126,15.126,0,0,0,2.755-2.854C315.972,108.446,314.3,107.139,312.687,106.351Z" transform="translate(-244.767 -88.041)" fill="url(#linear-gradient)"/>
  <path id="Path_14134" data-name="Path 14134" d="M472.118,113.635a2.187,2.187,0,0,1,.692-.825,4.851,4.851,0,0,0,.694,2.705,1.442,1.442,0,0,0,1.7.392,6.7,6.7,0,0,0,1.105-1.414c-.16,1.733-.4,3.655-1.683,4.951a1.971,1.971,0,0,1-2.329.517,3.761,3.761,0,0,1-1.193-1.757c-.764,1.56-1.8,3.43-3.743,3.583-.683,4.233-1.462,8.582-3.653,12.335-1.865,3.244-4.642,6.222-8.328,7.3a7.126,7.126,0,0,1-5.721-.558,6.953,6.953,0,0,1-2.977-4.714,13.091,13.091,0,0,1,.221-5.452,23.582,23.582,0,0,1,3.051-7.441,2.479,2.479,0,0,1-.306,1.58,12.138,12.138,0,0,0-1.278,8.385,5.348,5.348,0,0,0,4.038,3.824,8.83,8.83,0,0,0,5.395-.56,12.712,12.712,0,0,0,6.734-6.767,23.63,23.63,0,0,0,1.32-9.652c0-.5,0-1.427.7-1.418a4.935,4.935,0,0,0,3.292-.72C471.14,116.846,471.466,115.108,472.118,113.635Z" transform="translate(-350.654 -96.36)" fill="url(#linear-gradient)"/>
  <path id="Path_14135" data-name="Path 14135" d="M340.9,134.462a14.116,14.116,0,0,1,1.495-2.712c.385,1.3,1.889,1.97,2.057,3.357a4.938,4.938,0,0,1-1.5,3.04c-.468.554-1.208.28-1.779.09a2.451,2.451,0,0,0-2.456.061c-1.5,1.293-2.23,3.268-3.764,4.533a3.2,3.2,0,0,1-3.342.562c-.873-.328-1.692-1.14-2.692-.786-1.261.37-1.941,1.6-2.911,2.39l-.722.228a16.546,16.546,0,0,1,3.767-5.638,4.269,4.269,0,0,1,2.5-1.167c1.444-.127,2.69,1.149,4.145.694C338.077,138.351,338.456,135.116,340.9,134.462Z" transform="translate(-255.968 -111.155)" fill="url(#linear-gradient)"/>
  <path id="Path_14136" data-name="Path 14136" d="M482.1,167.444c.893-1.3,1.672-2.67,2.5-4.014a5.821,5.821,0,0,1,2.865,2.169,2.509,2.509,0,0,1-.433,2.629c-.455.582-.9,1.289-1.661,1.488A9.738,9.738,0,0,0,482.1,167.444Z" transform="translate(-378.466 -135.901)" fill="url(#linear-gradient)"/>
  <path id="Path_14137" data-name="Path 14137" d="M139.42,172.037c.963-1.186,1.865-2.425,2.832-3.607,1.055.486,2.442,1.167,2.44,2.515a5.557,5.557,0,0,1-2.105,3.086A6.949,6.949,0,0,0,139.42,172.037Z" transform="translate(-110.786 -139.807)" fill="url(#linear-gradient)"/>
  <path id="Path_14138" data-name="Path 14138" d="M544.337,179.89c.991.429,2.3.963,2.381,2.217a3.559,3.559,0,0,1-2.67,2.931,7.029,7.029,0,0,0-2.184-1.335,4.281,4.281,0,0,1-2.972,2.7,6.747,6.747,0,0,0-2.622-1.488c.983-1.215,1.939-2.451,2.9-3.688a5.584,5.584,0,0,1,2.646,1.858C542.648,182.017,543.5,180.96,544.337,179.89Z" transform="translate(-420.78 -148.759)" fill="url(#linear-gradient)"/>
  <path id="Path_14139" data-name="Path 14139" d="M529.338,213.81a4.159,4.159,0,0,1,2.206,1.545,2.082,2.082,0,0,1-.46,2.232,3.322,3.322,0,0,1-2.025,1.318,9.279,9.279,0,0,0-2.2-1.289,4.012,4.012,0,0,1-2.972,2.65,7.486,7.486,0,0,0-2.631-1.423c1-1.21,1.939-2.464,2.913-3.694A5.476,5.476,0,0,1,526.81,217C527.651,215.937,528.5,214.88,529.338,213.81Z" transform="translate(-409.055 -175.255)" fill="url(#linear-gradient)"/>
</svg>
