<svg id="co-9" xmlns="http://www.w3.org/2000/svg" xmlns:xlink="http://www.w3.org/1999/xlink" width="110.121" height="57.077" viewBox="0 0 110.121 57.077">
  <defs>
    <linearGradient id="linear-gradient" x1="0.095" y1="-0.151" x2="0.366" y2="0.936" gradientUnits="objectBoundingBox">
      <stop offset="0" stop-color="#1ec8c4"/>
      <stop offset="1" stop-color="#00296b"/>
    </linearGradient>
  </defs>
  <path id="Path_14009" data-name="Path 14009" d="M68.348,34.9c.994-1.164,1.906-2.39,2.874-3.575,1.105.489,2.593,1.089,2.672,2.5a3.865,3.865,0,0,1-2.949,3.24,13.463,13.463,0,0,0-2.507-1.445,4.947,4.947,0,0,1-3.351,3.046,7.211,7.211,0,0,0-3-1.669c1.147-1.35,2.2-2.776,3.3-4.166A6.311,6.311,0,0,1,68.348,34.9Z" transform="translate(-51.62 -31.33)" fill="url(#linear-gradient)"/>
  <path id="Path_14010" data-name="Path 14010" d="M445.934,48.689c.936-1.2,1.9-2.385,2.837-3.589,1.136.47,2.621,1.112,2.69,2.539a3.992,3.992,0,0,1-3.009,3.244,8.146,8.146,0,0,0-2.462-1.5,4.857,4.857,0,0,1-3.328,3.042,7.437,7.437,0,0,0-2.972-1.65c1.082-1.394,2.183-2.772,3.256-4.173A6.372,6.372,0,0,1,445.934,48.689Z" transform="translate(-341.341 -41.895)" fill="url(#linear-gradient)"/>
  <path id="Path_14011" data-name="Path 14011" d="M126.308,52.9c1-1.161,1.906-2.392,2.879-3.575,1.11.486,2.595,1.094,2.669,2.5a3.851,3.851,0,0,1-3,3.242,10.55,10.55,0,0,0-2.458-1.452,4.884,4.884,0,0,1-3.363,3.039A7.135,7.135,0,0,0,120.05,55c1.15-1.347,2.2-2.774,3.3-4.164A6.249,6.249,0,0,1,126.308,52.9Z" transform="translate(-96.091 -45.141)" fill="url(#linear-gradient)"/>
  <path id="Path_14012" data-name="Path 14012" d="M402.9,61.492c1.085-1.331,2.1-2.714,3.174-4.052,1.178.531,2.7,1.226,2.767,2.718-.149,1.482-1.289,2.611-2.334,3.57A8.517,8.517,0,0,0,402.9,61.492Z" transform="translate(-313.113 -51.363)" fill="url(#linear-gradient)"/>
  <path id="Path_14013" data-name="Path 14013" d="M31.432,89.193c.268-.642.719-1.41,1.515-1.394a2.947,2.947,0,0,1,2.481,2.171,9.411,9.411,0,0,1,.077,5.86,44.451,44.451,0,0,1-2.837,5.923,2.629,2.629,0,0,0-.133,2.507c1.04.852,2.323,1.678,2.611,3.1a12.986,12.986,0,0,1-1.541,7.682,16.818,16.818,0,0,1-6.71,7.291,7.449,7.449,0,0,1-5.783.756,6.028,6.028,0,0,1-3.619-4.212,15.165,15.165,0,0,1,.582-8.644,53.175,53.175,0,0,1,5.506-11.36,2.992,2.992,0,0,1-.24,1.8c-1.522,3.244-3.479,6.381-4.054,9.975-.319,2-.221,4.319,1.233,5.886,1.322,1.527,3.538,1.822,5.43,1.5a10.842,10.842,0,0,0,7.422-5.046,1.364,1.364,0,0,0-.03-1.576c-.531-.628-1.368-.845-2-1.348a4.016,4.016,0,0,1-1.562-4.208c.95-3.358,3.435-6.053,4.271-9.451a2.074,2.074,0,0,0-.147-1.506,3.51,3.51,0,0,1-2.411.363,2.064,2.064,0,0,1-1.624-2.723C30.42,91.439,30.964,90.334,31.432,89.193Z" transform="translate(-17.101 -74.657)" fill="url(#linear-gradient)"/>
  <path id="Path_14014" data-name="Path 14014" d="M270.178,92.59c.438-1.641,1.147-3.193,1.636-4.82,2.015,1.1,2.658,3.5,2.765,5.632.265,3.307-1.208,6.384-2.541,9.312-.365.824-.866,1.825-.326,2.686.694.847,1.794,1.287,2.374,2.248,1.04,1.6.708,3.621.307,5.369a18.207,18.207,0,0,1-6.679,9.959,8.585,8.585,0,0,1-6.2,1.762,5.478,5.478,0,0,1-4.308-3.64,13.264,13.264,0,0,1-.193-7.482,28.391,28.391,0,0,1,2.658-7.014,60.455,60.455,0,0,1,3.344-6.109c.277,1.105-.463,2.085-.9,3.037-1.6,3.193-3.4,6.479-3.507,10.138a5.716,5.716,0,0,0,2.006,4.911,7.044,7.044,0,0,0,6.277.57,10.77,10.77,0,0,0,6-4.825,1.339,1.339,0,0,0-.563-1.871,5.62,5.62,0,0,1-2.669-2.23,5.82,5.82,0,0,1,.068-4.9c.675-1.59,1.354-3.177,2.027-4.769a7.262,7.262,0,0,0,.412-5.72A5.748,5.748,0,0,0,270.178,92.59Z" transform="translate(-200.839 -74.635)" fill="url(#linear-gradient)"/>
  <path id="Path_14015" data-name="Path 14015" d="M350.259,113.65a3.974,3.974,0,0,1,.128,2.432,113.192,113.192,0,0,0-1.071,12.314,6.433,6.433,0,0,0,1.147,4.191,3.739,3.739,0,0,0,3.486.989c1.576-.284,2.628-1.631,3.512-2.856.507-.677,1.164-1.464,2.1-1.417a16.515,16.515,0,0,1,1.871.575,32.712,32.712,0,0,1,5.949-7.4c1.012-.868,2.507-1.487,3.747-.7.719,1.366.3,2.967-.142,4.35a14.788,14.788,0,0,1-3.312,5.306,17.81,17.81,0,0,0,6.112-3.691A11.927,11.927,0,0,0,376.232,125a1.447,1.447,0,0,0-.633-2.106,7.934,7.934,0,0,1-1.862.3,2.2,2.2,0,0,1-2.095-1.543,3.017,3.017,0,0,1,.642-2.141c.708-1.136,1.189-2.395,1.869-3.549a1.6,1.6,0,0,1,1.683-.766,3.33,3.33,0,0,1,2.418,2.3,10.43,10.43,0,0,1-.584,7.373c-2.162,4.852-7.233,7.948-12.4,8.595a7.27,7.27,0,0,1-5.711,1.129c-.929-.209-2.006-1-2.877-.233-1.222,1.189-1.953,2.858-3.419,3.8a3.488,3.488,0,0,1-4.275-.109c-1.618-1.7-1.618-4.21-1.713-6.407a112.553,112.553,0,0,1,.919-11.29,15.659,15.659,0,0,1,1.2-3.8c.363-.945.561-1.941.861-2.907m15.209,12.055a21.483,21.483,0,0,0-3.414,4.312,8.158,8.158,0,0,0,8.029-4.18,2.754,2.754,0,0,0-1.24-1.05A3.477,3.477,0,0,0,365.468,125.705Z" transform="translate(-270.437 -94.492)" fill="url(#linear-gradient)"/>
  <path id="Path_14016" data-name="Path 14016" d="M113.906,118.965c1.038-1.378,2.148-2.967,3.91-3.428,1.725-.3,3.3.661,4.932,1.043a13.749,13.749,0,0,0,3.831.566,4.053,4.053,0,0,1-2.344,2.525c-3.2,2.157-5.641,5.257-8.851,7.41a9.5,9.5,0,0,1-5.074,1.832c-1.171,1.115-2.376,2.195-3.531,3.326a1.482,1.482,0,0,0-.375.759,12.267,12.267,0,0,1-2.42,4.813c-.668.78-1.762.589-2.653.842a20.088,20.088,0,0,0-3.852,1.7,4.088,4.088,0,0,1,1.368-1.638c1.841-1.324,3.926-2.369,5.425-4.115a4.54,4.54,0,0,0,.68-1.138,5.316,5.316,0,0,1-3.147.035,2.143,2.143,0,0,1-1.324-2.641c.477-.991,1.066-1.927,1.508-2.939.354-.71.568-1.58,1.294-2.013a2.008,2.008,0,0,1,2.623.251,5.378,5.378,0,0,1,1.045,3.475c.512-.365,1.01-.742,1.508-1.124-.535-.4-1.166-.8-1.345-1.492a4.919,4.919,0,0,1,.659-3.153,13.564,13.564,0,0,1,3.1-4.3,2.1,2.1,0,0,1,2.032-.451,2.352,2.352,0,0,1,1.524,2.1,7.534,7.534,0,0,1-1.443,5.141,14.583,14.583,0,0,0,2.767-1.876c1.957-1.583,3.768-3.33,5.6-5.057-1.592-.752-3.053-2.109-4.936-1.911-1.066.009-1.594,1.094-2.5,1.459m-5,5.709a2.624,2.624,0,0,0,2.395,1.641,8.952,8.952,0,0,0,1.764-1.936,2.417,2.417,0,0,0-1.736-2.015A2.125,2.125,0,0,0,108.909,124.674Z" transform="translate(-78.773 -95.894)" fill="url(#linear-gradient)"/>
  <path id="Path_14017" data-name="Path 14017" d="M195.964,160.171a2.305,2.305,0,0,1,1.887-1.508A2.205,2.205,0,0,1,200,160.085a8.57,8.57,0,0,1-.009,5.909,10.629,10.629,0,0,1-2.637,5.073,2.735,2.735,0,0,1-1.657.554,16.143,16.143,0,0,0-4.6,1.822,5.237,5.237,0,0,1,2.078-2.15c1.085-.682,2.155-1.382,3.177-2.153a6.229,6.229,0,0,0,2.183-2.565,4.8,4.8,0,0,1-3.377-.06c-.833-.54-1.6-1.662-1.057-2.655C194.766,162.652,195.415,161.434,195.964,160.171Z" transform="translate(-150.605 -129.022)" fill="url(#linear-gradient)"/>
  <path id="Path_14018" data-name="Path 14018" d="M309.249,248.811c.945-1.206,1.892-2.409,2.87-3.591,1.11.475,2.6,1.122,2.644,2.527a4.032,4.032,0,0,1-3,3.249,7.991,7.991,0,0,0-2.465-1.506,4.881,4.881,0,0,1-3.344,3.028,8.1,8.1,0,0,0-2.921-1.662c1.061-1.389,2.167-2.742,3.249-4.115A5.985,5.985,0,0,1,309.249,248.811Z" transform="translate(-236.485 -195.441)" fill="url(#linear-gradient)"/>
</svg>
