<svg data-name="Component 64 – 2" xmlns="http://www.w3.org/2000/svg" xmlns:xlink="http://www.w3.org/1999/xlink" width="64" height="64"><defs><linearGradient id="a" x1=".5" x2=".5" y2="1" gradientUnits="objectBoundingBox"><stop offset="0" stop-color="#efe8df"/><stop offset="1" stop-color="#d2cabe"/></linearGradient><linearGradient id="b" x1=".5" x2=".5" y2="1" gradientUnits="objectBoundingBox"><stop offset="0" stop-color="#1ec8c4"/><stop offset="1" stop-color="#016a63"/></linearGradient><linearGradient id="c" x1=".284" y1="1.153" x2=".407" y2=".289" xlink:href="#a"/></defs><path fill="none" d="M0 0h64v64H0z"/><g data-name="Group 9615" transform="translate(6.425 5)"><path data-name="Union 41" d="M7.953 37.057A25.515 25.515 0 0 1 .6 23.889a.54.54 0 0 1-.013-.062l-.016-.063a.04.04 0 0 0 0-.017v-.009a.02.02 0 0 1 0-.013v-.061a.02.02 0 0 1 0-.013.025.025 0 0 1 0-.013v-.013a5.532 5.532 0 0 0-.036-.025v-.037a.113.113 0 0 0 0-.013v-.03a.013.013 0 0 1 0-.01v-.026a.021.021 0 0 0 0-.013v-.012a.021.021 0 0 1 0-.013.027.027 0 0 1 0-.013v-.013a.02.02 0 0 0 0-.013v-.013a.023.023 0 0 1 0-.013.113.113 0 0 1 0-.013.024.024 0 0 0 0-.012.036.036 0 0 0 0-.016v-.01a.017.017 0 0 1 0-.012v-.013a.018.018 0 0 0 0-.013v-.013a.025.025 0 0 1 0-.013.055.055 0 0 1 0-.013.032.032 0 0 0 0-.015V23.189a.017.017 0 0 0 0-.013V23.097a.021.021 0 0 0 0-.013.018.018 0 0 0 0-.013v-.025a.02.02 0 0 0 0-.013v-.012a.023.023 0 0 1 0-.013v-.013a.023.023 0 0 0 0-.013v-.013a.02.02 0 0 1 0-.013.027.027 0 0 0 0-.013.023.023 0 0 0 0-.013v-.025a.025.025 0 0 0 0-.013v-.013a.018.018 0 0 1 0-.013V22.815a.02.02 0 0 0 0-.012v-.023a.018.018 0 0 0 0-.013v-.026a.02.02 0 0 0 0-.013v-.025a.025.025 0 0 0 0-.013v-.013a.02.02 0 0 1 0-.013v-.039a.113.113 0 0 1 0-.013V22.6a.012.012 0 0 1 0-.01.024.024 0 0 0 0-.015v-.013a.021.021 0 0 1 0-.013.011.011 0 0 0 0-.01v-.032a.027.027 0 0 0 0-.013v-.025a.023.023 0 0 0 0-.013v-.039a.02.02 0 0 1 0-.013.043.043 0 0 1 0-.013v-.009a.03.03 0 0 1 0-.016.02.02 0 0 0 0-.013v-.022a.028.028 0 0 0 0-.016v-.035a.023.023 0 0 1 0-.013.026.026 0 0 0 0-.015v-.039a.02.02 0 0 1 0-.013.027.027 0 0 0 0-.013v-.06a.035.035 0 0 1 0-.017V22.062a.025.025 0 0 1 0-.013.024.024 0 0 0 0-.015v-.039a.012.012 0 0 1 0-.01v-.013a.017.017 0 0 1 0-.013.018.018 0 0 0 0-.013v-.015a.009.009 0 0 0 0-.009v-.039a.027.027 0 0 1 0-.013v-.013a.021.021 0 0 1 0-.013v-.013a.02.02 0 0 1 0-.013v-.025a.02.02 0 0 0 0-.013v-.09a.017.017 0 0 1 0-.012v-.013a.076.076 0 0 1 0-.026.021.021 0 0 1 0-.013v-.013a.059.059 0 0 1 0-.025.017.017 0 0 1 0-.013v-.013a.067.067 0 0 1 0-.026.023.023 0 0 1 0-.013v-.013a.056.056 0 0 1 0-.025v-.074a.089.089 0 0 1 0-.028.021.021 0 0 0 0-.013v-.039a.025.025 0 0 0 0-.013v-.062a.061.061 0 0 0 0-.024V21.181a.016.016 0 0 1 0-.01v-.016a.062.062 0 0 1 0-.023.025.025 0 0 0 0-.013V21.052a.069.069 0 0 0 0-.025V21a.068.068 0 0 1 0-.023.011.011 0 0 0 0-.01v-.055a.023.023 0 0 0 0-.013V20.671a.054.054 0 0 0 0-.013v-.065a.057.057 0 0 1 0-.022v-.126a.056.056 0 0 1 0-.023V20.337a.062.062 0 0 0 0-.023v-.076a.067.067 0 0 1 0-.025V20.2a.021.021 0 0 0 0-.013V20.1a.017.017 0 0 1 0-.013v-.023a.03.03 0 0 0 0-.016v-.01a.162.162 0 0 0 0-.039v-.015a.143.143 0 0 0 0-.035v-.219a.136.136 0 0 1 0-.036v-.064a.162.162 0 0 0 0-.039v-.369a.136.136 0 0 1 0-.036v-.063a.16.16 0 0 1 0-.039v-.228a.072.072 0 0 1 0-.026V18.06a.232.232 0 0 0 0-.048V17.71a.24.24 0 0 0 0-.048v-.352a.254.254 0 0 0 0-.049v-.099c0-.036 0-.067.006-.1s0-.067.006-.1v-.048a.289.289 0 0 0 0-.051.02.02 0 0 1 0-.013v-.038a.257.257 0 0 0 0-.049 25.983 25.983 0 0 1 .795-4.951s0-.005 0-.009.006-.026.01-.036v-.013a4.41 4.41 0 0 1 .051-.189c.01-.046.022-.087.035-.132v-.018a.218.218 0 0 1 .006-.023s0-.007 0-.01l.01-.035a.554.554 0 0 0 .016-.059l.016-.044c.006-.016 0-.01 0-.013a.067.067 0 0 1 .006-.023s0-.008 0-.01l.01-.035c.004-.011 0-.008 0-.013a.014.014 0 0 0 0-.01.085.085 0 0 0 .006-.026.013.013 0 0 0 0-.01.15.15 0 0 0 .013-.031.017.017 0 0 1 0-.013.018.018 0 0 1 0-.013c0-.008 0-.013.006-.023s0-.007 0-.013.006-.022.01-.035a.013.013 0 0 0 0-.01s0-.01.006-.013a.061.061 0 0 1 .006-.023.021.021 0 0 1 0-.013v-.009a.182.182 0 0 0 .006-.022.013.013 0 0 0 0-.01v-.01a.241.241 0 0 1 .01-.023.015.015 0 0 1 0-.01.018.018 0 0 1 0-.013c0-.005 0-.015.006-.022s0-.007 0-.01v-.01c0-.003.006-.015.01-.025a.012.012 0 0 1 0-.01v-.013c0-.003 0-.016.006-.023a.051.051 0 0 1 0-.01.013.013 0 0 0 0-.011.16.16 0 0 0 .01-.023.012.012 0 0 1 0-.01v-.009c0-.002 0-.016.006-.023a.013.013 0 0 0 0-.01v-.013a.069.069 0 0 1 .006-.022s0-.008 0-.013v-.01a.077.077 0 0 0 .006-.026s0-.008.006-.01a.009.009 0 0 1 0-.009c0-.007 0-.013.006-.022a.018.018 0 0 0 0-.013.117.117 0 0 0 .013-.036s0-.005 0-.01a.024.024 0 0 1 0-.009.105.105 0 0 0 .01-.022.025.025 0 0 1 0-.013.012.012 0 0 1 0-.01.14.14 0 0 1 .006-.022.01.01 0 0 0 0-.009v-.01a.2.2 0 0 0 .006-.023s0-.005 0-.01a.011.011 0 0 0 0-.01.043.043 0 0 1 .006-.022s0-.005 0-.009v-.01a.16.16 0 0 0 .01-.023s0-.005 0-.01v-.01a.213.213 0 0 1 .01-.022v-.023a.056.056 0 0 0 .006-.023.015.015 0 0 1 0-.01.011.011 0 0 1 0-.009.218.218 0 0 1 .006-.023.025.025 0 0 0 0-.013.013.013 0 0 1 0-.01.127.127 0 0 0 .006-.023.009.009 0 0 0 0-.009v-.013c0-.003 0-.015.006-.023s0-.01 0-.01a.014.014 0 0 1 0-.01c0-.009 0-.015.006-.022a.016.016 0 0 0 0-.011v-.01c0-.007 0-.015.006-.023s0-.005 0-.01a.016.016 0 0 1 0-.011c0-.007 0-.013.006-.02a.025.025 0 0 0 0-.013.013.013 0 0 1 0-.01c0-.008 0-.013.006-.023a.012.012 0 0 0 0-.01v-.007a.061.061 0 0 0 .006-.023s0-.005.006-.01a.016.016 0 0 1 0-.011.046.046 0 0 0 .006-.02.012.012 0 0 1 0-.01.017.017 0 0 0 0-.008.014.014 0 0 0 0-.011s0-.005.006-.01a.016.016 0 0 1 0-.011v-.007a.012.012 0 0 0 0-.01V9.67a.017.017 0 0 0 0-.008.012.012 0 0 0 0-.008V9.63a.01.01 0 0 0 0-.007V9.5a.013.013 0 0 1 0-.011v-.01a.014.014 0 0 0 0-.011V9.45a.012.012 0 0 0 0-.01.01.01 0 0 1 0-.007.012.012 0 0 1 0-.008v-.024s0-.007.006-.011a.011.011 0 0 1 0-.007v-.034a.014.014 0 0 0 0-.011V9.3a.01.01 0 0 1 0-.007v-.03c0-.008 0-.01.006-.013a.012.012 0 0 0 0-.008.01.01 0 0 0 0-.007.008.008 0 0 1 0-.007V9.21a.014.014 0 0 0 0-.008s0-.01.006-.013a.017.017 0 0 1 0-.008v-.01c0-.005 0 0 0 0a.012.012 0 0 1 0-.01v-.007a.016.016 0 0 0 0-.011.02.02 0 0 1 0-.013v-.01c0-.003 0 0 0 0v-.031a.011.011 0 0 0 0-.007.025.025 0 0 0 0-.013v-.007a.012.012 0 0 1 0-.008v-.01a.015.015 0 0 1 0-.01v-.009a.013.013 0 0 0 0-.01v-.014a.012.012 0 0 0 0-.01v-.017a.007.007 0 0 0 0-.005.011.011 0 0 1 0-.009v-.009c0-.004 0 0 0 0v-.039a.018.018 0 0 1 0-.007.017.017 0 0 0 0-.013.014.014 0 0 1 0-.01v-.005c0-.005 0 0 0 0v-.046a.073.073 0 0 0 .006-.01v-.01s0-.005.006-.01 0-.005 0-.009a.01.01 0 0 0 0-.007.012.012 0 0 1 0-.01v-.01a.013.013 0 0 1 0-.007V8.744c0-.005 0 0 0 0v-.01a.016.016 0 0 0 0-.01.012.012 0 0 1 0-.01v-.005a.141.141 0 0 0 .01-.022.013.013 0 0 0 0-.01V8.67a.011.011 0 0 0 0-.01.013.013 0 0 1 0-.01v-.01a.024.024 0 0 1 0-.01.076.076 0 0 1 .006-.01s0-.008 0-.01v-.005c0-.005 0 0 0 0v-.013a.011.011 0 0 0 0-.009s0-.008.006-.01 0-.008 0-.01 0-.008.006-.013 0-.007 0-.01v-.009c0-.002 0-.008.006-.011v-.076l.006-.009c.006-.009 0-.008 0-.01v-.011c0-.004 0 0 0 0V8.4a.014.014 0 0 0 0-.01H2a.009.009 0 0 1 0-.009v-.026a.012.012 0 0 0 0-.008.007.007 0 0 0 0-.005.014.014 0 0 1 0-.008V8.31a.017.017 0 0 0 0-.008v-.005a.012.012 0 0 1 0-.008s0-.011.006-.013 0-.005 0-.005V8.245a.018.018 0 0 0 0-.013s0-.008.006-.01 0-.008.006-.01v-.017c0-.005 0-.008.006-.008V8.174s0-.007.006-.009V8.15c0-.005 0-.008.006-.008V8.129s0-.007.006-.013c0-.007 0-.01.006-.01v-.02a.013.013 0 0 1 0-.011v-.01s0-.009.006-.009V8.04s0-.005.006-.009a.01.01 0 0 1 0-.007s0-.01.006-.01V7.99c0-.005.006-.009.006-.013v-.005s0-.01.006-.01v-.03a.024.024 0 0 1 0-.009V7.89c0-.002 0 0 0 0v-.025a.07.07 0 0 1 .006-.013s0 0 0-.005v-.064c0-.002 0 0 0 0v-.007c0-.008.006-.016.01-.023a.014.014 0 0 1 0-.008v-.007a.025.025 0 0 0 .006-.013.007.007 0 0 1 0-.005.017.017 0 0 0 0-.008v-.008a.022.022 0 0 1 .006-.015s0-.01 0-.013a.013.013 0 0 1 0-.01c0-.005 0-.01.006-.015a.012.012 0 0 0 0-.008V7.629c0-.004.006-.01.01-.017V7.56a.029.029 0 0 1 .006-.013s0 0 0-.005v-.017c0-.01.006-.013.01-.023a.007.007 0 0 1 0-.005v-.005a.021.021 0 0 0 .006-.013.008.008 0 0 1 0-.007.011.011 0 0 1 0-.007v-.047c0-.01.006-.016.01-.025s0-.008.006-.008 0-.007 0-.007c0-.005.01-.015.013-.022s0 0 0-.007a.009.009 0 0 0 0-.007c0-.009.006-.018.01-.026s0 0 0-.005a.011.011 0 0 1 0-.01.1.1 0 0 1 .013-.026s0-.005 0-.01a.01.01 0 0 0 0-.009c0-.01.006-.017.01-.026l.006-.01v-.007c0-.007.01-.016.013-.022s0 0 0-.005l.006-.008c0-.009.006-.015.01-.025a.01.01 0 0 1 0-.007v-.01a.092.092 0 0 0 .013-.025.01.01 0 0 0 0-.007v-.005c.006-.01.01-.023.016-.033s0 0 0-.005.006-.015.01-.022a.08.08 0 0 1 .006-.01s0-.008 0-.01a.19.19 0 0 0 .013-.026s0-.005 0-.009v-.01a.147.147 0 0 1 .013-.026s0 0 0-.008v-.007a.177.177 0 0 1 .388-.076s0-.005 0-.01.013-.022.019-.031 0 0 0-.007c.013-.025.026-.051.038-.079s.029-.059.045-.088l.045-.086c.016-.029.029-.059.045-.088a.19.19 0 0 1 .022-.041s0-.005 0-.009.013-.023.019-.036 0 0 0-.01.016-.026.022-.041A.218.218 0 0 1 2.99 6.3a.278.278 0 0 1 .022-.043s0-.005 0-.009a.356.356 0 0 0 .019-.036l.045-.083A25.993 25.993 0 0 1 7.27.37a1.205 1.205 0 1 1 1.737 1.672 23.517 23.517 0 0 0-6.075 21.221c.006.039.016.074.022.113a23.8 23.8 0 0 0 6.668 11.938c.4.71.356 1.363.048 1.616a1.429 1.429 0 0 1-.915.338 1.772 1.772 0 0 1-.802-.211Zm5.713-6.344a17.441 17.441 0 0 1-4.9-9.812v-.012a.055.055 0 0 0 0-.013V20.847a.03.03 0 0 0 0-.013v-.041a.02.02 0 0 1 0-.013.017.017 0 0 0 0-.013v-.044a.012.012 0 0 1 0-.01v-.051a.013.013 0 0 0 0-.01v-.107a.017.017 0 0 1 0-.013V20.341a.015.015 0 0 1 0-.01V20.3a.013.013 0 0 1 0-.01v-.116a.01.01 0 0 1 0-.009V20.077a.009.009 0 0 1 0-.009v-.02a.012.012 0 0 0 0-.01v-.031a.01.01 0 0 1 0-.007v-.02a.009.009 0 0 0 0-.009v-.685a.008.008 0 0 1 0-.007v-.127a.01.01 0 0 0 0-.007v-.067a.012.012 0 0 0 0-.01v-.19a.008.008 0 0 0 0-.007v-.131a.013.013 0 0 1 0-.01v-.244a.012.012 0 0 0 0-.01v-.438a.009.009 0 0 0 0-.007V17.793a.01.01 0 0 1 0-.007V17.376a.009.009 0 0 0 0-.009v-.046a.01.01 0 0 0 0-.009v-.27a.017.017 0 0 1 0-.008V16.959a.015.015 0 0 0 0-.01V16.847a.011.011 0 0 1 0-.007v-.031a.015.015 0 0 0 0-.01v-.021a.011.011 0 0 1 0-.009v-.033a.01.01 0 0 0 0-.009v-.017a.018.018 0 0 1 0-.013v-.081a.013.013 0 0 1 0-.01V16.497a.025.025 0 0 1 0-.013v-.016a.013.013 0 0 1 0-.01v-.165a.007.007 0 0 0 0-.005V16.21a.072.072 0 0 1 0-.026V16.142a.021.021 0 0 0 0-.013V16.065a.076.076 0 0 1 0-.026V15.769a.015.015 0 0 0 0-.01.018.018 0 0 1 0-.013v-.066a.01.01 0 0 0 0-.009v-.083a.018.018 0 0 1 0-.013v-.015a.011.011 0 0 0 0-.009.009.009 0 0 1 0-.009v-.074a.018.018 0 0 1 0-.013v-.017a.009.009 0 0 0 0-.009.013.013 0 0 1 0-.011v-.015a.069.069 0 0 1 0-.026.011.011 0 0 1 0-.009v-.013a.013.013 0 0 1 0-.007v-.064a.011.011 0 0 0 0-.007V15.188a.013.013 0 0 0 0-.01v-.088a.018.018 0 0 0 0-.013v-.01a.011.011 0 0 1 0-.01V15.029c0-.008 0-.017.006-.023a.011.011 0 0 1 0-.01V14.954a.015.015 0 0 0 0-.01v-.017a.01.01 0 0 1 0-.007v-.036a.022.022 0 0 0 0-.012.013.013 0 0 0 0-.01v-.01a.012.012 0 0 1 0-.01v-.078a.013.013 0 0 0 0-.01v-.01c0-.01 0-.015.006-.026s0-.008 0-.01V14.637a.023.023 0 0 0 0-.013.01.01 0 0 0 0-.007v-.007A.011.011 0 0 1 9 14.6s0-.007 0-.01v-.013a.01.01 0 0 1 0-.009v-.052a.027.027 0 0 0 0-.013v-.031a.009.009 0 0 0 0-.009.03.03 0 0 0 0-.013v-.013a.01.01 0 0 0 0-.009v-.018c0-.007 0-.016.006-.025s0-.008 0-.013v-.009a.018.018 0 0 1 0-.013v-.057a.012.012 0 0 1 0-.01c0-.01 0-.016.006-.026a.014.014 0 0 1 0-.011v-.087c0-.009 0-.016.006-.026a.011.011 0 0 0 0-.01v-.046a.011.011 0 0 0 0-.009v-.018a.011.011 0 0 1 0-.01.077.077 0 0 1 .006-.026.009.009 0 0 1 0-.009v-.02c0-.003 0-.016.006-.026s0-.007 0-.01v-.01c0-.003 0 0 0 0V13.8a.076.076 0 0 1 .006-.026.033.033 0 0 1 0-.01v-.02a.072.072 0 0 0 .006-.025s0-.005 0-.01a.013.013 0 0 1 0-.01.013.013 0 0 1 0-.01v-.01c0-.005 0-.018.006-.025a.012.012 0 0 0 0-.01.011.011 0 0 0 0-.009.009.009 0 0 1 0-.009.072.072 0 0 1 .006-.026s0-.007 0-.01a.012.012 0 0 0 0-.01v-.01a.184.184 0 0 0 .013-.039s0-.01 0-.013a.021.021 0 0 0 0-.01.02.02 0 0 0 0-.013.071.071 0 0 1 .233-.075s0-.011 0-.013v-.02l.01-.038a.012.012 0 0 0 0-.01.011.011 0 0 0 0-.009.009.009 0 0 1 0-.009c0-.011 0-.016.006-.026s0-.007 0-.01a.012.012 0 0 1 0-.01.012.012 0 0 1 0-.01c0-.01 0-.018.006-.026a.013.013 0 0 0 0-.01v-.02a.011.011 0 0 0 0-.01c0-.009.006-.016.01-.026s0-.005 0-.01a.013.013 0 0 0 0-.011s0-.007.006-.009a.051.051 0 0 1 .006-.022.027.027 0 0 0 0-.013.01.01 0 0 1 0-.009v-.009c0-.01.01-.023.013-.036s0-.008 0-.01a.013.013 0 0 0 0-.01.012.012 0 0 1 0-.01.183.183 0 0 1 .013-.039.018.018 0 0 1 0-.013v-.013a.151.151 0 0 0 .013-.037.018.018 0 0 0 0-.013.018.018 0 0 1 0-.013v-.013a.184.184 0 0 0 .013-.039s0-.007 0-.01a.023.023 0 0 1 0-.013c0-.013.01-.026.013-.039s0-.005 0-.01a.08.08 0 0 0 .006-.01l.016-.047a.011.011 0 0 0 0-.009.009.009 0 0 1 0-.009c0-.013.01-.026.013-.039a.025.025 0 0 0 0-.013c0-.005 0-.01.006-.013s.01-.031.016-.051a.025.025 0 0 1 0-.013v-.009a.153.153 0 0 0 .013-.035v-.026c0-.003.01-.025.016-.038s0-.007 0-.013v-.013a.02.02 0 0 1 0-.013c0-.013.01-.022.013-.035s0-.005.006-.009 0-.01 0-.013l.019-.048s0-.01.006-.013.01-.031.016-.049 0-.009.006-.013c.006-.022.016-.041.022-.063 0 0 0-.008.006-.01l.019-.049a.023.023 0 0 0 0-.013.018.018 0 0 1 0-.013.22.22 0 0 1 .016-.038s0-.007 0-.009 0-.008.006-.01.013-.036.019-.052 0-.005 0-.01a.311.311 0 0 1 .022-.047s0-.008 0-.013a.137.137 0 0 0 .006-.013l.019-.049c.006-.016 0-.01.006-.013.006-.018.016-.041.022-.061a.345.345 0 0 1 .026-.061c.01-.026.019-.052.029-.074a.53.53 0 0 0 .221-.161 17.517 17.517 0 0 1 2.326-3.906 1.207 1.207 0 0 1 1.894 1.5 15.075 15.075 0 0 0 1.157 19.941 1.2 1.2 0 0 1-.86 2.053 1.194 1.194 0 0 1-.851-.357Z" fill="url(#a)"/><path data-name="Union 42" d="M7.953.21A25.518 25.518 0 0 0 .6 13.378a.541.541 0 0 0-.013.061l-.016.064a.037.037 0 0 1 0 .016v.009a.02.02 0 0 0 0 .013v.022a.017.017 0 0 1 0 .013v.012a.017.017 0 0 0 0 .013.02.02 0 0 0 0 .013.025.025 0 0 0 0 .013v.013a3078.861 3078.861 0 0 1-.006.026v.077a.011.011 0 0 0 0 .009v.026a.021.021 0 0 1 0 .013v.012a.021.021 0 0 0 0 .013.025.025 0 0 0 0 .013v.013a.02.02 0 0 1 0 .013v.013a.023.023 0 0 0 0 .013v.013a.022.022 0 0 1 0 .012.035.035 0 0 1 0 .016v.009a.02.02 0 0 0 0 .013v.013a.02.02 0 0 1 0 .013v.013a.023.023 0 0 0 0 .013.049.049 0 0 0 0 .013.033.033 0 0 1 0 .015.01.01 0 0 1 0 .009v.039a.017.017 0 0 1 0 .013v.077a.02.02 0 0 1 0 .013.017.017 0 0 1 0 .013v.026a.021.021 0 0 1 0 .013v.012a.021.021 0 0 0 0 .013v.013a.023.023 0 0 1 0 .013v.022a.02.02 0 0 0 0 .013.025.025 0 0 1 0 .013.021.021 0 0 1 0 .013v.025a.023.023 0 0 1 0 .013v.013a.02.02 0 0 0 0 .013v.052a.022.022 0 0 1 0 .012v.022a.02.02 0 0 1 0 .013v.026a.021.021 0 0 1 0 .013v.025a.023.023 0 0 1 0 .013v.013a.02.02 0 0 0 0 .013v.064a.014.014 0 0 0 0 .011.027.027 0 0 1 0 .015v.013a.02.02 0 0 0 0 .013.011.011 0 0 1 0 .009V14.759a.028.028 0 0 1 0 .013v.024a.023.023 0 0 1 0 .013v.038a.02.02 0 0 0 0 .013.049.049 0 0 0 0 .013v.009a.027.027 0 0 0 0 .015V14.932a.03.03 0 0 1 0 .016V14.983A.023.023 0 0 0 .3 15a.027.027 0 0 1 0 .015v.038a.02.02 0 0 0 0 .013.025.025 0 0 1 0 .013v.037a.017.017 0 0 0 0 .013v.009a.033.033 0 0 0 0 .016V15.202a.023.023 0 0 0 0 .013.027.027 0 0 1 0 .015v.038a.011.011 0 0 0 0 .009v.013a.018.018 0 0 0 0 .013.017.017 0 0 1 0 .013v.015a.01.01 0 0 1 0 .009v.038a.025.025 0 0 0 0 .013v.013a.02.02 0 0 0 0 .013v.013a.018.018 0 0 0 0 .013v.025a.02.02 0 0 1 0 .013V15.577a.02.02 0 0 0 0 .013v.01a.072.072 0 0 0 0 .026.02.02 0 0 0 0 .013v.013a.057.057 0 0 0 0 .025.017.017 0 0 0 0 .013v.01a.066.066 0 0 0 0 .026.023.023 0 0 0 0 .013v.013a.057.057 0 0 0 0 .025.017.017 0 0 0 0 .013v.06a.085.085 0 0 0 0 .028.023.023 0 0 1 0 .013v.039a.025.025 0 0 1 0 .013V16.013a.066.066 0 0 1 0 .025v.052a.016.016 0 0 0 0 .009v.016a.06.06 0 0 0 0 .022.023.023 0 0 1 0 .013V16.209a.066.066 0 0 1 0 .025v.026a.063.063 0 0 0 0 .022.011.011 0 0 1 0 .009v.054a.023.023 0 0 1 0 .013V16.6a.049.049 0 0 1 0 .013v.065a.06.06 0 0 0 0 .022v.124a.057.057 0 0 0 0 .022v.082a.06.06 0 0 1 0 .022v.078a.066.066 0 0 0 0 .025v.013a.019.019 0 0 1 0 .013v.089a.017.017 0 0 0 0 .013v.019a.03.03 0 0 1 0 .016v.009a.159.159 0 0 1 0 .039v.015a.146.146 0 0 1 0 .035v.052a.01.01 0 0 0 0 .009v.041a.017.017 0 0 0 0 .013v.035a.017.017 0 0 1 0 .013v.054a.132.132 0 0 0 0 .035v.064a.159.159 0 0 1 0 .039V18.037a.132.132 0 0 0 0 .035v.064a.159.159 0 0 0 0 .039v.227a.072.072 0 0 0 0 .026V19.2a.236.236 0 0 1 0 .048V19.549a.245.245 0 0 1 0 .048v.353a.245.245 0 0 1 0 .048v.102c0 .035 0 .067.006.1s0 .067.006.1v.047a.3.3 0 0 1 0 .052.021.021 0 0 0 0 .013v.038a.251.251 0 0 1 0 .048 25.98 25.98 0 0 0 .795 4.951s0 .006 0 .009.006.026.01.035v.013c.016.064.032.125.051.188.01.046.022.087.035.132v.018a.184.184 0 0 0 .006.022s0 .006 0 .009l.01.035a.487.487 0 0 1 .016.058l.016.045a.017.017 0 0 0 0 .013.066.066 0 0 0 .006.022s0 .007 0 .009l.01.035c.004.011 0 .007 0 .013a.013.013 0 0 1 0 .009.084.084 0 0 1 .006.026.013.013 0 0 1 0 .009.132.132 0 0 1 .013.032.018.018 0 0 0 0 .013.02.02 0 0 0 0 .013c0 .007 0 .013.006.022s0 .007 0 .013.006.022.01.035a.011.011 0 0 1 0 .009s0 .009.006.013a.059.059 0 0 0 .006.022.02.02 0 0 0 0 .013v.009a.184.184 0 0 1 .006.022.011.011 0 0 1 0 .009.01.01 0 0 1 0 .009.212.212 0 0 0 .01.022.013.013 0 0 0 0 .009.017.017 0 0 0 0 .013c0 .006 0 .015.006.022s0 .006 0 .009a.01.01 0 0 1 0 .009c0 .009.006.015.01.025a.014.014 0 0 0 0 .011.017.017 0 0 0 0 .013c0 .006 0 .015.006.022a.042.042 0 0 0 0 .009.014.014 0 0 1 0 .011.212.212 0 0 1 .01.022.014.014 0 0 0 0 .011v.009c0 .002 0 .016.006.022a.013.013 0 0 1 0 .009.017.017 0 0 1 0 .013.074.074 0 0 0 .006.022s0 .007 0 .013v.009a.077.077 0 0 1 .006.026s0 .007.006.009a.01.01 0 0 0 0 .009c0 .007 0 .013.006.022a.017.017 0 0 1 0 .013.112.112 0 0 1 .013.035s0 .006 0 .009a.027.027 0 0 0 0 .009.141.141 0 0 1 .01.022.025.025 0 0 0 0 .013.011.011 0 0 0 0 .009.184.184 0 0 0 .006.022.011.011 0 0 1 0 .009v.009A.184.184 0 0 1 1.3 27s0 .006 0 .009a.011.011 0 0 1 0 .009.045.045 0 0 0 .006.022s0 .006 0 .009v.009a.141.141 0 0 1 .01.022s0 .006 0 .009v.009a.212.212 0 0 0 .01.022.017.017 0 0 0 0 .013v.009a.054.054 0 0 1 .006.022.013.013 0 0 0 0 .009.013.013 0 0 0 0 .009c0 .009 0 .015.006.022a.023.023 0 0 1 0 .013.013.013 0 0 0 0 .009.137.137 0 0 1 .006.022.01.01 0 0 1 0 .009.017.017 0 0 0 0 .013c0 .009 0 .015.006.022s0 .009 0 .009a.013.013 0 0 0 0 .009c0 .009 0 .015.006.022a.014.014 0 0 1 0 .011v.009c0 .006 0 .015.006.022a.01.01 0 0 1 0 .009.014.014 0 0 0 0 .011c0 .007 0 .013.006.02a.023.023 0 0 1 0 .013.013.013 0 0 0 0 .009c0 .007 0 .013.006.022a.014.014 0 0 1 0 .011v.007a.054.054 0 0 1 .006.022s0 .006.006.009a.014.014 0 0 0 0 .011.049.049 0 0 1 .006.02.014.014 0 0 0 0 .011.013.013 0 0 1 0 .007.014.014 0 0 1 0 .011s0 .006.006.009a.014.014 0 0 0 0 .011v.007a.014.014 0 0 1 0 .011.017.017 0 0 0 0 .013.013.013 0 0 1 0 .007.011.011 0 0 1 0 .007v.024a.012.012 0 0 1 0 .007V27.676a.014.014 0 0 0 0 .011v.009a.014.014 0 0 1 0 .011v.018a.014.014 0 0 1 0 .011.011.011 0 0 0 0 .007.013.013 0 0 0 0 .007V27.763s0 .007.006.011a.013.013 0 0 0 0 .007V27.794c0 .007 0 0 0 0v.016a.014.014 0 0 1 0 .011V27.848a.012.012 0 0 0 0 .007V28.007c0 .007 0 .009.006.013a.013.013 0 0 1 0 .007.012.012 0 0 1 0 .007.008.008 0 0 0 0 .006v.018a.012.012 0 0 1 0 .007s0 .009.006.013a.013.013 0 0 0 0 .007.01.01 0 0 1 0 .009.014.014 0 0 0 0 .011v.007a.014.014 0 0 1 0 .011.021.021 0 0 0 0 .013.01.01 0 0 1 0 .009V28.158a.013.013 0 0 1 0 .007.023.023 0 0 1 0 .013v.007a.013.013 0 0 0 0 .007v.009a.013.013 0 0 0 0 .009v.009a.011.011 0 0 1 0 .009V28.241a.01.01 0 0 1 0 .009v.015a.008.008 0 0 1 0 .006.013.013 0 0 0 0 .009v.009c0 .003 0 0 0 0V28.302a.018.018 0 0 1 0 .013.013.013 0 0 0 0 .009v.006c0 .006 0 0 0 0v.022a.01.01 0 0 1 0 .009s0 .006.006.009v.009s0 .006.006.009 0 .006 0 .009a.008.008 0 0 1 0 .006.011.011 0 0 0 0 .009v.009a.01.01 0 0 0 0 .006v.015c0 .006 0 0 0 0v.009a.016.016 0 0 1 0 .009.011.011 0 0 0 0 .009v.006a.141.141 0 0 1 .01.022.011.011 0 0 1 0 .009v.006a.011.011 0 0 1 0 .009.011.011 0 0 0 0 .009v.012a.027.027 0 0 0 0 .009s0 .006.006.009 0 .007 0 .009v.006c0 .006 0 0 0 0v.013a.013.013 0 0 1 0 .009s0 .007.006.009 0 .007 0 .009 0 .007.006.013 0 .007 0 .009v.009c0 .002 0 .007.006.011v.006l.006.009c.006.009 0 .007 0 .009v.011c0 .004 0 0 0 0V28.705a.015.015 0 0 1 0 .009H2a.01.01 0 0 0 0 .009v.011a.01.01 0 0 1 0 .009v.006a.013.013 0 0 1 0 .007.008.008 0 0 1 0 .006.012.012 0 0 0 0 .007v.024a.013.013 0 0 1 0 .007.01.01 0 0 0 0 .006.012.012 0 0 0 0 .007s0 .011.006.013 0 .006 0 .006a.01.01 0 0 0 0 .009v.007a.017.017 0 0 1 0 .013s0 .007.006.009 0 .007.006.009V28.892c0 .006 0 .007.006.007V28.912s0 .007.006.009V28.934c0 .006 0 .007.006.007V28.954s0 .007.006.013 0 .009.006.009v.012a.014.014 0 0 0 0 .011v.201s0 .009.006.009V29.222s0 .006.006.009a.01.01 0 0 0 0 .006s0 .009.006.009 0 .006 0 .009.006.009.006.013v.006s0 .009.006.009v.023c0 .003 0 0 0 0v.006a.027.027 0 0 0 0 .009v.034c0 .002 0 0 0 0v.045c0 .007 0 .009.006.013s0 0 0 .006V29.469c0 .002 0 0 0 0v.007c0 .007.006.016.01.022a.012.012 0 0 0 0 .007v.007a.03.03 0 0 1 .006.013.008.008 0 0 0 0 .006.013.013 0 0 1 0 .007v.007a.022.022 0 0 0 .006.015s0 .009 0 .013a.013.013 0 0 0 0 .009c0 .006 0 .009.006.015a.012.012 0 0 1 0 .007v.015c0 .003.006.009.01.016v.012a.01.01 0 0 1 0 .006.025.025 0 0 0 .006.013.01.01 0 0 0 0 .006v.015c0 .009.006.013.01.022a.008.008 0 0 0 0 .006v.006a.019.019 0 0 1 .006.013.008.008 0 0 0 0 .006.013.013 0 0 0 0 .007V29.76c0 .009.006.015.01.025s0 .007.006.007 0 .007 0 .007c0 .006.01.015.013.022s0 0 0 .007a.008.008 0 0 1 0 .006c0 .009.006.019.01.026s0 0 0 .006a.011.011 0 0 0 0 .009.1.1 0 0 0 .013.026s0 .006 0 .009a.011.011 0 0 1 0 .009l.01.026a.032.032 0 0 1 .006.009s0 0 0 .007.01.016.013.022 0 0 0 .006l.006.007c0 .009.006.015.01.025a.012.012 0 0 0 0 .007v.009a.091.091 0 0 1 .013.025.012.012 0 0 1 0 .007v.006c.006.009.01.022.016.032s0 0 0 .006.006.015.01.022 0 .006.006.009 0 .007 0 .009a.266.266 0 0 1 .013.026s0 .006 0 .009a.01.01 0 0 0 0 .009.151.151 0 0 0 .013.026s0 0 0 .007v.007a.172.172 0 0 0 .016.035s0 .006 0 .009.013.022.019.032 0 0 0 .006c.013.026.026.052.038.08s.029.058.045.087.029.058.045.086.029.058.045.087a.187.187 0 0 0 .022.041s0 .006 0 .009.013.022.019.035 0 0 0 .009.016.026.022.041a.272.272 0 0 0 .019.033.271.271 0 0 0 .022.042s0 .006 0 .009a.318.318 0 0 1 .019.035l.045.084A26 26 0 0 0 7.27 36.9a1.206 1.206 0 0 0 1.737-1.673A23.516 23.516 0 0 1 2.932 14c.006-.039.016-.074.022-.113A23.8 23.8 0 0 1 9.622 1.953c.4-.709.356-1.363.048-1.615A1.429 1.429 0 0 0 8.756 0a1.767 1.767 0 0 0-.803.21Zm5.713 6.344a17.442 17.442 0 0 0-4.9 9.812v.012a.049.049 0 0 1 0 .013V16.42a.028.028 0 0 1 0 .013v.04a.02.02 0 0 0 0 .013.017.017 0 0 1 0 .013v.044a.011.011 0 0 0 0 .009v.016a.01.01 0 0 0 0 .009v.036a.011.011 0 0 1 0 .009v.073a.01.01 0 0 0 0 .009v.015a.017.017 0 0 0 0 .013V16.927a.013.013 0 0 0 0 .009v.016a.011.011 0 0 0 0 .009v.136a.011.011 0 0 0 0 .009V17.193a.01.01 0 0 0 0 .009v.019a.01.01 0 0 1 0 .009v.032a.012.012 0 0 0 0 .007v.019a.01.01 0 0 1 0 .009V17.4a.01.01 0 0 0 0 .006V17.979a.008.008 0 0 0 0 .006v.129a.008.008 0 0 1 0 .006v.067a.014.014 0 0 1 0 .011v.189a.008.008 0 0 1 0 .006v.132a.011.011 0 0 0 0 .009v.244a.011.011 0 0 1 0 .009v.44a.008.008 0 0 1 0 .006V19.47a.008.008 0 0 0 0 .006v.239a.01.01 0 0 1 0 .009V19.893a.01.01 0 0 1 0 .009v.045a.011.011 0 0 1 0 .009v.189a.01.01 0 0 1 0 .009V20.227a.013.013 0 0 0 0 .007V20.31a.013.013 0 0 1 0 .009v.096a.013.013 0 0 0 0 .007v.032a.013.013 0 0 1 0 .009v.02a.013.013 0 0 0 0 .009v.032a.011.011 0 0 1 0 .009v.016a.017.017 0 0 0 0 .013v.083a.011.011 0 0 0 0 .009V20.763a.023.023 0 0 0 0 .013v.016a.011.011 0 0 0 0 .009v.179a.008.008 0 0 1 0 .006V21a.01.01 0 0 0 0 .009v.045a.01.01 0 0 0 0 .009.072.072 0 0 0 0 .026V21.13a.021.021 0 0 1 0 .013V21.2a.01.01 0 0 0 0 .009.079.079 0 0 0 0 .026V21.5a.013.013 0 0 1 0 .009.02.02 0 0 0 0 .013V21.58a.011.011 0 0 1 0 .009v.08a.02.02 0 0 0 0 .013v.015a.013.013 0 0 1 0 .009.01.01 0 0 0 0 .009V21.813a.02.02 0 0 0 0 .013v.016a.01.01 0 0 1 0 .009.014.014 0 0 0 0 .011v.015a.072.072 0 0 0 0 .026.013.013 0 0 0 0 .009v.013a.01.01 0 0 0 0 .006V22a.013.013 0 0 1 0 .007V22.094a.011.011 0 0 1 0 .009V22.153a.017.017 0 0 1 0 .013v.009a.011.011 0 0 0 0 .009V22.212c0 .007 0 .016.006.022a.011.011 0 0 0 0 .009v.041a.013.013 0 0 1 0 .009v.016a.01.01 0 0 0 0 .006V22.4a.022.022 0 0 1 0 .012.013.013 0 0 1 0 .009v.009a.011.011 0 0 0 0 .009V22.487a.013.013 0 0 1 0 .009v.009c0 .009 0 .015.006.026a.01.01 0 0 0 0 .009v.086a.023.023 0 0 1 0 .013.012.012 0 0 1 0 .007v.006a.013.013 0 0 0 0 .007V22.687a.011.011 0 0 0 0 .009V22.746a.025.025 0 0 1 0 .013v.031a.01.01 0 0 1 0 .009.028.028 0 0 1 0 .013v.013a.011.011 0 0 1 0 .009v.018a.243.243 0 0 1 .006.025s0 .007 0 .013v.009a.02.02 0 0 0 0 .013v.037a.01.01 0 0 0 0 .009.01.01 0 0 0 0 .009.011.011 0 0 0 0 .009c0 .009 0 .016.006.026a.014.014 0 0 0 0 .011V23.026a.01.01 0 0 0 0 .009v.06c0 .009 0 .016.006.026a.011.011 0 0 1 0 .009.01.01 0 0 1 0 .009.01.01 0 0 1 0 .009 5.068 5.068 0 0 1 .006.026.013.013 0 0 1 0 .009v.126a.011.011 0 0 0 0 .009.084.084 0 0 0 .006.026.01.01 0 0 0 0 .009v.018c0 .003 0 .016.006.026a.01.01 0 0 1 0 .009.01.01 0 0 1 0 .009V23.435a.076.076 0 0 0 .386.065.027.027 0 0 0 0 .009v.018a.071.071 0 0 1 .006.025s0 .006 0 .009a.011.011 0 0 0 0 .009.011.011 0 0 0 0 .009v.009c0 .003 0 .019.006.026a.014.014 0 0 1 0 .011.013.013 0 0 1 0 .009.01.01 0 0 0 0 .009.077.077 0 0 0 .006.026s0 .006 0 .009a.01.01 0 0 1 0 .009.01.01 0 0 1 0 .009.184.184 0 0 1 .013.039s0 .009 0 .013a.022.022 0 0 1 0 .009.02.02 0 0 1 0 .013.071.071 0 0 0 .006.025s0 .011 0 .013v.018l.01.039a.014.014 0 0 1 0 .011.013.013 0 0 1 0 .009.01.01 0 0 0 0 .009c0 .011 0 .016.006.026s0 .006 0 .009a.013.013 0 0 0 0 .009.013.013 0 0 0 0 .009c0 .009 0 .019.006.026a.013.013 0 0 1 0 .009.01.01 0 0 0 0 .009V24a.011.011 0 0 1 0 .009l.01.026v.009a.014.014 0 0 1 0 .011s0 .007.006.009a.054.054 0 0 0 .006.022.025.025 0 0 1 0 .013.011.011 0 0 0 0 .009v.009c0 .009.01.022.013.035s0 .007 0 .009a.013.013 0 0 1 0 .009.011.011 0 0 0 0 .009.182.182 0 0 0 .013.039.017.017 0 0 0 0 .013v.013a.156.156 0 0 1 .013.038.017.017 0 0 1 0 .013.02.02 0 0 0 0 .013v.013a.184.184 0 0 1 .013.039.01.01 0 0 1 0 .009.023.023 0 0 0 0 .013c0 .013.01.026.013.039s0 .006 0 .009 0 .006.006.009l.016.047a.013.013 0 0 1 0 .009.01.01 0 0 0 0 .009c0 .013.01.026.013.039a.023.023 0 0 1 0 .013c0 .006 0 .009.006.013s.01.032.016.051a.023.023 0 0 0 0 .013v.009a.157.157 0 0 1 .013.035.017.017 0 0 0 0 .013v.013c0 .004.01.025.016.038s0 .007 0 .013a.017.017 0 0 1 0 .013.02.02 0 0 0 0 .013c0 .013.01.022.013.035s0 .006.006.009 0 .009 0 .013l.019.048s0 .009.006.013.01.032.016.048 0 .009.006.013c.006.022.016.041.022.064 0 0 0 .007.006.009l.019.048a.023.023 0 0 1 0 .013.017.017 0 0 0 0 .013.225.225 0 0 0 .016.038s0 .007 0 .009 0 .007.006.009l.019.052v.009a.315.315 0 0 0 .022.047s0 .007 0 .013 0 .007.006.013l.019.048s0 .009.006.013c.006.019.016.041.022.061a.329.329 0 0 0 .026.06c.01.026.019.052.029.074a.528.528 0 0 1 .026.064 17.512 17.512 0 0 0 2.326 3.906 1.207 1.207 0 0 0 1.894-1.5 15.074 15.074 0 0 1 1.157-19.94 1.206 1.206 0 0 0-1.711-1.7Z" transform="rotate(180 26.075 18.634)" fill="url(#a)"/><circle data-name="Ellipse 374" cx="5.5" cy="5.5" r="5.5" transform="translate(20.575 13)" fill="url(#b)"/></g><g data-name="Group 9616" transform="translate(14.192 44.839)"><rect data-name="Rectangle 2042" width="35.506" height="15.914" rx="7" fill="url(#c)"/><path data-name="Path 14206" d="M10.627 10.875a2.159 2.159 0 0 1-1.59-.549 2.141 2.141 0 0 1-.552-1.587 5.03 5.03 0 0 1 1.333-2.99.382.382 0 0 1 .458-.153 3.493 3.493 0 0 1 .845.442 5.131 5.131 0 0 1 .809.7 3.483 3.483 0 0 1 .61.888 2.215 2.215 0 0 1 .238.964 2.317 2.317 0 0 1-.6 1.642 2.017 2.017 0 0 1-1.551.643Zm-.464-3.564a2.8 2.8 0 0 0-.69 1.373.4.4 0 0 0 .287.4 2.366 2.366 0 0 0 .83.113q1.19 0 1.19-.647a.59.59 0 0 0-.119-.345 1.394 1.394 0 0 0-.269-.287 2.428 2.428 0 0 0-.409-.25q-.259-.131-.412-.2t-.405-.157Zm8.035 2.356a2.733 2.733 0 0 1-2.387 1.245q-2 0-2-1.831a4.239 4.239 0 0 1 .14-.854l.757.079.006.171q.031.623 1.2.623 1.648 0 1.648-.623a.627.627 0 0 0-.037-.2l-.938-2.728.7-.885q.2-.244.247-.241t.131.265a.168.168 0 0 1 .009.021q0 .009.006.021l.006.024a.119.119 0 0 0 .009.024l1.064 3.192q.385 1.147 1.268 1.147h.13q.153 0 .153.592v.446q0 .757-.153.757h-.189a1.685 1.685 0 0 1-1.77-1.245Zm1.9 1.245q-.336 0-.336-.879v-.2q0-.714.336-.714h.629a3.428 3.428 0 0 0 .931-.092.378.378 0 0 0 .3-.391 5.183 5.183 0 0 0-.507-1.687l.83-1.074.113-.143a.106.106 0 0 1 .067-.04.066.066 0 0 1 .067.037l.088.146a4.235 4.235 0 0 1 .537 2.16 3.076 3.076 0 0 1-.684 2.081 2.288 2.288 0 0 1-1.825.793Zm1.014-7.806.946.946-.946.94-.94-.94Zm4.143 0 .946.946-.946.94-.94-.94Zm.684 2.565.116.119a3.15 3.15 0 0 1 .259.357 4.164 4.164 0 0 1 .33.6 4.5 4.5 0 0 1 .259.842 4.98 4.98 0 0 1 .116 1.083 4.331 4.331 0 0 1-.232 1.407 4.24 4.24 0 0 1-.586 1.16 5.372 5.372 0 0 1-.766.842 3.487 3.487 0 0 1-.79.543 1.556 1.556 0 0 1-.641.18 1.12 1.12 0 0 1-.61-.208l-.5-.317a1.264 1.264 0 0 1-.334-.264.117.117 0 0 1 .034-.174 1.656 1.656 0 0 1 .409-.2 6.886 6.886 0 0 0 2.093-1.143 1.9 1.9 0 0 0 .793-1.434 1.854 1.854 0 0 0-.284-.778 8.949 8.949 0 0 0-.759-1.137Z" fill="#fff"/></g></svg>