<svg id="Component_38_2" data-name="Component 38 – 2" xmlns="http://www.w3.org/2000/svg" width="32" height="32" viewBox="0 0 32 32">
  <g id="Group_9603" data-name="Group 9603" transform="translate(-128 -624)">
    <g id="Vector" transform="translate(128 624)" fill="none" opacity="0">
      <path d="M32,0H0V32H32Z" stroke="none"/>
      <path d="M 1.200000762939453 1.200000762939453 L 1.200000762939453 30.79999923706055 L 30.79999923706055 30.79999923706055 L 30.79999923706055 1.200000762939453 L 1.200000762939453 1.200000762939453 M 0 0 L 32 0 L 32 32 L 0 32 L 0 0 Z" stroke="none" fill="#fff"/>
    </g>
    <g id="Path_14198" data-name="Path 14198" transform="translate(132.2 627.514)" fill="none">
      <path d="M12.143,0A12.143,12.143,0,1,1,5.712,22.42C5.689,22.37.5,23.91.5,23.91S2.07,18.872,2.05,18.9A11.865,11.865,0,0,1,0,12.143,12.143,12.143,0,0,1,12.143,0Z" stroke="none"/>
      <path d="M 12.14306640625 -3.814697265625e-06 C 5.436635971069336 -3.814697265625e-06 -3.814697265625e-06 5.436635971069336 -3.814697265625e-06 12.14306640625 C -3.814697265625e-06 14.74515628814697 0.8184566497802734 17.15609741210938 2.050445556640625 18.89760589599609 C 2.069765090942383 18.87229919433594 0.5044364929199219 23.91030693054199 0.5044364929199219 23.91030693054199 C 0.5044364929199219 23.91030693054199 5.689355850219727 22.36961364746094 5.711505889892578 22.41977691650391 C 7.78753662109375 23.67463684082031 9.893886566162109 24.28613662719727 12.14306640625 24.28613662719727 C 18.84949684143066 24.28613662719727 24.28613662719727 18.84949684143066 24.28613662719727 12.14306640625 C 24.28613662719727 5.436635971069336 18.84949684143066 -3.814697265625e-06 12.14306640625 -3.814697265625e-06 M 12.14306640625 -1.200002670288086 C 15.70712661743164 -1.200002670288086 19.0578670501709 0.1879158020019531 21.57803726196289 2.708095550537109 C 24.09821701049805 5.228265762329102 25.48613739013672 8.579006195068359 25.48613739013672 12.14306640625 C 25.48613739013672 15.70712661743164 24.09821701049805 19.0578670501709 21.57803726196289 21.57803726196289 C 19.0578670501709 24.09821701049805 15.70712661743164 25.48613739013672 12.14306640625 25.48613739013672 C 9.825323104858398 25.48613739013672 7.654991149902344 24.90109443664551 5.524211883544922 23.69992065429688 C 4.616128921508789 23.94964027404785 2.413364410400391 24.59495162963867 0.8462257385253906 25.06059646606445 L -1.308383941650391 25.7008056640625 L -0.6415328979492188 23.55429649353027 C -0.1892204284667969 22.09832191467285 0.4485092163085938 20.04058837890625 0.7390174865722656 19.09266662597656 C -0.4984512329101562 17.12004089355469 -1.200002670288086 14.62245273590088 -1.200002670288086 12.14306640625 C -1.200002670288086 8.579006195068359 0.1879158020019531 5.228265762329102 2.708095550537109 2.708095550537109 C 5.228265762329102 0.1879158020019531 8.579006195068359 -1.200002670288086 12.14306640625 -1.200002670288086 Z" stroke="none" fill="#fff"/>
    </g>
  </g>
  <g id="Group_9604" data-name="Group 9604" transform="translate(-127.285 -624.249)">
    <path id="Polygon_1_-_Outline" data-name="Polygon 1 - Outline" d="M10.213,5.474a1.841,1.841,0,0,0-1.6.918l-4.045,6.9a1.858,1.858,0,0,0,1.6,2.8h8.091a1.858,1.858,0,0,0,1.6-2.8l-4.045-6.9a1.841,1.841,0,0,0-1.6-.918m0-.587A2.423,2.423,0,0,1,12.322,6.1L16.368,13a2.445,2.445,0,0,1-2.109,3.681H6.168A2.445,2.445,0,0,1,4.059,13L8.1,6.1A2.423,2.423,0,0,1,10.213,4.887Z" transform="translate(133.566 627.962)" fill="#fff" stroke="#fff" stroke-width="0.6"/>
    <path id="Vector-2" data-name="Vector" d="M1.88,0H0" transform="translate(143.78 636.864) rotate(90)" fill="none" stroke="#fff" stroke-linecap="round" stroke-linejoin="round" stroke-width="1.5"/>
    <path id="Path_14199" data-name="Path 14199" d="M1.134-.773A.787.787,0,1,1,.347.014.787.787,0,0,1,1.134-.773Z" transform="translate(142.646 641.576)" fill="#fff"/>
  </g>
</svg>
