<svg data-name="Component 62 – 4" xmlns="http://www.w3.org/2000/svg" width="64" height="64"><defs><linearGradient id="a" x1=".5" x2=".5" y2="1" gradientUnits="objectBoundingBox"><stop offset="0" stop-color="#1ec8c4"/><stop offset="1" stop-color="#016a63"/></linearGradient></defs><path data-name="Rectangle 2010" fill="none" d="M0 0h64v64H0z"/><g data-name="Group 9611" transform="translate(4.193 2.512)"><rect data-name="Rectangle 2040" width="41.143" height="53.342" rx="6" transform="translate(0 6.989)" fill="#efeee8" stroke="#e4dfd8" opacity=".3"/><rect data-name="Rectangle 2025" width="41.143" height="53.342" rx="6" transform="translate(4.571 3.56)" fill="#f3f3ee" stroke="#e4dfd8"/><g data-name="Group 9528" transform="translate(9.521)"><rect data-name="Rectangle 2023" width="41.838" height="53.342" rx="6" fill="#fff" stroke="#e4dfd8"/></g><g data-name="5"><g data-name="#f8fafbff"><g data-name="Path 14172" fill="#fff"><path d="M52.088 45.53a7.049 7.049 0 0 1-5.198.727l-.005-.001-.006-.002c-2.348-.647-4.738-1.3-7.05-1.932l-4.125-1.13a.95.95 0 0 1-.6-.392.824.824 0 0 1-.127-.649c.142-.689.594-1.298 1.24-1.671a2.52 2.52 0 0 1 1.708-.313l.007.001.008.002c.57.122 1.143.259 1.698.392.516.123 1.049.25 1.573.364a.098.098 0 0 0 .02-.032l-.005-.007-.013-.022c-1.096-1.904-2.01-3.429-2.893-4.903-.864-1.443-1.758-2.934-2.829-4.791a1.784 1.784 0 0 1 .112-2.031c.13-.169.29-.31.48-.419a1.735 1.735 0 0 1 1.689-.033c.472.233.713.664.908 1.01l.087.155c.634 1.097 1.055 1.773 1.501 2.49.423.678.86 1.38 1.488 2.462l.009.016.008.016a.05.05 0 0 0 .026.012l.008-.003.008-.003a.063.063 0 0 0 .009-.019 16.42 16.42 0 0 0-.48-.849 18.168 18.168 0 0 1-.487-.862l-.002-.003-.002-.003c-.361-.722-.143-1.664.497-2.15.061-.048.127-.093.196-.133a1.76 1.76 0 0 1 1.835.067c.37.236.57.596.732.886.041.074.08.144.12.21l.002.003.003.004c.142.242.283.49.42.729.212.373.432.758.658 1.126.01 0 .023-.003.034-.008 0-.076-.092-.216-.173-.34a2.78 2.78 0 0 1-.213-.37 4.719 4.719 0 0 0-.24-.411c-.257-.41-.549-.876-.512-1.48.025-.577.36-1.119.874-1.416.218-.126.463-.202.708-.218.617-.052 1.24.24 1.586.746l.005.007.005.008c.252.398.485.81.71 1.207.24.426.489.866.756 1.277a.108.108 0 0 0 .025-.014c-.088-.212-.216-.42-.351-.64-.187-.305-.381-.621-.503-.996l-.003-.011-.004-.011c-.203-.745.14-1.569.819-1.96.154-.09.32-.151.492-.185a1.78 1.78 0 0 1 1.911.872c1.123 1.941 2.26 3.91 3.379 5.853a7.204 7.204 0 0 1 .877 4.818 7.023 7.023 0 0 1-3.41 4.953Z"/><path d="M36.333 29.154a1.13 1.13 0 0 0-.336.294 1.288 1.288 0 0 0-.077 1.466c2.17 3.764 3.559 5.936 5.726 9.702.256.354-.099.903-.529.801-1.097-.238-2.185-.523-3.282-.758-1.048-.192-2.157.554-2.37 1.598-.051.22.14.416.348.447 3.733 1.023 7.469 2.04 11.2 3.068 1.827.46 3.848.081 5.372-1.03 1.393-.993 2.346-2.564 2.62-4.249a6.75 6.75 0 0 0-.817-4.485 3846.519 3846.519 0 0 0-3.382-5.856c-.26-.477-.841-.75-1.373-.629-.672.128-1.108.873-.93 1.524.197.608.656 1.095.877 1.692.109.478-.557.83-.89.468-.548-.831-.99-1.731-1.522-2.572a1.266 1.266 0 0 0-1.136-.53c-.596.037-1.097.566-1.121 1.16-.04.632.446 1.119.706 1.654.15.336.504.644.42 1.041-.086.417-.706.534-.932.174-.382-.619-.73-1.26-1.098-1.887-.203-.331-.358-.723-.7-.938-.429-.294-1.043-.284-1.45.043-.459.344-.612 1.02-.357 1.53.308.593.682 1.149.984 1.745.117.254-.029.586-.29.682a.53.53 0 0 1-.67-.253c-1.263-2.177-1.73-2.772-2.989-4.951-.21-.36-.396-.782-.793-.973a1.247 1.247 0 0 0-1.21.022m-.5-.866a2.238 2.238 0 0 1 2.17-.044c.606.302.899.826 1.114 1.21.028.05.055.099.083.146.461.8.81 1.374 1.137 1.904.144-.366.384-.695.707-.942.08-.062.165-.12.253-.171a2.27 2.27 0 0 1 2.536.21c.175-.5.53-.936 1.004-1.21a2.15 2.15 0 0 1 .92-.284 2.283 2.283 0 0 1 1.884.766 2.26 2.26 0 0 1 .949-1.087c.2-.116.415-.197.639-.242.948-.208 1.974.258 2.45 1.116 1.122 1.94 2.258 3.908 3.376 5.85a7.703 7.703 0 0 1 .937 5.149c-.321 1.97-1.422 3.753-3.021 4.894a7.154 7.154 0 0 1-.632.41 7.553 7.553 0 0 1-5.57.78l-.021-.006c-2.348-.647-4.738-1.301-7.049-1.933l-4.109-1.124a1.438 1.438 0 0 1-.9-.6 1.318 1.318 0 0 1-.201-1.033c.171-.827.71-1.556 1.48-2a3.02 3.02 0 0 1 2.047-.372l.03.006c.575.123 1.152.26 1.71.394.162.04.326.078.491.117-.864-1.485-1.62-2.747-2.355-3.973-.864-1.443-1.758-2.934-2.83-4.792a2.29 2.29 0 0 1 .149-2.596 2.12 2.12 0 0 1 .623-.543Z" fill="#d9d2c8"/></g></g></g><path data-name="Union 36" d="M4.571 10.548v-3.53H1.143a1.143 1.143 0 0 1 0-2.286h3.428V1.143a1.143 1.143 0 1 1 2.286 0v3.589h3.357a1.143 1.143 0 1 1 0 2.286H6.857v3.53a1.143 1.143 0 0 1-2.286 0Z" transform="translate(24.378 19.364)" fill="url(#a)"/></g></svg>