<svg xmlns="http://www.w3.org/2000/svg" width="26.639" height="27.42" viewBox="0 0 26.639 27.42">
  <g id="Component_34_3" data-name="Component 34 – 3" transform="translate(0.603 0.6)">
    <g id="Group_9602" data-name="Group 9602" transform="translate(-78.566 -416)">
      <path id="Vector" d="M25.411,4.333,24.886,10.9c-.2,2.009-.354,3.545-3.913,3.545H4.457C.9,14.443.741,12.907.544,10.9L.019,4.333A3.98,3.98,0,0,1,.872,1.457L.9,1.431A3.905,3.905,0,0,1,3.931,0H21.5a3.892,3.892,0,0,1,3.007,1.4c.013.013.026.026.026.039A3.841,3.841,0,0,1,25.411,4.333Z" transform="translate(78.566 427.777)" fill="none" stroke="#fff" stroke-width="1.2"/>
      <path id="Vector-2" data-name="Vector" d="M0,12.342V5.58C0,1.116,1.116,0,5.58,0H7.247A2.648,2.648,0,0,1,9.926,1.339l1.667,2.232a1.775,1.775,0,0,0,1.786.893h3.348c4.464,0,5.58,1.116,5.58,5.58v2.35" transform="translate(80.122 416)" fill="none" stroke="#fff" stroke-width="1.2"/>
      <path id="Vector-3" data-name="Vector" d="M0,0H6.749" transform="translate(87.907 435.655)" fill="none" stroke="#fff" stroke-width="1.2"/>
    </g>
  </g>
</svg>
