<svg id="Component_65_2" data-name="Component 65 – 2" xmlns="http://www.w3.org/2000/svg" xmlns:xlink="http://www.w3.org/1999/xlink" width="64.899" height="64" viewBox="0 0 64.899 64">
  <defs>
    <linearGradient id="linear-gradient" x1="0.5" x2="0.5" y2="1" gradientUnits="objectBoundingBox">
      <stop offset="0" stop-color="#efe8df"/>
      <stop offset="1" stop-color="#d2cabe"/>
    </linearGradient>
    <linearGradient id="linear-gradient-2" x1="0.5" x2="0.5" y2="1" gradientUnits="objectBoundingBox">
      <stop offset="0" stop-color="#1ec8c4"/>
      <stop offset="1" stop-color="#016a63"/>
    </linearGradient>
  </defs>
  <rect id="line-graph" width="64" height="64" transform="translate(0.899)" fill="none"/>
  <g id="_651613" data-name="651613" transform="translate(2.431 2.627)">
    <g id="_f7fafbff" data-name="#f7fafbff" transform="translate(46.356 51.595)">
      <path id="Path_14209" data-name="Path 14209" d="M295.972,351.321a1.889,1.889,0,0,1,1.514.181,1.7,1.7,0,0,1,.538,2.3,1.68,1.68,0,0,1-2.068.744,1.71,1.71,0,0,1,.016-3.222Z" transform="translate(-294.83 -351.248)" fill="#f7fafb"/>
    </g>
    <g id="_000000ff" data-name="#000000ff" transform="translate(0 0)">
      <path id="Path_14210" data-name="Path 14210" d="M23.772,33.768A29.21,29.21,0,0,1,35.8,30.606,29.581,29.581,0,0,1,49.97,33.62a3.57,3.57,0,0,1,2.4-1.037,3.7,3.7,0,0,1,3.713,3.163,5.113,5.113,0,0,1-.175,1.835c.669.534,1.263,1.15,1.894,1.724a6.107,6.107,0,0,1,2.055-.261,3.654,3.654,0,0,1,3.042,2.58,3.472,3.472,0,0,1-.734,3.388,29.506,29.506,0,0,1-5.79,36.93,3.9,3.9,0,0,1,.2,2.49,3.669,3.669,0,0,1-3.079,2.649,3.554,3.554,0,0,1-3.017-1.07A28.62,28.62,0,0,1,38.662,89.3a29.118,29.118,0,0,1-15.139-3.278,3.654,3.654,0,0,1-2.232.943,3.7,3.7,0,0,1-3.754-2.872,3.461,3.461,0,0,1,.174-2.053A29.637,29.637,0,0,1,7.786,60.983a7.2,7.2,0,0,0-.064-1.242,3.7,3.7,0,0,1-2.144-1.585,3.775,3.775,0,0,1,.586-4.573A4.066,4.066,0,0,1,8.708,52.55,28.2,28.2,0,0,1,12.3,44.281c.575-.787,1.924.167,1.467.975a27.9,27.9,0,0,0-2.921,6.349,5.606,5.606,0,0,0-.368,1.483A4.1,4.1,0,0,1,11.857,54.5c1.137-.167,2.248-.5,3.4-.578a53.141,53.141,0,0,1,7.824-.616,3.726,3.726,0,0,1,4.342-1.978,43.2,43.2,0,0,1,6.329-6.849,4.923,4.923,0,0,1-.276-2.69,40.178,40.178,0,0,0-9.132-3.954,3.714,3.714,0,0,1-5.382,1.333c-.65.613-1.322,1.206-1.921,1.87a6.941,6.941,0,0,1-.965.981.956.956,0,0,1-1.2-1.231,28.046,28.046,0,0,1,2.915-2.971,4.093,4.093,0,0,1-.223-2.486,3.626,3.626,0,0,1,6.2-1.563m.83,1.6q.057.358.11.717a40.393,40.393,0,0,1,9.422,4.017.378.378,0,0,0,.51-.064,3.587,3.587,0,0,1,4.009-.473c.363.14.607.47.959.624a4.444,4.444,0,0,0,.943-.486,40.814,40.814,0,0,1,8.207-3.469c.231-.29.147-.728.26-1.074a27.417,27.417,0,0,0-9.226-2.647,41.4,41.4,0,0,0-5.605,0A26.7,26.7,0,0,0,24.6,35.372m27.375-.937a2.079,2.079,0,0,0-1.062.884,1.824,1.824,0,1,0,3.345,1.387,1.856,1.856,0,0,0-2.283-2.271m-31.592.073a1.842,1.842,0,0,0-1.11,1.394,1.836,1.836,0,1,0,3.535-.293,1.844,1.844,0,0,0-2.424-1.1M40.5,41.8A3.539,3.539,0,0,1,40.4,44c-.035.175-.229.422-.043.57A41.5,41.5,0,0,1,50.411,57.776c.086.161.186.312.285.467a4.481,4.481,0,0,1,1.486.053,55.075,55.075,0,0,0,5.492-12.434,3.788,3.788,0,0,1-1.206-5.339c-.522-.522-1.067-1.019-1.625-1.5A3.709,3.709,0,0,1,49.3,37.951,39.111,39.111,0,0,0,40.5,41.8m18.285-.868a1.861,1.861,0,0,0-.631,3.044,1.914,1.914,0,0,0,1.91.413,1.838,1.838,0,0,0,1.168-1.794,1.811,1.811,0,0,0-2.447-1.663m-22.6.2a1.87,1.87,0,0,0-.9,2.294,1.816,1.816,0,0,0,2.381,1.064,1.862,1.862,0,0,0,.648-2.976,1.9,1.9,0,0,0-2.13-.382m-1.265,4.686a40.213,40.213,0,0,0-5.94,6.451,4.613,4.613,0,0,1,.847,1.407,55.7,55.7,0,0,1,18.474,5.548c.284.22.47-.167.667-.319a40.514,40.514,0,0,0-9.906-13.1,3.968,3.968,0,0,1-4.143.008m24.444.521a54.556,54.556,0,0,1-5.639,12.871,3.819,3.819,0,0,1,.9,3.713,57.762,57.762,0,0,1,8.092,6.644,27.529,27.529,0,0,0-2.034-23.5,6.257,6.257,0,0,1-1.314.272M25.831,53.053a1.93,1.93,0,0,0-1.086.981,1.828,1.828,0,1,0,3.466,1.005,1.865,1.865,0,0,0-2.38-1.986M8.009,54.5A1.912,1.912,0,0,0,6.838,56.47a1.843,1.843,0,0,0,2.354,1.507,1.823,1.823,0,0,0,1.024-2.7A1.856,1.856,0,0,0,8.009,54.5m7.149,1.356c-.962.075-1.911.245-2.861.414a3.947,3.947,0,0,1-.629,2.05,3.9,3.9,0,0,1-2.1,1.443A26.421,26.421,0,0,0,10.637,67a29.082,29.082,0,0,0,8.1,13.533c.3-.2.618-.389.938-.564a47.315,47.315,0,0,1,.15-9.627,41.483,41.483,0,0,1,3.958-12.974,4.07,4.07,0,0,1-1-2.283,71,71,0,0,0-7.619.768m14.8-.346a3.938,3.938,0,0,1-1.024,1.875,3.652,3.652,0,0,1-3.584.9A37.586,37.586,0,0,0,22.59,65.53a38.722,38.722,0,0,0-1.082,14.2,3.632,3.632,0,0,1,2.639,1.642A54.243,54.243,0,0,0,48.267,63.963a3.736,3.736,0,0,1-.6-3.071A53.8,53.8,0,0,0,29.96,55.506m20.715,4.54a1.829,1.829,0,1,0,1.948,2.882,1.833,1.833,0,0,0-1.948-2.882m2.4,4.873c.147.637.365,1.258.471,1.905a20.971,20.971,0,0,1,.513,3.022.884.884,0,0,1-1.5.6,1.933,1.933,0,0,1-.363-1.056,32.543,32.543,0,0,0-.828-3.936,3.712,3.712,0,0,1-1.717-.342A60.75,60.75,0,0,1,45,70.285,56.355,56.355,0,0,1,24.72,83.1a5.813,5.813,0,0,1-.217,1.422,25.639,25.639,0,0,0,3.869,1.623,27.477,27.477,0,0,0,21.209-1.653,3.708,3.708,0,0,1,2.238-4.4c.233-.116.542-.107.714-.317.124-1.606-.907-10.893-.9-12.5a.921.921,0,0,1,1.754-.2c.078,1.77,1.114,11.227.905,12.989a6.341,6.341,0,0,1,.959.507,27.708,27.708,0,0,0,6.736-9.188,53.067,53.067,0,0,0-8.334-6.931c-.188.161-.379.32-.573.475M20.569,81.568a1.833,1.833,0,0,0,.247,3.573,1.836,1.836,0,1,0-.247-3.573m31.875.175a1.834,1.834,0,0,0-.018,3.455,1.8,1.8,0,0,0,2.217-.8,1.827,1.827,0,0,0-.577-2.463A2.026,2.026,0,0,0,52.444,81.743Z" transform="translate(-5.062 -30.587)" fill="url(#linear-gradient)"/>
    </g>
  </g>
  <g id="Group_9688" data-name="Group 9688" transform="translate(40.419 24.565)">
    <path id="Vector" d="M.221,6.3a7.935,7.935,0,0,1,15.531.01c1.066,4.93-2.959,9.1-5.526,11.684-1.863,1.883-2.616,1.883-4.488,0C3.18,15.411-.845,11.228.221,6.3Z" transform="translate(-0.045 0)" fill="url(#linear-gradient-2)"/>
    <path id="Vector-2" data-name="Vector" d="M5.7,2.982A2.918,2.918,0,0,1,2.848,5.965,2.918,2.918,0,0,1,0,2.982,2.918,2.918,0,0,1,2.848,0,2.918,2.918,0,0,1,5.7,2.982Z" transform="translate(5.094 5.19)" fill="#fff"/>
  </g>
  <g id="Group_9689" data-name="Group 9689" transform="translate(0 22.728)">
    <path id="Vector-3" data-name="Vector" d="M.174,4.644a5.851,5.851,0,0,1,11.451.007c.786,3.635-2.182,6.711-4.074,8.615-1.373,1.388-1.929,1.388-3.309,0C2.356,11.362-.611,8.278.174,4.644Z" transform="translate(-0.045 0)" fill="url(#linear-gradient-2)"/>
    <path id="Vector-4" data-name="Vector" d="M4.2,2.2A2.151,2.151,0,0,1,2.1,4.4,2.151,2.151,0,0,1,0,2.2,2.151,2.151,0,0,1,2.1,0,2.151,2.151,0,0,1,4.2,2.2Z" transform="translate(3.756 3.827)" fill="#fff"/>
  </g>
  <g id="Group_9690" data-name="Group 9690" transform="translate(14.099 3.729)">
    <path id="Vector-5" data-name="Vector" d="M.141,3.43A4.321,4.321,0,0,1,8.6,3.435C9.179,6.12,6.987,8.392,5.589,9.8c-1.014,1.025-1.425,1.025-2.444,0C1.752,8.392-.44,6.115.141,3.43Z" transform="translate(-0.045 0)" fill="url(#linear-gradient-2)"/>
    <path id="Vector-6" data-name="Vector" d="M3.1,1.624A1.589,1.589,0,0,1,1.551,3.248,1.589,1.589,0,0,1,0,1.624,1.589,1.589,0,0,1,1.551,0,1.589,1.589,0,0,1,3.1,1.624Z" transform="translate(2.774 2.826)" fill="#fff"/>
  </g>
</svg>
