<svg id="Component_61_4" data-name="Component 61 – 4" xmlns="http://www.w3.org/2000/svg" xmlns:xlink="http://www.w3.org/1999/xlink" width="64" height="64" viewBox="0 0 64 64">
  <defs>
    <linearGradient id="linear-gradient" x1="0.5" x2="0.5" y2="1" gradientUnits="objectBoundingBox">
      <stop offset="0" stop-color="#efe8df"/>
      <stop offset="1" stop-color="#d2cabe"/>
    </linearGradient>
    <linearGradient id="linear-gradient-3" x1="0.5" x2="0.5" y2="1" gradientUnits="objectBoundingBox">
      <stop offset="0" stop-color="#1ec8c4"/>
      <stop offset="1" stop-color="#016a63"/>
    </linearGradient>
  </defs>
  <rect id="line-graph" width="64" height="64" fill="none"/>
  <g id="Group_9513" data-name="Group 9513" transform="translate(1.143 3.43)">
    <path id="Rectangle_2014" data-name="Rectangle 2014" d="M8,0H54a8,8,0,0,1,8,8V38a0,0,0,0,1,0,0H0a0,0,0,0,1,0,0V8A8,8,0,0,1,8,0Z" transform="translate(-0.143 -0.43)" fill="#fff" stroke="#e4dfd8" stroke-width="1"/>
    <path id="Path_14202" data-name="Path 14202" d="M0,2H61.714c0,5.049-4.093,6.857-9.143,6.857H9.143C4.093,8.857,0,7.049,0,2Z" transform="translate(0 35.714)" fill="#fff" stroke="#e4dfd8" stroke-width="1"/>
    <rect id="Rectangle_2017" data-name="Rectangle 2017" width="13" height="9" transform="translate(24.857 44.57)" fill="url(#linear-gradient)"/>
    <path id="Rectangle_2016" data-name="Rectangle 2016" d="M4,0H26a4,4,0,0,1,4,4V4a0,0,0,0,1,0,0H0A0,0,0,0,1,0,4V4A4,4,0,0,1,4,0Z" transform="translate(16.857 53.57)" fill="url(#linear-gradient)"/>
    <g id="Group_9513-2" data-name="Group 9513" transform="translate(6.858 6.856)">
      <line id="Line_627" data-name="Line 627" y1="8.66" x2="6.928" transform="translate(2.685 1.58)" fill="none" stroke="#d9d2c8" stroke-width="1"/>
      <line id="Line_628" data-name="Line 628" y1="4.606" x2="4.33" transform="translate(16.854 5.108)" fill="none" stroke="#d9d2c8" stroke-width="1"/>
      <line id="Line_629" data-name="Line 629" x1="5.196" y1="6.351" transform="translate(10.202 2.44)" fill="none" stroke="#d9d2c8" stroke-width="1"/>
      <path id="Union_39" data-name="Union 39" d="M0,11.227A1.744,1.744,0,0,1,1.715,9.454a1.774,1.774,0,0,1,0,3.545A1.744,1.744,0,0,1,0,11.227Zm14.855-1.182a1.716,1.716,0,1,1,1.715,1.772A1.747,1.747,0,0,1,14.855,10.045Zm5.715-5.908a1.716,1.716,0,1,1,3.429,0,1.716,1.716,0,1,1-3.429,0ZM8,1.772a1.716,1.716,0,1,1,3.429,0A1.716,1.716,0,1,1,8,1.772Z" transform="translate(-0.001 -0.286)" fill="url(#linear-gradient-3)"/>
    </g>
    <g id="Group_9514" data-name="Group 9514" transform="translate(35.428 7.999)">
      <rect id="Rectangle_2013" data-name="Rectangle 2013" width="20" height="21" rx="10" transform="translate(0.429 -0.429)" fill="url(#linear-gradient)"/>
      <path id="Path_14140" data-name="Path 14140" d="M8.609,0C4.729,0,3.131,3.05,2.5,5.533c-.345,1.035,3.546,2.906,6,2.908s6.533-1.406,6.181-3.1C14.215,3.1,12.767,0,8.609,0Z" transform="translate(1.699 12.287)" fill="#fff"/>
      <circle id="Ellipse_368" data-name="Ellipse 368" cx="3" cy="3" r="3" transform="translate(7.429 4.571)" fill="#fff"/>
    </g>
    <line id="Line_630" data-name="Line 630" x2="21.191" transform="translate(9.667 23.878)" fill="none" stroke="#009c98" stroke-width="1"/>
    <line id="Line_631" data-name="Line 631" x2="14.614" transform="translate(16.244 27.427)" fill="none" stroke="#009c98" stroke-width="1"/>
  </g>
</svg>
