<svg id="folder-minus" xmlns="http://www.w3.org/2000/svg" width="32" height="32" viewBox="0 0 32 32">
  <path id="Vector" d="M0,32H32V0H0Z" fill="none" opacity="0"/>
  <g id="_7100e6ff" data-name="#7100e6ff" transform="translate(0.843 2.333)">
    <path id="Path_14195" data-name="Path 14195" d="M23.186,18.277a.8.8,0,0,1,.987-.736c.294.087.475.376.7.573a2.257,2.257,0,0,0,2.8-.031c.177-.146.295-.368.49-.487a.514.514,0,0,1,.658.214c.093.238.121.5.219.738a6.151,6.151,0,0,0,4.619,3.918,5.705,5.705,0,0,0,3.208-.4,12.086,12.086,0,0,0,1.773-1.228,5.65,5.65,0,0,1,3.17-.9,5.869,5.869,0,0,1,2.308.558,15.194,15.194,0,0,1,1.9,1.4,3.552,3.552,0,0,0,1.208.519,1.425,1.425,0,0,1,.9,2.3,2.147,2.147,0,0,1-.63.6,8.6,8.6,0,0,1-.161,2.689,4.676,4.676,0,0,0-.265,1.626,2.562,2.562,0,0,0,.873,1.875,4,4,0,0,0,.85.522.583.583,0,0,1,.264.738,3.716,3.716,0,0,0-.358.8,2.942,2.942,0,0,0,.279,2.173c.368.628,1,.979,1.412,1.57a2.322,2.322,0,0,1,.278,1.41,2.766,2.766,0,0,1-.48,1.389q-.6.905-1.189,1.811c-.119.164-.249.384-.464.377-1.5,0-3,0-4.506,0a1.2,1.2,0,0,1-1.092-.6,7.677,7.677,0,0,0-.486-.992,2.316,2.316,0,0,0-2.728-.911,4.468,4.468,0,0,1-1.925.254,6.11,6.11,0,0,1-5.181-4.244c-.09-.3-.118-.627-.207-.932a1.4,1.4,0,0,0-1.082-.959,1.8,1.8,0,0,0-1.019.236,1.273,1.273,0,0,1-1.29-.381,1.709,1.709,0,0,1-.368-1.148,4.33,4.33,0,0,0-.857-2.638,4.665,4.665,0,0,0-1.623-1.336,2,2,0,0,1-1-.976,1.348,1.348,0,0,1,.1-1.051,5.729,5.729,0,0,1,.469-.644,1.58,1.58,0,0,0,.02-1.825c-.253-.353-.535-.68-.785-1.036A13,13,0,0,1,23.363,19.3,3.934,3.934,0,0,1,23.186,18.277Z" transform="translate(-21.776 -16.239)" fill="none" stroke="#fff" stroke-width="1.2"/>
  </g>
</svg>
