<svg xmlns="http://www.w3.org/2000/svg" width="135.509" height="76.367"><path data-name="Path 13579" d="M98.593 0a2.778 2.778 0 0 1 1.721 1.093 3.364 3.364 0 0 1 .882 3.093 10.8 10.8 0 0 1-1.707 2.958 2.832 2.832 0 0 1-1.078.986c-.839-.348-1.331-1.192-1.984-1.789-.36-.424-.937-.735-1.056-1.311a4.323 4.323 0 0 1 .478-1.034A35.171 35.171 0 0 1 97.932.664 2.38 2.38 0 0 1 98.593 0Z" fill="#009c98"/><path data-name="Path 13580" d="M25.238 7.205c.659-.7 1.338-1.677 2.412-1.652a8.777 8.777 0 0 1 3.887 2.854 2.437 2.437 0 0 1 .559 2.022 5.034 5.034 0 0 1-1.7 2.437 9.789 9.789 0 0 1-3.425 2.039 60 60 0 0 0-7.233 2.162 24.181 24.181 0 0 0-3.866 2.243 9.562 9.562 0 0 0-2.909 2.486c-.3.41-.478 1.094.031 1.429a11.54 11.54 0 0 0 2.814.919 32.307 32.307 0 0 0 7.087.764q6.59.157 13.185-.029c8.586-.3 17.119-1.35 25.649-2.314 15.134-1.782 30.267-3.625 45.443-5.02 1.91-.147 3.821-.353 5.738-.375.422.049 1.1.012 1.231.535.056.762-.62 1.309-1.172 1.723-.934.713-2.162.613-3.236.941-5.069 1.3-10.243 2.1-15.359 3.171-1.681.333-3.364.662-5.069.851-3.873.346-7.665 1.24-11.511 1.775-12.3 1.765-24.625 3.372-36.982 4.692-3.871.471-7.768.677-11.665.814-3.942.122-7.893.287-11.834.02-.311 1.471-.6 2.948-.853 4.431a73.758 73.758 0 0 0-1.106 7.923 4.313 4.313 0 0 0 5.527 4.726c1.748-.228 2.8-1.853 4.393-2.437.741-.132 1.488.392 2.219.122.939-.635 1.116-1.886 1.856-2.692.453-.193.894.191 1.331.282a1 1 0 0 0 1.157-.336 16.539 16.539 0 0 0 1.344-2.381c.107-.152.22-.406.426-.218a1.5 1.5 0 0 1 .056.888 8.806 8.806 0 0 1-3.075 5.524 3.6 3.6 0 0 1-1.828.694c-.8.814-1.47 1.905-2.633 2.226-.738.064-1.454-.367-2.2-.2a3.662 3.662 0 0 0-1.926 1.183c-1.255 1.167-2.282 2.662-3.905 3.356a4.162 4.162 0 0 1-5.179-1.429 19.4 19.4 0 0 1-5.135 7.491 4.856 4.856 0 0 1-4.718 1.026c-1.142-.406-1.76-1.512-2.583-2.319a1.171 1.171 0 0 1-.351-1.437c.421-.64 1.044-1.113 1.5-1.723a7.329 7.329 0 0 0 1.426-2.978 43.416 43.416 0 0 0 .965-5.725c.16-1.427.223-2.866.51-4.276a44.837 44.837 0 0 1 3.893-10.6 6.773 6.773 0 0 1 .981-1.75 2.35 2.35 0 0 1 .1 1.517c-.694 4.4-1.554 8.775-2.3 13.168a25.118 25.118 0 0 1-4.861 11.815 6.483 6.483 0 0 0 3.888-.083 8.276 8.276 0 0 0 3.946-3.158c1.176-2.15 1.252-4.653 1.655-7.017.564-3.458.839-7 2.012-10.32a39.732 39.732 0 0 1 2.366-5.392 15.362 15.362 0 0 1-5.356-1.511 3.772 3.772 0 0 1-1.983-2.405 5.493 5.493 0 0 1 .758-3.615 17.887 17.887 0 0 1 2.626-3.637 31.126 31.126 0 0 1 7.089-5.395c.91-.519 1.917-.858 2.784-1.454a1.649 1.649 0 0 0 .682-.755c-.137-.552-.809-.8-.89-1.378-.025-.306.216-.53.38-.758.987-1.171 1.86-2.412 2.937-3.48Z" fill="#009c98"/><path data-name="Path 13581" d="M98.031 10.409a28.922 28.922 0 0 1 2.753-3.436 2.665 2.665 0 0 1 1.637.985 3.377 3.377 0 0 1 1.11 2.91 6.847 6.847 0 0 1-1.46 2.542 5.83 5.83 0 0 1-1.521 1.351c-.336.171-.656-.13-.882-.343-.711-.738-1.255-1.625-2.034-2.3a16.244 16.244 0 0 1-1.723 2.395 2.567 2.567 0 0 1-1.231.858c-.3-.035-.508-.294-.733-.47a16.394 16.394 0 0 1-2.252-2.341 5.374 5.374 0 0 1 .831-1.574 25.7 25.7 0 0 1 2.66-3.569 4.559 4.559 0 0 1 1.8 1.409 5.9 5.9 0 0 1 1.045 1.583Z" fill="#009c98"/><path data-name="Path 13582" d="M122.118 14.739a32.494 32.494 0 0 1 8.477-5.463c-.084.6-.2 1.363-.809 1.665-.848.512-1.778.877-2.579 1.462a38.8 38.8 0 0 0-6.154 4.846 6.514 6.514 0 0 0 1.7.147 4.132 4.132 0 0 1 .363 1.344 15.692 15.692 0 0 1-2.236-.1c-.483-.19-.4-.84-.4-1.26a3.859 3.859 0 0 1 1.638-2.641Z" fill="#009c98"/><path data-name="Path 13593" d="M130.403 19.118a20.015 20.015 0 0 1 2.138.711 5.807 5.807 0 0 1 2.7 1.568c.517.682.171 1.579-.157 2.261a7.829 7.829 0 0 1-3.361 3.366c-1.164.6-2.442.919-3.64 1.434a23.111 23.111 0 0 0-7.467 4.37 2.653 2.653 0 0 0-.64.907 6.157 6.157 0 0 0 1.723.1 28.781 28.781 0 0 0 5.414-.8 1.655 1.655 0 0 1 1.208 0 .876.876 0 0 1 .179 1.086 10.579 10.579 0 0 1-1.618 2.074c-.931 1.088-1.578 2.375-2.413 3.532a29.769 29.769 0 0 1-3.6 4.334 7.919 7.919 0 0 1-7.481 2.216 4.453 4.453 0 0 1-2.365-1.787c-1.27.355-1.878 1.649-2.954 2.3a5.282 5.282 0 0 1-1.821 1c-1.133.171-2.023 1.3-3.251.939a7.7 7.7 0 0 1-4.129 1.714 4.179 4.179 0 0 0-.218.851 40.838 40.838 0 0 1-3.613 13.043 26.145 26.145 0 0 1-5.348 7.638 15.058 15.058 0 0 1-8.847 4.3 9.088 9.088 0 0 1-7.851-2.591 10.242 10.242 0 0 1-2.375-7.334c.164-5.113 2.113-9.986 4.621-14.379.228-.358.414-.836.88-.924a2.353 2.353 0 0 1-.113 1.518 26.511 26.511 0 0 0-2.875 8.862 7 7 0 0 0 .9 4.459 7.073 7.073 0 0 0 3.893 2.849 13.254 13.254 0 0 0 7.572-.132 14.307 14.307 0 0 0 5.056-2.515 15.729 15.729 0 0 0 4.76-6.39 25.189 25.189 0 0 0 1.35-9.565 9.261 9.261 0 0 1 .191-2.752 1.676 1.676 0 0 1 1.368-1.135c.973-.189 1.892.532 2.863.227.963-.289 1.51-1.2 2.177-1.883.458.343.939.8 1.565.7.706-.152.865-.966 1.331-1.412.456 0 .894.294 1.356.159a2.816 2.816 0 0 0 1.42-.593 2.026 2.026 0 0 0 .561-1.24c.076-.9.051-1.81.078-2.716a82.066 82.066 0 0 1 1.032-8.427 57.858 57.858 0 0 1 2.552-7.228 2.637 2.637 0 0 1 .811-1.229 6.135 6.135 0 0 1-.151 2.323c-.424 2.765-.916 5.522-1.238 8.3a7.537 7.537 0 0 0 1.034 5.069 3.672 3.672 0 0 0 2.486 1.473 8.871 8.871 0 0 0 6.349-1.429 4.289 4.289 0 0 0 2.176-2.485 33.943 33.943 0 0 1-5.8.238 3.081 3.081 0 0 1-1.628-.291 9.44 9.44 0 0 1 3.042-4.724 54.1 54.1 0 0 1 7.268-5.34c-.375-.365-1.1-.506-1.134-1.11a17.02 17.02 0 0 1 2.737-4.258 6.23 6.23 0 0 1 1.297-1.252Z" fill="#009c98"/><path data-name="Path 13612" d="M100.437 30.709c.682-.787.6-2 1.38-2.718a.97.97 0 0 1 .235.687 8.947 8.947 0 0 1-1.258 4.23 5.66 5.66 0 0 1-1.351 1.557 8.771 8.771 0 0 0-1.319 1.032 5.567 5.567 0 0 1-2.182 1.7 2.468 2.468 0 0 0-.89.461 20.12 20.12 0 0 1-2.466 1.905c-.509.274-.456.925-.652 1.4a17.007 17.007 0 0 1-2.75 5.525 4.238 4.238 0 0 1-1.811 1.066 62.773 62.773 0 0 1-4.5 1.459 2.938 2.938 0 0 1-.89.083c.2-.557.738-.863 1.177-1.213 1.248-.894 2.527-1.74 3.794-2.606a7.311 7.311 0 0 0 3.118-4.187c-.662.105-1.289.527-1.978.358a2.266 2.266 0 0 1-1.772-1.354 2.975 2.975 0 0 1 .27-1.76 22.243 22.243 0 0 1 1.735-3.5 3.211 3.211 0 0 1 1.461-1.434 2.173 2.173 0 0 1 2.066.821 3.7 3.7 0 0 1 .829 2.18c1.138-.76 2.429-1.52 2.981-2.841.144-.287.346-.814.745-.537a1.458 1.458 0 0 0 1.853-.463 10.37 10.37 0 0 0 1.029-1.849c.369.063.842.351 1.146-.002Z" fill="#009c98"/><path data-name="Path 13613" d="M57.94 36.875a9.935 9.935 0 0 1 3.164-1.51c.405-.1.647.4.583.742a16.164 16.164 0 0 1-1.61 4.412c-.331.676-.63 1.475-1.366 1.806a4.423 4.423 0 0 0-.853-.572 3.461 3.461 0 0 0-1.488.3 12.268 12.268 0 0 0-3.723 2.512 14.993 14.993 0 0 0-3.143 3.807 1.383 1.383 0 0 0 .259 1.762c.885.644 2.045.785 2.895 1.486a3.849 3.849 0 0 1 .885 2.893 27.834 27.834 0 0 1-1.728 8.606 22.194 22.194 0 0 1-2.66 5.322 20.4 20.4 0 0 1-4.589 4.527 11.513 11.513 0 0 1-8.471 1.7 6.907 6.907 0 0 1-4.645-3.022 11.13 11.13 0 0 1-1.415-6.488 30.878 30.878 0 0 1 3.052-11.27c1.321-2.79 2.588-5.608 3.949-8.378.2-.317.439-.959.909-.659a3.283 3.283 0 0 1-.4 2.192c-1.442 3.738-3.381 7.288-4.408 11.18-.493 1.861-.968 3.879-.335 5.768a5.5 5.5 0 0 0 3.75 3.393 12.362 12.362 0 0 0 12.705-4.086 7.742 7.742 0 0 0 2.071-4.066.823.823 0 0 0-.495-.871 29.106 29.106 0 0 1-2.973-1.1 3.088 3.088 0 0 1-1.7-2.336 10.667 10.667 0 0 1 .966-5.047 26.95 26.95 0 0 1 5.059-7.972 24.891 24.891 0 0 1 5.755-5.031Z" fill="#009c98"/><path data-name="Path 13614" d="M41.717 35.835c.209-.186.507.066.709.171a2.3 2.3 0 0 1 .959 2.689 7.039 7.039 0 0 1-1.46 2.127c-.287.324-.586-.122-.806-.3a9.181 9.181 0 0 1-1.365-1.542 12.866 12.866 0 0 1 1.963-3.145Z" fill="#009c98"/><path data-name="Path 13615" d="M44.135 38.994a13 13 0 0 1 2.066-3.28 2.647 2.647 0 0 1 1.7 1.911 2.7 2.7 0 0 1-.591 1.936 4.751 4.751 0 0 1-1.248 1.446 11.456 11.456 0 0 1-1.927-2.013Z" fill="#009c98"/><path data-name="Path 13616" d="M78.177 37.163c.481-.216.574.473.478.8a40.611 40.611 0 0 1-2.292 7.521 12.648 12.648 0 0 1-2.08 3.831 6.133 6.133 0 0 1-2.888 1.551 27.2 27.2 0 0 1-3.757.846c-.26.014-.667.135-.777-.2.11-.62.686-.993 1.16-1.336a53.488 53.488 0 0 0 4.427-3.035 7.6 7.6 0 0 0 1.878-2.14 60.722 60.722 0 0 0 3.339-7.143 1.42 1.42 0 0 1 .512-.695Z" fill="#009c98"/><path data-name="Path 13617" d="M43.054 41.686a8.619 8.619 0 0 1 .547-1.246 6.12 6.12 0 0 1 .645 5.049 2.53 2.53 0 0 1-.556 1.312c.313-1.691.489-3.671-.636-5.115Z" fill="#009c98"/><path data-name="Path 13621" d="M64.33 42.73c.279-.1.354.26.3.465-.585 3.356-.845 6.756-1.184 10.143a69.666 69.666 0 0 1-1.106 8.454 27.853 27.853 0 0 1-1.878 5.451 7.754 7.754 0 0 1-1.277 1.98c-.159.182-.488.147-.448-.147.116-.867.385-1.7.559-2.561.914-3.816.963-7.76 1.278-11.651a27.455 27.455 0 0 1 .708-4.746 34.351 34.351 0 0 1 2.36-6.211 3.638 3.638 0 0 1 .688-1.177Z" fill="#009c98"/><path data-name="Path 13627" d="M25.135 52.683c.248-.032.355.069.318.3-.811 3.881-1.084 7.847-1.667 11.764a18.131 18.131 0 0 1-1.493 5.046 10.73 10.73 0 0 1-1.976 3.094c-.16.128-.4.365-.611.2a2.2 2.2 0 0 1 .179-1.007 24.773 24.773 0 0 0 1.137-5.218c.427-3.179.24-6.51 1.5-9.52a26.42 26.42 0 0 1 2.152-4.093 2.092 2.092 0 0 1 .461-.566Z" fill="#009c98"/><path data-name="Path 13630" d="M114.692 62.033c.267-.3.718-.144 1.015.025a7.454 7.454 0 0 1 1.88 1.831 2.243 2.243 0 0 1 .648 1.757 11.107 11.107 0 0 1-1.495 3.334 3.636 3.636 0 0 1-1.1 1.294 1.672 1.672 0 0 1-.733-.331c-.8-.544-1.62-1.073-2.37-1.688a.965.965 0 0 1-.4-1.027 16.174 16.174 0 0 1 1.36-3.2 11.526 11.526 0 0 1 1.195-1.995Z" fill="#009c98"/></svg>