<svg xmlns="http://www.w3.org/2000/svg" width="19.342" height="19.096" viewBox="0 0 19.342 19.096">
  <g id="gallery-pic" transform="translate(0.6 0.6)">
    <path id="Vector" d="M6.264,17.9h5.369c4.474,0,6.264-1.79,6.264-6.264V6.264C17.9,1.79,16.106,0,11.632,0H6.264C1.79,0,0,1.79,0,6.264v5.369C0,16.106,1.79,17.9,6.264,17.9Z" fill="none" stroke="#4e4e4e" stroke-linecap="round" stroke-linejoin="round" stroke-width="1.2"/>
    <path id="Vector-2" data-name="Vector" d="M3.579,1.79A1.79,1.79,0,1,1,1.79,0,1.79,1.79,0,0,1,3.579,1.79Z" transform="translate(4.474 3.579)" fill="none" stroke="#4e4e4e" stroke-linecap="round" stroke-linejoin="round" stroke-width="1.2"/>
    <path id="Vector-3" data-name="Vector" d="M0,6.221,4.411,3.259a2.016,2.016,0,0,1,2.362.125l.3.259a2,2,0,0,0,2.523,0L13.314.45a2,2,0,0,1,2.523,0L17.3,1.7" transform="translate(0.599 8.945)" fill="none" stroke="#4e4e4e" stroke-linecap="round" stroke-linejoin="round" stroke-width="1.2"/>
  </g>
</svg>
