<svg xmlns="http://www.w3.org/2000/svg" xmlns:xlink="http://www.w3.org/1999/xlink" width="169" height="80" viewBox="0 0 169 80">
  <defs>
    <linearGradient id="linear-gradient" x1="0.5" x2="0.5" y2="1" gradientUnits="objectBoundingBox">
      <stop offset="0" stop-color="#1ec8c4"/>
      <stop offset="1" stop-color="#00296b"/>
    </linearGradient>
  </defs>
  <g id="Group_9700" data-name="Group 9700" transform="translate(-351 -186)">
    <rect id="co-1" width="169" height="80" transform="translate(351 186)" fill="#fff"/>
    <g id="_000000ff" data-name="#000000ff" transform="translate(389.114 206.667)">
      <path id="Path_13957" data-name="Path 13957" d="M154.619,79.427c.909-.789,2.182-1.522,3.4-.995,1.034.35,1.978,1.6,1.349,2.677-.436.493-.975-.02-1.374-.283-1.533-1.181-3.947-.162-4.589,1.544a1.606,1.606,0,0,0,.7,1.923,6.879,6.879,0,0,0,4.355.916c1.516-.145,2.618-1.494,4.149-1.553a1.933,1.933,0,0,1-1.2,1.89,31.229,31.229,0,0,0-5.262,3.282,71,71,0,0,1-21.03,11.566,47.41,47.41,0,0,1-20.162,2.269,25.72,25.72,0,0,1-3.98-.819,5.9,5.9,0,0,1-1.553,2,5.142,5.142,0,0,0-5.877-1.65,12.945,12.945,0,0,0-4.857,3.891c-1.448,1.77-2.813,3.608-4.234,5.4A14.771,14.771,0,0,1,85.62,117a7.9,7.9,0,0,1,1.855-1.47,26.138,26.138,0,0,0,5.049-4.659c2.256-2.447,4.195-5.161,6.256-7.768a20.8,20.8,0,0,1,5.79-5.1,10,10,0,0,1,3.2-1.005c.182-.436.377-.865.58-1.29a25.1,25.1,0,0,0,10.427,2.274,54.776,54.776,0,0,0,20.121-2.78,71.316,71.316,0,0,0,13.952-6.668,3.594,3.594,0,0,1-2.778-1.108,2.314,2.314,0,0,1,.048-2.848A24.673,24.673,0,0,1,154.619,79.427Z" transform="translate(-68.978 -78.254)" fill="url(#linear-gradient)"/>
      <path id="Path_13958" data-name="Path 13958" d="M134.462,79.36c.372.973-.329,1.917-.493,2.863-.784,3.978-.635,8.061-1.054,12.079a19.326,19.326,0,0,1-1.853,6.471,4.36,4.36,0,0,1-1.492,1.7,17.463,17.463,0,0,0,1.089-5.441c.248-2.554.243-5.122.245-7.685a12.486,12.486,0,0,1,1.1-5.356C132.753,82.409,133.7,80.933,134.462,79.36Z" transform="translate(-103.301 -79.118)" fill="url(#linear-gradient)"/>
      <path id="Path_13959" data-name="Path 13959" d="M31.978,100.07a9.462,9.462,0,0,1,1.137-2.18c-.521,2.318-.125,4.688-.258,7.036a26.408,26.408,0,0,1-2.837,11.707,19.584,19.584,0,0,1-7.761,8.5,12.183,12.183,0,0,1-7.308,1.446,5.8,5.8,0,0,1-4.351-3.288,12.625,12.625,0,0,1-.377-8.613,33.851,33.851,0,0,1,4.116-8.7,5.076,5.076,0,0,1-.784,2.331,15.418,15.418,0,0,0-1.958,7.56,5.844,5.844,0,0,0,2.587,4.837,7.935,7.935,0,0,0,4.543,1.036,13.052,13.052,0,0,0,10.026-5.9,15.341,15.341,0,0,0,2.359-9.6,19.074,19.074,0,0,1-.1-3.536A9.022,9.022,0,0,1,31.978,100.07Z" transform="translate(-9.651 -93.588)" fill="url(#linear-gradient)"/>
      <path id="Path_13960" data-name="Path 13960" d="M52.027,140.75a8.641,8.641,0,0,1,3.31,2.394,1.686,1.686,0,0,1-.105,1.761,6.243,6.243,0,0,1-2.256,2.659,13.092,13.092,0,0,0-3.805-2.6C50.116,143.556,51.058,142.143,52.027,140.75Z" transform="translate(-40.513 -127.06)" fill="url(#linear-gradient)"/>
    </g>
  </g>
</svg>
