<svg id="ico-1" xmlns="http://www.w3.org/2000/svg" xmlns:xlink="http://www.w3.org/1999/xlink" width="64" height="64" viewBox="0 0 64 64">
  <defs>
    <linearGradient id="linear-gradient" x1="0.5" x2="0.5" y2="1" gradientUnits="objectBoundingBox">
      <stop offset="0" stop-color="#1ec8c4"/>
      <stop offset="1" stop-color="#016a63"/>
    </linearGradient>
    <linearGradient id="linear-gradient-2" x1="-0.167" y1="0.929" x2="0.5" y2="-0.156" gradientUnits="objectBoundingBox">
      <stop offset="0" stop-color="#efe8df"/>
      <stop offset="1" stop-color="#d2cabe"/>
    </linearGradient>
    <linearGradient id="linear-gradient-3" x1="0.343" y1="-0.041" x2="0.048" y2="0.926" xlink:href="#linear-gradient-2"/>
  </defs>
  <rect id="Rectangle_2018" data-name="Rectangle 2018" width="64" height="64" fill="none"/>
  <g id="Group_45793" data-name="Group 45793" transform="translate(-1152.002 -698)">
    <path id="Path_100328" data-name="Path 100328" d="M3.684,0H48.051a5.978,5.978,0,0,1,5.684,6.234l2,31.526a5.978,5.978,0,0,1-5.684,6.234H5.684A5.978,5.978,0,0,1,0,37.76L-2,6.234A5.978,5.978,0,0,1,3.684,0Z" transform="translate(1154.584 714.85)" fill="url(#linear-gradient)"/>
    <g id="Group_45792" data-name="Group 45792" transform="translate(1161.746 700.859)">
      <rect id="Rectangle_2040" data-name="Rectangle 2040" width="33.849" height="43.885" rx="6" transform="translate(0 6.75)" fill="#efeee8" stroke="#e4dfd8" stroke-width="1"/>
      <rect id="Rectangle_2025" data-name="Rectangle 2025" width="33.849" height="43.885" rx="6" transform="translate(3.761 2.929)" fill="#f9f9f9" stroke="#e4dfd8" stroke-width="1"/>
      <g id="Group_9528" data-name="Group 9528" transform="translate(7.833 0)">
        <rect id="Rectangle_2023" data-name="Rectangle 2023" width="34.42" height="43.885" rx="6" transform="translate(0)" fill="#fff" stroke="#e4dfd8" stroke-width="1"/>
        <path id="Union_40_-_Outline" data-name="Union 40 - Outline" d="M-693.064,8521.353h-5.47v-.94h5.47Zm0-3.983H-712.21v-.94h19.146Zm0-3.982H-712.21v-.939h19.146Zm0-3.983H-712.21v-.941h19.146Zm0-3.983H-712.21v-.94h19.146Zm0-3.983H-712.21v-.939h19.146Zm0-3.776H-712.21v-.94h19.146Zm0-3.983H-712.21v-.939h19.146Z" transform="translate(719.965 -8484.991)" fill="url(#linear-gradient-2)"/>
      </g>
    </g>
    <path id="Path_100327" data-name="Path 100327" d="M11.367,12.138H32.531L39.758,7H55.734c3.139,0,5.684,1.748,5.684,5.138l-5.684,24.9a5.924,5.924,0,0,1-5.684,6.138H5.684A5.924,5.924,0,0,1,0,37.039L5.684,18.276A5.924,5.924,0,0,1,11.367,12.138Z" transform="translate(1154.584 715.666)" fill="url(#linear-gradient-3)"/>
  </g>
</svg>
