<svg xmlns="http://www.w3.org/2000/svg" width="149.234" height="44.925" viewBox="0 0 149.234 44.925">
  <g id="khane-melat" transform="translate(-21.721 -30.429)">
    <path id="Path_97431" data-name="Path 97431" d="M614.4,34.153c1.371-1.2,2.728-2.414,3.992-3.725a6.171,6.171,0,0,1-2.251,4.313c-1.32,1.139-2.73,2.173-4.067,3.294a24.3,24.3,0,0,0-4.19,3.98,119.144,119.144,0,0,0,9.994-6.934,36.49,36.49,0,0,0,3.822-3.409c-.039,2.044-1.38,3.713-2.786,5.062a28.127,28.127,0,0,1-3.417,2.607c-5.38,3.7-7.413,4.814-12.623,8.753a20.747,20.747,0,0,0-3.7,3.339,5.7,5.7,0,0,1,3.061.9,3.792,3.792,0,0,1,1.071,3.409,9.2,9.2,0,0,1-4.272,6.622c-.633.444-1.38.676-2.019,1.1a4.254,4.254,0,0,0-.861,1.49,13.25,13.25,0,0,1-2.442,4.334,2.035,2.035,0,0,1-1.906.787,10.16,10.16,0,0,0-4.13.206,5.084,5.084,0,0,1,1.719-1.256,21.574,21.574,0,0,0,4.8-3.361,13.774,13.774,0,0,0,1.922-3.117,7.658,7.658,0,0,1,2.426-2.64c.966-.662,2.157-1.007,2.95-1.906a1.907,1.907,0,0,0-.09-2.7,6.175,6.175,0,0,0-4.286-1.353,9.1,9.1,0,0,1,2.023-4.739c3.145-3.7,3.877-3.834,7.849-6.541.364-.436.424-1.065.753-1.54C609.407,38.336,612.038,36.326,614.4,34.153Z" transform="translate(-455.763)" fill="#bb1515"/>
    <path id="Path_97432" data-name="Path 97432" d="M620.826,85.13c1.053.475,2.455,1.133,2.418,2.492a5.424,5.424,0,0,1-2.07,3.02,6.6,6.6,0,0,0-3.154-1.931C618.976,87.533,619.87,86.306,620.826,85.13Z" transform="translate(-480.195 -45.919)" fill="#bb1515"/>
    <path id="Path_97433" data-name="Path 97433" d="M744.05,89.758c.948-1.186,1.85-2.409,2.806-3.588,1.042.471,2.416,1.114,2.422,2.449a5.389,5.389,0,0,1-2.072,3.067A6.52,6.52,0,0,0,744.05,89.758Z" transform="translate(-581.687 -46.757)" fill="#bb1515"/>
    <path id="Path_97434" data-name="Path 97434" d="M75.507,92.872a4.2,4.2,0,0,1,.572-1.472,14.829,14.829,0,0,1-.236,3.842,42.635,42.635,0,0,0-.327,6.992c.084.944.331,2.124,1.359,2.461q.511-1.282,1-2.57a2.6,2.6,0,0,1,1.856,1.669,4.625,4.625,0,0,1-.956,3.635,3.783,3.783,0,0,1-2.862,1.793,1.91,1.91,0,0,1-1.548-.974,9.322,9.322,0,0,1-1.739,3.573,2.36,2.36,0,0,1-2.759.74,3.562,3.562,0,0,1-1.223-1.18,11.629,11.629,0,0,1-3.6,2.946,27.115,27.115,0,0,1-5.292,2.14,80.625,80.625,0,0,1-15,2.967c-3.431.354-6.881.5-10.331.532a33.679,33.679,0,0,1-9.492-1.024,4.46,4.46,0,0,1-2.835-2.054,8.166,8.166,0,0,1-.31-3.7,15.491,15.491,0,0,0,5.076,1.75,65.605,65.605,0,0,0,13.608.754,101.7,101.7,0,0,0,15.339-1.686,44.391,44.391,0,0,0,11.418-3.744,12.6,12.6,0,0,0,2.085-1.451c-.072.4-.16.789-.247,1.184a3.247,3.247,0,0,0,3.322-.354c1.133-.979,1.184-2.6,1.275-3.978a68.066,68.066,0,0,1,.606-9.254C74.566,95.191,75.174,94.077,75.507,92.872Z" transform="translate(0 -50.969)" fill="#bb1515"/>
    <path id="Path_97435" data-name="Path 97435" d="M413.015,117.85c1.034.4,2.276,1.055,2.426,2.284a4.885,4.885,0,0,1-2.072,3.189,7.562,7.562,0,0,0-3.119-1.957Q411.637,119.611,413.015,117.85Z" transform="translate(-312.88 -72.269)" fill="#bb1515"/>
    <path id="Path_97436" data-name="Path 97436" d="M590.6,126.545c.6-1,1.067-2.079,1.719-3.045.123,1.133-.537,2.132-.67,3.232a85.615,85.615,0,0,0-.687,8.735,19.7,19.7,0,0,1-1.692,7.263,4,4,0,0,1-1.46,1.8,17.643,17.643,0,0,0,.952-4.973c.251-2.516.185-5.047.236-7.57A11.277,11.277,0,0,1,590.6,126.545Z" transform="translate(-455.867 -76.818)" fill="#bb1515"/>
    <path id="Path_97437" data-name="Path 97437" d="M379.8,124.77a3.932,3.932,0,0,1,.062,2.2,97.085,97.085,0,0,0-.919,10.487,7.112,7.112,0,0,0,.563,3.129,2.856,2.856,0,0,0,1.577,1.38c.586-1.2,1.217-2.385,1.856-3.561.676-1.236,1.536-2.6,2.985-2.985,1.784-.386,3.44.7,5.218.668a2.755,2.755,0,0,1-.46,1.1c-1.324,1.234-1.955,2.977-2.944,4.457a10.378,10.378,0,0,1-4.726,4.77c-1.468.569-3.462.625-4.521-.736-1.24-1.534-1.19-3.6-1.306-5.467a87.369,87.369,0,0,1,.8-9.8,12.791,12.791,0,0,1,.977-3.032c.319-.857.52-1.75.833-2.611m3.481,14.192a16.707,16.707,0,0,0-1.8,3.158,7.093,7.093,0,0,0,3.135-.247,7.892,7.892,0,0,0,3.964-3.725,6.6,6.6,0,0,0-3.111-.633A3.588,3.588,0,0,0,383.282,138.962Z" transform="translate(-286.253 -77.841)" fill="#bb1515"/>
    <path id="Path_97438" data-name="Path 97438" d="M342.71,131.017c.935-1.182,1.822-2.4,2.792-3.557a4.628,4.628,0,0,1,2.187,1.558,1.832,1.832,0,0,1-.06,1.821,6.96,6.96,0,0,1-1.815,2.15A6.279,6.279,0,0,0,342.71,131.017Z" transform="translate(-258.49 -80.007)" fill="#bb1515"/>
    <path id="Path_97439" data-name="Path 97439" d="M469.457,131.973a3.177,3.177,0,0,1,2.181-.333,4.842,4.842,0,0,1-.824,2.418,8.092,8.092,0,0,1-1.334,1.754,4.237,4.237,0,0,0-2.625.574,13.256,13.256,0,0,0-3.69,2.87,6.775,6.775,0,0,0-1.314,2.12,1.261,1.261,0,0,0,.29,1.384c.831.783,2.165.512,3.01,1.264.635.87.413,2.015.312,3.01a16.225,16.225,0,0,1-3.324,7.132,12.486,12.486,0,0,1-5.845,4.262,5.711,5.711,0,0,1-5.247-1.053,6.665,6.665,0,0,1-1.9-4.9,18.825,18.825,0,0,1,2.093-8.217,96.389,96.389,0,0,1,4.677-8.516,4.219,4.219,0,0,1-.8,2.475,29.53,29.53,0,0,0-3.659,8.988,6.772,6.772,0,0,0,.354,4.328,4.52,4.52,0,0,0,3.949,2.525,9.406,9.406,0,0,0,7.911-4.161,1.961,1.961,0,0,0,.317-.909c-.843-.849-2.222-.643-3.1-1.466-1.238-.9-1.256-2.611-.946-3.968a19.729,19.729,0,0,1,9.513-11.583Z" transform="translate(-344.199 -83.304)" fill="#bb1515"/>
    <path id="Path_97440" data-name="Path 97440" d="M112.777,133.01a3.686,3.686,0,0,1,2.245,1.641,1.823,1.823,0,0,1-.23,1.669,3.6,3.6,0,0,1-2.313,1.741,6.826,6.826,0,0,0-2.132-1.306,4.228,4.228,0,0,1-2.948,2.666,5.9,5.9,0,0,0-2.59-1.433c.968-1.211,1.914-2.442,2.874-3.662a5.432,5.432,0,0,1,2.6,1.815C111.13,135.109,111.952,134.058,112.777,133.01Z" transform="translate(-66.911 -84.477)" fill="#bb1515"/>
    <path id="Path_97441" data-name="Path 97441" d="M644.489,144.326c.759-1.468,1.875-3,3.575-3.4,1.673-.354,3.084.874,4.69,1.059a12.228,12.228,0,0,0,2.383-.129,3.025,3.025,0,0,1-1.051,1.5c-2.477,1.4-3.647,4.141-5.635,6.057-1.1,1.028-2.3,2.167-3.851,2.377-.933.187-1.793-.438-2.726-.265a8.13,8.13,0,0,0-4.87,2.227c-2.757,2.555-4.426,6.042-7.132,8.647a12.213,12.213,0,0,1-6.9,3.758,11.125,11.125,0,0,1,1.968-1.511,37.774,37.774,0,0,0,6.381-6.468c2.245-2.691,4.064-5.746,6.645-8.145,1.678-1.526,3.692-2.977,6.055-3.01,1.18-.14,2.3.524,3.479.292,1.577-.485,2.629-1.852,3.614-3.09-1.484-.578-2.926-1.943-4.62-1.38C645.63,143.048,645.139,143.806,644.489,144.326Z" transform="translate(-484.182 -90.8)" fill="#bb1515"/>
    <path id="Path_97442" data-name="Path 97442" d="M541.026,174.009a2.183,2.183,0,0,1,.794-1.229c-.119.372-.255.738-.345,1.118a40.085,40.085,0,0,1-2.12,7.4,5.861,5.861,0,0,1-2.206,2.833,4.923,4.923,0,0,1-1.785.43,23.035,23.035,0,0,0-3.024.966c.22-.648.865-.942,1.379-1.32a17.487,17.487,0,0,0,5.6-5.724A18.522,18.522,0,0,0,541.026,174.009Z" transform="translate(-411.198 -116.503)" fill="#bb1515"/>
    <path id="Path_97443" data-name="Path 97443" d="M322.68,203.275c.479-.625.389-1.513.929-2.1a8.681,8.681,0,0,1-1.93,5.611,3.944,3.944,0,0,1-2.307,1.519c-.995.218-1.737-.851-2.747-.613-1.275.134-1.99,1.283-2.775,2.146a7.717,7.717,0,0,1,1.063-2.767,7.637,7.637,0,0,1,3.183-3.248,2.4,2.4,0,0,1,2.194.068A1.859,1.859,0,0,0,322.68,203.275Z" transform="translate(-235.249 -139.366)" fill="#bb1515"/>
    <path id="Path_97444" data-name="Path 97444" d="M693.38,240.976c.909-1.182,1.834-2.356,2.763-3.526,1,.448,2.247,1.038,2.4,2.257-.029,1.359-1.106,2.4-2.068,3.232A7.743,7.743,0,0,0,693.38,240.976Z" transform="translate(-540.882 -168.582)" fill="#bb1515"/>
  </g>
</svg>
