<svg id="majles-logo" xmlns="http://www.w3.org/2000/svg" width="154.095" height="86.841" viewBox="0 0 154.095 86.841">
  <path id="Path_13579" data-name="Path 13579" d="M787.705,465.19a3.16,3.16,0,0,1,1.957,1.243,3.826,3.826,0,0,1,1,3.517,12.285,12.285,0,0,1-1.942,3.363,3.221,3.221,0,0,1-1.226,1.122c-.954-.4-1.513-1.356-2.257-2.034-.409-.482-1.066-.835-1.2-1.49a4.915,4.915,0,0,1,.544-1.176,39.943,39.943,0,0,1,2.369-3.79A2.711,2.711,0,0,1,787.705,465.19Z" transform="translate(-675.59 -465.19)" fill="#fff"/>
  <path id="Path_13580" data-name="Path 13580" d="M248.112,499.946c.749-.8,1.521-1.907,2.743-1.878a9.98,9.98,0,0,1,4.42,3.246,2.772,2.772,0,0,1,.636,2.3,5.723,5.723,0,0,1-1.928,2.772,11.131,11.131,0,0,1-3.9,2.318,68.232,68.232,0,0,0-8.225,2.459,27.489,27.489,0,0,0-4.4,2.551,10.873,10.873,0,0,0-3.308,2.827c-.346.467-.543,1.244.035,1.625a13.123,13.123,0,0,0,3.2,1.045,36.732,36.732,0,0,0,8.059.868q7.494.179,14.993-.033c9.763-.342,19.467-1.535,29.167-2.632,17.21-2.026,34.418-4.122,51.676-5.708,2.172-.167,4.345-.4,6.525-.426.48.056,1.248.013,1.4.609.063.866-.7,1.489-1.333,1.959-1.062.811-2.459.7-3.68,1.07-5.764,1.473-11.647,2.384-17.465,3.605-1.911.378-3.826.753-5.764.968-4.4.394-8.716,1.41-13.09,2.019-13.989,2.007-28,3.834-42.055,5.336-4.4.536-8.834.77-13.265.926-4.483.138-8.976.326-13.457.023-.353,1.673-.688,3.352-.97,5.038a83.863,83.863,0,0,0-1.258,9.01,5.5,5.5,0,0,0,1.185,3.933c1.222,1.46,3.325,1.7,5.1,1.441,1.988-.259,3.188-2.107,5-2.772.843-.15,1.692.446,2.524.138,1.068-.722,1.27-2.145,2.111-3.062.515-.219,1.016.217,1.514.321a1.14,1.14,0,0,0,1.316-.382,18.821,18.821,0,0,0,1.529-2.708c.121-.173.25-.461.484-.248a1.7,1.7,0,0,1,.064,1.01,10.014,10.014,0,0,1-3.5,6.281,4.093,4.093,0,0,1-2.078.789c-.908.926-1.671,2.167-2.994,2.532-.839.073-1.654-.417-2.5-.231a4.165,4.165,0,0,0-2.19,1.345c-1.427,1.327-2.595,3.027-4.441,3.817a4.733,4.733,0,0,1-5.889-1.625,22.063,22.063,0,0,1-5.839,8.519,5.522,5.522,0,0,1-5.365,1.166c-1.3-.461-2-1.719-2.937-2.638a1.332,1.332,0,0,1-.4-1.634c.478-.728,1.187-1.266,1.711-1.959a8.334,8.334,0,0,0,1.621-3.386,49.371,49.371,0,0,0,1.1-6.51c.182-1.623.254-3.259.58-4.863A50.983,50.983,0,0,1,229,529.057a7.7,7.7,0,0,1,1.116-1.99,2.672,2.672,0,0,1,.119,1.725c-.789,5.006-1.767,9.979-2.616,14.974a28.563,28.563,0,0,1-5.528,13.436,7.374,7.374,0,0,0,4.422-.094A9.412,9.412,0,0,0,231,553.516c1.337-2.445,1.423-5.292,1.882-7.979.641-3.932.955-7.956,2.288-11.736a45.167,45.167,0,0,1,2.691-6.131,17.472,17.472,0,0,1-6.091-1.719,4.289,4.289,0,0,1-2.255-2.735,6.246,6.246,0,0,1,.862-4.11,20.342,20.342,0,0,1,2.987-4.135,35.4,35.4,0,0,1,8.061-6.135c1.035-.59,2.18-.976,3.165-1.654a1.876,1.876,0,0,0,.776-.859c-.156-.628-.92-.907-1.012-1.567-.029-.348.246-.6.432-.862C245.889,502.572,246.886,501.16,248.112,499.946Z" transform="translate(-219.412 -491.752)" fill="#fff"/>
  <path id="Path_13581" data-name="Path 13581" d="M769.465,510.387a32.887,32.887,0,0,1,3.131-3.907,3.032,3.032,0,0,1,1.861,1.12,3.841,3.841,0,0,1,1.262,3.309,7.788,7.788,0,0,1-1.66,2.891,6.63,6.63,0,0,1-1.73,1.536c-.383.194-.745-.148-1-.39-.809-.839-1.427-1.848-2.313-2.612a18.46,18.46,0,0,1-1.959,2.723,2.916,2.916,0,0,1-1.4.976c-.344-.04-.578-.334-.833-.534a18.633,18.633,0,0,1-2.561-2.662,6.116,6.116,0,0,1,.945-1.79,29.233,29.233,0,0,1,3.025-4.059,5.184,5.184,0,0,1,2.052,1.6A6.707,6.707,0,0,1,769.465,510.387Z" transform="translate(-657.993 -498.55)" fill="#fff"/>
  <path id="Path_13582" data-name="Path 13582" d="M934.529,526.322a36.951,36.951,0,0,1,9.64-6.212c-.1.684-.233,1.55-.92,1.894-.964.582-2.022,1-2.932,1.663a44.109,44.109,0,0,0-7,5.511,7.42,7.42,0,0,0,1.931.167,4.7,4.7,0,0,1,.413,1.529,17.848,17.848,0,0,1-2.543-.111c-.549-.216-.459-.955-.457-1.433C932.674,528.052,933.647,527.116,934.529,526.322Z" transform="translate(-795.659 -509.562)" fill="#fff"/>
  <path id="Path_13593" data-name="Path 13593" d="M705.478,578.38a22.766,22.766,0,0,1,2.432.809,6.6,6.6,0,0,1,3.075,1.782c.588.776.194,1.8-.178,2.572a8.9,8.9,0,0,1-3.822,3.828c-1.323.68-2.777,1.045-4.139,1.631a26.278,26.278,0,0,0-8.491,4.969,3.016,3.016,0,0,0-.728,1.032,6.994,6.994,0,0,0,1.959.119,32.7,32.7,0,0,0,6.156-.907,1.882,1.882,0,0,1,1.374,0,1,1,0,0,1,.2,1.235,12.024,12.024,0,0,1-1.84,2.359c-1.059,1.237-1.794,2.7-2.743,4.016a33.864,33.864,0,0,1-4.091,4.928,9,9,0,0,1-8.507,2.52,5.064,5.064,0,0,1-2.689-2.032c-1.444.4-2.136,1.875-3.359,2.618a6,6,0,0,1-2.071,1.135c-1.289.194-2.3,1.481-3.7,1.068a8.753,8.753,0,0,1-4.7,1.95,4.759,4.759,0,0,0-.248.968,46.435,46.435,0,0,1-4.109,14.832,29.729,29.729,0,0,1-6.081,8.685,17.124,17.124,0,0,1-10.061,4.893,10.333,10.333,0,0,1-8.928-2.947,11.646,11.646,0,0,1-2.7-8.34c.186-5.814,2.4-11.355,5.255-16.351.259-.407.471-.951,1-1.051a2.676,2.676,0,0,1-.129,1.727,30.147,30.147,0,0,0-3.269,10.078,7.955,7.955,0,0,0,1.028,5.071,8.043,8.043,0,0,0,4.427,3.24,15.074,15.074,0,0,0,8.611-.15,16.269,16.269,0,0,0,5.749-2.86,17.885,17.885,0,0,0,5.413-7.266,28.648,28.648,0,0,0,1.535-10.877,10.537,10.537,0,0,1,.217-3.129,1.906,1.906,0,0,1,1.556-1.291c1.106-.215,2.151.605,3.256.258,1.095-.328,1.717-1.366,2.476-2.142.521.39,1.068.907,1.78.8.8-.173.983-1.1,1.514-1.606.519,0,1.016.334,1.542.181a3.2,3.2,0,0,0,1.615-.674,2.3,2.3,0,0,0,.638-1.41c.087-1.027.058-2.059.089-3.088a93.347,93.347,0,0,1,1.174-9.582,65.77,65.77,0,0,1,2.9-8.219,3,3,0,0,1,.922-1.4,6.975,6.975,0,0,1-.171,2.641c-.482,3.144-1.041,6.279-1.408,9.44a8.571,8.571,0,0,0,1.176,5.764,4.175,4.175,0,0,0,2.827,1.675,10.087,10.087,0,0,0,7.22-1.625c1.039-.7,2.224-1.508,2.474-2.826a38.571,38.571,0,0,1-6.59.271,3.5,3.5,0,0,1-1.852-.331,10.734,10.734,0,0,1,3.459-5.372,61.559,61.559,0,0,1,8.248-6.089c-.427-.415-1.247-.576-1.289-1.262A19.357,19.357,0,0,1,704,579.8,7.087,7.087,0,0,1,705.478,578.38Z" transform="translate(-557.19 -556.64)" fill="#fff"/>
  <path id="Path_13612" data-name="Path 13612" d="M725.782,634c.776-.9.68-2.272,1.57-3.091a1.1,1.1,0,0,1,.267.781,10.179,10.179,0,0,1-1.431,4.81,6.437,6.437,0,0,1-1.537,1.771,9.992,9.992,0,0,0-1.5,1.173,6.328,6.328,0,0,1-2.482,1.938,2.809,2.809,0,0,0-1.012.524,22.85,22.85,0,0,1-2.8,2.167c-.578.311-.518,1.052-.742,1.592a19.334,19.334,0,0,1-3.127,6.283,4.815,4.815,0,0,1-2.059,1.212c-1.685.611-3.386,1.175-5.113,1.659a3.337,3.337,0,0,1-1.012.094c.227-.634.839-.982,1.339-1.379,1.419-1.016,2.873-1.978,4.314-2.964A8.313,8.313,0,0,0,714,645.811c-.753.12-1.465.6-2.249.407a2.577,2.577,0,0,1-2.015-1.54,3.381,3.381,0,0,1,.307-2,25.287,25.287,0,0,1,1.972-3.984,3.653,3.653,0,0,1,1.662-1.631,2.471,2.471,0,0,1,2.349.934,4.2,4.2,0,0,1,.943,2.479c1.295-.864,2.762-1.728,3.39-3.231.163-.326.394-.926.847-.61a1.658,1.658,0,0,0,2.107-.527,11.791,11.791,0,0,0,1.17-2.1C724.9,634.075,725.436,634.4,725.782,634Z" transform="translate(-611.569 -599.08)" fill="#fff"/>
  <path id="Path_13613" data-name="Path 13613" d="M428.866,676.227a11.3,11.3,0,0,1,3.6-1.717c.461-.111.736.451.663.843a18.381,18.381,0,0,1-1.83,5.017c-.376.768-.717,1.677-1.554,2.053a5.024,5.024,0,0,0-.97-.651,3.939,3.939,0,0,0-1.692.346,13.95,13.95,0,0,0-4.233,2.856,17.047,17.047,0,0,0-3.574,4.329,1.573,1.573,0,0,0,.294,2c1.006.732,2.326.893,3.292,1.69a4.377,4.377,0,0,1,1.006,3.29,31.65,31.65,0,0,1-1.965,9.786,25.237,25.237,0,0,1-3.025,6.052,23.2,23.2,0,0,1-5.219,5.148,13.092,13.092,0,0,1-9.633,1.938,7.854,7.854,0,0,1-5.282-3.436,12.657,12.657,0,0,1-1.61-7.377c.148-4.476,1.686-8.757,3.471-12.815,1.5-3.173,2.942-6.377,4.491-9.527.223-.361.5-1.091,1.033-.749a3.732,3.732,0,0,1-.459,2.493c-1.64,4.25-3.845,8.288-5.013,12.714-.561,2.117-1.1,4.412-.38,6.559a6.26,6.26,0,0,0,4.264,3.859,14.057,14.057,0,0,0,14.448-4.646,8.8,8.8,0,0,0,2.355-4.623.936.936,0,0,0-.563-.991,33.107,33.107,0,0,1-3.381-1.247,3.511,3.511,0,0,1-1.938-2.656,12.135,12.135,0,0,1,1.1-5.739,30.651,30.651,0,0,1,5.753-9.066A28.309,28.309,0,0,1,428.866,676.227Z" transform="translate(-362.979 -634.294)" fill="#fff"/>
  <path id="Path_13614" data-name="Path 13614" d="M457.01,677.032c.238-.211.576.075.807.194a2.614,2.614,0,0,1,1.091,3.058,8.006,8.006,0,0,1-1.659,2.418c-.327.369-.666-.138-.916-.338a10.448,10.448,0,0,1-1.552-1.753A14.633,14.633,0,0,1,457.01,677.032Z" transform="translate(-409.572 -636.282)" fill="#fff"/>
  <path id="Path_13615" data-name="Path 13615" d="M480.71,680.36a14.782,14.782,0,0,1,2.349-3.73,3.01,3.01,0,0,1,1.928,2.172,3.076,3.076,0,0,1-.672,2.2,5.4,5.4,0,0,1-1.419,1.644A13.03,13.03,0,0,1,480.71,680.36Z" transform="translate(-430.521 -636.018)" fill="#fff"/>
  <path id="Path_13616" data-name="Path 13616" d="M628.127,685c.547-.246.653.538.543.907a46.189,46.189,0,0,1-2.606,8.553,14.383,14.383,0,0,1-2.365,4.356,6.974,6.974,0,0,1-3.284,1.763,30.965,30.965,0,0,1-4.272.962c-.3.016-.759.154-.883-.228.125-.7.78-1.13,1.32-1.519a60.821,60.821,0,0,0,5.034-3.452,8.635,8.635,0,0,0,2.136-2.434,69.082,69.082,0,0,0,3.8-8.123A1.615,1.615,0,0,1,628.127,685Z" transform="translate(-539.228 -642.745)" fill="#fff"/>
  <path id="Path_13617" data-name="Path 13617" d="M474.31,706.027a9.775,9.775,0,0,1,.622-1.417,6.96,6.96,0,0,1,.734,5.741,2.877,2.877,0,0,1-.632,1.492C475.389,709.921,475.589,707.669,474.31,706.027Z" transform="translate(-425.351 -658.624)" fill="#fff"/>
  <path id="Path_13621" data-name="Path 13621" d="M573.487,718.09c.317-.111.4.3.338.528-.664,3.816-.96,7.683-1.347,11.534a79.251,79.251,0,0,1-1.258,9.613,31.657,31.657,0,0,1-2.136,6.2,8.82,8.82,0,0,1-1.452,2.251c-.181.208-.555.167-.509-.167.132-.985.438-1.938.636-2.912,1.039-4.339,1.1-8.824,1.454-13.249a31.212,31.212,0,0,1,.8-5.4,39.066,39.066,0,0,1,2.683-7.063A4.139,4.139,0,0,1,573.487,718.09Z" transform="translate(-500.334 -669.5)" fill="#fff"/>
  <path id="Path_13627" data-name="Path 13627" d="M342.14,777.063c.282-.036.4.079.361.346-.922,4.414-1.233,8.924-1.9,13.378a20.616,20.616,0,0,1-1.7,5.738,12.2,12.2,0,0,1-2.247,3.518c-.182.146-.449.415-.7.223a2.5,2.5,0,0,1,.2-1.145,28.168,28.168,0,0,0,1.293-5.933c.486-3.615.273-7.4,1.707-10.826a30.049,30.049,0,0,1,2.447-4.654A2.373,2.373,0,0,1,342.14,777.063Z" transform="translate(-313.559 -717.154)" fill="#fff"/>
  <path id="Path_13630" data-name="Path 13630" d="M886.018,831.632c.3-.346.816-.164,1.154.029a8.478,8.478,0,0,1,2.138,2.081,2.551,2.551,0,0,1,.737,2,12.634,12.634,0,0,1-1.7,3.792A4.138,4.138,0,0,1,887.091,841a1.9,1.9,0,0,1-.834-.377c-.912-.618-1.842-1.22-2.695-1.919a1.1,1.1,0,0,1-.455-1.168,18.4,18.4,0,0,1,1.546-3.638A13.1,13.1,0,0,1,886.018,831.632Z" transform="translate(-755.595 -761.091)" fill="#fff"/>
</svg>
