<svg id="pdf" xmlns="http://www.w3.org/2000/svg" width="24" height="24" viewBox="0 0 24 24">
  <g id="Group_45427" data-name="Group 45427" transform="translate(0.017)">
    <g id="Symbol_165_491" data-name="Symbol 165 – 491">
      <path id="Path_5247" data-name="Path 5247" d="M0,0H23.984V24H0Z" fill="none"/>
    </g>
  </g>
  <path id="Path_97458" data-name="Path 97458" d="M-20.927-5.377v2.914h-1.032v-7.568q1.171-.052,1.414-.052,3.292,0,3.292,2.206,0,2.552-2.911,2.552Q-20.339-5.325-20.927-5.377Zm0-3.725v2.795q.655.052.692.052,1.92,0,1.92-1.514,0-1.384-2.049-1.384A4.152,4.152,0,0,0-20.927-9.1Zm6.064,6.638h-1.522v-7.568q1.455-.052,1.863-.052a3.311,3.311,0,0,1,2.508.963,3.551,3.551,0,0,1,.924,2.565Q-11.09-2.463-14.862-2.463Zm-.49-6.638v5.657a5.942,5.942,0,0,0,.857.052,2.022,2.022,0,0,0,1.7-.814,3.656,3.656,0,0,0,.619-2.26q0-2.686-2.41-2.686Q-14.728-9.153-15.353-9.1Zm6.23,0V-7h2.658v.878H-9.123v3.657h-1.032v-7.568h4.008v.93Z" transform="translate(26.165 18.273)" fill="#a19a91"/>
  <g id="Vector" transform="translate(2.159 4.664)" fill="none" stroke-linecap="round" stroke-linejoin="round">
    <path d="M17.409-2C20.33-1.838,21.8-.694,21.8,3.539v7.567c0,3.711-.877,5.566-5.263,5.566H3.1c-4.386,0-5.263-1.855-5.263-5.566V3.539C-2.159-.694-.694-1.829,2.227-2Z" stroke="none"/>
    <path d="M 2.262779235839844 -0.7999992370605469 C 1.029018402099609 -0.723851203918457 0.2812252044677734 -0.4651079177856445 -0.1592216491699219 0.03730106353759766 C -0.6974620819091797 0.6512508392333984 -0.9591007232666016 1.796610832214355 -0.9591007232666016 3.538841247558594 L -0.9591007232666016 11.10597038269043 C -0.9591007232666016 12.86927032470703 -0.7397117614746094 13.9207706451416 -0.2477321624755859 14.51539039611816 C 0.09197807312011719 14.92597103118896 0.8089981079101562 15.47182083129883 3.103837966918945 15.47182083129883 L 16.53217887878418 15.47182083129883 C 18.82701873779297 15.47182083129883 19.54403877258301 14.92597103118896 19.88374900817871 14.51539039611816 C 20.37572860717773 13.9207706451416 20.59511756896973 12.86927032470703 20.59511756896973 11.10597038269043 L 20.59511756896973 3.538841247558594 C 20.59511756896973 1.795170783996582 20.33329772949219 0.6485004425048828 19.79470825195312 0.03332042694091797 C 19.3536376953125 -0.4704761505126953 18.60671234130859 -0.727971076965332 17.3751220703125 -0.7999992370605469 L 2.262779235839844 -0.7999992370605469 M 2.226678848266602 -2 L 17.40933799743652 -2 C 20.33026885986328 -1.837888717651367 21.79511833190918 -0.6940994262695312 21.79511833190918 3.538841247558594 L 21.79511833190918 11.10597038269043 C 21.79511833190918 14.81654071807861 20.91795921325684 16.67182159423828 16.53217887878418 16.67182159423828 L 3.103837966918945 16.67182159423828 C -1.281942367553711 16.67182159423828 -2.159101486206055 14.81654071807861 -2.159101486206055 11.10597038269043 L -2.159101486206055 3.538841247558594 C -2.159101486206055 -0.6940994262695312 -0.6942520141601562 -1.828878402709961 2.226678848266602 -2 Z" stroke="none" fill="#a19a91"/>
  </g>
</svg>
