<svg id="question" xmlns="http://www.w3.org/2000/svg" width="32" height="32" viewBox="0 0 32 32">
  <path id="Path_5247" data-name="Path 5247" d="M0,0H32V32H0Z" fill="none"/>
  <g id="Rectangle_783" data-name="Rectangle 783" transform="translate(3 3)" fill="none" stroke="#fff" stroke-width="1.2">
    <rect width="26" height="26" rx="13" stroke="none"/>
    <rect x="-0.6" y="-0.6" width="27.2" height="27.2" rx="13.6" fill="none"/>
  </g>
  <path id="Union_38" data-name="Union 38" d="M9706.095,13704.175a1,1,0,1,1,1,1A1,1,0,0,1,9706.095,13704.175Zm.894-2.541a.921.921,0,0,1-.9-.933,4.124,4.124,0,0,0-.189-.952,2.4,2.4,0,0,0-.547-.761c-.1-.1-.209-.192-.326-.289l-.351-.289c-.148-.12-.293-.24-.437-.36s-.274-.244-.4-.365a2.6,2.6,0,0,1-.636-1.042,4.081,4.081,0,0,1-.2-1.3,2.819,2.819,0,0,1,.323-1.327,3.7,3.7,0,0,1,.843-1.063,4.1,4.1,0,0,1,1.169-.705,3.631,3.631,0,0,1,1.3-.251,3.928,3.928,0,0,1,1.5.272,2.969,2.969,0,0,1,1.111.777,3.915,3.915,0,0,1,.884,2.534.877.877,0,0,1-.884.905.928.928,0,0,1-.946-.905,3.653,3.653,0,0,0-.134-.636,1.6,1.6,0,0,0-.361-.609,1.345,1.345,0,0,0-.529-.333,1.93,1.93,0,0,0-.637-.1,2.153,2.153,0,0,0-.678.106,1.662,1.662,0,0,0-.533.3,1.386,1.386,0,0,0-.351.458,1.324,1.324,0,0,0-.124.57,2.054,2.054,0,0,0,.176.856,1.816,1.816,0,0,0,.516.668l1.352,1.065a1.858,1.858,0,0,1,.379.461,3.453,3.453,0,0,1,.292.654,5.139,5.139,0,0,1,.193.777,3,3,0,0,1,.062.88s-.041.933-.908.933Z" transform="translate(-9690.747 -13682.586)" fill="#fff"/>
</svg>
