<svg id="quote-logo" xmlns="http://www.w3.org/2000/svg" xmlns:xlink="http://www.w3.org/1999/xlink" width="164.194" height="28.113" viewBox="0 0 164.194 28.113">
  <defs>
    <linearGradient id="linear-gradient" x1="-21.128" y1="-5.223" x2="-21.523" y2="4.836" gradientUnits="objectBoundingBox">
      <stop offset="0" stop-color="#1ec8c4"/>
      <stop offset="1" stop-color="#016a63"/>
    </linearGradient>
  </defs>
  <g id="_35131" data-name="35131" transform="translate(0 1.98)">
    <g id="_281e1eff" data-name="#281e1eff" transform="translate(0)">
      <path id="Path_13714" data-name="Path 13714" d="M273.98,35.275c.421-.676.832-1.357,1.249-2.035a1.9,1.9,0,0,1,1.284.816,4.386,4.386,0,0,1-1.3,1.669A4.894,4.894,0,0,0,273.98,35.275Z" transform="translate(-256.769 -33.24)" fill="url(#linear-gradient)"/>
      <path id="Path_13715" data-name="Path 13715" d="M218.47,60.766c.424-.684.834-1.377,1.266-2.056a1.9,1.9,0,0,1,1.24.8,3.96,3.96,0,0,1-1.234,1.694A5.465,5.465,0,0,0,218.47,60.766Z" transform="translate(-208.028 -55.604)" fill="url(#linear-gradient)"/>
      <path id="Path_13716" data-name="Path 13716" d="M169.887,61.773a6.618,6.618,0,0,1,2.341-.413c.252,0,.315.257.226.451a3.452,3.452,0,0,1-1.184,1.841c-.8.721-1.8,1.188-2.621,1.88a.792.792,0,0,0-.282.771c.117.289.449.384.689.544a1.468,1.468,0,0,1-.722,1.519c-.466.028-.95-.282-1.424-.072-.438.285-.757.746-1.257.935a1.4,1.4,0,0,1-.689-.15,3.922,3.922,0,0,1-1.077,1.078c-.334.189-.588-.28-.926-.25a2.847,2.847,0,0,0-2.123.871c-.248.23-.563.519-.5.893.122.489.663.609,1.017.879A1.586,1.586,0,0,1,161.7,73.9a8.668,8.668,0,0,1-2.752,5.221,4.272,4.272,0,0,1-3.051,1.229,2.263,2.263,0,0,1-1.8-.887,4.54,4.54,0,0,1-.688-3.14,13.584,13.584,0,0,1,2-5.1,10.3,10.3,0,0,1,1.249-1.916,13.342,13.342,0,0,1-.952,2.16,10.856,10.856,0,0,0-1.328,3.523,2.575,2.575,0,0,0,.739,2.232,2.863,2.863,0,0,0,2.383.61,4.625,4.625,0,0,0,3.2-2.068.424.424,0,0,0-.1-.609c-.556-.368-1.338-.576-1.552-1.288a3.436,3.436,0,0,1,.474-2.093,6.589,6.589,0,0,1,3.094-3.146,1.578,1.578,0,0,1,1.132-.161c.1.122.2.245.318.359.2.07.348-.143.519-.21a4.463,4.463,0,0,1,.816-2.351c.012.409-.1,1.056.4,1.211.665.263,1.15-.368,1.629-.711a4.165,4.165,0,0,1,1.526-2.362,1.782,1.782,0,0,1-.9-.35c-.163-.223-.02-.51.088-.724a3.6,3.6,0,0,1,1.738-1.55m-1.233,1.435c-.368.516.483.863.888.812a7.547,7.547,0,0,0,2.11-1.53,1.337,1.337,0,0,0-.629-.167A3.717,3.717,0,0,0,168.654,63.208Z" transform="translate(-150.877 -57.931)" fill="url(#linear-gradient)"/>
      <path id="Path_13717" data-name="Path 13717" d="M296.957,73.988a8.785,8.785,0,0,1,1.279-2.168,2.707,2.707,0,0,1,1.718.512,1.3,1.3,0,0,1,.162,1.419A3.212,3.212,0,0,1,298.9,75.18a9.7,9.7,0,0,1-2.484.906,4.708,4.708,0,0,0-3.169,2.224,15.542,15.542,0,0,0-1.162,5.964c-.093,1.632-.182,3.265-.278,4.9a3.731,3.731,0,0,1-.2,1.21,14.118,14.118,0,0,1-.132-2.189,43.761,43.761,0,0,1,.27-6.05,13.617,13.617,0,0,1,1.011-3.836,8.44,8.44,0,0,1,3.373-3.816A7.488,7.488,0,0,0,296.957,73.988Z" transform="translate(-273.194 -66.579)" fill="url(#linear-gradient)"/>
      <path id="Path_13721" data-name="Path 13721" d="M1.422.53a1.779,1.779,0,0,1,.4-.53c-.063,1.044-.287,2.075-.4,3.115A11.466,11.466,0,0,1,.561,6.7,2.44,2.44,0,0,1,0,7.517a7.743,7.743,0,0,1,.182-1.14C.4,5.083.549,3.78.733,2.48A6.678,6.678,0,0,1,1.422.53Z" transform="translate(26.479 9.704) rotate(-3)" fill="url(#linear-gradient)"/>
      <path id="Path_13724" data-name="Path 13724" d="M321.785,120.112c.143-.333.272-.769.682-.852-.13,1.249-.738,2.488-.411,3.763a.906.906,0,0,0,.782.748c.123-.252.243-.506.362-.76.289.01.6.137.623.463a3.248,3.248,0,0,1-.7,2.228,1.2,1.2,0,0,1-1.693.217,2.246,2.246,0,0,1-.506-1.439A11.549,11.549,0,0,1,321.785,120.112Z" transform="translate(-297.983 -108.77)" fill="url(#linear-gradient)"/>
      <path id="Path_13730" data-name="Path 13730" d="M229.6,170.525c.268-.4.582-.765.861-1.155a1.179,1.179,0,0,1,.948.837,3.633,3.633,0,0,1-1.159,1.5c-.328-.167-.655-.341-1-.483-.28.361-.5.848-.958,1a3.452,3.452,0,0,0-1.194-.394c.434-.626.879-1.243,1.3-1.879A2.232,2.232,0,0,1,229.6,170.525Z" transform="translate(-215.606 -152.769)" fill="url(#linear-gradient)"/>
      <g id="Group_9401" data-name="Group 9401" transform="translate(0 2.048)">
        <path id="Path_13718" data-name="Path 13718" d="M56.77,78.265c.078-.076.236-.092.28.028a2.119,2.119,0,0,1-.036.675.461.461,0,0,1,.168.45c-.093-.063-.182-.132-.273-.2a2,2,0,0,1-1.469.822,6.394,6.394,0,0,0,1.333-.837,1.331,1.331,0,0,1-.318-.3.923.923,0,0,1,.315-.64m-.2.479c.112.062.227.12.342.178,0-.114,0-.228,0-.341C56.757,78.518,56.649,78.616,56.568,78.744Z" transform="translate(-53.589 -78.205)" fill="url(#linear-gradient)"/>
        <path id="Path_13719" data-name="Path 13719" d="M89.044,88.662a1.589,1.589,0,0,1,.483-.9c-.118.316-.483.673-.266,1.013.2.157.275-.182.372-.3.014.221-.016.537-.275.6C89.138,89.105,89.02,88.845,89.044,88.662Z" transform="translate(-84.492 -86.993)" fill="url(#linear-gradient)"/>
        <path id="Path_13720" data-name="Path 13720" d="M35.9,103.463c.239-.324.5-.637.757-.943a6.772,6.772,0,0,1-.523,1.088,1.129,1.129,0,0,1,.235.882.912.912,0,0,1-1.095.724c-.2-.488.107-.993.34-1.412q-.139-.135-.275-.271.04-.251.084-.5c.16.144.318.288.477.432m-.425,1.3a1.244,1.244,0,0,0,.792-.343,2.14,2.14,0,0,0-.464-.483A1.11,1.11,0,0,0,35.471,104.764Z" transform="translate(-34.979 -100.567)" fill="url(#linear-gradient)"/>
        <path id="Path_13722" data-name="Path 13722" d="M60.162,106.407c-.144-.263.058-.554.253-.728.007.151-.177.475.082.477a4.488,4.488,0,0,0,.3-.459c.027.128-.023.3.116.377.2-.059.1-.36.292-.445.093.31-.067.8-.464.739C60.547,106.348,60.349,106.511,60.162,106.407Z" transform="translate(-57.887 -103.428)" fill="url(#linear-gradient)"/>
        <path id="Path_13723" data-name="Path 13723" d="M42.089,115.425c0-.257-.05-.611.222-.755a1.381,1.381,0,0,1-.136,1.071c-.177.2-.461.1-.668.01a1.591,1.591,0,0,1-1.09.358c-.171-.022-.283-.165-.4-.276a1.71,1.71,0,0,1-.855.161,2.656,2.656,0,0,1-.882,1.312.924.924,0,0,1-.834.248,2.864,2.864,0,0,1-.688-.327,1.359,1.359,0,0,1-.418-.669l.092.016a.817.817,0,0,0,.511.561,1.793,1.793,0,0,0,1.683-.6c.118-.161.288-.334.239-.553a.976.976,0,0,1,.143-.546,1.237,1.237,0,0,0,1.389-.3c-.014.135-.028.27-.043.4a1.145,1.145,0,0,0,.9-.084c.254-.128.286-.444.428-.663.029.18.054.361.088.541Z" transform="translate(-36.023 -111.742)" fill="url(#linear-gradient)"/>
        <path id="Path_13725" data-name="Path 13725" d="M116.422,130.09a4.134,4.134,0,0,1,.468.291q-.092.217-.19.43c-.142-.095-.285-.19-.43-.283C116.321,130.382,116.371,130.236,116.422,130.09Z" transform="translate(-109.534 -125.923)" fill="url(#linear-gradient)"/>
        <path id="Path_13726" data-name="Path 13726" d="M107.788,131.53a2.61,2.61,0,0,1,.478.289c-.062.149-.131.3-.2.44l-.422-.293C107.688,131.82,107.738,131.675,107.788,131.53Z" transform="translate(-101.597 -127.248)" fill="url(#linear-gradient)"/>
        <path id="Path_13727" data-name="Path 13727" d="M81.679,135.3c.016.158-.1.365.031.487.224-.006.234-.328.385-.455.014.118.03.236.045.354H82.3c.052-.149.063-.33.21-.423a.7.7,0,0,1-.233.715.649.649,0,0,1-.381.009c-.139.044-.288.138-.43.051C81.293,135.778,81.552,135.511,81.679,135.3Z" transform="translate(-77.47 -130.678)" fill="url(#linear-gradient)"/>
        <path id="Path_13728" data-name="Path 13728" d="M82.784,137.74c.269.892.335,1.836.646,2.717a.586.586,0,0,0,.511.425c.3.036.7-.284.491-.6-.116.122-.232.279-.421.272-.226.039-.386-.185-.388-.389a1.227,1.227,0,0,1,.341-.947c.142-.145.3.028.388.137a1.453,1.453,0,0,1,0,1.789.6.6,0,0,1-.875.049,3.017,3.017,0,0,1-.393-.774,1.675,1.675,0,0,1-1.4.705,1.142,1.142,0,0,1-.532-.106.971.971,0,0,1,.116-1.049c0,.2-.163.5.1.594a2.464,2.464,0,0,0,1.259-.092c.168-.057.443-.144.386-.373-.122-.6-.295-1.181-.388-1.782a1.079,1.079,0,0,1,.153-.578m1.136,1.953a1.112,1.112,0,0,0,.007.437,1.2,1.2,0,0,0,.4-.094C84.247,139.876,84.159,139.6,83.921,139.693Z" transform="translate(-77.144 -132.959)" fill="url(#linear-gradient)"/>
        <path id="Path_13729" data-name="Path 13729" d="M36.574,150.393a1.141,1.141,0,0,1,.131-.793,1.243,1.243,0,0,1,0,1.013c-.133.271-.475.249-.708.135a1.011,1.011,0,0,1-.745.179,2.48,2.48,0,0,1-.5,1.661,2,2,0,0,1-1.348.425,1.037,1.037,0,0,1-.929-.577,1.731,1.731,0,0,1,.2-1.424c.067-.109.113-.263.254-.3a4.939,4.939,0,0,0,1.784-.859,1.994,1.994,0,0,1-1.83.942c-.105.377-.338.758-.218,1.161a.784.784,0,0,0,.728.548,2.022,2.022,0,0,0,1.418-.339.911.911,0,0,0,.217-.766,2.646,2.646,0,0,0-.214-.886,1.947,1.947,0,0,1,.112-.516c.124.247.31.557.642.455.381-.01.418-.447.588-.7.014.14.016.281.033.421C36.237,150.349,36.435,150.354,36.574,150.393Z" transform="translate(-32.392 -143.867)" fill="url(#linear-gradient)"/>
        <path id="Path_13731" data-name="Path 13731" d="M78.36,183.236a3.1,3.1,0,0,0,.9-.526,1.918,1.918,0,0,1-1.86.908A5.02,5.02,0,0,1,78.36,183.236Z" transform="translate(-73.785 -174.317)" fill="url(#linear-gradient)"/>
      </g>
    </g>
  </g>
  <g id="_03" data-name="03" transform="translate(36.926 0.98)">
    <g id="_281e1eff-2" data-name="#281e1eff" transform="translate(0)">
      <path id="Path_13785" data-name="Path 13785" d="M48.9,77.1a3.052,3.052,0,0,1,.612-.32,2.5,2.5,0,0,1-1,2.1c-.4.3-.894.428-1.291.729a29.617,29.617,0,0,0-3.45,2.854,1.568,1.568,0,0,1-.894.537,2.492,2.492,0,0,1-1.108-.455,13.473,13.473,0,0,1-2,6.677,2.713,2.713,0,0,1-2.688,1.088c1.011-.973,2.281-1.734,2.958-3.008.823-1.457.632-3.184.766-4.789a9.713,9.713,0,0,1-1.716,2.033A15.293,15.293,0,0,1,33.8,86.885,37.991,37.991,0,0,1,20.9,88.044,8.677,8.677,0,0,1,16.761,86.8a1.873,1.873,0,0,1-.792-1.514,10.454,10.454,0,0,1,.417-3.005,4.473,4.473,0,0,0,.937,1.185,8.07,8.07,0,0,0,3.6,1.243,36.667,36.667,0,0,0,8.922.038A40.667,40.667,0,0,0,37.9,83.014a7.181,7.181,0,0,0,3.045-1.8,14.055,14.055,0,0,1,1.22-3.062c-.026.889-.2,1.767-.24,2.654a14.342,14.342,0,0,0,1.6.572,5.744,5.744,0,0,0,1.1-.834A54.777,54.777,0,0,1,48.9,77.1Z" transform="translate(-15.966 -77.76)" fill="url(#linear-gradient)"/>
      <path id="Path_13786" data-name="Path 13786" d="M578.077,77.151c.688-1.176,2.8-.474,2.778.845A2.941,2.941,0,0,1,579.8,79.95c-1.019.985-2.494,1.128-3.739,1.688a6.422,6.422,0,0,0-2.8,1.782,14.912,14.912,0,0,0,3.355-.486c.243-.078.649-.038.6.308-.122.76-.769,1.279-1.176,1.894a8.7,8.7,0,0,1-2.911,2.945,2.828,2.828,0,0,1-2.282.3,2.2,2.2,0,0,1-1.347-1.74A7.344,7.344,0,0,1,570,83.017c-1.833,2.1-6.558,6.448-10.891,7.614s-7.839,1.625-11.162.813a24.3,24.3,0,0,1-2.407,7.232,13.3,13.3,0,0,1-3.013,3.641,6.035,6.035,0,0,1-4.389,1.442,3.6,3.6,0,0,1-3.122-1.613,7.068,7.068,0,0,1-.645-3.887,13.452,13.452,0,0,1,1.385-5.337,1.225,1.225,0,0,1,.4-.48c-.152,1.5-.946,2.888-.882,4.419a4.174,4.174,0,0,0,.8,2.67,4.339,4.339,0,0,0,3.45,1.046,7.5,7.5,0,0,0,5.273-2.762,11.719,11.719,0,0,0,2.253-6.946c.143-.829.052-1.813.655-2.471.7-.452,1.542.071,2.288.155,5.07.829,8.342-.129,13.017-2.2a21.919,21.919,0,0,0,6.155-4.13c.794-.692,1.506-1.479,2.354-2.108-.22,1.3-.888,2.516-.837,3.865a2.256,2.256,0,0,0,1.483,2.336,3.717,3.717,0,0,0,3.411-1.72c-1.088.049-2.15.383-3.241.357-.437.008-.536-.457-.362-.777a6.562,6.562,0,0,1,2.222-2.6,24.94,24.94,0,0,1,3.341-1.74c-.279-.128-.788-.082-.854-.434A25.169,25.169,0,0,1,578.077,77.151Z" transform="translate(-453.586 -76.649)" fill="url(#linear-gradient)"/>
      <path id="Path_13787" data-name="Path 13787" d="M96.724,80.455c.368-.483.749-.956,1.109-1.445a1.578,1.578,0,0,1,1.157.926c.074.352-.212.642-.383.919-.325.383-.6.865-1.076,1.073-.417-.168-.8-.4-1.22-.568-.372.439-.639,1.108-1.242,1.25a5.259,5.259,0,0,0-1.45-.516c.526-.789,1.086-1.554,1.614-2.344A2.746,2.746,0,0,1,96.724,80.455Z" transform="translate(-81.671 -78.647)" fill="url(#linear-gradient)"/>
      <path id="Path_13788" data-name="Path 13788" d="M273.844,87.754c.451-.3,1.26.152.917.708-.339.129-.622-.259-.957-.158-.277.052-.426.315-.6.5a1.448,1.448,0,0,0,1.231.52c.48-.023.922-.294,1.411-.225a4.872,4.872,0,0,1-1.41.772,8.56,8.56,0,0,0-2.7,1.862c-.037-.071-.109-.214-.146-.285a14.531,14.531,0,0,1,1.111-1.173c-.191-.172-.379-.348-.56-.529A4.738,4.738,0,0,1,273.844,87.754Z" transform="translate(-241.146 -53.07) rotate(-7)" fill="url(#linear-gradient)"/>
      <path id="Path_13789" data-name="Path 13789" d="M355.57,92.381q.787-1.3,1.582-2.591a2.477,2.477,0,0,1,1.191.56c.171.185.511.394.309.677a5.311,5.311,0,0,1-1.493,1.905A6.2,6.2,0,0,0,355.57,92.381Z" transform="translate(-301.904 -88.761)" fill="url(#linear-gradient)"/>
      <path id="Path_13790" data-name="Path 13790" d="M321.785,95.98a2.328,2.328,0,0,1,1.627,1.042A5.812,5.812,0,0,1,321.937,99c-.162.168-.383-.014-.554-.063a4.918,4.918,0,0,0-1.183-.38C320.752,97.713,321.268,96.846,321.785,95.98Z" transform="translate(-271.977 -93.999)" fill="url(#linear-gradient)"/>
      <path id="Path_13791" data-name="Path 13791" d="M180.362,100.017a11.327,11.327,0,0,1,1.34-3.547,8.033,8.033,0,0,1-.137,1.6,20,20,0,0,0-.088,2.958c.057.759.872,1.166,1.553,1.21.469-.042.714-.511,1.089-.739a4.67,4.67,0,0,1-1.463,2.691c-.391.391-.956.155-1.416.046a41.7,41.7,0,0,1-.626,5.634,15.6,15.6,0,0,1-5.578,9.179,6.5,6.5,0,0,1-5.58,1.294,3.582,3.582,0,0,1-2.531-2.01,7.1,7.1,0,0,1-.157-4.576,17.861,17.861,0,0,1,1.513-3.895,1.574,1.574,0,0,1,.7-.709,17.047,17.047,0,0,1-.759,2.022,6.074,6.074,0,0,0-.3,3.83,3.139,3.139,0,0,0,1.944,1.959,6.477,6.477,0,0,0,5.723-.759,8.14,8.14,0,0,0,3.989-5.62C180.067,107.085,179.961,103.53,180.362,100.017Z" transform="translate(-143.309 -93.42)" fill="url(#linear-gradient)"/>
      <path id="Path_13792" data-name="Path 13792" d="M521.641,100.266a1.375,1.375,0,0,1,1.871.245.858.858,0,0,1-.075.868,2.265,2.265,0,0,0-1.722-.255c-.383.175-.84.428-.911.885.221.677,1.036.883,1.662.988,1.188.252,1.9-1.109,3.042-1.1.085.208-.086.368-.206.514-.449.48-1.056.769-1.537,1.213-1.076.971-2.062,2.037-3.116,3.031a9.644,9.644,0,0,1-2.222,1.793,12.569,12.569,0,0,1-3.341,1.036,6.461,6.461,0,0,1-2.413.037c-.394-.049-.872-.211-1.186.128-.677.766-1.1,1.827-2.076,2.285a2.068,2.068,0,0,1-2.111-.908,6.61,6.61,0,0,1-.328-2.879,32.314,32.314,0,0,1,.955-6.886c.162-.4.249-.761.659-.991a5.8,5.8,0,0,1-.154,1.9,23.074,23.074,0,0,0-.535,4.067c.01,1.294.134,1.893.69,2.365a2.093,2.093,0,0,0,2.611,0,8.447,8.447,0,0,1,1.742-1.793c.425-.162.865.1,1.276.209,1.043-1.154,1.967-2.538,3.439-3.182a1.477,1.477,0,0,1,1.439.183,3.765,3.765,0,0,1-.694,2.217,9.843,9.843,0,0,1-1.626,2.113,13.634,13.634,0,0,0,4.579-3.565,2.01,2.01,0,0,1-1.734-.863,1.286,1.286,0,0,1,.226-1.323,6.867,6.867,0,0,1,1.8-2.325m-5.3,5.007a11.229,11.229,0,0,0-1.762,1.843,6.151,6.151,0,0,0,3.435-1.594A1.154,1.154,0,0,0,516.342,105.273Z" transform="translate(-429.262 -97.369)" fill="url(#linear-gradient)"/>
      <path id="Path_13793" data-name="Path 13793" d="M48.48,119.842l.262-.262c.057,1.556-.692,3.119-.2,4.663a1.113,1.113,0,0,0,.931.8c.154-.319.308-.637.457-.959.346.011.719.143.779.534a4.1,4.1,0,0,1-.588,2.477,1.665,1.665,0,0,1-1.9.914c-.459-.143-.648-.622-.8-1.031a3.952,3.952,0,0,1-1.388,1.6c-.785.4-1.382-.611-2.154-.494-.462.182-.651.691-.951,1.049a7.075,7.075,0,0,1-2.958,2.244,31.608,31.608,0,0,1-8.824,2.233,35.717,35.717,0,0,1-7.934.063,8.032,8.032,0,0,1-3.59-1.148,1.867,1.867,0,0,1-.848-1.5,10.561,10.561,0,0,1,.4-3.015,5.855,5.855,0,0,0,1.011,1.189,9.31,9.31,0,0,0,4.2,1.274,38.364,38.364,0,0,0,10.707-.4,27.63,27.63,0,0,0,7.179-2.051c.836-.379,1.385-1.193,2.242-1.522.677-.055,1.2.523,1.862.542a1.941,1.941,0,0,0,.877-1.707A18.373,18.373,0,0,1,48.48,119.842Z" transform="translate(-18.341 -112.974)" fill="url(#linear-gradient)"/>
      <path id="Path_13794" data-name="Path 13794" d="M291.4,132.829c.354-.408.934-.112,1.26.175a1.982,1.982,0,0,1,.646,1.831,5.543,5.543,0,0,1-1.874,3.412,8.642,8.642,0,0,1-3.116,2.284,9.928,9.928,0,0,1-5.523.72.775.775,0,0,0-.854.277,7.924,7.924,0,0,1-1.928,2.176,2.158,2.158,0,0,1-2.433-1.16,6.028,6.028,0,0,1-.1-3.232,14.368,14.368,0,0,1,1.077-3.641,1.412,1.412,0,0,1,.657-.706,7.86,7.86,0,0,1-.4,2.171,4.221,4.221,0,0,0,.154,3.084,2.077,2.077,0,0,0,2.211.545c.97-.475,1.323-1.671,2.293-2.164.422-.168.846.091,1.251.189a18.518,18.518,0,0,1,2.776-2.8,1.816,1.816,0,0,1,1.853-.331c.446.246.248.826.129,1.209a11.177,11.177,0,0,1-2.091,3.225,8.177,8.177,0,0,0,2.484-1.583,12.335,12.335,0,0,0,2.09-2.034c.2-.262.023-.56-.08-.817-.4.285-.928.58-1.4.262-.514-.226-.229-.823-.086-1.2a6.1,6.1,0,0,1,1-1.888m-4.326,4.122a7.857,7.857,0,0,0-1.92,1.954,4.567,4.567,0,0,0,2.1-.68,3.058,3.058,0,0,0,1.294-1.059A1.439,1.439,0,0,0,287.072,136.951Z" transform="translate(-237.091 -124.015)" fill="url(#linear-gradient)"/>
      <path id="Path_13795" data-name="Path 13795" d="M456.069,142.65a6.853,6.853,0,0,1,1.258-2.9c.732.439,1.587,1.093,1.561,2a6.347,6.347,0,0,1-1.927,4.3,1.884,1.884,0,0,1-1.79.7c-.508-.288-.44-.989-.294-1.466a9.651,9.651,0,0,1,1.076-2.475m-.179,2.1a1.318,1.318,0,0,0,1.683-.7c.029-.649-.62-1.073-1.1-1.4C456,143.412,455.428,144.194,455.774,144.905Z" transform="translate(-385.108 -128.796)" fill="url(#linear-gradient)"/>
      <path id="Path_13796" data-name="Path 13796" d="M373.716,145.193c.511-.1.608-.674.874-1.043.529.366.4,1.086.192,1.6A1.692,1.692,0,0,1,373.354,147c-.7.115-1.166-.672-1.873-.54a3.285,3.285,0,0,0-2.441,1.777c.469.025,1.143-.249,1.43.271a1.9,1.9,0,0,1-.282,1.543,4.344,4.344,0,0,1-3.305,2.394c-.936.077-1.563-.756-1.837-1.546-1.2.859-2.333,1.8-3.564,2.61a1.784,1.784,0,0,1-.993.374,11.9,11.9,0,0,1,1.547-1.677,50.821,50.821,0,0,1,4.463-4.155c.152.371.255.834.643,1.037a1.984,1.984,0,0,0,.76.2,10.356,10.356,0,0,1,3.321-4.2,2.614,2.614,0,0,1,1.8-.571C373.379,144.565,373.505,144.953,373.716,145.193Z" transform="translate(-306.286 -133.935)" fill="url(#linear-gradient)"/>
      <path id="Path_13797" data-name="Path 13797" d="M92.182,155.723c.359-.5.739-.977,1.125-1.453.549.131,1.3.62,1.1,1.273a4.469,4.469,0,0,1-1.445,1.662c-.388-.217-.78-.425-1.185-.606a3.851,3.851,0,0,1-1.236,1.306,4.16,4.16,0,0,0-1.457-.574c.552-.762,1.074-1.543,1.608-2.319A2.557,2.557,0,0,1,92.182,155.723Z" transform="translate(-77.829 -142.326)" fill="url(#linear-gradient)"/>
      <path id="Path_13798" data-name="Path 13798" d="M4.169,2.744A18.412,18.412,0,0,1,5.54,0a7.735,7.735,0,0,1-.582,2.2,11.274,11.274,0,0,1-2.4,4.2A3.108,3.108,0,0,1,.7,7.357c-.3.02-.763-.118-.7-.5.014-.594.577-.912,1.022-1.188A7.284,7.284,0,0,0,4.169,2.744Z" transform="matrix(0.998, -0.07, 0.07, 0.998, 70.76, 13.982)" fill="url(#linear-gradient)"/>
      <path id="Path_13799" data-name="Path 13799" d="M790.41,181.52a2.516,2.516,0,0,1,1.625,1.008,6.388,6.388,0,0,1-1.373,1.948c-.218.266-.522.04-.765-.049a7.213,7.213,0,0,0-1.028-.348C789.392,183.233,789.9,182.376,790.41,181.52Z" transform="translate(-669.935 -165.382)" fill="url(#linear-gradient)"/>
      <path id="Path_13800" data-name="Path 13800" d="M428.566,198.787c.292-.385.534-.856,1-1.057-.58,1.025-1.466,1.954-1.542,3.193a5.54,5.54,0,0,1,.906-.7c1.1.7.108,2.6-1.089,2.279-.482-.068-.608-.629-.548-1.036a6.872,6.872,0,0,1,1.273-2.679m-.5,2.587c.034.606,1.051.432.785-.129C428.593,201.031,428.291,201.2,428.069,201.374Z" transform="translate(-364.975 -179.247)" fill="url(#linear-gradient)"/>
    </g>
  </g>
</svg>
