<svg width="200" height="200" viewBox="0 0 200 200" fill="none" xmlns="http://www.w3.org/2000/svg">
<g clip-path="url(#clip0_61_641)">
<circle cx="7.5" cy="7.5" r="7.5" fill="#EEF6FF"/>
<circle cx="42.5" cy="7.5" r="7.5" fill="#EEF6FF"/>
<circle cx="77.5" cy="7.5" r="7.5" fill="#EEF6FF"/>
<circle cx="112.5" cy="7.5" r="7.5" fill="#EEF6FF"/>
<circle cx="147.5" cy="7.5" r="7.5" fill="#EEF6FF"/>
<circle cx="182.5" cy="7.5" r="7.5" fill="#EEF6FF"/>
<circle cx="7.5" cy="42.5" r="7.5" fill="#EEF6FF"/>
<circle cx="42.5" cy="42.5" r="7.5" fill="#EEF6FF"/>
<circle cx="77.5" cy="42.5" r="7.5" fill="#EEF6FF"/>
<circle cx="112.5" cy="42.5" r="7.5" fill="#EEF6FF"/>
<circle cx="147.5" cy="42.5" r="7.5" fill="#EEF6FF"/>
<circle cx="182.5" cy="42.5" r="7.5" fill="#EEF6FF"/>
<circle cx="7.5" cy="77.5" r="7.5" fill="#EEF6FF"/>
<circle cx="42.5" cy="77.5" r="7.5" fill="#EEF6FF"/>
<circle cx="77.5" cy="77.5" r="7.5" fill="#EEF6FF"/>
<circle cx="112.5" cy="77.5" r="7.5" fill="#EEF6FF"/>
<circle cx="147.5" cy="77.5" r="7.5" fill="#EEF6FF"/>
<circle cx="182.5" cy="77.5" r="7.5" fill="#EEF6FF"/>
<circle cx="7.5" cy="112.5" r="7.5" fill="#EEF6FF"/>
<circle cx="42.5" cy="112.5" r="7.5" fill="#EEF6FF"/>
<circle cx="77.5" cy="112.5" r="7.5" fill="#EEF6FF"/>
<circle cx="112.5" cy="112.5" r="7.5" fill="#EEF6FF"/>
<circle cx="147.5" cy="112.5" r="7.5" fill="#EEF6FF"/>
<circle cx="182.5" cy="112.5" r="7.5" fill="#EEF6FF"/>
<circle cx="7.5" cy="147.5" r="7.5" fill="#EEF6FF"/>
<circle cx="42.5" cy="147.5" r="7.5" fill="#EEF6FF"/>
<circle cx="77.5" cy="147.5" r="7.5" fill="#EEF6FF"/>
<circle cx="112.5" cy="147.5" r="7.5" fill="#EEF6FF"/>
<circle cx="147.5" cy="147.5" r="7.5" fill="#EEF6FF"/>
<circle cx="182.5" cy="147.5" r="7.5" fill="#EEF6FF"/>
<circle cx="7.5" cy="182.5" r="7.5" fill="#EEF6FF"/>
<circle cx="42.5" cy="182.5" r="7.5" fill="#EEF6FF"/>
<circle cx="77.5" cy="182.5" r="7.5" fill="#EEF6FF"/>
<circle cx="112.5" cy="182.5" r="7.5" fill="#EEF6FF"/>
<circle cx="147.5" cy="182.5" r="7.5" fill="#EEF6FF"/>
<circle cx="182.5" cy="182.5" r="7.5" fill="#EEF6FF"/>
</g>
<defs>
<clipPath id="clip0_61_641">
<rect width="200" height="200" fill="white"/>
</clipPath>
</defs>
</svg>
