<?xml version="1.0" encoding="utf-8"?>
<!-- Generator: Adobe Illustrator 27.6.1, SVG Export Plug-In . SVG Version: 6.00 Build 0)  -->
<svg version="1.1" id="Layer_1" xmlns="http://www.w3.org/2000/svg" xmlns:xlink="http://www.w3.org/1999/xlink" x="0px" y="0px"
	 viewBox="0 0 75 97" style="enable-background:new 0 0 75 97;" xml:space="preserve">
<g>
	<g>
		<path d="M52.4,88.8l-0.6,1.1c0,0.5,0.1,1.4,0.8,1.4c0.7,0,0.9-1.3,1-2c0-0.2-0.1-0.2-0.1,0c-0.1,0.2-0.2,0.6-0.5,0.6
			C52.5,89.9,52.4,89.5,52.4,88.8z"/>
		<path d="M51.2,95c0,0,0.1,0.1,0.3,0.3c0.2,0.2,0.3,0.2,0.4,0.2c0.1,0,0.3-0.2,0.6-0.7c0.1,0.1,0.2,0.2,0.4,0.3
			c0.1,0.1,0.2,0.1,0.2,0.1c0.1,0,0.2-0.1,0.4-0.3c0.2-0.2,0.3-0.4,0.3-0.6c0-0.1-0.1-0.3-0.2-0.4c-0.2-0.1-0.3-0.2-0.4-0.2
			c0,0-0.1,0.1-0.2,0.3c-0.1,0.1-0.2,0.3-0.3,0.4c-0.1-0.1-0.2-0.2-0.3-0.3c-0.2-0.1-0.3-0.2-0.4-0.2c0,0-0.2,0.2-0.3,0.5
			C51.3,94.7,51.2,94.9,51.2,95z M51.9,96.2c0,0.1,0.2,0.2,0.3,0.3c0.1,0.1,0.3,0.2,0.3,0.2c0.1,0,0.2-0.1,0.3-0.3
			C53,96.1,53,96,53,95.8c0-0.1-0.1-0.2-0.2-0.4c-0.1-0.1-0.3-0.2-0.4-0.2c0,0-0.1,0.1-0.3,0.4C52,96,51.9,96.1,51.9,96.2z"/>
		<path d="M52.4,88.8c0-1,0.2-2.2,0.4-3.3c0.1-0.4-0.1-0.2-0.1,0c-0.2,0.3-0.3,0.6-0.3,0.8c-0.1,0.2-0.1,0.3-0.1,0.5
			c-0.2,1.5-0.3,2.5-0.3,3.1C52,89.9,52.3,89.3,52.4,88.8z"/>
		<path d="M49.5,88.4L49.1,89c0.2,0.1,0.4,0.2,0.6,0.3c0.3,0.1,0.4-0.1,0.6-0.3c0.2-0.2,0.3-0.6,0.4-0.8c0.1-0.2,0-0.2-0.1,0
			c-0.2,0.2-0.3,0.3-0.4,0.4c-0.1,0.1-0.2,0.1-0.3,0C49.8,88.6,49.7,88.5,49.5,88.4z"/>
		<path d="M48.7,93c0,0,0.1,0.1,0.3,0.3c0.1,0,0.1,0.1,0.2,0.1c0.1,0,0.1,0.1,0.2,0.1c0.1,0,0.3-0.2,0.6-0.7
			c0.1,0.1,0.2,0.2,0.4,0.3c0.1,0.1,0.2,0.2,0.2,0.2c0.1,0,0.2-0.1,0.4-0.3c0.2-0.2,0.3-0.4,0.3-0.6c0-0.1-0.1-0.3-0.3-0.4
			c-0.2-0.1-0.3-0.2-0.4-0.2c0,0-0.1,0.1-0.2,0.3c-0.1,0.1-0.2,0.3-0.3,0.4c-0.1-0.1-0.2-0.2-0.3-0.3C49.5,92,49.4,92,49.3,92
			c0,0-0.2,0.2-0.4,0.5C48.7,92.8,48.7,92.9,48.7,93z"/>
		<path d="M48.5,87.6c1.4-1.1,2.7-2.2,4.1-3.4c0.5-0.5,0.9-1.1,1.3-1.7c0.3-0.6-0.1-0.2-0.2-0.1c-1.6,1.6-3.3,3-5.1,4.4
			c-0.5,0.4-0.8,0.7-1,0.9c-0.1,0.1-0.2,0.2-0.2,0.2c0,0-0.1,0-0.1,0c0,0-0.1,0.1-0.1,0.1c0,0.1,0,0.2,0,0.2c0,0.1-0.1,0.1-0.1,0.2
			c-0.1,0.2-0.1,0.2,0.1,0.1c0,0.1,0,0.1,0,0.2l-0.5,1.1c0,0.8,0.2,1.5,0.9,1.5c0.4,0,0.8-0.3,1.1-0.8c0.2-0.3,0.3-0.7,0.4-1.1
			c0.1-0.3,0.2-0.6,0.4-1.1C49,88.2,48.6,88,48,87.9C48.2,87.8,48.3,87.7,48.5,87.6z M48,89.9c-0.5,0-0.8-0.4-0.7-0.8
			c0-0.4,0.3-0.5,0.8-0.5c0.5,0,1,0.2,0.7,0.7C48.7,89.7,48.3,89.9,48,89.9z M52.2,83.5c0.3-0.3,0.7-0.8,0.1-0.3
			c-0.4,0.3-0.9,0.7-1.3,1.1c-0.1,0.1-0.2,0.2-0.2,0.3c0,0.1,0,0.1,0,0C51.3,84.2,51.7,83.9,52.2,83.5z"/>
		<path d="M47.2,88.8c0-0.6,0.5-3.3,0.5-3.5c0-0.2,0-0.3,0.1-0.5c0-0.2-0.1-0.1-0.1,0l-0.3,0.7c-0.1,0.3-0.2,0.5-0.2,0.9
			c-0.2,1.2-0.2,1.4-0.3,1.6c-0.1,0.9-0.2,1.6-0.2,2C46.9,89.6,47.1,89.3,47.2,88.8z"/>
		<path d="M45.7,89.4c0-0.5,0-0.9-0.3-1.2c-0.2-0.2-0.5-0.4-0.6-0.1c-0.3,0.7-0.5,1.1-0.5,1.2c0,0,0,0.1,0,0.1c0,0,0,0,0.1,0
			c0,0,0,0,0,0c-0.1,0.1-0.2,0.2-0.2,0.4c-0.1,0.2-0.2,0.4-0.2,0.6c0,0.3,0,0.7,0.4,0.8c0.4,0,0.7-0.3,0.9-0.6
			C45.5,90.3,45.7,89.9,45.7,89.4z M45.1,90.1c0,0.2-0.2,0.4-0.5,0.4c-0.2,0-0.5-0.1-0.4-0.3c0-0.1,0.1-0.3,0.2-0.4
			c0.1-0.2,0.2-0.1,0.4,0C45,89.8,45.1,90,45.1,90.1z"/>
		<path d="M42,86c0-0.2,0-0.2-0.1,0c-0.2,0.5-0.3,0.9-0.5,1.3c0,0.1-0.1,0.2-0.1,0.4c0,0.9-0.1,1.8-0.2,2.7c0,0.3-0.1,0.7,0.2,0.1
			c0.2-0.4,0.3-0.7,0.4-1.1c0.1-0.4,0.2-0.9,0.2-1.3C42,87.4,42,86.8,42,86z"/>
		<path d="M39.1,89c0.5-0.5,1-1.2,1.1-1.8c0-0.3,0-0.5-0.3-0.7c-0.5-0.3-1,0.3-1.3,0.7c-0.2,0.2-0.2,0.2-0.1,0
			c0.2-0.6,0.3-1.2,0.4-1.8c0-0.3,0.1-0.6,0.1-0.9c0-0.2,0.1-0.4,0.1-0.7c0-0.3-0.1-0.2-0.1,0c-0.1,0.2-0.2,0.4-0.3,0.6
			c-0.2,0.5-0.3,1-0.3,1.5c0,0.4-0.1,0.9-0.2,1.3c0,0.2-0.1,0.3-0.2,0.5c-0.1,0.2-0.2,0.3-0.3,0.5c-0.1,0.1-0.1,0.1-0.2,0.1
			c-0.6-0.1-0.8-0.4-0.8-1.1l-0.6,1.1c0,0.9,0.4,1.4,1.2,1.4C38,89.7,38.6,89.5,39.1,89z M39,87.3c0.2-0.1,0.5-0.1,0.6,0.1
			c0.1,0.1,0.1,0.2,0,0.3c-0.4,0.4-0.9,0.6-1.5,0.6c-0.2,0-0.2,0-0.1-0.1C38.5,87.7,38.8,87.4,39,87.3z"/>
		<path d="M36.8,87.2c0-0.5,0-1,0-1.4c0-0.4,0-0.7,0.1-0.9c0.1-0.4,0-0.4-0.1-0.1c-0.5,0.9-0.6,1.6-0.6,2.2c0,0.4,0,0.8,0,1.2
			c0,0.4,0,0.8-0.1,1.2c-0.1,0.4-0.5,0.8-0.9,0.9c-0.1,0-0.3,0-0.4,0c-0.1,0-0.1,0,0-0.1c0.5-0.7,0.5-1.7,0.6-2.5
			c0-0.7,0.1-1.3,0.1-1.9c0-0.7-0.1-0.5-0.2,0c-0.1,0.2-0.1,0.4-0.2,0.6c-0.1,0.5-0.3,1-0.3,1.5c0,0.4,0,0.8,0,1.2
			c0,0.4,0,0.8-0.3,1.2c-0.1,0.2-0.2,0.3-0.2,0.3c0,0.1,0.1,0.2,0.3,0.3c0.2,0.2,0.4,0.2,0.5,0.2c0.3,0,0.6-0.2,1-0.7
			c0.5-0.7,0.7-1.6,0.7-2.5C36.8,87.8,36.8,87.5,36.8,87.2z"/>
		<path d="M30.6,91.4c-0.2,0.5-0.4,1.2-0.4,1.8c0,1.9,1.6,2.5,3.1,1.9c0.9-0.4,1.6-1.1,2.2-1.9c0.2-0.3,0.4-0.7,0.6-1
			c0.3-0.6,0.1-0.5-0.2-0.1c-0.5,0.7-1.1,1.3-1.9,1.7c-1.7,0.9-4-0.2-3-2.4c0.4-0.9,1.2-1.8,2-2.4c0.3-0.2,0.6-0.4,0.8-0.7
			c0.2-0.2,0.1-0.3-0.1-0.2c-0.3,0.2-0.6,0.3-1,0.3c-0.4,0-0.8-0.2-0.4-0.6c0.2-0.2,0.4-0.3,0.7-0.1c0.1,0.1,0.2,0.1,0.2,0
			c0.2-0.2,0-0.6-0.3-0.6c-0.6,0-1.1,0.8-1.4,1.2c-0.3,0.4-0.1,0.5,0.3,0.7c0.2,0.1,0.2,0.1,0,0.3C31.4,90,30.9,90.6,30.6,91.4z"/>
		<path d="M30.4,87.9c0-0.3-0.1-0.3-0.2,0c-0.2,0.5-0.3,1.1-0.6,1.6c-0.2,0.4-0.6,0.8-1,1.2c-0.3,0.3-0.5,0.4-0.6,0.5
			c-0.1,0.1-0.1,0.2,0.1,0.2c0.2,0,0.5-0.1,1-0.3c0.5-0.2,0.7-0.6,1-1.4C30.3,88.8,30.4,88.2,30.4,87.9z"/>
		<path d="M26.1,91c0.5,0,0.7-0.4,1-0.8c0.2-0.2,0.3-0.3,0.6-0.3c0.3,0,0.5-0.1,0.6-0.4c0.1-0.1,0.1-0.1,0.2-0.1
			c0.4-0.1,0.7-0.9,0.7-1.2c0-0.2-0.1-0.2-0.1,0c-0.1,0.2-0.1,0.5-0.4,0.5c-0.2,0-0.1,0-0.2,0.1c-0.1,0.3-0.3,0.4-0.5,0.4
			c-0.4,0-0.5,0.1-0.8,0.4c-0.4,0.4-1.2,0.2-1.4-0.4c0-0.2,0-0.4,0-0.6c-0.2,0.3-0.4,0.7-0.6,1.1C25.3,90.2,25.4,91,26.1,91z"/>
		<path d="M25.8,88.5c0-1,0.2-2.2,0.4-3.3c0.1-0.4-0.1-0.2-0.1,0c-0.2,0.3-0.3,0.6-0.3,0.8c-0.1,0.2-0.1,0.3-0.1,0.5
			c-0.2,1.5-0.3,2.5-0.3,3.1C25.4,89.6,25.7,89.1,25.8,88.5z"/>
		<path d="M23.9,84.5c-0.2-0.2-0.2-0.1-0.2,0.1c-0.1,0.2-0.2,0.6-0.3,0.9c0,0.1-0.1,0.2,0,0.3c0,0.1,0.1,0.2,0.2,0.3
			c0.2,0.3,0.2,0.5,0.3,0.7c0,0.2-0.1,0.4-0.2,0.8c-0.1,0.3-0.3,0.7-0.4,1c-0.3,0.5-0.4,1,0.2,1.4c0.1,0.1,0.2,0.2,0.4,0.2
			c0.2,0.1,0.2,0.2,0.1,0.5c-0.2,0.8-1.3,1.3-2.2,1.3c-1.4,0-1.7-1-1.4-2.2c0.2-0.7,0.5-1.4,0.8-2c0.1-0.3,0-0.3,0-0.2
			c-0.3,0.4-0.5,0.8-0.7,1.3c-0.4,0.9-0.8,2-0.7,3c0.3,1.8,2.2,2.1,3.3,1c0.7-0.7,1.3-1.9,1.4-2.9c0-0.5,0-0.9-0.5-1.2
			c-0.3-0.2-0.2-0.2-0.1-0.5c0.4-0.9,0.6-1.6,0.7-2.2C24.4,85.5,24.2,84.9,23.9,84.5z"/>
		<path d="M22.9,81.9c0,0,0,0.1,0.1,0.1l0.2,0.1c0.2,0.2,0.4,0.2,0.4,0.2c0.1,0,0.2-0.1,0.3-0.3c0.1-0.2,0.2-0.4,0.2-0.5
			c0-0.2-0.1-0.3-0.2-0.5c-0.2-0.2-0.3-0.2-0.5-0.2c0,0-0.2,0.2-0.3,0.5C22.9,81.6,22.9,81.8,22.9,81.9z"/>
		<path d="M74.4,67.1c0.1-0.6-0.2-0.6-0.4-0.1c-0.4,1.1-0.6,2.3-1.2,3.4c-0.5,0.9-1.2,1.7-2.2,2.5c-0.7,0.5-1.1,0.9-1.4,1.1
			c-0.2,0.2-0.2,0.4,0.2,0.4c0.4-0.1,1.1-0.3,2.2-0.7c1.1-0.5,1.5-1.2,2.1-3C74.1,68.9,74.4,67.7,74.4,67.1z"/>
		<path d="M66.6,68.7l-1.2,2.2c0,1,0.1,3,1.6,3c1.4,0,2-2.7,2.1-4.2c0-0.3-0.2-0.4-0.3,0c-0.1,0.5-0.3,1.3-1,1.3
			C67,71,66.6,70.2,66.6,68.7z"/>
		<path d="M63.8,79.8c0,0.1,0.2,0.2,0.7,0.6c0.1,0.1,0.3,0.2,0.4,0.3c0.2,0.1,0.3,0.2,0.4,0.2c0.3,0,0.7-0.5,1.3-1.4
			c0.2,0.1,0.5,0.3,0.8,0.6c0.2,0.2,0.4,0.3,0.5,0.3c0.2,0,0.4-0.2,0.8-0.7c0.4-0.5,0.5-0.8,0.5-1.2c0-0.3-0.2-0.6-0.5-0.9
			c-0.3-0.3-0.6-0.5-0.9-0.5c-0.1,0-0.2,0.2-0.5,0.6c-0.2,0.3-0.4,0.6-0.6,0.9c-0.1-0.2-0.3-0.5-0.7-0.7c-0.3-0.2-0.6-0.4-0.7-0.4
			c-0.1,0-0.3,0.3-0.7,1C64,79.3,63.8,79.7,63.8,79.8z"/>
		<path d="M66.6,68.7c0.1-2.1,0.4-4.7,0.8-7c0.1-0.8-0.1-0.3-0.3,0c-0.3,0.6-0.6,1.2-0.7,1.7c-0.1,0.3-0.2,0.7-0.3,1.1
			c-0.4,3.1-0.7,5.2-0.7,6.4C65.9,70.9,66.5,69.8,66.6,68.7z"/>
		<path d="M58,69.7c0.7-0.8,1.1-1.6,2.2-1.9c0.9-0.2,1.5-0.4,2.1-1.3c0.1-0.1,0.2-0.2,0.3-0.3c0.9-0.5,1.4-1.4,1.6-2.4
			c0.1-0.5-0.1-0.3-0.2-0.1c-0.2,0.4-0.5,0.9-0.9,0.9c-0.2,0-0.2-0.1-0.5,0.2c-0.3,0.4-0.6,0.8-1.1,1.1c-0.7,0-1.2,0.2-1.6,0.5
			c-0.8,0.5-1.4,1.2-2.1,2V69.7z"/>
		<path d="M58,69.7c0.3-0.4,0.5-1.2,0-1.4c-0.4,0.4-1,0.5-1.6,0.7l-0.3,0.1C56,69.1,56,69,56,69c0-0.1,0-0.3,0-0.4
			c0-0.2-0.2,0-0.2,0C53,71,44.5,71.4,41.3,71.2c-1.4-0.1-3-0.2-3.8-1.3c-0.2-0.2-0.2-0.5-0.3-0.8c-0.1-0.6-0.3-0.6-0.5,0
			c-0.2,1.1-0.4,3.5,0.5,4.2c0.9,0.8,3.2,0.9,4.4,0.9c4.1,0,11-0.6,13.7-4c0.2-0.2,0.1-0.2,0.4-0.2c0.2,0.1,0.4,0.2,1.1,0.3
			c0.2,0.1,0.4,0.1,0.5,0C57.4,70.3,57.5,70.3,58,69.7z"/>
		<path d="M42.1,65c0,0.1,0.2,0.2,0.7,0.6c0.1,0.1,0.3,0.2,0.4,0.3c0.2,0.1,0.3,0.2,0.4,0.2c0.3,0,0.7-0.5,1.3-1.4
			c0.2,0.1,0.5,0.3,0.8,0.6c0.2,0.2,0.4,0.3,0.5,0.3c0.2,0,0.4-0.2,0.8-0.7c0.4-0.5,0.5-0.9,0.5-1.2c0-0.3-0.2-0.6-0.5-0.9
			c-0.3-0.3-0.6-0.5-0.9-0.5c-0.1,0-0.2,0.2-0.5,0.6c-0.2,0.3-0.4,0.6-0.6,0.9c-0.1-0.2-0.3-0.4-0.7-0.7s-0.6-0.4-0.7-0.4
			c-0.1,0-0.3,0.3-0.7,1C42.3,64.5,42.1,64.9,42.1,65z"/>
		<path d="M28.9,66.7c0-0.2,0.1-0.4,0.3-0.5c1.4-0.7,2.6-1.2,3.3-1.5c0.5-0.2,1.2-0.8,1.2-1.3c0-0.5-1.4-0.7-1.7-0.8
			c-0.8-0.2-2.2-0.4-2.8,0.2c-0.4,0.3-0.6,0.8-0.9,1.2c-0.2,0.3-0.1,0.5,0.2,0.2c0.7-0.8,1.7-0.7,2.9-0.3c0.5,0.1,0.4,0.1,0,0.3
			c-0.7,0.3-1.6,0.7-2.3,1.2c-0.5,0.4-0.9,1-1.3,1.9L28.9,66.7z"/>
		<path d="M29.4,73.5c0,0.1,0.1,0.2,0.2,0.3c0.2,0.1,0.3,0.2,0.5,0.3c0.5,0.3,0.7,0.5,0.8,0.5c0.2,0,0.4-0.2,0.7-0.7
			c0.3-0.4,0.5-0.8,0.5-1.1c0-0.3-0.2-0.6-0.5-1c-0.3-0.3-0.7-0.5-1-0.5c-0.1,0-0.3,0.3-0.7,0.9C29.5,72.8,29.4,73.3,29.4,73.5z"/>
		<path d="M28.9,66.7c-0.4-0.2-0.7,0.1-1.1,0.6C27,68.3,26.5,69,25.8,70c-0.1,0.4,0.1,0.8,0.2,1.1c0.5-1,1.2-2.1,2.5-1.7
			c0.5,0.2,0.5,0.4,0.9,0c0.2-0.2,0.5-0.6,0.6-0.9c0.1-0.2,0-0.4-0.1-0.5C29,67.5,28.9,67.1,28.9,66.7z"/>
		<path d="M26,71.1c0.3-1.7-1.7-3-2.8-1.4c-0.5,0.7-1.1,1.8-2.1,1.7c-0.1,0.7-0.2,1.4-0.3,2c0.1-0.1,0.3-0.2,0.4-0.3
			c1-0.9,2-2.5,2.9-2.4c0.9,0.1,0.9,0.9,0.7,2.3c-0.1,0.8,0.2,0.9,0.5,0.1C25.6,72.3,25.7,71.9,26,71.1z"/>
		<path d="M21.2,73.2c0.3-0.8,0.4-1.7,0.1-2.6C21,69.4,19.9,69,19.1,70c-0.2,0.3-0.3,0.6-0.5,0.9c-0.1,0.3-0.3,0.5-0.4,0.8
			c-0.4,1.1,0.7,1.9,1.6,1.6c0.3-0.1,0.3-0.1,0.2,0.3c-0.5,1.4-2.8,2.3-4,3.1c-0.7,0.4-0.5,0.5,0.2,0.3c0.5-0.1,1.3-0.3,2.3-0.7
			c0.6-0.2,1.1-0.5,1.5-1C20.5,74.7,20.9,73.9,21.2,73.2z"/>
		<path d="M15.6,69.7c0.1-0.6-0.2-0.6-0.4-0.1c-0.4,1.1-0.6,2.3-1.2,3.4c-0.5,0.9-1.2,1.7-2.2,2.5c-0.7,0.5-1.1,0.9-1.4,1.1
			c-0.2,0.2-0.2,0.4,0.2,0.4c0.4-0.1,1.1-0.3,2.2-0.7c1.1-0.5,1.5-1.2,2.1-3C15.3,71.6,15.6,70.4,15.6,69.7z"/>
		<path d="M13.7,62.8c0,0.2-0.1,0.4-0.2,0.7c-0.1,0.2-0.2,0.5-0.4,0.9c-0.2,0.4-0.3,0.6-0.3,0.6c-0.1,0.2-0.3,0.3-0.4,0.3
			c-0.2-0.1-0.3-0.2-0.4-0.2c-0.5,0-1.2,0.3-2.1,1.2c-0.9,0.8-1.4,1.6-1.4,1.9c0,0.2,0.1,0.4,0.2,0.5c0.1,0.1,0.3,0.2,0.6,0.3
			c0.3,0.1,0.5,0.2,0.6,0.3c0.3,0.2,0.4,0.6,0.4,1.2c0,0.8-0.2,1.8-0.5,2.9c-0.3,1.1-0.7,2-1.2,2.8C8,77,7.3,77.7,6.5,78.3
			c-0.8,0.5-1.7,0.8-2.7,0.8c-1.2,0-2-0.4-2.6-1.2c-0.5-0.8-0.7-1.7-0.7-2.5c0-1,0.1-2,0.4-2.9c0.2-0.8,0.5-1.6,0.9-2.3
			c0.3-0.7,0.6-1.3,0.8-1.8L3.2,67c0.2-0.3,0.3-0.7,0.5-0.7c0.2,0,0.2,0.4,0.1,0.5c-0.1,0.3-0.2,0.5-0.3,0.7
			c-0.1,0.2-0.2,0.4-0.3,0.8c-0.3,0.7-0.7,1.6-0.9,2.1c-0.5,1.4-0.8,2.5-0.8,3.2c0,1.5,1.1,2.5,3,2.5c0.8,0,1.6-0.2,2.3-0.6
			c1.7-0.9,2.5-2.4,2.5-3.1c0-0.2-0.1-0.3-0.4-0.4c-0.5-0.2-0.6-0.2-0.9-0.3c-0.6-0.3-0.9-0.6-0.9-1.3c0-0.5,0.2-1.2,0.5-2.1
			c0.4-0.8,0.8-1.7,1.5-2.5c0.5-0.6,1-1.2,1.4-1.6c0.5-0.4,1.2-1,1.9-1.4c0.4-0.2,0.7-0.4,1-0.4C13.6,62.4,13.7,62.6,13.7,62.8z"/>
		<path d="M23.8,8.1h-4.1c-0.2,0-0.4,0.1-0.6,0.2c-0.2,0.2-0.2,0.4-0.2,0.6v4.2c0,0.1,0,0.3,0.1,0.4c0.1,0.1,0.2,0.2,0.3,0.3
			c0.1,0.1,0.2,0.1,0.4,0.1c0.1,0,0.3,0,0.4-0.1l2.9-1.2c0.1,0,0.2-0.1,0.3-0.2s0.1-0.2,0.2-0.3l1.2-3c0.1-0.1,0.1-0.3,0.1-0.4
			c0-0.1-0.1-0.3-0.1-0.4c-0.1-0.1-0.2-0.2-0.3-0.3C24.1,8.1,24,8.1,23.8,8.1z"/>
		<path d="M40.9,3.8L38,0.9c-0.2-0.2-0.4-0.2-0.6-0.2S37,0.8,36.9,0.9l-3,3c-0.1,0.1-0.2,0.2-0.2,0.3c0,0.1,0,0.3,0,0.4
			c0,0.1,0.1,0.3,0.2,0.4c0.1,0.1,0.2,0.2,0.3,0.2l2.9,1.2c0.2,0.1,0.4,0.1,0.6,0l3-1.2C40.8,5.1,40.9,5,41,4.9
			c0.1-0.1,0.1-0.2,0.2-0.4c0-0.1,0-0.3,0-0.4C41.1,4.1,41,3.9,40.9,3.8z"/>
		<path d="M57.6,27.1l1.2,3c0.1,0.1,0.1,0.2,0.2,0.3c0.1,0.1,0.2,0.1,0.4,0.2c0.1,0,0.3,0,0.4,0c0.1,0,0.2-0.1,0.3-0.2l2.9-2.9
			c0.1-0.1,0.1-0.2,0.2-0.3c0-0.1,0.1-0.2,0.1-0.3s0-0.2-0.1-0.3c0-0.1-0.1-0.2-0.2-0.3l-2.9-3c-0.1-0.1-0.2-0.2-0.3-0.2
			c-0.1,0-0.3,0-0.4,0c-0.1,0-0.3,0.1-0.4,0.2c-0.1,0.1-0.2,0.2-0.2,0.3l-1.2,2.9c0,0.1-0.1,0.2-0.1,0.3
			C57.6,26.9,57.6,27,57.6,27.1z"/>
		<path d="M56,13.1V8.9c0-0.2-0.1-0.4-0.2-0.6c-0.2-0.2-0.4-0.2-0.6-0.2H51c-0.1,0-0.3,0-0.4,0.1c-0.1,0.1-0.2,0.2-0.3,0.3
			c-0.1,0.1-0.1,0.2-0.1,0.4c0,0.1,0,0.3,0.1,0.4l1.2,2.9c0.1,0.2,0.2,0.4,0.4,0.4l3,1.2c0.1,0.1,0.3,0.1,0.4,0.1
			c0.1,0,0.3-0.1,0.4-0.1c0.1-0.1,0.2-0.2,0.3-0.3C56,13.3,56,13.2,56,13.1z"/>
		<path d="M18.9,40.6v4.2c0,0.2,0.1,0.4,0.2,0.6c0.2,0.2,0.4,0.2,0.6,0.2h4.2c0.1,0,0.3,0,0.4-0.1c0.1-0.1,0.2-0.2,0.3-0.3
			s0.1-0.2,0.1-0.4c0-0.1,0-0.3-0.1-0.4l-1.2-2.9c-0.1-0.2-0.2-0.4-0.4-0.4l-3-1.2c-0.1-0.1-0.3-0.1-0.4-0.1c-0.1,0-0.3,0.1-0.4,0.1
			s-0.2,0.2-0.3,0.3C18.9,40.3,18.9,40.4,18.9,40.6z"/>
		<path d="M17.3,26.6l-1.2-3c-0.1-0.1-0.1-0.2-0.2-0.3c-0.1-0.1-0.2-0.1-0.4-0.2c-0.1,0-0.3,0-0.4,0c-0.1,0-0.2,0.1-0.3,0.2
			l-2.9,2.9c-0.2,0.2-0.2,0.4-0.2,0.6c0,0.2,0.1,0.4,0.2,0.6l3,3c0.1,0.1,0.2,0.2,0.3,0.2c0.1,0,0.3,0,0.4,0c0.1,0,0.3-0.1,0.4-0.2
			c0.1-0.1,0.2-0.2,0.2-0.3l1.2-2.9C17.3,27,17.3,26.8,17.3,26.6z"/>
		<path d="M51.1,45.5h4.1c0.2,0,0.4-0.1,0.6-0.2c0.2-0.2,0.2-0.4,0.2-0.6v-4.2c0-0.1,0-0.3-0.1-0.4c-0.1-0.1-0.2-0.2-0.3-0.3
			c-0.1-0.1-0.2-0.1-0.4-0.1c-0.1,0-0.3,0-0.4,0.1L52,41c-0.2,0.1-0.4,0.2-0.4,0.4l-1.2,3c-0.1,0.1-0.1,0.3-0.1,0.4
			c0,0.1,0.1,0.3,0.1,0.4c0.1,0.1,0.2,0.2,0.3,0.3C50.8,45.5,50.9,45.5,51.1,45.5z"/>
		<path d="M34,49.8l2.9,2.9c0.1,0.1,0.2,0.1,0.3,0.2c0.1,0,0.2,0.1,0.3,0.1c0.1,0,0.2,0,0.3-0.1c0.1,0,0.2-0.1,0.3-0.2l3-3
			c0.1-0.1,0.2-0.2,0.2-0.3c0-0.1,0-0.3,0-0.4c0-0.1-0.1-0.3-0.2-0.4c-0.1-0.1-0.2-0.2-0.3-0.2l-2.9-1.2c-0.2-0.1-0.4-0.1-0.6,0
			l-3,1.2c-0.1,0.1-0.2,0.1-0.3,0.2c-0.1,0.1-0.1,0.2-0.2,0.4c0,0.1,0,0.3,0,0.4C33.8,49.6,33.9,49.7,34,49.8z"/>
		<path d="M58.8,17.2l-8.1-3.4c-0.2-0.1-0.4-0.2-0.4-0.4l-3.4-8.2c0-0.1-0.1-0.2-0.2-0.3c-0.1-0.1-0.2-0.1-0.3-0.2
			c-0.1,0-0.2-0.1-0.3-0.1c-0.1,0-0.2,0-0.3,0.1l-8.1,3.4c-0.2,0.1-0.4,0.1-0.6,0l-8.1-3.4c-0.1,0-0.2-0.1-0.3-0.1
			c-0.1,0-0.2,0-0.3,0.1c-0.1,0-0.2,0.1-0.3,0.2C28,5,27.9,5.1,27.9,5.2l-3.3,8.2c-0.1,0.2-0.2,0.4-0.4,0.4L16,17.3
			c-0.2,0.1-0.4,0.2-0.4,0.4c-0.1,0.2-0.1,0.4,0,0.6l3.4,8.2c0.1,0.2,0.1,0.4,0,0.6l-3.3,8.2c-0.1,0.2-0.1,0.4,0,0.6
			c0.1,0.2,0.2,0.4,0.4,0.4l8.1,3.4c0.1,0,0.2,0.1,0.3,0.2c0.1,0.1,0.1,0.2,0.2,0.3l3.4,8.2c0.1,0.2,0.2,0.4,0.4,0.4
			c0.2,0.1,0.4,0.1,0.6,0l8.1-3.4c0.1,0,0.2-0.1,0.3-0.1c0.1,0,0.2,0,0.3,0.1l8.1,3.4c0.1,0,0.2,0.1,0.3,0.1c0.1,0,0.2,0,0.3-0.1
			c0.1,0,0.2-0.1,0.3-0.2c0.1-0.1,0.1-0.2,0.2-0.3l3.3-8.2c0.1-0.2,0.2-0.4,0.4-0.4l8.1-3.4c0.1,0,0.2-0.1,0.3-0.2
			c0.1-0.1,0.1-0.2,0.2-0.3c0-0.1,0.1-0.2,0.1-0.3c0-0.1,0-0.2-0.1-0.3l-3.4-8.2c-0.1-0.2-0.1-0.4,0-0.6l3.3-8.2
			c0-0.1,0.1-0.2,0.1-0.3c0-0.1,0-0.2-0.1-0.3c0-0.1-0.1-0.2-0.2-0.3C59,17.3,58.9,17.2,58.8,17.2z M34.3,16c-0.3-0.6-0.3-1.4-0.1-2
			c0.1,0.5,0.3,1.1,0.8,1.4c0.4,0.4,1.1,0.4,1.6,0.1c0.5-0.3,0.8-0.8,0.9-1.4c0.2,0.5,0.4,1,0.8,1.3c0.4,0.3,1.1,0.3,1.5,0
			c0.5-0.3,0.8-1,1-1.6c0.2,0.7,0.2,1.5-0.2,2.2c-0.4,0.7-1.3,1-2.1,0.7c-0.5-0.2-0.8-0.6-1.1-1c-0.3,0.4-0.6,0.9-1.1,1.1
			C35.6,17.2,34.6,16.8,34.3,16z M35.7,17.9c0.6-0.3,1.2-0.6,1.7-0.9c0.6,0.3,1.1,0.6,1.7,0.9c0,0.4,0,0.8,0,1.2
			c-0.1,1.2,0,2.3-0.1,3.5c-0.1,4.3-0.3,8.6-0.4,12.8c3.9-2.7,6-7.8,5.2-12.5c-0.2-1.1-0.5-2.1-1-3.1c-0.3-0.7-0.8-1.4-1.2-2.1
			c0.4,0.3,0.8,0.6,1.1,1c1.6,1.7,2.7,3.8,3.1,6.1c0.4,2.2,0.1,4.6-0.8,6.6c-1,2.3-2.7,4.4-5,5.6c1,0.3,2.1,0.4,3.1,0.3
			c0.5,0,0.9-0.1,1.4-0.1c-1.2,0.5-2.4,0.9-3.7,1c-0.8,0-1.6,0-2.4,0c0,0.2,0,0.4-0.1,0.5c-0.3,0.4-0.6,0.8-0.9,1.1
			c-0.3-0.4-0.7-0.8-1-1.3c0-0.1,0-0.3,0-0.3c-1.1,0.1-2.2,0.1-3.3-0.1c-0.8-0.1-1.6-0.4-2.4-0.7c-0.2-0.1-0.3-0.2-0.5-0.3
			c1.5,0.3,3.2,0.2,4.7-0.1c-3.8-2.1-6.2-6.5-5.9-10.9c0.2-3.2,1.8-6.3,4.3-8.4c-0.7,1-1.2,2-1.6,3.2c-0.9,2.6-0.9,5.5,0,8.1
			c0.9,2.5,2.5,4.8,4.7,6.4C36.2,29.6,35.9,23.7,35.7,17.9z M27.9,19.6c1.2-1.1,2.7-1.9,4.2-2.3c-0.3,0.4-0.7,0.7-1.1,1
			c-2,1.9-3.4,4.5-4,7.2c-0.5,2.4-0.3,4.9,0.7,7.2c0.4,1.2,1.1,2.3,1.8,3.3c-2.1-1.3-3.8-3.3-4.6-5.6c-0.7-1.8-0.8-3.7-0.3-5.5
			C25.2,22.8,26.4,20.9,27.9,19.6z M42.7,17.2c1.7,0.5,3.3,1.4,4.6,2.7c1.5,1.4,2.6,3.3,2.9,5.3c0.4,2.1,0.1,4.3-0.9,6.2
			c-0.9,1.7-2.2,3.2-3.8,4.3c-0.1,0.1-0.2,0.1-0.3,0.1c0,0,0.1-0.1,0.1-0.2c0.8-1.1,1.4-2.3,1.9-3.6c0.9-2.5,0.9-5.4,0.2-8
			c-0.6-2-1.7-3.9-3.1-5.4C43.8,18.2,43.2,17.8,42.7,17.2z"/>
	</g>
</g>
</svg>
