<svg width="15" height="12" viewBox="0 0 15 12" fill="none" xmlns="http://www.w3.org/2000/svg">
<path d="M0.555745 8.09369C0.602252 8.21099 0.676116 8.29897 0.930537 8.54957C1.32174 8.93347 1.41476 8.98413 1.71295 8.98679C1.87162 8.98679 1.9619 8.97346 2.04123 8.93614C2.1151 8.90148 3.01241 8.04837 4.82619 6.28349L7.49897 3.6815L10.1745 6.28616C12.2536 8.3123 12.8746 8.90415 12.9704 8.94414C13.0525 8.98146 13.1537 9.00012 13.2713 9.00012C13.5531 9.00012 13.6899 8.92281 14.0674 8.55224C14.3328 8.29097 14.393 8.21366 14.4422 8.08569C14.5188 7.89108 14.5188 7.73645 14.4449 7.54183C14.3902 7.39254 14.2507 7.25391 11.1812 4.26268C7.63576 0.80491 7.86009 1.00219 7.49897 1.00219C7.13786 1.00219 7.36219 0.80491 3.81671 4.26268C0.744508 7.25657 0.607723 7.39254 0.553009 7.54183C0.481881 7.73378 0.481881 7.90441 0.555745 8.09369Z" fill="white"/>
</svg>
