<svg id="calendar-s" xmlns="http://www.w3.org/2000/svg" width="60" height="60" viewBox="0 0 60 60">
  <path id="Path_342" data-name="Path 342" d="M59.032,8.71h-.968v-2.9a2.907,2.907,0,0,0-2.9-2.9h-.968V.968A.967.967,0,0,0,53.226,0H49.355a.967.967,0,0,0-.968.968V2.9H46.452V.968A.967.967,0,0,0,45.484,0H41.613a.967.967,0,0,0-.968.968V2.9H38.71V.968A.967.967,0,0,0,37.742,0H33.871A.967.967,0,0,0,32.9.968V2.9H27.1V.968A.967.967,0,0,0,26.129,0H22.258a.967.967,0,0,0-.968.968V2.9H19.355V.968A.967.967,0,0,0,18.387,0H14.516a.967.967,0,0,0-.968.968V2.9H11.613V.968A.967.967,0,0,0,10.645,0H6.774a.967.967,0,0,0-.968.968V2.9H4.839a2.907,2.907,0,0,0-2.9,2.9v2.9H.968A.967.967,0,0,0,0,9.677v38.71a.967.967,0,0,0,.968.968H7.742v4.839a5.806,5.806,0,1,0,11.613,0V49.355H59.032A.967.967,0,0,0,60,48.387V9.677A.967.967,0,0,0,59.032,8.71Zm-8.71-6.774h1.935V5.806H50.323Zm-7.742,0h1.935V5.806H42.581Zm-7.742,0h1.935V5.806H34.839Zm-11.613,0h1.935V5.806H23.226Zm-7.742,0h1.935V5.806H15.484Zm-7.742,0H9.677V5.806H7.742ZM3.871,5.806a.968.968,0,0,1,.968-.968h.968V6.774a.967.967,0,0,0,.968.968h3.871a.967.967,0,0,0,.968-.968V4.839h1.935V6.774a.967.967,0,0,0,.968.968h3.871a.967.967,0,0,0,.968-.968V4.839H21.29V6.774a.967.967,0,0,0,.968.968h3.871a.967.967,0,0,0,.968-.968V4.839H32.9V6.774a.967.967,0,0,0,.968.968h3.871a.967.967,0,0,0,.968-.968V4.839h1.935V6.774a.967.967,0,0,0,.968.968h3.871a.967.967,0,0,0,.968-.968V4.839h1.935V6.774a.967.967,0,0,0,.968.968h3.871a.967.967,0,0,0,.968-.968V4.839h.968a.968.968,0,0,1,.968.968v2.9H3.871Zm6.4,30,3.273-6.546,3.273,6.546Zm-.6,1.935h2.9V52.258h-2.9Zm4.839,0h2.9V52.258h-2.9Zm4.737-1.4-4.839-9.677a1.007,1.007,0,0,0-1.731,0L7.844,36.342a.959.959,0,0,0-.1.432v6.774H5.806V14.516H54.194V43.548H19.355V36.774A.971.971,0,0,0,19.253,36.342Zm-5.7,21.723a3.875,3.875,0,0,1-3.871-3.871h7.742A3.875,3.875,0,0,1,13.548,58.064ZM58.065,47.419H19.355V45.484H55.161a.967.967,0,0,0,.968-.968V13.548a.967.967,0,0,0-.968-.968H4.839a.967.967,0,0,0-.968.968V44.516a.967.967,0,0,0,.968.968h2.9v1.935H1.935V10.645H58.065Zm0,0" fill="#0064b9"/>
  <path id="Path_343" data-name="Path 343" d="M70.774,136H64.968a.967.967,0,0,0-.968.968v5.806a.967.967,0,0,0,.968.968h5.806a.967.967,0,0,0,.968-.968v-5.806A.967.967,0,0,0,70.774,136Zm-.968,5.806H65.935v-3.871h3.871Zm0,0" transform="translate(-56.258 -119.548)" fill="#0064b9"/>
  <path id="Path_344" data-name="Path 344" d="M151.742,142.774v-5.806a.967.967,0,0,0-.968-.968h-5.806a.967.967,0,0,0-.968.968v5.806a.967.967,0,0,0,.968.968h5.806A.967.967,0,0,0,151.742,142.774Zm-1.935-.968h-3.871v-3.871h3.871Zm0,0" transform="translate(-126.581 -119.548)" fill="#0064b9"/>
  <path id="Path_345" data-name="Path 345" d="M224.968,143.742h5.806a.967.967,0,0,0,.968-.968v-5.806a.967.967,0,0,0-.968-.968h-5.806a.967.967,0,0,0-.968.968v5.806A.967.967,0,0,0,224.968,143.742Zm.968-5.806h3.871v3.871h-3.871Zm0,0" transform="translate(-196.903 -119.548)" fill="#0064b9"/>
  <path id="Path_346" data-name="Path 346" d="M304.968,143.742h5.806a.967.967,0,0,0,.968-.968v-5.806a.967.967,0,0,0-.968-.968h-5.806a.967.967,0,0,0-.968.968v5.806A.967.967,0,0,0,304.968,143.742Zm.968-5.806h3.871v3.871h-3.871Zm0,0" transform="translate(-267.226 -119.548)" fill="#0064b9"/>
  <path id="Path_347" data-name="Path 347" d="M208,222.774a.967.967,0,0,0,.968.968h5.806a.967.967,0,0,0,.968-.968v-5.806a.967.967,0,0,0-.968-.968h-5.806a.967.967,0,0,0-.968.968Zm1.935-4.839h3.871v3.871h-3.871Zm0,0" transform="translate(-182.839 -189.871)" fill="#0064b9"/>
  <path id="Path_348" data-name="Path 348" d="M288,222.774a.967.967,0,0,0,.968.968h5.806a.967.967,0,0,0,.968-.968v-5.806a.967.967,0,0,0-.968-.968h-5.806a.967.967,0,0,0-.968.968Zm1.935-4.839h3.871v3.871h-3.871Zm0,0" transform="translate(-253.161 -189.871)" fill="#0064b9"/>
  <path id="Path_349" data-name="Path 349" d="M368,222.774a.967.967,0,0,0,.968.968h5.806a.967.967,0,0,0,.968-.968v-5.806a.967.967,0,0,0-.968-.968h-5.806a.967.967,0,0,0-.968.968Zm1.935-4.839h3.871v3.871h-3.871Zm0,0" transform="translate(-323.484 -189.871)" fill="#0064b9"/>
  <path id="Path_350" data-name="Path 350" d="M212.814,288.391l-1.1-1.1-1.368,1.368,1.935,1.935a.964.964,0,0,0,.684.284c.031,0,.063,0,.1,0a.966.966,0,0,0,.709-.426l3.871-5.806-1.61-1.074Zm0,0" transform="translate(-184.899 -249.264)" fill="#0064b9"/>
  <path id="Path_351" data-name="Path 351" d="M292.814,288.391l-1.1-1.1-1.368,1.368,1.935,1.935a.964.964,0,0,0,.684.284c.031,0,.063,0,.1,0a.966.966,0,0,0,.709-.426l3.871-5.806-1.61-1.074Zm0,0" transform="translate(-255.222 -249.264)" fill="#0064b9"/>
  <path id="Path_352" data-name="Path 352" d="M372.814,288.391l-1.1-1.1-1.368,1.368,1.935,1.935a.964.964,0,0,0,.684.284c.031,0,.063,0,.1,0a.966.966,0,0,0,.709-.426l3.871-5.806-1.61-1.074Zm0,0" transform="translate(-325.544 -249.264)" fill="#0064b9"/>
</svg>
