<svg xmlns="http://www.w3.org/2000/svg" width="50.006" height="50" viewBox="0 0 50.006 50">
  <g id="email" transform="translate(0 -0.032)">
    <g id="Group_288" data-name="Group 288" transform="translate(28.071 42.805)">
      <g id="Group_287" data-name="Group 287">
        <path id="Path_1040" data-name="Path 1040" d="M289.077,438.254a.976.976,0,1,0,.286.691A.982.982,0,0,0,289.077,438.254Z" transform="translate(-287.41 -437.968)" fill="#0b4b88"/>
      </g>
    </g>
    <g id="Group_290" data-name="Group 290" transform="translate(16.614 9.114)">
      <g id="Group_289" data-name="Group 289">
        <path id="Path_1041" data-name="Path 1041" d="M178.5,93.024a8.4,8.4,0,0,0-8.389,8.389v.113a8.4,8.4,0,0,0,8.389,8.389h5.45a.977.977,0,0,0,0-1.953H178.5a6.443,6.443,0,0,1-6.435-6.435v-.113a6.435,6.435,0,1,1,12.871,0v1.8a1.156,1.156,0,1,1-2.311,0V101.18a4.463,4.463,0,0,0-4.458-4.458,4.683,4.683,0,1,0,0,9.366h1.4a.977.977,0,0,0,0-1.953h-1.4a2.73,2.73,0,0,1,0-5.459,2.508,2.508,0,0,1,2.505,2.5v2.032a3.109,3.109,0,0,0,6.218,0v-1.8A8.4,8.4,0,0,0,178.5,93.024Z" transform="translate(-170.109 -93.024)" fill="#0b4b88"/>
      </g>
    </g>
    <g id="Group_292" data-name="Group 292" transform="translate(43.365 35.977)">
      <g id="Group_291" data-name="Group 291">
        <path id="Path_1042" data-name="Path 1042" d="M445.667,368.344a.976.976,0,1,0,.286.691A.984.984,0,0,0,445.667,368.344Z" transform="translate(-444 -368.058)" fill="#0b4b88"/>
      </g>
    </g>
    <g id="Group_294" data-name="Group 294" transform="translate(0 0.032)">
      <g id="Group_293" data-name="Group 293" transform="translate(0 0)">
        <path id="Path_1043" data-name="Path 1043" d="M49.61,17.016,28,1.026a5.007,5.007,0,0,0-5.987,0L.4,17.016A.977.977,0,0,0,0,17.8V45.149a4.889,4.889,0,0,0,4.883,4.883H45.123a4.889,4.889,0,0,0,4.883-4.883V17.8A.977.977,0,0,0,49.61,17.016ZM23.171,2.6a3.064,3.064,0,0,1,3.664,0l20.7,15.316L32.081,33.368l-1.409-1.409a8.026,8.026,0,0,0-11.338,0l-1.409,1.409L2.469,17.912ZM3.612,47.681a.968.968,0,0,0-.066.073,2.933,2.933,0,0,1-1.593-2.606V20.159l14.59,14.59Zm2.365.4L9.3,44.758h16a.977.977,0,0,0,0-1.953H11.251l2.735-2.735h7.225a.977.977,0,0,0,0-1.953H15.939l2.676-2.676h0l2.1-2.1a6.071,6.071,0,0,1,8.576,0l2.1,2.1h0L44.029,48.079Zm42.076-2.93a2.932,2.932,0,0,1-1.593,2.606c-.021-.025-.043-.05-.066-.073L33.463,34.75l9.9-9.9v8.109a.977.977,0,0,0,1.953,0V22.894l2.735-2.735Z" transform="translate(0 -0.032)" fill="#0b4b88"/>
      </g>
    </g>
  </g>
</svg>
