<svg id="group" xmlns="http://www.w3.org/2000/svg" width="35" height="35" viewBox="0 0 35 35">
  <g id="Group_216" data-name="Group 216" transform="translate(13.417)">
    <g id="Group_215" data-name="Group 215">
      <path id="Path_428" data-name="Path 428" d="M188.083,0a4.083,4.083,0,1,0,4.083,4.083A4.083,4.083,0,0,0,188.083,0Zm0,7A2.917,2.917,0,1,1,191,4.083,2.917,2.917,0,0,1,188.083,7Z" transform="translate(-184)" fill="#fff"/>
    </g>
  </g>
  <g id="Group_218" data-name="Group 218" transform="translate(10.5 8.75)">
    <g id="Group_217" data-name="Group 217">
      <path id="Path_429" data-name="Path 429" d="M152.75,120h-3.5a5.256,5.256,0,0,0-5.25,5.25v9.917h2.333V146.25H147.5V132.833h-1.167V134h-1.167v-8.75a4.088,4.088,0,0,1,4.083-4.083h3.5a4.088,4.088,0,0,1,4.083,4.083V134h-1.167v-1.167H154.5V146.25h1.167V135.167H158V125.25A5.256,5.256,0,0,0,152.75,120Z" transform="translate(-144 -120)" fill="#fff"/>
    </g>
  </g>
  <g id="Group_220" data-name="Group 220" transform="translate(16.917 23.917)">
    <g id="Group_219" data-name="Group 219">
      <rect id="Rectangle_154" data-name="Rectangle 154" width="1.167" height="11.083" fill="#fff"/>
    </g>
  </g>
  <g id="Group_222" data-name="Group 222" transform="translate(25.667 5.833)">
    <g id="Group_221" data-name="Group 221">
      <path id="Path_430" data-name="Path 430" d="M355.5,80a3.5,3.5,0,1,0,3.5,3.5A3.5,3.5,0,0,0,355.5,80Zm0,5.833a2.333,2.333,0,1,1,2.333-2.333A2.333,2.333,0,0,1,355.5,85.833Z" transform="translate(-352 -80)" fill="#fff"/>
    </g>
  </g>
  <g id="Group_224" data-name="Group 224" transform="translate(25.667 13.417)">
    <g id="Group_223" data-name="Group 223">
      <path id="Path_431" data-name="Path 431" d="M357.25,184H352v1.167h5.25a2.92,2.92,0,0,1,2.917,2.917v7.583H359V194.5h-1.167v11.083H359v-8.75h2.333v-8.75A4.088,4.088,0,0,0,357.25,184Z" transform="translate(-352 -184)" fill="#fff"/>
    </g>
  </g>
  <g id="Group_226" data-name="Group 226" transform="translate(23.333 23.917)">
    <g id="Group_225" data-name="Group 225">
      <path id="Path_432" data-name="Path 432" d="M322.333,328v1.167H320v1.167h2.333v8.75H323.5V328Z" transform="translate(-320 -328)" fill="#fff"/>
    </g>
  </g>
  <g id="Group_228" data-name="Group 228" transform="translate(28.583 26.25)">
    <g id="Group_227" data-name="Group 227">
      <rect id="Rectangle_155" data-name="Rectangle 155" width="1.167" height="8.75" fill="#fff"/>
    </g>
  </g>
  <g id="Group_230" data-name="Group 230" transform="translate(2.333 5.833)">
    <g id="Group_229" data-name="Group 229">
      <path id="Path_433" data-name="Path 433" d="M35.5,80A3.5,3.5,0,1,0,39,83.5,3.5,3.5,0,0,0,35.5,80Zm0,5.833A2.333,2.333,0,1,1,37.833,83.5,2.333,2.333,0,0,1,35.5,85.833Z" transform="translate(-32 -80)" fill="#fff"/>
    </g>
  </g>
  <g id="Group_232" data-name="Group 232" transform="translate(0 13.417)">
    <g id="Group_231" data-name="Group 231">
      <path id="Path_434" data-name="Path 434" d="M4.083,184A4.088,4.088,0,0,0,0,188.083v8.75H2.333v8.75H3.5V194.5H2.333v1.167H1.167v-7.583a2.92,2.92,0,0,1,2.917-2.917h5.25V184Z" transform="translate(0 -184)" fill="#fff"/>
    </g>
  </g>
  <g id="Group_234" data-name="Group 234" transform="translate(8.167 23.917)">
    <g id="Group_233" data-name="Group 233">
      <path id="Path_435" data-name="Path 435" d="M113.167,329.167V328H112v11.083h1.167v-8.75H115.5v-1.167Z" transform="translate(-112 -328)" fill="#fff"/>
    </g>
  </g>
  <g id="Group_236" data-name="Group 236" transform="translate(5.25 26.25)">
    <g id="Group_235" data-name="Group 235">
      <rect id="Rectangle_156" data-name="Rectangle 156" width="1.167" height="8.75" fill="#fff"/>
    </g>
  </g>
</svg>
