<svg id="Layer_1" enable-background="new 0 0 512.012 512.012" style="fill:#0B4B88" height="512" viewBox="0 0 512.012 512.012" width="512" xmlns="http://www.w3.org/2000/svg"><g><g><path d="m176.548 180.845c13.268-.528 13.258-19.477 0-20h-.007c-13.269.53-13.252 19.478.007 20z"/><path d="m140.232 351.771h-.007c-5.523 0-9.997 4.477-9.997 10 .528 13.263 19.479 13.263 20.004 0 0-5.523-4.477-10-10-10z"/><path d="m392.007 240.01c66.168 0 119.999-53.832 119.999-120-6.126-156.777-228.711-160.168-239.932-4.042l-21.11-36.564c-4-6.928-10.479-11.89-18.243-13.97-7.765-2.08-15.856-1.023-22.784 2.978l-.015.009-10.888-18.861c2.872-3.361 4.983-7.355 6.164-11.764 2.08-7.764 1.023-15.856-2.977-22.784-4-6.929-10.479-11.89-18.243-13.971-7.765-2.08-15.856-1.022-22.785 2.978l-34.7 20.034c-14.106 7.753-19.333 27.259-10.993 41.027 4 6.929 10.479 11.891 18.244 13.971 4.375 1.17 8.86 1.36 13.27.544l10.888 18.859-.015.009c-12.176 7.031-17.568 21.359-13.852 34.302-.991.847-1.957 1.739-2.894 2.676-8.876 8.876-13.715 20.282-14.52 31.918-16.787 22.489-27.733 46.711-33.429 73.945-5.708 27.298-5.849 56.981-.402 90.434h-22.682c-39.854 1.655-39.824 58.429 0 60.068h14.909l-3.345 20.069h-31.599c-16.561 0-30.034 13.473-30.034 30.034v10.017.017h-10.034c-5.523 0-10 4.477-10 10v40.068c0 5.523 4.477 10 10 10h440.751c5.523 0 10-4.477 10-10v-40.068c0-5.523-4.477-10-10-10h-10.034c0-.006 0-.011 0-.017v-10.017c0-16.561-13.473-30.034-30.034-30.034h-211.903l-3.345-20.069h195.214c39.854-1.655 39.824-58.429 0-60.068h-62.676c-13.268.528-13.258 19.477 0 20h62.676c13.314.553 13.305 19.521 0 20.068h-198.547l-1.946-11.678c-.482-2.895-1.117-5.695-1.894-8.39h49.711c13.268-.528 13.258-19.477 0-20h-59.384c-1.763-2.394-3.683-4.602-5.744-6.61-7.156-42.237-6.699-72.549 14.874-105.494 1.578-.359 3.142-.795 4.686-1.308l29.612 51.289c7.997 13.851 20.959 23.773 36.5 27.937 5.211 1.396 10.493 2.087 15.737 2.086 10.395 0 20.635-2.715 29.842-8.031 12.967-7.486 22.614-19.511 27.164-33.858 3.423-10.796 3.742-22.184 1.03-32.94.277-.074.554-.149.831-.223 17.915 10.104 38.177 15.424 58.881 15.424zm0-220c55.14 0 100 44.86 100 100 .674 77.247-86.784 126.2-152.198 85.309-2.343-1.439-5.182-1.844-7.82-1.134-11.004 2.953-22.01 5.905-33.016 8.855 2.874-10.724 5.748-21.438 8.623-32.152l.232-.866c.712-2.652.302-5.479-1.134-7.82-40.888-65.427 8.081-152.868 85.313-152.192zm-172.708 204.888 66.006-38.108c-2.101 7.831-4.202 15.665-6.304 23.511-.324 1.215-.523 2.437-.603 3.651l-49.063 28.327zm-64.017-75.315c11.725-11.724 30.8-11.723 42.523 0 11.664 11.192 11.665 31.331 0 42.522-11.722 11.724-30.798 11.724-42.523 0-11.723-11.723-11.723-30.798 0-42.522zm-16.362-89.851c-2.604-.698-4.77-2.35-6.099-4.652-2.773-4.569-1.013-11.135 3.673-13.706l34.7-20.034c2.302-1.329 5.003-1.678 7.608-.979 2.604.698 4.77 2.35 6.099 4.652s1.677 5.003.979 7.607-2.35 4.77-4.652 6.099l-34.701 20.034c-2.302 1.329-5.004 1.676-7.607.979zm26.267 11.341 17.38-10.034 10.034 17.38-17.38 10.034zm2.699 44.709 52.052-30.051c2.301-1.329 5.006-1.677 7.607-.979 2.604.697 4.77 2.35 6.099 4.651l45.085 78.089-66.326 38.292c18.996-18.704 18.79-51.878-.456-70.345-13.222-13.221-32.058-17.487-48.904-12.8.52-2.783 2.204-5.333 4.843-6.857zm-97.778 256.024c-13.314-.553-13.305-19.521 0-20.068h22.083c-.777 2.695-1.412 5.495-1.894 8.39l-1.947 11.679h-18.242zm370.649 120.206h-420.752v-20.068h420.751v20.068zm-20.034-50.103v10.017.017h-380.684c0-.006 0-.011 0-.017v-10.017c0-5.533 4.501-10.034 10.034-10.034h360.616c5.532 0 10.034 4.501 10.034 10.034zm-318.775-30.034 8.077-48.46c6.953-42.343 53.484-42.282 60.408 0l8.077 48.46zm38.281-100.172c-10.77 0-20.621 3.601-28.734 10.01-6.429-47.555-1.957-87.889 20.953-127.144 2.256 4.198 5.153 8.14 8.692 11.679 6.663 6.663 14.752 11.05 23.293 13.165-5.887 10.771-10.027 22.04-12.548 34.099-3.677 17.585-4.09 37.139-1.224 59.363-3.355-.771-6.842-1.172-10.432-1.172zm153.871-37.415c-9.224 5.326-20.021 6.727-30.402 3.945-10.38-2.781-19.03-9.394-24.355-18.618l-.009-.015 48.82-28.186c4.162 2.235 9.087 2.841 13.737 1.549 3.692-.989 7.383-1.979 11.074-2.969 4.087 16.922-3.378 35.352-18.865 44.294z"/><path d="m332.006 135.009h.007c4.364 0 8.292-1.864 11.032-4.839 1.299 6.266 3.773 12.106 7.182 17.279-13.465-.648-20.929 15.953-11.253 25.593 5.857 5.858 15.356 5.858 21.213 0l.005-.005c3.092-3.092 4.551-7.197 4.378-11.246 5.173 3.408 11.013 5.882 17.279 7.18-9.955 9.071-3.49 26.063 10.158 26.038 8.284 0 15-6.716 15-15v-.007c0-4.364-1.864-8.292-4.839-11.032 6.265-1.298 12.106-3.773 17.278-7.181-.172 4.052 1.288 8.16 4.381 11.253 5.857 5.858 15.356 5.858 21.213 0 5.858-5.858 5.858-15.355 0-21.213l-.005-.005c-3.091-3.092-7.197-4.551-11.246-4.378 3.408-5.173 5.882-11.013 7.18-17.279 9.071 9.955 26.063 3.489 26.038-10.159 0-8.284-6.716-15-15-15h-.007c-4.364 0-8.291 1.864-11.031 4.839-1.298-6.265-3.772-12.105-7.181-17.278 13.471.644 20.924-15.959 11.252-25.594-5.857-5.858-15.355-5.858-21.213 0l-.005.005c-3.092 3.092-4.551 7.197-4.378 11.245-5.173-3.408-11.013-5.882-17.278-7.18 9.955-9.071 3.489-26.063-10.159-26.038-8.284 0-15 6.716-15 15v.007c0 4.364 1.864 8.291 4.839 11.031-6.266 1.299-12.106 3.773-17.278 7.181.172-4.051-1.288-8.16-4.381-11.253-5.857-5.858-15.355-5.858-21.213 0s-5.858 15.355 0 21.213l.005.005c3.098 3.09 7.164 4.547 11.246 4.378-3.408 5.173-5.882 11.013-7.18 17.279-9.071-9.955-26.063-3.49-26.038 10.158-.001 8.287 6.715 15.003 14.999 15.003zm60.001-45c16.542 0 30 13.458 30 30-1.648 39.799-58.358 39.787-60 0 0-16.542 13.458-30 30-30z"/><path d="m282.974 331.738c-5.523 0-9.996 4.477-9.996 10 .528 13.263 19.479 13.263 20.003 0 0-5.523-4.477-10-10-10z"/></g></g></svg>