<svg xmlns="http://www.w3.org/2000/svg" width="60" height="60" viewBox="0 0 60 60">
  <g id="research" transform="translate(0 0)">
    <path id="Path_326" data-name="Path 326" d="M59.032,54.194H18.315L16.448,29.926h-.007a7.786,7.786,0,0,0,3.311-3.8h4.441V48.387a5.806,5.806,0,0,0,11.613,0V26.129h5.806V48.387a5.806,5.806,0,1,0,11.613,0V26.129h.968a.967.967,0,0,0,.968-.968V21.291a.967.967,0,0,0-.968-.968h-.968v-2.9h.968a.967.967,0,0,0,.968-.968V12.581a.967.967,0,0,0-.968-.968h-2.9V6.774a.967.967,0,0,0-.968-.968H45.484V.968A.967.967,0,0,0,44.516,0H27.1a.967.967,0,0,0-.968.968V11.613h-2.9a.967.967,0,0,0-.968.968v3.871a.967.967,0,0,0,.968.968h.968v2.9H19.752a7.738,7.738,0,1,0-11.034,9.6H8.712L6.846,54.194H.967A.967.967,0,0,0,0,55.161v3.871A.967.967,0,0,0,.967,60H59.032A.967.967,0,0,0,60,59.032V55.161a.967.967,0,0,0-.968-.968ZM30,52.258a3.875,3.875,0,0,1-3.871-3.871V37.742h1.7a1.926,1.926,0,0,1,1.369.567l.234.234a3.847,3.847,0,0,0,2.738,1.134h1.7v8.71A3.875,3.875,0,0,1,30,52.258Zm3.871-14.516h-1.7a1.926,1.926,0,0,1-1.369-.567l-.234-.234a3.847,3.847,0,0,0-2.738-1.134h-1.7V26.129h7.742ZM47.419,52.258a3.875,3.875,0,0,1-3.871-3.871V37.742h1.7a1.926,1.926,0,0,1,1.369.567l.234.234a3.847,3.847,0,0,0,2.738,1.134h1.7v8.71A3.875,3.875,0,0,1,47.419,52.258ZM51.29,37.742h-1.7a1.926,1.926,0,0,1-1.369-.567l-.234-.234a3.847,3.847,0,0,0-2.738-1.134h-1.7V26.129H51.29Zm0-17.419H43.548v-2.9H51.29Zm-14.516-2.9a.967.967,0,0,0,.968-.968V12.581a.967.967,0,0,0-.968-.968h-2.9V7.742h9.677v3.871h-2.9a.967.967,0,0,0-.968.968v3.871a.967.967,0,0,0,.968.968h.968v2.9H35.806v-2.9Zm16.452-1.935H41.613V13.549H53.226ZM49.355,7.742v3.871H45.484V7.742ZM28.064,1.936H43.548V5.807H32.9a.967.967,0,0,0-.968.968v4.839H28.064ZM24.193,13.549H35.806v1.935H24.193Zm1.935,3.871h7.742v2.9H26.129Zm27.1,4.839v1.935H20.256a7.062,7.062,0,0,0,0-1.935Zm-46.452.968a5.806,5.806,0,1,1,5.806,5.806A5.812,5.812,0,0,1,6.774,23.226Zm5.806,7.742a7.707,7.707,0,0,0,1.987-.268l1.508,19.623H9.084L10.593,30.7a7.707,7.707,0,0,0,1.987.268ZM8.936,52.258h7.289l.149,1.935H8.787Zm49.129,5.806H1.935V56.129H58.064Zm0,0" fill="#0064b9"/>
    <path id="Path_327" data-name="Path 327" d="M79.742,163.871a3.871,3.871,0,1,0-3.871,3.871A3.875,3.875,0,0,0,79.742,163.871Zm-5.806,0a1.935,1.935,0,1,1,1.935,1.935A1.937,1.937,0,0,1,73.935,163.871Zm0,0" transform="translate(-63.291 -140.645)" fill="#0064b9"/>
    <path id="Path_328" data-name="Path 328" d="M248,344h1.935v1.935H248Zm0,0" transform="translate(-218 -302.387)" fill="#0064b9"/>
    <path id="Path_329" data-name="Path 329" d="M232,376h1.935v1.935H232Zm0,0" transform="translate(-203.936 -330.516)" fill="#0064b9"/>
    <path id="Path_330" data-name="Path 330" d="M248,400h1.935v1.935H248Zm0,0" transform="translate(-218 -351.613)" fill="#0064b9"/>
    <path id="Path_331" data-name="Path 331" d="M392,344h1.935v1.935H392Zm0,0" transform="translate(-344.581 -302.387)" fill="#0064b9"/>
    <path id="Path_332" data-name="Path 332" d="M376,376h1.935v1.935H376Zm0,0" transform="translate(-330.516 -330.516)" fill="#0064b9"/>
    <path id="Path_333" data-name="Path 333" d="M392,400h1.935v1.935H392Zm0,0" transform="translate(-344.581 -351.613)" fill="#0064b9"/>
  </g>
</svg>
