<svg id="student-1" xmlns="http://www.w3.org/2000/svg" width="60" height="60" viewBox="0 0 60 60">
  <path id="Path_309" data-name="Path 309" d="M35.806,48.387H32.9V27.1H30.968v21.29H16.452a.967.967,0,0,0-.968.968v5.806a2.9,2.9,0,0,1-5.806,0V4.839a4.79,4.79,0,0,0-.993-2.9h19.38a2.907,2.907,0,0,1,2.9,2.9v5.255l-1.377.643a.967.967,0,0,0,0,1.753l4.365,2.038-4.361,2.013a.97.97,0,0,0-.562.88v2.114A2.9,2.9,0,0,0,27.1,22.258v1.935a.967.967,0,0,0,.968.968h3.871a.967.967,0,0,0,.968-.968V22.258a2.9,2.9,0,0,0-1.935-2.725V18.039l3.871-1.787V21.29c0,3.255,4.251,5.806,9.677,5.806s9.677-2.551,9.677-5.806V14.939l5.248-2.45a.967.967,0,0,0,0-1.753L44.925,3.962a.968.968,0,0,0-.818,0L32.9,9.19V4.839A4.844,4.844,0,0,0,28.064,0H4.839A4.844,4.844,0,0,0,0,4.839v5.806a.967.967,0,0,0,.968.968H7.742V55.161A4.844,4.844,0,0,0,12.581,60H31.935a4.844,4.844,0,0,0,4.839-4.839V49.355a.967.967,0,0,0-.968-.968ZM30.968,23.226H29.032v-.968a.968.968,0,0,1,1.935,0Zm21.29-1.935c0,1.831-3.179,3.871-7.742,3.871s-7.742-2.04-7.742-3.871V15.842l7.333,3.422a.964.964,0,0,0,.818,0l7.333-3.422ZM44.516,5.907l12.229,5.706L44.516,17.319l-5.962-2.782,3.408-1.573a2.892,2.892,0,1,0-.268-2.008l-5.437,2.51-3.97-1.852Zm-.968,5.706a.968.968,0,1,1,.968.968A.969.969,0,0,1,43.548,11.613ZM7.742,9.677H1.935V4.839a2.9,2.9,0,1,1,5.806,0Zm27.1,45.484a2.907,2.907,0,0,1-2.9,2.9H16.45a4.813,4.813,0,0,0,.97-2.9V50.323H34.839Zm0,0" fill="#0064b9"/>
  <path id="Path_310" data-name="Path 310" d="M96,32h17.419v1.935H96Zm0,0" transform="translate(-84.387 -28.129)" fill="#0064b9"/>
  <path id="Path_311" data-name="Path 311" d="M96,64h17.419v1.935H96Zm0,0" transform="translate(-84.387 -56.258)" fill="#0064b9"/>
  <path id="Path_312" data-name="Path 312" d="M96,96h15.484v1.935H96Zm0,0" transform="translate(-84.387 -84.387)" fill="#0064b9"/>
  <path id="Path_313" data-name="Path 313" d="M96,224h13.548v1.935H96Zm0,0" transform="translate(-84.387 -196.903)" fill="#0064b9"/>
  <path id="Path_314" data-name="Path 314" d="M96,256h13.548v1.935H96Zm0,0" transform="translate(-84.387 -225.032)" fill="#0064b9"/>
  <path id="Path_315" data-name="Path 315" d="M96,288h13.548v1.935H96Zm0,0" transform="translate(-84.387 -253.161)" fill="#0064b9"/>
  <path id="Path_316" data-name="Path 316" d="M96,128h7.742v1.935H96Zm0,0" transform="translate(-84.387 -112.516)" fill="#0064b9"/>
  <path id="Path_317" data-name="Path 317" d="M96,160h7.742v1.935H96Zm0,0" transform="translate(-84.387 -140.645)" fill="#0064b9"/>
  <path id="Path_318" data-name="Path 318" d="M96,192h7.742v1.935H96Zm0,0" transform="translate(-84.387 -168.774)" fill="#0064b9"/>
  <path id="Path_319" data-name="Path 319" d="M96,326.774a.967.967,0,0,0,.968.968h15.484a.967.967,0,0,0,.968-.968v-5.806a.967.967,0,0,0-.968-.968H96.968a.967.967,0,0,0-.968.968Zm1.935-4.839h13.548v3.871H97.935Zm0,0" transform="translate(-84.387 -281.29)" fill="#0064b9"/>
  <path id="Path_320" data-name="Path 320" d="M324.839,240A4.844,4.844,0,0,0,320,244.839v19.355a.975.975,0,0,0,.163.537l3.871,5.806a.968.968,0,0,0,1.61,0l3.871-5.806a.975.975,0,0,0,.163-.537V244.839A4.844,4.844,0,0,0,324.839,240Zm2.9,17.019-5.239,5.239h-.567v-2.5l5.806-5.806Zm-5.806-3.07,5.806-5.806v3.07l-5.806,5.806Zm0-2.737v-3.47h3.47Zm2.9-9.277a2.907,2.907,0,0,1,2.9,2.9v.968h-5.806v-.968A2.907,2.907,0,0,1,324.839,241.936Zm0,26.319-2.708-4.061h5.415Zm.4-6,2.5-2.5v2.5Zm0,0" transform="translate(-281.29 -210.968)" fill="#0064b9"/>
  <path id="Path_321" data-name="Path 321" d="M420.839,240A4.844,4.844,0,0,0,416,244.839v19.355a.975.975,0,0,0,.163.537l3.871,5.806a.968.968,0,0,0,1.61,0l3.871-5.806a.975.975,0,0,0,.163-.537V244.839A4.844,4.844,0,0,0,420.839,240Zm2.9,17.019-5.239,5.239h-.567v-2.5l5.806-5.806Zm-5.806-3.07,5.806-5.806v3.07l-5.806,5.806Zm0-2.737v-3.47h3.47Zm2.9-9.277a2.907,2.907,0,0,1,2.9,2.9v.968h-5.806v-.968A2.907,2.907,0,0,1,420.839,241.936Zm0,26.319-2.708-4.061h5.415Zm.4-6,2.5-2.5v2.5Zm0,0" transform="translate(-365.677 -210.968)" fill="#0064b9"/>
</svg>
