<svg xmlns="http://www.w3.org/2000/svg" width="52.258" height="60" viewBox="0 0 52.258 60">
  <g id="success" transform="translate(0 0)">
    <path id="Path_322" data-name="Path 322" d="M136.286,41.829a.96.96,0,0,0-.812-.194l-1.284.275a12.4,12.4,0,0,0-1.092-2.574l1.182-.788a.968.968,0,0,0,.147-1.489l-3.871-3.871a.981.981,0,0,0-.78-.279.966.966,0,0,0-.709.426l-.788,1.182a12.446,12.446,0,0,0-2.574-1.092l.275-1.284a.969.969,0,0,0-.946-1.172h-3.871V9.677h9.677a.967.967,0,0,0,.774-1.548l-2.468-3.29,2.468-3.29A.967.967,0,0,0,130.838,0H120.193a.967.967,0,0,0-.968.968v8.71h-10.67a4.79,4.79,0,0,0,.993-2.9V4.839a4.839,4.839,0,0,0-9.677,0V6.774a4.79,4.79,0,0,0,.993,2.9h-.025A4.844,4.844,0,0,0,96,14.516v9.677a.967.967,0,0,0,.968.968h2.9V37.742a.967.967,0,0,0,.968.968h3.871a.967.967,0,0,0,.968-.968V23.226h5.806V30a.967.967,0,0,0,.968.968h3.871A.967.967,0,0,0,117.29,30V21.29a3.875,3.875,0,0,0-3.871-3.871h-3.871V15.484h9.677V30.968a.968.968,0,0,0-.946,1.171l.275,1.283a12.4,12.4,0,0,0-2.578,1.089l-.785-1.177a.968.968,0,0,0-.709-.426.982.982,0,0,0-.78.279l-3.871,3.871a.968.968,0,0,0,.147,1.489l1.177.785a12.4,12.4,0,0,0-1.089,2.578l-1.283-.275a.968.968,0,0,0-1.171.946v5.806a.968.968,0,0,0,1.171.946l1.284-.275a12.4,12.4,0,0,0,1.092,2.574l-1.182.788a.968.968,0,0,0-.147,1.489L113.7,57.78a.968.968,0,0,0,1.489-.147l.788-1.182a12.447,12.447,0,0,0,2.574,1.092l-.275,1.284A.969.969,0,0,0,119.226,60h5.806a.968.968,0,0,0,.946-1.171l-.275-1.284a12.35,12.35,0,0,0,2.578-1.088l.785,1.177a.968.968,0,0,0,1.489.147l3.871-3.871a.968.968,0,0,0-.147-1.489l-1.177-.785a12.4,12.4,0,0,0,1.089-2.578l1.283.275a.968.968,0,0,0,1.171-.946V42.58a.968.968,0,0,0-.359-.752ZM121.161,1.935H128.9l-1.742,2.322a.965.965,0,0,0,0,1.161L128.9,7.742h-7.742ZM101.806,6.774V4.839a2.9,2.9,0,1,1,5.806,0V6.774a2.9,2.9,0,1,1-5.806,0Zm6.774,6.774a.967.967,0,0,0-.968.968v3.871a.967.967,0,0,0,.968.968h4.839a1.937,1.937,0,0,1,1.935,1.935v7.742h-1.935V22.258a.967.967,0,0,0-.968-.968h-7.742a.967.967,0,0,0-.968.968V36.774h-1.935V15.484H99.871v7.742H97.935v-8.71a2.907,2.907,0,0,1,2.9-2.9h18.387v1.935ZM134.709,47.19l-1.025-.22a.969.969,0,0,0-1.151.745,10.522,10.522,0,0,1-1.55,3.672.969.969,0,0,0,.269,1.343l.97.646-2.2,2.2-.646-.97a.967.967,0,0,0-.616-.413.981.981,0,0,0-.727.143,10.55,10.55,0,0,1-3.672,1.55.969.969,0,0,0-.745,1.151l.221,1.024h-3.412l.22-1.025a.969.969,0,0,0-.745-1.151,10.526,10.526,0,0,1-3.668-1.554.969.969,0,0,0-1.343.268l-.65.976-2.2-2.2.976-.65a.969.969,0,0,0,.268-1.343,10.526,10.526,0,0,1-1.554-3.668.969.969,0,0,0-1.151-.745l-1.026.22V43.778l1.025.22a.969.969,0,0,0,1.151-.745,10.522,10.522,0,0,1,1.55-3.672A.969.969,0,0,0,113,38.238l-.97-.646,2.2-2.2.646.97a.967.967,0,0,0,.616.413.981.981,0,0,0,.727-.143,10.557,10.557,0,0,1,3.672-1.55.969.969,0,0,0,.745-1.151l-.221-1.025h3.412l-.22,1.025a.969.969,0,0,0,.745,1.151,10.526,10.526,0,0,1,3.668,1.554.969.969,0,0,0,1.343-.268l.65-.976,2.2,2.2-.976.65a.969.969,0,0,0-.268,1.343,10.526,10.526,0,0,1,1.554,3.668.969.969,0,0,0,1.151.745l1.026-.22Zm0,0" transform="translate(-84.387)" fill="#0064b9"/>
    <path id="Path_323" data-name="Path 323" d="M248.71,304a8.71,8.71,0,1,0,8.71,8.71A8.719,8.719,0,0,0,248.71,304Zm0,15.484a6.774,6.774,0,1,1,6.774-6.774A6.783,6.783,0,0,1,248.71,319.484Zm0,0" transform="translate(-210.967 -267.226)" fill="#0064b9"/>
    <path id="Path_324" data-name="Path 324" d="M20.133,327.761,18.941,328a8.58,8.58,0,0,0-.568-1.342l1.52-1.014a.968.968,0,0,0,.147-1.489l-2.9-2.9a.968.968,0,0,0-1.489.147l-1.014,1.52a8.576,8.576,0,0,0-1.342-.568l.239-1.193A.968.968,0,0,0,12.581,320H8.71a.968.968,0,0,0-.948,1.157L8,322.346a8.719,8.719,0,0,0-1.351.559l-1-1.508a.968.968,0,0,0-.709-.426.98.98,0,0,0-.78.279l-2.9,2.9a.968.968,0,0,0,.147,1.489l1.508,1A8.645,8.645,0,0,0,2.347,328l-1.189-.238A.968.968,0,0,0,0,328.71v3.871a.968.968,0,0,0,1.157.948l1.193-.239a8.58,8.58,0,0,0,.568,1.342L1.4,335.646a.968.968,0,0,0-.147,1.489l2.9,2.9a.968.968,0,0,0,1.489-.147l1.014-1.52A8.578,8.578,0,0,0,8,338.94l-.239,1.193a.968.968,0,0,0,.948,1.157h3.871a.968.968,0,0,0,.948-1.157l-.238-1.189a8.722,8.722,0,0,0,1.351-.559l1,1.508a.968.968,0,0,0,.709.426,1,1,0,0,0,.78-.279l2.9-2.9a.968.968,0,0,0-.147-1.489l-1.508-1a8.647,8.647,0,0,0,.559-1.351l1.189.238a.968.968,0,0,0,1.157-.948v-3.871a.968.968,0,0,0-.354-.748A.978.978,0,0,0,20.133,327.761Zm-.778,3.638-.929-.186a.973.973,0,0,0-.728.143.964.964,0,0,0-.412.618,6.7,6.7,0,0,1-1.006,2.427.969.969,0,0,0,.269,1.343l1.287.857L16.6,337.836l-.857-1.287a.969.969,0,0,0-1.343-.269,6.693,6.693,0,0,1-2.427,1.006.965.965,0,0,0-.761,1.139l.186.929H9.891l.186-.929a.965.965,0,0,0-.761-1.139A6.687,6.687,0,0,1,6.9,336.266a.968.968,0,0,0-1.343.268l-.868,1.3L3.455,336.6l1.3-.868a.969.969,0,0,0,.268-1.343A6.7,6.7,0,0,1,4,331.976a.965.965,0,0,0-1.139-.761l-.93.185V329.89l.929.186a.973.973,0,0,0,.728-.143A.964.964,0,0,0,4,329.315a6.7,6.7,0,0,1,1.006-2.427.969.969,0,0,0-.269-1.343l-1.287-.857,1.234-1.234.857,1.287a.969.969,0,0,0,1.343.269A6.693,6.693,0,0,1,9.316,324a.965.965,0,0,0,.761-1.139l-.186-.929H11.4l-.186.929A.965.965,0,0,0,11.976,324a6.687,6.687,0,0,1,2.416,1.021.968.968,0,0,0,1.343-.268l.868-1.3,1.234,1.234-1.3.868a.969.969,0,0,0-.268,1.343,6.7,6.7,0,0,1,1.021,2.416.966.966,0,0,0,1.139.761l.929-.185Zm0,0" transform="translate(0 -281.29)" fill="#0064b9"/>
    <path id="Path_325" data-name="Path 325" d="M52.839,368a4.839,4.839,0,1,0,4.839,4.839A4.844,4.844,0,0,0,52.839,368Zm0,7.742a2.9,2.9,0,1,1,2.9-2.9A2.907,2.907,0,0,1,52.839,375.742Zm0,0" transform="translate(-42.193 -323.484)" fill="#0064b9"/>
  </g>
</svg>
