<svg xmlns="http://www.w3.org/2000/svg" width="59.995" height="60" viewBox="0 0 59.995 60">
  <g id="video-call" transform="translate(-1 -0.995)">
    <path id="Path_353" data-name="Path 353" d="M60.027,41.642H59.06V10.676A5.812,5.812,0,0,0,53.254,4.87H35.739a4.838,4.838,0,0,0-9.483,0H8.741a5.812,5.812,0,0,0-5.806,5.806V41.642H1.968A.968.968,0,0,0,1,42.609V46.48a4.844,4.844,0,0,0,4.838,4.838H31.506a8.647,8.647,0,0,0-.508,2.9v5.806a.968.968,0,0,0,.968.968H55.189a.968.968,0,0,0,.968-.968V54.221a8.647,8.647,0,0,0-.508-2.9h.508A4.844,4.844,0,0,0,61,46.48V42.609A.968.968,0,0,0,60.027,41.642Zm-2.9-30.965V41.642h-6.06a7.7,7.7,0,0,0,.254-1.935h2.9a.968.968,0,0,0,.968-.968V9.709a.968.968,0,0,0-.968-.968H34.843a4.794,4.794,0,0,0,.9-1.935H53.254A3.871,3.871,0,0,1,57.124,10.676ZM43.577,45.512a5.812,5.812,0,0,1-5.806-5.806V37.771a5.806,5.806,0,0,1,11.612,0v1.935A5.812,5.812,0,0,1,43.577,45.512Zm-7.741-7.741H33.9V25.191H53.254v12.58H51.319a7.741,7.741,0,0,0-3.877-6.7c0-.025.007-.05.007-.075a3.871,3.871,0,1,0-7.741,0c0,.025.006.05.007.075a7.741,7.741,0,0,0-3.877,6.7ZM31.965,10.676V37.771H8.741V10.676Zm21.289,12.58h-2.99a5.818,5.818,0,0,0-3.619-4.44,3.832,3.832,0,0,0,.8-2.334,3.871,3.871,0,1,0-7.741,0,3.832,3.832,0,0,0,.8,2.334,5.818,5.818,0,0,0-3.619,4.44H33.9V10.676H53.254Zm-9.677-4.838a1.935,1.935,0,1,1,1.935-1.935A1.935,1.935,0,0,1,43.577,18.418Zm-.968,1.935h1.935a3.871,3.871,0,0,1,3.733,2.9h-9.4A3.871,3.871,0,0,1,42.61,20.353Zm2.751,9.892a7.477,7.477,0,0,0-3.567,0,1.935,1.935,0,0,1,3.567,0ZM31,2.935a2.9,2.9,0,1,1-2.9,2.9A2.9,2.9,0,0,1,31,2.935ZM4.871,10.676A3.871,3.871,0,0,1,8.741,6.806H26.256a4.794,4.794,0,0,0,.9,1.935H7.774a.968.968,0,0,0-.968.968v29.03a.968.968,0,0,0,.968.968H35.836a7.7,7.7,0,0,0,.254,1.935H4.871Zm.968,38.707a2.9,2.9,0,0,1-2.9-2.9v-2.9H36.883A7.792,7.792,0,0,0,38.566,45.6a8.716,8.716,0,0,0-6.1,3.787ZM54.222,59.06h-2.9V55.189H49.383V59.06H37.771V55.189H35.836V59.06h-2.9V54.221a6.781,6.781,0,0,1,6.774-6.774h7.741a6.781,6.781,0,0,1,6.774,6.774ZM59.06,46.48a2.9,2.9,0,0,1-2.9,2.9H54.684a8.716,8.716,0,0,0-6.1-3.787,7.792,7.792,0,0,0,1.684-2.019H59.06Z" fill="#0064b9"/>
    <rect id="Rectangle_79" data-name="Rectangle 79" width="1.935" height="1.935" transform="translate(30.03 4.87)" fill="#0064b9"/>
    <path id="Path_354" data-name="Path 354" d="M11.968,36.224H29.386a.968.968,0,0,0,.968-.968V31.386a6.783,6.783,0,0,0-5.477-6.646,5.779,5.779,0,0,0,1.606-4V18.806a5.806,5.806,0,0,0-11.612,0v1.935a5.779,5.779,0,0,0,1.606,4A6.783,6.783,0,0,0,11,31.386v3.871A.968.968,0,0,0,11.968,36.224Zm10.644-9.677a1.935,1.935,0,0,1-3.871,0Zm-5.806-7.741a3.871,3.871,0,0,1,7.741,0v1.935a3.871,3.871,0,0,1-7.741,0Zm-3.871,12.58a4.846,4.846,0,0,1,3.88-4.742,3.862,3.862,0,0,0,7.722,0,4.846,4.846,0,0,1,3.88,4.742v2.9H26.483V30.418H24.547v3.871H16.806V30.418H14.871v3.871H12.935Z" transform="translate(-0.323 -0.388)" fill="#0064b9"/>
  </g>
</svg>
