<svg id="Layer_1" enable-background="new 0 0 512 512" height="512" viewBox="0 0 512 512" width="512" xmlns="http://www.w3.org/2000/svg"><g><path d="m41.922 74.583c9.992 0 10.008-15 0-15-9.992 0-10.008 15 0 15z"/><path d="m68.755 74.583c9.992 0 10.008-15 0-15-9.992 0-10.008 15 0 15z"/><path d="m95.589 74.583c9.992 0 10.008-15 0-15-9.992 0-10.009 15 0 15z"/><path d="m504.5 31h-59.508c-9.697 0-9.697 15 0 15h52.008v42.167h-482v-42.167h390.135c9.697 0 9.697-15 0-15h-397.635c-4.143 0-7.5 3.358-7.5 7.5v435c0 4.142 3.357 7.5 7.5 7.5h497c4.143 0 7.5-3.358 7.5-7.5v-435c0-4.142-3.357-7.5-7.5-7.5zm-489.5 435v-362.833h482v362.833z"/><path d="m139.873 136.696h-75.373c-4.143 0-7.5 3.358-7.5 7.5v170.417c0 4.142 3.357 7.5 7.5 7.5h75.373c4.143 0 7.5-3.358 7.5-7.5v-170.417c0-4.142-3.357-7.5-7.5-7.5zm-7.5 170.417h-60.373v-155.417h60.373z"/><path d="m139.873 338.22h-75.373c-4.143 0-7.5 3.358-7.5 7.5v74.28c0 4.142 3.357 7.5 7.5 7.5h75.373c4.143 0 7.5-3.358 7.5-7.5v-74.28c0-4.142-3.357-7.5-7.5-7.5zm-7.5 74.28h-60.373v-59.28h60.373z"/><path d="m443.574 136.696h-269.84c-4.143 0-7.5 3.358-7.5 7.5v95.373c0 4.142 3.357 7.5 7.5 7.5h269.84c4.143 0 7.5-3.358 7.5-7.5v-95.373c0-4.142-3.357-7.5-7.5-7.5zm-7.5 95.373h-254.84v-80.373h254.84z"/><path d="m291 263.94h-117.266c-4.143 0-7.5 3.358-7.5 7.5v148.56c0 4.142 3.357 7.5 7.5 7.5h117.266c4.143 0 7.5-3.358 7.5-7.5v-87.028c0-9.697-15-9.697-15 0v79.528h-102.266v-133.56h102.266v14.11c0 9.697 15 9.697 15 0v-21.61c0-4.142-3.357-7.5-7.5-7.5z"/><path d="m443.574 263.94h-117.265c-4.143 0-7.5 3.358-7.5 7.5v74.28c0 4.142 3.357 7.5 7.5 7.5h117.266c4.143 0 7.5-3.358 7.5-7.5v-74.28c-.001-4.142-3.358-7.5-7.501-7.5zm-7.5 74.28h-102.265v-59.28h102.266v59.28z"/><path d="m443.574 369.409h-117.265c-4.143 0-7.5 3.358-7.5 7.5v43.091c0 4.142 3.357 7.5 7.5 7.5h117.266c4.143 0 7.5-3.358 7.5-7.5v-43.091c-.001-4.142-3.358-7.5-7.501-7.5zm-7.5 43.091h-102.265v-28.091h102.266v28.091z"/></g></svg>