<svg xmlns="http://www.w3.org/2000/svg" width="71.498" height="69.667"><g data-name="Group 1016"><g data-name="Group 1014"><path data-name="Path 1742" d="M1.047 7.648v43.209a1.915 1.915 0 0 0 1.915 1.915h56.46a1.915 1.915 0 0 0 1.915-1.915V7.648a1.915 1.915 0 0 0-1.915-1.915H2.962a1.915 1.915 0 0 0-1.915 1.915Z" fill="#f5f6fa"/><g data-name="Group 1013"><g data-name="Group 1009" transform="translate(14.329 25.159)"><circle data-name="Ellipse 67" cx="2.444" cy="2.444" r="2.444" fill="#ffd25d"/></g><g data-name="Group 1010" transform="translate(23.942 19.702)"><circle data-name="Ellipse 68" cx="2.444" cy="2.444" r="2.444" fill="#ffd25d"/></g><g data-name="Group 1011" transform="translate(33.554 25.159)"><circle data-name="Ellipse 69" cx="2.444" cy="2.444" r="2.444" fill="#ffd25d"/></g><g data-name="Group 1012" transform="translate(43.167 11.73)"><circle data-name="Ellipse 70" cx="2.444" cy="2.444" r="2.444" fill="#ffd25d"/></g></g><path data-name="Path 1744" d="M11.231 56.124v-3.352h39.922v3.352a1.334 1.334 0 0 1-1.334 1.334H12.565a1.334 1.334 0 0 1-1.334-1.334Z" fill="#ffd25d"/><path data-name="Path 1746" d="M26.426 5.733V2.627a1.58 1.58 0 0 1 1.58-1.58h6.37a1.58 1.58 0 0 1 1.58 1.58v3.106h-9.531Z" fill="#ffd25d"/><path data-name="Path 1747" d="M34.377 1.047h-3.41a1.58 1.58 0 0 1 1.58 1.58v3.106h3.41V2.627a1.58 1.58 0 0 0-1.58-1.58Z" fill="#f5f6fa"/><path data-name="Rectangle 352" fill="#ffd25d" d="M14.649 37.497h4.249v9.255h-4.249z"/><path data-name="Rectangle 353" fill="#ffd25d" d="M24.261 32.145h4.249v14.607h-4.249z"/><path data-name="Rectangle 354" fill="#ffd25d" d="M33.874 37.497h4.249v9.255h-4.249z"/><path data-name="Rectangle 355" fill="#ffd25d" d="M43.486 27.971h4.249v18.781h-4.249z"/></g><g data-name="Group 1015" transform="translate(42.314 20.304)"><path data-name="Path 1748" d="m14.864 22.364 7.8 13.5a2.934 2.934 0 0 0 4.008 1.074 2.934 2.934 0 0 0 1.074-4.008l-7.8-13.5Z" fill="#ffd25d"/><circle data-name="Ellipse 71" cx="12.642" cy="12.642" r="12.642" fill="#ffd25d"/><circle data-name="Ellipse 72" cx="8.897" cy="8.897" r="8.897" transform="translate(3.745 3.745)" fill="#f5f6fa"/></g></g><g data-name="Group 1017"><path data-name="Path 1750" d="M45.611 17.665a3.5 3.5 0 1 0-2.789-1.394l-5.736 8.016a3.481 3.481 0 0 0-3.463.763L29.8 22.88a3.491 3.491 0 1 0-6.826 0l-3.823 2.17a3.486 3.486 0 1 0 1.036 1.82l3.823-2.17a3.482 3.482 0 0 0 4.753 0l3.823 2.17a3.491 3.491 0 1 0 6.2-1.363l5.736-8.016a3.48 3.48 0 0 0 1.089.174Zm0-4.888a1.4 1.4 0 1 1-1.4 1.4 1.4 1.4 0 0 1 1.4-1.399ZM16.774 29a1.4 1.4 0 1 1 1.4-1.4 1.4 1.4 0 0 1-1.4 1.4Zm9.613-5.458a1.4 1.4 0 1 1 1.4-1.4 1.4 1.4 0 0 1-1.401 1.4ZM36 29a1.4 1.4 0 1 1 1.4-1.4 1.4 1.4 0 0 1-1.401 1.4Z"/><path data-name="Path 1751" d="M58.483 51.725H2.963a.869.869 0 0 1-.868-.868V7.649a.869.869 0 0 1 .868-.868H7.9a1.048 1.048 0 0 0 0-2.095H2.963A2.966 2.966 0 0 0 0 7.649v43.208a2.966 2.966 0 0 0 2.963 2.963h7.221v2.3a2.384 2.384 0 0 0 2.381 2.381h10.484l-4.935 9.635a1.047 1.047 0 1 0 1.864.955L25.4 58.506h11.58l5.424 10.59a1.047 1.047 0 1 0 1.864-.955l-4.935-9.635h10.486a2.384 2.384 0 0 0 2.381-2.381v-2.3h6.282a1.048 1.048 0 1 0 0-2.095Zm-8.377 4.4a.287.287 0 0 1-.287.287H12.565a.287.287 0 0 1-.287-.287v-2.3h37.828Z"/><path data-name="Path 1752" d="M12.089 6.781h47.333a.869.869 0 0 1 .868.868v9.958a1.048 1.048 0 1 0 2.095 0V7.649a2.966 2.966 0 0 0-2.963-2.963H37.005V2.628A2.631 2.631 0 0 0 34.377 0h-6.37a2.631 2.631 0 0 0-2.628 2.628v2.059h-13.29a1.048 1.048 0 0 0 0 2.095Zm15.382-4.153a.534.534 0 0 1 .533-.533h6.37a.534.534 0 0 1 .533.533v2.059h-7.436V2.628Z"/><path data-name="Path 1753" d="M14.649 36.45a1.047 1.047 0 0 0-1.047 1.047v9.255a1.047 1.047 0 0 0 1.047 1.047H18.9a1.047 1.047 0 0 0 1.047-1.047v-9.255A1.047 1.047 0 0 0 18.9 36.45Zm3.2 9.255H15.7v-7.16h2.154Z"/><path data-name="Path 1754" d="M24.261 31.097a1.047 1.047 0 0 0-1.047 1.047v14.605a1.047 1.047 0 0 0 1.047 1.047h4.249a1.047 1.047 0 0 0 1.047-1.047v-14.6a1.047 1.047 0 0 0-1.047-1.047Zm3.2 14.607h-2.154V33.192h2.154Z"/><path data-name="Path 1755" d="M33.874 36.45a1.047 1.047 0 0 0-1.047 1.047v9.255a1.047 1.047 0 0 0 1.047 1.047h4.249a1.047 1.047 0 0 0 1.047-1.047v-9.255a1.047 1.047 0 0 0-1.047-1.047Zm3.2 9.255H34.92v-7.16h2.154Z"/><path data-name="Path 1756" d="M43.486 42.63a1.047 1.047 0 0 0-1.047 1.047v3.075a1.047 1.047 0 0 0 1.047 1.046h4.249a1.048 1.048 0 0 0 0-2.095H44.53v-2.027a1.047 1.047 0 0 0-1.044-1.046Z"/><path data-name="Path 1757" d="m70.964 52.71-6.008-10.407a13.7 13.7 0 1 0-13.543 3.865 13.764 13.764 0 0 0 3.565.472 13.517 13.517 0 0 0 3.083-.356l6.007 10.407a3.983 3.983 0 1 0 6.9-3.981Zm-19.009-8.566a11.594 11.594 0 1 1 8.8-1.158 11.519 11.519 0 0 1-8.8 1.159Zm16.5 12.19a1.889 1.889 0 0 1-2.577-.69l-5.78-10.013a13.746 13.746 0 0 0 3.266-1.888l5.781 10.014a1.885 1.885 0 0 1-.69 2.577Z"/><path data-name="Path 1758" d="M64.451 35.896a9.911 9.911 0 0 0-.5-7.18 1.047 1.047 0 1 0-1.895.893 7.845 7.845 0 1 1-2.365-2.922 1.047 1.047 0 1 0 1.264-1.67 9.946 9.946 0 1 0 3.492 10.88Z"/></g></svg>