<svg xmlns="http://www.w3.org/2000/svg" width="62.887" height="57.667" viewBox="0 0 62.887 57.667">
  <g id="book" transform="translate(0 -21.253)">
    <g id="Group_566" data-name="Group 566" transform="translate(3.616 22.174)">
      <path id="Path_1025" data-name="Path 1025" d="M38.17,46.211l13.923,1.682,17.152-1.682a2.411,2.411,0,0,0,0-4.822H67.731L49.183,37.481l18.548-3.9h1.514a2.411,2.411,0,0,0,0-4.822H38.17a8.729,8.729,0,0,0,0,17.457Z" transform="translate(-29.44 -28.754)" fill="#f5f6fa" fill-rule="evenodd"/>
    </g>
    <g id="Group_567" data-name="Group 567" transform="translate(8.438 26.996)">
      <path id="Path_1026" data-name="Path 1026" d="M72.6,75.825h29.561a8.7,8.7,0,0,1,0-7.814H72.6a3.907,3.907,0,0,0,0,7.814Z" transform="translate(-68.696 -68.011)" fill="#f9f7f8" fill-rule="evenodd"/>
    </g>
    <g id="Group_568" data-name="Group 568" transform="translate(8.438 26.996)">
      <path id="Path_1027" data-name="Path 1027" d="M102.166,68.011H72.6a3.9,3.9,0,0,0-3.519,5.6A3.922,3.922,0,0,1,72.6,71.4l28.648,0A9.186,9.186,0,0,1,102.166,68.011Z" transform="translate(-68.696 -68.011)" fill="#dddaec" fill-rule="evenodd"/>
    </g>
    <g id="Group_569" data-name="Group 569" transform="translate(31.945 22.174)">
      <path id="Path_1028" data-name="Path 1028" d="M271.557,28.754H260.08a18.717,18.717,0,0,1,1.485,4.822h9.992a2.411,2.411,0,0,0,0-4.822Z" transform="translate(-260.08 -28.754)" fill="#eee" fill-rule="evenodd"/>
    </g>
    <g id="Group_570" data-name="Group 570" transform="translate(3.616 39.632)">
      <path id="Path_1029" data-name="Path 1029" d="M53.778,192.42l21.094-2.353a4.475,4.475,0,0,0,4.462-4.462v-10.26a4.475,4.475,0,0,0-4.462-4.462H31.792a2.353,2.353,0,0,0,0,4.707h2.216l40.619,4.885L34.008,185.36H31.792a2.353,2.353,0,1,0,0,4.707Z" transform="translate(-29.439 -170.883)" fill="#f5f6fa" fill-rule="evenodd"/>
    </g>
    <g id="Group_571" data-name="Group 571" transform="translate(8.185 44.338)">
      <path id="Path_1030" data-name="Path 1030" d="M66.641,218.972h39.431a1.191,1.191,0,0,0,1.188-1.188V210.39a1.191,1.191,0,0,0-1.188-1.188H66.641a10.85,10.85,0,0,1,0,9.77Z" transform="translate(-66.641 -209.202)" fill="#f9f7f8" fill-rule="evenodd"/>
    </g>
    <g id="Group_572" data-name="Group 572" transform="translate(8.185 44.338)">
      <path id="Path_1031" data-name="Path 1031" d="M106.072,209.2H66.641A12.14,12.14,0,0,1,67.5,211.6h35.816a1.19,1.19,0,0,1,1.184,1.188v6.188h1.57a1.191,1.191,0,0,0,1.188-1.188v-7.394a1.191,1.191,0,0,0-1.188-1.188Z" transform="translate(-66.641 -209.203)" fill="#dddaec" fill-rule="evenodd"/>
    </g>
    <g id="Group_574" data-name="Group 574" transform="translate(39.124 39.632)">
      <path id="Path_1033" data-name="Path 1033" d="M328.451,170.883h-9.22a18.315,18.315,0,0,1,1.745,4.707h6.043a1.191,1.191,0,0,1,1.188,1.188v7.394a1.191,1.191,0,0,1-1.188,1.188H320.67a17.661,17.661,0,0,1-2.145,4.707h9.926a4.475,4.475,0,0,0,4.462-4.462v-10.26A4.475,4.475,0,0,0,328.451,170.883Z" transform="translate(-318.525 -170.883)" fill="#f5f6fa" fill-rule="evenodd"/>
    </g>
    <g id="Group_575" data-name="Group 575" transform="translate(0.921 58.815)">
      <path id="Path_1034" data-name="Path 1034" d="M12.548,327.065h-.59A4.472,4.472,0,0,0,7.5,331.527v10.26a4.475,4.475,0,0,0,4.458,4.462H66.192a2.353,2.353,0,1,0,0-4.707H63.976l-51.769-4.454,51.769-5.315h2.216a2.353,2.353,0,0,0,0-4.707H12.548Z" transform="translate(-7.5 -327.065)" fill="#f5f6fa" fill-rule="evenodd"/>
    </g>
    <g id="Group_576" data-name="Group 576" transform="translate(45.129 73.291)">
      <path id="Path_1035" data-name="Path 1035" d="M379.689,444.926h-9.7a17.14,17.14,0,0,1-2.572,4.707H381.9a2.353,2.353,0,1,0,0-4.707Z" transform="translate(-367.421 -444.926)" fill="#eee" fill-rule="evenodd"/>
    </g>
    <g id="Group_577" data-name="Group 577" transform="translate(47.178 58.815)">
      <path id="Path_1036" data-name="Path 1036" d="M396.538,327.065H384.1a18.62,18.62,0,0,1,1.4,4.707h11.032a2.353,2.353,0,0,0,0-4.707Z" transform="translate(-384.103 -327.065)" fill="#eee" fill-rule="evenodd"/>
    </g>
    <g id="Group_578" data-name="Group 578" transform="translate(5.628 63.522)">
      <path id="Path_1037" data-name="Path 1037" d="M96.426,370.269a11.182,11.182,0,0,1,1.162-4.885H47.007a1.191,1.191,0,0,0-1.188,1.188v7.394a1.191,1.191,0,0,0,1.188,1.188H97.588A11.306,11.306,0,0,1,96.426,370.269Z" transform="translate(-45.819 -365.384)" fill="#f9f7f8" fill-rule="evenodd"/>
    </g>
    <g id="Group_579" data-name="Group 579" transform="translate(5.628 63.522)">
      <path id="Path_1038" data-name="Path 1038" d="M57.056,365.385H47.008a1.191,1.191,0,0,0-1.188,1.188v3.7a1.191,1.191,0,0,1,1.188-1.188H96.494a11.675,11.675,0,0,1,1.1-3.7H57.056Z" transform="translate(-45.82 -365.385)" fill="#dddaec" fill-rule="evenodd"/>
    </g>
    <g id="Group_580" data-name="Group 580" transform="translate(16.858 49.223)">
      <path id="Path_1039" data-name="Path 1039" d="M137.255,267.251c-.045.564.174.746.65.312l3.211-3.062,3.211,3.062c.475.434.7.252.65-.312q.006-9.137.007-18.278h-7.732Q137.251,258.11,137.255,267.251Z" transform="translate(-137.249 -248.973)" fill="#ffd25d" fill-rule="evenodd"/>
    </g>
    <path id="Path_1041" data-name="Path 1041" d="M59.613,72.37H57.994a9.75,9.75,0,0,1,0-7.927h1.62a3.275,3.275,0,0,0,0-6.549H53.1a5.359,5.359,0,0,0,1.333-3.541V44.093a5.389,5.389,0,0,0-5.383-5.383H46.4a3.331,3.331,0,0,0-2.978-4.822h-.911a7.616,7.616,0,0,1,0-5.971h.913a3.332,3.332,0,0,0,0-6.664H12.346A9.643,9.643,0,0,0,5.526,37.722a9.817,9.817,0,0,0,1.157.989H5.969a3.275,3.275,0,0,0,0,6.549h1.62a9.749,9.749,0,0,1,0,7.927H5.969a3.272,3.272,0,0,0-2.692,5.135A5.392,5.392,0,0,0,0,63.277v10.26a5.387,5.387,0,0,0,5.379,5.383H59.613a3.275,3.275,0,0,0,0-6.549Zm0-12.634a1.432,1.432,0,0,1,0,2.864H42.988a.921.921,0,1,0,0,1.842H56.017a11.949,11.949,0,0,0-.663,3.043,10.359,10.359,0,0,0,.665,4.885H6.816a.27.27,0,0,1-.267-.267V64.709a.27.27,0,0,1,.267-.267h9.126v3.025a1.3,1.3,0,0,0,.656,1.4,1.321,1.321,0,0,0,1.537-.371l.014-.013,2.575-2.456L23.3,68.479l.014.013a1.57,1.57,0,0,0,1.056.482,1.1,1.1,0,0,0,.485-.113,1.3,1.3,0,0,0,.651-1.4V64.443H38.452a.921.921,0,1,0,0-1.842H25.507V59.736h34.1ZM10.229,48.3a11.965,11.965,0,0,0-.667-3.043H47.616a.27.27,0,0,1,.267.267V52.92a.27.27,0,0,1-.267.267H25.511V50.144H31.96a.921.921,0,0,0,0-1.842H10.229Zm5.71,4.885H9.56a12.045,12.045,0,0,0,.668-3.043h5.711Zm7.731-3.042-.007,16.137-2.3-2.2a.921.921,0,0,0-1.272,0l-2.3,2.2,0-16.136H23.67ZM4.537,30.9A7.816,7.816,0,0,1,12.346,23.1H43.422a1.49,1.49,0,0,1,0,2.979H26.44a.921.921,0,0,0,0,1.842H40.546a9.372,9.372,0,0,0,0,5.971h-28.2a2.986,2.986,0,1,1,0-5.971H21.9a.921.921,0,1,0,0-1.842H12.346a4.828,4.828,0,0,0,0,9.656H43.422a1.49,1.49,0,0,1,0,2.979H12.346A7.823,7.823,0,0,1,4.537,30.9ZM5.969,43.417a1.432,1.432,0,0,1,0-2.864h43.08a3.544,3.544,0,0,1,3.54,3.541v10.26a3.545,3.545,0,0,1-3.54,3.541H25.509V55.029H47.616a2.111,2.111,0,0,0,2.109-2.109V45.526a2.111,2.111,0,0,0-2.109-2.109H5.969Zm0,11.612H15.94v2.864H5.969a1.432,1.432,0,0,1,0-2.864ZM59.613,77.077H5.379a3.543,3.543,0,0,1-3.537-3.54V63.277a3.543,3.543,0,0,1,3.537-3.541H15.941V62.6H6.816a2.111,2.111,0,0,0-2.109,2.109V72.1a2.111,2.111,0,0,0,2.109,2.109h52.8a1.432,1.432,0,0,1,0,2.864Z"/>
  </g>
</svg>
