<svg xmlns="http://www.w3.org/2000/svg" width="54.572" height="53.5"><path data-name="Path 1536" d="M29.078 45.291H24.64l-3.552 3.552h4.44Z" fill="#f5f6fa"/><path data-name="Path 1537" d="M43.66 38.854a7.014 7.014 0 0 0-8.952.807l-.3.3a2.512 2.512 0 1 0 3.552 3.552l.888-.888 1.776-1.776a6.118 6.118 0 0 1 3.552 4.44 8.311 8.311 0 0 1-.888 6.216 3.768 3.768 0 0 0 5.328 0 12.177 12.177 0 0 0-4.956-12.651Z" fill="#f5f6fa"/><path data-name="Path 1538" d="m29.081 45.291-3.552 3.552v3.552h7.104v-3.552Z" fill="#fff"/><path data-name="Path 1539" d="M21.085 48.844v3.3a3.727 3.727 0 0 0 .888-.639 3.722 3.722 0 0 1-.888.639v.249h4.44v-3.552Z" fill="#f5f6fa"/><path data-name="Path 1540" d="M44.175 45.291a6.118 6.118 0 0 0-3.552-4.44l-1.776 1.776c2.324 2.324 1.787 6.97-.888 8.881a3.768 3.768 0 0 0 5.328 0 8.311 8.311 0 0 0 .888-6.217Z" fill="#ffd25d"/><g data-name="Group 735"><path data-name="Path 1541" d="M27.303 22.265a6.259 6.259 0 0 1-3.976-1.42 20.226 20.226 0 0 0-.864 5.8h4.841Z" fill="#f5f6fa"/><path data-name="Path 1542" d="M17.533 13.914v2.516a1.322 1.322 0 0 1-.081.444h2.746Z" fill="#9c9a9f"/><path data-name="Path 1543" d="M12.205 7.993H8.653l-3.2 3.552h3.2v1.776a1.776 1.776 0 0 0 3.552 0v-.888h2.664v4a1.332 1.332 0 0 0 2.664 0v-2.52Z" fill="#ffd25d"/></g><path data-name="Path 1544" d="M14.869 12.433h-2.664v.888a1.776 1.776 0 0 1-3.552 0v-1.776h-3.2l-4.8 5.328h14.298a1.319 1.319 0 0 1-.081-.444v-4Z" fill="#f5f6fa"/><path data-name="Path 1545" d="M2.436 0h15.985a2.664 2.664 0 0 1-2.664 2.664H5.1A2.664 2.664 0 0 1 2.436 0Z" fill="#f5f6fa"/><path data-name="Path 1546" d="M7.764 1.776 9.54 7.992h1.779l1.776-6.216Z" fill="#f5f6fa"/><path data-name="Path 1547" d="M27.302 31.019a6.259 6.259 0 0 1 3.976 1.42 20.222 20.222 0 0 0 .864-5.8h-4.841Z" fill="#f5f6fa"/><path data-name="Path 1548" d="M23.325 32.439c.131.438.263.877.424 1.307-.162-.431-.293-.869-.424-1.307a20.226 20.226 0 0 1-.864-5.8h-3.152a7.993 7.993 0 0 0 7.993 7.993v-3.615a6.26 6.26 0 0 0-3.977 1.422Z" fill="#f5f6fa"/><path data-name="Path 1549" d="M27.302 31.019v-4.377h-4.841a20.226 20.226 0 0 0 .864 5.8 6.259 6.259 0 0 1 3.977-1.423Z" fill="#f5f6fa"/><path data-name="Path 1550" d="M31.278 32.439a6.259 6.259 0 0 0-3.976-1.42v3.615a7.993 7.993 0 0 0 7.993-7.993h-3.152a20.224 20.224 0 0 1-.865 5.798Z" fill="#f5f6fa"/><path data-name="Path 1551" d="M19.309 26.642h3.155a20.226 20.226 0 0 1 .864-5.8c.131-.438.263-.877.424-1.307-.162.431-.293.869-.424 1.307a6.26 6.26 0 0 0 3.976 1.42 6.259 6.259 0 0 0 3.976-1.42 20.222 20.222 0 0 1 .864 5.8h3.152a7.993 7.993 0 1 0-15.985 0Z" fill="#f5f6fa"/><path data-name="Path 1552" d="M32.143 26.639a20.225 20.225 0 0 0-.864-5.8 6.26 6.26 0 0 1-3.976 1.42v4.38h4.841Z" fill="#f5f6fa"/><path data-name="Path 1553" d="m10.075 52.333-.09.063a6.191 6.191 0 0 0 1.905-.42 3.768 3.768 0 0 1-.573-.468 3.756 3.756 0 0 1-1.242.825Z" fill="#f1e200"/><path data-name="Path 1554" d="m17.091 43.516-3.552 1.776s1.776-1.776.888-3.552-1.776-.888-2.664-1.776 0-3.552 0-3.552-5.328 2.664-6.216 4.44a4.289 4.289 0 0 0 0 3.552l-2.664-.888a5 5 0 0 0 1.776 6.216c3.082 2.311 4.825 2.617 5.233 2.658l.06-.018c-.31-.214-2.629-1.87-2.629-3.528 0-1.776 2.664-4.44 2.664-4.44s2.664 2.664 2.664 4.44c0 1.586-2.119 3.168-2.574 3.489a3.757 3.757 0 0 0 1.242-.825 3.778 3.778 0 0 0 .573.468 9.48 9.48 0 0 0 3.423-2.244 6.957 6.957 0 0 0 1.776-6.216Z" fill="#f5f6fa"/><g data-name="Group 736"><path data-name="Path 1555" d="M9.889 52.389c.062.006.1.007.1.007l-.036-.024c-.024.006-.048.01-.064.017Z" fill="#f1e200"/><path data-name="Path 1556" d="M12.648 48.843c0-1.776-2.664-4.44-2.664-4.44s-2.664 2.664-2.664 4.44c0 1.658 2.319 3.314 2.629 3.528.042-.015.085-.022.126-.038.455-.322 2.573-1.904 2.573-3.49Z" fill="#ffd25d"/><path data-name="Path 1557" d="m9.949 52.371.036.024.09-.063c-.041.018-.084.024-.126.039Z" fill="#f1e200"/></g><g data-name="Group 737"><path data-name="Path 1559" d="M50.392 5.328c-.054 0-.1.011-.158.014a2.638 2.638 0 0 1-2.506 3.539H35.457a2.652 2.652 0 0 0 2.5 1.776H50.39a2.664 2.664 0 0 0 0-5.328Z" fill="#ffd25d"/></g><path data-name="Path 1560" d="M47.728 8.881a2.638 2.638 0 0 0 2.506-3.539 2.436 2.436 0 0 0-.739.146.965.965 0 0 0 .009-.16 4.387 4.387 0 0 0-.2-1.253 2.644 2.644 0 0 0-1.575-.523 2.475 2.475 0 0 0-.9.16.968.968 0 0 0 .009-.16A4.409 4.409 0 0 0 46.02.998a4.419 4.419 0 0 0-5.4 4.33 4.535 4.535 0 0 0 .364 1.776h-.524a2.656 2.656 0 1 0-5.006 1.776h12.271Z" fill="#f5f6fa"/><path data-name="Path 1561" d="M27.302 35.522a8.881 8.881 0 1 0-8.881-8.881 8.891 8.891 0 0 0 8.881 8.881Zm-7.043-7.993h1.354a21.091 21.091 0 0 0 .557 4.011 7.077 7.077 0 0 1-1.911-4.007Zm4.109 5.246a5.323 5.323 0 0 1 2.046-.791v1.7a7.049 7.049 0 0 1-1.92-.519c-.046-.132-.083-.259-.126-.389Zm3.822-.791a5.325 5.325 0 0 1 2.046.791c-.043.129-.08.26-.126.389a7.048 7.048 0 0 1-1.92.519Zm2.546-.978a7.089 7.089 0 0 0-2.546-.815v-2.658h3.025a19.32 19.32 0 0 1-.48 3.474Zm-2.546-5.253v-2.662a7.09 7.09 0 0 0 2.546-.815 19.31 19.31 0 0 1 .479 3.477H28.19Zm2.046-5.246a5.324 5.324 0 0 1-2.046.791v-1.7a7.049 7.049 0 0 1 1.92.519c.046.13.082.261.126.39Zm-3.822.791a5.326 5.326 0 0 1-2.046-.791c.043-.129.08-.26.126-.389a7.044 7.044 0 0 1 1.92-.519Zm-2.546.978a7.09 7.09 0 0 0 2.546.815v2.662h-3.025a19.321 19.321 0 0 1 .479-3.476Zm2.546 5.253v2.662a7.09 7.09 0 0 0-2.546.815 19.314 19.314 0 0 1-.479-3.477h3.025Zm6.02 4.011a21.1 21.1 0 0 0 .557-4.011h1.354a7.076 7.076 0 0 1-1.911 4.012Zm1.911-5.787h-1.354a21.1 21.1 0 0 0-.557-4.011 7.078 7.078 0 0 1 1.911 4.012ZM22.17 21.742a21.1 21.1 0 0 0-.557 4.011h-1.354a7.077 7.077 0 0 1 1.911-4.011Z"/><path data-name="Path 1562" d="M14.869 25.753a.887.887 0 0 0-.816.539l-1.773 4.136-3.679-10.3a.89.89 0 0 0-.809-.59.9.9 0 0 0-.843.539l-2.434 5.676H.66v1.776H5.1a.887.887 0 0 0 .816-.539l1.773-4.136 3.679 10.3a.89.89 0 0 0 .809.59h.027a.887.887 0 0 0 .816-.539l2.434-5.678h3.855v-1.776Z"/><path data-name="Path 1563" d="M40.623 27.53a.889.889 0 0 0 .832-.576l1.783-4.756 3.647 10.941a.889.889 0 0 0 .806.606h.037a.887.887 0 0 0 .816-.539l2.434-5.678h2.967v-1.776h-3.552a.887.887 0 0 0-.816.539l-1.744 4.069-3.7-11.105a.888.888 0 0 0-1.674-.031l-2.448 6.529h-4.713v1.776h5.328Z"/><path data-name="Path 1564" d="M37.961 11.545h6.217l-1.6 2.132a.888.888 0 0 0 .71 1.421h1.773l-1.6 2.131 1.421 1.065 2.664-3.552a.888.888 0 0 0-.71-1.421h-1.775l1.332-1.776h4a3.552 3.552 0 0 0 0-7.1h-.074a5.329 5.329 0 0 0-10.568.482 3.553 3.553 0 1 0-1.791 6.621Zm0-5.328a1.752 1.752 0 0 1 1.664 1.175.887.887 0 0 0 .84.6h.524a.889.889 0 0 0 .817-1.237 3.614 3.614 0 0 1-.293-1.427 3.554 3.554 0 1 1 7.108.016.889.889 0 0 0 1.2.972 1.588 1.588 0 0 1 .575-.1 1.776 1.776 0 0 1 0 3.552H37.961a1.776 1.776 0 0 1 0-3.552Z"/><path data-name="Path 1565" d="m0 16.279 1.32 1.193 4.531-5.034h1.914v.888a2.664 2.664 0 1 0 5.328 0h.888v3.108a2.22 2.22 0 1 0 4.44 0v-.2l1.116 1.24 1.32-1.188-7.993-8.881a.871.871 0 0 0-.387-.236L13.7 2.885A3.541 3.541 0 0 0 19.31 0h-1.777a1.776 1.776 0 1 1-3.552 0H12.2a1.776 1.776 0 1 1-3.552 0H6.877a1.776 1.776 0 0 1-3.552 0H1.548a3.541 3.541 0 0 0 5.61 2.885L8.38 7.162a.871.871 0 0 0-.387.236Zm16.645.15a.444.444 0 1 1-.888 0v-3.157l.888.987Zm-2.438-4.884h-2a.888.888 0 0 0-.888.888v.888a.888.888 0 1 1-1.776 0v-1.776a.888.888 0 0 0-.888-.888h-1.2l1.6-1.776h2.761Zm-3.778-7.993a3.523 3.523 0 0 0 1.307-.256l-1.088 3.809h-.438L9.122 3.296a3.525 3.525 0 0 0 1.307.256Z"/><path data-name="Rectangle 273" d="m41.417 12.83-.888 1.776-1.589-.794.888-1.776z"/><path data-name="Rectangle 274" d="m39.641 16.382-.888 1.776-1.589-.794.888-1.776z"/><path data-name="Rectangle 275" d="m37.865 19.935-.888 1.776-1.589-.794.888-1.776z"/><path data-name="Rectangle 276" d="m52.072 12.83-.888 1.776-1.589-.794.888-1.776z"/><path data-name="Rectangle 277" d="m50.298 16.379-.888 1.776-1.589-.794.888-1.776z"/><path data-name="Rectangle 278" d="m48.522 19.939-.888 1.776-1.589-.794.888-1.776z"/><path data-name="Path 1566" d="M53.316 50.882a2.954 2.954 0 0 1-3.733.273 13.006 13.006 0 0 0-5.417-13.029 7.9 7.9 0 0 0-10.086.91l-.3.3a3.4 3.4 0 0 0 0 4.808 3.483 3.483 0 0 0 4.808 0l.183-.183a5.053 5.053 0 0 1 .638 3.035 5.168 5.168 0 0 1-1.966 3.786l.011.015a.784.784 0 0 0-.123.079 2.949 2.949 0 0 1-3.812.21V48.84a.887.887 0 0 0-.26-.628l-3.552-3.552a.885.885 0 0 0-.628-.26h-4.436a.888.888 0 0 0-.628.26l-3.552 3.552a.887.887 0 0 0-.26.628v2.707a2.938 2.938 0 0 1-2.924-.67.914.914 0 0 0-1.256 0 2.816 2.816 0 0 1-1.627.778 11.276 11.276 0 0 0 1.551-1.3 7.811 7.811 0 0 0 2.01-7.059.889.889 0 0 0-1.259-.579l-1.166.583a3.222 3.222 0 0 0-.307-1.962 2.794 2.794 0 0 0-2.219-1.753.994.994 0 0 1-.612-.254c-.25-.251-.144-1.56.215-2.644a.888.888 0 0 0-1.24-1.074c-.934.467-5.642 2.895-6.614 4.837a4.752 4.752 0 0 0-.464 2.594l-1.125-.375a.887.887 0 0 0-1.075.445 5.869 5.869 0 0 0 2.032 7.328c.33.248.642.467.945.673a2.951 2.951 0 0 1-3.78-.236L.032 52.135a4.656 4.656 0 0 0 5.956.527 4.766 4.766 0 0 0 4.02.62 6.71 6.71 0 0 0 1.79-.339 4.769 4.769 0 0 0 4.846-.282 4.552 4.552 0 0 0 4.174.567.866.866 0 0 0 .266.054H32.63a.883.883 0 0 0 .634-.269 4.588 4.588 0 0 0 4.694-.352 4.759 4.759 0 0 0 5.328 0 4.759 4.759 0 0 0 5.328 0 4.656 4.656 0 0 0 5.956-.527Zm-43.332.411c-.775-.624-1.775-1.652-1.775-2.447 0-.775.9-2.114 1.776-3.131.873 1.016 1.776 2.355 1.776 3.131 0 .788-1.003 1.818-1.777 2.445Zm-6.549-6.654 1.829.609a.888.888 0 0 0 1.079-1.242 3.416 3.416 0 0 1 0-2.758c.395-.789 2.329-2.1 4.157-3.149a3.106 3.106 0 0 0 .637 2.492 2.679 2.679 0 0 0 1.519.741c.439.088.64.127.978.8.587 1.174-.711 2.517-.722 2.527a.888.888 0 0 0 1.025 1.422l2.414-1.207a5.793 5.793 0 0 1-1.663 4.225 9.433 9.433 0 0 1-1.565 1.268 3.3 3.3 0 0 0 .417-1.529c0-2.084-2.625-4.769-2.924-5.068a.888.888 0 0 0-1.256 0c-.3.3-2.924 2.984-2.924 5.068a3.105 3.105 0 0 0 .271 1.222c-.458-.288-.961-.63-1.514-1.044a4.106 4.106 0 0 1-1.758-4.38Zm21.57 1.543h1.929l-1.776 1.776h-1.929Zm-3.032 5.328v-1.776h2.664v1.776Zm9.769 0h-1.776v-2.664H28.19v2.664h-1.776v-2.3l2.664-2.664 2.665 2.665Zm7.635-.093a7.256 7.256 0 0 0 1.8-4.272 6.691 6.691 0 0 0-1.134-4.463l.765-.765a5.548 5.548 0 0 1 2.5 3.585 7.54 7.54 0 0 1-.713 5.421 2.954 2.954 0 0 1-3.217.491Zm5.046-.144a9.264 9.264 0 0 0 .614-6.194 6.981 6.981 0 0 0-4.133-5.067.884.884 0 0 0-.909.214l-1.776 1.776-.888.888a1.626 1.626 0 0 1-2.3-2.3l.3-.3a6.123 6.123 0 0 1 7.819-.705 11.24 11.24 0 0 1 4.646 11.446 2.965 2.965 0 0 1-3.373.239Z"/></svg>