<svg xmlns="http://www.w3.org/2000/svg" width="47.991" height="56"><g data-name="Group 739"><path data-name="Path 1584" d="m25.588 1.836-.717.182-1.9 2.979v3.319l1.922 3.622h.693a7.263 7.263 0 0 0 0-10.1Z" fill="#ffd25d"/><path data-name="Path 1585" d="M23.544 6.887a7.243 7.243 0 0 1 2.044-5.051 7.318 7.318 0 0 0-.893-.786 1.177 1.177 0 0 0-1.4 0 7.27 7.27 0 0 0 0 11.675 1.177 1.177 0 0 0 1.4 0 7.308 7.308 0 0 0 .893-.786 7.243 7.243 0 0 1-2.044-5.052Z" fill="#ffd25d"/><path data-name="Path 1586" d="M20.818 18.852a8.59 8.59 0 0 0-6.939-7.568h-1.26l-1.709 1.125.975 4.364 3.224 3.359 2.564.637.584.015a8.643 8.643 0 0 0 1.715-.511 1.389 1.389 0 0 0 .846-1.421Z" fill="#f5f6fa"/><path data-name="Path 1587" d="M39.013 11.795a8.643 8.643 0 0 0-1.715-.511l-.9.038-2.878 1.119-3.458 4.251v3.319l1.739.772h1.123a8.59 8.59 0 0 0 6.939-7.568 1.39 1.39 0 0 0-.85-1.42Z" fill="#f5f6fa"/><path data-name="Path 1588" d="M15.462 19.723a8.572 8.572 0 0 1-4.145-6.507 1.39 1.39 0 0 1 .847-1.421 8.643 8.643 0 0 1 1.715-.511 8.611 8.611 0 0 0-4.9.511 1.389 1.389 0 0 0-.847 1.421 8.581 8.581 0 0 0 10.126 7.568 8.558 8.558 0 0 1-2.796-1.061Z" fill="#f5f6fa"/><path data-name="Path 1589" d="M31.202 20.272a1.39 1.39 0 0 1-.847-1.421 8.59 8.59 0 0 1 6.939-7.568 8.581 8.581 0 0 0-10.126 7.568 1.39 1.39 0 0 0 .847 1.421 8.61 8.61 0 0 0 4.9.511 8.645 8.645 0 0 1-1.713-.511Z" fill="#f5f6fa"/><path data-name="Path 1590" d="M47.152 31.104a1.272 1.272 0 0 0-1.271-1.222h-3.002l-.664.544h-14.8l-1.432-.544H10.138l-.668.8v7.948l3.61 8.167 4.129 4.156 4.822 2.912 3.746.95 1.584.12a23.179 23.179 0 0 0 19.81-22.931q-.001-.452-.019-.9Z" fill="#f5f6fa"/><path data-name="Path 1591" d="M9.67 34.287a20.967 20.967 0 0 1 .467-4.406H6.809l-.621.544 8.076 21.347.64 1.555a23.1 23.1 0 0 0 9.09 1.852 23.367 23.367 0 0 0 3.365-.244A20.9 20.9 0 0 1 9.67 34.287Z" fill="#f5f6fa"/><path data-name="Path 1592" d="m9.47 38.63 3.61 8.167.98.986c-.462-1.886.466-3.385 2.459-7.469 2.549-5.223-2.673-3.544-4.228-6.838a4.88 4.88 0 0 0-2.821-2.335Z" fill="#f5f6fa"/><path data-name="Path 1593" d="M13.945 46.95A20.8 20.8 0 0 1 9.67 34.287a21.061 21.061 0 0 1 .211-2.967 17.065 17.065 0 0 1-3.071-1.433h-4.7a1.272 1.272 0 0 0-1.271 1.222q-.018.448-.018.9a23.18 23.18 0 0 0 14.085 21.323 3.75 3.75 0 0 0-.127-3.812 5.685 5.685 0 0 1-.834-2.57Z" fill="#ffd25d"/><path data-name="Path 1594" d="M31.371 29.882v.544l6.519 1.905v2.926l-1.231 2.953v3.965l.793 1.449.591.2c2.106-2.658 4.451-7.163 4.6-9.856a37.21 37.21 0 0 1 .234-4.091Z" fill="#f5f6fa"/><path data-name="Path 1595" d="M37.197 39.668c-.28-2.658 1.865-3.637 1.492-6.575s-1.958-1.492-6.108-2.729a6.89 6.89 0 0 1-1.209-.482h-5.4a5.181 5.181 0 0 0 3.05 2.123c4.15 1.237 5.735-.208 6.108 2.729s-1.772 3.917-1.492 6.575.513 5.969 2.8 4.2a10.143 10.143 0 0 0 1.6-1.677 11.892 11.892 0 0 1-.847-4.161Z" fill="#ffd25d"/></g><g data-name="Group 740"><path data-name="Path 1596" d="M45.881 29.061H24.816v-7.112l2.277-1.3c.9.8 4.218 1.709 7.419.55a.82.82 0 1 0-.558-1.543 7.736 7.736 0 0 1-5.178.029l7.033-4.027a.82.82 0 0 0-.815-1.424l-6.89 3.945a7.758 7.758 0 0 1 10.595-5.623.569.569 0 0 1 .345.579 7.8 7.8 0 0 1-2.175 4.648.82.82 0 0 0 1.172 1.148 9.446 9.446 0 0 0 2.635-5.631 2.22 2.22 0 0 0-1.348-2.262 9.413 9.413 0 0 0-12.972 7.73 2.16 2.16 0 0 0 0 .409l-1.539.881V13.6a1.954 1.954 0 0 0 .37-.215A8.1 8.1 0 0 0 25.19.39a2.007 2.007 0 0 0-2.38 0 8.1 8.1 0 0 0 0 12.991 1.953 1.953 0 0 0 .37.215v6.462l-1.539-.881a2.168 2.168 0 0 0 0-.409 9.414 9.414 0 0 0-12.972-7.731A2.22 2.22 0 0 0 7.315 13.3a9.414 9.414 0 0 0 12.975 7.73 2.175 2.175 0 0 0 .611-.385l2.277 1.3v7.113H2.109a2.086 2.086 0 0 0-2.091 2.011 23.995 23.995 0 1 0 47.954 0 2.087 2.087 0 0 0-2.091-2.01Zm-33.7-13.407 7.035 4.028a7.76 7.76 0 0 1-10.27-6.551.569.569 0 0 1 .345-.579 7.758 7.758 0 0 1 10.599 5.623L13 14.23a.82.82 0 1 0-.815 1.424Zm11.6-13.947a.355.355 0 0 1 .421 0 6.446 6.446 0 0 1 .61 9.844V6.132a.82.82 0 0 0-1.641 0v5.419a6.446 6.446 0 0 1 .614-9.844Zm-9.303 50.522a22.38 22.38 0 0 1-12.82-21.093.451.451 0 0 1 .452-.434h4.441a10.61 10.61 0 0 0 1.976.943c1.261.5 2.451.97 3.023 2.182a5.757 5.757 0 0 0 3.205 2.681c.756.345 1.408.643 1.575 1.109a3.542 3.542 0 0 1-.549 2.337 241 241 0 0 1-.663 1.347c-2.043 4.132-2.731 5.525-1.062 8.605a3.3 3.3 0 0 1 .421 2.323Zm9.517 2.13a22.239 22.239 0 0 1-8-1.48 4.845 4.845 0 0 0-.5-3.754c-1.264-2.334-.9-3.061 1.09-7.1a245 245 0 0 0 .666-1.354c.752-1.542.949-2.689.618-3.611a3.955 3.955 0 0 0-2.439-2.048 4.26 4.26 0 0 1-2.4-1.889 5.11 5.11 0 0 0-2.54-2.423h15.061a6.176 6.176 0 0 0 3.239 2.091 17.327 17.327 0 0 0 3.66.649 3.967 3.967 0 0 1 1.449.269c.083.054.3.2.42 1.129a4.878 4.878 0 0 1-.683 3.029 6.1 6.1 0 0 0-.812 3.528c.249 2.392.426 4.694 1.841 5.3a2.264 2.264 0 0 0 2.275-.54 18.254 18.254 0 0 0 3.792-4.855.82.82 0 1 0-1.417-.826 16.96 16.96 0 0 1-3.377 4.379c-.441.342-.626.327-.625.328-.535-.242-.808-3.512-.854-3.962a4.56 4.56 0 0 1 .658-2.644 6.446 6.446 0 0 0 .833-3.949c-.325-2.555-1.727-2.68-3.351-2.825a15.664 15.664 0 0 1-3.337-.587 5.863 5.863 0 0 1-1.235-.516h13.921c-.055.639-.069 1.286-.083 1.919-.01.453-.019.882-.042 1.307a10.818 10.818 0 0 1-.859 3.225.82.82 0 0 0 1.521.614 12.226 12.226 0 0 0 .976-3.75c.061-1.117.031-2.249.135-3.315h2.285a.451.451 0 0 1 .452.434 22.379 22.379 0 0 1-22.338 23.227Z"/></g></svg>