<svg xmlns="http://www.w3.org/2000/svg" width="55.815" height="53.955"><g transform="translate(-15.999 -23.999)"><path data-name="Path 1614" d="M62.512 39.814a14.873 14.873 0 1 1-1.062-5.529 14.873 14.873 0 0 1 1.062 5.529Z" fill="#f5f6fa"/><path data-name="Path 1615" d="M37.395 62.14h33.489v14.884H37.395Z" fill="#f5f6fa"/><path data-name="Path 1616" d="M50.419 62.14h9.3v14.884h-9.3Z" fill="#ffd25d"/><path data-name="Path 1617" d="M54.14 62.139a6.512 6.512 0 0 0 6.512-6.512v-1.86h8.372v1.861a6.512 6.512 0 0 1-6.512 6.512Z" fill="#f5f6fa"/><rect data-name="Rectangle 279" width="25" height="35" rx="12.5" transform="translate(16.481 41.999)" fill="#f5f6fa"/><path data-name="Path 1618" d="M31.814 61.21h5.582v11.163h-5.582Z" fill="#ffd25d"/><path data-name="Path 1619" d="M20.651 55.628v16.745h11.163V61.21h5.582v-5.582Z" fill="#f5f6fa"/><path data-name="Path 1620" d="M37.396 46.325H20.651v3.721l2.934.978a17.2 17.2 0 0 0 10.877 0l2.934-.978Z" fill="#ffd25d"/><path data-name="Path 1621" d="M62.512 39.813a14.822 14.822 0 0 1-1.569 6.657l-13.315-6.657 13.822-5.529a14.835 14.835 0 0 1 1.062 5.529Z" fill="#ffd25d"/><path data-name="Path 1622" d="m61.45 34.285-13.822 5.529V24.93a14.887 14.887 0 0 1 13.823 9.356Z" fill="#fff"/><path data-name="Path 1623" d="M37.395 54.698H20.65a.93.93 0 0 0-.93.93v16.745a.93.93 0 0 0 .93.93h16.745a.93.93 0 0 0 .93-.93V55.628a.93.93 0 0 0-.93-.93Zm-.93 5.582h-3.721v-3.721h3.721Zm-14.884 1.861h3.721v3.721h-3.721Zm5.582 0h3.721v3.721h-3.722Zm3.721-1.861h-3.722v-3.721h3.721Zm-9.3-3.721h3.721v3.721h-3.724Zm0 11.163h3.721v3.721h-3.724Zm5.582 0h3.721v3.721h-3.725Zm9.3 3.721h-3.722v-9.3h3.721Z"/><path data-name="Path 1624" d="M37.395 45.395H20.65a.93.93 0 0 0-.93.93v3.721a.93.93 0 0 0 .636.883l2.934.978a18.128 18.128 0 0 0 11.465 0l2.934-.978a.93.93 0 0 0 .636-.883v-3.721a.93.93 0 0 0-.93-.93Zm-.93 3.981-2.3.766a16.266 16.266 0 0 1-10.288 0l-2.3-.766v-2.12h14.888Z"/><path data-name="Path 1625" d="M70.884 61.209h-3.457a7.425 7.425 0 0 0 2.527-5.582v-1.86a.93.93 0 0 0-.93-.93h-8.372a.93.93 0 0 0-.93.93v1.861a5.588 5.588 0 0 1-5.582 5.582H42.046v-6.6a15.682 15.682 0 0 0 5.582 1.014A15.842 15.842 0 0 0 63.01 43.488l1.635 1.635a.931.931 0 0 0 .658.272h2.791v-1.86h-2.406l-2.31-2.31c.041-.465.064-.936.064-1.411a15.761 15.761 0 0 0-4.508-11.044l2.182-2.909h5.116V24h-5.58a.93.93 0 0 0-.744.372l-2.355 3.14a15.792 15.792 0 0 0-22.936 3.326l-2.058-2.744a.93.93 0 0 0-.744-.372h-5.583v1.861h5.116l2.232 2.976a15.717 15.717 0 0 0-1.766 7.257c0 .31.01.62.028.93H20.651A4.657 4.657 0 0 0 16 45.4v27.9a4.657 4.657 0 0 0 4.651 4.651h50.233a.93.93 0 0 0 .93-.93V62.14a.93.93 0 0 0-.93-.93Zm-.93 1.861v1.861h-9.3V63.07Zm-9.3 7.442h9.3v1.861h-9.3Zm0-1.861v-1.86h9.3v1.861Zm.93-13.024V54.7h6.512v.93a5.588 5.588 0 0 1-5.582 5.582h-3.46a7.425 7.425 0 0 0 2.528-5.584Zm-2.793 7.443v13.024h-7.442V63.07Zm-16.745 3.721h7.442v1.861h-7.442Zm0 3.721h7.442v1.861h-7.442Zm-.094 3.721h7.536v1.861h-8.374a4.632 4.632 0 0 0 .839-1.861Zm7.536-11.163v1.861h-7.442V63.07ZM60.5 45.208l-10.6-5.3 11-4.4a13.953 13.953 0 0 1-.4 9.7ZM48.558 25.892a13.979 13.979 0 0 1 11.65 7.888l-11.65 4.66ZM33.674 39.814A13.971 13.971 0 0 1 46.7 25.892v13.922a.93.93 0 0 0 .514.832l12.447 6.224a13.961 13.961 0 0 1-12.033 6.9 13.818 13.818 0 0 1-5.582-1.162V45.4a4.657 4.657 0 0 0-4.646-4.656h-3.69c-.02-.31-.031-.62-.031-.93Zm-13.023 36.28A2.794 2.794 0 0 1 17.86 73.3V45.4a2.794 2.794 0 0 1 2.791-2.8H37.4a2.794 2.794 0 0 1 2.786 2.8v27.9a2.794 2.794 0 0 1-2.786 2.794Zm40 0v-1.861h9.3v1.861Z"/><path data-name="Path 1626" d="M68.094 23.999h1.861v1.861h-1.861Z"/><path data-name="Path 1627" d="M22.511 27.72h1.861v1.861h-1.861Z"/><path data-name="Path 1628" d="M69.954 43.535h1.861v1.861h-1.861Z"/></g></svg>