<svg xmlns="http://www.w3.org/2000/svg" width="54.608" height="57" viewBox="0 0 54.608 57">
  <g id="flask" transform="translate(-10.741)">
    <g id="Group_623" data-name="Group 623" transform="translate(15.699 4.717)">
      <path id="Path_1070" data-name="Path 1070" d="M55.278,76.36c3.531-2.127,12.651-1.171,17.871,3.039,5.033-2.651,10.048-4.292,15.027-4.175L80.309,64.86a14.07,14.07,0,0,1-2.461-7.5l-.035-15H66.506l-.035,15a14.1,14.1,0,0,1-2.458,7.5Z" transform="translate(-55.278 -42.366)" fill="#f9f7f8" fill-rule="evenodd"/>
    </g>
    <g id="Group_624" data-name="Group 624" transform="translate(12.055 36.201)">
      <path id="Path_1071" data-name="Path 1071" d="M22.539,334.3c11.506,1.578,17.318-2.714,21.515-6.738-5.22-4.21-14.339-2.01-17.871.117l-1.42,1.868A13.653,13.653,0,0,0,22.539,334.3Z" transform="translate(-22.539 -325.172)" fill="#ffd25d" fill-rule="evenodd"/>
    </g>
    <g id="Group_625" data-name="Group 625" transform="translate(11.587 35.728)">
      <path id="Path_1072" data-name="Path 1072" d="M25.012,341.366H53.65a6.2,6.2,0,0,0,5.163-2.228c2.433-3.856.713-10.648-1.082-13.226l-2.383-3.137c-5.8-3.336-9.994-1.632-15.027,1.019-5.289,2.787-11.509,6.618-21.515,6.738C17.492,335.575,18.755,341.366,25.012,341.366Z" transform="translate(-18.337 -320.929)" fill="#ffd25d" fill-rule="evenodd"/>
    </g>
    <g id="Group_626" data-name="Group 626" transform="translate(50.98 8.75)">
      <path id="Path_1073" data-name="Path 1073" d="M377.678,99.544a5.346,5.346,0,0,0,5.494,0V78.593H372.184V99.544A5.346,5.346,0,0,1,377.678,99.544Z" transform="translate(-372.184 -78.593)" fill="#f9f7f8" fill-rule="evenodd"/>
    </g>
    <g id="Group_627" data-name="Group 627" transform="translate(48.433 4.868)">
      <path id="Path_1074" data-name="Path 1074" d="M351.856,48.723h11.215a2.5,2.5,0,0,0,0-5H351.628a2.5,2.5,0,0,0,0,5Z" transform="translate(-349.309 -43.727)" fill="#f5f6fa" fill-rule="evenodd"/>
    </g>
    <g id="Group_628" data-name="Group 628" transform="translate(23.92 0.835)">
      <path id="Path_1075" data-name="Path 1075" d="M132.126,12.5h11.815a2.5,2.5,0,1,0,0-5H131.618a2.5,2.5,0,1,0,0,5Z" transform="translate(-129.119 -7.501)" fill="#f5f6fa" fill-rule="evenodd"/>
    </g>
    <g id="Group_629" data-name="Group 629" transform="translate(30.376 26.608)">
      <path id="Path_1076" data-name="Path 1076" d="M187.114,241.209a2.2,2.2,0,1,0,2.2-2.2A2.205,2.205,0,0,0,187.114,241.209Z" transform="translate(-187.114 -239.006)" fill="#fff" fill-rule="evenodd"/>
    </g>
    <g id="Group_630" data-name="Group 630" transform="translate(37.862 44.612)">
      <path id="Path_1077" data-name="Path 1077" d="M254.35,404.1a3.381,3.381,0,1,0,3.38-3.38A3.382,3.382,0,0,0,254.35,404.1Z" transform="translate(-254.35 -400.723)" fill="#fff" fill-rule="evenodd"/>
    </g>
    <g id="Group_631" data-name="Group 631" transform="translate(20.127 47.831)">
      <path id="Path_1078" data-name="Path 1078" d="M97.105,433.748a2.056,2.056,0,1,0-2.057-2.058,2.058,2.058,0,0,0,2.057,2.058Z" transform="translate(-95.048 -429.636)" fill="#fff" fill-rule="evenodd"/>
    </g>
    <g id="Group_632" data-name="Group 632" transform="translate(34.744 5.831)">
      <path id="Path_1079" data-name="Path 1079" d="M229.87,66.255l-.035-13.882h-3.49l.035,13.882a14.07,14.07,0,0,0,2.461,7.5l6.542,8.618a13.3,13.3,0,0,1,4.816,1.745l-7.867-10.364A14.069,14.069,0,0,1,229.87,66.255Z" transform="translate(-226.345 -52.373)" fill="#f5f6fa" fill-rule="evenodd"/>
    </g>
    <g id="Group_634" data-name="Group 634" transform="translate(35.252 0.835)">
      <path id="Path_1081" data-name="Path 1081" d="M236.9,10a2.506,2.506,0,0,0-2.5-2.5h-3.481a2.5,2.5,0,0,1-.009,5h3.49A2.5,2.5,0,0,0,236.9,10Z" transform="translate(-230.909 -7.5)" fill="#eee" fill-rule="evenodd"/>
    </g>
    <g id="Group_635" data-name="Group 635" transform="translate(59.147 9.864)">
      <path id="Path_1082" data-name="Path 1082" d="M448.364,107.322V88.6h-2.821V108.08A5.065,5.065,0,0,0,448.364,107.322Z" transform="translate(-445.543 -88.599)" fill="#f5f6fa" fill-rule="evenodd"/>
    </g>
    <g id="Group_637" data-name="Group 637" transform="translate(50.98 27.827)">
      <path id="Path_1084" data-name="Path 1084" d="M372.184,262.84v9.96a5.509,5.509,0,0,0,5.377,5.494h.234a5.514,5.514,0,0,0,5.377-5.494V250.715a5.346,5.346,0,0,1-5.494,0,5.346,5.346,0,0,0-5.494,0V262.84Z" transform="translate(-372.184 -249.956)" fill="#ffd25d" fill-rule="evenodd"/>
    </g>
    <g id="Group_638" data-name="Group 638" transform="translate(54.505 34.636)">
      <path id="Path_1085" data-name="Path 1085" d="M405.815,315.055a1.968,1.968,0,1,0-1.969-1.966A1.966,1.966,0,0,0,405.815,315.055Z" transform="translate(-403.846 -311.12)" fill="#fff" fill-rule="evenodd"/>
    </g>
    <g id="Group_640" data-name="Group 640" transform="translate(10.741 0)">
      <path id="Path_1087" data-name="Path 1087" d="M161.644,405.2l-.009.009a.835.835,0,1,0,1.177,1.184l.009-.009a.835.835,0,1,0-1.177-1.184Z" transform="translate(-144.617 -359.876)"/>
      <path id="Path_1088" data-name="Path 1088" d="M222.868,381.194l-.009.009a.835.835,0,1,0,1.181,1.181l.009-.009a.835.835,0,1,0-1.181-1.181Z" transform="translate(-199.027 -338.539)"/>
      <path id="Path_1089" data-name="Path 1089" d="M185.692,234.544a3.039,3.039,0,1,0-3.038,3.041A3.041,3.041,0,0,0,185.692,234.544Zm-4.408,0a1.369,1.369,0,1,1,1.371,1.371A1.371,1.371,0,0,1,181.284,234.544Z" transform="translate(-160.814 -205.733)"/>
      <path id="Path_1090" data-name="Path 1090" d="M251.066,393.223a4.216,4.216,0,1,0,4.218,4.215A4.219,4.219,0,0,0,251.066,393.223Zm0,6.763a2.546,2.546,0,1,1,2.548-2.548A2.549,2.549,0,0,1,251.066,399.986Z" transform="translate(-220.565 -349.446)"/>
      <path id="Path_1091" data-name="Path 1091" d="M90.44,422.137a2.891,2.891,0,1,0,2.892,2.889A2.894,2.894,0,0,0,90.44,422.137Zm0,4.112a1.221,1.221,0,1,1,1.222-1.223A1.224,1.224,0,0,1,90.44,426.249Z" transform="translate(-78.997 -375.141)"/>
      <path id="Path_1092" data-name="Path 1092" d="M402.694,385.248l-.009.009a.835.835,0,1,0,1.181,1.181l.009-.009a.835.835,0,0,0-1.181-1.181Z" transform="translate(-358.833 -342.142)"/>
      <path id="Path_1093" data-name="Path 1093" d="M418.684,442.534l-.009.009a.835.835,0,1,0,1.177,1.184l.009-.009a.835.835,0,0,0-1.177-1.184Z" transform="translate(-373.041 -393.052)"/>
      <path id="Path_1094" data-name="Path 1094" d="M399.15,309.225a2.8,2.8,0,1,0-2.8-2.8A2.8,2.8,0,0,0,399.15,309.225Zm0-3.935a1.133,1.133,0,1,1-1.134,1.134A1.134,1.134,0,0,1,399.15,305.29Z" transform="translate(-353.417 -269.819)"/>
      <path id="Path_1095" data-name="Path 1095" d="M62.2,4.033H50.753A3.252,3.252,0,0,0,47.6,7.367a3.3,3.3,0,0,0,2.547,3.268V38.227l-8.75-11.522A13.3,13.3,0,0,1,39.1,19.711L39.071,6.649A3.333,3.333,0,0,0,38.742,0H26.419a3.333,3.333,0,0,0-.329,6.649V19.711a13.337,13.337,0,0,1-2.321,7l-2.79,3.673a.835.835,0,1,0,1.33,1.01l2.79-3.674a15.1,15.1,0,0,0,2.622-7.692h2.835a.835.835,0,0,0,0-1.67H27.731l.007-2.783h2.818a.835.835,0,0,0,0-1.67H27.742l.007-2.783h2.807a.835.835,0,1,0,0-1.67h-2.8l.007-2.783H37.4V19.714a14.991,14.991,0,0,0,2.664,8l5.891,7.757a11.65,11.65,0,0,0-5.981-.341,23.971,23.971,0,0,0-6.323,2.477c-4.387-3.152-10.915-2.465-15.276-1l1.632-2.125a.835.835,0,0,0-1.324-1.017l-5.068,6.6a14.863,14.863,0,0,0-2.671,6.385,11.27,11.27,0,0,0,.72,6.765c.851,1.724,2.685,3.78,6.6,3.78H46.9a7.354,7.354,0,0,0,5.142-1.817A6.325,6.325,0,0,0,62.8,50.671V22.733a.835.835,0,0,0-1.67,0V28.1a4.569,4.569,0,0,1-4.2-.208,6.22,6.22,0,0,0-5.123-.613V24.06h2.794a.835.835,0,0,0,0-1.67H51.815V19.6h2.794a.835.835,0,0,0,0-1.67H51.815V15.151h2.794a.835.835,0,1,0,0-1.67H51.815V10.7h9.318V18.88a.835.835,0,1,0,1.67,0V10.636A3.3,3.3,0,0,0,65.35,7.367,3.252,3.252,0,0,0,62.2,4.033ZM26.419,5a1.663,1.663,0,1,1,0-3.326H38.742a1.663,1.663,0,1,1,0,3.326ZM14.942,41.087l1.348-1.755c3.352-1.929,10.879-3.585,15.672-.827l-.188.1c-4.841,2.593-10.3,5.516-18.586,5.859a12.1,12.1,0,0,1,1.753-3.377ZM46.9,55.33H18.262c-2.451,0-4.166-.958-5.1-2.848a9.966,9.966,0,0,1-.446-6.33c8.977-.254,14.992-3.474,19.846-6.074,5.579-2.988,9.622-5.153,15.48-1.857l2.1,2.768v9.682a6.29,6.29,0,0,0,.867,3.192A5.611,5.611,0,0,1,46.9,55.33Zm9.11-26.049a5.834,5.834,0,0,0,3.21.9,6.376,6.376,0,0,0,1.913-.288V50.671a4.659,4.659,0,1,1-9.318,0v-21.6a4.575,4.575,0,0,1,4.195.208ZM62.2,9.029H50.753a1.582,1.582,0,0,1-1.484-1.661A1.584,1.584,0,0,1,50.753,5.7H62.2A1.584,1.584,0,0,1,63.68,7.367,1.582,1.582,0,0,1,62.2,9.029Z" transform="translate(-10.741 0)"/>
    </g>
  </g>
</svg>
