<svg xmlns="http://www.w3.org/2000/svg" width="42.233" height="54"><path data-name="Path 1606" d="m41.518 32.652-3.71-9.712s-.009-3.659-.03-4.012A19.333 19.333 0 0 0 18.252.658c-.167 0-.334.006-.5.013-13.092.47-21.1 14.619-15.038 26.23 0 0 2.069 5.112 2.27 7.27.683 7.326 0 19.169 0 19.169h17.229v-6.8a2.8 2.8 0 0 1 2.7-2.088h.027c2.208 0 5.366.019 5.67.029a4.319 4.319 0 0 0 4.443-4.3v-6.376h5.661a.848.848 0 0 0 .8-1.152Z" fill="#f5f6fa"/><path data-name="Path 1607" d="m18.02 21.289-.087.007-.042-1.258c-.667-6.225 4.791-9.507 11.086-9.593l-2.524 6.548a6.481 6.481 0 0 1-4.754 3.78 25.976 25.976 0 0 1-3.679.516Z" fill="#f5f6fa"/><path data-name="Path 1608" d="m19.533 29.337-.1-.007a26.331 26.331 0 0 1 .632-3.75 6.485 6.485 0 0 1 3.916-4.642l6.619-2.332c-.269 6.29-3.708 11.652-9.911 10.8Z" fill="#ffd25d"/><path data-name="Path 1609" d="m15.096 27.549-.046-.007c-3.474-.486-7.672-2.779-8.233-7.939l-.676-5.375c5.209.228 9.278 5.517 9.089 11.812l-.045 1.52Z" fill="#ffd25d"/><path data-name="Path 1610" d="M8.278 34.171c-.2-2.159-2.27-7.27-2.27-7.27C.084 15.56 7.589 1.801 20.14.727q-.932-.08-1.888-.07c-.167 0-.334.006-.5.013-13.092.471-21.1 14.62-15.038 26.231 0 0 2.069 5.112 2.27 7.27.683 7.326 0 19.169 0 19.169h3.293s.683-11.843 0-19.169Z" fill="#f5f6fa"/><g data-name="Group 741"><path data-name="Path 1611" d="M38.466 22.825c0-.707-.011-3.6-.031-3.929A19.992 19.992 0 0 0 18.245 0q-.259 0-.516.012A18.243 18.243 0 0 0 2.556 9.15a18.6 18.6 0 0 0-.439 18.028c.165.412 2.031 5.1 2.213 7.056.67 7.191.005 18.952 0 19.07a.661.661 0 0 0 .392.642.679.679 0 0 0 .278.055h17.213a.659.659 0 0 0 .659-.659V46.9a1.266 1.266 0 0 1 .139-.589 2.157 2.157 0 0 1 1.919-1.2h.009c3.407 0 5.407.021 5.633.028a4.994 4.994 0 0 0 5.141-4.959v-5.717h4.979a1.54 1.54 0 0 0 1.287-.663 1.5 1.5 0 0 0 .155-1.376Zm2.419 10.248a.193.193 0 0 1-.166.074h-5.7a.619.619 0 0 0-.619.619v6.412a3.681 3.681 0 0 1-3.774 3.643c-.3-.009-3.26-.028-5.678-.028h.013v-.005a6.869 6.869 0 0 1-6.824-6.252l-.071-.723a10.632 10.632 0 0 1-.048-1.166 11.258 11.258 0 0 1 .4-3.069 9.1 9.1 0 0 1 1.412-2.562l.8.05a9.89 9.89 0 0 0 1.318.09 8.052 8.052 0 0 0 5.266-1.87c2.393-2 3.867-5.508 4.048-9.629a.685.685 0 0 0-.141-.46.66.66 0 0 0-.736-.213l-5.218 1.84a6.326 6.326 0 0 0 1.9-2.594l2.524-6.548a.677.677 0 0 0-.074-.622.667.667 0 0 0-.54-.292h-.009c-4.134.11-7.692 1.438-9.764 3.776a8.279 8.279 0 0 0-1.971 6.535l.041 1.237v.035a13.013 13.013 0 0 0 .081 10.311l-.077.191a24.746 24.746 0 0 0-1.437-4.253v-.023l.046-1.52c.2-6.643-4.16-12.246-9.718-12.489a.659.659 0 0 0-.622.371.676.676 0 0 0-.058.385l.672 5.347a9.068 9.068 0 0 0 3.261 6.159 11.2 11.2 0 0 0 5.217 2.311 23.51 23.51 0 0 1 1.624 5.25c.194 1.05.337 2.049.433 3.025l.137 1.5a8.144 8.144 0 0 0 5.7 6.836 3.424 3.424 0 0 0-.312.34 3.026 3.026 0 0 0-.641 1.871l-.03 5.719H5.68a159.073 159.073 0 0 0-.038-18.571c-.208-2.23-2.23-7.244-2.316-7.456a.625.625 0 0 0-.027-.058A17.4 17.4 0 0 1 9.44 3.854a16.669 16.669 0 0 1 8.337-2.524q.24-.009.483-.011a18.674 18.674 0 0 1 18.86 17.653c.015.244.026 2.512.029 3.977a.662.662 0 0 0 .043.233l3.71 9.712a.183.183 0 0 1-.022.179ZM25.766 23.54a.659.659 0 0 0-.93-.042l-4.514 4.128c.11-.686.238-1.316.383-1.883a5.811 5.811 0 0 1 3.5-4.184l5.672-2c-.328 3.327-1.582 6.1-3.509 7.713a6.846 6.846 0 0 1-5.357 1.509l4.716-4.312a.659.659 0 0 0 .042-.93Zm-4.21-3.409a22.666 22.666 0 0 1-2.426.393c.085-.157.173-.314.265-.47a17.124 17.124 0 0 1 3.858-4.487.659.659 0 1 0-.795-1.05A18.09 18.09 0 0 0 18.497 19a6.7 6.7 0 0 1 1.694-4.57c1.665-1.879 4.477-3.051 7.812-3.283l-2.164 5.612a5.809 5.809 0 0 1-4.283 3.374Zm.289 1.285h.02a7.682 7.682 0 0 0-2.437 4.006 26.964 26.964 0 0 0-.644 3.8 10.215 10.215 0 0 0-.613.872 11.453 11.453 0 0 1 .3-8.173 25.948 25.948 0 0 0 3.378-.5Zm-11.723-.462 2.494 3.584a21.4 21.4 0 0 1 1.288 2.1 8.164 8.164 0 0 1-6.433-7.12l-.573-4.557c4.225.648 7.48 4.962 7.67 10.176a21.991 21.991 0 0 0-.869-1.355L11.204 20.2a.659.659 0 1 0-1.081.752Z"/><path data-name="Path 1612" d="M8.37 6.258a16.018 16.018 0 0 0-3.538 4.216 16.3 16.3 0 0 0-1.541 3.568.659.659 0 1 0 1.263.373 14.975 14.975 0 0 1 1.416-3.279 14.707 14.707 0 0 1 3.248-3.87.659.659 0 1 0-.848-1.008Z"/><path data-name="Path 1613" d="M11.325 4.301c-.287.146-.575.3-.856.47a.659.659 0 1 0 .669 1.134c.257-.151.52-.3.783-.429a.66.66 0 1 0-.6-1.174Z"/></g></svg>