<svg xmlns="http://www.w3.org/2000/svg" width="55.667" height="56.488"><g data-name="Group 848"><g data-name="Group 839"><path data-name="Path 1640" d="m46.212 45.065-.016-.414 4.734-7.28-1.3-6.705-.489-1.954a7.51 7.51 0 0 0-2.9 2.464l-3.039 4.351-.56.085a6.98 6.98 0 0 0-5.521 4.512l-.013.049a3.912 3.912 0 0 0 3.8 4.892h5.3Z" fill="#f5f6fa"/></g><g data-name="Group 840"><path data-name="Path 1641" d="M13.859 44.573a3.882 3.882 0 0 0 3.4-5.787 2.658 2.658 0 0 0-.284-.406c-1.446-1.668-2.776-2.573-4.065-2.767l-.561-.085-3.039-4.352a7.508 7.508 0 0 0-2.9-2.464l-.489 1.954-1.674 8.087 5.2 5.7-.008.122h4.415Z" fill="#ffcebf"/></g><g data-name="Group 846"><g data-name="Group 841"><path data-name="Path 1642" d="M23.001 20.273a2.4 2.4 0 0 1 2.437-2.054 2.436 2.436 0 0 1 2.34 2.454v20.576a7.1 7.1 0 0 1-1.537 4.411l-2.9 3.656v5.207a1.126 1.126 0 0 1-1.126 1.126H9.564a1.126 1.126 0 0 1-1.119-1.254l.809-7.063.2-2.882-5.2-5.7 1.674-8.087 3.578-14.284a2.364 2.364 0 0 1 2.229-1.582h.141a2.364 2.364 0 0 1 2.184 2.786l.676-3.621a2.381 2.381 0 0 1 4.7.771l-.263 2.6h.02a2.033 2.033 0 0 1 3.861.886v.058l-.041 1.986a2.322 2.322 0 0 0-.024.279Z" fill="#f5f6fa"/></g><g data-name="Group 842" fill="#f5f6fa"><path data-name="Path 1643" d="M17.83 13.371a2.361 2.361 0 0 1 .524-.952 2.382 2.382 0 0 0-3.619 1.55l-.657 3.521-2.024 13.815a3.466 3.466 0 0 0 3.519-2.866Z"/><path data-name="Path 1644" d="m21.155 29.105 1.077-12.5a2.033 2.033 0 0 0-3.049.733l-.424 3.414-.935 11.326a3.352 3.352 0 0 0 3.331-2.973Z"/><path data-name="Path 1645" d="m25.376 30.535.807-12.176a2.332 2.332 0 0 0-.746-.141 2.4 2.4 0 0 0-2.423 1.982l-.03.261-.911 13.05a3.32 3.32 0 0 0 3.303-2.976Z"/></g><g data-name="Group 844"><g data-name="Group 843"><path data-name="Path 1646" d="M41.502 17.59a2.364 2.364 0 0 1 2.184-2.786h.141a2.364 2.364 0 0 1 2.229 1.582l3.578 14.284 1.3 6.705-4.734 7.28.106 2.681.853 7.451a.778.778 0 0 1-.772.866H32.993a.777.777 0 0 1-.777-.777v-5.555l-2.9-3.656a7.1 7.1 0 0 1-1.537-4.411v-20.63a2.4 2.4 0 0 1 4.777-.346l-.041-1.986v-.058a2.032 2.032 0 0 1 3.809-.986l.061-.007-.252-2.5a2.381 2.381 0 0 1 4.7-.771Z" fill="#f5f6fa"/></g></g><path data-name="Path 1647" d="M46.932 46.187a1.016 1.016 0 0 0-.637 1.06v.086l-1.656-.01a5.691 5.691 0 0 1-5.2-3.448 3.639 3.639 0 0 1 .549-3.741c.816-.99 1.992-2.191 2.989-2.341l1.5-.226 3.581-5.128a5.3 5.3 0 0 1 5.512-2.135 1.562 1.562 0 0 1 1.159 1.951l-2.541 8.941a6.915 6.915 0 0 1-4.12 4.544Z" fill="#f5f6fa"/><path data-name="Path 1648" d="M35.409 54.962v-4.778a2.233 2.233 0 0 0-.483-1.387l-2.415-3.047a7.1 7.1 0 0 1-1.537-4.411v-20.63a2.393 2.393 0 0 1 .7-1.7c.047-.047.1-.095.148-.138a2.4 2.4 0 0 0-4.049 1.746v20.63a7.1 7.1 0 0 0 1.537 4.411l2.9 3.656v5.555a.777.777 0 0 0 .777.777h2.835a.777.777 0 0 1-.413-.684Z" fill="#f5f6fa"/><g data-name="Group 845"><path data-name="Path 1649" d="m11.44 54.659.809-7.063.2-2.882-5.2-5.7 1.674-8.087 3.578-14.284a2.364 2.364 0 0 1 .892-1.165 2.352 2.352 0 0 0-1.516-.674h-.141a2.364 2.364 0 0 0-2.229 1.582L5.929 30.67l-1.674 8.087 5.2 5.7-.2 2.882-.809 7.063a1.126 1.126 0 0 0 1.119 1.254h2.276a1.122 1.122 0 0 1-.401-.997Z" fill="#f5f6fa"/></g><path data-name="Path 1650" d="M35.233 17.817a2.778 2.778 0 0 1 .309-1.358 2.032 2.032 0 0 0-3.029 1.77l.251 15.186a2.732 2.732 0 0 0 2.666-2.8Z" fill="#f5f6fa"/><path data-name="Path 1651" d="M37.343 31.882a3.466 3.466 0 0 0 2.664-3.674l-1.124-16.1v-.031a2.378 2.378 0 0 0-2.77 2.224Z" fill="#f5f6fa"/><path data-name="Path 1652" d="M42.858 31.584a3.466 3.466 0 0 0 2.493-3.792l-1.239-12.975a2.372 2.372 0 0 0-.29-.013h-.141a2.364 2.364 0 0 0-2.219 2.5Z" fill="#f5f6fa"/></g><g data-name="Group 847" transform="translate(15.472 .827)"><circle data-name="Ellipse 52" cx="12.306" cy="12.306" r="12.306" fill="#ffd25d"/><path data-name="Path 1653" d="M5.565 12.306A12.311 12.311 0 0 1 15.089.316a12.306 12.306 0 1 0 0 23.981 12.311 12.311 0 0 1-9.524-11.99Z" fill="#ffd25d"/><circle data-name="Ellipse 53" cx="8.999" cy="8.999" r="8.999" transform="translate(3.307 3.307)" fill="#f5f6fa"/><path data-name="Path 1654" d="M8.761 20.577a12.3 12.3 0 0 1 0-16.54 9 9 0 0 0 0 16.54Z" fill="#ffd25d"/><path data-name="Path 1655" d="M16.247 10.538h-2.148V8.39a.506.506 0 0 0-.506-.506h-2.464a.506.506 0 0 0-.506.506v2.148H8.475a.506.506 0 0 0-.506.506v2.463a.506.506 0 0 0 .506.506h2.148v2.148a.506.506 0 0 0 .506.506h2.464a.506.506 0 0 0 .506-.506v-2.148h2.148a.506.506 0 0 0 .506-.506v-2.464a.506.506 0 0 0-.506-.505Z" fill="#f9f7f8"/></g><path data-name="Path 1656" d="M16.466 43.236a4.364 4.364 0 0 1-4.355 4.1H9.252l.01-.086a1.016 1.016 0 0 0-.637-1.059l-1.134-.447a6.915 6.915 0 0 1-4.12-4.544L.83 32.259a1.562 1.562 0 0 1 1.159-1.951 5.3 5.3 0 0 1 5.512 2.136l3.581 5.128 1.5.226a5.7 5.7 0 0 1 2.728 2.031 4.759 4.759 0 0 1 1.159 3.409Z" fill="#ffdfcf"/><path data-name="Path 1657" d="M12.276 47.246a1.016 1.016 0 0 0-.637-1.059l-1.134-.447a6.915 6.915 0 0 1-4.12-4.544l-2.541-8.941a1.562 1.562 0 0 1 .859-1.851 5.288 5.288 0 0 0-2.711-.1 1.562 1.562 0 0 0-1.159 1.951l2.541 8.941a6.915 6.915 0 0 0 4.12 4.544l1.134.447a1.016 1.016 0 0 1 .637 1.059l-.01.086h3.011Z" fill="#ffcebf"/><path data-name="Path 1658" d="M16.466 43.236a4.364 4.364 0 0 1-4.355 4.1H9.252l.01-.086a1.016 1.016 0 0 0-.637-1.059l-1.134-.447a6.915 6.915 0 0 1-4.12-4.544L.83 32.259a1.562 1.562 0 0 1 1.159-1.951 5.3 5.3 0 0 1 5.512 2.136l3.581 5.128 1.5.226a5.7 5.7 0 0 1 2.728 2.031 4.759 4.759 0 0 1 1.159 3.409Z" fill="#f5f6fa"/><path data-name="Path 1659" d="M12.276 47.246a1.016 1.016 0 0 0-.637-1.059l-1.134-.447a6.915 6.915 0 0 1-4.12-4.544l-2.541-8.941a1.562 1.562 0 0 1 .859-1.851 5.288 5.288 0 0 0-2.711-.1 1.562 1.562 0 0 0-1.159 1.951l2.541 8.941a6.915 6.915 0 0 0 4.12 4.544l1.134.447a1.016 1.016 0 0 1 .637 1.059l-.01.086h3.011Z" fill="#f5f6fa"/></g><g data-name="Group 849"><path data-name="Path 1660" d="M27.779 3.307a9.826 9.826 0 1 0 9.826 9.826 9.837 9.837 0 0 0-9.826-9.826Zm0 18a8.172 8.172 0 1 1 8.172-8.172 8.181 8.181 0 0 1-8.172 8.172Z"/><path data-name="Path 1661" d="M31.719 10.538h-1.321V9.217a1.334 1.334 0 0 0-1.333-1.333h-2.464a1.334 1.334 0 0 0-1.333 1.333v1.321h-1.321a1.334 1.334 0 0 0-1.333 1.333v2.464a1.334 1.334 0 0 0 1.333 1.333h1.321v1.321a1.334 1.334 0 0 0 1.333 1.333h2.462a1.334 1.334 0 0 0 1.333-1.333v-1.322h1.321a1.334 1.334 0 0 0 1.333-1.333V11.87a1.334 1.334 0 0 0-1.331-1.332Zm-.321 3.476h-1.827a.827.827 0 0 0-.827.827v1.827h-1.821V14.84a.827.827 0 0 0-.827-.827h-1.827v-1.822h1.827a.827.827 0 0 0 .827-.827V9.538h1.822v1.827a.827.827 0 0 0 .827.827h1.827Z"/><path data-name="Path 1662" d="M55.332 30.619a2.4 2.4 0 0 0-1.528-1.111 6.118 6.118 0 0 0-3.5.235l-3.394-13.55a.614.614 0 0 0-.022-.073 3.189 3.189 0 0 0-5.034-1.41l-.166-.887a3.213 3.213 0 0 0-.813-1.579 13.071 13.071 0 0 0-.673-3.366.827.827 0 1 0-1.565.536 11.487 11.487 0 0 1-10.807 15.2h-.056a11.479 11.479 0 1 1 9.355-18.133.827.827 0 1 0 1.347-.96 13.133 13.133 0 0 0-23.813 6.858 3.2 3.2 0 0 0-.695 1.452l-.164.88a3.189 3.189 0 0 0-5.034 1.41.88.88 0 0 0-.022.073l-.832 3.32a.827.827 0 0 0 1.6.4l.821-3.28a1.546 1.546 0 0 1 1.53-.993 1.536 1.536 0 0 1 1.42 1.811q0 .022-.007.044l-1.727 13.548a.827.827 0 0 0 .715.925.847.847 0 0 0 .106.007.827.827 0 0 0 .819-.722l1.734-13.524.2-1.071a13.121 13.121 0 0 0 2.808 5.157l-1 9.825a.827.827 0 0 0 .739.906.838.838 0 0 0 .084 0 .827.827 0 0 0 .822-.744l.864-8.529a13.169 13.169 0 0 0 2.685 1.711l-.168 8.227a.827.827 0 0 0 .81.844h.017a.827.827 0 0 0 .826-.81l.155-7.609a13.053 13.053 0 0 0 3.232.6v15.024a6.3 6.3 0 0 1-1.357 3.9l-2.9 3.655a.826.826 0 0 0-.179.514v6.333a.827.827 0 1 0 1.654 0v-6.047l2.718-3.43a7.9 7.9 0 0 0 .888-1.4 7.9 7.9 0 0 0 .888 1.4l2.718 3.43v6.045a.827.827 0 1 0 1.654 0v-6.332a.826.826 0 0 0-.179-.514l-2.9-3.655a6.3 6.3 0 0 1-1.357-3.9V26.236a13.048 13.048 0 0 0 3.231-.63l.166 7.644a.827.827 0 0 0 .826.81h.017a.827.827 0 0 0 .81-.844l-.169-8.28a13.172 13.172 0 0 0 2.677-1.743l.873 8.614a.827.827 0 0 0 .822.744.838.838 0 0 0 .084 0 .827.827 0 0 0 .739-.906L37.721 21.7a13.114 13.114 0 0 0 2.774-5.285l.245 1.313 1.734 13.523a.827.827 0 0 0 .819.722.847.847 0 0 0 .106-.007.827.827 0 0 0 .715-.925L42.377 17.5c0-.015 0-.029-.007-.044a1.536 1.536 0 0 1 1.42-1.811 1.545 1.545 0 0 1 1.53.994l3.488 13.924a6.156 6.156 0 0 0-1.375 1.417l-3.378 4.836-1.146.173a5.6 5.6 0 0 0-4.432 3.623l-.216.592a.827.827 0 1 0 1.554.566l.216-.592a3.951 3.951 0 0 1 3.125-2.555l1.5-.226a.827.827 0 0 0 .554-.344l3.581-5.127a4.458 4.458 0 0 1 4.652-1.8.736.736 0 0 1 .546.919l-1.047 3.682a.827.827 0 0 0 1.591.452l1.047-3.682a2.4 2.4 0 0 0-.244-1.873Z"/><path data-name="Path 1663" d="M52.967 38.65a.826.826 0 0 0-1.021.569l-.5 1.764a6.125 6.125 0 0 1-3.627 4l-1.135.447a1.844 1.844 0 0 0-1.157 1.92l.962 8.4a.827.827 0 0 0 .82.733.839.839 0 0 0 .1-.005.827.827 0 0 0 .728-.916l-.961-8.4a.188.188 0 0 1 .118-.2l1.135-.447a7.788 7.788 0 0 0 4.612-5.088l.5-1.764a.827.827 0 0 0-.574-1.013Z"/><path data-name="Path 1664" d="M17.19 40.61a5.6 5.6 0 0 0-4.432-3.627l-1.146-.173-3.378-4.836a6.151 6.151 0 0 0-1.375-1.417l1.81-7.227a.827.827 0 0 0-1.6-.4l-1.71 6.813a6.119 6.119 0 0 0-3.5-.235 2.389 2.389 0 0 0-1.773 2.984l2.542 8.942a7.787 7.787 0 0 0 4.612 5.088l1.135.447a.188.188 0 0 1 .118.2l-.961 8.4a.827.827 0 0 0 .728.915.841.841 0 0 0 .1.006.827.827 0 0 0 .82-.733l.961-8.4a1.844 1.844 0 0 0-1.155-1.923l-1.136-.451a6.125 6.125 0 0 1-3.627-4l-2.542-8.942a.736.736 0 0 1 .546-.919 4.457 4.457 0 0 1 4.652 1.8l3.581 5.127a.827.827 0 0 0 .555.344l1.5.226a3.952 3.952 0 0 1 3.125 2.555l.216.592a.827.827 0 1 0 1.554-.566Z"/></g></svg>