<svg xmlns="http://www.w3.org/2000/svg" width="69" height="69"><path data-name="Path 1759" d="M54.684 1.344s-10.479.6-19.112 14.647c-.107.175-.212.348-.316.523l.929 5.719h-3.873a28.089 28.089 0 0 0-2.359 9l3.2 3.269h-3.086c.583 3.795 2.793 6.062 6.067 6.156 4.685.135 9.1-1.81 11.295-11.475.224-.987.485-2.091.774-3.276l-3.46-.233 4.1-2.342c2.386-9.5 5.845-21.984 5.845-21.984Zm0 0" fill="#ffd25d"/><path data-name="Path 1760" d="M40.157 67.652s.718-1.53.7-1.488c.126-.288 1.241-2.678 3.676-2.678a9.85 9.85 0 0 1 3.706 1.011c3.16 1.257 7.935 3.156 18.4 3.156h1.019l-7.268-9.456a32.866 32.866 0 0 1-10.046-2.467 14.938 14.938 0 0 0-5.812-1.423c-5.469 0-8.879 4.834-10.032 7.69-1.156-2.853-4.563-7.69-10.032-7.69a14.933 14.933 0 0 0-5.808 1.419 32.87 32.87 0 0 1-10.044 2.466l-7.272 9.46h1.018c10.461 0 15.237-1.9 18.4-3.156a9.846 9.846 0 0 1 3.705-1.011c2.434 0 3.549 2.391 3.676 2.678-.018-.042.7 1.488.7 1.488Zm0 0" fill="#f5f6fa"/><path data-name="Path 1761" d="m68.721 66.83-7.268-9.456a1.346 1.346 0 0 0-.935-.52 31.568 31.568 0 0 1-9.68-2.378 16.233 16.233 0 0 0-6.3-1.514 11.434 11.434 0 0 0-8.685 4.327v-.05c1.1-2.533 4.027-6.53 8.577-6.53a13.535 13.535 0 0 1 5.247 1.309 33.709 33.709 0 0 0 5.989 1.879 1.347 1.347 0 1 0 .554-2.637 30.944 30.944 0 0 1-5.548-1.746 16.071 16.071 0 0 0-6.243-1.5c-4.736 0-8.07 3.174-9.924 6.064-1.855-2.891-5.188-6.064-9.925-6.064a16.069 16.069 0 0 0-6.243 1.5 31.21 31.21 0 0 1-9.57 2.351 1.348 1.348 0 1 0 .266 2.682 34.024 34.024 0 0 0 10.3-2.528 13.529 13.529 0 0 1 5.247-1.309c4.55 0 7.479 4 8.577 6.531v.049a11.436 11.436 0 0 0-8.685-4.328 16.237 16.237 0 0 0-6.306 1.515 31.565 31.565 0 0 1-9.679 2.377 1.348 1.348 0 0 0-.935.52L.28 66.83a1.347 1.347 0 0 0 1.068 2.169h66.3a1.347 1.347 0 0 0 1.068-2.169ZM44.532 55.658a13.689 13.689 0 0 1 5.31 1.324 34.073 34.073 0 0 0 9.826 2.494l5.235 6.81c-9.007-.194-13.281-1.895-16.167-3.042a10.913 10.913 0 0 0-4.2-1.106 5.566 5.566 0 0 0-4.905 3.475l-.019.038-.307.653h-3.457v-4.033c1.111-2.563 4.076-6.613 8.684-6.613Zm-35.2 3.818a34.094 34.094 0 0 0 9.827-2.494 13.686 13.686 0 0 1 5.308-1.323c4.608 0 7.574 4.05 8.685 6.613v4.033h-3.453l-.306-.653-.019-.038a5.567 5.567 0 0 0-4.905-3.475 10.913 10.913 0 0 0-4.2 1.106c-2.885 1.148-7.16 2.848-16.167 3.042Zm11.928 6.272a8.906 8.906 0 0 1 3.206-.915 2.734 2.734 0 0 1 2.23 1.471h-6.861c.513-.192.985-.38 1.426-.556Zm21.042.556a2.734 2.734 0 0 1 2.229-1.471 8.9 8.9 0 0 1 3.208.915c.441.175.913.363 1.426.556Zm0 0"/><path data-name="Path 1762" d="M59.924 54.543h.049c.045 0 .09.007.133.007a1.348 1.348 0 0 0 .131-2.689h-.048a1.348 1.348 0 0 0-.265 2.682Zm0 0"/><path data-name="Path 1763" d="M29.95 33.158a1.348 1.348 0 0 0-1.217 1.547c.559 3.638 2.495 6.124 5.322 6.976q-.1.764-.178 1.531l-.718 6.843a1.348 1.348 0 0 0 1.2 1.481 1.3 1.3 0 0 0 .142.007 1.348 1.348 0 0 0 1.339-1.207l.718-6.843q.078-.746.173-1.487c6.269-.077 10.1-4.075 12.012-12.526.213-.94.472-2.035.769-3.255a1.347 1.347 0 0 0-.533-1.42l.53-.3a1.345 1.345 0 0 0 .638-.842c2.355-9.37 5.8-21.827 5.837-21.952a1.348 1.348 0 0 0-1.377-1.712c-.456.026-11.283.808-20.182 15.286-.111.18-.218.357-.324.536a1.349 1.349 0 0 0-.175.909l.675 4.155h-2.288a1.348 1.348 0 0 0-1.24.819 29.364 29.364 0 0 0-2.465 9.435 1.347 1.347 0 0 0 .382 1.033Zm17.722-10.711-3.6 2.057a1.348 1.348 0 0 0 .578 2.515l1.866.125a98.234 98.234 0 0 0-.4 1.741c-1.945 8.583-5.538 10.277-8.988 10.421A68.818 68.818 0 0 1 51.762 6.927c-1.176 4.338-2.781 10.34-4.089 15.52Zm-14.46 1.138h2.972a1.348 1.348 0 0 0 1.33-1.564l-.849-5.23.055-.089c4.249-6.914 8.93-10.354 12.114-12.023a21.64 21.64 0 0 1 2.1-.967A72.02 72.02 0 0 0 34.45 38.963a4.9 4.9 0 0 1-2.677-3.116h1.377a1.348 1.348 0 0 0 .963-2.29l-2.763-2.828a26.564 26.564 0 0 1 1.867-7.145Zm0 0"/></svg>