<svg xmlns="http://www.w3.org/2000/svg" width="11" height="11"><path data-name="Icon metro-copyright" d="M8.235 6.775v.781a.907.907 0 0 1-.261.637 1.737 1.737 0 0 1-.673.433 4.922 4.922 0 0 1-.845.233 4.7 4.7 0 0 1-.841.079 3.31 3.31 0 0 1-2.453-1 3.382 3.382 0 0 1-.985-2.478 3.328 3.328 0 0 1 3.4-3.4 5.054 5.054 0 0 1 .541.032 4.621 4.621 0 0 1 .666.129 3.416 3.416 0 0 1 .662.243 1.426 1.426 0 0 1 .494.4.92.92 0 0 1 .2.58v.781a.1.1 0 0 1-.115.115H7.18a.1.1 0 0 1-.115-.115v-.5q0-.308-.469-.483a2.787 2.787 0 0 0-.985-.175 2.176 2.176 0 0 0-1.636.655 2.344 2.344 0 0 0-.634 1.7 2.522 2.522 0 0 0 .655 1.787 2.182 2.182 0 0 0 1.672.705 3.034 3.034 0 0 0 .988-.172q.5-.172.5-.473v-.5a.112.112 0 0 1 .032-.082.1.1 0 0 1 .075-.032h.852a.115.115 0 0 1 .079.032.106.106 0 0 1 .036.082ZM5.5.917a4.455 4.455 0 0 0-1.78.365A4.52 4.52 0 0 0 1.282 3.72a4.518 4.518 0 0 0 0 3.559A4.52 4.52 0 0 0 3.72 9.718a4.518 4.518 0 0 0 3.559 0A4.52 4.52 0 0 0 9.717 7.28a4.518 4.518 0 0 0 0-3.559 4.52 4.52 0 0 0-2.438-2.438 4.455 4.455 0 0 0-1.78-.365ZM11 5.5a5.38 5.38 0 0 1-.738 2.761 5.475 5.475 0 0 1-2 2 5.535 5.535 0 0 1-5.521 0 5.475 5.475 0 0 1-2-2 5.535 5.535 0 0 1 0-5.521 5.475 5.475 0 0 1 2-2 5.535 5.535 0 0 1 5.521 0 5.475 5.475 0 0 1 2 2A5.38 5.38 0 0 1 11 5.5Z" fill="#888"/></svg>