<svg xmlns="http://www.w3.org/2000/svg" width="54.001" height="54.009"><g transform="translate(-2 -1.991)"><rect data-name="Rectangle 328" width="38" height="47" rx="2" transform="translate(3.001 7.991)" fill="#ffd25d"/><path data-name="Path 1714" d="M40.7 10.099v43.2a1.805 1.805 0 0 1-1.8 1.8h-3.6a1.805 1.805 0 0 0 1.8-1.8v-43.2a1.805 1.805 0 0 0-1.8-1.8h3.6a1.805 1.805 0 0 1 1.8 1.8Z" fill="#ffd25d"/><path data-name="Path 1715" d="M6.5 11.899h30.6v39.6H6.5Z" fill="#f5f6fa"/><path data-name="Path 1716" d="M33.5 11.899h3.6v39.6h-3.6Z" fill="#f5f6fa"/><path data-name="Path 1717" d="M55.1 32.599v12.4a7.179 7.179 0 0 1-3.834 6.363L43.4 55.099l-2.772-1.314-4.806-2.286-.288-.135a7.158 7.158 0 0 1-3.546-4.365 7.056 7.056 0 0 1-.288-2v-12.4h.9a14.152 14.152 0 0 0 4.5-.729 14.377 14.377 0 0 0 3.6-1.764c.18-.126.36-.252.54-.387l2.16-1.62 2.16 1.62a14.507 14.507 0 0 0 8.64 2.88Z" fill="#ffcd00"/><path data-name="Path 1718" d="M55.101 32.599v12.4a7.179 7.179 0 0 1-3.834 6.363l-7.866 3.737-1.8-.855 6.066-2.88a7.179 7.179 0 0 0 3.834-6.365v-12.4h-.9a14.507 14.507 0 0 1-8.64-2.88l-.36-.27 1.8-1.35 2.16 1.62a14.507 14.507 0 0 0 8.64 2.88Z" fill="#ebbf00"/><path data-name="Path 1719" d="M51.5 35.993V45a3.594 3.594 0 0 1-1.863 3.15L43.4 51.113l-6.237-2.961A3.594 3.594 0 0 1 35.3 45v-9.007a18.072 18.072 0 0 0 8.1-3.393 18.072 18.072 0 0 0 8.1 3.393Z" fill="#f5f6fa"/><path data-name="Path 1720" d="M51.501 35.993V45a3.594 3.594 0 0 1-1.863 3.15l-6.237 2.963-1.8-.855 4.437-2.106A3.594 3.594 0 0 0 47.901 45v-9.007a18.038 18.038 0 0 1-6.3-2.214 16.718 16.718 0 0 0 1.8-1.179 18.072 18.072 0 0 0 8.1 3.393Z" fill="#f5f6fa"/><path data-name="Path 1721" d="M30.8 8.3v4.5h-18V8.3a1.805 1.805 0 0 1 1.8-1.8h2.79a4.5 4.5 0 0 1 8.82 0H29a1.805 1.805 0 0 1 1.8 1.8Z" fill="#f5f6fa"/><path data-name="Path 1722" d="M30.8 8.299v4.5h-3.6v-4.5a1.805 1.805 0 0 0-1.8-1.8h-2.79A4.487 4.487 0 0 0 20 3.277a4.447 4.447 0 0 1 1.8-.378 4.5 4.5 0 0 1 4.41 3.6H29a1.805 1.805 0 0 1 1.8 1.8Z" fill="#f5f6fa"/><path data-name="Path 1723" d="M27.2 19.999v3.6h-3.6v3.6H20v-3.6h-3.6v-3.6H20v-3.6h3.6v3.6Z" fill="#ffd25d"/><ellipse data-name="Ellipse 63" cx="2" cy="1.5" rx="2" ry="1.5" transform="translate(20.001 5.991)" fill="#f5f6fa"/><path data-name="Path 1725" d="M23.6 7.399a1.8 1.8 0 0 1-2.7 1.557 1.8 1.8 0 0 0 0-3.114 1.8 1.8 0 0 1 2.7 1.557Z" fill="#f5f6fa"/><path data-name="Path 1726" d="M21.8 4.699a2.7 2.7 0 1 0 2.7 2.7 2.7 2.7 0 0 0-2.7-2.7Zm0 3.6a.9.9 0 1 1 .9-.9.9.9 0 0 1-.9.9Z"/><path data-name="Path 1727" d="M10.1 29.9h3.6v1.8h-3.6Z"/><path data-name="Path 1728" d="M15.5 29.9H29v1.8H15.5Z"/><path data-name="Path 1729" d="M10.1 35.3h3.6v1.8h-3.6Z"/><path data-name="Path 1730" d="M10.1 40.7h3.6v1.8h-3.6Z"/><path data-name="Path 1731" d="M10.1 46.1h3.6v1.8h-3.6Z"/><path data-name="Path 1732" d="M55.1 31.7h-.9a13.6 13.6 0 0 1-8.1-2.7l-2.16-1.62a.891.891 0 0 0-1.08 0l-1.26.945V10.1a2.708 2.708 0 0 0-2.7-2.7h-7.362A2.709 2.709 0 0 0 29 5.6h-2.106a5.4 5.4 0 0 0-10.188 0H14.6a2.709 2.709 0 0 0-2.538 1.8H4.7A2.708 2.708 0 0 0 2 10.1v43.2A2.708 2.708 0 0 0 4.7 56h34.2a2.714 2.714 0 0 0 2.115-1.035l2 .945a.878.878 0 0 0 .774 0l7.9-3.753A8.065 8.065 0 0 0 56 45V32.6a.9.9 0 0 0-.9-.9ZM31.7 9.2h7.2a.9.9 0 0 1 .9.9v19.521a13.713 13.713 0 0 1-1.8.945V11.9a.9.9 0 0 0-.9-.9h-5.4Zm-18-.9a.9.9 0 0 1 .9-.9h2.79a.889.889 0 0 0 .882-.72 3.6 3.6 0 0 1 7.056 0 .889.889 0 0 0 .882.72H29a.9.9 0 0 1 .9.9v3.6H13.7Zm-.9 5.4h18a.9.9 0 0 0 .9-.9h4.5v18.4a13.527 13.527 0 0 1-3.6.5h-.9a.9.9 0 0 0-.9.9v2.7H15.5v1.8h15.3v3.6H15.5v1.8h15.3V45a8.88 8.88 0 0 0 .072 1.1H15.5v1.8h15.849a8.124 8.124 0 0 0 1.719 2.7H7.4V12.8h4.5a.9.9 0 0 0 .9.9Zm26.1 40.5H4.7a.9.9 0 0 1-.9-.9V10.1a.9.9 0 0 1 .9-.9h7.2V11H6.5a.9.9 0 0 0-.9.9v39.6a.9.9 0 0 0 .9.9h29.124l3.618 1.719a.906.906 0 0 1-.342.081ZM54.2 45a6.258 6.258 0 0 1-3.321 5.544L43.4 54.1l-7.461-3.546A6.278 6.278 0 0 1 32.6 45V33.5a15.39 15.39 0 0 0 9.18-3.06l1.62-1.215 1.62 1.215a15.39 15.39 0 0 0 9.18 3.06Z"/><path data-name="Path 1733" d="M27.2 19.099h-2.7v-2.7a.9.9 0 0 0-.9-.9H20a.9.9 0 0 0-.9.9v2.7h-2.7a.9.9 0 0 0-.9.9v3.6a.9.9 0 0 0 .9.9h2.7v2.7a.9.9 0 0 0 .9.9h3.6a.9.9 0 0 0 .9-.9v-2.7h2.7a.9.9 0 0 0 .9-.9v-3.6a.9.9 0 0 0-.9-.9Zm-.9 3.6h-2.7a.9.9 0 0 0-.9.9v2.7h-1.8v-2.7a.9.9 0 0 0-.9-.9h-2.7v-1.8H20a.9.9 0 0 0 .9-.9v-2.7h1.8v2.7a.9.9 0 0 0 .9.9h2.7Z"/><path data-name="Path 1734" d="M51.635 35.1a17.138 17.138 0 0 1-7.7-3.222.891.891 0 0 0-1.08 0 17.138 17.138 0 0 1-7.7 3.222.907.907 0 0 0-.765.891V45a4.5 4.5 0 0 0 2.322 3.933l.054.027 6.237 2.961a.877.877 0 0 0 .774 0l6.291-2.988A4.505 4.505 0 0 0 52.4 45v-9.007a.907.907 0 0 0-.765-.891ZM50.6 45a2.663 2.663 0 0 1-1.35 2.331l-5.85 2.783-5.832-2.763A2.7 2.7 0 0 1 36.2 45v-8.251a19 19 0 0 0 7.2-3.042 19 19 0 0 0 7.2 3.042Z"/><path data-name="Path 1735" d="m39.537 42.763-1.273 1.273 2.7 2.7a.9.9 0 0 0 1.273 0l7.2-7.2-1.273-1.273-6.564 6.564Z"/></g></svg>