<svg id="journal" xmlns="http://www.w3.org/2000/svg" width="54.927" height="57" viewBox="0 0 54.927 57">
  <path id="Path_1111" data-name="Path 1111" d="M20.582,59.964H8.145A4.146,4.146,0,0,1,4,55.818V8.145A4.146,4.146,0,0,1,8.145,4H20.582Zm0,0" transform="translate(-3.482 -3.482)" fill="#ffd25d"/>
  <path id="Path_1112" data-name="Path 1112" d="M17.1,57H4.664A4.669,4.669,0,0,1,0,52.336V4.664A4.669,4.669,0,0,1,4.664,0H17.1a.519.519,0,0,1,.518.518V56.482A.519.519,0,0,1,17.1,57ZM4.664,1.036A3.631,3.631,0,0,0,1.036,4.664V52.336a3.631,3.631,0,0,0,3.627,3.627H16.582V1.036Zm0,0" fill="#212a41"/>
  <path id="Path_1113" data-name="Path 1113" d="M16.518,80.709A.519.519,0,0,1,16,80.191V32.518a.518.518,0,0,1,1.036,0V80.191A.519.519,0,0,1,16.518,80.709Zm0,0" transform="translate(-13.927 -27.855)" fill="#fff"/>
  <path id="Path_1114" data-name="Path 1114" d="M76.291,59.964H72.145A4.146,4.146,0,0,1,68,55.818V8.145A4.146,4.146,0,0,1,72.145,4h4.145Zm0,0" transform="translate(-59.191 -3.482)" fill="#ffd25d"/>
  <path id="Path_1115" data-name="Path 1115" d="M72.809,57H68.664A4.669,4.669,0,0,1,64,52.336V4.664A4.669,4.669,0,0,1,68.664,0h4.145a.519.519,0,0,1,.518.518V56.482A.519.519,0,0,1,72.809,57ZM68.664,1.036a3.631,3.631,0,0,0-3.627,3.627V52.336a3.631,3.631,0,0,0,3.627,3.627h3.627V1.036Zm0,0" transform="translate(-55.709)" fill="#212a41"/>
  <path id="Path_1116" data-name="Path 1116" d="M165.164,4H132V59.964h33.164a4.146,4.146,0,0,0,4.145-4.145V8.145A4.146,4.146,0,0,0,165.164,4Zm0,0" transform="translate(-114.9 -3.482)" fill="#f5f6fa"/>
  <g id="Group_643" data-name="Group 643" transform="translate(16.582)">
    <path id="Path_1117" data-name="Path 1117" d="M161.682,57H128.518a.519.519,0,0,1-.518-.518V.518A.519.519,0,0,1,128.518,0h33.164a4.669,4.669,0,0,1,4.664,4.664V52.336A4.669,4.669,0,0,1,161.682,57Zm-32.645-1.036h32.645a3.631,3.631,0,0,0,3.627-3.627V4.664a3.631,3.631,0,0,0-3.627-3.627H129.036Zm0,0" transform="translate(-128)" fill="#212a41"/>
    <path id="Path_1118" data-name="Path 1118" d="M237.7,137.909c-3.2,0-5.7-5.691-5.7-12.955S234.5,112,237.7,112s5.7,5.691,5.7,12.955S240.9,137.909,237.7,137.909Zm0-24.873c-2.252,0-4.664,4.789-4.664,11.918s2.412,11.918,4.664,11.918,4.664-4.789,4.664-11.918S239.952,113.036,237.7,113.036Zm0,0" transform="translate(-218.527 -97.491)" fill="#212a41"/>
    <path id="Path_1119" data-name="Path 1119" d="M188.515,167.613c-1.962,0-3.445-.523-4.124-1.6a2.942,2.942,0,0,1-.263-2.4c.709-2.653,4.192-5.974,8.874-8.46,6.452-3.425,12.789-4.063,14.43-1.455a2.942,2.942,0,0,1,.263,2.4c-.709,2.653-4.192,5.974-8.874,8.46a23.542,23.542,0,0,1-10.306,3.058Zm14.8-14.5a22.456,22.456,0,0,0-9.83,2.954c-4.373,2.321-7.731,5.46-8.359,7.812a1.948,1.948,0,0,0,.141,1.583c1.164,1.854,6.691,1.566,13.064-1.819,4.373-2.321,7.731-5.46,8.359-7.812a1.948,1.948,0,0,0-.141-1.583c-.463-.737-1.614-1.135-3.235-1.135Zm0,0" transform="translate(-176.739 -132.388)" fill="#212a41"/>
    <path id="Path_1120" data-name="Path 1120" d="M203.316,167.613a23.535,23.535,0,0,1-10.3-3.058c-4.683-2.485-8.166-5.807-8.874-8.46a2.943,2.943,0,0,1,.263-2.4c1.639-2.609,7.977-1.97,14.43,1.455,4.683,2.485,8.166,5.807,8.874,8.46a2.943,2.943,0,0,1-.263,2.4c-.679,1.079-2.163,1.6-4.125,1.6Zm-14.8-14.5c-1.62,0-2.772.4-3.235,1.135a1.948,1.948,0,0,0-.141,1.583c.628,2.352,3.988,5.49,8.359,7.812,6.375,3.383,11.9,3.673,13.064,1.819a1.948,1.948,0,0,0,.141-1.583c-.628-2.352-3.988-5.49-8.359-7.812a22.456,22.456,0,0,0-9.83-2.954Zm0,0" transform="translate(-176.746 -132.388)" fill="#212a41"/>
  </g>
  <path id="Path_1121" data-name="Path 1121" d="M264.145,198.073A2.073,2.073,0,1,1,262.073,196,2.073,2.073,0,0,1,264.145,198.073Zm0,0" transform="translate(-226.318 -170.609)" fill="#ffd25d"/>
  <path id="Path_1122" data-name="Path 1122" d="M258.591,197.182a2.591,2.591,0,1,1,2.591-2.591A2.594,2.594,0,0,1,258.591,197.182Zm0-4.145a1.555,1.555,0,1,0,1.555,1.555A1.556,1.556,0,0,0,258.591,193.036Zm0,0" transform="translate(-222.836 -167.127)" fill="#212a41"/>
  <path id="Path_1123" data-name="Path 1123" d="M330.218,14.364l-3.109-2.073L324,14.364V4h6.218Zm0,0" transform="translate(-282.027 -3.482)" fill="#ffd25d"/>
  <path id="Path_1124" data-name="Path 1124" d="M326.736,11.4a.513.513,0,0,1-.287-.087l-2.822-1.881-2.822,1.881a.517.517,0,0,1-.805-.431V.518A.519.519,0,0,1,320.518,0h6.218a.519.519,0,0,1,.518.518V10.882a.518.518,0,0,1-.518.518Zm-3.109-3.109a.513.513,0,0,1,.287.087l2.3,1.536V1.036h-5.182V9.914l2.3-1.536A.513.513,0,0,1,323.627,8.291Zm0,0" transform="translate(-278.545)" fill="#212a41"/>
  <path id="Path_1125" data-name="Path 1125" d="M215.691,359.109H197.036A1.037,1.037,0,0,1,196,358.073v-1.036A1.037,1.037,0,0,1,197.036,356h18.655a1.037,1.037,0,0,1,1.036,1.036v1.036A1.037,1.037,0,0,1,215.691,359.109Zm0,0" transform="translate(-170.609 -309.882)" fill="#fff"/>
  <path id="Path_1126" data-name="Path 1126" d="M212.209,356.145H193.555A1.556,1.556,0,0,1,192,354.591v-1.036A1.556,1.556,0,0,1,193.555,352h18.655a1.556,1.556,0,0,1,1.555,1.555v1.036A1.556,1.556,0,0,1,212.209,356.145Zm-18.655-3.109a.519.519,0,0,0-.518.518v1.036a.519.519,0,0,0,.518.518h18.655a.519.519,0,0,0,.518-.518v-1.036a.519.519,0,0,0-.518-.518Zm0,0" transform="translate(-167.127 -306.4)" fill="#212a41"/>
  <path id="Path_1127" data-name="Path 1127" d="M80.518,80.709A.519.519,0,0,1,80,80.191V32.518a.518.518,0,1,1,1.036,0V80.191A.519.519,0,0,1,80.518,80.709Zm0,0" transform="translate(-69.636 -27.855)" fill="#fff"/>
  <path id="Path_1128" data-name="Path 1128" d="M400.518,80.709a.519.519,0,0,1-.518-.518V32.518a.518.518,0,0,1,1.036,0V80.191A.519.519,0,0,1,400.518,80.709Zm0,0" transform="translate(-348.182 -27.855)" fill="#eee"/>
</svg>
