<svg xmlns="http://www.w3.org/2000/svg" width="51.682" height="54.124"><g data-name="microscope(1)"><g data-name="Group 729"><g data-name="Group 727" transform="translate(1.15 .813)"><path data-name="Path 1394" d="m24.141 19.287-5.748 5.748 2.874 1.724 4.6-4.6ZM4.598 11.24l5.748-5.748 11.5 11.5-5.748 5.748-3-3a2.439 2.439 0 0 0-3.449-3.449Z" fill="#f5f6fa" fill-rule="evenodd"/><path data-name="Path 1395" d="m3.447 7.792 3.449-3.449 2.3 2.3-3.45 3.449Z" fill="#f5f6fa" fill-rule="evenodd"/><path data-name="Path 1396" d="M11.122 15.142a2.439 2.439 0 1 0 2.439 2.439 2.439 2.439 0 0 0-2.439-2.439Z" fill="#fff" fill-rule="evenodd"/><path data-name="Path 1397" d="m21.845 16.988-5.748 5.748a1.626 1.626 0 0 0 2.3 2.3l5.748-5.749a1.626 1.626 0 1 0-2.3-2.3ZM0 6.647l1.15 1.15a1.631 1.631 0 0 0 2.3 0l3.448-3.45a1.63 1.63 0 0 0 0-2.3L5.748.897Z" fill="#fff" fill-rule="evenodd"/><path data-name="Path 1398" d="M32.089 33.409a13.024 13.024 0 0 1-9.621 7.9l.813 3.155A16.283 16.283 0 0 0 35.542 33.41Zm-14.5 7.9a13.007 13.007 0 0 1-6.486-22.237 2.439 2.439 0 0 1-2.168-2.423 16.258 16.258 0 0 0 7.842 27.815c.07-.27.813-3.153.812-3.154Z" fill="#f5f6fa" fill-rule="evenodd"/><path data-name="Path 1399" d="M24.811 40.63a12.916 12.916 0 0 1-2.343.679l.813 3.155a16.13 16.13 0 0 0 2.347-.665c-.273-1.054-.533-2.119-.817-3.169Zm7.279-7.221a12.968 12.968 0 0 1-1.306 2.439h3.771a16.154 16.154 0 0 0 .991-2.439ZM9.361 21.091a4.9 4.9 0 0 1-2.36-2.284 16.357 16.357 0 0 1 1.935-2.159 2.439 2.439 0 0 0 2.168 2.423 13.073 13.073 0 0 0-1.743 2.02Zm5.07 22.707.817-3.169a12.908 12.908 0 0 0 2.342.679s-.743 2.884-.812 3.154a16.11 16.11 0 0 1-2.347-.664Z" fill="#f5f6fa" fill-rule="evenodd"/><path data-name="Path 1400" d="M21.646 33.926h14.632a1.63 1.63 0 0 0 1.625-1.63V30.67H20.02v1.626a1.631 1.631 0 0 0 1.626 1.63Z" fill="#fff" fill-rule="evenodd"/><path data-name="Path 1401" d="M23.299 30.761h11.38v-1.63a1.631 1.631 0 0 0-1.626-1.626h-8.129a1.631 1.631 0 0 0-1.625 1.626v1.626Z" fill="#ffd25d" fill-rule="evenodd"/><path data-name="Path 1402" d="M21.981 41.309c-.223-.866-.732-1.626-1.626-1.626h-1.628c-.968 0-1.385.822-1.626 1.626l-1.626 6.312h8.129Z" fill="#fff" fill-rule="evenodd"/><path data-name="Path 1404" d="M37.208 47.621H2.85a1.632 1.632 0 0 0-1.626 1.626v3.252h37.609v-3.252a1.631 1.631 0 0 0-1.625-1.626Z" fill="#fff" fill-rule="evenodd"/><circle data-name="Ellipse 22" cx="3.252" cy="3.252" r="3.252" transform="translate(35.9 7.316)" fill="#ffd25d"/><path data-name="Path 1409" d="M30.21 16.2v4.121h4.871A10.57 10.57 0 1 0 30.21 16.2Zm8.942-2.382a3.252 3.252 0 1 1 3.252-3.252 3.251 3.251 0 0 1-3.253 3.253Z" fill="#fff" fill-rule="evenodd"/><path data-name="Path 1410" d="M30.522 16.201v4.121h2.439v-4.934C28.886 8.934 34.217.814 40.683.071a10.568 10.568 0 0 0-10.161 16.13Z" fill="#ffd25d" fill-rule="evenodd"/><path data-name="Path 1411" d="m20.116 22.955-1.724 1.724 2.874 1.724 1.724-1.724ZM4.598 10.884l5.052 5.052a2.439 2.439 0 0 1 3.446 0L6.322 9.163Zm8.5 5.055a2.439 2.439 0 0 1 0 3.446l3 3 1.724-1.724Z" fill="#f5f6fa" fill-rule="evenodd"/></g><g data-name="Group 728"><path data-name="Path 1412" d="m13.537 14.104-1.15-1.15 1.15-1.15 1.15 1.15Zm-2.3-2.3-1.15-1.15 1.15-1.15 1.15 1.15Z" fill="#fff"/></g></g><g data-name="Group 730"><path data-name="Path 1413" d="M32.628 52.498h1.626v1.626h-1.626Z"/><path data-name="Path 1414" d="M38.358 47.782H25.873l-.448-1.7A16.9 16.9 0 0 0 37.276 35.51h.975a2.412 2.412 0 0 0 2.439-2.378v-2.377h-3.254v-.793a2.411 2.411 0 0 0-2.439-2.378h-3.246v1.585h3.252a.8.8 0 0 1 .813.793v.793h-9.765v-.793a.8.8 0 0 1 .813-.793h3.252v-1.585h-3.247a2.412 2.412 0 0 0-2.439 2.378v.793h-3.252v2.378a2.412 2.412 0 0 0 2.439 2.378h8.349a12.073 12.073 0 0 1-7.828 5.987 2.362 2.362 0 0 0-2.146-1.455h-1.626a2.361 2.361 0 0 0-2.145 1.453 11.954 11.954 0 0 1-9.236-11.534 11.624 11.624 0 0 1 3.584-8.418 3.293 3.293 0 0 0 1.606-.439l2.02 1.97a2.336 2.336 0 0 0 .474 2.7 2.485 2.485 0 0 0 2.918.39l2.956 1.729 5.5-5.359-1.778-2.879a2.336 2.336 0 0 0-.4-2.845 2.454 2.454 0 0 0-1.724-.695 2.485 2.485 0 0 0-1.049.232L11.496 5.041l-1.145 1.121-1.25-1.219a2.333 2.333 0 0 0-.474-2.7L6.898.557l-6.9 6.726 1.724 1.682a2.463 2.463 0 0 0 1.724.7 2.494 2.494 0 0 0 1.049-.233l1.25 1.219-1.15 1.121 5.126 5a3.1 3.1 0 0 0-.43 1.252 16.339 16.339 0 0 0-1.279 22.542 17.19 17.19 0 0 0 8.918 5.526l-.448 1.7H4a2.411 2.411 0 0 0-2.439 2.378v3.963h30.29v-1.595H3.187V50.16A.814.814 0 0 1 4 49.367h34.357a.8.8 0 0 1 .813.793v2.378h-2.438v1.585h4.064V50.16a2.411 2.411 0 0 0-2.439-2.378Zm-15.554-14.65v-.793h16.258v.793a.8.8 0 0 1-.813.793H23.617a.8.8 0 0 1-.813-.793Zm7.172 7.22a13.593 13.593 0 0 0 3.8-4.842h1.767a15.311 15.311 0 0 1-10.521 9.039l-.408-1.533a13.962 13.962 0 0 0 5.363-2.663ZM12.524 19.959a1.586 1.586 0 1 1 1.627-1.585 1.608 1.608 0 0 1-1.627 1.585Zm9.767 5.942-1.44-.841 4.276-4.169.862 1.4Zm1.85-8.2a.817.817 0 0 1 .575.23.78.78 0 0 1 0 1.121l-5.748 5.6a.829.829 0 0 1-1.15 0 .78.78 0 0 1 0-1.121l5.748-5.6a.817.817 0 0 1 .575-.23ZM2.874 7.843l-.575-.561 4.6-4.484.575.561a.783.783 0 0 1 0 1.121L4.025 7.843a.829.829 0 0 1-1.151 0Zm2.874.56 2.3-2.242 1.15 1.121-2.3 2.242Zm5.748-1.121 10.346 10.089-4.6 4.484-1.92-1.872a3.091 3.091 0 0 0 .452-1.609 3.215 3.215 0 0 0-3.252-3.17 3.294 3.294 0 0 0-1.65.44l-3.974-3.878ZM5.734 29.961A14.906 14.906 0 0 1 9.681 19.91a3.229 3.229 0 0 0 1.121 1.151 13.138 13.138 0 0 0-3.443 8.9 13.548 13.548 0 0 0 10.385 13.055l-.405 1.535a15.178 15.178 0 0 1-11.605-14.59Zm13.793 12.655c.1-.37.337-.99.839-.99h1.625c.5 0 .741.62.838.99l1.364 5.164h-6.03Z"/><path data-name="Path 1415" d="M40.301 0a11.382 11.382 0 0 0-9.755 17.244v4.7h5.525A11.381 11.381 0 1 0 40.301 0Zm0 21.135a9.7 9.7 0 0 1-3.757-.75l-.15-.063h-4.223v-3.544l-.125-.2a9.755 9.755 0 1 1 8.254 4.555Z"/><path data-name="Path 1416" d="m43.69 9.14 1.209-1.209-1.15-1.15-1.208 1.209a4.041 4.041 0 0 0-1.427-.593V5.69h-1.626v1.708a4.04 4.04 0 0 0-1.427.593l-1.209-1.209-1.149 1.15 1.209 1.209a4.04 4.04 0 0 0-.593 1.427h-1.707v1.622h1.707a4.04 4.04 0 0 0 .593 1.427l-1.209 1.209 1.15 1.15 1.209-1.209a4.041 4.041 0 0 0 1.427.593v1.71h1.626v-1.707a4.04 4.04 0 0 0 1.427-.593l1.209 1.209 1.15-1.15-1.209-1.209a4.04 4.04 0 0 0 .592-1.43h1.708v-1.623h-1.708a4.042 4.042 0 0 0-.594-1.427Zm-3.389 4.678a2.439 2.439 0 1 1 2.439-2.439 2.441 2.441 0 0 1-2.439 2.44Z"/></g></g></svg>