<svg xmlns="http://www.w3.org/2000/svg" width="56.983" height="57"><g data-name="Group 731" fill="#f5f6fa"><path data-name="Path 1442" d="M.954 32.298a.864.864 0 0 1-.76-.38.929.929 0 0 1 .19-1.33l4.75-3.8a1.351 1.351 0 0 1 .57-.19h6.65a.95.95 0 1 1 0 1.9h-6.27l-4.465 3.613a2.418 2.418 0 0 1-.665.187Z"/><path data-name="Path 1443" d="m24.706 14.248-7.03-.665a14.237 14.237 0 0 1-6.935-2.47 14.8 14.8 0 0 1-4.655-5.035l-2.185-3.8a.961.961 0 0 1 .38-1.235 1.052 1.052 0 0 1 1.33.38l2.185 3.8a13.8 13.8 0 0 0 4.085 4.37 12.6 12.6 0 0 0 6.08 2.09l6.935.665a.958.958 0 0 1 .855 1.045 1.21 1.21 0 0 1-1.045.855Z"/><path data-name="Path 1444" d="M56.058 32.298a1.349 1.349 0 0 1-.57-.19l-4.56-3.61h-6.27a.95.95 0 1 1 0-1.9h6.65a1.349 1.349 0 0 1 .57.19l4.75 3.8a1.022 1.022 0 0 1 .19 1.33.864.864 0 0 1-.76.38Z"/><path data-name="Path 1445" d="M32.306 14.248a1.01 1.01 0 0 1-.95-.855 1.034 1.034 0 0 1 .855-1.045l6.935-.665a13.674 13.674 0 0 0 6.08-2.09 13.8 13.8 0 0 0 4.085-4.37l2.185-3.8a.907.907 0 0 1 1.235-.38 1.052 1.052 0 0 1 .38 1.33l-2.185 3.8a15.716 15.716 0 0 1-4.655 5.035 16.456 16.456 0 0 1-6.935 2.47l-7.03.57Z"/><path data-name="Path 1446" d="M39.618 20.328a20.087 20.087 0 0 0-10.166-6.745l-.95-.285-.95.285a20.088 20.088 0 0 0-10.166 6.745C12.066 27.073 3.8 39.328 3.8 51.3c0 0 0 7.41 9.5 3.8 0 0 11.306-4.94 15.2-10.451C32.4 50.159 43.7 55.1 43.7 55.1c9.5 3.61 9.5-3.8 9.5-3.8 0-11.971-8.265-24.226-13.586-30.972"/></g><path data-name="Path 1447" d="M39.622 20.328a20.087 20.087 0 0 0-10.166-6.745l-.95-.285-.95.285c-.19 0-.285.095-.475.19a20.508 20.508 0 0 1 9.6 6.555c5.32 6.65 13.586 19 13.586 30.972 0 0 0 3.9-3.705 4.655 6.65 1.045 6.65-4.655 6.65-4.655 0-11.971-8.265-24.321-13.586-30.972" fill="#ffd25d"/><path data-name="Path 1448" d="M17.39 20.328a20.087 20.087 0 0 1 10.166-6.745l.95-.285.95.285c.19 0 .285.095.475.19a20.509 20.509 0 0 0-9.6 6.555c-5.415 6.65-13.681 19-13.681 30.972 0 0 0 3.9 3.705 4.655C3.8 57 3.8 51.3 3.8 51.3c0-11.971 8.266-24.226 13.586-30.972" fill="#fff"/><g data-name="Group 732"><path data-name="Path 1449" d="M28.505 13.297v31.352" fill="#ffe100"/><path data-name="Path 1450" d="M23.755 9.497c0-2.09 2.09-3.8 4.75-3.8s4.75 1.71 4.75 3.8-2.09 3.8-4.75 3.8-4.75-1.71-4.75-3.8" fill="#f5f6fa"/></g><path data-name="Path 1451" d="M28.506 5.697a3.233 3.233 0 0 0-.95.095c2.185.38 3.8 1.9 3.8 3.705s-1.615 3.325-3.8 3.705a3.233 3.233 0 0 0 .95.095c2.66 0 4.75-1.71 4.75-3.8s-2.09-3.8-4.75-3.8" fill="#ffd25d"/><path data-name="Path 1452" d="M28.506 5.697a3.233 3.233 0 0 1 .95.095c-2.185.38-3.8 1.9-3.8 3.705s1.615 3.325 3.8 3.705a3.233 3.233 0 0 1-.95.095c-2.66 0-4.75-1.71-4.75-3.8s2.09-3.8 4.75-3.8" fill="#fff"/><g data-name="Group 733" fill="#f5f6fa"><path data-name="Path 1453" d="M19.955 41.799a3.8 3.8 0 1 1-3.8-3.8 3.811 3.811 0 0 1 3.8 3.8"/><path data-name="Path 1454" d="M44.656 41.799a3.8 3.8 0 1 1-3.8-3.8 3.811 3.811 0 0 1 3.8 3.8"/></g><g data-name="Group 734" fill="#ffd25d"><path data-name="Path 1455" d="M40.856 37.999a3.812 3.812 0 0 0-1.425.285 3.789 3.789 0 0 1 0 7.03 3.8 3.8 0 1 0 1.425-7.315"/><path data-name="Path 1456" d="M16.155 37.999a3.812 3.812 0 0 0-1.425.285 3.789 3.789 0 0 1 0 7.03 3.8 3.8 0 1 0 1.425-7.315"/></g><path data-name="Path 1457" d="M48.262 57a14.389 14.389 0 0 1-4.845-1.045c-.475-.19-10.356-4.56-14.821-9.785-4.56 5.225-14.346 9.6-14.821 9.785A15.372 15.372 0 0 1 8.835 57a5.594 5.594 0 0 1-5.985-5.7c0-12.446 8.645-25.081 13.776-31.542a21.445 21.445 0 0 1 10.641-7.125l.95-.285a.424.424 0 0 1 .475 0l.95.285a20.647 20.647 0 0 1 10.641 7.125c5.225 6.46 13.871 19.1 13.871 31.542a5.565 5.565 0 0 1-5.892 5.7ZM28.501 43.7a1.173 1.173 0 0 1 .76.38c3.705 5.32 14.726 10.07 14.821 10.166a12.141 12.141 0 0 0 4.18.855 3.685 3.685 0 0 0 3.99-3.8c0-11.781-8.36-24.131-13.4-30.4a19.306 19.306 0 0 0-9.691-6.46l-.665-.19-.665.19a18.91 18.91 0 0 0-9.691 6.46c-5.035 6.27-13.4 18.526-13.4 30.4a3.754 3.754 0 0 0 3.99 3.8 11.253 11.253 0 0 0 4.18-.95c.095 0 11.021-4.845 14.726-10.07a1.707 1.707 0 0 1 .87-.381Z"/><path data-name="Path 1458" d="M28.506 45.6a.9.9 0 0 1-.95-.95V13.298a.95.95 0 1 1 1.9 0V44.65a.9.9 0 0 1-.95.95Z"/><path data-name="Path 1459" d="M28.505 14.247c-3.135 0-5.7-2.09-5.7-4.75s2.565-4.75 5.7-4.75 5.7 2.09 5.7 4.75-2.565 4.75-5.7 4.75Zm0-7.6c-2.09 0-3.8 1.235-3.8 2.85s1.71 2.85 3.8 2.85 3.8-1.235 3.8-2.85-1.709-2.85-3.8-2.85Z"/><path data-name="Path 1460" d="M23.755 9.497a3.8 3.8 0 0 1 0-7.6.95.95 0 1 1 0 1.9 1.9 1.9 0 0 0 0 3.8.95.95 0 0 1 0 1.9Z"/><path data-name="Path 1461" d="M33.256 9.497a.95.95 0 0 1 0-1.9 1.9 1.9 0 1 0 0-3.8.95.95 0 0 1 0-1.9 3.8 3.8 0 1 1 0 7.6Z"/><path data-name="Path 1462" d="M.954 31.348a.864.864 0 0 1-.76-.38.929.929 0 0 1 .19-1.33l4.75-3.8a1.351 1.351 0 0 1 .57-.19h6.65a.95.95 0 1 1 0 1.9h-6.27l-4.465 3.606a2.415 2.415 0 0 1-.665.194Z"/><path data-name="Path 1463" d="m24.705 13.3-7.03-.665a14.237 14.237 0 0 1-6.935-2.47A14.8 14.8 0 0 1 6.085 5.13L3.899 1.327a.961.961 0 0 1 .38-1.235 1.052 1.052 0 0 1 1.33.38l2.185 3.8a13.8 13.8 0 0 0 4.085 4.37 12.6 12.6 0 0 0 6.08 2.09l6.933.668a.958.958 0 0 1 .855 1.045 1.21 1.21 0 0 1-1.042.855Z"/><path data-name="Path 1464" d="M56.058 31.353a1.349 1.349 0 0 1-.57-.19l-4.56-3.61h-6.27a.95.95 0 1 1 0-1.9h6.65a1.349 1.349 0 0 1 .57.19l4.75 3.8a1.022 1.022 0 0 1 .19 1.33.864.864 0 0 1-.76.38Z"/><path data-name="Path 1465" d="M32.306 13.301a1.01 1.01 0 0 1-.95-.855 1.034 1.034 0 0 1 .855-1.045l6.935-.665a13.674 13.674 0 0 0 6.08-2.09 13.8 13.8 0 0 0 4.085-4.37l2.185-3.8a.907.907 0 0 1 1.235-.38 1.052 1.052 0 0 1 .38 1.33l-2.185 3.8a15.715 15.715 0 0 1-4.655 5.035 16.456 16.456 0 0 1-6.935 2.47l-7.03.57Z"/><path data-name="Path 1466" d="M16.155 46.549a4.75 4.75 0 1 1 4.75-4.75 4.7 4.7 0 0 1-4.75 4.75Zm0-7.6a2.85 2.85 0 1 0 2.85 2.85 2.8 2.8 0 0 0-2.85-2.85Z"/><path data-name="Path 1467" d="M40.856 46.549a4.75 4.75 0 1 1 4.75-4.75 4.7 4.7 0 0 1-4.75 4.75Zm0-7.6a2.85 2.85 0 1 0 2.85 2.85 2.8 2.8 0 0 0-2.85-2.85Z"/></svg>