<svg xmlns="http://www.w3.org/2000/svg" width="56.406" height="56.4"><g data-name="031---University"><path d="M15.041 50.759h26.323v3.76a.94.94 0 0 1-.94.94H15.981a.94.94 0 0 1-.94-.94Z" fill="#ffd25d"/><path data-name="Shape" d="M15.04 54.519H1.88a.94.94 0 0 1-.94-.94v-1.88a.94.94 0 0 1 .94-.94h13.16ZM41.364 54.519h13.161a.94.94 0 0 0 .94-.94v-1.88a.94.94 0 0 0-.94-.94H41.364Z" fill="#ffd25d"/><path d="M16.922 28.197h22.562v22.562H16.922Z" fill="#f5f6fa"/><path data-name="Shape" d="M43.244 20.676v2.82a.94.94 0 0 1-.94.94H14.101a.94.94 0 0 1-.94-.94v-2.82Z" fill="#ffd25d"/><path data-name="Shape" d="M43.244 20.677H13.161l4.136-4.964a1.88 1.88 0 0 1 1.448-.677h18.078a1.88 1.88 0 0 1 1.338.555Z" fill="#f5f6fa"/><path data-name="Rectangle-path" d="M15.041 24.437h26.323v3.76H15.041Z" fill="#ffd25d"/><path data-name="Rectangle-path" d="M39.484 28.197h15.042v22.562H39.484Z" fill="#f5f6fa"/><path data-name="Rectangle-path" d="M51.705 28.197h2.82v22.562h-2.82Z" fill="#f5f6fa"/><path data-name="Shape" d="M54.525 28.197H41.364v-3.761h.94a.94.94 0 0 0 .94-.94v-.94h7.3a1.88 1.88 0 0 1 1.683 1.044Z" fill="#ffd25d"/><path data-name="Rectangle-path" d="M1.88 28.197h15.042v22.562H1.88Z" fill="#f5f6fa"/><path data-name="Shape" d="M15.041 24.436v3.76H1.88l2.3-4.6a1.88 1.88 0 0 1 1.686-1.04h7.3v.94a.94.94 0 0 0 .94.94Z" fill="#ffd25d"/><path data-name="Rectangle-path" d="M24.442 38.538h7.521v12.221h-7.521Z" fill="#ffd25d"/><path data-name="Shape" d="m40.668 6.076-4 1.081-8.226 2.238a1 1 0 0 1-.47 0l-8.23-2.238-4-1.081a.94.94 0 0 1 0-1.824L27.963.962a1 1 0 0 1 .47 0l12.221 3.29a.94.94 0 0 1 .019 1.824Z" fill="#ffd25d"/><path data-name="Shape" d="M36.664 7.158v7.88H19.742v-7.88l8.226 2.237a1 1 0 0 0 .47 0Z" fill="#ffd25d"/><path data-name="Shape" d="M55.466 50.083V28.194a1 1 0 0 0-.1-.414l-2.294-4.6a2.82 2.82 0 0 0-2.529-1.57h-6.358v-.94a.94.94 0 0 0-.273-.667l-5.1-5.086a2.736 2.736 0 0 0-1.213-.705v-6.33l1.88-.508v2.275a2.82 2.82 0 0 0 1.288 2.4.884.884 0 0 0 .517.16.94.94 0 0 0 .526-1.72 1.006 1.006 0 0 1-.451-.837V6.829a1.913 1.913 0 0 0-.451-3.488L28.682.06a1.88 1.88 0 0 0-.94 0L15.521 3.341a1.88 1.88 0 0 0 0 3.648l3.309.94v6.165h-.056a2.82 2.82 0 0 0-2.174 1.017l-4.136 4.964a.94.94 0 0 0-.244.6v.94H5.866a2.82 2.82 0 0 0-2.529 1.561l-2.294 4.6a1 1 0 0 0-.1.423v21.884A1.88 1.88 0 0 0 0 51.7v1.88a1.88 1.88 0 0 0 1.88 1.88h12.485a1.88 1.88 0 0 0 1.617.94h24.442a1.88 1.88 0 0 0 1.617-.94h12.485a1.88 1.88 0 0 0 1.88-1.88V51.7a1.88 1.88 0 0 0-.94-1.617Zm-14.1-.263h-.94V29.137h13.16V49.82Zm-10.341 0h-5.642V39.478h5.641Zm.94-12.221h-7.522a.94.94 0 0 0-.94.94V49.82h-5.641V29.137h20.682V49.82H32.9V38.538a.94.94 0 0 0-.937-.944ZM42.3 21.617v1.877H14.1v-1.88Zm-1.88 3.76v1.88H15.982v-1.88Zm10.12-1.883a.94.94 0 0 1 .846.517L53 27.257H42.3v-1.88a1.88 1.88 0 0 0 1.88-1.88ZM28.2 1.875l12.221 3.29L28.2 8.455l-12.221-3.3ZM20.682 8.38l7.041 1.88a1.777 1.777 0 0 0 .94 0L35.7 8.38v5.714H20.682Zm-2.66 7.934a.94.94 0 0 1 .724-.338h18.078a.94.94 0 0 1 .667.273l3.488 3.488H15.173Zm-13 7.7a.94.94 0 0 1 .846-.517h6.355a1.88 1.88 0 0 0 1.88 1.88v1.88H3.4ZM1.88 51.7H14.1v1.88H1.88Zm13.161-1.88H2.82V29.137h13.162V49.82Zm.94 4.7V51.7h24.443v2.82Zm38.544-.94H42.3V51.7h12.226Z"/><path data-name="Shape" d="M25.383 31.017a.94.94 0 0 0-.94.94v1.88a.94.94 0 1 0 1.88 0v-1.88a.94.94 0 0 0-.94-.94ZM12.221 31.957a.94.94 0 0 0-.94.94v1.88a.94.94 0 0 0 1.88 0v-1.88a.94.94 0 0 0-.94-.94ZM6.581 31.957a.94.94 0 0 0-.94.94v1.88a.94.94 0 0 0 1.88 0v-1.88a.94.94 0 0 0-.94-.94ZM12.221 37.598a.94.94 0 0 0-.94.94v1.88a.94.94 0 1 0 1.88 0v-1.88a.94.94 0 0 0-.94-.94ZM6.581 37.598a.94.94 0 0 0-.94.94v1.88a.94.94 0 1 0 1.88 0v-1.88a.94.94 0 0 0-.94-.94ZM12.221 43.238a.94.94 0 0 0-.94.94v1.88a.94.94 0 1 0 1.88 0v-1.88a.94.94 0 0 0-.94-.94ZM6.581 43.238a.94.94 0 0 0-.94.94v1.88a.94.94 0 1 0 1.88 0v-1.88a.94.94 0 0 0-.94-.94ZM49.825 31.957a.94.94 0 0 0-.94.94v1.88a.94.94 0 0 0 1.88 0v-1.88a.94.94 0 0 0-.94-.94ZM44.184 31.957a.94.94 0 0 0-.94.94v1.88a.94.94 0 0 0 1.88 0v-1.88a.94.94 0 0 0-.94-.94ZM49.825 37.598a.94.94 0 0 0-.94.94v1.88a.94.94 0 1 0 1.88 0v-1.88a.94.94 0 0 0-.94-.94ZM44.184 37.598a.94.94 0 0 0-.94.94v1.88a.94.94 0 1 0 1.88 0v-1.88a.94.94 0 0 0-.94-.94ZM49.825 43.238a.94.94 0 0 0-.94.94v1.88a.94.94 0 1 0 1.88 0v-1.88a.94.94 0 0 0-.94-.94ZM44.184 43.238a.94.94 0 0 0-.94.94v1.88a.94.94 0 1 0 1.88 0v-1.88a.94.94 0 0 0-.94-.94ZM31.023 31.017a.94.94 0 0 0-.94.94v1.88a.94.94 0 0 0 1.88 0v-1.88a.94.94 0 0 0-.94-.94Z"/></g></svg>