<svg xmlns="http://www.w3.org/2000/svg" width="54" height="54"><g data-name="049---Group-Of-Virus'"><g transform="translate(4.5 4.5)"><ellipse cx="11" cy="10.5" rx="11" ry="10.5" transform="translate(23.5 .5)" fill="#f5f6fa"/><ellipse data-name="Oval" cx="2" cy="1.5" rx="2" ry="1.5" transform="translate(28.5 6.5)" fill="#ffd25d"/><ellipse data-name="Oval" cx="2.5" cy="3" rx="2.5" ry="3" transform="translate(35.5 10.5)" fill="#ffd25d"/><ellipse data-name="Oval" cx="10.5" cy="11" rx="10.5" ry="11" transform="translate(.5 17.5)" fill="#ffd25d"/><ellipse data-name="Oval" cx="2" cy="1.5" rx="2" ry="1.5" transform="translate(5.5 24.5)" fill="#f5f6fa"/><circle data-name="Oval" cx="3" cy="3" r="3" transform="translate(11.5 28.5)" fill="#f5f6fa"/><circle data-name="Oval" cx="8" cy="8" r="8" transform="translate(29.5 29.5)" fill="#f5f6fa"/><path d="M37.8 29.7a8.141 8.141 0 0 0-1.35.121 8.09 8.09 0 0 1 0 15.957A8.1 8.1 0 1 0 37.8 29.7Z" fill="#f5f6fa"/></g><g><path data-name="Shape" d="M53.1 14.4h-2.746a11.594 11.594 0 0 0-1.114-4.145l2.38-1.376a.9.9 0 1 0-.9-1.559l-2.374 1.372a11.8 11.8 0 0 0-3.037-3.037l1.37-2.375a.9.9 0 1 0-1.559-.9l-1.375 2.38A11.575 11.575 0 0 0 39.6 3.646V.9a.9.9 0 1 0-1.8 0v2.746a11.575 11.575 0 0 0-4.145 1.114l-1.376-2.38a.9.9 0 1 0-1.559.9l1.371 2.375a11.8 11.8 0 0 0-3.038 3.037L26.68 7.321a.9.9 0 1 0-.9 1.559l2.38 1.375a11.594 11.594 0 0 0-1.114 4.145H24.3a.9.9 0 1 0 0 1.8h2.746a11.594 11.594 0 0 0 1.114 4.145l-2.38 1.375a.9.9 0 1 0 .9 1.559l2.374-1.372a11.8 11.8 0 0 0 3.038 3.038l-1.371 2.375a.9.9 0 1 0 1.559.9l1.375-2.381a11.575 11.575 0 0 0 4.145 1.115V29.7a.9.9 0 1 0 1.8 0v-2.746a11.575 11.575 0 0 0 4.145-1.114l1.375 2.381a.9.9 0 1 0 1.559-.9l-1.371-2.375a11.8 11.8 0 0 0 3.037-3.038l2.374 1.372a.9.9 0 1 0 .9-1.559l-2.379-1.376a11.594 11.594 0 0 0 1.114-4.145H53.1a.9.9 0 1 0 0-1.8ZM38.7 25.2a9.9 9.9 0 1 1 9.9-9.9 9.9 9.9 0 0 1-9.9 9.9Z"/><path data-name="Shape" d="M35.1 9.9a2.7 2.7 0 1 0 2.7 2.7 2.7 2.7 0 0 0-2.7-2.7Zm0 3.6a.9.9 0 1 1 .9-.9.9.9 0 0 1-.9.9ZM42.3 14.4a3.6 3.6 0 1 0 3.6 3.6 3.6 3.6 0 0 0-3.6-3.6Zm0 5.4a1.8 1.8 0 1 1 1.8-1.8 1.8 1.8 0 0 1-1.8 1.8Z"/><ellipse data-name="Oval" cx=".5" cy="1" rx=".5" ry="1" transform="translate(40 9)"/><circle data-name="Oval" cx="1" cy="1" r="1" transform="translate(34 18)"/><path data-name="Shape" d="M.9 34.2h2.746a11.594 11.594 0 0 0 1.114 4.145l-2.38 1.376a.9.9 0 1 0 .9 1.559l2.374-1.372a11.8 11.8 0 0 0 3.037 3.038l-1.37 2.374a.9.9 0 1 0 1.559.9l1.375-2.381a11.575 11.575 0 0 0 4.145 1.115V47.7a.9.9 0 0 0 1.8 0v-2.746a11.575 11.575 0 0 0 4.145-1.114l1.375 2.381a.9.9 0 1 0 1.559-.9l-1.371-2.375a11.8 11.8 0 0 0 3.037-3.038l2.374 1.372a.9.9 0 1 0 .9-1.559l-2.379-1.376a11.594 11.594 0 0 0 1.114-4.145H29.7a.9.9 0 1 0 0-1.8h-2.746a11.594 11.594 0 0 0-1.114-4.145l2.381-1.375a.9.9 0 1 0-.9-1.559l-2.374 1.372a11.8 11.8 0 0 0-3.037-3.037l1.371-2.375a.9.9 0 1 0-1.559-.9l-1.375 2.38a11.575 11.575 0 0 0-4.147-1.115V18.9a.9.9 0 0 0-1.8 0v2.746a11.575 11.575 0 0 0-4.145 1.114l-1.376-2.38a.9.9 0 1 0-1.559.9l1.371 2.375a11.8 11.8 0 0 0-3.037 3.037L3.28 25.321a.9.9 0 1 0-.9 1.559l2.38 1.375A11.594 11.594 0 0 0 3.646 32.4H.9a.9.9 0 1 0 0 1.8Zm14.4-10.8a9.9 9.9 0 1 1-9.9 9.9 9.9 9.9 0 0 1 9.9-9.9Z"/><path data-name="Shape" d="M11.7 33.3A2.7 2.7 0 1 0 9 30.6a2.7 2.7 0 0 0 2.7 2.7Zm0-3.6a.9.9 0 1 1-.9.9.9.9 0 0 1 .9-.9ZM18.9 39.6a3.6 3.6 0 1 0-3.6-3.6 3.6 3.6 0 0 0 3.6 3.6Zm0-5.4a1.8 1.8 0 1 1-1.8 1.8 1.8 1.8 0 0 1 1.8-1.8Z"/><circle data-name="Oval" cx="1" cy="1" r="1" transform="translate(16 27)"/><circle data-name="Oval" cx="1" cy="1" r="1" transform="translate(11 36)"/><path data-name="Shape" d="M53.1 43.2a.9.9 0 1 0 0-1.8h-1.846a8.91 8.91 0 0 0-.756-2.79l1.606-.927a.9.9 0 0 0-.9-1.559l-1.609.929a9.063 9.063 0 0 0-2.044-2.043l.929-1.609a.9.9 0 0 0-1.559-.9l-.931 1.6a8.91 8.91 0 0 0-2.79-.756V31.5a.9.9 0 1 0-1.8 0v1.846a8.91 8.91 0 0 0-2.79.756l-.927-1.602a.9.9 0 1 0-1.559.9l.925 1.614a9.063 9.063 0 0 0-2.039 2.039l-1.61-.932a.9.9 0 0 0-.9 1.559l1.606.927a8.91 8.91 0 0 0-.756 2.79H31.5a.9.9 0 0 0 0 1.8h1.846a8.91 8.91 0 0 0 .756 2.79l-1.606.927a.9.9 0 1 0 .9 1.559l1.614-.922a9.063 9.063 0 0 0 2.044 2.044l-.929 1.605a.9.9 0 1 0 1.559.9l.927-1.606a8.91 8.91 0 0 0 2.79.756v1.85a.9.9 0 1 0 1.8 0v-1.846a8.91 8.91 0 0 0 2.79-.756l.927 1.606a.9.9 0 0 0 1.559-.9l-.929-1.609a9.063 9.063 0 0 0 2.044-2.044l1.609.929a.9.9 0 0 0 .9-1.559l-1.6-.931a8.91 8.91 0 0 0 .756-2.79Zm-10.8 6.3a7.2 7.2 0 1 1 7.2-7.2 7.2 7.2 0 0 1-7.2 7.2Z"/><circle data-name="Oval" cx="1" cy="1" r="1" transform="translate(42 38)"/><ellipse data-name="Oval" cx="1" cy=".5" rx="1" ry=".5" transform="translate(38 39)"/><circle data-name="Oval" cx="1" cy="1" r="1" transform="translate(45 43)"/><circle data-name="Oval" cx="1" cy="1" r="1" transform="translate(39 44)"/></g></g></svg>