<svg xmlns="http://www.w3.org/2000/svg" width="57.333" height="57.323"><path data-name="Path 1417" d="M38.116 35.067a3.952 3.952 0 0 0 .852 2.457A12.047 12.047 0 0 0 50.76 25.495a2.723 2.723 0 1 0-4.583 1.511 4.1 4.1 0 0 1-4.091 4.091 3.971 3.971 0 0 0-3.971 3.97Zm0 0" fill="#ffd25d"/><path data-name="Path 1418" d="M34.176 21.583a2.984 2.984 0 0 0 .047-4.172 2.971 2.971 0 0 0-.91.622 23.213 23.213 0 0 0-.048 32.8 2.985 2.985 0 0 0 .911-4.844 17.277 17.277 0 0 1 0-24.4Zm0 0" fill="#ffd25d"/><path data-name="Path 1419" d="M48.147 9.187a27.413 27.413 0 0 0-13.09-7.319 27.538 27.538 0 0 0-24.608 25.536c.06.051.119.1.175.161a2.945 2.945 0 0 0 4.16 0 2.855 2.855 0 1 1 4.038 4.037 8.653 8.653 0 0 1-8.042 2.313 27.554 27.554 0 0 0 20.762 22.139 27.541 27.541 0 0 0 16.6-46.866Zm-31.346 9.3a3.051 3.051 0 0 1-3.725 1.566 3.031 3.031 0 0 1 .261-1.822c.21-.436 5.263-10.7 15.969-13.111a3.036 3.036 0 0 1 1.647.086 3.048 3.048 0 0 1-2.339 3.475c-7.861 1.766-11.777 9.721-11.813 9.801Zm17.374 26.605a2.985 2.985 0 0 1-4.222 4.222 23.216 23.216 0 0 1 0-32.848 2.985 2.985 0 0 1 4.222 4.221 17.277 17.277 0 0 0 0 24.4Zm5.115-7.678a3.971 3.971 0 0 1 0-7.941 4.1 4.1 0 0 0 4.091-4.091 3.971 3.971 0 0 1 7.941 0 12.046 12.046 0 0 1-12.033 12.033Zm0 0" fill="#f5f6fa"/><path data-name="Path 1420" d="M29.793 7.273C19.77 9.531 15.039 19.139 14.842 19.547a2.84 2.84 0 0 0-.244 1.706 2.857 2.857 0 0 0 3.488-1.466c.036-.075 3.7-7.522 11.059-9.18a2.855 2.855 0 0 0 2.189-3.254 2.845 2.845 0 0 0-1.541-.08Zm0 0" fill="#ffd25d"/><path data-name="Path 1421" d="M18.71 31.377a2.855 2.855 0 0 0-1.135-4.733 2.948 2.948 0 0 1-3.282 1.015 2.948 2.948 0 0 1-3.449-.034 2.854 2.854 0 0 0 .27 4.856 8.6 8.6 0 0 0 4.043 1.038 8.6 8.6 0 0 0 3.554-2.142Zm0 0" fill="#ffd25d"/><path data-name="Path 1422" d="M29.162 16.57a24.335 24.335 0 0 0 0 34.431 4.101 4.101 0 1 0 5.8-5.8 16.157 16.157 0 0 1 0-22.821 4.101 4.101 0 0 0-5.8-5.8Zm4.222 4.222a18.287 18.287 0 0 0-4.307 6.786 1.114 1.114 0 0 0-.236-.351 1.121 1.121 0 1 0-.2 1.738 18.62 18.62 0 0 0 .2 10.315l-.009-.01a1.12 1.12 0 1 0 0 1.583 1.117 1.117 0 0 0 .319-.661 18.281 18.281 0 0 0 4.234 6.589 1.865 1.865 0 0 1-2.638 2.638 21.957 21.957 0 0 1-6.472-15.047 1.1 1.1 0 0 0 .238.352 1.119 1.119 0 1 0 0-1.583 1.1 1.1 0 0 0-.242.362 21.96 21.96 0 0 1 6.476-15.348 1.865 1.865 0 0 1 2.638 2.638Zm0 0"/><path data-name="Path 1423" d="M27.643 3.942C17.098 6.317 12.136 16.395 11.93 16.823a3.976 3.976 0 0 0 7.162 3.454c.035-.07 3.524-7.051 10.3-8.577a3.968 3.968 0 0 0 1.936-1.065 3.976 3.976 0 0 0-3.684-6.692Zm2.1 5.109a1.732 1.732 0 0 1-.845.464 15.837 15.837 0 0 0-6.7 3.421 1.093 1.093 0 0 0 .025-.23 1.119 1.119 0 1 0-1.12 1.119 1.07 1.07 0 0 0 .112-.006 21.736 21.736 0 0 0-4.144 5.481 1.737 1.737 0 1 1-3.129-1.507 18.2 18.2 0 0 1 .957-1.681 1.118 1.118 0 1 0 1.111-1.248 1.11 1.11 0 0 0-.3.043 22.557 22.557 0 0 1 9.69-7.932 1.109 1.109 0 0 0-.071.386 1.12 1.12 0 1 0 1.911-.791 1.09 1.09 0 0 0-.2-.16c.358-.1.723-.2 1.1-.285a1.737 1.737 0 0 1 1.608 2.925Zm0 0"/><path data-name="Path 1424" d="M5.684 26.548a3.979 3.979 0 0 0 0 5.621 9.781 9.781 0 0 0 13.818 0 3.975 3.975 0 1 0-5.621-5.621 1.825 1.825 0 0 1-2.576 0 3.979 3.979 0 0 0-5.621 0Zm9.781 1.583a1.735 1.735 0 1 1 2.454 2.454 7.542 7.542 0 0 1-10.652 0 1.735 1.735 0 0 1 2.454-2.454 4.064 4.064 0 0 0 5.743 0Zm0 0"/><path data-name="Path 1425" d="M9.198 10.306a1.116 1.116 0 0 0 .793-.329l.059-.059a1.12 1.12 0 0 0-1.583-1.583l-.061.061a1.12 1.12 0 0 0 .793 1.91Zm0 0"/><path data-name="Path 1426" d="M48.939 8.395a28.668 28.668 0 0 0-37.084-2.947 1.12 1.12 0 1 0 1.316 1.811 26.42 26.42 0 1 1-6.27 6.428 1.12 1.12 0 1 0-1.844-1.271 28.664 28.664 0 1 0 43.882-4.021Zm0 0"/><path data-name="Path 1427" d="M16.564 30.919a1.12 1.12 0 1 0-.791-.328 1.123 1.123 0 0 0 .791.328Zm0 0"/><path data-name="Path 1428" d="M8.194 29.136a1.12 1.12 0 1 0 .793-.328 1.126 1.126 0 0 0-.793.328Zm0 0"/><path data-name="Path 1429" d="M29.742 47.047a1.119 1.119 0 1 0-.791-.328 1.13 1.13 0 0 0 .791.328Zm0 0"/><path data-name="Path 1430" d="M18.683 38.505a1.12 1.12 0 1 0-.328.791 1.126 1.126 0 0 0 .328-.791Zm0 0"/><path data-name="Path 1431" d="M8.08 36.701a1.12 1.12 0 1 0 .792-.328 1.126 1.126 0 0 0-.792.328Zm0 0"/><path data-name="Path 1432" d="M18.615 48.355a1.118 1.118 0 1 0-.793-.328 1.129 1.129 0 0 0 .793.328Zm0 0"/><path data-name="Path 1433" d="M40.249 8.718a1.12 1.12 0 1 0 .791.328 1.127 1.127 0 0 0-.791-.328Zm0 0"/><path data-name="Path 1434" d="M40.107 18.009a1.119 1.119 0 1 0 .328-.793 1.122 1.122 0 0 0-.328.793Zm0 0"/><path data-name="Path 1435" d="M39.076 47.706a1.119 1.119 0 1 0 .792-.328 1.129 1.129 0 0 0-.792.328Zm0 0"/><path data-name="Path 1436" d="M47.118 38.715a1.119 1.119 0 1 0 .792-.328 1.13 1.13 0 0 0-.792.328Zm0 0"/><path data-name="Path 1437" d="M37.792 33.042a1.12 1.12 0 1 0 .328-.792 1.128 1.128 0 0 0-.328.792Zm0 0"/><path data-name="Path 1438" d="M44.706 32.589a1.119 1.119 0 1 0-.791-.328 1.126 1.126 0 0 0 .791.328Zm0 0"/><path data-name="Path 1439" d="M46.881 26.827a1.118 1.118 0 1 0-.793-.328 1.13 1.13 0 0 0 .793.328Zm0 0"/><path data-name="Path 1440" d="M29.836 19.886a1.12 1.12 0 1 0 .792.328 1.129 1.129 0 0 0-.792-.328Zm0 0"/><path data-name="Path 1441" d="M33.64 33.555a5.1 5.1 0 0 0 5.09 5.09 13.167 13.167 0 0 0 13.152-13.152 5.09 5.09 0 0 0-10.181 0 2.975 2.975 0 0 1-2.971 2.971 5.1 5.1 0 0 0-5.09 5.091Zm10.3-8.062a2.851 2.851 0 0 1 5.7 0 10.925 10.925 0 0 1-10.91 10.913 2.851 2.851 0 1 1 0-5.7 5.216 5.216 0 0 0 5.211-5.213Zm0 0"/></svg>