<svg xmlns="http://www.w3.org/2000/svg" width="61.644" height="57.667" viewBox="0 0 61.644 57.667">
  <g id="people" transform="translate(-8 -24)">
    <g id="Group_641" data-name="Group 641" transform="translate(8.994 24.994)">
      <path id="Path_1096" data-name="Path 1096" d="M166.96,168.948,163.977,160H160l2.983,8.948Z" transform="translate(-142.104 -144.092)" fill="#ffd25d"/>
      <path id="Path_1097" data-name="Path 1097" d="M248,47.908l10.937,3.977V32L248,35.977Z" transform="translate(-219.167 -32)" fill="#ffd25d"/>
      <path id="Path_1098" data-name="Path 1098" d="M112,88h2.983v5.965H112Z" transform="translate(-100.069 -81.04)" fill="#ffd25d"/>
      <path id="Path_1099" data-name="Path 1099" d="M57.8,291.921l.138-.068-.148.03a5.183,5.183,0,0,0-1.309-2.364A4.885,4.885,0,0,0,52.971,288,4.973,4.973,0,0,0,48,292.971v.87S51.916,294.821,57.8,291.921Z" transform="translate(-44.023 -256.184)" fill="#f5f6fa"/>
      <path id="Path_1100" data-name="Path 1100" d="M28.925,416H26.937a1.989,1.989,0,1,1-3.977,0H20.971A4.971,4.971,0,0,0,16,420.971v2.983H33.9v-2.983A4.971,4.971,0,0,0,28.925,416Z" transform="translate(-16 -368.276)" fill="#f5f6fa"/>
      <path id="Path_1101" data-name="Path 1101" d="M216,293.841s3.916.979,9.8-1.92l.138-.068-.148.03a5.183,5.183,0,0,0-1.309-2.364A4.885,4.885,0,0,0,220.971,288,4.973,4.973,0,0,0,216,292.971Z" transform="translate(-191.144 -256.184)" fill="#f5f6fa"/>
      <path id="Path_1102" data-name="Path 1102" d="M196.925,416h-1.988a1.989,1.989,0,1,1-3.977,0h-1.988A4.971,4.971,0,0,0,184,420.971v2.983h17.9v-2.983A4.971,4.971,0,0,0,196.925,416Z" transform="translate(-163.121 -368.276)" fill="#f5f6fa"/>
      <path id="Path_1103" data-name="Path 1103" d="M393.8,291.921l.138-.068-.148.03a5.183,5.183,0,0,0-1.309-2.364A4.885,4.885,0,0,0,388.971,288,4.973,4.973,0,0,0,384,292.971v.87S387.916,294.821,393.8,291.921Z" transform="translate(-338.264 -256.184)" fill="#f5f6fa"/>
      <path id="Path_1104" data-name="Path 1104" d="M364.925,416h-1.988a1.989,1.989,0,1,1-3.977,0h-1.988A4.971,4.971,0,0,0,352,420.971v2.983h17.9v-2.983A4.971,4.971,0,0,0,364.925,416Z" transform="translate(-310.241 -368.276)" fill="#f5f6fa"/>
    </g>
    <g id="Group_642" data-name="Group 642" transform="translate(8 24)">
      <path id="Path_1105" data-name="Path 1105" d="M133.4,24.18a.993.993,0,0,0-.91-.121l-10.773,3.917H107.977a.994.994,0,0,0-.994.994V30.96h-1.988a.994.994,0,0,0-.994.994v5.966a.994.994,0,0,0,.994.994h1.988V40.9a.994.994,0,0,0,.994.994h2.266L113,50.165a.994.994,0,0,0,.943.68h3.977a.994.994,0,0,0,.943-1.309l-2.547-7.64h5.4l10.773,3.917a.994.994,0,0,0,1.334-.935V24.994A.992.992,0,0,0,133.4,24.18ZM106.983,36.925h-.994V32.948h.994Zm9.557,11.931h-1.88l-2.32-6.96h1.88Zm4.362-8.948H108.971V29.965H120.9Zm10.937,3.552-8.948-3.254V29.667l8.948-3.254Z" transform="translate(-92.069 -24)" fill="#111"/>
      <path id="Path_1106" data-name="Path 1106" d="M189.919,295.908h-.994v-.8a5.967,5.967,0,0,0,2.983-5.163v-3.977c0-.028,0-.057,0-.084a6.118,6.118,0,0,0-1.732-4.06,5.849,5.849,0,0,0-4.23-1.822,5.972,5.972,0,0,0-5.965,5.965v3.977a5.967,5.967,0,0,0,2.983,5.163v.8h-.994A5.972,5.972,0,0,0,176,301.874v2.983a.994.994,0,0,0,.994.994h17.9a.994.994,0,0,0,.994-.994v-2.983A5.972,5.972,0,0,0,189.919,295.908Zm-3.977-13.919a4.03,4.03,0,0,1,3.605,2.4,17.875,17.875,0,0,1-5.806,1.568,11.325,11.325,0,0,1-1.777.01v0A3.981,3.981,0,0,1,185.942,281.989Zm-3.977,5.976c.233.015.5.025.789.025a18.5,18.5,0,0,0,7.165-1.589v3.543a3.977,3.977,0,0,1-7.954,0Zm3.977,7.944a5.991,5.991,0,0,0,.994-.084V296.9a.994.994,0,1,1-1.989,0v-1.079A5.991,5.991,0,0,0,185.942,295.908Zm7.954,7.954h-1.988v-.994a.994.994,0,1,0-1.988,0v.994h-7.954v-.994a.994.994,0,1,0-1.989,0v.994h-1.989v-1.988a3.981,3.981,0,0,1,3.977-3.977h1.165a2.983,2.983,0,0,0,5.623,0h1.165a3.981,3.981,0,0,1,3.977,3.977Z" transform="translate(-155.121 -248.184)" fill="#111"/>
      <path id="Path_1107" data-name="Path 1107" d="M21.92,295.908h-.994v-.8a5.967,5.967,0,0,0,2.983-5.163v-3.977c0-.028,0-.057,0-.084a6.118,6.118,0,0,0-1.732-4.06A5.849,5.849,0,0,0,17.943,280a5.972,5.972,0,0,0-5.966,5.965v3.977a5.967,5.967,0,0,0,2.983,5.163v.8h-.994A5.972,5.972,0,0,0,8,301.874v2.983a.994.994,0,0,0,.994.994h17.9a.994.994,0,0,0,.994-.994v-2.983a5.972,5.972,0,0,0-5.966-5.966Zm-3.977-13.919a4.03,4.03,0,0,1,3.605,2.4,17.874,17.874,0,0,1-5.806,1.568,11.325,11.325,0,0,1-1.777.01v0a3.981,3.981,0,0,1,3.977-3.977Zm-3.977,5.976c.233.015.5.025.789.025A18.5,18.5,0,0,0,21.92,286.4v3.543a3.977,3.977,0,0,1-7.954,0Zm3.977,7.944a5.991,5.991,0,0,0,.994-.084V296.9a.994.994,0,1,1-1.989,0v-1.079A5.991,5.991,0,0,0,17.943,295.908Zm7.954,7.954H23.908v-.994a.994.994,0,1,0-1.988,0v.994H13.966v-.994a.994.994,0,1,0-1.989,0v.994H9.989v-1.988a3.981,3.981,0,0,1,3.977-3.977h1.165a2.983,2.983,0,0,0,5.623,0H21.92a3.981,3.981,0,0,1,3.977,3.977Z" transform="translate(-8 -248.184)" fill="#111"/>
      <path id="Path_1108" data-name="Path 1108" d="M357.919,295.908h-.994v-.8a5.967,5.967,0,0,0,2.983-5.163v-3.977c0-.028,0-.057,0-.084a6.118,6.118,0,0,0-1.732-4.06,5.849,5.849,0,0,0-4.23-1.821,5.972,5.972,0,0,0-5.966,5.965v3.977a5.967,5.967,0,0,0,2.983,5.163v.8h-.994A5.972,5.972,0,0,0,344,301.874v2.983a.994.994,0,0,0,.994.994h17.9a.994.994,0,0,0,.994-.994v-2.983A5.972,5.972,0,0,0,357.919,295.908Zm-3.977-13.919a4.03,4.03,0,0,1,3.605,2.4,17.875,17.875,0,0,1-5.806,1.568,11.325,11.325,0,0,1-1.777.01v0A3.981,3.981,0,0,1,353.942,281.989Zm-3.977,5.976c.233.015.5.025.789.025a18.5,18.5,0,0,0,7.165-1.589v3.543a3.977,3.977,0,0,1-7.954,0Zm3.977,7.944a5.991,5.991,0,0,0,.994-.084V296.9a.994.994,0,1,1-1.988,0v-1.079A5.99,5.99,0,0,0,353.942,295.908Zm7.954,7.954h-1.988v-.994a.994.994,0,1,0-1.988,0v.994h-7.954v-.994a.994.994,0,0,0-1.989,0v.994h-1.988v-1.988a3.981,3.981,0,0,1,3.977-3.977h1.165a2.983,2.983,0,0,0,5.623,0h1.165a3.981,3.981,0,0,1,3.977,3.977Z" transform="translate(-302.241 -248.184)" fill="#111"/>
      <path id="Path_1109" data-name="Path 1109" d="M359.956,86.55a.994.994,0,1,0,1.293,1.511,3.974,3.974,0,0,0,0-6.039.994.994,0,1,0-1.293,1.511,1.986,1.986,0,0,1,0,3.018Z" transform="translate(-315.91 -74.602)" fill="#111"/>
      <path id="Path_1110" data-name="Path 1110" d="M375.576,65.31a4.968,4.968,0,0,1,0,7.547.994.994,0,1,0,1.293,1.511,6.957,6.957,0,0,0,0-10.568.994.994,0,1,0-1.293,1.511Z" transform="translate(-329.588 -58.644)" fill="#111"/>
    </g>
  </g>
</svg>
