<svg id="square" xmlns="http://www.w3.org/2000/svg" width="213" height="213" viewBox="0 0 213 213">
  <rect id="Rectangle_280" data-name="Rectangle 280" width="20" height="20" rx="5" fill="#fbfcff"/>
  <rect id="Rectangle_280-2" data-name="Rectangle 280" width="20" height="20" rx="5" transform="translate(48)" fill="#fbfcff"/>
  <rect id="Rectangle_280-3" data-name="Rectangle 280" width="20" height="20" rx="5" transform="translate(97)" fill="#fbfcff"/>
  <rect id="Rectangle_280-4" data-name="Rectangle 280" width="20" height="20" rx="5" transform="translate(145)" fill="#fbfcff"/>
  <rect id="Rectangle_280-5" data-name="Rectangle 280" width="20" height="20" rx="5" transform="translate(193)" fill="#fbfcff"/>
  <rect id="Rectangle_280-6" data-name="Rectangle 280" width="20" height="20" rx="5" transform="translate(0 48)" fill="#fbfcff"/>
  <rect id="Rectangle_280-7" data-name="Rectangle 280" width="20" height="20" rx="5" transform="translate(48 48)" fill="#fbfcff"/>
  <rect id="Rectangle_280-8" data-name="Rectangle 280" width="20" height="20" rx="5" transform="translate(97 48)" fill="#fbfcff"/>
  <rect id="Rectangle_280-9" data-name="Rectangle 280" width="20" height="20" rx="5" transform="translate(145 48)" fill="#fbfcff"/>
  <rect id="Rectangle_280-10" data-name="Rectangle 280" width="20" height="20" rx="5" transform="translate(193 48)" fill="#fbfcff"/>
  <rect id="Rectangle_280-11" data-name="Rectangle 280" width="20" height="20" rx="5" transform="translate(0 97)" fill="#fbfcff"/>
  <rect id="Rectangle_280-12" data-name="Rectangle 280" width="20" height="20" rx="5" transform="translate(48 97)" fill="#fbfcff"/>
  <rect id="Rectangle_280-13" data-name="Rectangle 280" width="20" height="20" rx="5" transform="translate(97 97)" fill="#fbfcff"/>
  <rect id="Rectangle_280-14" data-name="Rectangle 280" width="20" height="20" rx="5" transform="translate(145 97)" fill="#fbfcff"/>
  <rect id="Rectangle_280-15" data-name="Rectangle 280" width="20" height="20" rx="5" transform="translate(193 97)" fill="#fbfcff"/>
  <rect id="Rectangle_280-16" data-name="Rectangle 280" width="20" height="20" rx="5" transform="translate(0 145)" fill="#fbfcff"/>
  <rect id="Rectangle_280-17" data-name="Rectangle 280" width="20" height="20" rx="5" transform="translate(48 145)" fill="#fbfcff"/>
  <rect id="Rectangle_280-18" data-name="Rectangle 280" width="20" height="20" rx="5" transform="translate(97 145)" fill="#fbfcff"/>
  <rect id="Rectangle_280-19" data-name="Rectangle 280" width="20" height="20" rx="5" transform="translate(145 145)" fill="#fbfcff"/>
  <rect id="Rectangle_280-20" data-name="Rectangle 280" width="20" height="20" rx="5" transform="translate(193 145)" fill="#fbfcff"/>
  <rect id="Rectangle_280-21" data-name="Rectangle 280" width="20" height="20" rx="5" transform="translate(0 193)" fill="#fbfcff"/>
  <rect id="Rectangle_280-22" data-name="Rectangle 280" width="20" height="20" rx="5" transform="translate(48 193)" fill="#fbfcff"/>
  <rect id="Rectangle_280-23" data-name="Rectangle 280" width="20" height="20" rx="5" transform="translate(97 193)" fill="#fbfcff"/>
  <rect id="Rectangle_280-24" data-name="Rectangle 280" width="20" height="20" rx="5" transform="translate(145 193)" fill="#fbfcff"/>
  <rect id="Rectangle_280-25" data-name="Rectangle 280" width="20" height="20" rx="5" transform="translate(193 193)" fill="#fbfcff"/>
</svg>
