<svg xmlns="http://www.w3.org/2000/svg" width="44.052" height="56" viewBox="0 0 44.052 56">
  <g id="student" transform="translate(-72 -21.98)">
    <path id="Path_1680" data-name="Path 1680" d="M397.237,212.82a2.367,2.367,0,1,1-2.367,2.367A2.367,2.367,0,0,1,397.237,212.82Z" transform="translate(-284.237 -168.006)" fill="#f5f6fa"/>
    <path id="Path_1681" data-name="Path 1681" d="M105.041,352.33h6.037a8.364,8.364,0,0,1,8.364,8.364v7.393H77.56v-7.393a8.364,8.364,0,0,1,8.365-8.364h6l6.4,4.179Z" transform="translate(-4.895 -290.823)" fill="#ffd25d"/>
    <path id="Path_1682" data-name="Path 1682" d="M96.992,37.544,90.71,35.1l19.368-7.119L129.447,35.1l-6.282,2.445-13.086,5.092Z" transform="translate(-16.471 -5.282)" fill="#ffd25d"/>
    <path id="Path_1683" data-name="Path 1683" d="M168.541,115.808a37.521,37.521,0,0,1-24.495,0c-.277-.1-.557-.2-.836-.3v-7.6L156.3,113l13.086-5.092v7.6C169.1,115.611,168.823,115.711,168.541,115.808Z" transform="translate(-62.689 -75.648)" fill="#ffd25d"/>
    <path id="Path_1684" data-name="Path 1684" d="M174.721,173.912v6.61a12.6,12.6,0,0,1-3.586,8.778A12.42,12.42,0,0,1,169,191.055a11.882,11.882,0,0,1-13.092-.029,12.622,12.622,0,0,1-5.676-10.5v-6.61a37.521,37.521,0,0,0,24.494,0Z" transform="translate(-68.869 -133.752)" fill="#f5f6fa"/>
    <path id="Path_1685" data-name="Path 1685" d="M210.753,321.074v.109l-6.714,4.179-6.4-4.179v-4.229l0,0a11.882,11.882,0,0,0,13.092.029l.017.026Z" transform="translate(-110.607 -259.676)" fill="#f5f6fa"/>
    <path id="Path_1686" data-name="Path 1686" d="M109.888,47.181a3.082,3.082,0,1,0,6.164,0,3.038,3.038,0,0,0-2.412-3.005v-14.2c0-.029.025-.057.022-.084a.752.752,0,0,0,.019-.079.712.712,0,0,0-.463-.667L93.851,22.024a.714.714,0,0,0-.494,0L73.99,29.143a.718.718,0,0,0-.47.667.707.707,0,0,0,.445.676l5.812,2.266v7.106a.717.717,0,0,0,.466.673c.123.046.252.092.372.137v6.1a13.239,13.239,0,0,0,5.743,10.882v3.1H81.03A9.082,9.082,0,0,0,72,69.871v7.393a.673.673,0,0,0,.665.716h41.881a.76.76,0,0,0,.768-.716V69.871a9.169,9.169,0,0,0-9.132-9.121h-5.346V57.673a11.678,11.678,0,0,0,1.935-1.625,13.259,13.259,0,0,0,3.809-9.279v-6.1l.372-.137a.716.716,0,0,0,.465-.673V32.753l4.786-1.886v13.32A3.1,3.1,0,0,0,109.888,47.181Zm4.762,0A1.649,1.649,0,1,1,113,45.532a1.649,1.649,0,0,1,1.65,1.649ZM99.4,61.109l-5.951,3.727-5.655-3.717V58.525a12.424,12.424,0,0,0,11.606.016Zm14.478,8.762v6.673H73.436V69.871a7.645,7.645,0,0,1,7.594-7.685H86.82l6.22,4.082a.718.718,0,0,0,.772,0l6.54-4.081h5.831a7.732,7.732,0,0,1,7.7,7.685ZM101.756,55.046A11.744,11.744,0,0,1,99.74,56.7a11.191,11.191,0,0,1-12.322-.027,11.994,11.994,0,0,1-5.367-9.9V41.152a38.336,38.336,0,0,0,23.093,0V46.77a11.816,11.816,0,0,1-3.388,8.277Zm4.225-15.69c-.12.043-.243.085-.362.126A36.689,36.689,0,0,1,93.609,41.5a36.768,36.768,0,0,1-12.026-2.015c-.118-.041-.25-.083-.369-.125V33.311l12.121,4.712a.752.752,0,0,0,.533,0l12.114-4.712Zm.5-7.781a.7.7,0,0,0-.08.031L93.607,36.583,80.822,31.608a.737.737,0,0,0-.09-.035l-4.464-1.737,17.339-6.374,17.339,6.374Z"/>
  </g>
</svg>
