<svg xmlns="http://www.w3.org/2000/svg" width="278.773" height="279.701" viewBox="0 0 278.773 279.701">
  <path id="Subtraction_2" data-name="Subtraction 2" d="M175.756,206.832h0a106.659,106.659,0,0,1-45.47-17.375A107.7,107.7,0,0,1,91.428,142.2a107.371,107.371,0,0,1,9.888-101.853A107.571,107.571,0,0,1,148.5,1.44a106.992,106.992,0,0,1,101.71,9.9,107.39,107.39,0,0,1,44.869,66.251H266.467c-10.57-32.244-41.2-53.907-76.218-53.907-44.068,0-79.919,34.6-79.919,77.129,0,37.224,27.515,69.127,65.426,75.858v30.158Z" transform="translate(274.359 305.688) rotate(-157)" fill="#fbfcff"/>
</svg>
