<svg xmlns="http://www.w3.org/2000/svg" width="69" height="69" viewBox="0 0 69 69">
  <g id="target" transform="translate(-2 -2)">
    <path id="Path_1736" data-name="Path 1736" d="M3,39l3.45,8.05L3,51.65l3.45,4.6L3,64.3,26,51.65Z" transform="translate(0.15 5.55)" fill="#f5f6fa"/>
    <path id="Path_1737" data-name="Path 1737" d="M6.45,55.2,26,50.6,6.45,46,3,50.6Z" transform="translate(0.15 6.6)" fill="#f5f6fa"/>
    <circle id="Ellipse_64" data-name="Ellipse 64" cx="17.5" cy="17.5" r="17.5" transform="translate(35 3)" fill="#ffd25d"/>
    <circle id="Ellipse_65" data-name="Ellipse 65" cx="11.5" cy="11.5" r="11.5" transform="translate(41 9)" fill="#f5f6fa"/>
    <circle id="Ellipse_66" data-name="Ellipse 66" cx="5.5" cy="5.5" r="5.5" transform="translate(47 15)" fill="#ffd25d"/>
    <g id="Group_1007" data-name="Group 1007" transform="translate(2 2)">
      <path id="Path_1739" data-name="Path 1739" d="M2.23,52.49l3.051,4.068L2.093,64A1.149,1.149,0,0,0,3.7,65.457l23-12.65a1.149,1.149,0,0,0,0-2.015l-23-12.65A1.149,1.149,0,0,0,2.093,39.6l3.188,7.438L2.23,51.11a1.151,1.151,0,0,0,0,1.38Zm5.2,4.9,10.8-2.54-12.7,6.985Zm10.8-8.634-10.8-2.54L5.523,41.768ZM7.068,48.492,21.127,51.8,7.068,55.108,4.587,51.8Z" transform="translate(-2 3.4)" fill="#0d0f23"/>
      <path id="Path_1740" data-name="Path 1740" d="M51.4,2A18.408,18.408,0,0,0,33.058,19.25H30.026l-3.113-3.113-1.626,1.626,1.487,1.487h-4.7a12.075,12.075,0,0,0,0,24.15H34.824l3.113,3.113,1.626-1.626L38.076,43.4H60.025a6.325,6.325,0,0,1,0,12.65H49.576l-3.113-3.113-1.626,1.626,1.487,1.487H28.4v2.3H46.324l-1.487,1.487,1.626,1.626,3.113-3.113H60.025a8.625,8.625,0,0,0,0-17.25H38.076l1.487-1.487-1.626-1.626L34.824,41.1H22.075a9.775,9.775,0,1,1,0-19.55h4.7l-1.487,1.487,1.626,1.626,3.113-3.113h3.032A18.389,18.389,0,1,0,51.4,2Zm0,34.5A16.109,16.109,0,0,1,35.358,21.55h3.45a12.65,12.65,0,1,0,0-2.3h-3.45A16.092,16.092,0,1,1,51.4,36.5ZM48.763,24.663l3.45-3.45a1.15,1.15,0,0,0,0-1.626l-3.45-3.45-1.626,1.626,1.487,1.487H41.118a10.35,10.35,0,1,1,0,2.3h7.506l-1.487,1.487Z" transform="translate(-0.8 -2)" fill="#0d0f23"/>
      <path id="Path_1741" data-name="Path 1741" d="M52.9,18.9A6.908,6.908,0,0,0,46,12v2.3a4.6,4.6,0,0,1,0,9.2v2.3A6.908,6.908,0,0,0,52.9,18.9Z" transform="translate(4.6 -0.5)" fill="#0d0f23"/>
    </g>
  </g>
</svg>
