<svg xmlns="http://www.w3.org/2000/svg" width="58" height="58" viewBox="0 0 58 58">
  <g id="technical-support_1_" data-name="technical-support(1)" transform="translate(-0.002)">
    <g id="Group_596" data-name="Group 596" transform="translate(0.851 0.85)">
      <g id="Group_595" data-name="Group 595">
        <g id="Group_593" data-name="Group 593">
          <g id="Group_592" data-name="Group 592">
            <g id="Group_591" data-name="Group 591">
              <g id="Group_590" data-name="Group 590">
                <g id="Group_589" data-name="Group 589">
                  <g id="Group_588" data-name="Group 588">
                    <g id="Group_587" data-name="Group 587">
                      <g id="Group_586" data-name="Group 586">
                        <g id="Group_585" data-name="Group 585">
                          <g id="Group_584" data-name="Group 584">
                            <path id="Path_1048" data-name="Path 1048" d="M53.271,13.491a2.72,2.72,0,0,0-3.855-.007q-.044.045-.089.087a1.171,1.171,0,0,1-1.373.147,24.989,24.989,0,0,0-5.66-2.321,1.189,1.189,0,0,1-.881-1.114c0-.017,0-.034,0-.051h0A2.748,2.748,0,0,0,38.655,7.5l-6.24.022a2.713,2.713,0,0,0-2.7,2.75c0,.017,0,.035,0,.052a1.189,1.189,0,0,1-.873,1.12,24.989,24.989,0,0,0-5.645,2.361,1.17,1.17,0,0,1-1.373-.137q-.046-.042-.09-.087a2.72,2.72,0,0,0-3.855.034L13.491,18.03a2.734,2.734,0,0,0-.006,3.855l.035.035a1.207,1.207,0,0,1,.19,1.441A24.992,24.992,0,0,0,11.4,29.007a1.2,1.2,0,0,1-1.155.882H10.23A2.749,2.749,0,0,0,7.5,32.646l.022,6.213a2.74,2.74,0,0,0,2.749,2.73h.052a1.189,1.189,0,0,1,1.12.873A24.987,24.987,0,0,0,13.8,48.1a1.2,1.2,0,0,1-.177,1.425l-.044.044a2.734,2.734,0,0,0,.034,3.855L18.03,57.81a2.72,2.72,0,0,0,3.855.006q.044-.045.089-.087a1.17,1.17,0,0,1,1.372-.147A24.99,24.99,0,0,0,29.007,59.9a1.188,1.188,0,0,1,.88,1.114c0,.017,0,.035,0,.052h0a2.73,2.73,0,0,0,2.74,2.73l6.2-.022a2.768,2.768,0,0,0,2.758-2.75h0c0-.017,0-.034,0-.05a1.19,1.19,0,0,1,.874-1.122,24.985,24.985,0,0,0,5.642-2.36,1.172,1.172,0,0,1,1.376.138q.045.041.088.085a2.721,2.721,0,0,0,3.856-.033l4.384-4.415a2.734,2.734,0,0,0,.006-3.855,2.739,2.739,0,0,1-.59-.847A24.988,24.988,0,0,0,59.9,42.293a1.188,1.188,0,0,1,1.113-.88h.053a2.74,2.74,0,0,0,2.73-2.749l-.022-6.231a2.731,2.731,0,0,0-2.749-2.722h-.053a1.188,1.188,0,0,1-1.119-.872,24.986,24.986,0,0,0-2.722-6.256,2.738,2.738,0,0,1,.584-.852,2.734,2.734,0,0,0-.033-3.855Z" transform="translate(-7.5 -7.5)" fill="#f5f6fa"/>
                          </g>
                        </g>
                      </g>
                    </g>
                  </g>
                  <circle id="Ellipse_15" data-name="Ellipse 15" cx="20.334" cy="20.334" r="20.334" transform="translate(7.816 7.816)" fill="#eee"/>
                  <circle id="Ellipse_16" data-name="Ellipse 16" cx="16.644" cy="16.644" r="16.644" transform="translate(11.507 11.507)" fill="#fff"/>
                  <path id="Path_1049" data-name="Path 1049" d="M227.046,109.075a16.7,16.7,0,0,0-3.7.413,16.648,16.648,0,0,1,0,32.461,16.645,16.645,0,1,0,3.7-32.875Z" transform="translate(-198.896 -97.568)" fill="#f5f6fa"/>
                </g>
              </g>
            </g>
          </g>
        </g>
        <g id="Group_594" data-name="Group 594" transform="translate(17.1 19.503)">
          <path id="Path_1050" data-name="Path 1050" d="M166.091,197.473a2.191,2.191,0,0,1-1.571-.664l-5.448-5.606a2.191,2.191,0,1,1,3.143-3.054l3.754,3.863,9.654-11.558a2.191,2.191,0,0,1,3.363,2.809l-11.213,13.424a2.191,2.191,0,0,1-1.6.785Z" transform="translate(-158.452 -179.667)" fill="#ffd25d"/>
        </g>
      </g>
    </g>
    <g id="Group_598" data-name="Group 598" transform="translate(0.002)">
      <g id="Group_597" data-name="Group 597" transform="translate(0)">
        <path id="Path_1051" data-name="Path 1051" d="M57.98,25.779a3.578,3.578,0,0,0-3.606-3.568h-.034a.34.34,0,0,1-.315-.252,25.845,25.845,0,0,0-2.419-5.8.393.393,0,0,1,.058-.474l0,0A3.477,3.477,0,0,0,52.7,13.194a3.638,3.638,0,0,0-1.063-2.572L47.221,6.238h0a3.57,3.57,0,0,0-5.063,0c-.02.021-.041.041-.06.059a.323.323,0,0,1-.375.026,25.871,25.871,0,0,0-5.853-2.4.341.341,0,0,1-.255-.314V3.574A3.6,3.6,0,0,0,32.016,0H32l-6.24.022a3.563,3.563,0,0,0-3.55,3.6V3.66a.34.34,0,0,1-.253.315,25.863,25.863,0,0,0-5.836,2.442.322.322,0,0,1-.375-.024l-.061-.059A3.478,3.478,0,0,0,13.2,5.3H13.19a3.641,3.641,0,0,0-2.567,1.069L6.24,10.781a3.583,3.583,0,0,0,0,5.063.36.36,0,0,1,.077.451,25.865,25.865,0,0,0-2.392,5.837.354.354,0,0,1-.353.256A3.6,3.6,0,0,0,0,26l.022,6.213a3.587,3.587,0,0,0,3.593,3.577h.013a.338.338,0,0,1,.348.253,25.871,25.871,0,0,0,2.438,5.83.349.349,0,0,1-.08.442,3.584,3.584,0,0,0,.032,5.063l4.415,4.384a3.57,3.57,0,0,0,5.063,0,.327.327,0,0,1,.435-.085,25.859,25.859,0,0,0,5.854,2.4.34.34,0,0,1,.255.313A3.581,3.581,0,0,0,25.97,58h.013l6.2-.022a3.63,3.63,0,0,0,3.6-3.6V54.34a.342.342,0,0,1,.254-.317,25.868,25.868,0,0,0,5.834-2.44.324.324,0,0,1,.377.023,3.57,3.57,0,0,0,5.123.027l4.384-4.415a3.583,3.583,0,0,0,0-5.063l0,0a.385.385,0,0,1-.066-.465,25.852,25.852,0,0,0,2.383-5.823.34.34,0,0,1,.315-.254A3.573,3.573,0,0,0,57,34.51a3.675,3.675,0,0,0,1-2.566Zm-3.631,8.134a2.049,2.049,0,0,0-1.914,1.506A22.613,22.613,0,0,1,49.959,41.3c-.372.62-.132,1.3.616,2.079a1.909,1.909,0,0,1-.017,2.648l-4.384,4.415A1.9,1.9,0,0,1,44.811,51a1.875,1.875,0,0,1-1.4-.644,2.011,2.011,0,0,0-2.374-.252,24.171,24.171,0,0,1-5.45,2.28,2.051,2.051,0,0,0-1.494,1.926,1.925,1.925,0,0,1-1.912,1.965l-6.2.022a1.883,1.883,0,0,1-1.888-1.953,2.049,2.049,0,0,0-1.506-1.914,24.163,24.163,0,0,1-5.469-2.243,2.013,2.013,0,0,0-2.486.383,1.872,1.872,0,0,1-2.648-.017L7.565,46.172a1.884,1.884,0,0,1,.022-2.7,2.055,2.055,0,0,0,.3-2.437,24.167,24.167,0,0,1-2.278-5.447A2.048,2.048,0,0,0,3.62,34.09a1.889,1.889,0,0,1-1.9-1.884L1.7,25.993a1.9,1.9,0,0,1,1.882-1.905H3.6a2.058,2.058,0,0,0,1.97-1.507A24.167,24.167,0,0,1,7.8,17.126a2.065,2.065,0,0,0-.374-2.5,1.885,1.885,0,0,1,.017-2.648l4.384-4.415A1.93,1.93,0,0,1,13.19,7h0a1.791,1.791,0,0,1,1.284.532c.038.039.078.077.117.113a2.009,2.009,0,0,0,2.371.251,24.171,24.171,0,0,1,5.453-2.281,2.05,2.05,0,0,0,1.493-1.927V3.61a1.851,1.851,0,0,1,.535-1.332,1.927,1.927,0,0,1,1.371-.557L32.009,1.7h.031a1.885,1.885,0,0,1,1.874,1.89c0,.021,0,.042,0,.063a2.05,2.05,0,0,0,1.507,1.915A24.164,24.164,0,0,1,40.89,7.809a2.014,2.014,0,0,0,2.487-.383,1.871,1.871,0,0,1,2.647.017h0l4.415,4.384A1.928,1.928,0,0,1,51,13.192a1.789,1.789,0,0,1-.526,1.284,3.564,3.564,0,0,0-.419.5A1.657,1.657,0,0,0,50,16.766a22.545,22.545,0,0,1,2.393,5.651,2.048,2.048,0,0,0,1.921,1.492,1.885,1.885,0,0,1,1.97,1.876l.022,6.231a1.892,1.892,0,0,1-1.953,1.9Z" transform="translate(-0.002)"/>
        <path id="Path_1052" data-name="Path 1052" d="M119.069,101.575a17.493,17.493,0,1,0,17.493,17.493A17.513,17.513,0,0,0,119.069,101.575Zm0,33.288a15.794,15.794,0,1,1,15.794-15.794A15.812,15.812,0,0,1,119.069,134.863Z" transform="translate(-90.07 -90.068)"/>
        <path id="Path_1053" data-name="Path 1053" d="M172.6,172.872a3.041,3.041,0,0,0-4.283.384l-9.05,10.834-3.1-3.187a3.041,3.041,0,1,0-4.361,4.238l5.449,5.607a3.058,3.058,0,0,0,2.181.921l.115,0a3.045,3.045,0,0,0,2.219-1.09l11.213-13.423A3.044,3.044,0,0,0,172.6,172.872Zm-.92,3.194L160.472,189.49a1.342,1.342,0,0,1-1.992.075l-5.448-5.607a1.342,1.342,0,0,1,.962-2.277h.02a1.333,1.333,0,0,1,.943.406l3.754,3.863a.862.862,0,0,0,.641.257.849.849,0,0,0,.62-.3l9.654-11.558a1.342,1.342,0,1,1,2.059,1.72Z" transform="translate(-133.853 -152.662)"/>
        <path id="Path_1054" data-name="Path 1054" d="M102.55,163.4a19.485,19.485,0,0,1-27.425-27.423.85.85,0,1,0-1.313-1.079,21.184,21.184,0,0,0,29.816,29.815.85.85,0,1,0-1.079-1.312Z" transform="translate(-61.185 -119.341)"/>
        <path id="Path_1055" data-name="Path 1055" d="M148.319,69a21.22,21.22,0,0,0-13.447,4.814.85.85,0,1,0,1.079,1.312,19.485,19.485,0,0,1,27.426,27.423.85.85,0,0,0,1.313,1.079A21.184,21.184,0,0,0,148.319,69Z" transform="translate(-119.319 -61.184)"/>
      </g>
    </g>
  </g>
</svg>
