<svg xmlns="http://www.w3.org/2000/svg" width="62" height="70.494" viewBox="0 0 62 70.494">
  <g id="two_tone" data-name="two tone" transform="translate(-76.363 -17.882)">
    <path id="Path_1687" data-name="Path 1687" d="M165.614,143.56l-29.251,3.472V109.591h30.516Z" transform="translate(-51.225 -78.296)" fill="#f5f6fa"/>
    <path id="Path_1688" data-name="Path 1688" d="M136.363,345.326l29.251-3.472v22.527H136.363Z" transform="translate(-51.225 -276.59)" fill="#f5f6fa"/>
    <path id="Path_1689" data-name="Path 1689" d="M224.363,45.591h5.85v4.4a2.625,2.625,0,0,1-2.625,2.625h-3.225Z" transform="translate(-126.354 -23.656)" fill="#fff"/>
    <path id="Path_1690" data-name="Path 1690" d="M122.1,157.591v33.931H96.363V170.315c0,.08,7.02-12.724,7.02-12.724Z" transform="translate(-17.075 -119.276)" fill="#ffd25d"/>
    <path id="Path_1691" data-name="Path 1691" d="M82.118,277.591H96.743v16.38H80.363V279.346A1.755,1.755,0,0,1,82.118,277.591Z" transform="translate(-3.415 -221.725)" fill="#ffd25d"/>
    <path id="Path_1692" data-name="Path 1692" d="M224.363,85.591h3.51V89.1h-3.51Z" transform="translate(-126.354 -57.806)" fill="#ffb3d0"/>
    <path id="Path_1693" data-name="Path 1693" d="M216.509,53.591h3.218a.146.146,0,0,1,.146.146v4.534h-2.34l-.189-.378a9.292,9.292,0,0,1-.981-4.156.146.146,0,0,1,.146-.146Z" transform="translate(-119.524 -30.486)" fill="#f5f6fa"/>
    <path id="Path_1694" data-name="Path 1694" d="M433.411,188.634l-3.486-52.5a.146.146,0,0,0-.162-.129l-2.8.313a.146.146,0,0,0-.1.235l.86,1.111a.146.146,0,0,1,.029.073l3.333,50.9Z" transform="translate(-299.209 -100.842)" fill="#ffd25d"/>
    <path id="Path_1695" data-name="Path 1695" d="M256.984,168.159l-.621-3.455a17.673,17.673,0,0,0,14.113-21.292l-2.645-11.695,3.424-.774,2.644,11.7a21.183,21.183,0,0,1-16.916,25.52Z" transform="translate(-153.674 -96.526)" fill="#ffd25d"/>
    <path id="Path_1696" data-name="Path 1696" d="M248.363,160.516v30.86a.146.146,0,0,0,.146.146h5.558a.146.146,0,0,0,.146-.146v-30.86a2.925,2.925,0,1,0-5.85,0Z" transform="translate(-146.844 -119.276)" fill="#ffd25d"/>
    <path id="Path_1697" data-name="Path 1697" d="M248.363,285.591h8.19V300.8h-8.19Z" transform="translate(-146.844 -228.555)" fill="#ffd25d"/>
    <path id="Path_1698" data-name="Path 1698" d="M248.363,313.591h8.19v1.17h-8.19Z" transform="translate(-146.844 -252.46)" fill="#e162a1"/>
    <path id="Path_1699" data-name="Path 1699" d="M82.118,277.591H96.743v8.19H80.363v-6.435A1.755,1.755,0,0,1,82.118,277.591Z" transform="translate(-3.415 -221.725)" fill="#ffd25d"/>
    <path id="Path_1700" data-name="Path 1700" d="M176.363,277.591h3.51v16.38h-3.51Z" transform="translate(-85.375 -221.725)" fill="#ffd25d"/>
    <path id="Path_1701" data-name="Path 1701" d="M318.781,113.9l1.24,9.466-.133.018-8.569,2.036L309.725,115.2a4.575,4.575,0,1,1,9.056-1.3Z" transform="translate(-199.192 -78.621)" fill="#f5f6fa"/>
    <path id="Path_1702" data-name="Path 1702" d="M346.549,154.068a.148.148,0,0,1-.025.123L334.6,170.045a6.908,6.908,0,0,1-12.345-3.086l-1.348-8.641,8.569-2.036.133-.018.579,4.424,9.221-12.122a.148.148,0,0,1,.12-.057l.671.019a.916.916,0,0,1,.867.7v0a.92.92,0,0,0,.867.7h.044a.912.912,0,0,1,.551.2.923.923,0,0,1,.316.5.92.92,0,0,0,.867.7h.042a.918.918,0,0,1,.867.7h0a.921.921,0,0,0,.869.7h.042a.919.919,0,0,1,.867.7Z" transform="translate(-208.775 -111.524)" fill="#f5f6fa"/>
    <circle id="Ellipse_55" data-name="Ellipse 55" cx="1.17" cy="1.17" r="1.17" transform="translate(99.002 23.982)" fill="#fff"/>
    <path id="Path_1703" data-name="Path 1703" d="M219.911,19.778a3.606,3.606,0,0,0-3.6,3.6v1.229h7.2V23.379a3.606,3.606,0,0,0-3.6-3.6Z" transform="translate(-119.478 -1.619)" fill="#ffd25d"/>
    <path id="Path_1704" data-name="Path 1704" d="M118.594,157.591a4.68,4.68,0,0,0-4.68,4.68v8.19H96.363v-7.02a5.85,5.85,0,0,1,5.85-5.85Z" transform="translate(-17.075 -119.276)" fill="#ffd25d"/>
    <g id="Group_907" data-name="Group 907" transform="translate(79.873 47.717)">
      <path id="Path_1705" data-name="Path 1705" d="M120.363,221.879h2.34v5.85h-2.34Z" transform="translate(-117.438 -221.879)" fill="#ffd25d"/>
      <path id="Path_1706" data-name="Path 1706" d="M168.363,221.879h2.34v5.85h-2.34Z" transform="translate(-158.418 -221.879)" fill="#ffd25d"/>
      <path id="Path_1707" data-name="Path 1707" d="M100.363,314.729h2.34v5.85h-2.34Z" transform="translate(-100.363 -301.149)" fill="#ffd25d"/>
      <path id="Path_1708" data-name="Path 1708" d="M140.363,314.729h2.34v5.85h-2.34Z" transform="translate(-134.513 -301.149)" fill="#ffd25d"/>
    </g>
    <path id="Path_1709" data-name="Path 1709" d="M95.13,78.273a5.948,5.948,0,0,0-5.954,5.889,5.852,5.852,0,0,0,5.85,5.811H115.5v-11.7Z" transform="translate(-10.939 -51.559)" fill="#ffd25d"/>
    <circle id="Ellipse_56" data-name="Ellipse 56" cx="5.85" cy="5.85" r="5.85" transform="translate(98.594 26.615)" fill="#ffd25d"/>
    <path id="Path_1710" data-name="Path 1710" d="M138.342,42.449l-.149-.616a1.506,1.506,0,0,0-1.415-1.149l-.047,0a.336.336,0,0,1-.314-.244.049.049,0,0,0,0-.011A1.5,1.5,0,0,0,135,39.277l-.047,0a.336.336,0,0,1-.316-.257,1.506,1.506,0,0,0-1.419-1.148h-.05a.335.335,0,0,1-.309-.256c0-.01-.005-.02-.008-.029a1.5,1.5,0,0,0-1.394-1.121l-.1-1.243a.738.738,0,0,0-.788-.665l-2.811.225a.731.731,0,0,0-.535,1.158l.751,1.036.19,2.384L121.8,47.722l-1.633-12.48a5.171,5.171,0,0,0-5.116-4.49h-4.176a.582.582,0,0,0-.232.048,6.445,6.445,0,0,0-6.2-4.728v-2.34h2.925a.585.585,0,1,0,0-1.17h-2.7v-.439a4.241,4.241,0,0,0-8.483,0v.439H93.328a.585.585,0,0,0,0,1.17h2.943a10.424,10.424,0,0,0,.4,2.34h-12.7a6.435,6.435,0,0,0-1.956,12.566,6.562,6.562,0,0,0-3.31,5.694V55.361a2.781,2.781,0,0,0-2.34,2.741V72.289a.585.585,0,0,0,.585.585h7.605V87.791a.585.585,0,1,0,1.17,0V72.874h23.986a.585.585,0,0,0,.585-.585V69.851a21.348,21.348,0,0,0,3.51-2.438V87.791a.585.585,0,1,0,1.17,0V66.334a21.975,21.975,0,0,0,2.863-3.481c.248-.373.487-.759.715-1.153a7.606,7.606,0,0,0,1.751.2,7.49,7.49,0,0,0,5.987-2.989l2.939-3.907,2.127,32.821a.585.585,0,0,0,.583.547h.038a.585.585,0,0,0,.546-.622l-2.215-34.18,1.075-1.428,2.307,35.684a.585.585,0,0,0,.583.547h.038a.585.585,0,0,0,.546-.622l-2.395-37.044,5.754-7.649a.73.73,0,0,0,.125-.611Zm-9.209-5.682A.719.719,0,0,0,129,36.39l-.366-.5,1.6-.128.067.845a.8.8,0,0,0-.13.129l-.936,1.231Zm-18.254-4.845h4.176a4,4,0,0,1,3.955,3.472l1.17,8.929-7.571,1.8-.69-4.42a.585.585,0,1,0-1.155.18L112.9,55.568a7.5,7.5,0,0,0,1.665,3.677c-.2.35-.41.692-.629,1.022a17.044,17.044,0,0,1-3.642,3.969V57.078a.585.585,0,0,0-.585-.585h-1.755V41.282a3.5,3.5,0,0,0-1.306-2.729,6.446,6.446,0,0,0,4.231-6.046c0-.2-.01-.395-.028-.588l.029,0ZM94.5,55.323H79.873v-3.51h2.34v1.755a.585.585,0,0,0,.585.585h2.34a.585.585,0,0,0,.585-.585V51.813h3.51v1.755a.585.585,0,0,0,.585.585h2.34a.585.585,0,0,0,.585-.585V51.813h4.241a.585.585,0,0,0,.585-.585v-8.19a4.1,4.1,0,0,1,4.1-4.1h.165a3.5,3.5,0,0,0-.9,2.34V71.7h-5.85v-15.8A.585.585,0,0,0,94.5,55.323Zm-6.435,5.85h-2.34a.585.585,0,0,0-.585.585v1.755H82.8V61.758a.585.585,0,0,0-.585-.585h-2.34a.585.585,0,0,0-.585.585v1.755H77.533V60H90.4v3.51H88.648V61.758A.585.585,0,0,0,88.063,61.173Zm-.585,1.17v4.68h-1.17v-4.68Zm-5.85,0v4.68h-1.17v-4.68Zm1.755-9.36V48.595h1.17v4.388Zm7.02,0V48.3h1.17v4.68Zm-.585-15.21a5.265,5.265,0,1,1,0-10.53h4.5a6.426,6.426,0,0,0,0,10.53Zm2.925-5.265a5.271,5.271,0,0,1,5.265-5.265h2.742a6.426,6.426,0,0,0,0,10.53H98.009A5.271,5.271,0,0,1,92.743,32.507Zm7.722-8.173a.583.583,0,0,0,.465-.6h2.343v2.34h-2.751a.576.576,0,0,0-.057-.018.878.878,0,0,1,0-1.72Zm6.318,16.948v15.21H102.1V41.283a2.34,2.34,0,1,1,4.68,0Zm-4.68,16.38h7.02v3.51H102.1Zm7.605-25.156a5.265,5.265,0,1,1-5.265-5.265,5.265,5.265,0,0,1,5.265,5.265ZM97.361,22.123a3.071,3.071,0,1,1,6.143,0v.439H97.361Zm.083,1.609h1.769a2.033,2.033,0,0,0-.419,2.34h-.9a9.266,9.266,0,0,1-.453-2.34ZM83.968,37.772a5.265,5.265,0,1,1,0-10.53h2.157a6.426,6.426,0,0,0,0,10.53Zm1.294,1.17h13.1a5.257,5.257,0,0,0-1.961,4.1v7.605H92.743V47.718a.585.585,0,0,0-.585-.585h-2.34a.585.585,0,0,0-.585.585v2.925h-3.51V48.01a.585.585,0,0,0-.585-.585H82.8a.585.585,0,0,0-.585.585v2.633h-2.34V44.331a5.4,5.4,0,0,1,5.39-5.389Zm-6.121,17.55H90.4v2.34H77.533V58.1a1.611,1.611,0,0,1,1.609-1.609ZM77.533,71.7v-7.02h1.755v2.925a.585.585,0,0,0,.585.585h2.34a.585.585,0,0,0,.585-.585V64.683h2.34v2.925a.585.585,0,0,0,.585.585h2.34a.585.585,0,0,0,.585-.585V64.683H90.4V71.7Zm15.8,0H91.573V56.493h2.34V71.7Zm8.775,0v-9.36h7.02V71.7Zm14.758-9.5a20.622,20.622,0,0,1-6.568,6.294V65.7a18.157,18.157,0,0,0,4.617-4.786c.174-.262.342-.532.5-.807a7.435,7.435,0,0,0,1.995,1.225c-.177.3-.36.591-.548.875Zm8.493-3.995a6.323,6.323,0,0,1-11.3-2.825l-1.265-8.107,7.543-1.791.443,3.386.7,5.935a.585.585,0,0,0,.58.517.614.614,0,0,0,.069,0,.585.585,0,0,0,.512-.65l-.624-5.293,8.946-11.759.446.013a.333.333,0,0,1,.315.253l.009.033a1.508,1.508,0,0,0,1.412,1.12h.05a.33.33,0,0,1,.194.074.336.336,0,0,1,.116.183,1.506,1.506,0,0,0,1.415,1.148l.047,0a.333.333,0,0,1,.312.243l0,.015a1.508,1.508,0,0,0,1.416,1.148l.046,0a.335.335,0,0,1,.315.255l.1.415Z"/>
    <path id="Path_1711" data-name="Path 1711" d="M240.363,93.974a4.1,4.1,0,1,0,4.1-4.1A4.1,4.1,0,0,0,240.363,93.974Zm7.02,0a2.925,2.925,0,1,1-2.925-2.925A2.925,2.925,0,0,1,247.383,93.974Z" transform="translate(-140.014 -61.467)"/>
    <path id="Path_1712" data-name="Path 1712" d="M256.363,107.634a1.755,1.755,0,1,0,1.755-1.755,1.755,1.755,0,0,0-1.755,1.755Zm2.34,0a.585.585,0,1,1-.585-.585A.585.585,0,0,1,258.7,107.634Z" transform="translate(-153.674 -75.127)"/>
    <path id="Path_1713" data-name="Path 1713" d="M220.948,411.879a.585.585,0,0,0-.585.585v11.7a.585.585,0,1,0,1.17,0v-11.7A.585.585,0,0,0,220.948,411.879Z" transform="translate(-122.939 -336.373)"/>
  </g>
</svg>
