<svg xmlns="http://www.w3.org/2000/svg" width="55.75" height="55.75" viewBox="0 0 55.75 55.75">
  <g id="virus-covid19-global-coronavirus-location" transform="translate(-1.942 -1.997)">
    <path id="Path_1567" data-name="Path 1567" d="M28.944,31.79l.065-.065a4.91,4.91,0,0,0-3.629-8.243h-3.32C20.622,27.113,16,31.836,16,31.836S9.5,25.214,9.5,21.626A6.5,6.5,0,0,1,19.708,16.3V13.272a1.815,1.815,0,0,1,.548-1.309,1.785,1.785,0,0,1,1.327-.548,1.841,1.841,0,0,0,1.838-1.856V3.85A26.949,26.949,0,0,0,4.643,39.262h7.974a1.856,1.856,0,0,1,1.819,1.494l.464,2.321a2.8,2.8,0,0,0,.761,1.42L17.2,46.038a.928.928,0,0,0,1.578-.659V38.028a1.828,1.828,0,0,1,.371-1.114l1.856-2.478a1.869,1.869,0,0,1,1.485-.743h1.856a6.459,6.459,0,0,0,4.595-1.9Z" transform="translate(-0.076 -0.133)" fill="#f5f6fa"/>
    <path id="Path_1568" data-name="Path 1568" d="M52.708,19.728s-6.5-6.622-6.5-10.211a6.472,6.472,0,0,1,.442-2.341A26.705,26.705,0,0,0,36,3.28v8.094a1.862,1.862,0,0,0,1.856,1.856h1.856a1.862,1.862,0,0,1,1.856,1.856v2.785h1.791A1.839,1.839,0,0,1,44.9,18.7l2.618,3.917a1.839,1.839,0,0,0,1.541.826H53a1.862,1.862,0,0,1,1.829,1.55l.668,4.019,3.685,2.107c.019-.39.028-.78.028-1.179a26.789,26.789,0,0,0-3.627-13.493C54.09,18.315,52.708,19.728,52.708,19.728Z" transform="translate(-2.444 -0.092)" fill="#f5f6fa"/>
    <path id="Path_1569" data-name="Path 1569" d="M49.54,46.645h-.334a1.862,1.862,0,0,1-1.856-1.856V43.86a1.856,1.856,0,0,0-1.466-1.81,47.345,47.345,0,0,1-3.175,3.667s-1.481-1.513-3.028-3.48a1.823,1.823,0,0,0-.945,1.317l-.408,2.469a1.862,1.862,0,0,1-1.829,1.55H28.785L26,51.286l2.785,4.641V59.5a27.321,27.321,0,0,0,2.785.143A26.874,26.874,0,0,0,53.157,48.806l-2.541-1.817a1.856,1.856,0,0,0-1.077-.343Z" transform="translate(-1.727 -2.874)" fill="#ffd25d"/>
    <path id="Path_1570" data-name="Path 1570" d="M45.169,36.169a1.856,1.856,0,1,0-1.313.544,1.856,1.856,0,0,0,1.313-.544Z" transform="translate(-2.875 -2.225)" fill="#ffd25d"/>
    <path id="Path_1571" data-name="Path 1571" d="M51.92,10H50.891q.774.666,1.5,1.392l.077-.077A1.851,1.851,0,0,1,51.92,10Z" transform="translate(-3.513 -0.574)" fill="#9bc9ff"/>
    <path id="Path_1572" data-name="Path 1572" d="M52.58,11.414l-.08.08q.721.723,1.392,1.5V11.958A1.851,1.851,0,0,1,52.58,11.414Z" transform="translate(-3.628 -0.676)" fill="#9bc9ff"/>
    <path id="Path_1573" data-name="Path 1573" d="M53.856,11.713a1.856,1.856,0,1,0-1.313-.544,1.857,1.857,0,0,0,1.313.544Z" transform="translate(-3.593 -0.431)" fill="#ffd25d"/>
    <path id="Path_1574" data-name="Path 1574" d="M16.856,21a1.856,1.856,0,1,0,1.313.544A1.857,1.857,0,0,0,16.856,21Z" transform="translate(-0.937 -1.364)" fill="#ffd25d"/>
    <path id="Path_1575" data-name="Path 1575" d="M44.569,38.354v-1.1a2.549,2.549,0,0,0,.265-.109l.777.777a.928.928,0,1,0,1.313-1.313l-.777-.777a2.549,2.549,0,0,0,.109-.265h1.1a.928.928,0,0,0,0-1.856h-1.1a2.55,2.55,0,0,0-.109-.265l.777-.777a.928.928,0,1,0-1.313-1.313l-.777.777a2.549,2.549,0,0,0-.265-.109v-1.1a.928.928,0,0,0-1.856,0v1.1a2.55,2.55,0,0,0-.265.109l-.777-.777a.928.928,0,1,0-1.313,1.313l.777.777a2.548,2.548,0,0,0-.109.265h-1.1a.928.928,0,1,0,0,1.856h1.1a2.548,2.548,0,0,0,.109.265l-.777.777a.928.928,0,1,0,1.313,1.313l.777-.777a2.551,2.551,0,0,0,.265.109v1.1a.928.928,0,0,0,1.856,0Zm-1.856-3.713a.928.928,0,1,1,.928.928A.928.928,0,0,1,42.713,34.641Z" transform="translate(-2.66 -2.01)"/>
    <path id="Path_1576" data-name="Path 1576" d="M49.928,10.569h1.1a2.549,2.549,0,0,0,.109.265l-.777.777a.928.928,0,1,0,1.313,1.313l.777-.777a2.549,2.549,0,0,0,.265.109v1.1a.928.928,0,1,0,1.856,0v-1.1a2.549,2.549,0,0,0,.265-.109l.777.777a.928.928,0,1,0,1.313-1.313l-.777-.777a2.548,2.548,0,0,0,.109-.265h1.1a.928.928,0,0,0,0-1.856h-1.1a2.549,2.549,0,0,0-.109-.265l.777-.777a.928.928,0,1,0-1.313-1.313l-.777.777a2.549,2.549,0,0,0-.265-.109v-1.1a.928.928,0,1,0-1.856,0v1.1a2.549,2.549,0,0,0-.265.109l-.777-.777a.928.928,0,1,0-1.313,1.313l.777.777a2.549,2.549,0,0,0-.109.265h-1.1a.928.928,0,1,0,0,1.856Zm4.641-.928a.928.928,0,1,1-.928-.928A.928.928,0,0,1,54.569,9.641Z" transform="translate(-3.377 -0.215)"/>
    <path id="Path_1577" data-name="Path 1577" d="M57.69,9.426A7.418,7.418,0,0,0,43.813,5.768,27.874,27.874,0,1,0,54.246,16.452C55.963,14.225,57.69,11.477,57.69,9.426ZM50.264,3.856a5.569,5.569,0,0,1,5.569,5.569c0,2.339-3.564,6.693-5.569,8.865-2-2.172-5.569-6.525-5.569-8.865A5.569,5.569,0,0,1,50.264,3.856ZM3.852,29.847a26.035,26.035,0,0,1,18.565-24.9V9.426a.928.928,0,0,1-.278.668.852.852,0,0,1-.6.26h-.009A2.785,2.785,0,0,0,18.7,13.139v1.476a7.333,7.333,0,0,0-2.785-.548,7.436,7.436,0,0,0-7.426,7.426c0,3.852,6.071,10.155,6.767,10.86a.919.919,0,0,0,1.318,0c.548-.548,4.372-4.52,6.015-8.076H25.3a4.007,4.007,0,0,1,3.722,2.5,3.743,3.743,0,0,1-.752,4.168L28.209,31a5.5,5.5,0,0,1-3.936,1.634H22.417a2.823,2.823,0,0,0-2.228,1.114l-1.847,2.469a2.737,2.737,0,0,0-.566,1.68l.009,7.352-1.55-1.541a1.917,1.917,0,0,1-.5-.947l-.464-2.321A2.791,2.791,0,0,0,12.541,38.2H5.235a25.935,25.935,0,0,1-1.383-8.354Zm17.636-8.354a4.252,4.252,0,0,1-.325,1.457.332.332,0,0,0-.037.1c-.965,2.386-3.592,5.551-5.207,7.305-2-2.172-5.569-6.525-5.569-8.865a5.569,5.569,0,0,1,11.139,0Zm8.354,34.345c-.622,0-1.244-.028-1.856-.074v-2.71a.928.928,0,0,0-.13-.473l-2.469-4.112,2.135-2.84h7.249a2.785,2.785,0,0,0,2.748-2.33l.408-2.469c1.142,1.374,2.135,2.4,2.395,2.664a.919.919,0,0,0,1.318,0c.288-.288,1.476-1.522,2.785-3.147a.938.938,0,0,1,.269.64v.928A2.793,2.793,0,0,0,47.479,44.7h.334a.928.928,0,0,1,.538.167l1.736,1.253a25.93,25.93,0,0,1-20.245,9.719Zm5.569-23.206a5.569,5.569,0,0,1,11.139,0c0,1.532-1.522,3.917-3.147,6,0,.009-.009.019-.019.028-.845,1.086-1.717,2.089-2.4,2.84C38.977,39.324,35.412,34.971,35.412,32.631ZM51.2,44.624l-1.773-1.272a2.825,2.825,0,0,0-1.615-.511h-.334a.928.928,0,0,1-.928-.928v-.928a2.76,2.76,0,0,0-.993-2.116c1.5-2.061,2.85-4.418,2.85-6.238a7.426,7.426,0,0,0-14.852,0c0,1.931,1.522,4.474,3.128,6.618a2.852,2.852,0,0,0-.594,1.281L35.681,43a.935.935,0,0,1-.91.77H27.058a.941.941,0,0,0-.743.371l-2.785,3.713a.928.928,0,0,0-.056,1.03l2.655,4.428v2.256A26.083,26.083,0,0,1,5.941,40.057h6.6a.934.934,0,0,1,.91.743l.464,2.33a3.612,3.612,0,0,0,1.012,1.884l1.541,1.55a1.847,1.847,0,0,0,1.309.538,1.957,1.957,0,0,0,.715-.139,1.856,1.856,0,0,0,1.142-1.717V37.895a.913.913,0,0,1,.186-.557l1.856-2.478a.941.941,0,0,1,.743-.371h1.856a7.349,7.349,0,0,0,5.254-2.181l.074-.065a5.633,5.633,0,0,0,1.132-6.191,5.827,5.827,0,0,0-5.43-3.629h-2.07a4.686,4.686,0,0,0,.111-.928A7.414,7.414,0,0,0,20.559,15.7V13.139a.881.881,0,0,1,.288-.659.807.807,0,0,1,.65-.269,2.757,2.757,0,0,0,2.775-2.785V4.46a26.185,26.185,0,0,1,5.569-.6,25.2,25.2,0,0,1,2.785.167v7.259a2.793,2.793,0,0,0,2.785,2.785h1.856A.928.928,0,0,1,38.2,15V17.78a.928.928,0,0,0,.928.928h1.791a.928.928,0,0,1,.77.418L44.3,23.034a2.778,2.778,0,0,0,2.321,1.244h3.936a.918.918,0,0,1,.91.78l.668,4.01a.943.943,0,0,0,.427.64l3.2,2A25.7,25.7,0,0,1,51.2,44.624Zm4.623-15.065-1.931-1.207-.6-3.6a2.764,2.764,0,0,0-2.738-2.33H46.616a.928.928,0,0,1-.77-.418L43.237,18.1a2.778,2.778,0,0,0-2.321-1.244h-.863V15a2.793,2.793,0,0,0-2.785-2.785H35.412a.928.928,0,0,1-.928-.928v-7A25.747,25.747,0,0,1,43.1,7.5a7.274,7.274,0,0,0-.26,1.921c0,3.852,6.071,10.155,6.767,10.86a.919.919,0,0,0,1.318,0c.232-.232,1.058-1.1,2.061-2.274a26.066,26.066,0,0,1,2.84,11.547Z" transform="translate(0 0)"/>
    <path id="Path_1578" data-name="Path 1578" d="M19.255,21.713a2.548,2.548,0,0,0-.109-.265l.777-.777a.928.928,0,1,0-1.313-1.313l-.777.777a2.549,2.549,0,0,0-.265-.109v-1.1a.928.928,0,0,0-1.856,0v1.1a2.549,2.549,0,0,0-.265.109l-.777-.777a.928.928,0,1,0-1.313,1.313l.777.777a2.549,2.549,0,0,0-.109.265h-1.1a.928.928,0,0,0,0,1.856h1.1a2.55,2.55,0,0,0,.109.265l-.777.777a.928.928,0,1,0,1.313,1.313l.777-.777a2.548,2.548,0,0,0,.265.109v1.1a.928.928,0,1,0,1.856,0v-1.1a2.548,2.548,0,0,0,.265-.109l.777.777a.928.928,0,1,0,1.313-1.313l-.777-.777a2.548,2.548,0,0,0,.109-.265h1.1a.928.928,0,0,0,0-1.856Zm-3.542.928a.928.928,0,1,1,.928.928A.928.928,0,0,1,15.713,22.641Z" transform="translate(-0.722 -1.148)"/>
  </g>
</svg>
