<svg xmlns="http://www.w3.org/2000/svg" width="55.979" height="56" viewBox="0 0 55.979 56">
  <g id="World-Medicine" transform="translate(-2.022 -2)">
    <path id="Path_1579" data-name="Path 1579" d="M54.066,45.667V49.4H49.4v4.667H45.667V49.4H41V45.667h4.667V41H49.4v4.667Z" transform="translate(-2.599 -2.601)" fill="#ffd25d"/>
    <path id="Path_1580" data-name="Path 1580" d="M32.867,45a12.133,12.133,0,0,1,22.722-5.915,27.061,27.061,0,1,0-16.5,16.5A12.123,12.123,0,0,1,32.867,45Z" transform="translate(-0.066 -0.067)" fill="#f5f6fa"/>
    <path id="Path_1581" data-name="Path 1581" d="M30.934,56.108V30.933H56.11a26.313,26.313,0,0,1-.541,4.5l1.827.386A27.987,27.987,0,1,0,35.788,57.4L35.4,55.572a26.2,26.2,0,0,1-4.471.536Zm-11.212-10a26.094,26.094,0,0,1,9.345-2.084v12.04C25.28,55.52,21.936,51.746,19.722,46.1Zm9.345-3.951a27.976,27.976,0,0,0-9.98,2.193,45.9,45.9,0,0,1-2.141-13.415H29.068ZM30.934,3.94c3.787.539,7.131,4.315,9.345,9.954a26.1,26.1,0,0,1-9.345,2.084Zm-1.867,0V15.98A26.1,26.1,0,0,1,19.722,13.9C21.936,8.253,25.28,4.479,29.068,3.94Zm0,13.906V29.066H16.947a45.9,45.9,0,0,1,2.141-13.415,27.976,27.976,0,0,0,9.98,2.193Zm1.867,0a27.976,27.976,0,0,0,9.98-2.193,45.9,45.9,0,0,1,2.141,13.413H30.934ZM56.111,29.066H44.922a47.37,47.37,0,0,0-2.3-14.206A27.985,27.985,0,0,0,48.133,11.2,26.053,26.053,0,0,1,56.111,29.066ZM46.733,9.944a26.089,26.089,0,0,1-4.751,3.146,22.009,22.009,0,0,0-5.5-8.409,26.067,26.067,0,0,1,10.25,5.263ZM18.02,13.091a26.089,26.089,0,0,1-4.751-3.146,26.067,26.067,0,0,1,10.25-5.263,22.008,22.008,0,0,0-5.5,8.409ZM11.873,11.2A27.985,27.985,0,0,0,17.38,14.86a47.37,47.37,0,0,0-2.3,14.206H3.891A26.053,26.053,0,0,1,11.873,11.2ZM3.891,30.933H15.08a47.37,47.37,0,0,0,2.3,14.206A27.985,27.985,0,0,0,11.869,48.8,26.053,26.053,0,0,1,3.891,30.933Zm9.378,19.122a26.089,26.089,0,0,1,4.751-3.146,22.009,22.009,0,0,0,5.5,8.409,26.067,26.067,0,0,1-10.25-5.263Z"/>
    <path id="Path_1582" data-name="Path 1582" d="M47.066,34A13.066,13.066,0,1,0,60.133,47.066,13.066,13.066,0,0,0,47.066,34Zm0,24.266a11.2,11.2,0,1,1,11.2-11.2,11.2,11.2,0,0,1-11.2,11.2Z" transform="translate(-2.132 -2.134)"/>
    <path id="Path_1583" data-name="Path 1583" d="M54,44.667H50.266V40.933A.933.933,0,0,0,49.333,40H45.6a.933.933,0,0,0-.933.933v3.733H40.933A.933.933,0,0,0,40,45.6v3.733a.933.933,0,0,0,.933.933h3.733V54a.933.933,0,0,0,.933.933h3.733A.933.933,0,0,0,50.266,54V50.266H54a.933.933,0,0,0,.933-.933V45.6A.933.933,0,0,0,54,44.667ZM53.066,48.4H49.333a.933.933,0,0,0-.933.933v3.733H46.533V49.333A.933.933,0,0,0,45.6,48.4H41.867V46.533H45.6a.933.933,0,0,0,.933-.933V41.867H48.4V45.6a.933.933,0,0,0,.933.933h3.733Z" transform="translate(-2.532 -2.534)"/>
  </g>
</svg>
