<svg xmlns="http://www.w3.org/2000/svg" width="57.023" height="57" viewBox="0 0 57.023 57">
  <g id="world-book-day" transform="translate(0.001 -0.104)">
    <g id="Group_645" data-name="Group 645" transform="translate(3.979 3.789)">
      <path id="Path_1249" data-name="Path 1249" d="M229.79,286.7l-1.8-.984a.581.581,0,0,1-.231-.231l-.984-1.8a.581.581,0,0,0-1.02,0l-.984,1.8a.581.581,0,0,1-.231.231l-1.8.984a.581.581,0,0,0,0,1.02l1.8.984a.581.581,0,0,1,.231.231l.984,1.8a.581.581,0,0,0,1.02,0l.984-1.8a.581.581,0,0,1,.231-.231l1.8-.984A.581.581,0,0,0,229.79,286.7Z" transform="translate(-201.65 -255.526)" fill="#f5f6fa"/>
      <path id="Path_1250" data-name="Path 1250" d="M412.062,36.634,410.2,35.615a.6.6,0,0,1-.239-.239l-1.019-1.863a.6.6,0,0,0-1.057,0l-1.019,1.863a.6.6,0,0,1-.239.239l-1.863,1.019a.6.6,0,0,0,0,1.057l1.863,1.019a.6.6,0,0,1,.239.239l1.019,1.863a.6.6,0,0,0,1.057,0l1.019-1.863a.6.6,0,0,1,.239-.239l1.863-1.019A.6.6,0,0,0,412.062,36.634Z" transform="translate(-363.391 -33.2)" fill="#f5f6fa"/>
      <path id="Path_1251" data-name="Path 1251" d="M43.087,159.553l-1.8-.984a.582.582,0,0,1-.231-.231l-.984-1.8a.582.582,0,0,0-1.021,0l-.984,1.8a.582.582,0,0,1-.231.231l-1.8.984a.582.582,0,0,0,0,1.021l1.8.984a.581.581,0,0,1,.231.231l.984,1.8a.582.582,0,0,0,1.021,0l.984-1.8a.581.581,0,0,1,.231-.231l1.8-.984A.582.582,0,0,0,43.087,159.553Z" transform="translate(-35.734 -142.534)" fill="#f5f6fa"/>
    </g>
    <path id="Path_1252" data-name="Path 1252" d="M27.94,367.26l1.456-5.091a.445.445,0,0,1,.547-.307l23.4,6.48-2.1,5.062Z" transform="translate(-24.829 -321.459)" fill="#f5f6fa"/>
    <g id="Group_648" data-name="Group 648" transform="translate(23.399 46.053)">
      <g id="Group_647" data-name="Group 647">
        <g id="Group_646" data-name="Group 646">
          <path id="Path_1253" data-name="Path 1253" d="M212.245,412.73l-2.115,5.1,3.011.794,2.1-5.062Z" transform="translate(-210.13 -412.73)" fill="#eee"/>
        </g>
      </g>
    </g>
    <path id="Path_1254" data-name="Path 1254" d="M281.433,367.26l-1.456-5.091a.445.445,0,0,0-.547-.307l-23.4,6.48,2.1,5.062Z" transform="translate(-227.522 -321.459)" fill="#f5f6fa"/>
    <g id="Group_652" data-name="Group 652" transform="translate(30.409 40.387)">
      <g id="Group_651" data-name="Group 651">
        <g id="Group_649" data-name="Group 649" transform="translate(18.835)">
          <path id="Path_1255" data-name="Path 1255" d="M443.844,368.06l3.032-.8-1.456-5.091a.445.445,0,0,0-.547-.307l-2.664.738Z" transform="translate(-442.208 -361.846)" fill="#eee"/>
        </g>
        <g id="Group_650" data-name="Group 650" transform="translate(0 10.287)">
          <path id="Path_1256" data-name="Path 1256" d="M273.074,455l.2.489,4.824-1.272Z" transform="translate(-273.074 -454.219)" fill="#e2dee2"/>
        </g>
      </g>
    </g>
    <circle id="Ellipse_18" data-name="Ellipse 18" cx="11.733" cy="11.733" r="11.733" transform="translate(16.778 0.939)" fill="#f5f6fa"/>
    <path id="Path_1258" data-name="Path 1258" d="M176.844,14.8a1.667,1.667,0,0,1-.346,1.477,12.572,12.572,0,0,1-1.1,1.127,2.244,2.244,0,0,0-.715,1.369,3.887,3.887,0,0,0,.336,1.38c.446,1.269-.3,2.084-1.6,1.7-1.781-.626-2.336-2.673-2.686-4.346a9.173,9.173,0,0,0-.853-2.528,12.448,12.448,0,0,1-.923-1.56,11.727,11.727,0,0,1,8.278-5.041h0a.8.8,0,0,1,.434.341c.429.894-.7,2.032-1.17,2.752a2.28,2.28,0,0,0-.418,2.127C176.275,14.026,176.692,14.343,176.844,14.8Z" transform="translate(-150.14 -7.347)" fill="#ffd25d"/>
    <path id="Path_1259" data-name="Path 1259" d="M246.2,112.728a3.907,3.907,0,0,0-.451,2.594c.152.647.541,1.212.75,1.843a2.307,2.307,0,0,1,.119.573,11.673,11.673,0,0,1-2.266.973,1.687,1.687,0,0,0-.324-.317c-.7-.48-1.656-.539-2.227-1.208-.664-.778-.471-2.115-1.286-2.734-.37-.281-.886-.35-1.2-.694a1.907,1.907,0,0,1-.329-1.3,8.671,8.671,0,0,1,.127-1.864,2.894,2.894,0,0,1,2.414-2.347l3.419-1.114a2.848,2.848,0,0,1,2.5-.032,1.842,1.842,0,0,1,.713,1.606C248.045,110.238,246.838,111.393,246.2,112.728Z" transform="translate(-212.373 -94.826)" fill="#ffd25d"/>
    <path id="Path_1261" data-name="Path 1261" d="M300.721,26.532a2.324,2.324,0,0,1-2.224.581,2.728,2.728,0,0,0-2.142.395,1.14,1.14,0,0,1-.424.328c-.415.1-.672-.342-.759-.69a4.63,4.63,0,0,1,.086-3.055,3.63,3.63,0,0,1,1.365-1.668A11.792,11.792,0,0,1,300.721,26.532Z" transform="translate(-262.11 -19.834)" fill="#ffd25d"/>
    <path id="Path_1263" data-name="Path 1263" d="M62.826,397.857a1.674,1.674,0,0,0-2.037-1.2l-23.211,5.929a1.665,1.665,0,0,0-1.257,1.611,1.115,1.115,0,0,1-2.231,0,1.665,1.665,0,0,0-1.257-1.611L9.624,396.66a1.664,1.664,0,1,0-.833,3.221l22.163,5.661a4.47,4.47,0,0,0,8.5,0l22.163-5.661A1.662,1.662,0,0,0,62.826,397.857Z" transform="translate(-6.695 -352.35)" fill="#ffd25d"/>
    <g id="Group_654" data-name="Group 654" transform="translate(-0.001 0.104)">
      <path id="Path_1265" data-name="Path 1265" d="M146.33,19.83a.835.835,0,0,0,.236-1.157,10.954,10.954,0,0,1-.606-10.956c.069.107.14.217.212.333a8.461,8.461,0,0,1,.756,2.281c.282,1.344.868,4.127,3.225,4.956l.038.012a2.22,2.22,0,0,0,2.293-.444,2.206,2.206,0,0,0,.338-2.32c-.034-.1-.07-.2-.107-.307a2.233,2.233,0,0,1-.187-.759,1.456,1.456,0,0,1,.483-.835c.113-.117.236-.232.366-.355a6.476,6.476,0,0,0,.8-.853,2.455,2.455,0,0,0,.469-2.241,3.028,3.028,0,0,0-.537-.907,2.173,2.173,0,0,1-.258-.377,1.526,1.526,0,0,1,.35-1.318l.008-.012c.08-.123.2-.278.318-.442a4.246,4.246,0,0,0,1.083-2.354,10.82,10.82,0,0,1,4.615,1,4.52,4.52,0,0,0-.7,1.166,5.448,5.448,0,0,0-.118,3.593,1.5,1.5,0,0,0,1.751,1.281l.034-.009a1.572,1.572,0,0,0,.709-.459c.021-.021.042-.042.063-.062.279-.26.885-.23,1.484-.176a4,4,0,0,0,2.019-.189,10.958,10.958,0,0,1-3.58,13.691c-.064-.146-.131-.287-.2-.425a4.628,4.628,0,0,1-.352-.88,3.175,3.175,0,0,1,.384-2.029l.006-.013a11.051,11.051,0,0,1,.725-1.217,6.63,6.63,0,0,0,1.316-3.108c0-.008,0-.017,0-.026a2.669,2.669,0,0,0-1.083-2.336,3.651,3.651,0,0,0-3.229-.066l-3.4,1.109a3.714,3.714,0,0,0-2.983,2.969,9.322,9.322,0,0,0-.145,2.044,2.664,2.664,0,0,0,.545,1.86,2.6,2.6,0,0,0,.951.615,2.008,2.008,0,0,1,.361.184,1.926,1.926,0,0,1,.433.99,3.892,3.892,0,0,0,.723,1.621,2.764,2.764,0,0,0,.766.618,10.841,10.841,0,0,1-7.693-2.211A.835.835,0,1,0,148,22.631c8.147,6.357,20.284.383,20.235-9.959A12.582,12.582,0,0,0,155.665.1c-9.9-.085-16.016,11.29-10.491,19.49a.835.835,0,0,0,1.157.236Zm12.951,3.05a5.143,5.143,0,0,0-1.114-.54,2.353,2.353,0,0,1-.952-.524,2.62,2.62,0,0,1-.379-.964A3.209,3.209,0,0,0,155.8,18.96a3.277,3.277,0,0,0-.7-.383,1.471,1.471,0,0,1-.384-.207,1.6,1.6,0,0,1-.112-.745,7.961,7.961,0,0,1,.107-1.682c.214-.973.642-1.376,1.833-1.725l.024-.007,3.418-1.114.011,0c.674-.23,1.354-.4,1.761-.133a1.023,1.023,0,0,1,.35.867,5.257,5.257,0,0,1-1.048,2.306,12.505,12.505,0,0,0-.829,1.4,4.636,4.636,0,0,0-.514,3.153,6.025,6.025,0,0,0,.471,1.218c.093.194.18.38.251.563a10.8,10.8,0,0,1-1.09.461C159.324,22.913,159.3,22.9,159.281,22.88ZM164.6,6.444a3.087,3.087,0,0,1-.956.007l-.029,0a3.663,3.663,0,0,0-2.639.49,3.741,3.741,0,0,1,.1-2.365,2.843,2.843,0,0,1,.643-.956A10.986,10.986,0,0,1,164.6,6.444Zm-10.674-4.53a4.843,4.843,0,0,1-.736,1.215c-.138.185-.269.359-.378.528a3.013,3.013,0,0,0-.482,2.93,3.471,3.471,0,0,0,.464.718,1.742,1.742,0,0,1,.27.409.9.9,0,0,1-.223.712,5.147,5.147,0,0,1-.607.633c-.14.131-.285.267-.427.414a3.015,3.015,0,0,0-.948,1.9,3.512,3.512,0,0,0,.282,1.415c.032.09.065.18.094.27l.006.019c.124.352.087.565.032.623s-.25.1-.587,0c-1.209-.437-1.725-1.8-2.126-3.722l0-.014a9.912,9.912,0,0,0-.941-2.754l-.015-.026c-.109-.177-.217-.343-.32-.5-.125-.193-.24-.37-.339-.54a10.907,10.907,0,0,1,6.984-4.231Z" transform="translate(-127.153 -0.104)"/>
      <path id="Path_1266" data-name="Path 1266" d="M221.837,278.4l-.948-1.733a1.421,1.421,0,0,0-2.486,0l-.948,1.733-1.733.948a1.421,1.421,0,0,0,0,2.485l1.733.948.948,1.733a1.422,1.422,0,0,0,2.485,0l.948-1.733,1.733-.948a1.421,1.421,0,0,0,0-2.485Zm-.867,2.952a1.415,1.415,0,0,0-.563.563l-.761,1.391-.761-1.391a1.415,1.415,0,0,0-.563-.563l-1.391-.761,1.391-.761a1.415,1.415,0,0,0,.563-.563l.761-1.391.761,1.391a1.415,1.415,0,0,0,.563.563l1.391.761Z" transform="translate(-191.05 -245.219)"/>
      <path id="Path_1267" data-name="Path 1267" d="M397.738,31.8l1.8.986.986,1.8a1.442,1.442,0,0,0,2.522,0l.986-1.8,1.8-.986a1.442,1.442,0,0,0,0-2.522l-1.8-.986-.986-1.8a1.442,1.442,0,0,0-2.522,0l-.986,1.8-1.8.986A1.442,1.442,0,0,0,397.738,31.8Zm2.664-2.075a1.435,1.435,0,0,0,.571-.571l.814-1.489.814,1.489a1.434,1.434,0,0,0,.571.571l1.489.814-1.489.814a1.434,1.434,0,0,0-.572.571l-.814,1.489-.814-1.489a1.436,1.436,0,0,0-.571-.571l-1.489-.814Z" transform="translate(-352.787 -22.894)"/>
      <path id="Path_1268" data-name="Path 1268" d="M29.02,154.641l1.734.949.949,1.734a1.422,1.422,0,0,0,2.486,0l.949-1.734,1.734-.949a1.422,1.422,0,0,0,0-2.486h0l-1.734-.949-.949-1.734a1.417,1.417,0,0,0-2.486,0l-.948,1.734-1.734.949A1.422,1.422,0,0,0,29.02,154.641Zm2.6-2a1.414,1.414,0,0,0,.563-.563l.762-1.393.761,1.392a1.414,1.414,0,0,0,.563.564l1.393.762-1.393.762a1.414,1.414,0,0,0-.563.563l-.762,1.393-.762-1.393a1.415,1.415,0,0,0-.563-.563l-1.393-.762Z" transform="translate(-25.138 -132.184)"/>
      <path id="Path_1269" data-name="Path 1269" d="M56.939,310.118a2.512,2.512,0,0,0-2.83-1.843l-.851-2.975a1.284,1.284,0,0,0-1.573-.882l-2.787.772a.835.835,0,1,0,.446,1.61l2.414-.669.729,2.548-21.81,5.571c-.062.016-.122.034-.181.055l-.85-2.049,15.944-4.416a.835.835,0,1,0-.446-1.61l-8.068,2.235,12.957-6.305a.835.835,0,0,0-.731-1.5l-13.717,6.675,10.2-7.723a.835.835,0,1,0-1.008-1.332L28.511,310.592,12.246,298.278a.835.835,0,1,0-1.008,1.332l10.2,7.723L7.722,300.657a.835.835,0,0,0-.731,1.5l12.957,6.305-14.61-4.047a1.284,1.284,0,0,0-1.573.882l-.851,2.976a2.5,2.5,0,0,0-1.024,4.885l1.982.506a.835.835,0,1,0,.413-1.618L2.3,311.542a.831.831,0,0,1-.514-.384.814.814,0,0,1-.088-.622.839.839,0,0,1,1.021-.6l23.21,5.929a.83.83,0,0,1,.628.8,1.951,1.951,0,0,0,3.9,0,.83.83,0,0,1,.628-.8L54.3,309.94a.839.839,0,0,1,1.022.6.814.814,0,0,1-.088.622.831.831,0,0,1-.514.384L32.556,317.2a.836.836,0,0,0-.589.554,3.641,3.641,0,0,1-6.914,0,.835.835,0,0,0-.589-.554L8.113,313.027a.835.835,0,0,0-.413,1.618l15.929,4.069a5.319,5.319,0,0,0,9.765,0l21.739-5.553A2.509,2.509,0,0,0,56.939,310.118Zm-52.4-1.439.729-2.548,22.113,6.125-.85,2.049c-.06-.02-.12-.039-.182-.055Zm23.975,8.265a.277.277,0,0,1-.28-.273,2.483,2.483,0,0,0-.35-1.269l.63-1.519.63,1.519a2.483,2.483,0,0,0-.35,1.269A.277.277,0,0,1,28.511,316.943Z" transform="translate(0.001 -264.923)"/>
    </g>
  </g>
</svg>
