<svg id="danger" xmlns="http://www.w3.org/2000/svg" xmlns:xlink="http://www.w3.org/1999/xlink" width="56" height="56" viewBox="0 0 56 56">
  <defs>
    <linearGradient id="linear-gradient" x1="0.5" x2="0.5" y2="1" gradientUnits="objectBoundingBox">
      <stop offset="0" stop-color="#ffac58"/>
      <stop offset="1" stop-color="#ff8100"/>
    </linearGradient>
  </defs>
  <path id="Union_87" data-name="Union 87" d="M16991,13744.915a2.749,2.749,0,0,1-.283-.014h-10.494a11.439,11.439,0,0,1-4.859-.982,7.324,7.324,0,0,1-4.344-7.382,11.459,11.459,0,0,1,1.5-4.732l5.547-9.994,5.225-9.389a11.877,11.877,0,0,1,3.328-3.926,7.146,7.146,0,0,1,8.756,0,11.864,11.864,0,0,1,3.322,3.926l5.23,9.406,5.547,9.991a11.522,11.522,0,0,1,1.5,4.731,7.313,7.313,0,0,1-4.348,7.383,11.334,11.334,0,0,1-4.854.981Zm-3.82-30.335-5.225,9.393-5.549,9.984c-1.033,1.869-1.242,3.59-.578,4.718s2.268,1.778,4.395,1.778H16991a2.541,2.541,0,0,1,.279.02h10.5c2.123,0,3.721-.649,4.389-1.783s.461-2.849-.572-4.713l-5.549-9.99-5.225-9.406c-1.105-1.992-2.5-3.135-3.818-3.135S16988.287,13712.588,16987.18,13714.58Zm3.807,22.469a2.221,2.221,0,1,1,0-4.442h.025a2.221,2.221,0,0,1,0,4.442Zm-2.207-9.8v-5.751a2.22,2.22,0,0,1,4.439,0v5.751a2.22,2.22,0,1,1-4.439,0Z" transform="translate(-16963 -13697.945)" fill="url(#linear-gradient)"/>
  <path id="Vector" d="M0,0H56V56H0Z" fill="none" opacity="0"/>
</svg>
