<svg xmlns="http://www.w3.org/2000/svg" width="57.258" height="72.807" viewBox="0 0 57.258 72.807">
  <g id="icon-1" transform="translate(-152.687 -66.29)">
    <path id="Union_86" data-name="Union 86" d="M18.726,1.485A3.781,3.781,0,0,1,19.689.377,1.714,1.714,0,0,1,21.233.055,26.794,26.794,0,0,1,31.512,4.429a43.69,43.69,0,0,1,9.666,9.318,58.038,58.038,0,0,1,7.066,11.828A2.813,2.813,0,0,1,48.3,27.17c-.108.6-.674.948-1.092,1.334a142.565,142.565,0,0,1-20.4,14.5,7.411,7.411,0,0,1,0,5.671,57.308,57.308,0,0,0,4.477,4.186c.6.514,1.463.974,1.527,1.857a2.138,2.138,0,0,1-.769,1.888c-1.43.934-2.91,1.785-4.413,2.594a1.516,1.516,0,0,1-1.686-.131,54.794,54.794,0,0,1-4.691-3.824,24.254,24.254,0,0,1-5.081-6.57c-.568.283-1.134.565-1.7.853a4.313,4.313,0,0,1-1.055,2.562,5.015,5.015,0,0,1-2.769,1.83,1.782,1.782,0,0,1-1.56-.357C6.421,51.146,3.825,48.645,1.275,46.1c-.5-.372-1.167-.681-1.249-1.383A5.408,5.408,0,0,1,3.459,39.4a2.98,2.98,0,0,1,1.466-.283C6.517,35.172,8.042,31.2,9.438,27.178q2.834-8.066,5.666-16.134c1.153-3.2,2.347-6.4,3.621-9.558m7.486,11.147a7.947,7.947,0,0,1,2.51-.77,6.968,6.968,0,0,1,4.412.953A8.808,8.808,0,0,1,37.005,23c2.25,1.328,5.8,2.741,8.447,2.575-.888-1.768-2.205-4.47-3.235-6.159a45.013,45.013,0,0,0-10.7-12.045A31.934,31.934,0,0,0,21.8,2.928c.478,3.321,2.5,6.99,4.415,9.7M7.171,40.282c1.712,1.838,3.7,4.776,5.416,6.612,5.067-2.544,10.891-4.552,15.742-7.492A158.759,158.759,0,0,0,45.453,27.671c-1.589-.189-10.255-1.65-16.343-7.313S21.534,9.342,20.022,5.021M35.053,21.764a6.213,6.213,0,0,0-2.24-6.477c-1.883-1.832-3.635-1.117-4.95-.754a76.781,76.781,0,0,0,7.189,7.231M2.772,43.894c2.347,2.357,4.982,5.221,7.42,7.486.184-.2,1.214-1.573,1.4-1.77-2.3-2.425-4.781-5.595-7.041-8.06a5.122,5.122,0,0,0-1.657,1.1,1.25,1.25,0,0,0-.118,1.243M26.808,56.922c.565-.323,2.417-1.873,2.98-2.2-3.021-2.446-6.307-5.517-7.991-9.051-.747.393-2.805,1.509-3.551,1.9,1.83,3.548,5.392,6.988,8.563,9.347m-2.72-12.443a22.487,22.487,0,0,0,1.166,2.066,11.364,11.364,0,0,0-.144-2.651Q24.6,44.185,24.089,44.479Z" transform="translate(152.687 79.697)" fill="#c6d0d9"/>
    <path id="Path_108972" data-name="Path 108972" d="M2.721,0S-.59,4.841.093,8.906,4.1,11.455,4.1,11.455" transform="matrix(-0.999, -0.052, 0.052, -0.999, 188.626, 80.386)" fill="none" stroke="#ff8100" stroke-width="2.5"/>
    <path id="Path_108973" data-name="Path 108973" d="M.665,0c-1.5,7.338,0,22.148,0,22.148" transform="matrix(-0.777, -0.629, 0.629, -0.777, 194.893, 88.173)" fill="none" stroke="#ff8100" stroke-width="2.5"/>
    <path id="Path_108978" data-name="Path 108978" d="M.665,0c-1.5,6.553,0,19.777,0,19.777" transform="translate(191.131 84.903) rotate(-153)" fill="none" stroke="#ff8100" stroke-width="2.5"/>
    <path id="Path_108974" data-name="Path 108974" d="M.969,0A7.674,7.674,0,0,1,2.851,4.939,3.56,3.56,0,0,1,0,8.435" transform="translate(200.098 93.506) rotate(-91)" fill="none" stroke="#ff8100" stroke-width="2.5"/>
    <path id="Path_108976" data-name="Path 108976" d="M1.115,7.092A2.9,2.9,0,0,0,0,8.435" transform="translate(180.958 67.549) rotate(47)" fill="none" stroke="#ff8100" stroke-width="2.5"/>
    <path id="Path_108977" data-name="Path 108977" d="M1.115,7.092A2.9,2.9,0,0,0,0,8.435" transform="matrix(-0.906, 0.423, -0.423, -0.906, 206.181, 117.042)" fill="none" stroke="#ff8100" stroke-width="2.5"/>
  </g>
</svg>
