<svg xmlns="http://www.w3.org/2000/svg" width="56" height="56" viewBox="0 0 56 56">
  <g id="icon-3" transform="translate(-1272 -264)">
    <g id="_000000ff" data-name="#000000ff" transform="translate(1273.167 264)">
      <path id="Path_108967" data-name="Path 108967" d="M126.047,30.392a7.576,7.576,0,0,1,1.134-.3,7.458,7.458,0,0,1,1.3-.014,4.765,4.765,0,0,1,2.089.81,4.854,4.854,0,0,1,1.373,1.622,7.81,7.81,0,0,1,.7,2.1,1.869,1.869,0,0,0,.118.482,6.9,6.9,0,0,1,1.3-1.982,3.649,3.649,0,0,1,2.6-.88,3.862,3.862,0,0,1,2.629,1.3,8.463,8.463,0,0,1,1.811,4.126c.115.869.236,1.737.275,2.613.1.42.029.856.094,1.28.036.291.016.586.046.877.071.4.01.8.062,1.2a12.871,12.871,0,0,1,.751-1.36,3.513,3.513,0,0,1,2.714-1.589,3.1,3.1,0,0,1,2.106.964,5.462,5.462,0,0,1,1.351,2.587,21.479,21.479,0,0,1,.453,3.28c-.014.332.09.653.075.984.023.649-.016,1.3.051,1.948a8.56,8.56,0,0,1-.031,1.169c-.019.609,0,1.22-.03,1.828-.095.466-.025.945-.1,1.412a89.756,89.756,0,0,1-1.169,8.987,47.777,47.777,0,0,1-1.219,5.651,19.912,19.912,0,0,1-4.581,8.321,13.011,13.011,0,0,1-4.271,2.909,15.537,15.537,0,0,1-4.461,1.039,3.616,3.616,0,0,0-.71.068c-1.105.036-2.211.025-3.317,0a4.455,4.455,0,0,0-.906-.069c-.457-.034-.91-.118-1.369-.12-.762-.121-1.533-.195-2.285-.371a13.778,13.778,0,0,1-5.324-2.232,6.217,6.217,0,0,1-1.025-.864,1.071,1.071,0,0,1-.059-1.246,1.467,1.467,0,0,1,1.539-.714c.506.131.838.563,1.263.836a12.932,12.932,0,0,0,6.549,2.016c.49.1,1,.009,1.489.093q1.362.047,2.727.025a12.563,12.563,0,0,0,5.605-1.2,11.71,11.71,0,0,0,4.148-3.759,19.252,19.252,0,0,0,2.564-5.845,59.185,59.185,0,0,0,1.248-6.264c.317-2.026.595-4.059.784-6.1.084-.533.056-1.078.153-1.61a8.467,8.467,0,0,1,.052-.978c.032-.324.008-.651.065-.973.012-.477.008-.954.02-1.431a14.217,14.217,0,0,0,.05-1.815c-.105-.555-.019-1.125-.091-1.684a20.315,20.315,0,0,0-.232-2.38,3.047,3.047,0,0,0-.725-1.654.536.536,0,0,0-.72-.057,2.514,2.514,0,0,0-.649,1,16.521,16.521,0,0,0-.727,2.6c-.188,1.017-.43,2.024-.652,3.034-.5,2.315-.955,4.64-1.405,6.966a1.134,1.134,0,0,1-.722.861,1.429,1.429,0,0,1-1.891-.852,8.292,8.292,0,0,1,.051-1.341c.034-.4.058-.793.1-1.187a10.3,10.3,0,0,1,.071-1.395c.02-.525.018-1.051.025-1.576.067-1.3.034-2.6.033-3.9-.059-.995-.029-1.993-.063-2.988a13.778,13.778,0,0,1-.072-1.536c-.068-.392-.027-.793-.088-1.185-.027-.543-.009-1.087-.04-1.629a3.921,3.921,0,0,1-.057-.775,11.294,11.294,0,0,0-.6-3.075,2.552,2.552,0,0,0-.972-1.3,1.145,1.145,0,0,0-1.072-.12,1.472,1.472,0,0,0-.577.736,12.3,12.3,0,0,0-.4,1.228,36.867,36.867,0,0,0-1.2,6.084c-.14,1.063-.219,2.133-.358,3.2.014.35-.082.688-.084,1.037-.23,2.169-.432,4.345-.851,6.49-.108.445-.1.973-.469,1.305a1.424,1.424,0,0,1-2.138-.34,1.24,1.24,0,0,1-.118-.7c.012-.823.018-1.647.032-2.47.085-.623.012-1.256.091-1.88a16.962,16.962,0,0,1,.072-1.817c.012-1.169.027-2.338.032-3.507.072-.581.006-1.17.094-1.749a10.082,10.082,0,0,1,.064-1.3c.04-.542.009-1.086.069-1.626a27.927,27.927,0,0,0-.074-3.37,6.879,6.879,0,0,0-.674-2.6,1.817,1.817,0,0,0-1.539-.961,2.287,2.287,0,0,0-1.446.426,2.231,2.231,0,0,0-.675,1.477,3.72,3.72,0,0,0-.079.745c-.081.493-.015,1-.082,1.489a16.247,16.247,0,0,1-.082,1.725c-.021.421-.011.843-.028,1.264-.082.645-.012,1.3-.1,1.945-.009,1.191-.025,2.382-.029,3.573a8.419,8.419,0,0,0,.018.958c-.029-.067-.051-.136-.075-.2,0,2.606-.01,5.213,0,7.819a1.293,1.293,0,0,1-.74,1.238,1.825,1.825,0,0,1-.909.1,1.286,1.286,0,0,1-1.061-1.27c0-2.057.012-4.114-.029-6.17-.066-.623,0-1.254-.1-1.874a11.563,11.563,0,0,0-.068-1.375c-.011-.847-.106-1.687-.156-2.531a7.63,7.63,0,0,1-.114-.956c-.167-1.082-.29-2.174-.527-3.244a1.765,1.765,0,0,0-.751-1.2,1.482,1.482,0,0,0-1.08.138,3.2,3.2,0,0,0-1.435,1.776,13.049,13.049,0,0,0-.619,2.713,18.549,18.549,0,0,0-.261,2.885,2.5,2.5,0,0,0-.066-.412,7.192,7.192,0,0,1-.058,1.414c0,.694-.067,1.385-.067,2.079-.027,1.569-.011,3.139.077,4.7a5.409,5.409,0,0,1,.056.929c.069.61.1,1.224.132,1.837.092.417.038.847.119,1.266.075.46.04.93.125,1.389a12.4,12.4,0,0,1-.169,3.189,5.7,5.7,0,0,1-1.579,3.013,5.354,5.354,0,0,1-3.144,1.369,18.385,18.385,0,0,1-2.408.041c-.466-.06-.938-.021-1.4-.1-.742-.025-1.486-.025-2.228-.007a5.194,5.194,0,0,0-2.952,1.228,2.607,2.607,0,0,0-.773,1.272,3.664,3.664,0,0,0,.01,1.015,4,4,0,0,0,1.836,2.141,14.781,14.781,0,0,0,3.314,1.605,17.91,17.91,0,0,0,2.689.656c1.275.266,2.572.375,3.855.578a.941.941,0,0,1,.8.351.778.778,0,0,1-.051,1.015.985.985,0,0,1-.634.184c-1.171.006-2.342.027-3.513,0-.424-.059-.854-.028-1.28-.06-.381-.078-.774-.045-1.154-.136a11.715,11.715,0,0,1-6.44-2.677,6.571,6.571,0,0,1-2.061-3.243,5.072,5.072,0,0,1-.1-1.563,5.2,5.2,0,0,1,1.186-2.671,6.26,6.26,0,0,1,3.051-2.039,11.8,11.8,0,0,1,1.754-.377,5.05,5.05,0,0,0,.714-.063c1.019-.039,2.038-.016,3.057,0a21.253,21.253,0,0,0,2.532.058,2.325,2.325,0,0,0,1.714-.862,3.11,3.11,0,0,0,.6-1.9c0-.78.013-1.559-.015-2.338,0-.457-.121-.905-.123-1.362a36.493,36.493,0,0,1-.329-3.7,22.952,22.952,0,0,1-.073-2.335c-.08-.645-.025-1.3-.042-1.947.078-.638.034-1.282.058-1.923.1-.752.049-1.519.179-2.269a5.111,5.111,0,0,1,.074-.834c.108-1.015.269-2.021.462-3.023a9.284,9.284,0,0,1,1.8-4.015,4.569,4.569,0,0,1,2.819-1.736,3.629,3.629,0,0,1,1.736.1,3.314,3.314,0,0,1,1.346.813l.069.007a7.549,7.549,0,0,1,.778-2.676A4.092,4.092,0,0,1,126.047,30.392Z" transform="translate(-98.481 -27.95)" fill="#c6d0d9"/>
      <path id="Path_108984" data-name="Path 108984" d="M2.721,0S-.59,4.841.093,8.906A22.174,22.174,0,0,0,1.839,15" transform="matrix(-0.5, 0.866, -0.866, -0.5, 36.041, 40.901)" fill="none" stroke="#ff8100" stroke-width="2.3"/>
    </g>
    <rect id="Rectangle_6652" data-name="Rectangle 6652" width="56" height="56" transform="translate(1272 264)" fill="none"/>
  </g>
</svg>
