<svg xmlns="http://www.w3.org/2000/svg" width="56.274" height="66.598" viewBox="0 0 56.274 66.598">
  <g id="icon-4" transform="translate(-855.752 -434.651)">
    <g id="_000000ff" data-name="#000000ff" transform="translate(781.539 397.191)">
      <path id="Path_108979" data-name="Path 108979" d="M90.412,41.193a21.181,21.181,0,0,1,10.872-.764c3.461.822,5.625,1.812,9.638,2.071s12.052-.414,13.747-4.691l1.064.549.258.1a41.48,41.48,0,0,1,.325,9.141,19.173,19.173,0,0,1-1.9,7.613c-1.136,2.379-5.018,5.84-6.788,6.7a15.086,15.086,0,0,1-6.664,1.146c-2.427-.155-4.824-.656-7.26-.656a15.977,15.977,0,0,0-5.99,1.058c.694,1.966,1.4,3.927,2.087,5.895.185.614.793.948,1.149,1.456a5.528,5.528,0,0,1,4.3.341,4.29,4.29,0,0,1,2.087,3.616,4.129,4.129,0,0,1,4.81,5.276,3.269,3.269,0,0,1,2.228,1.673,4.463,4.463,0,0,1-.255,4.092,14.663,14.663,0,0,1-2.808,3.222c-1.1,1.067-2.234,2.1-3.366,3.138,1.089,3.1,2.188,6.191,3.271,9.291a.814.814,0,0,1-.378,1.057q-1.252.629-2.532,1.206a.82.82,0,0,1-1.142-.515c-.992-2.594-1.972-5.194-2.959-7.792-4.856,4.021-12.524,4.474-17.889,7.792-.424.247-.91.688-1.429.416a.83.83,0,0,1,.042-1.487c7.974-4.9,9.142-2.534,16.022-6.721a41.323,41.323,0,0,0,11.5-10.028,3.19,3.19,0,0,0,.569-2.649,1.515,1.515,0,0,0-1.168-1.058c-.433-.114-.807.2-1.209.293a.823.823,0,0,1-.836-1.064,7.917,7.917,0,0,0,.693-1.153,2.58,2.58,0,0,0-.864-2.98,2.755,2.755,0,0,0-3.119.118.829.829,0,0,1-1.348-.366c-.159-.527.363-.908.458-1.393a2.5,2.5,0,0,0-1.615-2.757,4.7,4.7,0,0,0-4.076.723A28.636,28.636,0,0,0,95.62,76.78a.885.885,0,0,1-.953.289.809.809,0,0,1-.355-1.284c.631-.7,1.344-1.321,2.03-1.966-.441-1.212-.87-2.428-1.308-3.642a7.607,7.607,0,0,0-3.547,2.029,8.9,8.9,0,0,0-1.745,2.084c-.875,1.616-1.2,3.454-2.006,5.1a23.07,23.07,0,0,1-4.114,5.267c-2.4,2.3-5.191,4.141-7.794,6.2a.829.829,0,0,1-1.358-.5c-.091-.533.418-.837.776-1.118a91.319,91.319,0,0,0,7.377-5.892,21.212,21.212,0,0,0,3.689-4.78c.91-2.018,1.259-4.324,2.675-6.091a10.882,10.882,0,0,1,5.49-3.852c-2.908-8.079-5.773-16.173-8.807-24.2-.177-.384-.506-1.214-.1-1.472,1.512-.851,3.25-1.106,4.844-1.749m.231,2.05q3.247,9.335,6.521,18.663a17.864,17.864,0,0,1,7.319-1.134c2.322.069,4.606.559,6.925.656a11.332,11.332,0,0,0,6.218-1.2c1.9-1.168,4.712-3.5,5.88-6.315a19.7,19.7,0,0,0,1.433-8,27.182,27.182,0,0,0-.27-5.185c-1.532,1.677-4.056,2.645-8.238,3.395s-11.882-.747-15.147-1.986-7.48-.1-10.641,1.111M87.4,44.318c3.491,9.435,6.883,18.907,10.284,28.376q.611-.468,1.243-.906c-3.3-9.351-6.618-18.694-9.858-28.064-.566.174-1.12.378-1.669.594m18.136,49.954q1.428,3.8,2.869,7.589c.344-.166.69-.33,1.037-.5q-1.412-4.013-2.826-8.024Q106.077,93.809,105.536,94.272Z" transform="translate(0)" fill="#c6d0d9" stroke="#c6d0d9" stroke-width="0.5"/>
      <path id="Path_108980" data-name="Path 108980" d="M364.822,109.9a22.64,22.64,0,0,1-11.534,14.947c-.009.052-.531-1.633-.517-1.657a20.932,20.932,0,0,0,10.321-13.418C363.11,109.764,364.807,109.856,364.822,109.9Z" transform="translate(-234.594 -56.523)" fill="#ff8100" stroke="#ff8100" stroke-width="0.5"/>
      <path id="Path_108981" data-name="Path 108981" d="M3.39,0l.68.505.608.4a4.846,4.846,0,0,1-.722,1.107C3.032,3.228,2.146,4.478,1.206,5.684,1.159,5.665.076,4.542,0,4.455Q1.473,2.484,2.932.505A2.63,2.63,0,0,1,3.39,0Z" transform="matrix(0.951, 0.309, -0.309, 0.951, 124.317, 63.656)" fill="#ff8100" stroke="#ff8100" stroke-width="0.5"/>
    </g>
    <path id="Path_108982" data-name="Path 108982" d="M1.115,7.092A2.9,2.9,0,0,0,0,8.435" transform="translate(873.426 455.571) rotate(47)" fill="none" stroke="#ff8100" stroke-width="2.5"/>
    <path id="Path_108983" data-name="Path 108983" d="M.2,7.092C.05,8.031,0,9.427,0,9.427" transform="matrix(0.934, -0.358, 0.358, 0.934, 893.074, 458.423)" fill="none" stroke="#ff8100" stroke-width="2.5"/>
  </g>
</svg>
