<?xml version="1.0" encoding="utf-8"?>
<!-- Generator: Adobe Illustrator 24.0.1, SVG Export Plug-In . SVG Version: 6.00 Build 0)  -->
<svg version="1.1" id="Layer_1" xmlns="http://www.w3.org/2000/svg" xmlns:xlink="http://www.w3.org/1999/xlink" x="0px" y="0px"
	 viewBox="0 0 24 24" style="enable-background:new 0 0 24 24;" xml:space="preserve">
<style type="text/css">
	.st0{fill:#FFFFFF;}
	.st1{fill:none;}
</style>
<g id="message-text" transform="translate(-236 -250)">
	<g id="Vector">
		<path class="st0" d="M248,273.4c-0.4,0-0.8-0.1-1.2-0.4c-0.3-0.2-0.5-0.4-0.7-0.7l-1.6-2.1c0-0.1-0.2-0.1-0.3-0.1h-0.5
			c-4.4,0-7.1-1.2-7.1-7.1v-5.3c0-4.7,2.5-7.1,7.1-7.1h8.5c4.6,0,7.1,2.5,7.1,7.1v5.3c0,4.7-2.5,7.1-7.1,7.1h-0.5
			c-0.1,0-0.2,0-0.3,0.1l-1.6,2.1c-0.3,0.5-0.8,0.8-1.4,0.9C248.3,273.4,248.2,273.4,248,273.4z M243.8,252.1
			c-3.8,0-5.6,1.8-5.6,5.6v5.3c0,4.8,1.7,5.6,5.6,5.6h0.5c0,0,0,0,0,0c0.5,0,1,0.3,1.4,0.7l1.6,2.2c0.1,0.1,0.2,0.2,0.3,0.3
			c0.2,0.1,0.4,0.1,0.6,0.1c0.2,0,0.4-0.2,0.5-0.3l1.6-2.2c0.3-0.5,0.9-0.7,1.4-0.7h0.5c3.8,0,5.6-1.8,5.6-5.6v-5.3
			c0-3.8-1.8-5.6-5.6-5.6H243.8z"/>
	</g>
	<g id="Vector-2">
		<path class="st0" d="M252.3,258.4h-8.6c-0.4,0-0.8-0.3-0.8-0.8s0.3-0.8,0.8-0.8h8.6c0.4,0,0.8,0.3,0.8,0.8
			S252.7,258.4,252.3,258.4z"/>
	</g>
	<g id="Vector-3">
		<path class="st0" d="M252.3,263.5h-5.5c-0.4,0-0.8-0.3-0.8-0.8s0.3-0.8,0.8-0.8h5.5c0.4,0,0.8,0.3,0.8,0.8
			S252.7,263.5,252.3,263.5z"/>
	</g>
	<g id="Vector-4">
		<path class="st1" d="M236,250h24v24h-24V250z"/>
	</g>
</g>
</svg>
