<?xml version="1.0" encoding="utf-8"?>
<!-- Generator: Adobe Illustrator 24.0.1, SVG Export Plug-In . SVG Version: 6.00 Build 0)  -->
<svg version="1.1" id="search" xmlns="http://www.w3.org/2000/svg" xmlns:xlink="http://www.w3.org/1999/xlink" x="0px" y="0px"
	 viewBox="0 0 24 24" style="enable-background:new 0 0 24 24;" xml:space="preserve">
<style type="text/css">
	.st0{fill:none;}
	.st1{fill:#30373D;}
</style>
<g id="Component_165_508">
	<g id="Path_5247">
		<path class="st0" d="M0,0h24v24H0V0z"/>
	</g>
</g>
<g id="Group_1534" transform="translate(3 3)">
	<g id="Ellipse_318">
		<g>
			<circle class="st0" cx="8" cy="8" r="8"/>
		</g>
		<g>
			<path class="st1" d="M8,15.9c-4.4,0-8-3.6-8-8c0-4.4,3.6-8,8-8c4.4,0,8,3.6,8,8C15.9,12.3,12.3,15.9,8,15.9z M8,1
				C4.1,1,1,4.1,1,8s3.1,7,7,7s7-3.1,7-7S11.8,1,8,1z"/>
		</g>
	</g>
	<g id="Line_140">
		<path class="st1" d="M17.5,18c-0.1,0-0.3,0-0.4-0.1l-4.2-4.2c-0.2-0.2-0.2-0.5,0-0.7s0.5-0.2,0.7,0l4.2,4.2c0.2,0.2,0.2,0.5,0,0.7
			C17.8,18,17.6,18,17.5,18z"/>
	</g>
</g>
</svg>
