<svg id="Layer_1" data-name="Layer 1" xmlns="http://www.w3.org/2000/svg" viewBox="0 0 227.97 81.21"><defs><style>.cls-1{isolation:isolate;}.cls-2{fill:#fb732d;}</style></defs><title>سنجابک</title><g class="cls-1"><path class="cls-2" d="M64.35,74.53a73.54,73.54,0,0,0,1.28,8.35,41.53,41.53,0,0,0,3,9.4,10.34,10.34,0,0,0,2.94,3.42,5.33,5.33,0,0,0,2.94,1,2.15,2.15,0,0,1,2.18,2.18,2.06,2.06,0,0,1-.63,1.52,2.1,2.1,0,0,1-1.55.63h-.07a15.62,15.62,0,0,1-8.85-2.78,23.68,23.68,0,0,1-6.44-6.74,24,24,0,0,1-9.77,7Q43,101.24,33.13,101q-11.4-.47-18-3.14T5.7,91.2a16.49,16.49,0,0,1-3.32-8.28,24.53,24.53,0,0,1,.51-8.14,35.68,35.68,0,0,1,2-6.21,19.76,19.76,0,0,1,1.22-2.5,11.79,11.79,0,0,1,5.25-.18,13,13,0,0,1,4.1,1.57,18.63,18.63,0,0,1-1,4.92,53.27,53.27,0,0,0-1.7,7.17,17.79,17.79,0,0,0,.26,7.6,10.26,10.26,0,0,0,4.79,6.12q3.86,2.45,12,2.74a32.67,32.67,0,0,0,11.35-1.47,19.3,19.3,0,0,0,8.41-5.47,17.91,17.91,0,0,0,3-6.26,30.26,30.26,0,0,0,1-6.41c.08-2,.08-3.72,0-5,0-.55,0-1,0-1.39q-.09-3.5-.3-7c0-.64-.08-1.27-.13-1.91s0-1.08-.1-1.46a8.73,8.73,0,0,1,0-1.2,1.57,1.57,0,0,1,.38-.85,13.88,13.88,0,0,1,1.14-1.18L73,40.66c.39-.33.81-.67,1.25-1A25,25,0,0,1,78,37a6.07,6.07,0,0,1,4.16-.79,13.74,13.74,0,0,1,4.08,1.6,6.58,6.58,0,0,1,3,3.26,102.18,102.18,0,0,1-10,7c-1,.64-1.9,1.24-2.81,1.82S74.6,51,73.74,51.57q-5,3.24-10,6.67a42.54,42.54,0,0,0,0,6.61q.23,4.26.59,8.23C64.3,73.58,64.33,74.07,64.35,74.53Z" transform="translate(-2.25 -36.08)"/><path class="cls-2" d="M82,105.66a6.32,6.32,0,0,1,0,9.09,6.72,6.72,0,0,1-9.32,0,6.32,6.32,0,0,1,0-9.09,6.72,6.72,0,0,1,9.32,0Zm-8-4.66h0a2.15,2.15,0,0,1-2.15-2.15,2.1,2.1,0,0,1,.61-1.53,2.19,2.19,0,0,1,1.54-.65h.33a3.38,3.38,0,0,0,2.94-1.29,6.16,6.16,0,0,0,1.07-3.25A18.64,18.64,0,0,0,78.05,88a37.57,37.57,0,0,0-.79-4c-.32-1.24-.6-2.2-.85-2.88q-.72-2-1.32-3.57c-.68-1.65-1-2.6-.86-2.84a7.2,7.2,0,0,1,7.27.69,10,10,0,0,1,2.7,3.31,22.37,22.37,0,0,1,2,5.14,21.14,21.14,0,0,1,.7,5.88,13.9,13.9,0,0,1-1.24,5.53,9.32,9.32,0,0,1-3.78,4.13,13.47,13.47,0,0,1-7,1.59Z" transform="translate(-2.25 -36.08)"/><path class="cls-2" d="M106.81,96.67a2.12,2.12,0,0,1,1.54.63,2.19,2.19,0,0,1-1.54,3.73,19.92,19.92,0,0,1-5.85-.66,12.73,12.73,0,0,1-5.89-3.65,16.24,16.24,0,0,1-3.69-7.52,52.8,52.8,0,0,1-.73-10.5A119,119,0,0,1,91.45,66a34,34,0,0,1,1.91-8.88,10.79,10.79,0,0,1,5.31-.79,27.42,27.42,0,0,1,4.44.83q-.8,8.13-1.19,12.7c-.26,3.06-.44,5.59-.53,7.62a59.67,59.67,0,0,0,.33,11.4,14,14,0,0,0,2,6A3.84,3.84,0,0,0,106.81,96.67Z" transform="translate(-2.25 -36.08)"/><path class="cls-2" d="M106,101h0a2.18,2.18,0,0,1-1.53-3.73,2.12,2.12,0,0,1,1.53-.63,27.85,27.85,0,0,0,16-5.58,15.31,15.31,0,0,0,5-6.38c1.12-3,1.38-5.53.76-7.47a6.23,6.23,0,0,0-3.87-4.06,13.88,13.88,0,0,0-7.27-.47.11.11,0,0,1-.1,0,31,31,0,0,1-4.79.56,4.11,4.11,0,0,1-2.81-1,1.56,1.56,0,0,1-.39-2.08c.42-.76,1.67-1.35,3.77-1.76a36.48,36.48,0,0,1,9.41-.45,27.83,27.83,0,0,1,8.78,2.08,14.07,14.07,0,0,1,6.14,4.78,10.3,10.3,0,0,1,1.51,7.66,43.4,43.4,0,0,0-.3,6.28,9.51,9.51,0,0,0,1.65,5.45c1.06,1.5,3,2.29,5.75,2.38a2.14,2.14,0,0,1,1.54.63,2.18,2.18,0,0,1,0,3.09,2.11,2.11,0,0,1-1.54.64h-.07a29,29,0,0,1-10-1.68,17.79,17.79,0,0,1-6.41-4,34.71,34.71,0,0,1-7.6,3.54A38.44,38.44,0,0,1,108.43,101Zm16.73,5.29a6.29,6.29,0,0,1,0,9.09,6.72,6.72,0,0,1-9.32,0,6.32,6.32,0,0,1,0-9.09,6.72,6.72,0,0,1,9.32,0Z" transform="translate(-2.25 -36.08)"/><path class="cls-2" d="M144.81,101a.31.31,0,0,1-.13,0,2.19,2.19,0,0,1-2.18-2.18,2.08,2.08,0,0,1,.64-1.55,2.14,2.14,0,0,1,1.54-.63,3.51,3.51,0,0,0,2.91-1.45,10.91,10.91,0,0,0,1.77-3.72,33,33,0,0,0,1-4.81c.22-1.69.38-3.3.46-4.82.05-.73.08-1.4.1-2,.07-1.25.14-2.17.2-2.74q4.47-1.45,7.24-.41t2.91,5v0c0,.31,0,.63,0,1a17.13,17.13,0,0,0,1.59,8.11,13.24,13.24,0,0,0,3.83,4.54,6.34,6.34,0,0,0,3.87,1.29,2.12,2.12,0,0,1,1.53.63,2.19,2.19,0,0,1-1.53,3.73v0h-.07a16.63,16.63,0,0,1-7.55-1.73,18.82,18.82,0,0,1-5.73-4.52,8.51,8.51,0,0,1-.56-.66A19.73,19.73,0,0,1,151.29,99,12.93,12.93,0,0,1,144.81,101Zm13.73-40.08a6.28,6.28,0,0,1,0,9.08,6.69,6.69,0,0,1-9.32,0,6.3,6.3,0,0,1,0-9.08,6.72,6.72,0,0,1,9.32,0Z" transform="translate(-2.25 -36.08)"/><path class="cls-2" d="M170.09,101a2.36,2.36,0,0,1-1.6-.56,1.89,1.89,0,0,1-.65-1.49,2.16,2.16,0,0,1,.63-1.57,2.36,2.36,0,0,1,1.55-.71A9.4,9.4,0,0,0,177,93.4a21.23,21.23,0,0,0,4-7.32c.92-2.87,1.61-5.08,2.08-6.61s.87-3,1.22-4.28a11.11,11.11,0,0,0,.26-1.12,4.93,4.93,0,0,1,.5-1.52,1.45,1.45,0,0,1,1.29-.66,14.83,14.83,0,0,1,4.49.46.75.75,0,0,1,.23,0,13.1,13.1,0,0,1,1.51.42,1.07,1.07,0,0,1,.64.54,6,6,0,0,1,.33,1.13c.05.28.12.62.23,1l2.68,14.67q2.31,6.28,4.63.17a62.46,62.46,0,0,0,1.65-9.68,60.11,60.11,0,0,0,.13-6.68c0-.26,0-.5,0-.69v-.17c0-.48.37-.77,1-.86.27.07.59.13,1,.2l4.07.73.26,0a8.8,8.8,0,0,1,1.47.33,1.13,1.13,0,0,1,.65.6,8.71,8.71,0,0,1,.43,1.35,6.77,6.77,0,0,0,.16.69,43,43,0,0,1,1.12,8.17,39.84,39.84,0,0,0,1.23,8.22q1,3.21,2.43,3.75a2.41,2.41,0,0,0,2.72-.72A7.77,7.77,0,0,0,221.21,92a15.73,15.73,0,0,0-.43-7.43,59.25,59.25,0,0,0-2.31-6.77c-.69-1.63-1-2.58-.86-2.84a7.2,7.2,0,0,1,7.27.39A10.58,10.58,0,0,1,228,79.54a23.4,23.4,0,0,1,2,6.59,18.35,18.35,0,0,1-.27,7.1,10.29,10.29,0,0,1-3.56,5.69q-2.74,2.25-8,2.31a14.42,14.42,0,0,1-6.41-1.2,15.44,15.44,0,0,1-3.9-3,1,1,0,0,0-.23-.23c-.64.71-.77.66-.4-.13q-2.47,5-8.95,5.1t-8.33-6c-.13.39-.43-.65-.89-3.14-.29-1.48-.53-2.58-.73-3.31a33.87,33.87,0,0,1-4.42,5.59,22.37,22.37,0,0,1-6.07,4.38A17.69,17.69,0,0,1,170.09,101Z" transform="translate(-2.25 -36.08)"/></g></svg>