<svg xmlns="http://www.w3.org/2000/svg" width="1155" height="1046" fill="none"><mask id="a" width="1155" height="1046" x="0" y="0" maskUnits="userSpaceOnUse" style="mask-type:alpha"><path fill="#D9D9D9" d="M0 0h1155v1046H0z"/></mask><g fill="#E7EBEE" fill-opacity=".5" mask="url(#a)"><path d="m-138.107 20.993.901 1.952 4.478 4.592.099.09.089.118 1.766 2.132.125.154.09.136 4.139 6.128.063.09 4.657 7.34c.053.071.098.153.143.234.053.09.098.18.142.28l1.945 4.068 4.247 6.154.062.082.018.036 2.142 3.362 8.725 11.723.009.036.027.01 6.816 8.08.09.098 1.748 2.106.062.073 4.381 5.405.027.037.053.062 4.381 5.822.143.207.134.208 1.472 2.576.062.126 2.141 3.922 3.15 4.972 1.641 2.368 4.167 5.143 4.523 5.251.054.054 5.772 6.897.08.108.099.126 2.962 4.096.107.144.026.045 4.747 7.185 4.006 5.794.116.189.133.217 4.238 7.837c.045.082.08.153.116.243.054.082.09.182.125.281l4.452 11.108 2.668 5.939 3.756 7.727.062.126.018.037 1.285 2.91.018.054.018.045 1.026 2.468.026.054 3.703 9.075.036.099.018.055 3.943 10.61.054.163.062.199.517 1.789v.01l.045.18 3.676 14.579.044.225 1.83 8.714.008.072.045.198 1.213 7.72.018.154.01.026 2.158 17.39.01.127.008.099.107 1.211.01.118 1.73 23.834c.009.099.009.207.009.297.009.118.009.236 0 .344l-.848 23.798-.027 1.221c0 .099 0 .198-.008.307l-.027.217-.41 3.723-.01.118-2.453 21.295-.018.144-.027.172-2.4 13.828-1.793 10.891-2.088 21.611-.009.126-.339 3.29-1.57 24.721.107 4.852.99 19.56.741 4.221.018.081 2.4 13.25 1.436 6.715 2.061 7.737 2.748 9.038.045.126 1.186 4.295 1.009 3.021 3.756 5.928 2.239 3.332.134.22.125.226 3.113 6.166 4.783 8.834.437.682.089.213.08.07 5.54 7.922 3.177 4.237.053.08 2.66 3.712 5.834 7.477 6.379 4.773 1.767 1.024.107.064.142.095 5.113 3.761 3.185 1.701 3.8 1.607 4.586 1.364 3.132.666 5.362.735 2.819.184 5.62.03 2.802-.56 5.505-1.549 8.61-3.119 5.736-2.611.054-.022.018-.008 10.295-4.297.108-.043 10.126-4.318.053-.009.072-.055 8.788-3.61c.089-.036.178-.063.267-.087.09-.028.188-.051.277-.063l1.204-.159 7.307-2.037c.107-.029.223-.052.33-.06.116-.018.232-.022.348-.018l1.811.104 6.736-.467c.09-.008.188-.008.277.006.098 0 .205.011.303.03l1.901.405 6.727.856.151.026.143.034 8.761 2.226.143.044.134.051.812.317.071.029 5.764 2.395 1.864.702.143.057.134.044.062.027.063.026 7.342 3.354.054.027 1.428.68.089.043.143.08 5.852 3.566.116.078 2.837 1.915 4.238 2.572.045.024.098.064 7.057 4.809.143.112.098.075 6.102 5.092.438.282c.062.042.134.089.196.139.062.045.125.091.178.144l1.901 1.701.044.038.072.072 4.684 4.657.08.082.08.086 1.624 1.864.045.056.035.035 4.55 5.604.134.183.107.152 4.069 6.296 1.418 1.514c.063.064.125.136.179.214l.16.214 3.194 4.668c.116.17.214.361.304.557.098.185.178.378.249.591l1.874 5.79.045.123 2.043 6.416 2.168 6.411.025.073 2.085 6.257c.115.351.179.717.199 1.083.07.349.09.726.064 1.106l-1.203 16.227-.424 8.737c-.02.335-.071.653-.161.947a3.898 3.898 0 0 1-.258.909l-2.647 6.153-.009.026-.036.098-8.77 18.871-.089.168a9.817 9.817 0 0 1-.134.271l-8.788 15.17-.116.19-.116.152-7.03 9.708-1.454 2.766-.027.055-8.726 16.538-2.382 4.864-5.415 24.1-1.428 24.381-.027 2.489 1.035 21.719 2.998 15.101 3.239 8.557 1.008 2.142.678 1.002.125.199.134.224 4.309 8.308 4.3 6.76.054.085.053.093 1.142 2.019 2.32 3.409 4.943 5.906.151.193.143.202 8.672 13.531 1.196 1.483.044.053.045.057 2.846 3.797c.125.159.223.331.312.519.107.169.196.358.277.558l2.382 6.38.018.063 4.507 12.154.032.085 2.373 6.455c.2.54.271 1.158.226 1.756a4.247 4.247 0 0 1-.136 1.778l-4.689 15.339-.052.161-.026.055-3.484 9.781a3.5 3.5 0 0 1-.429.811 2.716 2.716 0 0 1-.508.714l-5.264 5.217-2.766 2.886-5.861 7.03-.108.117-.142.145-8.066 7.764-1.757 1.861a4.894 4.894 0 0 1-.205.2c-.063.054-.125.108-.188.153l-7.655 5.785-.16.108-.116.072-2.436 1.402-6.254 4.04-.045.026-4.978 3.046-3.756 2.45c-.054.036-.125.072-.179.109-.062.036-.133.062-.205.099l-6.843 2.919-1.856.895-.124.054-.116.054-8.217 2.874-.384.154-.116.009-.116.073-3.881 1.31-13.624 5.107-.125.045-.089.027-1.98.542-.072.019-9.617 2.539-.054.009-.098.028-5.692 1.166-3.712 1.238-.071.018-.054.017-4.791 1.275-4.96 2.666-.054.019-3.426 1.789-7.583 5.296-9.582 8.542-.17.135-.16.126-2.507 1.691-6.112 4.736-.125.091-5.692 4.053-3.042 2.3c-.054.05-.125.09-.188.13-.053.03-.116.07-.178.11l-8.012 4.19-.74.41-.152.07-.17.08-8.743 3.35-.107.04-.107.04-.634.18-.098.02-8.1 2-1.482.39c-.062.02-.125.04-.187.04a.79.79 0 0 1-.214.03l-7.262.54-1.713.19c-.09.01-.188.01-.277.01-.098 0-.205-.01-.312-.02l-6.879-1.16-1.133.01c-.125 0-.241-.01-.357-.04-.116-.01-.24-.03-.366-.08l-7.2-2.47-.134-.01c-.089-.01-.187-.01-.276-.04-.098-.02-.196-.05-.294-.07l-7.807-2.58a1.522 1.522 0 0 1-.535-.27c-.09-.05-.188-.09-.286-.15l-7.012-3.06c-.063-.04-.125-.06-.179-.09-.062-.04-.116-.06-.178-.1l-1.437-.91-5.745-1.99-.099-.04-.062-.02-2.596-1.134-4.88-1.12-3.614-.633-.17-.045a.848.848 0 0 1-.178-.054l-4.238-1.492-4.229-.796a1.141 1.141 0 0 1-.25-.071.863.863 0 0 1-.25-.091l-3.354-1.491-5.032-1.149a1.122 1.122 0 0 1-.285-.09 1.58 1.58 0 0 1-.268-.108l-2.471-1.292-5.951-1.899a17.92 17.92 0 0 0-.214-.08c-.072-.037-.152-.064-.223-.109l-8.628-4.14c-.07-.036-.133-.063-.187-.1-.08-.045-.152-.09-.223-.135l-1.99-1.338a1.239 1.239 0 0 1-.223-.163l-.214-.189-4.987-4.907-.063-.064-1.73-1.763-.08-.099-.099-.109-4.541-5.459-.08-.09-4.202-5.187a2.257 2.257 0 0 1-.206-.29 2.627 2.627 0 0 1-.196-.317l-4.282-7.61a3.9 3.9 0 0 1-.214-.434 3.502 3.502 0 0 1-.179-.46l-2.079-6.409-2.302-6.074-.035-.081-.018-.063-2.088-6.038-2.694-5.929-.045-.099-.062-.127-1.9-4.854-1.651-2.865a1.883 1.883 0 0 1-.125-.235c-.036-.081-.08-.171-.116-.253l-3.087-7.304-5.407-8.915-.035-.064-.072-.115-8.77-15.825-.107-.202-.098-.198-4.024-9.105-.044-.093-4.666-10.476-2.802-5.855-4.836-8.364-.035-.054-.036-.07-.794-1.381-.098-.159-.045-.078-4.889-8.544-3.479-3.993-.107-.139-.063-.076-2.15-2.89-6.013-4.581-.036-.024-.107-.089-3.72-1.67c-.063-.027-.116-.055-.179-.087a2.64 2.64 0 0 1-.205-.115l-2.909-1.866-8.038 1.245-.955.618-.107.061-.027.018-7.173 4.074-2.221 2.603-.072.084-.053.054-5.808 6.112-4.738 10.194-3.426 13.365-2.453 11.116-.036.16v.017l-6.334 24.671-.099.395a3.118 3.118 0 0 1-.089.312 3.43 3.43 0 0 1-.098.291l-8.681 22.663-.035.082-.919 2.387-.099.216-.107.226-7.833 15.239-4.8 9.798-.045.08-.053.09-3.988 7.277-.098.163-.125.189-5.139 7.447-6.745 10.296v.008l-.036.054-5.647 8.37-.125.172-.116.135-4.925 5.867-3.765 4.918-.08.1-4.764 5.82-.027.04-.045.06-4.033 4.59c-.08.1-.169.18-.267.26-.089.09-.179.17-.286.24l-1.936 1.33-6.629 5.71c-.071.06-.142.11-.214.16l-.196.13-4.996 2.91-3.578 2.59c-.062.05-.134.09-.196.13-.072.05-.152.09-.232.13l-7.129 3.33-1.454.86-.152.07-.133.06-8.771 3.75a1.61 1.61 0 0 1-.508.14.526.526 0 0 1-.179.04l-8.645 1.46c-.071.01-.134.02-.205.02-.063.01-.116.01-.178.01l-.536-.01-8.101.36-8.538 1.05-8.654 2.09-.054.01-8.734 2.1-8.779 2.39-.125.02-.107.02-3.649.57-.063.01-5.103.77-.152.01-.133.01-3.971.06h-.08l-4.818-.11-.134-.01-.142-.02-3.739-.56-.098-.02-.026-.01-5.059-1.09-.045-.01h-.009l-3.095-.74-.081-.01-.098-.03-7.887-2.58-.116-.04-.134-.06-6.602-3.01-.107-.05-.125-.06-.937-.57-.116-.07-.107-.07-3.515-2.58-3.417-2.06-.107-.08-.08-.05-7.048-4.3-.116-.08-7.129-4.62-.062-.05-.036-.02-3.738-2.65-3.159-1.55-.053-.03-.072-.03-5.237-2.97-1.945-.82-.098-.05-.089-.04-6.522-3.47-.339-.07-.062-.01-.125-.04-6.272-1.84-1.642-.43-.027-.01-8.092-1.5-.044-.01-.027-.01-8.217-.98-.08-.01-8.414-.23h-.053l-1.008-.04-7.718.26h-.142l-.991-.03-7.726.06h-.125l-.116-.01-8.502-.58-.143-.02-.152-.02-1.062-.21-7.217-.08c-.072 0-.143 0-.214-.02a.797.797 0 0 1-.215-.03l-1.097-.24-7.173.38h-.17c-.062 0-.133-.01-.196-.01l-1.097-.14-7.45.78c-.062.01-.134.01-.196.01-.072 0-.134 0-.205-.01l-.875-.07-7.815 1.16c-.098.02-.179.02-.268.02a.972.972 0 0 1-.241 0l-.535-.05-8.119.68a1.15 1.15 0 0 1-.321 0c-.107 0-.223-.01-.339-.04l-8.199-.9a.789.789 0 0 1-.304-.06 1.224 1.224 0 0 1-.312-.09l-.535-.23-7.254-.79a1.535 1.535 0 0 1-.294-.06 1.686 1.686 0 0 1-.295-.09l-.802-.33-7.013.25c-.062.01-.116 0-.179 0l-.142-.01-1.08-.13-7.432.13-.151-.01-.143-.01-1.169-.15-7.334.26h-.24l-.223-.03-1.151-.22-7.147-.32c-.071 0-.134-.01-.205-.02a1.483 1.483 0 0 1-.205-.04l-.999-.24v-8.272c.169-.018.33-.063.508-.027l1.294.325 7.093.317.16.018.134.017 1.071.199 7.262-.253h.178l.152.019 1.08.144 7.423-.126h.151l.134.017 1.16.127 7.316-.262c.151-.009.303.01.446.055.152.009.303.045.446.108l.955.388 7.253.796c.107.009.205.035.303.063.108.028.197.054.304.09l.526.217 7.655.796.125.018.143.027.178.037 7.958-.67c.063-.009.134-.009.206-.009l.16.009.473.037 7.825-1.166c.08-.009.16-.019.24-.019h.25l.928.09 7.468-.786c.089-.009.169-.017.249-.009.072 0 .152 0 .224.009l1.168.146 7.272-.38c.089-.009.178 0 .276.009.089 0 .196.008.286.027l1.159.262 7.209.072c.072 0 .134.01.205.018.063 0 .134.009.197.027l1.008.217 7.494.48h.009l.089.008.839.091 7.717-.064h.09l.936.036 7.718-.262h.151l8.753.172h.116l.107.019.615.071c.072-.017.152-.017.241-.017.206 0 .402.036.589.117l7.334.823.125.017.098.019 8.716 1.638.161.08.134-.01 1.668.43h.009l.072.02 6.165 1.83.615.11c.116.03.223.07.33.1.107.04.205.09.313.13l6.655 3.55 1.936.83.125.05.134.07 5.344 3.01 3.328 1.64c.053.03.116.06.17.1.062.03.124.07.178.11l3.827 2.71 4.881 3.15.071.06 8.654 5.29.143.1.053.04 3.98 2.48.107.07.089.06 3.488 2.58 7.084 3.34 2.115.69.044.01 5.55 1.82 7.967 1.79 3.497.54 4.72.11 3.72-.04 8.538-1.29 5.853-1.6.045-.01 2.846-.75.08-.03 6.727-1.65.063-.01 9.546-2.33.062-.02h.036l1.258-.25.045-.01.098-.02 7.994-1.02.107-.01h.036l.758-.05.08-.01 8.137-.37h.134l.455.01 8.395-1.42.625-.27.035-.02 7.7-3.28 1.347-.8.116-.05.098-.05 7.102-3.32 3.381-2.46.134-.1.089-.05 4.988-2.91 6.477-5.58.098-.07.134-.11 1.838-1.28 3.711-4.23 4.684-5.717 3.765-4.926.081-.099.017-.036 4.907-5.829 5.514-8.162 3.114-4.8.035-.064 3.632-5.494.044-.064 5.059-7.329 3.809-6.933 4.791-9.77.036-.063v-.01l7.762-15.103 9.422-24.556.009-.054.026-.082 6.299-24.537 2.454-11.115.035-.166.009-.009 3.578-13.995c.036-.151.089-.299.143-.439.044-.144.098-.284.16-.426l5.219-11.215c.09-.197.206-.38.322-.544.116-.182.241-.353.383-.507l6.112-6.427 2.56-3.006c.116-.141.25-.259.384-.359a2.15 2.15 0 0 1 .401-.3l7.486-4.253 1.186-.767.143-.082.17-.088.33-.149c.098-.046.196-.081.303-.106.089-.035.187-.058.286-.074l8.475-1.312.036-.002.116-.018.803-.063c.241-.018.482.017.705.105.232.031.473.116.696.261l3.39 2.181 3.658 1.535c.116.053.232.119.348.2.116.065.241.145.348.242l6.789 5.222c.116.087.223.193.33.308.108.099.206.214.304.337l2.275 3.079 3.702 4.256c.081.09.161.186.224.293.08.099.142.203.214.317l4.942 8.667.384.578.116.185.089.157 5.398 9.404.071.15.08.146 2.936 6.113.044.088.018.035 2.034 4.579.045.089 4.925 11.041.027.073 1.686 3.856 3.292 5.838.053.102 5.3 9.65 5.558 9.171c.054.089.107.18.152.276.053.094.098.191.143.293l3.105 7.344 1.677 2.92c.053.095.107.193.151.289.054.102.099.206.143.319l1.945 4.97 2.784 6.11.071.163c.036.09.072.171.107.272l2.097 6.109 2.32 6.091.035.109.045.127 1.99 6.137 2.426 4.212.09.153 1.463 2.694 3.72 4.591c.214.181.393.407.553.669l4.113 4.962 6.46 6.417 1.445.958.062.036.018.019 7.129 3.343.044.028.125.054 1.437.804 5.915 1.889c.062.018.125.045.187.073.063.026.125.054.187.082l2.383 1.247 4.96 1.129c.071.018.143.037.214.063.063.019.134.045.205.073l3.31 1.483 4.14.777.16.035.17.046 4.23 1.491 3.452.615h.045l.062.018 5.166 1.193a.672.672 0 0 1 .196.054c.071.018.134.045.196.073l2.641 1.147 5.996 2.07c.089.036.178.072.267.117.08.036.16.082.241.135l1.517.968 6.932 2.982.214.109c.072.046.152.082.214.136l4.354 1.418.018.01.062.02 3.087 1.09.125.01c.098 0 .197.02.286.05.09.01.178.03.267.06l7.129 2.44.955-.01c.062 0 .116 0 .17.01.07 0 .133.01.204.02l6.772 1.15 1.419-.17.098-.01 7.12-.53 1.275-.34.054-.01 8.074-1.99 4.488-1.74.053-.02 4.577-1.693.589-.317.044-.027 7.852-4.121 2.863-2.151.116-.081.036-.028 5.603-3.995 6.12-4.755.108-.071.044-.028 2.48-1.68 6.174-5.631.045-.028 2.427-2.214.151-.117.125-.099 1.026-.741.018-.01.018-.009 7.744-5.414.16-.099.135-.073 8.77-4.645c.089-.046.178-.091.258-.118.081-.027.152-.054.241-.08l4.934-1.32 3.729-1.248.125-.036.134-.028 5.79-1.192 2.864-.796.027-.008h.009l8.574-2.233 8.074-3.119.08-.035.589-.218.089-.035 4.881-1.736h.009l.026-.009 3.917-1.329h.018l.044-.017.384-.146.063-.026 8.047-2.812 1.838-.895.062-.026.045-.019 6.736-2.873 3.542-2.324.107-.063 4.969-3.037 6.255-4.04.071-.036.045-.027 2.391-1.382 7.307-5.523.963-1.04.018-.017.036-.028.678-.695.08-.082 7.994-7.692 5.763-6.908.072-.079.08-.087 2.909-3.052.009-.001.053-.06 4.702-4.666 3.087-8.633 4.14-13.524-8.431-22.744-2.427-3.226-1.312-1.625-.125-.164-.116-.169-4.452-6.887-.035-.053-4.194-6.6-1.32-1.564-.018-.033-3.479-4.162-.116-.145-.099-.128-2.533-3.688-.089-.135-.099-.159-1.195-2.125-4.309-6.769-.107-.172-.081-.145-4.354-8.369-.74-1.076a8.51 8.51 0 0 1-.161-.277 1.834 1.834 0 0 1-.16-.3l-1.178-2.49-.08-.194-.063-.147-3.506-9.256c-.053-.13-.089-.269-.134-.406-.044-.136-.071-.281-.107-.428l-3.149-15.85a2.789 2.789 0 0 1-.072-.543 4.279 4.279 0 0 1-.053-.464l-.072-1.337v-.073l-.99-20.718v-.148l-.009-.189.036-2.817c0-.084.009-.165.009-.251l.954-17.587.018-.125.509-7.484c.018-.144.027-.285.053-.424.009-.141.036-.282.072-.417l5.638-25.113c.045-.193.098-.379.17-.554.062-.187.125-.372.214-.546l2.632-5.395.018-.036.044-.082 5.639-10.69.045-.078 4.701-8.935a2.47 2.47 0 0 1 .152-.254c.053-.086.107-.17.161-.25l7.083-9.769 8.61-14.866 8.663-18.646 2.266-5.268.375-7.761.009-.147 1.124-15.197-3.908-11.634-.044-.139-3.756-11.69-2.686-3.925-1.445-1.557c-.072-.075-.134-.15-.205-.234a2.724 2.724 0 0 1-.206-.282l-4.121-6.392-4.363-5.367-1.481-1.705-4.559-4.537-1.686-1.517-.402-.25-.161-.113-.142-.109-6.014-5.045-2.533-1.679-.054-.034-4.434-3.074-4.229-2.56-.062-.044-.036-.024-2.855-1.92-5.657-3.465-8.716-4.008-.107-.035-1.874-.707-.036-.011-.035-.017-5.808-2.407-7.736-2.042-.053-.018-1.347-.377-6.709-.852-.081-.013-.089-.014-1.758-.368-6.477.448-.143.004-.107-.001-1.686-.086-7.12 1.983-.124.029-.17.033-1.07.143-8.512 3.496-.036.024-8.725 3.821-.054.017-.08.035-8.699 3.56-.035.016-8.7 3.833-.097.041-.072.029-8.797 3.189-.035.014-.125.038-5.63 1.595-.098.022-.063.016-3.167.637a1.307 1.307 0 0 1-.214.027 1.223 1.223 0 0 1-.223.017l-5.844-.035-.071-.002-.054-.003-2.953-.189-.08-.009-.063-.008-5.513-.753-.09-.011-.07-.014-3.275-.693-.098-.022-.072-.02-4.782-1.419-.089-.028-.143-.053-4.023-1.684-.116-.053-.08-.046-3.534-1.874-.17-.102-.15-.101-5.068-3.738-1.767-1.018-.134-.088-.125-.088-6.896-5.154a1.992 1.992 0 0 1-.384-.362 2.206 2.206 0 0 1-.312-.335l-6.058-7.742-.08-.114-.01-.012-5.879-8.021-.098-.126-5.594-7.987c-.071-.109-.107-.257-.17-.379l-.178-.186-.473-.737-.053-.088-.098-.166-4.898-9.041-.063-.115-3.042-6.038-2.115-3.149-.018-.019-.044-.07-4.077-6.432a3.907 3.907 0 0 1-.25-.495 3.904 3.904 0 0 1-.214-.494l-1.205-3.603-.044-.135-.036-.116-3.988-13.496-.018-.028-.036-.144-2.105-7.9-.036-.118-.027-.144-1.49-6.942-.035-.18-3.007-16.485v-.019l-.036-.181-.24-1.653a2.784 2.784 0 0 1-.036-.281c-.01-.09-.018-.172-.018-.262l-1.008-19.885-.01-.243-.124-5.143v-.236c0-.017 0-.171.009-.262l1.49-23.797.018-.199.107-1.247.009-.082 2.435-25.09c.01-.09.018-.172.036-.253l.018-.117 1.838-11.235.009-.054 2.364-13.602 2.837-24.766.018-.967.009-.126.838-23.545-.205-2.703v-.036l-1.499-20.742-2.212-18.23-1.187-7.503-1.757-8.432-3.034-12.013-.027-.081-.99-3.832-3.863-10.421-3.703-9.074-2.194-5.143-3.774-7.746-.027-.045-.036-.081-2.712-6.047-.062-.136v-.009l-2.133-5.197-.026-.09-2.293-5.821-2.463-4.501-.018-.027-.009-.009-1.552-2.928-3.872-5.605-.08-.107-4.63-7.014-.991-1.329-.054-.064-.009-.017-1.873-2.649-3.997-4.772-.063-.073-6.182-7.23-.08-.099-4.265-5.26-.08-.109-.072-.109-1.802-2.566-.054-.081-.044-.073-3.239-5.116-.08-.135-.054-.09-3.595-6.472-4.176-5.55-4.371-5.377-6.058-7.023-.027-.036-.063-.073-1.873-2.314-.054-.072-.803-1.057-.008-.009-.009-.019-5.211-6.878-.044-.063-3.587-4.926-.036-.045-.107-.162-2.159-3.4-4.407-6.389a5.94 5.94 0 0 1-.295-.506l-1.266-2.53-.036-.082-.027-.054-.767-1.664-4.443-6.994-4.024-5.985-1.499-1.816-4.898-5.017a2.414 2.414 0 0 1-.392-.506 3.857 3.857 0 0 1-.348-.578l-1.196-2.593-.089-.209-.018-.055-.714-1.825-3.158-4.564h8.092l.036.073.803 2.07Z"/><path d="m-88.368 879.573-1.071 1.346 1.177-1.169.161.272 5.523 8.043-.58.784.624-.707 3.23 5.643 2.32 3.461-.59.776.617-.716 3.898 6.649-.624.72.696-.562 1.383 3.408-.696.562.731-.484 1.187 3.573-.723.481.723-.476 3.069 9.316 3.23 8.691 1.374 2.846.99 1.51-.589.768.616-.732 4.496 7.475 4.158 4.257-.473.912.58-.786 1.927 2.774 6.656 4.791-.366 1.003.446-.94.134.118 1.508.633 6.049 2.404.812.217-.152 1.112.187-1.103 7.022 2.295 1.704.335-.107 1.12.187-1.103 6.156 2.089 2.543.416-.09 1.121.304-1.05 4.987 2.866 3.712 1.374-.206 1.093.384-.994 3.542 2.721 5.148 2.703-.277 1.056.402-.976 1.998 1.618 6.692 3.733-.295 1.048.437-.94.5.453 2.525 1.545-.321 1.039.374-1.002L16 982.21l1.044.309-.17 1.11.259-1.075 6.388 2.964 2.24.326 5.986.887 2.668-.182 6.387-.904 2.32-.533 7.423-2.413 1.276-.47 5.995-3.272 2.713-1.528.696-.541 8.056-6.228 4.086-3.372.402.958-.384-.966 4.648-3.669 8.11-7.765.464.94-.446-.949.66-.605.437.949-.365-1.013 1.784-1.274 7.013-5.179.374 1.003-.258-1.076 2.167-1.03 6.603-3.444.285 1.058-.107-1.12 3.587-.67 5.165-1.355.152 1.112-.053-1.131 4.193-.333 4.55-.895.107 1.112-.098-1.122 4.809-.804 3.925-.976 5.782-1.889 2.98-1.084 7.092-2.495.188 1.102-.179-1.102 1.704-.579 8.396-3.208.205 1.093-.187-1.093.348-.127 1.891-.922 6.736-5.215 2.623-2.325 6.111-5.937.464.932-.437-.952 6.941-6.239 1.82-1.681 3.052-3.379 5.496-15.719.722.494-.714-.534 3.31-8.623-1.605-4.202-1.66-3.577.669-.618-.696.558-3.113-7.704-4.684-8.78-.562-.653.517-.871.651-.707.491.573-.508.874.642-.679 4.773 8.949-.642.676.696-.557 3.122 7.73 1.669 3.594-.678.616.704-.536 1.829 4.778-.705.536.705.536-3.488 9.122-5.567 15.951-.732-.498.5.888-3.221 3.562-.5-.888.446.944-1.855 1.714-.438-.947.429.955-6.941 6.24-6.103 5.923-.455-.929.428.957-2.676 2.367-.429-.957.384.994-6.816 5.278-.384-.994.259 1.066-1.981.968-.258-1.067.187 1.103-.366.127-8.413 3.207-.214-1.093.187 1.102-1.704.579-7.075 2.486-2.962 1.093-.205-1.093.178 1.093-5.835 1.898-.178-1.102.143 1.112-3.98.994-.142-1.121.098 1.13-4.818.813-4.568.904-.107-1.121.045 1.121-4.167.335-5.13 1.346-.143-1.112.099 1.121-3.525.66-6.54 3.416-.285-1.067.259 1.076-2.105 1.004-6.95 5.133-.375-1.003.365 1.012-1.757 1.266-.634.569-8.119 7.765-.455-.932.393.985-4.675 3.697-4.104 3.38-.401-.967.374.985L62 978.867l-.74.578-.393-.994.303 1.048-2.757 1.556-.294-1.05.285 1.05-6.04 3.298-.294-1.048.196 1.093-1.33.497-.196-1.094.179 1.094-7.468 2.431-.178-1.102.125 1.112-2.365.542-.133-1.112.08 1.122-6.424.921-.08-1.13.036 1.13-2.757.18-.036-1.12-.09 1.12-6.04-.895-2.319-.343.08-1.121-.25 1.076-6.432-2.982-1.106-.326.16-1.102-.365.994-4.497-3.272-2.552-1.554.321-1.041-.437.941-.481-.443-6.683-3.715.303-1.057-.41.985-1.99-1.627-5.139-2.694.277-1.056-.384.985-3.497-2.685-3.667-1.365.205-1.085-.303 1.04-4.943-2.83-2.48-.406.09-1.12-.188 1.103-6.174-2.089-1.695-.326.116-1.12-.188 1.094-7.03-2.296-.847-.226.151-1.112-.223 1.094-6.093-2.431.223-1.094-.232 1.085-1.615-.67.232-1.084-.437.949-.206-.18-6.736-4.863.366-1.003-.58.795-1.971-2.838-4.185-4.285.473-.912-.615.723-4.542-7.547-1.026-1.563.59-.769-.67.642-1.418-2.947.66-.641-.705.524-3.266-8.783.714-.522-.731.474-3.078-9.344v.004l-1.187-3.539-1.32-3.272-3.846-6.561-2.302-3.456.58-.774-.624.708-3.23-5.642-5.514-8.049.571-.786-.606.734-.268-.434-.366-.567.491-.933.714-.571.374.582ZM160.515 729.142l-2.052 24.939-1.597-.259 2.069-25.046.795.128-.777-.304 2.802-13.939 2.212-11.165.768.303-.678-.6 1.695-3.807 7.985-21.233.714.529-.652-.677.803-1.503.642.673-.579-.785 1.07-1.545 7.727-11.176.58.788-.563-.812 7.95-10.852.776-1.313 1.347-2.465.643.689-.634-.7 7.414-13.206 3.257-7.704 1.017-12.348.803.13-.803-.147 1.159-12.235-2.408-8.62-3.096-11.15-.875-2.452.723-.502-.723.493-.794-2.304-4.871-5.569-1.99-1.98.464-.922-.49.897-4.399-4.748-4.363-4.249-2.159-1.966-6.593-5.448.41-.977-.428.96-.223-.196-.776-.632-6.218-4.194-1.437-.873-5.969-2.842-2.783-1.271-4.854-1.883-3.872-1.454-4.014-.911-4.711-1.077-3.489-.459-5.219-.598-3.346.245-5.353.326-3.809 1.014-.152-1.111.134 1.112-4.898 1.166-4.809 1.547-3.97 1.313-6.067 2.319-2.686 1.17-.24-1.077.214 1.093-7.45 2.73-1.33.555-7.842 3.249-.223-1.081.197 1.094-.955.34-.294-1.593.089 1.376.044.26-8.663 2.676-.178-1.099.151 1.105-1.177.327-.16-1.109.142 1.111-7.61 1.869-.143-1.113.027 1.13-1.865.098-.036-1.13v1.13l-6.932-.032.009-1.13-.018-.372.018-.428v-.331h.018l6.896.034 1.794-.095 7.548-1.854 1.186-.322 8.645-2.672.17 1.102-.143-1.11.116-.028.892-.318v-.002l7.843-3.249v.003l1.329-.559.232 1.081-.205-1.094 7.458-2.73 2.677-1.174.24 1.079-.213-1.09 6.093-2.328.214 1.087-.187-1.098 3.979-1.316.187 1.099-.178-1.103 4.809-1.547.187 1.101-.134-1.113 4.925-1.171 3.854-1.024.152 1.11-.036-1.127 5.407-.335 3.381-.248.045 1.13.062-1.124 5.291.603-.062 1.128.08-1.128 3.506.461-.071 1.125.125-1.111 4.737 1.081 4.06.924-.134 1.113.205-1.088 3.917 1.466-.205 1.09.205-1.089 4.889 1.896-.205 1.088.241-1.075 2.801 1.278-.25 1.077.259-1.07 6.004 2.851-.258 1.07.312-1.035 1.49.903-.321 1.035.348-1.017 6.272 4.23-.348 1.02.401-.978.812.66-.401.975.419-.964.223.194 6.584 5.449-.41.971.437-.946 2.213 2.005-.437.951.454-.928 4.39 4.268-.455.931.491-.899 4.389 4.748 2.008 1.999-.464.919.499-.877 5.032 5.749-.508.879.731-.49.866 2.513.883 2.496-.723.505.75-.412 3.113 11.194 2.49 8.892-.759.412.803.147-1.186 12.524-1.044 12.571-.794-.13.687.576-3.364 7.979-.696-.575.634.697-7.45 13.261-1.347 2.461-.634-.695.625.724-.83 1.401-.624-.724.562.812-7.967 10.887v-.002l-7.718 11.155-1.026 1.48-.731 1.391-7.977 21.193-.704-.529.678.6-1.651 3.698-2.177 11.009-.767-.3.767.305-2.783 13.867Z"/><path d="m183.559 854.309-6.325-5.874.455-.944-.509.885-2.4-2.666-4.13-3.465.41-.97-.5.881-4.559-5.125-1.802-1.335.366-1.003-.464.915-5.219-5.35.472-.914-.642.684-1.035-1.93.643-.681-.759.329-.669-3.063-3.14-11.038.749-.423-.794.151-.874-8.987.803-.151-.803-.087.892-16.192.794.088-.785-.201 1.124-8.862 1.98-24.816.027-.257 1.579.49-.794-.106.794.124-1.989 24.836-.803-.128.794.199-1.124 8.858-.883 16.017.847 8.734 3.105 10.934-.741.42.759-.331.642 2.942.874 1.631 5.068 5.208 1.829 1.352-.375.999.5-.883 4.577 5.143 4.131 3.465-.411.969.5-.885 2.409 2.675 6.334 5.883-.446.945.527-.85.249.302-.517.864-.527.865-.214-.271Z"/><path d="m157.65 878.956-.053.105.009.014.044-.119Zm-328.92-117.401 2.971-2.513.41.971-.392-.985 7.565-5.993 1.232-.976.392.987-.303-1.049.383-.223 8.324-6.539.393.989-.098-1.121 2.873-.512 5.852-1.867.179 1.099.116-1.117 3.31.689 5.46.911-.089 1.121.33-1.031 2.462 1.563-.33 1.031.348-1.018 6.335 4.348-.348 1.013.517-.865.66.786-.517.864.544-.832 1.481 1.894-.544.837.633-.7 4.095 7.309-.633.7.642-.671 2.561 4.862 2.81 4.795-.615.718.651-.662 4.166 8.094-.651.662.741-.443.838 2.736-.74.443.74-.418.964 3.332-.75.422.75-.391 2.864 10.86 2.257 8.132 1.695 5.544 1.945 5.18-.714.529.74-.459 2.365 7.475 2.74 6.679 2.087 4.237 1.481 2.472 4.024 6.707 4.684 6.467 1.23 1.283-.48.907.508-.887 3.238 3.619 3.15 3.12-.464.922.481-.902 1.098 1.168-.482.9.509-.87 5.183 6.003-.508.87.57-.795 3.596 5.088 2.364 2.787-.517.865.598-.753 4.363 6.858-.598.751.651-.66 1.187 2.313.82 1.403-.624.715.687-.584 4.113 9.518 4.648 8.789-.651.673.651-.671.589 1.127 1.133 1.724-.598.766.67-.641 4.005 8.232 2.837 2.997-.49.905.606-.754 2.99 4.727 5.62 4.776-.41.967.535-.841.865 1.086 3.524 2.647 3.32 2.224.713.217-.16 1.103.374-.994 6.21 4.672 2.48 1.238-.268 1.067.42-.968 4.434 3.778 4.291 2.911-.348 1.013.41-.968 2.668 2.224 6.103 4.6-.384.995.464-.922.758.741 2.472 2.241-.437.94.446-.94 4.113 3.815 1.302.786 5.853 3.597 2.81 1.175 4.952 1.247 3.667.515 4.951-.532 3.72-.534 5.755-1.673 2.927-.975 7.494-3.977 1.205-.678 3.613-2.793 5.094-4.556.428.949-.428-.957 2.329-2.052 6.441-6.001 6.772-6.698v-.008l2.007-2.08.473.914-.357-1.013 5.264-3.615 3.435-3.398.455.921-.33-1.022 1.544-1.003 7.235-4.97.357 1.021-.178-1.109 3.711-1.134.17 1.099-.161-1.105 5.094-1.424.152 1.105-.062-1.123 4.389-.529 4.363-.538 5.058-1.475 3.641-.993 6.593-3.438 2.132-1.148 8.431-4.763.928-2.423v.003l7.816-20.766.713.525-.713-.541.267-.679-6.495-5.939.437-.946-.472.92-2.293-2.29-4.265-4.004.437-.94-.517.859-4.479-5.367-1.74-1.784.464-.911-.642.671-2.659-5.039-2.677-4.766.625-.7-.767.305-1.66-8.215-2.087-5.841.713-.505-.803.098-.374-6.062.803-.097-.785-.216 2.498-18.022.687-7.027.803.156-.785-.261.651-3.848.776.26-.776-.314 4.336-21.186 2.257-22.627.794.159-.794-.185.277-2.376.553-8.11.812.111-.812-.15 1.615-16.949.803.146-.777-.301 2.079-10.514 2.775-14.585.776.294-.66-.64 2.328-4.768 6.29-13.194 2.507-5.227.839-1.882.678.601-.616-.731 7.923-13.159 6.424-11.882 2.346-4.938.669.626-.624-.72 4.309-7.312v.002l4.488-7.655 2.846-4.937 1.838-13.572.794.211-.794-.216 1.516-10.889-3.113-8.732.722-.505-.731.493-3.177-9.149-1.24-3.196-1.4-3.381-4.408-3.999-1.436-1.186.41-.976-.428.96-5.291-4.606-3.443-2.803-3.489-2.198-5.246-3.015-2.043-1.055-6.682-3.102-.821-.285-7.905-2.11.303-2.218 7.914 2.106-.152 1.112.197-1.095.883.308-.196 1.096.258-1.073 6.71 3.119-.259 1.07.276-1.06 2.097 1.076-.277 1.061.304-1.046 5.273 3.03-.313 1.048.33-1.033 3.533 2.221-.33 1.033.402-.981 3.497 2.847-.401.98.419-.961 5.291 4.6 1.454 1.203-.411.978.438-.951 4.577 4.158-.429.949.696-.565 1.49 3.61-.696.567.705-.54 1.267 3.259-.705.541.723-.497 3.185 9.156 3.23 9.073-.714.506.785.218-1.57 11.264-1.883 13.841-.785-.211.625.708-2.971 5.162-.625-.708.616.717-4.488 7.662-.615-.717.615.72-4.282 7.269-2.338 4.922-.66-.629.633.681-6.441 11.914-.634-.686.607.732-7.905 13.135-.821 1.847-.678-.6.67.631-2.507 5.226-6.299 13.201-.669-.626.669.64-2.258 4.603-2.738 14.398-.777-.291.768.3-2.052 10.44-1.606 16.886h-.009l-.553 8.117-.794-.108.794.183-.286 2.401-2.266 22.68-.794-.157.767.313-4.327 21.218-.642 3.809-.696 7.008-.794-.154.785.216-2.471 17.87.356 5.691 2.044 5.731-.714.51.776-.309 1.633 8.109 2.596 4.617-.625.702.643-.676 2.578 4.898 1.669 1.703-.464.915.517-.86 4.47 5.365 4.247 3.98-.446.943.472-.924 2.293 2.293 6.469 5.91.169.157-.517 1.008.035.025.518-1.001.446.464-.482.907.705.541-.598 1.558h-.009l-7.815 20.754-.705-.528.705.533-.973 2.566-.713-.529-.179-.136.009.014.17.122.651.694-.785-.684.357 1.253-8.717 4.925-.294-1.049.276 1.057-2.123 1.145-.286-1.056.277 1.059-6.674 3.477-.276-1.059.16 1.111-3.693 1.005-5.104 1.488-.16-1.106.071 1.128-4.407.538-4.354.524-5.041 1.409-3.604 1.106-7.147 4.914-.348-1.012.33 1.022-1.49.966-3.425 3.39-.464-.922.348 1.021-5.237 3.606-1.954 2.016-.482-.913.464.922-6.79 6.716-.464-.923.446.941-6.477 6.038-.446-.95.437.967-2.328 2.052-5.104 4.573-.428-.958.384.995-3.685 2.855-.392-.994.303 1.049-1.25.705-.294-1.048.277 1.056-7.548 3.995-.285-1.056.187 1.102-3.007 1.004-.187-1.103.17 1.103-5.8 1.689-.16-1.111.08 1.129-3.783.543-.08-1.121.062 1.121-5.023.551-.062-1.13-.072 1.122-3.782-.526.08-1.129-.143 1.112-5.023-1.266.143-1.111-.223 1.076-2.918-1.213.233-1.084-.322 1.039-5.888-3.615-1.356-.831.321-1.03-.437.94-4.184-3.869v.009l-2.472-2.241.437-.949-.455.921-.758-.732-6.076-4.591.384-.994-.41.976-2.65-2.196-4.292-2.911.357-1.011-.42.957-4.407-3.742-2.462-1.238.268-1.067-.375 1.004-6.165-4.636-.696-.209.17-1.111-.34 1.021-3.434-2.296.348-1.021-.375 1.003-3.622-2.711.383-1.004-.535.841-.892-1.112-5.666-4.812.42-.969-.607.753-3.016-4.771-2.872-3.043.481-.902-.66.637-4.06-8.316-1.114-1.706.597-.766-.651.678-.615-1.18-4.667-8.844.643-.671-.687.589-4.104-9.48-.785-1.354.615-.718-.651.662-1.187-2.315-4.291-6.752-2.355-2.772.517-.864-.571.794-3.587-5.084-5.13-5.934-1.08-1.146-3.157-3.135.463-.921-.5.885-3.265-3.638-1.249-1.313.473-.905-.562.805-4.755-6.557.562-.806-.616.726-4.041-6.743.615-.726-.615.725-1.508-2.515.616-.727-.66.639-2.124-4.319.66-.642-.696.565-2.783-6.781.696-.566-.741.459-2.364-7.466-1.945-5.193.714-.529-.741.449-1.713-5.602.732-.445-.741.41-2.266-8.161.749-.41-.758.391-2.855-10.873-.946-3.285-.803-2.626-4.104-7.968-2.819-4.808.625-.718-.652.672-2.551-4.856-4.051-7.216-1.409-1.819-.58-.68-6.246-4.283-2.328-1.474-5.344-.894.098-1.122-.116 1.118-3.185-.663-5.737 1.837-.179-1.099.099 1.116-2.757.494-8.235 6.467-.393-.987.304 1.049-.375.211-1.187.94-7.574 5.999-2.962 2.507-.411-.969.375.998-5.772 4.301-6.647 6.168-.446-.943.392.986-2.078 1.634-4.194 4.354-.473-.909.429.951-4.533 4.103-2.382 2.73-.508-.875.383.998-6.281 4.712-7.842 10.807-.562-.805.402.98-.741.593-.776 1.397-.607 4.427-.794-.218.767.337-4.514 20.32-1.49 21.792-.794-.105.785.247-.508 3.129-.598 8.594-.857 16.406-.803-.082.785.283-.936 5.112-.785-.284.785.291-3.828 20.004-.776-.293.723.481-3.185 9.452-.723-.483.696.564-6.442 15.66-.696-.569.616.732-2.355 3.95-3.364 5.64-5.433 9.128-.616-.723.598.751-4.086 6.389-.598-.759.571.795-4.684 6.779-5.3 8.297-3.497 5.541-.607-.75.545.84-3.525 4.457-.535-.842.473.904-5.273 5.487-.482-.913.393.986-2.632 2.06-6.129 5.432-.428-.958.33 1.031-5.844 3.705-2.918 2.106-.365-.994.312 1.03-8.324 4.949-.437.29-.348-1.02.16 1.11-3.586 1.01-.152-1.11.143 1.11-5.219 1.35-.161-1.22.009 1.24-.428.02-8.289 1.04-.071-1.12.062 1.12-.865.11-7.869 1.56-1.535.35-7.244 1.97-.152-1.11.134 1.12-2.445.54-6.352 1.47-3.23.79-5.558 1.41-.143-1.11.081 1.12-3.917.54-4.88.68-.081-1.13-.009 1.13-4.13-.08-4.666-.08.009-1.13-.108 1.11-3.845-.71.107-1.12-.116 1.11-4.96-1.04.116-1.12-.152 1.11-3.167-.89.16-1.11-.187 1.11-5.639-1.89.188-1.1-.206 1.1-2.212-.84.214-1.1-.268 1.07-6.584-3.22.259-1.07-.321 1.04-.893-.54.322-1.04-.366 1.01-3.506-2.55-3.525-2.5.366-1.01-.392.99-.848-.66-6.236-4.018.33-1.03-.339 1.022-2.534-1.681.348-1.013-.357 1.013-4.568-3.145-4.193-2.793-2.98-1.591-5.764-2.866-1.721-.831-7.013-3.209-.491-.118.143-1.12-.152 1.112-5.656-1.564-2.373-.596.285-2.224 2.382.606-.142 1.111.16-1.111 5.657 1.564.535.135-.152 1.112.25-1.075 7.075 3.235-.25 1.076.259-1.076 1.731.831-.259 1.076.268-1.066 5.763 2.873-.267 1.067.285-1.057 3.034 1.608-.286 1.058.339-1.021 4.229 2.81-.348 1.022.348-1.012 4.586 3.145v.009l2.507 1.664 6.272 4.028-.339 1.03.392-.99.875.68 3.488 2.48-.366 1.01.375-1 3.471 2.51.874.54 6.504 3.18 2.168.82 5.621 1.89 3.114.87 4.96 1.04 3.774.71 4.63.08 4.078.08 4.835-.67 3.881-.53 5.541-1.4 3.229-.8.143 1.11-.134-1.11 6.362-1.47.133 1.11-.124-1.11 2.435-.54 7.218-1.97.152 1.11-.125-1.12 1.552-.35.125 1.12-.107-1.12 7.914-1.58.116 1.13-.072-1.13.883-.1 8.316-1.05.071 1.13-.018-1.13.411-.02 5.156-1.34 3.471-.97.375-.26.348 1.02-.313-1.03 8.307-4.939 2.917-2.115.366 1.003-.33-1.031 5.799-3.67 6.111-5.414.429.95-.393-.985 2.605-2.035 5.193-5.395 3.47-4.383 3.471-5.496.598.75-.598-.759 5.291-8.288.606.75-.58-.786 4.693-6.779 4.068-6.353 5.434-9.138 3.363-5.631 2.311-3.887 6.379-15.517 3.15-9.326 3.8-19.895.919-5.011.848-16.307.803.081-.794-.11.606-8.7.794.111-.785-.249.509-3.132 1.481-21.835.803.105-.767-.335 4.532-20.375.633-4.611.786.212-.625-.696.99-1.793.634.699-.393-.983.785-.631 7.843-10.816.571.806-.384-.993 6.308-4.739 2.364-2.71.508.874-.437-.95 4.55-4.114 4.203-4.364.481.91-.392-.987 2.079-1.641 6.664-6.18.446.943-.374-.996 5.79-4.319Z"/><path d="m-9.517 905.902.508-.87 5.898 6.928 2.863 2.885-.472.917.472-.916 3.623 3.69-.473.917.482-.908 5.174 5.397-.482.903.518-.867 1.222 1.428-.508.867.544-.831 2.685 3.471 3.542 3.452 1.187 1.085 5.692 4.112 2.962 1.898 4.488 1.275 4.104 1.147 4.255-.578 4.372-.551 5.121-1.718 3.57-1.211 6.958-4.059 1.713-1.056 4.497-3.832 4.113-5.515.553.814-.553-.822 3.64-4.793 5.148-7.071 5.397-7.492 3.248-8.8.714.519-.652-.647 7.959-16.003.713-3.377 3.221-21.47.785.235-.75-.386 5.559-21.647.741-3.406.776.328-.75-.416 3.239-11.38.74.423-.74-.438 4.068-13.731.741.433-.705-.519.732-2.03 7.708-22.934 1.026-6.258 2.944-18.661.803-10.663 1.062-14.38.794.115-.785-.214 3.149-22.76.313-2.337.793.205-.704-.556.49-1.239 8.61-23.827.714.512-.687-.6.205-.455.687.607-.616-.743.357-.575 8.44-13.918.607.735-.598-.751 6.379-10.116 2.382-4.401.643.683-.634-.698 4.14-7.397 4.63-8.57 2.151-4.443.999-9.127 1.115-15.336-2.159-5.744-2.106-4.51-2.971-5.737-5.736-8.038.571-.801.562-.801 5.781 8.1-.562.798.651-.664 3.016 5.826-.651.662.669-.62 2.132 4.583-.669.619.714-.527 2.293 6.1-.705.529.794.114-1.142 15.736-.803-.115.794.173-1.026 9.374-.794-.17.66.633-2.257 4.679-.66-.635.633.684-4.648 8.595-.634-.686.625.702-4.149 7.408-2.373 4.407-.642-.681.597.75-6.396 10.143-8.441 13.93-.615-.731.607.742-.322.517-.134.301-8.591 23.797-.714-.509.705.549-.455 1.121-.286 2.167-.785-.208.785.213-3.149 22.718-1.053 14.327-.794-.115.794.117-.803 10.727-.794-.116.785.245-2.962 18.722-.785-.242.785.255-1.053 6.384-.785-.257.723.484-7.744 23.084-.723-.484.714.52-.732 1.977-4.05 13.682h.009l-3.23 11.323-.74 3.404-.768-.329.75.386-5.541 21.586-3.22 21.423-.794-.236.776.317-.768 3.625-.767-.323.66.647-8.002 16.096-3.284 8.89-.713-.521.562.803-5.487 7.618-.571-.807.562.807-5.148 7.08-.562-.809.553.827-3.65 4.814-4.183 5.595-.553-.823.419.976-4.613 3.923-.42-.967.331 1.03-1.758 1.084-.33-1.03.313 1.049-7.04 4.103-.312-1.048.187 1.103-3.63 1.228-5.167 1.745-.187-1.103.071 1.13-4.434.551-4.354.597-.08-1.121-.16 1.103-4.23-1.175-4.567-1.302.151-1.112-.33 1.031-3.078-1.979.33-1.022-.365 1.004-5.72-4.14.366-1.003-.428.949-1.24-1.121.428-.949-.455.932-3.613-3.535.464-.931-.544.832-2.713-3.489-1.186-1.391-5.166-5.376-3.613-3.681v-.001l-2.864-2.894.464-.917-.518.869-5.87-6.904-.286-.247.42-.966.58-.817-.25 1.104Z"/><path d="m-382.94 261.746-5.389-9.21 1.24-1.436 5.425 9.263-.625.715.687-.597 3.168 7.131 2.043 2.287-.5.886.589-.777 4.077 6.127 1.704 2.395.776 1.085 5.746 4.673 2.81 2.087 4.559 1.067 4.006.397 4.515-.017 4.193-.479.062 1.129-.035-1.129 4.853-.326 3.89-.66.089 1.121v-1.129l5.032-.009 3.623-.94.142 1.112.027-1.131 5.309.154 3.345-.714.125 1.112-.009-1.13 5.621-.1 3.069-.632.116 1.121.009-1.13 5.817.144 2.909-.334.062 1.129-.054-1.129 6.174-.569 2.534-.316 7.236-2.911.223 1.084-.196-1.093 1.409-.515 5.469-3.634 3.176-2.196 1.196-1.284.491.895-.438-.949 7.423-6.787 8.217-14.326.366-1.528.767.361-.758-.37 5.71-23.328 3.06-18.049.785.262-.776-.307 1.437-7.023.767.316-.714-.515 7.37-20.355.713.507-.687-.578 2.017-4.755 6.762-17.208 2.962-7.846.705.534-.562-.805 5.826-8.198.571.796-.419-.968 4.059-3.471 4.648-5.414.509.878-.464-.923 7.869-7.926.473.913-.455-.921.919-.904.464.93-.268-1.066.312-.154 8.36-6.427.393.986-.161-1.102 2.873-.823 5.799-3.082.286 1.058.009-1.131 3.979.082 4.737-.597.072 1.121.142-1.112 3.837 1.004 4.907.758-.09 1.131.215-1.094 3.158 1.221 5.63 2.087-.206 1.094.304-1.049 2.025 1.166-.303 1.04.339-1.022 6.771 4.402-.339 1.03.375-1.003.384.28-.375 1.004.419-.977 1.312 1.103-.42.967.447-.94 5.362 4.98-.447.94.509-.876 1.74 1.988-.5.886.535-.841 4.39 5.622-.544.84.589-.777 4.407 6.616 1.374 1.889-.562.805.598-.76 2.56 3.986-.589.76.616-.723 3.016 5.223-.625.715.651-.66 1.829 3.534-.651.659.66-.641 3.355 6.77-.66.65.678-.605 4.318 9.581.633 1.419-.687.605.705-.56.473 1.183 4.8 8.524-.625.705.652-.651 3.934 7.917 1.249 2.306-.633.678.642-.661 1.865 3.579-.652.669.661-.641 3.319 6.76-.67.642.688-.587 2.364 5.378 2.614 5.44-.67.633.67-.623 3.497 7.483-.669.623.705-.524 1.392 3.688-.714.533.723-.496 1.293 3.705 3.087 8.911-.722.498.731-.479 2.918 8.794-.723.479.758-.379 1.169 4.627-.758.38.785-.28 1.606 9.128 1.579 6.743-.758.352.776-.271.812 4.537-.777.272.803-.019.224 17.634-.812.01.803.062-.286 7.484-.803-.063.803.072-.928 21.105-.803-.072.803.117-.285 3.985-1.116 22.579-.089 2.494-.812-.064.803.163-.035.353-2.249 24.738-.794-.135.759.369-5.71 23.058-.464 2.024-.768-.343.75.406-.25.914-.75-.399.705.543-2.801 7.077-5.995 15.491-.705-.532.669.631-.785 1.619-8.012 17.028-.669-.623.598.749-5.006 7.864-3.604 18.864-.767 5.472.267.602.295.503 5.638 7.08 3.052 3.16-.473.909.517-.866 3.23 3.788 5.505 5.31-.455.93.508-.881.955 1.084 2.81 2.734 3.872 2.624.875.344-.223 1.086.365-1.007 6.156 4.381 2.606 1.602-.33 1.033.374-1.004 4.479 3.241-.375 1.005.393-.989 4.318 3.337-.384.991.41-.962 2.552 2.185-.419.964.455-.935 6.254 5.978-.455.933.473-.911.33.338-.473.911.482-.9.821.879 6.031 4.212-.357 1.013.366-1.006 1.49 1.088-.366 1 .446-.94 5.228 4.815-.437.945.464-.923 3.533 3.5 3.078 2.496-.401.98.437-.956 5.683 5.067 1.017.883-.419.965.464-.925 2.926 2.911 3.712 2.993-.393.981.464-.918 1.044 1.055 5.647 4.751-.41.969.473-.906 3.078 3.195 3.506 2.836-.401.977.446-.937 5.255 4.925-.446.939.464-.919 1.347 1.349-.464.92.482-.903 3.658 3.845-.482.905.57-.79 2.517 3.625 1.213 1.609 5.086 4.926 3.568 2.787 3.301 2.373 5.398 2.821 1.972.932 6.736 2.066-.179 1.106.205-1.095 1.071.398 7.593.865-.072 1.127.098-1.123.723.114 7.967-.237.018 1.129.018-1.129.82.028 7.905-.759.054 1.123-.045-1.125 1.125-.075 7.583-.997 1.65-.562.197 1.099-.188-1.099 7.102-2.241 2.802-.889.17 1.102-.126-1.113 5.978-1.325 3.631-1.107.17 1.107-.099-1.121 5.14-.934 4.327-1.062.133 1.116-.062-1.131 4.407-.452 4.889-1.13.125 1.116-.009-1.129 3.819-.018 5.309-1.254.124 1.113.152-1.123 3.23.088 5.665-1.095.107 1.119.089-1.125 3.069.447 5.362.519-.053 1.123.277-1.059 3.408 1.777 4.041 2.054-.276 1.066.499-.882 4.675 5.254 1.687 1.035-.322 1.037.5-.889 4.621 5.091-.499.888.785-.241.723 4.76-.777.236.803-.042.518 20.356-.803.043.633.688-7.592 13.871-3.935 11.052-.722-.505.687.611-4.845 10.582-.678-.611.66.646-7.208 14.502-1.526 3.83-7.557 21.023-1.178 8.973-2.078 15.963-.714 7.943-1.365 17.101-.803-.123.785.28-4.479 24.667-1.525-.548 1.49.752-.045.243-.767-.287.553.627.089.066-.009.029-8.315 24.829-.464 1.507-.74-.435.704.54-4.996 12.764-3.8 9.799-.705-.539.704.569-.428 1.027-.696-.563.67.614-8.37 18.312-.677-.611.615.735-4.06 6.671-4.62 14.309-.732-.465.714.526-3.962 10.651-.704-.524.686.593-4.844 11.118-.687-.589.57.795-7.69 10.839-1.106 1.571-.571-.795.455.937-1.668 1.579-.455-.936.312 1.043-7.129 4.232-.312-1.037.125 1.112-1.597.357-7.164 2.132-.17-1.103-.24 1.077-1.981-.89-6.692-1.366.116-1.116-.473.909-1.115-1.149-3.988-3.221.393-.98-.536.835-2.444-3.136-1.062-.954.428-.946-.624.711-4.523-7.825-4.194-5.499.544-.823-.562.803-1.721-2.392-4.265-5.019.517-.867-.74.452-1.303-4.177.74-.452-.749.405-1.463-5.331.75-.407-.768.345-2.159-9.433-1.606-6.119.75-.39-.794.179-1.24-10.779.794-.179-.803.124-1.107-14.142-1.23-3.707.722-.484-.759.377-1.329-5.323-3.015-6.974.686-.586-.704.53-3.266-8.594-1.516-2.283.588-.77-.687.607-.758-1.69-5.157-5.75.5-.882-.571.793-3.524-5.013-2.391-3.012-5.924-6.81-.179-.124v.006l-7.458-3.542-1.276-.561-6.665-1.545.134-1.113-.152 1.109-2.078-.55.151-1.114-.187 1.101-5.835-1.994.187-1.095-.205 1.092-2.962-1.085.205-1.095-.401.976-4.238-3.465.401-.978-.472.912-4.56-4.666.473-.915-.562.814-1.766-2.365.562-.825-.625.733-2.98-4.981-2.739-3.473.536-.839-.536.834-1.24-1.589.544-.837-.633.687-4.256-7.854-4.532-8.287-.839-1.447-1.356-2.336-4.452-5.858.553-.824-.561.808-2.044-2.781-4.059-4.743.517-.867-.544.834-4.684-6.006-1.409-1.323.446-.938-.464.923-4.185-4.142-2.409-1.843.384-.994-.58.817-.499-.46-6.192-4.856.392-.987-.464.925-2.489-2.474-4.416-2.269.277-1.059-.402.975-4.184-3.4-2.828-.971.196-1.095-.393.987-5.719-4.48-1.097-.135.071-1.128-.392.984-4.515-3.597-2.409-1.522.331-1.031-.589.77-.455-.688-6.112-4.948.402-.977-.687.571-2.498-5.985-2.882-2.697.446-.94-.687.587-3.765-8.673-1.133-2.397.678-.623-.776.329-.83-3.842-3.283-9.205.723-.505-.795.176-1.026-9.216-2.435-5.249.678-.619-.741.453-1.891-6.122-2.507-6.22.705-.555-.768.359-1.695-7.081-2.507-5.549.678-.602-.704.53-1.99-5.209.714-.531-.723.502-2.507-7.079.723-.501-.759.379-1.82-7.125-2.159-6.443.723-.483-.732.457-2.266-7.213-2.043-5.465.714-.526-.75.407-1.588-5.785-2.587-7.214.714-.513-.723.477-2.543-7.679-1.757-5.142.722-.49-.749.41-1.383-5.023-2.569-8.642-3.052-8.58-1.409-3.648-1.829-4.042v-.002l-3.168-6.516-2.275-3.641.598-.745-.624.71-3.221-5.582-5.55-8.697 1.196-1.511 5.576 8.727-.607.755.634-.713 3.212 5.579 2.301 3.678-.597.744.66-.635 3.203 6.605-.66.635.678-.604 1.847 4.079-.678.603.713-.533 1.428 3.694-.714.538.723-.502 3.06 8.604-.723.506.741-.435 2.596 8.728-.741.434.75-.407 1.374 4.981 1.748 5.1-.722.49.722-.478 2.534 7.663 2.605 7.252-.722.512.749-.406 1.588 5.777 2.026 5.438-.705.525.731-.455 2.275 7.237 2.177 6.506-.722.484.758-.38 1.811 7.102 2.472 6.982 1.98 5.195 2.534 5.606-.678.605.767-.358 1.695 7.106 2.489 6.179-.695.557.74-.451 1.883 6.082 2.48 5.379-.669.618.794-.177 1.035 9.28 3.247 9.133-.714.505.768-.329.821 3.772 1.079 2.302-.678.62.696-.59 3.667 8.464 2.89 2.7-.446.943.696-.571 2.481 5.95 6.022 4.883-.402.98.589-.773.437.647 2.284 1.448-.33 1.031.393-.985 4.416 3.521.009-.012 1.071.135-.063 1.123.384-.989 5.772 4.525 2.828.972-.187 1.096.402-.978 4.228 3.434 4.444 2.286-.277 1.06.464-.923 2.543 2.525 6.182 4.842-.392.988.446-.94.624.587 2.427 1.849-.392.994.464-.923 4.22 4.167 1.454 1.368-.446.938.544-.837 4.711 6.043 4.06 4.744-.518.871.562-.811 2.06 2.814v-.004l4.488 5.912-.544.823.625-.714 1.392 2.391-.625.72.625-.715.847 1.452-.633.71.642-.688 4.541 8.309-.642.688.642-.681 4.211 7.776 1.187 1.522 2.757 3.504-.544.845.615-.737 2.998 4.996 1.704 2.285 4.488 4.59 4.113 3.365 2.846 1.049 5.808 1.977 2.052.546 6.709 1.555-.134 1.115.241-1.08 1.33.585-.242 1.082.26-1.073 7.467 3.549-.42 1.763.598-1.671.268.186-.348 1.019.508-.874 6.023 6.921-.509.871.535-.84 2.427 3.054-.535.841.57-.793 3.507 4.984 5.22 5.826-.5.883.678-.607.794 1.76 1.543 2.313-.588.771.713-.529 3.301 8.714 3.043 7.027-.687.586.758-.374 1.338 5.383 1.285 3.824-.732.479.803-.124 1.125 14.319 1.222 10.628 1.588 6.062-.75.392.768-.345L.047 869.7l1.436 5.226 1.223 3.937 4.13 4.86-.526.866.571-.804 1.749 2.42 4.229 5.553-.545.824.625-.712 4.479 7.744 1.008.903-.428.954.544-.831 2.426 3.112 3.962 3.197-.402.987.473-.917.99 1.015 6.558 1.336-.116 1.12.24-1.077 1.839.822 6.986-2.073.16 1.103-.125-1.112 1.517-.34 6.968-4.139 1.535-1.458 1.043-1.491.571.795-.562-.8 7.62-10.739 4.8-11.012 3.907-10.528 4.666-14.459.732.469-.616-.733 4.104-6.741 8.333-18.223.41-1.015 3.792-9.768.705.538-.705-.542 4.979-12.708.446-1.466.74.437-.731-.481 8.342-24.902.731.483-.687-.488-.017-.006h.008l-.026-.018.062.018.776.052-.731-.482-.009-.005v-.004l4.461-24.579 1.356-17.035.794.128-.794-.145.714-8.007.803.141-.794-.203 2.087-15.973 1.196-9.134.794.205-.714-.513 7.592-21.168.723.512-.705-.556 1.588-3.94.696.555-.66-.649 7.218-14.53 4.8-10.481 3.934-11.096.732.503-.642-.689 7.467-13.64-.508-19.863-.643-4.25-4.318-4.742-1.686-1.04.33-1.035-.509.881-4.657-5.24-3.917-1.988.277-1.067-.277 1.061-3.301-1.718-5.272-.508.053-1.129-.089 1.126-2.971-.433-5.63 1.088-.107-1.122-.018 1.13-3.354-.095-5.291 1.26-.134-1.118v1.13l-3.818.017-4.854 1.119-.133-1.112.062 1.124-4.39.456-4.327 1.061-.142-1.111.107 1.119-5.104.926-3.63 1.104-.17-1.106.125 1.117-5.978 1.324-2.766.872-7.084 2.24v.002l-1.704.576-.187-1.097.071 1.128-7.646 1.001-.071-1.125-.054 1.134-1.061.071-7.923.766-.053-1.128-.027 1.13-.839-.031-7.994.241-.018-1.13-.089 1.121-.776-.123-7.646-.868.062-1.128-.205 1.093-1.133-.42-6.754-2.076.179-1.102-.259 1.073-2.016-.953.258-1.073-.276 1.06-5.46-2.854.285-1.059-.366 1.006-3.345-2.401.365-1.006-.392.986-3.622-2.829.392-.989-.455.931-5.174-5.013.455-.932-.554.826-1.275-1.691.553-.824-.571.789-2.48-3.567-3.605-3.796-1.32-1.317-5.229-4.901-3.515-2.849.402-.978-.482.909-3.087-3.204-5.648-4.754.42-.971-.473.918-1.035-1.046-3.711-2.993.401-.975-.464.92-2.944-2.924-1-.869.42-.958-.428.953-5.683-5.062-3.087-2.501.401-.98-.464.925-3.56-3.529-5.183-4.774-1.455-1.05-6.084-4.251.366-1.013-.491.899-.865-.931v.004l-.33-.335-6.228-5.955-2.49-2.138-4.3-3.319-4.47-3.237-2.578-1.591.322-1.034-.366 1.009-6.103-4.346-.874-.343.214-1.087-.348 1.018-3.98-2.707.349-1.019-.455.932-2.891-2.803.455-.929-.5.884-.963-1.09-5.523-5.322.455-.934-.517.867-3.221-3.786-3.078-3.178.473-.911-.535.839-5.701-7.162.535-.843-.625.715-.365-.627.624-.716-.678.608-.473-1.049.678-.6-.785-.217.83-5.948.794.222-.776-.294 3.667-19.172.776.298-.598-.75 5.094-8.008 7.976-16.974.67.624-.66-.642.767-1.573 5.968-15.437.705.542-.705-.551 2.784-7.022.214-.778.464-2.043.767.344-.758-.371 5.674-22.947 2.24-24.631.794.145-.794-.163.026-.298.09-2.458.802.063-.794-.082 1.116-22.613.803.072-.803-.109.285-4.004.928-21.068.286-7.41-.215-17.481-.776-4.338-1.588-6.761.758-.352-.776.262-1.615-9.121-1.133-4.51-2.917-8.748-3.078-8.894-1.285-3.688-1.365-3.642-3.47-7.429-2.615-5.441.66-.633-.686.587-2.365-5.405-3.283-6.697-1.847-3.552-1.249-2.305.634-.687-.66.642-3.935-7.926-4.836-8.578.634-.704-.705.55-.491-1.22-.615-1.391-4.292-9.545-3.345-6.742-1.811-3.508-2.971-5.152-2.561-3.976-1.365-1.871.562-.814-.589.777-4.371-6.571-4.381-5.612-1.686-1.916-5.3-4.925-1.302-1.095-.339-.253-6.736-4.374-1.954-1.12-5.576-2.071.205-1.093-.214 1.093-3.105-1.192-4.872-.76.09-1.12-.152 1.111-3.756-.985-4.675.587-.071-1.121-.009 1.131-3.855-.082-5.718 3.036-.286-1.047.161 1.103-2.82.803-8.315 6.391-.526-1.365.267 1.509-.133.064-.83.804-7.842 7.909-4.675 5.431-.509-.867.41.967-4.023 3.443-5.675 7.99-2.908 7.71-.714-.524.705.542-6.781 17.245-.704-.551.696.587-2.008 4.701-7.316 20.235-1.409 6.87h.008l-3.078 18.086-.776-.254.759.371-5.728 23.391-.411 1.7-.758-.353.625.705-8.387 14.633-.633-.714.446.949-7.521 6.87-1.232 1.328-.49-.895.357 1.012-3.248 2.233-.357-1.012.348 1.02-5.549 3.697-.348-1.03.205 1.094-1.481.541-7.298 2.939-.223-1.085.071 1.121-2.623.325-.08-1.121.053 1.121-6.156.579-2.944.325-.062-1.121-.018 1.129-5.79-.144-3.052.624-.116-1.111.009 1.129-5.611.099-3.364.723-.125-1.112-.018 1.131-5.299-.163-3.614.94-.142-1.112v1.13l-5.068.009-3.872.66-.098-1.12.035 1.129-4.862.325-4.193.48-.063-1.131v1.131l-4.585.017v-1.129l-.054 1.129-4.077-.406.053-1.122-.133 1.112-4.72-1.112.134-1.11-.384 1.002-2.917-2.187.374-.994-.401.976-5.871-4.763.402-.976-.571.796-.839-1.176-1.713-2.405.571-.803-.589.777-4.05-6.092-2.115-2.359.5-.886-.678.596-3.212-7.221Z"/><path d="M-180.174 141.474c-18.504 3.001-27.006 26.22-36.517 45.915-9.859 20.408-10.394 46.041-18.691 67.218-14.677 37.445-38.328 61.388-66.941 74.186-.571.243-1.151.505-1.722.769a183.383 183.383 0 0 1 5.229 14.876c1.838 5.975 4.345 7.8 7.342 12.645 4.863 7.05 8.048 16.205 11.715 24.466 7.771 17.751 15.925 35.476 28.487 47.253 12.705 11.912 24.294 22.55 35.616 37.319 11.081 13.238 17.879 34.111 23.027 52.848 5.166 18.787 13.231 35.247 19.985 52.872 8.217 18.136 18.316 37.923 23.072 58.522 4.55 19.679 20.449 31.126 32.074 41.218 12.633 10.966 25.24 22.654 35.767 37.482 12.072 17.017 25.633 22.61 42.138 26.022 7.539 1.556 15.4 2.897 22.144 7.988 5.612 4.237 11 14.188 14.453 21.792 9.297 18.191 14.748 40.109 23.33 58.808 3.828 8.347 8.37 21.943 17.13 19.766 9.342-2.324 18.076-5.617 25-15.272 12.124-16.904 22.76-41.058 26.819-64.278 4.496-25.765 4.46-51.907 11.58-76.701 2.819-9.833 6.415-19.18 10.26-28.3 2.008-4.854 3.81-8.826 5.318-14.043.678-2.313 5.513-13.694 5.281-16.61-.803-10.273-12.829-10.495-17.522-12.559-7.218-1.573-14.864-2.332-22.26-.7-14.587 3.216-29.576 8.074-44.341 9.554-14.132 2.837-30.549 1.207-40.55-15.189-10.456-15.61-21.064-30.901-34.43-41.755-13.882-11.143-28.335-25.565-44.073-30.89-13.08-4.425-26.685-9.11-38.417-18.479-5.282-4.219-10.278-14.927-12.803-22.474-1.713-5.142-3.667-10.17-4.97-15.55-1.365-5.643.964-13.63 1.669-19.233 2.641-20.978 16.157-39.128 25.427-55.423 11.545-20.788 15.702-44.089 15.577-70.128-.107-22.523-.303-43.737-5.46-65.229-4.827-20.111-12.472-37.383-19.003-56.255-9.814-28.354-33.198-82.103-60.74-72.451Zm3.827-8.966c13.99 2.278 24.58 8.188 34.68 22.378 10.625 14.941 19.405 33.714 26.444 52.287 6.54 17.074 14.043 33.985 18.495 52.513 5.397 22.496 7.485 43.158 7.628 67.001.134 20.083.348 42.643-6.727 60.656-8.164 20.797-19.021 37.636-28.505 57.186-4.961 10.212-10.341 26.461-6.085 38.524 3.694 10.452 7.209 18.837 12.892 27.272 4.738 7.032 15.444 9.751 21.85 12.43 7.092 2.959 14.257 4.991 21.224 8.627 12.714 6.629 23.715 16.596 35.616 25.405 11.527 8.539 22.733 20.116 31.423 33.857 5.772 7.933 10.626 16.644 17.719 22.119 6.896 5.323 15.702 5.34 23.277 3.752a469.648 469.648 0 0 1 19.503-3.657c7.592-1.262 15.55-5.435 23.188-5.452 7.69-.01 15.399-1.343 23.125-1.378 6.272-.029 17.719 1.948 22.001 8.862 1.936 3.127 7.182 8.817 6.415 13.783.303 4.232-4.862 15.695-6.004 19.61-3.292 11.321-8.503 21.197-12.428 32.155-8.574 24.01-8.976 48.335-12.437 74.151-2.338 23.012-10.493 43.021-19.985 61.647-8.86 17.401-18.531 30.597-34.082 34.323-9.278 2.224-15.14-.255-21.698-9.561-2.275-3.229-3.72-8.501-5.558-12.311-1.99-3.398-3.854-8.267-5.059-12.21-3.265-8.561-6.557-16.833-9.93-25.344-4.14-10.426-7.717-23.395-14.07-31.55-6.351-8.166-11.41-14.033-20.537-14.591-6.576-.407-14.293-2.844-20.77-4.805-13.927-4.224-25.053-16.57-34.902-30.53-9.877-13.992-23.465-21.368-34.073-33.785-12.722-11.36-26.863-23.082-31.851-44.622-4.461-19.306-14.453-39.225-22.518-55.931-7.298-15.127-14.418-32.839-19.084-49.87-3.033-11.059-6.843-21.138-10.644-31.645-3.872-10.735-8.984-16.922-14.89-25.225-5.389-6.842-10.733-12.97-16.336-19.405-5.755-6.607-13.062-10.357-19.013-16.666-5.29-4.629-10.438-13.866-14.426-20.499-4.907-8.145-8.262-17.011-12.285-26.068-4.444-9.986-8.271-19.784-14.605-27.692-3.043-3.796-3.873-7.295-5.487-12.572-1.553-5.071-6.379-12.826-6.379-17.969 0-7.158 18.093-11.099 22.143-13.873 7.852-5.397 14.516-13.504 22.305-19.035 12.749-9.074 23.866-34.002 28.246-52.369 5.693-23.86 10.662-46.601 20.753-67.596 9.189-19.144 21.956-45.806 41.441-42.327Z"/><path d="m11.716 745.553-.776.289.803-.135.678 7.991 2.507 7.471-.732.481.75-.41 2.659 9.549 1.463 3.486-.696.574.74-.458 1.303 4.141 3.587 6.401 2.248 3.546 3.586 4.505 5.014 5.499 1.276.547 7.2 2.825.304-.052.098 1.119-.08-1.124 8.163-1.131 1.062-.88.41.974-.375-.998 7.459-5.614 6.798-10.337v-.002l1.874-2.89 1.16-2.277 1.392-7.508 3.167-17.307 1.08-19.774.16-5.197.803.047-.803-.18 1.668-14.273 1.07-10.807.786.155-.767-.305 1.418-7.075 2.721-17.966.785.236-.749-.406 3.578-13.096.75.406-.697-.548 4.55-11.533-1.927-6.387-2.301-1.695.374-.999-.633.688-3.239-5.907-5.112-1.739.187-1.1-.383.996-2.008-1.534-6.406.016v-1.131l-.053 1.124-1.98-.196-6.55 2.574-.213-1.089.133 1.117-3.292.754-5.406 1.757-4.782 2.575-.295-1.052.25 1.072-3.899 1.797-7.2 5.027-.357-1.011.259 1.063-1.481.73-4.746 3.455-3.667 9.989-.714-.519.642.688-8.1 14.802-.634-.688.616.715-.607 1.063-6.174 23.612-2.543 21.599-.357 3.038.08.219-.115.084-.01.071-.062-.014-.526.384.785-.266.196 1.11 2.855 15.249Zm-4.595-15.681-.16-.442.714-.526-.794-.18.401-3.415 2.552-21.696.794.186-.75-.391 6.246-23.896.75.388-.625-.708.704-1.214 8.039-14.698 3.747-10.222.714.519-.375-1.001 5.023-3.654.375.999-.268-1.065 1.49-.729 7.209-5.038.366 1.013-.26-1.072 3.962-1.821 4.809-2.587.286 1.057-.179-1.101 5.496-1.783.178 1.097-.133-1.112 3.256-.753 6.638-2.61.223 1.085.053-1.123 2.088.212 6.585-.015v1.13l.392-.992 2.088 1.598 5.281 1.799-.187 1.094.633-.689 3.302 6.025 2.39 1.773-.365.999.74-.443 2.195 7.265-.74.442.704.546-4.72 11.96-3.532 12.91-2.712 17.927-.785-.236.776.306-1.419 7.056-1.062 10.741-.794-.152.794.181-1.66 14.199-.142 5.133-.812-.047.812.086-1.088 19.918-.803-.089.785.283-3.203 17.4-.776-.282.776.289-1.427 7.705-.777-.287.652.658-1.267 2.507-.66-.658.588.763-1.9 2.94-.589-.762.58.764-6.888 10.487-.588-.767.374.998-7.565 5.695-1.196.989-.41-.973.08 1.123-8.315 1.156-.464.085-.098-1.119-.214 1.088-7.36-2.889.213-1.088-.232 1.079-1.445-.616.24-1.081-.499.893-5.157-5.656.491-.893-.535.846-3.64-4.572.535-.841-.598.751-2.293-3.618.607-.753-.633.701-3.667-6.54.633-.697-.732.458-1.329-4.214-1.472-3.509.687-.576-.75.413-2.667-9.622-2.543-7.574.723-.484-.794.135-.696-8.097L7.3 730.859l.776-.289-.776.271-.179-.969Z"/><path d="m84.67 671.944-1.74 6.339.75.405-.786-.235-2.72 17.966-.063.317h.981l-.134-.052.17.052h.642l2.686-17.743.214-.752v-6.297ZM796.446 615.363l-.939.504-.289-1.068.225 1.101-5.449 2.148-.219-1.098.187 1.11-3.474 1.165-.187-1.111.02 1.139-.361.013-8.44 2.16-.141-1.123-.065 1.134-1.054-.11-7.707 1.246-.096-1.13-.058 1.137-1.487-.148-7.339.442-.039-1.137-.051 1.137-1.602-.131-7.212.402-1.807.214-6.98 1.737-2.843 1.215-5.976 3.06-4.934 2.699h.006l-3.969 2.308-.315-1.046.303 1.06-7.148 3.923-1.755 1.047-.323-1.05.29 1.07-7.456 3.954-.282-1.061.237 1.085-1.46.636-.257.116-.257-1.082.25 1.09-8.658 3.835-.245-1.088.219 1.101-1.878.716-.213-1.1.187 1.113-7.031 2.273-3.069 1.106-.199-1.106.16 1.112-5.834 1.629-4.13 1.43-.193-1.113.148 1.126-4.754 1.258-5.217 1.836-.199-1.099.16 1.115-3.679 1.017-.161-1.115.058 1.137-5.816.62-.064-1.132.032 1.141-3.1.148-.032-1.143-.052 1.136-5.699-.487-3.224-.292.058-1.134-.173 1.112-5.043-1.505-3.835-.836.122-1.124-.334 1.038-3.846-2.437-4.98-2.167.245-1.09-.373 1.011-2.458-1.757-6.394-3.538.302-1.065-.373 1.019-.965-.713-4.676-2.789.321-1.044-.443.955-2.433-2.164-.739-.554.385-1.007-.405.982-6.15-5.007-2.739-2.033.379-1.007-.463.939-4.086-3.902.464-.942-.464.94-4.798-4.612-1.897-1.364.373-1.021-.393 1.007-6.973-5.371.785-1.995 6.966 5.36 1.937 1.397-.374 1.01.464-.935 4.837 4.644 4.046 3.87 2.702 2.002-.379 1.009.411-.985 6.144 5.008.779.589-.393 1 .437-.965 2.4 2.137 4.644 2.776-.321 1.042.379-1.007.952.702 6.382 3.531-.303 1.07.373-1.025 2.438 1.74 4.954 2.163-.238 1.084.334-1.031 3.796 2.401 3.75.813-.129 1.122.168-1.111 5.017 1.495 3.152.288v-.003l5.661.486 3.05-.142 5.757-.62 3.589-.997 5.237-1.85.199 1.112-.154-1.122 4.753-1.26 4.124-1.418.2 1.106-.162-1.119 5.823-1.626 3.048-1.096.207 1.105-.181-1.113 7.032-2.271 1.833-.706 8.633-3.827-.007-.004.271-.119.264 1.075-.245-1.086 1.441-.625 7.417-3.941 1.757-1.037.315 1.045-.303-1.057 7.148-3.93 3.955-2.308.315 1.055-.289-1.064 4.947-2.71.302 1.059-.283-1.07 6.002-3.072.276 1.057-.231-1.075 2.921-1.247.238 1.082-.142-1.118 7.057-1.754.148 1.119-.07-1.136 1.852-.219.077 1.135-.032-1.139 7.282-.402.039 1.532.122-1.527 1.518.126 7.347-.442.032 1.137.058-1.137 1.453.148 7.707-1.254.116 1.36.122-1.358.952.104 8.408-2.143.142 1.114-.02-1.138.328-.011 3.384-1.13 5.378-2.125.907-.488.295 1.066-.283-1.068 7.894-4.006 3.486-3.361.463.943-.449-.954 5.332-4.919 8.035-7.715.868-.847 1.602-1.658.489.912-.347-1.027 7.307-4.846.348 1.026-.245-1.079 2.001-.902 6.883-3.581.283 1.073-.2-1.108 3.757-1.346 5.146-2.003.22 1.096-.136-1.124 4.87-1.117.135 1.117-.116-1.127 4.046-.803.123 1.123-.071-1.135 5.372-.626.071 1.139-.065-1.139 3.545-.386 5.712-.618 3.165-.572 6.356-1.388 2.445-1.008.231 1.09-.193-1.099 7.675-2.666 1.138-.632.296 1.06-.258-1.077 5.758-2.712.264 1.083-.239-1.094 3.166-1.329.237 1.086-.192-1.106.482-.159 8.331-4.508.296 1.066-.277-1.075 2.521-1.249 6.286-4.837.392.999-.244-1.088 5.036-2.232 3.777-2.477.347 1.037-.251-1.09 7.076-3.218 1.763-1.125.335 1.036-.232-1.09 8.858-3.799.476 2.175-8.8 3.778-1.763 1.119-.334-1.035.25 1.081-7.076 3.227-3.775 2.474-.348-1.031.244 1.086-5.017 2.221-6.272 4.828-.393-.997.277 1.076-2.58 1.282-8.369 4.514-.296-1.064.193 1.113-.521.17-3.107 1.312-5.732 2.701-1.17.648-.303-1.06.193 1.106-7.713 2.672-2.477 1.024-.231-1.092.129 1.134-6.427 1.397-.129-1.128.104 1.13-3.192.579-.102-1.138.064 1.142-5.732.625-3.544.376-5.352.629-4.008.801-4.825 1.107-5.114 1.994-.219-1.094.207 1.101-3.725 1.335-6.851 3.56-.283-1.068.244 1.085-1.975.884-7.186 4.773-1.549 1.6-.489-.923.463.936-.882.87-.469-.936.463.942-8.029 7.715-.463-.941.451.953-5.34 4.917-3.57 3.438-.47-.94.284 1.075-7.971 4.044Z"/><path d="M1107.14 537.18c-14.77-.504-29.63-2.073-44.41-2.921-15.62-.519-30.42-3.855-46.03.029-17.315 4.308-33.913 10.434-50.747 17.432-15.24 6.339-29.739 14.454-43.853 24.728-6.182 4.5-11.463 11.51-17.897 15.762-6.928 4.574-12.048 12.634-18.668 18.066-13.914 11.423-29.765 10.677-43.679 21.588-7.154 5.618-12.216 19.131-19.684 23.145-4.381 2.359-7.308 6.008-12.095 6.502-1.968.201-3.718 2.072-5.609 2.107-2.188.647-4.522-1.401-6.748-.997-15.053 2.73-31.405-5.411-46.638-6.446-16.063-1.084-33.921 8.62-48.994 15.777-14.126 6.715-30.028 13.418-44.958 14.669-15.961 1.333-29.425-5.464-43.525-15.27-13.059-8.11-25.417-16.968-39.177-22.609-6.426-2.631-12.731-4.35-19.325-5.826-6.258-.248-12.512 2.582-18.629 4.175-27.585 7.188-61.376 32.635-86.67 1.356-10.132-12.523-17.903-28.128-26.002-43.267-9.366-17.507-21.544-33.624-34.314-46.409-13.534-13.556-27.468-25.626-43.286-33.187-7.791-3.624-15.085-7.1-23.313-7.949-8.073-1.254-16.101-1.112-24.162-2.885-13.831-3.038-27.553-11.787-39.91-20.694-15.478-9.414-31.399-15.013-48.367-12.186-14.48 2.417-31.441-4.149-45.144-10.417-7.147-3.263-13.553-8.604-20.699-11.976-7.78-3.678-15.872-6.227-23.491-10.529-6.879-3.886-14.177-5.848-21.083-9.472-6.905-2.595-14.23-7.421-21.189-8.866-14.97-3.11-29.21-14.372-37.596-32.014-4.408-6.888-7.066-19.795-8.958-28.39-2.453-10.259-4.354-20.48-6.397-30.928-3.497-23.311-3.64-46.62-4.702-70.274-1.133-25.235.197-50.713-2.239-75.812-2.079-21.54-5.032-42.825-7.512-64.092-.562-4.862-3.14-9.536-4.747-13.991-1.775-4.935-2.087-11.469-4.032-16.115-4.8-11.416-6.469-16.16-.875-27.74C3.223 68.29 6.73 57.518 9.388 56.488c2.302-1.9 9.305-3.86 11.455-1.799 7.04 1.103 13.597 3.145 20.735 3.498 15.613.785 32.27 1.717 47.482-4.294 8.404-3.325 17.067-11.596 24.169-18.456 4.327-4.175 7.039-10.637 10.18-16.585h8.35c-3.122 4.682-6.066 9.255-8.333 13.784-7.77 15.564-24.463 26.319-37.364 31.254-12.633 4.809-27.3 3.164-40.193 2.621-6.415 2.937-16.702-.94-23.063-2.739-3.711-1.056-9.403-2.737-11.554 2.649-1.837 4.6-6.495 10.006-7.164 14.995-.794 5.946 2.579 9.091 4.185 14.433 1.838 4.421 1.971 10.439 3.622 15.041 3.988 8.36 7.467 20.914 8.11 30.937 1.48 23.22 5.451 45.851 5.969 69.188 1.079 48.799-2.026 102.929 10.5 149.332 5.818 21.583 9.868 40.979 24.964 53.127 6.53 5.26 14.07 5.965 20.966 9.48 6.406 2.134 12.883 5.867 19.298 8.415 14.346 5.695 29.54 11.461 43.289 19.46 13.043 6.3 25.034 16.178 38.899 18.827 6.414 1.229 12.829 2.571 19.208 3.806 7.165 1.396 14.712-.807 21.992-.511 12.891.523 26.291 6.567 37.76 14.587 13.478 9.424 28.184 18.085 43.319 20.39 7.997 1.217 16.077 1.162 24.092 2.315 6.51.943 13.271 5.346 19.453 8.156 26.722 12.143 47.552 38.16 67.854 63.939 11.759 14.931 19.267 35.325 29.861 51.76 10.847 16.819 28.118 23.836 44.021 20.524 14.661-3.053 28.33-11.665 42.933-15.484 6.086-1.588 14.21-6.179 20.457-4.746 7.649.227 15.31 3.893 22.586 6.876 13.734 5.648 28.118 13.418 40.463 23.758 14.287 7.421 27.763 17.802 43.73 12.694 15.002-4.797 29.54-10.986 44.374-16.442 12.995-5.186 27.591-14.001 41.306-13.594 6.903-.177 14.203.724 20.952 2.606 7.288 2.024 14.834 1.512 22.064 3.185 6.286.657 16.604 3.813 22.304-.96 3.409-2.854 7.178-4.739 10.009-8.539 2.772-3.724 5.519-7.428 8.465-10.871 5.186-6.031 11.876-14.253 18.63-16.226 7.823-2.285 15.677-4.095 23.422-6.871 8.267-2.967 16.289-13.581 22.67-21.147 5.448-6.471 13.477-9.182 19.241-15.466 10.858-11.846 26.722-20.897 39.936-26.026 14.473-6.929 29.905-13.045 44.894-17.293 28.264-8.005 56.484-6.514 85.074-3.09 7.26.872 15.96 2.814 23.17 1.73 2.21-.326 6.17-1.445 8.53-.139v7.504c-2.63 1.748-7.29 1.417-9.52 1.1Z"/></g></svg>