<svg xmlns="http://www.w3.org/2000/svg" width="594" height="750" fill="none"><mask id="a" width="594" height="750" x="0" y="0" maskUnits="userSpaceOnUse" style="mask-type:alpha"><path fill="#D9D9D9" d="M0 0h594v750H0z"/></mask><g mask="url(#a)"><path fill="url(#b)" d="M1940 780.578c-70.26-25.197-140.38-50.395-217.01-80.253-76.49-30.03-159.49-64.72-197.88-138.587-38.52-73.695-32.55-186.395-53.71-280.973-21.29-94.405-69.71-170.689-118.26-246.972H1940v746.785Z"/><path fill="url(#c)" d="M0 0c83.584 7.597 167.304 15.022 219.68 72.346 52.376 57.325 73.408 164.204 129.583 230.334 56.175 66.131 147.629 91.34 193.085 158.506 45.591 67.339 45.184 176.635 44.777 285.932L0 747.117V0Z"/></g><defs><linearGradient id="b" x1="589.353" x2="959.053" y1="551.307" y2="-386.646" gradientUnits="userSpaceOnUse"><stop stop-color="#262737"/><stop offset="1" stop-color="#282A3D" stop-opacity="0"/></linearGradient><linearGradient id="c" x1="452.732" x2="-102.201" y1="173.29" y2="610.749" gradientUnits="userSpaceOnUse"><stop stop-color="#262737"/><stop offset="1" stop-color="#282A3D" stop-opacity="0"/></linearGradient></defs></svg>