<svg xmlns="http://www.w3.org/2000/svg" width="588" height="749" fill="none"><mask id="a" width="588" height="749" x="0" y="0" maskUnits="userSpaceOnUse" style="mask-type:alpha"><path fill="#D9D9D9" d="M0 0h588v749H0z"/></mask><g mask="url(#a)"><path fill="url(#b)" d="M588 748.578c-70.256-25.197-140.376-50.395-217.006-80.253-76.494-30.03-159.499-64.72-197.882-138.587-38.518-73.695-32.551-186.395-53.709-280.973C98.11 154.36 49.69 78.076 1.135 1.793H588v746.785Z"/><path fill="url(#c)" d="M-1352-32c83.58 7.597 167.3 15.022 219.68 72.346 52.38 57.325 73.41 164.204 129.58 230.334 56.178 66.131 147.632 91.34 193.088 158.506 45.591 67.339 45.184 176.635 44.777 285.932l-587.125-.001V-32Z"/></g><defs><linearGradient id="b" x1="-762.647" x2="-392.947" y1="519.307" y2="-418.646" gradientUnits="userSpaceOnUse"><stop stop-color="#262737"/><stop offset="1" stop-color="#282A3D" stop-opacity="0"/></linearGradient><linearGradient id="c" x1="-899.268" x2="-1454.2" y1="141.29" y2="578.749" gradientUnits="userSpaceOnUse"><stop stop-color="#262737"/><stop offset="1" stop-color="#282A3D" stop-opacity="0"/></linearGradient></defs></svg>