<svg xmlns="http://www.w3.org/2000/svg" width="23.988" height="24"><path data-name="Path 3" d="M11.408.076a4.667 4.667 0 0 0-1.805 1c-.478.342-1.224.881-1.664 1.2L1.071 7.194c-.8.577-.891.656-.985.849a.93.93 0 0 0 .239 1.088.81.81 0 0 0 .609.248c.267 0 .422-.08 1.074-.549.553-.4 4.238-3.038 7.914-5.673a18.083 18.083 0 0 1 1.847-1.238.921.921 0 0 1 .75.141c.192.122 1.158.811 7.3 5.223 1.51 1.083 2.808 2 2.893 2.03a1.007 1.007 0 0 0 .642.019 1.25 1.25 0 0 0 .572-.591.921.921 0 0 0-.066-.778 36.084 36.084 0 0 0-2.9-2.171c-1.542-1.106-3.849-2.757-5.124-3.676S13.379.381 13.211.302a3.256 3.256 0 0 0-1.252-.3 3.071 3.071 0 0 0-.551.074Z" fill="#ff6e0d"/><path data-name="Path 4" d="M11.525 4.727a3.658 3.658 0 0 0-.919.328c-.084.052-.68.474-1.317.933L5.712 8.567a342.57 342.57 0 0 0-2.705 1.964 3 3 0 0 0-1.027 1.467c-.084.244-.089.53-.1 4.806-.014 5.138-.023 4.984.333 5.673a2.857 2.857 0 0 0 1.932 1.453 23.529 23.529 0 0 0 3.305.061l2.93-.014.2-.117a.917.917 0 0 0 .328-.328l.127-.211.023-2.157c.028-2.443.009-2.34.417-2.625a.685.685 0 0 1 .52-.141.685.685 0 0 1 .52.141c.408.286.389.183.417 2.625.023 2.143.023 2.157.131 2.344a.983.983 0 0 0 .577.445c.094.028 1.3.047 3.01.047 3.235 0 3.3 0 3.948-.342a2.857 2.857 0 0 0 1.453-1.932 45.546 45.546 0 0 0 .061-4.923c-.014-4.276-.019-4.562-.1-4.806a3 3 0 0 0-.863-1.336c-.094-.084-.638-.483-1.2-.891s-1.514-1.1-2.11-1.524c-4.731-3.422-4.487-3.254-4.984-3.418a3.43 3.43 0 0 0-1.33-.101Zm.886 1.946c.075.042.82.567 1.655 1.167 4.787 3.451 5.9 4.271 5.982 4.384.2.281.2.281.2 4.777 0 4.735.014 4.51-.272 4.815a1.179 1.179 0 0 1-.314.22 9.215 9.215 0 0 1-2.518.089h-2.337v-1.538c0-1.735-.028-1.964-.309-2.541a3.111 3.111 0 0 0-1.186-1.214 3.221 3.221 0 0 0-1.317-.333 3.215 3.215 0 0 0-1.327.338 3.2 3.2 0 0 0-1.177 1.21c-.281.577-.309.806-.309 2.541v1.538H6.898c-1.533 0-2.349-.019-2.475-.052a1.119 1.119 0 0 1-.628-.628c-.075-.272-.07-8.688 0-8.941a1 1 0 0 1 .2-.338c.169-.188 7.314-5.345 7.623-5.5a.889.889 0 0 1 .793.005Z" fill="#033270"/></svg>