<svg xmlns="http://www.w3.org/2000/svg" width="18.76" height="24"><path data-name="Path 5" d="M9.505.05a4.737 4.737 0 0 0-3.642 3.154 4.686 4.686 0 0 0-.225 1.478.9.9 0 0 0 .422.779.712.712 0 0 0 .5.127.712.712 0 0 0 .5-.127c.3-.192.39-.39.436-.892a2.852 2.852 0 0 1 .892-1.934 2.754 2.754 0 0 1 2.6-.685 2.554 2.554 0 0 1 1.3.751 2.554 2.554 0 0 1 .751 1.3 6.114 6.114 0 0 1 .094 1.614 4.049 4.049 0 0 0 .338 2.267 3.453 3.453 0 0 0 1.15 1.15 3.217 3.217 0 0 0 1.328.338 3.217 3.217 0 0 0 1.328-.338 3.261 3.261 0 0 0 1.173-1.2c.319-.648.319-.657.305-4.125l-.014-3.1-.127-.192a.838.838 0 0 0-.793-.413.73.73 0 0 0-.5.127 1.235 1.235 0 0 0-.3.305l-.113.178-.023 3.126-.023 3.121-.127.192a.844.844 0 0 1-.788.413.844.844 0 0 1-.788-.413l-.127-.188-.028-1.46a8.048 8.048 0 0 0-.127-1.835A4.735 4.735 0 0 0 11.418.114 5.6 5.6 0 0 0 9.505.05Z" fill="#ff6e0d"/><path data-name="Path 6" d="M3.873 7.568a4.729 4.729 0 0 0-3.642 3.149c-.235.7-.244.9-.225 4.369a18.839 18.839 0 0 0 .117 3.679A6.644 6.644 0 0 0 3.3 23.134a6.6 6.6 0 0 0 6.256.15 5.946 5.946 0 0 0 1.629-1.22 6.312 6.312 0 0 0 1.821-3.318 19.577 19.577 0 0 0 .113-3.661 27.664 27.664 0 0 0-.056-3.651 4.727 4.727 0 0 0-3.52-3.815 12.291 12.291 0 0 0-2.839-.108 21.639 21.639 0 0 0-2.831.057Zm5.242 1.9a2.587 2.587 0 0 1 1.3.751 2.542 2.542 0 0 1 .526.69c.319.652.319.652.3 4.144-.014 3.055-.014 3.13-.117 3.52a4.811 4.811 0 0 1-2.483 3.069 4.687 4.687 0 0 1-6.552-2.811c-.206-.652-.221-.939-.221-4 0-3.229 0-3.28.314-3.9a2.991 2.991 0 0 1 1.234-1.239c.6-.291.709-.3 3.149-.305a10.709 10.709 0 0 1 2.55.077Z" fill="#033270"/><path data-name="Path 7" d="M6.243 11.299a1.054 1.054 0 0 0-.573.605 8.821 8.821 0 0 0-.038 1.333l.014 1.14.127.188a.844.844 0 0 0 .788.413.844.844 0 0 0 .788-.413l.127-.192v-1.244c0-1.234 0-1.248-.113-1.427a1.008 1.008 0 0 0-1.12-.403Z" fill="#033270"/></svg>