<svg xmlns="http://www.w3.org/2000/svg" width="23.255" height="24"><path data-name="Path 148" d="M6.6.042a4.059 4.059 0 0 0-3.254 2.977c-.084.314-.089.647-.089 8.768v8.439l.108.155a.878.878 0 0 0 .647.338.883.883 0 0 0 .675-.361l.117-.173.023-8.346c.023-7.774.028-8.364.1-8.585a2.573 2.573 0 0 1 1.524-1.538l.272-.1 6.306-.014c4.44-.009 6.4 0 6.611.038a2.442 2.442 0 0 1 1.9 1.758c.061.244.07 1.28.07 8.6s-.009 8.36-.07 8.6a2.443 2.443 0 0 1-1.871 1.754c-.389.07-15.7.07-16.091 0a2.443 2.443 0 0 1-1.814-1.557l-.1-.244-.023-8.392c-.023-7.877-.028-8.4-.1-8.542a.851.851 0 0 0-.9-.417.943.943 0 0 0-.567.483c-.056.127-.066 1.58-.066 8.4 0 7.3.009 8.289.075 8.632a3.8 3.8 0 0 0 1.041 2.025 3.848 3.848 0 0 0 2.1 1.167c.4.084.811.089 8.4.089 7.056 0 8.022-.009 8.364-.075A3.8 3.8 0 0 0 22 22.888a3.847 3.847 0 0 0 1.167-2.1c.084-.4.089-.816.089-8.791s0-8.388-.089-8.791A3.847 3.847 0 0 0 22 1.106 3.961 3.961 0 0 0 19.881.042C19.518-.012 6.944-.012 6.6.042Z" fill="#033270"/><path data-name="Path 149" d="M6.906 4.829a.852.852 0 0 0-.553.9.886.886 0 0 0 .413.567c.155.07.675.075 6.484.075h6.32l.183-.122a.882.882 0 0 0 .361-.652 1.027 1.027 0 0 0-.272-.6c-.249-.22-.075-.216-6.62-.216-3.625.001-6.227.024-6.316.048Z" fill="#033270"/><path data-name="Path 150" d="M7.563 8.879a1.8 1.8 0 0 0-1.013.91c-.1.22-.1.244-.1 2.612v2.391l.127.267a1.75 1.75 0 0 0 .764.788l.234.117 2 .014c1.922.014 2.007.009 2.26-.084a1.529 1.529 0 0 0 .839-.788l.155-.314V10.01l-.122-.263a1.689 1.689 0 0 0-.788-.788l-.263-.122-1.946-.009a13.441 13.441 0 0 0-2.147.051Zm3.69 3.521v1.993H8.018v-3.985h3.235Z" fill="#ff6e0d"/><path data-name="Path 151" d="M14.17 9.686a.792.792 0 0 0-.267 1.224c.249.3.178.291 3 .291s2.747.009 3.015-.3a.793.793 0 0 0-.328-1.247c-.089-.033-1-.052-2.7-.052a12.255 12.255 0 0 0-2.72.084Z" fill="#033270"/><path data-name="Path 152" d="M14.178 13.681a.783.783 0 0 0-.272 1.224c.249.291.141.281 3 .281 2.916 0 2.832.009 3.052-.328a.783.783 0 0 0-.328-1.177 10.549 10.549 0 0 0-2.724-.089c-2.37 0-2.55.009-2.728.089Z" fill="#033270"/><path data-name="Path 153" d="M6.887 17.73a.753.753 0 0 0-.37.656.79.79 0 0 0 .436.731c.2.1.206.1 6.344.1 5.875 0 6.147 0 6.33-.089a.783.783 0 0 0 .328-1.177c-.234-.352.286-.328-6.676-.328H7.047Z" fill="#033270"/></svg>