<svg xmlns="http://www.w3.org/2000/svg" width="15" height="15"><path data-name="Path 77" d="M1.343.042A1.747 1.747 0 0 0 .296.763a1.716 1.716 0 0 0-.105 1.753c.1.211.208.323 2.483 2.6L5.052 7.5 2.674 9.881C.399 12.162.293 12.273.191 12.481A1.72 1.72 0 0 0 .763 14.7a1.716 1.716 0 0 0 1.753.106c.211-.1.322-.208 2.6-2.483l2.381-2.378 2.384 2.378c2.278 2.275 2.389 2.381 2.6 2.483a1.722 1.722 0 0 0 1.741-.1 1.718 1.718 0 0 0 .583-2.228c-.1-.211-.208-.322-2.483-2.6L9.944 7.497l2.378-2.384c2.275-2.278 2.381-2.389 2.483-2.6a1.72 1.72 0 0 0-.572-2.219A1.729 1.729 0 0 0 12.48.186c-.211.1-.308.193-2.6 2.486L7.496 5.05 5.115 2.675C2.834.4 2.723.294 2.515.192a1.755 1.755 0 0 0-1.172-.15Z" fill="#fff"/></svg>