<svg width="30" height="30" viewBox="0 0 30 30" fill="none" xmlns="http://www.w3.org/2000/svg">
<path opacity="0.943" fill-rule="evenodd" clip-rule="evenodd" d="M14.2556 2.12313C16.351 1.93428 17.8859 2.76149 18.8604 4.60474C19.031 5.01125 19.1412 5.43404 19.1913 5.87313C19.2188 8.09732 19.228 10.3216 19.2188 12.5459C19.9543 12.5367 20.6897 12.5459 21.4247 12.5735C21.5101 12.6404 21.5744 12.7232 21.6177 12.8217C21.586 15.7564 20.2533 17.8612 17.6196 19.136C17.3373 19.2484 17.0524 19.3495 16.7648 19.4393C16.7372 21.3693 16.728 23.2995 16.7372 25.2297C17.3258 25.2205 17.914 25.2297 18.5019 25.2573C18.6004 25.3006 18.6831 25.3649 18.7501 25.4503C18.8123 25.8031 18.8399 26.1616 18.8328 26.5257C18.8388 26.9067 18.8112 27.2836 18.7501 27.6562C18.7042 27.7021 18.6582 27.7481 18.6122 27.7941C16.1858 27.8309 13.7593 27.8309 11.3328 27.7941C11.2869 27.7481 11.2409 27.7021 11.1949 27.6562C11.1338 27.2836 11.1062 26.9067 11.1122 26.5257C11.1052 26.1616 11.1327 25.8031 11.1949 25.4503C11.2619 25.3649 11.3446 25.3006 11.4431 25.2573C12.031 25.2297 12.6193 25.2205 13.2078 25.2297C13.217 23.2995 13.2078 21.3693 13.1802 19.4393C10.5348 18.5953 8.93551 16.8122 8.38244 14.09C8.31026 13.6692 8.29189 13.2465 8.3273 12.8217C8.37059 12.7232 8.43489 12.6404 8.52031 12.5735C9.25537 12.5459 9.9907 12.5367 10.7262 12.5459C10.717 10.3216 10.7262 8.09732 10.7538 5.87313C11.0965 3.84852 12.2638 2.59852 14.2556 2.12313ZM14.9174 3.00548C16.3797 3.08079 17.4183 3.77931 18.0332 5.10107C18.1323 5.3505 18.1966 5.60786 18.2262 5.87313C17.6928 5.86394 17.1597 5.87314 16.6269 5.9007C16.3452 6.08634 16.2808 6.3345 16.4339 6.64518C16.4985 6.722 16.5812 6.768 16.6821 6.78305C17.2149 6.81063 17.748 6.81978 18.2813 6.81063C18.2813 7.10472 18.2813 7.39888 18.2813 7.69298C17.7112 7.68382 17.1413 7.69298 16.5718 7.72055C16.2777 7.99629 16.2777 8.27202 16.5718 8.54776C17.1413 8.57533 17.7112 8.58449 18.2813 8.57533C18.2813 8.86943 18.2813 9.16359 18.2813 9.45768C17.748 9.44853 17.2149 9.45768 16.6821 9.48526C16.4523 9.53958 16.342 9.68665 16.3512 9.92643C16.3457 10.1362 16.4376 10.2833 16.6269 10.3676C17.1781 10.3952 17.7295 10.4043 18.2813 10.3952C18.2905 11.3696 18.2813 12.3439 18.2538 13.318C17.9208 15.1491 16.8271 16.1417 14.9725 16.2959C13.118 16.1417 12.0242 15.1491 11.6913 13.318C11.6637 12.3439 11.6545 11.3696 11.6637 10.3952C12.2155 10.4043 12.767 10.3952 13.3181 10.3676C13.5999 10.182 13.6642 9.93382 13.5111 9.62313C13.4465 9.54631 13.3638 9.50031 13.263 9.48526C12.7302 9.45768 12.1971 9.44853 11.6637 9.45768C11.6637 9.16359 11.6637 8.86943 11.6637 8.57533C12.2339 8.58449 12.8037 8.57533 13.3733 8.54776C13.6674 8.27202 13.6674 7.99629 13.3733 7.72055C12.8037 7.69298 12.2339 7.68382 11.6637 7.69298C11.6637 7.39888 11.6637 7.10472 11.6637 6.81063C12.1971 6.81978 12.7302 6.81063 13.263 6.78305C13.4927 6.72873 13.603 6.58165 13.5938 6.34188C13.5994 6.1321 13.5075 5.98504 13.3181 5.9007C12.7853 5.87314 12.2522 5.86394 11.7188 5.87313C11.9149 4.68133 12.5583 3.82655 13.649 3.30879C14.0651 3.14492 14.4879 3.04382 14.9174 3.00548ZM9.23722 13.4834C9.75191 13.4834 10.2667 13.4834 10.7813 13.4834C11.01 15.1072 11.874 16.2562 13.3733 16.9301C15.5192 17.618 17.2563 17.0573 18.5846 15.2481C18.9161 14.7041 19.1092 14.1158 19.1637 13.4834C19.6797 13.4651 20.1944 13.4835 20.7078 13.5386C20.2814 16.1616 18.7924 17.8436 16.2409 18.5845C13.6436 19.0272 11.594 18.1725 10.092 16.0202C9.63594 15.231 9.35099 14.3854 9.23722 13.4834ZM14.1453 19.6047C14.6784 19.6769 15.2115 19.6769 15.7446 19.6047C15.7728 21.7415 15.8187 23.8738 15.8824 26.0018C15.9322 26.068 15.9965 26.114 16.0755 26.1397C16.6818 26.1672 17.2884 26.1765 17.8953 26.1672C17.8953 26.4246 17.8953 26.6819 17.8953 26.9393C15.9468 26.9393 13.9982 26.9393 12.0497 26.9393C12.0497 26.6819 12.0497 26.4246 12.0497 26.1672C12.6566 26.1765 13.2632 26.1672 13.8696 26.1397C13.9891 26.0937 14.0718 26.011 14.1177 25.8915C14.1453 23.796 14.1545 21.7004 14.1453 19.6047Z" fill="black"/>
</svg>
