<svg width="1921" height="464" viewBox="0 0 1921 464" fill="none" xmlns="http://www.w3.org/2000/svg">
<mask id="mask0_115_1330" style="mask-type:alpha" maskUnits="userSpaceOnUse" x="0" y="0" width="1921" height="464">
<rect x="0.969727" y="0.127197" width="1920" height="463" fill="#FBFBFB"/>
</mask>
<g mask="url(#mask0_115_1330)">
<path d="M1 -469.5H0.5V-469V454.293V455.883L1.4101 454.579L1 454.293C1.4101 454.579 1.41042 454.578 1.41117 454.577L1.41477 454.572L1.42958 454.551L1.48952 454.466C1.54293 454.39 1.62322 454.277 1.73019 454.127C1.94412 453.828 2.26476 453.383 2.69052 452.802C3.54204 451.641 4.81402 449.935 6.49375 447.765C9.85324 443.423 14.8436 437.218 21.3631 429.772C34.4027 414.878 53.5569 395.018 78.0125 375.16C126.93 335.438 197.017 295.751 281.786 295.751H282.414H283.053H283.704H284.366H285.04H285.726H286.422H287.131H287.85H288.581H289.323H290.077H290.842H291.618H292.405H293.203H294.013H294.834H295.665H296.508H297.362H298.227H299.102H299.989H300.886H301.795H302.714H303.644H304.585H305.536H306.498H307.471H308.455H309.449H310.454H311.469H312.495H313.531H314.578H315.635H316.703H317.781H318.869H319.968H321.077H322.196H323.326H324.465H325.615H326.775H327.945H329.125H330.316H331.516H332.726H333.946H335.176H336.416H337.666H338.926H340.195H341.474H342.763H344.062H345.37H346.688H348.016H349.353H350.7H352.056H353.422H354.798H356.182H357.576H358.98H360.393H361.815H363.247H364.687H366.137H367.597H369.065H370.542H372.029H373.525H375.029H376.543H378.066H379.598H381.138H382.688H384.246H385.813H387.389H388.974H390.568H392.17H393.781H395.401H397.029H398.666H400.311H401.965H403.628H405.298H406.978H408.666H410.362H412.066H413.779H415.5H417.23H418.967H420.713H422.467H424.229H425.999H427.778H429.564H431.359H433.161H434.971H436.79H438.616H440.45H442.292H444.141H445.999H447.864H449.737H451.618H453.506H455.402H457.306H459.217H461.135H463.061H464.995H466.936H468.885H470.84H472.804H474.774H476.752H478.737H480.73H482.729H484.736H486.75H488.771H490.799H492.834H494.876H496.925H498.981H501.044H503.114H505.191H507.275H509.365H511.463H513.567H515.677H517.795H519.919H522.05H524.187H526.331H528.481H530.638H532.802H534.971H537.148H539.331H541.52H543.715H545.917H548.125H550.339H552.559H554.786H557.018H559.257H561.502H563.753H566.01H568.273H570.542H572.817H575.098H577.385H579.677H581.975H584.28H586.589H588.905H591.226H593.553H595.886H598.224H600.568H602.917H605.272H607.633H609.998H612.37H614.746H617.128H619.515H621.908H624.306H626.709H629.117H631.531H633.95H636.373H638.802H641.236H643.675H646.119H648.568H651.022H653.481H655.944H658.413H660.886H663.364H665.847H668.335H670.827H673.324H675.826H678.332H680.843H683.358H685.878H688.402H690.931H693.464H696.002H698.544H701.09H703.641H706.196H708.755H711.318H713.886H716.457H719.033H721.613H724.197H726.785H729.377H731.973H734.573H737.177H739.785H742.396H745.012H747.631H750.254H752.88H755.511H758.145H760.783H763.424H766.069H768.717H771.369H774.025H776.684H779.346H782.012H784.681H787.353H790.029H792.708H795.39H798.076H800.765H803.456H806.151H808.849H811.551H814.255H816.962H819.672H822.385H825.101H827.82H830.542H833.266H835.994H838.724H841.457H844.192H846.931H849.672H852.415H855.161H857.91H860.661H863.415H866.171H868.929H871.69H874.454H877.219H879.987H882.757H885.53H888.305H891.082H893.861H896.642H899.425H902.211H904.998H907.788H910.579H913.372H916.168H918.965H921.764H924.565H927.367H930.172H932.978H935.786H938.595H941.406H944.219H947.034H949.85H952.667H955.486H958.307H961.128H963.952H966.776H969.602H972.43H975.258H978.088H980.919H983.751H986.585H989.419H992.255H995.092H997.93H1000.77H1003.61H1006.45H1009.29H1012.13H1014.98H1017.82H1020.67H1023.51H1026.36H1029.21H1032.05H1034.9H1037.75H1040.6H1043.45H1046.3H1049.15H1052.01H1054.86H1057.71H1060.56H1063.42H1066.27H1069.12H1071.98H1074.83H1077.69H1080.54H1083.4H1086.25H1089.11H1091.96H1094.82H1097.67H1100.53H1103.38H1106.24H1109.09H1111.95H1114.8H1117.66H1120.51H1123.37H1126.22H1129.07H1131.92H1134.78H1137.63H1140.48H1143.33H1146.18H1149.03H1151.88H1154.73H1157.58H1160.42H1163.27H1166.12H1168.96H1171.81H1174.65H1177.49H1180.33H1183.17H1186.01H1188.85H1191.69H1194.53H1197.36H1200.2H1203.03H1205.86H1208.69H1211.52H1214.35H1217.18H1220.01H1222.83H1225.65H1228.48H1231.3H1234.12H1236.93H1239.75H1242.56H1245.38H1248.19H1251H1253.81H1256.61H1259.42H1262.22H1265.02H1267.82H1270.62H1273.41H1276.2H1279H1281.79H1284.57H1287.36H1290.14H1292.92H1295.7H1298.48H1301.25H1304.03H1306.8H1309.56H1312.33H1315.09H1317.85H1320.61H1323.37H1326.12H1328.87H1331.62H1334.37H1337.11H1339.85H1342.59H1345.33H1348.06H1350.79H1353.52H1356.24H1358.96H1361.68H1364.4H1367.11H1369.82H1372.53H1375.23H1377.94H1380.63H1383.33H1386.02H1388.71H1391.4H1394.08H1396.76H1399.43H1402.1H1404.77H1407.44H1410.1H1412.76H1415.42H1418.07H1420.72H1423.36H1426H1428.64H1431.28H1433.91H1436.53H1439.16H1441.78H1444.39H1447H1447.03C1528.18 295.751 1589.08 295.751 1637.5 291.925C1685.92 288.099 1721.9 280.443 1753.2 265.108C1813.09 235.769 1861.52 187.341 1890.86 127.452C1906.19 96.1494 1913.85 60.1727 1917.67 11.7478C1921.5 -36.6669 1921.5 -97.567 1921.5 -178.726V-178.749V-469V-469.5H1921H1Z" fill="#FBFBFB" stroke="#E1E1E1"/>
</g>
</svg>
