<svg id="Group_7789" data-name="Group 7789" xmlns="http://www.w3.org/2000/svg" xmlns:xlink="http://www.w3.org/1999/xlink" width="116.514" height="81.931" viewBox="0 0 116.514 81.931">
  <defs>
    <linearGradient id="linear-gradient" x1="1.063" y1="1.369" x2="0.354" gradientUnits="objectBoundingBox">
      <stop offset="0" stop-color="#81e6ff"/>
      <stop offset="1" stop-color="#00b6e3"/>
    </linearGradient>
  </defs>
  <path id="Path_5590" data-name="Path 5590" d="M-101-45.013a17.51,17.51,0,0,1-2.478-.18,10.666,10.666,0,0,1-2.622-.754v.934a25.971,25.971,0,0,1-.275,2.646,16.841,16.841,0,0,1-1.2,4.214,15.082,15.082,0,0,1-3.412,4.885,32.92,32.92,0,0,1-5.532,3.412l-3.7-5.639a31.973,31.973,0,0,0,3.7-2.263,9.1,9.1,0,0,0,3.233-7.327V-69.726h7.184v13.075a4,4,0,0,0,.539,2.155,3.931,3.931,0,0,0,1.437,1.365,6.706,6.706,0,0,0,1.976.718,10.964,10.964,0,0,0,2.155.216,3.6,3.6,0,0,1,2.658.934,3.219,3.219,0,0,1,1.006,2.586q0,2.371-1.329,3.017A7.62,7.62,0,0,1-101-45.013Zm6.272,0h-5.194a3.689,3.689,0,0,1-2.73-1.006,3.448,3.448,0,0,1-1.006-2.658,3.355,3.355,0,0,1,1.006-2.586,3.854,3.854,0,0,1,2.73-.934h5.194a4.028,4.028,0,0,0,1.76-.4,4.968,4.968,0,0,0,1.473-1.078,5.056,5.056,0,0,0,1.006-1.545,4.625,4.625,0,0,0,.359-1.8V-68.432h7.184v11.638a11.011,11.011,0,0,1-.934,4.49,12.181,12.181,0,0,1-2.55,3.736A12.583,12.583,0,0,1-90.2-45.983,10.907,10.907,0,0,1-94.726-45.013ZM-102.954-38H-86.4v6.825h-16.55Zm40.6-7.017a17.51,17.51,0,0,1-2.478-.18,10.665,10.665,0,0,1-2.622-.754v.934a19.5,19.5,0,0,1-1.473,6.861,15.082,15.082,0,0,1-3.412,4.885,32.92,32.92,0,0,1-5.532,3.412l-3.7-5.639a31.975,31.975,0,0,0,3.7-2.263,9.1,9.1,0,0,0,3.233-7.327V-69.726h7.184v13.075A4,4,0,0,0-66.92-54.5a3.93,3.93,0,0,0,1.437,1.365,6.706,6.706,0,0,0,1.976.718,10.964,10.964,0,0,0,2.155.216,3.6,3.6,0,0,1,2.658.934,3.219,3.219,0,0,1,1.006,2.586q0,2.371-1.329,3.017A7.62,7.62,0,0,1-62.358-45.013Zm43.031,0h-7.687a10.1,10.1,0,0,1-8.98-5.1,17.878,17.878,0,0,1-5.172,3.556,16.318,16.318,0,0,1-6.178,1.545H-65.663a3.641,3.641,0,0,1-2.694-.97,3.543,3.543,0,0,1-.97-2.622,3.473,3.473,0,0,1,1.006-2.622,3.668,3.668,0,0,1,2.658-.97H-47.2a8.192,8.192,0,0,0,6.465-3.448l4.454-5.819-8.405-4.023a7.755,7.755,0,0,0-3.376-.718,7.607,7.607,0,0,0-2.047.251,6.754,6.754,0,0,0-1.76.79,10.1,10.1,0,0,0-1.76,1.437q-.9.9-2.119,2.191l-.718.79-5.891-2.874.79-1.293a18.368,18.368,0,0,1,5.532-6.142,13.644,13.644,0,0,1,7.9-2.263,15,15,0,0,1,6.394,1.437l10.991,5.244a9.074,9.074,0,0,0,3.161.647H-22.7v6.825l-4.167.359h-.072a16.6,16.6,0,0,1-2.73-.216l-1.868,2.8a4.04,4.04,0,0,0,1.4,2.766,5.256,5.256,0,0,0,3.2,1.257h7.615a3.7,3.7,0,0,1,2.73.934c.623.575-1.04,1.437-1.04,2.586s1.651,2.047,1,2.694A3.641,3.641,0,0,1-19.327-45.013Zm3.845,0h-3.845a3.689,3.689,0,0,1-2.73-1.006,3.448,3.448,0,0,1-1.006-2.658,3.355,3.355,0,0,1,1.006-2.586,3.854,3.854,0,0,1,2.73-.934h3.845a4.028,4.028,0,0,0,1.76-.4,4.969,4.969,0,0,0,1.473-1.078,5.056,5.056,0,0,0,1.006-1.545,4.625,4.625,0,0,0,.359-1.8v-9.448H-3.7v9.664a11.012,11.012,0,0,1-.934,4.49,12.181,12.181,0,0,1-2.55,3.736,12.583,12.583,0,0,1-3.772,2.586A10.907,10.907,0,0,1-15.482-45.013ZM-3.764-70.655H-19.327V-77.48H-3.764Z" transform="translate(120.215 77.48)" fill="url(#linear-gradient)"/>
  <path id="Path_13336" data-name="Path 13336" d="M-44.955,4.86h-5.768a4.475,4.475,0,0,1-1.8-.368,4.767,4.767,0,0,1-1.485-1.006A4.767,4.767,0,0,1-55.019,2,4.475,4.475,0,0,1-55.387.2V-5.056h2.455V.2a2.114,2.114,0,0,0,.65,1.571,2.147,2.147,0,0,0,1.559.638h5.768a1.507,1.507,0,0,0,1.129-.454A1.54,1.54,0,0,0-43.384.835,1.58,1.58,0,0,0-43.679-.1a1.329,1.329,0,0,0-.712-.54l-5.474-1.4V-4.345a4.546,4.546,0,0,1,.295-1.632,4.331,4.331,0,0,1,.822-1.362,3.994,3.994,0,0,1,1.276-.945,3.753,3.753,0,0,1,1.632-.356l3.927.074V-6.21h-3.927a1.6,1.6,0,0,0-.65.135,1.839,1.839,0,0,0-.528.344,1.767,1.767,0,0,0-.356.466,1.081,1.081,0,0,0-.135.5v1.006q.933.172,1.78.368t1.927.466a3.747,3.747,0,0,1,2.086,1.375A3.821,3.821,0,0,1-40.93.835a4.017,4.017,0,0,1-.307,1.583A3.988,3.988,0,0,1-42.1,3.694a3.988,3.988,0,0,1-1.276.859A4.016,4.016,0,0,1-44.955,4.86ZM-32.731,0a5.983,5.983,0,0,1-.847-.061,3.644,3.644,0,0,1-.9-.258V0a6.662,6.662,0,0,1-.5,2.344,5.153,5.153,0,0,1-1.166,1.669,6.492,6.492,0,0,1-1.73,1.166,16.186,16.186,0,0,1-2.221.835l-.491.147-.589-2.111.393-.172q.761-.295,1.485-.626a5.787,5.787,0,0,0,1.264-.773,3.109,3.109,0,0,0,1.1-2.5V-8.444h2.455v4.467a1.365,1.365,0,0,0,.184.736,1.343,1.343,0,0,0,.491.466,2.291,2.291,0,0,0,.675.245,3.746,3.746,0,0,0,.736.074,1.229,1.229,0,0,1,.908.319,1.1,1.1,0,0,1,.344.884q0,.81-.454,1.031A2.6,2.6,0,0,1-32.731,0Zm1.964,0h-1.62a1.26,1.26,0,0,1-.933-.344,1.178,1.178,0,0,1-.344-.908,1.146,1.146,0,0,1,.344-.884,1.317,1.317,0,0,1,.933-.319h1.62a1.376,1.376,0,0,0,.6-.135,1.7,1.7,0,0,0,.5-.368,1.727,1.727,0,0,0,.344-.528A1.58,1.58,0,0,0-29.2-4.1V-8h2.455v3.976a3.762,3.762,0,0,1-.319,1.534,4.162,4.162,0,0,1-.871,1.276,4.3,4.3,0,0,1-1.289.884A3.727,3.727,0,0,1-30.768,0Zm-.515,2.823h2.258V5.13h-2.258ZM-22.324,0h-2.455V-14.482h2.455Zm4.713,5.989-.614-2.111.417-.147q.761-.319,1.485-.638a5.007,5.007,0,0,0,1.264-.785,3.1,3.1,0,0,0,1.08-2.5V-8.444h2.455V-.172a6.724,6.724,0,0,1-.5,2.369,5.106,5.106,0,0,1-1.154,1.657,6.392,6.392,0,0,1-1.73,1.154,16.792,16.792,0,0,1-2.234.835ZM-4.406,0h-1.2A3.908,3.908,0,0,1-7.18-.319a4.077,4.077,0,0,1-1.276-.859,4.077,4.077,0,0,1-.859-1.276,3.908,3.908,0,0,1-.319-1.571V-14.482h2.405V-4a1.47,1.47,0,0,0,.466,1.092,1.589,1.589,0,0,0,1.154.454h1.2a1.281,1.281,0,0,1,.908.319,1.146,1.146,0,0,1,.344.884,1.244,1.244,0,0,1-.331.92A1.244,1.244,0,0,1-4.406,0ZM1.632-13.868,3.08-12.3.037-9.671q1.252.221,2.43.442,1.006.172,2.1.38t1.8.356A4.989,4.989,0,0,1,9.18-7.057a4.352,4.352,0,0,1,.97,3.031,1.691,1.691,0,0,0,.491,1.141,1.491,1.491,0,0,0,1.08.43h.393a1.338,1.338,0,0,1,.908.319,1.2,1.2,0,0,1,.344.884,1.244,1.244,0,0,1-.331.92,1.244,1.244,0,0,1-.92.331H11.72a3.9,3.9,0,0,1-2.8-1.1,3.39,3.39,0,0,1-1.24.835A4.088,4.088,0,0,1,6.2,0h-10.6a1.244,1.244,0,0,1-.92-.331,1.244,1.244,0,0,1-.331-.92,1.2,1.2,0,0,1,.344-.884,1.338,1.338,0,0,1,.908-.319H6.2a1.53,1.53,0,0,0,1.1-.454,1.5,1.5,0,0,0,.466-1.117,2.046,2.046,0,0,0-.2-.945,1.929,1.929,0,0,0-.479-.614,2.353,2.353,0,0,0-.614-.368,3.076,3.076,0,0,0-.6-.184L-3.3-7.879V-9.941ZM-3.6-11.07l-1.031-1.424,3.314-2.356.859,1.227ZM13.733,0h-1.62a1.26,1.26,0,0,1-.933-.344,1.178,1.178,0,0,1-.344-.908,1.146,1.146,0,0,1,.344-.884,1.317,1.317,0,0,1,.933-.319h1.62a1.376,1.376,0,0,0,.6-.135,1.7,1.7,0,0,0,.5-.368,1.727,1.727,0,0,0,.344-.528A1.58,1.58,0,0,0,15.3-4.1V-8h2.455v3.976a3.762,3.762,0,0,1-.319,1.534,4.162,4.162,0,0,1-.871,1.276,4.3,4.3,0,0,1-1.289.884A3.727,3.727,0,0,1,13.733,0ZM15.55-11.536h1.939v1.988H15.55ZM31.038,0h-.515a2.852,2.852,0,0,1-1.706-.454,4.971,4.971,0,0,1-1.141-1.19l-.147-.2a3.732,3.732,0,0,1-1.46,1.375A4.163,4.163,0,0,1,24.116,0H19.477V-2.455h4.639a1.53,1.53,0,0,0,1.1-.454,1.417,1.417,0,0,0,.466-1.043,2.2,2.2,0,0,0-.049-.454,1.315,1.315,0,0,0-.172-.43l-2.847-4.2,1.964-1.4,4.835,7.045.147.221a3.577,3.577,0,0,0,.4.577.451.451,0,0,0,.331.135h.736a1.264,1.264,0,0,1,.933.319,1.145,1.145,0,0,1,.319.884,1.244,1.244,0,0,1-.331.92A1.244,1.244,0,0,1,31.038,0ZM38.5,0a7.253,7.253,0,0,1-1.829-.209,3.274,3.274,0,0,1-1.485-.9A3.893,3.893,0,0,1,32.437,0h-1.4a1.244,1.244,0,0,1-.92-.331,1.244,1.244,0,0,1-.331-.92,1.145,1.145,0,0,1,.319-.884,1.264,1.264,0,0,1,.933-.319h1.4a1.491,1.491,0,0,0,1.1-.479A1.608,1.608,0,0,0,34.008-4.1V-7.977h2.455v3.952a1.53,1.53,0,0,0,.454,1.1,1.5,1.5,0,0,0,1.117.466H38.5a1.229,1.229,0,0,1,.908.319,1.1,1.1,0,0,1,.344.884,1.219,1.219,0,0,1-.344.92A1.253,1.253,0,0,1,38.5,0ZM34.229-11.536h1.939v1.988H34.229ZM55.141,0H51.656a3.81,3.81,0,0,1-2.8-1.154A3.737,3.737,0,0,1,46.035,0a3.831,3.831,0,0,1-1.51-.307,4.033,4.033,0,0,1-1.289-.871A3.879,3.879,0,0,1,40.39,0H38.5a1.253,1.253,0,0,1-.908-.331,1.219,1.219,0,0,1-.344-.92,1.1,1.1,0,0,1,.344-.884,1.229,1.229,0,0,1,.908-.319h1.89a1.578,1.578,0,0,0,1.166-.454,1.518,1.518,0,0,0,.454-1.117V-7.462h2.455v3.731a1.125,1.125,0,0,0,.184.687,1.306,1.306,0,0,0,.442.38,1.6,1.6,0,0,0,.54.172,3.683,3.683,0,0,0,.454.037,1.478,1.478,0,0,0,1.1-.454A1.76,1.76,0,0,0,47.68-4.05V-7.462H50.06l.025,3.608a1.4,1.4,0,0,0,.368,1.019,1.335,1.335,0,0,0,1.006.38h1.227v-5.6h2.455Z" transform="translate(60.036 75.145)" fill="#bac4ce" stroke="rgba(0,0,0,0)" stroke-width="1"/>
</svg>
