<svg width="41" height="41" viewBox="0 0 41 41" fill="none" xmlns="http://www.w3.org/2000/svg">
<path d="M20.4999 13.7488C24.0164 13.7488 25.9944 11.7708 25.9944 8.25428C25.9944 4.73779 24.0164 2.75977 20.4999 2.75977C16.9834 2.75977 15.0054 4.73779 15.0054 8.25428C15.0054 11.7708 16.9834 13.7488 20.4999 13.7488Z" fill="white"/>
<path d="M20.5001 37.6162C18.9992 37.6162 17.8285 37.114 16.8857 36.2492C15.9238 35.367 15.1636 34.0728 14.5834 32.4503C13.4818 29.3698 13.1016 25.3164 13.0638 21.3016C15.9507 20.6631 18.2349 20.3455 20.5017 20.3417C22.7683 20.3379 25.052 20.6478 27.9363 21.2983C27.8988 25.3142 27.5186 29.3689 26.4168 32.4503C25.8366 34.0728 25.0763 35.367 24.1145 36.2492C23.1717 37.114 22.001 37.6162 20.5001 37.6162Z" fill="#72E492" stroke="black" stroke-width="1.71455"/>
<path d="M20.4999 13.7488C24.0164 13.7488 25.9944 11.7708 25.9944 8.25428C25.9944 4.73779 24.0164 2.75977 20.4999 2.75977C16.9834 2.75977 15.0054 4.73779 15.0054 8.25428C15.0054 11.7708 16.9834 13.7488 20.4999 13.7488Z" stroke="black" stroke-width="1.71455" stroke-linecap="round" stroke-linejoin="round"/>
</svg>
