<svg width="24" height="25" viewBox="0 0 24 25" fill="none" xmlns="http://www.w3.org/2000/svg">
<path d="M11.9996 16.4672C14.4306 16.4672 16.3996 14.4982 16.3996 12.0672V6.0172C16.3996 3.58619 14.4306 1.61719 11.9996 1.61719C9.56861 1.61719 7.59961 3.58619 7.59961 6.0172V12.0672C7.59961 14.4982 9.56861 16.4672 11.9996 16.4672Z" stroke="#344054" stroke-width="1.5" stroke-linecap="round" stroke-linejoin="round"/>
<path d="M3.58447 10.0312V11.9013C3.58447 16.5433 7.35748 20.3163 11.9995 20.3163C16.6415 20.3163 20.4145 16.5433 20.4145 11.9013V10.0312" stroke="#344054" stroke-width="1.5" stroke-linecap="round" stroke-linejoin="round"/>
<path d="M10.4702 6.491C11.4602 6.128 12.5382 6.128 13.5282 6.491" stroke="#344054" stroke-width="1.5" stroke-linecap="round" stroke-linejoin="round"/>
<path d="M11.1191 8.82253C11.7021 8.66853 12.3071 8.66853 12.8901 8.82253" stroke="#344054" stroke-width="1.5" stroke-linecap="round" stroke-linejoin="round"/>
<path d="M12 20.3164V23.6164" stroke="#344054" stroke-width="1.5" stroke-linecap="round" stroke-linejoin="round"/>
</svg>
