<svg width="41" height="41" viewBox="0 0 41 41" fill="none" xmlns="http://www.w3.org/2000/svg">
<path d="M19.7013 1.47446H21.2987C24.6732 1.47446 27.1525 1.47513 29.1105 1.63511C31.0585 1.79427 32.4149 2.10683 33.5574 2.68895C35.654 3.75724 37.3587 5.46186 38.427 7.5585C39.0091 8.70097 39.3216 10.0574 39.4808 12.0054C39.6408 13.9634 39.6414 16.4427 39.6414 19.8172V21.4146C39.6414 24.789 39.6408 27.2683 39.4808 29.2263C39.3216 31.1743 39.0091 32.5308 38.427 33.6733C37.3587 35.7699 35.654 37.4745 33.5574 38.5428C32.4149 39.1249 31.0585 39.4375 29.1105 39.5966C27.1525 39.7566 24.6732 39.7573 21.2987 39.7573H19.7014C16.3269 39.7573 13.8476 39.7566 11.8896 39.5966C9.94157 39.4375 8.58513 39.1249 7.44265 38.5428C5.34601 37.4745 3.64139 35.7699 2.5731 33.6733C1.99098 32.5308 1.67842 31.1743 1.51926 29.2263C1.35929 27.2683 1.35862 24.789 1.35862 21.4146V19.8172C1.35862 16.4427 1.35929 13.9634 1.51926 12.0054C1.67842 10.0574 1.99098 8.70097 2.5731 7.5585C3.64139 5.46186 5.34601 3.75724 7.44265 2.68895C8.58513 2.10683 9.94157 1.79427 11.8896 1.63511C13.8476 1.47513 16.3269 1.47446 19.7013 1.47446Z" stroke="black" stroke-width="1.71455" stroke-linecap="round" stroke-linejoin="round"/>
<g clip-path="url(#clip0_4165_15294)">
<path d="M16.2794 9.56445H25.7075C26.0391 9.60115 26.3741 9.61756 26.7031 9.67888C28.0551 9.91506 29.3141 10.6271 30.2239 11.653C31.2023 12.7407 31.7749 14.1876 31.7878 15.6517C31.7887 16.7891 31.7878 17.9264 31.7883 19.0637C31.0918 19.4609 30.5175 20.0313 29.9566 20.5957C28.8608 21.7157 27.8305 22.9074 26.6155 23.9036C25.8094 24.5659 24.9156 25.1475 23.9164 25.4701C23.0753 25.7447 22.1651 25.8069 21.2968 25.6333C21.055 25.5893 20.8205 25.5176 20.5843 25.452C20.3978 25.7749 20.2959 26.1368 20.2087 26.4969C20.1098 26.9183 20.0498 27.3492 20.0446 27.7823C19.2799 27.6869 18.5899 27.259 18.0601 26.7136C17.3723 26.0111 16.9409 25.0292 17.0105 24.0366C16.4392 23.5715 15.9314 22.9891 15.7039 22.2766C15.4953 21.6471 15.5372 20.9532 15.7596 20.3336C16.0338 19.5646 16.5333 18.8957 17.1111 18.3275C18.1029 17.3599 19.3304 16.6444 20.6418 16.2053C21.7251 15.8517 22.9013 15.6802 24.0269 15.9255C24.8357 16.0991 25.5956 16.5404 26.0982 17.2036C26.2152 17.3659 26.3517 17.5266 26.4009 17.7252C26.4549 17.9661 26.3452 18.2083 26.1984 18.3949C25.9471 18.7096 25.6073 18.9389 25.2597 19.1349C24.527 19.5369 23.7238 19.799 22.9056 19.9592C22.2294 20.0836 21.5299 20.1423 20.8486 20.024C20.3801 19.9372 19.8857 19.7403 19.6202 19.3215C19.3632 18.9204 19.3857 18.4113 19.5031 17.967C18.9565 18.1466 18.5204 18.5719 18.2402 19.0646C17.969 19.5443 17.8438 20.125 17.982 20.6665C18.0912 21.1151 18.3783 21.5033 18.7346 21.7904C18.2967 22.2883 17.972 22.8988 17.8688 23.5581C17.7631 24.2041 17.8801 24.8807 18.1871 25.458C18.472 26.0029 18.9159 26.458 19.4371 26.7814C19.4906 25.9753 19.7523 25.1726 20.2536 24.5323C20.7048 23.9416 21.3145 23.4951 21.9522 23.1246C23.2091 22.3992 24.5939 21.9247 25.843 21.1846C26.7079 20.6635 27.3884 19.8487 27.7468 18.9044C28.0356 18.1591 28.1488 17.3538 28.1358 16.5572C28.1272 15.9255 28.0469 15.2882 27.8288 14.6923C27.4808 13.7083 26.7714 12.8637 25.8728 12.3352C24.8452 11.7238 23.6077 11.5045 22.4268 11.6513C21.6565 11.7376 20.9181 11.9993 20.2195 12.3266C18.479 13.1461 16.9975 14.4553 15.8511 15.9903C14.6477 17.6073 13.7811 19.4899 13.421 21.4774C13.1451 23.0201 13.1931 24.6601 13.8019 26.1208C14.2535 27.2188 15.0527 28.1674 16.0584 28.7991C18.0524 30.05 20.6258 30.3402 22.84 29.5302C24.1431 29.0638 25.2623 28.2011 26.2364 27.2348C27.4061 26.0685 28.378 24.7266 29.3439 23.3923C29.828 22.7287 30.3072 22.0594 30.8522 21.4437C31.1337 21.1311 31.4355 20.8319 31.7883 20.5991C31.787 22.3042 31.7904 24.0094 31.7865 25.7145C31.7438 27.281 31.0624 28.8147 29.9389 29.9058C28.8897 30.9499 27.4532 31.5811 25.9773 31.6718H16.0985C14.4016 31.5962 12.7587 30.7763 11.6727 29.4714C10.7492 28.3846 10.231 26.9688 10.2215 25.5435C10.2207 22.2757 10.2215 19.0076 10.2215 15.7398C10.2276 14.476 10.6257 13.2165 11.3632 12.1888C12.2764 10.8965 13.7004 9.97378 15.2587 9.68881C15.5955 9.61972 15.9396 9.60763 16.2794 9.56445Z" fill="#00A754"/>
</g>
<defs>
<clipPath id="clip0_4165_15294">
<rect width="22.1073" height="22.1073" fill="white" transform="translate(9.94647 9.56445)"/>
</clipPath>
</defs>
</svg>
