<svg width="104" height="35" viewBox="0 0 104 35" fill="none" xmlns="http://www.w3.org/2000/svg">
<path d="M77.8306 34.2075C77.4179 33.4769 77.4179 33.0332 78.0525 32.7479C78.9747 32.3352 79.7033 31.8905 80.2428 31.034L80.7826 32.1445C80.8483 32.2717 80.8783 32.4142 80.8691 32.5571C80.9593 32.4808 81.0603 32.4186 81.169 32.3725C82.0889 31.9598 82.8184 31.5145 83.3593 30.6585L83.8991 31.7696C84.2481 32.4676 83.4865 33.1025 82.9467 33.4515C82.3907 33.8082 81.7619 34.0356 81.1065 34.118L80.9468 33.8298C80.8025 33.6025 80.7063 33.3482 80.6641 33.0823C80.4342 33.3786 80.152 33.6302 79.8314 33.8247C79.2754 34.1823 78.6461 34.4104 77.9901 34.4917L77.8306 34.2075ZM96.7173 33.9193C96.3046 33.1893 96.3046 32.7439 96.9403 32.4597C97.8602 32.047 98.5897 31.6023 99.1306 30.7463L99.6704 31.8569C100.019 32.5549 99.2577 33.1898 98.7179 33.5388C98.1619 33.8954 97.5332 34.1234 96.8778 34.2058L96.7173 33.9193ZM21.721 24.2891C21.721 21.3694 23.0213 17.9098 25.6242 14.387C26.4807 14.8003 26.3222 15.498 25.6242 16.7049C24.1009 19.3393 23.434 21.4025 23.3703 23.1149C23.3703 25.6547 24.9897 26.6379 27.0517 26.6379C30.2255 26.6379 32.1939 24.702 33.1463 22.4175C31.8142 22.8507 30.4207 23.0646 29.0201 23.0513C28.0042 23.0513 27.2113 22.8295 27.2113 22.1952C27.2009 22.1952 27.1905 22.1952 27.1802 22.1952C27.2113 20.0372 29.4653 17.7506 31.9089 16.3869C34.0668 15.1491 35.4954 13.8474 36.6698 9.91158C37.3038 7.75418 38.8912 5.31065 41.0817 5.31065C42.478 5.31065 43.3342 6.16675 43.3342 7.30885C43.33 7.66861 43.2418 8.02263 43.0767 8.34229C42.9116 8.66195 42.674 8.93832 42.3831 9.15001C42.2249 8.35749 41.5903 8.0085 40.8283 8.0085C38.987 8.0085 38.0361 9.68976 37.5597 11.1809C36.5438 14.4507 35.0201 16.8944 32.2281 18.2601C29.8794 19.4016 29.4667 19.9415 28.9906 20.8628C28.9906 20.8706 28.9906 20.8776 28.9906 20.8854L29.0217 20.8628C31.0294 20.8269 33.0116 20.4062 34.8611 19.6245C35.5917 19.3392 35.9406 19.625 35.9406 20.1322C35.9406 20.8628 35.4009 21.148 34.8934 22.2267C32.5757 27.1473 30.069 29.1776 26.5147 29.1776C23.4342 29.1773 21.721 27.3358 21.721 24.2891ZM47.7132 28.4144C47.7132 27.7483 48.0949 26.7325 49.7453 26.7325C54.7919 26.7325 59.044 25.3364 62.0271 23.1459C65.0102 20.9553 66.7569 18.0051 66.7569 14.8001C66.7569 14.2367 66.7365 13.6722 66.706 13.1171C64.1748 12.4102 62.466 11.0253 62.466 8.54661C62.4785 7.62578 62.6841 6.7178 63.0695 5.88141C63.926 5.91224 63.9572 6.485 63.8623 7.24525C63.7315 8.27524 64.3618 9.45862 66.5017 10.2566C66.4651 9.72404 66.4393 9.23332 66.4393 8.80103C66.4393 4.67471 67.8682 1.81831 69.2953 0.136719C70.3426 0.422604 69.7717 1.46955 69.3279 2.51655C68.5336 4.32552 68.2172 6.83272 68.3431 8.99184C68.3802 9.61664 68.4052 10.2126 68.4181 10.779C69.3455 10.9516 70.2829 11.0647 71.2247 11.1178C71.2226 10.9411 71.2216 10.7617 71.2216 10.5797C71.2216 7.72258 72.2364 4.55005 74.1099 2.35951C74.2841 2.40645 74.4377 2.51012 74.5467 2.65389C74.6556 2.79766 74.7138 2.97333 74.7119 3.15372C74.7119 3.62866 74.4263 4.04135 74.141 4.73877C73.2827 6.66965 73.0916 8.9647 73.0576 11.1797C73.1754 11.1809 73.2946 11.1814 73.4153 11.1814C78.9053 11.1814 84.4916 10.3254 88.998 8.67438C93.5045 7.02334 96.9654 4.61075 98.202 1.43921C98.6147 0.39048 98.9961 0.105509 99.7583 0.200323C99.5828 2.11384 98.8302 3.9288 97.6003 5.40521C95.41 7.97588 91.8235 10.0703 87.4116 11.4989C83.1651 12.9044 78.2105 13.6914 73.0597 13.747C73.0597 13.9199 73.0611 14.0903 73.0611 14.2592C73.0611 17.2746 72.7121 20.5742 71.8556 23.2714C71.125 25.5893 69.4757 28.6992 66.6508 28.6992C66.3511 28.7069 66.0536 28.6484 65.7792 28.5275C65.5049 28.4066 65.2606 28.2265 65.0641 28.0001C69.4123 25.8421 71.3484 22.3826 71.3484 15.5274C71.3484 14.9611 71.3285 14.3644 71.3042 13.7318C70.3261 13.7045 69.3506 13.6177 68.3829 13.4723C68.2521 15.8588 67.8483 17.6574 67.2321 19.1782C65.9717 22.0573 63.8985 24.5061 61.2667 26.2242C58.4333 28.0272 55.1355 28.9649 51.7773 28.9221C50.4081 28.9023 49.0452 28.7321 47.7132 28.4144ZM44.8573 28.8596C45.3586 27.6254 45.9637 26.4359 46.666 25.3039C46.3025 25.0865 45.989 24.7948 45.7461 24.4478C44.3498 26.8597 42.6993 28.4144 40.5725 28.4144C38.2563 28.4144 37.0821 26.416 37.0818 23.5281C37.0818 20.6072 38.3834 17.1477 40.9863 13.626C41.8428 14.0387 41.6843 14.737 40.9863 15.9422C39.4629 18.5766 38.796 20.6397 38.7323 22.3539C38.7323 24.5119 39.4617 25.8769 41.1759 25.8769C42.7304 25.8769 43.5246 25.1788 44.5082 23.7189C44.8898 23.1465 45.2389 22.5126 45.8735 22.5126C46.5043 22.951 47.2351 23.2241 47.9989 23.3068C51.4906 18.4825 56.5682 13.8483 60.3766 13.8483C61.2988 13.8483 61.9 14.2287 61.9 15.2775C61.9 18.1334 60.3767 20.8309 58.0916 22.8307C55.8066 24.8304 52.7601 26.0993 49.7453 26.0993C49.0106 26.1183 48.2786 25.9999 47.5873 25.7503C47.2057 26.3843 46.7934 27.0183 46.4441 27.7186C46.0902 28.3705 45.8302 28.9069 45.2028 28.9069C45.0861 28.9052 44.9702 28.8893 44.8573 28.8596ZM49.2378 23.4639C49.5548 23.4639 49.9046 23.4965 50.2225 23.4965C55.5221 23.4965 59.9026 19.2424 60.3141 16.2265C56.7913 16.672 52.6324 19.1793 49.2366 23.4639H49.2378ZM76.7073 23.8129C76.7073 20.8932 78.0088 17.4336 80.6118 13.9108C81.4683 14.3241 81.3098 15.0218 80.6118 16.2287C79.0884 18.8625 78.4214 20.9263 78.3577 22.6387C78.3577 24.7967 79.0883 26.1617 80.8013 26.1617C82.3576 26.1617 83.2135 25.2728 84.0388 24.1618C84.6729 23.3056 85.1495 22.7659 86.0072 22.7659C86.6853 23.2708 87.5108 23.5384 88.3561 23.5275C90.4181 23.5275 92.2903 21.8456 92.7027 20.0692L92.3226 19.8148C91.8267 20.2915 91.1693 20.5641 90.4815 20.5775C89.2134 20.5775 88.1015 19.9749 88.1015 17.753L89.5612 14.897C89.7831 14.4843 90.3229 13.6592 91.3065 13.6592C93.2426 13.6592 94.1307 16.1035 94.1307 17.8177C94.1307 22.1648 91.1152 26.0694 87.7517 26.0694C86.9066 26.0979 86.0846 25.7898 85.4666 25.2127V25.2094C83.7213 27.6538 82.4833 28.7009 80.1985 28.7009C77.8806 28.7009 76.7061 26.7017 76.7061 23.8129H76.7073ZM95.6637 21.1803C95.6637 18.2606 96.9651 14.8011 99.5681 11.2782C100.425 11.6909 100.266 12.3889 99.5681 13.5956C98.0447 16.2299 97.3779 18.2917 97.3142 20.0056C97.3142 22.1636 98.0448 23.5275 99.7578 23.5275C101.314 23.5275 102.17 21.9728 102.455 20.6405C102.646 19.7183 103.059 19.1482 103.853 19.2755C103.567 22.9566 102.106 26.0672 99.1554 26.0672C96.8366 26.0675 95.6625 24.0671 95.6625 21.1803H95.6637ZM0.148438 10.3247C0.160886 9.40334 0.366538 8.49483 0.751979 7.65783C1.60964 7.6904 1.64073 8.2614 1.54591 9.0228C1.32285 10.7684 3.29118 12.9584 11.0989 12.9584C16.5889 12.9584 22.1751 12.1019 26.6819 10.4508C31.1886 8.79977 34.6478 6.38774 35.8858 3.2162C36.2985 2.16747 36.6798 1.88218 37.442 1.97844C37.2666 3.89203 36.5137 5.70696 35.283 7.18277C33.0928 9.75344 29.5073 11.8479 25.0954 13.2764C20.6835 14.7364 15.5113 15.5291 10.1469 15.5291C4.81392 15.5291 0.148438 14.4196 0.148438 10.3247ZM18.2033 6.07109C18.0444 5.82813 17.9464 5.55057 17.9175 5.26168C17.7456 5.42076 17.5596 5.56402 17.3618 5.68947C16.8062 6.0468 16.1774 6.27427 15.5218 6.35591L15.3621 6.07109C14.9494 5.34053 14.9494 4.89631 15.5851 4.611C16.505 4.19831 17.2345 3.75471 17.7754 2.89705L18.3152 4.0076C18.3658 4.1054 18.3955 4.21289 18.4023 4.32281C18.4091 4.43272 18.3928 4.5426 18.3546 4.6459C18.3779 4.63408 18.4021 4.62224 18.4275 4.611C19.3474 4.19831 20.0768 3.75471 20.6178 2.89705L21.1576 4.00816C21.5066 4.70674 20.7449 5.34103 20.2066 5.69003C19.6509 6.04736 19.022 6.27484 18.3664 6.35647L18.2033 6.07109ZM78.235 5.49246C77.8224 4.76305 77.8224 4.31824 78.457 4.03293C79.3792 3.62024 80.1075 3.17607 80.6472 2.31842L81.1869 3.42953C81.2533 3.55782 81.2833 3.70195 81.2734 3.84606C81.3323 3.80846 81.3939 3.7754 81.4576 3.74699C82.3775 3.3343 83.1083 2.8907 83.6478 2.03304L84.1876 3.14359C84.5366 3.84216 83.7749 4.47646 83.2366 4.82545C82.6814 5.18368 82.0522 5.41179 81.3964 5.49246L81.2369 5.20708C81.1041 4.99268 81.0106 4.75635 80.9608 4.50912C80.7484 4.74255 80.5048 4.94554 80.237 5.11252C79.681 5.46962 79.0518 5.69693 78.3959 5.77784L78.235 5.49246ZM87.7145 4.23331C87.3018 3.50448 87.3019 3.05909 87.9365 2.77378C88.8587 2.36109 89.5871 1.91577 90.1266 1.05927L90.6664 2.17038C90.7328 2.29867 90.7628 2.4428 90.7529 2.58691C90.8117 2.5493 90.8731 2.51641 90.937 2.4884C91.8569 2.07514 92.5875 1.63155 93.1273 0.773892L93.6671 1.885C94.0161 2.583 93.2544 3.21731 92.7161 3.56631C92.1609 3.92453 91.5317 4.15265 90.8759 4.23331L90.7177 3.94794C90.5845 3.73348 90.4907 3.49694 90.4408 3.24941C90.2287 3.48365 89.985 3.68722 89.7168 3.8545C89.1611 4.21141 88.5323 4.43871 87.8768 4.51981L87.7145 4.23331Z" fill="white"/>
<path d="M26.5126 28.0243C27.4059 28.0243 28.1992 27.8791 28.9282 27.5757C28.3318 27.7175 27.7043 27.7907 27.0511 27.7907C25.3801 27.7907 24.0638 27.2284 23.2295 26.2259C23.3739 26.5535 23.562 26.8378 23.7907 27.0742C24.4 27.7046 25.3158 28.0243 26.5126 28.0243ZM52.3391 27.762C53.8039 27.7175 55.2244 27.498 56.5688 27.1091C57.5905 26.8135 58.5668 26.4201 59.4847 25.9355C57.3477 26.8918 54.9227 27.5132 52.3391 27.762ZM80.1976 27.5481C80.9087 27.5481 81.464 27.4321 81.9735 27.1693C81.6168 27.2627 81.2277 27.3145 80.7998 27.3145C80.1886 27.3145 79.1193 27.1687 78.3051 26.2805C78.3746 26.4302 78.452 26.5681 78.537 26.6937C78.7271 26.974 78.9559 27.1867 79.217 27.3263C79.4929 27.4732 79.8229 27.5481 80.1976 27.5481ZM40.5721 27.2616C41.0042 27.2616 41.4183 27.1732 41.8221 26.9931C41.6173 27.0167 41.4021 27.0291 41.1755 27.0291C40.5643 27.0291 39.4953 26.8839 38.6811 25.9951C38.7506 26.1449 38.8277 26.2822 38.9127 26.4077C39.1027 26.688 39.3312 26.9008 39.5921 27.0398C39.8679 27.1867 40.1976 27.2616 40.5721 27.2616ZM49.7448 24.9454C51.075 24.9454 52.4276 24.6752 53.7648 24.1427C54.0236 24.0397 54.2801 23.9266 54.5333 23.805C53.1406 24.3583 51.6764 24.6493 50.221 24.6493C50.0338 24.6493 49.85 24.6403 49.6723 24.6319C49.5153 24.624 49.367 24.6167 49.2362 24.6167H47.8551L48.0042 24.6746C48.4734 24.857 49.0427 24.9454 49.7448 24.9454ZM99.154 24.9144C99.5875 24.9144 99.9811 24.8199 100.339 24.6285C100.149 24.6628 99.9544 24.6803 99.7561 24.6803C99.1448 24.6803 98.0754 24.5345 97.2612 23.6457C97.3308 23.796 97.4082 23.9339 97.4933 24.06C97.6834 24.3403 97.9123 24.553 98.1733 24.6926C98.4492 24.8396 98.7792 24.9144 99.154 24.9144ZM87.751 24.9144C88.2158 24.9144 88.6828 24.8137 89.1448 24.6144C88.8829 24.6577 88.6187 24.6803 88.3544 24.6803C87.8291 24.6803 87.3195 24.6054 86.8376 24.459L86.7729 24.7225C87.0547 24.8525 87.3758 24.9144 87.751 24.9144ZM85.8822 24.056C85.8379 24.0313 85.794 24.0065 85.7505 23.9806C85.7162 23.9997 85.68 24.0239 85.6408 24.056H85.8822ZM90.4798 19.423C90.9722 19.423 91.3544 19.1376 91.5383 18.9677L92.2061 18.3496L92.9153 18.8241C92.9563 18.4892 92.9773 18.1521 92.9773 17.8155C92.9773 17.0753 92.771 16.249 92.4389 15.6585C92.2768 15.3703 92.0869 15.1429 91.8898 15.0011C91.7083 14.8705 91.5225 14.8097 91.3051 14.8097C91.2058 14.8097 91.0823 14.8294 90.9193 14.9769C90.7991 15.0855 90.6851 15.2381 90.5801 15.4311L89.2596 18.0147C89.2896 18.5652 89.4154 18.9716 89.6217 19.1742C89.7897 19.3392 90.0785 19.423 90.4798 19.423ZM58.2573 15.4919C58.9008 15.3 59.5395 15.1626 60.1681 15.0833L60.6486 15.0225C60.5908 15.0107 60.5033 15 60.3762 15C59.7494 15 59.0384 15.1654 58.2573 15.4919ZM10.1455 14.3763C14.1757 14.3763 18.1089 13.9215 21.6929 13.0496C18.3761 13.7431 14.7557 14.1112 11.0979 14.1112C6.57505 14.1112 3.43661 13.3975 1.75024 11.9875C1.78922 12.0477 1.83087 12.1068 1.87506 12.1642C2.25064 12.655 2.83195 13.0716 3.60294 13.4036C5.10187 14.0493 7.30313 14.3763 10.1455 14.3763ZM72.0999 12.6061L73.0465 12.5954C76.864 12.5531 80.5912 12.1012 83.9951 11.2754C80.6823 11.9666 77.0672 12.3336 73.4147 12.3336C73.2909 12.3336 73.1669 12.3331 73.0461 12.3319L72.3912 12.3257L72.3913 12.3449L72.0322 12.3224L71.8867 12.3207L71.8868 12.3134L71.152 12.2672C70.0703 12.1997 69.0765 12.0792 68.1984 11.9098L67.7646 11.8259L67.7739 11.9621L66.0979 11.3368C65.2207 11.0097 64.5638 10.6242 64.074 10.2172C64.1808 10.3816 64.3066 10.5364 64.4518 10.6816C65.0119 11.2422 65.8743 11.688 67.0156 12.0072L67.7194 12.2036L68.5604 12.3353C69.3864 12.4642 70.3222 12.547 71.3417 12.5807L72.0999 12.6061ZM42.1678 7.14562C42.1402 6.97676 42.0676 6.83773 41.9511 6.73078C41.7634 6.55854 41.4542 6.46342 41.0807 6.46342C40.755 6.46342 40.4415 6.55066 40.1222 6.73078C39.9827 6.80902 39.8444 6.90415 39.7078 7.0156C40.0621 6.90978 40.4357 6.85574 40.8263 6.85574C41.3271 6.85574 41.7805 6.95706 42.1678 7.14562ZM77.9886 34.4928L77.8302 34.2075C77.4176 33.4768 77.4176 33.0333 78.0521 32.7479C78.9734 32.3353 79.7027 31.8901 80.2425 31.0334L80.7823 32.1445C80.8527 32.2852 80.8779 32.4231 80.8689 32.5571C80.946 32.489 81.0453 32.4277 81.1687 32.3725C82.0888 31.9599 82.8181 31.5147 83.3579 30.6585L83.8977 31.7691C84.2467 32.4671 83.485 33.102 82.9452 33.451C82.4054 33.7999 81.8032 34.0217 81.1051 34.118L80.9456 33.8309C80.7804 33.5388 80.6813 33.2922 80.6627 33.0834C80.4494 33.3873 80.1098 33.6451 79.8298 33.8258C79.29 34.1754 78.6867 34.3983 77.9886 34.4928ZM96.8763 34.2052L96.7167 33.9193C96.3041 33.1892 96.3041 32.744 96.9399 32.4597C97.8599 32.0471 98.5892 31.6019 99.129 30.7458L99.6688 31.8563C100.018 32.5543 99.2561 33.1892 98.7163 33.5382C98.1765 33.8872 97.5744 34.109 96.8763 34.2052ZM26.5126 29.1771C23.4334 29.1771 21.7204 27.3359 21.7204 24.2891C21.7204 21.3694 23.0207 17.91 25.6237 14.387C26.4801 14.8001 26.3218 15.4981 25.6237 16.7049C24.1003 19.3392 23.4334 21.4021 23.3698 23.1149C23.3698 25.6546 24.9892 26.6379 27.0511 26.6379C30.225 26.6379 32.1934 24.7016 33.1459 22.4169C31.9391 22.8295 30.5105 23.0513 29.0195 23.0513C28.0035 23.0513 27.2107 22.8295 27.2107 22.1952V22.1946C27.2004 22.1952 27.19 22.1952 27.1795 22.1952C27.2107 20.0371 29.4646 17.7507 31.908 16.3869C34.0659 15.1491 35.4945 13.8472 36.6688 9.91158C37.3034 7.75409 38.8903 5.31065 41.0807 5.31065C42.477 5.31065 43.3334 6.16678 43.3334 7.30885C43.3334 7.9449 43.0479 8.64286 42.381 9.15001C42.2227 8.35749 41.588 8.00851 40.8263 8.00851C38.9852 8.00851 38.0339 9.68981 37.5577 11.1809C36.5417 14.4506 35.0183 16.894 32.2259 18.2596C29.8772 19.4011 29.4646 19.9409 28.9884 20.8623C28.9884 20.8702 28.9883 20.8775 28.9883 20.8854L29.0195 20.8623C30.7972 20.8623 32.7008 20.4807 34.8587 19.6245C35.5891 19.3397 35.9383 19.6245 35.9383 20.1317C35.9383 20.8623 35.3985 21.1477 34.8911 22.2261C32.5736 27.1468 30.0667 29.1771 26.5126 29.1771ZM51.7756 28.9232C50.3469 28.9232 49.2686 28.7324 47.7128 28.4144C47.7128 27.7485 48.0943 26.7325 49.7448 26.7325C54.7912 26.7325 59.0434 25.3366 62.0267 23.1459C65.0099 20.9569 66.7564 18.0051 66.7564 14.8001C66.7564 14.2367 66.736 13.6721 66.7054 13.1171C64.1743 12.4102 62.4654 11.0255 62.4654 8.54661C62.4654 7.75409 62.6563 6.76906 63.0688 5.88141C63.9253 5.91236 63.9565 6.48481 63.8616 7.24525C63.7309 8.27531 64.3612 9.45847 66.5008 10.2566C66.4641 9.72414 66.4385 9.23332 66.4385 8.80103C66.4385 4.67461 67.8672 1.81858 69.2945 0.136719C70.3417 0.422659 69.7708 1.4696 69.327 2.51655C68.5328 4.32562 68.2162 6.83266 68.3421 8.99185C68.3793 9.61664 68.404 10.211 68.4171 10.7778C69.2212 10.9332 70.1519 11.0497 71.2239 11.1167C71.2218 10.94 71.2206 10.7604 71.2206 10.5786C71.2206 7.72144 72.2354 4.54908 74.109 2.35838C74.5529 2.48559 74.7112 2.86609 74.7112 3.1526C74.7112 3.62766 74.4257 4.04025 74.1403 4.73821C73.2822 6.66999 73.0909 8.96426 73.057 11.1792C73.1748 11.1803 73.2941 11.1809 73.4147 11.1809C78.9049 11.1809 84.491 10.3247 88.9976 8.67382C93.5043 7.02348 96.9648 4.611 98.2016 1.43865C98.6142 0.390012 98.9952 0.104635 99.7574 0.200323C99.6301 1.85123 98.932 3.81847 97.5994 5.40522C95.409 7.97586 91.8225 10.0703 87.4106 11.4989C83.164 12.9044 78.2096 13.6913 73.0591 13.7481C73.06 13.9204 73.0607 14.0915 73.0607 14.2603C73.0607 17.2757 72.7116 20.5758 71.8552 23.2731C71.1245 25.591 69.4753 28.7009 66.6504 28.7009C66.0782 28.7009 65.5072 28.5106 65.0635 28.0018C69.4117 25.8437 71.3477 22.3843 71.3477 15.5291C71.3477 14.9628 71.3277 14.3656 71.3035 13.7329C70.2829 13.6992 69.2991 13.6175 68.3821 13.474C68.2514 15.8606 67.8475 17.6595 67.2314 19.1793C65.9312 22.0989 63.8991 24.5114 61.265 26.2253C58.6309 27.9382 55.3934 28.9232 51.7756 28.9232ZM45.2025 28.9057C45.0981 28.9057 44.9836 28.8911 44.8568 28.8596C45.3006 27.7485 45.904 26.5434 46.6656 25.3039C46.253 25.0512 45.9364 24.7343 45.7456 24.4478C44.3494 26.8597 42.6989 28.4144 40.5721 28.4144C38.256 28.4144 37.0817 26.4162 37.0815 23.5281L37.0803 23.5275C37.0803 20.6067 38.3818 17.1473 40.9848 13.6254C41.8412 14.038 41.6829 14.7365 40.9848 15.9416C39.4614 18.5759 38.7944 20.6394 38.7308 22.3533H38.732C38.732 24.5114 39.4614 25.8764 41.1755 25.8764C42.73 25.8764 43.5242 25.1784 44.5077 23.7183C44.8891 23.1459 45.2383 22.5115 45.8728 22.5115C46.3802 22.9241 47.1743 23.1785 47.9983 23.3057C51.4901 18.4813 56.5676 13.8472 60.3762 13.8472C61.2973 13.8472 61.8995 14.2277 61.8995 15.2763C61.8995 18.1323 60.3762 20.8296 58.0911 22.8295C55.8059 24.8289 52.7592 26.0981 49.7448 26.0981C48.856 26.0981 48.1579 25.9709 47.5869 25.7492C47.2054 26.3835 46.7928 27.0184 46.4437 27.7175C46.0899 28.3693 45.8297 28.9057 45.2025 28.9057ZM60.3126 16.227C56.7908 16.6723 52.632 19.1793 49.2362 23.4639C49.5541 23.4639 49.9031 23.4965 50.221 23.4965C55.5204 23.4965 59.9011 19.2429 60.3126 16.227ZM80.1976 28.7009C77.8801 28.7009 76.7059 26.7015 76.7059 23.8129C76.7059 20.8932 78.0072 17.4338 80.6102 13.9108C81.4666 14.3239 81.3083 15.0219 80.6102 16.2287C79.0868 18.8624 78.42 20.9259 78.3563 22.6387C78.3563 24.7968 79.0868 26.1617 80.7998 26.1617C82.3556 26.1617 83.212 25.273 84.0373 24.1619C84.6718 23.3057 85.148 22.7659 86.0056 22.7659C86.6403 23.2421 87.4331 23.5275 88.3544 23.5275C90.4163 23.5275 92.2887 21.8456 92.7013 20.0681L92.3211 19.8137C91.9085 20.1953 91.274 20.5758 90.4798 20.5758C89.2108 20.5758 88.1 19.9735 88.1 17.7507L89.5598 14.8947C89.7817 14.4821 90.3215 13.6569 91.3051 13.6569C93.2411 13.6569 94.13 16.1015 94.13 17.8155C94.13 22.1625 91.1144 26.0672 87.751 26.0672C86.735 26.0672 86.0057 25.7182 85.4659 25.2105L85.4663 25.2088L85.4659 25.2094C83.7207 27.6539 82.4826 28.7009 80.1976 28.7009ZM99.154 26.0672C96.8365 26.0672 95.6622 24.0673 95.6622 21.1803L95.6629 21.1792H95.6622C95.6622 18.2596 96.9637 14.8001 99.5665 11.2771C100.423 11.6897 100.265 12.3877 99.5665 13.5945C98.0431 16.2287 97.3763 18.2905 97.3127 20.0045L97.3125 20.0056C97.3125 22.1637 98.0431 23.5275 99.7561 23.5275C101.312 23.5275 102.168 21.9728 102.454 20.6405C102.645 19.7191 103.057 19.1489 103.851 19.2755C103.566 22.9567 102.105 26.0672 99.154 26.0672ZM10.1455 15.5291C4.81368 15.5291 0.147461 14.4196 0.147461 10.3247C0.147461 9.53164 0.338134 8.54661 0.750861 7.65784C1.60854 7.69048 1.63964 8.26124 1.54494 9.0228C1.32176 10.7683 3.29026 12.9584 11.0979 12.9584C16.588 12.9584 22.1742 12.1023 26.6809 10.4514C31.1874 8.80103 34.6468 6.38912 35.8847 3.2162C36.2482 2.29252 36.5876 1.96099 37.184 1.96099C37.2646 1.96099 37.3497 1.96718 37.4405 1.97844C37.3134 3.62879 36.6153 5.59603 35.2813 7.18277C33.0923 9.75341 29.5057 11.8479 25.0939 13.2764C20.6821 14.7365 15.5097 15.5291 10.1455 15.5291ZM18.362 6.35647L18.2025 6.07109C18.0208 5.74913 17.9192 5.48345 17.9165 5.26168C17.7388 5.42998 17.538 5.5752 17.361 5.68947C16.8212 6.03845 16.219 6.26191 15.5209 6.35647L15.3614 6.07109C14.9488 5.34049 14.9488 4.89638 15.5845 4.611C16.5046 4.19841 17.2338 3.75487 17.7736 2.89705L18.3134 4.0076C18.4242 4.22937 18.4231 4.44439 18.3528 4.6459C18.3761 4.63408 18.4003 4.62226 18.4257 4.611C19.3457 4.19841 20.0749 3.75487 20.6147 2.89705L21.1545 4.0076C21.5036 4.70613 20.7419 5.34048 20.2021 5.68947C19.6623 6.03845 19.0602 6.26191 18.362 6.35647ZM78.3925 5.77784L78.2342 5.49246C77.8215 4.76298 77.8215 4.31831 78.4561 4.03293C79.3774 3.62034 80.1066 3.17624 80.6464 2.31842L81.1862 3.42953C81.2573 3.57137 81.2823 3.71097 81.2726 3.84606C81.3266 3.81116 81.388 3.77795 81.4566 3.74699C82.3767 3.3344 83.1073 2.89086 83.6458 2.03304L84.1856 3.14359C84.5347 3.84212 83.773 4.47647 83.2332 4.82546C82.6947 5.17613 82.0913 5.3979 81.3932 5.49246L81.2336 5.20708C81.0818 4.93747 80.9861 4.70669 80.9575 4.50912C80.748 4.75228 80.4697 4.95998 80.2338 5.11252C79.694 5.4615 79.0919 5.68327 78.3925 5.77784ZM87.8731 4.51869L87.7135 4.23331C87.301 3.50439 87.301 3.05916 87.9355 2.77378C88.8568 2.3612 89.5861 1.91596 90.1257 1.05927L90.6655 2.17038C90.7366 2.31223 90.7617 2.45182 90.7519 2.58691C90.8061 2.55201 90.8673 2.5188 90.9361 2.4884C91.8562 2.07526 92.5866 1.63171 93.1252 0.773892L93.6649 1.885C94.0141 2.58297 93.2524 3.21733 92.7126 3.56631C92.174 3.91698 91.5706 4.13875 90.8725 4.23331L90.7142 3.94794C90.5618 3.67832 90.4659 3.44754 90.4372 3.24941C90.2278 3.49313 89.9492 3.70083 89.7132 3.85337C89.1734 4.20235 88.5712 4.42413 87.8731 4.51869Z" fill="url(#paint0_linear_343_13415)"/>
<defs>
<linearGradient id="paint0_linear_343_13415" x1="0.147461" y1="17.3148" x2="103.851" y2="17.3148" gradientUnits="userSpaceOnUse">
<stop stop-color="#04C07C"/>
<stop offset="1" stop-color="#0B6E4A"/>
</linearGradient>
</defs>
</svg>
