<svg width="36" height="33" viewBox="0 0 36 33" fill="none" xmlns="http://www.w3.org/2000/svg">
<path d="M10.7818 32.1991C11.668 32.622 12.8603 32.1164 13.1151 31.1489C13.4867 31.1346 13.8584 31.1228 14.2292 31.0941C14.4318 31.5322 14.7799 31.918 15.2466 32.0716C15.54 32.1814 15.857 32.1653 16.1648 32.1484C16.6239 32.0235 17.0527 31.7491 17.3024 31.3355C17.4412 31.1101 17.4849 30.8442 17.5395 30.5893C17.896 30.5251 18.2492 30.4457 18.5998 30.3546C18.9479 30.8737 19.5516 31.2393 20.1881 31.1776C21.0752 31.1236 21.8622 30.3039 21.7681 29.3914C22.1136 29.2664 22.4567 29.139 22.7964 28.998C23.1226 29.3922 23.607 29.6911 24.1325 29.6607C24.8522 29.7054 25.5686 29.209 25.7788 28.5168C25.8696 28.2593 25.8755 27.9824 25.8621 27.7123C26.1925 27.5418 26.5196 27.3586 26.8668 27.2218C27.1426 27.4532 27.4655 27.6532 27.8313 27.6861C28.6233 27.7722 29.4818 27.27 29.703 26.4824C29.8055 26.1388 29.7551 25.7792 29.6937 25.4339C29.9939 25.2161 30.2865 24.9856 30.5715 24.7476C31.1248 25.076 31.8555 25.0768 32.3903 24.7087C32.7947 24.4774 33.0141 24.041 33.1596 23.6155C33.1714 23.3268 33.2126 23.0246 33.1075 22.7477C33.0537 22.5789 32.9452 22.4337 32.8931 22.2649C33.1024 21.9466 33.3017 21.6224 33.5086 21.3034C34.5108 21.5076 35.5417 20.5639 35.4702 19.5475C35.4921 18.9456 35.1423 18.3487 34.6025 18.082C34.6437 17.6835 34.6849 17.2842 34.6781 16.8824C35.0952 16.7026 35.4904 16.392 35.6224 15.9378C35.8603 15.3123 35.7502 14.5542 35.2785 14.0663C34.9464 13.6974 34.4553 13.5116 33.9651 13.5108C33.9281 13.336 33.7549 13.1453 33.9079 12.9832C34.1972 12.5316 34.3502 11.9499 34.1333 11.435C33.8869 10.6828 33.0553 10.27 32.3003 10.3249C32.1195 10.3831 31.9387 10.4405 31.7613 10.5064C31.5654 10.4346 31.3678 10.3696 31.171 10.3021C31.1971 9.85046 31.1601 9.3887 30.9457 8.98265C31.3981 8.50822 31.6444 7.77295 31.3636 7.14657C31.2055 6.70423 30.8406 6.37584 30.4219 6.18422C30.384 5.15601 29.7694 4.23671 28.9983 3.59767C28.2113 2.95272 27.9389 1.87218 28.0575 0.889565C28.0121 0.900539 27.875 0.930927 27.875 0.930927C27.875 0.930927 26.3202 1.75683 25.4114 2.17439C26.243 2.64122 26.9316 3.46513 27.019 4.44437C27.0678 5.14673 27.1738 5.87525 27.5521 6.48305C27.7194 6.78864 27.9507 7.05287 28.1954 7.29768C27.9944 8.03127 28.3492 8.8805 29.0244 9.23168C29.3759 9.4461 29.7971 9.47227 30.1974 9.42415C30.3075 9.74071 30.3369 10.0784 30.2932 10.4101C30.0872 10.5798 29.8779 10.7444 29.6727 10.915C29.0799 10.6963 28.3602 10.7098 27.8531 11.1252C27.2334 11.6055 27.1309 12.5096 27.4125 13.206C27.1502 13.4103 26.8744 13.5952 26.5978 13.7792C26.1151 13.3116 25.3559 13.1047 24.7269 13.385C24.1426 13.6112 23.7776 14.203 23.6936 14.8083C23.6936 14.8809 23.6919 15.0252 23.691 15.0978C23.374 15.1831 23.0545 15.2591 22.7342 15.3291C22.4836 14.7323 21.9388 14.2292 21.2737 14.187C20.5943 14.1228 19.9578 14.5609 19.6492 15.1493C19.3028 15.07 18.9673 14.951 18.6326 14.8328C18.6435 14.3119 18.4182 13.7944 18.0121 13.4661C17.4412 12.9697 16.5272 12.9477 15.926 13.4044C15.7208 13.5336 15.5981 13.7505 15.4257 13.9118C15.0633 13.8586 14.7085 13.759 14.3511 13.6805C14.3385 13.5792 14.3267 13.4779 14.3158 13.3757C14.1586 12.8338 13.7432 12.356 13.1882 12.2099C12.376 11.9457 11.4006 12.3577 11.0853 13.1697C10.7028 13.1554 10.3168 13.1638 9.93845 13.0955C9.7274 12.372 8.98074 11.8782 8.23997 11.9111C7.41176 11.9533 6.65753 12.6227 6.59447 13.4694C6.21021 13.5235 5.8537 13.6822 5.48878 13.8054C5.09191 13.3428 4.42934 13.1495 3.84916 13.3386C2.81242 13.5674 2.08763 14.9163 2.73086 15.8483C2.47777 16.1657 2.29783 16.5312 2.08258 16.8731C1.64703 16.8748 1.17701 16.955 0.854132 17.2758C0.296662 17.7705 0.0990677 18.618 0.389154 19.3086C0.529572 19.7399 0.898696 20.0472 1.30566 20.2169C1.29893 20.6052 1.31743 20.9935 1.31995 21.3819C0.94326 21.5439 0.614496 21.8402 0.458102 22.2252C0.168856 22.9157 0.339545 23.7937 0.922239 24.2799C1.23419 24.5813 1.67562 24.6826 2.09688 24.6767C2.24991 25.027 2.41219 25.3723 2.58203 25.715C2.2188 26.1692 2.02288 26.7947 2.24234 27.3586C2.48198 28.1521 3.30935 28.6983 4.13084 28.6012C4.32675 28.5379 4.52267 28.4729 4.71438 28.3995C5.00867 28.6392 5.29455 28.8891 5.60397 29.1077C5.57286 29.3255 5.53839 29.5425 5.52578 29.762C5.65022 30.6694 6.51291 31.3178 7.40335 31.3068C7.90616 31.2376 8.37534 30.9835 8.67972 30.5707C9.03876 30.677 9.40031 30.7809 9.77028 30.8484C9.85016 31.4351 10.2168 31.9872 10.7818 32.1991ZM11.5285 28.9499C10.8348 28.9034 10.1983 29.3728 9.89472 29.9764C9.57353 29.9164 9.26158 29.8185 8.93954 29.7594C8.90675 29.5315 8.89498 29.2977 8.82687 29.0757C8.68309 28.5219 8.22147 28.0635 7.66484 27.9326C7.09392 27.7731 6.49021 28.0002 6.04877 28.3674C5.7982 28.18 5.5325 28.0078 5.31221 27.7824C5.31725 27.6178 5.41479 27.4726 5.45262 27.3147C5.67124 26.6183 5.34668 25.8095 4.71774 25.4491C4.28892 25.1882 3.77097 25.1899 3.29085 25.2667C3.16641 24.9688 3.02095 24.6809 2.88305 24.3888C3.33962 24.0478 3.68604 23.51 3.65914 22.9225C3.681 22.0918 2.95116 21.4038 2.16498 21.2839C2.14649 20.953 2.13724 20.6221 2.14733 20.2903C2.8738 20.1519 3.54142 19.5559 3.59103 18.7869C3.67343 18.1757 3.31524 17.6059 2.86455 17.2294C3.00833 16.9592 3.1723 16.7009 3.34214 16.446C3.76676 16.6612 4.25697 16.6925 4.72026 16.6165C4.99858 16.5346 5.23569 16.3506 5.44169 16.1505C5.80745 15.7386 5.8991 15.1552 5.83604 14.6217C6.13285 14.5069 6.43303 14.3989 6.74161 14.3187C6.96275 14.6724 7.24611 15.0134 7.64046 15.1747C8.07181 15.3806 8.5906 15.357 9.01942 15.1569C9.48272 14.9434 9.8098 14.4909 9.93088 14.0013C10.2773 13.997 10.6229 14.0215 10.9676 14.0494C11.1038 14.9222 11.9522 15.6601 12.8502 15.4954C13.4304 15.4372 13.9139 15.0413 14.1981 14.5457C14.5294 14.6251 14.864 14.6884 15.197 14.7602C15.2357 15.4566 15.6536 16.1623 16.3439 16.3692C17.0712 16.6401 17.9398 16.3286 18.3493 15.671C18.6889 15.7901 19.0337 15.8939 19.3776 16.0011C19.4247 16.4004 19.5777 16.7929 19.877 17.0698C20.4942 17.6894 21.5982 17.7291 22.2591 17.1568C22.5568 16.9204 22.7199 16.5608 22.8174 16.2012C23.1933 16.1218 23.5666 16.0349 23.9349 15.9277C24.2443 16.3675 24.7639 16.679 25.3113 16.6452C25.7948 16.6731 26.2556 16.4333 26.5936 16.1007C27.0022 15.6997 27.1477 15.0793 27.0182 14.5272C27.3327 14.3339 27.6219 14.1017 27.9297 13.8991C28.208 13.9768 28.4569 14.16 28.7554 14.1659C29.613 14.2275 30.4353 13.5555 30.5951 12.7139C30.7078 12.2791 30.5539 11.8436 30.3714 11.4527C30.5026 11.3506 30.6329 11.2459 30.7632 11.1404C30.8255 11.1505 30.9508 11.1699 31.013 11.18C30.7271 11.7397 30.7338 12.4505 31.0929 12.9773C31.4796 13.6374 32.3558 13.916 33.0604 13.6366C33.094 13.6999 33.1285 13.7632 33.1638 13.8257C32.7493 14.1574 32.4298 14.6133 32.3482 15.1468C32.3549 15.5098 32.3978 15.8973 32.624 16.1953C32.8838 16.5912 33.3253 16.8039 33.7532 16.9668C33.7406 17.2766 33.7171 17.5865 33.691 17.8963C33.4043 17.9503 33.1167 18.0246 32.8628 18.1723C32.3289 18.4703 32.0026 19.1017 32.0556 19.7112C32.0749 20.1789 32.3642 20.5824 32.6837 20.9024C32.5088 21.1793 32.3406 21.4604 32.1573 21.7313C31.8429 21.6419 31.5166 21.5347 31.1862 21.6039C30.3748 21.7195 29.6819 22.4995 29.7433 23.3353C29.75 23.6003 29.8753 23.8401 29.93 24.095C29.6904 24.3204 29.4272 24.5213 29.1497 24.6986C28.8798 24.5205 28.5872 24.3576 28.2626 24.3145C27.6295 24.2276 26.9358 24.5095 26.6045 25.0709C26.3388 25.4744 26.3371 25.9775 26.3783 26.4418C26.0815 26.6073 25.7738 26.755 25.4643 26.896C24.9666 26.2933 24.0492 26.0788 23.3598 26.4705C22.7426 26.7778 22.3945 27.4844 22.4685 28.1656C22.1389 28.2999 21.8118 28.4408 21.4721 28.5447C21.0222 27.8778 20.0889 27.557 19.3549 27.9335C18.7419 28.1994 18.3762 28.8427 18.3417 29.4969C18.0096 29.5906 17.6741 29.675 17.3335 29.7324C17.1973 29.518 17.0561 29.2994 16.8526 29.1415C16.3144 28.6949 15.4955 28.6536 14.9052 29.0191C14.4924 29.2833 14.2191 29.7265 14.1317 30.2068C13.7886 30.233 13.4439 30.2474 13.1 30.2558C12.8931 29.5644 12.2692 28.9701 11.5285 28.9499Z" fill="#00A754"/>
</svg>
