<svg width="73" height="73" viewBox="0 0 73 73" fill="none" xmlns="http://www.w3.org/2000/svg">
<path d="M53.8463 17.3646C54.5728 16.386 55.4541 15.3201 56.7412 15.1465C57.2841 15.1675 57.8083 15.4329 58.1776 15.8276C59.248 16.8228 59.5045 18.3477 59.7245 19.7243C60.2708 23.2064 60.4632 26.7282 60.691 30.239C60.7717 30.8826 60.7308 31.5339 60.7706 32.1807C60.9287 33.2489 60.7949 34.3348 60.932 35.404C60.9862 36.4346 60.9696 37.4663 61.0105 38.4957C61.0913 39.3781 61.0503 40.2661 61.0758 41.1507C62.0975 41.008 63.0617 40.6066 64.068 40.391C65.2235 39.973 66.4078 39.586 67.4405 38.9027C68.0045 38.5289 68.6005 38.1751 69.0616 37.673C69.244 36.8172 68.9864 35.9536 68.6867 35.1574C68.6171 35.0248 68.4236 35.0723 68.3804 35.2028C67.6617 36.1969 66.4796 36.8371 65.2533 36.8802C64.2814 36.9244 63.2409 36.6115 62.6006 35.8441C62.2026 35.4759 62.1152 34.9098 62.0378 34.4011C62.1738 32.2006 63.2221 30.2081 64.1852 28.2719C64.4837 27.6361 64.9581 27.0478 65.637 26.8045C66.4708 26.444 67.424 26.7282 68.1692 27.1672C68.9267 27.604 69.5603 28.2409 70.0324 28.974C70.7081 30.1406 71.0453 31.473 71.2786 32.79C71.4058 32.8464 71.46 32.9437 71.4434 33.0808C71.4445 34.6134 71.4434 36.146 71.4423 37.6786C71.3992 37.7029 71.3118 37.7505 71.2687 37.7737C70.958 39.2753 70.0291 40.6055 68.7818 41.4802C66.8733 42.9188 64.748 44.0456 62.5542 44.9821C62.0887 45.1502 61.6441 45.3802 61.1631 45.5007C61.1587 46.7436 61.1565 47.9865 61.1631 49.2305C61.2781 50.1438 61.3777 51.1136 61.9151 51.8954C62.1627 52.1596 62.4038 52.4615 62.7499 52.6008C63.1225 52.7623 63.5317 52.7932 63.9297 52.8496C64.9581 52.7954 66.0661 52.6594 66.8766 51.9551C67.3034 51.5028 67.3465 50.8095 67.0867 50.261C66.6742 49.3698 65.7885 48.8678 65.0963 48.2209C65.1361 47.8991 65.3374 47.6315 65.4679 47.3418C65.9677 46.2361 66.4686 45.1303 66.9241 44.0046C68.0487 44.7621 68.9145 45.9021 69.2429 47.229C69.6498 48.6909 69.4199 50.2245 69.2971 51.7063C69.1478 52.937 69.0494 54.2141 68.5043 55.3475C68.1305 56.1581 67.4284 56.7894 66.5968 57.1024C65.7045 57.4109 64.758 57.5668 63.8136 57.5204C62.5874 57.5933 61.3434 57.182 60.3792 56.4257C60.0087 56.1625 59.7688 55.7633 59.5178 55.3951C58.9571 54.4696 58.9063 53.3627 58.7327 52.3244C58.7094 51.9462 58.757 51.5592 58.6365 51.1932C58.5911 50.7564 58.6442 50.3097 58.5215 49.8807C58.4739 48.8855 58.5569 47.8803 58.381 46.8929C58.213 46.9028 58.0416 46.894 57.8779 46.9371C55.7018 47.6039 53.4549 48.0086 51.2058 48.3315C50.3963 48.4111 49.5991 48.5869 48.783 48.5736C48.2865 48.7296 47.7613 48.6267 47.2571 48.7296C46.6976 48.8357 46.1237 48.7528 45.5597 48.7992C44.538 48.9706 43.4975 48.87 42.4669 48.8866C41.8477 48.7362 41.203 48.8468 40.5838 48.703C39.0037 48.5781 37.4324 48.2884 35.9164 47.8151C34.8416 47.4613 33.7922 46.999 32.8755 46.3267C32.4941 46.0492 32.1413 45.7352 31.7731 45.441C31.3076 44.9036 30.8454 44.3585 30.4794 43.7448C30.2085 43.3943 30.0935 42.9508 29.848 42.5937C29.263 42.5196 28.7046 42.7308 28.1462 42.8646C26.8624 43.2682 25.541 43.663 24.4331 44.4547C24.1091 44.7632 23.6623 45.0728 23.6734 45.5726C23.68 45.8059 23.6259 46.0647 23.7508 46.2781C24.0604 46.9692 24.7526 47.3485 25.3332 47.783C26.9885 48.8302 28.7511 49.7048 30.549 50.4767C30.1786 52.4549 29.6158 54.3888 29.0651 56.3206C26.4478 55.4747 23.8724 54.359 21.7129 52.6263C21.223 52.1154 20.585 51.7582 20.1891 51.1567C17.8936 48.6311 17.0167 45.1591 16.79 41.834C16.5799 40.8709 16.8276 39.8691 16.6297 38.9038C16.5822 38.6583 16.5976 38.4062 16.5921 38.1585C16.5224 38.164 16.3809 38.174 16.3112 38.1795C15.6058 39.4014 14.9512 40.6531 14.1893 41.8418C13.7802 42.3825 13.4108 42.9807 12.8303 43.3578C11.8473 44.1606 10.5668 44.4879 9.32836 44.6183C8.82524 44.7588 8.3 44.6416 7.79025 44.7256C7.12458 44.8594 6.4368 44.8174 5.77113 44.7079C4.72508 44.7013 3.62927 44.6217 2.68827 44.1185C2.18072 43.8918 1.96731 43.3113 1.8877 42.8005C2.03587 41.4879 2.54562 40.2561 2.94923 39.0077C3.16374 38.3874 3.32629 37.7438 3.64364 37.1633C4.24739 35.9514 5.18618 34.9518 6.18137 34.0506C6.8017 33.5773 7.45189 33.1206 8.18722 32.8453C10.6741 31.8059 13.0537 30.5287 15.4941 29.3865C15.4067 28.3316 15.1557 27.2966 15.0197 26.2472C14.9467 25.9387 14.8914 25.6147 15.0131 25.3095C15.1624 24.5289 15.6787 23.9041 16.0138 23.202C16.4262 22.5739 16.6728 21.8054 17.2622 21.3122C17.5696 21.488 17.5608 21.8883 17.6448 22.1913C17.8317 23.4463 18.0241 24.7014 18.1888 25.9608C18.2906 26.3467 18.2165 26.7614 18.3768 27.1351C18.954 27.0235 19.4085 26.6188 19.8817 26.2981C20.3329 25.9962 20.6735 25.5539 21.1611 25.3029C20.804 26.8797 20.0023 28.4587 18.5969 29.3456C18.5913 30.2147 18.5659 31.086 18.6157 31.9541C18.8257 32.8387 18.5714 33.7642 18.7904 34.6477C18.8578 35.2138 18.7517 35.791 18.8545 36.355C19.0104 36.9941 18.8313 37.6642 18.9971 38.3022C19.0889 38.7877 18.964 39.2919 19.0933 39.774C19.3001 41.5554 19.5069 43.4053 20.3462 45.023C20.6724 45.5892 21.1114 46.3455 21.8765 46.2449C22.0612 45.1657 22.3509 44.1031 22.7191 43.0736C23.1415 42.1503 23.5894 41.1982 24.3579 40.5082C24.8754 39.9376 25.53 39.523 26.178 39.1205C27.0161 38.7091 27.841 38.2248 28.761 38.0258C28.7444 37.4806 28.7909 36.9289 28.6792 36.3904C28.5775 35.5434 28.75 34.6753 28.5542 33.8383C28.4912 32.9249 28.6173 31.9994 28.4448 31.0949C28.3784 29.5092 28.5089 27.9147 28.3242 26.3346C28.3452 25.4256 28.2159 24.5233 28.0257 23.6365C27.778 22.5175 27.3467 21.341 26.3903 20.6355C25.7014 20.2064 24.7659 20.0948 24.046 20.5172C23.2798 20.9307 22.9149 21.7689 22.4781 22.4766C22.0888 23.1046 21.8887 23.8687 21.3447 24.3884C21.4995 23.0759 22.0811 21.8596 22.6672 20.6908C23.1603 19.7918 23.6623 18.8972 24.2141 18.0325C24.7637 17.1977 25.4216 16.365 26.3681 15.9692C26.9951 15.7591 27.7304 15.7027 28.3253 16.0366C29.6788 16.9832 30.2969 18.6197 30.6054 20.1843C30.7989 21.456 30.9825 22.732 30.9935 24.0202C31.0013 24.2414 31.061 24.457 31.0776 24.6781C31.1296 27.8561 31.082 31.0341 31.0897 34.2131C31.2324 34.1766 31.3949 34.1678 31.49 34.0384C32.7561 32.7624 34.0266 31.4885 35.3005 30.2202C35.7538 29.7879 36.163 29.3046 36.6749 28.9375C37.2422 28.4377 37.7155 27.8318 38.3347 27.3895C38.7018 27.0566 39.0302 26.6796 39.4427 26.3987C41.4098 24.5178 43.8513 23.0129 46.5715 22.5717C48.7089 22.1813 51.0178 22.5816 52.8102 23.8444C53.435 24.1938 53.895 24.7489 54.4003 25.2432C55.213 26.1731 55.7305 27.4094 55.6354 28.6589C55.4298 30.3496 54.554 31.8678 53.5566 33.2157C52.5316 34.5139 51.3053 35.6904 49.828 36.4611C48.0466 37.3767 46.1436 38.0225 44.2328 38.6063C41.3413 39.4555 38.4021 40.1234 35.4641 40.7836C35.0959 40.8587 34.7211 40.9162 34.3705 41.0545C34.3927 41.2303 34.4446 41.405 34.6249 41.4769C37.0498 43.0404 39.9856 43.4794 42.7964 43.7923C43.3195 43.7669 43.827 43.9228 44.35 43.9051C46.0087 43.9184 47.6695 43.9306 49.3293 43.8952C49.734 43.8332 50.1409 43.7791 50.5534 43.7968C51.9776 43.6563 53.4029 43.4838 54.8094 43.1985C56.06 42.9298 57.3272 42.6634 58.4994 42.137C58.5016 39.4489 58.5248 36.7608 58.4783 34.0738C58.318 33.2821 58.443 32.4693 58.3501 31.6721C58.2428 31.2265 58.2948 30.7665 58.2638 30.3142C58.1488 29.4871 58.1002 28.6534 58.0007 27.8229C57.7552 25.8116 57.3947 23.8024 56.7644 21.8717C56.5422 21.2547 56.3066 20.6211 55.8687 20.1213C55.5271 19.7265 54.9465 19.6259 54.4589 19.752C53.1265 20.2916 52.2419 21.4681 51.2124 22.4113C51.6923 20.5526 52.7173 18.8972 53.8463 17.3646ZM37.8117 30.9622C36.1895 32.5843 34.6636 34.2994 33.1299 36.0045C32.9917 36.1571 32.8258 36.2953 32.7661 36.5009C34.7963 36.0929 36.8098 35.6097 38.8234 35.1342C43.3095 33.9798 47.8033 32.7668 52.087 30.9766C51.951 30.6271 51.6823 30.3595 51.4468 30.0787C49.8435 28.2155 47.3754 27.0412 44.8952 27.2689C42.1518 27.4912 39.7412 29.0923 37.8117 30.9622ZM14.5232 32.8895C12.1812 34.4398 9.57937 35.5279 7.12016 36.8703C6.42463 37.2551 5.6506 37.5746 5.13089 38.2016C4.92522 38.4382 4.81796 38.8319 5.06123 39.0829C5.36089 39.3803 5.8043 39.45 6.20901 39.4644C8.30443 39.5152 10.4186 39.345 12.4455 38.7877C13.8553 38.3752 15.1889 37.7305 16.4428 36.9709C16.2493 35.2691 16.1598 33.5585 15.9729 31.8567C15.4675 32.1697 15.0286 32.5755 14.5232 32.8895Z" fill="#00A754"/>
<path d="M65.1561 16C66.567 17.0029 67.9116 18.0987 69.3292 19.0917C68.574 20.0825 67.8353 21.0854 67.0823 22.0784C66.7915 22.4853 66.4543 22.8624 66.2231 23.3069C65.8925 22.953 65.4768 22.6976 65.0975 22.4035C64.1001 21.6405 63.0795 20.9063 62.0942 20.1278C63.0994 18.7412 64.1775 17.4054 65.1561 16Z" fill="#00A754"/>
<path d="M50.3002 53.8931C51.2855 52.6181 52.2541 51.3299 53.2018 50.0273C54.5784 51.0457 55.954 52.0697 57.3063 53.1235C56.7457 53.7471 56.2846 54.4526 55.7782 55.1194C55.2629 55.7939 54.7388 56.464 54.25 57.1584C52.9762 56.2539 51.7377 55.2963 50.4882 54.3564C50.3124 54.2735 50.0205 54.2547 49.9165 54.457C49.0198 55.6745 48.0987 56.8753 47.2008 58.0928C45.8142 57.1164 44.485 56.0571 43.1128 55.0575C44.0892 53.6697 45.164 52.3528 46.1481 50.9706C47.2915 51.7678 48.3829 52.6414 49.5052 53.4674C49.7407 53.6576 49.9829 53.8688 50.3002 53.8931Z" fill="#00A754"/>
</svg>
