<svg width="72" height="73" viewBox="0 0 72 73" fill="none" xmlns="http://www.w3.org/2000/svg">
<path d="M32.4368 12.0403C37.7266 11.0284 43.3664 11.7334 48.1756 14.1836C48.74 13.6413 49.5017 13.2432 50.3016 13.2876C51.8077 13.2543 53.1954 14.4905 53.3963 15.9756C53.4764 16.4895 53.3877 17.0146 53.2028 17.4977C53.7685 17.9993 54.3306 18.5046 54.8556 19.0506C55.5347 18.83 56.2668 18.6378 56.9742 18.8584C58.3324 19.1739 59.3085 20.5198 59.3295 21.8915C59.3233 22.6174 59.0103 23.3076 58.5715 23.8746C62.7619 30.9761 63.1576 40.1839 59.502 47.5862C58.0871 50.501 56.1201 53.1718 53.6724 55.3003C53.665 55.601 53.8018 55.8771 53.8536 56.1679C54.0471 57.1934 53.6502 58.3014 52.8553 58.9755C52.0308 59.7101 50.7921 59.9862 49.7556 59.5696C49.3033 59.4254 48.9372 59.116 48.5897 58.8054C48.5675 58.8301 48.5231 58.8806 48.5009 58.9065C41.4795 62.5818 32.6636 62.5546 25.6693 58.8264C24.4578 60.0453 22.2541 59.8099 21.2274 58.4702C20.5188 57.642 20.3598 56.4181 20.7579 55.4161C15.3682 50.7155 12.2476 43.5905 12.2944 36.452C11.3836 36.1673 10.5394 35.535 10.2128 34.6119C9.7543 33.441 10.0489 31.9966 10.9794 31.14C11.5488 30.6063 12.3376 30.3586 13.1066 30.3192C13.7081 27.8715 14.7323 25.531 16.0547 23.3865C16.316 22.8356 17.2022 22.9687 17.3969 23.5073C17.5362 23.7575 17.4339 24.0434 17.3008 24.2702C16.0757 26.2791 15.118 28.4643 14.5758 30.7579C15.0922 31.018 15.4755 31.474 15.7663 31.9633C16.8891 31.7908 17.9934 31.5073 19.1248 31.389C21.1781 31.1363 23.245 30.9354 25.3168 30.9404C25.9688 29.6117 27.592 28.7934 29.0315 29.2593C30.6017 27.1283 32.3851 25.1428 34.4039 23.4296C34.1007 22.7099 33.9639 21.9112 34.1746 21.1446C31.7799 19.7051 29.1917 18.6008 26.5185 17.7947C26.4827 17.7923 26.41 17.7898 26.3743 17.7873C25.7309 19.0137 24.2261 19.7384 22.8753 19.3785C22.4685 19.3316 22.1358 18.9496 21.734 18.9878C21.0771 19.5473 20.4658 20.1636 19.8939 20.8106C19.672 21.0325 19.4749 21.3886 19.1137 21.3591C18.495 21.4256 18.0242 20.5838 18.4655 20.1155C19.2012 19.291 19.9678 18.4862 20.8158 17.775C20.7825 17.6296 20.748 17.4854 20.7024 17.3437C20.2156 15.9805 20.8528 14.3697 22.1247 13.6931C23.1748 13.0522 24.6155 13.1619 25.5436 13.9741C25.6976 14.0813 25.8517 14.3265 26.0686 14.2082C28.0738 13.1877 30.2282 12.4655 32.4368 12.0403ZM26.6775 15.6108C26.6035 15.8178 26.6848 16.0397 26.6922 16.2529C29.029 16.953 31.3177 17.8329 33.4659 18.9964C33.9873 19.233 34.4421 19.5954 34.9807 19.7988C36.1145 18.6045 38.2122 18.618 39.3486 19.8024C40.7018 19.0827 42.0378 18.3161 43.465 17.7454C44.6963 17.1945 45.9768 16.7644 47.2623 16.3626C47.2795 16.0643 47.3054 15.7661 47.3387 15.4703C44.4658 14.0406 41.2737 13.2494 38.068 13.1508C37.0475 13.0349 36.027 13.189 35.0053 13.2124C32.1151 13.4922 29.2644 14.2822 26.6775 15.6108ZM23.0909 14.9132C22.1777 15.1917 21.7611 16.4341 22.3145 17.2118C22.8309 18.1657 24.3974 18.1756 24.9212 17.2241C25.5621 16.3688 24.968 15.0315 23.9426 14.8368C23.6579 14.8356 23.3609 14.8035 23.0909 14.9132ZM49.5806 15.0143C48.8374 15.4161 48.6008 16.4242 48.9878 17.1526C49.4536 18.093 50.9462 18.2002 51.5612 17.3609C51.8385 17.0516 51.8989 16.6227 51.8718 16.2221C51.8693 15.5529 51.3024 15.0192 50.6947 14.8343C50.3151 14.806 49.9134 14.806 49.5806 15.0143ZM40.1336 21.1446C40.3395 21.894 40.2544 22.7123 39.8834 23.3976C43.6203 26.623 46.6424 30.6569 48.745 35.1197C49.1887 35.0581 49.636 35.1049 50.0686 35.2121C51.9925 31.9744 53.5307 28.5136 54.6473 24.9172C54.667 24.7841 54.789 24.5734 54.6227 24.4896C53.5233 23.8413 52.9613 22.451 53.2164 21.2112C53.2854 20.7872 53.5479 20.4347 53.6897 20.0379C53.262 19.5905 52.79 19.1862 52.3352 18.7672C52.0603 18.957 51.7781 19.1418 51.465 19.2614C50.0933 19.8505 48.3173 19.1998 47.6592 17.8601C45.0192 18.6069 42.4963 19.7519 40.1336 21.1446ZM36.52 20.5543C36.0209 20.7625 35.7115 21.242 35.6006 21.7559C35.5402 22.4141 35.8643 23.1006 36.4781 23.3853C37.4197 23.9288 38.7755 23.1104 38.6806 22.0086C38.8112 20.908 37.4814 20.0342 36.52 20.5543ZM55.5162 20.4569C54.7089 20.8476 54.4526 21.9482 54.9049 22.6951C55.3017 23.3729 56.2643 23.6244 56.9471 23.2435C57.5794 22.9366 57.8875 22.1799 57.7408 21.507C57.5547 20.5456 56.3789 20.0033 55.5162 20.4569ZM30.381 30.0259C30.5622 30.4474 30.9615 30.7925 31.0614 31.2719C31.3892 31.3101 31.7195 31.3298 32.0437 31.3951C37.1683 32.0866 42.1709 33.6641 46.7853 35.9935C47.0047 36.1439 47.16 35.8653 47.3301 35.7655C46.6251 34.1115 45.6773 32.566 44.6839 31.071C43.0386 28.6603 41.0937 26.4541 38.8876 24.5413C38.5807 24.7582 38.2295 24.8975 37.8696 24.9961C37.0352 25.1452 36.1306 25.0392 35.4243 24.545C33.5534 26.183 31.8292 28.0034 30.381 30.0259ZM56.2569 24.932C55.9747 25.5433 55.8835 26.2224 55.6136 26.8399C54.6202 29.772 53.3298 32.6005 51.7855 35.2836C51.645 35.5289 51.465 35.7593 51.4083 36.0428C52.1947 36.8316 52.4954 38.0727 52.154 39.1339C54.6054 40.8174 56.9138 42.7117 59.0238 44.8094C60.8528 39.9818 60.9391 34.5527 59.4404 29.6253C58.9228 27.9356 58.2079 26.3075 57.3205 24.778C56.9791 24.8963 56.618 24.9419 56.2569 24.932ZM27.5907 30.7641C27.1643 30.9194 26.8475 31.2805 26.675 31.6909C26.426 32.2998 26.6565 33.0368 27.1483 33.4558C27.852 34.0413 29.0906 33.8453 29.4949 32.9949C29.8338 32.3959 29.7204 31.6084 29.2311 31.1265C28.8244 30.6754 28.1478 30.5805 27.5907 30.7641ZM12.271 32.0829C11.497 32.5339 11.2333 33.6678 11.8187 34.3716C12.3745 35.2146 13.7907 35.1986 14.3268 34.3445C14.8863 33.5495 14.54 32.2677 13.591 31.9571C13.1584 31.8746 12.6605 31.8339 12.271 32.0829ZM18.6072 33.096C17.7802 33.2143 16.947 33.3055 16.1262 33.4706C16.1102 33.7282 16.0917 33.987 16.0683 34.2459C15.8033 35.3317 14.8876 36.1328 13.8424 36.4508C13.782 38.2305 14.1259 39.9892 14.503 41.7184C15.6024 46.0357 17.6742 50.1621 20.7924 53.3751C21.0795 53.6475 21.3384 53.9569 21.6798 54.1639C21.888 53.9581 22.1358 53.8003 22.4057 53.6894C22.4094 53.1274 22.365 52.5654 22.3293 52.0046C21.9447 45.9384 23.2401 39.7982 25.933 34.3555C25.3772 33.886 25.1627 33.1502 25.058 32.4563C24.8805 32.4625 24.7018 32.4686 24.5243 32.4785C24.162 32.5426 23.7935 32.5327 23.4274 32.5512C21.8129 32.6498 20.2131 32.9086 18.6072 33.096ZM31.1587 32.8223C30.9776 33.817 30.2455 34.6859 29.3162 35.0728C28.6617 35.3896 27.9013 35.3576 27.2062 35.2109C25.7827 38.1738 24.7548 41.3277 24.2211 44.5716C23.7737 47.5135 23.6061 50.5146 23.9746 53.4762C24.1287 53.4972 24.284 53.5181 24.438 53.5391C25.1689 53.7498 25.7975 54.2329 26.2177 54.8627C32.6254 52.5802 38.4858 48.7953 43.2641 43.9578C44.4892 42.75 45.5824 41.4189 46.7003 40.1149C46.6461 39.7982 46.4254 39.5492 46.3207 39.2522C46.0791 38.6655 46.1333 38.0111 46.2048 37.3961C41.4955 35.0371 36.3943 33.441 31.1587 32.8223ZM48.9274 36.6393C48.321 36.765 47.7947 37.2815 47.6937 37.9002C47.5199 38.7099 48.0918 39.6059 48.9249 39.7242C49.8024 39.9177 50.7749 39.2029 50.744 38.2822C50.8722 37.3024 49.8825 36.4372 48.9274 36.6393ZM50.8217 40.8298C51.2173 42.1768 51.4564 43.5609 51.6881 44.9438C51.7781 45.5243 51.0324 45.9593 50.5468 45.6623C50.2745 45.5329 50.166 45.2322 50.1364 44.9512C50.0452 43.975 49.7605 43.0334 49.5818 42.0733C49.5128 41.8145 49.4524 41.5532 49.3834 41.2944C48.9163 41.324 48.459 41.2217 48.0252 41.059C47.8761 40.9678 47.8021 41.1613 47.7146 41.2414C44.0837 45.7954 39.6148 49.6863 34.5838 52.6258C32.0794 54.1122 29.4209 55.3212 26.6972 56.3442C26.7009 56.7534 26.6368 57.1601 26.5296 57.5557C28.3807 58.4961 30.349 59.222 32.39 59.6238C37.5689 60.7552 43.1101 59.9578 47.8206 57.5446C47.7282 56.7669 47.6998 55.9227 48.1189 55.2263C48.5576 54.387 49.3932 53.7547 50.3324 53.6044C50.4593 52.3657 50.5505 51.1209 50.5333 49.8737C50.5382 49.6161 50.5222 49.3474 50.6196 49.1034C50.9252 48.5364 51.9925 48.6708 52.0308 49.3622C52.0936 50.6477 51.9839 51.9307 51.9161 53.2125C51.8866 53.3801 51.8631 53.5489 51.8434 53.719C52.1318 53.862 52.4128 54.021 52.6975 54.1713C55.0762 51.9923 57.0519 49.3548 58.3681 46.4042C58.3398 46.2095 58.1303 46.1121 58.0157 45.9679C55.9771 43.927 53.7488 42.0721 51.3578 40.4551C51.1791 40.5796 51.0016 40.7065 50.8217 40.8298ZM23.2413 55.0057C22.5758 55.193 22.0668 55.8315 22.0569 56.5254C22.0569 57.3265 22.7409 58.0697 23.5457 58.1091C24.3789 58.1572 25.1356 57.4312 25.1899 56.6129C25.2281 55.6355 24.2125 54.7247 23.2413 55.0057ZM50.3225 55.1955C49.7753 55.3409 49.392 55.8512 49.3008 56.3959C49.1061 57.2796 49.8665 58.2582 50.7847 58.2237C51.677 58.3001 52.4929 57.4016 52.3647 56.5204C52.3389 55.5406 51.2259 54.8517 50.3225 55.1955Z" fill="#00A754"/>
</svg>
