<svg width="34" height="35" viewBox="0 0 34 35" fill="none" xmlns="http://www.w3.org/2000/svg">
<path d="M26.3663 15.5365C25.6497 15.5365 25.083 14.9531 25.083 14.2531C25.083 13.6365 24.4663 12.3531 23.433 11.2365C22.4163 10.1531 21.2997 9.51979 20.3663 9.51979C19.6497 9.51979 19.083 8.93646 19.083 8.23646C19.083 7.53646 19.6663 6.95312 20.3663 6.95312C22.033 6.95312 23.783 7.85313 25.3163 9.46979C26.7497 10.9865 27.6663 12.8698 27.6663 14.2365C27.6663 14.9531 27.083 15.5365 26.3663 15.5365Z" fill="#FF0000"/>
<path d="M32.3829 15.5365C31.6663 15.5365 31.0996 14.9531 31.0996 14.2531C31.0996 8.33646 26.2829 3.53646 20.3829 3.53646C19.6663 3.53646 19.0996 2.95312 19.0996 2.25312C19.0996 1.55312 19.6663 0.953125 20.3663 0.953125C27.6996 0.953125 33.6663 6.91979 33.6663 14.2531C33.6663 14.9531 33.0829 15.5365 32.3829 15.5365Z" fill="#FF0000"/>
<path opacity="0.4" d="M16.6497 21.3031L11.1997 26.7531C10.5997 26.2198 10.0163 25.6698 9.44967 25.1031C7.73301 23.3698 6.18301 21.5531 4.79967 19.6531C3.43301 17.7531 2.33301 15.8531 1.53301 13.9698C0.733008 12.0698 0.333008 10.2531 0.333008 8.51979C0.333008 7.38646 0.533008 6.30312 0.933008 5.30312C1.33301 4.28646 1.96634 3.35313 2.84967 2.51979C3.91634 1.46979 5.08301 0.953125 6.31634 0.953125C6.78301 0.953125 7.24967 1.05313 7.66634 1.25313C8.09967 1.45313 8.48301 1.75313 8.78301 2.18646L12.6497 7.63646C12.9497 8.05313 13.1663 8.43646 13.3163 8.80312C13.4663 9.15312 13.5497 9.50313 13.5497 9.81979C13.5497 10.2198 13.433 10.6198 13.1997 11.0031C12.983 11.3865 12.6663 11.7865 12.2663 12.1865L10.9997 13.5031C10.8163 13.6865 10.733 13.9031 10.733 14.1698C10.733 14.3031 10.7497 14.4198 10.783 14.5531C10.833 14.6865 10.883 14.7865 10.9163 14.8865C11.2163 15.4365 11.733 16.1531 12.4663 17.0198C13.2163 17.8865 14.0163 18.7698 14.883 19.6531C15.483 20.2365 16.0663 20.8031 16.6497 21.3031Z" fill="#FF0000"/>
<path d="M33.6167 28.1695C33.6167 28.6362 33.5333 29.1195 33.3667 29.5862C33.3167 29.7195 33.2667 29.8529 33.2 29.9862C32.9167 30.5862 32.55 31.1529 32.0667 31.6862C31.25 32.5862 30.35 33.2362 29.3333 33.6529C29.3167 33.6529 29.3 33.6695 29.2833 33.6695C28.3 34.0695 27.2333 34.2862 26.0833 34.2862C24.3833 34.2862 22.5667 33.8862 20.65 33.0695C18.7333 32.2529 16.8167 31.1529 14.9167 29.7695C14.2667 29.2862 13.6167 28.8029 13 28.2862L18.45 22.8362C18.9167 23.1862 19.3333 23.4529 19.6833 23.6362C19.7667 23.6695 19.8667 23.7195 19.9833 23.7695C20.1167 23.8195 20.25 23.8362 20.4 23.8362C20.6833 23.8362 20.9 23.7362 21.0833 23.5529L22.35 22.3029C22.7667 21.8862 23.1667 21.5695 23.55 21.3695C23.9333 21.1362 24.3167 21.0195 24.7333 21.0195C25.05 21.0195 25.3833 21.0862 25.75 21.2362C26.1167 21.3862 26.5 21.6029 26.9167 21.8862L32.4333 25.8029C32.8667 26.1029 33.1667 26.4529 33.35 26.8695C33.5167 27.2862 33.6167 27.7029 33.6167 28.1695Z" fill="#FF0000"/>
</svg>
