<svg width="72" height="73" viewBox="0 0 72 73" fill="none" xmlns="http://www.w3.org/2000/svg">
<path d="M16.7856 21.0848C21.3429 15.2168 28.9015 12.5951 36.0314 11.6641C42.8673 12.5216 50.0216 14.984 54.6769 20.3008C61.0717 27.6144 58.0336 40.3674 49.2744 44.3856C49.2499 47.8525 49.2499 51.3194 49.2376 54.7741C46.9957 57.0773 44.7171 59.3436 42.414 61.5732C38.1385 61.5365 33.8753 61.5365 29.6121 61.5732C27.2967 59.3436 25.0303 57.0772 22.7762 54.7864C22.7762 51.3194 22.7762 47.8525 22.7394 44.3856C14.2865 40.5021 11.0768 28.4842 16.7856 21.0848ZM32.3807 15.278C26.7944 16.7236 20.7671 19.284 17.9739 24.6743C15.4013 30.3218 17.4349 37.6722 22.7027 41.0656C22.9477 37.3169 22.3474 33.4702 23.107 29.7828C28.926 22.4446 38.4693 19.774 47.253 17.9364C42.5487 16.2336 37.4647 13.5384 32.3807 15.278ZM40.0251 22.6407C43.247 24.6498 46.665 26.6589 48.9191 29.8073C49.6786 33.4947 49.0661 37.3292 49.3111 41.0779C56.0735 36.8269 57.4823 25.5318 50.7444 20.656C47.106 20.8643 43.5656 21.8444 40.0251 22.6407ZM25.1161 31.9634C28.4727 32.2942 31.9397 31.7796 35.2474 32.4779C36.2887 35.4916 35.5046 38.9095 35.7129 42.0702C37.6852 42.1192 39.6698 42.0824 41.6299 42.3275C42.1322 43.675 42.561 45.0349 42.9285 46.4314C44.0433 45.2676 45.1826 44.1161 46.3097 42.9767C46.2852 40.1836 46.3219 37.3904 46.1504 34.6095C43.8596 37.807 40.1109 36.3001 37.967 33.7888C39.2166 30.5056 44.1781 32.8945 46.8732 31.9757C44.1291 28.2882 40.0986 25.9851 36.0191 24.0617C31.9152 25.9728 27.9092 28.3005 25.1161 31.9634ZM25.8144 34.5238C25.7286 37.3414 25.7408 40.1591 25.7041 42.9767C26.8679 44.1528 28.044 45.3289 29.2078 46.5049C29.4895 45.1574 29.7713 43.822 30.0408 42.4745C30.7391 42.3397 32.1357 42.0824 32.8217 41.9477C32.7972 39.5098 32.736 37.0597 32.6502 34.6218C31.4129 35.4548 30.1633 36.2756 28.9015 37.0719C28.1297 36.4349 26.5861 35.1608 25.8144 34.5238ZM32.5767 45.0961C32.1847 46.8479 31.9029 48.6365 31.3149 50.3271C29.1098 52.422 27.4682 48.1098 25.6918 47.2522C25.7163 49.3593 25.7286 51.4664 25.7286 53.5736C28.044 55.5827 29.8816 59.3191 33.5078 58.6208C36.0804 58.6698 38.6653 58.6086 41.2379 58.6086C42.9285 56.9425 44.6191 55.2642 46.2974 53.5858C46.2974 51.4787 46.3097 49.3593 46.3219 47.2522C44.9131 48.5753 43.5656 49.9719 42.0465 51.1602C39.5841 50.3149 40.2456 47.0807 39.4371 45.0961C37.1462 45.0961 34.8676 45.0961 32.5767 45.0961Z" fill="#00A754"/>
<path d="M33.9609 46.9458C35.7127 46.9703 38.6284 46.0025 38.7754 48.6242C37.8321 50.9885 31.2903 50.0452 33.9609 46.9458Z" fill="#00A754"/>
</svg>
