<svg width="73" height="73" viewBox="0 0 73 73" fill="none" xmlns="http://www.w3.org/2000/svg">
<path d="M34.1215 9.7972C36.2527 9.53598 38.4237 9.66659 40.5214 10.1237C41.3385 10.2814 42.1142 10.6111 42.8389 11.0157C43.6162 11.4696 44.3042 12.2915 44.1943 13.244C44.0733 14.2092 43.2498 14.8766 42.4359 15.2891C41.3719 15.7797 40.2283 16.0999 39.064 16.2241C36.6859 16.514 34.2426 16.4646 31.9092 15.896C30.5346 15.4994 28.8669 14.8718 28.4863 13.3204C28.3652 12.1864 29.2476 11.2657 30.2097 10.8245C31.4186 10.1858 32.782 9.97081 34.1215 9.7972ZM32.129 12.4587C31.7005 12.6164 31.1701 12.7072 30.9089 13.1213C31.7196 13.5132 32.5797 13.7919 33.4669 13.9448C36.267 14.2713 39.2583 14.3319 41.8641 13.1022C41.4197 12.7247 40.8622 12.5256 40.3048 12.3887C37.6305 11.7324 34.7905 11.7484 32.129 12.4587Z" fill="#00A754"/>
<path d="M30.7495 22.6685C30.9581 20.0882 33.11 17.8328 35.6951 17.5653C36.8722 17.4745 38.1066 17.6513 39.126 18.2772C40.714 19.1644 41.7716 20.8735 41.942 22.6749C41.9739 23.0429 41.9755 23.4124 41.9038 23.7755C41.7939 25.1167 41.0548 26.3081 40.1422 27.259C40.7522 27.4724 41.3113 27.8037 41.8863 28.0952C43.1812 26.6776 44.9285 25.5754 46.8669 25.3731C48.2271 25.2441 49.5571 25.7872 50.653 26.5597C53.4897 28.2194 56.5829 29.6816 59.9118 29.8903C60.6127 29.8855 61.3039 29.7373 61.9904 29.602C62.7279 29.4729 63.3634 30.2614 63.1707 30.9606C62.696 33.388 61.3151 35.5845 59.5216 37.2617C57.9193 38.7318 55.9681 39.8006 53.9039 40.4696C51.83 40.9633 49.6861 41.1736 47.5534 41.0796C47.8704 42.8014 48.0742 44.5423 48.4247 46.2593C48.5361 46.6639 48.5027 47.1322 48.1953 47.446C47.8258 47.9063 47.1855 47.884 46.663 48.0098C45.6229 48.1866 44.6163 48.5338 43.5635 48.639C43.5858 49.2474 43.7689 49.8304 43.8948 50.4213C44.5765 53.7948 45.4318 57.1301 46.3875 60.4352C46.5961 61.0277 46.1916 61.6775 45.607 61.8464C42.56 63.0091 39.29 63.5889 36.028 63.5729C33.4254 63.5108 30.8339 63.0887 28.3523 62.3003C27.5958 62.0216 26.6258 61.9085 26.2355 61.0993C26.218 60.2982 26.5589 59.5559 26.758 58.7962C27.5018 56.0247 28.2185 53.2437 28.7744 50.4277C28.8923 49.8336 29.0962 49.2506 29.1089 48.6406C27.8156 48.4813 26.5668 48.0703 25.2767 47.8824C24.5902 47.8123 24.0152 47.1035 24.2206 46.4138C24.5742 44.6474 24.802 42.8619 25.1126 41.0891C23.3255 41.1592 21.532 41.0477 19.7784 40.6973C18.7494 40.5587 17.7842 40.159 16.8524 39.7178C13.2686 38.1122 10.3045 34.8852 9.50009 30.9845C9.29144 30.2725 9.96041 29.4618 10.709 29.6195C11.1773 29.7246 11.6535 29.7867 12.1266 29.8695C12.5439 29.9014 12.9676 29.9157 13.3801 29.8249C15.3265 29.6896 17.171 28.9553 18.9469 28.1955C20.1845 27.6094 21.4046 26.9786 22.5514 26.2284C23.6632 25.5451 25.0218 25.1867 26.3183 25.4575C28.064 25.7793 29.5963 26.8225 30.7957 28.1C31.3547 27.7782 31.9281 27.4835 32.5286 27.243C31.6048 26.3113 30.904 25.1023 30.7877 23.7771C30.716 23.4124 30.7192 23.0381 30.7495 22.6685ZM35.8719 19.8254C34.0959 20.0118 32.7134 21.8514 33.016 23.6051C33.1785 24.9494 34.2457 26.109 35.5597 26.4196C37.5427 26.9898 39.8172 25.2409 39.6675 23.1559C39.8156 21.1761 37.8008 19.467 35.8719 19.8254ZM22.5833 28.8486C19.3993 30.6309 15.8904 32.1807 12.1728 32.1425C13.5314 35.2197 16.4048 37.4448 19.592 38.3798C21.54 38.8146 23.5517 38.9468 25.5427 38.8226C25.6557 37.6248 25.9393 36.4541 26.1224 35.2675C26.4267 33.0997 27.5002 31.0625 29.0484 29.5239C28.0178 28.5252 26.7102 27.5345 25.1938 27.6588C24.1904 27.6699 23.4258 28.4074 22.5833 28.8486ZM43.6463 29.5319C45.1881 31.0721 46.2632 33.0997 46.5802 35.2627C46.7666 36.4478 47.0469 37.6216 47.1552 38.8194C49.143 38.9516 51.1547 38.8226 53.1011 38.3814C56.293 37.4528 59.168 35.2213 60.5314 32.144C60.1093 32.1361 59.6889 32.1345 59.2684 32.1026C55.4935 31.7251 51.9957 30.0288 48.8021 28.0633C48.4103 27.8228 47.9643 27.6619 47.5008 27.6588C45.9845 27.5345 44.6657 28.5173 43.6463 29.5319ZM32.5461 29.7246C30.5679 30.7774 29.0707 32.6872 28.51 34.855C27.8315 38.5056 27.2724 42.177 26.6481 45.8372C27.6212 46.065 28.604 46.2546 29.5724 46.5014C30.0391 43.9514 30.3322 41.3727 30.6284 38.7987C30.7224 38.1074 30.6667 37.405 30.7925 36.7185C30.8928 36.0193 30.638 35.1401 31.2671 34.6288C31.8533 34.0777 32.9523 34.4616 33.0638 35.2548C33.102 35.8473 33.0495 36.443 33.0224 37.0355C32.4458 44.8226 30.896 52.519 28.7665 60.0258C33.6484 61.7221 39.0861 61.7014 43.9744 60.0354C41.6967 51.9488 40.0163 43.6456 39.6325 35.2388C39.8539 34.4934 40.835 34.0681 41.4562 34.6113C41.9484 34.9426 41.8671 35.5669 41.907 36.0782C42.0408 38.6824 42.3657 41.2739 42.7272 43.8558C42.8403 44.7334 42.9996 45.6031 43.1525 46.4744C43.2051 46.4696 43.3134 46.46 43.3675 46.4552C44.2786 46.253 45.1881 46.0507 46.096 45.8341C45.8921 44.7987 45.7297 43.7555 45.5815 42.7122C45.4031 41.4921 45.1164 40.2912 44.9683 39.0679C44.7644 37.7777 44.5351 36.4924 44.293 35.2086C43.7275 32.2555 41.3272 29.7883 38.4299 29.0397C36.4771 28.5475 34.3189 28.7355 32.5461 29.7246Z" fill="#00A754"/>
</svg>
