<svg width="92" height="90" viewBox="0 0 92 90" fill="none" xmlns="http://www.w3.org/2000/svg">
<path fill-rule="evenodd" clip-rule="evenodd" d="M57.0449 0.835235C52.7177 3.09616 50.6982 4.37106 47.9014 6.60767C46.906 7.40374 46.0012 8.05494 45.8909 8.05494C45.7805 8.05494 44.7751 7.37063 43.6564 6.53398C39.9388 3.75389 34.1877 0.605853 33.3872 0.912522C32.6085 1.21086 28.9822 7.77689 27.7003 11.2095C26.8664 13.4425 27.5967 13.2496 21.7312 12.7875C18.0601 12.4982 12.7391 12.6777 12.3115 13.1054C12.0188 13.3981 12.1393 22.0079 12.4663 24.1659C12.9695 27.488 13.1333 27.1405 10.5618 28.2068C8.39767 29.1041 6.77394 29.9328 4.13389 31.4871C2.83191 32.2537 0.0693359 34.1766 0.0693359 34.3161C0.0693359 34.4635 1.90406 37.8625 2.7394 39.2628C3.80197 41.0437 5.53378 43.4876 6.75678 44.9317C7.29833 45.5713 7.74128 46.1466 7.74128 46.2101C7.74128 46.2735 7.09593 47.1798 6.30707 48.2243C5.51844 49.2686 4.34373 50.9751 3.69681 52.016C2.58527 53.8049 0.294981 58.3036 0.294981 58.6979C0.294981 59.3017 8.18873 63.5271 11.7465 64.8274L13.1568 65.3431V69.1755V73.0085L14.7927 72.8914C17.6083 72.69 21.7536 70.9034 23.8454 68.9899C24.7678 68.146 24.9041 68.0959 25.2739 68.4651C25.4546 68.6457 25.3393 69.1034 24.8513 70.1454C24.1538 71.6335 23.7681 74.2987 24.0742 75.5156C24.1974 76.0059 24.3501 76.1037 24.9928 76.1037C26.4222 76.1037 27.914 75.2069 28.8156 73.8054C29.4633 72.7991 29.3669 70.4865 28.6178 69.0443L28.0429 67.9377L29.0282 66.3996C29.7953 65.2019 30.0984 64.4345 30.3975 62.932C30.7822 60.9966 30.7494 60.5561 30.2203 60.5561C29.6772 60.5561 28.0065 62.209 26.7735 63.9661C26.0916 64.9376 25.4335 65.7946 25.3107 65.8706C25.0415 66.0365 24.2133 65.3323 24.2133 64.9371C24.2133 64.7826 23.8949 64.5454 23.5055 64.4096C23.1163 64.2742 22.6628 63.9855 22.4974 63.768C22.2356 63.4237 22.1961 63.5336 22.1898 64.6243C22.1832 65.7628 22.2537 65.9443 22.9724 66.64C23.4068 67.0605 23.762 67.4996 23.762 67.6158C23.762 68.2963 19.7798 70.8927 17.2816 71.8415L16.696 72.0636L16.8445 68.2814C16.9318 66.0538 17.17 63.6198 17.4242 62.3588C19.4921 52.0964 25.5048 44.311 41.0779 31.7301L44.5162 28.9521L44.4202 27.7984C44.3673 27.1637 44.2557 26.3169 44.1721 25.9167C44.0599 25.3779 44.1458 24.9764 44.5036 24.3708C44.8723 23.7464 44.9264 23.4803 44.7318 23.2461C44.5418 23.0173 44.5485 22.4925 44.7585 21.1866C44.9136 20.2226 45.1013 18.1665 45.1759 16.6174C45.3044 13.9425 45.336 13.7972 45.8035 13.7307C46.5933 13.6185 46.8497 14.3891 46.6678 16.3267C46.5205 17.8986 46.7141 19.7591 47.235 21.7763C47.3742 22.3154 47.3424 22.7149 47.1272 23.1306C46.8565 23.6537 46.8727 23.7827 47.2702 24.2732C47.6177 24.7016 47.6892 25.0306 47.5884 25.7352C47.5169 26.2353 47.4205 27.1699 47.3744 27.8121L47.2903 28.9797L50.8135 31.7823C63.9103 42.2005 70.5273 50.015 73.3652 58.4156C74.618 62.1236 74.7959 63.3808 74.9195 69.4003C74.9825 72.4675 74.9607 74.9771 74.8713 74.9771C74.3552 74.9771 71.9705 73.4507 71.4771 72.8047C69.968 70.8287 69.4722 68.7696 69.2336 63.4854C69.0807 60.0951 68.4541 56.6585 67.5993 54.523C66.9052 52.7889 65.472 50.5345 64.8533 50.2038C64.4426 49.9842 64.2738 50.1293 63.2319 51.5959C60.1226 55.9734 59.7471 58.6727 62.1118 59.6507C62.7057 59.8964 62.7725 60.0097 62.6272 60.5262C62.3683 61.4459 62.4289 64.2065 62.7803 67.4956C63.1472 70.9329 63.0941 71.0895 61.4896 71.3042C59.743 71.5381 58.5116 70.826 58.5116 69.5826C58.5116 68.6684 58.2427 68.5844 57.3546 69.2213C53.4667 72.0094 50.8587 72.6461 48.4183 71.403C47.4941 70.9321 46.617 69.637 46.8362 69.0668C46.907 68.8822 47.6086 68.4761 48.3947 68.1646C49.7944 67.6097 50.24 67.1557 50.4255 66.0956C50.5223 65.5426 50.0494 65.4216 46.0132 64.9659C42.0741 64.5213 37.7788 64.4993 36.7859 64.9189C35.4333 65.4906 34.9218 66.5161 35.3025 67.8926C35.4719 68.5052 35.8997 68.9631 37.2009 69.9239C38.1244 70.6062 38.8803 71.2689 38.8803 71.3966C38.8803 71.5244 38.4881 72.1036 38.0089 72.6834C37.5296 73.2633 36.9492 74.0672 36.7193 74.47C36.4892 74.8729 36.2362 75.2024 36.1572 75.2024C36.0783 75.2024 35.6775 74.9744 35.2666 74.6955C33.8564 73.7384 33.2401 71.7432 33.238 68.1303C33.2358 63.4911 32.5209 55.5353 31.8873 53.0959C31.762 52.6136 31.5542 51.8134 31.4252 51.3177C31.2964 50.8221 31.1072 50.4165 31.0047 50.4165C30.9022 50.4165 30.6515 50.8526 30.4477 51.3857C30.1165 52.2514 30.1121 52.462 30.4044 53.3574C31.0711 55.3987 31.8818 63.2211 31.886 67.654C31.8906 72.2937 32.5363 74.7412 34.1368 76.1851C34.6007 76.6037 35.1021 76.9868 35.2506 77.0361C35.4577 77.1052 35.4618 77.3888 35.268 78.2486C35.1288 78.8658 34.9741 80.1705 34.9244 81.1475C34.8745 82.1245 34.7881 82.9694 34.7321 83.0251C34.5263 83.2306 32.6139 82.2237 32.018 81.5963C31.6795 81.2398 31.164 80.4856 30.872 79.9201C29.8714 77.9823 29.3371 77.9503 27.7333 79.7317C27.0341 80.5082 26.5052 81.43 26.0275 82.7053C25.095 85.1947 24.6592 86.0113 24.05 86.4099C23.5916 86.7098 23.4763 86.7064 22.9752 86.3787C22.6666 86.1768 22.2099 85.6118 21.9604 85.1233C21.4429 84.1105 21.0161 81.5331 21.2077 80.5769C21.3601 79.8163 20.9456 79.6947 20.7453 80.4413C20.3682 81.8467 20.7908 85.0694 21.5462 86.5482C22.5407 88.4948 23.7591 89.0093 24.7771 87.9124C25.0753 87.5911 25.6454 86.4182 26.0436 85.3063C27.0064 82.6185 28.6562 80.4869 29.4122 80.9538C29.5361 81.0303 29.8802 81.5673 30.1772 82.1473C31.1359 84.0207 33.2692 85.5503 34.9393 85.5625C35.4563 85.5664 35.7208 85.7313 36.0196 86.2362C38.033 89.6398 41.6211 90.4651 45.8385 88.4943C46.804 88.0431 47.7513 87.3432 48.688 86.3895C50.055 84.9972 50.127 84.9573 51.4934 84.8335C52.3348 84.7574 53.391 84.4648 54.1334 84.1019C55.3693 83.4981 55.3727 83.4979 56.208 83.9097C57.8311 84.7101 60.1215 84.2451 62.4553 82.6417C63.6521 81.8193 63.927 81.7945 63.927 82.5091C63.927 83.2617 64.914 83.9905 65.9318 83.9893C66.9105 83.9884 68.0432 83.3439 68.585 82.4801C68.8023 82.1332 69.0121 81.8063 69.051 81.7533C69.0897 81.7005 69.4034 81.9269 69.748 82.2563C70.9747 83.43 72.4972 83.2017 73.2343 81.7337C73.7123 80.7826 73.7531 78.8362 73.3082 78.2311C72.9991 77.8106 72.9764 77.8197 72.7289 78.4675C72.5875 78.8379 72.5338 79.4715 72.6095 79.8757C72.7461 80.6026 72.7384 80.6102 71.8697 80.6102C70.7248 80.6102 70.1874 80.053 70.3843 79.0698C70.4627 78.6777 70.4867 78.357 70.437 78.357C70.3876 78.357 69.8926 78.9602 69.3371 79.6975C68.1768 81.2373 67.0738 81.869 65.9686 81.6267C65.1394 81.4447 64.7711 80.7331 64.9762 79.709C65.0506 79.3372 65.054 79.0329 64.9837 79.0329C64.9133 79.0329 64.2106 79.437 63.422 79.9307C61.7285 80.9908 59.6859 81.737 58.476 81.737C57.5344 81.737 57.495 81.6946 57.8392 81.0521C58.6529 79.5339 58.5159 76.5179 57.5794 75.3288C56.9561 74.5374 56.4312 74.6046 55.5689 75.5853C54.4065 76.9073 53.9564 78.1696 53.9089 80.2382C53.8629 82.254 53.7892 82.3374 52 82.3904C51.3641 82.4093 51.2682 82.3495 51.4023 82.0186C51.7361 81.1943 52.0279 78.6353 51.8788 77.8417C51.774 77.2833 51.4875 76.8357 50.9994 76.4667C49.7239 75.5033 48.6661 75.3705 42.9626 75.4588C39.1664 75.5174 37.6564 75.4688 37.5937 75.2853C37.5458 75.145 38.0105 74.4859 38.6265 73.8206C39.5284 72.8469 39.803 72.6662 40.0357 72.8928C40.4736 73.3198 40.6855 73.233 40.6855 72.6265C40.6855 72.2851 40.9195 71.9136 41.306 71.6406C41.8777 71.237 45.5242 69.3439 45.7296 69.3439C45.779 69.3439 45.8659 69.9024 45.9226 70.5854C46.0406 72.0063 46.8186 73.1697 48.1375 73.8978C48.788 74.257 49.2486 74.3142 50.8396 74.234C53.0041 74.1247 54.5178 73.5589 56.3198 72.1855C56.9069 71.738 57.4625 71.3723 57.5545 71.3728C57.6463 71.3731 57.9108 71.8326 58.1419 72.394C58.8376 74.083 60.7862 74.622 62.3704 73.5636C63.7363 72.651 63.9669 71.5246 63.7877 66.64C63.5831 61.063 63.5843 59.4663 63.7931 58.5246C63.9617 57.7648 63.9362 57.7209 63.1649 57.4423C62.0106 57.0256 61.429 56.2141 61.6739 55.3617C61.9573 54.3753 62.8506 52.8603 63.3159 52.5775C63.7887 52.2901 64.1348 52.655 65.4128 54.7886C66.9801 57.4048 67.6808 60.5595 68.1949 67.3159C68.5569 72.0747 69.1178 73.5694 71.0682 74.9739C72.6599 76.1202 75.3232 76.375 77.9905 75.6361L78.8539 75.397L78.7977 70.3077L78.7414 65.2181L80.3036 64.6182C83.4509 63.409 87.9231 60.9649 90.7337 58.9177L91.9298 58.0466L90.6828 55.6943C89.2631 53.0153 87.7344 50.6738 85.666 48.01C84.8791 46.9959 84.235 46.0941 84.235 46.0052C84.235 45.9163 84.5756 45.4278 84.9917 44.9192C86.5526 43.012 88.8326 39.3928 90.2347 36.5964C91.0321 35.006 91.6361 33.6262 91.5766 33.5302C91.4178 33.2733 86.8385 30.5291 85.1376 29.6715C84.3309 29.2647 82.6266 28.5187 81.3502 28.0135C80.0737 27.5083 79.0211 27.0178 79.0106 26.9232C79.0003 26.8287 79.1185 25.5788 79.273 24.1458C79.6422 20.7219 79.489 12.8355 79.048 12.5631C78.2074 12.0444 68.9384 12.4382 65.5956 13.1347C64.9054 13.2785 64.8858 13.258 64.2814 11.7381C62.9987 8.51236 58.949 1.38909 57.9982 0.685843C57.8235 0.55673 57.4727 0.611485 57.0449 0.835235ZM38.7675 7.46076C39.7604 8.0919 41.1529 9.05495 41.862 9.60091C43.314 10.7183 43.3147 10.6748 41.8066 12.3362C41.3001 12.8938 40.3077 14.089 39.6011 14.9921C38.6128 16.2551 38.212 16.6102 37.8649 16.5313C37.6166 16.475 35.9702 15.9231 34.2061 15.3053C32.442 14.6872 30.8821 14.1428 30.7397 14.0955C30.294 13.947 31.7913 10.2179 33.6401 6.8713L34.6055 5.12433L35.7839 5.71874C36.432 6.04569 37.7747 6.82939 38.7675 7.46076ZM57.7992 6.64664C58.821 8.33841 60.8846 12.6124 61.1073 13.4993C61.228 13.9792 61.149 14.1106 60.6147 14.3177C59.0227 14.9351 57.7527 15.2652 56.9804 15.262C55.8308 15.2575 53.4889 14.6838 52.4409 14.15C51.5381 13.6899 48.8088 11.0529 48.8088 10.6403C48.8088 10.0423 55.766 5.13492 56.624 5.12771C56.765 5.1266 57.2936 5.81001 57.7992 6.64664ZM49.7114 15.9272C49.7114 16.2382 52.334 17.4585 53.8095 17.8344C54.512 18.0132 56.0859 18.2773 57.3069 18.4213C64.4798 19.2668 66.9519 20.4552 68.5189 23.8111C69.1896 25.248 69.2106 25.3916 69.2199 28.5971C69.2253 30.4146 69.1567 31.9748 69.0674 32.0639C68.9783 32.1529 68.6736 32.0568 68.3905 31.85C65.2759 29.5749 65.3624 29.5935 57.7102 29.5577C54.2286 29.5413 50.9995 29.4565 50.534 29.3694C49.5511 29.1852 49.2183 28.5895 49.5171 27.5493C49.8257 26.4746 49.7516 24.6787 49.2241 20.4283C48.9535 18.2488 48.7969 16.2967 48.8762 16.0908C49.0274 15.6974 49.7114 15.5635 49.7114 15.9272ZM75.8861 18.9328C75.8861 21.9097 75.5502 25.603 75.2526 25.8978C75.0987 26.0497 73.3643 25.7223 72.7504 25.4252C72.5769 25.3411 72.295 24.7195 72.124 24.0433C71.3942 21.1591 69.7945 18.9635 67.5534 17.7706C66.7999 17.3697 66.1834 16.9554 66.1834 16.8499C66.1834 16.4641 69.7382 16.0459 73.5733 15.9808L75.8861 15.9414V18.9328ZM22.5535 16.399C25.6946 16.7273 25.6837 16.7246 25.6533 17.2059C25.6382 17.4398 25.41 18.8359 25.1455 20.3083C24.8811 21.7803 24.6646 23.2637 24.6646 23.6041C24.6646 24.471 24.3682 24.6262 22.1327 24.9286C21.0503 25.075 19.381 25.3953 18.4226 25.6399C17.4646 25.8846 16.6109 26.0079 16.5257 25.914C16.2619 25.6227 15.865 22.3314 15.7135 19.178L15.5689 16.1667H17.9492C19.2584 16.1667 21.3303 16.2713 22.5535 16.399ZM33.2392 18.7521C36.0869 19.7727 36.1951 19.8184 36.1263 19.9727C36.0898 20.055 35.552 21.1174 34.9315 22.3336L33.8033 24.5451L32.4727 24.4119C31.7409 24.3384 30.4874 24.2785 29.6873 24.2785H28.2326L28.3797 23.0955C28.6538 20.8896 29.2115 18.0873 29.4281 17.8266C29.6665 17.5399 30.2558 17.6829 33.2392 18.7521ZM40.2732 21.9328C40.9479 22.2811 40.9616 22.3198 40.7763 23.3412C40.6713 23.9187 40.5935 25.0824 40.6031 25.9272L40.6207 27.4632L38.3404 29.2922C37.086 30.2981 35.6992 31.4319 35.2585 31.812C34.8179 32.1919 33.8547 33.0098 33.1183 33.6295C30.5131 35.8214 26.7887 39.3325 25.2649 41.0329C24.4161 41.9801 23.6545 42.7547 23.5726 42.754C23.4906 42.7531 23.2546 42.4744 23.0479 42.1343C22.8413 41.7942 22.3941 41.0683 22.054 40.5212L21.4357 39.5264L21.9784 39.0826C22.669 38.518 27.7734 35.9955 28.2252 35.9955C28.5072 35.9955 28.5399 35.7567 28.4181 34.5917C28.3373 33.8195 28.2049 32.0288 28.1239 30.6121L27.9764 28.037L32.0869 28.1719C35.8163 28.2945 36.2093 28.2717 36.3277 27.9264C36.58 27.1897 39.3549 21.5746 39.4665 21.5746C39.5289 21.5746 39.8919 21.7357 40.2732 21.9328ZM24.3899 30.975L24.4538 33.5029L23.0444 34.2134C22.2693 34.6041 21.2527 35.1649 20.7852 35.4597C20.3176 35.7544 19.8844 35.9955 19.8224 35.9955C19.3772 35.9955 17.2518 30.0132 17.5806 29.6856C17.847 29.4202 23.0378 28.3411 23.762 28.4007C24.3232 28.4468 24.3264 28.4599 24.3899 30.975ZM74.3807 29.6885C74.675 29.9533 72.7422 35.8204 72.2632 36.1159C72.0067 36.2743 70.6962 35.6034 70.6962 35.3137C70.6962 35.1929 70.7896 35.0942 70.9034 35.0942C71.4037 35.0942 72.0657 33.4767 72.2991 31.685C72.6315 29.134 72.5879 29.2208 73.4519 29.3822C73.8599 29.4584 74.2779 29.5962 74.3807 29.6885ZM81.1888 31.9427C84.3032 33.2597 86.8431 34.7406 86.7607 35.1912C86.5705 36.2327 81.9215 43.206 81.4176 43.206C81.273 43.206 80.9085 42.9414 80.6075 42.6181C80.3067 42.2947 79.0451 41.2168 77.8041 40.2222C76.563 39.2278 75.5211 38.3925 75.4883 38.3662C75.4556 38.3395 75.6716 37.7701 75.9678 37.1005C76.2641 36.4308 76.8273 34.8689 77.2193 33.6295C77.6114 32.3903 77.979 31.2425 78.0363 31.079C78.1638 30.715 78.5106 30.81 81.1888 31.9427ZM14.8575 33.886C15.3906 35.3903 15.9877 36.9314 16.184 37.311C16.3806 37.6906 16.5414 38.0447 16.5414 38.0979C16.5414 38.1511 16.0083 38.5999 15.3568 39.0951C14.7054 39.5904 13.3598 40.7166 12.367 41.5975C11.3742 42.4789 10.4603 43.1987 10.3362 43.1976C9.89754 43.1933 4.87016 36.1922 4.81871 35.5143C4.78442 35.0619 12.7441 30.9917 13.4661 31.0922C13.7868 31.1368 14.1209 31.8076 14.8575 33.886ZM63.5577 33.1839C63.9318 33.34 63.9619 33.5282 63.829 34.874L63.6796 36.3884L64.6496 36.7741C66.3843 37.4633 70.2989 39.4815 70.3978 39.7374C70.4955 39.9904 69.0451 42.6336 68.6878 42.8543C68.5811 42.92 66.8317 41.3211 64.8002 39.3008C62.7684 37.2805 60.4718 35.0847 59.696 34.4211C58.9206 33.7575 58.2858 33.1174 58.2858 32.9989C58.2858 32.7488 62.9047 32.9111 63.5577 33.1839ZM18.8384 42.4355C19.1007 42.8793 19.7032 43.813 20.1773 44.5106L21.039 45.7785L20.5895 46.464C20.3422 46.8407 19.7111 47.8329 19.1869 48.668C18.6627 49.5037 18.1129 50.1882 17.9651 50.1891C17.5019 50.1924 13.1568 46.5827 13.1568 46.1947C13.1568 45.807 17.7234 41.6706 18.1851 41.6402C18.2823 41.6338 18.5763 41.9916 18.8384 42.4355ZM75.8324 43.3711C76.5446 43.9471 77.5297 44.7981 78.0216 45.2621L78.9161 46.1057L78.4729 46.6043C77.6449 47.5362 74.2534 50.4165 73.9972 50.4054C73.796 50.3966 71.4861 47.0491 71.1917 46.3396C71.1536 46.2484 71.7027 45.2066 72.4115 44.0246C73.8772 41.58 73.6684 41.62 75.8324 43.3711ZM12.1745 50.5361C13.1037 51.3455 14.3651 52.3811 14.9771 52.8373C15.5892 53.2939 16.0895 53.7723 16.0886 53.9006C16.0877 54.0293 15.7447 55.0469 15.3266 56.1622C14.9082 57.2777 14.3789 58.925 14.1501 59.8231C13.6748 61.6883 13.9091 61.6347 11.126 60.5144C9.51846 59.8672 5.91151 58.0405 5.3228 57.5755C5.00759 57.3263 5.55522 56.1246 7.15144 53.5631C8.06215 52.1022 10.2525 49.0821 10.4104 49.0701C10.4513 49.0669 11.2451 49.7267 12.1745 50.5361ZM83.3324 51.1441C84.1391 52.206 85.303 53.9087 85.919 54.9282L87.0387 56.7817L86.3703 57.3194C85.4975 58.0209 79.5811 60.964 78.7068 61.1312C78.0336 61.26 78.0277 61.2521 77.6619 59.7253C77.4595 58.8811 76.9426 57.2576 76.513 56.1176C76.0836 54.9777 75.7921 53.9636 75.8657 53.8635C75.9389 53.7637 76.7098 53.1055 77.5784 52.4012C78.4472 51.6966 79.6653 50.6575 80.285 50.092C80.9049 49.5263 81.5142 49.0974 81.639 49.1386C81.7638 49.1798 82.5258 50.0823 83.3324 51.1441ZM26.9211 50.6418C26.352 51.2101 26.3537 51.5029 26.9291 52.1147L27.3882 52.603L26.4879 53.4153C25.9928 53.8619 25.1658 54.4423 24.6503 54.7049L23.7131 55.1825L24.2862 54.432C25.481 52.8677 25.5138 51.5431 24.3576 51.5431C23.409 51.5431 22.3692 53.2417 23.0579 53.6667C23.5383 53.9633 23.4938 54.7607 22.968 55.2857C22.2838 55.9689 22.5266 55.9631 24.2733 55.2541C25.1416 54.9017 26.0797 54.2893 26.7291 53.6507C27.6842 52.7112 27.7996 52.6555 27.9967 53.0379C28.1164 53.2691 28.1692 53.6105 28.1146 53.7964C28.0261 54.0966 28.0417 54.0966 28.2544 53.7964C28.5586 53.3669 28.5715 52.2894 28.2745 52.1062C28.1443 52.0257 28.1087 51.5897 28.1907 51.0789C28.3185 50.2791 28.2852 50.1911 27.8527 50.1911C27.5885 50.1911 27.1694 50.3939 26.9211 50.6418ZM33.6948 51.1897C33.2901 52.6324 33.5059 54.0104 34.3507 55.3813C36.4472 58.7835 36.4569 60.7586 34.3897 63.3476C33.3189 64.6889 33.5761 64.8677 34.7499 63.5981C36.1144 62.1224 36.6724 60.8225 36.8023 58.8189C36.9376 56.7338 36.6161 55.5045 35.3725 53.3513C34.8195 52.3943 34.3659 51.4186 34.364 51.1829C34.3559 50.173 33.9787 50.1769 33.6948 51.1897ZM54.17 50.7682C53.5819 51.074 50.6818 52.4272 47.7256 53.7758C38.7786 57.8567 37.7521 58.4367 37.7521 59.4111C37.7521 59.5413 39.1484 58.9513 40.8547 58.1003C42.5612 57.2495 46.0896 55.5652 48.6958 54.3577C55.2021 51.343 56.0293 50.9107 56.0293 50.5259C56.0293 50.0467 55.4003 50.1286 54.17 50.7682ZM41.2715 50.9043C41.0734 51.1868 40.9112 51.6429 40.9112 51.9178C40.9112 52.659 40.4993 52.7776 40.2004 52.1221C40.0566 51.8072 39.689 51.3857 39.3835 51.186C38.9183 50.8815 38.7803 50.8719 38.5335 51.1264C38.2445 51.4246 38.1236 51.8462 38.1767 52.3703C38.1914 52.5152 38.5089 52.7007 38.8821 52.7828C39.6828 52.9584 40.0086 53.4714 40.0086 54.5568C40.0086 54.9914 40.1104 55.41 40.2347 55.4865C40.5133 55.6587 40.8717 54.7565 41.1747 53.1203C41.4351 51.7135 41.7577 51.1718 42.1202 51.5336C42.5769 51.9897 42.975 51.7933 42.9004 51.1488C42.8033 50.3068 41.7966 50.1558 41.2715 50.9043ZM27.6672 51.011C27.9074 51.251 27.6061 51.5319 27.2537 51.397C27.0721 51.3275 26.9798 51.1799 27.0486 51.0688C27.1949 50.8324 27.4631 50.8074 27.6672 51.011ZM60.5423 51.8678C60.2321 52.0363 58.0996 53.0055 55.8037 54.0212C53.5078 55.0372 49.7905 56.7615 47.5431 57.8529C44.3291 59.4141 43.428 59.9482 43.3213 60.356C43.2465 60.641 43.22 60.9088 43.2619 60.9507C43.3039 60.9926 45.153 60.1262 47.3708 59.0253C49.589 57.9244 52.7745 56.3956 54.4498 55.6278C59.6605 53.2402 61.3276 52.3556 61.4049 51.9374C61.4916 51.4698 61.3024 51.4544 60.5423 51.8678ZM24.6256 52.851C24.6971 53.3552 24.3337 54.0217 23.9876 54.0217C23.716 54.0217 23.2512 52.7229 23.4232 52.4451C23.6969 52.0027 24.5458 52.2894 24.6256 52.851ZM22.3261 57.3574C21.9989 57.8288 21.7312 58.2788 21.7312 58.3575C21.7312 58.4358 22.1883 58.8279 22.7466 59.2282C23.8887 60.0473 23.9521 60.2542 23.3109 61.0684C23.0627 61.3833 22.8596 61.7303 22.8596 61.8392C22.8596 61.9483 23.3718 62.4192 23.9979 62.8861C25.3393 63.886 25.737 63.8383 26.438 62.5923L26.9381 61.7041L25.8055 60.8599L24.6732 60.0156L25.1203 59.259C25.366 58.8429 25.5645 58.3814 25.5613 58.2337C25.5552 57.946 23.5495 56.5003 23.1565 56.5003C23.027 56.5003 22.6533 56.8861 22.3261 57.3574ZM26.9299 57.6672C26.922 58.4169 27.3647 59.2043 27.7947 59.2043C28.0544 59.2043 28.5006 58.6904 28.5006 58.3917C28.5006 58.2308 28.3165 58.1678 28.0497 58.2376C27.701 58.3286 27.5234 58.1827 27.2686 57.5968L26.9387 56.8383L26.9299 57.6672ZM42.381 59.0214C41.5658 60.7992 41.3265 62.2873 41.7085 63.2007C42.061 64.0429 42.7883 64.1932 43.1596 63.5002C43.5228 62.8224 43.463 62.4712 43.0435 62.8189C42.7545 63.0581 42.6283 63.0435 42.3186 62.7341C41.7905 62.207 41.8963 60.8921 42.5928 59.3189C42.9122 58.5981 43.1229 57.9576 43.0609 57.896C42.999 57.8342 42.6931 58.3406 42.381 59.0214ZM54.5611 58.9841C54.4706 59.2686 54.5665 59.8945 54.7899 60.4793C55.0016 61.0323 55.1083 61.5511 55.0271 61.632C54.7579 61.9012 54.1328 61.3175 53.975 60.6503C53.8896 60.2886 53.7564 59.7139 53.6793 59.3731C53.4031 58.1555 53.0538 58.7126 53.1323 60.2454C53.194 61.4473 53.1356 61.7842 52.8328 61.9787C52.1715 62.4032 51.7422 61.7877 51.7422 60.4159C51.7422 59.1835 51.5617 58.9446 51.0744 59.531C50.8208 59.8363 50.9733 61.2492 51.4343 62.8658C51.5967 63.4352 52.7572 63.3847 53.1745 62.79C53.4912 62.3383 53.5269 62.3351 54.0956 62.7071C54.6563 63.0742 54.7102 63.0733 55.1326 62.6916C55.6605 62.2146 55.7234 60.8795 55.278 59.6028C54.8976 58.512 54.7513 58.3858 54.5611 58.9841ZM59.2577 61.504C58.331 63.0742 58.0437 64.6405 58.5193 65.5283C58.9691 66.3672 60.091 65.8316 60.091 64.7779C60.091 64.5969 59.8758 64.4713 59.5833 64.4816C59.1573 64.4964 59.0645 64.3659 59.0065 63.6702C58.9632 63.1519 59.1174 62.4889 59.4172 61.902C59.9962 60.7683 59.8732 60.4614 59.2577 61.504ZM29.7458 62.8162C29.9414 63.1323 28.9731 64.7102 27.7451 66.0767C26.8324 67.0924 26.6978 67.1695 26.3779 66.8592C26.0556 66.5473 26.0943 66.4089 26.7935 65.3723C27.7152 64.0058 29.0236 62.584 29.3601 62.584C29.4932 62.584 29.6668 62.6884 29.7458 62.8162ZM65.0633 63.8018C65.0588 64.0375 65.3337 64.798 65.6739 65.4917C66.2402 66.6461 66.2907 66.962 66.2708 69.2312C66.2529 71.2407 66.1359 72.0693 65.6521 73.6084C65.3237 74.6529 65.0552 75.7898 65.0552 76.1354C65.0552 76.989 65.643 77.2767 66.5814 76.8826C67.5697 76.4676 67.573 75.6645 66.5889 74.8956L65.866 74.3306L66.229 73.1331C67.2319 69.8225 67.3004 67.9615 66.5011 65.7416C66.0153 64.3928 65.0762 63.1255 65.0633 63.8018ZM52.8893 65.7149C52.5066 66.1975 52.1935 66.6414 52.1935 66.7017C52.1935 66.9906 54.6898 68.6483 54.9657 68.5426C55.2429 68.4364 56.255 66.8894 56.255 66.5721C56.255 66.3862 54.0792 64.8373 53.8181 64.8373C53.6899 64.8373 53.2719 65.2321 52.8893 65.7149ZM43.8446 66.9556L46.2137 67.229L44.5215 68.0251C43.5906 68.463 42.2374 69.2003 41.5145 69.6637L40.1999 70.5064L38.9197 69.2893C38.2154 68.6201 37.36 67.8905 37.0187 67.6683C35.8086 66.8801 36.2463 66.6946 39.3316 66.6873C40.5106 66.6846 42.5414 66.8053 43.8446 66.9556ZM28.4191 71.5291C28.5113 71.8952 28.3713 72.1834 27.9024 72.5941C27.1596 73.2443 25.4749 73.8873 24.9957 73.7038C24.4453 73.4929 25.0226 71.8311 26.1839 70.2827L26.7477 69.5311L27.5202 70.279C27.9453 70.6905 28.3496 71.2529 28.4191 71.5291ZM42.4085 72.0036C42.0813 72.4751 41.8137 72.9603 41.8137 73.0821C41.8137 73.204 42.3382 73.6945 42.979 74.1722C44.2934 75.1522 44.5076 75.1173 45.3519 73.7855L45.8735 72.9624L44.6693 72.0544C44.0069 71.555 43.3612 71.1465 43.2342 71.1465C43.1072 71.1465 42.7357 71.5323 42.4085 72.0036ZM30.4186 76.1804C27.3451 77.4478 24.6646 78.8403 24.6646 79.1694C24.6646 79.5868 24.7226 79.576 26.0319 78.9136C26.6514 78.5998 28.2982 77.879 29.6912 77.3115C32.2663 76.2621 32.7879 75.9782 32.7879 75.6255C32.7879 75.2912 32.295 75.4065 30.4186 76.1804ZM66.6347 76.1116C66.6347 76.4514 65.7948 76.3664 65.659 76.0132C65.5922 75.8394 65.5948 75.64 65.6644 75.5705C65.8379 75.397 66.6347 75.8416 66.6347 76.1116ZM21.2623 76.836L20.5652 77.7937L21.1846 78.2444C21.5253 78.4921 22.0594 78.908 22.3712 79.168L22.9387 79.6412L22.4477 80.3296C22.1778 80.7081 21.9607 81.1542 21.9654 81.3209C21.9702 81.4877 22.5158 81.9997 23.178 82.4586C24.491 83.3686 24.6677 83.3432 25.4139 82.1392C26.0356 81.1355 25.9367 80.9717 23.9238 79.6756C23.7847 79.5859 23.8927 79.2129 24.2028 78.7121C24.481 78.2626 24.6548 77.7549 24.589 77.5839C24.4524 77.2281 22.5615 75.8784 22.1998 75.8784C22.0677 75.8784 21.646 76.3095 21.2623 76.836ZM48.6498 77.7009C49.9753 78.0136 51.2909 79.1611 51.2909 80.0044C51.2909 80.6423 50.4692 82.1876 50.1301 82.1876C49.757 82.1876 48.8326 81.122 48.6806 80.517C48.4718 79.6862 48.2344 79.7879 47.5401 81.0046C46.7562 82.3784 46.1696 82.8522 45.2447 82.8586C44.3358 82.8647 43.3933 82.012 43.3933 81.1838C43.3933 80.4584 43.1635 80.4638 41.9785 81.2169C41.4537 81.5504 40.5382 82.0593 39.9445 82.3477C38.6559 82.9735 36.3218 83.2868 36.0632 82.8689C35.7445 82.3541 35.6618 79.7698 35.9284 78.6648L36.1929 77.5683L41.8803 77.5069C45.5484 77.4672 47.952 77.5361 48.6498 77.7009ZM57.3022 78.357C57.6064 79.2894 57.4343 79.707 56.4596 80.3998L55.7608 80.8969L55.0821 80.2188C54.4759 79.6136 54.4329 79.4836 54.6805 79.0053C55.575 77.2764 56.8469 76.9618 57.3022 78.357ZM37.0767 79.0666C36.5338 79.8149 36.4525 80.0658 36.6674 80.3248C37.0372 80.7696 38.7959 81.9622 39.082 81.9622C39.353 81.9622 40.4599 80.4037 40.4599 80.0221C40.4599 79.7723 38.2565 78.1316 37.9208 78.1316C37.8295 78.1316 37.4498 78.5524 37.0767 79.0666ZM48.8076 84.0203C48.8103 84.3746 46.8248 85.8997 45.6767 86.4248C43.2829 87.5203 39.2513 87.299 38.0808 86.0076C37.6092 85.487 37.5524 85.5496 39.0434 84.9472C39.6917 84.6851 40.6747 84.1598 41.2278 83.7799C41.781 83.3998 42.279 83.0888 42.3348 83.0888C42.3904 83.0888 42.5636 83.3964 42.7195 83.7725C43.5981 85.8905 45.8608 85.8119 47.148 83.6186L47.7614 82.5733L48.2839 83.2254C48.5714 83.5842 48.8069 83.9417 48.8076 84.0203ZM60.8702 85.2033C58.1871 86.3009 54.6373 88.0107 54.1764 88.4274C53.9544 88.6278 53.7729 88.9213 53.7729 89.0792C53.7729 89.2588 54.7268 88.9189 56.3115 88.1755C57.7077 87.52 59.8146 86.6011 60.9936 86.1329C62.1725 85.6648 63.2119 85.1687 63.3031 85.0302C63.8376 84.2191 63.1573 84.2675 60.8702 85.2033ZM26.9408 86.5129L26.2444 87.4587L27.316 88.4215C27.9056 88.9512 28.5388 89.3611 28.7233 89.3324C28.9078 89.3039 29.2631 88.9559 29.5131 88.5591C29.7629 88.1626 30.065 87.8342 30.1844 87.8295C30.3038 87.8246 30.8322 88.2428 31.3584 88.7585C32.4137 89.7927 32.7024 89.7512 33.3669 88.4679C33.8605 87.5149 33.7764 87.2694 32.639 86.3387L31.5877 85.4784L30.8391 86.3431L30.0908 87.2076L29.0884 86.3876C28.5371 85.9365 27.9852 85.5675 27.8616 85.5675C27.7382 85.5675 27.3237 85.9929 26.9408 86.5129Z" fill="url(#paint0_linear_4141_15220)"/>
<defs>
<linearGradient id="paint0_linear_4141_15220" x1="45.9995" y1="0.617187" x2="45.9995" y2="89.5459" gradientUnits="userSpaceOnUse">
<stop stop-color="#07A562"/>
<stop offset="1" stop-color="#060707"/>
</linearGradient>
</defs>
</svg>
