<svg width="38" height="38" viewBox="0 0 38 38" fill="none" xmlns="http://www.w3.org/2000/svg">
<path d="M19.1776 1.21267C19.1935 1.01417 19.1595 0.801967 19.2519 0.617188C19.3053 1.32094 19.3118 2.02757 19.3378 2.73277C19.3429 2.88795 19.4605 3.00994 19.4793 3.16224C19.4584 3.31453 19.3234 3.43868 19.3393 3.59603C19.5002 3.83856 19.8005 4.06015 19.703 4.39145C19.685 4.58634 19.4418 4.62243 19.3746 4.787C19.5414 4.90681 19.7774 5.01653 19.7781 5.25616C19.8099 5.48858 19.6345 5.66758 19.4533 5.77874C19.5486 6.18511 19.986 6.34463 20.1729 6.69253C20.2819 6.93217 20.2855 7.22233 20.1794 7.46413C20.0307 7.72686 19.7254 7.82142 19.4526 7.89504C19.4576 7.93113 19.467 8.00331 19.4713 8.0394C19.6648 8.15272 19.8647 8.32523 19.8423 8.57425C19.8575 8.78646 19.6778 8.9236 19.5197 9.02682C19.532 9.19139 19.5197 9.38483 19.6612 9.50104C19.916 9.72479 20.2004 9.93844 20.5338 10.0265C20.5028 9.61508 20.5324 9.20294 20.5331 8.79079C20.5259 6.40887 20.5338 4.02839 20.5187 1.64647C20.5281 1.45014 20.4422 1.21411 20.6031 1.05676C20.7677 1.39456 20.658 1.78072 20.6919 2.1409C21.0939 2.30547 21.4758 2.522 21.8922 2.64976C22.936 3.01715 24.0201 3.26545 25.0342 3.7173C25.8881 4.13666 26.9066 3.88042 27.7597 4.30772C28.0831 4.43981 28.2946 4.73358 28.5963 4.90032C28.9016 5.07499 28.7854 5.4792 28.763 5.76358C28.6656 6.07251 28.937 6.32514 28.9232 6.62757C28.9413 6.86649 28.7377 7.02889 28.6583 7.23532C28.6316 7.53415 28.6605 7.8438 28.5486 8.12963C28.4238 8.47031 28.3624 8.84132 28.1841 9.15746C27.8521 9.37833 27.5634 9.65983 27.222 9.86554C26.8777 10.0835 26.4345 9.88431 26.0953 10.1167C25.538 10.4682 24.8256 10.5043 24.2078 10.3029C23.7754 10.1759 23.4225 9.88214 23.0233 9.68437C22.627 9.48877 22.3484 9.08673 21.9002 8.99434C21.5393 9.00155 21.2152 9.18056 20.9243 9.37833C20.9171 9.66994 20.9185 9.96226 20.9301 10.2531C21.5429 10.6112 22.1766 10.9309 22.7902 11.2875C24.9613 12.5189 27.0574 13.8932 29.0019 15.4609C29.422 15.7612 29.7627 16.1538 30.1828 16.4526C32.2283 18.2492 34.0682 20.307 35.4642 22.6521C36.7995 24.8955 37.7147 27.421 37.9197 30.0339V32.737C37.8093 34.1344 37.478 35.516 36.9316 36.8073C36.8702 37.184 36.9561 37.5709 36.9381 37.9527H1.1356C1.10817 37.4598 1.2749 36.9256 1.01361 36.4731C0.517019 35.2438 0.249955 33.9295 0.133746 32.6115C0.125084 32.226 0.109926 31.842 0.0810547 31.458C0.086829 30.1963 0.218917 28.9317 0.517019 27.704C1.13704 25.0853 2.40884 22.6529 4.03505 20.5207C5.97595 17.9756 8.40551 15.8434 10.9874 13.9711C13.4155 12.2879 15.9764 10.7988 18.629 9.49887C18.8297 9.43752 18.9177 9.24408 18.9235 9.04847C18.7423 8.93876 18.6059 8.7778 18.5373 8.57642C18.5807 8.46959 18.611 8.35483 18.6781 8.25883C18.782 8.14551 18.9769 8.10003 18.9892 7.92247C18.7813 7.86617 18.5518 7.83153 18.3887 7.67778C18.1598 7.47135 18.1404 7.12489 18.2024 6.84195C18.3324 6.41536 18.7813 6.19377 18.9336 5.77874C18.7748 5.67769 18.6124 5.53766 18.6131 5.33195C18.5713 5.04829 18.8448 4.87578 19.0686 4.78266C18.9018 4.63686 18.6268 4.5091 18.6608 4.24637C18.6579 3.94033 18.9329 3.75483 19.0758 3.51447C19.0758 3.36795 18.9372 3.25318 18.9596 3.10521C19.0137 2.95941 19.1126 2.82444 19.104 2.66203C19.1126 2.17843 19.153 1.69627 19.1776 1.21267ZM20.7114 2.9955C20.6955 3.58015 20.7201 4.16625 20.7554 4.74946C20.7814 6.02559 20.8449 7.30028 20.8832 8.5757C21.1105 6.72574 21.13 4.82092 20.7114 2.9955Z" fill="#FF0000"/>
</svg>
