<svg width="40" height="41" viewBox="0 0 40 41" fill="none" xmlns="http://www.w3.org/2000/svg">
<path d="M23.4996 36.3916C31.0662 27.5677 18.0056 7.17309 30.1457 3.47852H10.2604C-1.37266 7.17309 10.6717 28.2452 3.61426 35.6919C3.61426 35.6919 6.01346 37.7621 13.3784 37.7621C20.7433 37.7621 23.4996 36.3916 23.4996 36.3916Z" fill="white"/>
<path d="M35.6593 17.4492H25.1171C23.1029 6.00698 28.1883 3.39286 31.1596 3.47858C37.3307 4.43852 36.8307 13.1923 35.6593 17.4492Z" fill="#72E492"/>
<path d="M35.6593 17.4492H25.1171C23.1029 6.00698 28.1883 3.39286 31.1596 3.47858C37.3307 4.43852 36.8307 13.1923 35.6593 17.4492Z" stroke="black" stroke-width="1.71455" stroke-linecap="round" stroke-linejoin="round"/>
<path d="M23.4996 36.3916C31.0662 27.5677 18.0056 7.17309 30.1457 3.47852H10.2604C-1.37266 7.17309 10.6717 28.2452 3.61426 35.6919C3.61426 35.6919 6.01346 37.7621 13.3784 37.7621C20.7433 37.7621 23.4996 36.3916 23.4996 36.3916Z" stroke="black" stroke-width="1.71455" stroke-linejoin="round"/>
<path d="M12.3906 11.875H17.6933" stroke="black" stroke-width="1.71455" stroke-linecap="round" stroke-linejoin="round"/>
<path d="M13.0767 20.6191H18.3794" stroke="black" stroke-width="1.71455" stroke-linecap="round" stroke-linejoin="round"/>
<path d="M13.0767 29.3672H18.3794" stroke="black" stroke-width="1.71455" stroke-linecap="round" stroke-linejoin="round"/>
</svg>
