<svg width="47" height="56" viewBox="0 0 47 56" fill="none" xmlns="http://www.w3.org/2000/svg">
<path d="M23.4802 0C23.7853 0.286406 23.9983 0.646213 24.1825 1.01753C26.9502 6.17572 30.9167 10.6589 33.0942 16.1366C33.667 17.6996 34.1895 19.3288 34.1765 21.0098C34.2068 22.2073 34.201 23.4076 34.1118 24.6007C33.5246 28.2189 31.8738 31.7321 29.1781 34.2536C28.6038 34.8048 27.913 35.2093 27.2582 35.6511C27.1848 36.4686 27.2668 37.2961 27.2179 38.1179C27.0077 39.8954 26.681 41.7261 25.6952 43.2589C25.167 44.1483 24.3365 44.8737 23.3449 45.1917C22.4468 45.4249 21.3501 45.3241 20.737 44.547C20.0707 43.8993 19.9858 42.9393 19.9973 42.0629C19.4489 42.0485 19.2043 42.6011 18.8732 42.9422C17.8715 44.0303 16.8454 45.2061 15.4133 45.7214C14.0691 46.2596 12.4773 46.2366 11.2237 45.4781C9.88525 44.5182 9.42182 42.7609 9.36282 41.195C8.8706 41.2497 8.38702 41.3591 7.90344 41.4598C5.89859 41.7664 3.66347 41.4238 2.12638 40.0091C0.659807 38.6058 0.00351924 36.529 0.0150331 34.5328C-0.118815 31.6472 0.646854 28.7514 2.0832 26.2544C2.33219 25.8212 2.6445 25.4268 2.97984 25.0555C2.77691 25.8197 2.42574 26.5293 2.1307 27.259C1.4557 28.9774 0.93326 30.798 1.02537 32.6618C0.93326 34.2291 1.48592 35.8281 2.5639 36.9737C3.72824 38.1381 5.4035 38.6159 7.01544 38.6361C7.67604 38.6648 8.31794 38.4691 8.9771 38.4749C8.99149 36.873 8.944 35.2726 8.94256 33.6722C8.92385 32.954 8.97854 32.2315 8.86484 31.5191C8.78712 30.6498 8.84613 29.7747 8.77993 28.9054C8.63025 27.8491 8.71516 26.7783 8.65903 25.7161C8.4561 24.3589 8.51511 22.9758 8.30498 21.6172C8.20856 21.1423 8.26181 20.6486 8.15099 20.1751C7.97108 19.2295 7.89912 18.2379 7.47023 17.3614C7.41698 17.2103 7.31048 17.1412 7.14928 17.1556C6.5592 17.0491 6.16197 17.6118 5.89572 18.0537C5.27541 19.2928 4.80046 20.7551 5.20057 22.1339C5.53303 22.1324 5.83815 22.013 6.12743 21.8604C6.1044 22.321 5.91731 22.7729 5.55894 23.0751C5.17466 23.2133 4.91272 22.9067 4.66518 22.6678C4.66086 21.7971 4.55292 20.9005 4.8091 20.0528C5.15595 18.5977 5.54886 17.1354 6.2325 15.7984C6.50595 15.3019 6.80963 14.7665 7.33494 14.5017C7.65014 14.3908 8.06895 14.3966 8.25893 14.719C8.91378 15.6156 9.08217 16.7555 9.311 17.8162C9.68376 20.0168 9.90972 22.2361 9.9932 24.4669C10.1947 25.6067 10.0796 26.7696 10.14 27.9196C10.3559 29.4926 10.163 31.0888 10.3573 32.6633C10.3803 34.4335 10.3933 36.2038 10.4135 37.9726C10.8136 37.9625 11.2079 37.8805 11.5835 37.7394C13.8474 36.9507 16.0221 35.9174 18.1004 34.7228C19.1395 34.0924 20.2103 33.4879 21.0968 32.6446C20.7485 32.3913 20.37 32.1768 19.9584 32.0487C17.814 31.3219 15.6033 30.811 13.4358 30.1619C13.1768 30.0799 12.9321 29.9633 12.686 29.8525C12.7263 29.1271 12.9048 28.4147 13.135 27.7282C13.2372 27.2849 13.7323 27.1812 14.0907 27.0186C16.3013 26.2141 18.6991 25.6254 20.5111 24.0409C20.619 23.4997 20.2477 23.0276 19.7929 22.7873C18.9265 22.3123 17.9089 22.2994 16.9475 22.2476C15.9789 22.2044 14.8319 22.4865 14.0605 21.728C13.2056 20.9724 13.3826 19.739 13.4545 18.7229C13.7899 17.4636 14.4001 16.164 15.5573 15.4703C16.4668 14.9262 17.5952 15.3033 18.4256 15.82C20.0462 16.9095 20.9745 18.7661 21.412 20.6227C21.7776 22.3785 21.7186 24.3604 20.6521 25.8759C19.9311 26.8661 18.9509 27.6274 18.0039 28.3931C18.9869 28.7486 19.9814 29.0796 20.9313 29.5186C21.4423 29.7704 21.9978 30.087 22.205 30.6512C22.264 31.1708 22.254 31.7004 22.1964 32.22C21.7229 33.8161 20.7284 35.2539 19.3813 36.2383C16.7863 38.1798 13.8287 39.5989 10.7891 40.697C10.897 41.6368 11.3648 42.6976 12.3578 42.9653C13.7496 43.2776 15.2579 43.0804 16.5244 42.4212C18.096 41.6412 19.1337 40.1703 20.4377 39.0534C20.6017 38.862 20.8421 39.0448 21.0421 39.0649C20.8219 39.9817 20.6737 41.1302 21.4336 41.847C21.9762 42.4385 22.8426 42.2874 23.5594 42.2485C24.279 42.0211 25.0274 41.6699 25.5081 41.0712C26.0895 39.5341 25.6246 37.8819 25.6347 36.2959C23.8371 36.6226 22.0971 37.4343 20.2434 37.3321C21.9258 36.1692 23.7983 35.3114 25.5124 34.1946C25.5498 33.6117 25.38 33.0475 25.3598 32.469C25.3613 31.2442 25.1627 30.0324 25.1655 28.8061C24.5064 28.8882 23.9494 29.366 23.2672 29.2984C23.8141 28.8176 24.479 28.5111 25.0893 28.1268C24.8705 26.3335 24.8619 24.5216 24.646 22.7297C24.6632 21.7496 24.5092 20.7796 24.4718 19.8009C24.2775 18.8237 24.4546 17.8162 24.2444 16.8404C24.1869 15.6847 24.0875 14.5333 24.0401 13.3762C23.827 12.3874 23.9954 11.367 23.8314 10.3725C23.7608 9.84144 23.7983 9.30173 23.7047 8.77209C23.5853 7.96324 23.7148 7.13713 23.5666 6.32972C23.4428 5.66336 23.5191 4.98117 23.4471 4.31049C23.3766 3.79524 23.0484 3.36635 22.916 2.86982C22.7707 1.87675 23.1909 0.928302 23.4802 0ZM25.3498 9.49602C25.3109 10.3207 25.5484 11.1209 25.5253 11.9456C25.5944 13.0063 25.6721 14.067 25.7902 15.1234C25.7527 16.0834 25.9513 17.0246 25.9859 17.9803C26.1169 18.8395 26.0089 19.7174 26.2047 20.5694C26.2565 21.9712 26.3399 23.3731 26.5011 24.7662C26.5242 25.5736 26.4867 26.3897 26.6911 27.1798C27.4021 26.7883 28.0685 26.3192 28.6758 25.7809C28.2944 25.6096 27.8914 25.4038 27.7115 25.0008C27.5921 24.5475 27.8223 24.1171 27.9274 23.6882C28.0037 23.3385 28.0814 22.9888 28.1634 22.6405C29.2184 22.5225 30.1899 23.173 30.8519 23.9401C31.3945 24.5057 31.0851 25.4254 30.6058 25.9277C30.0589 26.0874 29.3638 25.5636 28.9723 26.1277C28.339 26.8258 27.6424 27.4878 26.7818 27.898C26.7717 28.8565 26.7544 29.8251 26.9257 30.7721C26.9919 31.5695 26.9228 32.3769 27.0984 33.1641C27.6813 32.692 28.293 32.2531 28.86 31.7609C30.9527 29.9676 32.5761 27.5022 32.9546 24.736C32.9849 24.2092 33.1259 23.6969 33.1273 23.1687C33.077 20.7465 32.3113 18.3832 31.1642 16.2604C29.499 13.1387 27.297 10.3538 25.3526 7.40914C25.0547 8.0755 25.3944 8.79944 25.3498 9.49602ZM15.5486 18.1371C15.1586 18.3242 15.2651 18.7977 15.3169 19.1403C16.2423 19.7117 17.3779 19.467 18.404 19.49C17.7981 18.579 16.6928 17.6867 15.5486 18.1371ZM28.08 24.6295C28.4239 24.7159 28.7665 24.8065 29.1148 24.8727C29.0989 24.4741 29.2544 23.9243 28.7521 23.776C28.3261 23.8322 28.1562 24.2625 28.08 24.6295ZM29.6012 23.943C29.5753 24.2711 29.5566 24.6022 29.535 24.9317C29.8848 24.9346 30.3755 25.3362 30.5957 24.913C30.4633 24.4323 29.9956 24.1805 29.6012 23.943Z" fill="#D4D4D4"/>
<path d="M20.0994 3.14752C20.2404 3.10434 20.3843 3.0698 20.5311 3.04102C20.4189 3.45695 20.1613 3.83547 20.1469 4.27443C20.5096 4.75657 21.104 5.12358 21.1889 5.76979C21.222 6.40017 21.1529 7.14281 20.6204 7.56307C20.3584 7.81493 19.9943 7.89265 19.6604 7.99915C19.3941 7.88833 19.0905 7.80198 18.9221 7.54868C18.853 6.96003 18.853 6.34836 19.043 5.77987C19.3064 4.87171 19.6273 3.96932 20.0994 3.14752ZM19.6518 5.48195C19.2934 5.83743 19.3366 6.37571 19.3078 6.8377C19.8878 7.09964 20.429 6.66067 20.8665 6.32821C20.5283 5.97848 20.19 5.4877 19.6518 5.48195Z" fill="#D4D4D4"/>
<path d="M15.6351 6.72461C16.4281 7.29023 17.2585 7.87311 17.8385 8.66469C17.6759 9.39582 16.9764 9.88515 16.8311 10.5976C17.3147 11.0452 17.8932 11.3848 18.3336 11.8814C18.5337 12.0282 18.479 12.2843 18.4401 12.493C18.1149 13.1551 17.6658 13.7466 17.2168 14.328C16.4195 13.725 15.6941 13.0371 14.9399 12.3851C15.2379 11.7 15.8423 11.1445 16.0266 10.4249C15.543 9.88371 14.9083 9.50664 14.4146 8.977C14.2851 8.58409 14.5945 8.25451 14.7715 7.93644C15.045 7.52338 15.2594 7.05851 15.6351 6.72461Z" fill="#D4D4D4"/>
<path d="M20.1484 10.427C19.7828 9.98658 20.2232 9.46846 20.5096 9.12305C21.6466 10.1334 22.1878 11.6532 22.3331 13.1342C22.4051 14.2381 22.29 15.3779 21.8006 16.3825C21.6567 15.2599 21.946 14.0956 21.5732 13.0018C21.3401 12.0288 20.7644 11.1955 20.1484 10.427Z" fill="#D4D4D4"/>
<path d="M10.874 14.8972C10.5977 13.1816 11.2266 11.4646 12.1722 10.0527C11.6857 11.2459 11.205 12.5023 11.2712 13.812C11.2799 14.084 11.4223 14.4381 11.7577 14.3301C12.1938 14.4078 12.3161 13.9372 12.3506 13.6033C12.3895 13.6263 12.4687 13.6724 12.509 13.6954C12.4442 14.3474 12.2816 15.0785 11.6742 15.4412C11.2957 15.5506 11.0625 15.1562 10.874 14.8972Z" fill="#D4D4D4"/>
<path d="M26.6997 17.0986C26.5932 15.504 27.1934 13.941 28.1044 12.6543C27.497 13.9467 27.0077 15.373 27.261 16.818C27.5431 17.267 27.995 16.8065 28.3447 16.7144C28.2311 17.2483 28.0324 17.8873 27.4495 18.0701C26.9717 18.0428 26.7343 17.5203 26.6997 17.0986Z" fill="#D4D4D4"/>
<path d="M29.8085 19.4585C30.3798 19.1951 30.9195 18.8368 31.5485 18.7188C31.4477 19.0008 31.406 19.3506 31.0894 19.4743C29.6976 20.1896 28.2829 20.8574 26.8926 21.5727C26.9314 21.2763 26.9559 20.9467 27.2495 20.7869C28.0483 20.2501 28.9593 19.9076 29.8085 19.4585Z" fill="#D4D4D4"/>
<path d="M10.992 25.6203C10.8899 24.017 11.4583 22.4166 12.4025 21.1328C11.8541 22.1878 11.5533 23.3535 11.4152 24.5294C11.3864 24.8403 11.5145 25.1339 11.5836 25.4303C11.9304 25.4231 12.2773 25.3944 12.6241 25.3699C12.473 25.842 12.2744 26.3846 11.7606 26.563C11.2885 26.5342 11.0093 26.0535 10.992 25.6203Z" fill="#D4D4D4"/>
<path d="M22.5217 24.3755C22.7289 23.7408 23.0197 23.132 23.3766 22.5664C22.893 23.6429 22.562 24.8116 22.7851 26.0004C23.1549 25.9731 23.4529 25.7629 23.709 25.5139C23.5824 25.9687 23.4183 26.4149 23.1549 26.8107C22.9822 26.815 22.8095 26.8193 22.6368 26.8251C22.0986 26.1011 22.3058 25.1772 22.5217 24.3755Z" fill="#D4D4D4"/>
<path d="M36.0663 26.7418C35.7741 25.7775 36.3311 24.6492 37.2551 24.2534C37.4681 24.2347 37.7113 24.2232 37.8307 24.4405C38.382 24.9931 38.0855 25.8207 38.1834 26.5086C38.4237 26.6497 38.6785 26.7634 38.9274 26.89C38.9188 27.2786 38.8713 27.6658 38.7389 28.0328C38.4683 27.9536 38.2093 27.7637 37.9243 27.7651C37.5098 28.3034 37.2263 28.9366 36.7859 29.4591C35.5985 30.8897 34.1247 32.0569 32.5445 33.0255C31.9141 33.4025 31.3096 33.8473 30.5986 34.0617C30.9081 33.5681 31.4032 33.2442 31.832 32.8643C33.4195 31.4826 35.0818 30.1801 36.5225 28.6401C36.7772 28.3178 37.232 28.0126 37.1903 27.5636C36.8003 27.3132 36.3296 27.1505 36.0663 26.7418ZM36.5945 25.8005C36.7931 26.1935 37.2608 26.2625 37.6523 26.3244C37.6192 26.0035 37.5515 25.6797 37.3616 25.4105C37.0334 25.3314 36.7931 25.5832 36.5945 25.8005Z" fill="#D4D4D4"/>
<path d="M6.97235 25.3991C7.18247 25.3631 7.40267 25.3588 7.60992 25.4221C7.75385 25.6006 7.87474 25.8007 7.95678 26.0165C7.89489 26.2209 7.82581 26.421 7.74953 26.621C7.53221 26.4742 7.31776 26.326 7.10044 26.1806C6.77085 26.5159 6.61398 26.9664 6.54058 27.4227C6.43839 28.0372 6.20812 28.6388 6.20956 29.2663C6.68738 29.6376 7.64015 29.9773 7.32208 30.7458C7.28466 31.0711 6.93924 31.1431 6.6845 31.2424C6.27144 31.3863 5.81665 31.4583 5.46979 31.7432C5.4223 32.5146 5.71734 33.253 5.80369 34.0129C5.95049 35.0765 6.02246 36.1631 5.88285 37.231C5.78067 36.769 5.64682 36.307 5.6425 35.8306C5.58061 34.4245 5.06825 33.0688 5.09128 31.6569C5.06825 31.0812 5.61803 30.7358 6.08434 30.54C6.08002 30.4566 6.06851 30.2882 6.06419 30.2032C5.82096 30.3141 5.58205 30.4321 5.3417 30.5487C5.27694 30.0291 5.59501 29.6261 5.81521 29.1915C5.67272 28.4704 5.34602 27.8012 5.07544 27.1219C4.8682 27.1118 4.65951 27.1147 4.45514 27.083C4.23925 26.9117 4.06223 26.7002 3.88232 26.4958C4.07518 26.1878 4.28099 25.8884 4.53286 25.6265C5.47555 26.0194 5.82096 27.0341 5.99511 27.9566C6.34484 27.1147 6.31894 26.0914 6.97235 25.3991Z" fill="#D4D4D4"/>
<path d="M38.9793 35.4665C39.7349 33.0428 40.4113 30.5818 41.3857 28.2344C41.4677 28.2473 41.6332 28.2732 41.7153 28.2862C41.8304 28.6388 41.9125 29.0029 41.9355 29.3742C42.1269 30.7789 42.409 32.1707 42.5184 33.5854C42.8393 35.3384 42.5947 37.2713 41.4893 38.7177C42.7846 39.2776 44.103 39.8921 45.0989 40.9226C45.8272 41.635 46.5957 42.5101 46.5511 43.5967C46.564 44.7869 46.659 46.16 45.7394 47.0724C45.0356 47.9 43.8511 47.8064 42.8825 47.6798C41.3123 47.1717 40.1436 45.8448 39.3981 44.4199C38.8181 43.3966 38.595 42.2309 38.3345 41.0982C38.123 41.1644 37.91 41.2248 37.6955 41.2795C37.72 40.9931 37.756 40.7067 37.851 40.4361C37.2249 40.5297 36.6247 40.7355 36.0217 40.9212C35.9641 42.2064 35.6216 43.4931 34.9596 44.6013C34.4198 45.5699 33.575 46.3096 32.7734 47.0552C30.9081 48.5764 28.84 49.8242 26.7444 50.9986C25.7226 51.5427 24.6921 52.0766 23.6285 52.54C22.5433 53.0006 21.356 53.1129 20.2233 53.405C18.0688 53.8944 15.9143 54.3736 13.7482 54.8097C13.0085 54.9738 12.2572 55.1321 11.4944 55.0515C17.85 52.3673 24.2661 49.7494 30.2547 46.2996C31.7601 45.3914 33.2944 44.4487 34.4414 43.0915C34.8919 42.5777 34.9538 41.8394 34.7048 41.2191C33.4527 41.4177 32.1746 41.4537 30.9081 41.3587C30.082 41.2018 29.2156 40.77 28.8687 39.9583C28.6975 38.9465 28.7565 37.8527 29.2487 36.9316C29.728 35.9083 30.5555 34.9311 31.704 34.6807C32.3992 34.4893 33.1073 34.8203 33.6297 35.265C34.5738 36.0782 35.246 37.1561 35.7929 38.2644C36.6521 38.0859 37.5041 37.834 38.3 37.4613C38.68 36.8611 38.7534 36.13 38.9793 35.4665ZM39.7723 35.0937C39.5823 35.7615 39.2801 36.4135 39.2931 37.123C40.3063 36.7244 41.4764 36.0998 41.734 34.9469C41.7743 33.8905 41.3411 32.8816 40.9511 31.9202C40.4142 32.9176 40.1379 34.0273 39.7723 35.0937ZM30.4217 37.5116C30.1295 37.775 30.2015 38.3622 30.5973 38.4932C31.4349 38.9163 32.4208 38.7782 33.3044 38.5968C32.8525 37.9549 32.202 37.2425 31.3442 37.3029C31.0333 37.3346 30.6318 37.2108 30.4217 37.5116ZM40.9424 42.0639C41.2519 42.7619 41.6476 43.4326 42.1989 43.968C42.8508 44.6444 43.7432 45.2201 44.7204 45.1367C44.9996 45.1251 45.3263 45.1539 45.5105 44.8963C45.5969 44.5883 45.3436 44.371 45.1752 44.1522C44.3505 43.2124 43.1905 42.6598 42.0506 42.1963C41.7052 42.0279 41.3123 42.0682 40.9424 42.0639Z" fill="#D4D4D4"/>
<path d="M3.36849 29.1188C3.40447 29.1145 3.47787 29.1059 3.51529 29.1016C3.54264 29.2872 3.39152 29.4211 3.31236 29.5707C2.96838 30.0831 2.95399 30.7207 2.79568 31.3007C2.77409 31.649 2.67766 32.0664 2.95831 32.3384C3.30948 32.419 3.66785 32.2736 3.63187 31.8634C3.71103 31.8548 3.8679 31.8347 3.94706 31.826C3.90964 32.0966 3.69519 32.2938 3.6405 32.5615C3.55127 32.8997 3.27494 33.3027 2.8734 33.2019C2.4992 33.1343 2.47761 32.6579 2.3855 32.3629C2.47473 31.8116 2.47617 31.2431 2.66615 30.7121C2.84893 30.1594 3.14109 29.6528 3.36849 29.1188Z" fill="#D4D4D4"/>
<path d="M11.2483 30.366C11.3476 30.1559 11.4858 29.9688 11.6139 29.7773C12.6242 30.7344 12.9048 32.2168 12.6659 33.5452L12.4443 33.7266C12.4313 33.017 12.3637 32.2902 12.0456 31.6455C11.8384 31.1835 11.4829 30.8121 11.2483 30.366Z" fill="#D4D4D4"/>
<path d="M36.1972 35.3778C35.9914 33.6853 36.6189 31.9971 37.5803 30.627C37.0665 31.6718 36.7355 32.8045 36.6031 33.9616C36.5556 34.3416 36.6117 34.759 36.9053 35.0339C37.2262 35.0367 37.5098 34.8597 37.8048 34.759C37.6983 35.2397 37.5486 35.7895 37.0823 36.0485C36.6247 36.2025 36.2519 35.8067 36.1972 35.3778Z" fill="#D4D4D4"/>
<path d="M13.4861 34.6561C14.5339 34.2172 15.4881 33.5306 16.5934 33.25C16.4855 33.5335 16.4322 33.8905 16.1141 34.0142C14.7282 34.7324 13.3105 35.3887 11.926 36.1083C11.9015 35.2419 12.8629 34.9886 13.4861 34.6561Z" fill="#D4D4D4"/>
<path d="M22.3519 40.9575C22.1677 39.6406 22.6628 38.3381 23.3724 37.25C23.1637 37.7969 22.9089 38.3294 22.7837 38.9037C22.7089 39.4923 22.7118 40.091 22.7924 40.6797C23.0903 40.6149 23.3839 40.5257 23.6804 40.4494C23.5105 40.8178 23.3824 41.2338 23.0529 41.4943C22.7146 41.5763 22.4239 41.2582 22.3519 40.9575Z" fill="#D4D4D4"/>
<path d="M27.107 45.4849C27.0048 43.9363 27.5546 42.4021 28.4081 41.127C27.995 42.1546 27.6669 43.2181 27.5287 44.3192C27.4884 44.7006 27.6583 45.0546 27.7532 45.4158C28.0943 45.3468 28.4095 45.1985 28.7262 45.0589C28.6628 45.5555 28.4685 46.1786 27.9677 46.3787C27.4337 46.5255 27.1473 45.9196 27.107 45.4849Z" fill="#D4D4D4"/>
<path d="M18.4731 45.9395C19.4158 46.2374 20.2664 46.8764 20.9486 47.5946C20.7514 48.3271 20.3988 49.0237 19.9181 49.6095C19.5079 49.7275 19.1999 49.3749 18.8934 49.1705C18.4227 48.805 17.8845 48.5315 17.4354 48.1386C17.6571 47.3628 18.1018 46.6533 18.4731 45.9395Z" fill="#D4D4D4"/>
</svg>
