<svg xmlns="http://www.w3.org/2000/svg" width="317.865" height="317.865" viewBox="0 0 317.865 317.865">
  <path id="elem-4" d="M-3874,248h-.015a124.869,124.869,0,0,1-24.976-2.518,123.364,123.364,0,0,1-23.276-7.225,123.974,123.974,0,0,1-21.062-11.432,124.828,124.828,0,0,1-18.352-15.142,124.893,124.893,0,0,1-15.142-18.352,123.978,123.978,0,0,1-11.432-21.063,123.421,123.421,0,0,1-7.225-23.276A124.919,124.919,0,0,1-3998,124a124.919,124.919,0,0,1,2.52-24.991,123.424,123.424,0,0,1,7.225-23.276,123.968,123.968,0,0,1,11.432-21.063,124.9,124.9,0,0,1,15.142-18.352,124.828,124.828,0,0,1,18.352-15.142,123.974,123.974,0,0,1,21.063-11.432,123.285,123.285,0,0,1,23.276-7.225A124.927,124.927,0,0,1-3874,0a124.926,124.926,0,0,1,24.991,2.519,123.366,123.366,0,0,1,23.276,7.225,123.976,123.976,0,0,1,21.063,11.432,124.917,124.917,0,0,1,18.352,15.142,124.811,124.811,0,0,1,15.142,18.352,124,124,0,0,1,11.432,21.063,123.306,123.306,0,0,1,7.225,23.276A124.919,124.919,0,0,1-3750,124h-29c0-.165,0-.334,0-.5A94.607,94.607,0,0,0-3873.5,29a94.607,94.607,0,0,0-94.5,94.5,94.7,94.7,0,0,0,94,94.5v30Z" transform="translate(3756.891 -1282.576) rotate(-20)" fill="#f2f2f2"/>
</svg>
