<svg xmlns="http://www.w3.org/2000/svg" xmlns:xlink="http://www.w3.org/1999/xlink" width="156" height="154" viewBox="0 0 156 154">
  <defs>
    <clipPath id="clip-path">
      <rect width="156" height="154" fill="none"/>
    </clipPath>
  </defs>
  <g id="elem-5" clip-path="url(#clip-path)">
    <g transform="translate(-1727 -1562)">
      <rect id="Rectangle_59" data-name="Rectangle 59" width="20" height="20" rx="5" transform="translate(1727 1562)" fill="#f2f2f2"/>
    </g>
    <g transform="translate(-1694 -1562)">
      <rect id="Rectangle_59-2" data-name="Rectangle 59" width="20" height="20" rx="5" transform="translate(1727 1562)" fill="#f2f2f2"/>
    </g>
    <g transform="translate(-1661 -1562)">
      <rect id="Rectangle_59-3" data-name="Rectangle 59" width="20" height="20" rx="5" transform="translate(1727 1562)" fill="#f2f2f2"/>
    </g>
    <g transform="translate(-1628 -1562)">
      <rect id="Rectangle_59-4" data-name="Rectangle 59" width="20" height="20" rx="5" transform="translate(1727 1562)" fill="#f2f2f2"/>
    </g>
    <g transform="translate(-1595 -1562)">
      <rect id="Rectangle_59-5" data-name="Rectangle 59" width="20" height="20" rx="5" transform="translate(1727 1562)" fill="#f2f2f2"/>
    </g>
    <g transform="translate(-1727 -1529)">
      <rect id="Rectangle_59-6" data-name="Rectangle 59" width="20" height="20" rx="5" transform="translate(1727 1562)" fill="#f2f2f2"/>
    </g>
    <g transform="translate(-1694 -1529)">
      <rect id="Rectangle_59-7" data-name="Rectangle 59" width="20" height="20" rx="5" transform="translate(1727 1562)" fill="#f2f2f2"/>
    </g>
    <g transform="translate(-1661 -1529)">
      <rect id="Rectangle_59-8" data-name="Rectangle 59" width="20" height="20" rx="5" transform="translate(1727 1562)" fill="#f2f2f2"/>
    </g>
    <g transform="translate(-1628 -1529)">
      <rect id="Rectangle_59-9" data-name="Rectangle 59" width="20" height="20" rx="5" transform="translate(1727 1562)" fill="#f2f2f2"/>
    </g>
    <g transform="translate(-1595 -1529)">
      <rect id="Rectangle_59-10" data-name="Rectangle 59" width="20" height="20" rx="5" transform="translate(1727 1562)" fill="#f2f2f2"/>
    </g>
    <g transform="translate(-1727 -1496)">
      <rect id="Rectangle_59-11" data-name="Rectangle 59" width="20" height="20" rx="5" transform="translate(1727 1562)" fill="#f2f2f2"/>
    </g>
    <g transform="translate(-1694 -1496)">
      <rect id="Rectangle_59-12" data-name="Rectangle 59" width="20" height="20" rx="5" transform="translate(1727 1562)" fill="#f2f2f2"/>
    </g>
    <g transform="translate(-1661 -1496)">
      <rect id="Rectangle_59-13" data-name="Rectangle 59" width="20" height="20" rx="5" transform="translate(1727 1562)" fill="#f2f2f2"/>
    </g>
    <g transform="translate(-1628 -1496)">
      <rect id="Rectangle_59-14" data-name="Rectangle 59" width="20" height="20" rx="5" transform="translate(1727 1562)" fill="#f2f2f2"/>
    </g>
    <g transform="translate(-1595 -1496)">
      <rect id="Rectangle_59-15" data-name="Rectangle 59" width="20" height="20" rx="5" transform="translate(1727 1562)" fill="#f2f2f2"/>
    </g>
    <g transform="translate(-1727 -1463)">
      <rect id="Rectangle_59-16" data-name="Rectangle 59" width="20" height="20" rx="5" transform="translate(1727 1562)" fill="#f2f2f2"/>
    </g>
    <g transform="translate(-1694 -1463)">
      <rect id="Rectangle_59-17" data-name="Rectangle 59" width="20" height="20" rx="5" transform="translate(1727 1562)" fill="#f2f2f2"/>
    </g>
    <g transform="translate(-1661 -1463)">
      <rect id="Rectangle_59-18" data-name="Rectangle 59" width="20" height="20" rx="5" transform="translate(1727 1562)" fill="#f2f2f2"/>
    </g>
    <g transform="translate(-1628 -1463)">
      <rect id="Rectangle_59-19" data-name="Rectangle 59" width="20" height="20" rx="5" transform="translate(1727 1562)" fill="#f2f2f2"/>
    </g>
    <g transform="translate(-1595 -1463)">
      <rect id="Rectangle_59-20" data-name="Rectangle 59" width="20" height="20" rx="5" transform="translate(1727 1562)" fill="#f2f2f2"/>
    </g>
    <g transform="translate(-1727 -1430)">
      <rect id="Rectangle_59-21" data-name="Rectangle 59" width="20" height="20" rx="5" transform="translate(1727 1562)" fill="#f2f2f2"/>
    </g>
    <g transform="translate(-1694 -1430)">
      <rect id="Rectangle_59-22" data-name="Rectangle 59" width="20" height="20" rx="5" transform="translate(1727 1562)" fill="#f2f2f2"/>
    </g>
    <g transform="translate(-1661 -1430)">
      <rect id="Rectangle_59-23" data-name="Rectangle 59" width="20" height="20" rx="5" transform="translate(1727 1562)" fill="#f2f2f2"/>
    </g>
    <g transform="translate(-1628 -1430)">
      <rect id="Rectangle_59-24" data-name="Rectangle 59" width="20" height="20" rx="5" transform="translate(1727 1562)" fill="#f2f2f2"/>
    </g>
    <g transform="translate(-1595 -1430)">
      <rect id="Rectangle_59-25" data-name="Rectangle 59" width="20" height="20" rx="5" transform="translate(1727 1562)" fill="#f2f2f2"/>
    </g>
  </g>
</svg>
