<svg xmlns="http://www.w3.org/2000/svg" width="56" height="85.358" viewBox="0 0 56 85.358">
  <g id="icon-2" transform="translate(-1271.931 -439)">
    <rect id="Rectangle_6652" data-name="Rectangle 6652" width="56" height="55" transform="translate(1271.931 450.001)" fill="none"/>
    <g id="_000000ff" data-name="#000000ff" transform="translate(1275.275 439)">
      <path id="Path_108969" data-name="Path 108969" d="M54.889.179A6.659,6.659,0,0,1,59.544.96a12.186,12.186,0,0,1,4.143,4.62,38.673,38.673,0,0,1,3.493,9.687,87.193,87.193,0,0,1,1.7,10.084,10.009,10.009,0,0,1,3.967,1.078A11.408,11.408,0,0,1,77.6,31.333,16.362,16.362,0,0,1,79.411,38.5a12.05,12.05,0,0,1-1.154,5.734A6.075,6.075,0,0,1,77.192,45.8a5.991,5.991,0,0,1-3.914,2.126,8.654,8.654,0,0,1-4.614-.913,3.046,3.046,0,0,1-1.48,2.387,6.6,6.6,0,0,0,.457.967,19.281,19.281,0,0,1,1.046,3.018,1.1,1.1,0,0,1-.141,1.087A2.252,2.252,0,0,1,67.024,55a36.109,36.109,0,0,1-6.8.288,1.363,1.363,0,0,1-1,.848h-.49a51.4,51.4,0,0,1-7.25-.477c-.31-.084-.567-.315-.9-.334-2.144-.211-4.3-.153-6.449-.328a20.438,20.438,0,0,1-4-.55.917.917,0,0,1-.723-.825,2.216,2.216,0,0,1,.6-1.381,22.341,22.341,0,0,0,1.834-3.986c.1-.284.422-.326.672-.4a10.6,10.6,0,0,1-.987-.689c-.181.251-.333.619-.69.639-.334.039-.524-.277-.726-.482a15.051,15.051,0,0,1-8.669-.3,2.67,2.67,0,0,1-1.311-.657,2.139,2.139,0,0,1-.249-1.4c.066-4.386.2-8.882,1.711-13.051a9.28,9.28,0,0,1,3.469-4.776,7.053,7.053,0,0,1,4.676-.92A50.221,50.221,0,0,1,43.2,11.157a25.169,25.169,0,0,1,3.194-5.574,13.772,13.772,0,0,1,8.5-5.4M53.223,3.038a27.429,27.429,0,0,1,4.048.021,4.547,4.547,0,0,0-4.048-.021m-1.7,1a13.373,13.373,0,0,0-1.446,1.259c1.759.041,8.269-.1,9.755.1-.267-.353-.559-.686-.844-1.024m-9.7,1.776c-.264.309-.531.615-.776.939,2.268.015,11.465-.244,12.163-.422L60.352,6.1a.9.9,0,0,1-.445.246c-2.239.365-9.34-.057-10.619-.2M47.644,8.207c2.144.321,2.371-.3.311-.428-.105.142-.208.285-.311.428m-.55.806a28.692,28.692,0,0,0-3.572,8.733,52.15,52.15,0,0,0-1.278,7.831,58.1,58.1,0,0,0-.257,7.561c.161,2.346.383,4.687.487,7.037a24.989,24.989,0,0,1,3.863.676,52.1,52.1,0,0,0,12.6,1.336c2.658-.153,5.3-.5,7.939-.862,0-1.309.088-2.618.032-3.928-.044-1.239-.036-2.48-.117-3.718-.136-1.643-.2-3.294-.417-4.93-.33-3.083-.807-6.15-1.39-9.194a51.838,51.838,0,0,0-3.3-10.984m7.4,18.615c.025.378.055.756.084,1.133.965,0,1.926.09,2.888.136a8.437,8.437,0,0,0-2.972-1.269M35.358,29.95a30.764,30.764,0,0,1,4.131.188c.041-.813.084-1.626.125-2.437a6.814,6.814,0,0,0-4.256,2.249m33.891-.491c.034.479.072.957.1,1.437,1.65-.16,3.3-.25,4.957-.386-.16-.188-.323-.374-.487-.556-1.523-.176-3.037-.441-4.571-.5M34.6,30.93a13.786,13.786,0,0,0-1.079,2.187c1.349-.041,2.7-.037,4.044-.135a10.049,10.049,0,0,1,1.843.024c0-.548.053-1.094.023-1.641-.693-.084-1.391-.158-2.084-.255-.91-.127-1.832-.126-2.747-.18m34.794.631c.025.45.051.9.076,1.353.688-.042,1.376-.1,2.065-.149,1.353-.125,2.713-.09,4.071-.125-.1-.265-.233-.517-.36-.77a8.5,8.5,0,0,1-1.866.019c-1.327-.134-2.661-.172-3.985-.328m.1,1.915c.03.808.049,1.617.081,2.424,1.087.042,2.169.165,3.258.181,1.317.071,2.635.013,3.952,0-.159-.709-.365-1.405-.589-2.1a16.661,16.661,0,0,1-3.785-.167c-.977-.08-1.946-.219-2.917-.343m-36.273.544a26.1,26.1,0,0,0-.779,4.258q3.411-.066,6.822.036c.028-.519.05-1.038.073-1.558-1.947-.124-3.9-.193-5.838-.4a.532.532,0,0,1-.5-.291.426.426,0,0,1,.4-.576c1.989-.179,3.98.142,5.971.058q0-.7.018-1.4a25.755,25.755,0,0,1-3.365-.057c-.936-.02-1.871-.048-2.807-.064m36.364,2.674c0,.663.007,1.326.009,1.988,1.448-.079,2.9-.172,4.347-.194,1.055-.009,2.1-.127,3.158-.175-.027-.343-.073-.685-.122-1.024a30.289,30.289,0,0,1-7.392-.595M32.355,39.169c-.023.487-.054.974-.083,1.461a61.967,61.967,0,0,0,6.9.051c.008-.321.019-.642.03-.962-2.286-.124-4.571-.291-6.847-.551m37.228.208c0,.423-.013.846-.016,1.269.724.024,1.447.073,2.171.1,1.794.085,3.587-.055,5.382-.022a7.375,7.375,0,0,0,.013-.92c-1.322-.1-2.646-.216-3.971-.252-1.2-.016-2.386-.137-3.579-.17M32.236,41.595c-.007.4-.014.79-.022,1.185.985-.06,1.958.161,2.941.159,1.342.019,2.684.064,4.026.111q-.012-.49-.028-.978c-1.266.059-2.52-.173-3.783-.221-1.047-.039-2.09-.156-3.134-.255m37.3-.028q-.048.835-.093,1.669a31.34,31.34,0,0,1,6.928.375,7.8,7.8,0,0,0,.54-1.539,32.773,32.773,0,0,1-7.375-.505m-27.051.13a17.2,17.2,0,0,1-.468,4.167,10.649,10.649,0,0,0,1.683.817c3.518,1.368,7.342,1.547,11.071,1.7a36.653,36.653,0,0,0,7.2-.315,19.85,19.85,0,0,0,5.166-1.611,22.124,22.124,0,0,1-.273-3.148,9.964,9.964,0,0,1-1.591.773,11.952,11.952,0,0,1-2.732.56,31.931,31.931,0,0,1-6.781-.3c-2.943-.371-5.914-.546-8.832-1.1A14.978,14.978,0,0,1,42.484,41.7M32.2,43.956q0,.422.011.848a22.647,22.647,0,0,0,7.2.347q-.054-.388-.105-.776a34.382,34.382,0,0,1-4.54-.266c-.852-.1-1.714-.03-2.566-.153m37.148.273c-.025.3-.055.6-.087.9q1.5.288,3.017.487a3.9,3.9,0,0,0,2.919-.652c-1.944-.282-3.9-.52-5.85-.732M42.9,48.1a17.506,17.506,0,0,1-1.049,4.487c2.749.279,5.515.292,8.27.478a7.243,7.243,0,0,0,.158-2.715A19.318,19.318,0,0,1,42.9,48.1m17.389,2.74c-.025,1.019-.058,2.038-.03,3.056,1.994-.314,4-.584,5.991-.9,0-.03.01-.088.014-.117-.324-.9-.73-1.781-1.143-2.65a21.376,21.376,0,0,1-4.833.607m-7.754-.254A9.036,9.036,0,0,1,52.47,52.4a2.881,2.881,0,0,0,.159,1.275,50.3,50.3,0,0,0,5.39.24c.008-1.022-.019-2.045-.031-3.067C56.167,50.8,54.351,50.679,52.534,50.588Z" transform="translate(-29.883 -0.054)" fill="#c6d0d9"/>
      <path id="Path_108970" data-name="Path 108970" d="M183.974,125.618a8.441,8.441,0,0,1,8.515,3.871,7.972,7.972,0,0,1,1.193,4.979,6.761,6.761,0,0,1-1.954,4.077,10.023,10.023,0,0,1-4.189,2.45c-.365.1-.713-.159-1.081-.079a8.435,8.435,0,0,1-5.59-1.035,7.693,7.693,0,0,1-3.665-8.058,8.684,8.684,0,0,1,6.772-6.2m-.946,2.784c1.915.148,3.84.211,5.743.49a5.308,5.308,0,0,0-3.05-1.1,6.344,6.344,0,0,0-2.693.614m-3.2,2.68c.044.046.088.091.134.137a4.468,4.468,0,0,1,1.921-.529c1.51-.125,3.016.137,4.526.116,1.449.008,2.977-.185,4.337.438a8.661,8.661,0,0,0-.66-1.033,39.375,39.375,0,0,1-4.128-.692q-1.977-.306-3.965-.543a7.093,7.093,0,0,0-2.164,2.106m-.08.157A5.42,5.42,0,0,0,179.3,133a46.1,46.1,0,0,0,4.838.131c1.5.082,3.006.236,4.514.207.527-.011,1.051-.114,1.578-.077.424.051.719.67.329.955a4.057,4.057,0,0,1-1.9.525,44.067,44.067,0,0,1-5.586-.535,24.332,24.332,0,0,1-3.763-.389,7.378,7.378,0,0,0,.693,2.008c1.8-.032,3.591.046,5.387.03a8.9,8.9,0,0,1,3.8.675.565.565,0,0,1,.037.974,5.246,5.246,0,0,1-1.368.118c-1.715-.076-3.385-.518-5.089-.7-.691-.032-1.384-.048-2.075-.078a7.626,7.626,0,0,0,5.543,2.74,1.284,1.284,0,0,1,.5-.743c.517-.293,1.11-.42,1.625-.719a5.676,5.676,0,0,0,2.851-3.045,4.882,4.882,0,0,0-.093-3.071,1.454,1.454,0,0,1-1.329.49c-2.4-.225-4.81-.451-7.219-.616-.862-.041-1.713-.193-2.57-.284C179.915,131.482,179.838,131.357,179.752,131.238Z" transform="translate(-161.157 -111.896)" fill="#c6d0d9"/>
      <path id="Path_108971" data-name="Path 108971" d="M220.57,287.767a.979.979,0,0,1,1.014-.574,4.147,4.147,0,0,1,3.373,3.238,3.085,3.085,0,0,1-1.179,3.109,4.34,4.34,0,0,1-4.627.112,2.952,2.952,0,0,1-1.448-2.333,3.511,3.511,0,0,1,1.566-3.066,3.86,3.86,0,0,1,1.3-.485m-.987,2.869a1.444,1.444,0,0,0,.337,1.329,2.271,2.271,0,0,0,1.756.4,1.49,1.49,0,0,0,1.361-.81,1.742,1.742,0,0,0-.544-1.828,8.7,8.7,0,0,0-1.757-.947A3.191,3.191,0,0,0,219.583,290.636Z" transform="translate(-197.23 -255.856)" fill="#c6d0d9"/>
      <g id="Group_65968" data-name="Group 65968" transform="translate(13.13 58.242)">
        <path id="Path_108972" data-name="Path 108972" d="M3.754-.559S-1.726,8.42-1.55,15.249,3.5,18.795,3.5,18.795" transform="matrix(0.94, -0.342, 0.342, 0.94, 14.855, 5.454)" fill="none" stroke="#ff8100" stroke-width="2.5"/>
        <path id="Path_108973" data-name="Path 108973" d="M51.491,50.887c-1.726,6.731,0,20.316,0,20.316" transform="translate(-39.504 -44.244)" fill="none" stroke="#ff8100" stroke-width="2.5"/>
        <path id="Path_108974" data-name="Path 108974" d="M1.209.2A22.91,22.91,0,0,1,6.43,10.887c1.121,6.344-3.806,7.161-3.806,7.161" transform="translate(3.991 1.172) rotate(36)" fill="none" stroke="#ff8100" stroke-width="2.5"/>
      </g>
    </g>
  </g>
</svg>
