<svg xmlns="http://www.w3.org/2000/svg" width="251.541" height="40.4" viewBox="0 0 251.541 40.4">
  <g id="logo" transform="translate(-794.002 -42.576)">
    <g id="Group_65723" data-name="Group 65723" transform="translate(835.437 44.343)">
      <path id="Path_108953" data-name="Path 108953" d="M-288.342-35.2a23.973,23.973,0,0,0,2.454-2.222,24.207,24.207,0,0,0,2.421,2.222,22.055,22.055,0,0,0,3.25-3.117,19.262,19.262,0,0,0-3.25-3.117,20.936,20.936,0,0,0-2.454,2.222,16.539,16.539,0,0,0-2.421-2.222,20.528,20.528,0,0,0-3.25,3.117A22.05,22.05,0,0,0-288.342-35.2Zm18.59,13.517h-.166c-1.758,0-2.786-.962-2.786-3.946v-8.311l-4.908.256v8.6c0,1.512-2.709,4.013-9.5,3.637s-7.823-.525-8.232-1.99.409-11.114.409-11.114l-4.841.256s-.712,8.056-.614,11.19-1.045,7.228,11.565,7.064,15-3.652,15.476-5.306c-.409,3.316,2.371,4.974,4.693,4.974h.166v-3.913ZM-257.283-32.4c-7.329,0-6.069,10.711-10.877,10.711h-1.89v3.913l1.26,1.393h.63c3.615,0,5.339-2.023,6.5-4.311.286,2.567,2.743,4.827,6.8,4.643,2.819,0,4.775-2.686,4.775-6.467C-250.087-27.52-252.441-32.4-257.283-32.4Zm1.061,12c-1.393,0-2.255-.829-4.245-3.051.829-1.99,1.592-3.648,3.349-3.648,2.222,0,2.852,2.023,2.852,3.979C-254.265-21.949-254.5-20.39-256.222-20.39Zm27.491-1.293h-.166c-1.824,0-2.52-.8-3.15-2.852L-235.23-35.48l-4.908,1.625,3.383,11.144c-.2.862-1.161,1.36-3.383,1.36a25.55,25.55,0,0,1-7.694-1.36,22.265,22.265,0,0,0,.564,5.306,12.751,12.751,0,0,0,5.638,1.36c3.814,0,5.273-1.824,5.737-4.477,1.791,3.681,4.411,4.145,8.257,4.145h.166v-3.913Zm7.691-20.758a19.206,19.206,0,0,0-3.25,3.117,20.53,20.53,0,0,0,3.25,3.117,21.861,21.861,0,0,0,3.217-3.117A20.391,20.391,0,0,0-221.039-42.442Zm-4.077,26.064c9.385,0,14.523-6.865,18-8.058a24.836,24.836,0,0,0,.531-4.576c-4.742-.862-10.546-5.322-16.249-5.322a11.746,11.746,0,0,0-4.676.995,21.11,21.11,0,0,0-.431,4.809,16.8,16.8,0,0,1,3.582-.5c4.046,0,8.456,2.072,12.734,3.5-4.212,1.724-7.559,3.847-14.224,3.847h-3.184v3.913l1.26,1.393Zm31.082-19.185a11.145,11.145,0,0,0-4.51,1.923c.8.531,1.525,1.028,2.222,1.525-4.178,3.383-6.036,6.451-6.036,9.369,0,3.88,3.15,6.367,8.291,6.367,5.173,0,8.39-2.852,8.39-6.964C-185.677-28.117-189.358-33.042-194.034-35.563Zm-.033,14.111c-2.388,0-3.515-1.061-3.515-2.786,0-1.758,1.128-3.8,3.714-5.92,2.288,2.056,3.349,4.494,3.349,6.086C-190.519-22.612-191.613-21.452-194.067-21.452Zm19.548-.232h-.166c-1.758,0-2.786-.962-2.786-3.946v-7.894h-4.908V-18.9c0,4.145-1.061,4.842-3.482,4.842a23.26,23.26,0,0,0,.431,5.306c4.941-.166,7.959-2.786,7.959-9.086v-2.321c.73,2.62,2.122,3.78,4.046,3.78h.166v-3.913Zm26.065,0h-.663c-1.791,0-2.62-.6-2.885-2.023a10.454,10.454,0,0,1,1.559-.73,24.836,24.836,0,0,0,.531-4.576c-4.742-.862-10.546-5.936-16.249-5.936a11.746,11.746,0,0,0-4.676.995,21.11,21.11,0,0,0-.431,4.809,16.8,16.8,0,0,1,3.582-.5c4.046,0,8.456,2.686,12.734,4.112-4.212,1.724-10.015,3.847-16.681,3.847h-3.184v3.913l1.26,1.393h2.653c7,0,13-3.814,17.045-6.268.5,4.742,2.62,6.268,6,6.268h.663v-3.913Zm-13.461,7.793a20.819,20.819,0,0,0-3.25,3.15,18.926,18.926,0,0,0,3.25,3.084A21.6,21.6,0,0,0-158.7-10.74,22.207,22.207,0,0,0-161.915-13.891Zm18.568-18.239a21.86,21.86,0,0,0,3.217-3.117,20.391,20.391,0,0,0-3.217-3.117,19.206,19.206,0,0,0-3.25,3.117A20.531,20.531,0,0,0-143.346-32.13Zm5.5,10.446h-.166c-1.791,0-2.819-.962-2.819-3.946v-4.013h-4.908v3.78c0,3.15-.962,4.178-2.852,4.178h-.166v3.913l1.26,1.393h.3a5.747,5.747,0,0,0,5.9-4.576c.663,3.283,2.222,4.576,4.543,4.576h.166v-3.913Zm1.128,5.306c4.046,0,6.533-2.587,6.533-8.423a49,49,0,0,0-.829-8.109h-4.908a41.526,41.526,0,0,1,.862,7.346c0,3.117-1.094,3.88-2.918,3.88h-.166v3.913l1.26,1.393Zm3.082,2.487a15.15,15.15,0,0,0-2.686,2.587A17.791,17.791,0,0,0-139-13.891a15.971,15.971,0,0,0-2.752,2.653A15.971,15.971,0,0,0-139-8.585a15.149,15.149,0,0,0,2.686-2.587,15.15,15.15,0,0,0,2.686,2.587,15.97,15.97,0,0,0,2.752-2.653A18.771,18.771,0,0,0-133.632-13.891Zm-2.686,4.775a15.759,15.759,0,0,0-2.752,2.62,17.539,17.539,0,0,0,2.752,2.686A17.539,17.539,0,0,0-133.566-6.5,16.943,16.943,0,0,0-136.318-9.115Z" transform="translate(340.287 42.442)" fill="#0a9b94"/>
      <path id="Path_108955" data-name="Path 108955" d="M-346.01-21.538h-.166c-1.758,0-4.047.366-4.047-2.718l.614-17.081h-4.875l-.614,17.081c0,7.229,3.715,8.024,8.922,8.024h1.426v-3.913Zm4.429-14.131a23.863,23.863,0,0,0,2.421-2.222,21.231,21.231,0,0,0,2.454,2.222,23.821,23.821,0,0,0,3.25-3.117,22.129,22.129,0,0,0-3.25-3.117,20.932,20.932,0,0,0-2.454,2.222,18.422,18.422,0,0,0-2.421-2.222,19.206,19.206,0,0,0-3.25,3.117A20.531,20.531,0,0,0-341.581-35.669Zm6.183,14.131h-.166c-1.791,0-2.819-.962-2.819-3.946v-5.855h-4.908v5.623c0,3.15-.962,4.178-2.852,4.178h-.166v3.913l1.26,1.393h.3a5.747,5.747,0,0,0,5.9-4.576c.663,3.283,2.222,4.576,4.543,4.576h.166v-3.913Zm1.26,5.306c3.582,0,6.367-2.288,6.367-8.257v-7.66h-4.908v6.433c0,3.15-.962,4.178-2.852,4.178h-.166v3.913l1.26,1.393Zm1.937,3.1a21.661,21.661,0,0,0-2.454,2.255,19.17,19.17,0,0,0-2.454-2.255,20.614,20.614,0,0,0-3.217,3.15A20.041,20.041,0,0,0-337.109-6.9a20.479,20.479,0,0,0,2.454-2.189A18.208,18.208,0,0,0-332.2-6.9a21.6,21.6,0,0,0,3.217-3.084A22.207,22.207,0,0,0-332.2-13.131Zm7.248-3.1h4.875l.614-25.1h-4.875Z" transform="translate(355.098 42.296)" fill="#ff8100"/>
    </g>
    <path id="Union_85" data-name="Union 85" d="M11.224,32.134h0a16.537,16.537,0,0,1-9.994-9.369v0a16.524,16.524,0,0,1,8.945-21.51c.012,0,.027-.011.036-.016l.153-.062.055-.021.116-.046c.034-.011.062-.023.1-.035a0,0,0,0,0,0,0c.2-.078.406-.15.611-.22h0a16.591,16.591,0,0,1,10.488,0h0A16.536,16.536,0,0,1,29.063,5.81l.04.051c.027.031.052.062.081.091a.541.541,0,0,0,.057.075c.021.027.043.053.065.081s.05.058.072.086.034.048.054.071.055.065.082.1c.016.02.033.042.047.062.031.038.059.076.086.114.014.018.029.033.041.051.035.046.069.095.107.142a.094.094,0,0,0,.016.022,16.505,16.505,0,0,1-6.594,24.808l-.016.006c-.06.025-.115.052-.176.078-.012.007-.025.011-.039.018-.049.021-.095.042-.146.063-.022.008-.045.018-.067.027-.038.015-.072.027-.108.043l-.1.042c-.022.011-.049.019-.071.027-.045.018-.089.037-.133.053a.015.015,0,0,0-.012,0c-.192.074-.391.143-.587.209h0a16.55,16.55,0,0,1-10.533,0ZM18.511,3.808a9.955,9.955,0,0,0-3.125.953A16.679,16.679,0,0,0,9.2,9.947,18.8,18.8,0,0,0,5.758,17.71,11.781,11.781,0,0,0,6.3,24.284,8.206,8.206,0,0,0,9.493,28.07,11.146,11.146,0,0,0,19.084,29.1,13.525,13.525,0,0,0,23.9,25.861a44.931,44.931,0,0,0,4.393-5.443,33.189,33.189,0,0,1,2.137-2.753,7.8,7.8,0,0,1,.9-.892c0-.093,0-.187,0-.28a15.066,15.066,0,0,0-.117-1.866,14.9,14.9,0,0,0-2.061,1.836,60.505,60.505,0,0,1-4.735,4.682,11.685,11.685,0,0,1-3.812,2.215A7.444,7.444,0,0,1,16.9,23.6c-.339-.067-.666-.171-1.006-.259a5.629,5.629,0,0,0-.528,1.476,8.666,8.666,0,0,0-.235,1.819,4.829,4.829,0,0,1-2.809-1.512,5.027,5.027,0,0,1-1.483-3.785,5.5,5.5,0,0,1-1.848-2.494,4.27,4.27,0,0,1,.073-2.751,7.793,7.793,0,0,1,1.913-2.833,13.232,13.232,0,0,1,5-3.008,9.258,9.258,0,0,1,4.791-.4A5.016,5.016,0,0,1,23.7,11.664a2.366,2.366,0,0,1,.427.732,1.14,1.14,0,0,1-.286.949,4.436,4.436,0,0,1-1.327,1.049,11.4,11.4,0,0,1-3.332,1.166,8.3,8.3,0,0,1-2.914.095,2.567,2.567,0,0,1-1.739-1,2.442,2.442,0,0,1-.16-1.917A3.31,3.31,0,0,0,12.582,14.3a3.133,3.133,0,0,0-.366,2.267,3.024,3.024,0,0,0,1.061,1.586,5.074,5.074,0,0,0-1.225,2.5,4.319,4.319,0,0,0,.456,2.69,4.875,4.875,0,0,0,1.769,1.871,5.833,5.833,0,0,1,1.148-3.183,8.027,8.027,0,0,1,2.409-1.988c1.775-1.028,3.733-1.7,5.511-2.752a6.484,6.484,0,0,0,2.692-3.22,9.059,9.059,0,0,0,.548-3.323,7.826,7.826,0,0,0-.439-2.643,6.308,6.308,0,0,0-2.769-3.33A7.541,7.541,0,0,0,19.52,3.743,7.7,7.7,0,0,0,18.511,3.808Z" transform="translate(794.002 42.576)" fill="#ff8100"/>
  </g>
</svg>
