<svg xmlns="http://www.w3.org/2000/svg" xmlns:xlink="http://www.w3.org/1999/xlink" width="20.059" height="19.003" viewBox="0 0 20.059 19.003">
  <defs>
    <linearGradient id="linear-gradient" x1="0.085" y1="0.189" x2="0.657" y2="0.971" gradientUnits="objectBoundingBox">
      <stop offset="0" stop-color="#ffac58"/>
      <stop offset="1" stop-color="#ff8100"/>
    </linearGradient>
  </defs>
  <path id="star" d="M19.623,9.659A1.4,1.4,0,0,0,19.987,8.2a1.426,1.426,0,0,0-1.162-.968l-4.857-.7a.634.634,0,0,1-.478-.344L11.319,1.84a1.446,1.446,0,0,0-2.58,0L6.567,6.192a.635.635,0,0,1-.478.344l-4.857.7A1.425,1.425,0,0,0,.071,8.2,1.4,1.4,0,0,0,.435,9.659l3.514,3.387a.625.625,0,0,1,.183.556L3.3,18.385a1.382,1.382,0,0,0,.314,1.153,1.465,1.465,0,0,0,1.773.346l4.344-2.258a.657.657,0,0,1,.591,0l4.344,2.258a1.442,1.442,0,0,0,1.773-.346,1.381,1.381,0,0,0,.314-1.153L15.926,13.6a.624.624,0,0,1,.183-.556Z" transform="translate(0.001 -1.047)" fill="url(#linear-gradient)"/>
</svg>
