<svg xmlns="http://www.w3.org/2000/svg" width="143.644" height="26.412" viewBox="0 0 143.644 26.412">
  <g id="text-logo" transform="translate(-820.358 -43.7)">
    <g id="Group_65723" data-name="Group 65723" transform="translate(820.358 43.7)">
      <path id="Path_108953" data-name="Path 108953" d="M-292.157-37.491a16.391,16.391,0,0,0,1.678-1.519,16.546,16.546,0,0,0,1.655,1.519,15.079,15.079,0,0,0,2.222-2.131,13.168,13.168,0,0,0-2.222-2.131,14.314,14.314,0,0,0-1.678,1.519,11.308,11.308,0,0,0-1.655-1.519,14.036,14.036,0,0,0-2.222,2.131A15.077,15.077,0,0,0-292.157-37.491Zm12.71,9.241h-.113c-1.2,0-1.9-.657-1.9-2.7V-36.63l-3.356.175v5.878c0,1.034-1.852,2.743-6.5,2.486s-5.348-.359-5.628-1.36.28-7.6.28-7.6l-3.31.175s-.487,5.508-.42,7.65-.714,4.942,7.907,4.829,10.258-2.5,10.581-3.628a3.042,3.042,0,0,0,3.208,3.4h.113V-27.3Zm8.525-7.323c-5.011,0-4.149,7.323-7.436,7.323h-1.292v2.675l.862.952h.431a4.647,4.647,0,0,0,4.444-2.947c.2,1.755,1.875,3.3,4.648,3.174,1.927,0,3.265-1.836,3.265-4.421C-266-32.24-267.612-35.573-270.922-35.573Zm.726,8.207c-.952,0-1.542-.567-2.9-2.086.567-1.36,1.088-2.494,2.29-2.494,1.519,0,1.95,1.383,1.95,2.721C-268.859-28.431-269.018-27.366-270.2-27.366Zm18.8-.884h-.113c-1.247,0-1.723-.544-2.154-1.95l-2.177-7.483-3.355,1.111,2.313,7.619c-.136.589-.794.93-2.313.93a17.468,17.468,0,0,1-5.26-.93,15.223,15.223,0,0,0,.385,3.628,8.718,8.718,0,0,0,3.854.93c2.607,0,3.6-1.247,3.922-3.061,1.224,2.517,3.015,2.834,5.645,2.834h.113V-27.3Zm5.258-14.192a13.13,13.13,0,0,0-2.222,2.131,14.034,14.034,0,0,0,2.222,2.131,14.946,14.946,0,0,0,2.2-2.131A13.943,13.943,0,0,0-246.143-42.442Zm-2.787,17.82c6.416,0,9.929-4.693,12.309-5.509a16.978,16.978,0,0,0,.363-3.129c-3.242-.589-7.21-3.638-11.109-3.638a8.03,8.03,0,0,0-3.2.68,14.434,14.434,0,0,0-.295,3.287,11.486,11.486,0,0,1,2.449-.34c2.766,0,5.781,1.417,8.706,2.391-2.879,1.179-5.168,2.63-9.725,2.63h-2.177v2.675l.862.952Zm21.25-13.116a7.619,7.619,0,0,0-3.083,1.315c.544.363,1.043.7,1.519,1.043-2.857,2.313-4.126,4.41-4.126,6.405,0,2.653,2.154,4.353,5.668,4.353,3.537,0,5.736-1.95,5.736-4.761C-221.967-32.648-224.484-36.016-227.681-37.739Zm-.023,9.647c-1.632,0-2.4-.726-2.4-1.9,0-1.2.771-2.6,2.539-4.047a6.252,6.252,0,0,1,2.29,4.161C-225.277-28.885-226.026-28.091-227.7-28.091Zm13.365-.159h-.113c-1.2,0-1.9-.657-1.9-2.7v-5.4h-3.355v10c0,2.834-.725,3.31-2.381,3.31a15.9,15.9,0,0,0,.295,3.628c3.378-.113,5.441-1.9,5.441-6.212v-1.587c.5,1.791,1.451,2.585,2.766,2.585h.113V-27.3Zm17.82,0h-.453c-1.224,0-1.791-.408-1.972-1.383a7.148,7.148,0,0,1,1.066-.5,16.983,16.983,0,0,0,.363-3.129c-3.242-.589-7.21-4.058-11.109-4.058a8.03,8.03,0,0,0-3.2.68,14.432,14.432,0,0,0-.295,3.287,11.487,11.487,0,0,1,2.449-.34c2.766,0,5.781,1.836,8.706,2.811a29.983,29.983,0,0,1-11.4,2.63h-2.177v2.675l.862.952h1.814c4.784,0,8.887-2.607,11.653-4.285.34,3.242,1.791,4.285,4.1,4.285h.453V-27.3Zm-9.2,5.328a14.233,14.233,0,0,0-2.222,2.154,12.938,12.938,0,0,0,2.222,2.109,14.764,14.764,0,0,0,2.2-2.109A15.182,15.182,0,0,0-205.721-22.922Zm12.695-12.47a14.949,14.949,0,0,0,2.2-2.131,13.942,13.942,0,0,0-2.2-2.131,13.131,13.131,0,0,0-2.222,2.131A14.035,14.035,0,0,0-193.027-35.392Zm3.764,7.142h-.113c-1.224,0-1.927-.657-1.927-2.7v-2.743h-3.355v2.585c0,2.154-.658,2.857-1.95,2.857h-.113v2.675l.862.952h.2a3.929,3.929,0,0,0,4.036-3.129c.453,2.245,1.519,3.129,3.106,3.129h.113V-27.3Zm.771,3.628c2.766,0,4.466-1.768,4.466-5.759a33.5,33.5,0,0,0-.567-5.544h-3.355a28.39,28.39,0,0,1,.59,5.022c0,2.131-.748,2.653-2,2.653h-.113v2.675l.862.952Zm2.107,1.7a10.359,10.359,0,0,0-1.836,1.768,12.163,12.163,0,0,0-1.836-1.768,10.919,10.919,0,0,0-1.882,1.814,10.919,10.919,0,0,0,1.882,1.814,10.357,10.357,0,0,0,1.836-1.768,10.359,10.359,0,0,0,1.836,1.768,10.919,10.919,0,0,0,1.882-1.814A12.834,12.834,0,0,0-186.385-22.922Zm-1.836,3.265a10.775,10.775,0,0,0-1.882,1.791,11.992,11.992,0,0,0,1.882,1.836,11.991,11.991,0,0,0,1.882-1.836A11.582,11.582,0,0,0-188.222-19.657Z" transform="translate(327.67 42.442)" fill="#0a9b94"/>
      <path id="Path_108955" data-name="Path 108955" d="M-348.885-27.98H-349c-1.2,0-2.767.25-2.767-1.858l.42-11.678h-3.333l-.42,11.678c0,4.943,2.54,5.486,6.1,5.486h.975v-2.675Zm3.028-9.661A16.307,16.307,0,0,0-344.2-39.16a14.515,14.515,0,0,0,1.678,1.519,16.286,16.286,0,0,0,2.222-2.131,15.13,15.13,0,0,0-2.222-2.131,14.312,14.312,0,0,0-1.678,1.519,12.6,12.6,0,0,0-1.655-1.519,13.132,13.132,0,0,0-2.222,2.131A14.037,14.037,0,0,0-345.857-37.641Zm4.227,9.661h-.113c-1.224,0-1.927-.657-1.927-2.7v-4h-3.355v3.844c0,2.154-.658,2.857-1.95,2.857h-.113V-25.3l.862.952h.2a3.929,3.929,0,0,0,4.036-3.129c.453,2.245,1.519,3.129,3.106,3.129h.113v-2.675Zm.861,3.628c2.449,0,4.353-1.564,4.353-5.645v-5.237h-3.355v4.4c0,2.154-.657,2.857-1.95,2.857h-.113V-25.3l.861.952Zm1.324,2.12a14.81,14.81,0,0,0-1.678,1.542,13.108,13.108,0,0,0-1.678-1.542,14.1,14.1,0,0,0-2.2,2.154,13.7,13.7,0,0,0,2.2,2.109,14,14,0,0,0,1.678-1.5,12.449,12.449,0,0,0,1.678,1.5,14.761,14.761,0,0,0,2.2-2.109A15.176,15.176,0,0,0-339.444-22.232Zm4.955-2.12h3.333l.42-17.164h-3.333Z" transform="translate(355.098 42.172)" fill="#ff8100"/>
    </g>
  </g>
</svg>
